<?xml version="1.0" encoding="UTF-8"?>
<svg xmlns="http://www.w3.org/2000/svg" width="2559.13" height="2365.76" viewBox="0 0 2559.13 2365.76">
  <g id="b" data-name="HUD_DGTL_STT_AIM9_AA_-_Light">
    <path d="M2061.887,520.838c-76.815-76.815-183.061-183.061-183.061-183.061H683.783l-254.739,254.739v1425.43h1710.391V598.386s-34.057-34.057-77.548-77.548Z" fill="none" stroke="#000" stroke-miterlimit="10" stroke-width="13"/>
    <g id="c" data-name="baro_alt_rect">
      <path id="d" data-name="rect7" d="M1736.116,1249.139v71.976h195.363v-71.976h-195.363Z" fill="none" stroke="#000" stroke-miterlimit="15.1" stroke-width="6"/>
    </g>
    <g id="e" data-name="airspeed_rect">
      <path id="f" data-name="rect8" d="M638.187,1247.726v73.628h195.015v-73.628h-195.015Z" fill="none" stroke="#000" stroke-miterlimit="15.1" stroke-width="6"/>
    </g>
    <g id="g" data-name="CompassMarker">
      <path id="h" data-name="path98" d="M1287.678,484.516h24.701l-24.701,49.402-24.701-49.402h24.701Z" fill="none" stroke="#000" stroke-miterlimit="10" stroke-width="6"/>
    </g>
    <rect id="i" data-name="CmdCue" x="859.87" y="541.764" width="13.339" height="42.98" fill="none" stroke="#000" stroke-miterlimit="10" stroke-width="6"/>
    <line x1="818.783" y1="538.386" x2="818.783" y2="584.744" fill="none" stroke="#000" stroke-miterlimit="10" stroke-width="6"/>
    <line x1="1082.783" y1="538.386" x2="1082.783" y2="584.744" fill="none" stroke="#000" stroke-miterlimit="10" stroke-width="6"/>
    <line x1="1344.174" y1="538.386" x2="1344.174" y2="584.744" fill="none" stroke="#000" stroke-miterlimit="10" stroke-width="6"/>
    <line x1="1605.043" y1="538.386" x2="1605.043" y2="584.744" fill="none" stroke="#000" stroke-miterlimit="10" stroke-width="6"/>
    <line x1="948.174" y1="534.663" x2="948.174" y2="562.309" fill="none" stroke="#000" stroke-miterlimit="10" stroke-width="6"/>
    <line x1="1475.13" y1="536.897" x2="1475.13" y2="560.076" fill="none" stroke="#000" stroke-miterlimit="10" stroke-width="6"/>
    <g>
      <path d="M815.604,591.972v26.086c0,4.436-3.909,8.041-8.716,8.041h-12.79c-4.888,0-8.716-3.533-8.716-8.041v-26.086c0-4.436,3.909-8.041,8.716-8.041h12.79c4.808,0,8.716,3.605,8.716,8.041ZM809.23,591.972c0-.92-1.051-1.671-2.343-1.671h-12.79c-1.342,0-2.342.882-2.342,1.671v26.086c0,.92,1.051,1.671,2.342,1.671h12.79c1.342,0,2.343-.882,2.343-1.671v-26.086Z"/>
      <path d="M852.168,591.972v26.086c0,4.436-3.909,8.041-8.716,8.041h-12.79c-4.888,0-8.716-3.533-8.716-8.041v-26.086c0-4.436,3.909-8.041,8.716-8.041h12.79c4.808,0,8.716,3.605,8.716,8.041ZM845.795,591.972c0-.92-1.051-1.671-2.343-1.671h-12.79c-1.342,0-2.342.882-2.342,1.671v26.086c0,.92,1.051,1.671,2.342,1.671h12.79c1.342,0,2.343-.882,2.343-1.671v-26.086Z"/>
    </g>
    <g>
      <path d="M1079.604,591.972v26.086c0,4.436-3.909,8.041-8.717,8.041h-12.79c-4.888,0-8.716-3.533-8.716-8.041v-26.086c0-4.436,3.908-8.041,8.716-8.041h12.79c4.808,0,8.717,3.605,8.717,8.041ZM1073.23,591.972c0-.92-1.051-1.671-2.343-1.671h-12.79c-1.342,0-2.342.882-2.342,1.671v26.086c0,.92,1.051,1.671,2.342,1.671h12.79c1.343,0,2.343-.882,2.343-1.671v-26.086Z"/>
      <path d="M1112.982,619.717c1.76,0,3.187,1.427,3.187,3.187s-1.427,3.187-3.187,3.187h-23.85c-.438,0-.86-.093-1.24-.253-.025-.009-.043-.034-.067-.046-.367-.165-.697-.393-.972-.676-.013-.012-.029-.017-.042-.029-.114-.118-.16-.27-.249-.401-.139-.199-.291-.384-.38-.612-.089-.232-.109-.473-.144-.717-.025-.156-.093-.292-.093-.452,0-.017.009-.034.009-.051.004-.262.084-.511.151-.764.043-.147.047-.312.105-.452.056-.131.165-.236.241-.359.139-.232.274-.468.469-.658.013-.013.029-.042.029-.042l18.15-17.011c2.743-2.579,4.242-5.373,4.111-7.665-.089-1.604-.976-3.01-2.697-4.293-1.161-.857-2.815-1.313-4.766-1.313-3.761,0-6.703.642-8.855,3.77-.996,1.457-2.977,1.819-4.433.823-1.447-.996-1.814-2.98-.818-4.432,4.491-6.53,11.477-6.53,14.106-6.53,3.322,0,6.281.886,8.561,2.562,4.103,3.06,5.128,6.61,5.268,9.054.24,4.238-1.929,8.737-6.116,12.676l-12.274,11.506h15.79l.005-.008Z"/>
    </g>
    <g>
      <path d="M1341.755,591.97v26.086c0,4.436-3.909,8.041-8.717,8.041h-12.79c-4.888,0-8.716-3.533-8.716-8.041v-26.086c0-4.436,3.908-8.041,8.716-8.041h12.79c4.808,0,8.717,3.605,8.717,8.041ZM1335.381,591.97c0-.92-1.051-1.671-2.343-1.671h-12.79c-1.342,0-2.342.882-2.342,1.671v26.086c0,.92,1.051,1.671,2.342,1.671h12.79c1.343,0,2.343-.882,2.343-1.671v-26.086Z"/>
      <path d="M1374.438,603.405c1.385.35,2.406,1.6,2.406,3.09s-1.021,2.739-2.406,3.09v13.33c0,1.76-1.427,3.187-3.187,3.187s-3.187-1.427-3.187-3.187v-13.237h-16.779c-1.245,0-2.376-.718-2.896-1.849-.523-1.131-.338-2.46.469-3.406l16.547-19.375c.604-.709,1.489-1.119,2.423-1.119h3.419c1.76,0,3.187,1.427,3.187,3.187v16.28l.004.009ZM1368.06,591.75l-9.864,11.553h9.864v-11.553Z"/>
    </g>
    <g>
      <path d="M1601.865,591.974v26.086c0,4.436-3.908,8.041-8.716,8.041h-12.79c-4.888,0-8.717-3.533-8.717-8.041v-26.086c0-4.436,3.909-8.041,8.717-8.041h12.79c4.808,0,8.716,3.605,8.716,8.041ZM1595.492,591.974c0-.92-1.052-1.671-2.343-1.671h-12.79c-1.343,0-2.343.882-2.343,1.671v26.086c0,.92,1.051,1.671,2.343,1.671h12.79c1.342,0,2.343-.882,2.343-1.671v-26.086Z"/>
      <path d="M1623.044,598.837c9.202,0,15.386,5.47,15.386,13.613,0,8.02-6.327,13.617-15.386,13.617s-14.837-5.344-14.837-13.617c0-.194.047-.363.051-.553-.008-.088-.051-.16-.051-.249,0-4.381,3.913-13.305,7.695-19.408,2.532-4.094,4.217-5.774,5.698-7.256,1.245-1.245,3.322-1.305,4.567-.059,1.245,1.245,1.305,3.208.059,4.449l-.118.118c-1.358,1.355-2.638,2.638-4.786,6.104-.747,1.199-1.423,2.415-2.06,3.622,1.194-.228,2.439-.384,3.781-.384v.004ZM1632.056,612.446c0-6.534-6.303-7.239-9.013-7.239-3.862,0-8.463,1.258-8.463,7.239,0,4.673,3.006,7.243,8.463,7.243,5.56,0,9.013-2.773,9.013-7.243Z"/>
    </g>
    <path id="j" data-name="TCSDesignator" d="M1203.715,1183.125c0,4.187-3.402,7.588-7.588,7.588s-7.588-3.402-7.588-7.588,3.402-7.588,7.588-7.588,7.588,3.402,7.588,7.588ZM1270.65,1175.537c-4.187,0-7.588,3.402-7.588,7.588s3.402,7.588,7.588,7.588,7.588-3.402,7.588-7.588-3.402-7.588-7.588-7.588ZM1196.127,1250.06c-4.187,0-7.588,3.402-7.588,7.588s3.402,7.588,7.588,7.588,7.588-3.402,7.588-7.588-3.402-7.588-7.588-7.588h0ZM1270.65,1250.06c-4.187,0-7.588,3.402-7.588,7.588s3.402,7.588,7.588,7.588,7.588-3.402,7.588-7.588-3.402-7.588-7.588-7.588h0Z" fill="none" stroke="#000" stroke-miterlimit="15.1" stroke-width="5"/>
    <g>
      <path d="M711.415,1283.361c1.958,1.959,3.039,4.56,3.039,7.315v2.997c0,3.833-1.824,7.471-4.875,9.738-2.064,1.562-4.584,2.397-7.26,2.397h-2.659c-2.418,0-9.607-1.343-12.148-2.617l-1.452-.684c-1.591-.752-2.271-2.651-1.52-4.242.751-1.596,2.646-2.268,4.242-1.52l1.52.717c1.41.705,7.492,1.976,9.362,1.976h2.659c1.275,0,2.461-.393,3.436-1.127,1.481-1.105,2.321-2.79,2.321-4.639v-2.997c0-1.056-.418-2.052-1.178-2.812l-.511-.511c-.608-.611-1.448-.962-2.3-.962h-6.29c-1.228,0-2.351-.709-2.878-1.823-.528-1.115-.367-2.428.414-3.382l9.168-11.219h-12.655c-1.76,0-3.187-1.427-3.187-3.188s1.426-3.187,3.187-3.187h19.375c1.229,0,2.352.709,2.879,1.823.528,1.11.367,2.427-.414,3.381l-9.177,11.229c2.385.105,4.694,1.122,6.391,2.819l.511.511v.004Z"/>
      <path d="M751.02,1271.636v26.086c0,4.437-3.909,8.041-8.716,8.041h-12.79c-4.888,0-8.716-3.533-8.716-8.041v-26.086c0-4.437,3.909-8.041,8.716-8.041h12.79c4.808,0,8.716,3.604,8.716,8.041ZM744.646,1271.636c0-.92-1.051-1.672-2.343-1.672h-12.79c-1.342,0-2.342.883-2.342,1.672v26.086c0,.92,1.051,1.672,2.342,1.672h12.79c1.342,0,2.343-.883,2.343-1.672v-26.086Z"/>
      <path d="M784.912,1283.062c2.347,2.73,2.284,5.326,2.229,7.416l-.017.958c0,3.9-1.232,7.366-3.381,9.519-1.841,1.836-4.373,3.183-6.948,3.697-1.984.397-12.722.925-15.968,1.072h-.152c-1.692,0-3.103-1.334-3.183-3.039-.08-1.756,1.275-3.246,3.035-3.33,6.517-.309,13.917-.747,15.019-.958,1.333-.271,2.748-1.018,3.689-1.959.701-.7,1.515-2.432,1.515-5.011l.017-1.118c.042-1.769.025-2.263-.684-3.09-.802-.925-1.465-1.102-3.04-1.169h-16.369c-1.751,0-3.174-1.41-3.187-3.162l-.127-16.086c-.004-.853.325-1.668.924-2.271.6-.604,1.414-.94,2.263-.94h21.865c1.76,0,3.187,1.426,3.187,3.187s-1.427,3.187-3.187,3.187h-18.652l.076,9.713h13.343c2.655.114,5.314.595,7.729,3.381l.004.005Z"/>
    </g>
    <g>
      <path d="M710.846,1213.573c1.958,1.959,3.039,4.559,3.039,7.315v2.997c0,3.832-1.824,7.471-4.875,9.738-2.064,1.561-4.584,2.396-7.26,2.396h-2.659c-2.418,0-9.607-1.342-12.148-2.617l-1.452-.684c-1.591-.751-2.271-2.65-1.52-4.242.751-1.596,2.646-2.267,4.242-1.52l1.52.718c1.41.705,7.492,1.976,9.362,1.976h2.659c1.275,0,2.461-.393,3.436-1.127,1.481-1.105,2.321-2.79,2.321-4.639v-2.997c0-1.056-.418-2.052-1.178-2.812l-.511-.511c-.608-.612-1.448-.962-2.3-.962h-6.29c-1.228,0-2.351-.709-2.878-1.824-.528-1.114-.367-2.427.414-3.381l9.168-11.219h-12.655c-1.76,0-3.187-1.428-3.187-3.188s1.426-3.188,3.187-3.188h19.375c1.229,0,2.352.71,2.879,1.824.528,1.109.367,2.427-.414,3.381l-9.177,11.229c2.385.105,4.694,1.122,6.391,2.819l.511.511v.004Z"/>
      <path d="M729.556,1229.647c1.667.105,2.997,1.456,2.997,3.148,0,1.76-1.427,3.188-3.187,3.188h-5.952c-1.76,0-3.187-1.428-3.187-3.188,0-1.68,1.309-3.014,2.955-3.141v-28.576c-.519-.24-.992-.591-1.33-1.105-.966-1.469-.561-3.449.908-4.416l1.857-1.224c.08-.056.177-.06.262-.105.186-.102.375-.173.583-.236.215-.067.417-.114.637-.131.093-.009.173-.056.27-.056.105,0,.194.051.3.06.219.021.431.063.642.131.194.063.372.136.544.228.177.094.338.203.498.334.173.139.317.291.456.46.067.085.16.131.219.224.055.08.059.178.105.262.102.186.173.38.237.587.063.211.109.413.126.629.008.097.055.177.055.274v32.65l.004.004Z"/>
      <path d="M748.218,1229.647c1.667.105,2.997,1.456,2.997,3.148,0,1.76-1.427,3.188-3.187,3.188h-5.952c-1.76,0-3.187-1.428-3.187-3.188,0-1.68,1.309-3.014,2.955-3.141v-28.576c-.519-.24-.992-.591-1.33-1.105-.966-1.469-.561-3.449.908-4.416l1.857-1.224c.08-.056.177-.06.262-.105.186-.102.375-.173.583-.236.215-.067.417-.114.637-.131.093-.009.173-.056.27-.056.105,0,.194.051.3.06.219.021.431.063.642.131.194.063.372.136.544.228.177.094.338.203.498.334.173.139.317.291.456.46.067.085.16.131.219.224.055.08.059.178.105.262.102.186.173.38.237.587.063.211.109.413.126.629.008.097.055.177.055.274v32.65l.004.004Z"/>
      <path d="M787.606,1214.851l.127,10.088c0,3.001-1.211,5.88-3.326,7.939-2.001,1.941-4.766,3.057-7.585,3.057h-7.682c-2.406,0-4.77-.807-6.648-2.279l-.688-.523c-2.697-2.039-4.25-5.184-4.25-8.615v-19.206c0-3.377,1.596-6.602,4.263-8.619l.709-.54c1.849-1.448,4.208-2.259,6.614-2.259h8.442c2.132,0,4.217.638,6.028,1.845l2.537,1.692c1.465.979,1.857,2.955.882,4.419-.975,1.47-2.951,1.857-4.419.883l-2.533-1.692c-.76-.507-1.621-.772-2.495-.772h-8.442c-1.005,0-1.942.32-2.723.928l-.751.574c-1.097.824-1.743,2.148-1.743,3.542v19.206c0,1.418.629,2.705,1.73,3.537l.73.557c.806.633,1.748.954,2.752.954h7.682c1.178,0,2.322-.46,3.141-1.253.899-.874,1.397-2.057,1.397-3.326l-.089-6.902h-7.281c-1.76,0-3.187-1.426-3.187-3.187s1.427-3.187,3.187-3.187h10.426c1.744,0,3.166,1.4,3.187,3.145l.008-.004Z"/>
    </g>
    <g>
      <path d="M1764.589,1299.435c1.667.105,2.997,1.457,2.997,3.149,0,1.761-1.427,3.187-3.188,3.187h-5.951c-1.761,0-3.188-1.426-3.188-3.187,0-1.68,1.309-3.014,2.955-3.14v-28.577c-.52-.241-.992-.591-1.33-1.106-.966-1.469-.561-3.448.908-4.414l1.857-1.225c.08-.055.177-.059.262-.105.186-.102.375-.174.582-.236.215-.068.418-.114.638-.131.093-.009.173-.055.27-.055.105,0,.194.051.3.059.22.021.431.063.642.131.194.063.372.135.545.229.177.092.338.202.498.333.173.14.316.291.456.46.067.084.16.131.219.224.056.081.06.177.105.262.102.187.174.38.237.587.062.211.109.414.126.629.009.098.055.178.055.274v32.649l.005.004Z"/>
      <path d="M1800.958,1299.38c1.761,0,3.188,1.428,3.188,3.188s-1.427,3.187-3.188,3.187h-23.849c-.439,0-.861-.093-1.241-.253-.025-.009-.042-.033-.067-.047-.367-.164-.696-.393-.971-.676-.013-.012-.029-.016-.042-.029-.114-.117-.161-.27-.249-.4-.14-.199-.292-.385-.38-.612-.089-.231-.11-.473-.144-.718-.025-.156-.093-.291-.093-.451,0-.018.008-.034.008-.051.005-.262.085-.511.152-.764.042-.148.046-.312.105-.452.055-.131.165-.236.24-.358.14-.232.274-.469.469-.658.013-.014.029-.043.029-.043l18.15-17.011c2.744-2.579,4.242-5.373,4.111-7.665-.088-1.604-.975-3.01-2.697-4.293-1.16-.857-2.815-1.312-4.766-1.312-3.761,0-6.702.641-8.855,3.77-.996,1.456-2.976,1.818-4.432.822-1.448-.996-1.815-2.979-.819-4.432,4.491-6.529,11.478-6.529,14.106-6.529,3.322,0,6.281.886,8.561,2.562,4.104,3.06,5.129,6.61,5.268,9.054.241,4.238-1.929,8.738-6.116,12.676l-12.274,11.507h15.791l.004-.009Z"/>
      <path d="M1836.829,1283.07c1.385.351,2.406,1.6,2.406,3.09s-1.021,2.739-2.406,3.09v13.33c0,1.76-1.427,3.187-3.187,3.187s-3.188-1.427-3.188-3.187v-13.237h-16.778c-1.245,0-2.377-.718-2.896-1.85-.523-1.131-.338-2.46.469-3.406l16.546-19.374c.604-.709,1.49-1.118,2.423-1.118h3.419c1.761,0,3.188,1.426,3.188,3.187v16.28l.004.009ZM1830.451,1271.416l-9.864,11.553h9.864v-11.553Z"/>
      <path d="M1875.755,1271.636v26.086c0,4.436-3.908,8.041-8.716,8.041h-12.79c-4.888,0-8.717-3.533-8.717-8.041v-26.086c0-4.437,3.909-8.041,8.717-8.041h12.79c4.808,0,8.716,3.604,8.716,8.041ZM1869.381,1271.636c0-.92-1.052-1.672-2.343-1.672h-12.79c-1.343,0-2.343.883-2.343,1.672v26.086c0,.92,1.051,1.672,2.343,1.672h12.79c1.342,0,2.343-.883,2.343-1.672v-26.086Z"/>
      <path d="M1909.279,1283.361c1.959,1.958,3.039,4.56,3.039,7.315v2.996c0,3.834-1.823,7.472-4.875,9.738-2.064,1.562-4.584,2.398-7.261,2.398h-2.659c-2.418,0-9.606-1.343-12.147-2.617l-1.452-.684c-1.592-.752-2.271-2.651-1.52-4.242.751-1.596,2.646-2.268,4.242-1.52l1.52.717c1.409.705,7.492,1.976,9.362,1.976h2.659c1.274,0,2.461-.393,3.436-1.127,1.481-1.106,2.321-2.79,2.321-4.64v-2.996c0-1.056-.418-2.052-1.178-2.812l-.511-.511c-.607-.611-1.447-.963-2.3-.963h-6.29c-1.228,0-2.351-.709-2.878-1.822-.528-1.115-.367-2.428.413-3.382l9.168-11.22h-12.654c-1.761,0-3.187-1.426-3.187-3.187s1.426-3.187,3.187-3.187h19.374c1.229,0,2.352.709,2.879,1.823.528,1.11.367,2.427-.413,3.381l-9.177,11.228c2.385.105,4.693,1.123,6.391,2.82l.511.511v.004Z"/>
    </g>
    <g>
      <path d="M715.387,1536.589c1.476.093,2.653,1.289,2.653,2.787,0,1.558-1.263,2.82-2.821,2.82h-5.268c-1.558,0-2.821-1.263-2.821-2.82,0-1.487,1.159-2.668,2.616-2.78v-25.296c-.459-.213-.878-.522-1.177-.979-.855-1.3-.497-3.053.804-3.908l1.644-1.084c.071-.048.157-.052.231-.093.165-.09.333-.153.516-.21.19-.06.37-.101.564-.115.082-.008.153-.049.239-.049.094,0,.172.045.266.053.194.019.381.056.568.115.172.057.329.12.482.202.157.082.299.18.441.295.153.123.28.258.403.407.06.075.142.116.194.198.049.071.052.157.094.231.089.165.153.337.209.52.056.187.097.366.112.557.007.086.048.157.048.243v28.901l.004.004Z"/>
      <path d="M739.747,1536.589c1.476.093,2.653,1.289,2.653,2.787,0,1.558-1.263,2.82-2.821,2.82h-5.268c-1.558,0-2.821-1.263-2.821-2.82,0-1.487,1.159-2.668,2.616-2.78v-25.296c-.459-.213-.878-.522-1.177-.979-.855-1.3-.497-3.053.804-3.908l1.644-1.084c.071-.048.157-.052.231-.093.165-.09.333-.153.516-.21.19-.06.37-.101.564-.115.082-.008.153-.049.239-.049.094,0,.172.045.266.053.194.019.381.056.568.115.172.057.329.12.482.202.157.082.299.18.441.295.153.123.28.258.403.407.06.075.142.116.194.198.049.071.052.157.094.231.089.165.153.337.209.52.056.187.097.366.112.557.007.086.048.157.048.243v28.901l.004.004Z"/>
      <path d="M761.491,1541.422v.078c0,1.558-1.263,2.821-2.821,2.821s-2.821-1.264-2.821-2.821,1.263-2.862,2.821-2.862,2.821,1.226,2.821,2.784Z"/>
      <path d="M798.262,1522.102c1.226.31,2.13,1.416,2.13,2.734s-.904,2.426-2.13,2.735v11.8c0,1.558-1.263,2.821-2.821,2.821s-2.821-1.264-2.821-2.821v-11.718h-14.853c-1.102,0-2.104-.635-2.563-1.637-.463-1.001-.299-2.178.415-3.015l14.647-17.15c.534-.628,1.319-.99,2.145-.99h3.027c1.558,0,2.821,1.263,2.821,2.821v14.411l.004.008ZM792.616,1511.786l-8.732,10.227h8.732v-10.227Z"/>
    </g>
    <g>
      <path d="M621.507,1552.321c1.162.377,1.947,1.461,1.947,2.683v31.61c0,1.558-1.263,2.82-2.821,2.82s-2.821-1.263-2.821-2.82v-22.957l-5.474,7.507c-.531.729-1.379,1.158-2.279,1.158s-1.749-.434-2.279-1.162l-5.437-7.48v22.935c0,1.558-1.263,2.82-2.821,2.82s-2.821-1.263-2.821-2.82v-31.61c0-1.222.785-2.302,1.947-2.683,1.162-.378,2.433.037,3.154,1.023l8.257,11.366,8.291-11.366c.717-.99,1.992-1.401,3.154-1.021l.003-.003Z"/>
      <path d="M702.187,1559.227v23.092c0,3.927-3.46,7.117-7.716,7.117h-11.321c-4.327,0-7.716-3.127-7.716-7.117v-23.092c0-3.927,3.46-7.117,7.716-7.117h11.321c4.256,0,7.716,3.19,7.716,7.117ZM696.545,1559.227c0-.814-.93-1.479-2.074-1.479h-11.321c-1.188,0-2.074.781-2.074,1.479v23.092c0,.814.931,1.479,2.074,1.479h11.321c1.188,0,2.074-.781,2.074-1.479v-23.092Z"/>
      <path d="M721.284,1588.669v.078c0,1.559-1.263,2.821-2.821,2.821s-2.821-1.263-2.821-2.821,1.263-2.861,2.821-2.861,2.821,1.226,2.821,2.783Z"/>
      <path d="M758.055,1569.35c1.226.311,2.13,1.416,2.13,2.735s-.904,2.425-2.13,2.735v11.799c0,1.559-1.263,2.821-2.821,2.821s-2.821-1.263-2.821-2.821v-11.717h-14.853c-1.102,0-2.104-.636-2.563-1.637-.463-1.001-.299-2.179.415-3.016l14.647-17.149c.534-.628,1.319-.99,2.145-.99h3.027c1.558,0,2.821,1.263,2.821,2.82v14.412l.004.007ZM752.409,1559.033l-8.732,10.227h8.732v-10.227Z"/>
      <path d="M800.019,1553.601c.489.919.437,2.033-.138,2.896l-21.111,31.689c-.545.814-1.438,1.255-2.35,1.255-.538,0-1.084-.153-1.562-.475-1.296-.863-1.648-2.611-.785-3.912l18.189-27.302h-13.189c-1.558,0-2.821-1.263-2.821-2.821s1.263-2.82,2.821-2.82h18.458c1.042,0,1.999.571,2.488,1.486v.004Z"/>
    </g>
    <g>
      <path d="M622.965,1616.628l.112,8.931c0,2.656-1.073,5.205-2.944,7.028-1.771,1.719-4.219,2.705-6.714,2.705h-6.8c-2.13,0-4.222-.714-5.885-2.018l-.609-.464c-2.388-1.805-3.763-4.588-3.763-7.626v-17.001c0-2.988,1.413-5.844,3.774-7.629l.628-.479c1.636-1.281,3.725-1.999,5.855-1.999h7.473c1.887,0,3.733.564,5.335,1.633l2.246,1.498c1.297.867,1.644,2.615.781,3.912-.863,1.301-2.612,1.645-3.912.781l-2.242-1.499c-.673-.448-1.435-.684-2.208-.684h-7.473c-.89,0-1.719.284-2.41.822l-.665.508c-.972.729-1.543,1.902-1.543,3.135v17.001c0,1.256.557,2.396,1.532,3.132l.646.493c.713.56,1.547.844,2.436.844h6.8c1.042,0,2.055-.407,2.78-1.109.796-.773,1.237-1.819,1.237-2.944l-.079-6.109h-6.445c-1.558,0-2.821-1.263-2.821-2.82s1.263-2.821,2.821-2.821h9.229c1.543,0,2.802,1.24,2.821,2.783l.007-.004Z"/>
      <path d="M714.426,1629.678c1.558,0,2.821,1.263,2.821,2.821s-1.263,2.821-2.821,2.821h-21.111c-.388,0-.762-.082-1.098-.225-.022-.008-.038-.029-.06-.041-.325-.146-.616-.348-.859-.598-.011-.012-.026-.015-.037-.026-.101-.104-.142-.239-.221-.354-.123-.176-.258-.341-.336-.542-.078-.206-.097-.419-.127-.636-.022-.138-.082-.258-.082-.399,0-.015.007-.03.007-.045.004-.231.075-.452.135-.676.037-.131.041-.277.093-.4.048-.115.146-.209.213-.317.124-.206.243-.415.415-.583.011-.011.026-.037.026-.037l16.067-15.058c2.429-2.283,3.755-4.757,3.639-6.786-.079-1.42-.863-2.664-2.388-3.8-1.027-.758-2.492-1.162-4.218-1.162-3.329,0-5.934.568-7.839,3.337-.881,1.289-2.634,1.61-3.923.729-1.282-.882-1.607-2.638-.725-3.923,3.976-5.78,10.159-5.78,12.487-5.78,2.94,0,5.56.784,7.577,2.268,3.632,2.709,4.54,5.852,4.663,8.015.213,3.752-1.708,7.734-5.414,11.221l-10.865,10.186h13.978l.003-.008Z"/>
      <path d="M728.504,1634.56v.078c0,1.559-1.263,2.821-2.821,2.821s-2.821-1.263-2.821-2.821,1.263-2.861,2.821-2.861,2.821,1.226,2.821,2.783Z"/>
      <path d="M778.386,1611.194c8.146,0,13.619,4.842,13.619,12.05,0,7.099-5.601,12.054-13.619,12.054s-13.134-4.73-13.134-12.054c0-.172.042-.321.045-.489-.007-.079-.045-.143-.045-.221,0-3.879,3.464-11.777,6.812-17.181,2.242-3.624,3.733-5.111,5.044-6.423,1.102-1.102,2.94-1.154,4.043-.052,1.102,1.102,1.154,2.84.052,3.938l-.105.105c-1.203,1.199-2.335,2.335-4.237,5.402-.662,1.062-1.259,2.138-1.824,3.206,1.058-.202,2.16-.34,3.348-.34v.004ZM786.363,1623.24c0-5.784-5.578-6.408-7.977-6.408-3.419,0-7.492,1.113-7.492,6.408,0,4.136,2.661,6.411,7.492,6.411,4.921,0,7.977-2.454,7.977-6.411Z"/>
    </g>
    <g>
      <path d="M696.043,1655.354c8.146,0,13.619,4.843,13.619,12.05,0,7.1-5.601,12.054-13.619,12.054s-13.134-4.73-13.134-12.054c0-.172.042-.321.045-.489-.007-.078-.045-.142-.045-.221,0-3.878,3.464-11.777,6.812-17.18,2.242-3.624,3.733-5.111,5.044-6.423,1.102-1.103,2.94-1.154,4.042-.053,1.103,1.103,1.155,2.84.053,3.938l-.105.104c-1.203,1.199-2.335,2.335-4.237,5.403-.662,1.061-1.259,2.137-1.823,3.205,1.057-.201,2.159-.34,3.348-.34v.004ZM704.02,1667.4c0-5.783-5.578-6.407-7.977-6.407-3.419,0-7.492,1.113-7.492,6.407,0,4.137,2.661,6.412,7.492,6.412,4.921,0,7.977-2.455,7.977-6.412Z"/>
      <path d="M728.759,1678.721v.078c0,1.558-1.263,2.821-2.821,2.821s-2.821-1.264-2.821-2.821,1.263-2.862,2.821-2.862,2.821,1.226,2.821,2.784Z"/>
      <path d="M789.44,1673.839c1.558,0,2.821,1.263,2.821,2.82s-1.263,2.821-2.821,2.821h-21.111c-.388,0-.762-.082-1.098-.224-.022-.008-.038-.03-.06-.041-.325-.146-.616-.348-.859-.599-.011-.011-.026-.015-.037-.025-.101-.105-.142-.239-.221-.355-.123-.176-.258-.34-.336-.542-.078-.205-.097-.418-.127-.635-.022-.139-.082-.258-.082-.4,0-.015.007-.029.007-.044.004-.232.075-.452.135-.677.037-.131.041-.276.093-.399.049-.116.146-.21.213-.318.124-.205.243-.414.415-.582.011-.012.026-.038.026-.038l16.067-15.058c2.429-2.283,3.755-4.757,3.639-6.785-.079-1.42-.863-2.664-2.388-3.8-1.027-.759-2.492-1.162-4.218-1.162-3.329,0-5.934.567-7.839,3.337-.881,1.289-2.634,1.61-3.923.729-1.282-.882-1.607-2.639-.725-3.924,3.976-5.78,10.159-5.78,12.487-5.78,2.94,0,5.56.785,7.577,2.269,3.632,2.709,4.54,5.851,4.663,8.015.213,3.751-1.708,7.734-5.414,11.22l-10.865,10.186h13.978l.003-.007Z"/>
    </g>
    <path d="M625.703,1510.682l-13.431,16.416c-1.502,1.836-3.749,2.901-6.122,2.901h0c-2.098,0-4.11-.833-5.593-2.317l-.635-.635c-1.483-1.483-2.317-3.495-2.317-5.593v-.472c0-2.098.833-4.11,2.317-5.593l.635-.635c1.483-1.483,3.495-2.317,5.593-2.317h0c2.372,0,4.619,1.065,6.122,2.901l13.431,16.416" fill="none" stroke="#000" stroke-linecap="round" stroke-linejoin="round" stroke-width="6"/>
    <g>
      <path d="M861.996,1738.466c1.225,1.225,1.902,2.866,1.902,4.618v6.072c0,1.725-.694,3.406-1.902,4.617-1.231,1.228-2.873,1.905-4.618,1.905h-12.297v11.623c0,1.392-1.128,2.52-2.519,2.52s-2.519-1.128-2.519-2.52v-28.225c0-1.392,1.128-2.52,2.519-2.52h14.813c1.725,0,3.406.694,4.617,1.905l.003.003ZM858.86,1743.077c0-.417-.144-.771-.427-1.051-.271-.273-.664-.434-1.055-.434h-12.297v9.044h12.297c.414,0,.764-.146,1.051-.434.27-.267.43-.66.43-1.051v-6.075Z"/>
      <path d="M890.242,1740.922c1.628,2.005,2.539,4.581,2.539,7.229v10.105c0,2.643-.881,5.146-2.549,7.24-2.255,2.775-5.548,4.357-9.045,4.357h-9.775c-1.391,0-2.519-1.128-2.519-2.52v-28.225c0-1.392,1.128-2.553,2.519-2.553h9.775c3.523,0,6.91,1.632,9.055,4.367v-.003ZM887.743,1748.155c0-1.495-.51-2.946-1.438-4.087-1.225-1.562-3.126-2.473-5.118-2.473h-7.256v23.224h7.256c1.945,0,3.86-.924,5.118-2.475.934-1.175,1.438-2.596,1.438-4.084v-10.105Z"/>
      <path d="M919.175,1753.243c1.615,1.618,2.505,3.763,2.505,6.052v1.534c0,2.656-1.271,5.202-3.403,6.813l-.754.54c-1.451,1.067-3.263,1.672-5.071,1.672h-5.572c-1.675,0-3.306-.49-4.718-1.418l-2.015-1.338c-1.161-.774-1.471-2.336-.704-3.493.774-1.161,2.335-1.468,3.493-.704l2.005,1.331c.567.377,1.261.584,1.942.584h5.571c.741,0,1.488-.25,2.109-.711l.73-.523c.824-.62,1.348-1.668,1.348-2.753v-1.534c0-.94-.37-1.821-1.034-2.489-.664-.667-1.548-1.034-2.485-1.034h-6.773c-2.285,0-4.437-.891-6.052-2.502-1.615-1.621-2.506-3.771-2.506-6.052v-2.069c0-2.285.891-4.434,2.506-6.052,1.615-1.614,3.763-2.506,6.052-2.506h6.272c1.698,0,3.336.491,4.734,1.422l2.001,1.338c1.158.771,1.468,2.339.697,3.493-.771,1.154-2.329,1.478-3.493.693l-2.001-1.334c-.567-.377-1.238-.577-1.938-.577h-6.272c-.94,0-1.828.367-2.489,1.03-.667.668-1.034,1.555-1.034,2.492v2.069c0,.938.37,1.824,1.034,2.492.661.664,1.548,1.027,2.489,1.027h6.773c2.282,0,4.431.891,6.049,2.506h.003Z"/>
      <path d="M948.029,1736.558c1.392,0,2.519,1.128,2.519,2.52s-1.127,2.519-2.519,2.519h-6.889v25.706c0,1.392-1.128,2.52-2.519,2.52s-2.519-1.128-2.519-2.52v-25.706h-6.89c-1.391,0-2.519-1.128-2.519-2.519s1.127-2.52,2.519-2.52h18.817Z"/>
      <path d="M976.879,1736.558c1.392,0,2.519,1.128,2.519,2.52s-1.127,2.519-2.519,2.519h-6.889v25.706c0,1.392-1.128,2.52-2.519,2.52s-2.519-1.128-2.519-2.52v-25.706h-6.89c-1.391,0-2.519-1.128-2.519-2.519s1.127-2.52,2.519-2.52h18.817Z"/>
    </g>
    <g>
      <path d="M850.475,1782.641c1.628,2.006,2.539,4.581,2.539,7.23v10.105c0,2.643-.881,5.145-2.549,7.239-2.255,2.776-5.548,4.357-9.045,4.357h-9.775c-1.391,0-2.519-1.127-2.519-2.519v-28.226c0-1.391,1.128-2.552,2.519-2.552h9.775c3.523,0,6.91,1.631,9.055,4.367v-.004ZM847.976,1789.874c0-1.494-.51-2.946-1.438-4.087-1.225-1.562-3.126-2.472-5.118-2.472h-7.256v23.224h7.256c1.945,0,3.86-.924,5.118-2.476.934-1.175,1.438-2.596,1.438-4.084v-10.105Z"/>
      <path d="M879.395,1806.499c1.391,0,2.519,1.128,2.519,2.519s-1.128,2.52-2.519,2.52h-18.85c-1.391,0-2.519-1.128-2.519-2.52v-28.225c0-1.392,1.128-2.52,2.519-2.52h18.85c1.391,0,2.519,1.128,2.519,2.52s-1.128,2.519-2.519,2.519h-16.331v9.078h12.794c1.392,0,2.519,1.128,2.519,2.519s-1.127,2.52-2.519,2.52h-12.794v9.074h16.331v-.003Z"/>
      <path d="M908.308,1794.962c1.615,1.618,2.505,3.764,2.505,6.052v1.535c0,2.655-1.271,5.201-3.403,6.812l-.754.541c-1.451,1.067-3.263,1.671-5.071,1.671h-5.572c-1.675,0-3.306-.49-4.718-1.418l-2.015-1.338c-1.161-.773-1.471-2.335-.704-3.493.774-1.161,2.335-1.468,3.493-.703l2.005,1.331c.567.377,1.261.584,1.942.584h5.571c.741,0,1.488-.251,2.109-.711l.73-.524c.824-.62,1.348-1.668,1.348-2.752v-1.535c0-.94-.37-1.821-1.034-2.488-.664-.667-1.548-1.034-2.485-1.034h-6.773c-2.285,0-4.437-.891-6.052-2.503-1.615-1.621-2.506-3.77-2.506-6.052v-2.068c0-2.285.891-4.434,2.506-6.052,1.615-1.615,3.763-2.506,6.052-2.506h6.272c1.698,0,3.336.49,4.734,1.421l2.001,1.338c1.158.771,1.468,2.339.697,3.493-.771,1.154-2.329,1.479-3.493.694l-2.001-1.335c-.567-.377-1.238-.577-1.938-.577h-6.272c-.94,0-1.828.367-2.489,1.031-.667.667-1.034,1.555-1.034,2.492v2.068c0,.938.37,1.825,1.034,2.492.661.664,1.548,1.027,2.489,1.027h6.773c2.282,0,4.431.892,6.049,2.506h.003Z"/>
      <path d="M937.162,1778.277c1.392,0,2.519,1.128,2.519,2.519s-1.127,2.52-2.519,2.52h-6.889v25.706c0,1.391-1.128,2.519-2.519,2.519s-2.519-1.128-2.519-2.519v-25.706h-6.89c-1.391,0-2.519-1.128-2.519-2.52s1.127-2.519,2.519-2.519h18.817Z"/>
    </g>
    <g>
      <path d="M582.519,1732.104c1.392,0,2.519,1.128,2.519,2.519s-1.127,2.52-2.519,2.52h-6.889v25.706c0,1.391-1.128,2.519-2.519,2.519s-2.519-1.128-2.519-2.519v-25.706h-6.89c-1.391,0-2.519-1.128-2.519-2.52s1.127-2.519,2.519-2.519h18.817Z"/>
      <path d="M610.011,1758.428c1.174-.744,2.729-.407,3.48.768.75,1.174.407,2.729-.768,3.479l-1.935,1.234c-1.595.984-3.356,1.495-5.125,1.495h-6.172c-2.102,0-4.157-.697-5.785-1.969-2.292-1.752-3.673-4.558-3.673-7.49v-14.35c0-2.933,1.378-5.738,3.69-7.503,1.611-1.255,3.667-1.952,5.769-1.952h6.172c1.842,0,3.62.521,5.142,1.505l1.921,1.225c1.171.751,1.515,2.306.768,3.479-.751,1.168-2.306,1.515-3.48.768l-1.935-1.234c-.717-.467-1.548-.707-2.416-.707h-6.172c-.984,0-1.942.32-2.689.904-1.091.834-1.731,2.145-1.731,3.516v14.35c0,1.371.641,2.683,1.715,3.503.768.595,1.725.918,2.709.918h6.172c.834,0,1.678-.25,2.446-.728l1.905-1.214-.007.003Z"/>
      <path d="M642.736,1734.623v28.226c0,1.11-.728,2.088-1.789,2.412-.244.07-.487.106-.73.106-.828,0-1.618-.407-2.095-1.121l-14.203-21.302v19.904c0,1.391-1.128,2.519-2.519,2.519s-2.519-1.128-2.519-2.519v-28.226c0-1.111.728-2.089,1.789-2.412,1.054-.32,2.208.09,2.826,1.015l14.203,21.302v-19.904c0-1.391,1.128-2.519,2.519-2.519s2.519,1.128,2.519,2.519Z"/>
      <path d="M724.413,1747.66c1.548,1.548,2.402,3.603,2.402,5.781v2.369c0,3.029-1.441,5.905-3.854,7.697-1.631,1.234-3.623,1.895-5.738,1.895h-2.102c-1.912,0-7.593-1.061-9.602-2.068l-1.147-.54c-1.258-.595-1.795-2.096-1.201-3.354.594-1.261,2.092-1.792,3.353-1.201l1.201.567c1.114.557,5.922,1.562,7.4,1.562h2.102c1.007,0,1.945-.311,2.716-.891,1.171-.874,1.835-2.206,1.835-3.667v-2.369c0-.834-.331-1.621-.931-2.222l-.404-.403c-.48-.484-1.144-.761-1.818-.761h-4.971c-.971,0-1.858-.561-2.275-1.441s-.291-1.919.327-2.673l7.247-8.867h-10.002c-1.392,0-2.519-1.128-2.519-2.52s1.127-2.519,2.519-2.519h15.313c.971,0,1.858.561,2.275,1.441.417.877.29,1.918-.327,2.672l-7.253,8.875c1.885.083,3.71.888,5.051,2.229l.403.403v.004Z"/>
      <path d="M753.604,1747.423c1.855,2.159,1.805,4.211,1.762,5.862l-.014.757c0,3.083-.974,5.822-2.672,7.523-1.455,1.451-3.457,2.516-5.492,2.923-1.568.313-10.056.73-12.621.848h-.12c-1.338,0-2.452-1.055-2.516-2.402-.063-1.388,1.008-2.565,2.399-2.633,5.151-.243,11-.59,11.871-.757,1.054-.214,2.172-.804,2.916-1.548.554-.554,1.198-1.922,1.198-3.961l.013-.884c.033-1.397.02-1.788-.541-2.442-.634-.73-1.158-.87-2.402-.924h-12.938c-1.385,0-2.509-1.114-2.519-2.499l-.1-12.715c-.003-.674.257-1.317.731-1.795.474-.477,1.118-.744,1.788-.744h17.282c1.391,0,2.519,1.128,2.519,2.52s-1.128,2.519-2.519,2.519h-14.743l.06,7.677h10.546c2.099.091,4.201.471,6.109,2.673l.003.003Z"/>
      <path d="M765.416,1764.68v.07c0,1.392-1.128,2.52-2.519,2.52s-2.519-1.128-2.519-2.52,1.128-2.556,2.519-2.556,2.519,1.095,2.519,2.485Z"/>
      <path d="M791.797,1760.321c1.391,0,2.519,1.128,2.519,2.519s-1.127,2.52-2.519,2.52h-18.85c-.347,0-.681-.073-.981-.2-.02-.007-.034-.027-.054-.037-.29-.13-.55-.311-.767-.533-.01-.011-.023-.014-.033-.023-.09-.094-.127-.214-.197-.317-.11-.157-.23-.304-.3-.483-.07-.184-.086-.374-.113-.567-.02-.124-.073-.23-.073-.357,0-.013.006-.026.006-.04.003-.206.067-.403.12-.604.034-.117.037-.247.083-.357.043-.103.13-.187.19-.283.11-.184.217-.37.37-.521.01-.01.023-.033.023-.033l14.346-13.445c2.168-2.039,3.353-4.247,3.25-6.059-.07-1.269-.771-2.379-2.132-3.394-.917-.677-2.226-1.037-3.767-1.037-2.973,0-5.298.507-7,2.979-.788,1.15-2.353,1.438-3.503.65-1.145-.787-1.435-2.355-.647-3.503,3.55-5.162,9.071-5.162,11.15-5.162,2.625,0,4.964.701,6.766,2.025,3.243,2.419,4.053,5.225,4.164,7.156.19,3.35-1.525,6.906-4.834,10.02l-9.702,9.095h12.481l.003-.007Z"/>
    </g>
    <g>
      <path d="M520.467,1793.541c1.675,1.558,2.723,3.779,2.723,6.242v3.336c0,4.681-3.81,8.491-8.491,8.491h-12.845c-1.391,0-2.519-1.128-2.519-2.52v-28.225c0-1.392,1.128-2.52,2.519-2.52h12.578c2.562,0,4.924,1.275,6.315,3.413.804,1.182,1.241,2.64,1.241,4.178v3.169c0,1.839-.611,3.31-1.525,4.435h.003ZM504.377,1783.392v7.874h10.519c.581-.11,2.059-.548,2.059-2.155v-3.17c0-.533-.137-.997-.4-1.388-.494-.758-1.258-1.168-2.122-1.168h-10.059l.003.007ZM518.152,1799.786c0-1.788-1.354-3.267-3.089-3.466-.133.013-.267.013-.397.013h-10.292v10.242h10.326c1.905,0,3.453-1.551,3.453-3.452v-3.337Z"/>
      <path d="M550.573,1786.277c.984,1.194,1.535,2.713,1.535,4.264v18.517c0,1.392-1.128,2.52-2.519,2.52s-2.519-1.128-2.519-2.52v-11.594h-13.846v11.594c0,1.392-1.127,2.52-2.519,2.52s-2.519-1.128-2.519-2.52v-18.517c0-1.521.523-2.982,1.511-4.233l4.23-5.168c3.013-3.606,9.455-3.587,12.428-.017l4.22,5.154h-.003ZM533.231,1792.423h13.849v-1.885c0-.387-.137-.754-.391-1.061l-4.214-5.148c-1.011-1.211-3.616-1.231-4.657.021l-4.187,5.121c-.357.443-.4.827-.4,1.07v1.882Z"/>
      <path d="M647.566,1793.869c1.548,1.548,2.402,3.604,2.402,5.782v2.369c0,3.029-1.441,5.905-3.854,7.696-1.631,1.234-3.623,1.896-5.738,1.896h-2.102c-1.912,0-7.593-1.062-9.602-2.069l-1.147-.54c-1.258-.594-1.795-2.095-1.201-3.353.594-1.262,2.092-1.792,3.353-1.201l1.201.566c1.114.558,5.922,1.562,7.4,1.562h2.102c1.007,0,1.945-.31,2.715-.891,1.171-.874,1.835-2.205,1.835-3.666v-2.369c0-.834-.331-1.621-.931-2.222l-.404-.404c-.48-.483-1.144-.761-1.818-.761h-4.971c-.971,0-1.858-.561-2.275-1.441s-.291-1.918.327-2.672l7.247-8.868h-10.002c-1.392,0-2.519-1.128-2.519-2.519s1.127-2.52,2.519-2.52h15.313c.971,0,1.858.561,2.275,1.441.417.878.29,1.919-.327,2.673l-7.253,8.874c1.885.084,3.71.888,5.051,2.229l.403.404v.003Z"/>
      <path d="M676.465,1793.869c1.548,1.548,2.402,3.604,2.402,5.782v2.369c0,3.029-1.441,5.905-3.854,7.696-1.631,1.234-3.623,1.896-5.738,1.896h-2.102c-1.912,0-7.593-1.062-9.602-2.069l-1.147-.54c-1.258-.594-1.795-2.095-1.201-3.353.594-1.262,2.092-1.792,3.353-1.201l1.201.566c1.114.558,5.922,1.562,7.4,1.562h2.102c1.007,0,1.945-.31,2.715-.891,1.171-.874,1.835-2.205,1.835-3.666v-2.369c0-.834-.331-1.621-.931-2.222l-.404-.404c-.48-.483-1.144-.761-1.818-.761h-4.971c-.971,0-1.858-.561-2.275-1.441s-.291-1.918.327-2.672l7.247-8.868h-10.002c-1.392,0-2.519-1.128-2.519-2.519s1.127-2.52,2.519-2.52h15.313c.971,0,1.858.561,2.275,1.441.417.878.29,1.919-.327,2.673l-7.253,8.874c1.885.084,3.71.888,5.051,2.229l.403.404v.003Z"/>
      <path d="M707.735,1789.676c0,1.458-.544,2.883-1.518,4.037.974,1.157,1.518,2.579,1.518,4.037v7.276c0,1.778-.797,3.503-2.189,4.728-1.308,1.157-3.049,1.795-4.901,1.795h-9.675c-1.812,0-3.597-.654-4.898-1.795-1.415-1.248-2.192-2.926-2.192-4.728v-7.276c0-1.458.544-2.883,1.518-4.037-.978-1.161-1.518-2.586-1.518-4.037v-4.904c0-1.778.797-3.503,2.189-4.728,1.311-1.161,3.053-1.799,4.901-1.799h9.675c1.818,0,3.603.654,4.901,1.795,1.415,1.252,2.189,2.93,2.189,4.728v4.908ZM702.696,1797.743c0-.334-.19-.688-.517-.978l-.617-.541h-11.517l-.621.544c-.32.287-.51.641-.51.975v7.276c0,.344.164.66.484.944.383.337.971.54,1.568.54h9.675c.611,0,1.185-.193,1.568-.537.307-.267.487-.62.487-.947v-7.276ZM688.921,1784.771v4.904c0,.334.19.69.521.987l.607.53h11.521l.624-.544c.317-.283.507-.64.507-.974v-4.904c0-.347-.164-.667-.487-.951-.38-.333-.967-.537-1.568-.537h-9.675c-.61,0-1.181.197-1.565.537h-.003c-.304.267-.484.621-.484.947l.003.004Z"/>
      <path d="M736.16,1786.397l-18.817,28.226c-.487.728-1.284,1.121-2.099,1.121-.48,0-.964-.137-1.395-.424-1.158-.774-1.468-2.336-.697-3.493l18.817-28.226c.774-1.154,2.332-1.464,3.493-.697,1.158.771,1.468,2.336.697,3.493Z"/>
      <path d="M763.064,1793.869c1.548,1.548,2.402,3.604,2.402,5.782v2.369c0,3.029-1.441,5.905-3.854,7.696-1.631,1.234-3.623,1.896-5.738,1.896h-2.102c-1.912,0-7.593-1.062-9.602-2.069l-1.147-.54c-1.258-.594-1.795-2.095-1.201-3.353.594-1.262,2.092-1.792,3.353-1.201l1.201.566c1.114.558,5.922,1.562,7.4,1.562h2.102c1.007,0,1.945-.31,2.716-.891,1.171-.874,1.835-2.205,1.835-3.666v-2.369c0-.834-.331-1.621-.931-2.222l-.404-.404c-.48-.483-1.144-.761-1.818-.761h-4.971c-.971,0-1.858-.561-2.275-1.441s-.291-1.918.327-2.672l7.247-8.868h-10.002c-1.392,0-2.519-1.128-2.519-2.519s1.127-2.52,2.519-2.52h15.313c.971,0,1.858.561,2.275,1.441.417.878.29,1.919-.327,2.673l-7.253,8.874c1.885.084,3.71.888,5.051,2.229l.403.404v.003Z"/>
      <path d="M791.3,1793.64c1.094.276,1.901,1.264,1.901,2.441s-.807,2.166-1.901,2.442v10.536c0,1.392-1.128,2.519-2.519,2.519s-2.519-1.127-2.519-2.519v-10.463h-13.262c-.984,0-1.878-.566-2.289-1.461-.414-.895-.267-1.945.37-2.692l13.079-15.313c.477-.561,1.178-.885,1.915-.885h2.702c1.392,0,2.519,1.128,2.519,2.52v12.868l.003.007ZM786.259,1784.428l-7.797,9.132h7.797v-9.132Z"/>
    </g>
    <g>
      <path d="M1798.541,1517.187c1.675,1.559,2.723,3.78,2.723,6.242v3.337c0,4.681-3.81,8.49-8.491,8.49h-12.845c-1.391,0-2.519-1.127-2.519-2.519v-28.226c0-1.391,1.128-2.519,2.519-2.519h12.578c2.562,0,4.925,1.274,6.315,3.413.805,1.181,1.241,2.639,1.241,4.177v3.17c0,1.838-.61,3.31-1.524,4.434h.003ZM1782.45,1507.039v7.873h10.52c.58-.11,2.059-.547,2.059-2.155v-3.169c0-.534-.137-.998-.4-1.389-.494-.757-1.258-1.167-2.122-1.167h-10.059l.003.007ZM1796.225,1523.434c0-1.789-1.354-3.267-3.089-3.467-.134.014-.268.014-.397.014h-10.292v10.242h10.325c1.905,0,3.453-1.552,3.453-3.453v-3.336Z"/>
      <path d="M1830.111,1514.561c0,1.726-.694,3.407-1.902,4.618-1.107,1.104-2.549,1.731-4.1,1.854l5.694,10.473c.664,1.222.211,2.749-1.011,3.413-.38.21-.794.308-1.197.308-.895,0-1.759-.478-2.216-1.318l-6.976-12.828h-7.106v11.624c0,1.391-1.128,2.519-2.52,2.519s-2.519-1.128-2.519-2.519v-28.226c0-1.391,1.128-2.519,2.519-2.519h14.811c1.722,0,3.402.693,4.614,1.901,1.234,1.234,1.908,2.876,1.908,4.621v6.078ZM1825.073,1508.479c0-.417-.146-.771-.431-1.058-.267-.264-.664-.427-1.054-.427h-12.295v9.045h12.295c.413,0,.767-.146,1.054-.434.271-.268.431-.661.431-1.051v-6.076Z"/>
      <path d="M1858.863,1518.525l.101,7.974c0,2.372-.958,4.647-2.63,6.275-1.581,1.535-3.767,2.416-5.995,2.416h-6.072c-1.901,0-3.77-.638-5.254-1.802l-.544-.414c-2.132-1.611-3.36-4.097-3.36-6.809v-15.181c0-2.669,1.262-5.218,3.37-6.812l.561-.427c1.461-1.145,3.326-1.785,5.228-1.785h6.673c1.685,0,3.333.504,4.765,1.458l2.005,1.338c1.157.773,1.468,2.335.697,3.493-.771,1.161-2.332,1.468-3.493.697l-2.002-1.338c-.601-.4-1.281-.61-1.972-.61h-6.673c-.794,0-1.534.253-2.151.733l-.594.454c-.868.65-1.378,1.698-1.378,2.799v15.181c0,1.121.497,2.139,1.367,2.796l.577.44c.638.5,1.382.754,2.176.754h6.072c.931,0,1.835-.364,2.482-.991.71-.69,1.104-1.625,1.104-2.629l-.069-5.455h-5.756c-1.391,0-2.519-1.128-2.519-2.519s1.128-2.52,2.519-2.52h8.241c1.378,0,2.502,1.108,2.519,2.486l.007-.004Z"/>
    </g>
    <g>
      <path d="M1799.536,1637.823c1.325.44,2.035,1.865,1.595,3.187l-9.404,28.222c-.344,1.031-1.305,1.725-2.389,1.725s-2.046-.693-2.39-1.722l-9.408-28.225c-.437-1.318.271-2.746,1.592-3.187,1.328-.438,2.746.273,3.186,1.595l7.021,21.056,7.02-21.056c.437-1.321,1.861-2.032,3.183-1.595h-.004Z"/>
      <path d="M1826.238,1664.017c1.175-.744,2.729-.407,3.48.768.75,1.174.407,2.729-.768,3.479l-1.936,1.234c-1.595.984-3.355,1.495-5.124,1.495h-6.172c-2.103,0-4.157-.697-5.785-1.969-2.292-1.752-3.674-4.558-3.674-7.49v-14.35c0-2.933,1.378-5.738,3.69-7.503,1.611-1.255,3.666-1.952,5.769-1.952h6.172c1.842,0,3.62.521,5.142,1.505l1.921,1.225c1.172.751,1.515,2.306.768,3.479-.751,1.168-2.306,1.515-3.479.768l-1.936-1.234c-.717-.467-1.548-.707-2.415-.707h-6.172c-.984,0-1.942.32-2.689.904-1.091.834-1.731,2.145-1.731,3.516v14.35c0,1.371.641,2.683,1.715,3.503.768.595,1.725.918,2.709.918h6.172c.834,0,1.679-.25,2.446-.728l1.904-1.214-.007.003Z"/>
    </g>
    <g>
      <path d="M1801.261,1560.822c0,1.726-.694,3.407-1.902,4.618-1.107,1.104-2.549,1.731-4.1,1.854l5.694,10.473c.664,1.222.211,2.749-1.011,3.413-.38.21-.794.308-1.197.308-.895,0-1.759-.478-2.216-1.318l-6.976-12.828h-7.106v11.624c0,1.391-1.128,2.519-2.52,2.519s-2.519-1.128-2.519-2.519v-28.226c0-1.391,1.128-2.519,2.519-2.519h14.811c1.722,0,3.402.693,4.614,1.901,1.234,1.234,1.908,2.876,1.908,4.621v6.078ZM1796.223,1554.74c0-.417-.146-.771-.431-1.058-.267-.264-.664-.427-1.054-.427h-12.295v9.045h12.295c.413,0,.767-.146,1.054-.434.271-.268.431-.661.431-1.051v-6.076Z"/>
      <path d="M1830.113,1550.74v28.226c0,1.11-.728,2.088-1.788,2.412-.244.07-.487.106-.73.106-.828,0-1.618-.407-2.096-1.121l-14.202-21.302v19.904c0,1.391-1.128,2.519-2.52,2.519s-2.519-1.128-2.519-2.519v-28.226c0-1.111.728-2.089,1.788-2.412,1.055-.32,2.209.09,2.826,1.015l14.202,21.302v-19.904c0-1.391,1.128-2.519,2.52-2.519s2.519,1.128,2.519,2.519Z"/>
      <path d="M1858.863,1564.786l.101,7.974c0,2.372-.958,4.647-2.63,6.275-1.581,1.535-3.767,2.416-5.995,2.416h-6.072c-1.901,0-3.77-.638-5.254-1.802l-.544-.414c-2.132-1.611-3.36-4.097-3.36-6.809v-15.181c0-2.669,1.262-5.218,3.37-6.812l.561-.427c1.461-1.145,3.326-1.785,5.228-1.785h6.673c1.685,0,3.333.504,4.765,1.458l2.005,1.338c1.157.773,1.468,2.335.697,3.493-.771,1.161-2.332,1.468-3.493.697l-2.002-1.338c-.601-.4-1.281-.61-1.972-.61h-6.673c-.794,0-1.534.253-2.151.733l-.594.454c-.868.65-1.378,1.698-1.378,2.799v15.181c0,1.121.497,2.139,1.367,2.796l.577.44c.638.5,1.382.754,2.176.754h6.072c.931,0,1.835-.364,2.482-.991.71-.69,1.104-1.625,1.104-2.629l-.069-5.455h-5.756c-1.391,0-2.519-1.128-2.519-2.519s1.128-2.52,2.519-2.52h8.241c1.378,0,2.502,1.108,2.519,2.486l.007-.004Z"/>
    </g>
    <g>
      <path d="M1799.798,1598.794c.984,1.193,1.535,2.712,1.535,4.264v18.516c0,1.392-1.128,2.52-2.52,2.52s-2.519-1.128-2.519-2.52v-11.594h-13.846v11.594c0,1.392-1.128,2.52-2.52,2.52s-2.519-1.128-2.519-2.52v-18.516c0-1.521.523-2.982,1.512-4.234l4.23-5.168c3.013-3.606,9.455-3.586,12.428-.017l4.22,5.155h-.003ZM1782.456,1604.938h13.849v-1.885c0-.387-.137-.754-.391-1.061l-4.214-5.148c-1.011-1.211-3.616-1.23-4.657.021l-4.187,5.121c-.357.444-.4.827-.4,1.071v1.881Z"/>
      <path d="M1830.197,1621.573c0,1.392-1.128,2.52-2.52,2.52h-18.85c-1.392,0-2.52-1.128-2.52-2.52v-28.225c0-1.391,1.128-2.52,2.52-2.52s2.519,1.129,2.519,2.52v25.706h16.331c1.392,0,2.52,1.128,2.52,2.519Z"/>
      <path d="M1856.546,1590.829c1.392,0,2.519,1.129,2.519,2.52s-1.127,2.52-2.519,2.52h-6.89v25.705c0,1.392-1.128,2.52-2.519,2.52s-2.52-1.128-2.52-2.52v-25.705h-6.89c-1.391,0-2.519-1.129-2.519-2.52s1.128-2.52,2.519-2.52h18.817Z"/>
    </g>
    <g>
      <path d="M1799.536,1684.567c1.324.44,2.035,1.865,1.595,3.187l-9.405,28.222c-.344,1.031-1.305,1.725-2.389,1.725s-2.045-.693-2.389-1.722l-9.408-28.225c-.438-1.318.27-2.746,1.591-3.187,1.328-.438,2.746.273,3.187,1.595l7.02,21.056,7.02-21.056c.438-1.321,1.861-2.032,3.183-1.595h-.003Z"/>
      <path d="M1830.111,1697.038c0,1.726-.694,3.407-1.902,4.618-1.107,1.104-2.549,1.731-4.1,1.854l5.694,10.473c.664,1.222.211,2.749-1.011,3.413-.38.21-.794.308-1.197.308-.895,0-1.759-.478-2.216-1.318l-6.976-12.828h-7.106v11.624c0,1.391-1.128,2.519-2.52,2.519s-2.519-1.128-2.519-2.519v-28.226c0-1.391,1.128-2.519,2.519-2.519h14.811c1.722,0,3.402.693,4.614,1.901,1.234,1.234,1.908,2.876,1.908,4.621v6.078ZM1825.073,1690.956c0-.417-.146-.771-.431-1.058-.267-.264-.664-.427-1.054-.427h-12.295v9.045h12.295c.413,0,.767-.146,1.054-.434.271-.268.431-.661.431-1.051v-6.076Z"/>
    </g>
    <g>
      <path d="M1800.493,1779.738v23.521c0,.667-.264,1.308-.737,1.778l-4.701,4.704c-.98.987-2.569.984-3.557.01l-2.93-2.909-2.929,2.909c-.49.487-1.135.731-1.775.731s-1.291-.247-1.781-.737l-4.704-4.704c-.474-.471-.737-1.115-.737-1.782v-23.521c0-1.392,1.128-2.52,2.519-2.52s2.52,1.128,2.52,2.52v22.477l2.191,2.191,2.179-2.165v-6.021c0-1.392,1.128-2.52,2.519-2.52s2.52,1.128,2.52,2.52v6.021l2.179,2.165,2.188-2.191v-22.477c0-1.392,1.128-2.52,2.519-2.52s2.52,1.128,2.52,2.52Z"/>
      <path d="M1827.444,1779.127c1.225,1.225,1.901,2.866,1.901,4.618v6.072c0,1.725-.694,3.406-1.901,4.617-1.231,1.228-2.873,1.905-4.618,1.905h-12.297v11.623c0,1.392-1.128,2.52-2.52,2.52s-2.519-1.128-2.519-2.52v-28.225c0-1.392,1.128-2.52,2.519-2.52h14.813c1.725,0,3.406.694,4.617,1.905l.004.003ZM1824.307,1783.738c0-.417-.144-.771-.427-1.051-.271-.273-.664-.434-1.055-.434h-12.297v9.044h12.297c.414,0,.765-.146,1.052-.434.27-.267.43-.66.43-1.051v-6.075Z"/>
    </g>
    <path d="M1797.603,1849.447c1.391,0,2.519,1.128,2.519,2.52s-1.128,2.519-2.519,2.519h-18.82c-.928,0-1.782-.511-2.223-1.328-.437-.82-.387-1.814.127-2.585l6.796-10.196h-1.164c-1.391,0-2.519-1.128-2.519-2.519s1.128-2.52,2.519-2.52h4.521l6.053-9.077h-14.109c-1.392,0-2.52-1.128-2.52-2.52s1.128-2.519,2.52-2.519h18.82c.927,0,1.781.51,2.222,1.327.437.818.387,1.812-.127,2.586l-6.799,10.199h1.164c1.391,0,2.519,1.128,2.519,2.519s-1.128,2.52-2.519,2.52h-4.524l-6.049,9.074h14.113Z"/>
    <g>
      <path d="M1739.901,1865.226c1.392,0,2.52,1.128,2.52,2.519s-1.128,2.52-2.52,2.52h-6.889v25.706c0,1.391-1.128,2.519-2.52,2.519s-2.519-1.128-2.519-2.519v-25.706h-6.89c-1.392,0-2.519-1.128-2.519-2.52s1.127-2.519,2.519-2.519h18.816Z"/>
      <path d="M1768.751,1865.226c1.392,0,2.52,1.128,2.52,2.519s-1.128,2.52-2.52,2.52h-6.889v25.706c0,1.391-1.128,2.519-2.52,2.519s-2.519-1.128-2.519-2.519v-25.706h-6.89c-1.392,0-2.519-1.128-2.519-2.52s1.127-2.519,2.519-2.519h18.816Z"/>
      <path d="M1800.018,1881.79l.101,7.974c0,2.372-.958,4.647-2.63,6.275-1.581,1.535-3.767,2.416-5.995,2.416h-6.072c-1.901,0-3.77-.638-5.254-1.802l-.544-.414c-2.132-1.611-3.36-4.097-3.36-6.809v-15.181c0-2.669,1.262-5.218,3.37-6.812l.561-.427c1.461-1.145,3.326-1.785,5.228-1.785h6.673c1.685,0,3.333.504,4.765,1.458l2.005,1.338c1.157.773,1.468,2.335.697,3.493-.771,1.161-2.332,1.468-3.493.697l-2.002-1.338c-.601-.4-1.281-.61-1.972-.61h-6.673c-.794,0-1.534.253-2.151.733l-.594.454c-.868.65-1.378,1.698-1.378,2.799v15.181c0,1.121.497,2.139,1.367,2.796l.577.44c.638.5,1.382.754,2.176.754h6.072c.931,0,1.835-.364,2.482-.991.71-.69,1.104-1.625,1.104-2.629l-.069-5.455h-5.756c-1.391,0-2.519-1.128-2.519-2.519s1.128-2.52,2.519-2.52h8.241c1.378,0,2.502,1.108,2.519,2.486l.007-.004Z"/>
    </g>
    <g>
      <path d="M1739.834,1937.45c1.392,0,2.52,1.128,2.52,2.519s-1.128,2.52-2.52,2.52h-18.85c-1.392,0-2.52-1.128-2.52-2.52v-28.225c0-1.392,1.128-2.52,2.52-2.52h18.85c1.392,0,2.52,1.128,2.52,2.52s-1.128,2.519-2.52,2.519h-16.331v9.078h12.795c1.392,0,2.519,1.128,2.519,2.519s-1.127,2.52-2.519,2.52h-12.795v9.074h16.331v-.003Z"/>
      <path d="M1768.702,1909.228c1.392,0,2.519,1.128,2.519,2.519s-1.127,2.52-2.519,2.52h-6.89v25.706c0,1.391-1.128,2.519-2.519,2.519s-2.52-1.128-2.52-2.519v-25.706h-6.89c-1.391,0-2.519-1.128-2.519-2.52s1.128-2.519,2.519-2.519h18.817Z"/>
      <path d="M1798.602,1917.192c.984,1.194,1.535,2.712,1.535,4.264v18.517c0,1.391-1.128,2.519-2.52,2.519s-2.519-1.128-2.519-2.519v-11.594h-13.846v11.594c0,1.391-1.128,2.519-2.52,2.519s-2.519-1.128-2.519-2.519v-18.517c0-1.521.523-2.982,1.512-4.234l4.23-5.168c3.013-3.606,9.455-3.586,12.428-.017l4.22,5.155h-.003ZM1781.26,1923.338h13.849v-1.886c0-.387-.137-.754-.391-1.061l-4.214-5.147c-1.011-1.212-3.616-1.231-4.657.02l-4.187,5.121c-.357.444-.4.827-.4,1.071v1.882Z"/>
    </g>
    <g>
      <path d="M1845.573,1871.883v20.618c0,3.507-3.089,6.355-6.889,6.355h-10.109c-3.863,0-6.89-2.792-6.89-6.355v-20.618c0-3.507,3.09-6.355,6.89-6.355h10.109c3.8,0,6.889,2.849,6.889,6.355ZM1840.536,1871.883c0-.728-.831-1.321-1.852-1.321h-10.109c-1.061,0-1.852.697-1.852,1.321v20.618c0,.728.831,1.321,1.852,1.321h10.109c1.061,0,1.852-.697,1.852-1.321v-20.618Z"/>
      <path d="M1874.472,1871.883v20.618c0,3.507-3.089,6.355-6.889,6.355h-10.109c-3.863,0-6.89-2.792-6.89-6.355v-20.618c0-3.507,3.09-6.355,6.89-6.355h10.109c3.8,0,6.889,2.849,6.889,6.355ZM1869.435,1871.883c0-.728-.831-1.321-1.852-1.321h-10.109c-1.061,0-1.852.697-1.852,1.321v20.618c0,.728.831,1.321,1.852,1.321h10.109c1.061,0,1.852-.697,1.852-1.321v-20.618Z"/>
      <path d="M1898.321,1879.357v.033c0,1.392-1.128,2.52-2.519,2.52s-2.52-1.128-2.52-2.52,1.128-2.535,2.52-2.535,2.519,1.111,2.519,2.502ZM1898.321,1892.269v.033c0,1.391-1.128,2.519-2.519,2.519s-2.52-1.128-2.52-2.519,1.128-2.536,2.52-2.536,2.519,1.111,2.519,2.503Z"/>
      <path d="M1941.019,1871.883v20.618c0,3.507-3.089,6.355-6.889,6.355h-10.109c-3.863,0-6.89-2.792-6.89-6.355v-20.618c0-3.507,3.09-6.355,6.89-6.355h10.109c3.8,0,6.889,2.849,6.889,6.355ZM1935.982,1871.883c0-.728-.831-1.321-1.852-1.321h-10.109c-1.061,0-1.852.697-1.852,1.321v20.618c0,.728.831,1.321,1.852,1.321h10.109c1.061,0,1.852-.697,1.852-1.321v-20.618Z"/>
      <path d="M1967.516,1881.151c1.548,1.548,2.402,3.603,2.402,5.781v2.369c0,3.029-1.441,5.905-3.854,7.696-1.632,1.234-3.624,1.896-5.739,1.896h-2.102c-1.912,0-7.594-1.062-9.602-2.068l-1.148-.541c-1.257-.594-1.795-2.095-1.2-3.353.594-1.262,2.092-1.792,3.353-1.201l1.201.567c1.114.557,5.922,1.562,7.399,1.562h2.103c1.008,0,1.945-.311,2.716-.892,1.171-.874,1.835-2.205,1.835-3.666v-2.369c0-.834-.33-1.621-.931-2.222l-.404-.404c-.48-.483-1.145-.761-1.818-.761h-4.971c-.971,0-1.858-.56-2.275-1.44s-.29-1.919.327-2.673l7.246-8.868h-10.002c-1.392,0-2.52-1.127-2.52-2.519s1.128-2.519,2.52-2.519h15.313c.971,0,1.858.561,2.275,1.44.417.878.29,1.919-.327,2.673l-7.253,8.875c1.885.083,3.71.887,5.051,2.229l.404.403v.004Z"/>
      <path d="M1993.768,1879.357v.033c0,1.392-1.128,2.52-2.519,2.52s-2.52-1.128-2.52-2.52,1.128-2.535,2.52-2.535,2.519,1.111,2.519,2.502ZM1993.768,1892.269v.033c0,1.391-1.128,2.519-2.519,2.519s-2.52-1.128-2.52-2.519,1.128-2.536,2.52-2.536,2.519,1.111,2.519,2.503Z"/>
      <path d="M2033.4,1880.921c1.094.276,1.901,1.265,1.901,2.442s-.808,2.165-1.901,2.441v10.536c0,1.392-1.128,2.52-2.519,2.52s-2.52-1.128-2.52-2.52v-10.462h-13.262c-.984,0-1.878-.567-2.289-1.462-.413-.894-.267-1.945.371-2.692l13.078-15.313c.477-.561,1.178-.884,1.915-.884h2.702c1.392,0,2.52,1.127,2.52,2.519v12.868l.003.007ZM2028.359,1871.709l-7.797,9.132h7.797v-9.132Z"/>
      <path d="M2061.647,1893.812c1.392,0,2.52,1.127,2.52,2.519s-1.128,2.519-2.52,2.519h-18.85c-.348,0-.681-.073-.981-.2-.02-.006-.033-.026-.053-.036-.291-.13-.551-.311-.768-.534-.01-.01-.023-.013-.033-.023-.09-.093-.127-.213-.197-.316-.11-.157-.23-.304-.3-.484-.07-.183-.087-.373-.113-.566-.021-.124-.074-.23-.074-.357,0-.014.007-.026.007-.04.004-.207.067-.403.12-.604.033-.117.037-.247.084-.357.043-.104.13-.187.189-.283.11-.184.217-.37.371-.521.01-.01.023-.033.023-.033l14.346-13.445c2.169-2.039,3.353-4.247,3.25-6.06-.07-1.268-.771-2.378-2.133-3.393-.917-.678-2.225-1.037-3.767-1.037-2.973,0-5.298.507-6.999,2.979-.787,1.151-2.353,1.438-3.503.651-1.145-.788-1.435-2.355-.647-3.504,3.55-5.161,9.071-5.161,11.149-5.161,2.626,0,4.965.701,6.767,2.025,3.242,2.419,4.054,5.225,4.163,7.156.19,3.35-1.524,6.906-4.834,10.019l-9.702,9.096h12.481l.003-.007Z"/>
    </g>
    <g>
      <path d="M1845.161,1915.516v20.618c0,3.507-3.089,6.355-6.889,6.355h-10.109c-3.863,0-6.89-2.792-6.89-6.355v-20.618c0-3.507,3.09-6.355,6.89-6.355h10.109c3.8,0,6.889,2.849,6.889,6.355ZM1840.124,1915.516c0-.728-.831-1.321-1.852-1.321h-10.109c-1.061,0-1.852.697-1.852,1.321v20.618c0,.728.831,1.321,1.852,1.321h10.109c1.061,0,1.852-.697,1.852-1.321v-20.618Z"/>
      <path d="M1871.542,1937.445c1.392,0,2.52,1.127,2.52,2.519s-1.128,2.519-2.52,2.519h-18.85c-.348,0-.681-.073-.981-.2-.02-.006-.033-.026-.053-.036-.291-.13-.551-.311-.768-.534-.01-.01-.023-.013-.033-.023-.09-.093-.127-.213-.197-.316-.11-.157-.23-.304-.3-.484-.07-.183-.087-.373-.113-.566-.021-.124-.074-.23-.074-.357,0-.014.007-.026.007-.04.004-.207.067-.403.12-.604.033-.117.037-.247.084-.357.043-.104.13-.187.189-.283.11-.184.217-.37.371-.521.01-.01.022-.033.022-.033l14.347-13.445c2.169-2.039,3.353-4.247,3.25-6.06-.07-1.268-.771-2.378-2.133-3.393-.917-.678-2.225-1.037-3.767-1.037-2.973,0-5.298.507-6.999,2.979-.787,1.151-2.353,1.438-3.503.651-1.145-.788-1.435-2.355-.647-3.504,3.55-5.161,9.071-5.161,11.149-5.161,2.626,0,4.965.701,6.767,2.025,3.243,2.419,4.054,5.225,4.163,7.156.19,3.35-1.524,6.906-4.834,10.019l-9.702,9.096h12.481l.003-.007Z"/>
      <path d="M1897.909,1922.99v.033c0,1.392-1.128,2.52-2.519,2.52s-2.52-1.128-2.52-2.52,1.128-2.535,2.52-2.535,2.519,1.111,2.519,2.502ZM1897.909,1935.902v.033c0,1.391-1.128,2.519-2.519,2.519s-2.52-1.128-2.52-2.519,1.128-2.536,2.52-2.536,2.519,1.111,2.519,2.503Z"/>
      <path d="M1940.608,1915.516v20.618c0,3.507-3.089,6.355-6.889,6.355h-10.109c-3.863,0-6.89-2.792-6.89-6.355v-20.618c0-3.507,3.09-6.355,6.89-6.355h10.109c3.8,0,6.889,2.849,6.889,6.355ZM1935.571,1915.516c0-.728-.831-1.321-1.852-1.321h-10.109c-1.061,0-1.852.697-1.852,1.321v20.618c0,.728.831,1.321,1.852,1.321h10.109c1.061,0,1.852-.697,1.852-1.321v-20.618Z"/>
      <path d="M1957.346,1920.94c7.272,0,12.16,4.323,12.16,10.76,0,6.339-5.001,10.763-12.16,10.763s-11.728-4.224-11.728-10.763c0-.153.037-.287.04-.438-.007-.07-.04-.127-.04-.196,0-3.464,3.093-10.517,6.082-15.341,2.002-3.236,3.333-4.564,4.504-5.735.984-.984,2.626-1.03,3.61-.047.984.984,1.031,2.536.047,3.517l-.094.094c-1.074,1.071-2.085,2.085-3.783,4.824-.591.947-1.124,1.908-1.628,2.862.943-.18,1.928-.304,2.989-.304v.004ZM1964.469,1931.696c0-5.164-4.981-5.722-7.123-5.722-3.053,0-6.689.994-6.689,5.722,0,3.693,2.375,5.726,6.689,5.726,4.394,0,7.123-2.192,7.123-5.726Z"/>
      <path d="M1993.356,1922.99v.033c0,1.392-1.128,2.52-2.519,2.52s-2.52-1.128-2.52-2.52,1.128-2.535,2.52-2.535,2.519,1.111,2.519,2.502ZM1993.356,1935.902v.033c0,1.391-1.128,2.519-2.519,2.519s-2.52-1.128-2.52-2.519,1.128-2.536,2.52-2.536,2.519,1.111,2.519,2.503Z"/>
      <path d="M2036.054,1915.516v20.618c0,3.507-3.089,6.355-6.889,6.355h-10.109c-3.863,0-6.89-2.792-6.89-6.355v-20.618c0-3.507,3.09-6.355,6.89-6.355h10.109c3.8,0,6.889,2.849,6.889,6.355ZM2031.017,1915.516c0-.728-.831-1.321-1.852-1.321h-10.109c-1.061,0-1.852.697-1.852,1.321v20.618c0,.728.831,1.321,1.852,1.321h10.109c1.061,0,1.852-.697,1.852-1.321v-20.618Z"/>
      <path d="M2062.435,1937.445c1.392,0,2.52,1.127,2.52,2.519s-1.128,2.519-2.52,2.519h-18.85c-.348,0-.681-.073-.981-.2-.02-.006-.033-.026-.053-.036-.291-.13-.551-.311-.768-.534-.01-.01-.023-.013-.033-.023-.09-.093-.127-.213-.197-.316-.11-.157-.23-.304-.3-.484-.07-.183-.087-.373-.113-.566-.021-.124-.074-.23-.074-.357,0-.014.007-.026.007-.04.004-.207.067-.403.12-.604.033-.117.037-.247.084-.357.043-.104.13-.187.189-.283.11-.184.217-.37.371-.521.01-.01.023-.033.023-.033l14.346-13.445c2.169-2.039,3.353-4.247,3.25-6.06-.07-1.268-.771-2.378-2.133-3.393-.917-.678-2.225-1.037-3.767-1.037-2.973,0-5.298.507-6.999,2.979-.787,1.151-2.353,1.438-3.503.651-1.145-.788-1.435-2.355-.647-3.504,3.55-5.161,9.071-5.161,11.149-5.161,2.626,0,4.965.701,6.767,2.025,3.242,2.419,4.054,5.225,4.163,7.156.19,3.35-1.524,6.906-4.834,10.019l-9.702,9.096h12.481l.003-.007Z"/>
    </g>
    <g>
      <path d="M1846.247,1828.251v20.618c0,3.507-3.089,6.355-6.889,6.355h-10.109c-3.863,0-6.89-2.792-6.89-6.355v-20.618c0-3.507,3.09-6.355,6.89-6.355h10.109c3.8,0,6.889,2.849,6.889,6.355ZM1841.21,1828.251c0-.728-.831-1.321-1.852-1.321h-10.109c-1.061,0-1.852.697-1.852,1.321v20.618c0,.728.831,1.321,1.852,1.321h10.109c1.061,0,1.852-.697,1.852-1.321v-20.618Z"/>
      <path d="M1872.628,1850.181c1.392,0,2.52,1.127,2.52,2.519s-1.128,2.519-2.52,2.519h-18.85c-.348,0-.681-.073-.981-.2-.02-.006-.033-.026-.053-.036-.291-.13-.551-.311-.768-.534-.01-.01-.023-.013-.033-.023-.09-.093-.127-.213-.197-.316-.11-.157-.23-.304-.3-.484-.07-.183-.087-.373-.113-.566-.021-.124-.074-.23-.074-.357,0-.014.007-.026.007-.04.004-.207.067-.403.12-.604.033-.117.037-.247.084-.357.043-.104.13-.187.189-.283.11-.184.217-.37.371-.521.01-.01.022-.033.022-.033l14.347-13.445c2.169-2.039,3.353-4.247,3.25-6.06-.07-1.268-.771-2.378-2.133-3.393-.917-.678-2.225-1.037-3.767-1.037-2.973,0-5.298.507-6.999,2.979-.787,1.151-2.353,1.438-3.503.651-1.145-.788-1.435-2.355-.647-3.504,3.55-5.161,9.071-5.161,11.149-5.161,2.626,0,4.965.701,6.767,2.025,3.243,2.419,4.054,5.225,4.163,7.156.19,3.35-1.524,6.906-4.834,10.019l-9.702,9.096h12.481l.003-.007Z"/>
      <path d="M1898.995,1835.726v.033c0,1.392-1.128,2.52-2.519,2.52s-2.52-1.128-2.52-2.52,1.128-2.535,2.52-2.535,2.519,1.111,2.519,2.502ZM1898.995,1848.638v.033c0,1.391-1.128,2.519-2.519,2.519s-2.52-1.128-2.52-2.519,1.128-2.536,2.52-2.536,2.519,1.111,2.519,2.503Z"/>
      <path d="M1941.694,1828.251v20.618c0,3.507-3.089,6.355-6.889,6.355h-10.109c-3.863,0-6.89-2.792-6.89-6.355v-20.618c0-3.507,3.09-6.355,6.89-6.355h10.109c3.8,0,6.889,2.849,6.889,6.355ZM1936.657,1828.251c0-.728-.831-1.321-1.852-1.321h-10.109c-1.061,0-1.852.697-1.852,1.321v20.618c0,.728.831,1.321,1.852,1.321h10.109c1.061,0,1.852-.697,1.852-1.321v-20.618Z"/>
      <path d="M1968.074,1850.181c1.392,0,2.52,1.127,2.52,2.519s-1.128,2.519-2.52,2.519h-18.85c-.348,0-.681-.073-.981-.2-.02-.006-.033-.026-.053-.036-.291-.13-.551-.311-.768-.534-.01-.01-.023-.013-.033-.023-.09-.093-.127-.213-.197-.316-.11-.157-.23-.304-.3-.484-.07-.183-.087-.373-.113-.566-.021-.124-.074-.23-.074-.357,0-.014.007-.026.007-.04.004-.207.067-.403.12-.604.033-.117.037-.247.084-.357.043-.104.13-.187.189-.283.11-.184.217-.37.371-.521.01-.01.023-.033.023-.033l14.346-13.445c2.169-2.039,3.353-4.247,3.25-6.06-.07-1.268-.771-2.378-2.133-3.393-.917-.678-2.225-1.037-3.767-1.037-2.973,0-5.298.507-6.999,2.979-.787,1.151-2.353,1.438-3.503.651-1.145-.788-1.435-2.355-.647-3.504,3.55-5.161,9.071-5.161,11.149-5.161,2.626,0,4.965.701,6.767,2.025,3.242,2.419,4.054,5.225,4.163,7.156.19,3.35-1.524,6.906-4.834,10.019l-9.702,9.096h12.481l.003-.007Z"/>
      <path d="M1994.442,1835.726v.033c0,1.392-1.128,2.52-2.519,2.52s-2.52-1.128-2.52-2.52,1.128-2.535,2.52-2.535,2.519,1.111,2.519,2.502ZM1994.442,1848.638v.033c0,1.391-1.128,2.519-2.519,2.519s-2.52-1.128-2.52-2.519,1.128-2.536,2.52-2.536,2.519,1.111,2.519,2.503Z"/>
      <path d="M2020.626,1850.224c1.318.084,2.369,1.151,2.369,2.489,0,1.391-1.128,2.519-2.519,2.519h-4.704c-1.392,0-2.52-1.128-2.52-2.519,0-1.328,1.034-2.383,2.336-2.482v-22.587c-.411-.19-.784-.467-1.052-.874-.764-1.161-.443-2.726.718-3.49l1.468-.967c.063-.044.141-.047.207-.084.146-.08.297-.137.46-.187.171-.054.331-.09.504-.104.074-.007.137-.043.214-.043.083,0,.153.04.237.046.173.018.34.051.507.104.153.051.293.107.431.181.14.073.267.16.394.264.137.109.25.229.36.363.053.066.126.104.173.177.044.063.047.141.084.207.08.146.137.3.187.464.05.167.087.327.101.497.006.076.043.14.043.217v25.807l.003.003Z"/>
      <path d="M2047.683,1852.122c-2.959,2.956-10.285,3.106-11.724,3.106-1.391,0-2.519-1.128-2.519-2.516s1.124-2.522,2.516-2.522c3.093-.003,7.206-.674,8.164-1.632,1.234-1.234,1.984-3.773,2.412-6.592-1.812.924-4.007,1.451-6.569,1.451-7.377,0-11.961-4.124-11.961-10.76,0-5.205,3.143-10.763,11.961-10.763,8.598,0,11.773,5.281,11.927,10.369.014.08.054.149.061.229.097,1.476.797,14.561-4.268,19.628ZM2046.882,1832.654c0-3.8-2.332-5.725-6.923-5.725-4.657,0-6.923,1.875-6.923,5.725,0,3.797,2.329,5.723,6.923,5.723s6.923-1.922,6.923-5.723Z"/>
    </g>
    <g>
      <path d="M1888.644,1792.545c1.094.276,1.901,1.265,1.901,2.442s-.808,2.165-1.901,2.441v10.536c0,1.392-1.128,2.52-2.519,2.52s-2.52-1.128-2.52-2.52v-10.462h-13.262c-.984,0-1.878-.567-2.289-1.462-.413-.894-.267-1.945.371-2.692l13.078-15.313c.477-.561,1.178-.884,1.915-.884h2.702c1.392,0,2.52,1.127,2.52,2.519v12.868l.003.007ZM1883.603,1783.333l-7.797,9.132h7.797v-9.132Z"/>
      <path d="M1916.891,1805.436c1.392,0,2.52,1.127,2.52,2.519s-1.128,2.519-2.52,2.519h-18.85c-.348,0-.681-.073-.981-.2-.02-.006-.033-.026-.053-.036-.291-.13-.551-.311-.768-.534-.01-.01-.023-.013-.033-.023-.09-.093-.127-.213-.197-.316-.11-.157-.23-.304-.3-.484-.07-.183-.087-.373-.113-.566-.021-.124-.074-.23-.074-.357,0-.014.007-.026.007-.04.004-.207.067-.403.12-.604.033-.117.037-.247.084-.357.043-.104.13-.187.189-.283.11-.184.217-.37.371-.521.01-.01.023-.033.023-.033l14.346-13.445c2.169-2.039,3.353-4.247,3.25-6.06-.07-1.268-.771-2.378-2.133-3.393-.917-.678-2.225-1.037-3.767-1.037-2.973,0-5.298.507-6.999,2.979-.787,1.151-2.353,1.438-3.503.651-1.145-.788-1.435-2.355-.647-3.504,3.55-5.161,9.071-5.161,11.149-5.161,2.626,0,4.965.701,6.767,2.025,3.242,2.419,4.054,5.225,4.163,7.156.19,3.35-1.524,6.906-4.834,10.019l-9.702,9.096h12.481l.003-.007Z"/>
      <path d="M1973.506,1792.775c1.548,1.548,2.401,3.603,2.401,5.781v2.369c0,3.029-1.44,5.905-3.853,7.696-1.632,1.234-3.624,1.896-5.739,1.896h-2.102c-1.912,0-7.594-1.062-9.602-2.068l-1.148-.541c-1.258-.594-1.795-2.095-1.2-3.353.594-1.262,2.092-1.792,3.353-1.201l1.201.567c1.114.557,5.922,1.562,7.399,1.562h2.103c1.008,0,1.945-.311,2.716-.892,1.171-.874,1.835-2.205,1.835-3.666v-2.369c0-.834-.33-1.621-.931-2.222l-.404-.404c-.48-.483-1.145-.76-1.818-.76h-4.971c-.971,0-1.858-.561-2.275-1.441s-.29-1.919.327-2.673l7.246-8.868h-10.002c-1.392,0-2.52-1.127-2.52-2.519s1.128-2.519,2.52-2.519h15.313c.971,0,1.858.561,2.275,1.44.417.878.29,1.919-.327,2.673l-7.253,8.875c1.885.083,3.71.887,5.051,2.229l.404.403v.004Z"/>
      <path d="M2009.405,1792.775c1.548,1.548,2.402,3.603,2.402,5.781v2.369c0,3.029-1.441,5.905-3.854,7.696-1.632,1.234-3.624,1.896-5.739,1.896h-2.102c-1.912,0-7.594-1.062-9.602-2.068l-1.148-.541c-1.257-.594-1.795-2.095-1.2-3.353.594-1.262,2.092-1.792,3.353-1.201l1.201.567c1.114.557,5.922,1.562,7.399,1.562h2.103c1.008,0,1.945-.311,2.716-.892,1.171-.874,1.835-2.205,1.835-3.666v-2.369c0-.834-.33-1.621-.931-2.222l-.404-.404c-.48-.483-1.145-.76-1.818-.76h-4.971c-.971,0-1.858-.561-2.275-1.441s-.29-1.919.327-2.673l7.246-8.868h-10.002c-1.392,0-2.52-1.127-2.52-2.519s1.128-2.519,2.52-2.519h15.313c.971,0,1.858.561,2.275,1.44.417.878.29,1.919-.327,2.673l-7.253,8.875c1.885.083,3.71.887,5.051,2.229l.404.403v.004Z"/>
      <path d="M2028.857,1809.795v.07c0,1.392-1.128,2.519-2.519,2.519s-2.52-1.127-2.52-2.519,1.128-2.556,2.52-2.556,2.519,1.095,2.519,2.485Z"/>
      <path d="M2052.595,1788.932c7.272,0,12.16,4.323,12.16,10.76,0,6.339-5.001,10.763-12.16,10.763s-11.728-4.224-11.728-10.763c0-.153.037-.287.04-.438-.007-.07-.04-.127-.04-.196,0-3.464,3.093-10.517,6.082-15.341,2.002-3.236,3.333-4.564,4.504-5.735.984-.984,2.626-1.03,3.61-.047.984.984,1.031,2.536.047,3.517l-.094.094c-1.074,1.071-2.085,2.085-3.783,4.824-.591.947-1.124,1.908-1.628,2.862.943-.18,1.928-.304,2.989-.304v.004ZM2059.718,1799.687c0-5.164-4.981-5.722-7.123-5.722-3.053,0-6.689.994-6.689,5.722,0,3.693,2.375,5.726,6.689,5.726,4.394,0,7.123-2.192,7.123-5.726Z"/>
    </g>
    <g>
      <path d="M1798.542,1746.173c1.675,1.559,2.723,3.78,2.723,6.242v3.337c0,4.681-3.811,8.491-8.491,8.491h-12.845c-1.392,0-2.52-1.128-2.52-2.52v-28.225c0-1.392,1.128-2.52,2.52-2.52h12.578c2.562,0,4.924,1.275,6.315,3.413.804,1.181,1.241,2.64,1.241,4.177v3.17c0,1.838-.611,3.31-1.525,4.434h.004ZM1782.451,1736.024v7.873h10.519c.581-.109,2.059-.547,2.059-2.154v-3.17c0-.533-.137-.998-.4-1.389-.493-.757-1.258-1.167-2.121-1.167h-10.06l.004.007ZM1796.226,1752.419c0-1.789-1.354-3.267-3.09-3.467-.133.014-.267.014-.396.014h-10.293v10.242h10.326c1.905,0,3.453-1.551,3.453-3.453v-3.336Z"/>
      <path d="M1827.596,1730.946c1.392,0,2.519,1.128,2.519,2.52s-1.127,2.519-2.519,2.519h-6.89v25.706c0,1.391-1.128,2.52-2.519,2.52s-2.52-1.129-2.52-2.52v-25.706h-6.89c-1.391,0-2.519-1.128-2.519-2.519s1.128-2.52,2.519-2.52h18.817Z"/>
      <path d="M1939.077,1759.206c1.318.084,2.369,1.152,2.369,2.49,0,1.391-1.128,2.518-2.52,2.518h-4.704c-1.391,0-2.519-1.127-2.519-2.518,0-1.328,1.034-2.383,2.335-2.482v-22.588c-.41-.189-.783-.467-1.051-.873-.764-1.162-.443-2.727.718-3.49l1.468-.968c.063-.044.14-.046.207-.083.146-.08.297-.137.46-.188.17-.053.33-.09.504-.104.073-.006.137-.043.214-.043.083,0,.153.04.236.047.174.017.341.05.508.104.153.05.293.106.43.18.141.074.268.16.394.264.138.11.251.23.36.363.054.067.127.104.174.178.043.062.047.14.083.207.08.146.138.3.188.463.05.167.087.327.1.498.007.076.044.14.044.217v25.806l.003.003Z"/>
      <path d="M1970.341,1737.233v20.619c0,3.506-3.089,6.355-6.89,6.355h-10.108c-3.863,0-6.89-2.793-6.89-6.355v-20.619c0-3.506,3.089-6.355,6.89-6.355h10.108c3.801,0,6.89,2.85,6.89,6.355ZM1965.303,1737.233c0-.727-.83-1.32-1.852-1.32h-10.108c-1.062,0-1.852.697-1.852,1.32v20.619c0,.727.83,1.32,1.852,1.32h10.108c1.062,0,1.852-.697,1.852-1.32v-20.619Z"/>
      <path d="M1996.838,1746.502c1.549,1.548,2.402,3.603,2.402,5.782v2.369c0,3.029-1.441,5.904-3.854,7.696-1.631,1.234-3.623,1.896-5.738,1.896h-2.102c-1.912,0-7.594-1.062-9.603-2.069l-1.147-.54c-1.258-.594-1.795-2.096-1.201-3.354.594-1.261,2.092-1.791,3.354-1.201l1.201.567c1.114.558,5.922,1.562,7.399,1.562h2.103c1.007,0,1.944-.311,2.716-.891,1.171-.874,1.835-2.205,1.835-3.666v-2.369c0-.834-.331-1.621-.932-2.223l-.403-.403c-.48-.483-1.145-.761-1.818-.761h-4.971c-.972,0-1.858-.561-2.275-1.441s-.291-1.918.326-2.672l7.247-8.868h-10.002c-1.392,0-2.52-1.128-2.52-2.519s1.128-2.52,2.52-2.52h15.313c.971,0,1.858.561,2.275,1.441.417.877.29,1.918-.327,2.672l-7.253,8.875c1.885.084,3.71.888,5.051,2.229l.403.404v.003Z"/>
      <path d="M2027.683,1739.03l-18.817,28.225c-.486.729-1.284,1.121-2.099,1.121-.479,0-.964-.137-1.395-.424-1.157-.773-1.468-2.335-.697-3.492l18.817-28.226c.773-1.154,2.332-1.464,3.493-.697,1.157.771,1.468,2.335.697,3.493Z"/>
      <path d="M2040.475,1759.206c1.318.084,2.369,1.152,2.369,2.49,0,1.391-1.128,2.518-2.52,2.518h-4.704c-1.391,0-2.519-1.127-2.519-2.518,0-1.328,1.034-2.383,2.335-2.482v-22.588c-.41-.189-.783-.467-1.051-.873-.764-1.162-.443-2.727.718-3.49l1.468-.968c.063-.044.14-.046.207-.083.146-.08.297-.137.46-.188.17-.053.33-.09.504-.104.073-.006.137-.043.214-.043.083,0,.153.04.236.047.174.017.341.05.508.104.153.05.293.106.43.18.141.074.268.16.394.264.138.11.251.23.36.363.054.067.127.104.174.178.043.062.047.14.083.207.08.146.138.3.188.463.05.167.087.327.1.498.007.076.044.14.044.217v25.806l.003.003Z"/>
      <path d="M2071.442,1732.21c.437.82.39,1.814-.124,2.585l-18.85,28.296c-.487.727-1.285,1.12-2.099,1.12-.48,0-.968-.137-1.395-.423-1.158-.771-1.472-2.332-.701-3.494l16.241-24.378h-11.777c-1.391,0-2.519-1.128-2.519-2.519s1.128-2.52,2.519-2.52h16.481c.932,0,1.785.511,2.223,1.328v.004Z"/>
    </g>
    <g>
      <path d="M2015.757,1508.248v20.618c0,3.507-3.089,6.356-6.89,6.356h-10.108c-3.863,0-6.89-2.793-6.89-6.356v-20.618c0-3.507,3.089-6.355,6.89-6.355h10.108c3.801,0,6.89,2.849,6.89,6.355ZM2010.719,1508.248c0-.728-.83-1.321-1.852-1.321h-10.108c-1.062,0-1.852.697-1.852,1.321v20.618c0,.728.83,1.321,1.852,1.321h10.108c1.062,0,1.852-.697,1.852-1.321v-20.618Z"/>
      <path d="M2041.59,1517.286c1.094.277,1.901,1.265,1.901,2.442s-.808,2.165-1.901,2.442v10.536c0,1.391-1.128,2.519-2.52,2.519s-2.519-1.128-2.519-2.519v-10.463h-13.262c-.984,0-1.879-.567-2.289-1.462-.413-.894-.267-1.944.37-2.692l13.079-15.313c.477-.561,1.178-.884,1.915-.884h2.702c1.392,0,2.519,1.128,2.519,2.519v12.868l.004.007ZM2036.548,1508.074l-7.797,9.132h7.797v-9.132Z"/>
      <path d="M2069.838,1530.178c1.392,0,2.519,1.128,2.519,2.519s-1.127,2.52-2.519,2.52h-18.85c-.348,0-.681-.073-.981-.2-.02-.007-.033-.027-.054-.037-.29-.13-.55-.311-.767-.533-.011-.011-.023-.014-.033-.023-.091-.094-.127-.214-.197-.317-.11-.157-.23-.304-.301-.483-.069-.184-.086-.374-.113-.567-.02-.124-.073-.23-.073-.357,0-.013.007-.026.007-.04.003-.206.066-.403.12-.604.033-.117.037-.247.083-.357.044-.103.131-.187.19-.283.11-.184.217-.37.37-.521.011-.01.023-.033.023-.033l14.347-13.445c2.168-2.039,3.353-4.247,3.249-6.059-.069-1.269-.771-2.379-2.132-3.394-.917-.677-2.226-1.037-3.767-1.037-2.973,0-5.298.507-6.999,2.979-.788,1.15-2.353,1.438-3.504.65-1.145-.787-1.435-2.355-.646-3.503,3.55-5.162,9.071-5.162,11.149-5.162,2.626,0,4.965.701,6.767,2.025,3.242,2.419,4.053,5.225,4.163,7.156.19,3.35-1.524,6.906-4.834,10.02l-9.702,9.095h12.481l.003-.007Z"/>
    </g>
    <g>
      <path d="M2017.439,1576.438c1.392,0,2.52,1.128,2.52,2.519s-1.128,2.52-2.52,2.52h-18.85c-.348,0-.681-.073-.98-.2-.021-.007-.034-.027-.055-.037-.289-.13-.55-.311-.767-.533-.011-.011-.023-.014-.033-.023-.091-.094-.127-.214-.197-.317-.11-.157-.229-.304-.3-.483-.07-.184-.087-.374-.113-.567-.021-.124-.074-.23-.074-.357,0-.013.007-.026.007-.04.003-.206.067-.403.12-.604.033-.117.037-.247.084-.357.043-.103.13-.187.189-.283.11-.184.217-.37.371-.521.01-.01.023-.033.023-.033l14.346-13.445c2.168-2.039,3.354-4.247,3.25-6.059-.07-1.269-.771-2.379-2.133-3.394-.917-.677-2.225-1.037-3.766-1.037-2.973,0-5.299.507-7,2.979-.787,1.15-2.353,1.438-3.504.65-1.145-.787-1.434-2.355-.646-3.503,3.55-5.162,9.071-5.162,11.15-5.162,2.625,0,4.964.701,6.766,2.025,3.242,2.419,4.053,5.225,4.164,7.156.189,3.35-1.525,6.906-4.835,10.02l-9.702,9.095h12.481l.003-.007Z"/>
      <path d="M2030.007,1580.797v.07c0,1.392-1.128,2.52-2.52,2.52s-2.519-1.128-2.519-2.52,1.128-2.556,2.519-2.556,2.52,1.095,2.52,2.485Z"/>
      <path d="M2070.594,1563.54c1.854,2.159,1.805,4.211,1.762,5.862l-.014.757c0,3.083-.974,5.822-2.673,7.523-1.454,1.451-3.456,2.516-5.491,2.923-1.567.313-10.056.73-12.621.848h-.12c-1.338,0-2.452-1.055-2.516-2.402-.063-1.388,1.008-2.565,2.398-2.633,5.152-.243,11-.59,11.871-.757,1.055-.214,2.172-.804,2.916-1.548.554-.554,1.197-1.922,1.197-3.961l.014-.884c.033-1.397.02-1.788-.541-2.442-.633-.73-1.157-.87-2.401-.924h-12.938c-1.385,0-2.509-1.114-2.52-2.499l-.1-12.715c-.003-.674.258-1.317.73-1.795.475-.477,1.118-.744,1.789-.744h17.281c1.392,0,2.52,1.128,2.52,2.52s-1.128,2.519-2.52,2.519h-14.742l.06,7.677h10.546c2.099.091,4.201.471,6.109,2.673l.003.003Z"/>
    </g>
    <g>
      <path d="M1955.943,1619.09c1.318.083,2.369,1.151,2.369,2.489,0,1.391-1.127,2.519-2.52,2.519h-4.703c-1.392,0-2.52-1.128-2.52-2.519,0-1.328,1.034-2.383,2.336-2.482v-22.587c-.41-.19-.784-.467-1.051-.874-.765-1.161-.444-2.726.717-3.49l1.468-.968c.063-.043.14-.046.207-.083.147-.08.297-.137.46-.187.17-.054.33-.091.504-.104.074-.007.137-.044.214-.044.083,0,.153.04.237.047.173.017.34.05.507.104.153.05.294.106.431.181.14.073.267.16.393.263.138.11.251.23.361.364.053.066.127.104.174.177.043.063.046.14.082.207.08.146.138.3.188.464.051.166.087.326.1.497.008.076.044.14.044.217v25.806l.003.004Z"/>
      <path d="M1984.689,1619.046c1.392,0,2.52,1.128,2.52,2.52s-1.128,2.519-2.52,2.519h-18.85c-.348,0-.681-.073-.98-.2-.021-.007-.034-.026-.055-.036-.289-.131-.55-.311-.767-.534-.011-.01-.023-.014-.033-.023-.091-.094-.127-.214-.197-.316-.11-.157-.229-.304-.3-.484-.07-.184-.087-.373-.113-.567-.021-.123-.074-.229-.074-.356,0-.014.007-.026.007-.04.003-.207.067-.404.12-.604.033-.116.037-.246.084-.356.043-.104.13-.187.189-.283.11-.184.217-.371.371-.521.01-.011.023-.034.023-.034l14.346-13.445c2.168-2.038,3.354-4.247,3.25-6.059-.07-1.268-.771-2.379-2.133-3.393-.917-.678-2.225-1.038-3.766-1.038-2.973,0-5.299.508-7,2.979-.787,1.151-2.353,1.438-3.504.65-1.145-.787-1.434-2.355-.646-3.503,3.55-5.161,9.071-5.161,11.15-5.161,2.625,0,4.964.7,6.766,2.025,3.242,2.419,4.053,5.225,4.164,7.156.189,3.35-1.525,6.906-4.835,10.019l-9.702,9.095h12.481l.003-.007Z"/>
      <path d="M2013.041,1606.155c1.094.276,1.902,1.264,1.902,2.441s-.809,2.166-1.902,2.442v10.536c0,1.392-1.128,2.519-2.52,2.519s-2.519-1.127-2.519-2.519v-10.463h-13.262c-.984,0-1.878-.566-2.288-1.461-.414-.895-.268-1.945.369-2.692l13.079-15.313c.478-.561,1.178-.885,1.915-.885h2.702c1.392,0,2.519,1.128,2.519,2.52v12.868l.004.007ZM2008,1596.943l-7.797,9.132h7.797v-9.132Z"/>
      <path d="M2041.695,1606.148c1.855,2.158,1.805,4.21,1.762,5.861l-.014.758c0,3.083-.975,5.821-2.672,7.523-1.455,1.451-3.457,2.516-5.492,2.923-1.568.313-10.056.73-12.621.847h-.12c-1.338,0-2.452-1.054-2.516-2.401-.063-1.389,1.008-2.566,2.399-2.633,5.15-.243,11-.591,11.87-.758,1.054-.213,2.172-.804,2.916-1.548.554-.554,1.198-1.922,1.198-3.96l.013-.884c.033-1.398.021-1.789-.54-2.442-.635-.73-1.158-.871-2.402-.924h-12.938c-1.384,0-2.509-1.115-2.519-2.499l-.101-12.715c-.003-.674.257-1.318.731-1.795.473-.478,1.117-.744,1.787-.744h17.283c1.391,0,2.519,1.128,2.519,2.519s-1.128,2.52-2.519,2.52h-14.744l.061,7.677h10.546c2.099.09,4.2.471,6.108,2.672l.004.004Z"/>
      <path d="M2072.357,1597.117v20.618c0,3.506-3.09,6.355-6.891,6.355h-10.108c-3.863,0-6.89-2.792-6.89-6.355v-20.618c0-3.507,3.09-6.356,6.89-6.356h10.108c3.801,0,6.891,2.85,6.891,6.356ZM2067.318,1597.117c0-.728-.83-1.321-1.852-1.321h-10.108c-1.062,0-1.852.697-1.852,1.321v20.618c0,.728.831,1.321,1.852,1.321h10.108c1.062,0,1.852-.697,1.852-1.321v-20.618Z"/>
    </g>
    <g>
      <path d="M2043.159,1638.956c.438.82.391,1.815-.123,2.586l-18.851,28.295c-.487.728-1.284,1.121-2.099,1.121-.48,0-.967-.137-1.395-.424-1.157-.771-1.471-2.332-.7-3.492l16.241-24.379h-11.777c-1.392,0-2.519-1.128-2.519-2.52s1.127-2.519,2.519-2.519h16.481c.931,0,1.785.511,2.222,1.328v.003Z"/>
      <path d="M2072.357,1643.981v20.617c0,3.507-3.09,6.356-6.89,6.356h-10.109c-3.863,0-6.89-2.792-6.89-6.356v-20.617c0-3.508,3.09-6.356,6.89-6.356h10.109c3.8,0,6.89,2.849,6.89,6.356ZM2067.319,1643.981c0-.729-.831-1.322-1.852-1.322h-10.109c-1.061,0-1.852.697-1.852,1.322v20.617c0,.729.831,1.322,1.852,1.322h10.109c1.061,0,1.852-.697,1.852-1.322v-20.617Z"/>
    </g>
    <g>
      <path d="M1986.869,1705.239c0,1.392-1.129,2.519-2.52,2.519h-14.109c-1.391,0-2.52-1.127-2.52-2.519s1.129-2.519,2.52-2.519h14.109c1.391,0,2.52,1.127,2.52,2.519Z"/>
      <path d="M2013.24,1712.654c1.391,0,2.519,1.128,2.519,2.519s-1.128,2.52-2.519,2.52h-18.85c-.348,0-.682-.073-.981-.2-.021-.007-.034-.027-.054-.037-.29-.13-.551-.311-.768-.533-.01-.011-.023-.014-.033-.023-.09-.094-.127-.214-.197-.317-.109-.157-.229-.304-.3-.483-.069-.184-.087-.374-.113-.567-.021-.124-.073-.23-.073-.357,0-.013.006-.026.006-.04.004-.206.067-.403.121-.604.033-.117.037-.247.083-.357.044-.103.13-.187.19-.283.109-.184.217-.37.37-.521.011-.01.023-.033.023-.033l14.347-13.445c2.168-2.039,3.353-4.247,3.249-6.059-.069-1.269-.771-2.379-2.132-3.394-.918-.677-2.226-1.037-3.767-1.037-2.973,0-5.298.507-6.999,2.979-.788,1.15-2.354,1.438-3.504.65-1.145-.787-1.435-2.355-.646-3.503,3.549-5.162,9.07-5.162,11.149-5.162,2.626,0,4.964.701,6.767,2.025,3.242,2.419,4.053,5.225,4.163,7.156.19,3.35-1.524,6.906-4.835,10.02l-9.701,9.095h12.48l.004-.007Z"/>
      <path d="M2041.591,1699.763c1.094.277,1.901,1.265,1.901,2.442s-.808,2.165-1.901,2.442v10.536c0,1.391-1.129,2.519-2.52,2.519s-2.52-1.128-2.52-2.519v-10.463h-13.262c-.984,0-1.878-.567-2.288-1.462-.413-.894-.267-1.944.37-2.692l13.078-15.313c.478-.561,1.178-.884,1.916-.884h2.701c1.393,0,2.52,1.128,2.52,2.519v12.868l.004.007ZM2036.549,1690.551l-7.797,9.132h7.797v-9.132Z"/>
      <path d="M2060.196,1696.149c7.273,0,12.161,4.324,12.161,10.76,0,6.339-5.001,10.763-12.161,10.763s-11.728-4.224-11.728-10.763c0-.153.037-.287.041-.438-.007-.069-.041-.126-.041-.196,0-3.463,3.094-10.517,6.082-15.341,2.002-3.236,3.334-4.563,4.505-5.734.983-.984,2.626-1.031,3.61-.047.983.984,1.03,2.535.046,3.517l-.093.093c-1.074,1.071-2.086,2.085-3.783,4.824-.592.948-1.125,1.908-1.629,2.863.944-.181,1.929-.304,2.989-.304v.003ZM2067.319,1706.906c0-5.165-4.981-5.723-7.123-5.723-3.053,0-6.688.995-6.688,5.723,0,3.692,2.375,5.725,6.688,5.725,4.394,0,7.123-2.192,7.123-5.725Z"/>
    </g>
    <path id="k" data-name="TargetDesignatorUnknownHooked" d="M1197.648,1256.128v-71.481s71.481,0,71.481,0v71.481h-71.481ZM1197.648,1256.128l-19.257,19.257M1269.129,1184.646l19.257-19.257M1269.129,1256.128l19.257,19.257M1197.648,1184.646l-19.257-19.257" fill="none" stroke="#000" stroke-linecap="square" stroke-miterlimit="15.1" stroke-width="6"/>
    <g>
      <path d="M1177.293,1115.453c2.043,2.047,3.17,4.761,3.17,7.657v1.941c0,3.36-1.608,6.581-4.305,8.62l-.954.684c-1.836,1.351-4.128,2.115-6.416,2.115h-7.049c-2.119,0-4.183-.621-5.968-1.794l-2.55-1.692c-1.469-.979-1.861-2.955-.891-4.419.979-1.469,2.955-1.857,4.419-.891l2.537,1.684c.717.477,1.595.739,2.457.739h7.049c.937,0,1.882-.317,2.667-.899l.924-.663c1.042-.785,1.706-2.11,1.706-3.482v-1.941c0-1.19-.469-2.305-1.309-3.149-.84-.844-1.958-1.309-3.145-1.309h-8.568c-2.892,0-5.614-1.127-7.657-3.166-2.043-2.051-3.17-4.77-3.17-7.657v-2.617c0-2.891,1.127-5.61,3.17-7.657,2.043-2.043,4.762-3.17,7.657-3.17h7.936c2.148,0,4.221.62,5.99,1.798l2.532,1.693c1.465.975,1.857,2.959.882,4.419s-2.946,1.87-4.419.878l-2.533-1.688c-.717-.477-1.566-.73-2.452-.73h-7.936c-1.19,0-2.313.464-3.149,1.305-.844.844-1.309,1.967-1.309,3.153v2.617c0,1.186.469,2.309,1.309,3.153.835.84,1.958,1.3,3.149,1.3h8.568c2.887,0,5.606,1.127,7.653,3.17h.004Z"/>
      <path d="M1216.986,1097.53v35.71c0,1.76-1.427,3.187-3.187,3.187s-3.187-1.427-3.187-3.187v-14.668h-17.433v14.668c0,1.76-1.427,3.187-3.187,3.187s-3.187-1.427-3.187-3.187v-35.71c0-1.76,1.427-3.187,3.187-3.187s3.187,1.427,3.187,3.187v14.672h17.433v-14.672c0-1.76,1.427-3.187,3.187-3.187s3.187,1.427,3.187,3.187Z"/>
      <path d="M1253.483,1102.384v26.044c0,4.437-3.904,8.041-8.712,8.041h-12.751c-4.804,0-8.712-3.604-8.712-8.041v-26.044c0-4.436,3.904-8.041,8.712-8.041h12.751c4.804,0,8.712,3.605,8.712,8.041ZM1247.113,1102.384c0-.907-1.072-1.671-2.343-1.671h-12.751c-1.342,0-2.343.882-2.343,1.671v26.044c0,.891,1.093,1.671,2.343,1.671h12.751c1.342,0,2.343-.882,2.343-1.671v-26.044Z"/>
      <path d="M1289.985,1102.384v26.044c0,4.437-3.904,8.041-8.712,8.041h-12.751c-4.804,0-8.712-3.604-8.712-8.041v-26.044c0-4.436,3.904-8.041,8.712-8.041h12.751c4.804,0,8.712,3.605,8.712,8.041ZM1283.615,1102.384c0-.907-1.072-1.671-2.343-1.671h-12.751c-1.342,0-2.343.882-2.343,1.671v26.044c0,.891,1.093,1.671,2.343,1.671h12.751c1.342,0,2.343-.882,2.343-1.671v-26.044Z"/>
      <path d="M1323.305,1094.343c1.761,0,3.188,1.427,3.188,3.187s-1.427,3.187-3.188,3.187h-8.716v32.523c0,1.76-1.427,3.187-3.188,3.187s-3.187-1.427-3.187-3.187v-32.523h-8.717c-1.76,0-3.187-1.427-3.187-3.187s1.427-3.187,3.187-3.187h23.807Z"/>
    </g>
    <line x1="1284.174" y1="757.516" x2="1284.174" y2="856.125" stroke="#000" stroke-linecap="round" stroke-miterlimit="10" stroke-width="6"/>
    <line x1="1340.13" y1="806.821" x2="1231.493" y2="806.821" stroke="#000" stroke-linecap="round" stroke-miterlimit="10" stroke-width="6"/>
    <g>
      <path d="M1259.737,1629.41c2.043,2.048,3.17,4.762,3.17,7.657v1.941c0,3.36-1.608,6.581-4.305,8.62l-.954.684c-1.836,1.351-4.128,2.114-6.416,2.114h-7.049c-2.119,0-4.183-.62-5.968-1.794l-2.55-1.692c-1.469-.979-1.861-2.955-.891-4.419.979-1.47,2.955-1.857,4.419-.891l2.537,1.684c.717.478,1.595.739,2.457.739h7.049c.937,0,1.882-.317,2.667-.899l.924-.663c1.042-.785,1.706-2.11,1.706-3.482v-1.941c0-1.19-.469-2.305-1.309-3.148-.84-.845-1.958-1.309-3.145-1.309h-8.569c-2.892,0-5.614-1.127-7.657-3.166-2.043-2.052-3.17-4.77-3.17-7.657v-2.617c0-2.891,1.127-5.609,3.17-7.656,2.043-2.043,4.761-3.17,7.657-3.17h7.936c2.148,0,4.221.62,5.99,1.798l2.532,1.692c1.465.976,1.857,2.959.882,4.42-.975,1.46-2.946,1.869-4.419.878l-2.533-1.688c-.717-.478-1.566-.73-2.452-.73h-7.936c-1.19,0-2.313.464-3.149,1.305-.844.844-1.309,1.967-1.309,3.152v2.617c0,1.187.469,2.31,1.309,3.153.835.84,1.958,1.3,3.149,1.3h8.569c2.887,0,5.605,1.127,7.652,3.17h.004Z"/>
      <path d="M1299.425,1611.488v29.758c0,.845-.334,1.655-.933,2.25l-5.948,5.952c-1.241,1.249-3.25,1.245-4.5.013l-3.706-3.682-3.706,3.682c-.621.616-1.435.924-2.246.924-.815,0-1.634-.312-2.254-.933l-5.952-5.952c-.6-.595-.933-1.409-.933-2.254v-29.758c0-1.761,1.427-3.188,3.187-3.188s3.187,1.427,3.187,3.188v28.437l2.773,2.773,2.756-2.739v-7.619c0-1.76,1.427-3.187,3.187-3.187s3.187,1.427,3.187,3.187v7.619l2.756,2.739,2.769-2.773v-28.437c0-1.761,1.427-3.188,3.187-3.188s3.188,1.427,3.188,3.188Z"/>
      <path d="M1332.787,1644.001c1.76,0,3.187,1.427,3.187,3.187s-1.427,3.187-3.187,3.187h-23.849c-.439,0-.861-.093-1.241-.253-.025-.009-.042-.033-.067-.046-.367-.165-.697-.393-.972-.676-.013-.013-.029-.017-.042-.029-.113-.118-.16-.271-.249-.401-.139-.198-.291-.384-.38-.612-.089-.231-.109-.473-.144-.717-.025-.156-.093-.292-.093-.452,0-.017.009-.034.009-.051.004-.262.084-.511.151-.764.043-.147.047-.312.105-.452.056-.131.165-.236.241-.358.139-.232.274-.469.469-.658.013-.013.029-.043.029-.043l18.15-17.011c2.743-2.579,4.242-5.373,4.111-7.665-.089-1.604-.976-3.01-2.697-4.293-1.161-.856-2.815-1.312-4.766-1.312-3.761,0-6.703.642-8.855,3.77-.996,1.456-2.977,1.819-4.433.823-1.447-.996-1.814-2.98-.818-4.433,4.491-6.529,11.477-6.529,14.106-6.529,3.322,0,6.281.886,8.561,2.562,4.103,3.061,5.128,6.61,5.268,9.055.24,4.237-1.929,8.737-6.116,12.676l-12.274,11.506h15.79l.005-.008Z"/>
    </g>
    <g>
      <path d="M1284.174,1019.378c.546-.003,1.091-.005,1.638-.005,9.568,0,19.014.525,28.31,1.547" fill="none" stroke="#000" stroke-miterlimit="10" stroke-width="6"/>
      <path d="M1353.596,1028.443c108.496,29.714,188.227,129.017,188.227,246.942,0,141.391-114.62,256.012-256.012,256.012s-256.012-114.62-256.012-256.012c0-123.778,87.842-227.04,204.588-250.846" fill="none" stroke="#000" stroke-dasharray="60.336 40.224" stroke-miterlimit="10" stroke-width="6"/>
      <path d="M1254.248,1021.3c9.814-1.207,19.8-1.858,29.926-1.921" fill="none" stroke="#000" stroke-miterlimit="10" stroke-width="6"/>
    </g>
    <g id="l" data-name="CompassMarker">
      <path id="m" data-name="path98" d="M1284.174,1577.951c-12.351,0-24.701,0-24.701,0l24.701-42.881,24.701,42.881h-24.701Z" fill="none" stroke="#000" stroke-miterlimit="10" stroke-width="6"/>
    </g>
    <g id="n" data-name="CompassMarker">
      <path id="o" data-name="path98" d="M1450.565,1529.269c-9.861,7.436-19.723,14.871-19.723,14.871l-6.093-49.11,45.539,19.367s-9.861,7.436-19.723,14.871Z" fill="none" stroke="#000" stroke-miterlimit="10" stroke-width="6"/>
    </g>
    <g id="p" data-name="CompassMarker">
      <path id="q" data-name="path98" d="M1577.267,1189.941l6.427,23.85-47.831-12.693,34.976-35.008s3.214,11.925,6.427,23.85Z" fill="none" stroke="#000" stroke-miterlimit="10" stroke-width="6"/>
    </g>
    <path d="M1526.207,1364.664c-.388,1.057-.783,2.111-1.185,3.161" fill="none" stroke="#000" stroke-miterlimit="10" stroke-width="6"/>
    <path d="M1285.812,1020.404c141.391,0,256.012,114.62,256.012,256.012,0,31.013-5.515,60.738-15.617,88.249l-27.729-13.408" fill="none" stroke="#000" stroke-miterlimit="10" stroke-width="10"/>
    <path d="M1301.69,1740.807c0,1.851-1.5,3.351-3.351,3.351h-25.056c-1.85,0-3.35-1.5-3.35-3.351v-37.583c0-1.851,1.5-3.351,3.35-3.351s3.351,1.5,3.351,3.351v34.232h21.706c1.851,0,3.351,1.5,3.351,3.351Z"/>
    <path id="r" data-name="LadderNegative" d="M693.91,1432.098l24.001,29.505h0l-24.001-29.505ZM735.045,1482.679l23.998,29.5M832.576,1532.588l-36.021,26.618-20.379-25.942M970.815,1802.293l-21.332-31.488h0l21.332,31.488ZM912.912,1716.838l21.329,31.484M914.568,1640.544l-35.872,26.818,18.966,26.992M708.697,1424.763s8.737,9.779,10.178,10.962,3.416,2.037,5.336,2.234,4.491-.624,6.896-2.58c1.805-1.443,3.38-2.255,3.843-4.894.416-2.401-.417-3.84-1.526-5.35l-10.02-12.325,11.944-9.886,13.277,16.342M703.906,1387.898l10.923,13.421M426.404,1833.092l24.252-17.151M530.055,1920.416l-34.424,26.872,16.883,27.951M-346.491,2412.987l35.567-25.535-35.567,25.535ZM-465.936,2300.106l27.668,26.096-27.668-26.096ZM-418.511,2344.841l27.668,26.096-27.668-26.096ZM-371.087,2389.576l24.495,23.275-24.495-23.275ZM-269.471,2514.261l34.705-26.695-34.705,26.695ZM-212.829,2627.161l17.011,34.016-17.011-34.016ZM-241.993,2568.853l17.011,34.016-17.011-34.016ZM-269.371,2514.396l15.225,30.165-15.225-30.165ZM-463.154,2255.616l12.579,11.879M-437.28,2307.312l-16.747-15.82,23.883.221c7.521.083,13.527-3.759,12.197-11.158-.343-1.891-1.438-3.893-3.432-5.775-2.416-2.286-6.06-5.148-11.425-4.051M-408.179,2293.006l-17.274,18.288c-1.772,1.879-1.469,5.045.678,7.078l8.969,8.47c2.151,2.029,5.329,2.152,7.104.277l17.274-18.288c1.772-1.879,1.469-5.045-.678-7.078l-8.969-8.47c-2.151-2.029-5.329-2.152-7.104-.277ZM-729.229,2692.798l36.385-26.502-36.385,26.502ZM-853.031,2585.138l28.707,24.944-28.707-24.944ZM-803.817,2627.901l28.707,24.944-28.707-24.944ZM-754.601,2670.655l25.673,21.709-25.673-21.709ZM-653.204,2792.733l35.866-27.2-35.866,27.2ZM-601.411,2907.634l15.609,34.679-15.609-34.679ZM-628.166,2848.178l15.609,34.679-15.609-34.679ZM-652.701,2792.563l13.386,30.842-13.386-30.842ZM-851.517,2541.429l13.085,11.32M-823.143,2592.099l-17.42-15.077,23.874-.821c7.515-.245,13.349-4.344,11.7-11.681-.423-1.872-1.607-3.829-3.681-5.617-2.518-2.176-6.279-4.878-11.588-3.551M-814.618,2599.68s10.342,8.14,11.97,9.055c1.628.915,3.728,1.419,5.66,1.276,1.932-.143,4.33-1.397,6.365-3.749,1.53-1.74,2.947-2.82,2.942-5.504-.005-2.447-1.082-3.724-2.44-5.023l-12.054-10.434,10.078-11.85,15.968,13.834M-1073.413,2950.546l-36.187,25.055,36.187-25.055ZM-1238.9,2872.868l29.811,23.615-29.811-23.615ZM-1187.797,2913.353l29.811,23.615-29.811-23.615ZM-1136.694,2953.839l27.365,21.562-27.365-21.562ZM-1035.571,3072.851l34.424-27.427-34.424,27.427ZM-988.494,3190.925l14.018,35.354-14.018-35.354ZM-1012.528,3130.32l14.018,35.354-14.018-35.354ZM-1035.301,3072.65l12.758,32.419-12.758-32.419ZM-1239.295,2829.941l13.566,10.739M-1225.127,2862.692l.719,1.449c.892,1.902,5.126,6.851,6.771,8.154l2.01,1.593c1.464,1.159,3.27,1.814,5.135,1.863h0c2.719.071,5.313-1.14,7.002-3.275l1.798-2.271c1.139-1.436,1.658-3.27,1.449-5.091l-.08-.672c-.191-1.632-1.023-3.125-2.309-4.146l-4.757-3.768,19.994-4.375-14.675-11.62M-1181.114,2862.755l-15.618,19.725c-1.603,2.024-1.023,5.154,1.292,6.993l9.671,7.657c2.319,1.837,5.495,1.683,7.102-.344l15.618-19.725c1.603-2.024,1.023-5.154-1.292-6.993l-9.671-7.657c-2.319-1.837-5.495-1.683-7.102.344ZM-1453.78,3233.246l-36.752,26.362,36.752-26.362ZM-1624.093,3163.182l30.848,22.242-30.848-22.242ZM-1571.21,3201.308l30.848,22.242-30.848-22.242ZM-1518.327,3239.435l27.86,19.705-27.86-19.705ZM-1380.863,3329l-35.838,27.592,35.838-27.592ZM-1375.282,3476.325l12.404,35.951-12.404-35.951ZM-1396.536,3414.697l12.404,35.951-12.404-35.951ZM-1416.234,3356.657l10.837,32.357-10.837-32.357ZM-1626.309,3119.983l14.02,10.138M-1610.734,3152.048l.777,1.419c.972,1.863,5.42,6.619,7.122,7.852l2.078,1.502c1.512,1.096,3.346,1.669,5.211,1.637h0c2.721-.046,5.257-1.369,6.852-3.577l1.696-2.344c1.074-1.488,1.517-3.341,1.225-5.155l-.108-.664c-.261-1.627-1.158-3.079-2.488-4.04l-4.92-3.559,19.783-5.241-15.167-10.97M-1584.26,3174.753s11.011,7.209,12.714,7.98c1.704.771,3.835,1.089,5.752.781s4.19-1.767,6.013-4.287c1.374-1.867,2.692-3.063,2.449-5.74-.22-2.436-1.401-3.616-2.871-4.791l-12.914-9.342,9.009-12.687,17.112,12.395M-1861.242,3532.807l35.557-25.63-35.557,25.63ZM-1998.734,3442.011l31.763,20.913-31.763-20.913ZM-1944.285,3477.863l31.763,20.913-31.763-20.913ZM-1889.833,3513.72l28.862,18.886-28.862-18.886ZM-1788.207,3628.71l34.793-26.659-34.793,26.659ZM-1751.776,3750.101l10.868,36.443-10.868-36.443ZM-1770.409,3687.628l10.868,36.443-10.868-36.443ZM-1787.941,3628.513l9.763,33.081-9.763-33.081ZM-2001.051,3398.82l14.453,9.518M-1969.555,3442.953l19.01-28.859h0l-2.747-1.81-23.656,6.833,18.038,11.883M-1941.604,3425.224l-13.838,21.008c-1.421,2.159-.571,5.224,1.896,6.849l10.301,6.782c2.467,1.625,5.621,1.197,7.042-.963l13.838-21.008c1.421-2.159.571-5.224-1.896-6.849l-10.301-6.782c-2.467-1.625-5.621-1.197-7.042.963ZM-2204.644,3787.044l-35.88,26.079,35.88-26.079ZM-2381.763,3727.968l32.583,19.613-32.583-19.613ZM-2325.906,3761.59l32.583,19.613-32.583-19.613ZM-2270.054,3795.214l29.8,17.708-29.8-17.708ZM-2132.379,3881.921l-35.316,26.838,35.316-26.838ZM-2136.26,4031.697l9.386,36.854-9.386-36.854ZM-2152.351,3968.519l9.386,36.854-9.386-36.854ZM-2167.424,3908.558l8.365,33.64-8.365-33.64ZM-2387.329,3685.872l14.85,8.878M-2353.686,3728.768l17.73-29.661h0l-2.823-1.686-23.337,7.855,18.54,11.083M-2341.992,3735.868s11.595,6.22,13.36,6.837c1.765.617,3.916.752,5.796.275s4.018-2.127,5.619-4.799c1.204-1.978,2.41-3.287,1.941-5.931-.43-2.409-1.712-3.479-3.275-4.525l-13.683-8.181,7.867-13.422,18.127,10.855M-2626.45,4101.768l37.271-27.113-37.271,27.113ZM-2771.335,4023.074l33.425,18.141-33.425-18.141ZM-2714.039,4054.17l33.425,18.141-33.425-18.141ZM-2626.18,4101.567l-30.555-16.3,30.555,16.3ZM-2516.909,4169.529l-36.707,27.872,36.707-27.872ZM-2527.764,4321.591l7.734,37.236-7.734-37.236ZM-2541.024,4257.757l7.734,37.236-7.734-37.236ZM-2546.551,4231.16l-6.8-33.957,6.8,33.957ZM-2778.066,3980.13l14.854,8.874M-2761.066,4013.112s11.595,6.22,13.36,6.837,3.916.752,5.796.275,4.018-2.127,5.619-4.799c1.204-1.978,2.41-3.287,1.941-5.931-.43-2.409-1.712-3.479-3.275-4.525l-13.683-8.181,7.867-13.422,18.127,10.855M-2716.622,4004.711l-12.908,21.595c-1.324,2.216-.345,5.246,2.196,6.762l10.585,6.327c2.537,1.519,5.669.951,6.997-1.268l12.908-21.595c1.324-2.216.345-5.246-2.196-6.762l-10.585-6.327c-2.537-1.519-5.669-.951-6.997,1.268ZM-3005.992,4385.323l37.128-26.431-37.128,26.431ZM-3153.91,4312.904l34.199,16.631-34.199-16.631ZM-3095.278,4341.416l34.199,16.631-34.199-16.631ZM-3036.653,4369.927l30.927,15.198-30.927-15.198ZM-2931.959,4482.569l36.013-27.931-36.013,27.931ZM-2911.325,4607.544l6.066,37.542-6.066-37.542ZM-2915.657,4580.722l-6.066-37.542,6.066,37.542ZM-2926.056,4516.367l-5.637-33.995,5.637,33.995ZM-3162.384,4270.647l15.226,8.219M-3143.977,4303.044s11.857,5.707,13.644,6.254,3.946.573,5.802.02c1.856-.554,3.923-2.3,5.401-5.037,1.118-2.029,2.266-3.39,1.678-6.012-.534-2.385-1.864-3.4-3.471-4.379l-14.024-7.575,7.276-13.754,18.584,10.049M-3114.049,4319.112s11.857,5.707,13.644,6.254c1.787.547,3.946.573,5.802.02,1.856-.554,3.923-2.3,5.401-5.037,1.118-2.029,2.266-3.39,1.678-6.012-.534-2.385-1.864-3.4-3.471-4.379l-14.024-7.575,7.276-13.754,18.584,10.049M-3386.561,4671.814l36.988-26.592-36.988,26.592ZM-3537.838,4606.278l34.93,15.046-34.93-15.046ZM-3477.961,4632.065l34.93,15.046-34.93-15.046ZM-3418.09,4657.855l32.03,13.796-32.03-13.796ZM-3312.134,4769.6l36.126-27.752-36.126,27.752ZM-3297.326,4895.568l4.337,37.784-4.337-37.784ZM-3304.756,4830.8l4.337,37.784-4.337-37.784ZM-3311.825,4769.168l3.976,34.648-3.976-34.648ZM-3534.442,4570.747l-15.569-7.551M-3520.164,4599.62c6.911,3.352,12.577,1.083,15.007-3.925,3.14-6.477-.87-11.626-6.213-14.214-5.342-2.588-11.374-2.316-14.519,4.164-2.431,5.009-1.188,10.624,5.724,13.975h0ZM-3504.28,4568.914c-1.917.653-3.818,1.294-7.526,3.644-6.081,3.85-12.34,9.517-13.726,12.361M-3486.21,4582.58l-10.976,22.637c-1.127,2.327.115,5.255,2.775,6.548l11.093,5.381c2.66,1.293,5.731.452,6.858-1.875l10.976-22.637c1.127-2.327-.115-5.255-2.775-6.548l-11.093-5.381c-2.66-1.293-5.731-.452-6.858,1.875ZM-3731.523,4926.411l-37.978,26.908,37.978-26.908ZM-3923.127,4893.685l35.509,13.613-35.509-13.613ZM-3862.257,4917.021l35.509,13.613-35.509-13.613ZM-3769.336,4952.986l-32.047-12.626,32.047,12.626ZM-3694.676,5051.641l36.714-28.608-36.714,28.608ZM-3681.863,5215.937l-2.798-37.926,2.798,37.926ZM-3689.457,5112.997l2.798,37.926-2.798-37.926ZM-3694.305,5051.575l2.85,34.327-2.85-34.327ZM-3936.668,4850.449l15.884,6.863M-3884.016,4894.603s12.307,4.655,14.138,5.041c1.83.386,3.981.229,5.779-.485,1.798-.714,3.708-2.634,4.944-5.489.937-2.118,1.959-3.575,1.148-6.133-.737-2.329-2.154-3.226-3.836-4.06l-14.632-6.325,6.045-14.335,19.391,8.393M-3905.305,4885.542c7.05,3.046,12.615.534,14.823-4.573,2.857-6.611-1.374-11.576-6.825-13.928-5.451-2.352-11.466-1.821-14.323,4.791-2.208,5.107-.721,10.669,6.328,13.715l-.003-.004ZM-3890.779,4854.174c-1.887.739-3.756,1.458-7.36,3.968-5.913,4.111-11.913,10.046-13.168,12.948M-4155.243,5240.026l37.506-27.234-37.506,27.234ZM-4311.893,5187.189l36.087,12.005-36.087-12.005ZM-4250.03,5207.77l36.087,12.005-36.087-12.005h0ZM-4188.171,5228.347l33.329,11.382-33.329-11.382ZM-4080.413,5338.346l36.89-28.062-36.89,28.062ZM-4076.076,5465.564l1.092,38.016-1.092-38.016ZM-4077.945,5400.399l1.092,38.016-1.092-38.016ZM-4080.012,5338.047l1.29,35.195-1.29-35.195ZM-4324.199,5145.405l16.17,6.163M-4301.564,5174.692l33.72-23.776-18.835-7.181M-4259.02,5158.918l-8.968,23.507c-.919,2.416.574,5.226,3.335,6.281l11.526,4.396c2.761,1.055,5.75-.05,6.669-2.466l8.968-23.507c.919-2.416-.574-5.226-3.335-6.281l-11.526-4.396c-2.761-1.055-5.75.05-6.669,2.466ZM-4531.844,5516.61l37.062-26.958-37.062,26.958ZM-4691.045,5470.867l36.562,10.468-36.562-10.468ZM-4628.371,5488.807l36.567,10.464-36.567-10.464ZM-4565.692,5506.744l33.411,9.561-33.411-9.561ZM-4456.422,5615.735l36.498-27.716-36.498,27.716ZM-4457.997,5743.34l-.517,38.028.517-38.028ZM-4457.628,5716.178l.522-38.031-.522,38.031ZM-4456.251,5616.237l-.477,34.749.477-34.749ZM-4704.783,5431.711l16.419,5.451M-4648.393,5471.204s12.666,3.562,14.524,3.786,3.986-.12,5.718-.987,3.462-2.946,4.441-5.9c.746-2.193,1.645-3.734.608-6.213-.941-2.259-2.424-3.025-4.176-3.706l-15.129-5.028,4.775-14.806,20.048,6.672M-4681.001,5460.119l32.651-25.223-19.132-6.351M-4911.683,5806.214l36.316-26.248-36.316,26.248ZM-5073.94,5768.354l37.01,8.747-37.01-8.747ZM-5010.494,5783.352l37.01,8.747-37.01-8.747ZM-4947.049,5798.349l35.466,8-35.466-8ZM-4835.456,5906.412l35.603-27.207-35.603,27.207ZM-4843.684,6034.738l-2.294,37.96,2.294-37.96ZM-4839.758,5969.666l-2.294,37.96,2.294-37.96ZM-4838.118,5942.548l2.565-36.266-2.565,36.266ZM-5092.197,5728.062l16.641,4.73M-5058.98,5727.126l-1.641,5.762c-.361,1.263-.129,2.641.636,3.825l1.176,1.82-1.958.927c-1.277.604-2.197,1.653-2.554,2.921l-2.425,8.531c-.355,1.252-.13,2.621.633,3.794h0c.759,1.176,1.995,2.064,3.426,2.469l11.353,3.225c1.435.409,2.95.299,4.214-.296h0c1.269-.598,2.179-1.64,2.535-2.892l2.425-8.531c.361-1.263.129-2.641-.636-3.825l-1.176-1.82,1.958-.927c1.277-.604,2.197-1.653,2.554-2.921l1.641-5.762c.355-1.252.13-2.621-.633-3.794h0c-.759-1.176-1.995-2.064-3.426-2.469l-11.353-3.225c-1.435-.409-2.95-.299-4.214.296h0c-1.269.598-2.179,1.64-2.535,2.892ZM-5058.803,5738.529l15.828,4.502M-5025.696,5735.996l-6.876,24.2c-.704,2.486,1.028,5.152,3.871,5.964l11.863,3.374c2.844.811,5.723-.551,6.427-3.037l6.876-24.2c.704-2.486-1.028-5.152-3.871-5.964l-11.863-3.374c-2.844-.811-5.723.551-6.427,3.037ZM-5289.75,6089.512l36.01-26.277-36.01,26.277ZM-5453.794,6058.511l37.348,7.189-37.348-7.189ZM-5389.777,6070.843l37.348,7.189-37.348-7.189ZM-5325.759,6083.168l36.207,6.61-36.207-6.61ZM-5213.125,6190.247l35.543-26.905-35.543,26.905ZM-5226.854,6318.431l-3.883,37.835,3.883-37.835ZM-5220.204,6253.581l-3.883,37.835,3.883-37.835ZM-5213.325,6189.976l-4.109,36.575,4.109-36.575ZM-5458.44,6022.006l-16.834-3.998M-5415.702,6052.53s12.932,2.444,14.798,2.505c1.867.061,3.959-.465,5.608-1.481,1.648-1.015,3.191-3.238,3.913-6.266.556-2.248,1.314-3.86.065-6.242-1.134-2.163-2.678-2.802-4.484-3.328l-15.509-3.69,3.469-15.169,20.55,4.898M-5442.375,6015.623l-1.382,5.827c-.301,1.28-.012,2.643.804,3.796l1.258,1.766-1.916,1.011c-1.25.658-2.121,1.746-2.427,3.029l-2.047,8.629c-.303,1.268-.014,2.623.797,3.76h0c.814,1.141,2.082,1.973,3.533,2.322l11.484,2.728c1.448.345,2.957.172,4.198-.48h0c1.238-.656,2.103-1.733,2.407-3.001l2.047-8.629c.301-1.28.012-2.643-.804-3.796l-1.258-1.766,1.916-1.011c1.25-.658,2.121-1.746,2.427-3.029l1.382-5.827c.303-1.268.014-2.623-.797-3.76h0c-.814-1.141-2.082-1.973-3.533-2.322l-11.484-2.728c-1.448-.345-2.957-.172-4.198.48h0c-1.238.656-2.103,1.733-2.407,3.001ZM-5441.703,6027.01l16.009,3.806M-5678.349,6364.852c-33.474,24.88-40.729,71.795-16.209,104.785,24.52,32.99,71.534,39.569,105.009,14.688,33.474-24.88,40.729-71.795,16.209-104.785-24.52-32.99-71.534-39.569-105.009-14.688ZM-5576.47,6374.42l6.806,9.157,13.081-9.723-6.806-9.157-13.081,9.723ZM-5617.882,6352.401l57.364,77.178-57.364-77.178ZM-5651.798,6355.949l78.429,105.52-78.429-105.52ZM-5676.841,6367.793l84.911,114.241-84.911-114.241ZM-5694.966,6388.033l78.429,105.52-78.429-105.52ZM-5705.501,6412.11l63.521,85.463-63.521-85.463Z" fill="none" stroke="#000" stroke-miterlimit="10" stroke-width="6"/>
    <path id="s" data-name="LadderPositive" d="M7078.057-3129.871l8.064,58.628-21.816,9.811-13.784-10.713,27.259-58.102.279.375ZM7105.373-3050.039l-20.559,21.685,3.517,7.865,63.032-10.754-45.711-18.421s-.279-.375-.279-.375ZM7052.188-2961.024l13.475-25.734-15.629-16.328-5.818,5.488,7.972,36.574ZM7022.622-3039.183l-9.715-22.47-32.362,6.588,42.356,16.257s-.279-.375-.279-.375ZM6977.73-3137.971l49.452,104.131-216.567,182.507,239.519-152.41,87.556,88.035-54.191-110.506,71.074-76.696-89.997,44.187-87.222-78.969.375-.279ZM6848.444-2595.621l13.875-10.313-86.406-116.252M6679.107-2853.996l-86.406-116.252-13.875,10.313M6520.847-2353.079l13.875-10.313-86.406-116.252M6351.511-2611.455l-86.406-116.252-13.875,10.313M6195.023-2110.434l13.875-10.313-86.406-116.252M6025.686-2368.81l-86.406-116.252-13.875,10.313M5867.426-1867.893l13.875-10.313-86.406-116.252M5698.09-2126.269l-86.406-116.252-13.875,10.313M5540.306-1623.569l13.875-10.313-86.406-116.252M5370.969-1881.944l-86.406-116.252-13.875,10.313M5212.71-1381.027l13.875-10.313-86.406-116.252M5043.373-1639.403l-86.406-116.252-13.875,10.313M4886.888-1138.379l13.875-10.313-86.406-116.252M4717.551-1396.754l-86.406-116.252-13.875,10.313M4559.291-895.837l13.875-10.313-86.406-116.252M4389.955-1154.213l-86.406-116.252-13.875,10.313M4231.658-651.865l13.875-10.313-86.406-116.252M4062.322-910.241l-86.406-116.252-13.875,10.313M3904.062-409.324l13.875-10.313-86.406-116.252M3734.726-667.7l-86.406-116.252-13.875,10.313M3578.24-166.676l13.875-10.313-86.406-116.252M3408.904-425.051l-86.406-116.252-13.875,10.313M3250.641,75.862l13.875-10.313-86.406-116.252M3081.305-182.514l-86.406-116.252-13.875,10.313M2923.524,320.184l13.875-10.313-86.406-116.252M2754.188,61.808l-86.406-116.252-13.875,10.313M1942.506,1047.918l13.875-10.313-86.406-116.252M1773.17,789.542l-86.406-116.252-13.875,10.313M1611.938,1295.241l13.875-10.313-86.406-116.252M1442.602,1036.865l-86.406-116.252-13.875,10.313" fill="none" stroke="#000" stroke-linecap="square" stroke-miterlimit="15.1" stroke-width="6"/>
    <path id="t" data-name="FPMUncaged" d="M1194.748,1342.588c-.008,14.545-11.81,26.334-26.355,26.326s-26.334-11.81-26.326-26.355c.008-14.545,11.81-26.334,26.355-26.326s26.334,11.81,26.326,26.355ZM1142.067,1342.559l-52.681-.029M1194.748,1342.588l52.681.029M1168.422,1316.233l.014-26.34" fill="none" stroke="#000" stroke-linecap="square" stroke-miterlimit="15.1" stroke-width="6"/>
    <line x1="1076.163" y1="1299.193" x2="505.739" y2="515.821" fill="none" stroke="#000" stroke-linecap="square" stroke-miterlimit="15.1" stroke-width="6"/>
    <line x1="1183.051" y1="1443.002" x2="1610.386" y2="2017.946" fill="none" stroke="#000" stroke-linecap="square" stroke-miterlimit="15.1" stroke-width="6"/>
    <path id="u" data-name="PotentialPath" d="M1287.691,973.675l-29.817,17.193,29.798,17.226" fill="none" stroke="#000" stroke-miterlimit="15.1" stroke-width="6"/>
    <path d="M1355.9,970.966c-.793,3.513-2.914,5.011-4.623,6.213l-.779.558c-3.131,2.327-6.646,3.405-9.656,2.965-2.572-.382-5.162-1.611-7.112-3.371-1.502-1.355-8.331-9.659-10.386-12.176-.031-.041-.061-.081-.092-.122-1.009-1.358-.779-3.286.541-4.367,1.361-1.112,3.366-.913,4.484.449,4.135,5.047,8.9,10.724,9.728,11.482,1.013.909,2.456,1.599,3.772,1.792.98.145,2.855-.234,4.926-1.773l.908-.652c1.443-1.021,1.83-1.33,2.071-2.393.264-1.195.011-1.832-.875-3.137l-9.765-13.138c-1.045-1.405-.762-3.388.637-4.443l12.835-9.698c.683-.512,1.532-.733,2.374-.613.842.122,1.6.574,2.105,1.256l13.043,17.549c1.05,1.412.756,3.408-.656,4.458-1.413,1.05-3.41.756-4.459-.657l-11.127-14.97-7.75,5.854,7.959,10.709c1.492,2.199,2.693,4.62,1.896,8.22v.006Z"/>
    <line x1="1212.552" y1="534.663" x2="1212.552" y2="562.309" fill="none" stroke="#000" stroke-miterlimit="10" stroke-width="6"/>
    <circle cx="1232.683" cy="1220.387" r="30.326" fill="none" stroke="#000" stroke-miterlimit="10" stroke-width="6"/>
    <g>
      <path d="M1662.885,715.49c.91,1.401.619,3.274-.739,4.284-1.412,1.05-3.408.756-4.459-.657l-3.551-4.776c-1.05-1.413-.756-3.409.657-4.459,1.348-1.002,3.199-.747,4.282.498l22.936-17.047c-.116-.56-.117-1.148.095-1.727.603-1.652,2.433-2.508,4.085-1.905l2.091.76c.092.031.153.107.241.147.191.089.362.198.536.327.183.132.341.267.485.434.062.068.147.105.205.184.062.084.076.186.132.275.114.188.206.383.278.594.064.193.113.379.141.572.031.197.039.393.029.6-.008.222-.044.427-.097.639-.027.105-.009.207-.049.311-.031.092-.106.152-.147.24-.088.193-.201.366-.33.54-.131.177-.266.335-.428.478-.074.064-.11.148-.188.207l-26.205,19.477v.006Z"/>
      <path d="M1708.795,730.654l-20.938,15.562c-3.561,2.646-8.785,1.659-11.652-2.199l-7.631-10.265c-2.915-3.924-2.363-9.104,1.255-11.793l20.937-15.561c3.561-2.646,8.785-1.66,11.652,2.198l7.631,10.265c2.867,3.859,2.307,9.146-1.254,11.793ZM1704.992,725.539c.738-.549.715-1.841-.057-2.877l-7.629-10.266c-.801-1.078-2.105-1.354-2.738-.883l-20.938,15.562c-.738.549-.714,1.841.057,2.877l7.629,10.265c.801,1.078,2.105,1.354,2.739.884l20.937-15.562Z"/>
    </g>
  </g>
  <g id="v" data-name="HUD_DGTL_STT_AIM9__Arrows_AA_-_Light">
    <path d="M1285.348,1226.591l110.592-34.899-10.108-16.996,946.4-573.593c24.329,34.156,71.338,44.547,108.01,22.737,38.631-22.975,51.368-73.096,28.393-111.727-22.975-38.631-73.096-51.368-111.727-28.393-36.672,21.81-49.985,68.077-31.588,105.761l-946.401,573.593-10.108-16.996-83.464,80.512ZM2363.122,494.166c32.924-19.581,75.487-8.764,95.067,24.159,19.581,32.924,8.764,75.487-24.159,95.067-32.924,19.581-75.487,8.764-95.067-24.159-19.581-32.924-8.764-75.487,24.159-95.067Z" stroke="#fff" stroke-miterlimit="10" stroke-width="4"/>
    <path d="M947.522,1778.248l-40.243,108.761,19.623,2.437-54.724,296.311c-41.899-1.725-78.933,29.038-84.19,71.381-5.538,44.605,26.244,85.399,70.848,90.937,44.605,5.538,85.399-26.244,90.937-70.849,5.258-42.342-23.127-81.229-64.177-89.803l54.724-296.311,19.623,2.437-12.422-115.3ZM937.711,2275.728c-4.72,38.014-39.363,65.005-77.377,60.284s-65.005-39.363-60.284-77.377c4.72-38.014,39.363-65.005,77.377-60.284,38.014,4.72,65.005,39.363,60.284,77.377Z" stroke="#fff" stroke-miterlimit="10" stroke-width="4"/>
  </g>
  <g id="w" data-name="HUD_DGTL_STT_AIM9_Numbers_AA">
    <path d="M886.487,2302.297v7h-22.401v-7h7.701v-71.835l-5.471,4.529-4.463-5.394,11.12-9.202h5.814v81.901h7.7Z" fill="#e3831f" stroke="#e3831f" stroke-miterlimit="10"/>
    <path d="M2381.723,590.91h43.276v7h-52.853v-6.976l9.202-10.042c4.823-5.373,9.247-10.298,13.447-14.778,2.086-2.086,4.176-4.526,6.195-6.885,2.111-2.461,10.543-11.95,10.543-11.95.955-.963,1.494-1.642,1.855-2.09.213-.27.396-.486.546-.654,1.025-1.306,1.887-2.958,2.495-4.785.578-1.733.872-3.119.872-5.895,0-2.384-.494-4.746-1.467-7.021-.886-2.349-2.296-4.042-4.158-5.905-2.125-1.75-4.138-3.01-6.104-3.745-5.628-2.111-9.419-2.107-15.04,0-2.576.966-4.516,2.156-6.108,3.749-1.837,1.838-3.314,3.935-4.158,5.905l-6.433-2.758c1.204-2.811,3.156-5.611,5.642-8.096,2.296-2.292,5.107-4.042,8.601-5.352,7.161-2.695,12.779-2.695,19.958,0,3.58,1.344,6.485,3.577,8.361,5.138,2.297,2.279,4.593,4.876,5.937,8.46,1.292,3,1.975,6.29,1.975,9.629,0,3.682-.473,5.832-1.232,8.11-.879,2.639-2.174,5.072-3.738,7.028l-.479.571c-.469.588-1.173,1.466-2.229,2.52.007,0-8.243,9.283-10.318,11.705-2.107,2.457-4.284,4.999-6.482,7.196-4.092,4.365-8.481,9.255-13.27,14.585l-4.83,5.338-.004-.003Z" fill="#e3831f" stroke="#e3831f" stroke-miterlimit="10"/>
  </g>
</svg>