<?xml version="1.0" encoding="UTF-8"?>
<svg id="b" data-name="HUD_ANLG_DIALS__Light" xmlns="http://www.w3.org/2000/svg" width="2559.13" height="2460" viewBox="0 0 2559.13 2460">
  <path d="M2061.887,571.278c-76.815-76.815-183.061-183.061-183.061-183.061H683.783l-254.739,254.739v1425.43h1710.391V648.826s-34.057-34.057-77.548-77.548Z" fill="none" stroke="#000" stroke-miterlimit="10" stroke-width="13"/>
  <g>
    <path d="M692.943,1149.975c1.959,1.958,3.04,4.559,3.04,7.315v2.996c0,3.833-1.824,7.472-4.875,9.738-2.064,1.562-4.584,2.397-7.26,2.397h-2.659c-2.418,0-9.607-1.342-12.148-2.617l-1.452-.684c-1.591-.751-2.271-2.65-1.52-4.242.751-1.596,2.646-2.267,4.242-1.52l1.52.718c1.41.705,7.492,1.976,9.362,1.976h2.659c1.275,0,2.461-.393,3.436-1.127,1.481-1.106,2.321-2.79,2.321-4.64v-2.996c0-1.056-.418-2.052-1.178-2.812l-.511-.511c-.608-.612-1.448-.963-2.3-.963h-6.29c-1.228,0-2.351-.709-2.878-1.823-.528-1.114-.367-2.427.414-3.381l9.168-11.22h-12.655c-1.76,0-3.187-1.427-3.187-3.187s1.427-3.188,3.187-3.188h19.375c1.228,0,2.351.71,2.878,1.824.528,1.109.367,2.427-.414,3.381l-9.177,11.228c2.385.105,4.694,1.123,6.391,2.82l.511.511v.004Z"/>
    <path d="M732.17,1131.892c.553,1.038.494,2.296-.156,3.271l-23.849,35.799c-.616.92-1.625,1.418-2.655,1.418-.608,0-1.224-.173-1.764-.536-1.465-.975-1.862-2.95-.887-4.42l20.548-30.843h-14.9c-1.76,0-3.187-1.427-3.187-3.187s1.427-3.188,3.187-3.188h20.852c1.178,0,2.258.646,2.811,1.681v.004Z"/>
    <path d="M768.735,1131.892c.553,1.038.494,2.296-.156,3.271l-23.849,35.799c-.616.92-1.625,1.418-2.655,1.418-.608,0-1.224-.173-1.764-.536-1.465-.975-1.862-2.95-.887-4.42l20.548-30.843h-14.9c-1.76,0-3.187-1.427-3.187-3.187s1.427-3.188,3.187-3.188h20.852c1.178,0,2.258.646,2.811,1.681v.004Z"/>
    <path d="M805.507,1151.252l.127,10.089c0,3.001-1.211,5.88-3.326,7.939-2.001,1.941-4.766,3.056-7.585,3.056h-7.682c-2.406,0-4.77-.806-6.648-2.279l-.688-.523c-2.697-2.038-4.25-5.183-4.25-8.615v-19.205c0-3.377,1.596-6.602,4.263-8.619l.709-.541c1.849-1.447,4.208-2.258,6.614-2.258h8.442c2.132,0,4.217.637,6.028,1.845l2.537,1.692c1.465.979,1.857,2.955.882,4.419-.975,1.47-2.951,1.857-4.419.883l-2.533-1.692c-.76-.507-1.621-.772-2.495-.772h-8.442c-1.005,0-1.942.32-2.723.928l-.751.574c-1.097.823-1.743,2.148-1.743,3.542v19.205c0,1.419.629,2.706,1.73,3.538l.73.557c.806.633,1.748.954,2.752.954h7.683c1.177,0,2.321-.46,3.14-1.254.899-.873,1.397-2.056,1.397-3.326l-.089-6.901h-7.281c-1.76,0-3.187-1.427-3.187-3.187s1.427-3.188,3.187-3.188h10.426c1.744,0,3.166,1.401,3.187,3.146l.008-.005Z"/>
  </g>
  <g>
    <path d="M1773.059,1349.82c1.76,0,3.187,1.428,3.187,3.188s-1.427,3.187-3.187,3.187h-23.85c-.438,0-.86-.093-1.24-.253-.025-.009-.043-.033-.067-.047-.367-.164-.697-.393-.972-.676-.013-.012-.029-.016-.042-.029-.114-.117-.16-.27-.249-.4-.139-.199-.291-.385-.38-.612-.089-.231-.109-.473-.144-.718-.025-.156-.093-.291-.093-.451,0-.018.009-.034.009-.051.004-.262.084-.511.151-.764.043-.148.047-.312.105-.452.056-.131.165-.236.241-.358.139-.232.274-.469.469-.658.013-.014.029-.043.029-.043l18.15-17.011c2.743-2.579,4.242-5.373,4.111-7.665-.089-1.604-.976-3.01-2.697-4.293-1.161-.857-2.815-1.312-4.766-1.312-3.761,0-6.703.641-8.855,3.77-.996,1.456-2.977,1.818-4.433.822-1.447-.996-1.814-2.979-.818-4.432,4.491-6.529,11.477-6.529,14.106-6.529,3.322,0,6.281.886,8.561,2.562,4.103,3.06,5.128,6.61,5.268,9.054.24,4.238-1.929,8.738-6.116,12.676l-12.274,11.507h15.79l.005-.009Z"/>
    <path d="M1810.138,1333.502c2.347,2.731,2.283,5.327,2.229,7.416l-.017.959c0,3.9-1.232,7.365-3.381,9.518-1.841,1.837-4.373,3.184-6.948,3.698-1.984.397-12.723.925-15.969,1.072h-.151c-1.692,0-3.103-1.334-3.183-3.039-.08-1.756,1.274-3.246,3.035-3.331,6.517-.308,13.916-.746,15.019-.957,1.333-.271,2.747-1.018,3.688-1.959.701-.701,1.516-2.432,1.516-5.011l.017-1.118c.042-1.77.025-2.263-.684-3.09-.802-.925-1.465-1.102-3.039-1.17h-16.369c-1.752,0-3.175-1.409-3.187-3.161l-.127-16.087c-.004-.852.325-1.667.924-2.271.6-.604,1.414-.94,2.263-.94h21.865c1.76,0,3.187,1.426,3.187,3.186s-1.427,3.188-3.187,3.188h-18.652l.075,9.713h13.343c2.655.113,5.314.595,7.729,3.381l.005.004Z"/>
    <path d="M1848.89,1328.496c0,1.845-.688,3.646-1.921,5.107,1.232,1.465,1.921,3.263,1.921,5.107v9.206c0,2.25-1.009,4.433-2.77,5.981-1.654,1.465-3.858,2.271-6.2,2.271h-12.241c-2.292,0-4.551-.828-6.196-2.271-1.79-1.578-2.773-3.702-2.773-5.981v-9.206c0-1.845.688-3.646,1.92-5.107-1.236-1.469-1.92-3.271-1.92-5.107v-6.205c0-2.25,1.009-4.432,2.769-5.98,1.659-1.47,3.862-2.275,6.201-2.275h12.241c2.3,0,4.559.827,6.2,2.271,1.79,1.583,2.77,3.706,2.77,5.981v6.209ZM1842.516,1338.703c0-.423-.241-.87-.654-1.237l-.781-.685h-14.57l-.785.689c-.405.362-.646.81-.646,1.232v9.205c0,.436.207.836.612,1.195.485.426,1.229.684,1.983.684h12.241c.772,0,1.499-.245,1.984-.68.388-.338.616-.785.616-1.199v-9.205ZM1825.088,1322.291v6.205c0,.422.24.873.658,1.25l.769.67h14.575l.789-.688c.401-.359.642-.811.642-1.232v-6.205c0-.439-.207-.844-.616-1.203-.481-.422-1.224-.68-1.983-.68h-12.241c-.772,0-1.494.25-1.979.68h-.005c-.384.338-.611.785-.611,1.199l.004.004Z"/>
    <path d="M1882.762,1333.502c2.347,2.731,2.283,5.327,2.229,7.416l-.017.959c0,3.9-1.232,7.365-3.381,9.518-1.841,1.837-4.373,3.184-6.948,3.698-1.984.397-12.723.925-15.969,1.072h-.151c-1.692,0-3.103-1.334-3.183-3.039-.08-1.756,1.274-3.246,3.035-3.331,6.517-.308,13.916-.746,15.019-.957,1.333-.271,2.747-1.018,3.688-1.959.701-.701,1.516-2.432,1.516-5.011l.017-1.118c.042-1.77.025-2.263-.684-3.09-.802-.925-1.465-1.102-3.039-1.17h-16.369c-1.752,0-3.175-1.409-3.187-3.161l-.127-16.087c-.004-.852.325-1.667.924-2.271.6-.604,1.414-.94,2.263-.94h21.865c1.76,0,3.187,1.426,3.187,3.186s-1.427,3.188-3.187,3.188h-18.652l.075,9.713h13.343c2.655.113,5.314.595,7.729,3.381l.005.004Z"/>
    <path d="M1921.556,1322.076v26.086c0,4.436-3.909,8.041-8.717,8.041h-12.79c-4.888,0-8.716-3.533-8.716-8.041v-26.086c0-4.437,3.908-8.041,8.716-8.041h12.79c4.808,0,8.717,3.604,8.717,8.041ZM1915.182,1322.076c0-.92-1.051-1.672-2.343-1.672h-12.79c-1.342,0-2.342.883-2.342,1.672v26.086c0,.92,1.051,1.672,2.342,1.672h12.79c1.343,0,2.343-.883,2.343-1.672v-26.086Z"/>
  </g>
  <g>
    <path d="M1826.858,1533.139c1.392,0,2.519,1.128,2.519,2.519s-1.127,2.52-2.519,2.52h-18.85c-.348,0-.681-.073-.981-.2-.02-.007-.033-.027-.054-.037-.29-.13-.55-.311-.767-.533-.011-.011-.023-.014-.033-.023-.091-.094-.127-.214-.197-.317-.11-.157-.23-.304-.301-.483-.069-.184-.086-.374-.113-.567-.02-.124-.073-.23-.073-.357,0-.013.007-.026.007-.04.003-.206.066-.403.12-.604.033-.117.037-.247.083-.357.044-.103.131-.187.19-.283.11-.184.217-.37.37-.521.011-.01.023-.033.023-.033l14.347-13.445c2.168-2.039,3.353-4.247,3.249-6.059-.069-1.269-.771-2.379-2.132-3.394-.917-.677-2.226-1.037-3.767-1.037-2.973,0-5.298.507-6.999,2.979-.788,1.15-2.353,1.438-3.504.65-1.145-.787-1.435-2.355-.646-3.503,3.55-5.162,9.071-5.162,11.149-5.162,2.626,0,4.965.701,6.767,2.025,3.242,2.419,4.053,5.225,4.163,7.156.19,3.35-1.524,6.906-4.834,10.02l-9.702,9.095h12.481l.003-.007Z"/>
    <path d="M1858.276,1511.21v20.618c0,3.507-3.089,6.356-6.89,6.356h-10.108c-3.863,0-6.89-2.793-6.89-6.356v-20.618c0-3.507,3.089-6.355,6.89-6.355h10.108c3.801,0,6.89,2.849,6.89,6.355ZM1853.238,1511.21c0-.728-.83-1.321-1.852-1.321h-10.108c-1.062,0-1.852.697-1.852,1.321v20.618c0,.728.83,1.321,1.852,1.321h10.108c1.062,0,1.852-.697,1.852-1.321v-20.618Z"/>
    <path d="M1887.175,1511.21v20.618c0,3.507-3.089,6.356-6.89,6.356h-10.108c-3.863,0-6.89-2.793-6.89-6.356v-20.618c0-3.507,3.089-6.355,6.89-6.355h10.108c3.801,0,6.89,2.849,6.89,6.355ZM1882.137,1511.21c0-.728-.83-1.321-1.852-1.321h-10.108c-1.062,0-1.852.697-1.852,1.321v20.618c0,.728.83,1.321,1.852,1.321h10.108c1.062,0,1.852-.697,1.852-1.321v-20.618Z"/>
    <path d="M1916.075,1511.21v20.618c0,3.507-3.089,6.356-6.89,6.356h-10.108c-3.863,0-6.89-2.793-6.89-6.356v-20.618c0-3.507,3.089-6.355,6.89-6.355h10.108c3.801,0,6.89,2.849,6.89,6.355ZM1911.037,1511.21c0-.728-.83-1.321-1.852-1.321h-10.108c-1.062,0-1.852.697-1.852,1.321v20.618c0,.728.83,1.321,1.852,1.321h10.108c1.062,0,1.852-.697,1.852-1.321v-20.618Z"/>
  </g>
  <g id="c" data-name="analog_altitude_dial">
    <path id="d" data-name="path35" d="M1838.762,1199.885c-2.938,0-5.386,2.448-5.386,5.386s2.448,5.386,5.386,5.386,5.386-2.448,5.876-5.386h0c0-2.938-2.448-5.386-5.386-5.386h-.49ZM1915.635,1223.877c-2.938,0-5.386,2.448-5.876,5.386h0c0,2.938,2.448,5.386,5.386,5.386h0c2.938,0,5.386-2.448,5.386-5.386s-2.448-5.386-5.386-5.386h.49ZM1762.38,1224.367c-2.938,0-5.386,2.448-5.876,5.386h0c0,2.938,2.448,5.386,5.386,5.386h0c2.938,0,5.386-2.448,5.386-5.386s-2.448-5.386-5.386-5.386h.49ZM1963.129,1289.977c-2.938,0-5.386,2.448-5.876,5.386h0c0,2.938,2.448,5.386,5.386,5.386h0c2.938,0,5.386-2.448,5.386-5.386s-2.448-5.386-5.386-5.386h.49ZM1714.886,1290.957c-2.938,0-5.386,2.448-5.876,5.386h0c0,2.938,2.448,5.386,5.386,5.386h0c2.938,0,5.386-2.448,5.386-5.386s-2.448-5.386-5.386-5.386h.49ZM1714.886,1370.277c-2.938,0-5.386,2.448-5.876,5.386h0c0,2.938,2.448,5.386,5.386,5.386h0c2.938,0,5.386-2.448,5.386-5.386s-2.448-5.386-5.386-5.386h.49ZM1962.15,1371.256c-2.938,0-5.386,2.448-5.876,5.386h0c0,2.938,2.448,5.386,5.386,5.386h0c2.938,0,5.386-2.448,5.386-5.386s-2.448-5.386-5.386-5.386h.49ZM1762.38,1434.419c-2.938,0-5.386,2.448-5.876,5.386h0c0,2.938,2.448,5.386,5.386,5.386h0c2.938,0,5.386-2.448,5.386-5.386s-2.448-5.386-5.386-5.386h.49ZM1914.655,1435.887c-2.938,0-5.386,2.448-5.876,5.386h0c0,2.938,2.448,5.386,5.386,5.386h0c2.938,0,5.386-2.448,5.386-5.386s-2.448-5.386-5.386-5.386h.49ZM1838.273,1459.39c-2.938,0-5.386,2.448-5.876,5.386h0c0,2.938,2.448,5.386,5.386,5.386h0c2.938,0,5.386-2.448,5.386-5.386s-2.448-5.386-5.386-5.386h.49Z" stroke="#000" stroke-miterlimit="15.1" stroke-width="6"/>
  </g>
  <g id="e" data-name="vertical_reference">
    <path id="f" data-name="path36" d="M1731.484,1478.975l24.971-12.241-4.407,28.399,4.407.979,5.386-36.722-33.785,16.647,3.427,3.427s0-.49,0-.49Z" stroke="#000" stroke-miterlimit="15.1" stroke-width="6"/>
  </g>
  <g id="g" data-name="analog_airspeed_dial">
    <path id="h" data-name="path12" d="M732.89,1195.472c-2.985,0-5.472,2.487-5.472,5.472s2.487,5.472,5.472,5.472,5.472-2.487,5.97-5.472h0c0-2.985-2.487-5.472-5.472-5.472h-.497ZM811.493,1219.849c-2.985,0-5.472,2.487-5.97,5.472h0c0,2.985,2.487,5.472,5.472,5.472h0c2.985,0,5.472-2.487,5.472-5.472s-2.487-5.472-5.472-5.472h.497ZM655.282,1220.347c-2.985,0-5.472,2.487-5.97,5.472h0c0,2.985,2.487,5.472,5.472,5.472h0c2.985,0,5.472-2.487,5.472-5.472s-2.487-5.472-5.472-5.472h.497ZM859.252,1287.01c-2.985,0-5.472,2.487-5.97,5.472h0c0,2.985,2.487,5.472,5.472,5.472h0c2.985,0,5.472-2.487,5.472-5.472s-2.487-5.472-5.472-5.472h.497ZM607.025,1288.005c-2.985,0-5.472,2.487-5.97,5.472h0c0,2.985,2.487,5.472,5.472,5.472h0c2.985,0,5.472-2.487,5.472-5.472s-2.487-5.472-5.472-5.472h.497ZM607.025,1368.598c-2.985,0-5.472,2.487-5.97,5.472h0c0,2.985,2.487,5.472,5.472,5.472h0c2.985,0,5.472-2.487,5.472-5.472s-2.487-5.472-5.472-5.472h.497ZM858.257,1369.593c-2.985,0-5.472,2.487-5.97,5.472h0c0,2.985,2.487,5.472,5.472,5.472h0c2.985,0,5.472-2.487,5.472-5.472s-2.487-5.472-5.472-5.472h.497ZM655.282,1433.769c-2.985,0-5.472,2.487-5.97,5.472h0c0,2.985,2.487,5.472,5.472,5.472h0c2.985,0,5.472-2.487,5.472-5.472s-2.487-5.472-5.472-5.472h.497ZM810.498,1435.262c-2.985,0-5.472,2.487-5.97,5.472h0c0,2.985,2.487,5.472,5.472,5.472h0c2.985,0,5.472-2.487,5.472-5.472s-2.487-5.472-5.472-5.472h.497ZM732.392,1459.141c-2.985,0-5.472,2.487-5.97,5.472h0c0,2.985,2.487,5.472,5.472,5.472h0c2.985,0,5.472-2.487,5.472-5.472s-2.487-5.472-5.472-5.472h.497Z" stroke="#000" stroke-miterlimit="15.1" stroke-width="6"/>
  </g>
  <g>
    <path d="M710.967,1323.116c1.959,1.959,3.04,4.56,3.04,7.315v2.997c0,3.833-1.824,7.471-4.875,9.738-2.064,1.562-4.584,2.397-7.26,2.397h-2.659c-2.418,0-9.607-1.343-12.148-2.617l-1.452-.684c-1.591-.752-2.271-2.651-1.52-4.242.751-1.596,2.646-2.268,4.242-1.52l1.52.717c1.41.705,7.492,1.976,9.362,1.976h2.659c1.275,0,2.461-.393,3.436-1.127,1.481-1.105,2.321-2.79,2.321-4.639v-2.997c0-1.056-.418-2.052-1.178-2.812l-.511-.511c-.608-.611-1.448-.962-2.3-.962h-6.29c-1.228,0-2.351-.709-2.878-1.823-.528-1.115-.367-2.428.414-3.382l9.168-11.219h-12.655c-1.76,0-3.187-1.427-3.187-3.188s1.427-3.187,3.187-3.187h19.375c1.228,0,2.351.709,2.878,1.823.528,1.11.367,2.427-.414,3.381l-9.177,11.229c2.385.105,4.694,1.122,6.391,2.819l.511.511v.004Z"/>
    <path d="M729.678,1339.19c1.667.105,2.997,1.456,2.997,3.148,0,1.761-1.427,3.188-3.187,3.188h-5.952c-1.76,0-3.187-1.427-3.187-3.188,0-1.68,1.309-3.014,2.955-3.14v-28.577c-.519-.24-.992-.591-1.33-1.105-.966-1.469-.561-3.449.908-4.415l1.857-1.225c.08-.055.177-.059.262-.105.186-.102.375-.173.583-.236.215-.067.417-.114.637-.131.093-.009.173-.055.27-.055.105,0,.194.051.3.059.219.021.431.063.642.131.194.063.372.136.544.229.177.093.338.202.498.333.173.14.316.291.456.46.067.085.16.131.219.224.055.081.059.178.105.262.102.187.173.38.237.587.063.211.109.414.126.629.008.098.055.178.055.274v32.65l.004.004Z"/>
    <path d="M769.235,1311.39v26.086c0,4.437-3.909,8.041-8.716,8.041h-12.79c-4.888,0-8.716-3.533-8.716-8.041v-26.086c0-4.437,3.909-8.041,8.716-8.041h12.79c4.808,0,8.716,3.604,8.716,8.041ZM762.861,1311.39c0-.92-1.051-1.672-2.343-1.672h-12.79c-1.342,0-2.342.883-2.342,1.672v26.086c0,.92,1.051,1.672,2.342,1.672h12.79c1.342,0,2.343-.883,2.343-1.672v-26.086Z"/>
  </g>
  <line x1="1843.169" y1="1296.343" x2="1880.391" y2="1218.565" stroke="#000" stroke-linecap="round" stroke-miterlimit="15.1" stroke-width="8"/>
  <line x1="750.304" y1="1293.478" x2="810" y2="1212.304" stroke="#000" stroke-linecap="round" stroke-miterlimit="15.1" stroke-width="8"/>
  <g>
    <path d="M2023.166,1533.139c1.392,0,2.519,1.128,2.519,2.519s-1.127,2.52-2.519,2.52h-18.85c-.348,0-.681-.073-.981-.2-.02-.007-.033-.027-.054-.037-.29-.13-.55-.311-.767-.533-.011-.011-.023-.014-.033-.023-.091-.094-.127-.214-.197-.317-.11-.157-.23-.304-.301-.483-.069-.184-.086-.374-.113-.567-.02-.124-.073-.23-.073-.357,0-.013.007-.026.007-.04.003-.206.066-.403.12-.604.033-.117.037-.247.083-.357.044-.103.131-.187.19-.283.11-.184.217-.37.37-.521.011-.01.023-.033.023-.033l14.347-13.445c2.168-2.039,3.353-4.247,3.249-6.059-.069-1.269-.771-2.379-2.132-3.394-.917-.677-2.226-1.037-3.767-1.037-2.973,0-5.298.507-6.999,2.979-.788,1.15-2.353,1.438-3.504.65-1.145-.787-1.435-2.355-.646-3.503,3.55-5.162,9.071-5.162,11.149-5.162,2.626,0,4.965.701,6.767,2.025,3.242,2.419,4.053,5.225,4.163,7.156.19,3.35-1.524,6.906-4.834,10.02l-9.702,9.095h12.481l.003-.007Z"/>
    <path d="M2050.377,1535.081c-2.959,2.956-10.286,3.106-11.724,3.106-1.392,0-2.519-1.128-2.519-2.516s1.124-2.522,2.516-2.522c3.093-.003,7.206-.674,8.163-1.631,1.235-1.234,1.985-3.773,2.412-6.593-1.812.924-4.007,1.451-6.568,1.451-7.377,0-11.961-4.124-11.961-10.76,0-5.204,3.143-10.763,11.961-10.763,8.598,0,11.773,5.281,11.927,10.369.014.08.054.15.061.23.097,1.475.797,14.56-4.268,19.627ZM2049.576,1515.614c0-3.801-2.332-5.726-6.923-5.726-4.657,0-6.923,1.875-6.923,5.726,0,3.797,2.329,5.722,6.923,5.722s6.923-1.922,6.923-5.722Z"/>
    <path d="M2064.784,1537.498v.07c0,1.392-1.128,2.52-2.52,2.52s-2.519-1.128-2.519-2.52,1.128-2.556,2.519-2.556,2.52,1.095,2.52,2.485Z"/>
    <path d="M2081.522,1516.635c7.273,0,12.161,4.324,12.161,10.76,0,6.339-5.001,10.763-12.161,10.763s-11.728-4.224-11.728-10.763c0-.153.037-.287.04-.438-.006-.069-.04-.126-.04-.196,0-3.463,3.093-10.517,6.082-15.341,2.002-3.236,3.333-4.563,4.505-5.734.983-.984,2.625-1.031,3.609-.047s1.031,2.535.047,3.517l-.094.093c-1.074,1.071-2.085,2.085-3.783,4.824-.591.948-1.124,1.908-1.628,2.863.944-.181,1.929-.304,2.989-.304v.003ZM2088.645,1527.391c0-5.165-4.981-5.723-7.123-5.723-3.053,0-6.689.995-6.689,5.723,0,3.692,2.376,5.725,6.689,5.725,4.394,0,7.123-2.192,7.123-5.725Z"/>
    <path d="M2118.376,1535.081c-2.96,2.956-10.286,3.106-11.725,3.106-1.391,0-2.519-1.128-2.519-2.516s1.124-2.522,2.516-2.522c3.093-.003,7.206-.674,8.164-1.631,1.234-1.234,1.985-3.773,2.412-6.593-1.812.924-4.007,1.451-6.569,1.451-7.376,0-11.961-4.124-11.961-10.76,0-5.204,3.144-10.763,11.961-10.763,8.598,0,11.774,5.281,11.928,10.369.013.08.053.15.06.23.097,1.475.798,14.56-4.267,19.627ZM2117.575,1515.614c0-3.801-2.332-5.726-6.923-5.726-4.658,0-6.923,1.875-6.923,5.726,0,3.797,2.328,5.722,6.923,5.722s6.923-1.922,6.923-5.722Z"/>
  </g>
  <path d="M1673.711,1341.412c-.236-3.62-.356-7.272-.356-10.951,0-91.487,74.165-165.652,165.652-165.652,1.391,0,2.779.017,4.162.051" fill="none" stroke="#000" stroke-linecap="square" stroke-miterlimit="15.1" stroke-width="13"/>
  <g>
    <path d="M1778.113,1112.43c1.385.35,2.406,1.6,2.406,3.09s-1.021,2.739-2.406,3.09v13.33c0,1.76-1.427,3.187-3.187,3.187s-3.187-1.427-3.187-3.187v-13.237h-16.779c-1.245,0-2.376-.718-2.896-1.849-.523-1.131-.338-2.46.469-3.406l16.547-19.375c.604-.709,1.489-1.119,2.423-1.119h3.419c1.76,0,3.187,1.427,3.187,3.187v16.28l.004.009ZM1771.735,1100.776l-9.864,11.553h9.864v-11.553Z"/>
    <path d="M1816.662,1094.638c.554,1.039.494,2.296-.156,3.271l-23.849,35.799c-.616.92-1.625,1.418-2.655,1.418-.607,0-1.224-.173-1.764-.536-1.465-.975-1.862-2.95-.887-4.419l20.548-30.843h-14.9c-1.76,0-3.187-1.427-3.187-3.187s1.427-3.187,3.187-3.187h20.853c1.178,0,2.258.646,2.811,1.68v.004Z"/>
    <path d="M1850.932,1112.422c2.347,2.731,2.283,5.327,2.229,7.416l-.017.958c0,3.9-1.232,7.366-3.381,9.518-1.841,1.836-4.373,3.183-6.948,3.698-1.984.397-12.723.924-15.969,1.072h-.151c-1.692,0-3.103-1.334-3.183-3.039-.08-1.756,1.274-3.246,3.035-3.331,6.517-.308,13.916-.747,15.019-.958,1.333-.271,2.747-1.018,3.688-1.958.701-.701,1.516-2.432,1.516-5.011l.017-1.119c.042-1.769.025-2.262-.684-3.089-.802-.925-1.465-1.102-3.039-1.169h-16.369c-1.752,0-3.175-1.41-3.187-3.162l-.127-16.086c-.004-.853.325-1.667.924-2.271.6-.604,1.414-.941,2.263-.941h21.865c1.76,0,3.187,1.426,3.187,3.187s-1.427,3.187-3.187,3.187h-18.652l.075,9.712h13.343c2.655.114,5.314.595,7.729,3.381l.005.004Z"/>
    <path d="M1889.726,1100.995v26.086c0,4.436-3.908,8.041-8.716,8.041h-12.79c-4.888,0-8.717-3.533-8.717-8.041v-26.086c0-4.436,3.909-8.041,8.717-8.041h12.79c4.808,0,8.716,3.605,8.716,8.041ZM1883.353,1100.995c0-.92-1.052-1.671-2.343-1.671h-12.79c-1.343,0-2.343.882-2.343,1.671v26.086c0,.92,1.051,1.671,2.343,1.671h12.79c1.342,0,2.343-.882,2.343-1.671v-26.086Z"/>
    <path d="M1926.246,1108.984c0,2.182-.878,4.31-2.406,5.842-1.401,1.397-3.225,2.191-5.188,2.347l7.205,13.25c.841,1.544.267,3.478-1.278,4.318-.481.266-1.005.388-1.516.388-1.131,0-2.225-.604-2.803-1.667l-8.826-16.23h-8.991v14.706c0,1.76-1.427,3.187-3.187,3.187s-3.187-1.427-3.187-3.187v-35.71c0-1.76,1.427-3.187,3.187-3.187h18.737c2.178,0,4.306.878,5.838,2.406,1.562,1.562,2.414,3.638,2.414,5.846v7.691ZM1919.872,1101.289c0-.528-.186-.975-.544-1.338-.338-.333-.84-.54-1.334-.54h-15.555v11.443h15.555c.523,0,.971-.186,1.334-.549.342-.338.544-.836.544-1.33v-7.687Z"/>
  </g>
</svg>