<?xml version="1.0" encoding="UTF-8"?>
<svg xmlns="http://www.w3.org/2000/svg" width="1573.826" height="129.913" viewBox="0 0 1573.826 129.913">
  <g id="BUTTON_-_Light">
    <rect x="779.587" y="20.5" width="83" height="91" rx="1.738" ry="1.738" fill="none" stroke="#000" stroke-miterlimit="10" stroke-width="5"/>
    <rect x="770.587" y="11" width="101" height="110" rx="5.276" ry="5.276" fill="none" stroke="#000" stroke-miterlimit="10" stroke-width="5"/>
  </g>
  <g id="RNAV_-_Light">
    <g>
      <path d="M793.272,69.612l5.139,9.366v.567h-1.331l-.319.212-5.438-9.907c-.039,0-.08.002-.118.002h-4.984v9.692h-1.779v-23.887h6.673c1.027,0,2.043.233,2.943.672.965.473,1.751,1.051,2.402,1.769.528.581.92,1.334,1.299,2.062l.047.104c.353.906.518,1.713.518,2.539,0,.858-.18,1.769-.518,2.637-.298.764-.789,1.554-1.346,2.167-.515.566-1.347,1.321-2.394,1.706-.263.129-.528.224-.794.299h0ZM786.22,57.616v10.279h4.984c.999,0,1.621-.115,2.218-.405.641-.24,1.243-.677,1.778-1.266.397-.438.76-1.02.97-1.555.243-.625.372-1.271.372-1.865,0-.546-.109-1.078-.354-1.718-.327-.63-.636-1.217-.987-1.604-.503-.553-1.096-.987-1.867-1.365-.673-.328-1.44-.502-2.22-.502h-4.895Z" fill="#ccc" stroke="#000" stroke-miterlimit="10" stroke-width="2"/>
      <path d="M816.331,55.622v23.907h-1.766l-10.336-20.142v20.125h-1.779v-23.789h1.943l10.157,19.795v-19.896h1.78Z" fill="#ccc" stroke="#000" stroke-miterlimit="10" stroke-width="2"/>
      <path d="M834.251,66.218l-.092,13.311-1.779-.015.051-7.433h-10.283v7.44h-1.779v-13.307l6.098-10.482h1.687l6.099,10.486ZM832.445,70.123l.022-3.339-5.158-8.869-5.161,8.872v3.336h10.297Z" fill="#ccc" stroke="#000" stroke-miterlimit="10" stroke-width="2"/>
      <path d="M854.746,55.75v5.346l-13.996,18.541h-2.465v-23.887h1.779v21.729l12.901-17.091v-4.638h1.78Z" fill="#ccc" stroke="#000" stroke-miterlimit="10" stroke-width="2"/>
    </g>
  </g>
</svg>