<?xml version="1.0" encoding="UTF-8"?>
<svg xmlns="http://www.w3.org/2000/svg" width="1584.293" height="1072.174" viewBox="0 0 1584.293 1072.174">
  <g id="CDNU_-_Light">
    <path d="M1403.61,903.706l-1222.305.984c-5.445.004-9.861-4.411-9.856-9.857l.667-725.918c.005-5.432,4.408-9.834,9.84-9.839l1222.305-.984c5.445-.004,9.861,4.411,9.856,9.857l-.667,725.918c-.005,5.432-4.408,9.834-9.84,9.839Z" fill="none" stroke="#000" stroke-miterlimit="10" stroke-width="11"/>
    <polyline points="785.123 902.825 1331.623 903.324 1331.623 653.747 1406.623 653.747 1406.623 327.67 1331.623 327.67 1331.623 160.085 252.123 160.085 252.123 332.358 173.906 332.358 173.906 653.248 252.123 653.248 252.123 902.825 785.123 902.825" fill="none" stroke="#000" stroke-miterlimit="10" stroke-width="8"/>
    <rect x="425.123" y="200.085" width="735" height="553" rx="13.681" ry="13.681" fill="none" stroke="#000" stroke-miterlimit="10" stroke-width="5"/>
    <rect x="414.123" y="186.085" width="760" height="580" rx="18.29" ry="18.29" fill="none" stroke="#000" stroke-miterlimit="10" stroke-width="5"/>
    <g>
      <rect x="267.123" y="201.085" width="137" height="81" fill="none" stroke="#000" stroke-miterlimit="10" stroke-width="5"/>
      <polygon points="387.122 241.334 359.756 213.834 359.756 230.834 284.623 230.834 284.623 251.834 359.756 251.834 359.756 268.834 387.122 241.334" stroke="#000" stroke-miterlimit="10"/>
    </g>
    <g>
      <rect x="267.275" y="327.932" width="137" height="81" fill="none" stroke="#000" stroke-miterlimit="10" stroke-width="5"/>
      <polygon points="387.275 368.182 359.908 340.682 359.908 357.682 284.775 357.682 284.775 378.682 359.908 378.682 359.908 395.682 387.275 368.182" stroke="#000" stroke-miterlimit="10"/>
    </g>
    <g>
      <rect x="267.275" y="454.932" width="137" height="81" fill="none" stroke="#000" stroke-miterlimit="10" stroke-width="5"/>
      <polygon points="387.275 495.182 359.908 467.682 359.908 484.682 284.775 484.682 284.775 505.682 359.908 505.682 359.908 522.682 387.275 495.182" stroke="#000" stroke-miterlimit="10"/>
    </g>
    <g>
      <rect x="267.102" y="579.367" width="137" height="81" fill="none" stroke="#000" stroke-miterlimit="10" stroke-width="5"/>
      <polygon points="387.101 619.617 359.734 592.117 359.734 609.117 284.601 609.117 284.601 630.117 359.734 630.117 359.734 647.117 387.101 619.617" stroke="#000" stroke-miterlimit="10"/>
    </g>
    <g>
      <rect x="1182.254" y="201.085" width="137" height="81" transform="translate(2501.507 483.169) rotate(-180)" fill="none" stroke="#000" stroke-miterlimit="10" stroke-width="5"/>
      <polygon points="1199.255 241.334 1226.622 213.834 1226.622 230.834 1301.754 230.834 1301.754 251.834 1226.622 251.834 1226.622 268.834 1199.255 241.334" stroke="#000" stroke-miterlimit="10"/>
    </g>
    <g>
      <rect x="1182.102" y="327.932" width="137" height="81" transform="translate(2501.203 736.865) rotate(-180)" fill="none" stroke="#000" stroke-miterlimit="10" stroke-width="5"/>
      <polygon points="1199.102 368.182 1226.469 340.682 1226.469 357.682 1301.602 357.682 1301.602 378.682 1226.469 378.682 1226.469 395.682 1199.102 368.182" stroke="#000" stroke-miterlimit="10"/>
    </g>
    <g>
      <rect x="1182.102" y="454.932" width="137" height="81" transform="translate(2501.203 990.865) rotate(-180)" fill="none" stroke="#000" stroke-miterlimit="10" stroke-width="5"/>
      <polygon points="1199.102 495.182 1226.469 467.682 1226.469 484.682 1301.602 484.682 1301.602 505.682 1226.469 505.682 1226.469 522.682 1199.102 495.182" stroke="#000" stroke-miterlimit="10"/>
    </g>
    <g>
      <rect x="1182.275" y="579.367" width="137" height="81" transform="translate(2501.551 1239.734) rotate(-180)" fill="none" stroke="#000" stroke-miterlimit="10" stroke-width="5"/>
      <polygon points="1199.276 619.617 1226.643 592.117 1226.643 609.117 1301.776 609.117 1301.776 630.117 1226.643 630.117 1226.643 647.117 1199.276 619.617" stroke="#000" stroke-miterlimit="10"/>
    </g>
    <circle cx="356.123" cy="736.085" r="30.5" fill="none" stroke="#000" stroke-miterlimit="10" stroke-width="5"/>
    <circle cx="1239.123" cy="736.085" r="30.5" fill="none" stroke="#000" stroke-miterlimit="10" stroke-width="5"/>
    <rect x="315.623" y="792.539" width="83" height="91" fill="none" stroke="#000" stroke-miterlimit="10" stroke-width="5"/>
    <rect x="307.623" y="783.039" width="101" height="110" rx="9.778" ry="9.778" fill="none" stroke="#000" stroke-miterlimit="10" stroke-width="5"/>
    <rect x="439.623" y="792.539" width="83" height="91" fill="none" stroke="#000" stroke-miterlimit="10" stroke-width="5"/>
    <rect x="431.623" y="783.039" width="101" height="110" rx="9.778" ry="9.778" fill="none" stroke="#000" stroke-miterlimit="10" stroke-width="5"/>
    <rect x="563.623" y="792.539" width="83" height="91" fill="none" stroke="#000" stroke-miterlimit="10" stroke-width="5"/>
    <rect x="555.623" y="783.039" width="101" height="110" rx="9.778" ry="9.778" fill="none" stroke="#000" stroke-miterlimit="10" stroke-width="5"/>
    <rect x="687.623" y="792.539" width="83" height="91" fill="none" stroke="#000" stroke-miterlimit="10" stroke-width="5"/>
    <rect x="679.623" y="783.039" width="101" height="110" rx="9.778" ry="9.778" fill="none" stroke="#000" stroke-miterlimit="10" stroke-width="5"/>
    <rect x="809.623" y="792.539" width="83" height="91" fill="none" stroke="#000" stroke-miterlimit="10" stroke-width="5"/>
    <rect x="801.623" y="783.039" width="101" height="110" rx="9.778" ry="9.778" fill="none" stroke="#000" stroke-miterlimit="10" stroke-width="5"/>
    <rect x="936.623" y="792.539" width="83" height="91" fill="none" stroke="#000" stroke-miterlimit="10" stroke-width="5"/>
    <rect x="928.623" y="783.039" width="101" height="110" rx="9.778" ry="9.778" fill="none" stroke="#000" stroke-miterlimit="10" stroke-width="5"/>
    <rect x="1056.623" y="792.539" width="83" height="91" fill="none" stroke="#000" stroke-miterlimit="10" stroke-width="5"/>
    <rect x="1048.623" y="783.039" width="101" height="110" rx="9.778" ry="9.778" fill="none" stroke="#000" stroke-miterlimit="10" stroke-width="5"/>
    <rect x="1181.623" y="792.539" width="83" height="91" fill="none" stroke="#000" stroke-miterlimit="10" stroke-width="5"/>
    <rect x="1173.623" y="783.039" width="101" height="110" rx="9.778" ry="9.778" fill="none" stroke="#000" stroke-miterlimit="10" stroke-width="5"/>
    <circle cx="213.123" cy="265.085" r="34.5" fill="none" stroke="#000" stroke-miterlimit="10" stroke-width="3.5"/>
    <circle cx="213.123" cy="265.085" r="27.5" fill="none" stroke="#000" stroke-miterlimit="10" stroke-width="3.5"/>
    <circle cx="213.623" cy="718.585" r="34.5" fill="none" stroke="#000" stroke-miterlimit="10" stroke-width="3.5"/>
    <circle cx="213.623" cy="718.585" r="27.5" fill="none" stroke="#000" stroke-miterlimit="10" stroke-width="3.5"/>
    <circle cx="213.623" cy="837.585" r="34.5" fill="none" stroke="#000" stroke-miterlimit="10" stroke-width="3.5"/>
    <circle cx="213.623" cy="837.585" r="27.5" fill="none" stroke="#000" stroke-miterlimit="10" stroke-width="3.5"/>
    <circle cx="1372.623" cy="265.085" r="34.5" fill="none" stroke="#000" stroke-miterlimit="10" stroke-width="3.5"/>
    <circle cx="1372.623" cy="265.085" r="27.5" fill="none" stroke="#000" stroke-miterlimit="10" stroke-width="3.5"/>
    <circle cx="1372.123" cy="718.585" r="34.5" fill="none" stroke="#000" stroke-miterlimit="10" stroke-width="3.5"/>
    <circle cx="1372.123" cy="718.585" r="27.5" fill="none" stroke="#000" stroke-miterlimit="10" stroke-width="3.5"/>
    <circle cx="1372.123" cy="837.585" r="34.5" fill="none" stroke="#000" stroke-miterlimit="10" stroke-width="3.5"/>
    <circle cx="1372.123" cy="837.585" r="27.5" fill="none" stroke="#000" stroke-miterlimit="10" stroke-width="3.5"/>
    <g>
      <rect x="321.946" y="804.749" width="66.913" height="64.957" fill="none"/>
      <path d="M335.861,819.119h6.823v36.208h-6.823v-36.208ZM338.351,819.119h21.292v6.574h-21.292v-6.574ZM338.351,834.384h18.552v6.574h-18.552v-6.574Z" stroke="#000" stroke-miterlimit="10"/>
      <path d="M374.945,855.327h-6.823v-28.189l-4.408,1.668v-7.246l5.404-2.44h5.827v36.208Z" stroke="#000" stroke-miterlimit="10"/>
    </g>
    <g>
      <rect x="445.946" y="804.749" width="66.913" height="64.957" fill="none"/>
      <path d="M455.167,819.119h6.823v36.208h-6.823v-36.208ZM457.657,819.119h21.292v6.574h-21.292v-6.574ZM457.657,834.384h18.552v6.574h-18.552v-6.574Z" stroke="#000" stroke-miterlimit="10"/>
      <path d="M483.966,849.177l12.426-16.336c.564-.73,1-1.482,1.307-2.254.307-.772.461-1.49.461-2.154v-.05c0-.979-.315-1.734-.946-2.267-.631-.53-1.528-.797-2.689-.797-1.129,0-2.042.37-2.739,1.108-.697.739-1.121,1.789-1.27,3.15v.024h-6.998v-.024c.149-2.258.693-4.2,1.631-5.827s2.204-2.867,3.798-3.723,3.437-1.283,5.528-1.283c2.257,0,4.188.37,5.79,1.108,1.602.739,2.822,1.814,3.66,3.226s1.258,3.112,1.258,5.104v.024c0,1.645-.286,3.275-.859,4.894-.572,1.619-1.374,3.084-2.403,4.396l-8.915,11.256h12.376v6.574h-21.416v-6.15Z" stroke="#000" stroke-miterlimit="10"/>
    </g>
    <g>
      <rect x="569.946" y="804.749" width="66.913" height="64.957" fill="none"/>
      <path d="M578.855,819.119h6.823v36.208h-6.823v-36.208ZM581.346,819.119h21.292v6.574h-21.292v-6.574ZM581.346,834.384h18.552v6.574h-18.552v-6.574Z" stroke="#000" stroke-miterlimit="10"/>
      <path d="M612.461,854.505c-1.71-.797-3.072-1.958-4.084-3.486-1.013-1.526-1.569-3.345-1.668-5.453h7.047c.1.747.319,1.382.66,1.905.34.522.776.921,1.308,1.195.531.273,1.146.411,1.843.411,1.295,0,2.295-.361,3.001-1.084.705-.722,1.058-1.738,1.058-3.051v-.846c0-1.378-.287-2.441-.859-3.188-.573-.748-1.391-1.121-2.453-1.121h-3.063v-6.574h3.063c.863,0,1.531-.327,2.005-.983.473-.656.709-1.573.709-2.752v-.622c0-1.112-.261-1.972-.785-2.578-.522-.605-1.257-.908-2.204-.908-.614,0-1.175.157-1.681.473s-.934.771-1.282,1.369-.598,1.32-.747,2.167h-7.022c.199-2.208.792-4.112,1.78-5.715s2.279-2.822,3.873-3.661c1.594-.838,3.37-1.258,5.329-1.258,3.204,0,5.682.818,7.433,2.453,1.751,1.636,2.627,3.956,2.627,6.961v1.096c0,1.677-.423,3.137-1.27,4.383-.847,1.244-2.051,2.175-3.611,2.789,1.743.398,3.092,1.312,4.046,2.738.955,1.429,1.432,3.246,1.432,5.454v1.096c0,2.108-.415,3.909-1.245,5.403-.831,1.494-2.042,2.632-3.636,3.412s-3.511,1.17-5.752,1.17c-2.191,0-4.143-.398-5.852-1.195Z" stroke="#000" stroke-miterlimit="10"/>
    </g>
    <g>
      <rect x="693.946" y="804.749" width="66.913" height="64.957" fill="none"/>
      <path d="M701.834,819.119h6.823v36.208h-6.823v-36.208ZM704.325,819.119h21.292v6.574h-21.292v-6.574ZM704.325,834.384h18.552v6.574h-18.552v-6.574Z" stroke="#000" stroke-miterlimit="10"/>
      <path d="M730.683,843.499l11.156-24.355h7.72l-10.857,24.057h16.261v6.574h-24.279v-6.275ZM745.301,834.036h6.823v21.316h-6.823v-21.316Z" stroke="#000" stroke-miterlimit="10"/>
    </g>
    <g>
      <rect x="815.946" y="804.749" width="66.913" height="64.957" fill="none"/>
      <path d="M824.457,819.119h6.823v36.208h-6.823v-36.208ZM826.947,819.119h21.291v6.574h-21.291v-6.574ZM826.947,834.384h18.553v6.574h-18.553v-6.574Z" stroke="#000" stroke-miterlimit="10"/>
      <path d="M859.171,854.418c-1.553-.854-2.798-2.1-3.735-3.735-.938-1.635-1.481-3.573-1.631-5.814v-.025h6.823v.025c.133,1.328.539,2.362,1.221,3.101.68.738,1.568,1.108,2.664,1.108,1.195,0,2.12-.391,2.776-1.171s.983-1.884.983-3.312v-3.039c0-1.427-.295-2.527-.884-3.299-.589-.772-1.415-1.158-2.478-1.158-.979,0-1.814.249-2.503.747s-1.166,1.195-1.432,2.092h-6.375v-20.818h19.448v6.574h-12.625v6.399c.515-.498,1.216-.892,2.104-1.183.888-.29,1.771-.436,2.651-.436,1.876,0,3.482.432,4.819,1.295,1.336.863,2.353,2.125,3.05,3.785s1.047,3.661,1.047,6.001v3.039c0,2.34-.42,4.341-1.258,6.001-.839,1.66-2.055,2.926-3.648,3.798-1.594.871-3.52,1.307-5.777,1.307-1.942,0-3.689-.427-5.242-1.282Z" stroke="#000" stroke-miterlimit="10"/>
    </g>
    <g>
      <rect x="942.946" y="804.749" width="66.913" height="64.957" fill="none"/>
      <path d="M952.254,819.119h6.823v36.208h-6.823v-36.208ZM954.744,819.119h21.291v6.574h-21.291v-6.574ZM954.744,834.384h18.553v6.574h-18.553v-6.574Z" stroke="#000" stroke-miterlimit="10"/>
      <path d="M985.723,854.418c-1.585-.854-2.793-2.1-3.623-3.735-.83-1.635-1.245-3.606-1.245-5.914v-.025c0-1.311.162-2.697.485-4.158.324-1.461.784-2.93,1.382-4.408.1-.248.203-.498.312-.746.108-.25.22-.49.337-.723l7.346-15.589h7.72l-8.716,18.054-1.719-.896c.415-.779,1.021-1.386,1.818-1.817s1.727-.647,2.789-.647c1.992,0,3.693.424,5.105,1.27,1.41.848,2.485,2.08,3.225,3.698.738,1.619,1.107,3.565,1.107,5.84v.024c0,2.325-.415,4.317-1.244,5.977-.831,1.661-2.039,2.923-3.624,3.785-1.585.864-3.499,1.295-5.739,1.295-2.226,0-4.131-.427-5.716-1.282ZM994.239,848.068c.656-.706.984-1.706.984-3.001v-.025c0-1.494-.328-2.643-.984-3.448s-1.59-1.208-2.801-1.208c-1.195,0-2.121.411-2.777,1.232-.656.822-.983,1.972-.983,3.449v.025c0,1.295.327,2.291.983,2.988s1.582,1.045,2.777,1.045c1.211,0,2.145-.352,2.801-1.058Z" stroke="#000" stroke-miterlimit="10"/>
    </g>
    <g>
      <rect x="1062.946" y="804.749" width="66.913" height="64.957" fill="none"/>
      <path d="M1072.499,819.119h6.823v36.208h-6.823v-36.208ZM1074.989,819.119h21.291v6.574h-21.291v-6.574ZM1074.989,834.384h18.553v6.574h-18.553v-6.574Z" stroke="#000" stroke-miterlimit="10"/>
      <path d="M1121.544,823.651l-8.119,31.676h-7.396l7.869-29.634h-6.226v5.454h-6.823v-12.028h20.694v4.532Z" stroke="#000" stroke-miterlimit="10"/>
    </g>
    <g>
      <path d="M1202.22,823.664h4.053v29.852h-2.795v-23.18l.111,1.314-3.121,18.539h-2.719l-3.121-18.129.111-1.725v23.18h-2.797v-29.852h4.055l3.111,20.12,3.111-20.12Z" stroke="#000" stroke-miterlimit="10"/>
      <path d="M1210.579,823.664h3.078v29.852h-3.078v-29.852ZM1211.692,823.664h9.826v5.42h-9.826v-5.42ZM1211.692,835.982h8.59v5.42h-8.59v-5.42ZM1211.692,848.095h9.826v5.42h-9.826v-5.42Z" stroke="#000" stroke-miterlimit="10"/>
      <path d="M1225.038,823.664h3.764l6.074,22.871-.27.534v-23.405h2.943v29.831h-3.785l-6.053-22.522.27-.534v23.057h-2.943v-29.831Z" stroke="#000" stroke-miterlimit="10"/>
      <path d="M1244.36,852.52c-.891-.869-1.568-2.136-2.033-3.799-.463-1.663-.695-3.665-.695-6.005v-19.053h3.076v19.196c0,1.711.252,3.038.754,3.983.5.944,1.209,1.416,2.121,1.416.922,0,1.635-.472,2.141-1.416.504-.945.758-2.272.758-3.983v-19.196h3.076v19.053c0,2.34-.234,4.342-.701,6.005-.469,1.663-1.15,2.93-2.045,3.799s-1.971,1.304-3.229,1.304-2.332-.435-3.223-1.304Z" stroke="#000" stroke-miterlimit="10"/>
    </g>
    <g>
      <rect x="316.467" y="671.23" width="70.435" height="25.043" fill="none"/>
      <path d="M324.735,672.395h4.281v22.719h-4.281v-22.719ZM326.61,690.989h7.25c.979,0,1.737-.236,2.273-.711.536-.474.805-1.138.805-1.992v-.047c0-.572-.12-1.062-.359-1.469-.24-.406-.591-.716-1.055-.93-.464-.213-1.019-.32-1.664-.32h-7.25v-4.125h7.25c.885,0,1.57-.224,2.055-.672.484-.447.727-1.078.727-1.891,0-.729-.242-1.297-.727-1.703s-1.169-.609-2.055-.609h-7.25v-4.125h7.391c1.469,0,2.724.242,3.766.727,1.042.484,1.833,1.188,2.375,2.109.542.922.812,2.029.812,3.32,0,.886-.175,1.67-.523,2.352-.349.683-.857,1.242-1.523,1.68-.667.438-1.469.734-2.406.891,1,.136,1.856.44,2.57.914.713.475,1.255,1.092,1.625,1.852.37.761.555,1.641.555,2.641v.047c0,1.303-.273,2.417-.82,3.344-.547.928-1.344,1.633-2.391,2.117s-2.305.727-3.773.727h-7.656v-4.125Z" stroke="#000" stroke-miterlimit="10"/>
      <path d="M346.383,672.38h4.281v22.734h-4.281v-22.734ZM348.086,681.848h7.906c.438,0,.823-.109,1.156-.328.333-.219.591-.531.773-.938.182-.406.278-.875.289-1.406,0-.531-.091-1-.273-1.406-.183-.406-.44-.719-.773-.938-.333-.219-.724-.328-1.172-.328h-7.906v-4.125h8.25c1.25,0,2.349.281,3.297.844.948.562,1.682,1.357,2.203,2.383.521,1.026.781,2.217.781,3.57s-.261,2.545-.781,3.57c-.521,1.026-1.258,1.82-2.211,2.383s-2.05.844-3.289.844h-8.25v-4.125ZM352.868,685.27l4.578-.719,6.125,10.562h-5.188l-5.516-9.844Z" stroke="#000" stroke-miterlimit="10"/>
      <path d="M365.109,672.395h16.656v4.125h-16.656v-4.125ZM371.297,674.255h4.281v20.859h-4.281v-20.859Z" stroke="#000" stroke-miterlimit="10"/>
    </g>
    <g>
      <rect x="1181.12" y="671.01" width="131" height="25.043" fill="none"/>
      <path d="M1193.84,694.087c-1.256-.692-2.227-1.672-2.914-2.938s-1.031-2.731-1.031-4.398v-6.438c0-1.666.344-3.133,1.031-4.398s1.658-2.244,2.914-2.938c1.255-.692,2.705-1.039,4.352-1.039s3.096.347,4.352,1.039c1.255.693,2.227,1.672,2.914,2.938s1.031,2.732,1.031,4.398v6.438c0,1.667-.344,3.133-1.031,4.398s-1.659,2.245-2.914,2.938c-1.256.693-2.706,1.039-4.352,1.039s-3.097-.346-4.352-1.039ZM1200.223,690.352c.583-.328,1.033-.794,1.352-1.398.317-.604.477-1.302.477-2.094v-6.656c0-.791-.159-1.489-.477-2.094-.318-.604-.769-1.07-1.352-1.398-.584-.328-1.261-.492-2.031-.492s-1.448.164-2.031.492c-.584.328-1.034.795-1.352,1.398-.318.604-.477,1.303-.477,2.094v6.656c0,.792.158,1.49.477,2.094.317.604.768,1.07,1.352,1.398.583.328,1.26.492,2.031.492s1.447-.164,2.031-.492Z" stroke="#000" stroke-miterlimit="10"/>
      <path d="M1211.699,672.173h4.281v22.719h-4.281v-22.719ZM1213.262,672.173h13.359v4.125h-13.359v-4.125ZM1213.262,681.751h11.641v4.125h-11.641v-4.125Z" stroke="#000" stroke-miterlimit="10"/>
      <path d="M1230.894,672.173h4.281v22.719h-4.281v-22.719ZM1232.457,672.173h13.359v4.125h-13.359v-4.125ZM1232.457,681.751h11.641v4.125h-11.641v-4.125Z" stroke="#000" stroke-miterlimit="10"/>
      <path d="M1250.87,699.204h-4.062l10.156-29.719h4.062l-10.156,29.719Z" stroke="#000" stroke-miterlimit="10"/>
      <path d="M1267.604,694.087c-1.256-.692-2.227-1.672-2.914-2.938s-1.031-2.731-1.031-4.398v-6.438c0-1.666.344-3.133,1.031-4.398s1.658-2.244,2.914-2.938c1.255-.692,2.705-1.039,4.352-1.039s3.096.347,4.352,1.039c1.255.693,2.227,1.672,2.914,2.938s1.031,2.732,1.031,4.398v6.438c0,1.667-.344,3.133-1.031,4.398s-1.659,2.245-2.914,2.938c-1.256.693-2.706,1.039-4.352,1.039s-3.097-.346-4.352-1.039ZM1273.987,690.352c.583-.328,1.033-.794,1.352-1.398.317-.604.477-1.302.477-2.094v-6.656c0-.791-.159-1.489-.477-2.094-.318-.604-.769-1.07-1.352-1.398-.584-.328-1.261-.492-2.031-.492s-1.448.164-2.031.492c-.584.328-1.034.795-1.352,1.398-.318.604-.477,1.303-.477,2.094v6.656c0,.792.158,1.49.477,2.094.317.604.768,1.07,1.352,1.398.583.328,1.26.492,2.031.492s1.447-.164,2.031-.492Z" stroke="#000" stroke-miterlimit="10"/>
      <path d="M1285.464,672.173h5.234l8.453,17.406-.375.406v-17.812h4.094v22.703h-5.266l-8.422-17.141.375-.406v17.547h-4.094v-22.703Z" stroke="#000" stroke-miterlimit="10"/>
    </g>
  </g>
  <g id="Scratchpad_-_Light">
    <g>
      <path d="M483.172,697.045v37.593h12.121v3.515h-15.634v-44.62h15.634v3.513h-12.121Z" stroke="#000" stroke-miterlimit="10" stroke-width="1.5"/>
      <path d="M1104.121,693.348v44.62h-15.635v-3.514h12.121v-37.593h-12.121v-3.514h15.635Z" stroke="#000" stroke-miterlimit="10" stroke-width="1.5"/>
    </g>
  </g>
  <g id="MENU_Page_-_Light">
    <g>
      <rect x="432.824" y="216.838" width="221.738" height="52.826" fill="none"/>
      <path d="M438.096,228.516v11.569h9.171v2.822h-9.171v17.072h-2.822v-34.284h21.305v2.822h-18.482Z" stroke="#000" stroke-miterlimit="10" stroke-width="1.5"/>
      <path d="M472.936,257.269v2.822h-9.029v-2.822h3.104v-28.956l-2.206,1.826-1.799-2.174,4.482-3.709h2.344v33.013h3.104Z" stroke="#000" stroke-miterlimit="10" stroke-width="1.5"/>
      <path d="M508.369,245.677l8.149,13.498v.817h-2.111l-.507.306-8.622-14.278c-.062,0-.127.004-.188.004h-7.902v13.968h-2.822v-34.425h10.582c1.628,0,3.239.336,4.666.968,1.53.681,2.776,1.515,3.81,2.549.838.837,1.458,1.923,2.06,2.973l.074.15c.56,1.306.82,2.469.82,3.66,0,1.236-.283,2.55-.82,3.801-.472,1.1-1.251,2.239-2.134,3.122-.816.816-2.135,1.904-3.796,2.458-.416.186-.837.323-1.259.432h0ZM497.188,228.387v14.814h7.902c1.586,0,2.571-.165,3.518-.584,1.016-.346,1.971-.975,2.82-1.824.629-.631,1.204-1.469,1.536-2.24.387-.902.591-1.832.591-2.688,0-.788-.173-1.553-.56-2.476-.52-.908-1.009-1.754-1.566-2.312-.797-.797-1.738-1.422-2.961-1.967-1.066-.473-2.283-.724-3.52-.724h-7.761Z" stroke="#000" stroke-miterlimit="10" stroke-width="1.5"/>
      <path d="M542.544,248.974h-16.783c.16,5.134,3.243,8.183,8.318,8.183,2.539,0,4.349-.453,5.248-.745.85-.419,1.308-.577,1.359-.594l.447,1.339.454,1.336c-.053.018-.417.152-1.094.491l-.184.076c-1.257.419-3.357.918-6.231.918-6.771,0-11.146-4.486-11.146-11.428,0-7.597,3.956-12.133,10.582-12.133,7.423,0,9.029,8.935,9.029,11.146v1.411ZM539.554,246.152c-.466-2.473-2.015-6.913-6.039-6.913-5.23,0-7.091,3.368-7.6,6.913h13.639Z" stroke="#000" stroke-miterlimit="10" stroke-width="1.5"/>
      <path d="M556.007,240.38v13.262c0,1.111.26,2.143.661,2.624.473.552,1.713.903,2.583.903.85,0,1.757-.332,1.767-.334l.236-.089h.678v2.537l.074.195c-.015.005-.04.014-.074.027v.063h-.188c-.464.149-1.454.423-2.493.423-1.546,0-3.612-.588-4.739-1.903-1.197-1.439-1.326-3.587-1.326-4.445v-13.262h-4.232v-2.822h4.232v-6.208h2.822v6.208h6.349v2.822h-6.349Z" stroke="#000" stroke-miterlimit="10" stroke-width="1.5"/>
      <path d="M587.091,256.453c0,.93.138,2.99.138,3.011l-2.816.188c-.005-.089-.144-2.176-.144-3.199v-.197c-.517.66-1.104,1.278-1.772,1.841-1.574,1.227-3.436,1.883-5.281,1.883-2.149,0-4.184-.659-5.444-1.761-1.508-1.321-2.425-3.134-2.727-5.39-.392-1.944-.217-3.624-.152-4.097v-11.609h2.821l-.02,11.942c0,.01-.23,1.488.132,3.302.227,1.67.812,2.859,1.804,3.729.736.645,2.146,1.061,3.586,1.061,1.221,0,2.467-.446,3.507-1.256,2.151-1.811,3.265-4.296,3.265-7.351v-11.428h2.822v11.429c0,.085-.012.167-.014.251l.153-.004s.143,5.81.143,7.652h0Z" stroke="#000" stroke-miterlimit="10" stroke-width="1.5"/>
      <path d="M599.916,238.276c1.536-.854,3.084-.854,4.582-.854v2.822c-1.293,0-2.314,0-3.266.527-.809.405-1.351,1.107-2.029,2.195-1.471,2.504-2.465,4.672-2.465,7.012v10.017h-2.821v-17.918c0-.581-.167-2.953-.278-4.406l2.813-.216c.024.331.224,2.916.274,4.162.022-.036.042-.076.064-.113.776-1.241,1.638-2.484,3.125-3.228h0Z" stroke="#000" stroke-miterlimit="10" stroke-width="1.5"/>
      <path d="M629.12,244.295c.391,1.946.217,3.624.153,4.097v11.61h-2.822l.021-11.942c0-.01.229-1.488-.133-3.301-.226-1.67-.81-2.861-1.803-3.73-.738-.645-2.146-1.061-3.587-1.061-1.221,0-2.467.446-3.508,1.255-2.151,1.813-3.265,4.298-3.265,7.351v11.428h-2.821v-11.428c0-.086.011-.166.013-.251l-.152.004s-.143-5.811-.143-7.653c0-.929-.138-2.988-.138-3.009l2.815-.188c.006.089.144,2.174.144,3.197v.197c.517-.661,1.105-1.278,1.772-1.841,1.577-1.228,3.437-1.883,5.282-1.883,2.149,0,4.184.659,5.443,1.76,1.508,1.321,2.427,3.134,2.728,5.39h0Z" stroke="#000" stroke-miterlimit="10" stroke-width="1.5"/>
    </g>
    <g>
      <rect x="423.062" y="292.631" width="724.243" height="52.826" fill="none"/>
      <path d="M758.34,301.501v34.284h-2.822v-28.712l-6.647,11.923h-3.068l-6.65-11.923v28.712h-2.821v-34.284h2.944l8.061,14.452,8.061-14.452h2.944Z" stroke="#000" stroke-miterlimit="10" stroke-width="1.5"/>
      <path d="M784.361,324.768h-16.784c.161,5.134,3.244,8.183,8.318,8.183,2.54,0,4.349-.453,5.249-.745.849-.419,1.308-.577,1.358-.594l.447,1.339.454,1.336c-.052.018-.416.152-1.094.491l-.183.076c-1.258.419-3.357.918-6.232.918-6.771,0-11.146-4.486-11.146-11.428,0-7.597,3.956-12.133,10.581-12.133,7.423,0,9.03,8.935,9.03,11.146v1.411ZM781.37,321.946c-.466-2.473-2.015-6.913-6.039-6.913-5.229,0-7.091,3.368-7.599,6.913h13.638Z" stroke="#000" stroke-miterlimit="10" stroke-width="1.5"/>
      <path d="M808.953,320.089c.391,1.946.218,3.624.153,4.097v11.61h-2.821l.021-11.942c0-.01.229-1.488-.133-3.301-.227-1.67-.811-2.861-1.804-3.73-.737-.645-2.146-1.061-3.586-1.061-1.221,0-2.467.446-3.508,1.255-2.151,1.813-3.265,4.298-3.265,7.351v11.428h-2.821v-11.428c0-.086.011-.166.013-.251l-.152.004s-.143-5.811-.143-7.653c0-.929-.138-2.988-.138-3.009l2.814-.188c.006.089.145,2.174.145,3.197v.197c.517-.661,1.104-1.278,1.772-1.841,1.577-1.228,3.437-1.883,5.282-1.883,2.148,0,4.183.659,5.442,1.76,1.509,1.321,2.427,3.134,2.728,5.39h0Z" stroke="#000" stroke-miterlimit="10" stroke-width="1.5"/>
      <path d="M833.906,332.247c0,.93.138,2.99.138,3.011l-2.816.188c-.005-.089-.144-2.176-.144-3.199v-.197c-.516.66-1.103,1.278-1.771,1.841-1.575,1.227-3.436,1.883-5.281,1.883-2.15,0-4.185-.659-5.444-1.761-1.509-1.321-2.426-3.134-2.728-5.39-.391-1.944-.216-3.624-.152-4.097v-11.609h2.821l-.02,11.942c0,.01-.23,1.488.133,3.302.226,1.67.812,2.859,1.804,3.729.736.645,2.146,1.061,3.586,1.061,1.22,0,2.466-.446,3.506-1.256,2.151-1.811,3.265-4.296,3.265-7.351v-11.428h2.822v11.429c0,.085-.012.167-.013.251l.152-.004s.143,5.81.143,7.652h0Z" stroke="#000" stroke-miterlimit="10" stroke-width="1.5"/>
    </g>
    <g>
      <rect x="807.562" y="217.088" width="340.738" height="52.826" fill="none"/>
      <path d="M948.95,228.767v11.569h9.172v2.821h-9.172v17.072h-2.821v-34.284h21.305v2.822h-18.483Z" stroke="#000" stroke-miterlimit="10" stroke-width="1.5"/>
      <path d="M994.63,239.893c.535,1.253.818,2.568.818,3.802v6.914c0,1.236-.283,2.549-.818,3.801-.522,1.22-1.387,2.39-2.368,3.208-.757.63-1.929,1.529-3.37,2.071-1.449.543-2.729.796-4.024.796-1.474,0-3.318-.319-4.587-.794-1.408-.529-2.541-1.234-3.465-2.159-.889-.732-1.751-1.902-2.274-3.122-.315-.626-.487-1.307-.636-1.906l-.043-.343v-1.27h2.822v1.096c.113.454.226.855.414,1.234.389.901.965,1.686,1.617,2.229.736.728,1.518,1.208,2.555,1.597.951.355,2.465.615,3.597.615.96,0,1.896-.19,3.032-.617.791-.297,1.604-.804,2.555-1.597.65-.543,1.228-1.329,1.582-2.153.387-.903.591-1.833.591-2.689v-6.914c0-.856-.204-1.786-.591-2.69-.354-.824-.93-1.608-1.582-2.151-.736-.727-1.518-1.208-2.555-1.596l-.432-.167c-.789-.309-1.15-.45-2.601-.45-1.769,0-3.187.378-4.462,1.191-.953.595-1.795,1.438-2.384,2.378l-.415.663h-3.744v-16.366h21.305v2.822h-18.482v9.983c.646-.722,1.394-1.354,2.215-1.868,1.714-1.092,3.671-1.625,5.968-1.625,1.886,0,2.607.244,3.628.643l.395.152c1.408.528,2.541,1.233,3.465,2.158.888.732,1.752,1.9,2.275,3.121h0Z" stroke="#000" stroke-miterlimit="10" stroke-width="1.5"/>
      <path d="M1034.698,228.767v11.569h9.171v2.821h-9.171v17.072h-2.822v-34.284h21.305v2.822h-18.482Z" stroke="#000" stroke-miterlimit="10" stroke-width="1.5"/>
      <path d="M1059.61,260.247v-33.014h2.821v33.014h-2.821Z" stroke="#000" stroke-miterlimit="10" stroke-width="1.5"/>
      <path d="M1068.87,231.47c0-1.636,1.264-2.962,2.822-2.962s2.822,1.327,2.822,2.962-1.264,2.963-2.822,2.963-2.822-1.327-2.822-2.963ZM1070.282,260.253v-22.433h2.821v22.433h-2.821Z" stroke="#000" stroke-miterlimit="10" stroke-width="1.5"/>
      <path d="M1101.523,248.662c0,.807-.075,1.593-.215,2.353-.026.794-.052,1.528-.074,2.203-.077,2.216-.133,3.836-.133,4.897,0,2.133-.523,4.365-.935,5.296-.736,2.421-2.635,3.922-3.656,4.432-2.026,1.25-4.191,1.598-6.026,1.598-1.667,0-3.063-.288-3.847-.447l-.207-.042c-1.215-.242-2.288-.612-3.198-1.1l-.052-.029c-.104-.056-.203-.114-.303-.173l.303-.502v-2.118h.814l.334.202c.703.422,1.597.743,2.655.955l.222.045c1.47.303,4.912,1.009,7.934-.851.575-.295,1.887-1.25,2.346-2.854l.095-.243c.169-.34.698-2.239.698-4.166,0-.305.006-.666.014-1.061-1.847,1.964-4.331,3.177-7.068,3.177-5.678,0-10.299-5.19-10.299-11.569s4.621-11.569,10.299-11.569c2.799,0,5.339,1.266,7.197,3.308.006-1.172.139-3.046.145-3.126l2.814.202c-.002.019-.139,1.939-.139,3.003,0,.725.058,3.894.1,6.061.115.69.183,1.396.183,2.123v-.004ZM1091.222,257.413c3.535,0,6.498-2.887,7.273-6.747.021-.651.043-1.318.065-2.043,0,0-.016-.769-.036-1.832-.735-3.925-3.729-6.874-7.301-6.874-4.124,0-7.478,3.923-7.478,8.747s3.355,8.748,7.478,8.748h-.002Z" stroke="#000" stroke-miterlimit="10" stroke-width="1.5"/>
      <path d="M1125.96,244.473l.022.252v15.378h-2.821v-15.243c-.162-.784-.678-2.477-2.258-3.662-1.604-1.028-3.606-1.275-5.014-.572-1.525.763-2.105,1.584-2.721,2.455l-.146.207c-.452.632-2.137,3.615-2.137,6.658h-.141v10.299h-2.822v-33.155h2.822v14.532l.119-.169c.716-1.012,1.605-2.27,3.764-3.349,2.314-1.158,5.336-.859,7.884.78,1.817,1.359,3.043,3.375,3.446,5.59h.002Z" stroke="#000" stroke-miterlimit="10" stroke-width="1.5"/>
      <path d="M1139.477,240.63v13.262c0,1.111.259,2.143.66,2.624.474.552,1.713.903,2.584.903.85,0,1.757-.332,1.767-.334l.235-.089h.679v2.537l.073.195c-.014.005-.039.014-.073.027v.063h-.188c-.465.149-1.455.423-2.494.423-1.545,0-3.611-.588-4.738-1.903-1.197-1.439-1.326-3.587-1.326-4.445v-13.262h-4.232v-2.822h4.232v-6.208h2.822v6.208h6.348v2.822h-6.348Z" stroke="#000" stroke-miterlimit="10" stroke-width="1.5"/>
    </g>
    <g>
      <rect x="807.562" y="266.455" width="340.738" height="52.826" fill="none"/>
      <path d="M1065.401,275.325v34.284h-2.822v-28.712l-6.648,11.923h-3.068l-6.649-11.923v28.712h-2.822v-34.284h2.945l8.06,14.452,8.061-14.452h2.945Z" stroke="#000" stroke-miterlimit="10" stroke-width="1.5"/>
      <path d="M1092.692,297.733c0,6.536-4.685,11.852-10.441,11.852s-10.44-5.317-10.44-11.852,4.685-11.851,10.44-11.851,10.441,5.316,10.441,11.851ZM1089.87,297.733c0-4.979-3.417-9.03-7.619-9.03s-7.618,4.051-7.618,9.03,3.417,9.03,7.618,9.03,7.619-4.051,7.619-9.03Z" stroke="#000" stroke-miterlimit="10" stroke-width="1.5"/>
      <path d="M1119.842,309.18h-2.821v-.706l-.022-2.655c-1.884,2.316-4.587,3.782-7.596,3.782-5.678,0-10.299-5.19-10.299-11.569s4.621-11.569,10.299-11.569c2.936,0,5.581,1.393,7.459,3.613l-.122-13.899,2.822-.026.282,33.027h-.002ZM1116.881,298.033c0-4.824-3.354-8.747-7.479-8.747s-7.478,3.923-7.478,8.747,3.355,8.748,7.478,8.748,7.479-3.923,7.479-8.748Z" stroke="#000" stroke-miterlimit="10" stroke-width="1.5"/>
      <path d="M1145.86,298.592h-16.783c.16,5.134,3.243,8.183,8.318,8.183,2.539,0,4.349-.453,5.248-.745.85-.419,1.308-.577,1.359-.594l.447,1.339.454,1.336c-.053.018-.417.152-1.094.491l-.184.076c-1.257.419-3.357.918-6.231.918-6.771,0-11.146-4.486-11.146-11.428,0-7.597,3.956-12.133,10.582-12.133,7.422,0,9.029,8.935,9.029,11.146v1.411ZM1142.87,295.77c-.466-2.473-2.015-6.913-6.039-6.913-5.23,0-7.091,3.368-7.6,6.913h13.639Z" stroke="#000" stroke-miterlimit="10" stroke-width="1.5"/>
    </g>
    <g>
      <rect x="430.465" y="349.846" width="394.935" height="52.826" fill="none"/>
      <path d="M435.736,361.525v11.569h9.171v2.822h-9.171v17.072h-2.822v-34.284h21.305v2.822h-18.483Z" stroke="#000" stroke-miterlimit="10" stroke-width="1.5"/>
      <path d="M464.509,390.419h17.444v2.822h-21.304v-2.812l3.709-4.048c1.944-2.166,3.728-4.151,5.421-5.957.841-.841,1.683-1.824,2.497-2.775.851-.992,4.25-4.817,4.25-4.817.385-.388.603-.662.748-.842.086-.109.159-.196.22-.264.414-.526.761-1.192,1.006-1.928.233-.699.352-1.257.352-2.376,0-.961-.199-1.914-.591-2.831-.357-.947-.925-1.629-1.676-2.38-.856-.706-1.668-1.213-2.461-1.51-2.269-.851-3.796-.849-6.062,0-1.039.39-1.82.869-2.462,1.511-.741.741-1.336,1.585-1.676,2.38l-2.593-1.112c.485-1.133,1.273-2.262,2.274-3.263.926-.924,2.059-1.629,3.467-2.157,2.887-1.086,5.151-1.086,8.045,0,1.443.542,2.614,1.442,3.371,2.071.925.918,1.851,1.965,2.393,3.41.521,1.209.796,2.535.796,3.881,0,1.484-.19,2.35-.497,3.269-.354,1.064-.876,2.044-1.507,2.833l-.193.23c-.189.237-.473.591-.899,1.016.003,0-3.322,3.742-4.159,4.718-.849.991-1.727,2.015-2.613,2.901-1.649,1.759-3.418,3.73-5.349,5.879l-1.947,2.151h-.001Z" stroke="#000" stroke-miterlimit="10" stroke-width="1.5"/>
      <path d="M523.974,361.587h-8.889v31.462h-2.821v-31.462h-8.889v-2.822h20.599v2.822Z" stroke="#000" stroke-miterlimit="10" stroke-width="1.5"/>
      <path d="M536.65,371.285c1.537-.854,3.084-.854,4.583-.854v2.822c-1.293,0-2.315,0-3.266.527-.808.405-1.35,1.107-2.029,2.195-1.471,2.504-2.465,4.672-2.465,7.012v10.017h-2.822v-17.918c0-.581-.167-2.953-.278-4.406l2.813-.216c.024.331.223,2.916.274,4.162.022-.036.042-.076.064-.113.776-1.241,1.638-2.484,3.125-3.228h0Z" stroke="#000" stroke-miterlimit="10" stroke-width="1.5"/>
      <path d="M565.198,391.88h-2.822v-.085c-.154-.288-.262-.582-.332-1.123-1.254,1.216-2.83,2.015-4.657,2.319-.343.039-.677.06-1.007.06-1.417,0-2.77-.363-4.477-1.159-.797-.393-2.629-1.302-3.647-3.508-.924-2.217-.516-4.297-.369-4.884.621-3.436,3.256-5.165,4.248-5.814l.147-.096c.382-.289.804-.484,1.144-.64.148-.068.289-.125.409-.207l.275-.144c1.941-.747,4.45-1.112,7.633-1.108-.194-.974-.774-1.784-.93-1.939l-.103-.116c-.823-1.029-1.859-1.37-2.249-1.499-1.065-.291-2.16-.285-3.539.02-1.127.226-2.064.546-2.816.803l-.43.147c-.234.095-.481.22-.698.329-.313.158-.584.288-.854.377l-.893-2.677c.154-.051.305-.134.484-.223.277-.138.594-.296.99-.454l.488-.168c.831-.284,1.864-.636,3.145-.893,1.119-.247,2.876-.523,4.88.022.666.218,2.311.76,3.65,2.402.564.599,1.582,2.126,1.758,4.052l.003,1.115h.003c0,.098.008.3.02.583.069,1.726.107,3.595.04,5.361.006.348.011.712.019,1.051.032,1.685.063,3.262.063,4.716,0,1.575.08,1.924.095,1.979.107.181.233.433.309.892l.02.515v-.004ZM557.001,390.199c1.702-.286,3.085-1.208,4.038-2.731.301-.464.71-1.667.831-4.807-.025-1.388-.047-2.833-.052-4.349-2.744-.061-4.976.287-6.575.875-.196.117-.409.219-.636.323-.262.121-.491.226-.697.381l-.229.153c-.849.556-2.614,1.714-3.039,4.048-.059.252-.399,1.724.196,3.156.582,1.254,1.68,1.798,2.209,2.061,1.917.896,2.927,1,3.952.889h.001Z" stroke="#000" stroke-miterlimit="10" stroke-width="1.5"/>
      <path d="M589.814,377.304c.391,1.946.217,3.624.153,4.097v11.61h-2.822l.02-11.942c.001-.01.23-1.488-.133-3.301-.226-1.67-.81-2.861-1.803-3.73-.738-.645-2.146-1.061-3.587-1.061-1.22,0-2.466.446-3.507,1.255-2.151,1.813-3.265,4.298-3.265,7.351v11.428h-2.822v-11.428c0-.086.011-.166.013-.251l-.152.004s-.143-5.811-.143-7.653c0-.929-.137-2.988-.137-3.009l2.815-.188c.006.089.144,2.174.144,3.197v.197c.517-.661,1.105-1.278,1.772-1.841,1.577-1.228,3.437-1.883,5.282-1.883,2.149,0,4.184.659,5.443,1.76,1.508,1.321,2.427,3.134,2.728,5.39h0Z" stroke="#000" stroke-miterlimit="10" stroke-width="1.5"/>
      <path d="M604.264,379.37c5.587,2.128,6.748,5.046,6.748,7.124,0,3.737-3.421,6.349-8.323,6.349-2.387,0-5.833-1.503-6.216-1.675l1.146-2.578c1.292.576,3.708,1.431,5.071,1.431,3.291,0,5.501-1.418,5.501-3.527,0-2.156-2.651-3.62-4.876-4.467-3.672-1.223-5.563-3.335-5.563-6.257,0-3.857,2.879-6.349,7.337-6.349,3.039,0,3.846.379,4.91.998.21.124.441.259.752.4l-1.168,2.568c-.412-.188-.721-.366-1.001-.529-.661-.384-1.06-.615-3.493-.615-1.686,0-4.515.458-4.515,3.527,0,1.104.419,2.51,3.691,3.6h.001Z" stroke="#000" stroke-miterlimit="10" stroke-width="1.5"/>
      <path d="M630.973,359.774l1.411.423-.812,2.702-1.411-.423c-.567-.109-1.481-.292-2.582-.032-.08.043-.17.091-.271.144-.571.296-1.527.794-2.233,1.765-.321.483-1.142,1.853-1.142,3.121v3.245h6.208v2.822h-6.208v19.47h-2.822v-19.47h-3.668v-2.822h3.668v-3.245c0-1.966,1.031-3.808,1.648-4.732,1.127-1.553,2.504-2.27,3.243-2.655.107-.056.197-.1.257-.138l.406-.183c1.821-.497,3.306-.198,4.104-.037l.2.046h0Z" stroke="#000" stroke-miterlimit="10" stroke-width="1.5"/>
      <path d="M658.419,381.983h-16.784c.161,5.134,3.244,8.183,8.318,8.183,2.54,0,4.349-.453,5.249-.745.849-.419,1.308-.577,1.359-.594l.447,1.339.454,1.336c-.052.018-.417.152-1.094.491l-.183.076c-1.257.419-3.357.918-6.232.918-6.771,0-11.146-4.486-11.146-11.428,0-7.597,3.956-12.133,10.582-12.133,7.423,0,9.03,8.935,9.03,11.146v1.411ZM655.429,379.161c-.466-2.473-2.015-6.913-6.039-6.913-5.23,0-7.091,3.368-7.599,6.913h13.638Z" stroke="#000" stroke-miterlimit="10" stroke-width="1.5"/>
      <path d="M671.104,371.285c1.537-.854,3.084-.854,4.583-.854v2.822c-1.293,0-2.315,0-3.266.527-.808.405-1.35,1.107-2.029,2.195-1.471,2.504-2.465,4.672-2.465,7.012v10.017h-2.822v-17.918c0-.581-.167-2.953-.278-4.406l2.813-.216c.024.331.223,2.916.274,4.162.022-.036.042-.076.064-.113.776-1.241,1.638-2.484,3.125-3.228h0Z" stroke="#000" stroke-miterlimit="10" stroke-width="1.5"/>
    </g>
    <g>
      <rect x="807.562" y="350.096" width="340.738" height="52.826" fill="none"/>
      <path d="M956.544,361.776v11.569h9.171v2.821h-9.171v17.072h-2.821v-34.284h21.305v2.822h-18.483Z" stroke="#000" stroke-miterlimit="10" stroke-width="1.5"/>
      <path d="M1002.613,377.835c.786,1.374.892,2.695.892,3.804v1.27c0,1.194-.261,2.356-.819,3.66l-.072.144c-.645,1.13-1.466,2.114-2.438,2.923-.889.741-2.07,1.39-3.512,1.93-1.174.44-2.535.655-4.164.655-1.394,0-2.751-.292-4.011-.607l-.152-.048c-1.442-.541-2.624-1.191-3.512-1.93-.973-.81-1.792-1.794-2.438-2.923-.785-1.374-.892-2.693-.892-3.804-.01-.196-.276-6.381.738-11.023,1.355-5.868,7.734-12.25,11.82-14.607l1.409,2.443c-3.624,2.091-9.363,7.966-10.476,12.781-.185.844-.321,1.757-.425,2.678.24-.21.492-.412.757-.605.744-.597,2.187-1.421,3.41-1.771,1.229-.353,6.464-.375,7.936.176,1.44.54,2.623,1.191,3.512,1.931.973.81,1.793,1.795,2.438,2.924h-.002ZM1000.686,382.911v-1.27c0-1.075-.146-1.749-.52-2.404-.477-.835-1.081-1.562-1.795-2.156-.636-.531-1.568-1.034-2.696-1.456-.826-.293-5.349-.322-6.174-.106-.811.233-1.913.855-2.466,1.296-1.693,1.243-2.716,2.917-2.716,4.401h-.035c.005.983.033,1.611.033,1.629.002,1.14.146,1.813.521,2.468.479.835,1.082,1.562,1.795,2.156.619.518,1.525,1.01,2.621,1.428,1.062.264,2.186.502,3.247.502,1.283,0,2.32-.155,3.173-.474,1.129-.425,2.062-.927,2.696-1.456.694-.577,1.284-1.28,1.755-2.087.386-.918.559-1.683.559-2.472h.002Z" stroke="#000" stroke-miterlimit="10" stroke-width="1.5"/>
      <path d="M1075.504,361.837h-8.889v31.463h-2.821v-31.463h-8.889v-2.822h20.599v2.822Z" stroke="#000" stroke-miterlimit="10" stroke-width="1.5"/>
      <path d="M1081.903,364.479c0-1.636,1.263-2.962,2.821-2.962s2.822,1.327,2.822,2.962-1.264,2.963-2.822,2.963-2.821-1.327-2.821-2.963ZM1083.314,393.261v-22.433h2.821v22.433h-2.821Z" stroke="#000" stroke-miterlimit="10" stroke-width="1.5"/>
      <path d="M1119.624,377.553c.297,2.243.153,4.039.147,4.114l.005,11.593h-2.822v-11.71c.006-.13.128-1.699-.128-3.623-.236-1.768-.671-2.972-1.366-3.783-.545-.635-1.558-.918-2.315-.918s-1.631.426-2.174,1.06c-1.649,1.886-2.481,4.421-2.481,7.547v11.428h-2.963v-11.71c.007-.13.128-1.699-.129-3.623-.235-1.768-.67-2.972-1.365-3.783-.545-.635-1.558-.918-2.315-.918s-1.631.426-2.175,1.06c-1.648,1.885-2.481,4.42-2.481,7.547v11.428h-2.821v-11.428c0-.096.01-.188.01-.282h-.151v-7.524c-.137-1.081-.141-2.979-.141-3.198h2.821c0,.44.015,1.521.07,2.321.182-.242.363-.482.562-.71,1.071-1.25,2.726-2.033,4.307-2.033,1.365,0,3.253.499,4.457,1.903.515.6.925,1.305,1.253,2.129.402-.714.872-1.383,1.411-2,1.072-1.25,2.726-2.033,4.307-2.033,1.366,0,3.254.499,4.457,1.903,1.067,1.246,1.709,2.913,2.021,5.247l.002-.002Z" stroke="#000" stroke-miterlimit="10" stroke-width="1.5"/>
      <path d="M1145.858,382.233h-16.783c.16,5.134,3.243,8.183,8.318,8.183,2.539,0,4.349-.453,5.248-.745.85-.419,1.308-.577,1.359-.594l.447,1.339.454,1.336c-.053.018-.417.152-1.094.491l-.184.076c-1.257.419-3.357.918-6.231.918-6.771,0-11.146-4.486-11.146-11.428,0-7.597,3.956-12.133,10.582-12.133,7.423,0,9.029,8.935,9.029,11.146v1.411ZM1142.868,379.411c-.466-2.473-2.015-6.913-6.039-6.913-5.23,0-7.091,3.368-7.6,6.913h13.639Z" stroke="#000" stroke-miterlimit="10" stroke-width="1.5"/>
    </g>
    <g>
      <rect x="501.079" y="407.061" width="100.096" height="52.826" fill="none"/>
      <path d="M506.349,418.74v11.569h9.171v2.822h-9.171v17.072h-2.821v-34.284h21.305v2.822h-18.483Z" stroke="#000" stroke-miterlimit="10" stroke-width="1.5"/>
      <path d="M541.702,427.069c5.681,0,10.3,5.189,10.3,11.569s-4.62,11.569-10.3,11.569c-2.931,0-5.572-1.39-7.45-3.604l.114,12.48-2.822.027-.282-31.616h2.822v.705l.024,2.654c1.885-2.318,4.586-3.782,7.594-3.782h0ZM549.181,438.639c0-4.824-3.355-8.747-7.479-8.747s-7.477,3.923-7.477,8.747,3.354,8.748,7.477,8.748,7.479-3.923,7.479-8.748Z" stroke="#000" stroke-miterlimit="10" stroke-width="1.5"/>
      <path d="M558.407,450.22v-33.014h2.822v33.014h-2.822Z" stroke="#000" stroke-miterlimit="10" stroke-width="1.5"/>
      <path d="M585.852,434.519c.391,1.946.217,3.624.153,4.097v11.61h-2.821l.02-11.942c.002-.01.23-1.488-.133-3.301-.226-1.67-.81-2.861-1.803-3.73-.738-.645-2.146-1.061-3.587-1.061-1.22,0-2.466.446-3.507,1.255-2.151,1.813-3.265,4.298-3.265,7.351v11.428h-2.822v-11.428c0-.086.012-.166.013-.251l-.152.004s-.143-5.811-.143-7.653c0-.929-.137-2.988-.137-3.009l2.814-.188c.006.089.145,2.174.145,3.197v.197c.517-.661,1.104-1.278,1.771-1.841,1.577-1.228,3.437-1.883,5.282-1.883,2.149,0,4.184.659,5.443,1.76,1.509,1.321,2.427,3.134,2.728,5.39h0Z" stroke="#000" stroke-miterlimit="10" stroke-width="1.5"/>
    </g>
    <g>
      <rect x="430.465" y="470.811" width="394.935" height="52.826" fill="none"/>
      <path d="M435.736,482.489v11.569h9.171v2.822h-9.171v17.072h-2.822v-34.284h21.305v2.822h-18.483Z" stroke="#000" stroke-miterlimit="10" stroke-width="1.5"/>
      <path d="M481.674,497.345c.533,1.246.794,3.653.794,4.869,0,1.301,0,2.16-.612,4.456-.541,2.157-1.648,3.609-2.482,4.443-.933.931-2.714,2.12-4.182,2.487-1.384.465-3.645.465-4.858.465-1.434,0-3.918-.808-4.93-1.241-1.184-.508-3.406-2.006-4.756-3.206l1.875-2.109c1.181,1.05,3.183,2.373,3.993,2.722.931.399,2.991,1.014,3.818,1.014.979,0,3.017,0,4.069-.351.903-.23,2.245-1.045,2.976-1.776.582-.58,1.357-1.6,1.745-3.153.522-1.958.522-2.52.522-3.749,0-1.252-.287-3.109-.591-3.819-.347-.92-.769-1.62-1.48-2.474-.62-.743-1.295-1.275-2.011-1.582-.887-.381-1.827-.733-2.689-.733h-3.81v-3.073l8.384-9.484h-12.898v-2.822h15.943v3.636l-7.884,8.92h.265c1.375,0,2.693.485,3.801.96,1.127.484,2.16,1.281,3.067,2.369.918,1.101,1.496,2.067,1.932,3.229h-.001Z" stroke="#000" stroke-miterlimit="10" stroke-width="1.5"/>
      <path d="M526.017,481.078v32.874h-2.822v-14.955h-16.507v14.955h-2.822v-32.874h2.822v15.097h16.507v-15.097h2.822Z" stroke="#000" stroke-miterlimit="10" stroke-width="1.5"/>
      <path d="M532.432,485.193c0-1.636,1.263-2.963,2.822-2.963s2.822,1.327,2.822,2.963-1.263,2.963-2.822,2.963-2.822-1.327-2.822-2.963ZM533.843,513.975v-22.433h2.822v22.433h-2.822Z" stroke="#000" stroke-miterlimit="10" stroke-width="1.5"/>
      <path d="M565.085,502.385c0,.807-.075,1.593-.215,2.353-.026.794-.052,1.528-.074,2.203-.077,2.216-.133,3.836-.133,4.897,0,2.133-.523,4.365-.934,5.296-.736,2.421-2.635,3.922-3.657,4.432-2.026,1.25-4.191,1.599-6.026,1.599-1.667,0-3.064-.288-3.846-.447l-.207-.042c-1.215-.242-2.289-.612-3.199-1.1l-.052-.029c-.103-.056-.203-.114-.302-.173l.302-.502v-2.118h.814l.334.202c.704.422,1.597.743,2.656.955l.221.045c1.47.303,4.913,1.009,7.934-.851.576-.295,1.888-1.25,2.346-2.854l.095-.243c.169-.34.698-2.239.698-4.166,0-.305.006-.666.014-1.061-1.847,1.964-4.332,3.177-7.069,3.177-5.678,0-10.299-5.19-10.299-11.569s4.621-11.569,10.299-11.569c2.799,0,5.339,1.266,7.197,3.308.005-1.172.138-3.046.144-3.126l2.814.202c-.001.019-.138,1.939-.138,3.003,0,.725.058,3.894.1,6.061.114.69.182,1.396.182,2.123v-.004ZM554.784,511.136c3.535,0,6.498-2.887,7.273-6.747.022-.651.043-1.318.065-2.043,0,0-.016-.769-.037-1.832-.735-3.925-3.728-6.874-7.3-6.874-4.124,0-7.478,3.923-7.478,8.747s3.355,8.748,7.478,8.748h-.001Z" stroke="#000" stroke-miterlimit="10" stroke-width="1.5"/>
      <path d="M589.521,498.196l.022.252v15.378h-2.822v-15.243c-.161-.784-.678-2.477-2.258-3.662-1.604-1.028-3.606-1.275-5.013-.572-1.525.763-2.106,1.584-2.722,2.455l-.146.207c-.452.632-2.136,3.615-2.136,6.658h-.141v10.299h-2.822v-33.155h2.822v14.532l.12-.169c.715-1.012,1.605-2.27,3.763-3.349,2.315-1.158,5.336-.859,7.884.78,1.817,1.359,3.043,3.375,3.447,5.59h.001Z" stroke="#000" stroke-miterlimit="10" stroke-width="1.5"/>
    </g>
    <g>
      <rect x="807.562" y="471.061" width="340.738" height="52.826" fill="none"/>
      <path d="M958.749,482.74v11.569h9.171v2.821h-9.171v17.072h-2.821v-34.284h21.305v2.822h-18.483Z" stroke="#000" stroke-miterlimit="10" stroke-width="1.5"/>
      <path d="M1004.683,478.479v3.992l-14.532,30.05v.382h-2.822v-1.029l14.532-30.05v-.523h-18.2v-2.822h21.022Z" stroke="#000" stroke-miterlimit="10" stroke-width="1.5"/>
      <path d="M1078.091,491.477v9.735c0,1.931-.329,3.771-.948,5.32-.588,1.624-1.506,3.079-2.709,4.283-.91,1.067-2.075,1.905-3.396,2.413-1.301.641-2.63.964-3.952.964h-11.005v-35.836h11.005c1.459,0,2.818.325,4.158.995,1.384.693,2.495,1.543,3.404,2.602.899.896,1.717,2.256,2.495,4.205.643,1.764.947,3.491.947,5.32ZM1075.268,491.477c0-1.515-.242-2.887-.762-4.314-.616-1.539-1.234-2.599-1.93-3.294-.741-.858-1.542-1.466-2.597-1.994-.95-.475-1.87-.697-2.895-.697h-8.184v30.193h8.184c.902,0,1.83-.236,2.755-.698l.136-.06c.911-.34,1.691-.901,2.388-1.712.983-.991,1.679-2.098,2.143-3.374.497-1.243.762-2.76.762-4.314v-9.735Z" stroke="#000" stroke-miterlimit="10" stroke-width="1.5"/>
      <path d="M1102.029,513.094h-2.822v-.085c-.153-.288-.262-.582-.331-1.123-1.255,1.216-2.83,2.015-4.657,2.319-.343.039-.677.059-1.008.059-1.416,0-2.77-.362-4.477-1.159-.797-.393-2.629-1.302-3.647-3.508-.924-2.217-.516-4.297-.369-4.885.621-3.436,3.257-5.164,4.248-5.814l.147-.096c.382-.289.804-.484,1.144-.64.148-.068.289-.125.409-.207l.275-.144c1.941-.747,4.45-1.112,7.633-1.108-.194-.974-.774-1.784-.931-1.939l-.103-.116c-.822-1.029-1.859-1.37-2.249-1.499-1.065-.291-2.159-.285-3.538.02-1.128.226-2.064.545-2.816.802l-.431.147c-.233.095-.48.22-.698.329-.312.158-.584.288-.854.377l-.893-2.677c.153-.051.305-.134.484-.223.277-.138.594-.296.99-.454l.487-.168c.831-.284,1.864-.636,3.146-.893,1.119-.247,2.876-.523,4.88.022.666.218,2.311.76,3.65,2.402.564.599,1.581,2.126,1.758,4.052l.003,1.115h.003c0,.098.008.299.02.583.069,1.725.107,3.595.039,5.361.006.348.012.712.019,1.051.032,1.685.063,3.262.063,4.715,0,1.575.079,1.924.095,1.979.107.181.232.434.309.892l.02.515.002-.004ZM1093.832,511.415c1.702-.287,3.085-1.208,4.038-2.732.301-.464.71-1.667.831-4.807-.025-1.388-.047-2.833-.053-4.349-2.744-.061-4.976.287-6.574.875-.196.117-.409.219-.637.323-.262.122-.491.226-.696.381l-.229.153c-.849.556-2.614,1.714-3.039,4.048-.059.252-.398,1.724.196,3.156.582,1.254,1.681,1.798,2.21,2.061,1.917.896,2.927,1,3.952.889h0Z" stroke="#000" stroke-miterlimit="10" stroke-width="1.5"/>
      <path d="M1115.515,494.603v13.262c0,1.111.26,2.143.661,2.624.474.552,1.713.903,2.584.903.85,0,1.757-.332,1.767-.334l.235-.089h.679v2.537l.073.195c-.014.005-.039.014-.073.027v.063h-.189c-.464.149-1.454.423-2.493.423-1.546,0-3.611-.588-4.738-1.903-1.198-1.439-1.326-3.587-1.326-4.445v-13.262h-4.233v-2.822h4.233v-6.208h2.821v6.208h6.349v2.822h-6.349Z" stroke="#000" stroke-miterlimit="10" stroke-width="1.5"/>
      <path d="M1145.834,513.094h-2.821v-.085c-.154-.288-.263-.582-.332-1.123-1.254,1.216-2.83,2.015-4.657,2.319-.343.039-.677.059-1.007.059-1.417,0-2.77-.362-4.477-1.159-.798-.393-2.629-1.302-3.647-3.508-.924-2.217-.517-4.297-.369-4.885.62-3.436,3.256-5.164,4.248-5.814l.146-.096c.382-.289.804-.484,1.145-.64.147-.068.289-.125.408-.207l.275-.144c1.941-.747,4.45-1.112,7.633-1.108-.194-.974-.774-1.784-.93-1.939l-.103-.116c-.823-1.029-1.859-1.37-2.249-1.499-1.065-.291-2.16-.285-3.539.02-1.127.226-2.063.545-2.816.802l-.43.147c-.234.095-.481.22-.698.329-.313.158-.584.288-.854.377l-.894-2.677c.154-.051.305-.134.484-.223.278-.138.594-.296.99-.454l.488-.168c.831-.284,1.863-.636,3.145-.893,1.119-.247,2.877-.523,4.881.022.666.218,2.311.76,3.649,2.402.564.599,1.582,2.126,1.758,4.052l.003,1.115h.003c0,.098.009.299.02.583.069,1.725.107,3.595.04,5.361.006.348.011.712.019,1.051.032,1.685.062,3.262.062,4.715,0,1.575.08,1.924.095,1.979.107.181.233.434.31.892l.02.515v-.004ZM1137.638,511.415c1.701-.287,3.085-1.208,4.037-2.732.301-.464.71-1.667.831-4.807-.025-1.388-.046-2.833-.052-4.349-2.744-.061-4.977.287-6.575.875-.195.117-.409.219-.636.323-.263.122-.491.226-.697.381l-.229.153c-.85.556-2.614,1.714-3.039,4.048-.059.252-.399,1.724.196,3.156.581,1.254,1.68,1.798,2.209,2.061,1.918.896,2.928,1,3.952.889h.002Z" stroke="#000" stroke-miterlimit="10" stroke-width="1.5"/>
    </g>
    <g>
      <rect x="501.079" y="534.56" width="157.316" height="52.826" fill="none"/>
      <path d="M524.859,549.928c.559,1.301.819,2.465.819,3.66,0,1.24-.283,2.554-.819,3.803-.472,1.097-1.249,2.236-2.134,3.12-.815.816-2.135,1.904-3.795,2.458-1.544.691-3.335.777-4.539.777h-8.04v13.968h-2.822v-34.425h10.723c1.697,0,3.179.308,4.666.968,1.528.681,2.773,1.515,3.81,2.549.885.884,1.662,2.022,2.133,3.123h0ZM522.268,556.278c.387-.9.592-1.83.592-2.689,0-.812-.183-1.597-.592-2.548-.326-.76-.914-1.618-1.535-2.239-.799-.797-1.739-1.422-2.961-1.966-1.128-.501-2.212-.725-3.52-.725h-7.9v14.814h8.04c1.525,0,2.609-.179,3.52-.584,1.016-.346,1.971-.975,2.82-1.824.622-.622,1.21-1.479,1.535-2.239h0Z" stroke="#000" stroke-miterlimit="10" stroke-width="1.5"/>
      <path d="M538.372,555.999c1.536-.854,3.084-.854,4.582-.854v2.822c-1.293,0-2.314,0-3.266.527-.809.405-1.351,1.107-2.029,2.195-1.471,2.504-2.465,4.671-2.465,7.012v10.017h-2.821v-17.918c0-.581-.167-2.953-.278-4.406l2.813-.216c.024.331.223,2.917.274,4.162.022-.036.042-.076.064-.113.776-1.241,1.638-2.484,3.125-3.228h0Z" stroke="#000" stroke-miterlimit="10" stroke-width="1.5"/>
      <path d="M569.003,566.697h-16.784c.161,5.134,3.244,8.183,8.318,8.183,2.54,0,4.349-.453,5.249-.745.849-.419,1.308-.577,1.358-.594l.447,1.339.454,1.336c-.052.018-.416.152-1.094.491l-.183.076c-1.258.419-3.357.918-6.232.918-6.771,0-11.146-4.486-11.146-11.428,0-7.597,3.956-12.133,10.581-12.133,7.423,0,9.03,8.935,9.03,11.146v1.411ZM566.012,563.875c-.466-2.473-2.015-6.913-6.039-6.913-5.229,0-7.091,3.368-7.599,6.913h13.638Z" stroke="#000" stroke-miterlimit="10" stroke-width="1.5"/>
      <path d="M592.051,573.727l1.146,2.579-.78.346c-.653.992-2.568,1.045-5.859,1.045-6.771,0-11.146-4.542-11.146-11.569,0-7.173,4.82-11.992,11.993-11.992,1.552,0,3.689.267,4.582.714.511.255,1.148.51,1.163.516l-1.05,2.619s-.765-.308-1.376-.613c-.324-.145-1.838-.416-3.319-.416-5.572,0-9.171,3.599-9.171,9.17,0,5.477,3.112,8.748,8.324,8.748,2.191,0,3.191-.082,3.636-.144.2-.244.463-.405.714-.489l1.145-.515h0Z" stroke="#000" stroke-miterlimit="10" stroke-width="1.5"/>
      <path d="M599.616,574.526c0-1.636,1.264-2.963,2.822-2.963s2.821,1.327,2.821,2.963-1.263,2.963-2.821,2.963-2.822-1.326-2.822-2.963Z" stroke="#000" stroke-miterlimit="10" stroke-width="1.5"/>
    </g>
    <g>
      <rect x="807.562" y="535.177" width="340.738" height="52.826" fill="none"/>
      <path d="M1036.534,553.697v1.857l-18.201,18.061v.399l-.416.014-.015-.014h-2.392v-1.576l18.202-18.059v-.682h2.821Z" stroke="#000" stroke-miterlimit="10" stroke-width="1.5"/>
      <path d="M1060.933,573.463c.856-.646,1.597-1.466,2.266-2.537l2.394,1.496c-.849,1.357-1.84,2.451-3.031,3.345-.994.666-2.23,1.284-3.453,1.744-1.392.464-2.663.655-4.307.655-1.746,0-3.113-.208-4.305-.653-1.225-.408-2.341-.989-3.569-1.866-1.222-.761-2.278-1.933-2.981-3.34-.652-1.301-.996-2.788-.996-4.299v-15.379c0-1.785.574-3.176,1.136-4.299.915-1.474,1.905-2.568,3.097-3.461.992-.665,2.229-1.284,3.454-1.744,1.386-.463,2.658-.653,4.305-.653,1.748,0,3.115.209,4.305.655,1.224.406,2.339.986,3.569,1.865,1.326.996,2.32,2.16,2.981,3.48l-2.524,1.263c-.463-.927-1.176-1.756-2.123-2.466-.979-.698-1.837-1.147-2.845-1.483-.913-.341-1.966-.492-3.363-.492-1.342,0-2.317.143-3.364.492-.982.37-2.008.882-2.766,1.387-.857.645-1.598,1.466-2.268,2.537-.438.89-.773,1.792-.773,2.92v15.377c0,1.075.241,2.125.697,3.036.479.957,1.16,1.716,2.025,2.257,1.077.766,1.935,1.216,2.943,1.552.913.341,1.967.492,3.363.492,1.34,0,2.314-.143,3.364-.492.98-.369,2.007-.882,2.767-1.387l.003-.003Z" stroke="#000" stroke-miterlimit="10" stroke-width="1.5"/>
      <path d="M1093.085,566.455c0,6.536-4.685,11.852-10.441,11.852s-10.44-5.317-10.44-11.852,4.685-11.851,10.44-11.851,10.441,5.316,10.441,11.851ZM1090.263,566.455c0-4.979-3.418-9.03-7.619-9.03s-7.619,4.051-7.619,9.03,3.418,9.03,7.619,9.03,7.619-4.051,7.619-9.03Z" stroke="#000" stroke-miterlimit="10" stroke-width="1.5"/>
      <path d="M1109.936,555.184c5.681,0,10.3,5.189,10.3,11.569s-4.62,11.569-10.3,11.569c-2.932,0-5.572-1.39-7.451-3.604l.115,12.48-2.822.027-.282-31.616h2.822v.705l.024,2.654c1.885-2.318,4.586-3.782,7.594-3.782h0ZM1117.415,566.755c0-4.824-3.355-8.747-7.479-8.747s-7.477,3.923-7.477,8.747,3.354,8.748,7.477,8.748,7.479-3.923,7.479-8.748Z" stroke="#000" stroke-miterlimit="10" stroke-width="1.5"/>
      <path d="M1143.232,555.907h2.599v.667l-.082.229c-.271.76-6.646,18.666-7.213,20.085-.279.693-1.305,3.118-2.852,5.244-1.336,1.837-2.961,3.843-4.884,4.805-1.741.868-2.909,1.31-2.957,1.328l-.993-2.642c.012-.004,1.092-.413,2.688-1.21,1.389-.694,2.793-2.47,3.863-3.941.515-.708.99-1.508,1.408-2.289l-8.168-21.597v-.68h2.529l.202-.077,7.05,18.639c1.301-3.566,4.65-12.95,6.585-18.384l.063-.179c.007-.019.014-.034.019-.051l.143.051h0Z" stroke="#000" stroke-miterlimit="10" stroke-width="1.5"/>
    </g>
    <g>
      <rect x="430.465" y="592.025" width="394.935" height="52.826" fill="none"/>
      <path d="M435.736,603.704v11.569h9.171v2.821h-9.171v17.072h-2.822v-34.284h21.305v2.821h-18.483Z" stroke="#000" stroke-miterlimit="10" stroke-width="1.5"/>
      <path d="M478.143,623.993h3.809v2.821h-3.809v7.055h-2.822v-7.055h-14.673v-3.071l14.579-24.3h2.915v24.55ZM475.32,604.771l-11.533,19.22h11.533v-19.22Z" stroke="#000" stroke-miterlimit="10" stroke-width="1.5"/>
      <path d="M526.258,621.199c.417,1.106.82,2.438.82,4.363,0,1.995-.216,3.428-.679,4.507-.552,1.475-1.29,2.545-2.232,3.218-.879.833-2.062,1.37-3.438,1.562-1.139.308-2.232.308-3.386.308h-13.686v-17.193l-.282-.282v-18.502h13.402c1.164,0,2.294.172,3.268.495,1.169.333,2.369,1.03,3.232,1.894.883.883,1.662,2.021,2.133,3.12.418,1.112.82,2.444.82,4.367,0,1.903-.208,3.344-.635,4.4-.34,1.262-1.113,2.477-2.09,3.282-.192.188-.397.351-.606.506.365.251.704.507.99.745.983.818,1.846,1.988,2.369,3.208v.002ZM506.197,602.001v13.683h11.147c.411,0,.824.046,1.236.089.316-.03.611-.074.858-.156l.271-.061c.783-.098,1.356-.365,1.858-.868l.117-.104c.417-.334.985-1.038,1.205-1.92l.072-.214c.299-.696.45-1.837.45-3.394,0-1.469-.296-2.462-.617-3.315-.302-.698-.89-1.557-1.511-2.177-.527-.528-1.302-.974-2.071-1.194-.737-.244-1.582-.368-2.434-.368h-10.582ZM523.781,629.019c.323-.756.474-1.899.474-3.455,0-1.47-.295-2.461-.615-3.312-.329-.765-.906-1.55-1.558-2.093-.847-.705-1.494-1.088-2.165-1.279-.421-.122-.845-.211-1.268-.272-.56.042-1.136.044-1.73.044h-10.44v13.686h10.864c1.071,0,1.919,0,2.716-.229l.213-.044c.846-.105,1.538-.406,1.999-.868l.214-.176c.49-.326.913-.98,1.295-2.002h0Z" stroke="#000" stroke-miterlimit="10" stroke-width="1.5"/>
      <path d="M555.52,612.441v9.735c0,1.932-.329,3.771-.948,5.32-.588,1.624-1.506,3.079-2.709,4.283-.91,1.067-2.076,1.905-3.396,2.413-1.301.641-2.63.964-3.952.964h-11.005v-35.837h11.005c1.459,0,2.819.325,4.158.995,1.384.692,2.496,1.543,3.404,2.602.9.896,1.717,2.256,2.496,4.204.642,1.764.947,3.491.947,5.32ZM552.698,612.441c0-1.515-.243-2.887-.762-4.314-.617-1.539-1.234-2.599-1.93-3.294-.741-.858-1.542-1.466-2.596-1.994-.951-.475-1.871-.696-2.895-.696h-8.183v30.192h8.183c.903,0,1.83-.235,2.755-.698l.136-.06c.911-.34,1.691-.901,2.387-1.712.983-.991,1.679-2.099,2.143-3.374.497-1.243.762-2.76.762-4.314v-9.735Z" stroke="#000" stroke-miterlimit="10" stroke-width="1.5"/>
      <path d="M584.081,602.293v32.874h-2.822v-14.955h-16.507v14.955h-2.822v-32.874h2.822v15.097h16.507v-15.097h2.822Z" stroke="#000" stroke-miterlimit="10" stroke-width="1.5"/>
      <path d="M600.231,602.302v30.193h6.913v2.821h-16.648v-2.821h6.914v-30.193h-6.914v-2.821h16.648v2.821h-6.913Z" stroke="#000" stroke-miterlimit="10" stroke-width="1.5"/>
      <path d="M649.699,621.189c.612,1.213.907,2.407.907,3.547,0,3.039-1.115,5.535-3.315,7.42-2.056,1.899-4.656,2.88-7.689,2.88h-.282c-2.86,0-5.495-1.018-7.832-3.021-1.826-1.545-2.361-2.91-2.749-3.906-.058-.145-.111-.284-.169-.419l2.593-1.113c.069.161.135.329.205.504.326.834.663,1.696,1.951,2.785,1.844,1.583,3.805,2.348,6.002,2.348h.282c2.333,0,4.237-.708,5.814-2.165,1.63-1.397,2.369-3.073,2.369-5.312,0-.694-.198-1.473-.557-2.191-.309-.506-.758-1.175-1.354-1.573-.686-.541-1.566-1.049-2.454-1.429-.576-.247-1.223-.446-1.974-.676-.416-.129-.851-.263-1.302-.412l-4.149-1.104c-2.236-.688-3.849-1.722-4.981-3.178-1.229-1.578-1.851-3.436-1.851-5.521,0-2.581,1.071-4.795,3.18-6.581,2.005-1.851,4.28-2.732,7.121-2.732h.281c2.853.165,5.234,1.143,7.162,2.909,1.464,1.301,2.351,2.856,2.692,4.739l-2.778.502c-.23-1.271-.786-2.242-1.805-3.147-1.452-1.331-3.25-2.062-5.354-2.186l-.199.003c-2.115,0-3.736.625-5.251,2.024-1.514,1.284-2.228,2.731-2.228,4.467,0,1.445.423,2.719,1.255,3.79.776.997,1.899,1.695,3.535,2.199l4.182,1.114c.512.167.924.294,1.319.415.795.244,1.545.475,2.26.78,1.125.481,2.219,1.117,3.006,1.747.962.636,1.64,1.622,2.162,2.493h-.003Z" stroke="#000" stroke-miterlimit="10" stroke-width="1.5"/>
      <path d="M664.091,615.567v13.263c0,1.111.259,2.143.661,2.624.473.552,1.713.902,2.583.902.85,0,1.757-.331,1.767-.334l.235-.089h.679v2.536l.074.195c-.014.006-.04.015-.074.027v.062h-.189c-.464.149-1.454.424-2.493.424-1.546,0-3.612-.589-4.739-1.903-1.198-1.439-1.326-3.588-1.326-4.445v-13.263h-4.233v-2.822h4.233v-6.208h2.822v6.208h6.349v2.822h-6.349Z" stroke="#000" stroke-miterlimit="10" stroke-width="1.5"/>
      <path d="M696.493,624.162h-16.784c.161,5.134,3.244,8.183,8.318,8.183,2.54,0,4.349-.453,5.249-.745.849-.419,1.308-.576,1.359-.594l.447,1.339.454,1.337c-.052.018-.417.152-1.094.49l-.183.076c-1.257.42-3.357.919-6.232.919-6.771,0-11.146-4.486-11.146-11.429,0-7.597,3.956-12.133,10.582-12.133,7.423,0,9.03,8.935,9.03,11.146v1.411ZM693.502,621.34c-.466-2.473-2.015-6.913-6.039-6.913-5.23,0-7.091,3.368-7.599,6.913h13.638Z" stroke="#000" stroke-miterlimit="10" stroke-width="1.5"/>
      <path d="M722.512,624.162h-16.784c.161,5.134,3.244,8.183,8.318,8.183,2.54,0,4.349-.453,5.249-.745.849-.419,1.308-.576,1.359-.594l.447,1.339.454,1.337c-.052.018-.417.152-1.094.49l-.183.076c-1.257.42-3.357.919-6.232.919-6.771,0-11.146-4.486-11.146-11.429,0-7.597,3.956-12.133,10.582-12.133,7.422,0,9.03,8.935,9.03,11.146v1.411ZM719.521,621.34c-.466-2.473-2.015-6.913-6.039-6.913-5.23,0-7.091,3.368-7.599,6.913h13.638Z" stroke="#000" stroke-miterlimit="10" stroke-width="1.5"/>
      <path d="M735.196,613.464c1.537-.854,3.085-.854,4.583-.854v2.822c-1.294,0-2.315,0-3.267.527-.808.404-1.35,1.107-2.028,2.195-1.472,2.504-2.465,4.672-2.465,7.012v10.018h-2.822v-17.919c0-.581-.167-2.952-.278-4.405l2.813-.216c.024.331.223,2.916.274,4.161.022-.036.042-.075.064-.112.776-1.241,1.638-2.484,3.125-3.228v-.002Z" stroke="#000" stroke-miterlimit="10" stroke-width="1.5"/>
      <path d="M746.216,606.408c0-1.636,1.264-2.963,2.822-2.963s2.821,1.327,2.821,2.963-1.263,2.963-2.821,2.963-2.822-1.326-2.822-2.963ZM747.627,635.19v-22.433h2.822v22.433h-2.822Z" stroke="#000" stroke-miterlimit="10" stroke-width="1.5"/>
      <path d="M776.454,619.483c.391,1.945.217,3.624.153,4.097v11.61h-2.821l.02-11.942c.002-.01.23-1.488-.133-3.301-.226-1.67-.81-2.861-1.803-3.73-.738-.645-2.146-1.061-3.587-1.061-1.22,0-2.466.445-3.507,1.255-2.151,1.813-3.265,4.298-3.265,7.351v11.429h-2.822v-11.429c0-.086.012-.166.013-.251l-.152.004s-.143-5.811-.143-7.653c0-.929-.137-2.988-.137-3.009l2.814-.188c.006.089.145,2.174.145,3.197v.197c.517-.66,1.104-1.278,1.771-1.841,1.577-1.228,3.437-1.884,5.282-1.884,2.149,0,4.184.659,5.443,1.761,1.509,1.321,2.427,3.134,2.728,5.39h0Z" stroke="#000" stroke-miterlimit="10" stroke-width="1.5"/>
      <path d="M803.711,623.599c0,.807-.074,1.593-.214,2.353-.026.795-.053,1.528-.075,2.203-.076,2.216-.133,3.836-.133,4.896,0,2.134-.522,4.365-.934,5.297-.736,2.421-2.636,3.922-3.657,4.432-2.025,1.25-4.19,1.599-6.025,1.599-1.668,0-3.064-.288-3.847-.447l-.207-.043c-1.215-.242-2.288-.612-3.198-1.1l-.053-.029c-.103-.056-.202-.113-.302-.173l.302-.502v-2.118h.814l.334.202c.704.422,1.598.743,2.656.955l.221.045c1.471.303,4.913,1.009,7.934-.851.575-.295,1.888-1.25,2.347-2.854l.095-.243c.169-.34.697-2.238.697-4.166,0-.305.006-.665.015-1.061-1.847,1.964-4.332,3.177-7.068,3.177-5.679,0-10.3-5.19-10.3-11.569s4.621-11.568,10.3-11.568c2.799,0,5.338,1.266,7.196,3.308.006-1.172.139-3.046.145-3.126l2.814.201c-.002.019-.139,1.939-.139,3.003,0,.726.059,3.894.101,6.062.114.689.182,1.396.182,2.123v-.004ZM793.41,632.35c3.535,0,6.498-2.887,7.273-6.746.021-.651.042-1.318.064-2.043,0,0-.016-.77-.036-1.832-.735-3.925-3.728-6.873-7.3-6.873-4.124,0-7.478,3.923-7.478,8.747s3.355,8.747,7.478,8.747h-.002Z" stroke="#000" stroke-miterlimit="10" stroke-width="1.5"/>
    </g>
  </g>
</svg>