<?xml version="1.0" encoding="UTF-8"?>
<svg xmlns="http://www.w3.org/2000/svg" width="1251.196" height="990.293" viewBox="0 0 1251.196 990.293">
  <g id="CDNU_-_BODY_-_Dark" opacity=".3">
    <rect x="4.858" y="-611.087" width="1242" height="1596" rx="17.716" ry="17.716" fill="none" stroke="#ccc" stroke-miterlimit="10" stroke-width="10"/>
    <polygon points="84.859 -609.587 84.859 -437.022 6.641 -437.022 6.641 -115.587 84.859 -115.587 84.859 131.413 6.641 131.413 6.641 817.913 84.859 817.913 84.859 983.413 1164.12 983.413 1164.12 817.891 1239.359 817.891 1239.359 134.913 1164.359 134.913 1164.359 -115.087 1239.359 -115.087 1239.359 -441.717 1164.359 -441.717 1164.359 -609.587 84.859 -609.587" fill="none" stroke="#ccc" stroke-miterlimit="10" stroke-width="10"/>
    <rect x="148.359" y="22.868" width="83" height="91" fill="none" stroke="#ccc" stroke-miterlimit="10" stroke-width="5"/>
    <rect x="140.359" y="13.368" width="101" height="110" rx="11.255" ry="11.255" fill="none" stroke="#ccc" stroke-miterlimit="10" stroke-width="5"/>
    <rect x="272.359" y="22.868" width="83" height="91" fill="none" stroke="#ccc" stroke-miterlimit="10" stroke-width="5"/>
    <rect x="264.359" y="13.368" width="101" height="110" rx="11.255" ry="11.255" fill="none" stroke="#ccc" stroke-miterlimit="10" stroke-width="5"/>
    <rect x="396.359" y="22.868" width="83" height="91" fill="none" stroke="#ccc" stroke-miterlimit="10" stroke-width="5"/>
    <rect x="388.359" y="13.368" width="101" height="110" rx="11.255" ry="11.255" fill="none" stroke="#ccc" stroke-miterlimit="10" stroke-width="5"/>
    <rect x="520.359" y="22.868" width="83" height="91" fill="none" stroke="#ccc" stroke-miterlimit="10" stroke-width="5"/>
    <rect x="512.359" y="13.368" width="101" height="110" rx="11.255" ry="11.255" fill="none" stroke="#ccc" stroke-miterlimit="10" stroke-width="5"/>
    <rect x="642.359" y="22.868" width="83" height="91" fill="none" stroke="#ccc" stroke-miterlimit="10" stroke-width="5"/>
    <rect x="634.359" y="13.368" width="101" height="110" rx="11.255" ry="11.255" fill="none" stroke="#ccc" stroke-miterlimit="10" stroke-width="5"/>
    <rect x="769.359" y="22.868" width="83" height="91" fill="none" stroke="#ccc" stroke-miterlimit="10" stroke-width="5"/>
    <rect x="761.359" y="13.368" width="101" height="110" rx="11.255" ry="11.255" fill="none" stroke="#ccc" stroke-miterlimit="10" stroke-width="5"/>
    <rect x="889.359" y="22.868" width="83" height="91" fill="none" stroke="#ccc" stroke-miterlimit="10" stroke-width="5"/>
    <rect x="881.359" y="13.368" width="101" height="110" rx="11.255" ry="11.255" fill="none" stroke="#ccc" stroke-miterlimit="10" stroke-width="5"/>
    <rect x="1014.359" y="22.868" width="83" height="91" fill="none" stroke="#ccc" stroke-miterlimit="10" stroke-width="5"/>
    <rect x="1006.359" y="13.368" width="101" height="110" rx="11.255" ry="11.255" fill="none" stroke="#ccc" stroke-miterlimit="10" stroke-width="5"/>
    <circle cx="127.859" cy="204.413" r="36.5" fill="none" stroke="#ccc" stroke-miterlimit="10" stroke-width="5"/>
    <circle cx="257.859" cy="204.413" r="36.5" fill="none" stroke="#ccc" stroke-miterlimit="10" stroke-width="5"/>
    <circle cx="387.859" cy="204.413" r="36.5" fill="none" stroke="#ccc" stroke-miterlimit="10" stroke-width="5"/>
    <circle cx="127.53" cy="336.408" r="36.5" fill="none" stroke="#ccc" stroke-miterlimit="10" stroke-width="5"/>
    <circle cx="257.53" cy="336.408" r="36.5" fill="none" stroke="#ccc" stroke-miterlimit="10" stroke-width="5"/>
    <circle cx="387.53" cy="336.408" r="36.5" fill="none" stroke="#ccc" stroke-miterlimit="10" stroke-width="5"/>
    <circle cx="127.528" cy="465.411" r="36.5" fill="none" stroke="#ccc" stroke-miterlimit="10" stroke-width="5"/>
    <circle cx="257.528" cy="465.411" r="36.5" fill="none" stroke="#ccc" stroke-miterlimit="10" stroke-width="5"/>
    <circle cx="387.528" cy="465.411" r="36.5" fill="none" stroke="#ccc" stroke-miterlimit="10" stroke-width="5"/>
    <circle cx="257.529" cy="599.323" r="36.5" fill="none" stroke="#ccc" stroke-miterlimit="10" stroke-width="5"/>
    <rect x="77" y="148.949" width="101" height="110" rx="7.459" ry="7.459" fill="none" stroke="#ccc" stroke-miterlimit="10" stroke-width="5"/>
    <rect x="207" y="148.949" width="101" height="110" rx="7.459" ry="7.459" fill="none" stroke="#ccc" stroke-miterlimit="10" stroke-width="5"/>
    <rect x="338" y="148.949" width="101" height="110" rx="7.459" ry="7.459" fill="none" stroke="#ccc" stroke-miterlimit="10" stroke-width="5"/>
    <rect x="76.672" y="280.944" width="101" height="110" rx="7.459" ry="7.459" fill="none" stroke="#ccc" stroke-miterlimit="10" stroke-width="5"/>
    <rect x="206.672" y="280.944" width="101" height="110" rx="7.459" ry="7.459" fill="none" stroke="#ccc" stroke-miterlimit="10" stroke-width="5"/>
    <rect x="337.672" y="280.944" width="101" height="110" rx="7.459" ry="7.459" fill="none" stroke="#ccc" stroke-miterlimit="10" stroke-width="5"/>
    <rect x="76.67" y="409.946" width="101" height="110" rx="7.459" ry="7.459" fill="none" stroke="#ccc" stroke-miterlimit="10" stroke-width="5"/>
    <rect x="206.67" y="409.946" width="101" height="110" rx="7.459" ry="7.459" fill="none" stroke="#ccc" stroke-miterlimit="10" stroke-width="5"/>
    <rect x="337.67" y="409.946" width="101" height="110" rx="7.459" ry="7.459" fill="none" stroke="#ccc" stroke-miterlimit="10" stroke-width="5"/>
    <rect x="76.671" y="543.858" width="101" height="110" rx="7.459" ry="7.459" fill="none" stroke="#ccc" stroke-miterlimit="10" stroke-width="5"/>
    <rect x="206.671" y="543.858" width="101" height="110" rx="7.459" ry="7.459" fill="none" stroke="#ccc" stroke-miterlimit="10" stroke-width="5"/>
    <rect x="337.671" y="543.858" width="101" height="110" rx="7.459" ry="7.459" fill="none" stroke="#ccc" stroke-miterlimit="10" stroke-width="5"/>
    <rect x="116.859" y="589.413" width="25" height="20" fill="#ccc"/>
    <rect x="88.359" y="553.913" width="83" height="91" fill="none" stroke="#ccc" stroke-miterlimit="10" stroke-width="5"/>
    <rect x="347.359" y="553.913" width="83" height="91" fill="none" stroke="#ccc" stroke-miterlimit="10" stroke-width="5"/>
    <rect x="157.411" y="699.427" width="83" height="91" fill="none" stroke="#ccc" stroke-miterlimit="10" stroke-width="5"/>
    <rect x="149.411" y="689.927" width="101" height="110" fill="none" stroke="#ccc" stroke-miterlimit="10" stroke-width="5"/>
    <rect x="281.411" y="699.427" width="83" height="91" fill="none" stroke="#ccc" stroke-miterlimit="10" stroke-width="5"/>
    <rect x="273.411" y="689.927" width="101" height="110" fill="none" stroke="#ccc" stroke-miterlimit="10" stroke-width="5"/>
    <rect x="405.411" y="699.427" width="83" height="91" fill="none" stroke="#ccc" stroke-miterlimit="10" stroke-width="5"/>
    <rect x="397.411" y="689.927" width="101" height="110" fill="none" stroke="#ccc" stroke-miterlimit="10" stroke-width="5"/>
    <rect x="529.411" y="699.427" width="83" height="91" fill="none" stroke="#ccc" stroke-miterlimit="10" stroke-width="5"/>
    <rect x="521.411" y="689.927" width="101" height="110" fill="none" stroke="#ccc" stroke-miterlimit="10" stroke-width="5"/>
    <rect x="651.411" y="699.427" width="83" height="91" fill="none" stroke="#ccc" stroke-miterlimit="10" stroke-width="5"/>
    <rect x="643.411" y="689.927" width="101" height="110" fill="none" stroke="#ccc" stroke-miterlimit="10" stroke-width="5"/>
    <rect x="778.411" y="699.427" width="83" height="91" fill="none" stroke="#ccc" stroke-miterlimit="10" stroke-width="5"/>
    <rect x="770.411" y="689.927" width="101" height="110" fill="none" stroke="#ccc" stroke-miterlimit="10" stroke-width="5"/>
    <rect x="898.411" y="699.427" width="83" height="91" fill="none" stroke="#ccc" stroke-miterlimit="10" stroke-width="5"/>
    <rect x="890.411" y="689.927" width="101" height="110" fill="none" stroke="#ccc" stroke-miterlimit="10" stroke-width="5"/>
    <rect x="1029.826" y="699.598" width="83" height="91" fill="none" stroke="#ccc" stroke-miterlimit="10" stroke-width="5"/>
    <rect x="1021.826" y="690.098" width="101" height="110" fill="none" stroke="#ccc" stroke-miterlimit="10" stroke-width="5"/>
    <rect x="221.15" y="845.601" width="83" height="91" fill="none" stroke="#ccc" stroke-miterlimit="10" stroke-width="5"/>
    <rect x="213.15" y="836.101" width="101" height="110" fill="none" stroke="#ccc" stroke-miterlimit="10" stroke-width="5"/>
    <rect x="345.15" y="845.601" width="83" height="91" fill="none" stroke="#ccc" stroke-miterlimit="10" stroke-width="5"/>
    <rect x="337.15" y="836.101" width="101" height="110" fill="none" stroke="#ccc" stroke-miterlimit="10" stroke-width="5"/>
    <rect x="469.15" y="845.601" width="83" height="91" fill="none" stroke="#ccc" stroke-miterlimit="10" stroke-width="5"/>
    <rect x="461.15" y="836.101" width="101" height="110" fill="none" stroke="#ccc" stroke-miterlimit="10" stroke-width="5"/>
    <rect x="593.15" y="845.601" width="83" height="91" fill="none" stroke="#ccc" stroke-miterlimit="10" stroke-width="5"/>
    <rect x="585.15" y="836.101" width="101" height="110" fill="none" stroke="#ccc" stroke-miterlimit="10" stroke-width="5"/>
    <rect x="715.15" y="845.601" width="83" height="91" fill="none" stroke="#ccc" stroke-miterlimit="10" stroke-width="5"/>
    <rect x="707.15" y="836.101" width="101" height="110" fill="none" stroke="#ccc" stroke-miterlimit="10" stroke-width="5"/>
    <rect x="842.15" y="845.601" width="83" height="91" fill="none" stroke="#ccc" stroke-miterlimit="10" stroke-width="5"/>
    <rect x="834.15" y="836.101" width="101" height="110" fill="none" stroke="#ccc" stroke-miterlimit="10" stroke-width="5"/>
    <rect x="962.15" y="845.601" width="83" height="91" fill="none" stroke="#ccc" stroke-miterlimit="10" stroke-width="5"/>
    <rect x="954.15" y="836.101" width="101" height="110" fill="none" stroke="#ccc" stroke-miterlimit="10" stroke-width="5"/>
    <rect x="474.622" y="157.522" width="83" height="91" fill="none" stroke="#ccc" stroke-miterlimit="10" stroke-width="5"/>
    <rect x="465.622" y="148.022" width="101" height="110" fill="none" stroke="#ccc" stroke-miterlimit="10" stroke-width="5"/>
    <rect x="605.622" y="157.522" width="83" height="91" fill="none" stroke="#ccc" stroke-miterlimit="10" stroke-width="5"/>
    <rect x="596.622" y="148.022" width="101" height="110" fill="none" stroke="#ccc" stroke-miterlimit="10" stroke-width="5"/>
    <rect x="723.622" y="157.522" width="83" height="91" fill="none" stroke="#ccc" stroke-miterlimit="10" stroke-width="5"/>
    <rect x="714.622" y="148.022" width="101" height="110" fill="none" stroke="#ccc" stroke-miterlimit="10" stroke-width="5"/>
    <rect x="844.622" y="157.522" width="83" height="91" fill="none" stroke="#ccc" stroke-miterlimit="10" stroke-width="5"/>
    <rect x="835.622" y="148.022" width="101" height="110" fill="none" stroke="#ccc" stroke-miterlimit="10" stroke-width="5"/>
    <rect x="961.622" y="157.522" width="83" height="91" fill="none" stroke="#ccc" stroke-miterlimit="10" stroke-width="11"/>
    <rect x="952.622" y="148.022" width="101" height="110" fill="none" stroke="#ccc" stroke-miterlimit="10" stroke-width="5"/>
    <rect x="1078.622" y="157.522" width="83" height="91" fill="none" stroke="#ccc" stroke-miterlimit="10" stroke-width="5"/>
    <rect x="1069.622" y="148.022" width="101" height="110" fill="none" stroke="#ccc" stroke-miterlimit="10" stroke-width="5"/>
    <rect x="474.622" y="290.87" width="83" height="91" fill="none" stroke="#ccc" stroke-miterlimit="10" stroke-width="5"/>
    <rect x="465.622" y="281.37" width="101" height="110" fill="none" stroke="#ccc" stroke-miterlimit="10" stroke-width="5"/>
    <rect x="605.622" y="290.87" width="83" height="91" fill="none" stroke="#ccc" stroke-miterlimit="10" stroke-width="5"/>
    <rect x="596.622" y="281.37" width="101" height="110" fill="none" stroke="#ccc" stroke-miterlimit="10" stroke-width="5"/>
    <rect x="723.622" y="290.87" width="83" height="91" fill="none" stroke="#ccc" stroke-miterlimit="10" stroke-width="5"/>
    <rect x="714.622" y="281.37" width="101" height="110" fill="none" stroke="#ccc" stroke-miterlimit="10" stroke-width="5"/>
    <rect x="844.622" y="290.87" width="83" height="91" fill="none" stroke="#ccc" stroke-miterlimit="10" stroke-width="5"/>
    <rect x="835.622" y="281.37" width="101" height="110" fill="none" stroke="#ccc" stroke-miterlimit="10" stroke-width="5"/>
    <rect x="961.622" y="290.87" width="83" height="91" fill="none" stroke="#ccc" stroke-miterlimit="10" stroke-width="5"/>
    <rect x="952.622" y="281.37" width="101" height="110" fill="none" stroke="#ccc" stroke-miterlimit="10" stroke-width="5"/>
    <rect x="1078.622" y="290.87" width="83" height="91" fill="none" stroke="#ccc" stroke-miterlimit="10" stroke-width="5"/>
    <rect x="1069.622" y="281.37" width="101" height="110" fill="none" stroke="#ccc" stroke-miterlimit="10" stroke-width="5"/>
    <rect x="474.622" y="419.692" width="83" height="91" fill="none" stroke="#ccc" stroke-miterlimit="10" stroke-width="5"/>
    <rect x="465.622" y="410.192" width="101" height="110" fill="none" stroke="#ccc" stroke-miterlimit="10" stroke-width="5"/>
    <rect x="605.622" y="419.692" width="83" height="91" fill="none" stroke="#ccc" stroke-miterlimit="10" stroke-width="11"/>
    <rect x="596.622" y="410.192" width="101" height="110" fill="none" stroke="#ccc" stroke-miterlimit="10" stroke-width="5"/>
    <rect x="723.622" y="419.692" width="83" height="91" fill="none" stroke="#ccc" stroke-miterlimit="10" stroke-width="5"/>
    <rect x="714.622" y="410.192" width="101" height="110" fill="none" stroke="#ccc" stroke-miterlimit="10" stroke-width="5"/>
    <rect x="844.622" y="419.692" width="83" height="91" fill="none" stroke="#ccc" stroke-miterlimit="10" stroke-width="5"/>
    <rect x="835.622" y="410.192" width="101" height="110" fill="none" stroke="#ccc" stroke-miterlimit="10" stroke-width="5"/>
    <rect x="961.622" y="419.692" width="83" height="91" fill="none" stroke="#ccc" stroke-miterlimit="10" stroke-width="5"/>
    <rect x="952.622" y="410.192" width="101" height="110" fill="none" stroke="#ccc" stroke-miterlimit="10" stroke-width="5"/>
    <rect x="1078.622" y="419.692" width="83" height="91" fill="none" stroke="#ccc" stroke-miterlimit="10" stroke-width="5"/>
    <rect x="1069.622" y="410.192" width="101" height="110" fill="none" stroke="#ccc" stroke-miterlimit="10" stroke-width="5"/>
    <rect x="474.622" y="553.685" width="83" height="91" fill="none" stroke="#ccc" stroke-miterlimit="10" stroke-width="11"/>
    <rect x="465.622" y="544.185" width="101" height="110" fill="none" stroke="#ccc" stroke-miterlimit="10" stroke-width="5"/>
    <rect x="605.622" y="553.685" width="83" height="91" fill="none" stroke="#ccc" stroke-miterlimit="10" stroke-width="5"/>
    <rect x="596.622" y="544.185" width="101" height="110" fill="none" stroke="#ccc" stroke-miterlimit="10" stroke-width="5"/>
    <rect x="723.622" y="553.685" width="83" height="91" fill="none" stroke="#ccc" stroke-miterlimit="10" stroke-width="5"/>
    <rect x="714.622" y="544.185" width="101" height="110" fill="none" stroke="#ccc" stroke-miterlimit="10" stroke-width="5"/>
    <rect x="844.622" y="553.685" width="83" height="91" fill="none" stroke="#ccc" stroke-miterlimit="10" stroke-width="5"/>
    <rect x="835.622" y="544.185" width="101" height="110" fill="none" stroke="#ccc" stroke-miterlimit="10" stroke-width="5"/>
    <rect x="961.622" y="553.685" width="83" height="91" fill="none" stroke="#ccc" stroke-miterlimit="10" stroke-width="11"/>
    <rect x="952.622" y="544.185" width="101" height="110" fill="none" stroke="#ccc" stroke-miterlimit="10" stroke-width="5"/>
    <rect x="1078.622" y="553.685" width="83" height="91" fill="none" stroke="#ccc" stroke-miterlimit="10" stroke-width="5"/>
    <rect x="1069.622" y="544.185" width="101" height="110" fill="none" stroke="#ccc" stroke-miterlimit="10" stroke-width="5"/>
    <circle cx="46.359" cy="67.913" r="34.5" fill="none" stroke="#ccc" stroke-miterlimit="10" stroke-width="3.5"/>
    <circle cx="46.359" cy="67.913" r="27.5" fill="none" stroke="#ccc" stroke-miterlimit="10" stroke-width="3.5"/>
    <circle cx="46.359" cy="880.913" r="34.5" fill="none" stroke="#ccc" stroke-miterlimit="10" stroke-width="3.5"/>
    <circle cx="46.359" cy="880.913" r="27.5" fill="none" stroke="#ccc" stroke-miterlimit="10" stroke-width="3.5"/>
    <circle cx="1204.859" cy="67.913" r="34.5" fill="none" stroke="#ccc" stroke-miterlimit="10" stroke-width="3.5"/>
    <circle cx="1204.859" cy="67.913" r="27.5" fill="none" stroke="#ccc" stroke-miterlimit="10" stroke-width="3.5"/>
    <circle cx="1204.859" cy="880.913" r="34.5" fill="none" stroke="#ccc" stroke-miterlimit="10" stroke-width="3.5"/>
    <circle cx="1204.859" cy="880.913" r="27.5" fill="none" stroke="#ccc" stroke-miterlimit="10" stroke-width="3.5"/>
  </g>
  <g id="CDNU_-_KEYS_-_Dark" opacity=".3">
    <g>
      <rect x="157.677" y="35.928" width="66.913" height="64.957" fill="none"/>
      <path d="M171.592,50.3h6.823v36.208h-6.823v-36.208ZM174.082,50.3h21.291v6.574h-21.291v-6.574ZM174.082,65.565h18.552v6.574h-18.552v-6.574Z" fill="#ccc"/>
      <path d="M210.676,86.508h-6.823v-28.189l-4.408,1.668v-7.247l5.404-2.44h5.827v36.208Z" fill="#ccc"/>
    </g>
    <g>
      <rect x="281.677" y="35.928" width="66.913" height="64.957" fill="none"/>
      <path d="M290.898,50.3h6.823v36.208h-6.823v-36.208ZM293.388,50.3h21.292v6.574h-21.292v-6.574ZM293.388,65.565h18.553v6.574h-18.553v-6.574Z" fill="#ccc"/>
      <path d="M319.698,80.357l12.426-16.336c.564-.73,1-1.482,1.308-2.253.307-.772.461-1.49.461-2.154v-.05c0-.979-.315-1.734-.946-2.266-.632-.531-1.528-.797-2.689-.797-1.13,0-2.042.37-2.739,1.108-.697.739-1.121,1.79-1.271,3.15v.025h-6.997v-.025c.149-2.257.692-4.2,1.631-5.827.938-1.627,2.204-2.868,3.798-3.723s3.437-1.283,5.528-1.283c2.257,0,4.188.37,5.79,1.108,1.602.739,2.821,1.814,3.66,3.225.838,1.411,1.258,3.113,1.258,5.105v.025c0,1.644-.286,3.275-.859,4.893-.572,1.619-1.374,3.084-2.403,4.396l-8.915,11.256h12.377v6.574h-21.416v-6.151Z" fill="#ccc"/>
    </g>
    <g>
      <rect x="405.677" y="35.928" width="66.913" height="64.957" fill="none"/>
      <path d="M414.586,50.3h6.823v36.208h-6.823v-36.208ZM417.077,50.3h21.292v6.574h-21.292v-6.574ZM417.077,65.565h18.553v6.574h-18.553v-6.574Z" fill="#ccc"/>
      <path d="M448.192,85.686c-1.71-.797-3.071-1.958-4.084-3.486-1.013-1.527-1.568-3.345-1.668-5.454h7.047c.1.747.319,1.382.66,1.905.34.522.775.921,1.308,1.195.531.273,1.146.411,1.843.411,1.295,0,2.295-.361,3.001-1.083.705-.722,1.058-1.739,1.058-3.05v-.847c0-1.378-.286-2.44-.858-3.188-.573-.747-1.392-1.121-2.453-1.121h-3.063v-6.574h3.063c.862,0,1.531-.328,2.005-.983.473-.656.709-1.573.709-2.752v-.623c0-1.112-.261-1.971-.784-2.578-.522-.605-1.258-.909-2.204-.909-.614,0-1.175.158-1.681.473-.507.315-.934.772-1.282,1.37s-.598,1.32-.747,2.167h-7.022c.199-2.208.792-4.113,1.78-5.715.987-1.602,2.278-2.822,3.872-3.661,1.594-.838,3.37-1.257,5.329-1.257,3.204,0,5.682.818,7.434,2.453,1.751,1.636,2.627,3.956,2.627,6.96v1.096c0,1.677-.423,3.138-1.27,4.383s-2.051,2.175-3.611,2.789c1.743.398,3.092,1.312,4.047,2.739.954,1.428,1.432,3.246,1.432,5.454v1.096c0,2.108-.415,3.91-1.245,5.404s-2.042,2.631-3.636,3.412c-1.594.781-3.511,1.17-5.752,1.17-2.191,0-4.143-.398-5.853-1.195Z" fill="#ccc"/>
    </g>
    <g>
      <rect x="529.677" y="35.928" width="66.913" height="64.957" fill="none"/>
      <path d="M537.566,50.3h6.823v36.208h-6.823v-36.208ZM540.056,50.3h21.291v6.574h-21.291v-6.574ZM540.056,65.565h18.552v6.574h-18.552v-6.574Z" fill="#ccc"/>
      <path d="M566.414,74.679l11.156-24.354h7.72l-10.857,24.056h16.262v6.574h-24.28v-6.275ZM581.033,65.216h6.823v21.316h-6.823v-21.316Z" fill="#ccc"/>
    </g>
    <g>
      <rect x="651.677" y="35.928" width="66.913" height="64.957" fill="none"/>
      <path d="M660.189,50.3h6.823v36.208h-6.823v-36.208ZM662.679,50.3h21.291v6.574h-21.291v-6.574ZM662.679,65.565h18.553v6.574h-18.553v-6.574Z" fill="#ccc"/>
      <path d="M694.903,85.598c-1.553-.854-2.798-2.1-3.735-3.735-.938-1.635-1.481-3.573-1.631-5.814v-.025h6.823v.025c.133,1.329.539,2.362,1.221,3.101.68.739,1.568,1.108,2.664,1.108,1.195,0,2.12-.39,2.776-1.17.656-.78.983-1.884.983-3.312v-3.038c0-1.428-.295-2.528-.884-3.299-.589-.772-1.415-1.158-2.478-1.158-.979,0-1.814.249-2.503.747s-1.166,1.195-1.432,2.092h-6.375v-20.818h19.448v6.574h-12.625v6.4c.515-.498,1.216-.892,2.104-1.183.888-.29,1.771-.436,2.651-.436,1.876,0,3.482.432,4.819,1.295,1.336.863,2.353,2.125,3.05,3.785.697,1.66,1.047,3.661,1.047,6.001v3.038c0,2.341-.42,4.342-1.258,6.001-.839,1.66-2.055,2.926-3.648,3.798-1.594.871-3.52,1.307-5.777,1.307-1.942,0-3.689-.427-5.242-1.283Z" fill="#ccc"/>
    </g>
    <g>
      <rect x="778.677" y="35.928" width="66.913" height="64.957" fill="none"/>
      <path d="M787.986,50.3h6.823v36.208h-6.823v-36.208ZM790.476,50.3h21.291v6.574h-21.291v-6.574ZM790.476,65.565h18.553v6.574h-18.553v-6.574Z" fill="#ccc"/>
      <path d="M821.454,85.598c-1.585-.854-2.793-2.1-3.623-3.735-.83-1.635-1.245-3.606-1.245-5.914v-.025c0-1.311.162-2.698.485-4.159.324-1.46.784-2.93,1.382-4.408.1-.249.203-.498.312-.747s.22-.489.337-.722l7.346-15.589h7.72l-8.716,18.054-1.719-.896c.415-.78,1.021-1.386,1.818-1.818.797-.432,1.727-.647,2.789-.647,1.992,0,3.693.423,5.105,1.27,1.41.847,2.485,2.08,3.225,3.698.738,1.619,1.107,3.565,1.107,5.84v.025c0,2.325-.415,4.317-1.244,5.977-.831,1.66-2.039,2.922-3.624,3.785-1.585.863-3.499,1.295-5.739,1.295-2.226,0-4.131-.427-5.716-1.283ZM829.971,79.249c.656-.706.984-1.706.984-3.001v-.025c0-1.494-.328-2.644-.984-3.449s-1.59-1.208-2.801-1.208c-1.195,0-2.121.411-2.777,1.232-.656.822-.983,1.972-.983,3.449v.025c0,1.295.327,2.291.983,2.988s1.582,1.046,2.777,1.046c1.211,0,2.145-.353,2.801-1.058Z" fill="#ccc"/>
    </g>
    <g>
      <rect x="898.677" y="35.928" width="66.913" height="64.957" fill="none"/>
      <path d="M908.231,50.3h6.823v36.208h-6.823v-36.208ZM910.721,50.3h21.291v6.574h-21.291v-6.574ZM910.721,65.565h18.553v6.574h-18.553v-6.574Z" fill="#ccc"/>
      <path d="M957.276,54.832l-8.119,31.676h-7.396l7.869-29.634h-6.226v5.454h-6.823v-12.028h20.694v4.532Z" fill="#ccc"/>
    </g>
    <g>
      <path d="M1037.602,52.098h3.878v25.171h-2.675v-19.545l.107,1.108-2.986,15.632h-2.6l-2.986-15.286.107-1.454v19.545h-2.675v-25.171h3.878l2.976,16.966,2.976-16.966Z" fill="#ccc"/>
      <path d="M1045.599,52.098h2.943v25.171h-2.943v-25.171ZM1046.662,52.098h9.399v4.57h-9.399v-4.57ZM1046.662,62.485h8.218v4.57h-8.218v-4.57ZM1046.662,72.699h9.399v4.57h-9.399v-4.57Z" fill="#ccc"/>
      <path d="M1059.43,52.098h3.599l5.812,19.286-.258.45v-19.735h2.814v25.154h-3.62l-5.79-18.991.258-.45v19.441h-2.814v-25.154Z" fill="#ccc"/>
      <path d="M1077.912,76.429c-.853-.732-1.5-1.8-1.944-3.203-.444-1.402-.666-3.09-.666-5.063v-16.065h2.943v16.187c0,1.443.24,2.562.72,3.358s1.156,1.195,2.03,1.195c.881,0,1.563-.398,2.047-1.195s.725-1.916.725-3.358v-16.187h2.943v16.065c0,1.974-.224,3.662-.671,5.063-.448,1.402-1.1,2.47-1.955,3.203-.856.733-1.886,1.1-3.089,1.1s-2.23-.366-3.083-1.1Z" fill="#ccc"/>
    </g>
    <g>
      <rect x="94.319" y="171.509" width="66.913" height="64.957" fill="none"/>
      <path d="M132.269,222.094h-6.823v-28.189l-4.407,1.668v-7.247l5.403-2.44h5.827v36.208Z" fill="#ccc"/>
    </g>
    <g>
      <rect x="224.319" y="171.509" width="66.913" height="64.957" fill="none"/>
      <path d="M247.29,215.943l12.427-16.336c.563-.73,1-1.482,1.307-2.253.308-.772.461-1.49.461-2.154v-.05c0-.979-.315-1.734-.946-2.266-.631-.531-1.527-.797-2.689-.797-1.129,0-2.042.37-2.739,1.108-.697.739-1.12,1.79-1.27,3.15v.025h-6.998v-.025c.149-2.257.693-4.2,1.631-5.827.938-1.627,2.204-2.868,3.798-3.723s3.437-1.283,5.528-1.283c2.258,0,4.188.37,5.79,1.108,1.602.739,2.822,1.814,3.66,3.225.839,1.411,1.258,3.113,1.258,5.105v.025c0,1.644-.286,3.275-.859,4.893-.572,1.619-1.373,3.084-2.402,4.396l-8.915,11.256h12.376v6.574h-21.416v-6.151Z" fill="#ccc"/>
    </g>
    <g>
      <rect x="355.319" y="171.509" width="66.913" height="64.957" fill="none"/>
      <path d="M382.786,221.272c-1.71-.797-3.071-1.958-4.084-3.486-1.013-1.527-1.568-3.345-1.668-5.454h7.047c.1.747.319,1.382.66,1.905.34.522.775.921,1.308,1.195.531.273,1.146.411,1.843.411,1.295,0,2.295-.361,3.001-1.083.705-.722,1.058-1.739,1.058-3.05v-.847c0-1.378-.286-2.44-.858-3.188-.573-.747-1.392-1.121-2.453-1.121h-3.063v-6.574h3.063c.862,0,1.531-.328,2.005-.983.473-.656.709-1.573.709-2.752v-.623c0-1.112-.261-1.971-.784-2.578-.522-.605-1.258-.909-2.204-.909-.614,0-1.175.158-1.681.473-.507.315-.934.772-1.282,1.37s-.598,1.32-.747,2.167h-7.022c.199-2.208.792-4.113,1.78-5.715.987-1.602,2.278-2.822,3.872-3.661,1.594-.838,3.37-1.257,5.329-1.257,3.204,0,5.682.818,7.434,2.453,1.751,1.636,2.627,3.956,2.627,6.96v1.096c0,1.677-.423,3.138-1.27,4.383s-2.051,2.175-3.611,2.789c1.743.398,3.092,1.312,4.047,2.739.954,1.428,1.432,3.246,1.432,5.454v1.096c0,2.108-.415,3.91-1.245,5.404s-2.042,2.631-3.636,3.412c-1.594.781-3.511,1.17-5.752,1.17-2.191,0-4.143-.398-5.853-1.195Z" fill="#ccc"/>
    </g>
    <g>
      <rect x="93.99" y="303.504" width="66.913" height="64.957" fill="none"/>
      <path d="M115.68,342.257l11.156-24.354h7.72l-10.857,24.056h16.261v6.574h-24.279v-6.275ZM130.297,332.794h6.823v21.316h-6.823v-21.316Z" fill="#ccc"/>
    </g>
    <g>
      <rect x="223.99" y="303.504" width="66.913" height="64.957" fill="none"/>
      <path d="M252.167,353.177c-1.553-.854-2.798-2.1-3.735-3.735-.938-1.635-1.481-3.573-1.631-5.814v-.025h6.823v.025c.133,1.329.539,2.362,1.22,3.101s1.569,1.108,2.665,1.108c1.195,0,2.12-.39,2.776-1.17.655-.78.983-1.884.983-3.312v-3.038c0-1.428-.295-2.528-.884-3.299-.59-.772-1.416-1.158-2.478-1.158-.98,0-1.814.249-2.503.747-.689.498-1.167,1.195-1.432,2.092h-6.375v-20.818h19.448v6.574h-12.625v6.4c.514-.498,1.216-.892,2.104-1.183.888-.29,1.771-.436,2.651-.436,1.876,0,3.482.432,4.819,1.295,1.336.863,2.353,2.125,3.05,3.785.697,1.66,1.046,3.661,1.046,6.001v3.038c0,2.341-.419,4.342-1.257,6.001-.839,1.66-2.055,2.926-3.648,3.798-1.594.871-3.521,1.307-5.777,1.307-1.942,0-3.69-.427-5.242-1.283Z" fill="#ccc"/>
    </g>
    <g>
      <rect x="354.99" y="303.504" width="66.913" height="64.957" fill="none"/>
      <path d="M382.719,353.177c-1.586-.854-2.793-2.1-3.623-3.735-.831-1.635-1.245-3.606-1.245-5.914v-.025c0-1.311.162-2.698.485-4.159.324-1.46.784-2.93,1.382-4.408.1-.249.203-.498.312-.747.107-.249.22-.489.336-.722l7.347-15.589h7.72l-8.716,18.054-1.719-.896c.415-.78,1.021-1.386,1.818-1.818.797-.432,1.727-.647,2.789-.647,1.992,0,3.693.423,5.104,1.27s2.486,2.08,3.226,3.698c.738,1.619,1.107,3.565,1.107,5.84v.025c0,2.325-.415,4.317-1.245,5.977-.83,1.66-2.038,2.922-3.623,3.785-1.586.863-3.499,1.295-5.74,1.295-2.225,0-4.13-.427-5.715-1.283ZM391.236,346.827c.655-.706.983-1.706.983-3.001v-.025c0-1.494-.328-2.644-.983-3.449-.656-.805-1.59-1.208-2.802-1.208-1.195,0-2.121.411-2.776,1.232-.656.822-.983,1.972-.983,3.449v.025c0,1.295.327,2.291.983,2.988.655.697,1.581,1.046,2.776,1.046,1.212,0,2.146-.353,2.802-1.058Z" fill="#ccc"/>
    </g>
    <g>
      <rect x="93.988" y="432.506" width="66.913" height="64.957" fill="none"/>
      <path d="M137.544,451.41l-8.118,31.676h-7.396l7.869-29.634h-6.226v5.454h-6.823v-12.028h20.693v4.532Z" fill="#ccc"/>
    </g>
    <g>
      <rect x="223.988" y="432.506" width="66.913" height="64.957" fill="none"/>
      <path d="M251.408,482.214c-1.735-.83-3.075-2.004-4.021-3.524-.946-1.519-1.42-3.283-1.42-5.292v-.598c0-1.809.498-3.511,1.494-5.105s2.324-2.797,3.984-3.611c-1.428-.697-2.573-1.693-3.437-2.988s-1.295-2.673-1.295-4.134v-.946c0-1.893.444-3.557,1.333-4.993.888-1.436,2.142-2.548,3.76-3.337,1.619-.789,3.499-1.183,5.641-1.183s4.021.395,5.641,1.183c1.618.789,2.871,1.901,3.76,3.337.888,1.436,1.332,3.1,1.332,4.993v.946c0,1.494-.439,2.885-1.319,4.171-.881,1.287-2.042,2.27-3.486,2.951,1.677.831,3.021,2.038,4.034,3.624,1.012,1.585,1.519,3.283,1.519,5.092v.598c0,2.009-.473,3.773-1.419,5.292-.946,1.52-2.287,2.694-4.021,3.524-1.735.831-3.748,1.245-6.039,1.245s-4.305-.415-6.039-1.245ZM259.874,476.325c.705-.374,1.253-.9,1.644-1.582.39-.681.585-1.46.585-2.341v-.349c0-.813-.195-1.527-.585-2.142-.391-.614-.934-1.091-1.631-1.432-.697-.34-1.511-.51-2.44-.51s-1.743.17-2.44.51c-.697.341-1.241.822-1.631,1.444-.391.623-.586,1.341-.586,2.154v.374c0,.88.195,1.656.586,2.329.39.672.938,1.191,1.644,1.556.705.365,1.515.548,2.428.548s1.722-.187,2.428-.56ZM259.501,460.836c.589-.34,1.046-.822,1.369-1.444.324-.623.485-1.341.485-2.154v-.349c0-.763-.161-1.432-.485-2.005-.323-.572-.78-1.017-1.369-1.332-.59-.315-1.274-.473-2.055-.473s-1.466.158-2.055.473c-.59.315-1.046.764-1.369,1.345-.324.582-.486,1.254-.486,2.017v.374c0,.797.162,1.503.486,2.117.323.614.779,1.092,1.369,1.432.589.34,1.273.51,2.055.51s1.465-.17,2.055-.51Z" fill="#ccc"/>
    </g>
    <g>
      <rect x="354.988" y="432.506" width="66.913" height="64.957" fill="none"/>
      <path d="M390.675,465.106l1.221.896c-.415.764-1.042,1.324-1.88,1.681-.839.357-1.831.536-2.977.536-1.826,0-3.433-.439-4.818-1.32-1.387-.88-2.462-2.121-3.225-3.723-.764-1.602-1.146-3.458-1.146-5.566v-.025c0-2.341.414-4.341,1.245-6.001.83-1.66,2.037-2.922,3.623-3.785,1.585-.863,3.499-1.295,5.74-1.295,2.225,0,4.129.44,5.715,1.32,1.585.88,2.793,2.158,3.623,3.835.83,1.677,1.245,3.694,1.245,6.051v.025c0,1.212-.174,2.52-.522,3.922-.349,1.403-.839,2.918-1.47,4.545-.083.233-.17.465-.261.697-.092.233-.188.457-.287.672l-6.475,15.514h-7.222l7.869-17.979ZM391.236,460.686c.655-.772.983-1.864.983-3.275v-.025c0-1.361-.328-2.411-.983-3.15-.656-.738-1.581-1.108-2.776-1.108-1.212,0-2.146.374-2.802,1.121-.656.747-.983,1.802-.983,3.163v.025c0,1.411.327,2.499.983,3.262.655.764,1.59,1.146,2.802,1.146,1.195,0,2.12-.386,2.776-1.158Z" fill="#ccc"/>
    </g>
    <g>
      <rect x="223.989" y="566.418" width="66.913" height="64.957" fill="none"/>
      <path d="M249.378,614.646c-1.843-1.817-2.765-4.336-2.765-7.558v-16.46c0-3.253.926-5.781,2.776-7.583,1.852-1.801,4.536-2.702,8.057-2.702s6.226.896,8.068,2.689,2.764,4.325,2.764,7.595v16.46c0,3.254-.926,5.782-2.776,7.583-1.852,1.801-4.536,2.702-8.056,2.702s-6.226-.909-8.068-2.727ZM260.485,609.392c.647-.938.971-2.287.971-4.047v-12.974c0-1.759-.323-3.108-.971-4.046s-1.66-1.407-3.038-1.407-2.391.469-3.038,1.407-.972,2.287-.972,4.046v12.974c0,1.76.324,3.109.972,4.047s1.659,1.407,3.038,1.407,2.391-.469,3.038-1.407Z" fill="#ccc"/>
    </g>
    <polygon points="391.455 572.973 384.057 586.985 388.631 586.985 388.631 625.451 394.279 625.451 394.279 586.985 398.853 586.985 391.455 572.973" fill="#ccc"/>
    <g>
      <rect x="660.729" y="712.487" width="66.913" height="64.957" fill="none"/>
      <path d="M663.313,736.079h3.345v17.761h-3.345v-17.761ZM664.643,743.477h6.178c.342,0,.643-.085.902-.256.261-.171.462-.415.604-.732s.218-.684.226-1.099c0-.415-.071-.781-.213-1.099-.143-.317-.344-.562-.604-.732s-.565-.256-.915-.256h-6.178v-3.223h6.445c.977,0,1.836.22,2.576.659s1.314,1.06,1.721,1.862c.407.801.611,1.731.611,2.789s-.204,1.988-.611,2.789c-.406.802-.982,1.422-1.727,1.862-.745.439-1.602.659-2.57.659h-6.445v-3.223ZM668.379,746.15l3.576-.562,4.785,8.252h-4.053l-4.309-7.69Z" fill="#ccc"/>
      <path d="M680.384,736.092h4.09l6.604,13.599-.293.317v-13.916h3.198v17.737h-4.114l-6.579-13.391.293-.317v13.708h-3.198v-17.737Z" fill="#ccc"/>
      <path d="M703.497,736.092h2.124l6.787,17.749h-3.601l-4.248-12.122-4.248,12.122h-3.602l6.787-17.749ZM699.97,747.774h9.338v3.223h-9.338v-3.223Z" fill="#ccc"/>
      <path d="M712.452,736.092h3.442l3.771,11.841,3.772-11.841h3.442l-5.908,17.749h-2.612l-5.908-17.749Z" fill="#ccc"/>
    </g>
    <g>
      <rect x="787.729" y="712.487" width="66.913" height="64.957" fill="none"/>
      <path d="M798.725,753.415c-.777-.164-1.508-.404-2.191-.721s-1.295-.697-1.834-1.143l1.488-2.648c.656.539,1.414.955,2.273,1.248s1.742.439,2.648.439c1.047,0,1.859-.178,2.438-.533s.867-.857.867-1.506v-.012c0-.453-.129-.812-.387-1.078s-.594-.461-1.008-.586-.945-.238-1.594-.34c-.023-.008-.045-.012-.064-.012s-.041-.004-.064-.012l-.258-.035c-1.141-.18-2.086-.404-2.836-.674s-1.387-.742-1.91-1.418-.785-1.635-.785-2.877v-.012c0-1.102.246-2.043.738-2.824s1.207-1.377,2.145-1.787,2.07-.615,3.398-.615c.609,0,1.232.07,1.869.211s1.26.344,1.869.609,1.188.586,1.734.961l-1.359,2.719c-.656-.453-1.342-.805-2.057-1.055s-1.4-.375-2.057-.375c-.984,0-1.746.162-2.285.486s-.809.779-.809,1.365v.012c0,.492.141.881.422,1.166s.629.494,1.043.627.996.273,1.746.422c.031.008.062.014.094.018s.062.01.094.018c.047.008.092.018.135.029s.088.021.135.029c1.078.211,1.979.467,2.701.768s1.326.785,1.811,1.453.727,1.58.727,2.736v.023c0,1.086-.254,2.016-.762,2.789s-1.248,1.363-2.221,1.77-2.143.609-3.51.609c-.812,0-1.607-.082-2.385-.246Z" fill="#ccc"/>
      <path d="M808.932,736.447h12.492v3.094h-12.492v-3.094ZM813.573,737.841h3.211v15.645h-3.211v-15.645Z" fill="#ccc"/>
      <path d="M827.864,736.447h2.039l6.516,17.039h-3.457l-4.078-11.637-4.078,11.637h-3.457l6.516-17.039ZM824.477,747.661h8.965v3.094h-8.965v-3.094Z" fill="#ccc"/>
      <path d="M836.459,736.447h12.492v3.094h-12.492v-3.094ZM841.1,737.841h3.211v15.645h-3.211v-15.645Z" fill="#ccc"/>
    </g>
    <g>
      <rect x="907.729" y="712.487" width="66.913" height="64.957" fill="none"/>
      <path d="M944.597,749.1v13.97h-6.823v-13.97l-10.658-22.238h7.147l6.922,15.589,6.924-15.589h7.146l-10.658,22.238Z" fill="#ccc"/>
    </g>
    <g>
      <rect x="1039.145" y="712.658" width="66.913" height="64.957" fill="none"/>
      <path d="M1084.228,733.16l-14.892,23.508h15.39v6.574h-23.508v-6.126l14.892-23.508h-14.443v-6.574h22.562v6.126Z" fill="#ccc"/>
    </g>
    <g>
      <rect x="230.468" y="858.661" width="66.913" height="64.957" fill="none"/>
      <path d="M242.465,900.414c-1.076-.579-1.896-1.422-2.461-2.529-.565-1.107-.848-2.445-.848-4.013v-5.455c0-1.567.282-2.905.848-4.013.564-1.107,1.385-1.953,2.461-2.536,1.075-.583,2.369-.875,3.883-.875,1.248,0,2.365.269,3.35.807.984.538,1.798,1.319,2.44,2.345s1.087,2.263,1.333,3.712h-3.883c-.146-.656-.372-1.217-.677-1.682-.306-.465-.675-.82-1.107-1.066-.434-.246-.919-.369-1.456-.369-.702,0-1.299.144-1.791.431s-.868.707-1.128,1.258c-.26.552-.39,1.215-.39,1.989v5.455c0,.775.13,1.436.39,1.982s.636.964,1.128,1.251,1.089.431,1.791.431c.547,0,1.039-.121,1.477-.362.438-.241.807-.595,1.107-1.06s.52-1.03.656-1.695h3.883c-.256,1.449-.704,2.687-1.347,3.712s-1.454,1.807-2.434,2.345c-.98.538-2.095.807-3.343.807-1.514,0-2.808-.289-3.883-.868Z" fill="#ccc"/>
      <path d="M257.484,881.198h3.746v19.879h-3.746v-19.879ZM259.152,897.468h11.648v3.609h-11.648v-3.609Z" fill="#ccc"/>
      <path d="M274.402,881.185h3.746v19.893h-3.746v-19.893ZM275.892,889.47h6.918c.383,0,.72-.096,1.012-.287s.518-.465.677-.82.244-.766.253-1.23c0-.465-.08-.875-.239-1.23s-.385-.629-.677-.82-.634-.287-1.025-.287h-6.918v-3.609h7.219c1.094,0,2.056.246,2.885.738s1.472,1.188,1.928,2.085c.456.898.684,1.939.684,3.124s-.228,2.227-.684,3.124c-.456.898-1.101,1.593-1.935,2.085s-1.793.738-2.878.738h-7.219v-3.609ZM280.076,892.464l4.006-.629,5.359,9.242h-4.539l-4.826-8.613Z" fill="#ccc"/>
    </g>
    <g>
      <rect x="478.468" y="858.661" width="66.913" height="64.957" fill="none"/>
      <path d="M491.541,903.917h-4.992v-25.559h4.992v25.559Z" fill="#ccc"/>
      <path d="M497.931,878.359h4.816v25.559h-4.816v-25.559ZM500.357,899.277h6.135c1.582,0,2.807-.381,3.674-1.143s1.301-1.84,1.301-3.234v-7.523c0-1.395-.434-2.473-1.301-3.234s-2.092-1.143-3.674-1.143h-6.135v-4.641h6.029c2.133,0,3.952.357,5.458,1.072s2.651,1.758,3.437,3.129,1.178,3.023,1.178,4.957v7.242c0,1.84-.378,3.445-1.134,4.816s-1.89,2.438-3.401,3.199-3.363,1.143-5.555,1.143h-6.012v-4.641Z" fill="#ccc"/>
      <path d="M528.542,888.185l5.748-9.826h5.08l-8.455,14.449-6.504,11.109h-5.08l9.211-15.732ZM528.49,893.458l-.492-.826-8.455-14.273h5.08l5.73,9.686.668,1.143,8.736,14.73h-5.08l-6.188-10.459Z" fill="#ccc"/>
    </g>
    <g>
      <rect x="602.468" y="858.661" width="66.913" height="64.957" fill="none"/>
      <path d="M606.025,882.263h3.345v17.749h-3.345v-17.749ZM607.245,882.263h10.438v3.223h-10.438v-3.223ZM607.245,889.746h9.095v3.223h-9.095v-3.223Z" fill="#ccc"/>
      <path d="M621.021,882.263h3.346v17.749h-3.346v-17.749ZM622.547,889.905h5.677c.398,0,.75-.092,1.055-.274.307-.184.543-.441.715-.775.17-.333.256-.716.256-1.147,0-.439-.084-.828-.25-1.166-.166-.337-.402-.598-.707-.781-.307-.183-.662-.274-1.068-.274h-5.677v-3.223h5.591c1.107,0,2.082.226,2.924.678.842.451,1.494,1.088,1.959,1.91.463.822.695,1.774.695,2.856s-.232,2.032-.695,2.851c-.465.817-1.117,1.451-1.959,1.898-.842.448-1.816.671-2.924.671h-5.591v-3.223Z" fill="#ccc"/>
      <path d="M637.116,882.263h3.345v17.749h-3.345v-17.749ZM638.605,896.79h10.4v3.223h-10.4v-3.223Z" fill="#ccc"/>
      <path d="M652.222,882.263h4.09l6.604,13.599-.293.317v-13.916h3.198v17.737h-4.114l-6.579-13.391.293-.317v13.708h-3.198v-17.737Z" fill="#ccc"/>
    </g>
    <g>
      <rect x="724.468" y="858.661" width="66.913" height="64.957" fill="none"/>
      <path d="M727.245,882.263h3.345v17.749h-3.345v-17.749ZM728.77,889.905h5.677c.398,0,.751-.092,1.056-.274.306-.184.543-.441.715-.775.17-.333.256-.716.256-1.147,0-.439-.084-.828-.25-1.166-.167-.337-.403-.598-.708-.781-.306-.183-.661-.274-1.068-.274h-5.677v-3.223h5.592c1.106,0,2.081.226,2.923.678.843.451,1.495,1.088,1.96,1.91.463.822.695,1.774.695,2.856s-.232,2.032-.695,2.851c-.465.817-1.117,1.451-1.96,1.898-.842.448-1.816.671-2.923.671h-5.592v-3.223Z" fill="#ccc"/>
      <path d="M743.339,882.251h3.345v17.761h-3.345v-17.761ZM744.669,889.649h6.178c.342,0,.643-.085.902-.256.261-.171.462-.415.604-.732s.218-.684.226-1.099c0-.415-.071-.781-.213-1.099-.143-.317-.344-.562-.604-.732s-.565-.256-.915-.256h-6.178v-3.223h6.445c.977,0,1.836.22,2.576.659s1.314,1.06,1.721,1.862c.407.801.611,1.731.611,2.789s-.204,1.988-.611,2.789c-.406.802-.982,1.422-1.727,1.862-.745.439-1.602.659-2.57.659h-6.445v-3.223ZM748.406,892.322l3.576-.562,4.785,8.252h-4.053l-4.309-7.69Z" fill="#ccc"/>
      <path d="M762.638,899.384c-.98-.541-1.739-1.306-2.276-2.295-.537-.988-.806-2.134-.806-3.436v-5.029c0-1.302.269-2.448.806-3.436.537-.989,1.296-1.754,2.276-2.295.98-.542,2.114-.812,3.399-.812s2.419.271,3.4.812c.98.541,1.739,1.306,2.276,2.295.537.988.806,2.134.806,3.436v5.029c0,1.302-.269,2.448-.806,3.436-.537.989-1.296,1.754-2.276,2.295-.981.542-2.114.812-3.4.812s-2.419-.271-3.399-.812ZM767.625,896.467c.455-.257.807-.621,1.056-1.093.248-.472.372-1.017.372-1.636v-5.2c0-.618-.124-1.164-.372-1.636-.249-.472-.601-.836-1.056-1.093-.456-.256-.985-.384-1.588-.384s-1.131.128-1.586.384c-.456.257-.809.621-1.057,1.093-.248.472-.372,1.018-.372,1.636v5.2c0,.619.124,1.164.372,1.636.248.472.601.836,1.057,1.093.455.256.984.384,1.586.384s1.132-.128,1.588-.384Z" fill="#ccc"/>
      <path d="M788.969,890.088v3.467c0,1.318-.267,2.48-.8,3.485-.533,1.005-1.287,1.782-2.264,2.332-.977.549-2.108.824-3.395.824-1.293,0-2.435-.258-3.424-.775-.988-.517-1.754-1.247-2.295-2.191-.541-.944-.812-2.039-.812-3.284v-5.237c0-1.318.267-2.478.8-3.479.532-1.001,1.287-1.776,2.264-2.326.977-.549,2.108-.824,3.395-.824,1.058,0,2.034.218,2.93.653.895.436,1.642,1.052,2.239,1.85.599.798,1.003,1.721,1.215,2.771h-3.613c-.122-.374-.323-.698-.604-.97-.28-.273-.61-.48-.988-.623-.379-.142-.771-.213-1.178-.213-.595,0-1.117.13-1.569.391-.451.261-.802.631-1.05,1.111-.248.48-.372,1.034-.372,1.66v5.237c0,.554.126,1.042.378,1.465.253.423.611.749,1.074.977.465.228,1.002.342,1.611.342.603,0,1.13-.124,1.581-.373.452-.248.8-.608,1.044-1.08.244-.472.366-1.029.366-1.672v-.293h-2.686v-3.223h6.152Z" fill="#ccc"/>
    </g>
    <g>
      <rect x="851.468" y="858.661" width="66.913" height="64.957" fill="none"/>
      <path d="M859.772,879.069h4.549v24.139h-4.549v-24.139ZM862.063,898.824h5.794c1.494,0,2.65-.359,3.47-1.079.819-.719,1.229-1.737,1.229-3.055v-7.105c0-1.317-.409-2.335-1.229-3.055-.819-.719-1.976-1.079-3.47-1.079h-5.794v-4.383h5.694c2.015,0,3.732.338,5.155,1.013,1.422.675,2.504,1.66,3.245,2.955s1.112,2.855,1.112,4.682v6.84c0,1.738-.357,3.254-1.07,4.549-.715,1.295-1.785,2.302-3.213,3.021-1.428.72-3.177,1.079-5.246,1.079h-5.678v-4.383Z" fill="#ccc"/>
      <path d="M887.189,903.207h-4.715v-24.139h4.715v24.139Z" fill="#ccc"/>
      <path d="M893.224,879.052h4.549v24.155h-4.549v-24.155ZM895.034,889.113h8.4c.465,0,.874-.116,1.229-.349s.628-.564.821-.996c.194-.432.297-.93.308-1.494,0-.564-.097-1.062-.29-1.494-.194-.432-.468-.764-.822-.996s-.77-.349-1.245-.349h-8.4v-4.383h8.766c1.328,0,2.496.299,3.503.896s1.787,1.442,2.341,2.532c.554,1.09.83,2.355.83,3.793s-.276,2.704-.83,3.793c-.554,1.09-1.337,1.934-2.349,2.532-1.014.598-2.178.896-3.495.896h-8.766v-4.383ZM900.114,892.748l4.864-.764,6.508,11.223h-5.512l-5.86-10.459Z" fill="#ccc"/>
    </g>
    <g>
      <rect x="971.468" y="858.661" width="66.913" height="64.957" fill="none"/>
      <path d="M984.756,882.973h4.055v16.329h-2.797v-12.679l.113.719-3.123,10.141h-2.717l-3.123-9.917.113-.943v12.679h-2.797v-16.329h4.055l3.11,11.006,3.11-11.006Z" fill="#ccc"/>
      <path d="M997.565,882.973h1.954l6.244,16.329h-3.313l-3.908-11.152-3.908,11.152h-3.312l6.244-16.329ZM994.319,893.721h8.592v2.965h-8.592v-2.965Z" fill="#ccc"/>
      <path d="M1008.497,882.962h3.077v16.34h-3.077v-16.34ZM1009.722,889.768h5.682c.314,0,.592-.079.832-.236.239-.157.425-.382.556-.674s.2-.629.208-1.011c0-.382-.066-.719-.197-1.011s-.316-.517-.556-.674-.521-.236-.843-.236h-5.682v-2.965h5.93c.898,0,1.688.202,2.369.606s1.209.975,1.584,1.712c.374.738.561,1.593.561,2.566s-.187,1.829-.561,2.566c-.375.737-.904,1.308-1.59,1.712-.685.404-1.473.606-2.363.606h-5.93v-2.965ZM1013.158,892.227l3.291-.517,4.402,7.592h-3.729l-3.965-7.075Z" fill="#ccc"/>
      <path d="M1024.203,882.973h3.077v16.329h-3.077v-16.329ZM1026.056,892.924l6.547-9.95h3.875l-10.029,13.948-.393-3.998ZM1028.773,891.037l2.65-1.673,5.739,9.939h-3.649l-4.74-8.266Z" fill="#ccc"/>
    </g>
    <polygon points="303.786 745.408 317.797 752.805 317.797 748.232 356.264 748.232 356.264 742.583 317.797 742.583 317.797 738.01 303.786 745.408" fill="#ccc"/>
    <polygon points="465.264 745.408 451.252 738.01 451.252 742.583 412.786 742.583 412.786 748.232 451.252 748.232 451.252 752.805 465.264 745.408" fill="#ccc"/>
    <rect x="172.851" y="744.451" width="49" height="6" fill="#ccc"/>
    <rect x="534.178" y="741.583" width="73.644" height="6.182" transform="translate(-359.322 621.868) rotate(-45)" fill="#ccc"/>
    <polygon points="388.221 910.669 395.618 896.657 391.045 896.657 391.045 858.19 385.396 858.19 385.396 896.657 380.823 896.657 388.221 910.669" fill="#ccc"/>
    <g>
      <rect x="482.658" y="170.582" width="66.913" height="64.957" fill="none"/>
      <path d="M513.944,184.956h4.333l13.846,36.208h-7.346l-8.666-24.728-8.666,24.728h-7.347l13.846-36.208ZM506.747,208.787h19.05v6.574h-19.05v-6.574Z" fill="#ccc"/>
    </g>
    <g>
      <rect x="613.658" y="170.582" width="66.913" height="64.957" fill="none"/>
      <path d="M634.634,184.956h6.823v36.208h-6.823v-36.208ZM637.622,214.59h11.555c1.561,0,2.768-.377,3.623-1.133s1.283-1.814,1.283-3.175v-.075c0-.913-.191-1.693-.573-2.341s-.942-1.141-1.681-1.481c-.739-.34-1.623-.511-2.652-.511h-11.555v-6.574h11.555c1.411,0,2.503-.357,3.274-1.071.772-.713,1.158-1.718,1.158-3.013,0-1.162-.386-2.067-1.158-2.714-.771-.647-1.863-.971-3.274-.971h-11.555v-6.574h11.779c2.34,0,4.341.386,6.001,1.158,1.66.771,2.922,1.893,3.785,3.361.863,1.47,1.295,3.234,1.295,5.292,0,1.411-.278,2.661-.834,3.748-.557,1.087-1.366,1.979-2.429,2.677s-2.34,1.17-3.834,1.419c1.594.216,2.959.702,4.096,1.457,1.137.756,2.001,1.74,2.59,2.951.589,1.212.885,2.615.885,4.208v.075c0,2.076-.437,3.852-1.308,5.329-.872,1.478-2.142,2.603-3.811,3.374-1.668.772-3.673,1.158-6.014,1.158h-12.202v-6.574Z" fill="#ccc"/>
    </g>
    <g>
      <rect x="731.658" y="170.582" width="66.913" height="64.957" fill="none"/>
      <path d="M758.599,219.956c-1.959-1.054-3.453-2.59-4.482-4.606-1.029-2.018-1.544-4.454-1.544-7.309v-9.936c0-2.855.515-5.292,1.544-7.309,1.029-2.018,2.523-3.557,4.482-4.62,1.959-1.062,4.316-1.594,7.072-1.594,2.274,0,4.309.49,6.102,1.469,1.793.98,3.274,2.403,4.444,4.271,1.171,1.868,1.979,4.122,2.429,6.761h-7.072c-.267-1.195-.677-2.216-1.233-3.063s-1.229-1.494-2.017-1.942c-.789-.448-1.673-.672-2.652-.672-1.278,0-2.365.261-3.262.785-.896.522-1.582,1.287-2.055,2.291-.474,1.004-.71,2.212-.71,3.623v9.936c0,1.411.236,2.615.71,3.611.473.996,1.158,1.756,2.055,2.278.896.523,1.983.785,3.262.785.996,0,1.893-.22,2.689-.66s1.469-1.083,2.018-1.93c.547-.847.945-1.876,1.195-3.088h7.072c-.466,2.64-1.283,4.893-2.453,6.761-1.171,1.867-2.648,3.291-4.433,4.271-1.785.98-3.814,1.469-6.089,1.469-2.756,0-5.113-.527-7.072-1.582Z" fill="#ccc"/>
    </g>
    <g>
      <rect x="852.658" y="170.582" width="66.913" height="64.957" fill="none"/>
      <path d="M873.365,184.956h6.823v36.208h-6.823v-36.208ZM876.801,214.59h8.69c2.242,0,3.977-.539,5.205-1.619,1.229-1.079,1.843-2.606,1.843-4.582v-10.658c0-1.976-.614-3.502-1.843-4.582-1.229-1.079-2.963-1.619-5.205-1.619h-8.69v-6.574h8.542c3.021,0,5.599.507,7.731,1.519,2.133,1.013,3.756,2.49,4.868,4.433s1.669,4.283,1.669,7.022v10.26c0,2.606-.535,4.881-1.606,6.823-1.07,1.942-2.677,3.453-4.818,4.532-2.142,1.08-4.765,1.619-7.869,1.619h-8.517v-6.574Z" fill="#ccc"/>
    </g>
    <g>
      <rect x="969.658" y="170.582" width="66.913" height="64.957" fill="none"/>
      <path d="M991.859,184.956h6.823v36.208h-6.823v-36.208ZM994.324,184.956h21.79v6.574h-21.79v-6.574ZM994.324,199.897h19.051v6.574h-19.051v-6.574ZM994.324,214.59h21.79v6.574h-21.79v-6.574Z" fill="#ccc"/>
    </g>
    <g>
      <rect x="1086.658" y="170.582" width="66.913" height="64.957" fill="none"/>
      <path d="M1109.842,184.956h6.823v36.208h-6.823v-36.208ZM1112.332,184.956h21.291v6.574h-21.291v-6.574ZM1112.332,200.221h18.553v6.574h-18.553v-6.574Z" fill="#ccc"/>
    </g>
    <g>
      <rect x="482.658" y="303.93" width="66.913" height="64.957" fill="none"/>
      <path d="M529.359,334.262v7.072c0,2.689-.544,5.06-1.631,7.11-1.088,2.05-2.628,3.636-4.62,4.756-1.992,1.121-4.3,1.681-6.923,1.681-2.64,0-4.968-.527-6.984-1.582-2.018-1.054-3.578-2.543-4.682-4.47-1.104-1.926-1.656-4.159-1.656-6.699v-10.683c0-2.689.543-5.055,1.631-7.097,1.087-2.042,2.627-3.624,4.619-4.744,1.992-1.121,4.3-1.681,6.923-1.681,2.158,0,4.15.444,5.977,1.333s3.35,2.146,4.57,3.772c1.22,1.627,2.045,3.511,2.478,5.653h-7.371c-.249-.763-.66-1.423-1.232-1.98-.573-.556-1.245-.979-2.018-1.27-.771-.291-1.573-.436-2.403-.436-1.212,0-2.278.266-3.199.797-.922.532-1.636,1.287-2.142,2.266-.507.98-.76,2.108-.76,3.387v10.683c0,1.129.257,2.125.771,2.988.515.863,1.245,1.528,2.191,1.992.946.465,2.042.697,3.287.697,1.229,0,2.304-.253,3.226-.759.921-.506,1.631-1.241,2.129-2.204.498-.962.747-2.1.747-3.412v-.598h-5.479v-6.574h12.551Z" fill="#ccc"/>
    </g>
    <g>
      <rect x="613.658" y="303.93" width="66.913" height="64.957" fill="none"/>
      <path d="M633.788,318.3h6.823v36.208h-6.823v-36.208ZM636.951,333.266h21.093v6.574h-21.093v-6.574ZM653.611,318.3h6.823v36.208h-6.823v-36.208Z" fill="#ccc"/>
    </g>
    <g>
      <rect x="731.658" y="303.93" width="66.913" height="64.957" fill="none"/>
      <path d="M768.647,354.508h-7.072v-36.208h7.072v36.208Z" fill="#ccc"/>
    </g>
    <g>
      <rect x="852.658" y="303.93" width="66.913" height="64.957" fill="none"/>
      <path d="M877.524,353.586c-1.735-.863-3.084-2.083-4.047-3.661l5.578-4.059c.598.764,1.315,1.354,2.154,1.768.838.415,1.714.623,2.627.623,1.312,0,2.324-.46,3.038-1.382.714-.921,1.07-2.22,1.07-3.897v-24.678h7.072v24.703c0,2.507-.452,4.648-1.356,6.425-.905,1.777-2.221,3.129-3.947,4.059-1.727.93-3.81,1.395-6.251,1.395-2.225,0-4.204-.432-5.938-1.295Z" fill="#ccc"/>
    </g>
    <g>
      <rect x="969.658" y="303.93" width="66.913" height="64.957" fill="none"/>
      <path d="M990.738,318.3h6.823v36.208h-6.823v-36.208ZM994.847,340.363l14.518-22.063h8.592l-22.238,30.929-.871-8.865ZM1000.872,336.179l5.877-3.71,12.726,22.039h-8.093l-10.51-18.328Z" fill="#ccc"/>
    </g>
    <g>
      <rect x="1086.658" y="303.93" width="66.913" height="64.957" fill="none"/>
      <path d="M1109.482,318.3h6.823v36.208h-6.823v-36.208ZM1112.52,347.933h21.217v6.574h-21.217v-6.574Z" fill="#ccc"/>
    </g>
    <g>
      <rect x="482.658" y="432.752" width="66.913" height="64.957" fill="none"/>
      <path d="M523.008,447.128h8.99v36.208h-6.201v-28.115l.249,1.594-6.923,22.487h-6.026l-6.923-21.989.249-2.092v28.115h-6.2v-36.208h8.989l6.898,24.404,6.897-24.404Z" fill="#ccc"/>
    </g>
    <g>
      <rect x="613.658" y="432.752" width="66.913" height="64.957" fill="none"/>
      <path d="M633.24,447.128h8.342l13.473,27.741-.598.647v-28.389h6.524v36.183h-8.392l-13.423-27.318.598-.647v27.965h-6.524v-36.183Z" fill="#ccc"/>
    </g>
    <g>
      <rect x="731.658" y="432.752" width="66.913" height="64.957" fill="none"/>
      <path d="M758.175,482.053c-2.001-1.104-3.549-2.665-4.645-4.682-1.096-2.018-1.644-4.354-1.644-7.01v-10.26c0-2.656.548-4.993,1.644-7.01,1.096-2.017,2.644-3.577,4.645-4.682,2-1.104,4.312-1.656,6.936-1.656s4.934.552,6.935,1.656c2.001,1.104,3.549,2.665,4.645,4.682,1.096,2.018,1.644,4.354,1.644,7.01v10.26c0,2.656-.548,4.993-1.644,7.01-1.096,2.017-2.644,3.578-4.645,4.682s-4.312,1.656-6.935,1.656-4.936-.552-6.936-1.656ZM768.347,476.101c.93-.522,1.647-1.266,2.154-2.229.507-.962.76-2.075.76-3.337v-10.608c0-1.261-.253-2.374-.76-3.337-.507-.962-1.225-1.706-2.154-2.229-.93-.523-2.009-.785-3.236-.785s-2.309.261-3.238.785c-.93.522-1.647,1.266-2.153,2.229-.507.963-.76,2.076-.76,3.337v10.608c0,1.262.253,2.375.76,3.337.506.963,1.224,1.706,2.153,2.229.93.523,2.009.785,3.238.785s2.307-.261,3.236-.785Z" fill="#ccc"/>
    </g>
    <g>
      <rect x="852.658" y="432.752" width="66.913" height="64.957" fill="none"/>
      <path d="M874.224,447.128h6.823v36.208h-6.823v-36.208ZM877.337,462.717h11.579c.813,0,1.531-.187,2.154-.561.622-.373,1.108-.9,1.456-1.581.35-.681.523-1.46.523-2.341,0-.896-.171-1.689-.511-2.378s-.821-1.221-1.444-1.594c-.622-.374-1.349-.561-2.179-.561h-11.579v-6.574h11.404c2.258,0,4.246.461,5.965,1.382,1.718.922,3.051,2.221,3.996,3.897.947,1.677,1.42,3.62,1.42,5.827s-.473,4.146-1.42,5.814c-.945,1.669-2.278,2.96-3.996,3.873-1.719.913-3.707,1.37-5.965,1.37h-11.404v-6.574Z" fill="#ccc"/>
    </g>
    <g>
      <rect x="969.658" y="432.752" width="66.913" height="64.957" fill="none"/>
      <path d="M995.88,482.053c-2.001-1.104-3.549-2.665-4.645-4.682-1.096-2.018-1.644-4.354-1.644-7.01v-10.26c0-2.656.548-4.993,1.644-7.01,1.096-2.017,2.644-3.577,4.645-4.682,2-1.104,4.312-1.656,6.936-1.656s4.934.552,6.935,1.656c2.001,1.104,3.549,2.665,4.645,4.682,1.096,2.018,1.644,4.354,1.644,7.01v10.26c0,2.656-.548,4.993-1.644,7.01-1.096,2.017-2.644,3.578-4.645,4.682s-4.312,1.656-6.935,1.656-4.936-.552-6.936-1.656ZM1006.052,476.101c.93-.522,1.647-1.266,2.154-2.229.507-.962.76-2.075.76-3.337v-10.608c0-1.261-.253-2.374-.76-3.337-.507-.962-1.225-1.706-2.154-2.229-.93-.523-2.009-.785-3.236-.785s-2.309.261-3.238.785c-.93.522-1.647,1.266-2.153,2.229-.507.963-.76,2.076-.76,3.337v10.608c0,1.262.253,2.375.76,3.337.506.963,1.224,1.706,2.153,2.229.93.523,2.009.785,3.238.785s2.307-.261,3.236-.785ZM1001.745,473.3l3.636-4.607,13.995,10.608-3.636,4.632-13.995-10.633Z" fill="#ccc"/>
    </g>
    <g>
      <rect x="1086.658" y="432.752" width="66.913" height="64.957" fill="none"/>
      <path d="M1107.477,447.103h6.823v36.233h-6.823v-36.233ZM1110.192,462.194h12.6c.697,0,1.312-.174,1.844-.523.53-.349.941-.847,1.232-1.494.29-.647.443-1.395.461-2.241,0-.847-.146-1.594-.437-2.241s-.701-1.146-1.232-1.494-1.154-.523-1.868-.523h-12.6v-6.574h13.148c1.992,0,3.743.448,5.254,1.345s2.681,2.163,3.512,3.797c.829,1.636,1.244,3.533,1.244,5.69s-.415,4.055-1.244,5.69c-.831,1.635-2.005,2.901-3.524,3.797-1.519.896-3.267,1.345-5.241,1.345h-13.148v-6.574ZM1117.811,467.647l7.297-1.146,9.762,16.834h-8.268l-8.791-15.688Z" fill="#ccc"/>
    </g>
    <g>
      <rect x="482.658" y="566.745" width="66.913" height="64.957" fill="none"/>
      <path d="M510.706,617.178c-1.652-.349-3.204-.859-4.656-1.531-1.453-.673-2.752-1.482-3.897-2.428l3.162-5.628c1.395,1.146,3.005,2.03,4.831,2.652,1.826.623,3.702.934,5.628.934,2.225,0,3.951-.377,5.18-1.133,1.229-.755,1.843-1.821,1.843-3.2v-.025c0-.962-.273-1.727-.821-2.291-.548-.564-1.262-.979-2.142-1.245-.881-.265-2.009-.506-3.387-.722-.05-.016-.096-.025-.137-.025-.042,0-.088-.008-.138-.025l-.548-.075c-2.424-.382-4.433-.859-6.026-1.432-1.594-.573-2.947-1.577-4.059-3.014-1.112-1.436-1.669-3.474-1.669-6.113v-.025c0-2.341.523-4.341,1.569-6.001,1.046-1.66,2.564-2.926,4.557-3.798,1.992-.871,4.399-1.307,7.222-1.307,1.295,0,2.619.149,3.973.448,1.353.299,2.677.731,3.972,1.295,1.295.564,2.523,1.245,3.686,2.042l-2.889,5.777c-1.395-.962-2.852-1.709-4.37-2.241-1.52-.531-2.977-.797-4.371-.797-2.092,0-3.71.345-4.855,1.034s-1.719,1.656-1.719,2.901v.025c0,1.046.299,1.872.896,2.478.598.606,1.336,1.05,2.217,1.333.88.283,2.116.582,3.71.896.066.017.133.029.199.038s.133.021.199.037c.1.017.195.037.287.062.091.024.187.046.286.062,2.291.448,4.204.992,5.74,1.631,1.535.639,2.817,1.668,3.847,3.088,1.029,1.419,1.544,3.358,1.544,5.814v.05c0,2.308-.539,4.283-1.618,5.927-1.08,1.644-2.652,2.897-4.719,3.76-2.067.863-4.554,1.295-7.459,1.295-1.727,0-3.416-.174-5.067-.523Z" fill="#ccc"/>
    </g>
    <g>
      <rect x="613.658" y="566.745" width="66.913" height="64.957" fill="none"/>
      <path d="M633.837,581.12h26.546v6.574h-26.546v-6.574ZM643.699,584.083h6.823v33.245h-6.823v-33.245Z" fill="#ccc"/>
    </g>
    <g>
      <rect x="731.658" y="566.745" width="66.913" height="64.957" fill="none"/>
      <path d="M757.939,616.12c-1.976-1.054-3.478-2.59-4.507-4.606-1.029-2.018-1.544-4.445-1.544-7.284v-23.109h6.823v23.284c0,2.076.556,3.686,1.669,4.831,1.111,1.146,2.681,1.718,4.706,1.718,2.042,0,3.623-.573,4.744-1.718,1.12-1.146,1.681-2.755,1.681-4.831v-23.284h6.823v23.109c0,2.839-.52,5.267-1.557,7.284-1.037,2.017-2.549,3.553-4.532,4.606-1.983,1.055-4.37,1.582-7.159,1.582s-5.172-.527-7.147-1.582Z" fill="#ccc"/>
    </g>
    <g>
      <rect x="969.658" y="566.745" width="66.913" height="64.957" fill="none"/>
      <path d="M1000.376,581.12h5.479l6.922,24.155,4.657-24.155h7.022l-8.342,36.208h-6.426l-6.424-25.301-6.725,25.301h-6.424l-8.343-36.208h7.022l4.656,24.155,6.924-24.155Z" fill="#ccc"/>
    </g>
    <g>
      <rect x="852.658" y="566.745" width="66.913" height="64.957" fill="none"/>
      <path d="M871.397,581.12h7.022l7.695,24.155,7.694-24.155h7.022l-12.053,36.208h-5.329l-12.053-36.208Z" fill="#ccc"/>
    </g>
    <g>
      <rect x="1086.658" y="566.745" width="66.913" height="64.957" fill="none"/>
      <path d="M1118.695,595.04l8.143-13.92h7.197l-11.979,20.47-9.213,15.738h-7.197l13.049-22.288ZM1118.62,602.511l-.697-1.17-11.979-20.221h7.197l8.117,13.721.947,1.619,12.376,20.868h-7.196l-8.766-14.817Z" fill="#ccc"/>
    </g>
  </g>
  <g id="Highlight_Dedicated_Keys_-_Dark">
    <rect x="469.217" y="845.63" width="83" height="91" fill="none" stroke="#ccc" stroke-miterlimit="10" stroke-width="5"/>
    <rect x="461.217" y="836.13" width="101" height="110" fill="none" stroke="#ccc" stroke-miterlimit="10" stroke-width="5"/>
    <rect x="593.217" y="845.63" width="83" height="91" fill="none" stroke="#ccc" stroke-miterlimit="10" stroke-width="5"/>
    <rect x="585.217" y="836.13" width="101" height="110" fill="none" stroke="#ccc" stroke-miterlimit="10" stroke-width="5"/>
    <rect x="715.217" y="845.63" width="83" height="91" fill="none" stroke="#ccc" stroke-miterlimit="10" stroke-width="5"/>
    <rect x="707.217" y="836.13" width="101" height="110" fill="none" stroke="#ccc" stroke-miterlimit="10" stroke-width="5"/>
    <rect x="842.217" y="845.63" width="83" height="91" fill="none" stroke="#ccc" stroke-miterlimit="10" stroke-width="5"/>
    <rect x="834.217" y="836.13" width="101" height="110" fill="none" stroke="#ccc" stroke-miterlimit="10" stroke-width="5"/>
    <rect x="962.217" y="845.63" width="83" height="91" fill="none" stroke="#ccc" stroke-miterlimit="10" stroke-width="5"/>
    <rect x="954.217" y="836.13" width="101" height="110" fill="none" stroke="#ccc" stroke-miterlimit="10" stroke-width="5"/>
    <g>
      <rect x="478.536" y="858.69" width="66.913" height="64.957" fill="none"/>
      <path d="M491.609,903.947h-4.992v-25.559h4.992v25.559Z" fill="#ccc"/>
      <path d="M497.998,878.388h4.816v25.559h-4.816v-25.559ZM500.424,899.306h6.135c1.582,0,2.807-.381,3.674-1.143s1.301-1.84,1.301-3.234v-7.523c0-1.395-.434-2.473-1.301-3.234s-2.092-1.143-3.674-1.143h-6.135v-4.641h6.029c2.133,0,3.952.357,5.458,1.072s2.651,1.758,3.437,3.129,1.178,3.023,1.178,4.957v7.242c0,1.84-.378,3.445-1.134,4.816s-1.89,2.438-3.401,3.199-3.363,1.143-5.555,1.143h-6.012v-4.641Z" fill="#ccc"/>
      <path d="M528.611,888.215l5.748-9.826h5.08l-8.455,14.449-6.504,11.109h-5.08l9.211-15.732ZM528.558,893.488l-.492-.826-8.455-14.273h5.08l5.73,9.686.668,1.143,8.736,14.73h-5.08l-6.188-10.459Z" fill="#ccc"/>
    </g>
    <g>
      <rect x="602.536" y="858.69" width="66.913" height="64.957" fill="none"/>
      <path d="M606.093,882.293h3.345v17.749h-3.345v-17.749ZM607.314,882.293h10.437v3.223h-10.437v-3.223ZM607.314,889.776h9.094v3.223h-9.094v-3.223Z" fill="#ccc"/>
      <path d="M621.089,882.293h3.345v17.749h-3.345v-17.749ZM622.615,889.935h5.677c.398,0,.75-.092,1.055-.274.307-.184.543-.441.715-.775.17-.333.256-.716.256-1.147,0-.439-.084-.828-.25-1.166-.166-.337-.402-.598-.707-.781-.307-.183-.662-.274-1.068-.274h-5.677v-3.223h5.591c1.107,0,2.082.226,2.924.678.842.451,1.494,1.088,1.959,1.91.463.822.695,1.774.695,2.856s-.232,2.032-.695,2.851c-.465.817-1.117,1.451-1.959,1.898-.842.448-1.816.671-2.924.671h-5.591v-3.223Z" fill="#ccc"/>
      <path d="M637.183,882.293h3.345v17.749h-3.345v-17.749ZM638.672,896.82h10.4v3.223h-10.4v-3.223Z" fill="#ccc"/>
      <path d="M652.289,882.293h4.09l6.604,13.599-.293.317v-13.916h3.198v17.737h-4.114l-6.579-13.391.293-.317v13.708h-3.198v-17.737Z" fill="#ccc"/>
    </g>
    <g>
      <rect x="724.536" y="858.69" width="66.913" height="64.957" fill="none"/>
      <path d="M727.312,882.293h3.345v17.749h-3.345v-17.749ZM728.837,889.935h5.677c.398,0,.751-.092,1.056-.274.306-.184.543-.441.715-.775.17-.333.256-.716.256-1.147,0-.439-.084-.828-.25-1.166-.167-.337-.403-.598-.708-.781-.306-.183-.661-.274-1.068-.274h-5.677v-3.223h5.592c1.106,0,2.081.226,2.923.678.843.451,1.495,1.088,1.96,1.91.463.822.695,1.774.695,2.856s-.232,2.032-.695,2.851c-.465.817-1.117,1.451-1.96,1.898-.842.448-1.816.671-2.923.671h-5.592v-3.223Z" fill="#ccc"/>
      <path d="M743.407,882.281h3.345v17.761h-3.345v-17.761ZM744.737,889.678h6.178c.342,0,.643-.085.902-.256.261-.171.462-.415.604-.732s.218-.684.226-1.099c0-.415-.071-.781-.213-1.099-.143-.317-.344-.562-.604-.732s-.565-.256-.915-.256h-6.178v-3.223h6.445c.977,0,1.836.22,2.576.659s1.314,1.06,1.721,1.862c.407.801.611,1.731.611,2.789s-.204,1.988-.611,2.789c-.406.802-.982,1.422-1.727,1.862-.745.439-1.602.659-2.57.659h-6.445v-3.223ZM748.473,892.352l3.576-.562,4.785,8.252h-4.053l-4.309-7.69Z" fill="#ccc"/>
      <path d="M762.705,899.413c-.98-.541-1.739-1.306-2.276-2.295-.537-.988-.806-2.134-.806-3.436v-5.029c0-1.302.269-2.448.806-3.436.537-.989,1.296-1.754,2.276-2.295.98-.542,2.114-.812,3.399-.812s2.419.271,3.4.812c.98.541,1.739,1.306,2.276,2.295.537.988.806,2.134.806,3.436v5.029c0,1.302-.269,2.448-.806,3.436-.537.989-1.296,1.754-2.276,2.295-.981.542-2.114.812-3.4.812s-2.419-.271-3.399-.812ZM767.693,896.496c.455-.257.807-.621,1.056-1.093.248-.472.372-1.017.372-1.636v-5.2c0-.618-.124-1.164-.372-1.636-.249-.472-.601-.836-1.056-1.093-.456-.256-.985-.384-1.588-.384s-1.131.128-1.586.384c-.456.257-.809.621-1.057,1.093-.248.472-.372,1.018-.372,1.636v5.2c0,.619.124,1.164.372,1.636.248.472.601.836,1.057,1.093.455.256.984.384,1.586.384s1.132-.128,1.588-.384Z" fill="#ccc"/>
      <path d="M789.037,890.118v3.467c0,1.318-.267,2.48-.8,3.485-.533,1.005-1.287,1.782-2.264,2.332-.977.549-2.108.824-3.395.824-1.293,0-2.435-.258-3.424-.775-.988-.517-1.754-1.247-2.295-2.191-.541-.944-.812-2.039-.812-3.284v-5.237c0-1.318.267-2.478.8-3.479.532-1.001,1.287-1.776,2.264-2.326.977-.549,2.108-.824,3.395-.824,1.058,0,2.034.218,2.93.653.895.436,1.642,1.052,2.239,1.85.599.798,1.003,1.721,1.215,2.771h-3.613c-.122-.374-.323-.698-.604-.97-.28-.273-.61-.48-.988-.623-.379-.142-.771-.213-1.178-.213-.595,0-1.117.13-1.569.391-.451.261-.802.631-1.05,1.111-.248.48-.372,1.034-.372,1.66v5.237c0,.554.126,1.042.378,1.465.253.423.611.749,1.074.977.465.228,1.002.342,1.611.342.603,0,1.13-.124,1.581-.373.452-.248.8-.608,1.044-1.08.244-.472.366-1.029.366-1.672v-.293h-2.686v-3.223h6.152Z" fill="#ccc"/>
    </g>
    <g>
      <rect x="851.536" y="858.69" width="66.913" height="64.957" fill="none"/>
      <path d="M859.839,879.098h4.549v24.139h-4.549v-24.139ZM862.13,898.854h5.794c1.494,0,2.65-.359,3.47-1.079.819-.719,1.229-1.737,1.229-3.055v-7.105c0-1.317-.409-2.335-1.229-3.055-.819-.719-1.976-1.079-3.47-1.079h-5.794v-4.383h5.694c2.015,0,3.732.338,5.155,1.013,1.422.675,2.504,1.66,3.245,2.955s1.112,2.855,1.112,4.682v6.84c0,1.738-.357,3.254-1.07,4.549-.715,1.295-1.785,2.302-3.213,3.021-1.428.72-3.177,1.079-5.246,1.079h-5.678v-4.383Z" fill="#ccc"/>
      <path d="M887.256,903.237h-4.715v-24.139h4.715v24.139Z" fill="#ccc"/>
      <path d="M893.291,879.082h4.549v24.155h-4.549v-24.155ZM895.101,889.142h8.4c.465,0,.874-.116,1.229-.349s.628-.564.821-.996c.194-.432.297-.93.308-1.494,0-.564-.097-1.062-.29-1.494-.194-.432-.468-.764-.822-.996s-.77-.349-1.245-.349h-8.4v-4.383h8.766c1.328,0,2.496.299,3.503.896s1.787,1.442,2.341,2.532c.554,1.09.83,2.355.83,3.793s-.276,2.704-.83,3.793c-.554,1.09-1.337,1.934-2.349,2.532-1.014.598-2.178.896-3.495.896h-8.766v-4.383ZM900.181,892.778l4.864-.764,6.508,11.223h-5.512l-5.86-10.459Z" fill="#ccc"/>
    </g>
    <g>
      <rect x="971.536" y="858.69" width="66.913" height="64.957" fill="none"/>
      <path d="M984.824,883.003h4.055v16.329h-2.797v-12.679l.113.719-3.123,10.141h-2.717l-3.123-9.917.113-.943v12.679h-2.797v-16.329h4.055l3.11,11.006,3.11-11.006Z" fill="#ccc"/>
      <path d="M997.632,883.003h1.954l6.244,16.329h-3.313l-3.908-11.152-3.908,11.152h-3.312l6.244-16.329ZM994.386,893.751h8.592v2.965h-8.592v-2.965Z" fill="#ccc"/>
      <path d="M1008.565,882.992h3.077v16.34h-3.077v-16.34ZM1009.789,889.798h5.682c.314,0,.592-.079.832-.236.239-.157.425-.382.556-.674s.2-.629.208-1.011c0-.382-.066-.719-.197-1.011s-.316-.517-.556-.674-.521-.236-.843-.236h-5.682v-2.965h5.93c.898,0,1.688.202,2.369.606s1.209.975,1.584,1.712c.374.738.561,1.593.561,2.566s-.187,1.829-.561,2.566c-.375.737-.904,1.308-1.59,1.712-.685.404-1.473.606-2.363.606h-5.93v-2.965ZM1013.225,892.257l3.291-.517,4.402,7.592h-3.729l-3.965-7.075Z" fill="#ccc"/>
      <path d="M1024.27,883.003h3.077v16.329h-3.077v-16.329ZM1026.123,892.953l6.547-9.95h3.875l-10.029,13.948-.393-3.998ZM1028.84,891.067l2.65-1.673,5.739,9.939h-3.649l-4.74-8.266Z" fill="#ccc"/>
    </g>
    <rect x="651.696" y="699.609" width="83" height="91" fill="none" stroke="#ccc" stroke-miterlimit="10" stroke-width="5"/>
    <rect x="643.696" y="690.109" width="101" height="110" fill="none" stroke="#ccc" stroke-miterlimit="10" stroke-width="5"/>
    <rect x="778.696" y="699.609" width="83" height="91" fill="none" stroke="#ccc" stroke-miterlimit="10" stroke-width="5"/>
    <rect x="770.696" y="690.109" width="101" height="110" fill="none" stroke="#ccc" stroke-miterlimit="10" stroke-width="5"/>
    <g>
      <rect x="661.014" y="712.669" width="66.913" height="64.957" fill="none"/>
      <path d="M663.598,736.261h3.345v17.762h-3.345v-17.762ZM664.928,743.658h6.178c.342,0,.643-.085.902-.256.261-.171.462-.415.604-.732s.218-.684.226-1.099c0-.415-.071-.781-.213-1.099-.143-.317-.344-.562-.604-.732s-.565-.257-.915-.257h-6.178v-3.223h6.445c.977,0,1.836.22,2.576.659s1.314,1.061,1.721,1.862c.407.801.611,1.731.611,2.789s-.204,1.987-.611,2.789c-.406.802-.982,1.422-1.727,1.861-.745.439-1.602.659-2.57.659h-6.445v-3.223ZM668.664,746.332l3.576-.562,4.785,8.252h-4.053l-4.309-7.69Z" fill="#ccc"/>
      <path d="M680.669,736.274h4.09l6.604,13.599-.293.317v-13.916h3.198v17.736h-4.114l-6.579-13.391.293-.317v13.708h-3.198v-17.736Z" fill="#ccc"/>
      <path d="M703.783,736.274h2.124l6.787,17.749h-3.601l-4.248-12.122-4.248,12.122h-3.602l6.787-17.749ZM700.255,747.955h9.338v3.223h-9.338v-3.223Z" fill="#ccc"/>
      <path d="M712.737,736.274h3.442l3.771,11.841,3.772-11.841h3.442l-5.908,17.749h-2.612l-5.908-17.749Z" fill="#ccc"/>
    </g>
    <g>
      <rect x="788.014" y="712.669" width="66.913" height="64.957" fill="none"/>
      <path d="M799.01,753.597c-.777-.164-1.508-.404-2.191-.721s-1.295-.697-1.834-1.143l1.488-2.648c.656.539,1.414.955,2.273,1.248s1.742.439,2.648.439c1.047,0,1.859-.178,2.438-.533s.867-.857.867-1.506v-.012c0-.453-.129-.812-.387-1.078s-.594-.461-1.008-.586-.945-.238-1.594-.34c-.023-.008-.045-.012-.064-.012s-.041-.004-.064-.012l-.258-.035c-1.141-.18-2.086-.404-2.836-.674s-1.387-.742-1.91-1.418-.785-1.635-.785-2.877v-.012c0-1.102.246-2.043.738-2.824s1.207-1.377,2.145-1.787,2.07-.615,3.398-.615c.609,0,1.232.07,1.869.211s1.26.344,1.869.609,1.188.586,1.734.961l-1.359,2.719c-.656-.453-1.342-.805-2.057-1.055s-1.4-.375-2.057-.375c-.984,0-1.746.162-2.285.486s-.809.779-.809,1.365v.012c0,.492.141.881.422,1.166s.629.494,1.043.627.996.273,1.746.422c.031.008.062.014.094.018s.062.01.094.018c.047.008.092.018.135.029s.088.021.135.029c1.078.211,1.979.467,2.701.768s1.326.785,1.811,1.453.727,1.58.727,2.736v.023c0,1.086-.254,2.016-.762,2.789s-1.248,1.363-2.221,1.77-2.143.609-3.51.609c-.812,0-1.607-.082-2.385-.246Z" fill="#ccc"/>
      <path d="M809.217,736.628h12.492v3.094h-12.492v-3.094ZM813.858,738.023h3.211v15.645h-3.211v-15.645Z" fill="#ccc"/>
      <path d="M828.149,736.628h2.039l6.516,17.039h-3.457l-4.078-11.637-4.078,11.637h-3.457l6.516-17.039ZM824.762,747.843h8.965v3.094h-8.965v-3.094Z" fill="#ccc"/>
      <path d="M836.745,736.628h12.492v3.094h-12.492v-3.094ZM841.385,738.023h3.211v15.645h-3.211v-15.645Z" fill="#ccc"/>
    </g>
    <rect x="1014.283" y="22.587" width="83" height="91" fill="none" stroke="#ccc" stroke-miterlimit="10" stroke-width="5"/>
    <rect x="1006.283" y="13.087" width="101" height="110" rx="11.255" ry="11.255" fill="none" stroke="#ccc" stroke-miterlimit="10" stroke-width="5"/>
    <g>
      <path d="M1037.526,51.817h3.878v25.171h-2.675v-19.545l.107,1.108-2.986,15.632h-2.6l-2.986-15.286.107-1.454v19.545h-2.675v-25.171h3.878l2.976,16.966,2.976-16.966Z" fill="#ccc"/>
      <path d="M1045.523,51.817h2.943v25.171h-2.943v-25.171ZM1046.586,51.817h9.399v4.57h-9.399v-4.57ZM1046.586,62.204h8.218v4.57h-8.218v-4.57ZM1046.586,72.418h9.399v4.57h-9.399v-4.57Z" fill="#ccc"/>
      <path d="M1059.354,51.817h3.599l5.812,19.286-.258.45v-19.735h2.814v25.154h-3.62l-5.79-18.991.258-.45v19.441h-2.814v-25.154Z" fill="#ccc"/>
      <path d="M1077.835,76.149c-.853-.732-1.5-1.8-1.944-3.203-.444-1.402-.666-3.09-.666-5.063v-16.065h2.943v16.187c0,1.443.24,2.562.72,3.358s1.156,1.195,2.03,1.195c.881,0,1.563-.398,2.047-1.195s.725-1.916.725-3.358v-16.187h2.943v16.065c0,1.974-.224,3.662-.671,5.063-.448,1.402-1.1,2.47-1.955,3.203-.856.733-1.886,1.1-3.089,1.1s-2.23-.366-3.083-1.1Z" fill="#ccc"/>
    </g>
  </g>
</svg>