<?xml version="1.0" encoding="UTF-8"?>
<svg xmlns="http://www.w3.org/2000/svg" width="1573.826" height="129.913" viewBox="0 0 1573.826 129.913">
  <g id="g" data-name="BUTTON_-_Light">
    <rect x="779.587" y="20.5" width="83" height="91" rx="1.738" ry="1.738" fill="none" stroke="#000" stroke-miterlimit="10" stroke-width="5"/>
    <rect x="770.587" y="11" width="101" height="110" rx="5.276" ry="5.276" fill="none" stroke="#000" stroke-miterlimit="10" stroke-width="5"/>
  </g>
  <g id="h" data-name="F6_-_Light">
    <g>
      <path d="M805.683,57.706v8.027h5.784v1.958h-5.784v11.845h-1.779v-23.789h13.436v1.958h-11.656Z" fill="#ccc" stroke="#000" stroke-miterlimit="10" stroke-width="2"/>
      <path d="M834.731,68.848c.496.954.562,1.87.562,2.639v.881c0,.828-.165,1.635-.517,2.539l-.046.1c-.406.784-.924,1.466-1.537,2.028-.561.514-1.306.964-2.215,1.339-.74.305-1.599.454-2.626.454-.879,0-1.734-.203-2.529-.421l-.096-.033c-.91-.375-1.655-.826-2.215-1.339-.613-.562-1.13-1.245-1.538-2.028-.495-.954-.562-1.869-.562-2.639-.007-.136-.175-4.428.465-7.649.855-4.071,4.878-8.499,7.454-10.135l.89,1.696c-2.286,1.451-5.905,5.527-6.606,8.868-.117.585-.203,1.219-.269,1.858.151-.146.311-.286.478-.42.47-.414,1.379-.986,2.15-1.229.774-.245,4.077-.26,5.005.123.908.375,1.654.826,2.215,1.34.612.562,1.131,1.245,1.537,2.028h0ZM833.516,72.371v-.881c0-.746-.092-1.214-.328-1.668-.301-.58-.682-1.084-1.132-1.496-.401-.368-.989-.717-1.7-1.01-.521-.204-3.373-.223-3.894-.073-.512.162-1.206.593-1.555.899-1.068.863-1.713,2.024-1.713,3.054h-.022c.003.682.021,1.118.021,1.13,0,.791.092,1.258.328,1.712.302.58.683,1.083,1.132,1.496.391.359.962.701,1.653.99.669.183,1.378.349,2.047.349.81,0,1.464-.107,2.001-.329.712-.295,1.3-.644,1.7-1.01.438-.4.811-.888,1.107-1.448.243-.637.353-1.168.353-1.715h0Z" fill="#ccc" stroke="#000" stroke-miterlimit="10" stroke-width="2"/>
    </g>
  </g>
</svg>