<?xml version="1.0" encoding="UTF-8"?>
<svg xmlns="http://www.w3.org/2000/svg" width="1573.826" height="129.913" viewBox="0 0 1573.826 129.913">
  <g id="BUTTON_-_Light">
    <rect x="779.587" y="20.5" width="83" height="91" rx="1.738" ry="1.738" fill="none" stroke="#000" stroke-miterlimit="10" stroke-width="5"/>
    <rect x="770.587" y="11" width="101" height="110" rx="5.276" ry="5.276" fill="none" stroke="#000" stroke-miterlimit="10" stroke-width="5"/>
  </g>
  <g id="PROG_-_Light">
    <g>
      <path d="M798.959,60.266c.352.902.517,1.71.517,2.539,0,.86-.179,1.772-.517,2.639-.298.761-.787,1.551-1.346,2.165-.514.566-1.346,1.321-2.394,1.706-.973.479-2.104.539-2.862.539h-5.07v9.692h-1.78v-23.887h6.763c1.07,0,2.005.213,2.942.672.964.473,1.749,1.051,2.402,1.769.559.613,1.048,1.402,1.346,2.167h0ZM797.326,64.671c.244-.625.373-1.27.373-1.866,0-.563-.115-1.108-.373-1.768-.205-.527-.576-1.123-.968-1.553-.504-.553-1.098-.987-1.868-1.365-.711-.348-1.395-.502-2.219-.502h-4.982v10.279h5.07c.962,0,1.646-.125,2.219-.405.641-.24,1.243-.677,1.779-1.266.393-.432.764-1.026.968-1.554h0Z" fill="#ccc" stroke="#000" stroke-miterlimit="10" stroke-width="2"/>
      <path d="M812.348,69.612l5.139,9.366v.567h-1.331l-.319.212-5.438-9.907c-.039,0-.08.002-.118.002h-4.984v9.692h-1.779v-23.887h6.673c1.027,0,2.043.233,2.943.672.965.473,1.751,1.051,2.402,1.769.528.581.92,1.334,1.299,2.062l.047.104c.353.906.518,1.713.518,2.539,0,.858-.18,1.769-.518,2.637-.298.764-.789,1.554-1.346,2.167-.515.566-1.347,1.321-2.394,1.706-.263.129-.528.224-.794.299h0ZM805.296,57.616v10.279h4.984c.999,0,1.621-.115,2.218-.405.641-.24,1.243-.677,1.778-1.266.397-.438.76-1.02.97-1.555.243-.625.372-1.271.372-1.865,0-.546-.109-1.078-.354-1.718-.327-.63-.636-1.217-.987-1.604-.503-.553-1.096-.987-1.867-1.365-.673-.328-1.44-.502-2.22-.502h-4.895Z" fill="#ccc" stroke="#000" stroke-miterlimit="10" stroke-width="2"/>
      <path d="M834.781,58.937c.41.905.627,1.938.627,2.984v10.67c0,1.048-.217,2.08-.627,2.983-.386.85-.968,1.645-1.729,2.362-.681.625-1.412,1.049-2.183,1.27-.703.282-1.461.425-2.312.434h-.089c-.951-.008-1.71-.149-2.448-.453-.804-.333-1.519-.783-2.126-1.34-.771-.728-1.354-1.522-1.739-2.37-.411-.904-.628-1.936-.628-2.983v-10.671c0-1.047.218-2.079.628-2.983.386-.85.969-1.644,1.73-2.362.68-.624,1.411-1.048,2.182-1.269.725-.292,1.512-.435,2.4-.435.954,0,1.809.153,2.537.454.803.331,1.518.782,2.126,1.339.676.637,1.213,1.411,1.649,2.369h0ZM833.626,72.59v-10.67c0-.744-.151-1.474-.439-2.108-.332-.731-.715-1.287-1.206-1.75-.445-.408-.988-.747-1.602-1.001-.522-.215-1.183-.329-1.912-.329-.7,0-1.28.104-1.823.329l-.097.034c-.527.145-1.036.44-1.514.879-.571.539-1.009,1.128-1.287,1.742-.288.634-.44,1.363-.44,2.107v10.67c0,.745.153,1.474.44,2.108.278.613.715,1.202,1.296,1.75.444.407.987.747,1.603,1.001.541.223,1.117.325,1.865.329.681-.004,1.246-.109,1.781-.329l.096-.033c.526-.145,1.036-.44,1.516-.879.57-.539,1.007-1.128,1.285-1.742.287-.632.439-1.362.439-2.107h0Z" fill="#ccc" stroke="#000" stroke-miterlimit="10" stroke-width="2"/>
      <path d="M847.275,66.217h6.406v7.049c0,.735,0,1.847-.58,2.868l-.079.132c-.348.578-.708,1.174-1.539,1.745-.41.343-1.415.875-2.115,1.163-.74.306-1.599.455-2.626.455s-1.886-.149-2.626-.455c-.91-.376-1.654-.826-2.214-1.339-.786-.647-1.301-1.44-1.755-2.139l-.074-.134c-.411-.903-.628-1.936-.628-2.983v-10.769c0-1.195.234-2.141.758-3.064.419-.933,1.218-1.752,1.777-2.281.659-.604,1.454-.932,2.224-1.249.741-.307,1.601-.455,2.627-.455s1.886.148,2.626.454c.688.283,1.419.667,2.176,1.143l.092.066c.914.755,1.571,1.563,1.952,2.401l-1.592.876c-.251-.552-.716-1.115-1.384-1.674-.648-.403-1.293-.741-1.869-.979-.537-.222-1.191-.33-2.001-.33s-1.464.107-2.001.329c-.661.273-1.284.53-1.701.913-.433.409-1.059,1.045-1.375,1.741-.383.684-.529,1.29-.529,2.108v10.769c0,.72.143,1.423.411,2.042.402.618.788,1.199,1.369,1.678.437.397,1.024.747,1.736,1.041.537.222,1.191.33,2.001.33s1.464-.108,2.001-.329c.679-.28,1.477-.729,1.736-.944.564-.394.763-.719,1.06-1.214l.067-.112c.296-.521.296-1.204.296-1.806v-5.091h-4.627v-1.956Z" fill="#ccc" stroke="#000" stroke-miterlimit="10" stroke-width="2"/>
    </g>
  </g>
</svg>