<?xml version="1.0" encoding="UTF-8"?>
<svg xmlns="http://www.w3.org/2000/svg" width="1573.826" height="129.913" viewBox="0 0 1573.826 129.913">
  <g id="Highlight_Dedicated_Keys_-_Dark">
    <g>
      <path d="M804.37,75.972c.607-.504,1.133-1.144,1.607-1.98l1.696,1.167c-.602,1.059-1.305,1.913-2.148,2.611-.706.52-1.582,1.002-2.449,1.361-.987.362-1.889.511-3.054.511-1.239,0-2.208-.162-3.053-.51-.868-.318-1.66-.772-2.531-1.457-.866-.594-1.616-1.509-2.114-2.606-.462-1.015-.706-2.176-.706-3.355v-12.002c0-1.393.407-2.479.806-3.355.648-1.151,1.351-2.004,2.195-2.701.704-.519,1.58-1.002,2.449-1.361.982-.361,1.886-.51,3.053-.51,1.24,0,2.209.163,3.053.511.867.317,1.659.77,2.531,1.456.94.777,1.646,1.686,2.114,2.716l-1.79.985c-.328-.723-.835-1.371-1.506-1.925-.693-.545-1.303-.895-2.017-1.157-.647-.267-1.395-.384-2.386-.384-.951,0-1.643.111-2.385.384-.697.289-1.425.688-1.962,1.083-.607.503-1.133,1.144-1.608,1.98-.31.694-.548,1.398-.548,2.279v12.001c0,.839.171,1.658.494,2.37.339.747.822,1.339,1.437,1.762.764.598,1.372.949,2.087,1.211.647.267,1.395.384,2.386.384.949,0,1.641-.111,2.385-.384.695-.287,1.424-.688,1.962-1.082l.002-.002Z" fill="#ccc" stroke="#ccc" stroke-miterlimit="10" stroke-width="2"/>
      <path d="M827.57,77.675v2.202h-15.207v-26.757h2.001v24.555h13.206Z" fill="#ccc" stroke="#ccc" stroke-miterlimit="10" stroke-width="2"/>
      <path d="M842.064,68.599l5.778,10.535v.637h-1.497l-.359.239-6.113-11.143c-.045,0-.091.003-.134.003h-5.604v10.901h-2.001v-26.867h7.504c1.154,0,2.297.262,3.309.756,1.085.531,1.969,1.182,2.701,1.989.594.653,1.034,1.501,1.461,2.32l.053.117c.396,1.02.581,1.927.581,2.856,0,.965-.201,1.99-.581,2.967-.335.859-.888,1.748-1.514,2.437-.578.637-1.514,1.485-2.691,1.918-.295.145-.594.252-.893.337h0ZM834.135,55.106v11.562h5.604c1.125,0,1.824-.129,2.494-.456.721-.27,1.397-.761,2-1.423.446-.493.854-1.146,1.09-1.749.274-.704.419-1.429.419-2.098,0-.614-.123-1.212-.397-1.932-.368-.708-.715-1.369-1.11-1.804-.565-.622-1.232-1.11-2.1-1.535-.757-.369-1.619-.565-2.495-.565h-5.504Z" fill="#ccc" stroke="#ccc" stroke-miterlimit="10" stroke-width="2"/>
    </g>
    <rect x="779.605" y="20.435" width="83" height="91" rx="1.738" ry="1.738" fill="none" stroke="#ccc" stroke-miterlimit="10" stroke-width="5"/>
    <rect x="770.605" y="10.935" width="101" height="110" rx="5.276" ry="5.276" fill="none" stroke="#ccc" stroke-miterlimit="10" stroke-width="5"/>
  </g>
  <g id="Highlight_Dedicated_Keys_-_Light">
    <g>
      <path d="M804.37,75.972c.607-.504,1.133-1.144,1.607-1.98l1.696,1.167c-.602,1.059-1.305,1.913-2.148,2.611-.706.52-1.582,1.002-2.449,1.361-.987.362-1.889.511-3.054.511-1.239,0-2.208-.162-3.053-.51-.868-.318-1.66-.772-2.531-1.457-.866-.594-1.616-1.509-2.114-2.606-.462-1.015-.706-2.176-.706-3.355v-12.002c0-1.393.407-2.479.806-3.355.648-1.151,1.351-2.004,2.195-2.701.704-.519,1.58-1.002,2.449-1.361.982-.361,1.886-.51,3.053-.51,1.24,0,2.209.163,3.053.511.867.317,1.659.77,2.531,1.456.94.777,1.646,1.686,2.114,2.716l-1.79.985c-.328-.723-.835-1.371-1.506-1.925-.693-.545-1.303-.895-2.017-1.157-.647-.267-1.395-.384-2.386-.384-.951,0-1.643.111-2.385.384-.697.289-1.425.688-1.962,1.083-.607.503-1.133,1.144-1.608,1.98-.31.694-.548,1.398-.548,2.279v12.001c0,.839.171,1.658.494,2.37.339.747.822,1.339,1.437,1.762.764.598,1.372.949,2.087,1.211.647.267,1.395.384,2.386.384.949,0,1.641-.111,2.385-.384.695-.287,1.424-.688,1.962-1.082l.002-.002Z" fill="#ccc" stroke="#000" stroke-miterlimit="10" stroke-width="2"/>
      <path d="M827.57,77.675v2.202h-15.207v-26.757h2.001v24.555h13.206Z" fill="#ccc" stroke="#000" stroke-miterlimit="10" stroke-width="2"/>
      <path d="M842.064,68.599l5.778,10.535v.637h-1.497l-.359.239-6.113-11.143c-.045,0-.091.003-.134.003h-5.604v10.901h-2.001v-26.867h7.504c1.154,0,2.297.262,3.309.756,1.085.531,1.969,1.182,2.701,1.989.594.653,1.034,1.501,1.461,2.32l.053.117c.396,1.02.581,1.927.581,2.856,0,.965-.201,1.99-.581,2.967-.335.859-.888,1.748-1.514,2.437-.578.637-1.514,1.485-2.691,1.918-.295.145-.594.252-.893.337h0ZM834.135,55.106v11.562h5.604c1.125,0,1.824-.129,2.494-.456.721-.27,1.397-.761,2-1.423.446-.493.854-1.146,1.09-1.749.274-.704.419-1.429.419-2.098,0-.614-.123-1.212-.397-1.932-.368-.708-.715-1.369-1.11-1.804-.565-.622-1.232-1.11-2.1-1.535-.757-.369-1.619-.565-2.495-.565h-5.504Z" fill="#ccc" stroke="#000" stroke-miterlimit="10" stroke-width="2"/>
    </g>
    <rect x="779.605" y="20.435" width="83" height="91" rx="1.738" ry="1.738" fill="none" stroke="#000" stroke-miterlimit="10" stroke-width="5"/>
    <rect x="770.605" y="10.935" width="101" height="110" rx="5.276" ry="5.276" fill="none" stroke="#000" stroke-miterlimit="10" stroke-width="5"/>
  </g>
</svg>