<?xml version="1.0" encoding="UTF-8"?>
<svg xmlns="http://www.w3.org/2000/svg" width="1584.293" height="1072.174" viewBox="0 0 1584.293 1072.174">
  <g id="CDNU_-_Light">
    <path d="M1403.61,903.706l-1222.305.984c-5.445.004-9.861-4.411-9.856-9.857l.667-725.918c.005-5.432,4.408-9.834,9.84-9.839l1222.305-.984c5.445-.004,9.861,4.411,9.856,9.857l-.667,725.918c-.005,5.432-4.408,9.834-9.84,9.839Z" fill="none" stroke="#000" stroke-miterlimit="10" stroke-width="11"/>
    <polyline points="785.123 902.825 1331.623 903.324 1331.623 653.747 1406.623 653.747 1406.623 327.67 1331.623 327.67 1331.623 160.085 252.123 160.085 252.123 332.358 173.906 332.358 173.906 653.248 252.123 653.248 252.123 902.825 785.123 902.825" fill="none" stroke="#000" stroke-miterlimit="10" stroke-width="8"/>
    <rect x="425.123" y="200.085" width="735" height="553" rx="13.681" ry="13.681" fill="none" stroke="#000" stroke-miterlimit="10" stroke-width="5"/>
    <rect x="414.123" y="186.085" width="760" height="580" rx="18.29" ry="18.29" fill="none" stroke="#000" stroke-miterlimit="10" stroke-width="5"/>
    <g>
      <rect x="267.123" y="201.085" width="137" height="81" fill="none" stroke="#000" stroke-miterlimit="10" stroke-width="5"/>
      <polygon points="387.122 241.334 359.756 213.834 359.756 230.834 284.623 230.834 284.623 251.834 359.756 251.834 359.756 268.834 387.122 241.334" stroke="#000" stroke-miterlimit="10"/>
    </g>
    <g>
      <rect x="267.275" y="327.932" width="137" height="81" fill="none" stroke="#000" stroke-miterlimit="10" stroke-width="5"/>
      <polygon points="387.275 368.182 359.908 340.682 359.908 357.682 284.775 357.682 284.775 378.682 359.908 378.682 359.908 395.682 387.275 368.182" stroke="#000" stroke-miterlimit="10"/>
    </g>
    <g>
      <rect x="267.275" y="454.932" width="137" height="81" fill="none" stroke="#000" stroke-miterlimit="10" stroke-width="5"/>
      <polygon points="387.275 495.182 359.908 467.682 359.908 484.682 284.775 484.682 284.775 505.682 359.908 505.682 359.908 522.682 387.275 495.182" stroke="#000" stroke-miterlimit="10"/>
    </g>
    <g>
      <rect x="267.102" y="579.367" width="137" height="81" fill="none" stroke="#000" stroke-miterlimit="10" stroke-width="5"/>
      <polygon points="387.101 619.617 359.734 592.117 359.734 609.117 284.601 609.117 284.601 630.117 359.734 630.117 359.734 647.117 387.101 619.617" stroke="#000" stroke-miterlimit="10"/>
    </g>
    <g>
      <rect x="1182.254" y="201.085" width="137" height="81" transform="translate(2501.507 483.169) rotate(-180)" fill="none" stroke="#000" stroke-miterlimit="10" stroke-width="5"/>
      <polygon points="1199.255 241.334 1226.622 213.834 1226.622 230.834 1301.754 230.834 1301.754 251.834 1226.622 251.834 1226.622 268.834 1199.255 241.334" stroke="#000" stroke-miterlimit="10"/>
    </g>
    <g>
      <rect x="1182.102" y="327.932" width="137" height="81" transform="translate(2501.203 736.865) rotate(-180)" fill="none" stroke="#000" stroke-miterlimit="10" stroke-width="5"/>
      <polygon points="1199.102 368.182 1226.469 340.682 1226.469 357.682 1301.602 357.682 1301.602 378.682 1226.469 378.682 1226.469 395.682 1199.102 368.182" stroke="#000" stroke-miterlimit="10"/>
    </g>
    <g>
      <rect x="1182.102" y="454.932" width="137" height="81" transform="translate(2501.203 990.865) rotate(-180)" fill="none" stroke="#000" stroke-miterlimit="10" stroke-width="5"/>
      <polygon points="1199.102 495.182 1226.469 467.682 1226.469 484.682 1301.602 484.682 1301.602 505.682 1226.469 505.682 1226.469 522.682 1199.102 495.182" stroke="#000" stroke-miterlimit="10"/>
    </g>
    <g>
      <rect x="1182.275" y="579.367" width="137" height="81" transform="translate(2501.551 1239.734) rotate(-180)" fill="none" stroke="#000" stroke-miterlimit="10" stroke-width="5"/>
      <polygon points="1199.276 619.617 1226.643 592.117 1226.643 609.117 1301.776 609.117 1301.776 630.117 1226.643 630.117 1226.643 647.117 1199.276 619.617" stroke="#000" stroke-miterlimit="10"/>
    </g>
    <circle cx="356.123" cy="736.085" r="30.5" fill="none" stroke="#000" stroke-miterlimit="10" stroke-width="5"/>
    <circle cx="1239.123" cy="736.085" r="30.5" fill="none" stroke="#000" stroke-miterlimit="10" stroke-width="5"/>
    <rect x="315.623" y="792.539" width="83" height="91" fill="none" stroke="#000" stroke-miterlimit="10" stroke-width="5"/>
    <rect x="307.623" y="783.039" width="101" height="110" rx="9.778" ry="9.778" fill="none" stroke="#000" stroke-miterlimit="10" stroke-width="5"/>
    <rect x="439.623" y="792.539" width="83" height="91" fill="none" stroke="#000" stroke-miterlimit="10" stroke-width="5"/>
    <rect x="431.623" y="783.039" width="101" height="110" rx="9.778" ry="9.778" fill="none" stroke="#000" stroke-miterlimit="10" stroke-width="5"/>
    <rect x="563.623" y="792.539" width="83" height="91" fill="none" stroke="#000" stroke-miterlimit="10" stroke-width="5"/>
    <rect x="555.623" y="783.039" width="101" height="110" rx="9.778" ry="9.778" fill="none" stroke="#000" stroke-miterlimit="10" stroke-width="5"/>
    <rect x="687.623" y="792.539" width="83" height="91" fill="none" stroke="#000" stroke-miterlimit="10" stroke-width="5"/>
    <rect x="679.623" y="783.039" width="101" height="110" rx="9.778" ry="9.778" fill="none" stroke="#000" stroke-miterlimit="10" stroke-width="5"/>
    <rect x="809.623" y="792.539" width="83" height="91" fill="none" stroke="#000" stroke-miterlimit="10" stroke-width="5"/>
    <rect x="801.623" y="783.039" width="101" height="110" rx="9.778" ry="9.778" fill="none" stroke="#000" stroke-miterlimit="10" stroke-width="5"/>
    <rect x="936.623" y="792.539" width="83" height="91" fill="none" stroke="#000" stroke-miterlimit="10" stroke-width="5"/>
    <rect x="928.623" y="783.039" width="101" height="110" rx="9.778" ry="9.778" fill="none" stroke="#000" stroke-miterlimit="10" stroke-width="5"/>
    <rect x="1056.623" y="792.539" width="83" height="91" fill="none" stroke="#000" stroke-miterlimit="10" stroke-width="5"/>
    <rect x="1048.623" y="783.039" width="101" height="110" rx="9.778" ry="9.778" fill="none" stroke="#000" stroke-miterlimit="10" stroke-width="5"/>
    <rect x="1181.623" y="792.539" width="83" height="91" fill="none" stroke="#000" stroke-miterlimit="10" stroke-width="5"/>
    <rect x="1173.623" y="783.039" width="101" height="110" rx="9.778" ry="9.778" fill="none" stroke="#000" stroke-miterlimit="10" stroke-width="5"/>
    <circle cx="213.123" cy="265.085" r="34.5" fill="none" stroke="#000" stroke-miterlimit="10" stroke-width="3.5"/>
    <circle cx="213.123" cy="265.085" r="27.5" fill="none" stroke="#000" stroke-miterlimit="10" stroke-width="3.5"/>
    <circle cx="213.623" cy="718.585" r="34.5" fill="none" stroke="#000" stroke-miterlimit="10" stroke-width="3.5"/>
    <circle cx="213.623" cy="718.585" r="27.5" fill="none" stroke="#000" stroke-miterlimit="10" stroke-width="3.5"/>
    <circle cx="213.623" cy="837.585" r="34.5" fill="none" stroke="#000" stroke-miterlimit="10" stroke-width="3.5"/>
    <circle cx="213.623" cy="837.585" r="27.5" fill="none" stroke="#000" stroke-miterlimit="10" stroke-width="3.5"/>
    <circle cx="1372.623" cy="265.085" r="34.5" fill="none" stroke="#000" stroke-miterlimit="10" stroke-width="3.5"/>
    <circle cx="1372.623" cy="265.085" r="27.5" fill="none" stroke="#000" stroke-miterlimit="10" stroke-width="3.5"/>
    <circle cx="1372.123" cy="718.585" r="34.5" fill="none" stroke="#000" stroke-miterlimit="10" stroke-width="3.5"/>
    <circle cx="1372.123" cy="718.585" r="27.5" fill="none" stroke="#000" stroke-miterlimit="10" stroke-width="3.5"/>
    <circle cx="1372.123" cy="837.585" r="34.5" fill="none" stroke="#000" stroke-miterlimit="10" stroke-width="3.5"/>
    <circle cx="1372.123" cy="837.585" r="27.5" fill="none" stroke="#000" stroke-miterlimit="10" stroke-width="3.5"/>
    <g>
      <rect x="321.946" y="804.749" width="66.913" height="64.957" fill="none"/>
      <path d="M335.861,819.119h6.823v36.208h-6.823v-36.208ZM338.351,819.119h21.292v6.574h-21.292v-6.574ZM338.351,834.384h18.552v6.574h-18.552v-6.574Z" stroke="#000" stroke-miterlimit="10"/>
      <path d="M374.945,855.327h-6.823v-28.189l-4.408,1.668v-7.246l5.404-2.44h5.827v36.208Z" stroke="#000" stroke-miterlimit="10"/>
    </g>
    <g>
      <rect x="445.946" y="804.749" width="66.913" height="64.957" fill="none"/>
      <path d="M455.167,819.119h6.823v36.208h-6.823v-36.208ZM457.657,819.119h21.292v6.574h-21.292v-6.574ZM457.657,834.384h18.552v6.574h-18.552v-6.574Z" stroke="#000" stroke-miterlimit="10"/>
      <path d="M483.966,849.177l12.426-16.336c.564-.73,1-1.482,1.307-2.254.307-.772.461-1.49.461-2.154v-.05c0-.979-.315-1.734-.946-2.267-.631-.53-1.528-.797-2.689-.797-1.129,0-2.042.37-2.739,1.108-.697.739-1.121,1.789-1.27,3.15v.024h-6.998v-.024c.149-2.258.693-4.2,1.631-5.827s2.204-2.867,3.798-3.723,3.437-1.283,5.528-1.283c2.257,0,4.188.37,5.79,1.108,1.602.739,2.822,1.814,3.66,3.226s1.258,3.112,1.258,5.104v.024c0,1.645-.286,3.275-.859,4.894-.572,1.619-1.374,3.084-2.403,4.396l-8.915,11.256h12.376v6.574h-21.416v-6.15Z" stroke="#000" stroke-miterlimit="10"/>
    </g>
    <g>
      <rect x="569.946" y="804.749" width="66.913" height="64.957" fill="none"/>
      <path d="M578.855,819.119h6.823v36.208h-6.823v-36.208ZM581.346,819.119h21.292v6.574h-21.292v-6.574ZM581.346,834.384h18.552v6.574h-18.552v-6.574Z" stroke="#000" stroke-miterlimit="10"/>
      <path d="M612.461,854.505c-1.71-.797-3.072-1.958-4.084-3.486-1.013-1.526-1.569-3.345-1.668-5.453h7.047c.1.747.319,1.382.66,1.905.34.522.776.921,1.308,1.195.531.273,1.146.411,1.843.411,1.295,0,2.295-.361,3.001-1.084.705-.722,1.058-1.738,1.058-3.051v-.846c0-1.378-.287-2.441-.859-3.188-.573-.748-1.391-1.121-2.453-1.121h-3.063v-6.574h3.063c.863,0,1.531-.327,2.005-.983.473-.656.709-1.573.709-2.752v-.622c0-1.112-.261-1.972-.785-2.578-.522-.605-1.257-.908-2.204-.908-.614,0-1.175.157-1.681.473s-.934.771-1.282,1.369-.598,1.32-.747,2.167h-7.022c.199-2.208.792-4.112,1.78-5.715s2.279-2.822,3.873-3.661c1.594-.838,3.37-1.258,5.329-1.258,3.204,0,5.682.818,7.433,2.453,1.751,1.636,2.627,3.956,2.627,6.961v1.096c0,1.677-.423,3.137-1.27,4.383-.847,1.244-2.051,2.175-3.611,2.789,1.743.398,3.092,1.312,4.046,2.738.955,1.429,1.432,3.246,1.432,5.454v1.096c0,2.108-.415,3.909-1.245,5.403-.831,1.494-2.042,2.632-3.636,3.412s-3.511,1.17-5.752,1.17c-2.191,0-4.143-.398-5.852-1.195Z" stroke="#000" stroke-miterlimit="10"/>
    </g>
    <g>
      <rect x="693.946" y="804.749" width="66.913" height="64.957" fill="none"/>
      <path d="M701.834,819.119h6.823v36.208h-6.823v-36.208ZM704.325,819.119h21.292v6.574h-21.292v-6.574ZM704.325,834.384h18.552v6.574h-18.552v-6.574Z" stroke="#000" stroke-miterlimit="10"/>
      <path d="M730.683,843.499l11.156-24.355h7.72l-10.857,24.057h16.261v6.574h-24.279v-6.275ZM745.301,834.036h6.823v21.316h-6.823v-21.316Z" stroke="#000" stroke-miterlimit="10"/>
    </g>
    <g>
      <rect x="815.946" y="804.749" width="66.913" height="64.957" fill="none"/>
      <path d="M824.457,819.119h6.823v36.208h-6.823v-36.208ZM826.947,819.119h21.291v6.574h-21.291v-6.574ZM826.947,834.384h18.553v6.574h-18.553v-6.574Z" stroke="#000" stroke-miterlimit="10"/>
      <path d="M859.171,854.418c-1.553-.854-2.798-2.1-3.735-3.735-.938-1.635-1.481-3.573-1.631-5.814v-.025h6.823v.025c.133,1.328.539,2.362,1.221,3.101.68.738,1.568,1.108,2.664,1.108,1.195,0,2.12-.391,2.776-1.171s.983-1.884.983-3.312v-3.039c0-1.427-.295-2.527-.884-3.299-.589-.772-1.415-1.158-2.478-1.158-.979,0-1.814.249-2.503.747s-1.166,1.195-1.432,2.092h-6.375v-20.818h19.448v6.574h-12.625v6.399c.515-.498,1.216-.892,2.104-1.183.888-.29,1.771-.436,2.651-.436,1.876,0,3.482.432,4.819,1.295,1.336.863,2.353,2.125,3.05,3.785s1.047,3.661,1.047,6.001v3.039c0,2.34-.42,4.341-1.258,6.001-.839,1.66-2.055,2.926-3.648,3.798-1.594.871-3.52,1.307-5.777,1.307-1.942,0-3.689-.427-5.242-1.282Z" stroke="#000" stroke-miterlimit="10"/>
    </g>
    <g>
      <rect x="942.946" y="804.749" width="66.913" height="64.957" fill="none"/>
      <path d="M952.254,819.119h6.823v36.208h-6.823v-36.208ZM954.744,819.119h21.291v6.574h-21.291v-6.574ZM954.744,834.384h18.553v6.574h-18.553v-6.574Z" stroke="#000" stroke-miterlimit="10"/>
      <path d="M985.723,854.418c-1.585-.854-2.793-2.1-3.623-3.735-.83-1.635-1.245-3.606-1.245-5.914v-.025c0-1.311.162-2.697.485-4.158.324-1.461.784-2.93,1.382-4.408.1-.248.203-.498.312-.746.108-.25.22-.49.337-.723l7.346-15.589h7.72l-8.716,18.054-1.719-.896c.415-.779,1.021-1.386,1.818-1.817s1.727-.647,2.789-.647c1.992,0,3.693.424,5.105,1.27,1.41.848,2.485,2.08,3.225,3.698.738,1.619,1.107,3.565,1.107,5.84v.024c0,2.325-.415,4.317-1.244,5.977-.831,1.661-2.039,2.923-3.624,3.785-1.585.864-3.499,1.295-5.739,1.295-2.226,0-4.131-.427-5.716-1.282ZM994.239,848.068c.656-.706.984-1.706.984-3.001v-.025c0-1.494-.328-2.643-.984-3.448s-1.59-1.208-2.801-1.208c-1.195,0-2.121.411-2.777,1.232-.656.822-.983,1.972-.983,3.449v.025c0,1.295.327,2.291.983,2.988s1.582,1.045,2.777,1.045c1.211,0,2.145-.352,2.801-1.058Z" stroke="#000" stroke-miterlimit="10"/>
    </g>
    <g>
      <rect x="1062.946" y="804.749" width="66.913" height="64.957" fill="none"/>
      <path d="M1072.499,819.119h6.823v36.208h-6.823v-36.208ZM1074.989,819.119h21.291v6.574h-21.291v-6.574ZM1074.989,834.384h18.553v6.574h-18.553v-6.574Z" stroke="#000" stroke-miterlimit="10"/>
      <path d="M1121.544,823.651l-8.119,31.676h-7.396l7.869-29.634h-6.226v5.454h-6.823v-12.028h20.694v4.532Z" stroke="#000" stroke-miterlimit="10"/>
    </g>
    <g>
      <path d="M1202.22,823.664h4.053v29.852h-2.795v-23.18l.111,1.314-3.121,18.539h-2.719l-3.121-18.129.111-1.725v23.18h-2.797v-29.852h4.055l3.111,20.12,3.111-20.12Z" stroke="#000" stroke-miterlimit="10"/>
      <path d="M1210.579,823.664h3.078v29.852h-3.078v-29.852ZM1211.692,823.664h9.826v5.42h-9.826v-5.42ZM1211.692,835.982h8.59v5.42h-8.59v-5.42ZM1211.692,848.095h9.826v5.42h-9.826v-5.42Z" stroke="#000" stroke-miterlimit="10"/>
      <path d="M1225.038,823.664h3.764l6.074,22.871-.27.534v-23.405h2.943v29.831h-3.785l-6.053-22.522.27-.534v23.057h-2.943v-29.831Z" stroke="#000" stroke-miterlimit="10"/>
      <path d="M1244.36,852.52c-.891-.869-1.568-2.136-2.033-3.799-.463-1.663-.695-3.665-.695-6.005v-19.053h3.076v19.196c0,1.711.252,3.038.754,3.983.5.944,1.209,1.416,2.121,1.416.922,0,1.635-.472,2.141-1.416.504-.945.758-2.272.758-3.983v-19.196h3.076v19.053c0,2.34-.234,4.342-.701,6.005-.469,1.663-1.15,2.93-2.045,3.799s-1.971,1.304-3.229,1.304-2.332-.435-3.223-1.304Z" stroke="#000" stroke-miterlimit="10"/>
    </g>
    <g>
      <rect x="316.467" y="671.23" width="70.435" height="25.043" fill="none"/>
      <path d="M324.735,672.395h4.281v22.719h-4.281v-22.719ZM326.61,690.989h7.25c.979,0,1.737-.236,2.273-.711.536-.474.805-1.138.805-1.992v-.047c0-.572-.12-1.062-.359-1.469-.24-.406-.591-.716-1.055-.93-.464-.213-1.019-.32-1.664-.32h-7.25v-4.125h7.25c.885,0,1.57-.224,2.055-.672.484-.447.727-1.078.727-1.891,0-.729-.242-1.297-.727-1.703s-1.169-.609-2.055-.609h-7.25v-4.125h7.391c1.469,0,2.724.242,3.766.727,1.042.484,1.833,1.188,2.375,2.109.542.922.812,2.029.812,3.32,0,.886-.175,1.67-.523,2.352-.349.683-.857,1.242-1.523,1.68-.667.438-1.469.734-2.406.891,1,.136,1.856.44,2.57.914.713.475,1.255,1.092,1.625,1.852.37.761.555,1.641.555,2.641v.047c0,1.303-.273,2.417-.82,3.344-.547.928-1.344,1.633-2.391,2.117s-2.305.727-3.773.727h-7.656v-4.125Z" stroke="#000" stroke-miterlimit="10"/>
      <path d="M346.383,672.38h4.281v22.734h-4.281v-22.734ZM348.086,681.848h7.906c.438,0,.823-.109,1.156-.328.333-.219.591-.531.773-.938.182-.406.278-.875.289-1.406,0-.531-.091-1-.273-1.406-.183-.406-.44-.719-.773-.938-.333-.219-.724-.328-1.172-.328h-7.906v-4.125h8.25c1.25,0,2.349.281,3.297.844.948.562,1.682,1.357,2.203,2.383.521,1.026.781,2.217.781,3.57s-.261,2.545-.781,3.57c-.521,1.026-1.258,1.82-2.211,2.383s-2.05.844-3.289.844h-8.25v-4.125ZM352.868,685.27l4.578-.719,6.125,10.562h-5.188l-5.516-9.844Z" stroke="#000" stroke-miterlimit="10"/>
      <path d="M365.109,672.395h16.656v4.125h-16.656v-4.125ZM371.297,674.255h4.281v20.859h-4.281v-20.859Z" stroke="#000" stroke-miterlimit="10"/>
    </g>
    <g>
      <rect x="1181.12" y="671.01" width="131" height="25.043" fill="none"/>
      <path d="M1193.84,694.087c-1.256-.692-2.227-1.672-2.914-2.938s-1.031-2.731-1.031-4.398v-6.438c0-1.666.344-3.133,1.031-4.398s1.658-2.244,2.914-2.938c1.255-.692,2.705-1.039,4.352-1.039s3.096.347,4.352,1.039c1.255.693,2.227,1.672,2.914,2.938s1.031,2.732,1.031,4.398v6.438c0,1.667-.344,3.133-1.031,4.398s-1.659,2.245-2.914,2.938c-1.256.693-2.706,1.039-4.352,1.039s-3.097-.346-4.352-1.039ZM1200.223,690.352c.583-.328,1.033-.794,1.352-1.398.317-.604.477-1.302.477-2.094v-6.656c0-.791-.159-1.489-.477-2.094-.318-.604-.769-1.07-1.352-1.398-.584-.328-1.261-.492-2.031-.492s-1.448.164-2.031.492c-.584.328-1.034.795-1.352,1.398-.318.604-.477,1.303-.477,2.094v6.656c0,.792.158,1.49.477,2.094.317.604.768,1.07,1.352,1.398.583.328,1.26.492,2.031.492s1.447-.164,2.031-.492Z" stroke="#000" stroke-miterlimit="10"/>
      <path d="M1211.699,672.173h4.281v22.719h-4.281v-22.719ZM1213.262,672.173h13.359v4.125h-13.359v-4.125ZM1213.262,681.751h11.641v4.125h-11.641v-4.125Z" stroke="#000" stroke-miterlimit="10"/>
      <path d="M1230.894,672.173h4.281v22.719h-4.281v-22.719ZM1232.457,672.173h13.359v4.125h-13.359v-4.125ZM1232.457,681.751h11.641v4.125h-11.641v-4.125Z" stroke="#000" stroke-miterlimit="10"/>
      <path d="M1250.87,699.204h-4.062l10.156-29.719h4.062l-10.156,29.719Z" stroke="#000" stroke-miterlimit="10"/>
      <path d="M1267.604,694.087c-1.256-.692-2.227-1.672-2.914-2.938s-1.031-2.731-1.031-4.398v-6.438c0-1.666.344-3.133,1.031-4.398s1.658-2.244,2.914-2.938c1.255-.692,2.705-1.039,4.352-1.039s3.096.347,4.352,1.039c1.255.693,2.227,1.672,2.914,2.938s1.031,2.732,1.031,4.398v6.438c0,1.667-.344,3.133-1.031,4.398s-1.659,2.245-2.914,2.938c-1.256.693-2.706,1.039-4.352,1.039s-3.097-.346-4.352-1.039ZM1273.987,690.352c.583-.328,1.033-.794,1.352-1.398.317-.604.477-1.302.477-2.094v-6.656c0-.791-.159-1.489-.477-2.094-.318-.604-.769-1.07-1.352-1.398-.584-.328-1.261-.492-2.031-.492s-1.448.164-2.031.492c-.584.328-1.034.795-1.352,1.398-.318.604-.477,1.303-.477,2.094v6.656c0,.792.158,1.49.477,2.094.317.604.768,1.07,1.352,1.398.583.328,1.26.492,2.031.492s1.447-.164,2.031-.492Z" stroke="#000" stroke-miterlimit="10"/>
      <path d="M1285.464,672.173h5.234l8.453,17.406-.375.406v-17.812h4.094v22.703h-5.266l-8.422-17.141.375-.406v17.547h-4.094v-22.703Z" stroke="#000" stroke-miterlimit="10"/>
    </g>
  </g>
  <g id="Scratchpad_-_Light">
    <g>
      <path d="M483.172,697.045v37.593h12.121v3.515h-15.634v-44.62h15.634v3.513h-12.121Z" stroke="#000" stroke-miterlimit="10" stroke-width="1.5"/>
      <path d="M1104.121,693.348v44.62h-15.635v-3.514h12.121v-37.593h-12.121v-3.514h15.635Z" stroke="#000" stroke-miterlimit="10" stroke-width="1.5"/>
    </g>
  </g>
  <g id="Mark_Page_-_Light">
    <g>
      <rect x="425.739" y="209.018" width="732.522" height="52.826" fill="none"/>
      <path d="M464.835,215.288v37.593h12.121v3.514h-15.634v-44.62h15.634v3.513h-12.121Z" stroke="#000" stroke-miterlimit="10" stroke-width="1.5"/>
      <path d="M507.435,221.788v34.455h-2.799l-16.389-29.029v29.005h-2.822v-34.285h3.082l16.106,28.528v-28.675h2.822Z" stroke="#000" stroke-miterlimit="10" stroke-width="1.5"/>
      <path d="M524.657,253.543v2.822h-9.029v-2.822h3.104v-28.956l-2.206,1.826-1.799-2.174,4.482-3.709h2.344v33.013h3.104Z" stroke="#000" stroke-miterlimit="10" stroke-width="1.5"/>
      <path d="M552.742,235.917c.536,1.253.819,2.568.819,3.802v6.914c0,1.236-.283,2.549-.819,3.801-.522,1.22-1.386,2.39-2.368,3.208-.756.63-1.929,1.529-3.371,2.071-1.449.543-2.729.796-4.024.796-1.474,0-3.318-.319-4.587-.794-1.408-.529-2.541-1.234-3.465-2.159-.889-.732-1.751-1.902-2.274-3.122-.316-.626-.487-1.307-.636-1.906l-.042-.343v-1.27h2.822v1.096c.114.454.226.855.415,1.234.388.901.965,1.686,1.617,2.229.736.728,1.518,1.208,2.555,1.597.951.355,2.465.615,3.596.615.959,0,1.895-.19,3.032-.617.792-.297,1.604-.804,2.555-1.597.65-.543,1.227-1.329,1.582-2.153.386-.903.591-1.833.591-2.689v-6.914c0-.856-.205-1.786-.591-2.69-.353-.824-.93-1.608-1.582-2.151-.737-.727-1.519-1.208-2.555-1.596l-.432-.167c-.789-.309-1.15-.45-2.601-.45-1.769,0-3.187.378-4.462,1.191-.953.595-1.795,1.438-2.383,2.378l-.415.663h-3.745v-16.366h21.304v2.822h-18.482v9.983c.646-.722,1.394-1.354,2.215-1.868,1.714-1.092,3.671-1.625,5.968-1.625,1.886,0,2.607.244,3.627.643l.395.153c1.408.527,2.541,1.233,3.465,2.157.887.732,1.751,1.9,2.274,3.121h0Z" stroke="#000" stroke-miterlimit="10" stroke-width="1.5"/>
      <path d="M573.582,228.951c0,3.5-2.849,6.349-6.349,6.349s-6.349-2.849-6.349-6.349,2.849-6.349,6.349-6.349,6.349,2.849,6.349,6.349ZM570.76,228.951c0-1.944-1.583-3.527-3.527-3.527s-3.527,1.583-3.527,3.527,1.583,3.527,3.527,3.527,3.527-1.583,3.527-3.527Z" stroke="#000" stroke-miterlimit="10" stroke-width="1.5"/>
      <path d="M601.892,226.529c.652,1.301.996,2.788.996,4.299v15.378c0,1.511-.344,3-.996,4.3-.61,1.222-1.532,2.366-2.742,3.403-1.079.898-2.239,1.511-3.461,1.83-1.114.407-2.315.612-3.665.625h-.141c-1.508-.011-2.71-.214-3.881-.653-1.273-.479-2.406-1.127-3.371-1.932-1.225-1.048-2.147-2.194-2.758-3.416-.652-1.301-.996-2.788-.996-4.297v-15.378c0-1.51.346-2.997.996-4.299.611-1.222,1.533-2.367,2.743-3.403,1.079-.9,2.239-1.511,3.461-1.83,1.152-.42,2.398-.626,3.807-.626,1.511,0,2.864.219,4.022.653,1.273.477,2.406,1.127,3.372,1.932,1.074.918,1.925,2.033,2.616,3.414h0ZM583.7,230.687v13.917l16.189-15.351c-.117-.514-.292-1.006-.521-1.463-.526-1.054-1.134-1.855-1.913-2.523-.706-.588-1.566-1.078-2.54-1.443-.828-.311-1.876-.474-3.032-.474-1.109,0-2.027.151-2.891.474l-.152.048c-.837.209-1.644.635-2.403,1.267-.907.777-1.599,1.627-2.04,2.51-.457.914-.698,1.964-.698,3.038ZM600.067,246.208v-13.233l-16.033,15.203c.102.32.219.632.366.927.441.883,1.133,1.732,2.056,2.522.705.587,1.564,1.077,2.54,1.443.858.322,1.772.469,2.957.474,1.078-.005,1.977-.156,2.823-.474l.152-.048c.837-.208,1.644-.635,2.403-1.267.906-.777,1.597-1.626,2.039-2.51.457-.913.698-1.962.698-3.038Z" stroke="#000" stroke-miterlimit="10" stroke-width="1.5"/>
      <path d="M631.2,220.53v3.992l-14.532,30.05v.382h-2.822v-1.029l14.532-30.05v-.523h-18.201v-2.822h21.022Z" stroke="#000" stroke-miterlimit="10" stroke-width="1.5"/>
      <path d="M638.499,253.077c0-1.636,1.264-2.963,2.822-2.963s2.822,1.327,2.822,2.963-1.263,2.963-2.822,2.963-2.822-1.326-2.822-2.963Z" stroke="#000" stroke-miterlimit="10" stroke-width="1.5"/>
      <path d="M674.009,246.207c0,5.601-5.063,10.158-11.287,10.158s-11.287-4.557-11.287-10.158c0-3.785,2.317-7.088,5.738-8.835-2.772-1.64-4.609-4.464-4.609-7.672,0-5.057,4.557-9.171,10.158-9.171s10.158,4.114,10.158,9.171c0,3.208-1.838,6.033-4.609,7.672,3.421,1.747,5.738,5.05,5.738,8.835ZM671.187,246.207c0-4.045-3.797-7.336-8.465-7.336s-8.465,3.292-8.465,7.336,3.797,7.336,8.465,7.336,8.465-3.292,8.465-7.336ZM662.722,236.05c4.045,0,7.336-2.849,7.336-6.349s-3.292-6.349-7.336-6.349-7.336,2.849-7.336,6.349,3.292,6.349,7.336,6.349Z" stroke="#000" stroke-miterlimit="10" stroke-width="1.5"/>
      <path d="M702.091,235.917c.536,1.253.819,2.568.819,3.802v6.914c0,1.236-.283,2.549-.819,3.801-.522,1.22-1.386,2.39-2.368,3.208-.756.63-1.929,1.529-3.371,2.071-1.449.543-2.729.796-4.024.796-1.474,0-3.318-.319-4.587-.794-1.408-.529-2.541-1.234-3.465-2.159-.889-.732-1.751-1.902-2.274-3.122-.316-.626-.487-1.307-.636-1.906l-.042-.343v-1.27h2.822v1.096c.114.454.226.855.415,1.234.388.901.965,1.686,1.617,2.229.736.728,1.518,1.208,2.555,1.597.951.355,2.465.615,3.596.615.959,0,1.895-.19,3.032-.617.792-.297,1.604-.804,2.555-1.597.65-.543,1.227-1.329,1.582-2.153.386-.903.591-1.833.591-2.689v-6.914c0-.856-.205-1.786-.591-2.69-.353-.824-.93-1.608-1.582-2.151-.737-.727-1.518-1.208-2.555-1.596l-.432-.167c-.789-.309-1.15-.45-2.601-.45-1.769,0-3.187.378-4.462,1.191-.953.595-1.795,1.438-2.383,2.378l-.415.663h-3.745v-16.366h21.305v2.822h-18.483v9.983c.646-.722,1.394-1.354,2.215-1.868,1.714-1.092,3.671-1.625,5.968-1.625,1.886,0,2.607.244,3.627.643l.395.153c1.408.527,2.541,1.233,3.465,2.157.887.732,1.751,1.9,2.274,3.121h0Z" stroke="#000" stroke-miterlimit="10" stroke-width="1.5"/>
      <path d="M731,235.917c.536,1.253.819,2.568.819,3.802v6.914c0,1.236-.283,2.549-.819,3.801-.522,1.22-1.386,2.39-2.368,3.208-.756.63-1.929,1.529-3.371,2.071-1.449.543-2.729.796-4.024.796-1.474,0-3.318-.319-4.587-.794-1.408-.529-2.541-1.234-3.465-2.159-.889-.732-1.751-1.902-2.274-3.122-.316-.626-.487-1.307-.636-1.906l-.042-.343v-1.27h2.822v1.096c.114.454.226.855.415,1.234.388.901.965,1.686,1.617,2.229.736.728,1.518,1.208,2.555,1.597.951.355,2.465.615,3.596.615.959,0,1.895-.19,3.032-.617.792-.297,1.604-.804,2.555-1.597.65-.543,1.227-1.329,1.582-2.153.386-.903.591-1.833.591-2.689v-6.914c0-.856-.205-1.786-.591-2.69-.353-.824-.93-1.608-1.582-2.151-.737-.727-1.518-1.208-2.555-1.596l-.432-.167c-.789-.309-1.15-.45-2.601-.45-1.769,0-3.187.378-4.462,1.191-.953.595-1.795,1.438-2.383,2.378l-.415.663h-3.745v-16.366h21.305v2.822h-18.483v9.983c.646-.722,1.394-1.354,2.215-1.868,1.714-1.092,3.671-1.625,5.968-1.625,1.886,0,2.607.244,3.627.643l.395.153c1.408.527,2.541,1.233,3.465,2.157.887.732,1.751,1.9,2.274,3.121h0Z" stroke="#000" stroke-miterlimit="10" stroke-width="1.5"/>
      <path d="M789.592,223.37v11.569h10.158v2.822h-10.158v15.661h18.482v2.822h-21.305v-35.695h21.305v2.822h-18.482Z" stroke="#000" stroke-miterlimit="10" stroke-width="1.5"/>
      <path d="M825.315,253.543v2.822h-9.029v-2.822h3.104v-28.956l-2.205,1.826-1.799-2.174,4.482-3.709h2.344v33.013h3.104Z" stroke="#000" stroke-miterlimit="10" stroke-width="1.5"/>
      <path d="M850.128,245.079h3.81v2.822h-3.81v7.055h-2.821v-7.055h-14.674v-3.071l14.579-24.3h2.914v24.548h.002ZM847.305,225.858l-11.532,19.22h11.532v-19.22Z" stroke="#000" stroke-miterlimit="10" stroke-width="1.5"/>
      <path d="M878.743,245.079h3.81v2.822h-3.81v7.055h-2.821v-7.055h-14.673v-3.071l14.578-24.3h2.915v24.548h0ZM875.92,225.858l-11.532,19.22h11.532v-19.22Z" stroke="#000" stroke-miterlimit="10" stroke-width="1.5"/>
      <path d="M902.561,228.951c0,3.5-2.849,6.349-6.349,6.349s-6.349-2.849-6.349-6.349,2.849-6.349,6.349-6.349,6.349,2.849,6.349,6.349ZM899.74,228.951c0-1.944-1.583-3.527-3.527-3.527s-3.527,1.583-3.527,3.527,1.583,3.527,3.527,3.527,3.527-1.583,3.527-3.527Z" stroke="#000" stroke-miterlimit="10" stroke-width="1.5"/>
      <path d="M930.871,226.529c.651,1.301.996,2.788.996,4.299v15.378c0,1.511-.345,3-.996,4.3-.609,1.222-1.532,2.366-2.741,3.403-1.08.898-2.239,1.511-3.461,1.83-1.115.407-2.315.612-3.666.625h-.141c-1.509-.011-2.711-.214-3.882-.653-1.272-.479-2.405-1.127-3.37-1.932-1.225-1.048-2.147-2.194-2.759-3.416-.651-1.301-.996-2.788-.996-4.297v-15.378c0-1.51.346-2.997.996-4.299.611-1.222,1.534-2.367,2.743-3.403,1.079-.9,2.239-1.511,3.461-1.83,1.152-.42,2.398-.626,3.807-.626,1.511,0,2.864.219,4.022.653,1.272.477,2.405,1.127,3.372,1.932,1.073.918,1.924,2.033,2.615,3.414h0ZM912.679,230.687v13.917l16.19-15.351c-.117-.514-.292-1.006-.521-1.463-.526-1.054-1.135-1.855-1.913-2.523-.706-.588-1.566-1.078-2.54-1.443-.828-.311-1.877-.474-3.032-.474-1.108,0-2.027.151-2.891.474l-.152.048c-.837.209-1.644.635-2.402,1.267-.907.777-1.599,1.627-2.041,2.51-.457.914-.698,1.964-.698,3.038ZM929.047,246.208v-13.233l-16.033,15.203c.102.32.219.632.365.927.441.883,1.133,1.732,2.056,2.522.705.587,1.564,1.077,2.539,1.443.858.322,1.772.469,2.958.474,1.077-.005,1.977-.156,2.822-.474l.153-.048c.836-.208,1.644-.635,2.402-1.267.905-.777,1.597-1.626,2.039-2.51.457-.913.698-1.962.698-3.038Z" stroke="#000" stroke-miterlimit="10" stroke-width="1.5"/>
      <path d="M960.429,241.147c-1.353,5.868-7.733,12.25-11.819,14.607l-1.409-2.443c3.626-2.093,9.365-7.966,10.476-12.781.186-.844.322-1.757.425-2.678-.239.21-.491.412-.755.605-.745.597-2.187,1.421-3.41,1.771-1.23.352-6.466.374-7.936-.176-1.443-.542-2.625-1.191-3.514-1.932-.972-.81-1.793-1.794-2.438-2.923-.786-1.373-.892-2.693-.892-3.804v-1.27c0-1.194.261-2.356.819-3.66l.072-.144c.645-1.13,1.466-2.114,2.438-2.923.888-.739,2.068-1.389,3.512-1.93,1.174-.44,2.535-.655,4.164-.655,1.393,0,2.749.292,4.011.607l.152.048c1.443.542,2.624,1.191,3.512,1.93.972.81,1.793,1.793,2.438,2.923.785,1.373.892,2.693.892,3.804.01.197.277,6.381-.738,11.024ZM958.344,231.819h.035c-.006-.983-.034-1.61-.034-1.629,0-1.142-.146-1.814-.521-2.468-.479-.838-1.082-1.563-1.795-2.157-.62-.518-1.524-1.01-2.621-1.428-.992-.246-2.135-.502-3.246-.502-1.284,0-2.321.155-3.174.474-1.128.425-2.061.927-2.694,1.456-.694.577-1.284,1.28-1.755,2.086-.386.919-.559,1.684-.559,2.472v1.27c0,1.077.145,1.751.519,2.404.478.835,1.081,1.562,1.795,2.156.636.531,1.567,1.033,2.696,1.456.826.295,5.35.323,6.174.106.812-.233,1.913-.855,2.466-1.297,1.692-1.243,2.715-2.915,2.715-4.4h0Z" stroke="#000" stroke-miterlimit="10" stroke-width="1.5"/>
      <path d="M968.507,253.077c0-1.636,1.263-2.963,2.821-2.963s2.822,1.327,2.822,2.963-1.264,2.963-2.822,2.963-2.821-1.326-2.821-2.963Z" stroke="#000" stroke-miterlimit="10" stroke-width="1.5"/>
      <path d="M1004.017,246.207c0,5.601-5.064,10.158-11.287,10.158s-11.287-4.557-11.287-10.158c0-3.785,2.316-7.088,5.737-8.835-2.772-1.64-4.609-4.464-4.609-7.672,0-5.057,4.558-9.171,10.159-9.171s10.158,4.114,10.158,9.171c0,3.208-1.839,6.033-4.609,7.672,3.421,1.747,5.738,5.05,5.738,8.835ZM1001.195,246.207c0-4.045-3.797-7.336-8.465-7.336s-8.466,3.292-8.466,7.336,3.797,7.336,8.466,7.336,8.465-3.292,8.465-7.336ZM992.73,236.05c4.045,0,7.336-2.849,7.336-6.349s-3.291-6.349-7.336-6.349-7.337,2.849-7.337,6.349,3.291,6.349,7.337,6.349Z" stroke="#000" stroke-miterlimit="10" stroke-width="1.5"/>
      <path d="M1032.604,241.147c-1.353,5.868-7.733,12.25-11.819,14.607l-1.409-2.443c3.626-2.093,9.365-7.966,10.476-12.781.186-.844.322-1.757.425-2.678-.239.21-.491.412-.755.605-.745.597-2.187,1.421-3.41,1.771-1.23.352-6.466.374-7.936-.176-1.443-.542-2.625-1.191-3.514-1.932-.972-.81-1.793-1.794-2.438-2.923-.786-1.373-.892-2.693-.892-3.804v-1.27c0-1.194.261-2.356.819-3.66l.072-.144c.645-1.13,1.466-2.114,2.438-2.923.888-.739,2.068-1.389,3.512-1.93,1.174-.44,2.535-.655,4.164-.655,1.393,0,2.749.292,4.011.607l.152.048c1.443.542,2.624,1.191,3.512,1.93.972.81,1.793,1.793,2.438,2.923.785,1.373.892,2.693.892,3.804.01.197.277,6.381-.738,11.024ZM1030.519,231.819h.035c-.006-.983-.034-1.61-.034-1.629,0-1.142-.146-1.814-.521-2.468-.479-.838-1.082-1.563-1.795-2.157-.62-.518-1.524-1.01-2.621-1.428-.992-.246-2.135-.502-3.246-.502-1.284,0-2.321.155-3.174.474-1.128.425-2.061.927-2.694,1.456-.694.577-1.284,1.28-1.755,2.086-.386.919-.559,1.684-.559,2.472v1.27c0,1.077.145,1.751.519,2.404.478.835,1.081,1.562,1.795,2.156.636.531,1.567,1.033,2.696,1.456.826.295,5.35.323,6.174.106.812-.233,1.913-.855,2.466-1.297,1.692-1.243,2.715-2.915,2.715-4.4h0Z" stroke="#000" stroke-miterlimit="10" stroke-width="1.5"/>
      <path d="M1061.698,226.529c.651,1.301.996,2.788.996,4.299v15.378c0,1.511-.345,3-.996,4.3-.609,1.222-1.532,2.366-2.741,3.403-1.08.898-2.239,1.511-3.461,1.83-1.115.407-2.315.612-3.666.625h-.141c-1.509-.011-2.711-.214-3.882-.653-1.272-.479-2.405-1.127-3.37-1.932-1.225-1.048-2.147-2.194-2.759-3.416-.651-1.301-.996-2.788-.996-4.297v-15.378c0-1.51.346-2.997.996-4.299.611-1.222,1.534-2.367,2.743-3.403,1.079-.9,2.239-1.511,3.461-1.83,1.152-.42,2.398-.626,3.807-.626,1.511,0,2.864.219,4.022.653,1.272.477,2.405,1.127,3.372,1.932,1.073.918,1.924,2.033,2.615,3.414h0ZM1043.506,230.687v13.917l16.19-15.351c-.117-.514-.292-1.006-.521-1.463-.526-1.054-1.135-1.855-1.913-2.523-.706-.588-1.566-1.078-2.54-1.443-.828-.311-1.877-.474-3.032-.474-1.108,0-2.027.151-2.891.474l-.152.048c-.837.209-1.644.635-2.403,1.267-.906.777-1.598,1.627-2.04,2.51-.457.914-.698,1.964-.698,3.038ZM1059.874,246.208v-13.233l-16.033,15.203c.102.32.219.632.365.927.441.883,1.133,1.732,2.056,2.522.705.587,1.564,1.077,2.539,1.443.858.322,1.772.469,2.958.474,1.077-.005,1.977-.156,2.823-.474l.152-.048c.836-.208,1.644-.635,2.402-1.267.905-.777,1.597-1.626,2.039-2.51.457-.913.698-1.962.698-3.038Z" stroke="#000" stroke-miterlimit="10" stroke-width="1.5"/>
      <path d="M1086.219,211.592v44.62h-15.635v-3.514h12.121v-37.593h-12.121v-3.514h15.635Z" stroke="#000" stroke-miterlimit="10" stroke-width="1.5"/>
      <path d="M1122.698,232.358l-.181,23.886-3.514-.026.1-13.338h-20.302v13.351h-3.514v-23.878l12.039-18.811h3.329l12.042,18.817ZM1119.13,239.364l.046-5.992-10.186-15.914-10.188,15.919v5.987h20.328Z" stroke="#000" stroke-miterlimit="10" stroke-width="1.5"/>
    </g>
    <g>
      <rect x="432.323" y="675.965" width="48.49" height="58.293" fill="none"/>
      <path d="M458.871,722.557h6.765l-8.859,12.077-9.257-12.077h7.09v-11.934h-7.18l9.347-11.789,8.944,11.789h-6.85v11.934Z"/>
    </g>
    <g>
      <rect x="652.696" y="276.019" width="248.87" height="52.826" fill="none"/>
      <path d="M707.953,284.889v34.284h-2.822v-28.712l-6.648,11.923h-3.068l-6.65-11.923v28.712h-2.822v-34.284h2.945l8.06,14.452,8.061-14.452h2.945Z" stroke="#000" stroke-miterlimit="10" stroke-width="1.5"/>
      <path d="M731.891,318.052h-2.822v-.085c-.154-.288-.262-.582-.332-1.123-1.254,1.216-2.83,2.015-4.657,2.319-.343.039-.677.059-1.007.059-1.417,0-2.77-.362-4.477-1.159-.797-.393-2.629-1.302-3.647-3.508-.924-2.217-.516-4.297-.369-4.885.621-3.436,3.256-5.164,4.248-5.814l.147-.096c.382-.289.804-.484,1.144-.64.148-.068.289-.125.409-.207l.275-.144c1.941-.747,4.45-1.112,7.633-1.108-.194-.974-.774-1.784-.93-1.939l-.103-.116c-.823-1.029-1.859-1.37-2.249-1.499-1.065-.291-2.16-.285-3.539.02-1.127.226-2.064.545-2.816.802l-.43.147c-.234.095-.481.22-.698.329-.313.158-.584.288-.854.377l-.893-2.677c.154-.051.305-.134.484-.223.277-.138.594-.296.99-.454l.488-.168c.831-.284,1.864-.636,3.145-.893,1.119-.247,2.876-.523,4.88.022.666.218,2.311.76,3.65,2.402.564.599,1.582,2.126,1.758,4.052l.003,1.115h.003c0,.098.008.299.02.583.069,1.725.107,3.595.04,5.361.006.348.011.712.019,1.051.032,1.685.063,3.262.063,4.715,0,1.575.08,1.924.095,1.979.107.181.233.434.309.892l.02.515v-.004ZM723.694,316.373c1.702-.287,3.085-1.208,4.038-2.732.301-.464.71-1.667.831-4.807-.025-1.388-.047-2.833-.052-4.349-2.744-.061-4.976.287-6.575.875-.196.117-.409.219-.636.323-.262.122-.491.226-.697.381l-.229.153c-.849.556-2.614,1.714-3.039,4.048-.059.252-.399,1.724.196,3.156.582,1.254,1.68,1.798,2.209,2.061,1.917.896,2.927,1,3.952.889h.001Z" stroke="#000" stroke-miterlimit="10" stroke-width="1.5"/>
      <path d="M744.599,297.458c1.537-.854,3.085-.854,4.583-.854v2.822c-1.294,0-2.315,0-3.267.527-.808.405-1.35,1.107-2.028,2.195-1.472,2.504-2.465,4.671-2.465,7.012v10.017h-2.822v-17.918c0-.581-.166-2.953-.277-4.406l2.813-.216c.023.331.223,2.917.273,4.162.022-.036.042-.076.064-.113.776-1.241,1.639-2.484,3.125-3.228h0Z" stroke="#000" stroke-miterlimit="10" stroke-width="1.5"/>
      <path d="M772.55,318.438v.887h-1.986l-.561.414-8.415-11.431-3.146,3.389v7.487h-2.822v-32.873h2.822v21.238l10.394-11.194.427.397h2.019v1.119l-7.738,8.334,9.008,12.234Z" stroke="#000" stroke-miterlimit="10" stroke-width="1.5"/>
      <path d="M815.432,316.489v2.822h-21.445v-34.285h2.821v31.463h18.624Z" stroke="#000" stroke-miterlimit="10" stroke-width="1.5"/>
      <path d="M821.866,290.402c0-1.636,1.264-2.962,2.822-2.962s2.821,1.327,2.821,2.962-1.263,2.963-2.821,2.963-2.822-1.327-2.822-2.963ZM823.277,319.184v-22.433h2.822v22.433h-2.822Z" stroke="#000" stroke-miterlimit="10" stroke-width="1.5"/>
      <path d="M841.711,305.543c5.587,2.128,6.748,5.046,6.748,7.123,0,3.738-3.421,6.349-8.322,6.349-2.388,0-5.833-1.502-6.217-1.675l1.146-2.578c1.293.576,3.708,1.431,5.071,1.431,3.29,0,5.501-1.418,5.501-3.527,0-2.156-2.651-3.619-4.876-4.467-3.673-1.223-5.563-3.335-5.563-6.257,0-3.857,2.88-6.349,7.337-6.349,3.039,0,3.847.379,4.91.998.21.124.441.259.752.4l-1.169,2.568c-.412-.188-.721-.366-1.001-.529-.661-.384-1.06-.615-3.493-.615-1.687,0-4.516.458-4.516,3.527,0,1.104.419,2.51,3.691,3.6h0Z" stroke="#000" stroke-miterlimit="10" stroke-width="1.5"/>
      <path d="M861.946,299.561v13.262c0,1.111.26,2.143.661,2.624.474.552,1.713.903,2.584.903.85,0,1.757-.332,1.767-.334l.235-.089h.679v2.537l.073.195c-.014.005-.04.014-.073.027v.063h-.189c-.464.149-1.454.423-2.493.423-1.546,0-3.611-.588-4.738-1.903-1.198-1.439-1.326-3.587-1.326-4.445v-13.262h-4.233v-2.822h4.233v-6.208h2.821v6.208h6.349v2.822h-6.349Z" stroke="#000" stroke-miterlimit="10" stroke-width="1.5"/>
    </g>
    <g>
      <rect x="435.913" y="354.133" width="719.803" height="52.826" fill="none"/>
      <path d="M458.962,365.874h-8.889v31.463h-2.821v-31.463h-8.889v-2.822h20.599v2.822Z" stroke="#000" stroke-miterlimit="10" stroke-width="1.5"/>
      <path d="M480.928,364.41v30.193h6.913v2.822h-16.648v-2.822h6.914v-30.193h-6.914v-2.822h16.648v2.822h-6.913Z" stroke="#000" stroke-miterlimit="10" stroke-width="1.5"/>
      <path d="M522.112,363.003v34.284h-2.822v-28.712l-6.648,11.923h-3.068l-6.65-11.923v28.712h-2.822v-34.284h2.945l8.06,14.452,8.061-14.452h2.945Z" stroke="#000" stroke-miterlimit="10" stroke-width="1.5"/>
      <path d="M537.174,364.391v11.569h10.158v2.822h-10.158v15.661h18.482v2.822h-21.304v-35.695h21.304v2.822h-18.482Z" stroke="#000" stroke-miterlimit="10" stroke-width="1.5"/>
      <path d="M609.758,367.587c.65,1.305.995,2.792.995,4.3v15.379c0,1.509-.344,2.997-.995,4.299-.612,1.225-1.535,2.37-2.743,3.404-1.08.9-2.239,1.511-3.461,1.83-1.115.406-2.317.612-3.666.625h-.141c-1.508-.011-2.711-.214-3.881-.653-1.275-.479-2.408-1.129-3.372-1.932-1.223-1.048-2.146-2.194-2.757-3.416-.652-1.302-.996-2.79-.996-4.299v-15.379c0-1.51.346-2.997.996-4.299.611-1.225,1.535-2.369,2.743-3.404,1.078-.899,2.238-1.51,3.459-1.829,1.15-.42,2.397-.626,3.807-.626,1.514,0,2.869.22,4.024.655,1.272.477,2.406,1.127,3.371,1.93,1.072.918,1.923,2.033,2.616,3.415h.001ZM607.928,387.265v-15.379c0-1.072-.241-2.123-.697-3.038-.528-1.054-1.134-1.855-1.913-2.522-.706-.587-1.566-1.077-2.54-1.442-.828-.311-1.875-.474-3.032-.474-1.11,0-2.03.151-2.891.474l-.154.048c-.835.209-1.643.635-2.4,1.267-.906.776-1.599,1.625-2.041,2.51-.457.915-.698,1.964-.698,3.038v15.377c0,1.074.243,2.125.698,3.038.44.883,1.133,1.732,2.055,2.522.705.587,1.566,1.077,2.541,1.443.857.322,1.772.468,2.957.474,1.079-.006,1.977-.157,2.825-.474l.152-.048c.835-.209,1.644-.635,2.403-1.267.904-.776,1.597-1.625,2.039-2.51.456-.912.697-1.963.697-3.036h-.001Z" stroke="#000" stroke-miterlimit="10" stroke-width="1.5"/>
      <path d="M625.814,365.812v11.569h9.171v2.821h-9.171v17.072h-2.822v-34.284h21.305v2.822h-18.483Z" stroke="#000" stroke-miterlimit="10" stroke-width="1.5"/>
      <path d="M699.391,363.003v34.284h-2.822v-28.712l-6.648,11.923h-3.068l-6.65-11.923v28.712h-2.822v-34.284h2.945l8.06,14.452,8.061-14.452h2.945Z" stroke="#000" stroke-miterlimit="10" stroke-width="1.5"/>
      <path d="M733.646,378.081l-.146,19.184-2.822-.021.081-10.713h-16.306v10.723h-2.822v-19.178l9.669-15.108h2.673l9.672,15.114ZM730.781,383.708l.037-4.812-8.18-12.781-8.183,12.785v4.809h16.327Z" stroke="#000" stroke-miterlimit="10" stroke-width="1.5"/>
      <path d="M759.887,382.973l8.149,13.498v.817h-2.112l-.507.306-8.621-14.278c-.062,0-.127.004-.188.004h-7.902v13.968h-2.821v-34.425h10.581c1.629,0,3.239.336,4.666.968,1.531.681,2.777,1.515,3.81,2.549.838.837,1.459,1.923,2.06,2.973l.075.15c.559,1.306.82,2.469.82,3.66,0,1.236-.284,2.55-.82,3.801-.473,1.1-1.252,2.239-2.135,3.122-.815.816-2.135,1.904-3.795,2.458-.417.186-.837.323-1.259.432h0ZM748.705,365.683v14.814h7.902c1.586,0,2.572-.165,3.518-.584,1.016-.346,1.971-.975,2.82-1.824.629-.631,1.205-1.469,1.537-2.24.386-.902.591-1.832.591-2.688,0-.788-.174-1.553-.561-2.476-.52-.908-1.009-1.754-1.565-2.312-.798-.797-1.738-1.422-2.962-1.966-1.066-.473-2.283-.725-3.519-.725h-7.762Z" stroke="#000" stroke-miterlimit="10" stroke-width="1.5"/>
      <path d="M802.291,396.467v.809h-2.129l-.498.292-11.767-20.003-4.795,5.169v14.26h-2.821v-32.874h2.821v14.463l13.78-14.858.427.395h2.019v1.119l-9.428,10.166,12.391,21.062Z" stroke="#000" stroke-miterlimit="10" stroke-width="1.5"/>
      <path d="M918.847,367.551c.651,1.301.996,2.788.996,4.299v15.378c0,1.511-.345,3-.996,4.3-.609,1.222-1.532,2.366-2.741,3.403-1.08.898-2.239,1.511-3.461,1.83-1.115.406-2.315.612-3.666.625h-.141c-1.509-.011-2.711-.214-3.882-.653-1.272-.479-2.405-1.127-3.37-1.932-1.225-1.048-2.147-2.194-2.759-3.416-.651-1.301-.996-2.788-.996-4.297v-15.378c0-1.51.346-2.997.996-4.299.611-1.222,1.534-2.367,2.743-3.403,1.079-.9,2.239-1.511,3.461-1.83,1.152-.42,2.398-.626,3.807-.626,1.511,0,2.864.219,4.022.653,1.272.477,2.405,1.127,3.372,1.932,1.073.918,1.924,2.033,2.615,3.414h0ZM900.654,371.709v13.917l16.19-15.351c-.117-.514-.292-1.006-.521-1.463-.526-1.054-1.135-1.855-1.913-2.523-.706-.588-1.566-1.078-2.54-1.443-.828-.311-1.877-.474-3.032-.474-1.108,0-2.027.151-2.891.474l-.152.048c-.837.209-1.644.635-2.402,1.267-.907.777-1.599,1.627-2.041,2.51-.457.914-.698,1.964-.698,3.038ZM917.022,387.23v-13.233l-16.033,15.203c.102.32.219.632.365.927.441.883,1.133,1.732,2.056,2.522.705.587,1.564,1.077,2.539,1.443.858.322,1.772.469,2.958.474,1.077-.005,1.977-.156,2.822-.474l.153-.048c.836-.208,1.644-.635,2.402-1.267.905-.777,1.597-1.626,2.039-2.51.457-.913.698-1.962.698-3.038Z" stroke="#000" stroke-miterlimit="10" stroke-width="1.5"/>
      <path d="M953.098,367.551c.651,1.301.996,2.788.996,4.299v15.378c0,1.511-.345,3-.996,4.3-.609,1.222-1.532,2.366-2.741,3.403-1.08.898-2.239,1.511-3.461,1.83-1.115.406-2.315.612-3.666.625h-.141c-1.509-.011-2.711-.214-3.882-.653-1.272-.479-2.405-1.127-3.37-1.932-1.225-1.048-2.147-2.194-2.759-3.416-.651-1.301-.996-2.788-.996-4.297v-15.378c0-1.51.346-2.997.996-4.299.611-1.222,1.534-2.367,2.743-3.403,1.079-.9,2.239-1.511,3.461-1.83,1.152-.42,2.398-.626,3.807-.626,1.511,0,2.864.219,4.022.653,1.272.477,2.405,1.127,3.372,1.932,1.073.918,1.924,2.033,2.615,3.414h0ZM934.905,371.709v13.917l16.19-15.351c-.117-.514-.292-1.006-.521-1.463-.526-1.054-1.135-1.855-1.913-2.523-.706-.588-1.566-1.078-2.54-1.443-.828-.311-1.877-.474-3.032-.474-1.108,0-2.027.151-2.891.474l-.152.048c-.837.209-1.644.635-2.403,1.267-.906.777-1.598,1.627-2.04,2.51-.457.914-.698,1.964-.698,3.038ZM951.273,387.23v-13.233l-16.033,15.203c.102.32.219.632.365.927.441.883,1.133,1.732,2.056,2.522.705.587,1.564,1.077,2.539,1.443.858.322,1.772.469,2.958.474,1.077-.005,1.977-.156,2.823-.474l.152-.048c.836-.208,1.644-.635,2.402-1.267.905-.777,1.597-1.626,2.039-2.51.457-.913.698-1.962.698-3.038Z" stroke="#000" stroke-miterlimit="10" stroke-width="1.5"/>
      <path d="M966.332,377.592c0-1.636,1.263-2.963,2.821-2.963s2.822,1.327,2.822,2.963-1.264,2.963-2.822,2.963-2.821-1.326-2.821-2.963ZM966.332,394.099c0-1.636,1.263-2.963,2.821-2.963s2.822,1.327,2.822,2.963-1.264,2.963-2.822,2.963-2.821-1.326-2.821-2.963Z" stroke="#000" stroke-miterlimit="10" stroke-width="1.5"/>
      <path d="M1001.712,386.101h3.81v2.822h-3.81v7.055h-2.821v-7.055h-14.673v-3.071l14.578-24.3h2.915v24.548h0ZM998.89,366.879l-11.533,19.22h11.533v-19.22Z" stroke="#000" stroke-miterlimit="10" stroke-width="1.5"/>
      <path d="M1038.549,376.939c.536,1.253.819,2.568.819,3.802v6.914c0,1.236-.283,2.549-.819,3.801-.522,1.22-1.386,2.39-2.367,3.208-.757.63-1.929,1.529-3.371,2.071-1.449.543-2.729.796-4.023.796-1.475,0-3.318-.319-4.587-.794-1.408-.529-2.541-1.234-3.466-2.159-.889-.732-1.75-1.902-2.273-3.122-.316-.626-.487-1.307-.637-1.906l-.042-.343v-1.27h2.821v1.096c.114.454.226.855.415,1.234.388.901.965,1.686,1.617,2.229.736.728,1.518,1.208,2.555,1.597.951.355,2.465.615,3.597.615.959,0,1.895-.19,3.031-.617.792-.297,1.604-.804,2.556-1.597.65-.543,1.228-1.329,1.581-2.153.387-.903.592-1.833.592-2.689v-6.914c0-.856-.205-1.786-.592-2.69-.353-.824-.93-1.608-1.581-2.151-.736-.727-1.519-1.208-2.556-1.596l-.432-.167c-.788-.309-1.149-.45-2.6-.45-1.77,0-3.188.378-4.463,1.191-.952.595-1.795,1.438-2.383,2.378l-.415.663h-3.744v-16.366h21.304v2.822h-18.482v9.983c.646-.722,1.394-1.354,2.215-1.868,1.715-1.092,3.672-1.625,5.969-1.625,1.886,0,2.606.244,3.627.643l.396.152c1.407.528,2.541,1.233,3.465,2.158.888.732,1.751,1.9,2.274,3.121h0Z" stroke="#000" stroke-miterlimit="10" stroke-width="1.5"/>
      <path d="M1051.64,377.592c0-1.636,1.263-2.963,2.821-2.963s2.822,1.327,2.822,2.963-1.264,2.963-2.822,2.963-2.821-1.326-2.821-2.963ZM1051.64,394.099c0-1.636,1.263-2.963,2.821-2.963s2.822,1.327,2.822,2.963-1.264,2.963-2.822,2.963-2.821-1.326-2.821-2.963Z" stroke="#000" stroke-miterlimit="10" stroke-width="1.5"/>
      <path d="M1073.386,394.706h17.444v2.822h-21.305v-2.812l3.71-4.048c1.943-2.166,3.728-4.151,5.42-5.957.841-.841,1.684-1.824,2.497-2.775.852-.992,4.25-4.817,4.25-4.817.385-.388.603-.662.748-.842.086-.109.159-.196.22-.264.413-.526.761-1.192,1.006-1.928.233-.699.352-1.257.352-2.376,0-.961-.199-1.914-.591-2.831-.357-.947-.926-1.629-1.677-2.38-.856-.706-1.667-1.213-2.46-1.51-2.27-.851-3.797-.849-6.062,0-1.039.389-1.82.869-2.463,1.511-.74.741-1.336,1.585-1.676,2.38l-2.593-1.112c.485-1.133,1.272-2.262,2.274-3.263.925-.924,2.058-1.629,3.466-2.157,2.887-1.086,5.151-1.086,8.045,0,1.443.542,2.614,1.442,3.371,2.071.926.918,1.851,1.965,2.393,3.41.521,1.209.796,2.535.796,3.881,0,1.484-.19,2.35-.497,3.269-.354,1.064-.876,2.044-1.507,2.833l-.193.23c-.188.237-.473.591-.898,1.016.003,0-3.322,3.742-4.159,4.718-.85.991-1.727,2.015-2.613,2.901-1.649,1.759-3.418,3.73-5.349,5.879l-1.946,2.151h-.002Z" stroke="#000" stroke-miterlimit="10" stroke-width="1.5"/>
      <path d="M1123.856,376.939c.536,1.253.819,2.568.819,3.802v6.914c0,1.236-.283,2.549-.819,3.801-.522,1.22-1.386,2.39-2.367,3.208-.757.63-1.929,1.529-3.371,2.071-1.449.543-2.729.796-4.023.796-1.475,0-3.318-.319-4.587-.794-1.408-.529-2.541-1.234-3.466-2.159-.889-.732-1.75-1.902-2.273-3.122-.316-.626-.487-1.307-.637-1.906l-.042-.343v-1.27h2.821v1.096c.114.454.226.855.415,1.234.388.901.965,1.686,1.617,2.229.736.728,1.518,1.208,2.555,1.597.951.355,2.465.615,3.597.615.959,0,1.895-.19,3.031-.617.792-.297,1.604-.804,2.556-1.597.65-.543,1.228-1.329,1.581-2.153.387-.903.592-1.833.592-2.689v-6.914c0-.856-.205-1.786-.592-2.69-.353-.824-.93-1.608-1.581-2.151-.736-.727-1.519-1.208-2.556-1.596l-.432-.167c-.788-.309-1.149-.45-2.6-.45-1.77,0-3.188.378-4.463,1.191-.952.595-1.795,1.438-2.383,2.378l-.415.663h-3.744v-16.366h21.304v2.822h-18.482v9.983c.646-.722,1.395-1.354,2.215-1.868,1.715-1.092,3.672-1.625,5.969-1.625,1.886,0,2.607.244,3.627.643l.396.152c1.407.528,2.541,1.233,3.465,2.158.888.732,1.751,1.9,2.274,3.121h0Z" stroke="#000" stroke-miterlimit="10" stroke-width="1.5"/>
    </g>
    <g>
      <rect x="425.486" y="468.083" width="732.522" height="52.826" fill="none"/>
      <path d="M462.094,474.354v37.593h12.121v3.514h-15.634v-44.62h15.634v3.513h-12.121Z" stroke="#000" stroke-miterlimit="10" stroke-width="1.5"/>
      <path d="M1086.316,470.658v44.62h-15.635v-3.514h12.121v-37.593h-12.121v-3.514h15.635Z" stroke="#000" stroke-miterlimit="10" stroke-width="1.5"/>
      <path d="M1123.878,497.93c.52,1.377,1.021,3.036,1.021,5.434,0,2.484-.269,4.267-.845,5.611-.688,1.835-1.605,3.169-2.779,4.007-1.095,1.037-2.566,1.706-4.281,1.945-1.417.383-2.779.383-4.216.383h-17.04v-21.407l-.352-.352v-23.037h16.688c1.449,0,2.856.214,4.068.617,1.456.415,2.949,1.282,4.024,2.357,1.1,1.1,2.069,2.516,2.656,3.886.52,1.384,1.021,3.042,1.021,5.437,0,2.37-.258,4.163-.791,5.479-.423,1.57-1.386,3.083-2.602,4.086-.238.234-.495.438-.755.631.455.312.876.63,1.233.927,1.224,1.019,2.298,2.475,2.949,3.995v.002ZM1098.899,474.027v17.037h13.88c.511,0,1.025.056,1.539.11.394-.039.76-.093,1.067-.195l.338-.076c.975-.121,1.688-.455,2.313-1.08l.146-.13c.52-.416,1.227-1.292,1.5-2.391l.09-.267c.372-.866.561-2.287.561-4.225,0-1.829-.369-3.065-.768-4.128-.376-.87-1.108-1.938-1.882-2.71-.657-.657-1.621-1.212-2.579-1.486-.917-.304-1.969-.458-3.03-.458h-13.175ZM1120.793,507.668c.402-.941.591-2.364.591-4.302,0-1.831-.367-3.063-.767-4.125-.409-.952-1.128-1.929-1.939-2.605-1.054-.878-1.86-1.354-2.694-1.594-.525-.151-1.053-.262-1.579-.339-.697.053-1.414.055-2.154.055h-12.999v17.04h13.526c1.333,0,2.389,0,3.382-.285l.265-.054c1.055-.132,1.915-.506,2.489-1.081l.268-.219c.609-.406,1.137-1.221,1.612-2.493v.002Z" stroke="#000" stroke-miterlimit="10" stroke-width="1.5"/>
    </g>
    <g>
      <rect x="435.913" y="593.612" width="719.803" height="52.826" fill="none"/>
      <path d="M458.962,605.352h-8.889v31.463h-2.821v-31.463h-8.889v-2.822h20.599v2.822Z" stroke="#000" stroke-miterlimit="10" stroke-width="1.5"/>
      <path d="M480.928,603.888v30.192h6.913v2.822h-16.648v-2.822h6.914v-30.192h-6.914v-2.822h16.648v2.822h-6.913Z" stroke="#000" stroke-miterlimit="10" stroke-width="1.5"/>
      <path d="M522.112,602.481v34.284h-2.822v-28.712l-6.648,11.923h-3.068l-6.65-11.923v28.712h-2.822v-34.284h2.945l8.06,14.452,8.061-14.452h2.945Z" stroke="#000" stroke-miterlimit="10" stroke-width="1.5"/>
      <path d="M537.174,603.87v11.569h10.158v2.821h-10.158v15.661h18.482v2.821h-21.304v-35.695h21.304v2.822h-18.482Z" stroke="#000" stroke-miterlimit="10" stroke-width="1.5"/>
      <path d="M609.758,607.065c.65,1.306.995,2.792.995,4.301v15.379c0,1.509-.344,2.996-.995,4.299-.612,1.225-1.535,2.37-2.743,3.404-1.08.9-2.239,1.511-3.461,1.83-1.115.406-2.317.612-3.666.625h-.141c-1.508-.012-2.711-.215-3.881-.653-1.275-.479-2.408-1.129-3.372-1.932-1.223-1.048-2.146-2.194-2.757-3.416-.652-1.302-.996-2.789-.996-4.299v-15.379c0-1.51.346-2.996.996-4.299.611-1.225,1.535-2.369,2.743-3.404,1.078-.898,2.238-1.51,3.459-1.828,1.15-.421,2.397-.627,3.807-.627,1.514,0,2.869.221,4.024.655,1.272.477,2.406,1.127,3.371,1.93,1.072.918,1.923,2.033,2.616,3.414h.001ZM607.928,626.743v-15.379c0-1.072-.241-2.123-.697-3.037-.528-1.054-1.134-1.855-1.913-2.522-.706-.587-1.566-1.077-2.54-1.442-.828-.311-1.875-.474-3.032-.474-1.11,0-2.03.15-2.891.474l-.154.048c-.835.209-1.643.635-2.4,1.268-.906.775-1.599,1.625-2.041,2.51-.457.914-.698,1.964-.698,3.037v15.378c0,1.073.243,2.124.698,3.037.44.884,1.133,1.732,2.055,2.522.705.587,1.566,1.077,2.541,1.443.857.322,1.772.469,2.957.475,1.079-.006,1.977-.157,2.825-.475l.152-.048c.835-.209,1.644-.635,2.403-1.267.904-.776,1.597-1.625,2.039-2.51.456-.912.697-1.963.697-3.036v-.002Z" stroke="#000" stroke-miterlimit="10" stroke-width="1.5"/>
      <path d="M625.814,605.291v11.569h9.171v2.821h-9.171v17.071h-2.822v-34.284h21.305v2.822h-18.483Z" stroke="#000" stroke-miterlimit="10" stroke-width="1.5"/>
      <path d="M699.391,602.481v34.284h-2.822v-28.712l-6.648,11.923h-3.068l-6.65-11.923v28.712h-2.822v-34.284h2.945l8.06,14.452,8.061-14.452h2.945Z" stroke="#000" stroke-miterlimit="10" stroke-width="1.5"/>
      <path d="M733.646,617.559l-.146,19.184-2.822-.021.081-10.713h-16.306v10.723h-2.822v-19.179l9.669-15.107h2.673l9.672,15.113ZM730.781,623.186l.037-4.812-8.18-12.781-8.183,12.785v4.809h16.327Z" stroke="#000" stroke-miterlimit="10" stroke-width="1.5"/>
      <path d="M759.887,622.451l8.149,13.498v.816h-2.112l-.507.307-8.621-14.278c-.062,0-.127.004-.188.004h-7.902v13.968h-2.821v-34.425h10.581c1.629,0,3.239.336,4.666.968,1.531.681,2.777,1.515,3.81,2.549.838.837,1.459,1.924,2.06,2.973l.075.15c.559,1.306.82,2.469.82,3.659,0,1.236-.284,2.55-.82,3.802-.473,1.1-1.252,2.238-2.135,3.121-.815.816-2.135,1.904-3.795,2.459-.417.186-.837.322-1.259.432v-.002ZM748.705,605.162v14.814h7.902c1.586,0,2.572-.165,3.518-.584,1.016-.346,1.971-.976,2.82-1.824.629-.631,1.205-1.469,1.537-2.24.386-.902.591-1.832.591-2.688,0-.787-.174-1.553-.561-2.476-.52-.907-1.009-1.754-1.565-2.312-.798-.797-1.738-1.422-2.962-1.966-1.066-.474-2.283-.725-3.519-.725h-7.762Z" stroke="#000" stroke-miterlimit="10" stroke-width="1.5"/>
      <path d="M802.291,635.945v.809h-2.129l-.498.292-11.767-20.003-4.795,5.169v14.26h-2.821v-32.873h2.821v14.463l13.78-14.858.427.396h2.019v1.118l-9.428,10.166,12.391,21.062Z" stroke="#000" stroke-miterlimit="10" stroke-width="1.5"/>
      <path d="M939.48,624.83v-2.821h11.429v2.821h-11.429Z" stroke="#000" stroke-miterlimit="10" stroke-width="1.5"/>
      <path d="M963.147,624.83v-2.821h11.429v2.821h-11.429Z" stroke="#000" stroke-miterlimit="10" stroke-width="1.5"/>
      <path d="M986.813,617.07c0-1.637,1.263-2.963,2.821-2.963s2.822,1.326,2.822,2.963-1.264,2.963-2.822,2.963-2.821-1.326-2.821-2.963ZM986.813,633.577c0-1.636,1.263-2.963,2.821-2.963s2.822,1.327,2.822,2.963-1.264,2.963-2.822,2.963-2.821-1.326-2.821-2.963Z" stroke="#000" stroke-miterlimit="10" stroke-width="1.5"/>
      <path d="M1004.698,624.83v-2.821h11.429v2.821h-11.429Z" stroke="#000" stroke-miterlimit="10" stroke-width="1.5"/>
      <path d="M1028.365,624.83v-2.821h11.429v2.821h-11.429Z" stroke="#000" stroke-miterlimit="10" stroke-width="1.5"/>
      <path d="M1052.031,617.07c0-1.637,1.263-2.963,2.821-2.963s2.822,1.326,2.822,2.963-1.264,2.963-2.822,2.963-2.821-1.326-2.821-2.963ZM1052.031,633.577c0-1.636,1.263-2.963,2.821-2.963s2.822,1.327,2.822,2.963-1.264,2.963-2.822,2.963-2.821-1.326-2.821-2.963Z" stroke="#000" stroke-miterlimit="10" stroke-width="1.5"/>
      <path d="M1069.917,624.83v-2.821h11.429v2.821h-11.429Z" stroke="#000" stroke-miterlimit="10" stroke-width="1.5"/>
      <path d="M1093.583,624.83v-2.821h11.429v2.821h-11.429Z" stroke="#000" stroke-miterlimit="10" stroke-width="1.5"/>
    </g>
  </g>
  <g id="Mark_Page_Arrows_-_Light">
    <path d="M446.942,229.907l-66.795-36.941-3.526,12.529L110.653,120.746c1.365-4.467,2.176-9.18,2.321-14.069.878-29.571-22.466-54.343-52.037-55.22S6.595,73.922,5.717,103.493c-.878,29.57,22.466,54.342,52.037,55.22,21.535.639,40.512-11.574,49.582-29.676l266.874,85.025-3.526,12.529,76.257,3.316ZM57.991,150.717c-25.202-.748-45.026-21.785-44.278-46.986.748-25.202,21.785-45.026,46.986-44.278,25.202.748,45.026,21.785,44.278,46.986-.748,25.202-21.785,45.026-46.986,44.278Z" stroke="#fff" stroke-miterlimit="10" stroke-width="2"/>
    <path d="M437.812,364.277l-67.862-34.943-3.152,12.628-255.668-69.654c1.232-4.506,1.902-9.241,1.902-14.132,0-29.584-24.068-53.652-53.652-53.652s-53.652,24.068-53.652,53.652,24.068,53.652,53.652,53.652c21.544,0,40.151-12.771,48.68-31.134l256.581,69.903-3.152,12.628,76.322,1.052ZM59.381,303.828c-25.213,0-45.652-20.439-45.652-45.652,0-25.213,20.439-45.652,45.652-45.652s45.652,20.439,45.652,45.652c0,25.213-20.439,45.652-45.652,45.652Z" stroke="#fff" stroke-miterlimit="10" stroke-width="2"/>
    <path d="M361.49,508.116l3.152,12.628-256.581,69.903c-8.529-18.363-27.136-31.134-48.68-31.134-29.584,0-53.652,24.068-53.652,53.652s24.068,53.652,53.652,53.652,53.652-24.068,53.652-53.652c0-4.891-.67-9.626-1.902-14.132l255.668-69.654,3.152,12.628,67.862-34.943-76.322,1.052ZM105.033,613.165c0,25.213-20.439,45.652-45.652,45.652s-45.652-20.439-45.652-45.652c0-25.213,20.439-45.652,45.652-45.652s45.652,20.439,45.652,45.652Z" stroke="#fff" stroke-miterlimit="10" stroke-width="2"/>
    <path d="M67.699,124.93v4.607h-14.744v-4.607h5.068v-47.279l-3.601,2.981-2.938-3.55,7.319-6.057h3.827v53.905h5.068Z" fill="#ff8500" stroke="#ff8500" stroke-miterlimit="10"/>
    <path d="M47.663,277.906h28.483v4.607h-34.786v-4.591l6.056-6.609c3.175-3.536,6.086-6.778,8.851-9.727,1.373-1.373,2.749-2.979,4.078-4.531,1.389-1.62,6.939-7.865,6.939-7.865.629-.634.983-1.081,1.221-1.375.141-.177.26-.32.359-.431.675-.859,1.242-1.947,1.643-3.149.38-1.14.574-2.053.574-3.879,0-1.569-.325-3.124-.965-4.621-.583-1.546-1.511-2.661-2.737-3.887-1.398-1.152-2.723-1.981-4.018-2.465-3.705-1.389-6.199-1.387-9.899,0-1.695.636-2.972,1.419-4.02,2.467-1.209,1.209-2.182,2.589-2.737,3.886l-4.234-1.815c.792-1.85,2.078-3.693,3.713-5.329,1.511-1.509,3.361-2.661,5.66-3.522,4.713-1.774,8.411-1.774,13.136,0,2.356.885,4.269,2.354,5.503,3.382,1.511,1.5,3.022,3.209,3.907,5.568.85,1.975,1.299,4.14,1.299,6.338,0,2.423-.311,3.838-.811,5.337-.578,1.737-1.431,3.338-2.46,4.626l-.315.375c-.309.387-.772.965-1.468,1.659.005,0-5.425,6.109-6.791,7.704-1.387,1.617-2.82,3.29-4.267,4.737-2.693,2.873-5.582,6.091-8.733,9.6l-3.179,3.513-.002-.002Z" fill="#ff8500" stroke="#ff8500" stroke-miterlimit="10"/>
    <path d="M75.29,613.306c.871,2.034,1.297,5.965,1.297,7.95,0,2.124,0,3.527-1,7.275-.882,3.522-2.69,5.894-4.052,7.255-1.522,1.521-4.432,3.462-6.828,4.062-2.26.76-5.951.76-7.932.76-2.341,0-6.397-1.32-8.049-2.027-1.933-.829-5.561-3.275-7.766-5.233l3.062-3.444c1.928,1.714,5.197,3.875,6.52,4.443,1.521.652,4.884,1.657,6.234,1.657,1.599,0,4.925,0,6.644-.574,1.474-.375,3.665-1.707,4.858-2.9.949-.946,2.216-2.612,2.85-5.148.853-3.198.853-4.114.853-6.121,0-2.046-.468-5.077-.965-6.236-.567-1.502-1.255-2.645-2.417-4.038-1.011-1.215-2.115-2.083-3.283-2.583-1.449-.622-2.983-1.198-4.391-1.198h-6.22v-5.017l13.689-15.486h-21.061v-4.607h26.032v5.936l-12.873,14.564h.433c2.246,0,4.398.793,6.206,1.569,1.841.79,3.527,2.092,5.008,3.867,1.5,1.797,2.442,3.375,3.154,5.273l-.002.002Z" fill="#ff8500" stroke="#ff8500" stroke-miterlimit="10"/>
  </g>
</svg>