<?xml version="1.0" encoding="UTF-8"?>
<svg xmlns="http://www.w3.org/2000/svg" width="2565.563" height="2482.239" viewBox="0 0 2565.563 2482.239">
  <g id="b" data-name="ECMD_-_Light">
    <path d="M2356.084,1181.413l-4.696-118.957-7.826-118.956-19.757-192.957c-2.48-24.227-5.623-48.382-9.422-72.437l-8.643-54.714c-8.902-56.35-43.83-95.718-108.719-110.854l-62.415-11.733-64.957-10.435-204.261-29.739-208.957-21.13-198.783-11.739-151.32-2.112.277-.236-8.609.12-8.609-.12.277.236-151.32,2.112-198.783,11.739-208.957,21.13-204.261,29.739-64.957,10.435-62.415,11.733c-64.889,15.136-99.818,54.504-108.719,110.854l-8.643,54.714c-3.8,24.055-6.942,48.21-9.422,72.437l-19.757,192.957-7.826,118.956-4.696,118.957v65.739l.37,10.174-.37,10.174v65.739l4.696,118.957,7.826,118.956,19.757,192.957c2.48,24.227,5.623,48.382,9.422,72.437l8.643,54.714c8.902,56.35,43.83,95.718,108.719,110.854l62.415,11.733,64.957,10.435,204.261,29.739,208.957,21.13,198.783,11.739,151.32,2.111-.277.236,8.609-.12,8.609.12-.277-.236,151.32-2.111,198.783-11.739,208.957-21.13,204.261-29.739,64.957-10.435,62.415-11.733c64.889-15.136,99.817-54.504,108.719-110.854l8.643-54.714c3.8-24.055,6.942-48.21,9.422-72.437l19.757-192.957,7.826-118.956,4.696-118.957v-65.739l-.37-10.174.37-10.174v-65.739Z" fill="none" stroke="#000" stroke-miterlimit="10" stroke-width="9"/>
  </g>
  <g id="c" data-name="PTID_Repeat_-_Light">
    <g>
      <rect x="538.405" y="586.526" width="37.043" height="152.87" fill="none"/>
      <path d="M566.573,628.336h-3.793v-18.669l-5.796,5.852-5.925-5.852v18.669h-3.795v-24.542h3.795l5.925,5.873,5.796-5.873h3.793v24.542Z"/>
      <path d="M550.958,640.847v6.202l15.645.035v4.025l-15.637-.036v6.202l15.637.035v4.025l-19.334-.036v-4.024h.004v-6.202h-.004v-1.273h-.004v-12.942h.004v-.036h19.334v4.025h-15.645Z"/>
      <path d="M566.573,694.334h-3.791s0,0,0,0h-.002v-.002l-11.723-17.628v17.63h-3.793v-24.534h3.793l11.723,17.588v-17.589h3.793v24.535Z"/>
      <path d="M566.579,723.203v4.133h-19.313v-.042h0v-24.51h3.793v20.42h11.729v-20.42h3.792v20.42h0Z"/>
    </g>
    <g>
      <rect x="538.471" y="795.743" width="37.043" height="165.392" fill="none"/>
      <path d="M551.124,823.4v16.282h15.518v4.133h-19.311v-24.511h.003v-.037h19.308v4.133h-15.518Z"/>
      <path d="M564.074,876.814h-14.153v-24.513h4.26v20.253h9.894v4.259Z"/>
      <path d="M551.177,889.321v6.199h15.446v14.295h-19.274l.002-4.065h15.445v-6.199h-15.447v-14.261h19.274v4.031h-15.446Z"/>
      <path d="M566.639,942.813h-3.79s0,0,0,0h0v-.002l-11.723-17.628v17.63h-3.793v-24.534h3.793l11.723,17.588v-17.589h3.792v24.535Z"/>
    </g>
    <g>
      <rect x="538.992" y="1011.743" width="37.043" height="165.392" fill="none"/>
      <path d="M567.162,1039.065h-7.759v20.749h-3.792v-20.749h-7.759v-3.792h19.31v3.792Z"/>
      <path d="M567.181,1068.303v24.511h-3.791v-10.177h-11.744v10.177h-3.793v-24.511h3.793v10.201h11.744v-10.201h3.791Z"/>
      <path d="M564.596,1125.814h-14.153v-24.513h4.26v20.254h9.894v4.259Z"/>
      <path d="M567.188,1146.509c0,6.773-5.466,12.302-12.238,12.302l-7.111.003-.004-24.546h7.09c6.773,0,12.264,5.469,12.264,12.241ZM563.067,1146.521c0-4.335-2.615-8.132-6.95-8.132h-4.44l.065,16.339h4.456c4.335,0,6.869-3.872,6.869-8.207Z"/>
    </g>
    <g>
      <rect x="538.592" y="1652.96" width="80.161" height="165.392" fill="none"/>
      <path d="M554.03,1726.02h3.793v24.512h-3.793v-24.512Z"/>
      <path d="M580.55,1750.531h-19.24s0-24.521,0-24.521l19.24-.002v24.522ZM565.102,1746.47h11.655v-16.451h-11.655v16.451Z"/>
      <path d="M603.3,1750.531h-19.24s0-24.521,0-24.521l19.24-.002v24.522ZM587.852,1746.47h11.655v-16.451h-11.655v16.451Z"/>
    </g>
    <polygon points="574.276 1622.917 559.539 1648.444 589.014 1648.444 574.276 1622.917" stroke="#000" stroke-miterlimit="10"/>
    <polygon points="574.276 1868.617 559.539 1843.091 589.014 1843.091 574.276 1868.617" stroke="#000" stroke-miterlimit="10"/>
    <g>
      <rect x="710.71" y="1985.83" width="104.217" height="34.435" fill="none"/>
      <path d="M733.968,2017.921l-2.25-7.467h-6.154l-2.254,7.467h-4.366l7.622-24.502h4.139l7.548,24.502h-4.284ZM730.474,2006.322l-1.83-6.07-1.832,6.07h3.662Z"/>
      <path d="M745.591,1997.428v6.198h15.447v14.295h-19.275l.002-4.064h15.445v-6.199h-15.447v-14.261h19.275v4.031h-15.447Z"/>
      <path d="M783.857,1997.172h-7.759v20.749h-3.792v-20.749h-7.759v-3.792h19.31v3.792Z"/>
      <path d="M806.684,2001.815c0,1.432-.516,2.742-1.37,3.758.854,1.017,1.37,2.327,1.37,3.758v3.361c0,3.226-2.615,5.229-5.841,5.229h-9.683s-3.792,0-3.792,0v-24.526h3.792v.003h9.683c3.226,0,5.841,2.615,5.841,5.842v2.575ZM791.16,1997.531v5.959h9.683c.119,0,.238.005.356.012.958-.143,1.692-.969,1.692-1.967v-2.015c0-1.099-.891-1.989-1.988-1.989h-9.743ZM802.892,2009.612c0-.998-.735-1.825-1.694-1.968-.118.008-.235.013-.354.013h-9.683v6.131h9.743c1.098,0,1.988-.278,1.988-1.377v-2.799Z"/>
    </g>
    <g>
      <rect x="1095.31" y="1986.091" width="104.217" height="34.435" fill="none"/>
      <path d="M1117.14,2008.279h-5.446v9.902h-3.792v-24.553h13.467c3.226,0,5.842,2.615,5.842,5.841v2.969c0,3.176-2.537,5.758-5.693,5.837l5.72,9.907h-4.38s-5.717-9.903-5.717-9.903ZM1111.693,1997.761v6.385h9.735c1.098,0,1.988-.891,1.988-1.989v-2.406c0-1.099-.891-1.989-1.988-1.989h-9.735Z"/>
      <path d="M1132.961,1993.67h3.792v24.512h-3.792v-24.512Z"/>
      <path d="M1161.834,2005.877c0,6.773-5.466,12.302-12.239,12.302l-7.11.003-.004-24.546h7.091c6.772,0,12.263,5.469,12.263,12.241ZM1157.713,2005.889c0-4.335-2.615-8.132-6.95-8.132h-4.44l.065,16.339h4.456c4.335,0,6.869-3.872,6.869-8.207Z"/>
      <path d="M1186.929,2005.877c0,6.773-5.465,12.302-12.238,12.302l-7.111.003-.004-24.546h7.091c6.772,0,12.263,5.469,12.263,12.241ZM1182.808,2005.889c0-4.335-2.615-8.132-6.949-8.132h-4.441l.066,16.339h4.455c4.336,0,6.869-3.872,6.869-8.207Z"/>
    </g>
    <rect x="1091.449" y="1989.222" width="107.478" height="36.522" fill="none" stroke="#000" stroke-miterlimit="10" stroke-width="3"/>
    <g>
      <rect x="1399.63" y="1987.134" width="104.217" height="34.435" fill="none"/>
      <path d="M1418.084,1998.737v6.202l15.644.035v4.025l-15.637-.036v6.202l15.637.035v4.025l-19.334-.036v-4.024h.004v-6.202h-.004v-1.272h-.003v-12.942h.003v-.036h19.334v4.024h-15.644Z"/>
      <path d="M1454.41,2006.948l9.597,9.597-2.682,2.682-9.597-9.597-9.597,9.597-2.682-2.682,9.598-9.597-9.598-9.596,2.682-2.682,9.597,9.596,9.597-9.596,2.682,2.682-9.597,9.596Z"/>
      <path d="M1489.068,2000.514v2.968c0,3.227-2.615,5.841-5.841,5.842h-9.676v9.902h-3.792v-24.554h3.792s9.676,0,9.676,0c3.225,0,5.841,2.615,5.841,5.842ZM1485.276,2000.794c0-1.099-.891-1.988-1.989-1.988h-9.735v6.385h9.735c1.099,0,1.989-.891,1.989-1.989v-2.407Z"/>
    </g>
    <polygon points="1716.772 2007.482 1742.299 2022.22 1742.299 1992.745 1716.772 2007.482" stroke="#000" stroke-miterlimit="10"/>
    <polygon points="1962.473 2007.482 1936.946 2022.22 1936.946 1992.745 1962.473 2007.482" stroke="#000" stroke-miterlimit="10"/>
    <g>
      <rect x="1783.63" y="1986.613" width="104.217" height="34.435" fill="none"/>
      <path d="M1832.854,2018.703l-19.239.002v-24.521l19.239-.002v24.521ZM1817.407,2014.643h11.656v-16.451h-11.656v16.451Z"/>
      <path d="M1857.845,2018.704h-1.651s-16.618,0-16.618,0v-4.061h14.479v-6.246h-11.656v.047h-3.792v-14.261h3.792v.004h14.16v4.005h-14.16v6.2h12.449v.017h2.998v14.294Z"/>
    </g>
    <g>
      <rect x="2015.766" y="1760.569" width="37.043" height="165.392" fill="none"/>
      <path d="M2041.293,1784.126v20.254c0,2.353-1.907,4.26-4.26,4.26l-3.854-.009c-1.221-.002-3.034-.625-3.857-1.356-.914-.813-1.933-2.536-2.049-3.328-.034-.229.143-.433.373-.433h3.355c.205,0,.393.128.458.322.02.061.052.126.103.193.168.228.442.351.725.351h3.013c.958,0,1.734-.776,1.734-1.734v-18.52h4.26Z"/>
      <path d="M2043.934,1841.64h-3.794v-18.669l-5.795,5.852-5.926-5.852v18.669h-3.794v-24.542h3.794l5.926,5.873,5.795-5.873h3.794v24.542Z"/>
      <path d="M2028.471,1854.146v6.199h15.446v14.295h-19.274l.002-4.065h15.445v-6.198h-15.447v-14.262h19.274v4.031h-15.446Z"/>
      <path d="M2043.933,1907.638h-3.79v.002-.002h-.002v-.002l-11.723-17.628v17.63h-3.793v-24.534h3.793l11.723,17.588v-17.589h3.792v24.535Z"/>
    </g>
    <g>
      <rect x="2014.795" y="1571.699" width="37.043" height="165.392" fill="none"/>
      <path d="M2042.99,1607.465c0,6.773-5.466,12.302-12.239,12.302l-7.11.003-.004-24.546h7.09c6.773,0,12.264,5.469,12.264,12.241ZM2038.869,1607.477c0-4.335-2.615-8.132-6.95-8.132h-4.44l.065,16.339h4.456c4.335,0,6.869-3.872,6.869-8.207Z"/>
      <path d="M2027.348,1632.282v6.202l15.644.035v4.024l-15.637-.035v6.202l15.637.035v4.024l-19.334-.035v-4.024h.004v-6.202h-.004v-1.273h-.003v-12.942h.003v-.036h19.334v4.025h-15.644Z"/>
      <path d="M2027.5,1665.277v6.198h15.446v14.295h-19.274l.002-4.064h15.444v-6.199h-15.446v-14.261h19.274v4.031h-15.446Z"/>
      <path d="M2042.964,1698.021h-7.759v20.749h-3.792v-20.749h-7.759v-3.792h19.31v3.792Z"/>
    </g>
    <rect x="2016.621" y="1584.874" width="33.391" height="143.217" fill="none" stroke="#000" stroke-miterlimit="10" stroke-width="3"/>
    <g>
      <rect x="2014.795" y="1187.895" width="37.043" height="165.392" fill="none"/>
      <path d="M2038.678,1252.466l-2.249-7.467h-6.155l-2.254,7.467h-4.366l7.622-24.503h4.139l7.548,24.503h-4.284ZM2035.184,1240.867l-1.829-6.07-1.833,6.07h3.662Z" stroke="#000" stroke-miterlimit="10"/>
      <path d="M2040.396,1285.466h-14.153v-24.513h4.26v20.253h9.894v4.26Z" stroke="#000" stroke-miterlimit="10"/>
      <path d="M2042.963,1297.717h-7.759v20.749h-3.792v-20.749h-7.759v-3.792h19.31v3.792Z" stroke="#000" stroke-miterlimit="10"/>
    </g>
    <rect x="2016.621" y="1216.787" width="33.391" height="111.13" fill="none" stroke="#000" stroke-miterlimit="10" stroke-width="3"/>
    <g>
      <rect x="2014.795" y="1009.721" width="37.043" height="165.392" fill="none"/>
      <path d="M2042.961,1057.791h-3.79s0,0,0,0h0v-.002l-11.723-17.629v17.631h-3.793v-24.534h3.793l11.723,17.588v-17.589h3.792v24.535Z"/>
      <path d="M2038.678,1090.792l-2.249-7.467h-6.155l-2.254,7.467h-4.366l7.622-24.502h4.139l7.548,24.502h-4.284ZM2035.184,1079.193l-1.829-6.07-1.833,6.07h3.662Z"/>
      <path d="M2042.963,1103.043h-7.759v20.749h-3.792v-20.749h-7.759v-3.792h19.31v3.792Z"/>
      <path d="M2037.186,1156.784l-9.485-9.488v9.497h-4.222v-13.721h0v-.307s0-10.498,0-10.498h4.222v6.357l6.87-6.357h5.971l-11.184,10.722,13.795,13.804-5.967-.009Z"/>
    </g>
    <rect x="2016.621" y="1022.961" width="33.391" height="143.217" fill="none" stroke="#000" stroke-miterlimit="10" stroke-width="3"/>
    <g>
      <rect x="2014.795" y="824.7" width="37.043" height="111.913" fill="none"/>
      <path d="M2042.989,850.227c0,6.773-5.466,12.302-12.239,12.302l-7.11.003-.004-24.546h7.09c6.773,0,12.264,5.469,12.264,12.241ZM2038.868,850.239c0-4.335-2.615-8.132-6.95-8.132h-4.44l.065,16.339h4.456c4.335,0,6.869-3.873,6.869-8.207Z"/>
      <path d="M2028.425,895.532l-3.284-1.896,13.063-22.627,3.284,1.896-13.063,22.627Z"/>
      <path d="M2040.396,928.532h-14.153v-24.513h4.26v20.253h9.894v4.259Z"/>
    </g>
    <rect x="2016.621" y="825.091" width="33.391" height="111.13" fill="none" stroke="#000" stroke-miterlimit="10" stroke-width="3"/>
    <g>
      <rect x="2014.795" y="643.722" width="37.043" height="111.913" fill="none"/>
      <path d="M2027.5,661.06v6.199h15.446v14.295h-19.274l.002-4.065h15.444v-6.199h-15.446v-14.261h19.274v4.031h-15.446Z"/>
      <path d="M2035.198,705.586v8.967h-3.81v-9.069l-7.77-13.348,3.596-2.059,6.108,10.495,6.108-10.495,3.596,2.059-7.829,13.45Z"/>
      <path d="M2042.962,747.553h-3.793v-18.669l-5.796,5.852-5.925-5.852v18.669h-3.794v-24.542h3.794l5.925,5.873,5.796-5.873h3.793v24.542Z"/>
    </g>
    <rect x="2016.621" y="644.113" width="33.391" height="111.13" fill="none" stroke="#000" stroke-miterlimit="10" stroke-width="3"/>
    <g>
      <rect x="1669.796" y="510.874" width="390.261" height="32.348" fill="none"/>
      <path d="M1692.056,520.839h-8.202v21.934h-4.009v-21.934h-8.201v-4.009h20.412v4.009Z"/>
      <path d="M1700.54,516.829h4.011v19.735l6.126-6.186,6.264,6.186v-19.735h4.01v25.943h-4.01l-6.264-6.208-6.126,6.208h-4.011v-25.943Z"/>
      <path d="M1733.482,521.108v6.553h16.329v15.111h-20.375l.002-4.297h16.326v-6.553h-16.328v-15.075h20.375v4.261h-16.329Z"/>
      <path d="M1778.706,542.772h-4.01v-19.735l-6.127,6.186-6.263-6.186v19.735h-4.011v-25.943h4.011l6.263,6.208,6.127-6.208h4.01v25.943Z"/>
      <path d="M1841.2,542.771h-20.339s0-25.92,0-25.92l20.339-.002v25.922ZM1824.87,538.479h12.321v-17.391h-12.321v17.391Z"/>
      <path d="M1873.144,531.928h0v10.845h-4.008v-15.11h0v-6.568h-15.049v-4.25h16.964v.008h2.093v15.075Z"/>
      <path d="M1886.093,527.823c0-1.369.925-2.331,2.22-2.331s2.146.962,2.184,2.331c0,1.295-.852,2.294-2.221,2.294-1.295,0-2.183-.999-2.183-2.294ZM1886.093,540.885c0-1.369.925-2.331,2.22-2.331s2.146.962,2.184,2.331c0,1.295-.852,2.294-2.221,2.294-1.295,0-2.183-.999-2.183-2.294Z"/>
      <path d="M1923.191,542.771h-20.339s0-25.92,0-25.92l20.339-.002v25.922ZM1906.861,538.479h12.321v-17.391h-12.321v17.391Z"/>
      <path d="M1956.417,542.769h-1.746s-14.584,0-14.584,0v.002h-4.009v-25.923h4.009v.004h12.321v-.006h4.009v25.922ZM1940.087,521.087v6.555h12.321v-6.555h-12.321ZM1940.087,538.478h12.321v-6.603h-12.321v6.603Z"/>
      <path d="M1969.379,527.823c0-1.369.925-2.331,2.22-2.331s2.146.962,2.184,2.331c0,1.295-.852,2.294-2.221,2.294-1.295,0-2.183-.999-2.183-2.294ZM1969.379,540.885c0-1.369.925-2.331,2.22-2.331s2.146.962,2.184,2.331c0,1.295-.852,2.294-2.221,2.294-1.295,0-2.183-.999-2.183-2.294Z"/>
      <path d="M2006.479,531.928h0v10.845h-4.009v-10.865h-16.331v-15.066h4.012v10.803h12.32v-10.792h4.009v15.075Z"/>
      <path d="M2039.703,542.772h-1.746s-17.567,0-17.567,0v-4.292h15.305v-6.603h-14.236v-.007h-2.094v-15.019l20.339-.002v25.922ZM2035.694,527.644v-6.555h-12.321v6.555h12.321Z"/>
    </g>
    <g>
      <rect x="1930.666" y="550.336" width="134.676" height="32.348" fill="none"/>
      <path d="M1952.971,569.227c0,7.16-5.777,13.004-12.938,13.004l-7.517.003-.004-25.948h7.495c7.159,0,12.963,5.781,12.963,12.94ZM1948.614,569.239c0-4.582-2.765-8.596-7.347-8.596h-4.694l.069,17.271h4.711c4.582,0,7.261-4.094,7.261-8.676Z"/>
      <path d="M1965.351,560.576v6.556l16.537.038v4.254l-16.529-.038v6.556l16.529.038v4.254l-20.438-.038v-4.254h.005v-6.556h-.005v-1.346h-.003v-13.682h.003v-.038h20.438v4.254h-16.537Z"/>
      <path d="M1994.39,560.57v6.553h16.328v15.111h-20.375l.002-4.297h16.327v-6.553h-16.329v-15.075h20.375v4.261h-16.328Z"/>
      <path d="M2039.614,560.301h-8.201v21.934h-4.009v-21.934h-8.202v-4.009h20.412v4.009Z"/>
    </g>
    <g>
      <rect x="617.799" y="554.309" width="214.867" height="32.348" fill="none"/>
      <path d="M640.06,564.274h-8.201v21.934h-4.009v-21.934h-8.202v-4.009h20.412v4.009Z"/>
      <path d="M664.625,581.828v-5.461h-7.185v-4.38h11.564l.004,14.221h-20.465v-25.938h20.465v4.261h-16.445v17.298h12.062Z"/>
      <path d="M697.891,564.274h-8.202v21.934h-4.008v-21.934h-8.202v-4.009h20.412v4.009Z"/>
    </g>
    <g>
      <rect x="1637.268" y="869.883" width="310.677" height="32.348" fill="none"/>
      <path d="M1659.534,884.756c0,1.513-.546,2.898-1.449,3.973.903,1.073,1.449,2.459,1.449,3.973v3.552c0,3.41-2.766,5.527-6.176,5.527h-10.234v.002h-4.01v-25.927h4.01v.003h10.234c3.41,0,6.176,2.765,6.176,6.175v2.723ZM1643.124,880.227v6.3h10.234c.127,0,.253.005.377.013,1.014-.151,1.79-1.025,1.79-2.08v-2.129c0-1.161-.941-2.104-2.103-2.104h-10.299ZM1655.525,895.956v-2.958c0-1.056-.778-1.93-1.792-2.08-.123.008-.248.013-.375.013h-10.234v6.481h10.299c1.161,0,2.103-.294,2.103-1.455h0Z"/>
      <path d="M1683.894,901.783l-2.378-7.894h-6.507l-2.383,7.894h-4.615l8.057-25.902h4.375l7.979,25.902h-4.528ZM1680.199,889.521l-1.933-6.418-1.938,6.418h3.871Z"/>
      <path d="M1746.906,890.937v-.049h-12.321v6.603h15.305v4.292h-17.566s-1.746,0-1.746,0v-15.11h3.169v-.017h13.16v-6.556h-14.968v-4.233h14.968v-.004h4.009v15.075h-4.009Z"/>
      <path d="M1780.819,890.937h-.002v10.845h-3.992s-14.971,0-14.971,0v-4.295h14.955v-6.601h-13.159v-4.233h13.159v-6.555h-14.968v-4.233h14.968v-.004h4.01v15.075Z"/>
      <path d="M1810.714,890.937v10.845h-3.994s-14.97,0-14.97,0v-4.295h14.954v-6.601h-13.158v-4.233h13.16v-6.555h-14.969v-4.233h14.969v-.004h4.008v15.075Z"/>
      <path d="M1825.409,874.893c2.085,0,3.775,1.688,3.775,3.769s-1.69,3.769-3.775,3.769-3.776-1.688-3.776-3.769,1.69-3.769,3.776-3.769ZM1823.463,878.662c0,1.068.873,1.938,1.946,1.938s1.945-.87,1.945-1.938-.873-1.938-1.945-1.938-1.946.87-1.946,1.938Z"/>
      <path d="M1843.567,901.783l-3.472-2.005,13.81-23.919,3.472,2.005-13.81,23.919Z"/>
      <path d="M1888.628,901.781l-20.339.002v-25.922l20.339-.002v25.922ZM1872.298,897.489h12.32v-17.391h-12.32v17.391Z"/>
      <path d="M1899.554,875.871h4.009v25.912h-4.009v-25.912Z"/>
      <path d="M1934.804,901.78h-16.33v.003h-4.009v-25.926h4.009v.007h14.969v4.255h-14.969v6.533h13.16v.018h3.17v15.11ZM1918.474,897.488h12.32v-6.603h-12.32v6.603Z"/>
    </g>
    <g>
      <rect x="1809.883" y="909.18" width="169.048" height="32.348" fill="none"/>
      <path d="M1832.188,928.072c0,7.16-5.777,13.004-12.938,13.004l-7.517.003-.004-25.948h7.495c7.16,0,12.963,5.781,12.963,12.94ZM1827.833,928.084c0-4.582-2.766-8.596-7.348-8.596h-4.693l.068,17.271h4.711c4.582,0,7.262-4.094,7.262-8.676Z"/>
      <path d="M1861.075,921.299v3.138c0,3.41-2.764,6.174-6.174,6.175h-10.229v10.468h-4.008v-25.955h14.235c3.41,0,6.175,2.764,6.175,6.175ZM1857.067,921.596c0-1.162-.941-2.103-2.104-2.103h-10.291v6.75h10.291c1.162,0,2.104-.941,2.104-2.103v-2.544Z"/>
      <path d="M1906.733,941.078h-20.338s0-25.92,0-25.92l20.338-.002v25.922ZM1890.404,936.786h12.321v-17.391h-12.321v17.391Z"/>
      <path d="M1935.557,941.077h-1.746s-14.583,0-14.583,0v.002h-4.01v-25.925h4.01v.006h14.968v4.255h-14.968v6.534h13.16v.017h3.169v15.11ZM1919.227,936.785h12.32v-6.603h-12.32v6.603Z"/>
    </g>
    <circle cx="1294.601" cy="1930.069" r="21.848" fill="none" stroke="#000" stroke-miterlimit="10" stroke-width="3"/>
    <line x1="1272.753" y1="1930.069" x2="1316.449" y2="1930.069" stroke="#000" stroke-miterlimit="10" stroke-width="3"/>
    <line x1="1294.601" y1="1951.917" x2="1294.601" y2="1908.222" stroke="#000" stroke-miterlimit="10" stroke-width="3"/>
    <polyline points="1189.796 1644.613 1294.601 1930.069 1401.623 1644.613" fill="none" stroke="#000" stroke-miterlimit="10" stroke-width="3"/>
    <line x1="1508.579" y1="1355.7" x2="1615.405" y2="1065.743" stroke="#000" stroke-miterlimit="10" stroke-width="3"/>
    <line x1="1724.579" y1="769.917" x2="1822.014" y2="510.482" stroke="#000" stroke-miterlimit="10" stroke-width="3"/>
    <line x1="775.927" y1="514.135" x2="882.753" y2="804.091" stroke="#000" stroke-miterlimit="10" stroke-width="3"/>
    <line x1="991.927" y1="1099.917" x2="1089.362" y2="1359.352" stroke="#000" stroke-miterlimit="10" stroke-width="3"/>
    <g>
      <circle cx="1053.883" cy="1749.874" r="15.999" fill="none" stroke="#000" stroke-miterlimit="10" stroke-width="3"/>
      <circle cx="1053.883" cy="1749.874" r="2.986" fill="none" stroke="#000" stroke-miterlimit="10" stroke-width="2"/>
      <line x1="1037.565" y1="1733.555" x2="1070.202" y2="1766.192" fill="none" stroke="#000" stroke-miterlimit="10" stroke-width="3"/>
    </g>
    <line x1="926.602" y1="986.957" x2="949.302" y2="1009.656" stroke="#000" stroke-miterlimit="10" stroke-width="3"/>
    <line x1="941.314" y1="972.245" x2="964.014" y2="994.945" stroke="#000" stroke-miterlimit="10" stroke-width="3"/>
    <circle cx="945.574" cy="990.685" r="3.936" stroke="#000" stroke-miterlimit="10" stroke-width="2"/>
    <g>
      <path d="M874.365,1139.138c-.349.349-25.836,25.836-25.836,25.836" stroke="#000" stroke-miterlimit="10" stroke-width="3"/>
      <path d="M848.529,1139.138c.698.698,26.069,26.069,26.069,26.069" stroke="#000" stroke-miterlimit="10" stroke-width="3"/>
    </g>
    <line x1="1126.873" y1="1284.663" x2="1149.573" y2="1307.362" stroke="#000" stroke-miterlimit="10" stroke-width="3"/>
    <line x1="1141.585" y1="1269.951" x2="1164.285" y2="1292.65" stroke="#000" stroke-miterlimit="10" stroke-width="3"/>
    <circle cx="1145.845" cy="1288.391" r="3.936" stroke="#000" stroke-miterlimit="10" stroke-width="2"/>
    <g>
      <rect x="647.534" y="1257.287" width="169.048" height="32.348" fill="none"/>
      <path d="M649.382,1277.567v-4.368h12.318v4.368h-12.318Z"/>
      <path d="M690.515,1289.184l-20.339.002v-25.922l20.339-.002v25.922ZM674.185,1284.892h12.321v-17.391h-12.321v17.391Z"/>
      <path d="M698.999,1289.186v-4.262h3.975v4.262h-3.975Z"/>
      <path d="M731.769,1289.184l-20.338.002v-25.922l20.338-.002v25.922ZM715.439,1284.892h12.32v-17.391h-12.32v17.391Z"/>
      <path d="M760.592,1289.184l-20.339.002v-25.922l20.339-.002v25.922ZM744.262,1284.892h12.321v-17.391h-12.321v17.391Z"/>
    </g>
    <g>
      <rect x="676.88" y="1160.244" width="60.308" height="32.348" fill="none"/>
      <path d="M699.067,1192.142h-19.313v-4.292h15.305v-6.603h-12.321v.05h-4.009v-15.075h4.009v.004h14.969v4.233h-14.969v6.555h13.16v.018h3.17v15.11Z"/>
      <path d="M727.89,1192.139h-1.746s-14.583,0-14.583,0v.002h-4.009v-25.923h4.009v.004h12.32v-.006h4.009v25.922ZM711.561,1170.456v6.556h12.32v-6.556h-12.32ZM711.561,1187.848h12.32v-6.603h-12.32v6.603Z"/>
    </g>
    <g>
      <rect x="687.009" y="1347.157" width="60.308" height="32.348" fill="none"/>
      <path d="M709.195,1379.054h-20.339s0-25.92,0-25.92l20.339-.003v25.923ZM692.865,1374.762h12.321v-17.391h-12.321v17.391Z"/>
    </g>
    <g>
      <rect x="1662.898" y="1570.975" width="60.308" height="32.348" fill="none"/>
      <path d="M1685.163,1585.848c0,1.513-.545,2.898-1.449,3.973.904,1.073,1.449,2.459,1.449,3.973v3.552c0,3.41-2.765,5.526-6.175,5.527h-10.235s-4.009,0-4.009,0v-25.926h4.009v.002h10.235c3.41,0,6.175,2.766,6.175,6.176v2.723ZM1668.753,1581.319v6.299h10.235c.127,0,.253.006.377.014,1.013-.152,1.79-1.025,1.79-2.08v-2.129c0-1.162-.941-2.104-2.104-2.104h-10.299ZM1681.155,1597.048v-2.958c0-1.057-.778-1.93-1.792-2.08-.124.008-.249.012-.375.012h-10.235v6.482h10.299c1.162,0,2.104-.295,2.104-1.455h0Z"/>
      <path d="M1705.881,1593.395v9.479h-4.026v-9.586l-8.214-14.111,3.801-2.176,6.458,11.094,6.457-11.094,3.801,2.176-8.276,14.219Z"/>
    </g>
    <g>
      <rect x="775.536" y="1506.092" width="80.89" height="32.348" fill="none"/>
      <path d="M796.36,1527.144h-.002v10.846h-18.963v-4.295h14.955v-6.6h-13.159v-4.233h13.159v-6.556h-14.968v-4.233h14.968v-.004h4.01v15.075Z"/>
      <path d="M825.175,1537.989h-20.338s0-25.92,0-25.92l20.338-.003v25.923ZM808.845,1533.697h12.321v-17.391h-12.321v17.391Z"/>
      <path d="M853.997,1537.989h-20.338s0-25.92,0-25.92l20.338-.003v25.923ZM837.668,1533.697h12.321v-17.391h-12.321v17.391Z"/>
    </g>
    <g>
      <rect x="974.13" y="969.222" width="80.89" height="32.348" fill="none"/>
      <path d="M995.035,990.276h0v10.845h-4.008v-21.679h-15.048v-4.249h16.964v.008h2.093v15.075Z"/>
    </g>
    <g>
      <rect x="812.116" y="1131.651" width="101.942" height="32.348" fill="none"/>
      <path d="M834.303,1163.548l-20.339.002v-25.922l20.339-.002v25.922ZM817.974,1159.256h12.32v-17.391h-12.32v17.391Z"/>
      <path d="M893.29,1137.638h4.01v25.912h-4.01v-25.912Z"/>
    </g>
    <g>
      <rect x="1093.014" y="1273.266" width="109.101" height="32.348" fill="none"/>
      <path d="M1111.191,1294.319v-.049h-12.321v6.603h15.305v4.292h-17.567s-1.746,0-1.746,0v-15.11h3.17v-.017h13.16v-6.556h-14.969v-4.233h14.969v-.004h4.009v15.075h-4.009Z"/>
      <path d="M1190.518,1294.319v-.049h-12.321v6.603h15.305v4.292h-17.567s-1.746,0-1.746,0v-15.11h3.17v-.017h13.16v-6.556h-14.969v-4.233h14.969v-.004h4.009v15.075h-4.009Z"/>
    </g>
    <g>
      <rect x="1003.17" y="1732.915" width="109.101" height="32.348" fill="none"/>
      <path d="M1025.356,1764.813l-20.339.002v-25.922l20.339-.002v25.922ZM1009.026,1760.521h12.32v-17.391h-12.32v17.391Z"/>
      <path d="M1104.683,1764.812h-16.33v.003h-4.009v-25.926h4.009v.007h14.969v4.255h-14.969v6.533h13.16v.018h3.17v15.11ZM1088.352,1760.52h12.32v-6.603h-12.32v6.603Z"/>
    </g>
    <line x1="947.318" y1="1697.569" x2="1053.883" y2="1749.874" stroke="#000" stroke-miterlimit="10" stroke-width="4"/>
    <g>
      <line x1="1250.286" y1="1085.928" x2="1244.559" y2="1084.138" fill="none" stroke="#000" stroke-miterlimit="10" stroke-width="4"/>
      <line x1="1232.829" y1="1080.472" x2="957.165" y2="994.308" fill="none" stroke="#000" stroke-dasharray="12.29 12.29" stroke-miterlimit="10" stroke-width="4"/>
      <polyline points="951.3 992.475 945.574 990.685 942.805 996.008" fill="none" stroke="#000" stroke-miterlimit="10" stroke-width="4"/>
      <line x1="937.595" y1="1006.024" x2="867.258" y2="1141.239" fill="none" stroke="#000" stroke-dasharray="11.29 11.29" stroke-miterlimit="10" stroke-width="4"/>
      <polyline points="864.652 1146.247 861.884 1151.569 867.289 1154.174" fill="none" stroke="#000" stroke-miterlimit="10" stroke-width="4"/>
      <line x1="878.215" y1="1159.438" x2="1134.976" y2="1283.154" fill="none" stroke="#000" stroke-dasharray="12.128 12.128" stroke-miterlimit="10" stroke-width="4"/>
      <polyline points="1140.439 1285.786 1145.845 1288.391 1146.689 1294.331" fill="none" stroke="#000" stroke-miterlimit="10" stroke-width="4"/>
      <line x1="1148.399" y1="1306.36" x2="1253.575" y2="2046.136" fill="none" stroke="#000" stroke-dasharray="12.15 12.15" stroke-miterlimit="10" stroke-width="4"/>
      <line x1="1254.43" y1="2052.151" x2="1255.275" y2="2058.091" fill="none" stroke="#000" stroke-miterlimit="10" stroke-width="4"/>
    </g>
    <g>
      <line x1="2090.057" y1="1486.526" x2="2084.643" y2="1483.94" fill="none" stroke="#000" stroke-miterlimit="10" stroke-width="4"/>
      <line x1="2073.863" y1="1478.792" x2="1259.949" y2="1090.077" fill="none" stroke="#000" stroke-dasharray="11.947 11.947" stroke-miterlimit="10" stroke-width="4"/>
      <line x1="1254.559" y1="1087.503" x2="1249.144" y2="1084.917" fill="none" stroke="#000" stroke-miterlimit="10" stroke-width="4"/>
    </g>
    <g>
      <rect x="901.724" y="697.109" width="214.867" height="32.348" fill="none"/>
      <path d="M913.339,718.539h-5.758v10.468h-4.008v-25.955h14.235c3.41,0,6.175,2.764,6.175,6.175v3.138c0,3.357-2.68,6.087-6.018,6.17l6.047,10.473h-4.631s-6.043-10.469-6.043-10.469ZM907.581,707.42v6.75h10.291c1.162,0,2.104-.941,2.104-2.103v-2.544c0-1.162-.941-2.103-2.104-2.103h-10.291Z"/>
      <path d="M948.352,729.008l-2.378-7.893h-6.506l-2.384,7.893h-4.614l8.057-25.902h4.375l7.979,25.902h-4.528ZM944.657,716.746l-1.934-6.417-1.938,6.417h3.871Z"/>
      <path d="M997.177,718.162v10.845h-3.994s-14.97,0-14.97,0v-4.295h14.954v-6.6h-13.158v-4.233h13.16v-6.555h-14.969v-4.233h14.969v-.004h4.008v15.075Z"/>
      <path d="M1005.653,703.096h4.01v25.912h-4.01v-25.912Z"/>
      <path d="M1018.123,729.008v-4.261h3.975v4.261h-3.975Z"/>
      <path d="M1050.894,729.007h-1.746s-17.568,0-17.568,0v-4.292h15.305v-6.603h-12.32v.049h-4.009v-15.075h4.009v.004h14.969v4.233h-14.969v6.555h13.16v.017h3.17v15.11Z"/>
    </g>
    <g>
      <rect x="1446.928" y="693.457" width="214.867" height="32.348" fill="none"/>
      <path d="M1544.083,725.355h-4.01v-19.735l-6.127,6.186-6.264-6.186v19.735h-4.01v-25.943h4.01l6.264,6.208,6.127-6.208h4.01v25.943Z"/>
      <path d="M1572.987,708.329c0,1.513-.545,2.899-1.449,3.973.904,1.074,1.449,2.459,1.449,3.973v3.552c0,3.41-2.764,5.527-6.174,5.527h-10.236s-4.008.001-4.008.001v-25.927h4.008v.003h10.236c3.41,0,6.174,2.765,6.174,6.175v2.723ZM1556.577,703.8v6.299h10.236c.126,0,.252.005.377.013,1.012-.151,1.789-1.025,1.789-2.08v-2.129c0-1.161-.941-2.103-2.104-2.103h-10.299ZM1568.979,719.53v-2.958c0-1.056-.777-1.929-1.791-2.08-.125.007-.25.012-.375.012h-10.236v6.481h10.299c1.162,0,2.104-.294,2.104-1.455h0Z"/>
      <path d="M1598.3,699.443h4.009v25.912h-4.009v-25.912Z"/>
      <path d="M1631.106,725.355h-1.746s-17.566,0-17.566,0v-4.292h15.305v-6.603h-12.321v.049h-4.009v-15.075h4.009v.004h14.968v4.233h-14.968v6.555h13.16v.017h3.169v15.11Z"/>
      <path d="M1659.931,725.352h-1.746s-14.584,0-14.584,0v.002h-4.009v-25.925h4.009v.006h14.969v4.255h-14.969v6.534h13.16v.017h3.17v15.11ZM1643.601,721.061h12.32v-6.603h-12.32v6.603Z"/>
    </g>
    <g>
      <rect x="901.644" y="747.672" width="214.867" height="32.348" fill="none"/>
      <path d="M918.454,779.571h-14.962v-25.913h4.503v21.41h10.459v4.502Z"/>
      <path d="M947.325,757.637h-8.201v21.934h-4.01v-21.934h-8.201v-4.009h20.412v4.009Z"/>
      <path d="M991.7,768.726v10.845h-4.009v-15.11h0v-6.568h-15.049v-4.25h16.964v.008h2.093v15.075Z"/>
      <path d="M1019.227,768.726v10.845h-4.009v-15.11h0v-6.568h-15.049v-4.25h16.964v.008h2.093v15.075Z"/>
    </g>
    <g>
      <rect x="1402.927" y="744.02" width="258.788" height="32.348" fill="none"/>
      <path d="M1427.292,775.918l-2.379-7.893h-6.506l-2.383,7.893h-4.615l8.057-25.902h4.375l7.979,25.902h-4.527ZM1423.597,763.657l-1.933-6.417-1.938,6.417h3.871Z"/>
      <path d="M1455.267,775.918h-14.961v-25.913h4.502v21.41h10.459v4.502Z"/>
      <path d="M1507.757,756.233v8.696h8.361v2.22h-8.361v8.77h-2.369v-8.77h-8.362v-2.22h8.362v-8.696h2.369Z"/>
      <path d="M1540.55,765.073v-.049h-12.32v6.603h15.305v4.292h-17.568s-1.746,0-1.746,0v-15.11h3.17v-.017h13.16v-6.555h-14.969v-4.233h14.969v-.004h4.009v15.075h-4.009Z"/>
      <path d="M1569.372,765.073v-.049h-12.32v6.603h15.305v4.292h-17.567s-1.746,0-1.746,0v-15.11h3.169v-.017h13.16v-6.555h-14.968v-4.233h14.968v-.004h4.01v15.075h-4.01Z"/>
      <path d="M1602.204,775.917h-20.338s0-25.92,0-25.92l20.338-.002v25.922ZM1585.874,771.625h12.321v-17.391h-12.321v17.391Z"/>
      <path d="M1631.026,775.917h-20.338s0-25.92,0-25.92l20.338-.002v25.922ZM1614.697,771.625h12.321v-17.391h-12.321v17.391Z"/>
      <path d="M1655.841,765.073v-.049h-12.32v6.603h15.305v4.292h-17.568s-1.746,0-1.746,0v-15.11h3.17v-.017h13.16v-6.555h-14.969v-4.233h14.969v-.004h4.009v15.075h-4.009Z"/>
    </g>
    <polyline points="1221.623 1483.135 1221.623 1462.787 1263.623 1462.787 1263.623 1484.178" fill="none" stroke="#000" stroke-miterlimit="10" stroke-width="5"/>
    <line x1="1243.014" y1="1483.917" x2="1293.362" y2="1542.091" stroke="#000" stroke-miterlimit="10" stroke-width="5"/>
    <rect x="1238.261" y="1478.545" width="5.185" height="5.185" rx="2.592" ry="2.592" stroke="#000" stroke-miterlimit="10" stroke-width="5"/>
    <g>
      <rect x="1151.188" y="1466.439" width="66.261" height="40.696" fill="none"/>
      <path d="M1184.738,1488.159v-.053h-12.986v6.96h16.132v4.523h-20.357v-15.927h3.342v-.019h13.87v-6.909h-15.776v-4.462h15.776v-.004h4.226v15.89h-4.226Z" stroke="#000" stroke-miterlimit="10"/>
      <path d="M1211.258,1488.159v-.053h-12.986v6.96h16.132v4.523h-20.357v-15.927h3.342v-.019h13.87v-6.909h-15.776v-4.462h15.776v-.004h4.226v15.89h-4.226Z" stroke="#000" stroke-miterlimit="10"/>
    </g>
    <g>
      <rect x="1637.607" y="826.265" width="310.677" height="32.348" fill="none"/>
      <path d="M1659.873,841.138c0,1.513-.546,2.899-1.449,3.973.903,1.074,1.449,2.459,1.449,3.973v3.552c0,3.41-2.765,5.527-6.175,5.527h-10.235s-4.009.001-4.009.001v-25.927h4.009v.003h10.235c3.41,0,6.175,2.765,6.175,6.175v2.723ZM1643.463,836.609v6.299h10.235c.127,0,.252.005.377.013,1.013-.151,1.789-1.025,1.789-2.08v-2.129c0-1.161-.941-2.103-2.103-2.103h-10.299ZM1655.864,852.339v-2.958c0-1.056-.777-1.929-1.791-2.08-.124.007-.249.012-.375.012h-10.235v6.481h10.299c1.161,0,2.103-.294,2.103-1.455h0Z"/>
      <path d="M1688.763,836.231h-8.201v21.934h-4.01v-21.934h-8.201v-4.009h20.412v4.009Z"/>
      <path d="M1730.916,832.252h4.009v25.912h-4.009v-25.912Z"/>
      <path d="M1764.884,847.32h0v10.845h-4.009v-15.11h.002v-6.568h-15.049v-4.25h16.963v.008h2.094v15.075Z"/>
      <path d="M1796.138,847.32h-.002v10.845h-4.008v-10.865h-16.332v-15.066h4.012v10.803h12.32v-10.792h4.01v15.075Z"/>
      <path d="M1810.837,831.275c2.086,0,3.775,1.687,3.775,3.769s-1.689,3.768-3.775,3.768-3.775-1.687-3.775-3.768,1.689-3.769,3.775-3.769ZM1808.892,835.044c0,1.068.873,1.938,1.945,1.938s1.945-.87,1.945-1.938-.873-1.938-1.945-1.938-1.945.87-1.945,1.938Z"/>
      <path d="M1828.995,858.164l-3.471-2.004,13.809-23.919,3.473,2.004-13.811,23.919Z"/>
      <path d="M1874.056,858.163h-20.338s0-25.92,0-25.92l20.338-.002v25.922ZM1857.726,853.871h12.321v-17.391h-12.321v17.391Z"/>
      <path d="M1905.323,847.32h-.002v10.845h-4.008v-10.865h-16.332v-15.066h4.012v10.803h12.32v-10.792h4.01v15.075Z"/>
      <path d="M1936.585,858.162h-1.746s-14.583,0-14.583,0v.002h-4.009v-25.925h4.009v.006h14.968v4.255h-14.968v6.534h13.16v.017h3.169v15.11ZM1920.256,853.87h12.321v-6.603h-12.321v6.603Z"/>
    </g>
    <line x1="929.514" y1="974.635" x2="960.492" y2="1005.613" stroke="#000" stroke-miterlimit="10" stroke-width="3"/>
    <line x1="1230.692" y1="1081.476" x2="1253.392" y2="1104.176" stroke="#000" stroke-miterlimit="10" stroke-width="3"/>
    <line x1="1245.404" y1="1066.765" x2="1268.104" y2="1089.464" stroke="#000" stroke-miterlimit="10" stroke-width="3"/>
    <circle cx="1249.664" cy="1085.205" r="3.936" stroke="#000" stroke-miterlimit="10" stroke-width="2"/>
    <g>
      <rect x="1196.833" y="1066.884" width="109.101" height="32.348" fill="none"/>
      <path d="M1217.658,1087.937h0v10.845h-3.993s-14.97,0-14.97,0v-4.295h14.954v-6.6h-13.159v-4.233h13.16v-6.556h-14.969v-4.233h14.969v-.004h4.009v15.075Z"/>
      <path d="M1296.977,1098.783h-19.313v-4.292h15.305v-6.603h-14.236v-.007h-2.094v-15.019l20.339-.003v25.923ZM1292.968,1083.655v-6.555h-12.321v6.555h12.321Z"/>
    </g>
  </g>
</svg>