<?xml version="1.0" encoding="UTF-8"?>
<svg xmlns="http://www.w3.org/2000/svg" width="2565.563" height="2482.239" viewBox="0 0 2565.563 2482.239">
  <g id="b" data-name="ECMD_-_Light">
    <path d="M2356.084,1181.413l-4.696-118.957-7.826-118.956-19.757-192.957c-2.48-24.227-5.623-48.382-9.422-72.437l-8.643-54.714c-8.902-56.35-43.83-95.718-108.719-110.854l-62.415-11.733-64.957-10.435-204.261-29.739-208.957-21.13-198.783-11.739-151.32-2.112.277-.236-8.609.12-8.609-.12.277.236-151.32,2.112-198.783,11.739-208.957,21.13-204.261,29.739-64.957,10.435-62.415,11.733c-64.889,15.136-99.818,54.504-108.719,110.854l-8.643,54.714c-3.8,24.055-6.942,48.21-9.422,72.437l-19.757,192.957-7.826,118.956-4.696,118.957v65.739l.37,10.174-.37,10.174v65.739l4.696,118.957,7.826,118.956,19.757,192.957c2.48,24.227,5.623,48.382,9.422,72.437l8.643,54.714c8.902,56.35,43.83,95.718,108.719,110.854l62.415,11.733,64.957,10.435,204.261,29.739,208.957,21.13,198.783,11.739,151.32,2.111-.277.236,8.609-.12,8.609.12-.277-.236,151.32-2.111,198.783-11.739,208.957-21.13,204.261-29.739,64.957-10.435,62.415-11.733c64.889-15.136,99.817-54.504,108.719-110.854l8.643-54.714c3.8-24.055,6.942-48.21,9.422-72.437l19.757-192.957,7.826-118.956,4.696-118.957v-65.739l-.37-10.174.37-10.174v-65.739Z" fill="none" stroke="#000" stroke-miterlimit="10" stroke-width="9"/>
  </g>
  <g id="c" data-name="NAV_DEST_Steering_-_Light">
    <path d="M1575.115,730.747l-13.607,34.075c-.536,1.341-1.885,2.171-3.322,2.05-.328-.033-.64-.105-.933-.223-1-.399-1.758-1.271-1.989-2.364l-6.877-32.564-9.596,24.03c-.671,1.679-2.576,2.497-4.256,1.826s-2.497-2.576-1.826-4.256l13.607-34.075c.535-1.341,1.885-2.171,3.322-2.05,1.427.122,2.623,1.174,2.922,2.587l6.876,32.565,9.597-24.031c.671-1.679,2.577-2.496,4.257-1.826,1.68.672,2.496,2.576,1.825,4.256Z"/>
    <path d="M1837.886,1497.809c-.674,1.678-2.58,2.492-4.26,1.818-1.678-.673-2.492-2.579-1.819-4.257l9.124-22.743c.673-1.679,2.58-2.493,4.258-1.82l34.055,13.661c1.678.674,2.493,2.58,1.82,4.259l-9.124,22.743c-.673,1.678-2.58,2.492-4.259,1.818-1.679-.673-2.493-2.579-1.82-4.257l7.904-19.704-10.952-4.394-6.192,15.437c-.674,1.679-2.58,2.493-4.258,1.819-1.68-.673-2.494-2.579-1.82-4.258l6.192-15.437-10.948-4.393-7.904,19.704.004.002Z"/>
    <path d="M1111.167,1790.671c-1.124-2.751-1.115-5.771.034-8.515l.771-1.841c1.333-3.185,4.136-5.599,7.5-6.461l1.176-.269c2.277-.553,4.752-.367,6.92.541l6.682,2.797c2.008.841,3.718,2.248,4.945,4.068l1.744,2.616c1.004,1.511.592,3.54-.91,4.542-1.511,1.004-3.537.588-4.541-.909l-1.737-2.604c-.49-.736-1.219-1.333-2.034-1.675l-6.682-2.797c-.888-.371-1.909-.447-2.885-.207l-1.14.262c-1.3.33-2.453,1.324-2.997,2.623l-.771,1.841c-.473,1.128-.472,2.37-.01,3.504.461,1.134,1.337,2.018,2.462,2.488l8.121,3.399c2.74,1.147,4.873,3.297,6,6.04,1.123,2.755,1.112,5.778-.033,8.515l-1.039,2.48c-1.146,2.74-3.294,4.869-6.043,5.999-2.747,1.126-5.771,1.115-8.515-.034l-7.521-3.148c-2.036-.853-3.754-2.264-4.963-4.082l-1.729-2.608c-1-1.505-.585-3.541.918-4.539,1.504-.997,3.534-.603,4.537.922l1.73,2.605c.49.736,1.194,1.313,2.034,1.665l7.521,3.148c1.128.473,2.377.479,3.501.014,1.137-.465,2.021-1.345,2.492-2.469l1.039-2.48c.471-1.125.472-2.375.01-3.508-.458-1.128-1.34-2.009-2.468-2.481l-8.121-3.399c-2.736-1.146-4.865-3.293-5.995-6.043h-.004Z"/>
    <path d="M784.046,1042.099l28.378,11.384c.806.324,1.45.952,1.79,1.751l3.4,7.948c.716,1.662-.057,3.576-1.71,4.296l-4.929,2.126,2.093,4.942c.351.828.333,1.722.022,2.495-.312.777-.923,1.438-1.752,1.793l-7.952,3.398c-.797.344-1.701.352-2.507.027l-28.378-11.384c-1.679-.673-2.493-2.579-1.819-4.258.673-1.679,2.578-2.493,4.258-1.82l27.117,10.879,3.707-1.583-1.559-3.678-7.266-2.914c-1.678-.674-2.494-2.58-1.82-4.259s2.58-2.493,4.258-1.819l7.266,2.914,3.668-1.58-1.586-3.702-27.117-10.879c-1.68-.673-2.494-2.579-1.82-4.258.673-1.679,2.579-2.493,4.258-1.82Z"/>
    <g>
      <path d="M1243.92,701.002c2.135,1.882,3.411,4.479,3.588,7.305l.193,3.073c.246,3.931-1.39,7.779-4.373,10.3-2.017,1.734-4.546,2.753-7.291,2.926l-2.727.171c-2.479.155-9.939-.758-12.626-1.902l-1.533-.608c-1.68-.667-2.5-2.572-1.832-4.252.668-1.684,2.568-2.494,4.252-1.831l1.605.638c1.491.632,7.81,1.543,9.729,1.423l2.727-.171c1.307-.082,2.498-.561,3.451-1.376,1.448-1.23,2.201-3.011,2.082-4.907l-.193-3.073c-.067-1.082-.561-2.076-1.388-2.807l-.558-.491c-.662-.588-1.546-.894-2.421-.839l-6.45.405c-1.259.079-2.456-.576-3.069-1.684-.613-1.109-.532-2.465.207-3.494l8.681-12.095-12.979.814c-1.805.113-3.359-1.258-3.473-3.063-.114-1.805,1.257-3.36,3.062-3.474l19.868-1.247c1.26-.079,2.457.576,3.07,1.686.612,1.104.533,2.465-.207,3.493l-8.688,12.105c2.453-.045,4.886.849,6.735,2.48l.557.491v.004Z"/>
      <path d="M1281.416,698.649c2.135,1.881,3.41,4.479,3.587,7.305l.193,3.073c.246,3.931-1.39,7.779-4.373,10.3-2.016,1.734-4.546,2.753-7.291,2.926l-2.727.171c-2.479.156-9.938-.758-12.626-1.902l-1.533-.608c-1.681-.668-2.499-2.572-1.832-4.252.669-1.684,2.569-2.495,4.252-1.831l1.605.638c1.491.632,7.811,1.543,9.729,1.423l2.727-.171c1.308-.082,2.498-.561,3.45-1.377,1.449-1.229,2.203-3.011,2.084-4.907l-.193-3.073c-.067-1.082-.562-2.077-1.389-2.807l-.558-.491c-.662-.588-1.546-.894-2.42-.839l-6.45.405c-1.26.079-2.456-.576-3.069-1.685s-.532-2.465.207-3.494l8.679-12.096-12.977.814c-1.805.113-3.359-1.258-3.473-3.063-.114-1.805,1.257-3.36,3.062-3.474l19.868-1.247c1.261-.079,2.457.576,3.07,1.685.612,1.104.533,2.465-.207,3.494l-8.688,12.104c2.452-.045,4.885.849,6.735,2.48l.557.491v.005Z"/>
    </g>
    <g>
      <path d="M964.841,827.611c2.844.133,5.463,1.361,7.37,3.455l2.073,2.277c2.651,2.912,3.783,6.938,3.033,10.771-.488,2.614-1.824,4.992-3.857,6.844l-2.021,1.84c-1.836,1.672-8.227,5.626-11.039,6.415l-1.576.486c-1.729.53-3.559-.443-4.089-2.172-.532-1.732.442-3.553,2.171-4.089l1.651-.506c1.56-.44,7.059-3.683,8.479-4.977l2.021-1.84c.968-.881,1.598-2,1.831-3.233.359-1.865-.167-3.725-1.445-5.13l-2.074-2.277c-.73-.802-1.736-1.27-2.839-1.321l-.741-.034c-.885-.045-1.766.27-2.414.86l-4.778,4.352c-.933.85-2.276,1.087-3.448.606-1.172-.482-1.958-1.59-2.024-2.855l-.797-14.866-9.614,8.754c-1.337,1.218-3.408,1.121-4.625-.216-1.219-1.337-1.121-3.408.215-4.626l14.72-13.403c.934-.85,2.278-1.087,3.448-.606,1.17.479,1.959,1.589,2.025,2.854l.797,14.879c1.885-1.569,4.342-2.394,6.805-2.279l.742.035.002.003Z"/>
      <path d="M986.817,791.304l18.046,19.818c3.069,3.371,2.594,8.813-1.06,12.14l-9.717,8.848c-3.713,3.381-9.065,3.345-12.184-.08l-18.047-19.818c-3.068-3.37-2.594-8.813,1.059-12.139l9.717-8.848c3.652-3.326,9.116-3.292,12.186.079ZM981.975,795.714c-.636-.699-1.954-.543-2.937.351l-9.717,8.848c-1.02.928-1.169,2.291-.623,2.891l18.047,19.818c.637.699,1.955.543,2.936-.351l9.717-8.848c1.02-.929,1.17-2.291.623-2.891l-18.046-19.818Z"/>
    </g>
    <path d="M1802.628,935.827c-.133,2.843-1.361,5.463-3.455,7.37l-2.276,2.072c-2.912,2.652-6.938,3.783-10.771,3.033-2.614-.486-4.992-1.824-6.844-3.857l-1.84-2.021c-1.674-1.837-5.627-8.227-6.416-11.039l-.485-1.575c-.53-1.729.443-3.56,2.172-4.09,1.731-.533,3.553.443,4.089,2.172l.506,1.65c.44,1.559,3.683,7.059,4.977,8.479l1.84,2.021c.881.968,2,1.598,3.232,1.83,1.865.361,3.727-.166,5.131-1.445l2.277-2.072c.801-.73,1.269-1.738,1.32-2.84l.035-.742c.045-.885-.271-1.766-.861-2.413l-4.351-4.778c-.85-.934-1.087-2.276-.606-3.449.482-1.172,1.59-1.957,2.855-2.023l14.865-.797-8.754-9.614c-1.218-1.337-1.121-3.407.216-4.626,1.337-1.217,3.409-1.121,4.626.217l13.403,14.719c.851.934,1.088,2.277.606,3.449-.479,1.168-1.59,1.958-2.854,2.024l-14.879.796c1.569,1.885,2.395,4.342,2.28,6.806l-.035.741-.004.003Z"/>
    <path d="M1907.686,1200.152c1.174,9.382-3.615,16.385-11.917,17.423-8.177,1.022-14.69-4.715-15.845-13.95-1.15-9.192,3.557-15.809,11.991-16.863.198-.025.376,0,.57-.021.089-.019.157-.07.247-.082,4.467-.559,14.064,2.293,20.77,5.37,4.497,2.06,6.425,3.563,8.125,4.885,1.428,1.111,1.752,3.221.642,4.649-1.11,1.428-3.104,1.739-4.528.628l-.136-.106c-1.555-1.213-3.026-2.353-6.833-4.102-1.317-.608-2.643-1.143-3.955-1.638.385,1.188.703,2.438.874,3.807h-.005ZM1894.962,1211.076c6.661-.833,6.576-7.349,6.23-10.111-.492-3.938-2.361-8.469-8.459-7.706-4.765.596-7.002,3.987-6.307,9.553.709,5.668,3.977,8.835,8.535,8.265Z"/>
    <g>
      <path d="M1678.985,1699.397c-1.457.908-3.375.572-4.386-.844-1.051-1.471-.71-3.516.763-4.566l4.977-3.554c1.473-1.052,3.517-.71,4.567.762,1.003,1.405.706,3.302-.596,4.39l17.062,23.897c.578-.108,1.184-.099,1.772.13,1.685.652,2.528,2.549,1.878,4.234l-.824,2.133c-.033.094-.111.155-.155.244-.095.196-.211.369-.345.546-.141.186-.283.345-.456.49-.072.063-.112.149-.192.208-.088.062-.193.072-.286.129-.196.113-.397.203-.614.273-.201.062-.392.109-.592.135-.204.027-.403.032-.615.018-.229-.012-.439-.054-.656-.112-.107-.03-.213-.013-.317-.056-.094-.034-.155-.113-.244-.156-.196-.094-.372-.215-.549-.35-.179-.139-.337-.28-.48-.449-.065-.076-.151-.115-.21-.197l-19.494-27.303-.006-.002Z"/>
      <path d="M1648.606,1721.158c-1.473,1.051-3.518.709-4.568-.763-1.051-1.473-.71-3.517.763-4.567l19.942-14.239c.367-.262.775-.436,1.189-.528.026-.009.055.003.083,0,.405-.083.817-.088,1.216-.016.019.003.035-.004.053,0,.166.03.297.13.447.187.236.083.474.146.684.284.213.143.373.33.549.515.114.116.252.188.347.322.011.015.014.033.024.048.152.221.234.477.328.729.053.149.148.288.182.44.031.143.004.296.014.443.021.277.049.557,0,.83-.003.019.002.054.002.054l-5.023,25.062c-.754,3.795-.338,7.026,1.139,8.865,1.032,1.288,2.613,1.934,4.819,1.979,1.482.024,3.139-.583,4.77-1.747,3.145-2.245,5.222-4.538,5.153-8.438-.036-1.813,1.403-3.299,3.216-3.336,1.806-.031,3.297,1.409,3.331,3.218.143,8.142-5.698,12.312-7.897,13.883-2.779,1.983-5.782,3.009-8.688,2.969-5.258-.11-8.235-2.466-9.812-4.427-2.731-3.4-3.604-8.458-2.452-14.252l3.395-16.95-13.205,9.429.002.009Z"/>
    </g>
    <g>
      <path d="M1420.467,1811.559c-1.716.049-3.202-1.21-3.359-2.942-.164-1.801,1.163-3.394,2.964-3.558l6.09-.555c1.801-.164,3.394,1.162,3.558,2.963.156,1.72-1.058,3.207-2.73,3.489l2.664,29.241c.554.197,1.07.513,1.464,1.008,1.126,1.412.896,3.477-.518,4.603l-1.786,1.425c-.076.064-.176.078-.258.133-.181.121-.368.213-.573.297-.215.09-.418.155-.641.193-.095.018-.172.072-.271.082-.108.01-.203-.035-.312-.033-.227-.002-.446-.025-.669-.074-.205-.047-.393-.104-.579-.184-.19-.078-.364-.175-.54-.294-.191-.126-.352-.269-.509-.429-.077-.079-.178-.119-.247-.208-.062-.077-.076-.176-.132-.258-.121-.181-.212-.372-.297-.578-.084-.21-.15-.413-.188-.632-.018-.099-.073-.176-.082-.276l-3.044-33.408-.005-.005Z"/>
      <path d="M1384.252,1831.752c-2.656-2.576-2.834-5.238-2.972-7.381l-.073-.982c-.363-3.99.575-7.651,2.572-10.055,1.713-2.05,4.178-3.664,6.766-4.432,1.992-.59,12.931-2.132,16.239-2.586.052-.005.104-.01.155-.014,1.731-.158,3.299,1.076,3.54,2.813.246,1.789-1.002,3.44-2.795,3.69-6.641.922-14.172,2.062-15.278,2.381-1.34.4-2.717,1.297-3.592,2.348-.653.783-1.324,2.63-1.084,5.269l.087,1.146c.122,1.813.186,2.317.988,3.098.906.871,1.602.99,3.219.913l16.749-1.526c1.793-.163,3.38,1.146,3.557,2.938l1.629,16.448c.083.872-.177,1.736-.734,2.41-.557.673-1.359,1.095-2.227,1.174l-22.374,2.038c-1.801.164-3.395-1.162-3.559-2.963s1.163-3.395,2.964-3.559l19.087-1.739-.983-9.931-13.653,1.244c-2.727.131-5.493-.115-8.223-2.74l-.005-.004Z"/>
    </g>
    <g>
      <path d="M897.24,1617.43c-1.071-1.459-.757-3.508.7-4.578,1.458-1.07,3.508-.758,4.578.7l14.508,19.748c.267.363.446.77.545,1.182.008.026-.002.057.002.084.088.405.1.815.031,1.216-.002.018.004.034.002.053-.028.166-.126.297-.181.45-.079.235-.141.475-.276.687-.138.215-.324.379-.506.556-.115.116-.186.255-.317.353-.015.01-.033.014-.048.023-.219.154-.475.24-.725.339-.148.054-.287.151-.438.187-.143.033-.297.008-.444.02-.277.025-.555.057-.831.013-.018-.003-.052,0-.052,0l-25.128-4.682c-3.805-.703-7.03-.244-8.848,1.258-1.275,1.049-1.899,2.639-1.914,4.846-.004,1.482.625,3.129,1.812,4.744,2.288,3.115,4.608,5.16,8.508,5.041,1.812-.062,3.317,1.356,3.378,3.17.057,1.804-1.363,3.314-3.172,3.373-8.139.254-12.389-5.531-13.988-7.709-2.021-2.751-3.087-5.74-3.086-8.647.038-5.259,2.354-8.267,4.293-9.87,3.363-2.777,8.408-3.717,14.217-2.646l16.996,3.165-9.607-13.076-.009.002Z"/>
      <path d="M885.815,1601.782c-.927-1.445-.617-3.367.784-4.396,1.458-1.07,3.507-.758,4.577.7l3.621,4.929c1.07,1.457.757,3.506-.701,4.577-1.391,1.022-3.291.749-4.397-.537l-23.663,17.384c.116.576.113,1.182-.107,1.774-.627,1.693-2.514,2.562-4.207,1.934l-2.145-.794c-.094-.031-.156-.109-.246-.15-.197-.094-.372-.207-.551-.339-.187-.138-.349-.277-.496-.448-.062-.072-.15-.111-.209-.191-.064-.086-.076-.19-.133-.283-.117-.195-.21-.396-.283-.611-.065-.199-.113-.39-.142-.59-.031-.203-.038-.403-.026-.615.01-.229.047-.439.104-.658.027-.105.01-.211.051-.316.033-.096.111-.157.152-.246.092-.198.21-.375.342-.554.137-.181.276-.343.444-.487.075-.066.113-.153.194-.213l27.035-19.861.002-.006Z"/>
    </g>
    <g>
      <path d="M781.413,1366.791c-.188-1.799,1.117-3.41,2.915-3.599,1.799-.189,3.41,1.116,3.599,2.915l2.561,24.369c.047.449-.004.89-.126,1.295-.006.027-.03.048-.04.075-.129.394-.326.754-.586,1.064-.012.014-.015.032-.026.046-.108.129-.259.193-.383.297-.188.165-.361.34-.585.454-.228.116-.471.163-.718.224-.157.043-.288.127-.451.145-.018.002-.035-.005-.053-.004-.269.023-.531-.031-.797-.072-.156-.028-.325-.015-.474-.061-.139-.042-.259-.143-.392-.206-.253-.118-.509-.231-.724-.408-.014-.013-.047-.025-.047-.025l-19.33-16.724c-2.93-2.525-5.946-3.757-8.275-3.377-1.629.262-2.97,1.318-4.096,3.217-.752,1.278-1.04,3.018-.83,5.011.403,3.843,1.374,6.779,4.801,8.644,1.596.861,2.179,2.847,1.318,4.441-.863,1.587-2.852,2.175-4.441,1.312-7.155-3.888-7.904-11.026-8.188-13.714-.356-3.396.232-6.515,1.699-9.023,2.688-4.521,6.205-5.949,8.688-6.355,4.305-.7,9.135,1.034,13.609,4.891l13.076,11.309-1.695-16.137-.01-.003Z"/>
      <path d="M760.897,1331.887c.209-1.453,1.375-2.631,2.898-2.791,1.522-.16,2.909.75,3.416,2.128l13.621-1.431c1.799-.189,3.409,1.115,3.598,2.914.189,1.799-1.115,3.409-2.914,3.599l-13.525,1.42,1.801,17.146c.133,1.273-.479,2.506-1.579,3.158-1.1.656-2.479.608-3.531-.113l-21.574-14.828c-.79-.541-1.304-1.403-1.403-2.357l-.367-3.493c-.189-1.799,1.117-3.409,2.915-3.599l16.637-1.747.009-.005ZM749.673,1339.655l12.863,8.841-1.059-10.081-11.805,1.24Z"/>
    </g>
    <line x1="1538.189" y1="780.203" x2="1546.251" y2="759.426" fill="none" stroke="#000" stroke-linecap="round" stroke-miterlimit="10" stroke-width="6"/>
    <line x1="1560.918" y1="726.878" x2="1568.98" y2="706.102" fill="none" stroke="#000" stroke-linecap="round" stroke-miterlimit="10" stroke-width="6"/>
    <line x1="1591.084" y1="780.326" x2="1620.432" y2="724.37" fill="none" stroke="#000" stroke-linecap="round" stroke-miterlimit="10" stroke-width="6"/>
    <line x1="1621.215" y1="823.761" x2="1667.78" y2="751.37" fill="none" stroke="#000" stroke-linecap="round" stroke-miterlimit="10" stroke-width="6"/>
    <line x1="1674.041" y1="833.152" x2="1712.78" y2="783.065" fill="none" stroke="#000" stroke-linecap="round" stroke-miterlimit="10" stroke-width="6"/>
    <line x1="1695.563" y1="881.283" x2="1753.867" y2="818.674" fill="none" stroke="#000" stroke-linecap="round" stroke-miterlimit="10" stroke-width="6"/>
    <line x1="1746.041" y1="900.065" x2="1792.606" y2="856.63" fill="none" stroke="#000" stroke-linecap="round" stroke-miterlimit="10" stroke-width="6"/>
    <path d="M1811.718,910.982c8.722-6.598,14.931-11.308,14.931-11.308" fill="none" stroke="#000" stroke-linecap="round" stroke-miterlimit="10" stroke-width="6"/>
    <path d="M1756.606,952.109c.606-.242,7.551-5.361,16.852-12.313" fill="none" stroke="#000" stroke-linecap="round" stroke-miterlimit="10" stroke-width="6"/>
    <line x1="1803.563" y1="977.543" x2="1856.78" y2="943.109" fill="none" stroke="#000" stroke-linecap="round" stroke-miterlimit="10" stroke-width="6"/>
    <line x1="1807.476" y1="1029.978" x2="1882.606" y2="990.848" fill="none" stroke="#000" stroke-linecap="round" stroke-miterlimit="10" stroke-width="6"/>
    <line x1="1847.389" y1="1064.022" x2="1904.519" y2="1040.152" fill="none" stroke="#000" stroke-linecap="round" stroke-miterlimit="10" stroke-width="6"/>
    <line x1="1842.302" y1="1117.239" x2="1922.128" y2="1090.63" fill="none" stroke="#000" stroke-linecap="round" stroke-miterlimit="10" stroke-width="6"/>
    <line x1="1875.563" y1="1156.37" x2="1936.215" y2="1141.891" fill="none" stroke="#000" stroke-linecap="round" stroke-miterlimit="10" stroke-width="6"/>
    <line x1="1925.307" y1="1197.814" x2="1943.649" y2="1195.109" fill="none" stroke="#000" stroke-linecap="round" stroke-miterlimit="10" stroke-width="6"/>
    <line x1="1858.736" y1="1207.63" x2="1877.898" y2="1204.805" fill="none" stroke="#000" stroke-linecap="round" stroke-miterlimit="10" stroke-width="6"/>
    <line x1="1947.302" y1="1247.935" x2="1885.476" y2="1250.543" fill="none" stroke="#000" stroke-linecap="round" stroke-miterlimit="10" stroke-width="6"/>
    <line x1="1944.954" y1="1300.109" x2="1862.519" y2="1298.283" fill="none" stroke="#000" stroke-linecap="round" stroke-miterlimit="10" stroke-width="6"/>
    <path d="M1940.519,1353.326c-1.043,0-60.261-6.783-60.261-6.783" fill="none" stroke="#000" stroke-linecap="round" stroke-miterlimit="10" stroke-width="6"/>
    <line x1="1929.823" y1="1405.761" x2="1848.432" y2="1388.543" fill="none" stroke="#000" stroke-linecap="round" stroke-miterlimit="10" stroke-width="6"/>
    <path d="M1913.91,1456.63c-.783,0-57.913-18.261-57.913-18.261" fill="none" stroke="#000" stroke-linecap="round" stroke-miterlimit="10" stroke-width="6"/>
    <line x1="1499.91" y1="741.587" x2="1519.476" y2="682.5" fill="none" stroke="#000" stroke-linecap="round" stroke-miterlimit="10" stroke-width="6"/>
    <path d="M1447.476,751.37c1.174-2.348,18.391-82.957,18.391-82.957" fill="none" stroke="#000" stroke-linecap="round" stroke-miterlimit="10" stroke-width="6"/>
    <path d="M1403.258,720.065c.783-1.957,8.609-61.435,8.609-61.435" fill="none" stroke="#000" stroke-linecap="round" stroke-miterlimit="10" stroke-width="6"/>
    <path d="M1353.171,740.022c-.391-1.565,2.739-86.87,2.739-86.87" fill="none" stroke="#000" stroke-linecap="round" stroke-miterlimit="10" stroke-width="6"/>
    <line x1="1112.84" y1="763.758" x2="1087.381" y2="705.928" fill="none" stroke="#000" stroke-linecap="round" stroke-miterlimit="10" stroke-width="6"/>
    <line x1="1079.814" y1="805.034" x2="1038.3" y2="729.632" fill="none" stroke="#000" stroke-linecap="round" stroke-miterlimit="10" stroke-width="6"/>
    <line x1="1026.47" y1="810.796" x2="991.241" y2="758.181" fill="none" stroke="#000" stroke-linecap="round" stroke-miterlimit="10" stroke-width="6"/>
    <line x1="956.603" y1="801.731" x2="947.819" y2="790.902" fill="none" stroke="#000" stroke-linecap="round" stroke-miterlimit="10" stroke-width="6"/>
    <line x1="1001.712" y1="857.345" x2="988.839" y2="841.474" fill="none" stroke="#000" stroke-linecap="round" stroke-miterlimit="10" stroke-width="6"/>
    <line x1="950.07" y1="872.637" x2="906.579" y2="826.125" fill="none" stroke="#000" stroke-linecap="round" stroke-miterlimit="10" stroke-width="6"/>
    <line x1="883.87" y1="944.834" x2="833.128" y2="906.846" fill="none" stroke="#000" stroke-linecap="round" stroke-miterlimit="10" stroke-width="6"/>
    <line x1="876.778" y1="997.661" x2="804.494" y2="953.493" fill="none" stroke="#000" stroke-linecap="round" stroke-miterlimit="10" stroke-width="6"/>
    <line x1="833.459" y1="1028.509" x2="778.092" y2="1000.794" fill="none" stroke="#000" stroke-linecap="round" stroke-miterlimit="10" stroke-width="6"/>
    <line x1="773.533" y1="1055.731" x2="761.382" y2="1050.735" fill="none" stroke="#000" stroke-linecap="round" stroke-miterlimit="10" stroke-width="6"/>
    <line x1="839.205" y1="1082.732" x2="819.676" y2="1074.703" fill="none" stroke="#000" stroke-linecap="round" stroke-miterlimit="10" stroke-width="6"/>
    <line x1="799.829" y1="1119.109" x2="740.307" y2="1100.523" fill="none" stroke="#000" stroke-linecap="round" stroke-miterlimit="10" stroke-width="6"/>
    <line x1="720.049" y1="1206.345" x2="781.552" y2="1213.169" fill="none" stroke="#000" stroke-linecap="round" stroke-miterlimit="10" stroke-width="6"/>
    <line x1="717.655" y1="1258.949" x2="800.022" y2="1262.755" fill="none" stroke="#000" stroke-linecap="round" stroke-miterlimit="10" stroke-width="6"/>
    <path d="M718.446,1312.345c1.041.071,60.583-2.652,60.583-2.652" fill="none" stroke="#000" stroke-linecap="round" stroke-miterlimit="10" stroke-width="6"/>
    <line x1="793.515" y1="1355.954" x2="814.565" y2="1352.985" fill="none" stroke="#000" stroke-linecap="round" stroke-miterlimit="10" stroke-width="6"/>
    <line x1="725.145" y1="1365.779" x2="741.521" y2="1363.469" fill="none" stroke="#000" stroke-linecap="round" stroke-miterlimit="10" stroke-width="6"/>
    <path d="M737.156,1417.616c.781.053,59.025-14.264,59.025-14.264" fill="none" stroke="#000" stroke-linecap="round" stroke-miterlimit="10" stroke-width="6"/>
    <line x1="1206.446" y1="731.334" x2="1190.961" y2="671.049" fill="none" stroke="#000" stroke-linecap="round" stroke-miterlimit="10" stroke-width="6"/>
    <path d="M1247.252,673.482c-1.113-7.71-1.845-12.827-1.845-12.827" fill="none" stroke="#000" stroke-linecap="round" stroke-miterlimit="10" stroke-width="6"/>
    <path d="M1258.091,744.674c-.297-.712-1.515-8.261-3.087-18.568" fill="none" stroke="#000" stroke-linecap="round" stroke-miterlimit="10" stroke-width="6"/>
    <path d="M1304.342,716.462c-.647-2.005-4.394-61.879-4.394-61.879" fill="none" stroke="#000" stroke-linecap="round" stroke-miterlimit="10" stroke-width="6"/>
    <path d="M1352.95,739.791c.497-1.535,3.198-86.854,3.198-86.854" fill="none" stroke="#000" stroke-linecap="round" stroke-miterlimit="10" stroke-width="6"/>
    <line x1="864.432" y1="862.5" x2="929.389" y2="919.63" fill="none" stroke="#000" stroke-linecap="round" stroke-miterlimit="10" stroke-width="6"/>
    <line x1="722.389" y1="1151.283" x2="806.128" y2="1168.891" fill="none" stroke="#000" stroke-linecap="round" stroke-miterlimit="10" stroke-width="6"/>
    <line x1="1137.823" y1="684.196" x2="1165.476" y2="765.587" fill="none" stroke="#000" stroke-linecap="round" stroke-miterlimit="10" stroke-width="6"/>
    <line x1="748.084" y1="1468.37" x2="826.345" y2="1443.326" fill="none" stroke="#000" stroke-linecap="round" stroke-miterlimit="10" stroke-width="6"/>
    <line x1="768.432" y1="1517.413" x2="822.693" y2="1494.457" fill="none" stroke="#000" stroke-linecap="round" stroke-miterlimit="10" stroke-width="6"/>
    <line x1="791.91" y1="1564.37" x2="863.91" y2="1526.283" fill="none" stroke="#000" stroke-linecap="round" stroke-miterlimit="10" stroke-width="6"/>
    <line x1="820.084" y1="1609.761" x2="870.693" y2="1576.891" fill="none" stroke="#000" stroke-linecap="round" stroke-miterlimit="10" stroke-width="6"/>
    <line x1="905.598" y1="1609.007" x2="917.649" y2="1599.848" fill="none" stroke="#000" stroke-linecap="round" stroke-miterlimit="10" stroke-width="6"/>
    <line x1="852.432" y1="1649.413" x2="864.893" y2="1639.942" fill="none" stroke="#000" stroke-linecap="round" stroke-miterlimit="10" stroke-width="6"/>
    <line x1="886.867" y1="1691.152" x2="930.693" y2="1649.935" fill="none" stroke="#000" stroke-linecap="round" stroke-miterlimit="10" stroke-width="6"/>
    <path d="M925.476,1726.63c1.565-1.565,54.783-60.522,54.783-60.522" fill="none" stroke="#000" stroke-linecap="round" stroke-miterlimit="10" stroke-width="6"/>
    <line x1="966.693" y1="1757.935" x2="1002.171" y2="1711.5" fill="none" stroke="#000" stroke-linecap="round" stroke-miterlimit="10" stroke-width="6"/>
    <path d="M1011.041,1786.63c1.565-2.087,43.304-67.304,43.304-67.304" fill="none" stroke="#000" stroke-linecap="round" stroke-miterlimit="10" stroke-width="6"/>
    <line x1="1057.997" y1="1811.674" x2="1083.563" y2="1760.543" fill="none" stroke="#000" stroke-linecap="round" stroke-miterlimit="10" stroke-width="6"/>
    <line x1="1130.933" y1="1769.677" x2="1229.128" y2="1529.413" fill="none" stroke="#000" stroke-linecap="round" stroke-miterlimit="10" stroke-width="6"/>
    <line x1="1106.519" y1="1829.413" x2="1110.995" y2="1818.462" fill="none" stroke="#000" stroke-linecap="round" stroke-miterlimit="10" stroke-width="6"/>
    <line x1="1155.563" y1="1850.283" x2="1172.78" y2="1793.413" fill="none" stroke="#000" stroke-linecap="round" stroke-miterlimit="10" stroke-width="6"/>
    <line x1="1206.171" y1="1859.152" x2="1222.345" y2="1785.587" fill="none" stroke="#000" stroke-linecap="round" stroke-miterlimit="10" stroke-width="6"/>
    <line x1="1257.823" y1="1869.587" x2="1264.084" y2="1812.196" fill="none" stroke="#000" stroke-linecap="round" stroke-miterlimit="10" stroke-width="6"/>
    <line x1="1309.997" y1="1872.196" x2="1312.084" y2="1795.5" fill="none" stroke="#000" stroke-linecap="round" stroke-miterlimit="10" stroke-width="6"/>
    <line x1="1362.171" y1="1872.717" x2="1360.084" y2="1815.848" fill="none" stroke="#000" stroke-linecap="round" stroke-miterlimit="10" stroke-width="6"/>
    <line x1="1406.122" y1="1802.91" x2="1404.432" y2="1788.196" fill="none" stroke="#000" stroke-linecap="round" stroke-miterlimit="10" stroke-width="6"/>
    <line x1="1413.302" y1="1865.413" x2="1411.757" y2="1851.965" fill="none" stroke="#000" stroke-linecap="round" stroke-miterlimit="10" stroke-width="6"/>
    <line x1="1466.519" y1="1858.109" x2="1453.997" y2="1802.283" fill="none" stroke="#000" stroke-linecap="round" stroke-miterlimit="10" stroke-width="6"/>
    <line x1="1516.606" y1="1844.022" x2="1492.084" y2="1770.457" fill="none" stroke="#000" stroke-linecap="round" stroke-miterlimit="10" stroke-width="6"/>
    <line x1="1566.171" y1="1826.283" x2="1543.215" y2="1774.109" fill="none" stroke="#000" stroke-linecap="round" stroke-miterlimit="10" stroke-width="6"/>
    <line x1="1613.128" y1="1802.804" x2="1576.084" y2="1736.022" fill="none" stroke="#000" stroke-linecap="round" stroke-miterlimit="10" stroke-width="6"/>
    <line x1="1658.519" y1="1779.326" x2="1627.215" y2="1731.326" fill="none" stroke="#000" stroke-linecap="round" stroke-miterlimit="10" stroke-width="6"/>
    <line x1="1662.249" y1="1697.872" x2="1651.736" y2="1684.891" fill="none" stroke="#000" stroke-linecap="round" stroke-miterlimit="10" stroke-width="6"/>
    <line x1="1702.867" y1="1748.022" x2="1692.864" y2="1735.672" fill="none" stroke="#000" stroke-linecap="round" stroke-miterlimit="10" stroke-width="6"/>
    <line x1="1741.476" y1="1714.109" x2="1702.345" y2="1672.891" fill="none" stroke="#000" stroke-linecap="round" stroke-miterlimit="10" stroke-width="6"/>
    <line x1="1779.563" y1="1678.109" x2="1720.606" y2="1625.935" fill="none" stroke="#000" stroke-linecap="round" stroke-miterlimit="10" stroke-width="6"/>
    <line x1="1813.476" y1="1639.5" x2="1767.041" y2="1604.543" fill="none" stroke="#000" stroke-linecap="round" stroke-miterlimit="10" stroke-width="6"/>
    <line x1="1846.867" y1="1596.717" x2="1776.954" y2="1554.457" fill="none" stroke="#000" stroke-linecap="round" stroke-miterlimit="10" stroke-width="6"/>
    <line x1="1871.91" y1="1551.326" x2="1818.171" y2="1524.717" fill="none" stroke="#000" stroke-linecap="round" stroke-miterlimit="10" stroke-width="6"/>
    <line x1="1831.934" y1="1478.828" x2="1818.693" y2="1473.587" fill="none" stroke="#000" stroke-linecap="round" stroke-miterlimit="10" stroke-width="6"/>
    <line x1="1893.823" y1="1503.326" x2="1880.132" y2="1497.906" fill="none" stroke="#000" stroke-linecap="round" stroke-miterlimit="10" stroke-width="6"/>
    <rect x="1508.145" y="702.78" width="90.267" height="90.267" rx="15.665" ry="15.665" transform="translate(1536.672 -975.969) rotate(63.737)" fill="none" stroke="#000" stroke-linecap="round" stroke-miterlimit="10" stroke-width="6"/>
    <path d="M1324.377,567.922l-28.412,43.74c-1.597,2.458.167,5.707,3.098,5.707h56.824c2.931,0,4.695-3.249,3.098-5.707l-28.412-43.74c-1.457-2.243-4.74-2.243-6.197,0Z" fill="none" stroke="#000" stroke-linecap="round" stroke-miterlimit="10" stroke-width="6"/>
    <rect x="1069.473" y="1759.106" width="90.267" height="90.267" rx="15.665" ry="15.665" transform="translate(2422.652 134.916) rotate(69.788)" fill="none" stroke="#000" stroke-linecap="round" stroke-miterlimit="10" stroke-width="6"/>
    <line x1="1336.606" y1="1897.239" x2="1336.606" y2="1958.804" fill="none" stroke="#000" stroke-linecap="round" stroke-miterlimit="10" stroke-width="6"/>
    <line x1="1369.476" y1="1929.065" x2="1306.345" y2="1929.065" fill="none" stroke="#000" stroke-linecap="round" stroke-miterlimit="10" stroke-width="6"/>
    <line x1="1434.171" y1="1034.283" x2="1532.14" y2="792.665" fill="none" stroke="#000" stroke-linecap="round" stroke-miterlimit="10" stroke-width="6"/>
    <path d="M1531.703,834.893c.128.047.264-.047.265-.184l.278-43.437c.001-.184-.229-.269-.348-.128l-27.967,33.237c-.088.104-.045.264.083.312" fill="none" stroke="#000" stroke-linecap="round" stroke-miterlimit="10" stroke-width="6"/>
    <path d="M1558.951,615.833l13.752,70.721c.49,2.519,3.334,3.783,5.533,2.46l61.721-37.163" fill="none" stroke="#000" stroke-linecap="round" stroke-miterlimit="10" stroke-width="6"/>
    <g>
      <rect x="1273.48" y="2008.487" width="134.609" height="61.97" fill="none"/>
      <path d="M1334.002,2039.152c2.177,2.025,3.539,4.914,3.539,8.114v4.337c0,6.085-4.953,11.038-11.038,11.038h-16.698c-1.809,0-3.274-1.466-3.274-3.274v-36.691c0-1.809,1.466-3.274,3.274-3.274h16.352c3.33,0,6.401,1.656,8.21,4.437,1.045,1.535,1.613,3.431,1.613,5.43v4.12c0,2.39-.794,4.303-1.982,5.765h.005ZM1313.084,2025.958v10.235h13.675c.755-.144,2.676-.712,2.676-2.802v-4.12c0-.694-.178-1.297-.521-1.805-.642-.984-1.635-1.518-2.758-1.518h-13.077l.005.009ZM1330.991,2047.271c0-2.325-1.761-4.246-4.016-4.507-.174.018-.347.018-.517.018h-13.38v13.315h13.424c2.477,0,4.488-2.018,4.488-4.489v-4.337Z"/>
      <path d="M1373.583,2019.908c1.506,1.007,1.909,3.036.907,4.541l-11.676,17.522v17.353c0,1.809-1.466,3.274-3.274,3.274s-3.274-1.466-3.274-3.274v-17.353l-11.68-17.522c-1.002-1.505-.599-3.539.906-4.541,1.509-1.006,3.534-.603,4.541.906l9.507,14.261,9.503-14.261c1.006-1.505,3.031-1.908,4.54-.91v.004Z"/>
    </g>
    <g>
      <rect x="619.869" y="497.551" width="134.609" height="61.97" fill="none"/>
      <path d="M665.174,524.803c0,2.242-.902,4.428-2.473,6.002-1.439,1.436-3.313,2.251-5.33,2.411l7.403,13.614c.863,1.588.273,3.574-1.314,4.438-.494.272-1.032.398-1.557.398-1.162,0-2.286-.62-2.88-1.713l-9.069-16.676h-9.237v15.11c0,1.809-1.466,3.274-3.274,3.274s-3.274-1.466-3.274-3.274v-36.692c0-1.809,1.466-3.274,3.274-3.274h19.252c2.238,0,4.424.902,5.998,2.473,1.605,1.604,2.481,3.738,2.481,6.007v7.902ZM658.624,516.896c0-.542-.19-1.002-.559-1.375-.348-.342-.863-.555-1.371-.555h-15.982v11.758h15.982c.538,0,.998-.19,1.371-.563.351-.348.559-.859.559-1.366v-7.898Z"/>
      <path d="M702.682,511.696v36.692c0,1.444-.946,2.715-2.325,3.136-.316.091-.633.139-.949.139-1.076,0-2.104-.529-2.725-1.457l-18.463-27.692v25.875c0,1.809-1.466,3.274-3.274,3.274s-3.274-1.466-3.274-3.274v-36.692c0-1.444.945-2.715,2.325-3.136,1.37-.416,2.871.117,3.673,1.318l18.463,27.692v-25.875c0-1.809,1.467-3.274,3.275-3.274s3.274,1.466,3.274,3.274Z"/>
      <path d="M740.056,529.956l.131,10.365c0,3.084-1.245,6.042-3.418,8.158-2.056,1.995-4.896,3.14-7.794,3.14h-7.894c-2.472,0-4.9-.828-6.831-2.342l-.707-.538c-2.771-2.095-4.367-5.325-4.367-8.852v-19.733c0-3.47,1.64-6.783,4.381-8.856l.729-.556c1.899-1.487,4.324-2.32,6.796-2.32h8.675c2.189,0,4.332.655,6.193,1.896l2.606,1.739c1.505,1.006,1.908,3.036.906,4.541-1.002,1.509-3.031,1.908-4.541.906l-2.603-1.739c-.78-.521-1.665-.794-2.562-.794h-8.675c-1.032,0-1.995.33-2.797.954l-.772.59c-1.128.846-1.791,2.208-1.791,3.64v19.733c0,1.457.646,2.78,1.778,3.635l.75.572c.828.65,1.796.98,2.828.98h7.894c1.21,0,2.385-.473,3.227-1.288.924-.898,1.436-2.112,1.436-3.418l-.091-7.091h-7.481c-1.809,0-3.274-1.466-3.274-3.274s1.466-3.275,3.274-3.275h10.712c1.792,0,3.253,1.44,3.275,3.231l.008-.004Z"/>
    </g>
    <g>
      <rect x="569.138" y="556.194" width="226.425" height="77.784" fill="none"/>
      <path d="M634.196,580.22v33.812c0,5.751-5.066,10.423-11.298,10.423h-16.578c-6.336,0-11.299-4.579-11.299-10.423v-33.812c0-5.75,5.066-10.423,11.299-10.423h16.578c6.231,0,11.298,4.673,11.298,10.423ZM625.935,580.22c0-1.192-1.362-2.166-3.036-2.166h-16.578c-1.74,0-3.037,1.144-3.037,2.166v33.812c0,1.193,1.362,2.167,3.037,2.167h16.578c1.739,0,3.036-1.144,3.036-2.167v-33.812Z"/>
      <path d="M677.46,616.183c2.282,0,4.131,1.85,4.131,4.131s-1.849,4.131-4.131,4.131h-30.912c-.569,0-1.116-.12-1.608-.328-.033-.011-.055-.044-.088-.061-.476-.213-.902-.509-1.259-.875-.016-.017-.038-.022-.055-.038-.147-.153-.208-.351-.322-.521-.181-.257-.378-.497-.492-.793-.115-.301-.143-.613-.187-.93-.033-.203-.12-.378-.12-.586,0-.021.011-.044.011-.065.006-.34.109-.662.197-.99.055-.191.06-.405.137-.586.071-.169.213-.306.312-.465.181-.301.355-.607.607-.854.017-.017.038-.055.038-.055l23.526-22.049c3.557-3.344,5.499-6.965,5.329-9.937-.114-2.079-1.264-3.9-3.496-5.563-1.504-1.111-3.649-1.702-6.177-1.702-4.875,0-8.688.832-11.479,4.886-1.292,1.888-3.857,2.358-5.745,1.067-1.877-1.291-2.353-3.863-1.062-5.745,5.821-8.464,14.876-8.464,18.285-8.464,4.306,0,8.142,1.148,11.096,3.321,5.318,3.966,6.647,8.567,6.828,11.735.312,5.493-2.5,11.325-7.928,16.431l-15.91,14.914h20.468l.005-.011Z"/>
      <path d="M725.044,595.419c2.539,2.539,3.939,5.909,3.939,9.482v3.884c0,4.969-2.363,9.685-6.319,12.623-2.675,2.024-5.941,3.107-9.41,3.107h-3.447c-3.135,0-12.452-1.74-15.746-3.393l-1.882-.886c-2.062-.975-2.943-3.437-1.97-5.499.974-2.068,3.431-2.938,5.498-1.97l1.97.931c1.828.913,9.712,2.561,12.136,2.561h3.447c1.651,0,3.189-.51,4.453-1.461,1.92-1.434,3.009-3.617,3.009-6.014v-3.884c0-1.368-.541-2.659-1.526-3.645l-.662-.662c-.787-.793-1.876-1.247-2.981-1.247h-8.152c-1.592,0-3.048-.919-3.731-2.363s-.476-3.146.536-4.383l11.884-14.543h-16.402c-2.282,0-4.131-1.849-4.131-4.131s1.849-4.131,4.131-4.131h25.112c1.593,0,3.048.92,3.731,2.364.685,1.438.477,3.146-.536,4.382l-11.895,14.554c3.092.137,6.084,1.456,8.284,3.655l.661.662v.005Z"/>
      <path d="M745.467,623.331v.114c0,2.282-1.849,4.131-4.131,4.131s-4.131-1.849-4.131-4.131,1.85-4.19,4.131-4.19,4.131,1.795,4.131,4.076Z"/>
      <path d="M765.778,616.254c2.161.137,3.885,1.888,3.885,4.081,0,2.282-1.85,4.131-4.131,4.131h-7.715c-2.281,0-4.131-1.849-4.131-4.131,0-2.177,1.696-3.906,3.83-4.07v-37.04c-.673-.312-1.285-.767-1.724-1.434-1.253-1.904-.728-4.471,1.177-5.723l2.407-1.587c.104-.071.229-.077.339-.137.241-.132.487-.225.756-.307.278-.088.541-.147.826-.17.12-.011.224-.071.35-.071.137,0,.252.066.389.077.284.027.558.082.832.17.251.082.481.175.705.295.23.12.438.263.646.433.225.181.411.377.591.596.088.109.208.17.285.29.071.104.076.23.137.34.131.24.225.492.307.76.082.274.142.536.164.815.011.126.071.23.071.355v42.32l.005.006Z"/>
    </g>
    <g>
      <rect x="1223.048" y="1147.567" width="226.425" height="77.784" fill="none"/>
      <path d="M1291.477,1164.371c2.148,2.646,3.351,6.046,3.351,9.542v13.338c0,3.487-1.162,6.79-3.364,9.555-2.977,3.664-7.322,5.751-11.938,5.751h-12.901c-1.836,0-3.324-1.488-3.324-3.324v-37.252c0-1.836,1.488-3.368,3.324-3.368h12.901c4.65,0,9.119,2.152,11.951,5.764v-.005ZM1288.179,1173.917c0-1.973-.674-3.889-1.898-5.395-1.616-2.061-4.126-3.263-6.755-3.263h-9.577v30.651h9.577c2.567,0,5.095-1.22,6.755-3.268,1.233-1.55,1.898-3.426,1.898-5.39v-13.337Z"/>
      <path d="M1329.65,1195.859c1.836,0,3.324,1.488,3.324,3.324s-1.488,3.324-3.324,3.324h-24.879c-1.836,0-3.324-1.488-3.324-3.324v-37.252c0-1.836,1.488-3.324,3.324-3.324h24.879c1.836,0,3.324,1.488,3.324,3.324s-1.488,3.325-3.324,3.325h-21.555v11.98h16.887c1.837,0,3.325,1.488,3.325,3.325s-1.488,3.324-3.325,3.324h-16.887v11.977h21.555v-.004Z"/>
      <path d="M1367.815,1180.632c2.131,2.136,3.307,4.967,3.307,7.987v2.025c0,3.505-1.678,6.865-4.491,8.992l-.995.713c-1.916,1.409-4.307,2.206-6.693,2.206h-7.354c-2.21,0-4.363-.647-6.226-1.871l-2.66-1.766c-1.532-1.022-1.941-3.083-.929-4.61,1.021-1.532,3.082-1.938,4.61-.93l2.646,1.757c.748.498,1.664.771,2.562.771h7.354c.978,0,1.964-.33,2.782-.938l.965-.691c1.088-.819,1.779-2.201,1.779-3.633v-2.025c0-1.241-.489-2.404-1.365-3.285-.877-.88-2.043-1.364-3.28-1.364h-8.939c-3.016,0-5.856-1.176-7.987-3.303-2.131-2.14-3.307-4.976-3.307-7.987v-2.73c0-3.017,1.176-5.852,3.307-7.987,2.131-2.132,4.967-3.307,7.987-3.307h8.278c2.241,0,4.403.646,6.248,1.875l2.643,1.767c1.527,1.017,1.938,3.086.92,4.609-1.017,1.523-3.073,1.951-4.61.916l-2.642-1.761c-.749-.498-1.634-.762-2.559-.762h-8.278c-1.241,0-2.413.484-3.284,1.36-.881.881-1.365,2.052-1.365,3.289v2.73c0,1.237.488,2.408,1.365,3.289.871.876,2.043,1.356,3.284,1.356h8.939c3.012,0,5.847,1.175,7.982,3.307h.005Z"/>
      <path d="M1405.903,1158.612c1.836,0,3.324,1.488,3.324,3.324s-1.488,3.324-3.324,3.324h-9.093v33.928c0,1.836-1.488,3.324-3.324,3.324s-3.325-1.488-3.325-3.324v-33.928h-9.093c-1.836,0-3.324-1.488-3.324-3.324s1.488-3.324,3.324-3.324h24.835Z"/>
    </g>
    <g>
      <rect x="1188.572" y="1223.172" width="283.164" height="142.937" fill="none"/>
      <path d="M1245.883,1234.052v23.521c0,.668-.264,1.309-.737,1.778l-4.701,4.704c-.98.988-2.568.984-3.557.011l-2.929-2.909-2.93,2.909c-.49.486-1.134.73-1.774.73-.645,0-1.292-.247-1.782-.737l-4.704-4.704c-.474-.471-.737-1.114-.737-1.782v-23.521c0-1.392,1.128-2.519,2.52-2.519s2.519,1.127,2.519,2.519v22.477l2.191,2.192,2.179-2.166v-6.021c0-1.392,1.128-2.52,2.52-2.52s2.519,1.128,2.519,2.52v6.021l2.179,2.166,2.188-2.192v-22.477c0-1.392,1.128-2.519,2.52-2.519s2.519,1.127,2.519,2.519Z"/>
      <path d="M1273.419,1237.821v20.618c0,3.507-3.089,6.355-6.889,6.355h-10.109c-3.863,0-6.89-2.792-6.89-6.355v-20.618c0-3.507,3.09-6.355,6.89-6.355h10.109c3.8,0,6.889,2.849,6.889,6.355ZM1268.382,1237.821c0-.728-.831-1.321-1.852-1.321h-10.109c-1.061,0-1.852.697-1.852,1.321v20.618c0,.728.831,1.321,1.852,1.321h10.109c1.061,0,1.852-.697,1.852-1.321v-20.618Z"/>
      <path d="M1300.968,1237.821v20.618c0,3.507-3.089,6.355-6.889,6.355h-10.109c-3.863,0-6.89-2.792-6.89-6.355v-20.618c0-3.507,3.09-6.355,6.89-6.355h10.109c3.8,0,6.889,2.849,6.889,6.355ZM1295.931,1237.821c0-.728-.831-1.321-1.852-1.321h-10.109c-1.061,0-1.852.697-1.852,1.321v20.618c0,.728.831,1.321,1.852,1.321h10.109c1.061,0,1.852-.697,1.852-1.321v-20.618Z"/>
      <path d="M1328.484,1242.895c0,1.458-.544,2.883-1.518,4.037.974,1.157,1.518,2.579,1.518,4.037v7.276c0,1.778-.797,3.503-2.188,4.728-1.308,1.157-3.049,1.795-4.901,1.795h-9.675c-1.812,0-3.597-.654-4.897-1.795-1.415-1.248-2.192-2.926-2.192-4.728v-7.276c0-1.458.544-2.883,1.519-4.037-.978-1.161-1.519-2.586-1.519-4.037v-4.904c0-1.778.798-3.503,2.188-4.728,1.312-1.161,3.053-1.798,4.901-1.798h9.675c1.818,0,3.604.653,4.901,1.795,1.415,1.251,2.188,2.929,2.188,4.728v4.907ZM1323.447,1250.962c0-.334-.19-.688-.518-.978l-.617-.54h-11.517l-.621.543c-.32.287-.511.641-.511.975v7.276c0,.344.164.661.484.944.384.337.971.54,1.568.54h9.675c.61,0,1.185-.193,1.568-.537.307-.267.487-.62.487-.947v-7.276ZM1309.671,1237.991v4.904c0,.334.19.69.521.987l.607.531h11.521l.624-.544c.316-.284.507-.641.507-.975v-4.904c0-.347-.163-.667-.487-.951-.38-.333-.968-.537-1.568-.537h-9.675c-.61,0-1.181.197-1.564.537h-.004c-.304.268-.483.621-.483.948l.003.003Z"/>
      <path d="M1355.56,1239.617l-18.816,28.226c-.487.728-1.285,1.121-2.099,1.121-.48,0-.965-.137-1.395-.424-1.158-.773-1.469-2.335-.697-3.493l18.816-28.225c.774-1.154,2.332-1.465,3.493-.697,1.158.771,1.468,2.335.697,3.492Z"/>
      <path d="M1383.517,1237.821v20.618c0,3.507-3.089,6.355-6.889,6.355h-10.109c-3.863,0-6.89-2.792-6.89-6.355v-20.618c0-3.507,3.09-6.355,6.89-6.355h10.109c3.8,0,6.889,2.849,6.889,6.355ZM1378.479,1237.821c0-.728-.831-1.321-1.852-1.321h-10.109c-1.061,0-1.852.697-1.852,1.321v20.618c0,.728.831,1.321,1.852,1.321h10.109c1.061,0,1.852-.697,1.852-1.321v-20.618Z"/>
      <path d="M1408.955,1246.852c1.854,2.158,1.805,4.21,1.762,5.862l-.014.757c0,3.083-.974,5.822-2.672,7.523-1.455,1.451-3.457,2.516-5.492,2.923-1.567.313-10.056.73-12.621.848h-.12c-1.338,0-2.452-1.055-2.516-2.402-.063-1.388,1.008-2.565,2.398-2.633,5.151-.243,11-.59,11.871-.757,1.055-.214,2.172-.805,2.916-1.548.554-.555,1.197-1.922,1.197-3.961l.014-.884c.033-1.398.021-1.788-.54-2.442-.635-.73-1.158-.871-2.402-.924h-12.938c-1.385,0-2.509-1.114-2.519-2.499l-.101-12.715c-.003-.674.257-1.317.73-1.795s1.118-.744,1.789-.744h17.281c1.392,0,2.52,1.128,2.52,2.52s-1.128,2.519-2.52,2.519h-14.743l.061,7.677h10.546c2.099.09,4.2.471,6.109,2.673l.003.003Z"/>
      <path d="M1438.266,1237.821v20.618c0,3.507-3.089,6.355-6.889,6.355h-10.109c-3.863,0-6.89-2.792-6.89-6.355v-20.618c0-3.507,3.09-6.355,6.89-6.355h10.109c3.8,0,6.889,2.849,6.889,6.355ZM1433.228,1237.821c0-.728-.831-1.321-1.852-1.321h-10.109c-1.061,0-1.852.697-1.852,1.321v20.618c0,.728.831,1.321,1.852,1.321h10.109c1.061,0,1.852-.697,1.852-1.321v-20.618Z"/>
      <path d="M1250.619,1277.534c1.391,0,2.519,1.127,2.519,2.519s-1.128,2.519-2.519,2.519h-6.89v25.707c0,1.391-1.128,2.519-2.52,2.519s-2.519-1.128-2.519-2.519v-25.707h-6.89c-1.391,0-2.519-1.127-2.519-2.519s1.128-2.519,2.519-2.519h18.817Z"/>
      <path d="M1279.17,1285.497c.984,1.194,1.534,2.713,1.534,4.265v18.517c0,1.391-1.127,2.519-2.519,2.519s-2.519-1.128-2.519-2.519v-11.594h-13.846v11.594c0,1.391-1.128,2.519-2.52,2.519s-2.519-1.128-2.519-2.519v-18.517c0-1.521.523-2.983,1.511-4.234l4.23-5.168c3.013-3.606,9.456-3.586,12.429-.017l4.22,5.154h-.003ZM1261.827,1291.642h13.85v-1.885c0-.387-.137-.754-.391-1.061l-4.214-5.148c-1.011-1.211-3.616-1.23-4.657.021l-4.188,5.121c-.356.443-.4.827-.4,1.071v1.881Z"/>
      <path d="M1305.713,1294.218c1.614,1.618,2.505,3.764,2.505,6.052v1.535c0,2.655-1.271,5.201-3.402,6.812l-.754.54c-1.451,1.068-3.264,1.672-5.071,1.672h-5.572c-1.675,0-3.306-.49-4.717-1.418l-2.016-1.338c-1.161-.773-1.471-2.335-.704-3.493.774-1.161,2.336-1.468,3.493-.704l2.005,1.331c.567.377,1.262.584,1.942.584h5.571c.741,0,1.488-.25,2.108-.71l.731-.524c.823-.62,1.348-1.668,1.348-2.752v-1.535c0-.94-.37-1.821-1.034-2.488-.664-.668-1.549-1.035-2.486-1.035h-6.772c-2.285,0-4.438-.891-6.052-2.502-1.615-1.621-2.506-3.77-2.506-6.052v-2.068c0-2.285.891-4.435,2.506-6.053,1.614-1.614,3.764-2.505,6.052-2.505h6.272c1.698,0,3.336.49,4.734,1.421l2.002,1.338c1.157.771,1.468,2.339.697,3.493-.771,1.154-2.329,1.478-3.493.694l-2.002-1.335c-.567-.377-1.238-.577-1.938-.577h-6.272c-.94,0-1.828.367-2.488,1.031-.668.667-1.035,1.555-1.035,2.492v2.068c0,.938.371,1.825,1.035,2.492.66.664,1.548,1.027,2.488,1.027h6.772c2.282,0,4.431.891,6.049,2.506h.004Z"/>
      <path d="M1348.216,1283.821v20.618c0,3.507-3.089,6.355-6.889,6.355h-10.109c-3.863,0-6.89-2.792-6.89-6.355v-20.618c0-3.507,3.09-6.355,6.89-6.355h10.109c3.8,0,6.889,2.849,6.889,6.355ZM1343.179,1283.821c0-.728-.831-1.321-1.852-1.321h-10.109c-1.061,0-1.852.697-1.852,1.321v20.618c0,.728.831,1.321,1.852,1.321h10.109c1.061,0,1.852-.697,1.852-1.321v-20.618Z"/>
      <path d="M1371.559,1307.692c-2.959,2.956-10.285,3.106-11.724,3.106-1.391,0-2.519-1.128-2.519-2.516s1.124-2.522,2.516-2.522c3.093-.003,7.206-.674,8.164-1.632,1.234-1.234,1.984-3.773,2.412-6.592-1.812.924-4.007,1.451-6.569,1.451-7.377,0-11.961-4.124-11.961-10.76,0-5.205,3.143-10.763,11.961-10.763,8.598,0,11.773,5.281,11.927,10.369.014.08.054.149.061.229.097,1.475.797,14.561-4.268,19.628ZM1370.758,1288.224c0-3.8-2.332-5.725-6.923-5.725-4.657,0-6.923,1.875-6.923,5.725,0,3.797,2.329,5.723,6.923,5.723s6.923-1.922,6.923-5.723Z"/>
      <path d="M1401.063,1293.089c1.548,1.548,2.401,3.603,2.401,5.781v2.369c0,3.029-1.44,5.905-3.853,7.696-1.632,1.234-3.624,1.896-5.739,1.896h-2.102c-1.912,0-7.594-1.062-9.602-2.068l-1.148-.541c-1.258-.594-1.795-2.095-1.2-3.353.594-1.262,2.092-1.792,3.353-1.201l1.201.567c1.114.557,5.922,1.562,7.399,1.562h2.103c1.008,0,1.945-.311,2.716-.892,1.171-.874,1.835-2.205,1.835-3.666v-2.369c0-.834-.33-1.621-.931-2.222l-.404-.404c-.48-.483-1.145-.761-1.818-.761h-4.971c-.971,0-1.858-.56-2.275-1.44s-.29-1.919.327-2.673l7.246-8.868h-10.002c-1.392,0-2.52-1.127-2.52-2.519s1.128-2.519,2.52-2.519h15.313c.971,0,1.858.561,2.275,1.44.417.878.29,1.919-.327,2.673l-7.253,8.875c1.885.083,3.71.887,5.051,2.229l.404.403v.004Z"/>
      <path d="M1428.496,1305.75c1.392,0,2.52,1.127,2.52,2.519s-1.128,2.519-2.52,2.519h-18.85c-.348,0-.681-.073-.981-.2-.02-.006-.033-.026-.053-.036-.291-.13-.551-.311-.768-.534-.01-.01-.023-.013-.033-.023-.09-.093-.127-.213-.197-.316-.11-.157-.23-.304-.3-.484-.07-.183-.087-.373-.113-.566-.021-.124-.074-.23-.074-.357,0-.014.007-.026.007-.04.004-.207.067-.403.12-.604.033-.117.037-.247.084-.357.043-.104.13-.187.189-.283.11-.184.217-.37.371-.521.01-.01.023-.033.023-.033l14.346-13.445c2.169-2.039,3.353-4.247,3.25-6.06-.07-1.268-.771-2.378-2.133-3.393-.917-.678-2.225-1.037-3.767-1.037-2.973,0-5.298.507-6.999,2.979-.787,1.151-2.353,1.438-3.503.651-1.145-.788-1.435-2.355-.647-3.504,3.55-5.161,9.071-5.161,11.149-5.161,2.626,0,4.965.701,6.767,2.025,3.242,2.419,4.054,5.225,4.163,7.156.19,3.35-1.524,6.906-4.834,10.019l-9.702,9.096h12.481l.003-.007Z"/>
      <path d="M1273.061,1340.098l.1,7.974c0,2.372-.957,4.647-2.629,6.275-1.581,1.535-3.767,2.416-5.995,2.416h-6.072c-1.901,0-3.77-.638-5.255-1.802l-.544-.414c-2.132-1.611-3.359-4.097-3.359-6.81v-15.18c0-2.669,1.262-5.218,3.37-6.812l.561-.428c1.461-1.145,3.326-1.784,5.228-1.784h6.673c1.685,0,3.333.503,4.764,1.457l2.006,1.338c1.157.774,1.468,2.336.697,3.493-.771,1.161-2.332,1.469-3.493.697l-2.002-1.338c-.601-.4-1.281-.61-1.972-.61h-6.673c-.794,0-1.534.254-2.151.734l-.595.454c-.867.65-1.378,1.697-1.378,2.799v15.18c0,1.121.498,2.139,1.368,2.796l.577.44c.638.501,1.382.754,2.176.754h6.072c.931,0,1.835-.363,2.481-.99.711-.69,1.104-1.625,1.104-2.629l-.07-5.455h-5.755c-1.391,0-2.519-1.128-2.519-2.52s1.128-2.519,2.519-2.519h8.241c1.378,0,2.502,1.107,2.519,2.485l.007-.003Z"/>
      <path d="M1298.188,1340.218c1.614,1.618,2.505,3.764,2.505,6.052v1.535c0,2.655-1.271,5.201-3.402,6.812l-.754.54c-1.451,1.068-3.264,1.672-5.071,1.672h-5.572c-1.675,0-3.306-.49-4.717-1.418l-2.016-1.338c-1.161-.773-1.472-2.335-.704-3.493.774-1.161,2.336-1.468,3.493-.704l2.005,1.331c.567.377,1.262.584,1.942.584h5.571c.741,0,1.488-.25,2.108-.71l.731-.524c.823-.62,1.348-1.668,1.348-2.752v-1.535c0-.94-.37-1.821-1.034-2.488-.664-.668-1.549-1.035-2.486-1.035h-6.772c-2.285,0-4.438-.891-6.052-2.502-1.615-1.621-2.506-3.77-2.506-6.052v-2.068c0-2.285.891-4.435,2.506-6.053,1.614-1.614,3.764-2.505,6.052-2.505h6.272c1.698,0,3.336.49,4.734,1.421l2.002,1.338c1.157.771,1.468,2.339.697,3.493s-2.329,1.478-3.493.694l-2.002-1.335c-.567-.377-1.238-.577-1.938-.577h-6.272c-.94,0-1.828.367-2.488,1.031-.668.667-1.035,1.555-1.035,2.492v2.068c0,.938.371,1.825,1.035,2.492.66.664,1.548,1.027,2.488,1.027h6.772c2.282,0,4.431.891,6.049,2.506h.004Z"/>
      <path d="M1328.242,1329.821v20.618c0,3.507-3.089,6.355-6.889,6.355h-10.109c-3.863,0-6.89-2.792-6.89-6.355v-20.618c0-3.507,3.09-6.355,6.89-6.355h10.109c3.8,0,6.889,2.849,6.889,6.355ZM1323.205,1329.821c0-.728-.831-1.321-1.852-1.321h-10.109c-1.061,0-1.852.697-1.852,1.321v20.618c0,.728.831,1.321,1.852,1.321h10.109c1.061,0,1.852-.697,1.852-1.321v-20.618Z"/>
      <path d="M1355.759,1334.895c0,1.458-.544,2.883-1.518,4.037.974,1.157,1.518,2.579,1.518,4.037v7.276c0,1.778-.797,3.503-2.188,4.728-1.308,1.157-3.049,1.795-4.901,1.795h-9.675c-1.812,0-3.597-.654-4.897-1.795-1.415-1.248-2.192-2.926-2.192-4.728v-7.276c0-1.458.544-2.883,1.519-4.037-.978-1.161-1.519-2.586-1.519-4.037v-4.904c0-1.778.798-3.503,2.188-4.728,1.312-1.161,3.053-1.798,4.901-1.798h9.675c1.818,0,3.604.653,4.901,1.795,1.415,1.251,2.188,2.929,2.188,4.728v4.907ZM1350.722,1342.962c0-.334-.19-.688-.518-.978l-.617-.54h-11.517l-.621.543c-.32.287-.511.641-.511.975v7.276c0,.344.164.661.484.944.384.337.971.54,1.568.54h9.675c.61,0,1.185-.193,1.568-.537.307-.267.487-.62.487-.947v-7.276ZM1336.945,1329.991v4.904c0,.334.19.69.521.987l.607.531h11.521l.624-.544c.316-.284.507-.641.507-.975v-4.904c0-.347-.163-.667-.487-.951-.38-.333-.968-.537-1.568-.537h-9.675c-.61,0-1.181.197-1.564.537h-.004c-.304.268-.483.621-.483.948l.003.003Z"/>
      <path d="M1379.084,1353.692c-2.959,2.956-10.285,3.106-11.724,3.106-1.391,0-2.519-1.128-2.519-2.516s1.124-2.522,2.516-2.522c3.093-.003,7.206-.674,8.164-1.632,1.234-1.234,1.984-3.773,2.412-6.592-1.812.924-4.007,1.451-6.569,1.451-7.377,0-11.961-4.124-11.961-10.76,0-5.205,3.143-10.763,11.961-10.763,8.598,0,11.773,5.281,11.927,10.369.014.08.054.149.061.229.097,1.475.797,14.561-4.268,19.628ZM1378.283,1334.224c0-3.8-2.332-5.725-6.923-5.725-4.657,0-6.923,1.875-6.923,5.725,0,3.797,2.329,5.723,6.923,5.723s6.923-1.922,6.923-5.723Z"/>
      <path d="M1408.473,1351.75c1.392,0,2.52,1.127,2.52,2.519s-1.128,2.519-2.52,2.519h-18.85c-.348,0-.681-.073-.981-.2-.02-.006-.033-.026-.053-.036-.291-.13-.551-.311-.768-.534-.01-.01-.023-.013-.033-.023-.09-.093-.127-.213-.197-.316-.11-.157-.23-.304-.3-.484-.07-.183-.087-.373-.113-.566-.021-.124-.074-.23-.074-.357,0-.014.007-.026.007-.04.004-.207.067-.403.12-.604.033-.117.037-.247.084-.357.043-.104.13-.187.189-.283.11-.184.217-.37.371-.521.01-.01.023-.033.023-.033l14.346-13.445c2.169-2.039,3.353-4.247,3.25-6.06-.07-1.268-.771-2.378-2.133-3.393-.917-.678-2.225-1.037-3.767-1.037-2.973,0-5.298.507-6.999,2.979-.787,1.151-2.353,1.438-3.503.651-1.145-.788-1.435-2.355-.647-3.504,3.55-5.161,9.071-5.161,11.149-5.161,2.626,0,4.965.701,6.767,2.025,3.242,2.419,4.054,5.225,4.163,7.156.19,3.35-1.524,6.906-4.834,10.019l-9.702,9.096h12.481l.003-.007Z"/>
    </g>
  </g>
  <g id="d" data-name="NAV_DEST_Arrows_-_Light">
    <path d="M1612.168,925.02l2.998-19.545,781.15,147.402c1.166,30.739,19.739,59.561,49.927,72.213,41.454,17.374,89.313-2.217,106.686-43.67,17.374-41.454-2.217-89.313-43.671-106.687-41.453-17.373-89.312,2.217-106.686,43.671-2.872,6.853-4.714,13.882-5.633,20.919l-779.723-147.214,2.998-19.545-115.609,9.11,107.562,43.346ZM2413.783,1023.103c14.807-35.329,55.449-51.965,90.778-37.159,35.329,14.807,51.965,55.449,37.159,90.778-14.807,35.329-55.449,51.965-90.778,37.159-35.329-14.807-51.965-55.449-37.159-90.778Z" stroke="#fff" stroke-miterlimit="10" stroke-width="4"/>
    <path d="M1467.189,1368.977l18.093-7.98,462.955,955.302c-36.846,20.023-52.842,65.432-35.624,104.471,18.138,41.125,66.352,59.826,107.477,41.687,41.124-18.138,59.825-66.352,41.687-107.477-17.218-39.039-61.537-57.846-101.168-44.138l-462.955-955.302,18.093-7.98-69.835-92.582,21.278,113.999ZM1959.205,2324.415c35.049-15.458,75.993.423,91.451,35.471,15.458,35.049-.423,75.993-35.471,91.451-35.049,15.458-75.993-.423-91.451-35.471-15.458-35.049.423-75.993,35.471-91.451Z" stroke="#fff" stroke-miterlimit="10" stroke-width="4"/>
    <path d="M776.947,405.177l-18.738-6.317,85.572-221.348c30.481,4.141,62.07-9.194,79.728-36.755,24.248-37.845,13.187-88.362-24.658-112.61-37.845-24.248-88.362-13.187-112.61,24.659-24.248,37.845-13.186,88.361,24.659,112.61,6.257,4.009,12.864,7.032,19.637,9.149l-85.141,219.975-18.738-6.317-10.922,115.452,61.211-98.497ZM817.457,155.181c-32.254-20.666-41.647-63.565-20.982-95.819,20.666-32.254,63.565-41.647,95.819-20.982,32.254,20.666,41.647,63.565,20.982,95.819-20.666,32.254-63.565,41.647-95.819,20.982Z" stroke="#fff" stroke-miterlimit="10" stroke-width="4"/>
    <path d="M1229.403,2153.788l18.197,7.738-70.657,147.761c-39.811-13.178-83.875,6.218-100.571,45.483-17.588,41.363,1.754,89.323,43.116,106.912,41.362,17.588,89.323-1.754,106.911-43.117,16.696-39.265.097-84.457-37.013-103.987l70.657-147.761,18.197,7.738,19.757-114.272-68.595,93.505ZM1178.527,2322.839c35.252,14.99,51.677,55.718,36.687,90.97-14.99,35.252-55.718,51.677-90.97,36.687-35.252-14.99-51.677-55.718-36.687-90.97,14.99-35.252,55.718-51.677,90.97-36.687Z" stroke="#fff" stroke-miterlimit="10" stroke-width="4"/>
    <path d="M1116.589,1243.443l-4.485,19.259-941.389-182.255c6.118-41.487-20.584-81.547-62.139-91.225-43.776-10.195-87.684,17.126-97.878,60.901-10.194,43.775,17.126,87.683,60.901,97.878,41.556,9.678,83.209-14.464,96.049-54.385l941.389,182.256-4.485,19.259,115.967-.238-103.93-51.449ZM157.638,1084.343c-8.688,37.308-45.976,60.509-83.283,51.82-37.308-8.688-60.509-45.976-51.82-83.283,8.688-37.308,45.976-60.509,83.283-51.82,37.308,8.688,60.509,45.976,51.82,83.283Z" stroke="#fff" stroke-miterlimit="10" stroke-width="4"/>
    <path d="M1706.519,690.326l-4.222-19.318,700.554-233.341c12.129,28.269,39.814,48.498,72.532,49.463,44.927,1.326,82.557-34.147,83.883-79.074,1.326-44.927-34.147-82.557-79.074-83.883-44.927-1.326-82.557,34.147-83.882,79.074-.219,7.428.587,14.649,2.256,21.546l-699.155,233.004-4.222-19.318-104.623,50.024,115.953,1.822ZM2408.458,403.606c1.13-38.29,33.086-68.413,71.375-67.284,38.29,1.13,68.413,33.086,67.284,71.375-1.13,38.29-33.086,68.413-71.375,67.284-38.29-1.13-68.413-33.086-67.284-71.375Z" stroke="#fff" stroke-miterlimit="10" stroke-width="4"/>
    <path d="M1585.382,601.22l-18.738-6.317,160.767-417.344c30.481,4.141,62.07-9.194,79.728-36.755,24.248-37.845,13.187-88.362-24.658-112.61-37.845-24.248-88.362-13.187-112.61,24.659-24.248,37.845-13.186,88.361,24.659,112.61,6.257,4.009,12.864,7.032,19.637,9.149l-160.337,415.971-18.738-6.317-10.922,115.452,61.211-98.497ZM1701.087,155.228c-32.254-20.666-41.647-63.565-20.982-95.819,20.666-32.254,63.565-41.647,95.819-20.982,32.254,20.666,41.647,63.565,20.982,95.819-20.666,32.254-63.565,41.647-95.819,20.982Z" stroke="#fff" stroke-miterlimit="10" stroke-width="4"/>
    <path d="M1319.91,547.5l12.32-115.311-19.621,2.454-29.887-256.4c7.06-.724,14.137-2.369,21.067-5.05,41.92-16.215,62.834-63.511,46.62-105.431-16.215-41.92-63.511-62.834-105.431-46.619-41.92,16.214-62.833,63.511-46.618,105.431,11.808,30.528,40.103,49.895,70.798,51.915l30.035,257.832-19.621,2.454,40.34,108.725ZM1209.694,122.189c-13.819-35.727,3.941-75.891,39.668-89.71,35.727-13.819,75.891,3.941,89.71,39.668,13.819,35.727-3.941,75.891-39.668,89.71-35.727,13.819-75.891-3.941-89.71-39.668Z" stroke="#fff" stroke-miterlimit="10" stroke-width="4"/>
    <path d="M1232.258,1346.543l-114.707,17.052,7.306,18.375-957.721,385.174c-2.475-6.651-5.845-13.088-10.182-19.122-26.228-36.501-77.262-44.858-113.763-18.63-36.501,26.228-44.858,77.262-18.63,113.763,26.228,36.5,77.262,44.858,113.763,18.629,26.581-19.1,38.217-51.354,32.459-81.572l959.07-385.677,7.306,18.375,95.1-66.367ZM131.231,1851.914c-31.108,22.353-74.447,15.256-96.8-15.852-22.353-31.108-15.256-74.447,15.852-96.8,31.108-22.353,74.447-15.256,96.8,15.852,22.353,31.108,15.256,74.447-15.852,96.8Z" stroke="#fff" stroke-miterlimit="10" stroke-width="4"/>
    <path d="M2014.662,1538.091l-.294-19.772,383.749-4.66c6.263,30.117,29.371,55.449,61.243,62.903,43.766,10.237,87.7-17.041,97.937-60.807,10.237-43.766-17.041-87.7-60.807-97.937-43.765-10.236-87.699,17.042-97.936,60.808-1.692,7.236-2.339,14.473-2.075,21.564l-382.311,4.608-.294-19.772-112.483,28.212,113.273,24.852ZM2410.388,1481.394c8.724-37.3,46.034-60.464,83.333-51.74,37.3,8.724,60.464,46.034,51.74,83.333-8.724,37.3-46.034,60.464-83.333,51.74-37.3-8.724-60.464-46.034-51.74-83.333Z" stroke="#fff" stroke-miterlimit="10" stroke-width="4"/>
  </g>
  <g id="e" data-name="NAV_DEST_Steering_Numbers">
    <path d="M1763.006,110.96c0,12.688-11.471,23.012-25.568,23.012s-25.569-10.324-25.569-23.012c0-8.575,5.248-16.057,12.999-20.014-6.28-3.714-10.442-10.112-10.442-17.38,0-11.455,10.324-20.775,23.013-20.775s23.012,9.32,23.012,20.775c0,7.268-4.164,13.667-10.441,17.38,7.75,3.957,12.998,11.439,12.998,20.014ZM1756.614,110.96c0-9.163-8.601-16.62-19.177-16.62s-19.177,7.457-19.177,16.62,8.601,16.62,19.177,16.62,19.177-7.457,19.177-16.62ZM1737.437,87.952c9.163,0,16.619-6.453,16.619-14.383s-7.456-14.382-16.619-14.382-16.62,6.453-16.62,14.382,7.457,14.383,16.62,14.383Z" fill="#e3831f" stroke="#e3831f" stroke-miterlimit="10"/>
    <path d="M103.183,1102.668v6.392h-20.455v-6.392h7.031v-65.595l-4.996,4.136-4.074-4.925,10.153-8.403h5.31v74.787h7.031Z" fill="#e3831f" stroke="#e3831f" stroke-miterlimit="10"/>
    <path d="M76.559,1829.248h39.517v6.392h-48.262v-6.369l8.402-9.17c4.404-4.906,8.444-9.403,12.28-13.494,1.904-1.905,3.812-4.133,5.657-6.287,1.927-2.246,9.626-10.911,9.626-10.911.873-.879,1.365-1.499,1.694-1.908.195-.246.361-.444.499-.598.937-1.192,1.723-2.701,2.278-4.369.527-1.582.796-2.848.796-5.382,0-2.177-.45-4.334-1.339-6.412-.809-2.145-2.097-3.691-3.797-5.392-1.94-1.598-3.778-2.749-5.574-3.42-5.14-1.927-8.601-1.924-13.734,0-2.352.882-4.123,1.969-5.577,3.423-1.678,1.679-3.026,3.593-3.797,5.393l-5.874-2.519c1.1-2.567,2.883-5.124,5.152-7.394,2.096-2.093,4.663-3.691,7.853-4.887,6.539-2.461,11.669-2.461,18.225,0,3.27,1.228,5.922,3.267,7.635,4.692,2.097,2.08,4.193,4.452,5.421,7.725,1.18,2.739,1.803,5.744,1.803,8.793,0,3.362-.432,5.324-1.125,7.405-.803,2.41-1.984,4.631-3.413,6.418l-.438.521c-.428.537-1.07,1.34-2.036,2.302.007,0-7.526,8.476-9.422,10.688-1.924,2.244-3.912,4.564-5.919,6.571-3.736,3.985-7.744,8.45-12.117,13.318l-4.41,4.874-.003-.003Z" fill="#e3831f" stroke="#e3831f" stroke-miterlimit="10"/>
    <path d="M1175.917,2388.831c1.207,2.821,1.799,8.274,1.799,11.03,0,2.946,0,4.893-1.387,10.093-1.225,4.887-3.733,8.176-5.623,10.064-2.112,2.109-6.148,4.804-9.473,5.635-3.136,1.055-8.256,1.055-11.004,1.055-3.248,0-8.876-1.831-11.168-2.812-2.682-1.15-7.715-4.545-10.773-7.262l4.247-4.778c2.675,2.379,7.21,5.377,9.045,6.166,2.11.904,6.776,2.298,8.649,2.298,2.218,0,6.833,0,9.217-.796,2.046-.521,5.086-2.369,6.74-4.023,1.317-1.314,3.075-3.625,3.954-7.145,1.183-4.436,1.183-5.707,1.183-8.492,0-2.838-.648-7.043-1.339-8.651-.786-2.084-1.742-3.669-3.353-5.603-1.403-1.685-2.935-2.89-4.555-3.583-2.01-.862-4.139-1.662-6.092-1.662h-8.63v-6.961l18.991-21.484h-29.219v-6.393h36.116v8.237l-17.86,20.205h.602c3.116,0,6.102,1.1,8.61,2.177,2.554,1.097,4.894,2.901,6.948,5.366,2.08,2.493,3.388,4.682,4.375,7.316l-.002.003Z" fill="#e3831f" stroke="#e3831f" stroke-miterlimit="10"/>
    <path d="M1998.039,2401.139h8.63v6.393h-8.63v15.98h-6.392v-15.98h-33.24v-6.958l33.025-55.047h6.604v55.609l.003.003ZM1991.644,2357.595l-26.125,43.541h26.125v-43.541Z" fill="#e3831f" stroke="#e3831f" stroke-miterlimit="10"/>
    <path d="M2496.851,1499.163c1.215,2.839,1.856,5.817,1.856,8.614v15.661c0,2.8-.642,5.775-1.856,8.61-1.184,2.765-3.139,5.414-5.363,7.268-1.713,1.429-4.369,3.465-7.636,4.692-3.282,1.23-6.181,1.803-9.115,1.803-3.34,0-7.518-.723-10.391-1.8-3.19-1.198-5.757-2.797-7.85-4.891-2.014-1.658-3.966-4.308-5.152-7.072-.716-1.419-1.103-2.96-1.441-4.318l-.096-.776v-2.877h6.392v2.483c.26,1.029.512,1.938.939,2.797.879,2.042,2.188,3.819,3.664,5.05,1.668,1.649,3.438,2.736,5.787,3.618,2.154.806,5.584,1.394,8.147,1.394,2.173,0,4.292-.432,6.868-1.396,1.793-.675,3.635-1.822,5.789-3.618,1.473-1.23,2.779-3.011,3.582-4.878.876-2.045,1.34-4.151,1.34-6.092v-15.661c0-1.939-.464-4.046-1.34-6.095-.799-1.866-2.105-3.644-3.582-4.874-1.669-1.646-3.439-2.735-5.789-3.614l-.978-.378c-1.786-.699-2.604-1.02-5.891-1.02-4.008,0-7.22.856-10.109,2.698-2.157,1.349-4.065,3.257-5.398,5.389l-.939,1.502h-8.482v-37.075h48.261v6.393h-41.869v22.615c1.465-1.637,3.158-3.068,5.019-4.231,3.884-2.474,8.316-3.682,13.52-3.682,4.272,0,5.906.553,8.218,1.457l.895.346c3.189,1.195,5.756,2.793,7.85,4.887,2.01,1.658,3.967,4.305,5.152,7.069v.003Z" fill="#e3831f" stroke="#e3831f" stroke-miterlimit="10"/>
    <path d="M2497.235,1061.12c1.78,3.113,2.02,6.104,2.02,8.616v2.877c0,2.704-.591,5.338-1.856,8.291l-.163.326c-1.461,2.56-3.32,4.787-5.522,6.622-2.014,1.678-4.688,3.148-7.956,4.372-2.658.997-5.742,1.483-9.432,1.483-3.157,0-6.232-.662-9.086-1.375l-.346-.108c-3.266-1.224-5.944-2.697-7.955-4.372-2.201-1.835-4.059-4.065-5.522-6.622-1.78-3.113-2.021-6.102-2.021-8.617-.021-.444-.626-14.456,1.672-24.972,3.072-13.292,17.521-27.749,26.777-33.089l3.193,5.536c-8.211,4.736-21.213,18.046-23.732,28.954-.418,1.911-.729,3.979-.961,6.066.543-.477,1.115-.934,1.713-1.371,1.688-1.353,4.954-3.219,7.725-4.012,2.784-.799,14.645-.85,17.979.399,3.264,1.225,5.941,2.698,7.955,4.376,2.202,1.834,4.062,4.065,5.523,6.622l-.004-.003ZM2492.87,1072.619v-2.876c0-2.436-.33-3.963-1.177-5.446-1.08-1.893-2.448-3.538-4.065-4.884-1.441-1.201-3.555-2.343-6.107-3.298-1.873-.665-12.117-.729-13.986-.24-1.838.527-4.334,1.937-5.587,2.938-3.835,2.815-6.153,6.606-6.153,9.969h-.079c.013,2.228.077,3.649.077,3.691.002,2.582.332,4.107,1.179,5.59,1.083,1.893,2.452,3.538,4.065,4.884,1.403,1.173,3.455,2.288,5.938,3.234,2.403.598,4.95,1.138,7.354,1.138,2.908,0,5.258-.352,7.188-1.073,2.557-.963,4.67-2.101,6.108-3.299,1.572-1.308,2.908-2.898,3.976-4.728.873-2.08,1.266-3.812,1.266-5.6h.004Z" fill="#e3831f" stroke="#e3831f" stroke-miterlimit="10"/>
    <path d="M2505.73,385.729v9.042l-32.92,68.074v.866h-6.393v-2.33l32.921-68.074v-1.186h-41.23v-6.393h47.622Z" fill="#e3831f" stroke="#e3831f" stroke-miterlimit="10"/>
    <path d="M1298.283,99.499c-3.065,13.293-17.518,27.749-26.773,33.09l-3.193-5.536c8.214-4.74,21.216-18.045,23.731-28.954.419-1.911.729-3.979.962-6.066-.543.476-1.112.933-1.71,1.371-1.688,1.352-4.954,3.218-7.725,4.011-2.787.795-14.648.847-17.979-.4-3.27-1.227-5.945-2.697-7.959-4.375-2.202-1.834-4.062-4.065-5.522-6.622-1.78-3.11-2.02-6.102-2.02-8.617v-2.876c0-2.704.591-5.337,1.856-8.291l.163-.326c1.461-2.56,3.32-4.788,5.522-6.622,2.011-1.675,4.686-3.145,7.956-4.373,2.659-.997,5.743-1.483,9.432-1.483,3.154,0,6.229.662,9.086,1.375l.346.108c3.27,1.228,5.944,2.698,7.955,4.373,2.202,1.834,4.062,4.062,5.522,6.622,1.78,3.11,2.021,6.102,2.021,8.617.022.448.63,14.456-1.672,24.975ZM1293.56,78.367h.08c-.013-2.228-.077-3.646-.077-3.691-.003-2.585-.332-4.11-1.18-5.59-1.083-1.898-2.451-3.542-4.065-4.887-1.406-1.173-3.455-2.288-5.938-3.234-2.246-.556-4.835-1.138-7.354-1.138-2.909,0-5.258.352-7.188,1.074-2.557.962-4.67,2.1-6.104,3.298-1.572,1.308-2.908,2.899-3.976,4.727-.873,2.081-1.266,3.813-1.266,5.6v2.876c0,2.439.329,3.967,1.176,5.446,1.08,1.892,2.448,3.538,4.065,4.884,1.441,1.202,3.551,2.34,6.107,3.298,1.873.668,12.12.732,13.986.24,1.838-.527,4.334-1.937,5.587-2.937,3.832-2.816,6.149-6.604,6.149-9.969l-.003.003Z" fill="#e3831f" stroke="#e3831f" stroke-miterlimit="10"/>
    <g>
      <path d="M841.046,127.581v6.392h-20.455v-6.392h7.031V61.986l-4.995,4.136-4.075-4.925,10.154-8.403h5.309v74.787h7.031Z" fill="#e3831f" stroke="#e3831f" stroke-miterlimit="10"/>
      <path d="M899.792,66.384c1.477,2.947,2.257,6.315,2.257,9.738v34.838c0,3.423-.78,6.795-2.257,9.742-1.381,2.768-3.471,5.36-6.21,7.709-2.444,2.036-5.072,3.423-7.84,4.146-2.524.92-5.245,1.387-8.304,1.416h-.319c-3.417-.025-6.14-.486-8.792-1.48-2.884-1.083-5.45-2.554-7.637-4.375-2.773-2.375-4.864-4.97-6.248-7.738-1.477-2.947-2.256-6.315-2.256-9.735v-34.838c0-3.42.783-6.789,2.256-9.738,1.384-2.768,3.475-5.363,6.213-7.709,2.445-2.039,5.072-3.423,7.84-4.145,2.611-.953,5.434-1.419,8.624-1.419,3.423,0,6.487.496,9.112,1.48,2.883,1.08,5.449,2.554,7.639,4.375,2.432,2.081,4.359,4.605,5.926,7.735h-.004ZM858.581,75.803v31.526l36.676-34.774c-.266-1.163-.662-2.279-1.18-3.314-1.191-2.387-2.569-4.203-4.334-5.714-1.598-1.333-3.547-2.442-5.752-3.27-1.877-.704-4.252-1.074-6.869-1.074-2.512,0-4.593.342-6.549,1.074l-.346.108c-1.895.473-3.723,1.438-5.442,2.87-2.056,1.761-3.621,3.685-4.622,5.686-1.035,2.071-1.582,4.449-1.582,6.881ZM895.659,110.964v-29.977l-36.32,34.438c.23.726.496,1.432.828,2.1,1,2,2.566,3.925,4.656,5.715,1.598,1.33,3.545,2.438,5.754,3.27,1.942.729,4.014,1.061,6.698,1.074,2.442-.013,4.478-.354,6.396-1.074l.346-.109c1.895-.473,3.723-1.438,5.443-2.87,2.051-1.761,3.617-3.685,4.617-5.686,1.036-2.068,1.582-4.446,1.582-6.881Z" fill="#e3831f" stroke="#e3831f" stroke-miterlimit="10"/>
    </g>
  </g>
</svg>