<?xml version="1.0" encoding="UTF-8"?>
<svg id="a" data-name="Light" xmlns="http://www.w3.org/2000/svg" width="1702.957" height="458.364" viewBox="0 0 1702.957 458.364">
  <rect x="1512.019" y="207.216" width="167.87" height="79.826" rx="39.913" ry="39.913" fill="none" stroke="#000" stroke-miterlimit="10" stroke-width="5"/>
  <g>
    <rect x="1512.019" y="207.216" width="167.87" height="79.826" fill="none"/>
    <path d="M1588.005,231.433v5.249c0,.944-.171,1.752-.513,2.423-.342.672-.836,1.187-1.483,1.545-.646.357-1.426.537-2.337.537-.92,0-1.709-.169-2.368-.507s-1.164-.83-1.514-1.478c-.351-.646-.525-1.422-.525-2.325v-9.24c0-.96.171-1.782.513-2.466s.836-1.204,1.483-1.562c.646-.358,1.426-.537,2.338-.537.887,0,1.649.173,2.288.519.64.346,1.125.853,1.459,1.52.334.668.505,1.465.513,2.393v1.123h-2.795v-1.123c0-.374-.058-.693-.171-.958-.114-.265-.281-.466-.501-.604-.22-.138-.484-.207-.793-.207-.342,0-.635.075-.879.226s-.432.368-.562.653c-.131.285-.195.627-.195,1.025v9.24c0,.334.066.627.201.879.134.253.329.444.586.574.256.13.563.195.922.195.35,0,.65-.071.903-.214.252-.143.445-.348.579-.616.135-.269.202-.599.202-.989v-2.734h-1.746v-2.539h4.395Z"/>
    <path d="M1598.552,231.433v5.249c0,.944-.171,1.752-.513,2.423-.342.672-.836,1.187-1.483,1.545-.646.357-1.426.537-2.337.537-.92,0-1.709-.169-2.368-.507s-1.164-.83-1.514-1.478c-.351-.646-.525-1.422-.525-2.325v-9.24c0-.96.171-1.782.513-2.466s.836-1.204,1.483-1.562c.646-.358,1.426-.537,2.338-.537.887,0,1.649.173,2.288.519.64.346,1.125.853,1.459,1.52.334.668.505,1.465.513,2.393v1.123h-2.795v-1.123c0-.374-.058-.693-.171-.958-.114-.265-.281-.466-.501-.604-.22-.138-.484-.207-.793-.207-.342,0-.635.075-.879.226s-.432.368-.562.653c-.131.285-.195.627-.195,1.025v9.24c0,.334.066.627.201.879.134.253.329.444.586.574.256.13.563.195.922.195.35,0,.65-.071.903-.214.252-.143.445-.348.579-.616.135-.269.202-.599.202-.989v-2.734h-1.746v-2.539h4.395Z"/>
    <path d="M1605.73,223.255h2.026l2.063,13.013,1.221-13.013h2.697l-2.355,17.749h-2.723l-1.843-11.768-1.978,11.768h-2.723l-2.368-17.749h2.698l1.221,13.013,2.062-13.013Z"/>
    <path d="M1537.389,253.255h2.686v17.749h-2.686v-17.749ZM1538.745,261.567h3.247c.284,0,.528-.064.732-.195.203-.13.359-.317.47-.562.109-.244.165-.541.165-.891v-2.405c0-.366-.054-.675-.159-.928-.105-.252-.263-.445-.47-.579-.208-.135-.454-.202-.738-.202h-3.247v-2.551h3.271c.854,0,1.585.156,2.19.47.606.313,1.07.773,1.392,1.38.322.605.482,1.332.482,2.179v2.893c0,.83-.163,1.54-.488,2.131-.325.59-.791,1.039-1.397,1.349s-1.333.464-2.179.464h-3.271v-2.552Z"/>
    <path d="M1548.071,253.242h2.648v17.762h-2.648v-17.762ZM1549.292,260.945h3.247c.333,0,.622-.062.866-.184s.43-.299.556-.53c.126-.232.193-.52.201-.861v-1.892c0-.35-.062-.651-.188-.903-.127-.252-.313-.445-.562-.58-.249-.134-.54-.201-.873-.201h-3.247v-2.552h3.052c.952,0,1.766.157,2.441.471.675.312,1.191.772,1.55,1.379s.537,1.333.537,2.179v2.075c0,.871-.179,1.618-.537,2.24-.358.623-.877,1.097-1.556,1.422-.68.326-1.492.488-2.436.488h-3.052v-2.551ZM1552.05,262.947l2.478-.562,2.845,8.618h-2.905l-2.417-8.057Z"/>
    <path d="M1560.937,270.673c-.668-.342-1.179-.834-1.532-1.477-.354-.643-.531-1.42-.531-2.332v-9.473c0-.911.177-1.69.531-2.337.354-.647.864-1.14,1.532-1.478.667-.338,1.473-.507,2.417-.507s1.749.169,2.417.507c.667.338,1.178.83,1.531,1.478.354.646.531,1.426.531,2.337v9.473c0,.912-.177,1.689-.531,2.332-.354.643-.864,1.135-1.531,1.477-.668.342-1.474.514-2.417.514s-1.75-.172-2.417-.514ZM1564.318,268.33c.269-.146.472-.355.61-.628s.208-.601.208-.983v-9.191c0-.383-.069-.71-.208-.982-.139-.273-.342-.48-.61-.623s-.59-.214-.964-.214-.696.071-.965.214-.472.35-.61.623c-.139.272-.207.6-.207.982v9.191c0,.383.068.711.207.983s.342.481.61.628.59.221.965.221.695-.074.964-.221Z"/>
    <path d="M1578.38,261.433v5.249c0,.944-.171,1.752-.513,2.423-.342.672-.836,1.187-1.483,1.545-.646.357-1.426.537-2.337.537-.92,0-1.709-.17-2.368-.507-.659-.338-1.164-.83-1.514-1.478-.351-.646-.525-1.422-.525-2.325v-9.241c0-.96.171-1.782.513-2.466s.836-1.204,1.483-1.562c.646-.357,1.426-.537,2.338-.537.887,0,1.649.173,2.288.52.64.346,1.125.853,1.459,1.52s.505,1.465.513,2.393v1.123h-2.795v-1.123c0-.374-.058-.694-.171-.958-.114-.265-.281-.466-.501-.604s-.484-.208-.793-.208c-.342,0-.635.075-.879.227-.244.15-.432.368-.562.652-.131.285-.195.627-.195,1.025v9.241c0,.334.066.627.201.879.134.252.329.443.586.573.256.131.563.195.922.195.35,0,.65-.07.903-.213.252-.143.445-.348.579-.617.135-.268.202-.598.202-.988v-2.734h-1.746v-2.539h4.395Z"/>
    <path d="M1580.431,253.242h2.649v17.762h-2.649v-17.762ZM1581.652,260.945h3.247c.334,0,.623-.062.867-.184s.429-.299.555-.53c.127-.232.193-.52.202-.861v-1.892c0-.35-.063-.651-.189-.903s-.313-.445-.562-.58c-.248-.134-.539-.201-.873-.201h-3.247v-2.552h3.052c.952,0,1.766.157,2.441.471.676.312,1.192.772,1.551,1.379.357.606.537,1.333.537,2.179v2.075c0,.871-.18,1.618-.537,2.24-.358.623-.877,1.097-1.557,1.422-.68.326-1.491.488-2.436.488h-3.052v-2.551ZM1584.411,262.947l2.479-.562,2.844,8.618h-2.905l-2.417-8.057Z"/>
    <path d="M1594.433,253.255h2.124l4.175,17.749h-2.747l-2.49-12.879-2.49,12.879h-2.746l4.175-17.749ZM1593.017,265.181h5.054v2.502h-5.054v-2.502Z"/>
    <path d="M1611.303,253.255h2.441v17.749h-2.417v-12.915l.195.781-2.808,9.118h-1.514l-2.808-8.874.269-1.025v12.915h-2.49v-17.749h2.526l3.26,10.4,3.345-10.4Z"/>
    <path d="M1625.171,253.255h2.441v17.749h-2.417v-12.915l.195.781-2.808,9.118h-1.514l-2.808-8.874.269-1.025v12.915h-2.49v-17.749h2.526l3.26,10.4,3.345-10.4Z"/>
    <path d="M1632.458,271.004h-2.686v-17.749h2.686v17.749Z"/>
    <path d="M1634.619,253.255h2.209l4.517,12.731-.354.391v-13.122h2.49v17.737h-2.234l-4.479-12.171.354-.403v12.574h-2.502v-17.737Z"/>
    <path d="M1654.516,261.433v5.249c0,.944-.171,1.752-.513,2.423-.342.672-.836,1.187-1.483,1.545-.646.357-1.427.537-2.338.537-.92,0-1.709-.17-2.368-.507-.659-.338-1.164-.83-1.514-1.478-.35-.646-.524-1.422-.524-2.325v-9.241c0-.96.171-1.782.513-2.466s.836-1.204,1.483-1.562c.646-.357,1.426-.537,2.337-.537.887,0,1.65.173,2.289.52.639.346,1.125.853,1.459,1.52.333.667.504,1.465.513,2.393v1.123h-2.796v-1.123c0-.374-.057-.694-.171-.958-.114-.265-.28-.466-.5-.604s-.484-.208-.794-.208c-.342,0-.635.075-.879.227-.244.15-.432.368-.562.652-.13.285-.195.627-.195,1.025v9.241c0,.334.067.627.202.879.134.252.329.443.586.573.256.131.562.195.921.195.35,0,.651-.07.903-.213s.446-.348.58-.617c.135-.268.201-.598.201-.988v-2.734h-1.745v-2.539h4.395Z"/>
  </g>
  <rect x="1149.976" y="207.216" width="167.87" height="79.826" rx="39.913" ry="39.913" fill="none" stroke="#000" stroke-miterlimit="10" stroke-width="5"/>
  <g>
    <rect x="1149.976" y="207.216" width="167.87" height="79.826" fill="none"/>
    <path d="M1163.536,232.22h4.512v29.818h-4.512v-29.818ZM1166.469,257.753h4.635c.697,0,1.233-.209,1.609-.626s.564-1.008.564-1.773v-16.447c0-.766-.188-1.357-.564-1.774s-.912-.625-1.609-.625h-4.635v-4.286h4.84c1.367,0,2.535.253,3.506.759s1.713,1.24,2.226,2.204.769,2.13.769,3.497v16.898c0,1.354-.26,2.516-.779,3.486s-1.264,1.709-2.234,2.215-2.141.759-3.508.759h-4.818v-4.286Z"/>
    <path d="M1181.255,232.22h4.512v29.818h-4.512v-29.818ZM1183.409,232.22h10.889v4.327h-10.889v-4.327ZM1183.409,245.079h9.863v4.307h-9.863v-4.307ZM1183.409,257.712h10.889v4.327h-10.889v-4.327Z"/>
    <path d="M1200.214,261.506c-1.101-.561-1.941-1.374-2.522-2.44s-.865-2.365-.852-3.896v-1.538l4.471-.041v1.477c0,.916.25,1.627.749,2.133s1.214.759,2.144.759c.889,0,1.575-.25,2.061-.749s.729-1.206.729-2.122v-2.604c0-.643-.164-1.189-.492-1.641s-.749-.831-1.262-1.139-1.213-.673-2.102-1.097c-.041-.014-.082-.031-.123-.052s-.082-.037-.123-.051l-.268-.123c-1.176-.574-2.16-1.148-2.953-1.723s-1.459-1.354-1.999-2.338-.81-2.215-.81-3.691v-1.62c0-1.504.283-2.789.851-3.855s1.397-1.873,2.491-2.42,2.414-.82,3.959-.82c1.518,0,2.809.276,3.875.83s1.877,1.367,2.431,2.44.837,2.369.851,3.887v1.62l-4.49.041v-1.538c0-.943-.232-1.665-.697-2.164s-1.121-.748-1.969-.748c-.916,0-1.613.235-2.092.707s-.719,1.125-.719,1.959v1.928c0,.656.161,1.217.482,1.682s.729.844,1.221,1.138,1.168.646,2.029,1.057c.123.055.243.112.359.174s.236.127.359.195c.041.014.088.03.143.051s.104.045.145.072c1.162.561,2.098,1.094,2.809,1.6s1.32,1.22,1.826,2.143.758,2.109.758,3.559v2.604c0,1.531-.283,2.837-.851,3.917s-1.395,1.896-2.481,2.45-2.402.831-3.947.831c-1.559,0-2.889-.28-3.989-.841Z"/>
    <path d="M1219.112,262.039h-4.512v-29.818h4.512v29.818Z"/>
    <path d="M1237.426,245.961v8.818c0,1.586-.287,2.942-.861,4.07s-1.405,1.993-2.492,2.595-2.396.902-3.928.902c-1.545,0-2.871-.284-3.979-.852s-1.955-1.395-2.543-2.481-.881-2.389-.881-3.906v-15.524c0-1.613.287-2.994.861-4.143s1.404-2.023,2.491-2.625,2.396-.902,3.927-.902c1.49,0,2.772.29,3.846.871s1.891,1.433,2.451,2.554.848,2.461.861,4.02v1.887h-4.697v-1.887c0-.629-.096-1.166-.287-1.61s-.471-.782-.84-1.015-.814-.349-1.334-.349c-.574,0-1.066.126-1.477.379s-.725.619-.943,1.098-.328,1.053-.328,1.723v15.524c0,.561.113,1.053.339,1.477s.554.745.984.964.946.328,1.548.328c.588,0,1.094-.12,1.518-.359s.749-.584.975-1.035.338-1.005.338-1.661v-4.594h-2.932v-4.266h7.383Z"/>
    <path d="M1240.872,232.22h3.711l7.588,21.39-.594.656v-22.046h4.184v29.798h-3.754l-7.525-20.446.594-.677v21.123h-4.203v-29.798Z"/>
    <path d="M1264.784,232.22h3.568l7.014,29.818h-4.615l-4.184-21.636-4.184,21.636h-4.613l7.014-29.818ZM1262.405,252.256h8.49v4.204h-8.49v-4.204Z"/>
    <path d="M1274.915,232.22h14.725v4.286h-14.725v-4.286ZM1280.042,234.681h4.471v27.357h-4.471v-27.357Z"/>
    <path d="M1292.264,232.22h4.512v29.818h-4.512v-29.818ZM1294.417,232.22h10.891v4.327h-10.891v-4.327ZM1294.417,245.079h9.865v4.307h-9.865v-4.307ZM1294.417,257.712h10.891v4.327h-10.891v-4.327Z"/>
  </g>
  <rect x="787.932" y="207.347" width="167.87" height="79.826" rx="39.913" ry="39.913" fill="none" stroke="#000" stroke-miterlimit="10" stroke-width="5"/>
  <g>
    <rect x="787.932" y="207.347" width="167.87" height="79.826" fill="none"/>
    <path d="M827.968,223.385h2.124l4.175,17.749h-2.746l-2.49-12.878-2.49,12.878h-2.747l4.175-17.749ZM826.552,235.312h5.054v2.502h-5.054v-2.502Z"/>
    <path d="M835.708,223.374h2.649v17.761h-2.649v-17.761ZM836.928,231.076h3.247c.334,0,.623-.061.867-.183s.429-.3.555-.531c.127-.232.193-.519.202-.86v-1.893c0-.35-.063-.65-.189-.903-.126-.252-.313-.445-.562-.58-.248-.134-.539-.201-.873-.201h-3.247v-2.551h3.052c.952,0,1.766.156,2.441.47s1.192.773,1.551,1.379c.357.606.537,1.333.537,2.18v2.075c0,.871-.18,1.617-.537,2.239-.358.623-.877,1.098-1.557,1.423s-1.491.488-2.436.488h-3.052v-2.552ZM839.687,233.078l2.479-.562,2.844,8.618h-2.905l-2.417-8.057Z"/>
    <path d="M847,223.385h2.686v17.749h-2.686v-17.749ZM848.281,223.385h6.482v2.576h-6.482v-2.576ZM848.281,231.04h5.872v2.563h-5.872v-2.563ZM848.281,238.559h6.482v2.575h-6.482v-2.575Z"/>
    <path d="M859.768,223.385h2.124l4.175,17.749h-2.747l-2.49-12.878-2.49,12.878h-2.746l4.175-17.749ZM858.352,235.312h5.054v2.502h-5.054v-2.502Z"/>
    <path d="M868.984,244.504h-2.453l3.918-23.218h2.466l-3.931,23.218Z"/>
    <path d="M874.221,223.385h2.686v17.749h-2.686v-17.749ZM875.576,231.699h3.247c.285,0,.529-.065.732-.195s.36-.317.471-.562c.109-.244.164-.541.164-.892v-2.404c0-.366-.053-.676-.158-.928-.106-.252-.263-.446-.47-.58-.208-.135-.454-.201-.739-.201h-3.247v-2.552h3.271c.854,0,1.585.157,2.191.47.606.313,1.07.773,1.392,1.38s.482,1.333.482,2.179v2.894c0,.83-.163,1.54-.488,2.13-.326.59-.792,1.04-1.397,1.349-.606.31-1.333.464-2.18.464h-3.271v-2.551Z"/>
    <path d="M886.965,240.805c-.668-.342-1.179-.834-1.532-1.478-.354-.643-.531-1.42-.531-2.331v-9.473c0-.911.177-1.691.531-2.338.354-.647.864-1.14,1.532-1.478.667-.337,1.473-.506,2.417-.506s1.749.169,2.417.506c.667.338,1.178.83,1.531,1.478.354.646.531,1.427.531,2.338v9.473c0,.911-.177,1.688-.531,2.331-.354.644-.864,1.136-1.531,1.478-.668.342-1.474.513-2.417.513s-1.75-.171-2.417-.513ZM890.346,238.462c.269-.146.472-.356.61-.629s.208-.6.208-.982v-9.192c0-.382-.069-.71-.208-.982s-.342-.48-.61-.623c-.269-.142-.59-.213-.964-.213s-.696.071-.965.213c-.269.143-.472.351-.61.623s-.207.601-.207.982v9.192c0,.383.068.71.207.982s.342.482.61.629.59.22.965.22.695-.073.964-.22Z"/>
    <path d="M898.464,241.134h-2.686v-17.749h2.686v17.749Z"/>
    <path d="M900.625,223.385h2.21l4.517,12.732-.354.391v-13.123h2.49v17.737h-2.233l-4.48-12.171.354-.402v12.573h-2.503v-17.737Z"/>
    <path d="M911.538,223.385h8.765v2.552h-8.765v-2.552ZM914.589,224.85h2.661v16.284h-2.661v-16.284Z"/>
    <path d="M848.934,253.385h8.765v2.552h-8.765v-2.552ZM851.986,254.85h2.661v16.284h-2.661v-16.284Z"/>
    <path d="M859.261,253.374h2.649v17.761h-2.649v-17.761ZM860.482,261.076h3.247c.334,0,.623-.061.867-.183s.429-.3.555-.531c.127-.232.193-.519.202-.86v-1.893c0-.35-.063-.65-.189-.903-.126-.252-.313-.445-.562-.58-.248-.134-.539-.201-.873-.201h-3.247v-2.551h3.052c.952,0,1.766.156,2.441.47s1.192.773,1.551,1.379c.357.606.537,1.333.537,2.18v2.075c0,.871-.18,1.617-.537,2.239-.358.623-.877,1.098-1.557,1.423s-1.491.488-2.436.488h-3.052v-2.552ZM863.241,263.078l2.479-.562,2.844,8.618h-2.905l-2.417-8.057Z"/>
    <path d="M873.263,253.385h2.124l4.175,17.749h-2.747l-2.49-12.878-2.49,12.878h-2.746l4.175-17.749ZM871.847,265.312h5.054v2.502h-5.054v-2.502Z"/>
    <path d="M881.966,270.781c-.627-.358-1.106-.875-1.44-1.551s-.5-1.489-.5-2.441v-9.045c0-.96.166-1.778.5-2.454.334-.675.813-1.191,1.44-1.55s1.38-.537,2.259-.537c.887,0,1.644.177,2.271.53.626.354,1.104.873,1.435,1.557.329.684.494,1.502.494,2.454v1.086h-2.71v-1.086c0-.391-.058-.729-.171-1.014-.114-.284-.283-.5-.507-.646s-.494-.22-.812-.22c-.31,0-.574.073-.794.22s-.391.359-.513.641c-.122.28-.183.621-.183,1.02v9.045c0,.398.061.736.183,1.014.122.276.293.488.513.635s.484.219.794.219c.325,0,.598-.074.817-.226.22-.15.387-.364.501-.641.113-.276.171-.614.171-1.013v-1.087h2.71v1.087c-.009.951-.176,1.77-.501,2.453s-.804,1.202-1.434,1.557c-.631.354-1.386.531-2.265.531s-1.632-.18-2.259-.537Z"/>
    <path d="M890.231,253.385h2.686v17.749h-2.686v-17.749ZM892.355,263.102l4.04-9.717h2.991l-7.142,14.685.11-4.968ZM893.807,261.552l1.819-1.819,4.321,11.401h-2.979l-3.162-9.582Z"/>
  </g>
  <rect x="425.889" y="207.281" width="167.87" height="79.826" rx="39.913" ry="39.913" fill="none" stroke="#000" stroke-miterlimit="10" stroke-width="5"/>
  <g>
    <rect x="425.889" y="207.281" width="167.87" height="79.826" fill="none"/>
    <path d="M458.872,261.549c-1.121-.574-1.979-1.401-2.574-2.481s-.892-2.386-.892-3.917v-15.914c0-1.531.297-2.84.892-3.927s1.453-1.914,2.574-2.481,2.475-.852,4.061-.852,2.939.284,4.061.852,1.979,1.395,2.574,2.481.892,2.396.892,3.927v15.914c0,1.531-.297,2.837-.892,3.917s-1.453,1.907-2.574,2.481-2.475.861-4.061.861-2.939-.287-4.061-.861ZM464.552,257.612c.451-.246.793-.598,1.025-1.056s.349-1.009.349-1.651v-15.442c0-.643-.116-1.192-.349-1.65s-.574-.807-1.025-1.046-.991-.359-1.62-.359-1.169.12-1.62.359-.793.588-1.025,1.046-.349,1.008-.349,1.65v15.442c0,.643.116,1.193.349,1.651s.574.81,1.025,1.056.991.369,1.62.369,1.169-.123,1.62-.369ZM461.661,256.094l2.687-3.22,8.962,7.383-2.687,3.22-8.962-7.383Z"/>
    <path d="M489.941,232.285h4.102v29.818h-4.061v-21.697l.328,1.312-4.717,15.319h-2.543l-4.717-14.909.451-1.723v21.697h-4.184v-29.818h4.245l5.476,17.473,5.619-17.473Z"/>
    <path d="M501.364,261.549c-1.121-.574-1.979-1.401-2.574-2.481s-.892-2.386-.892-3.917v-15.914c0-1.531.297-2.84.892-3.927s1.453-1.914,2.574-2.481,2.475-.852,4.061-.852,2.939.284,4.061.852,1.979,1.395,2.574,2.481.892,2.396.892,3.927v15.914c0,1.531-.297,2.837-.892,3.917s-1.453,1.907-2.574,2.481-2.475.861-4.061.861-2.939-.287-4.061-.861ZM507.045,257.612c.451-.246.793-.598,1.025-1.056s.349-1.009.349-1.651v-15.442c0-.643-.116-1.192-.349-1.65s-.574-.807-1.025-1.046-.991-.359-1.62-.359-1.169.12-1.62.359-.793.588-1.025,1.046-.349,1.008-.349,1.65v15.442c0,.643.116,1.193.349,1.651s.574.81,1.025,1.056.991.369,1.62.369,1.169-.123,1.62-.369Z"/>
    <path d="M516.396,232.285h4.512v29.818h-4.512v-29.818ZM519.329,257.817h4.635c.697,0,1.234-.208,1.61-.625s.564-1.009.564-1.774v-16.447c0-.766-.188-1.356-.564-1.773s-.913-.626-1.61-.626h-4.635v-4.286h4.84c1.367,0,2.536.253,3.507.759s1.712,1.241,2.225,2.205.769,2.129.769,3.496v16.898c0,1.354-.26,2.516-.779,3.486s-1.265,1.709-2.235,2.215-2.14.759-3.507.759h-4.819v-4.286Z"/>
    <path d="M534.115,232.285h4.512v29.818h-4.512v-29.818ZM536.268,232.285h10.89v4.327h-10.89v-4.327ZM536.268,245.143h9.864v4.307h-9.864v-4.307ZM536.268,257.776h10.89v4.327h-10.89v-4.327Z"/>
    <path d="M553.074,261.57c-1.101-.561-1.941-1.374-2.522-2.44s-.865-2.365-.851-3.896v-1.538l4.471-.041v1.477c0,.916.25,1.627.749,2.133s1.213.759,2.143.759c.889,0,1.576-.249,2.061-.748s.728-1.207.728-2.123v-2.604c0-.643-.164-1.189-.492-1.641s-.749-.83-1.261-1.138-1.213-.674-2.102-1.098c-.041-.014-.082-.03-.123-.051s-.082-.038-.123-.052l-.267-.123c-1.176-.574-2.16-1.148-2.953-1.723s-1.459-1.354-2-2.338-.81-2.215-.81-3.691v-1.62c0-1.504.284-2.789.851-3.855s1.398-1.873,2.492-2.42,2.413-.82,3.958-.82c1.518,0,2.81.277,3.876.831s1.876,1.367,2.43,2.44.837,2.368.851,3.886v1.62l-4.491.041v-1.538c0-.943-.232-1.664-.697-2.163s-1.121-.749-1.969-.749c-.916,0-1.613.236-2.092.708s-.718,1.124-.718,1.958v1.928c0,.656.161,1.217.482,1.682s.728.845,1.22,1.139,1.169.646,2.03,1.056c.123.055.243.113.359.175s.236.126.359.194c.041.014.089.031.144.052s.103.044.144.071c1.162.561,2.099,1.094,2.81,1.6s1.319,1.221,1.825,2.144.759,2.108.759,3.558v2.604c0,1.531-.284,2.837-.851,3.917s-1.395,1.897-2.481,2.451-2.403.83-3.948.83c-1.559,0-2.888-.28-3.989-.841Z"/>
  </g>
  <g>
    <rect x="163.28" y="207.281" width="167.87" height="79.826" rx="39.913" ry="39.913" fill="none" stroke="#000" stroke-miterlimit="10" stroke-width="5"/>
    <g>
      <rect x="163.28" y="207.281" width="167.87" height="79.826" fill="none"/>
      <path d="M201.915,223.32h2.026l2.063,13.013,1.221-13.013h2.698l-2.356,17.749h-2.722l-1.843-11.768-1.978,11.768h-2.722l-2.368-17.749h2.698l1.221,13.013,2.063-13.013Z"/>
      <path d="M211.241,223.32h2.686v17.749h-2.686v-17.749ZM212.535,223.32h6.482v2.551h-6.482v-2.551ZM212.535,231.144h5.872v2.539h-5.872v-2.539Z"/>
      <path d="M222.52,240.739c-.667-.342-1.178-.834-1.532-1.477-.354-.643-.531-1.42-.531-2.332v-9.473c0-.911.177-1.69.531-2.337.354-.647.864-1.14,1.532-1.478.667-.338,1.473-.507,2.417-.507s1.75.169,2.417.507c.667.338,1.178.83,1.532,1.478.354.646.531,1.426.531,2.337v9.473c0,.912-.177,1.689-.531,2.332-.354.643-.865,1.135-1.532,1.477-.667.342-1.473.513-2.417.513s-1.75-.171-2.417-.513ZM225.901,238.395c.269-.146.472-.355.61-.628.138-.273.208-.601.208-.983v-9.191c0-.383-.069-.71-.208-.982-.139-.273-.342-.48-.61-.623s-.59-.214-.964-.214-.696.071-.964.214-.472.35-.61.623c-.139.272-.208.6-.208.982v9.191c0,.383.069.71.208.983.138.272.342.481.61.628s.59.22.964.22.696-.073.964-.22Z"/>
      <path d="M230.613,223.32h2.82l2.026,12.939,2.026-12.939h2.82l-3.43,17.749h-2.832l-3.43-17.749Z"/>
      <path d="M248.008,244.438h-2.454l3.918-23.218h2.466l-3.931,23.218Z"/>
      <path d="M258.275,223.32h2.209l4.517,12.731-.354.391v-13.122h2.49v17.736h-2.234l-4.48-12.17.354-.403v12.573h-2.502v-17.736Z"/>
      <path d="M269.432,223.32h2.686v17.749h-2.686v-17.749ZM270.726,223.32h6.482v2.551h-6.482v-2.551ZM270.726,231.144h5.872v2.539h-5.872v-2.539Z"/>
      <path d="M280.711,240.739c-.667-.342-1.178-.834-1.532-1.477-.354-.643-.531-1.42-.531-2.332v-9.473c0-.911.177-1.69.531-2.337.354-.647.864-1.14,1.532-1.478.667-.338,1.473-.507,2.417-.507s1.75.169,2.417.507c.667.338,1.178.83,1.532,1.478.354.646.531,1.426.531,2.337v9.473c0,.912-.177,1.689-.531,2.332-.354.643-.865,1.135-1.532,1.477-.667.342-1.473.513-2.417.513s-1.75-.171-2.417-.513ZM284.092,238.395c.269-.146.472-.355.61-.628.138-.273.208-.601.208-.983v-9.191c0-.383-.069-.71-.208-.982-.139-.273-.342-.48-.61-.623s-.59-.214-.964-.214-.696.071-.964.214-.472.35-.61.623c-.139.272-.208.6-.208.982v9.191c0,.383.069.71.208.983.138.272.342.481.61.628s.59.22.964.22.696-.073.964-.22Z"/>
      <path d="M288.804,223.32h2.82l2.026,12.939,2.026-12.939h2.82l-3.43,17.749h-2.832l-3.43-17.749Z"/>
      <path d="M233.158,253.319h2.686v17.749h-2.686v-17.749ZM234.44,253.319h6.482v2.576h-6.482v-2.576ZM234.44,260.973h5.872v2.563h-5.872v-2.563ZM234.44,268.492h6.482v2.576h-6.482v-2.576Z"/>
      <path d="M245.671,260.863l2.49-7.544h2.893l-4.028,9.803-2.747,7.946h-2.893l4.285-10.205ZM245.805,263.671l-.464-1.001-3.809-9.351h2.893l2.271,6.836.537,1.16,4.089,9.753h-2.893l-2.625-7.397Z"/>
      <path d="M252.641,253.319h2.686v17.749h-2.686v-17.749ZM253.996,261.632h3.247c.285,0,.529-.065.732-.195.203-.13.36-.317.47-.562.109-.244.165-.541.165-.892v-2.404c0-.366-.053-.676-.159-.928-.106-.252-.263-.446-.47-.58-.208-.135-.454-.201-.739-.201h-3.247v-2.552h3.271c.854,0,1.585.157,2.191.47.606.313,1.07.773,1.392,1.38.322.606.482,1.333.482,2.179v2.894c0,.83-.163,1.54-.488,2.13-.326.59-.792,1.039-1.397,1.349-.606.31-1.333.464-2.179.464h-3.271v-2.551Z"/>
    </g>
  </g>
  <path d="M54.194,286.841v54.489c0,40.575,32.892,73.467,73.467,73.467h27.955s18.13,0,18.13,0c40.575,0,73.467-32.892,73.467-73.467v-32.315" fill="none" stroke="#000" stroke-linecap="round" stroke-miterlimit="10" stroke-width="5"/>
  <path d="M54.194,207.281v-54.489c0-40.575,32.892-73.467,73.467-73.467h12.14s33.946,0,33.946,0c40.575,0,73.467,32.892,73.467,73.467v32.315" fill="none" stroke="#000" stroke-linecap="round" stroke-miterlimit="10" stroke-width="5"/>
  <g>
    <rect x="9.441" y="227.957" width="103.565" height="38.209" fill="none"/>
    <path d="M14.739,238.187h2.686v17.749h-2.686v-17.749ZM16.485,253.384h2.759c.415,0,.734-.124.958-.372.224-.248.335-.6.335-1.056v-9.79c0-.456-.112-.808-.335-1.056-.224-.249-.543-.373-.958-.373h-2.759v-2.551h2.881c.813,0,1.509.15,2.087.451.578.302,1.02.739,1.324,1.312.306.574.458,1.268.458,2.081v10.059c0,.806-.155,1.498-.464,2.075-.31.578-.753,1.018-1.331,1.318-.578.302-1.274.452-2.087.452h-2.869v-2.552Z"/>
    <path d="M27.105,255.606c-.667-.342-1.178-.834-1.532-1.477-.354-.643-.531-1.42-.531-2.332v-9.473c0-.911.177-1.69.531-2.337.354-.647.864-1.14,1.532-1.478.667-.338,1.473-.507,2.417-.507s1.75.169,2.417.507c.667.338,1.178.83,1.532,1.478.354.646.531,1.426.531,2.337v9.473c0,.912-.177,1.689-.531,2.332-.354.643-.865,1.135-1.532,1.477-.667.342-1.473.513-2.417.513s-1.75-.171-2.417-.513ZM30.486,253.262c.269-.146.472-.355.61-.628.138-.273.208-.601.208-.983v-9.191c0-.383-.069-.71-.208-.982-.139-.273-.342-.48-.61-.623s-.59-.214-.964-.214-.696.071-.964.214-.472.35-.61.623c-.139.272-.208.6-.208.982v9.191c0,.383.069.71.208.983.138.272.342.481.61.628s.59.22.964.22.696-.073.964-.22Z"/>
    <path d="M37.548,255.613c-.622-.338-1.094-.83-1.416-1.478-.321-.646-.482-1.426-.482-2.338v-13.61h2.686v13.696c0,.513.126.905.378,1.178.252.272.61.409,1.074.409.472,0,.836-.137,1.093-.409.256-.272.384-.665.384-1.178v-13.696h2.686v13.61c0,.912-.165,1.691-.495,2.338-.329.647-.804,1.14-1.422,1.478-.619.337-1.367.506-2.246.506-.871,0-1.617-.169-2.24-.506Z"/>
    <path d="M45.843,238.187h2.686v17.749h-2.686v-17.749ZM47.442,253.422h2.795c.456,0,.806-.116,1.05-.348.244-.232.366-.556.366-.971v-2.344c0-.374-.059-.694-.177-.958-.118-.265-.292-.466-.519-.604-.228-.139-.497-.208-.806-.208h-2.71v-2.502h2.673c.423,0,.751-.141.982-.421.232-.281.348-.682.348-1.203v-1.855c0-.415-.114-.736-.342-.964-.228-.228-.549-.342-.964-.342h-2.698v-2.515h2.82c.806,0,1.497.141,2.075.421.578.281,1.017.691,1.318,1.233.301.541.452,1.189.452,1.946v1.893c0,.554-.098,1.039-.293,1.459-.195.419-.472.763-.83,1.031-.358.269-.793.451-1.306.549.562.082,1.04.261,1.435.537.395.277.697.637.909,1.081.211.443.317.962.317,1.556v2.381c0,.773-.148,1.433-.445,1.978-.297.545-.727.962-1.288,1.251s-1.241.434-2.039.434h-3.125v-2.515Z"/>
    <path d="M56.329,238.187h2.686v17.749h-2.686v-17.749ZM57.586,253.384h6.262v2.552h-6.262v-2.552Z"/>
    <path d="M65.533,238.187h2.686v17.749h-2.686v-17.749ZM66.815,238.187h6.482v2.575h-6.482v-2.575ZM66.815,245.84h5.872v2.563h-5.872v-2.563ZM66.815,253.36h6.482v2.576h-6.482v-2.576Z"/>
    <path d="M78.79,238.187h8.765v2.551h-8.765v-2.551ZM81.841,239.652h2.661v16.284h-2.661v-16.284Z"/>
    <path d="M91.338,238.187h2.124l4.175,17.749h-2.747l-2.49-12.879-2.49,12.879h-2.747l4.175-17.749ZM89.922,250.113h5.054v2.503h-5.054v-2.503Z"/>
    <path d="M99.078,238.187h2.686v17.749h-2.686v-17.749ZM100.433,246.5h3.247c.285,0,.529-.064.732-.195.203-.13.36-.317.47-.562.109-.244.165-.541.165-.891v-2.405c0-.366-.053-.675-.159-.928-.106-.252-.263-.445-.47-.579-.208-.135-.454-.202-.739-.202h-3.247v-2.551h3.271c.854,0,1.585.156,2.191.47.606.313,1.07.773,1.392,1.38.322.605.482,1.332.482,2.179v2.893c0,.83-.163,1.54-.488,2.131-.326.59-.792,1.039-1.397,1.349-.606.31-1.333.464-2.179.464h-3.271v-2.552Z"/>
  </g>
  <polygon points="247.214 197.771 257.322 160.271 237.106 160.271 247.214 197.771"/>
  <line x1="343.41" y1="247.194" x2="413.454" y2="247.194" stroke="#000" stroke-linecap="round" stroke-miterlimit="10" stroke-width="5"/>
  <line x1="646.198" y1="247.194" x2="606.193" y2="247.194" stroke="#000" stroke-linecap="round" stroke-miterlimit="10" stroke-width="5"/>
  <line x1="753.671" y1="247.194" x2="715.715" y2="247.194" stroke="#000" stroke-linecap="round" stroke-miterlimit="10" stroke-width="5"/>
  <polygon points="778.671 247.194 741.171 257.302 741.171 237.087 778.671 247.194"/>
  <g>
    <rect x="655.802" y="215.118" width="56.213" height="64.023" fill="none"/>
    <path d="M658.967,240.686c-.655-.333-1.155-.817-1.501-1.452-.346-.635-.515-1.408-.507-2.319v-.916l2.661-.024v.879c0,.546.148.969.445,1.27.297.302.722.452,1.276.452.529,0,.938-.148,1.227-.446.289-.297.433-.718.433-1.263v-1.551c0-.382-.098-.708-.293-.977s-.446-.494-.75-.678c-.306-.183-.723-.4-1.251-.652-.024-.008-.049-.019-.073-.031-.024-.012-.049-.021-.073-.03l-.159-.073c-.7-.342-1.286-.684-1.758-1.025-.472-.342-.869-.806-1.19-1.392-.321-.586-.482-1.318-.482-2.197v-.964c0-.896.169-1.66.506-2.295.338-.635.832-1.115,1.483-1.44.651-.325,1.436-.488,2.356-.488.903,0,1.672.164,2.307.494.635.329,1.117.813,1.446,1.452.33.64.499,1.41.507,2.313v.965l-2.673.024v-.916c0-.562-.139-.99-.415-1.288-.277-.297-.667-.445-1.172-.445-.545,0-.96.141-1.245.421-.285.281-.427.67-.427,1.166v1.147c0,.391.096.725.287,1.001.191.277.433.503.726.678s.696.385,1.208.629c.073.032.145.066.214.104.069.036.14.075.213.116.024.008.053.018.085.03.032.012.061.026.085.043.691.334,1.249.651,1.672.952.423.301.785.726,1.086,1.275.301.549.452,1.256.452,2.118v1.55c0,.912-.169,1.689-.507,2.332-.337.643-.83,1.129-1.477,1.458-.647.33-1.431.495-2.35.495-.928,0-1.719-.167-2.375-.501Z"/>
    <path d="M670.216,241.004h-2.686v-17.749h2.686v17.749Z"/>
    <path d="M672.377,223.255h2.209l4.517,12.732-.354.391v-13.123h2.49v17.737h-2.234l-4.48-12.171.354-.402v12.573h-2.502v-17.737Z"/>
    <path d="M692.275,231.433v5.249c0,.944-.171,1.752-.513,2.423-.342.672-.836,1.187-1.483,1.545-.646.357-1.426.537-2.337.537-.92,0-1.709-.169-2.368-.507s-1.164-.83-1.514-1.478c-.35-.646-.525-1.422-.525-2.325v-9.24c0-.96.171-1.782.513-2.466s.836-1.204,1.483-1.562c.646-.358,1.426-.537,2.337-.537.887,0,1.65.173,2.289.519.639.346,1.125.853,1.459,1.52.333.668.504,1.465.513,2.393v1.123h-2.795v-1.123c0-.374-.057-.693-.171-.958-.114-.265-.281-.466-.5-.604-.22-.138-.484-.207-.793-.207-.342,0-.635.075-.879.226s-.432.368-.562.653c-.13.285-.195.627-.195,1.025v9.24c0,.334.067.627.202.879.134.253.329.444.586.574.256.13.563.195.921.195.35,0,.651-.071.903-.214.252-.143.446-.348.58-.616.135-.269.202-.599.202-.989v-2.734h-1.746v-2.539h4.395Z"/>
    <path d="M694.325,223.255h2.686v17.749h-2.686v-17.749ZM695.583,238.453h6.262v2.551h-6.262v-2.551Z"/>
    <path d="M703.529,223.255h2.686v17.749h-2.686v-17.749ZM704.811,223.255h6.482v2.576h-6.482v-2.576ZM704.811,230.909h5.872v2.563h-5.872v-2.563ZM704.811,238.428h6.482v2.575h-6.482v-2.575Z"/>
    <path d="M668.837,253.255h8.765v2.552h-8.765v-2.552ZM671.889,254.719h2.661v16.284h-2.661v-16.284Z"/>
    <path d="M681.386,253.255h2.124l4.175,17.749h-2.747l-2.49-12.879-2.49,12.879h-2.747l4.175-17.749ZM679.97,265.181h5.054v2.502h-5.054v-2.502Z"/>
    <path d="M689.125,253.255h2.686v17.749h-2.686v-17.749ZM690.48,261.568h3.247c.285,0,.529-.065.732-.195.203-.131.36-.318.47-.562.109-.244.165-.541.165-.891v-2.404c0-.367-.053-.676-.159-.928-.106-.253-.263-.446-.47-.58-.208-.135-.454-.201-.739-.201h-3.247v-2.552h3.271c.854,0,1.585.157,2.191.47.606.313,1.07.773,1.392,1.38.322.606.482,1.332.482,2.179v2.893c0,.83-.163,1.541-.488,2.131-.326.59-.792,1.039-1.397,1.349-.606.31-1.333.464-2.179.464h-3.271v-2.551Z"/>
  </g>
  <line x1="1011.728" y1="247.194" x2="968.549" y2="247.194" stroke="#000" stroke-linecap="round" stroke-miterlimit="10" stroke-width="5"/>
  <line x1="1119.201" y1="247.194" x2="1081.245" y2="247.194" stroke="#000" stroke-linecap="round" stroke-miterlimit="10" stroke-width="5"/>
  <polygon points="1144.201 247.194 1106.701 257.302 1106.701 237.087 1144.201 247.194"/>
  <g>
    <rect x="1021.332" y="215.118" width="56.213" height="64.023" fill="none"/>
    <path d="M1024.497,240.686c-.654-.333-1.155-.817-1.501-1.452s-.515-1.408-.507-2.319v-.916l2.661-.024v.879c0,.546.148.969.445,1.27.298.302.723.452,1.276.452.528,0,.938-.148,1.227-.446.289-.297.434-.718.434-1.263v-1.551c0-.382-.098-.708-.293-.977s-.446-.494-.751-.678c-.306-.183-.723-.4-1.251-.652-.024-.008-.049-.019-.073-.031-.024-.012-.049-.021-.073-.03l-.159-.073c-.7-.342-1.286-.684-1.758-1.025s-.868-.806-1.19-1.392c-.321-.586-.481-1.318-.481-2.197v-.964c0-.896.169-1.66.506-2.295.338-.635.832-1.115,1.483-1.44s1.437-.488,2.356-.488c.903,0,1.672.164,2.307.494.635.329,1.117.813,1.446,1.452.33.64.499,1.41.507,2.313v.965l-2.673.024v-.916c0-.562-.139-.99-.415-1.288-.277-.297-.668-.445-1.172-.445-.546,0-.961.141-1.245.421-.285.281-.428.67-.428,1.166v1.147c0,.391.096.725.287,1.001.191.277.434.503.727.678s.695.385,1.208.629c.073.032.145.066.214.104.069.036.141.075.214.116.024.008.053.018.085.03.032.012.062.026.086.043.691.334,1.249.651,1.672.952s.785.726,1.087,1.275c.301.549.451,1.256.451,2.118v1.55c0,.912-.169,1.689-.507,2.332-.337.643-.83,1.129-1.477,1.458-.647.33-1.431.495-2.35.495-.928,0-1.72-.167-2.375-.501Z"/>
    <path d="M1035.746,241.004h-2.686v-17.749h2.686v17.749Z"/>
    <path d="M1037.907,223.255h2.209l4.517,12.732-.354.391v-13.123h2.49v17.737h-2.234l-4.479-12.171.354-.402v12.573h-2.502v-17.737Z"/>
    <path d="M1057.804,231.433v5.249c0,.944-.171,1.752-.513,2.423-.342.672-.836,1.187-1.483,1.545-.646.357-1.427.537-2.338.537-.92,0-1.709-.169-2.368-.507s-1.164-.83-1.514-1.478c-.35-.646-.524-1.422-.524-2.325v-9.24c0-.96.171-1.782.513-2.466s.836-1.204,1.483-1.562c.646-.358,1.426-.537,2.337-.537.887,0,1.65.173,2.289.519s1.125.853,1.459,1.52c.333.668.504,1.465.513,2.393v1.123h-2.796v-1.123c0-.374-.057-.693-.171-.958s-.28-.466-.5-.604c-.22-.138-.484-.207-.794-.207-.342,0-.635.075-.879.226s-.432.368-.562.653-.195.627-.195,1.025v9.24c0,.334.067.627.202.879.134.253.329.444.586.574.256.13.562.195.921.195.35,0,.651-.071.903-.214s.446-.348.58-.616c.135-.269.201-.599.201-.989v-2.734h-1.745v-2.539h4.395Z"/>
    <path d="M1059.855,223.255h2.686v17.749h-2.686v-17.749ZM1061.112,238.453h6.263v2.551h-6.263v-2.551Z"/>
    <path d="M1069.059,223.255h2.686v17.749h-2.686v-17.749ZM1070.34,223.255h6.482v2.576h-6.482v-2.576ZM1070.34,230.909h5.872v2.563h-5.872v-2.563ZM1070.34,238.428h6.482v2.575h-6.482v-2.575Z"/>
    <path d="M1034.367,253.255h8.765v2.552h-8.765v-2.552ZM1037.419,254.719h2.661v16.284h-2.661v-16.284Z"/>
    <path d="M1046.916,253.255h2.124l4.175,17.749h-2.747l-2.49-12.879-2.49,12.879h-2.746l4.175-17.749ZM1045.5,265.181h5.054v2.502h-5.054v-2.502Z"/>
    <path d="M1054.655,253.255h2.686v17.749h-2.686v-17.749ZM1056.009,261.568h3.247c.285,0,.529-.065.732-.195.203-.131.36-.318.471-.562.109-.244.164-.541.164-.891v-2.404c0-.367-.053-.676-.158-.928-.106-.253-.263-.446-.47-.58-.208-.135-.454-.201-.739-.201h-3.247v-2.552h3.271c.854,0,1.585.157,2.191.47.606.313,1.07.773,1.392,1.38s.482,1.332.482,2.179v2.893c0,.83-.163,1.541-.488,2.131-.326.59-.792,1.039-1.397,1.349-.606.31-1.333.464-2.18.464h-3.271v-2.551Z"/>
  </g>
  <line x1="1370.285" y1="247.194" x2="1331.671" y2="247.194" stroke="#000" stroke-linecap="round" stroke-miterlimit="10" stroke-width="5"/>
  <line x1="1477.759" y1="247.194" x2="1439.802" y2="247.194" stroke="#000" stroke-linecap="round" stroke-miterlimit="10" stroke-width="5"/>
  <polygon points="1502.759 247.194 1465.259 257.302 1465.259 237.087 1502.759 247.194"/>
  <g>
    <rect x="1379.889" y="215.118" width="56.213" height="64.023" fill="none"/>
    <path d="M1383.053,240.686c-.655-.333-1.155-.817-1.501-1.452-.347-.635-.516-1.408-.507-2.319v-.916l2.661-.024v.879c0,.546.148.969.445,1.27.297.302.722.452,1.275.452.529,0,.938-.148,1.228-.446.288-.297.433-.718.433-1.263v-1.551c0-.382-.098-.708-.293-.977s-.445-.494-.75-.678c-.306-.183-.723-.4-1.252-.652-.024-.008-.049-.019-.073-.031-.024-.012-.049-.021-.073-.03l-.158-.073c-.7-.342-1.286-.684-1.758-1.025-.473-.342-.869-.806-1.19-1.392s-.482-1.318-.482-2.197v-.964c0-.896.169-1.66.507-2.295s.832-1.115,1.483-1.44c.65-.325,1.436-.488,2.355-.488.903,0,1.673.164,2.308.494.635.329,1.117.813,1.446,1.452.33.64.498,1.41.507,2.313v.965l-2.674.024v-.916c0-.562-.139-.99-.415-1.288-.276-.297-.667-.445-1.172-.445-.545,0-.96.141-1.245.421-.285.281-.427.67-.427,1.166v1.147c0,.391.096.725.287,1.001.19.277.433.503.726.678s.696.385,1.209.629c.073.032.145.066.214.104.068.036.14.075.213.116.024.008.053.018.086.03.032.012.061.026.085.043.691.334,1.249.651,1.673.952.423.301.785.726,1.086,1.275.301.549.452,1.256.452,2.118v1.55c0,.912-.169,1.689-.507,2.332s-.83,1.129-1.477,1.458c-.647.33-1.431.495-2.351.495-.928,0-1.719-.167-2.374-.501Z"/>
    <path d="M1394.302,241.004h-2.686v-17.749h2.686v17.749Z"/>
    <path d="M1396.463,223.255h2.21l4.517,12.732-.354.391v-13.123h2.49v17.737h-2.233l-4.48-12.171.354-.402v12.573h-2.503v-17.737Z"/>
    <path d="M1416.36,231.433v5.249c0,.944-.171,1.752-.513,2.423-.342.672-.836,1.187-1.483,1.545-.646.357-1.426.537-2.337.537-.92,0-1.709-.169-2.368-.507s-1.164-.83-1.514-1.478c-.351-.646-.525-1.422-.525-2.325v-9.24c0-.96.171-1.782.513-2.466s.836-1.204,1.483-1.562c.646-.358,1.426-.537,2.338-.537.887,0,1.649.173,2.288.519.64.346,1.125.853,1.459,1.52.334.668.505,1.465.513,2.393v1.123h-2.795v-1.123c0-.374-.058-.693-.171-.958-.114-.265-.281-.466-.501-.604-.22-.138-.484-.207-.793-.207-.342,0-.635.075-.879.226s-.432.368-.562.653c-.131.285-.195.627-.195,1.025v9.24c0,.334.066.627.201.879.134.253.329.444.586.574.256.13.563.195.922.195.35,0,.65-.071.903-.214.252-.143.445-.348.579-.616.135-.269.202-.599.202-.989v-2.734h-1.746v-2.539h4.395Z"/>
    <path d="M1418.411,223.255h2.686v17.749h-2.686v-17.749ZM1419.669,238.453h6.262v2.551h-6.262v-2.551Z"/>
    <path d="M1427.615,223.255h2.686v17.749h-2.686v-17.749ZM1428.897,223.255h6.481v2.576h-6.481v-2.576ZM1428.897,230.909h5.871v2.563h-5.871v-2.563ZM1428.897,238.428h6.481v2.575h-6.481v-2.575Z"/>
    <path d="M1392.922,253.255h8.765v2.552h-8.765v-2.552ZM1395.974,254.719h2.661v16.284h-2.661v-16.284Z"/>
    <path d="M1405.471,253.255h2.124l4.175,17.749h-2.746l-2.49-12.879-2.49,12.879h-2.747l4.175-17.749ZM1404.055,265.181h5.054v2.502h-5.054v-2.502Z"/>
    <path d="M1413.211,253.255h2.686v17.749h-2.686v-17.749ZM1414.566,261.568h3.247c.284,0,.528-.065.732-.195.203-.131.359-.318.47-.562.109-.244.165-.541.165-.891v-2.404c0-.367-.054-.676-.159-.928-.105-.253-.263-.446-.47-.58-.208-.135-.454-.201-.738-.201h-3.247v-2.552h3.271c.854,0,1.585.157,2.19.47.606.313,1.07.773,1.392,1.38.322.606.482,1.332.482,2.179v2.893c0,.83-.163,1.541-.488,2.131s-.791,1.039-1.397,1.349-1.333.464-2.179.464h-3.271v-2.551Z"/>
  </g>
</svg>