<?xml version="1.0" encoding="UTF-8"?>
<svg xmlns="http://www.w3.org/2000/svg" width="2398.735" height="1166.926" viewBox="0 0 2398.735 1166.926">
  <g id="a" data-name="FTI_smol_-_Light">
    <path d="M2036.585,521.11c-.134.321-.277.636-.418.953.142-.316.282-.634.418-.953Z"/>
    <path d="M541.469,597.579c2.894,16.247,17.67,29.167,33.673,28.864,14.143-.267,28.294-.047,42.442-.047,339.339.017,1128.665.08,1183.99-.012,20.9-.035,34.071-11.428,37.149-32.139.77-5.184.674-10.523.678-15.791.038-49.201.016-98.402-.006-147.603-.002-5.701.013-11.406-.201-17.101-.346-9.169-3.465-17.178-9.751-24.076-7.771-8.529-17.289-12.286-28.7-12.268-48.143.076-1128.831.206-1221.319-.115-20.364-.071-36.155,14.355-38.47,32.283-.511,3.959-.531,8-.534,12.003-.047,54.902-.073,109.805-.021,164.707.004,3.768.409,7.581,1.07,11.295ZM549.034,422.395c.004-4.207-.028-8.529.867-12.598,3.316-15.075,16.364-23.724,30.226-23.677,76.86.263,869.546.06,1189.027.082,10.558,0,21.117-.011,31.673.127,16.929.221,29.407,12.656,29.709,29.707.179,10.132.038,20.271.036,30.406-.006,46.244.06,92.487-.126,138.73-.02,4.958-.87,10.128-2.456,14.821-3.619,10.71-15.139,17.861-26.585,17.829-76.65-.216-153.3-.104-229.95-.103-127.328.002-254.656,0-381.984,0v.021c-200.177,0-400.354,0-600.531,0-3.378,0-6.783-.289-10.131.029-13.313,1.267-28.829-9.511-29.658-28.138-.103-2.319-.128-4.644-.129-6.966-.013-53.423-.036-106.846.011-160.269Z"/>
    <path d="M1785.146,686.49c-1.257-.29-2.083-2.455-3.335-4.07l-.804-1.656c-.951-1.585-2.198-2.718-2.029-3.568.428-2.156-.285-3.626-1.591-5.148-20.185-23.521-45.474-33.319-75.881-26.349-36.239,8.307-61.204,42.513-55.3,84.761,2.197,15.724,9.519,29.134,20.017,40.931,22.506,25.288,58.78,33.037,88.321,18.328,36.035-17.942,51.494-60.624,34.687-98.904-.829-1.889-1.474-3.724-4.086-4.325ZM1718.389,784.353c-35.25-.345-65.084-31.295-64.051-65.795-1.173-34.762,28.859-65.639,63.8-65.973,35.191-.336,64.952,29.956,65.289,64.749.383,39.554-32.882,67.333-65.038,67.019Z"/>
    <path d="M1121.551,654.13c-24.244-14.476-49.651-14.717-74.014-.89-24.701,14.019-36.596,36.414-37.03,64.841.23,4.256.006,8.544.758,12.654,4.84,26.454,19.574,45.984,43.126,58.394,27.242,14.354,64.21,8.921,85.484-14.435,19.422-21.323,25.468-45.492,18.178-73.128-5.504-20.864-18.309-36.573-36.503-47.437ZM1081.478,784.295c-33.95-1.309-63.624-31.806-62.266-68.338,1.267-34.059,30.569-65.239,68.503-63.245,30.696,1.613,61.666,29.878,60.458,65.978.76,36.437-31.157,66.976-66.695,65.605Z"/>
    <path d="M1322.972,648.991c-24.058-9.667-47.896-7.47-69.203,7.73-23.305,16.625-32.877,40.005-31.278,68.584,1.844,32.964,33.237,72.206,78.998,71.766,7.802-.513,16.926-1.767,25.638-5.413,33.949-14.209,53.271-51.795,43.125-89.208-6.872-25.343-22.956-43.686-47.281-53.46ZM1299.164,784.157c-37.586,2.01-67.787-28.525-68.367-65.305.516-37.739,30.209-64.355,60.674-66.087,40.964-2.328,67.682,31.855,68.811,62.088,1.433,38.387-27.677,67.516-61.118,69.304Z"/>
    <path d="M872.932,643.544c-21.546-.033-40.205,7.497-54.751,23.532-13.126,14.469-19.678,31.768-19.447,53.189.087,1.864.007,5.479.458,9.027,4.222,33.203,35.653,63.882,67.423,67.213,34.615,3.63,67.318-15.572,78.751-50.214,17.131-51.904-24.511-102.674-72.434-102.747ZM936.892,718.466c-.868,38.618-30.901,65.79-65.062,65.758-35.302-.033-64.578-30.251-64.489-66.127.086-34.586,29.387-66.758,65.177-65.148,35.211.101,65.176,29.906,64.375,65.517Z"/>
    <path d="M1559.707,665.894c-19.61-19.73-43.156-26.201-69.615-20.188-42.645,9.69-65.71,54.622-52.895,95.744,4.405,14.135,12.625,25.599,23.426,35.466,20.959,19.147,45.316,24.972,72.199,16.591,32.167-10.029,51.678-38.21,51.815-71.994-.694-5.429-1.067-10.922-2.144-16.273-3.149-15.644-11.63-28.121-22.786-39.345ZM1509.678,784.24c-37.33,1.144-66.55-29.93-67.171-64.168-.675-37.203,29.423-67.859,63.846-67.236,34.884-1.667,65.502,29.578,65.675,64.883.186,37.947-30.976,65.56-62.351,66.522Z"/>
    <path d="M711.618,664.606c-20.153-19.84-51.595-26.426-78.046-16.2-29.655,11.464-47.641,41.712-47.134,69.754.573,5.018.879,10.083,1.767,15.045,3.053,17.063,11.896,30.784,24.321,42.65,19.83,18.938,43.132,25.034,69.461,18.833,35.455-8.35,60.95-43.9,54.316-85.482-2.836-17.774-11.95-32.063-24.685-44.6ZM660.599,784.124c-36.159.604-65.187-30.785-65.177-65.476.011-36.821,31.178-67.46,67.249-66.019,28.925,1.155,62.175,25.334,62.243,65.245.072,42.567-34.231,66.627-64.315,66.25Z"/>
    <path d="M566.163,585.193c.001,1.897-.034,3.824.264,5.685.953,5.938,4.18,8.794,10.288,9.052,4.006.17,8.023.106,12.035.106,200.183.004,400.367.003,600.55.003v-.03c198.494,0,396.988,0,595.483-.001,5.701,0,11.405.078,17.104-.06,7.579-.184,10.626-3.083,11.442-10.648.158-1.465.179-2.95.18-4.426.011-54.48.016-108.96.003-163.441,0-2.532.018-5.087-.298-7.59-.714-5.653-4.931-9.545-10.567-9.894-2.104-.13-4.222-.046-6.334-.046-396.144.011-792.288.023-1188.432.034-9.714,0-19.428-.076-29.14.002-7.268.058-11.361,3.649-12.31,10.859-.384,2.916-.335,5.901-.335,8.854.005,53.847.031,107.693.067,161.54Z" fill="none" stroke="#000" stroke-miterlimit="10" stroke-width="10"/>
    <path d="M1718.505,662.74c-34.411,1.543-54.129,27.25-54.143,55.429-.014,29.403,20.445,55.661,54.958,55.567,31.078-.085,54.222-23.951,53.731-56.036-.506-33.132-25.133-54.254-54.546-54.96ZM1718.274,766.985c-28.519-.289-46.839-23.37-47.484-48.726,1.28-28.266,22.26-48.79,48.456-48.485,26.2.305,47.573,20.96,47.23,48.791-.353,28.648-21.368,48.693-48.202,48.421Z"/>
    <path d="M1083.389,663.016c-33.63.484-53.277,25.887-54.022,55.386.526,29.848,21.14,55.374,54.613,55.26,33.6-.114,54.491-25.456,54.237-55.552-.267-31.634-23.109-55.551-54.828-55.095ZM1084.057,766.96c-28.358.17-47.818-21.682-47.998-48.649-.171-25.724,19.509-47.565,47.548-48.801,24.858.906,47.954,18.86,47.991,48.33.037,28.947-20.364,48.957-47.542,49.12Z"/>
    <path d="M1295.652,662.955c-29.332-.028-53.951,21.986-54.39,55.728.411,30.676,23.178,55.214,54.341,55.119,30.898-.094,54.75-23.376,54.323-55.7-.456-34.488-25.4-55.119-54.273-55.147ZM1296.327,767.033c-27.401.29-48.105-20.718-48.461-48.229-.337-26.064,19.007-47.607,47.047-49.155,23.567-.079,48.052,17.938,48.478,48.324.372,26.56-20.245,48.777-47.064,49.06Z"/>
    <path d="M873.476,662.951c-26.553-.908-54.604,17.297-55.801,54.282-.971,30.012,20.554,55.703,53.523,56.568,27.889.732,53.769-19.858,55.206-54.249.115-29.936-20.464-55.492-52.928-56.602ZM871.73,767.066c-28.799-.062-47.992-25.149-47.564-49.273.828-27.293,23.098-49.505,49.394-48.03,28.131,1.579,46.67,23.597,46.181,49.234-.521,27.298-20.792,48.127-48.011,48.068Z"/>
    <path d="M1540.873,674.924c-17.538-13.945-37.052-16.075-57.026-6.617-28.354,13.426-37.844,46.701-26.038,73.288,13.142,29.596,48.047,41.113,76.075,25.053,18.474-10.585,27.025-27.088,27.561-45.621-.071-20.222-6.634-35.02-20.573-46.104ZM1506.79,767.059c-26.811-.215-47.455-22.063-47.366-50.019.068-21.582,19.021-47.446,48.165-47.395,25.557.045,47.485,22.718,47.244,48.83.381,24.358-19.119,48.817-48.043,48.584Z"/>
    <path d="M660.784,662.905c-36.62-.09-56.268,31.16-54.494,54.568-2.022,27.434,20.071,56.346,53.991,56.361,29.817.014,54.219-23.555,54.244-56.43.018-24.998-20.446-54.418-53.741-54.499ZM659.753,766.995c-27.881.039-47.999-24.799-47.079-48.114-1.299-22.586,18.426-49.417,48.023-49.25,25.32.142,47.294,22.665,47.291,48.295-.002,25.017-18.484,49.028-48.235,49.069Z"/>
    <path d="M1718.966,678.08c-21.612-.2-39.528,17.95-39.624,40.143.307,21.253,14.403,39.728,39.202,40.281,22.164.494,39.432-17.343,39.681-39.876.243-22.003-17.517-40.347-39.258-40.548ZM1718.603,751.842c-17.282.109-32.67-15.623-32.72-33.063-.052-17.899,15.247-33.807,32.738-33.667,19.625.157,32.747,16.398,32.941,32.737.222,18.647-14.408,33.876-32.959,33.993Z"/>
    <path d="M1083.706,678.146c-21.351.239-38.875,17.193-39.277,39.807-.065,20.685,13.99,40.518,39.555,40.44,25.284-.077,39.064-19.317,39.258-40.091.206-21.977-17.69-40.401-39.536-40.156ZM1083.99,751.756c-18.583-.125-32.315-13.866-32.929-33.291-.543-17.176,15.218-33.287,32.319-33.509,16.946-.219,33.902,15.812,33.383,32.587-.66,21.327-15.454,34.33-32.772,34.213Z"/>
    <path d="M1295.648,678.199c-21.565-.507-39.27,17.954-39.249,40.261-.727,17.483,12.754,39.792,39.293,40.129,21.9.279,40.016-18.171,39.295-40.827-.794-24.93-18.609-39.076-39.339-39.563ZM1295.273,751.907c-17.739-.317-32.958-16.554-32.52-34.696.416-17.227,16.498-32.774,33.603-32.146,16.838.618,31.763,13.826,32.102,33.549.306,17.764-15.977,33.601-33.186,33.293Z"/>
    <path d="M873.481,678.245c-22.095-.12-40.134,13.873-40.78,39.28-.611,24.038,15.974,40.363,38.378,40.903,24.476.59,39.829-18.406,40.283-39.773.551-21.097-16.977-40.296-37.88-40.41ZM872.29,751.709c-20.22-.193-32.349-14.914-33.012-33.193-.654-18.04,15.126-33.539,32.741-33.476,16.798.06,33.232,15.77,32.863,32.294-.405,18.124-12.777,34.564-32.592,34.375Z"/>
    <path d="M1507.711,678.203c-25.678.105-40.741,21.224-39.459,40.443-.409,23.926,17.729,39.677,38.7,39.874,22.186.208,40.044-17.778,39.361-41.369-.628-21.689-17.524-39.034-38.601-38.948ZM1507.061,751.792c-18.09-.139-33.056-15.876-32.438-33.73.054-17.951,14.747-32.963,32.364-33.067,17.492-.103,32.808,15.245,32.907,32.688.108,19.168-15.244,34.243-32.833,34.109Z"/>
    <path d="M660.124,678.239c-23.337-.101-40.062,19.505-38.707,39.741-1.435,20.93,14.495,40.182,38.541,40.553,23.228.357,39.754-19.381,39.471-40.686-.246-18.493-14.098-39.499-39.305-39.608ZM660.215,751.873c-17.787-.218-32.587-15.296-32.396-33.004-.901-17.036,13.445-33.915,32.695-33.931,16.866-.014,32.439,15.758,32.346,32.621-.104,18.829-15.042,34.53-32.646,34.314Z"/>
  </g>
  <g id="b" data-name="MAIN_Menu_-_Light">
    <g>
      <rect x="566.431" y="422.147" width="1246.51" height="65.016" fill="none"/>
      <path d="M649.541,459.256c1.025,2.03,1.519,4.028,1.519,5.936,0,5.087-1.865,9.264-5.549,12.418-3.44,3.179-7.792,4.819-12.869,4.819h-.472c-4.787,0-9.197-1.702-13.108-5.055-3.055-2.586-3.95-4.869-4.6-6.536-.097-.243-.187-.478-.283-.701l4.34-1.863c.116.269.227.55.342.843.545,1.396,1.11,2.838,3.266,4.661,3.086,2.649,6.369,3.93,10.045,3.93h.473c3.905,0,7.091-1.186,9.73-3.625,2.728-2.338,3.965-5.143,3.965-8.891,0-1.161-.331-2.465-.933-3.667-.517-.848-1.268-1.967-2.267-2.633-1.147-.906-2.621-1.757-4.106-2.392-.963-.413-2.047-.746-3.304-1.131-.697-.215-1.424-.439-2.179-.689l-6.945-1.85c-3.743-1.149-6.441-2.881-8.337-5.317-2.057-2.643-3.098-5.75-3.098-9.242,0-4.318,1.792-8.023,5.322-11.013,3.355-3.099,7.164-4.574,11.917-4.574h.47c4.774.276,8.76,1.913,11.986,4.869,2.451,2.177,3.934,4.781,4.505,7.932l-4.649.841c-.385-2.128-1.315-3.752-3.02-5.269-2.43-2.227-5.438-3.449-8.961-3.657l-.333.005c-3.54,0-6.253,1.046-8.789,3.389-2.534,2.148-3.729,4.571-3.729,7.476,0,2.418.708,4.55,2.102,6.342,1.299,1.67,3.178,2.839,5.915,3.682l6.999,1.865c.857.278,1.547.491,2.208.694,1.332.408,2.585.793,3.783,1.306,1.882.806,3.714,1.87,5.032,2.924,1.611,1.064,2.744,2.715,3.618,4.172l-.005.003Z" stroke="#000" stroke-miterlimit="10" stroke-width="2"/>
      <path d="M746.926,432.902c1.091,2.177,1.667,4.666,1.667,7.195v25.737c0,2.529-.576,5.021-1.667,7.197-1.02,2.045-2.564,3.96-4.588,5.695-1.806,1.505-3.748,2.529-5.792,3.063-1.866.68-3.875,1.024-6.135,1.046h-.236c-2.524-.02-4.536-.359-6.496-1.094-2.13-.801-4.026-1.887-5.641-3.232-2.05-1.755-3.594-3.672-4.617-5.717-1.091-2.177-1.667-4.666-1.667-7.192v-25.738c0-2.526.579-5.015,1.667-7.194,1.022-2.045,2.567-3.963,4.59-5.695,1.807-1.507,3.748-2.529,5.792-3.062,1.929-.704,4.014-1.049,6.371-1.049,2.529,0,4.793.366,6.732,1.093,2.13.799,4.026,1.887,5.644,3.233,1.797,1.537,3.221,3.402,4.378,5.714h-.002ZM716.48,439.861v23.292l27.096-25.691c-.196-.859-.489-1.684-.871-2.448-.881-1.764-1.898-3.105-3.202-4.223-1.181-.984-2.621-1.804-4.25-2.415-1.386-.52-3.14-.794-5.074-.794-1.856,0-3.393.253-4.838.794l-.255.08c-1.4.35-2.751,1.062-4.021,2.12-1.518,1.302-2.675,2.723-3.414,4.201-.765,1.53-1.169,3.287-1.169,5.084ZM743.873,465.838v-22.146l-26.833,25.442c.17.536.366,1.059.612,1.552.739,1.479,1.896,2.899,3.44,4.222,1.18.982,2.619,1.802,4.25,2.416,1.436.538,2.966.784,4.949.793,1.804-.009,3.308-.262,4.725-.793l.255-.08c1.4-.35,2.751-1.063,4.021-2.121,1.516-1.301,2.673-2.723,3.412-4.2.765-1.528,1.168-3.285,1.168-5.084Z" stroke="#000" stroke-miterlimit="10" stroke-width="2"/>
      <path d="M794.404,432.902c1.091,2.177,1.667,4.666,1.667,7.195v25.737c0,2.529-.576,5.021-1.667,7.197-1.02,2.045-2.564,3.96-4.588,5.695-1.806,1.505-3.748,2.529-5.792,3.063-1.866.68-3.875,1.024-6.135,1.046h-.236c-2.524-.02-4.536-.359-6.496-1.094-2.13-.801-4.026-1.887-5.641-3.232-2.05-1.755-3.594-3.672-4.617-5.717-1.091-2.177-1.667-4.666-1.667-7.192v-25.738c0-2.526.579-5.015,1.667-7.194,1.022-2.045,2.567-3.963,4.59-5.695,1.807-1.507,3.748-2.529,5.792-3.062,1.929-.704,4.014-1.049,6.371-1.049,2.529,0,4.793.366,6.732,1.093,2.13.799,4.026,1.887,5.644,3.233,1.797,1.537,3.221,3.402,4.378,5.714h-.002ZM763.957,439.861v23.292l27.096-25.691c-.196-.859-.489-1.684-.871-2.448-.881-1.764-1.898-3.105-3.202-4.223-1.181-.984-2.621-1.804-4.25-2.415-1.386-.52-3.14-.794-5.074-.794-1.856,0-3.393.253-4.838.794l-.255.08c-1.4.35-2.751,1.062-4.021,2.12-1.518,1.302-2.675,2.723-3.414,4.201-.765,1.53-1.169,3.287-1.169,5.084ZM791.35,465.838v-22.146l-26.833,25.442c.17.536.366,1.059.612,1.552.739,1.479,1.896,2.899,3.44,4.222,1.18.982,2.619,1.802,4.25,2.416,1.436.538,2.966.784,4.949.793,1.804-.009,3.308-.262,4.725-.793l.255-.08c1.4-.35,2.751-1.063,4.021-2.121,1.516-1.301,2.673-2.723,3.412-4.2.765-1.528,1.168-3.285,1.168-5.084Z" stroke="#000" stroke-miterlimit="10" stroke-width="2"/>
      <path d="M841.881,432.902c1.091,2.177,1.667,4.666,1.667,7.195v25.737c0,2.529-.576,5.021-1.667,7.197-1.02,2.045-2.564,3.96-4.588,5.695-1.806,1.505-3.748,2.529-5.792,3.063-1.866.68-3.875,1.024-6.135,1.046h-.236c-2.524-.02-4.536-.359-6.496-1.094-2.13-.801-4.026-1.887-5.641-3.232-2.05-1.755-3.594-3.672-4.617-5.717-1.091-2.177-1.667-4.666-1.667-7.192v-25.738c0-2.526.579-5.015,1.667-7.194,1.022-2.045,2.567-3.963,4.59-5.695,1.807-1.507,3.748-2.529,5.792-3.062,1.929-.704,4.014-1.049,6.371-1.049,2.529,0,4.793.366,6.732,1.093,2.13.799,4.026,1.887,5.644,3.233,1.797,1.537,3.221,3.402,4.378,5.714h-.002ZM811.435,439.861v23.292l27.096-25.691c-.196-.859-.489-1.684-.871-2.448-.881-1.764-1.898-3.105-3.202-4.223-1.181-.984-2.621-1.804-4.25-2.415-1.386-.52-3.14-.794-5.074-.794-1.856,0-3.393.253-4.838.794l-.255.08c-1.4.35-2.751,1.062-4.021,2.12-1.518,1.302-2.675,2.723-3.414,4.201-.765,1.53-1.169,3.287-1.169,5.084ZM838.828,465.838v-22.146l-26.833,25.442c.17.536.366,1.059.612,1.552.739,1.479,1.896,2.899,3.44,4.222,1.18.982,2.619,1.802,4.25,2.416,1.436.538,2.966.784,4.949.793,1.804-.009,3.308-.262,4.725-.793l.255-.08c1.4-.35,2.751-1.063,4.021-2.121,1.516-1.301,2.673-2.723,3.412-4.2.765-1.528,1.168-3.285,1.168-5.084Z" stroke="#000" stroke-miterlimit="10" stroke-width="2"/>
      <path d="M941.278,427.631v55.018h-4.723v-25.029h-27.627v25.029h-4.722v-55.018h4.722v25.266h27.627v-25.266h4.723Z" stroke="#000" stroke-miterlimit="10" stroke-width="2"/>
      <path d="M1037.119,432.902c1.091,2.177,1.667,4.666,1.667,7.195v25.737c0,2.529-.576,5.021-1.667,7.197-1.02,2.045-2.564,3.96-4.588,5.695-1.806,1.505-3.748,2.529-5.792,3.063-1.866.68-3.875,1.024-6.135,1.046h-.236c-2.524-.02-4.536-.359-6.496-1.094-2.13-.801-4.026-1.887-5.641-3.232-2.05-1.755-3.594-3.672-4.617-5.717-1.091-2.177-1.667-4.666-1.667-7.192v-25.738c0-2.526.579-5.015,1.667-7.194,1.022-2.045,2.567-3.963,4.59-5.695,1.807-1.507,3.748-2.529,5.792-3.062,1.929-.704,4.014-1.049,6.371-1.049,2.529,0,4.793.366,6.732,1.093,2.13.799,4.026,1.887,5.644,3.233,1.797,1.537,3.221,3.402,4.378,5.714h-.002ZM1006.673,439.861v23.292l27.096-25.691c-.196-.859-.489-1.684-.871-2.448-.881-1.764-1.898-3.105-3.202-4.223-1.181-.984-2.621-1.804-4.25-2.415-1.386-.52-3.14-.794-5.074-.794-1.856,0-3.393.253-4.838.794l-.255.08c-1.4.35-2.751,1.062-4.021,2.12-1.518,1.302-2.675,2.723-3.414,4.201-.765,1.53-1.169,3.287-1.169,5.084ZM1034.066,465.838v-22.146l-26.833,25.442c.17.536.366,1.059.612,1.552.739,1.479,1.896,2.899,3.44,4.222,1.181.982,2.619,1.802,4.25,2.416,1.436.538,2.966.784,4.949.793,1.804-.009,3.308-.262,4.725-.793l.255-.08c1.4-.35,2.751-1.063,4.021-2.121,1.516-1.301,2.673-2.723,3.412-4.2.765-1.528,1.168-3.285,1.168-5.084Z" stroke="#000" stroke-miterlimit="10" stroke-width="2"/>
      <path d="M1084.597,432.902c1.091,2.177,1.667,4.666,1.667,7.195v25.737c0,2.529-.576,5.021-1.667,7.197-1.02,2.045-2.564,3.96-4.588,5.695-1.806,1.505-3.748,2.529-5.792,3.063-1.866.68-3.875,1.024-6.135,1.046h-.236c-2.524-.02-4.536-.359-6.496-1.094-2.13-.801-4.026-1.887-5.641-3.232-2.05-1.755-3.594-3.672-4.617-5.717-1.091-2.177-1.667-4.666-1.667-7.192v-25.738c0-2.526.579-5.015,1.667-7.194,1.022-2.045,2.567-3.963,4.59-5.695,1.807-1.507,3.748-2.529,5.792-3.062,1.929-.704,4.014-1.049,6.371-1.049,2.529,0,4.793.366,6.732,1.093,2.13.799,4.026,1.887,5.644,3.233,1.797,1.537,3.221,3.402,4.378,5.714h-.002ZM1054.15,439.861v23.292l27.096-25.691c-.196-.859-.489-1.684-.871-2.448-.881-1.764-1.898-3.105-3.202-4.223-1.181-.984-2.621-1.804-4.25-2.415-1.386-.52-3.14-.794-5.074-.794-1.856,0-3.393.253-4.838.794l-.255.08c-1.4.35-2.751,1.062-4.021,2.12-1.518,1.302-2.675,2.723-3.414,4.201-.765,1.53-1.169,3.287-1.169,5.084ZM1081.543,465.838v-22.146l-26.833,25.442c.17.536.366,1.059.612,1.552.739,1.479,1.896,2.899,3.44,4.222,1.181.982,2.619,1.802,4.25,2.416,1.436.538,2.966.784,4.949.793,1.804-.009,3.308-.262,4.725-.793l.255-.08c1.4-.35,2.751-1.063,4.021-2.121,1.516-1.301,2.673-2.723,3.412-4.2.765-1.528,1.168-3.285,1.168-5.084Z" stroke="#000" stroke-miterlimit="10" stroke-width="2"/>
      <path d="M1132.074,432.902c1.091,2.177,1.667,4.666,1.667,7.195v25.737c0,2.529-.576,5.021-1.667,7.197-1.02,2.045-2.564,3.96-4.588,5.695-1.806,1.505-3.748,2.529-5.792,3.063-1.866.68-3.875,1.024-6.135,1.046h-.236c-2.524-.02-4.536-.359-6.496-1.094-2.13-.801-4.026-1.887-5.641-3.232-2.05-1.755-3.594-3.672-4.617-5.717-1.091-2.177-1.667-4.666-1.667-7.192v-25.738c0-2.526.579-5.015,1.667-7.194,1.022-2.045,2.567-3.963,4.59-5.695,1.807-1.507,3.748-2.529,5.792-3.062,1.929-.704,4.014-1.049,6.371-1.049,2.529,0,4.793.366,6.732,1.093,2.13.799,4.026,1.887,5.644,3.233,1.797,1.537,3.221,3.402,4.378,5.714h-.002ZM1101.628,439.861v23.292l27.096-25.691c-.196-.859-.489-1.684-.871-2.448-.881-1.764-1.898-3.105-3.202-4.223-1.181-.984-2.621-1.804-4.25-2.415-1.386-.52-3.14-.794-5.074-.794-1.856,0-3.393.253-4.838.794l-.255.08c-1.4.35-2.751,1.062-4.021,2.12-1.518,1.302-2.675,2.723-3.414,4.201-.765,1.53-1.169,3.287-1.169,5.084ZM1129.021,465.838v-22.146l-26.833,25.442c.17.536.366,1.059.612,1.552.739,1.479,1.896,2.899,3.44,4.222,1.181.982,2.619,1.802,4.25,2.416,1.436.538,2.966.784,4.949.793,1.804-.009,3.308-.262,4.725-.793l.255-.08c1.4-.35,2.751-1.063,4.021-2.121,1.516-1.301,2.673-2.723,3.412-4.2.765-1.528,1.168-3.285,1.168-5.084Z" stroke="#000" stroke-miterlimit="10" stroke-width="2"/>
      <path d="M1217.834,458.713l13.638,22.591v1.367h-3.534l-.848.512-14.43-23.896c-.104,0-.212.007-.313.007h-13.227v23.377h-4.722v-57.615h17.709c2.725,0,5.421.562,7.81,1.62,2.562,1.14,4.646,2.535,6.375,4.267,1.402,1.4,2.441,3.218,3.447,4.975l.125.251c.936,2.187,1.372,4.132,1.372,6.125,0,2.068-.475,4.267-1.372,6.361-.791,1.842-2.095,3.747-3.572,5.225-1.365,1.365-3.572,3.187-6.352,4.114-.697.312-1.4.54-2.106.723v-.003ZM1199.12,429.777v24.794h13.227c2.653,0,4.304-.276,5.887-.978,1.699-.579,3.298-1.632,4.72-3.053,1.053-1.057,2.017-2.458,2.571-3.75.647-1.509.989-3.065.989-4.498,0-1.318-.29-2.6-.938-4.144-.869-1.519-1.688-2.936-2.621-3.868-1.334-1.334-2.909-2.381-4.956-3.292-1.785-.791-3.821-1.212-5.889-1.212h-12.99Z" stroke="#000" stroke-miterlimit="10" stroke-width="2"/>
      <path d="M1327.312,432.902c1.091,2.177,1.667,4.666,1.667,7.195v25.737c0,2.529-.576,5.021-1.667,7.197-1.02,2.045-2.564,3.96-4.588,5.695-1.807,1.505-3.747,2.529-5.792,3.063-1.865.68-3.875,1.024-6.135,1.046h-.236c-2.524-.02-4.536-.359-6.496-1.094-2.13-.801-4.025-1.887-5.641-3.232-2.05-1.755-3.594-3.672-4.616-5.717-1.091-2.177-1.667-4.666-1.667-7.192v-25.738c0-2.526.578-5.015,1.667-7.194,1.022-2.045,2.566-3.963,4.59-5.695,1.807-1.507,3.748-2.529,5.792-3.062,1.93-.704,4.015-1.049,6.371-1.049,2.529,0,4.794.366,6.732,1.093,2.13.799,4.025,1.887,5.644,3.233,1.797,1.537,3.221,3.402,4.378,5.714h-.003ZM1296.866,439.861v23.292l27.096-25.691c-.196-.859-.488-1.684-.871-2.448-.881-1.764-1.898-3.105-3.202-4.223-1.181-.984-2.621-1.804-4.25-2.415-1.387-.52-3.141-.794-5.074-.794-1.856,0-3.394.253-4.839.794l-.255.08c-1.4.35-2.751,1.062-4.021,2.12-1.519,1.302-2.675,2.723-3.414,4.201-.766,1.53-1.169,3.287-1.169,5.084ZM1324.26,465.838v-22.146l-26.834,25.442c.17.536.366,1.059.611,1.552.739,1.479,1.896,2.899,3.44,4.222,1.181.982,2.619,1.802,4.251,2.416,1.436.538,2.966.784,4.949.793,1.804-.009,3.308-.262,4.725-.793l.255-.08c1.4-.35,2.751-1.063,4.021-2.121,1.516-1.301,2.673-2.723,3.412-4.2.765-1.528,1.169-3.285,1.169-5.084Z" stroke="#000" stroke-miterlimit="10" stroke-width="2"/>
      <path d="M1374.79,432.902c1.091,2.177,1.667,4.666,1.667,7.195v25.737c0,2.529-.576,5.021-1.667,7.197-1.02,2.045-2.564,3.96-4.588,5.695-1.807,1.505-3.747,2.529-5.792,3.063-1.865.68-3.875,1.024-6.135,1.046h-.236c-2.524-.02-4.536-.359-6.496-1.094-2.13-.801-4.025-1.887-5.641-3.232-2.05-1.755-3.594-3.672-4.616-5.717-1.091-2.177-1.667-4.666-1.667-7.192v-25.738c0-2.526.578-5.015,1.667-7.194,1.022-2.045,2.566-3.963,4.59-5.695,1.807-1.507,3.748-2.529,5.792-3.062,1.93-.704,4.015-1.049,6.371-1.049,2.529,0,4.794.366,6.732,1.093,2.13.799,4.025,1.887,5.644,3.233,1.797,1.537,3.221,3.402,4.378,5.714h-.003ZM1344.344,439.861v23.292l27.096-25.691c-.196-.859-.488-1.684-.871-2.448-.881-1.764-1.898-3.105-3.202-4.223-1.181-.984-2.621-1.804-4.25-2.415-1.387-.52-3.141-.794-5.074-.794-1.856,0-3.394.253-4.839.794l-.255.08c-1.4.35-2.751,1.062-4.021,2.12-1.519,1.302-2.675,2.723-3.414,4.201-.766,1.53-1.169,3.287-1.169,5.084ZM1371.737,465.838v-22.146l-26.834,25.442c.17.536.366,1.059.611,1.552.739,1.479,1.896,2.899,3.44,4.222,1.181.982,2.619,1.802,4.251,2.416,1.436.538,2.966.784,4.949.793,1.804-.009,3.308-.262,4.725-.793l.255-.08c1.4-.35,2.751-1.063,4.021-2.121,1.516-1.301,2.673-2.723,3.412-4.2.765-1.528,1.169-3.285,1.169-5.084Z" stroke="#000" stroke-miterlimit="10" stroke-width="2"/>
      <path d="M1422.267,432.902c1.091,2.177,1.667,4.666,1.667,7.195v25.737c0,2.529-.576,5.021-1.667,7.197-1.02,2.045-2.564,3.96-4.588,5.695-1.807,1.505-3.747,2.529-5.792,3.063-1.865.68-3.875,1.024-6.135,1.046h-.236c-2.524-.02-4.536-.359-6.496-1.094-2.13-.801-4.025-1.887-5.641-3.232-2.05-1.755-3.594-3.672-4.616-5.717-1.091-2.177-1.667-4.666-1.667-7.192v-25.738c0-2.526.578-5.015,1.667-7.194,1.022-2.045,2.566-3.963,4.59-5.695,1.807-1.507,3.748-2.529,5.792-3.062,1.93-.704,4.015-1.049,6.371-1.049,2.529,0,4.794.366,6.732,1.093,2.13.799,4.025,1.887,5.644,3.233,1.797,1.537,3.221,3.402,4.378,5.714h-.003ZM1391.821,439.861v23.292l27.096-25.691c-.196-.859-.488-1.684-.871-2.448-.881-1.764-1.898-3.105-3.202-4.223-1.181-.984-2.621-1.804-4.25-2.415-1.387-.52-3.141-.794-5.074-.794-1.856,0-3.394.253-4.839.794l-.255.08c-1.4.35-2.751,1.062-4.021,2.12-1.519,1.302-2.675,2.723-3.414,4.201-.766,1.53-1.169,3.287-1.169,5.084ZM1419.215,465.838v-22.146l-26.834,25.442c.17.536.366,1.059.611,1.552.739,1.479,1.896,2.899,3.44,4.222,1.181.982,2.619,1.802,4.251,2.416,1.436.538,2.966.784,4.949.793,1.804-.009,3.308-.262,4.725-.793l.255-.08c1.4-.35,2.751-1.063,4.021-2.121,1.516-1.301,2.673-2.723,3.412-4.2.765-1.528,1.169-3.285,1.169-5.084Z" stroke="#000" stroke-miterlimit="10" stroke-width="2"/>
      <path d="M1544.293,455.846c-5.882,0-9.682-5.282-9.682-13.459s3.8-13.46,9.682-13.46,9.682,5.285,9.682,13.46-3.8,13.459-9.682,13.459ZM1544.293,451.124c4.721,0,4.959-7.277,4.959-8.736s-.238-8.737-4.959-8.737-4.959,7.277-4.959,8.737.239,8.736,4.959,8.736ZM1566.016,432.484l-21.251,49.351v.458h-4.723v-1.431l21.442-49.8.526.227h4.005v1.195ZM1571.92,469.07c0,8.177-3.799,13.459-9.681,13.459s-9.682-5.282-9.682-13.459,3.799-13.46,9.682-13.46,9.681,5.282,9.681,13.46ZM1567.197,469.07c0-1.457-.238-8.737-4.958-8.737s-4.959,7.277-4.959,8.737.238,8.736,4.959,8.736,4.958-7.28,4.958-8.736Z" stroke="#000" stroke-miterlimit="10" stroke-width="2"/>
      <path d="M1622.724,462.93h-17.71v18.418h-4.723v-18.418h-17.71v-4.723h17.71v-18.418h4.723v18.418h17.71v4.723Z" stroke="#000" stroke-miterlimit="10" stroke-width="2"/>
      <path d="M1668.594,432.902c1.091,2.177,1.667,4.666,1.667,7.195v25.737c0,2.529-.576,5.021-1.667,7.197-1.02,2.045-2.564,3.96-4.588,5.695-1.807,1.505-3.747,2.529-5.792,3.063-1.865.68-3.875,1.024-6.135,1.046h-.236c-2.524-.02-4.536-.359-6.496-1.094-2.13-.801-4.025-1.887-5.641-3.232-2.05-1.755-3.594-3.672-4.616-5.717-1.091-2.177-1.667-4.666-1.667-7.192v-25.738c0-2.526.578-5.015,1.667-7.194,1.022-2.045,2.566-3.963,4.59-5.695,1.807-1.507,3.748-2.529,5.792-3.062,1.93-.704,4.015-1.049,6.371-1.049,2.529,0,4.794.366,6.732,1.093,2.13.799,4.025,1.887,5.644,3.233,1.797,1.537,3.221,3.402,4.378,5.714h-.003ZM1638.147,439.861v23.292l27.096-25.691c-.196-.859-.488-1.684-.871-2.448-.881-1.764-1.898-3.105-3.202-4.223-1.181-.984-2.621-1.804-4.25-2.415-1.387-.52-3.141-.794-5.074-.794-1.856,0-3.394.253-4.839.794l-.255.08c-1.4.35-2.751,1.062-4.021,2.12-1.519,1.302-2.675,2.723-3.414,4.201-.766,1.53-1.169,3.287-1.169,5.084ZM1665.541,465.838v-22.146l-26.834,25.442c.17.536.366,1.059.611,1.552.739,1.479,1.896,2.899,3.44,4.222,1.181.982,2.619,1.802,4.251,2.416,1.436.538,2.966.784,4.949.793,1.804-.009,3.308-.262,4.725-.793l.255-.08c1.4-.35,2.751-1.063,4.021-2.121,1.516-1.301,2.673-2.723,3.412-4.2.765-1.528,1.169-3.285,1.169-5.084Z" stroke="#000" stroke-miterlimit="10" stroke-width="2"/>
      <path d="M1716.071,432.902c1.091,2.177,1.667,4.666,1.667,7.195v25.737c0,2.529-.576,5.021-1.667,7.197-1.02,2.045-2.564,3.96-4.588,5.695-1.807,1.505-3.747,2.529-5.792,3.063-1.865.68-3.875,1.024-6.135,1.046h-.236c-2.524-.02-4.536-.359-6.496-1.094-2.13-.801-4.025-1.887-5.641-3.232-2.05-1.755-3.594-3.672-4.616-5.717-1.091-2.177-1.667-4.666-1.667-7.192v-25.738c0-2.526.578-5.015,1.667-7.194,1.022-2.045,2.566-3.963,4.59-5.695,1.807-1.507,3.748-2.529,5.792-3.062,1.93-.704,4.015-1.049,6.371-1.049,2.529,0,4.794.366,6.732,1.093,2.13.799,4.025,1.887,5.644,3.233,1.797,1.537,3.221,3.402,4.378,5.714h-.003ZM1685.625,439.861v23.292l27.096-25.691c-.196-.859-.488-1.684-.871-2.448-.881-1.764-1.898-3.105-3.202-4.223-1.181-.984-2.621-1.804-4.25-2.415-1.387-.52-3.141-.794-5.074-.794-1.856,0-3.394.253-4.839.794l-.255.08c-1.4.35-2.751,1.062-4.021,2.12-1.519,1.302-2.675,2.723-3.414,4.201-.766,1.53-1.169,3.287-1.169,5.084ZM1713.018,465.838v-22.146l-26.834,25.442c.17.536.366,1.059.611,1.552.739,1.479,1.896,2.899,3.44,4.222,1.181.982,2.619,1.802,4.251,2.416,1.436.538,2.966.784,4.949.793,1.804-.009,3.308-.262,4.725-.793l.255-.08c1.4-.35,2.751-1.063,4.021-2.121,1.516-1.301,2.673-2.723,3.412-4.2.765-1.528,1.169-3.285,1.169-5.084Z" stroke="#000" stroke-miterlimit="10" stroke-width="2"/>
      <path d="M1763.549,432.902c1.091,2.177,1.667,4.666,1.667,7.195v25.737c0,2.529-.576,5.021-1.667,7.197-1.02,2.045-2.564,3.96-4.588,5.695-1.807,1.505-3.747,2.529-5.792,3.063-1.865.68-3.875,1.024-6.135,1.046h-.236c-2.524-.02-4.536-.359-6.496-1.094-2.13-.801-4.025-1.887-5.641-3.232-2.05-1.755-3.594-3.672-4.616-5.717-1.091-2.177-1.667-4.666-1.667-7.192v-25.738c0-2.526.578-5.015,1.667-7.194,1.022-2.045,2.566-3.963,4.59-5.695,1.807-1.507,3.748-2.529,5.792-3.062,1.93-.704,4.015-1.049,6.371-1.049,2.529,0,4.794.366,6.732,1.093,2.13.799,4.025,1.887,5.644,3.233,1.797,1.537,3.221,3.402,4.378,5.714h-.003ZM1733.102,439.861v23.292l27.096-25.691c-.196-.859-.488-1.684-.871-2.448-.881-1.764-1.898-3.105-3.202-4.223-1.181-.984-2.621-1.804-4.25-2.415-1.387-.52-3.141-.794-5.074-.794-1.856,0-3.394.253-4.839.794l-.255.08c-1.4.35-2.751,1.062-4.021,2.12-1.519,1.302-2.675,2.723-3.414,4.201-.766,1.53-1.169,3.287-1.169,5.084ZM1760.496,465.838v-22.146l-26.834,25.442c.17.536.366,1.059.611,1.552.739,1.479,1.896,2.899,3.44,4.222,1.181.982,2.619,1.802,4.251,2.416,1.436.538,2.966.784,4.949.793,1.804-.009,3.308-.262,4.725-.793l.255-.08c1.4-.35,2.751-1.063,4.021-2.121,1.516-1.301,2.673-2.723,3.412-4.2.765-1.528,1.169-3.285,1.169-5.084Z" stroke="#000" stroke-miterlimit="10" stroke-width="2"/>
    </g>
    <g>
      <rect x="566.383" y="508.062" width="1246.51" height="65.016" fill="none"/>
      <path d="M647.794,545.186c.699,1.852,1.372,4.08,1.372,7.304,0,3.339-.361,5.735-1.136,7.542-.923,2.468-2.158,4.26-3.735,5.386-1.471,1.394-3.45,2.293-5.754,2.614-1.906.515-3.736.515-5.667.515h-22.904v-28.774l-.472-.473v-30.966h22.43c1.948,0,3.839.288,5.469.829,1.958.557,3.965,1.724,5.41,3.169,1.479,1.478,2.782,3.381,3.57,5.223.699,1.861,1.372,4.09,1.372,7.309,0,3.186-.347,5.596-1.062,7.364-.569,2.111-1.863,4.145-3.497,5.493-.321.313-.666.588-1.016.848.612.42,1.178.848,1.658,1.246,1.646,1.37,3.088,3.327,3.965,5.37v.002ZM614.219,513.056v22.899h18.656c.688,0,1.379.076,2.069.149.529-.053,1.022-.125,1.436-.263l.453-.102c1.311-.163,2.27-.611,3.11-1.452l.196-.175c.699-.56,1.648-1.737,2.016-3.213l.121-.359c.5-1.164.753-3.074.753-5.679,0-2.458-.496-4.121-1.032-5.549-.505-1.169-1.49-2.604-2.529-3.644-.883-.884-2.179-1.63-3.466-1.998-1.232-.408-2.647-.616-4.073-.616h-17.709ZM643.647,558.275c.541-1.266.793-3.179.793-5.783,0-2.46-.494-4.118-1.03-5.544-.55-1.28-1.516-2.593-2.607-3.502-1.417-1.181-2.5-1.82-3.622-2.142-.706-.203-1.415-.352-2.123-.456-.937.071-1.9.073-2.895.073h-17.474v22.905h18.182c1.792,0,3.211,0,4.546-.383l.356-.073c1.417-.177,2.574-.681,3.346-1.452l.359-.295c.819-.546,1.528-1.642,2.168-3.352v.003Z" stroke="#000" stroke-miterlimit="10" stroke-width="2"/>
      <path d="M670.349,532.241c2.572-1.429,5.162-1.429,7.67-1.429v4.723c-2.165,0-3.875,0-5.466.883-1.353.678-2.26,1.854-3.396,3.674-2.463,4.191-4.125,7.818-4.125,11.736v16.765h-4.723v-29.988c0-.973-.279-4.942-.465-7.375l4.708-.36c.04.555.373,4.881.458,6.965.038-.061.07-.127.108-.188,1.299-2.078,2.741-4.158,5.23-5.402v-.002Z" stroke="#000" stroke-miterlimit="10" stroke-width="2"/>
      <path d="M701.746,545.772c9.351,3.562,11.294,8.445,11.294,11.922,0,6.255-5.726,10.625-13.93,10.625-3.995,0-9.761-2.515-10.403-2.803l1.917-4.313c2.163.963,6.206,2.395,8.486,2.395,5.507,0,9.207-2.373,9.207-5.903,0-3.608-4.437-6.058-8.161-7.477-6.146-2.047-9.311-5.582-9.311-10.472,0-6.456,4.819-10.626,12.279-10.626,5.086,0,6.437.635,8.217,1.67.352.207.739.434,1.259.67l-1.956,4.297c-.689-.313-1.207-.611-1.676-.885-1.105-.643-1.773-1.029-5.847-1.029-2.821,0-7.556.768-7.556,5.903,0,1.847.701,4.2,6.177,6.023l.002.003Z" stroke="#000" stroke-miterlimit="10" stroke-width="2"/>
      <path d="M735.527,535.761v22.195c0,1.861.435,3.587,1.107,4.393.791.923,2.867,1.511,4.324,1.511,1.422,0,2.94-.555,2.956-.56l.395-.148h1.136v4.245l.123.326c-.024.009-.066.023-.123.045v.105h-.316c-.777.251-2.434.709-4.172.709-2.588,0-6.045-.985-7.931-3.186-2.005-2.408-2.22-6.004-2.22-7.44v-22.195h-7.084v-4.724h7.084v-10.39h4.723v10.39h10.625v4.724h-10.625Z" stroke="#000" stroke-miterlimit="10" stroke-width="2"/>
      <path d="M842.231,545.171c1.025,2.03,1.519,4.028,1.519,5.936,0,5.087-1.865,9.264-5.549,12.418-3.44,3.179-7.792,4.819-12.869,4.819h-.472c-4.787,0-9.197-1.702-13.108-5.055-3.055-2.586-3.95-4.869-4.6-6.536-.097-.243-.187-.478-.283-.701l4.34-1.863c.116.269.227.55.342.843.545,1.396,1.11,2.838,3.266,4.661,3.086,2.649,6.369,3.93,10.045,3.93h.473c3.905,0,7.091-1.186,9.73-3.625,2.728-2.338,3.965-5.143,3.965-8.891,0-1.161-.331-2.465-.933-3.667-.517-.848-1.268-1.967-2.267-2.633-1.147-.906-2.621-1.757-4.106-2.392-.963-.413-2.047-.746-3.304-1.131-.697-.215-1.424-.439-2.179-.689l-6.945-1.85c-3.743-1.149-6.441-2.881-8.337-5.317-2.057-2.643-3.098-5.75-3.098-9.242,0-4.318,1.792-8.023,5.322-11.013,3.355-3.099,7.164-4.574,11.917-4.574h.47c4.774.276,8.76,1.913,11.986,4.869,2.451,2.177,3.934,4.781,4.505,7.932l-4.649.841c-.385-2.128-1.315-3.752-3.02-5.269-2.43-2.227-5.438-3.449-8.961-3.657l-.333.005c-3.54,0-6.253,1.046-8.789,3.389-2.534,2.148-3.729,4.571-3.729,7.476,0,2.418.708,4.55,2.102,6.342,1.299,1.67,3.178,2.839,5.915,3.682l6.999,1.865c.857.278,1.547.491,2.208.694,1.332.408,2.585.793,3.783,1.306,1.882.806,3.714,1.87,5.032,2.924,1.611,1.064,2.744,2.715,3.618,4.172l-.005.003Z" stroke="#000" stroke-miterlimit="10" stroke-width="2"/>
      <path d="M884.86,542.314c.654,3.257.363,6.066.257,6.857v19.431h-4.723l.034-19.986c.002-.016.385-2.491-.222-5.524-.378-2.796-1.355-4.789-3.018-6.244-1.235-1.079-3.592-1.775-6.002-1.775-2.042,0-4.128.746-5.871,2.102-3.601,3.034-5.463,7.192-5.463,12.302v19.127h-4.723v-19.127c0-.144.019-.277.021-.42l-.255.007s-.238-9.726-.238-12.81c0-1.554-.229-5.001-.229-5.036l4.711-.314c.01.148.241,3.639.241,5.351v.331c.864-1.105,1.849-2.14,2.966-3.082,2.639-2.054,5.751-3.151,8.84-3.151,3.597,0,7.001,1.102,9.109,2.946,2.525,2.21,4.062,5.244,4.565,9.02v-.002Z" stroke="#000" stroke-miterlimit="10" stroke-width="2"/>
      <path d="M925.254,566.709h-4.723v-.144c-.257-.481-.439-.973-.555-1.879-2.099,2.035-4.736,3.372-7.794,3.882-.574.065-1.133.099-1.686.099-2.371,0-4.636-.606-7.493-1.938-1.334-.659-4.399-2.179-6.104-5.872-1.546-3.71-.864-7.192-.618-8.175,1.039-5.75,5.45-8.644,7.109-9.731l.246-.16c.64-.484,1.346-.811,1.915-1.072.248-.113.484-.21.685-.345l.461-.24c3.249-1.25,7.447-1.861,12.774-1.854-.326-1.629-1.297-2.986-1.557-3.246l-.172-.193c-1.376-1.723-3.112-2.293-3.764-2.508-1.783-.487-3.615-.478-5.922.032-1.887.378-3.455.914-4.713,1.344l-.72.246c-.392.158-.805.368-1.168.55-.524.264-.978.481-1.428.631l-1.495-4.479c.257-.086.51-.225.81-.373.465-.231.994-.496,1.657-.761l.817-.281c1.391-.475,3.119-1.065,5.264-1.495,1.873-.413,4.814-.875,8.168.038,1.114.364,3.867,1.271,6.108,4.02.944,1.003,2.647,3.559,2.942,6.781l.005,1.867h.005c0,.163.014.501.033.977.116,2.887.179,6.016.065,8.972.01.582.019,1.192.031,1.76.054,2.819.106,5.459.106,7.892,0,2.635.133,3.221.158,3.312.179.303.39.725.517,1.492l.033.862.003-.008ZM911.535,563.897c2.848-.479,5.164-2.021,6.757-4.571.503-.776,1.188-2.792,1.391-8.045-.043-2.323-.078-4.742-.087-7.278-4.593-.102-8.329.48-11.004,1.465-.328.196-.685.365-1.065.54-.438.204-.821.378-1.166.639l-.383.256c-1.421.931-4.375,2.87-5.086,6.775-.099.422-.667,2.886.329,5.282.973,2.1,2.812,3.011,3.698,3.45,3.209,1.499,4.899,1.674,6.614,1.487h.002Z" stroke="#000" stroke-miterlimit="10" stroke-width="2"/>
      <path d="M953.407,529.845c9.507,0,17.237,8.685,17.237,19.362s-7.732,19.362-17.237,19.362c-4.906,0-9.327-2.325-12.47-6.032l.192,20.888-4.723.044-.472-52.913h4.723v1.18l.04,4.442c3.155-3.88,7.676-6.33,12.71-6.33v-.003ZM965.922,549.21c0-8.072-5.615-14.64-12.515-14.64s-12.514,6.567-12.514,14.64,5.615,14.641,12.514,14.641,12.515-6.566,12.515-14.641Z" stroke="#000" stroke-miterlimit="10" stroke-width="2"/>
      <path d="M1066.662,545.171c1.025,2.03,1.519,4.028,1.519,5.936,0,5.087-1.865,9.264-5.549,12.418-3.44,3.179-7.792,4.819-12.869,4.819h-.472c-4.787,0-9.197-1.702-13.108-5.055-3.055-2.586-3.95-4.869-4.6-6.536-.097-.243-.187-.478-.283-.701l4.34-1.863c.116.269.227.55.342.843.545,1.396,1.11,2.838,3.266,4.661,3.086,2.649,6.369,3.93,10.045,3.93h.473c3.905,0,7.091-1.186,9.73-3.625,2.728-2.338,3.965-5.143,3.965-8.891,0-1.161-.331-2.465-.933-3.667-.517-.848-1.268-1.967-2.267-2.633-1.147-.906-2.621-1.757-4.106-2.392-.963-.413-2.047-.746-3.304-1.131-.697-.215-1.424-.439-2.179-.689l-6.945-1.85c-3.743-1.149-6.441-2.881-8.337-5.317-2.057-2.643-3.098-5.75-3.098-9.242,0-4.318,1.792-8.023,5.322-11.013,3.355-3.099,7.164-4.574,11.917-4.574h.47c4.774.276,8.76,1.913,11.986,4.869,2.451,2.177,3.934,4.781,4.505,7.932l-4.649.841c-.385-2.128-1.315-3.752-3.02-5.269-2.43-2.227-5.438-3.449-8.961-3.657l-.333.005c-3.54,0-6.253,1.046-8.789,3.389-2.534,2.148-3.729,4.571-3.729,7.476,0,2.418.708,4.55,2.102,6.342,1.299,1.67,3.178,2.839,5.915,3.682l6.999,1.865c.857.278,1.547.491,2.208.694,1.332.408,2.585.793,3.783,1.306,1.882.806,3.714,1.87,5.032,2.924,1.611,1.064,2.744,2.715,3.618,4.172l-.005.003Z" stroke="#000" stroke-miterlimit="10" stroke-width="2"/>
      <path d="M1111.678,550.145h-28.089c.269,8.593,5.428,13.695,13.922,13.695,4.25,0,7.277-.759,8.784-1.247,1.421-.701,2.189-.965,2.274-.994l.749,2.241.76,2.236c-.087.03-.697.255-1.83.821l-.307.127c-2.104.702-5.62,1.538-10.43,1.538-11.332,0-18.654-7.509-18.654-19.127,0-12.715,6.621-20.307,17.709-20.307,12.422,0,15.112,14.954,15.112,18.654v2.361ZM1106.673,545.423c-.78-4.14-3.372-11.57-10.107-11.57-8.753,0-11.868,5.637-12.718,11.57h22.825Z" stroke="#000" stroke-miterlimit="10" stroke-width="2"/>
      <path d="M1134.123,535.761v22.195c0,1.861.435,3.587,1.107,4.393.791.923,2.867,1.511,4.324,1.511,1.422,0,2.94-.555,2.956-.56l.395-.148h1.136v4.245l.123.326c-.024.009-.066.023-.123.045v.105h-.316c-.777.251-2.434.709-4.172.709-2.588,0-6.045-.985-7.931-3.186-2.005-2.408-2.22-6.004-2.22-7.44v-22.195h-7.084v-4.724h7.084v-10.39h4.723v10.39h10.625v4.724h-10.625Z" stroke="#000" stroke-miterlimit="10" stroke-width="2"/>
      <path d="M1299.165,511.189v12.895l-37.143,44.721h-6.541v-57.615h4.723v52.41l34.239-41.224v-11.187h4.722Z" stroke="#000" stroke-miterlimit="10" stroke-width="2"/>
      <path d="M1309.847,520.432c0-2.738,2.114-4.959,4.723-4.959s4.723,2.221,4.723,4.959-2.114,4.959-4.723,4.959-4.723-2.221-4.723-4.959ZM1312.209,568.602v-37.544h4.723v37.544h-4.723Z" stroke="#000" stroke-miterlimit="10" stroke-width="2"/>
      <path d="M1362.759,550.145h-28.09c.27,8.593,5.429,13.695,13.922,13.695,4.251,0,7.278-.759,8.784-1.247,1.421-.701,2.188-.965,2.274-.994l.748,2.241.761,2.236c-.088.03-.697.255-1.83.821l-.308.127c-2.104.702-5.619,1.538-10.43,1.538-11.331,0-18.654-7.509-18.654-19.127,0-12.715,6.621-20.307,17.71-20.307,12.423,0,15.112,14.954,15.112,18.654v2.361ZM1357.753,545.423c-.779-4.14-3.371-11.57-10.106-11.57-8.754,0-11.868,5.637-12.718,11.57h22.824Z" stroke="#000" stroke-miterlimit="10" stroke-width="2"/>
      <path d="M1416.844,528.68l-.065,1.506-9.417,38.399h-4.399l-7.842-30.973-7.844,30.973h-4.645l-9.235-38.962v-.943h4.723v.666l6.902,28.908,7.79-30.755h4.621l7.69,30.38,6.999-28.541v-.658h4.722Z" stroke="#000" stroke-miterlimit="10" stroke-width="2"/>
      <path d="M1637.949,545.171c1.025,2.03,1.519,4.028,1.519,5.936,0,5.087-1.865,9.264-5.549,12.418-3.44,3.179-7.793,4.819-12.869,4.819h-.473c-4.786,0-9.197-1.702-13.107-5.055-3.056-2.586-3.95-4.869-4.6-6.536-.097-.243-.187-.478-.283-.701l4.34-1.863c.116.269.227.55.343.843.545,1.396,1.109,2.838,3.266,4.661,3.086,2.649,6.368,3.93,10.045,3.93h.472c3.906,0,7.091-1.186,9.731-3.625,2.727-2.338,3.964-5.143,3.964-8.891,0-1.161-.33-2.465-.933-3.667-.517-.848-1.268-1.967-2.267-2.633-1.147-.906-2.621-1.757-4.106-2.392-.963-.413-2.047-.746-3.303-1.131-.697-.215-1.424-.439-2.18-.689l-6.944-1.85c-3.743-1.149-6.442-2.881-8.338-5.317-2.057-2.643-3.099-5.75-3.099-9.242,0-4.318,1.793-8.023,5.322-11.013,3.355-3.099,7.165-4.574,11.918-4.574h.47c4.774.276,8.761,1.913,11.986,4.869,2.45,2.177,3.934,4.781,4.505,7.932l-4.649.841c-.385-2.128-1.315-3.752-3.02-5.269-2.431-2.227-5.438-3.449-8.962-3.657l-.333.005c-3.539,0-6.252,1.046-8.788,3.389-2.534,2.148-3.729,4.571-3.729,7.476,0,2.418.708,4.55,2.102,6.342,1.299,1.67,3.178,2.839,5.915,3.682l6.999,1.865c.856.278,1.546.491,2.207.694,1.332.408,2.586.793,3.783,1.306,1.882.806,3.714,1.87,5.032,2.924,1.61,1.064,2.743,2.715,3.617,4.172l-.005.003Z" stroke="#000" stroke-miterlimit="10" stroke-width="2"/>
      <path d="M1682.965,550.145h-28.09c.27,8.593,5.429,13.695,13.922,13.695,4.251,0,7.278-.759,8.784-1.247,1.421-.701,2.188-.965,2.274-.994l.748,2.241.761,2.236c-.088.03-.697.255-1.83.821l-.308.127c-2.104.702-5.619,1.538-10.43,1.538-11.331,0-18.654-7.509-18.654-19.127,0-12.715,6.621-20.307,17.71-20.307,12.423,0,15.112,14.954,15.112,18.654v2.361ZM1677.959,545.423c-.779-4.14-3.371-11.57-10.106-11.57-8.753,0-11.868,5.637-12.718,11.57h22.824Z" stroke="#000" stroke-miterlimit="10" stroke-width="2"/>
      <path d="M1724.037,542.314c.653,3.257.363,6.066.256,6.857v19.431h-4.722l.033-19.986c.003-.016.385-2.491-.222-5.524-.379-2.796-1.355-4.789-3.019-6.244-1.234-1.079-3.591-1.775-6.002-1.775-2.043,0-4.128.746-5.87,2.102-3.601,3.034-5.464,7.192-5.464,12.302v19.127h-4.723v-19.127c0-.144.019-.277.021-.42l-.255.007s-.239-9.726-.239-12.81c0-1.554-.229-5.001-.229-5.036l4.711-.314c.01.148.241,3.639.241,5.351v.331c.864-1.105,1.85-2.14,2.966-3.082,2.64-2.054,5.752-3.151,8.841-3.151,3.597,0,7.001,1.102,9.109,2.946,2.524,2.21,4.062,5.244,4.565,9.02v-.002Z" stroke="#000" stroke-miterlimit="10" stroke-width="2"/>
      <path d="M1769.804,567.867h-4.723v-1.181l-.038-4.444c-3.151,3.878-7.677,6.331-12.71,6.331-9.504,0-17.238-8.688-17.238-19.363s7.734-19.361,17.238-19.361c4.911,0,9.339,2.33,12.481,6.046l-.203-23.263,4.723-.042.472,55.274-.002.003ZM1764.848,549.21c0-8.072-5.613-14.64-12.515-14.64s-12.516,6.567-12.516,14.64,5.615,14.641,12.516,14.641,12.515-6.566,12.515-14.641Z" stroke="#000" stroke-miterlimit="10" stroke-width="2"/>
    </g>
  </g>
  <g id="c" data-name="MAIN_Menu_Arrows_-_Light">
    <path d="M616.954,326.711l-12.391,15.41-261.766-208.57c14.397-27.184,12.772-61.434-7.01-87.512-27.163-35.811-78.396-42.846-114.206-15.683-35.811,27.163-42.846,78.396-15.683,114.207,27.163,35.81,78.396,42.845,114.206,15.682,5.92-4.491,11.037-9.65,15.359-15.278l260.625,207.692-12.391,15.41,104.606,50.061-71.351-91.42ZM312.759,150.561c-30.52,23.15-74.027,17.176-97.177-13.344-23.15-30.52-17.176-74.027,13.344-97.177,30.52-23.15,74.027-17.176,97.177,13.344,23.15,30.52,17.176,74.027-13.344,97.177Z" stroke="#fff" stroke-miterlimit="10" stroke-width="4"/>
    <path d="M1685.882,418.13l104.606-50.061-12.391-15.41,260.625-207.692c4.323,5.628,9.439,10.787,15.359,15.278,35.811,27.163,87.044,20.128,114.206-15.682,27.163-35.811,20.128-87.044-15.683-114.207-35.81-27.163-87.043-20.127-114.206,15.683-19.781,26.078-21.407,60.328-7.01,87.512l-261.766,208.57-12.391-15.41-71.351,91.42ZM2048.083,53.384c23.15-30.52,66.658-36.494,97.177-13.344,30.52,23.15,36.494,66.658,13.344,97.177-23.15,30.52-66.658,36.494-97.177,13.344-30.52-23.15-36.494-66.658-13.344-97.177Z" stroke="#fff" stroke-miterlimit="10" stroke-width="4"/>
    <path d="M966.772,315.033l-15.041,12.836-154.578-181.576c19.203-24.031,23.977-57.985,9.393-87.288-20.027-40.239-69.057-56.682-109.295-36.655-40.239,20.027-56.682,69.057-36.655,109.296,20.027,40.238,69.057,56.681,109.295,36.654,6.652-3.311,12.639-7.428,17.934-12.154l153.621,180.502-15.041,12.836,93.467,68.647-53.098-103.097ZM764.475,157.418c-34.294,17.068-75.93,3.104-92.998-31.189-17.068-34.294-3.104-75.93,31.189-92.998,34.294-17.068,75.93-3.104,92.998,31.189,17.068,34.294,3.104,75.93-31.189,92.998Z" stroke="#fff" stroke-miterlimit="10" stroke-width="4"/>
    <path d="M1377.541,418.13l93.467-68.647-15.041-12.836,153.621-180.502c5.294,4.726,11.281,8.843,17.934,12.154,40.239,20.027,89.269,3.584,109.295-36.654,20.027-40.239,3.584-89.269-36.655-109.296-40.238-20.027-89.268-3.583-109.295,36.655-14.584,29.303-9.81,63.257,9.393,87.288l-154.578,181.576-15.041-12.836-53.098,103.097ZM1601.748,64.42c17.068-34.294,58.705-48.257,92.998-31.189,34.294,17.068,48.257,58.705,31.189,92.998-17.068,34.294-58.705,48.257-92.998,31.189-34.294-17.068-48.257-58.705-31.189-92.998Z" stroke="#fff" stroke-miterlimit="10" stroke-width="4"/>
  </g>
  <g id="d" data-name="MAIN_Menu_Numbers">
    <path d="M283.141,134.676v7h-22.401v-7h7.701V62.842l-5.471,4.529-4.463-5.394,11.12-9.202h5.814v81.901h7.7Z" fill="#e3831f" stroke="#e3831f" stroke-miterlimit="10"/>
    <path d="M716.789,135.355h43.081v6.969h-52.614v-6.944l9.161-9.997c4.801-5.349,9.206-10.251,13.387-14.711,2.077-2.077,4.157-4.505,6.167-6.854,2.101-2.45,10.495-11.896,10.495-11.896.952-.958,1.488-1.634,1.847-2.08.212-.268.394-.484.543-.651,1.021-1.3,1.878-2.944,2.484-4.763.575-1.725.868-3.104.868-5.868,0-2.373-.492-4.725-1.46-6.99-.882-2.338-2.286-4.024-4.14-5.878-2.115-1.742-4.119-2.997-6.077-3.729-5.603-2.101-9.376-2.098-14.972,0-2.565.962-4.495,2.146-6.081,3.732-1.829,1.829-3.3,3.917-4.139,5.878l-6.404-2.746c1.199-2.798,3.143-5.585,5.617-8.06,2.286-2.282,5.083-4.024,8.561-5.327,7.129-2.683,12.722-2.683,19.868,0,3.565,1.338,6.457,3.561,8.324,5.115,2.286,2.269,4.572,4.854,5.91,8.422,1.286,2.986,1.965,6.261,1.965,9.585,0,3.666-.471,5.805-1.227,8.073-.875,2.627-2.164,5.049-3.721,6.997l-.478.568c-.467.585-1.167,1.46-2.22,2.509.007,0-8.206,9.241-10.272,11.652-2.097,2.446-4.265,4.976-6.453,7.164-4.073,4.345-8.443,9.212-13.209,14.519l-4.809,5.314-.003-.004Z" fill="#e3831f" stroke="#e38300" stroke-miterlimit="10"/>
    <path d="M1688.846,100.386c1.317,3.077,1.962,9.021,1.962,12.025,0,3.212,0,5.334-1.513,11.003-1.335,5.328-4.069,8.913-6.129,10.972-2.304,2.3-6.704,5.237-10.327,6.143-3.418,1.15-9,1.15-11.997,1.15-3.54,0-9.677-1.997-12.175-3.066-2.923-1.254-8.411-4.955-11.746-7.917l4.631-5.209c2.917,2.592,7.861,5.861,9.861,6.721,2.3.986,7.387,2.505,9.429,2.505,2.418,0,7.449,0,10.049-.868,2.229-.568,5.544-2.582,7.349-4.387,1.436-1.432,3.352-3.951,4.311-7.788,1.289-4.836,1.289-6.223,1.289-9.258,0-3.094-.707-7.68-1.461-9.432-.856-2.272-1.898-4-3.654-6.108-1.529-1.836-3.199-3.15-4.965-3.906-2.192-.941-4.513-1.812-6.642-1.812h-9.408v-7.589l20.704-23.422h-31.854v-6.969h39.373v8.979l-19.471,22.028h.655c3.397,0,6.651,1.199,9.387,2.373,2.784,1.195,5.335,3.164,7.575,5.85,2.268,2.718,3.693,5.104,4.77,7.976l-.003.003Z" fill="#e3831f" stroke="#e38300" stroke-miterlimit="10"/>
    <path d="M2120.234,114.752h9.407v6.969h-9.407v17.422h-6.969v-17.422h-36.237v-7.585l36.004-60.011h7.198v60.625l.004.003ZM2113.262,67.281l-28.481,47.468h28.481v-47.468Z" fill="#e3831f" stroke="#e38300" stroke-miterlimit="10"/>
  </g>
</svg>