<?xml version="1.0" encoding="UTF-8"?>
<svg id="b" data-name="JDAM_TAC_PAGE_LAR_-_Light" xmlns="http://www.w3.org/2000/svg" width="2393.185" height="564.913" viewBox="0 0 2393.185 564.913">
  <g>
    <rect x="797.354" y="24.208" width="340.246" height="51.224" fill="none"/>
    <path d="M819.617,43.611h-8.202v21.934h-4.009v-21.934h-8.202v-4.009h20.412v4.009Z"/>
    <path d="M844.182,61.165v-5.461h-7.184v-4.38h11.564l.003,14.221h-20.464v-25.938h20.464v4.261h-16.445v17.298h12.062Z"/>
    <path d="M876.013,54.699h0v10.845h-3.993s-14.97,0-14.97,0v-4.295h14.955v-6.6h-13.159v-4.233h13.16v-6.555h-14.968v-4.233h14.968v-.004h4.009v15.075Z"/>
    <path d="M927.925,55.076h-5.757v10.468h-4.009v-25.955h14.236c3.41,0,6.175,2.764,6.175,6.175v3.138c0,3.357-2.681,6.087-6.019,6.17l6.047,10.473h-4.63s-6.043-10.469-6.043-10.469ZM922.167,43.958v6.75h10.291c1.161,0,2.103-.941,2.103-2.103v-2.544c0-1.162-.942-2.103-2.103-2.103h-10.291Z"/>
    <path d="M962.937,65.545l-2.378-7.893h-6.506l-2.383,7.893h-4.615l8.057-25.902h4.375l7.979,25.902h-4.528ZM959.243,53.283l-1.933-6.417-1.938,6.417h3.871Z"/>
    <path d="M1028.598,54.699h0v10.845h-3.993s-14.97,0-14.97,0v-4.295h14.955v-6.6h-13.159v-4.233h13.16v-6.555h-14.968v-4.233h14.968v-.004h4.009v15.075Z"/>
    <path d="M1056.051,54.699h0v10.845h-3.993s-14.97,0-14.97,0v-4.295h14.954v-6.6h-13.159v-4.233h13.16v-6.555h-14.968v-4.233h14.968v-.004h4.009v15.075Z"/>
    <path d="M1064.528,65.545v-4.261h3.975v4.261h-3.975Z"/>
    <path d="M1097.298,65.545h-1.746s-17.567,0-17.567,0v-4.292h15.305v-6.603h-14.236v-.007h-2.093v-15.019l20.338-.002v25.922ZM1093.289,50.417v-6.555h-12.321v6.555h12.321Z"/>
  </g>
  <g>
    <rect x="1265.557" y="33.646" width="295.259" height="32.348" fill="none"/>
    <path d="M1322.972,43.611h-8.202v21.934h-4.009v-21.934h-8.201v-4.009h20.412v4.009Z"/>
    <path d="M1351.868,43.611h-8.202v21.934h-4.009v-21.934h-8.201v-4.009h20.412v4.009Z"/>
    <path d="M1397.525,65.544h-20.339s0-25.92,0-25.92l20.339-.002v25.922ZM1381.195,61.252h12.321v-17.391h-12.321v17.391Z"/>
    <path d="M1426.348,65.544h-20.338s0-25.92,0-25.92l20.338-.002v25.922ZM1410.018,61.252h12.32v-17.391h-12.32v17.391Z"/>
    <path d="M1472.006,65.544h-20.339s0-25.92,0-25.92l20.339-.002v25.922ZM1455.676,61.252h12.321v-17.391h-12.321v17.391Z"/>
    <path d="M1500.831,54.7h0v10.845h-4.009v-10.865h-16.331v-15.066h4.012v10.803h12.32v-10.792h4.009v15.075Z"/>
    <path d="M1526.147,39.633h4.009v25.912h-4.009v-25.912Z"/>
    <path d="M1554.945,54.7v-.049h-12.32v6.603h15.305v4.292h-17.567s-1.746,0-1.746,0v-15.11h3.169v-.017h13.16v-6.555h-14.968v-4.233h14.968v-.004h4.009v15.075h-4.009Z"/>
  </g>
  <polygon points="1058.212 172.969 1042.731 199.063 1073.693 199.063 1058.212 172.969" fill="none" stroke="#000" stroke-miterlimit="10" stroke-width="6"/>
  <polygon points="1153.082 126.707 1137.601 152.801 1168.563 152.801 1153.082 126.707" fill="none" stroke="#000" stroke-miterlimit="10" stroke-width="6"/>
  <g>
    <rect x="1094.673" y="157.539" width="54.667" height="51.224" fill="none"/>
    <path d="M1115.5,188.029h0v10.845h-3.993s-14.97,0-14.97,0v-4.295h14.954v-6.6h-13.159v-4.233h13.16v-6.555h-14.968v-4.233h14.968v-.004h4.009v15.075Z"/>
    <path d="M1134.338,179.19v8.696h8.362v2.22h-8.362v8.77h-2.368v-8.77h-8.363v-2.22h8.363v-8.696h2.368Z" stroke="#000" stroke-miterlimit="10" stroke-width="2"/>
  </g>
  <g>
    <rect x="1181.958" y="108.115" width="54.667" height="51.224" fill="none"/>
    <path d="M1204.147,149.449h-1.746s-14.583,0-14.583,0v.002h-4.009v-25.925h4.009v.006h14.968v4.255h-14.968v6.534h13.161v.017h3.169v15.11ZM1187.818,145.157h12.321v-6.603h-12.321v6.603Z"/>
    <path d="M1222.993,129.766v8.696h8.362v2.22h-8.362v8.77h-2.368v-8.77h-8.363v-2.22h8.363v-8.696h2.368Z" stroke="#000" stroke-miterlimit="10" stroke-width="2"/>
  </g>
  <line x1="1153.082" y1="144.103" x2="1176.987" y2="191.761" stroke="#000" stroke-linecap="round" stroke-miterlimit="10" stroke-width="5"/>
  <line x1="1034.306" y1="239.854" x2="1058.212" y2="187.846" stroke="#000" stroke-linecap="round" stroke-miterlimit="10" stroke-width="5"/>
  <polygon points="1112.511 239.854 1076.976 260.609 1055.641 260.609 1034.307 260.609 998.772 239.854 802.076 438 892.859 506.348 998.772 540.261 1055.641 540.261 1112.511 540.261 1218.424 506.348 1309.206 438 1112.511 239.854" fill="none" stroke="#000" stroke-miterlimit="10" stroke-width="7"/>
</svg>