<?xml version="1.0" encoding="UTF-8"?>
<svg xmlns="http://www.w3.org/2000/svg" width="2559.13" height="2365.76" viewBox="0 0 2559.13 2365.76">
  <g id="b" data-name="HUD_DGTL_RWS_GUN_MANUAL_-_Dark">
    <path d="M2061.887,520.838c-76.815-76.815-183.061-183.061-183.061-183.061H683.783l-254.739,254.739v1425.43h1710.391V598.386s-34.057-34.057-77.548-77.548Z" fill="none" stroke="#ccc" stroke-miterlimit="10" stroke-width="13"/>
    <path id="c" data-name="FPMUncaged" d="M1310.514,1280.806c0,14.545-11.795,26.34-26.34,26.34s-26.34-11.795-26.34-26.34,11.795-26.34,26.34-26.34,26.34,11.795,26.34,26.34ZM1257.833,1280.806h-52.681M1310.514,1280.806h52.681M1284.174,1254.465v-26.34" fill="none" stroke="#ccc" stroke-linecap="square" stroke-miterlimit="15.1" stroke-width="6"/>
    <line x1="1194.435" y1="1387.083" x2="429.043" y2="1387.083" fill="none" stroke="#ccc" stroke-linecap="square" stroke-miterlimit="15.1" stroke-width="6"/>
    <line x1="1373.616" y1="1387.083" x2="2133.565" y2="1387.083" fill="none" stroke="#ccc" stroke-linecap="square" stroke-miterlimit="15.1" stroke-width="6"/>
    <path id="d" data-name="PotentialPath" d="M1403.423,1220.046l-29.807,17.21,29.807,17.21" fill="none" stroke="#ccc" stroke-miterlimit="15.1" stroke-width="6"/>
    <g id="e" data-name="baro_alt_rect">
      <path id="f" data-name="rect7" d="M1736.116,1249.139v71.976h195.363v-71.976h-195.363Z" fill="none" stroke="#ccc" stroke-miterlimit="15.1" stroke-width="6"/>
    </g>
    <g id="g" data-name="airspeed_rect">
      <path id="h" data-name="rect8" d="M638.187,1247.726v73.628h195.015v-73.628h-195.015Z" fill="none" stroke="#ccc" stroke-miterlimit="15.1" stroke-width="6"/>
    </g>
    <g id="i" data-name="CompassMarker">
      <path id="j" data-name="path98" d="M1287.678,484.516h24.701l-24.701,49.402-24.701-49.402h24.701Z" fill="none" stroke="#ccc" stroke-miterlimit="10" stroke-width="6"/>
    </g>
    <rect id="k" data-name="CmdCue" x="1273.598" y="541.764" width="13.339" height="42.98" fill="none" stroke="#ccc" stroke-miterlimit="10" stroke-width="6"/>
    <line x1="904.478" y1="538.386" x2="904.478" y2="584.744" fill="none" stroke="#ccc" stroke-miterlimit="10" stroke-width="6"/>
    <line x1="1168.478" y1="538.386" x2="1168.478" y2="584.744" fill="none" stroke="#ccc" stroke-miterlimit="10" stroke-width="6"/>
    <line x1="1429.87" y1="538.386" x2="1429.87" y2="584.744" fill="none" stroke="#ccc" stroke-miterlimit="10" stroke-width="6"/>
    <line x1="1690.739" y1="538.386" x2="1690.739" y2="584.744" fill="none" stroke="#ccc" stroke-miterlimit="10" stroke-width="6"/>
    <line x1="1033.87" y1="533.919" x2="1033.87" y2="561.565" fill="none" stroke="#ccc" stroke-miterlimit="10" stroke-width="6"/>
    <line x1="1560.826" y1="538.386" x2="1560.826" y2="561.565" fill="none" stroke="#ccc" stroke-miterlimit="10" stroke-width="6"/>
    <path d="M625.703,1510.682l-13.431,16.416c-1.502,1.836-3.749,2.901-6.122,2.901h0c-2.098,0-4.11-.833-5.593-2.317l-.635-.635c-1.483-1.483-2.317-3.495-2.317-5.593v-.472c0-2.098.833-4.11,2.317-5.593l.635-.635c1.483-1.483,3.495-2.317,5.593-2.317h0c2.372,0,4.619,1.065,6.122,2.901l13.431,16.416" fill="none" stroke="#ccc" stroke-linecap="round" stroke-linejoin="round" stroke-width="6"/>
    <path id="l" data-name="TargetDesignatorUnknownHooked" d="M1204.219,1121.035h-71.481v-71.481h71.481v71.481ZM1204.219,1121.035l19.257,19.257M1132.738,1049.554l-19.257-19.257M1204.219,1049.554l19.257-19.257M1132.738,1121.035l-19.257,19.257" fill="none" stroke="#ccc" stroke-linecap="square" stroke-miterlimit="15.1" stroke-width="6"/>
    <path d="M1526.207,1364.664c-.388,1.057-.783,2.111-1.185,3.161" fill="none" stroke="#ccc" stroke-miterlimit="10" stroke-width="6"/>
    <path id="m" data-name="LadderNegative" d="M1051.562,1788.31l37.997-1.662h0l-37.997,1.662ZM1116.696,1785.469l37.992-1.662M1214.933,1736.964l-.125,44.788-32.977.88M1513.859,1786.903l-37.997-1.662h0l37.997,1.662ZM1410.733,1782.399l37.992,1.662M1350.488,1735.557l.125,44.788,32.977.88M1054.495,1772.066s13.061-1.179,14.87-1.63c1.809-.451,3.673-1.527,4.976-2.95,1.304-1.423,2.179-3.977,2.043-7.074-.081-2.309.206-4.058-1.635-6.003-1.679-1.766-3.33-1.956-5.205-1.967l-15.869.69-.81-15.484,21.036-.907M1022.05,1753.92l17.287-.761M1215.166,2734.984l.934-43.8-.934,43.8ZM1053.469,2757.172l37.704-4.966-37.704,4.966ZM1118.109,2748.664l37.704-4.966-37.704,4.966ZM1182.743,2740.151l32.755-5.004-32.755,5.004ZM1346.071,2733.577l-.934-43.8.934,43.8ZM1470.065,2750.804l37.704,4.966-37.704-4.966ZM1443.134,2747.257l-37.704-4.966,37.704,4.966ZM1345.74,2733.745l32.755,5.004-32.755-5.004ZM1013.287,2729.16l17.151-2.26M1058.467,2742.552l-4.433-33.629M1052.409,2710.341l1.63-1.423M1055.664,2743.323l5.71-.755M1081.459,2740.08s12.952-2.325,14.718-2.934,3.537-1.847,4.716-3.385,1.831-4.162,1.423-7.247c-.283-2.298-.152-4.075-2.162-5.857-1.831-1.619-3.504-1.662-5.379-1.51l-15.804,2.081-2.168-15.408,20.949-2.749M1218.176,3208.457l.723-43.778-.723,43.778ZM1056.326,3236.985l37.449-6.639-37.449,6.639ZM1120.521,3225.608l37.449-6.639-37.449,6.639ZM1184.715,3214.232l33.293-5.775-33.293,5.775ZM1345.403,3207.055l-.723-43.778.723,43.778ZM1469.804,3228.944l37.449,6.639-37.449-6.639ZM1405.61,3217.568l37.449,6.639-37.449-6.639ZM1345.571,3207.055l33.293,5.775-33.293-5.775ZM1022.279,3208.212l17.037-3.01M1079.204,3218.285l-22.688,4.004,14.424-19.037c4.553-5.987,5.053-13.099-1.679-16.445-1.722-.853-3.982-1.168-6.682-.69-3.276.576-7.747,1.793-10.067,6.753M1085.082,3186.394l4.373,24.774c.451,2.543,3.173,4.189,6.085,3.678l12.148-2.146c2.912-.516,4.906-2.993,4.46-5.536l-4.373-24.774c-.451-2.543-3.173-4.189-6.085-3.678l-12.148,2.146c-2.912.516-4.906,2.993-4.46,5.536ZM1214.433,3682.554l.435-45.011-.435,45.011ZM1054.175,3717.694l37.144-8.16-37.144,8.16ZM1117.853,3703.704l37.144-8.16-37.144,8.16ZM1181.526,3689.709l32.738-7.655-32.738,7.655ZM1339.992,3681.152l-.435-45.011.435,45.011ZM1463.105,3708.126l37.144,8.16-37.144-8.16ZM1399.427,3694.131l37.144,8.16-37.144-8.16ZM1340.155,3680.647l32.738,7.655-32.738-7.655ZM1019.997,3690.405l16.891-3.749M1077.59,3697.858l-22.492,4.987,13.582-19.651c4.287-6.177,4.477-13.305-2.396-16.358-1.755-.777-4.031-.994-6.704-.397-3.249.723-7.66,2.13-9.763,7.182M1088.76,3695.539s12.702-3.444,14.408-4.205c1.706-.761,3.363-2.146,4.401-3.781s1.461-4.308.788-7.345c-.484-2.265-.505-4.047-2.662-5.645-1.967-1.456-3.635-1.353-5.487-1.038l-15.565,3.45-3.499-15.158,20.629-4.564M1215.981,4112.548l-1.478,43.99,1.478-43.99ZM1054.919,4199.028l36.737-9.839-36.737,9.839ZM1117.897,4182.164l36.737-9.839-36.737,9.839ZM1180.874,4165.301l33.629-9.1-33.629,9.1ZM1336.716,4155.136l-1.478-43.99,1.478,43.99ZM1459.563,4187.787l36.737,9.839-36.737-9.839ZM1396.586,4170.924l36.737,9.839-36.737-9.839ZM1336.716,4154.799l33.629,9.1-33.629-9.1ZM1020.23,4173.738l16.711-4.482M1054.968,4181.903l1.592.288c2.059.418,8.557-.027,10.583-.57l2.477-.663c1.804-.483,3.406-1.543,4.558-3.01h0c1.679-2.14,2.255-4.944,1.548-7.573l-.75-2.798c-.473-1.771-1.635-3.281-3.222-4.2l-.587-.337c-1.423-.82-3.118-1.043-4.705-.619l-5.862,1.57,8.415-18.657-18.081,4.846M1081.274,4146.617l6.514,24.301c.668,2.494,3.526,3.895,6.384,3.135l11.914-3.195c2.858-.766,4.629-3.406,3.961-5.905l-6.514-24.301c-.668-2.494-3.526-3.895-6.384-3.135l-11.914,3.195c-2.858.766-4.629,3.406-3.961,5.905ZM1215.971,4586.466l-.766,45.223.766-45.223ZM1058.141,4681.362l36.253-11.49-36.253,11.49ZM1120.287,4661.662l36.253-11.49-36.253,11.49ZM1182.434,4641.962l32.434-10.605-32.434,10.605ZM1336.319,4585.064l.766,45.223-.766-45.223ZM1457.89,4668.469l36.253,11.49-36.253-11.49ZM1395.749,4648.764l36.253,11.49-36.253-11.49ZM1337.416,4629.95l32.434,10.605-32.434-10.605ZM1022.148,4657.37l16.5-5.205M1057.174,4663.998l1.603.223c2.075.331,8.546-.402,10.551-1.032l2.445-.772c1.782-.56,3.336-1.689,4.422-3.206h0c1.586-2.211,2.037-5.036,1.217-7.633l-.869-2.76c-.554-1.749-1.777-3.211-3.406-4.058l-.598-.31c-1.461-.761-3.162-.907-4.727-.413l-5.791,1.825,7.595-19.004-17.852,5.628M1091.189,4656.294s12.354-4.537,13.99-5.444,3.162-2.429,4.058-4.151,1.081-4.417.147-7.383c-.679-2.217-.853-3.988-3.146-5.389-2.086-1.277-3.738-1.032-5.558-.554l-15.201,4.792-4.808-14.799,20.156-6.34M1213.33,5092.188l.641-43.827-.641,43.827ZM1058.44,5148.375l35.732-13.017-35.732,13.017ZM1119.695,5126.062l35.732-13.017-35.732,13.017ZM1180.956,5103.749l32.374-11.898-32.374,11.898ZM1333.869,5090.781l-.641-43.827.641,43.827ZM1453.027,5133.955l35.732,13.017-35.732-13.017ZM1391.772,5111.643l35.732,13.017-35.732-13.017ZM1333.869,5090.449l32.374,11.898-32.374-11.898ZM1022.393,5124.47l16.26-5.922M1076.602,5125.518l-11.822-32.472h0l-3.091,1.124-8.627,23.062,20.297-7.389M1079.047,5092.508l8.606,23.638c.886,2.429,3.852,3.575,6.628,2.564l11.588-4.221c2.776-1.01,4.314-3.797,3.428-6.226l-8.606-23.638c-.886-2.429-3.852-3.575-6.628-2.564l-11.588,4.221c-2.776,1.01-4.314,3.797-3.428,6.226ZM1212.526,5519.46l-.473,44.354.473-44.354ZM1059.456,5626.373l35.178-14.451-35.178,14.451ZM1119.76,5601.599l35.178-14.451-35.178,14.451ZM1180.065,5576.83l31.989-13.354-31.989,13.354ZM1331.783,5518.058l.473,44.354-.473-44.354ZM1449.675,5610.52l35.178,14.451-35.178-14.451ZM1389.371,5585.746l35.178,14.451-35.178-14.451ZM1332.255,5562.075l31.989,13.354-31.989-13.354ZM1022.349,5605.728l15.983-6.623M1076.846,5604.315l-13.229-31.923h0l-3.037,1.26-7.617,23.416,19.955-8.269M1089.521,5599.165s11.909-5.596,13.457-6.644c1.548-1.049,2.939-2.695,3.678-4.487.739-1.793.69-4.493-.5-7.372-.869-2.146-1.201-3.895-3.602-5.096-2.189-1.092-3.814-.701-5.585-.071l-14.728,6.101-6.079-14.321,19.526-8.073M1213.499,6045.739l.473-46.087-.473,46.087ZM1063.911,6115.079l34.499-16.005-34.499,16.005ZM1123.047,6087.643l34.499-16.005-34.499,16.005ZM1213.499,6045.403l-31.31,14.799,31.31-14.799ZM1333.228,5998.245l.473,46.087-.473-46.087ZM1448.795,6097.667l34.499,16.005-34.499-16.005ZM1389.653,6070.231l34.499,16.005-34.499-16.005ZM1365.01,6058.8l-31.31-14.799,31.31,14.799ZM1025.43,6094.864l15.983-6.628M1062.042,6100.894s11.909-5.596,13.457-6.644c1.548-1.049,2.939-2.695,3.678-4.487s.69-4.493-.5-7.372c-.869-2.146-1.201-3.895-3.602-5.096-2.189-1.092-3.814-.701-5.585-.071l-14.728,6.101-6.079-14.321,19.526-8.073M1081.812,6060.213l9.632,23.242c.989,2.385,4.004,3.406,6.737,2.271l11.393-4.721c2.733-1.13,4.145-3.982,3.156-6.373l-9.632-23.242c-.989-2.385-4.004-3.406-6.737-2.271l-11.393,4.721c-2.733,1.13-4.145,3.982-3.156,6.373ZM1214.667,6519.506l.934-45.565-.934,45.565ZM1068.306,6595.022l33.749-17.526-33.749,17.526ZM1126.166,6564.973l33.749-17.526-33.749,17.526ZM1184.02,6534.93l30.647-15.755-30.647,15.755ZM1336.879,6518.098l-.934-45.565.934,45.565ZM1449.491,6576.089l33.749,17.526-33.749-17.526ZM1425.38,6563.566l-33.749-17.526,33.749,17.526ZM1367.525,6533.522l-30.647-15.755,30.647,15.755ZM1029.336,6576.616l15.679-7.318M1066.317,6581.168s11.653-6.112,13.158-7.22c1.505-1.108,2.814-2.825,3.477-4.645s.494-4.52-.82-7.34c-.962-2.108-1.369-3.841-3.825-4.933-2.233-.994-3.841-.533-5.585.174l-14.446,6.737-6.699-14.044,19.151-8.921M1097.067,6566.733s11.653-6.112,13.158-7.22,2.814-2.825,3.477-4.645.494-4.52-.82-7.34c-.962-2.108-1.369-3.841-3.825-4.933-2.233-.994-3.841-.533-5.585.174l-14.446,6.737-6.699-14.044,19.151-8.921M1217.579,6995.847l.723-45.549-.723,45.549ZM1074.738,7078.166l32.912-19.059-32.912,19.059ZM1131.153,7045.492l32.912-19.059-32.912,19.059ZM1187.568,7012.825l30.179-17.478-30.179,17.478ZM1340.459,6994.445l-.723-45.549.723,45.549ZM1450.392,7057.705l32.912,19.059-32.912-19.059ZM1393.978,7025.032l32.912,19.059-32.912-19.059ZM1340.296,6993.94l30.179,17.478-30.179-17.478ZM1048.248,7054.244l-15.348,7.991M1079.938,7060.009c6.813-3.547,8.372-9.448,5.802-14.386-3.325-6.384-9.85-6.237-15.114-3.493s-8.644,7.747-5.319,14.137c2.57,4.939,7.818,7.291,14.631,3.743h0ZM1064.769,7028.944c-.619,1.929-1.239,3.836-1.565,8.214-.538,7.177.277,15.582,1.733,18.39M1086.517,7022.593l11.621,22.313c1.195,2.293,4.287,3.043,6.911,1.679l10.936-5.693c2.624-1.364,3.781-4.33,2.586-6.623l-11.621-22.313c-1.195-2.293-4.287-3.043-6.911-1.679l-10.936,5.693c-2.624,1.364-3.781,4.33-2.586,6.623ZM1216.134,7424.585l-1.059,46.532,1.059-46.532ZM1075.57,7558.842l32.108-20.378-32.108,20.378ZM1130.61,7523.909l32.108-20.378-32.108,20.378ZM1214.906,7470.786l-29.25,18.189,29.25-18.189ZM1338.623,7469.716l-1.059-46.532,1.059,46.532ZM1478.127,7557.441l-32.108-20.378,32.108,20.378ZM1390.979,7502.129l32.108,20.378-32.108-20.378ZM1338.791,7469.379l29.25,18.189-29.25-18.189ZM1032.791,7543.918l14.984-8.655M1099.637,7528s11.078-7.101,12.479-8.34,2.559-3.059,3.059-4.927.098-4.547-1.456-7.242c-1.141-2.015-1.701-3.705-4.238-4.58-2.309-.798-3.874-.196-5.547.657l-13.805,7.97-7.899-13.403,18.303-10.556M1079.666,7539.68c6.65-3.841,7.954-9.807,5.172-14.625-3.602-6.237-10.11-5.802-15.25-2.83-5.139,2.972-8.301,8.117-4.699,14.353,2.782,4.819,8.133,6.943,14.783,3.102h-.005ZM1063.155,7509.311c-.532,1.956-1.07,3.884-1.206,8.274-.228,7.198.956,15.554,2.537,18.292M1215.074,7951.74l.516-46.348-.516,46.348ZM1079.22,8045.946l31.163-21.802-31.163,21.802ZM1132.642,8008.573l31.163-21.802-31.163,21.802h0ZM1186.057,7971.2l29.017-19.96-29.017,19.96ZM1338.623,7950.333l-.516-46.348.516,46.348ZM1443.314,8022.742l31.163,21.802-31.163-21.802ZM1389.898,7985.37l31.163,21.802-31.163-21.802ZM1338.623,7949.833l29.017,19.96-29.017-19.96ZM1038.344,8030.897l14.593-9.301M1075.352,8030.201l1.032-41.246-16.999,10.833M1088.07,7986.646l13.517,21.221c1.391,2.179,4.536,2.657,7.03,1.07l10.404-6.628c2.494-1.586,3.39-4.645,1.999-6.824l-13.517-21.221c-1.391-2.179-4.536-2.657-7.03-1.07l-10.404,6.628c-2.494,1.586-3.39,4.645-1.999,6.824ZM1212.401,8418.987l.473-45.826-.473,45.826ZM1080.72,8519.472l30.212-23.1-30.212,23.1ZM1132.506,8479.873l30.212-23.106-30.212,23.106ZM1184.292,8440.267l27.604-21.112-27.604,21.112ZM1336.949,8417.585l-.473-45.826.473,45.826ZM1438.424,8494.97l30.212,23.1-30.212-23.1ZM1416.845,8478.471l-30.212-23.106,30.212,23.106ZM1337.454,8417.748l27.604,21.112-27.604-21.112ZM1041.098,8507.14l14.169-9.926M1106.434,8485.442s10.415-8.041,11.702-9.399,2.282-3.271,2.619-5.178-.299-4.536-2.086-7.084c-1.315-1.907-2.016-3.547-4.623-4.194-2.374-.592-3.874.141-5.465,1.141l-13.061,9.143-9.035-12.664,17.314-12.11M1078.085,8505l-.766-41.252-16.51,11.567M1218.247,8896.599l.598-44.804-.598,44.804ZM1091.069,9004.24l29.098-24.486-29.098,24.486ZM1140.954,8962.266l29.098-24.486-29.098,24.486ZM1190.838,8920.292l27.577-23.692-27.577,23.692ZM1344.137,8895.192l-.598-44.804.598,44.804ZM1442.221,8978.347l29.098,24.486-29.098-24.486ZM1392.337,8936.378l29.098,24.486-29.098-24.486ZM1371.551,8918.885l-27.577-23.692,27.577,23.692ZM1047.84,8994.858l13.723-10.534M1066.904,8967.639l3.645,4.754c.799,1.043,2.043,1.679,3.45,1.771l2.162.141-.424,2.124c-.277,1.385.016,2.749.82,3.792l5.4,7.036c.793,1.032,2.026,1.668,3.423,1.755h0c1.396.092,2.847-.369,4.026-1.277l9.361-7.188c1.184-.907,1.999-2.189,2.276-3.559h0c.277-1.375-.016-2.727-.81-3.76l-5.4-7.036c-.799-1.043-2.043-1.679-3.45-1.771l-2.162-.141.424-2.124c.277-1.385-.016-2.749-.82-3.792l-3.645-4.754c-.793-1.032-2.026-1.668-3.423-1.755h0c-1.396-.092-2.847.369-4.026,1.277l-9.361,7.188c-1.184.907-1.999,2.189-2.276,3.559h0c-.277,1.375.016,2.727.81,3.76ZM1076.162,8974.3l13.055-10.018M1093.878,8946.218l15.321,19.955c1.575,2.048,4.748,2.249,7.095.451l9.785-7.508c2.347-1.799,2.972-4.922,1.396-6.97l-15.321-19.955c-1.575-2.048-4.748-2.249-7.095-.451l-9.785,7.508c-2.347,1.799-2.972,4.922-1.396,6.97ZM1220.089,9369.029l.391-44.576-.391,44.576ZM1097.35,9482.195l28.05-25.687-28.05,25.687ZM1145.436,9438.173l28.05-25.687-28.05,25.687ZM1193.517,9394.145l26.903-25.116-26.903,25.116ZM1346.647,9367.621l-.391-44.576.391,44.576ZM1441.336,9455.107l28.05,25.687-28.05-25.687ZM1393.255,9411.084l28.05,25.687-28.05-25.687ZM1346.31,9367.621l26.903,25.116-26.903-25.116ZM1065.28,9464.147l-13.251,11.126M1115.273,9448.055s9.676-8.921,10.839-10.382,1.988-3.455,2.157-5.384-.695-4.493-2.695-6.878c-1.472-1.787-2.314-3.358-4.971-3.776-2.412-.38-3.846.478-5.346,1.614l-12.213,10.246-10.105-11.833,16.19-13.572M1069.74,9447.446l3.852,4.585c.848,1.005,2.113,1.586,3.526,1.619l2.168.044-.331,2.141c-.217,1.396.136,2.744.983,3.754l5.705,6.791c.837.999,2.097,1.576,3.493,1.603h0c1.402.027,2.825-.494,3.971-1.45l9.04-7.59c1.141-.956,1.902-2.271,2.119-3.656h0c.212-1.385-.136-2.722-.972-3.722l-5.705-6.791c-.848-1.005-2.113-1.586-3.526-1.619l-2.168-.044.331-2.141c.217-1.396-.136-2.744-.983-3.754l-3.852-4.585c-.837-.999-2.097-1.576-3.493-1.603h0c-1.402-.027-2.825.494-3.971,1.45l-9.04,7.59c-1.141.956-1.902,2.271-2.119,3.656h0c-.212,1.385.136,2.722.972,3.722ZM1079.28,9453.699l12.604-10.578M1209.261,9845.164c0,41.708,33.325,75.517,74.43,75.517s74.43-33.809,74.43-75.517-33.325-75.517-74.43-75.517-74.43,33.809-74.43,75.517ZM1277.715,9769.104h11.409v-16.299h-11.409v16.299ZM1235.339,9789.205h96.161-96.161ZM1217.954,9818.542h131.475-131.475ZM1212.521,9845.707h142.341-142.341ZM1217.954,9872.328h131.475-131.475ZM1230.992,9895.145h106.484-106.484Z" fill="none" stroke="#ccc" stroke-miterlimit="10" stroke-width="6"/>
    <path id="n" data-name="LadderPositive" d="M1198.541-6056.898l51.865,28.502-5.14,23.362-16.821,4.672-30.371-56.537h.467ZM1278.908-6031.199l5.14,29.437,8.41,1.869,28.969-57.004-42.052,25.699s-.467,0-.467,0ZM1318.624-5935.413l-12.616-26.166-22.428,2.803.935,7.943,34.109,15.419ZM1238.257-5958.309l-23.83-5.607-14.017,29.904,38.314-24.297s-.467,0-.467,0ZM1132.192-5981.208l113.074,22.428,17.288,282.685,20.559-283.152,122.886-17.755-121.017-22.428-19.157-102.795-18.223,98.589-115.41,22.895v-.467ZM1490.352-5553.915v-17.288h-144.847M1181.968-5572.137h-144.847v17.288M1489.59-5146.306v-17.288h-144.847M1181.206-5164.528h-144.847v17.288M1489.969-4740.057v-17.288h-144.847M1181.585-4758.279h-144.847v17.288M1489.207-4332.448v-17.288h-144.847M1180.823-4350.671h-144.847v17.288M1490.16-3924.157v-17.288h-144.847M1181.776-3942.38h-144.847v17.288M1489.399-3516.548v-17.288h-144.847M1181.015-3534.771h-144.847v17.288M1489.782-3110.299v-17.288h-144.847M1181.398-3128.522h-144.847v17.288M1489.02-2702.69v-17.288h-144.847M1180.636-2720.913h-144.847v17.288M1489.385-2294.199v-17.288h-144.847M1181.001-2312.421h-144.847v17.288M1488.623-1886.59v-17.288h-144.847M1180.239-1904.812h-144.847v17.288M1489.006-1480.341v-17.288h-144.847M1180.622-1498.564h-144.847v17.288M1488.24-1072.732v-17.288h-144.847M1179.856-1090.955h-144.847v17.288M1489.193-664.446v-17.288h-144.847M1180.809-682.668h-144.847v17.288M1488.432-256.832v-17.288h-144.847M1180.048-275.055h-144.847v17.288M1488.053,557.026v-17.288h-144.847M1179.669,538.803h-144.847v17.288M1489.357,969.872v-17.288h-144.847M1180.973,951.65h-144.847v17.288" fill="none" stroke="#ccc" stroke-linecap="square" stroke-miterlimit="15.1" stroke-width="6"/>
    <g>
      <path d="M898.872,619.371c1.76,0,3.187,1.427,3.187,3.187s-1.427,3.187-3.187,3.187h-23.849c-.439,0-.861-.093-1.241-.253-.025-.009-.042-.034-.067-.046-.367-.165-.697-.393-.971-.676-.013-.012-.029-.017-.042-.029-.114-.118-.161-.27-.249-.401-.139-.199-.292-.384-.38-.612-.089-.232-.11-.473-.144-.717-.025-.156-.093-.292-.093-.452,0-.017.008-.034.008-.051.004-.262.084-.511.152-.764.042-.147.046-.312.105-.452.055-.131.165-.236.241-.359.139-.232.274-.468.469-.658.013-.013.029-.042.029-.042l18.15-17.011c2.744-2.579,4.242-5.373,4.111-7.665-.088-1.604-.975-3.01-2.697-4.293-1.161-.857-2.815-1.313-4.766-1.313-3.761,0-6.703.642-8.855,3.77-.996,1.457-2.976,1.819-4.432.823-1.448-.996-1.815-2.98-.819-4.432,4.491-6.53,11.477-6.53,14.106-6.53,3.322,0,6.281.886,8.561,2.562,4.103,3.06,5.128,6.61,5.268,9.054.241,4.238-1.929,8.737-6.116,12.676l-12.274,11.506h15.791l.004-.008Z" fill="#ccc"/>
      <path d="M934.743,603.061c1.385.35,2.406,1.6,2.406,3.09s-1.021,2.739-2.406,3.09v13.33c0,1.76-1.427,3.187-3.187,3.187s-3.187-1.427-3.187-3.187v-13.237h-16.779c-1.245,0-2.376-.718-2.896-1.849-.523-1.131-.338-2.46.469-3.406l16.546-19.375c.604-.709,1.49-1.119,2.423-1.119h3.419c1.76,0,3.187,1.427,3.187,3.187v16.28l.004.009ZM928.365,591.406l-9.864,11.553h9.864v-11.553Z" fill="#ccc"/>
    </g>
    <g>
      <path d="M1162.113,615.543c1.76,0,3.187,1.427,3.187,3.187s-1.427,3.187-3.187,3.187h-23.849c-.439,0-.861-.093-1.241-.253-.025-.009-.042-.034-.067-.046-.367-.165-.697-.393-.971-.676-.013-.012-.029-.017-.042-.029-.114-.118-.161-.27-.249-.401-.139-.199-.292-.384-.38-.612-.089-.232-.11-.473-.144-.717-.025-.156-.093-.292-.093-.452,0-.017.008-.034.008-.051.004-.262.084-.511.152-.764.042-.147.046-.312.105-.452.055-.131.165-.236.241-.359.139-.232.274-.468.469-.658.013-.013.029-.042.029-.042l18.15-17.011c2.744-2.579,4.242-5.373,4.111-7.665-.088-1.604-.975-3.01-2.697-4.293-1.161-.857-2.815-1.313-4.765-1.313-3.761,0-6.703.642-8.856,3.77-.996,1.457-2.976,1.819-4.432.823-1.448-.996-1.815-2.98-.819-4.432,4.491-6.53,11.477-6.53,14.107-6.53,3.322,0,6.281.886,8.56,2.562,4.103,3.06,5.128,6.61,5.268,9.054.24,4.238-1.929,8.737-6.117,12.676l-12.274,11.506h15.791l.004-.008Z" fill="#ccc"/>
      <path d="M1186.478,594.662c9.202,0,15.386,5.47,15.386,13.613,0,8.02-6.327,13.617-15.386,13.617s-14.837-5.344-14.837-13.617c0-.194.046-.363.051-.553-.008-.088-.051-.16-.051-.249,0-4.381,3.913-13.305,7.695-19.408,2.533-4.094,4.217-5.774,5.699-7.256,1.245-1.245,3.322-1.305,4.567-.059,1.245,1.245,1.305,3.208.059,4.449l-.118.118c-1.359,1.355-2.638,2.638-4.787,6.104-.747,1.199-1.422,2.415-2.06,3.622,1.194-.228,2.439-.384,3.782-.384v.004ZM1195.49,608.27c0-6.534-6.302-7.239-9.012-7.239-3.862,0-8.463,1.258-8.463,7.239,0,4.673,3.005,7.243,8.463,7.243,5.559,0,9.012-2.773,9.012-7.243Z" fill="#ccc"/>
    </g>
    <g>
      <path d="M1423.536,619.715c1.76,0,3.187,1.427,3.187,3.187s-1.427,3.187-3.187,3.187h-23.85c-.438,0-.86-.093-1.24-.253-.025-.009-.043-.034-.067-.046-.367-.165-.697-.393-.972-.676-.013-.012-.029-.017-.042-.029-.114-.118-.16-.27-.249-.401-.139-.199-.291-.384-.38-.612-.089-.232-.109-.473-.144-.717-.025-.156-.093-.292-.093-.452,0-.017.009-.034.009-.051.004-.262.084-.511.151-.764.043-.147.047-.312.105-.452.056-.131.165-.236.241-.359.139-.232.274-.468.469-.658.013-.013.029-.042.029-.042l18.15-17.011c2.743-2.579,4.242-5.373,4.111-7.665-.089-1.604-.976-3.01-2.697-4.293-1.161-.857-2.815-1.313-4.766-1.313-3.761,0-6.703.642-8.855,3.77-.996,1.457-2.977,1.819-4.433.823-1.447-.996-1.814-2.98-.818-4.432,4.491-6.53,11.477-6.53,14.106-6.53,3.322,0,6.281.886,8.561,2.562,4.103,3.06,5.128,6.61,5.268,9.054.24,4.238-1.929,8.737-6.116,12.676l-12.274,11.506h15.79l.005-.008Z" fill="#ccc"/>
      <path d="M1463.245,598.39c0,1.845-.688,3.647-1.921,5.107,1.232,1.465,1.921,3.263,1.921,5.107v9.206c0,2.25-1.009,4.432-2.77,5.981-1.654,1.464-3.858,2.271-6.2,2.271h-12.241c-2.292,0-4.551-.828-6.196-2.271-1.79-1.579-2.773-3.702-2.773-5.981v-9.206c0-1.845.688-3.647,1.92-5.107-1.236-1.469-1.92-3.271-1.92-5.107v-6.205c0-2.25,1.009-4.432,2.769-5.981,1.659-1.469,3.862-2.275,6.201-2.275h12.241c2.3,0,4.559.828,6.2,2.271,1.79,1.583,2.77,3.706,2.77,5.981v6.209ZM1456.871,608.597c0-.422-.241-.87-.654-1.237l-.781-.684h-14.57l-.785.688c-.405.363-.646.81-.646,1.232v9.206c0,.435.207.835.612,1.194.485.426,1.229.684,1.983.684h12.241c.772,0,1.499-.245,1.984-.68.388-.338.616-.785.616-1.199v-9.206ZM1439.442,592.185v6.205c0,.422.24.874.658,1.25l.769.671h14.575l.789-.688c.401-.359.642-.811.642-1.232v-6.205c0-.439-.207-.844-.616-1.203-.481-.422-1.224-.679-1.983-.679h-12.241c-.772,0-1.494.249-1.979.679h-.005c-.384.338-.611.785-.611,1.199l.004.004Z" fill="#ccc"/>
    </g>
    <g>
      <path d="M1684.52,603.7c1.959,1.958,3.04,4.559,3.04,7.315v2.997c0,3.833-1.824,7.471-4.876,9.738-2.063,1.562-4.584,2.397-7.26,2.397h-2.659c-2.419,0-9.607-1.342-12.148-2.617l-1.452-.684c-1.591-.751-2.271-2.651-1.52-4.242.751-1.596,2.646-2.267,4.242-1.52l1.52.717c1.41.705,7.492,1.976,9.362,1.976h2.659c1.275,0,2.461-.393,3.437-1.127,1.481-1.106,2.321-2.79,2.321-4.639v-2.997c0-1.056-.418-2.052-1.178-2.812l-.511-.511c-.608-.612-1.448-.962-2.301-.962h-6.289c-1.229,0-2.352-.709-2.879-1.823-.527-1.115-.367-2.427.414-3.381l9.168-11.219h-12.655c-1.76,0-3.187-1.427-3.187-3.187s1.427-3.187,3.187-3.187h19.375c1.229,0,2.352.709,2.879,1.824.527,1.11.367,2.427-.414,3.381l-9.177,11.228c2.386.105,4.694,1.123,6.391,2.82l.511.511v.004Z" fill="#ccc"/>
      <path d="M1724.126,591.974v26.086c0,4.436-3.909,8.041-8.717,8.041h-12.79c-4.888,0-8.716-3.533-8.716-8.041v-26.086c0-4.436,3.908-8.041,8.716-8.041h12.79c4.808,0,8.717,3.605,8.717,8.041ZM1717.752,591.974c0-.92-1.051-1.671-2.343-1.671h-12.79c-1.342,0-2.342.882-2.342,1.671v26.086c0,.92,1.051,1.671,2.342,1.671h12.79c1.343,0,2.343-.882,2.343-1.671v-26.086Z" fill="#ccc"/>
    </g>
    <g>
      <path d="M715.438,1277.884c1.958,1.958,3.039,4.559,3.039,7.315v2.996c0,3.833-1.824,7.472-4.875,9.738-2.064,1.562-4.584,2.397-7.26,2.397h-2.659c-2.418,0-9.607-1.342-12.148-2.617l-1.452-.684c-1.591-.751-2.271-2.65-1.52-4.242.751-1.596,2.646-2.267,4.242-1.52l1.52.718c1.41.705,7.492,1.976,9.362,1.976h2.659c1.275,0,2.461-.393,3.436-1.127,1.481-1.106,2.321-2.79,2.321-4.64v-2.996c0-1.056-.418-2.052-1.178-2.812l-.511-.511c-.608-.612-1.448-.963-2.3-.963h-6.29c-1.228,0-2.351-.709-2.878-1.823-.528-1.114-.367-2.427.414-3.381l9.168-11.22h-12.655c-1.76,0-3.187-1.427-3.187-3.187s1.426-3.188,3.187-3.188h19.375c1.229,0,2.352.71,2.879,1.824.528,1.109.367,2.427-.414,3.381l-9.177,11.228c2.385.105,4.694,1.123,6.391,2.82l.511.511v.004Z" fill="#ccc"/>
      <path d="M752.37,1277.584c2.347,2.731,2.284,5.327,2.229,7.416l-.017.959c0,3.899-1.232,7.365-3.381,9.518-1.841,1.837-4.373,3.183-6.948,3.698-1.984.396-12.722.924-15.968,1.072h-.152c-1.692,0-3.103-1.334-3.183-3.039-.08-1.756,1.275-3.246,3.035-3.331,6.517-.308,13.917-.747,15.019-.958,1.333-.271,2.748-1.018,3.689-1.958.701-.701,1.515-2.432,1.515-5.011l.017-1.119c.042-1.769.025-2.262-.684-3.089-.802-.925-1.465-1.103-3.04-1.17h-16.369c-1.751,0-3.174-1.409-3.187-3.161l-.127-16.087c-.004-.853.325-1.667.924-2.271.6-.604,1.414-.941,2.263-.941h21.865c1.76,0,3.187,1.427,3.187,3.187s-1.427,3.188-3.187,3.188h-18.652l.076,9.712h13.343c2.655.114,5.314.596,7.729,3.382l.004.004Z" fill="#ccc"/>
      <path d="M775.778,1273.021c9.202,0,15.386,5.47,15.386,13.612,0,8.021-6.327,13.617-15.386,13.617s-14.837-5.344-14.837-13.617c0-.194.046-.363.051-.553-.008-.089-.051-.16-.051-.249,0-4.382,3.913-13.305,7.695-19.408,2.533-4.095,4.217-5.774,5.699-7.256,1.245-1.245,3.322-1.305,4.567-.06s1.304,3.208.059,4.449l-.118.118c-1.359,1.354-2.638,2.638-4.787,6.104-.747,1.199-1.422,2.414-2.06,3.622,1.194-.229,2.439-.385,3.782-.385v.005ZM784.791,1286.63c0-6.534-6.302-7.239-9.012-7.239-3.862,0-8.463,1.258-8.463,7.239,0,4.673,3.005,7.243,8.463,7.243,5.559,0,9.012-2.773,9.012-7.243Z" fill="#ccc"/>
    </g>
    <g>
      <path d="M693.571,1208.711c9.202,0,15.386,5.47,15.386,13.612,0,8.021-6.327,13.617-15.386,13.617s-14.837-5.344-14.837-13.617c0-.193.046-.363.051-.553-.008-.088-.051-.16-.051-.249,0-4.382,3.913-13.305,7.695-19.408,2.533-4.095,4.217-5.774,5.699-7.256,1.245-1.245,3.322-1.305,4.567-.06,1.245,1.246,1.304,3.209.059,4.449l-.118.118c-1.359,1.354-2.638,2.638-4.787,6.104-.747,1.199-1.422,2.415-2.06,3.622,1.194-.229,2.439-.385,3.782-.385v.005ZM702.583,1222.319c0-6.534-6.302-7.239-9.012-7.239-3.862,0-8.463,1.259-8.463,7.239,0,4.673,3.005,7.243,8.463,7.243,5.559,0,9.012-2.772,9.012-7.243Z" fill="#ccc"/>
      <path d="M724.627,1229.647c1.667.105,2.997,1.456,2.997,3.148,0,1.76-1.427,3.188-3.187,3.188h-5.952c-1.76,0-3.187-1.428-3.187-3.188,0-1.68,1.309-3.014,2.955-3.141v-28.576c-.519-.24-.992-.591-1.33-1.105-.966-1.469-.561-3.449.908-4.416l1.857-1.224c.08-.056.177-.06.262-.105.186-.102.375-.173.583-.236.215-.067.417-.114.637-.131.093-.009.173-.056.27-.056.105,0,.194.051.3.06.219.021.431.063.642.131.194.063.372.136.544.228.177.094.338.203.498.334.173.139.317.291.456.46.067.085.16.131.219.224.055.08.059.178.105.262.102.186.173.38.237.587.063.211.109.413.126.629.008.097.055.177.055.274v32.65l.004.004Z" fill="#ccc"/>
      <path d="M761.143,1213.573c1.958,1.959,3.039,4.559,3.039,7.315v2.997c0,3.832-1.824,7.471-4.875,9.738-2.064,1.561-4.584,2.396-7.26,2.396h-2.659c-2.418,0-9.607-1.342-12.148-2.617l-1.452-.684c-1.591-.751-2.271-2.65-1.52-4.242.751-1.596,2.646-2.267,4.242-1.52l1.52.718c1.41.705,7.492,1.976,9.362,1.976h2.659c1.275,0,2.461-.393,3.436-1.127,1.481-1.105,2.321-2.79,2.321-4.639v-2.997c0-1.056-.418-2.052-1.178-2.812l-.511-.511c-.608-.612-1.448-.962-2.3-.962h-6.29c-1.228,0-2.351-.709-2.878-1.824-.528-1.114-.367-2.427.414-3.381l9.168-11.219h-12.655c-1.76,0-3.187-1.428-3.187-3.188s1.426-3.188,3.187-3.188h19.375c1.229,0,2.352.71,2.879,1.824.528,1.109.367,2.427-.414,3.381l-9.177,11.229c2.385.105,4.694,1.122,6.391,2.819l.511.511v.004Z" fill="#ccc"/>
      <path d="M800.579,1214.851l.127,10.088c0,3.001-1.211,5.88-3.326,7.939-2.001,1.941-4.766,3.057-7.585,3.057h-7.682c-2.406,0-4.77-.807-6.648-2.279l-.688-.523c-2.697-2.039-4.25-5.184-4.25-8.615v-19.206c0-3.377,1.596-6.602,4.263-8.619l.709-.54c1.849-1.448,4.208-2.259,6.614-2.259h8.442c2.132,0,4.217.638,6.028,1.845l2.537,1.692c1.465.979,1.857,2.955.882,4.419-.975,1.47-2.951,1.857-4.419.883l-2.533-1.692c-.76-.507-1.621-.772-2.495-.772h-8.442c-1.005,0-1.942.32-2.723.928l-.751.574c-1.097.824-1.743,2.148-1.743,3.542v19.206c0,1.418.629,2.705,1.73,3.537l.73.557c.806.633,1.748.954,2.752.954h7.682c1.178,0,2.322-.46,3.141-1.253.899-.874,1.397-2.057,1.397-3.326l-.089-6.902h-7.281c-1.76,0-3.187-1.426-3.187-3.187s1.427-3.187,3.187-3.187h10.426c1.744,0,3.166,1.4,3.187,3.145l.008-.004Z" fill="#ccc"/>
    </g>
    <g>
      <path d="M1774.25,1283.361c1.959,1.958,3.04,4.56,3.04,7.315v2.996c0,3.834-1.824,7.472-4.876,9.738-2.063,1.562-4.584,2.398-7.26,2.398h-2.659c-2.419,0-9.607-1.343-12.148-2.617l-1.452-.684c-1.591-.752-2.271-2.651-1.52-4.242.751-1.596,2.646-2.268,4.242-1.52l1.52.717c1.41.705,7.492,1.976,9.362,1.976h2.659c1.275,0,2.461-.393,3.437-1.127,1.481-1.106,2.321-2.79,2.321-4.64v-2.996c0-1.056-.418-2.052-1.178-2.812l-.511-.511c-.608-.611-1.448-.963-2.301-.963h-6.289c-1.229,0-2.352-.709-2.879-1.822-.527-1.115-.367-2.428.414-3.382l9.168-11.22h-12.655c-1.76,0-3.187-1.426-3.187-3.187s1.427-3.187,3.187-3.187h19.375c1.229,0,2.352.709,2.879,1.823.527,1.11.367,2.427-.414,3.381l-9.177,11.228c2.386.105,4.694,1.123,6.391,2.82l.511.511v.004Z" fill="#ccc"/>
      <path d="M1809.974,1283.07c1.385.351,2.406,1.6,2.406,3.09s-1.021,2.739-2.406,3.09v13.33c0,1.76-1.427,3.187-3.187,3.187s-3.187-1.427-3.187-3.187v-13.237h-16.779c-1.245,0-2.376-.718-2.896-1.85-.523-1.131-.338-2.46.469-3.406l16.547-19.374c.604-.709,1.489-1.118,2.423-1.118h3.419c1.76,0,3.187,1.426,3.187,3.187v16.28l.004.009ZM1803.596,1271.416l-9.864,11.553h9.864v-11.553Z" fill="#ccc"/>
      <path d="M1848.901,1271.636v26.086c0,4.436-3.909,8.041-8.717,8.041h-12.79c-4.888,0-8.716-3.533-8.716-8.041v-26.086c0-4.437,3.908-8.041,8.716-8.041h12.79c4.808,0,8.717,3.604,8.717,8.041ZM1842.527,1271.636c0-.92-1.051-1.672-2.343-1.672h-12.79c-1.342,0-2.342.883-2.342,1.672v26.086c0,.92,1.051,1.672,2.342,1.672h12.79c1.343,0,2.343-.883,2.343-1.672v-26.086Z" fill="#ccc"/>
      <path d="M1881.585,1283.07c1.385.351,2.406,1.6,2.406,3.09s-1.021,2.739-2.406,3.09v13.33c0,1.76-1.427,3.187-3.187,3.187s-3.187-1.427-3.187-3.187v-13.237h-16.779c-1.245,0-2.376-.718-2.896-1.85-.523-1.131-.338-2.46.469-3.406l16.547-19.374c.604-.709,1.489-1.118,2.423-1.118h3.419c1.76,0,3.187,1.426,3.187,3.187v16.28l.004.009ZM1875.207,1271.416l-9.864,11.553h9.864v-11.553Z" fill="#ccc"/>
      <path d="M1920.511,1271.636v26.086c0,4.436-3.909,8.041-8.717,8.041h-12.79c-4.888,0-8.716-3.533-8.716-8.041v-26.086c0-4.437,3.908-8.041,8.716-8.041h12.79c4.808,0,8.717,3.604,8.717,8.041ZM1914.137,1271.636c0-.92-1.051-1.672-2.343-1.672h-12.79c-1.342,0-2.342.883-2.342,1.672v26.086c0,.92,1.051,1.672,2.342,1.672h12.79c1.343,0,2.343-.883,2.343-1.672v-26.086Z" fill="#ccc"/>
    </g>
    <g>
      <path d="M739.421,1522.095c2.078,2.418,2.021,4.716,1.973,6.565l-.015.848c0,3.452-1.091,6.521-2.993,8.426-1.629,1.625-3.871,2.817-6.15,3.273-1.756.351-11.262.818-14.135.948h-.135c-1.498,0-2.746-1.181-2.817-2.689-.071-1.555,1.128-2.874,2.687-2.948,5.769-.272,12.319-.661,13.294-.849,1.181-.239,2.433-.9,3.266-1.733.62-.62,1.341-2.152,1.341-4.436l.015-.99c.037-1.565.022-2.002-.605-2.734-.71-.818-1.296-.976-2.69-1.035h-14.49c-1.55,0-2.81-1.248-2.821-2.799l-.112-14.239c-.003-.755.288-1.476.818-2.011.531-.534,1.252-.833,2.003-.833h19.354c1.558,0,2.821,1.263,2.821,2.821s-1.263,2.821-2.821,2.821h-16.511l.067,8.598h11.811c2.35.101,4.704.526,6.841,2.992l.003.004Z" fill="#ccc"/>
      <path d="M760.491,1541.422v.078c0,1.558-1.263,2.821-2.821,2.821s-2.821-1.264-2.821-2.821,1.263-2.862,2.821-2.862,2.821,1.226,2.821,2.784Z" fill="#ccc"/>
      <path d="M797.263,1522.102c1.226.31,2.13,1.416,2.13,2.734s-.904,2.426-2.13,2.735v11.8c0,1.558-1.263,2.821-2.821,2.821s-2.821-1.264-2.821-2.821v-11.718h-14.853c-1.102,0-2.104-.635-2.563-1.637-.463-1.001-.299-2.178.415-3.015l14.647-17.15c.534-.628,1.319-.99,2.145-.99h3.027c1.558,0,2.821,1.263,2.821,2.821v14.411l.004.008ZM791.617,1511.786l-8.732,10.227h8.732v-10.227Z" fill="#ccc"/>
    </g>
    <g>
      <path d="M619.948,1552.321c1.162.377,1.947,1.461,1.947,2.683v31.61c0,1.558-1.263,2.82-2.821,2.82s-2.821-1.263-2.821-2.82v-22.957l-5.474,7.507c-.531.729-1.379,1.158-2.279,1.158s-1.749-.434-2.279-1.162l-5.437-7.48v22.935c0,1.558-1.263,2.82-2.821,2.82s-2.821-1.263-2.821-2.82v-31.61c0-1.222.785-2.302,1.947-2.683,1.162-.378,2.433.037,3.154,1.023l8.257,11.366,8.291-11.366c.717-.99,1.992-1.401,3.154-1.021l.003-.003Z" fill="#ccc"/>
      <path d="M713.043,1583.836c1.476.094,2.653,1.289,2.653,2.787,0,1.559-1.263,2.821-2.821,2.821h-5.268c-1.558,0-2.821-1.263-2.821-2.821,0-1.487,1.159-2.668,2.616-2.779v-25.296c-.459-.213-.878-.523-1.177-.979-.855-1.301-.497-3.053.804-3.909l1.644-1.083c.071-.049.157-.053.231-.094.165-.09.333-.153.516-.209.19-.06.37-.101.564-.116.082-.007.153-.048.239-.048.094,0,.172.044.266.052.194.019.381.057.568.116.172.056.329.119.482.201.157.083.299.18.441.296.153.123.28.258.403.407.06.074.142.115.194.197.049.071.052.157.094.232.089.164.153.336.209.52.056.187.097.365.112.557.007.086.048.156.048.242v28.901l.004.004Z" fill="#ccc"/>
      <path d="M734.788,1588.669v.078c0,1.559-1.263,2.821-2.821,2.821s-2.821-1.263-2.821-2.821,1.263-2.861,2.821-2.861,2.821,1.226,2.821,2.783Z" fill="#ccc"/>
      <path d="M756.499,1583.836c1.476.094,2.653,1.289,2.653,2.787,0,1.559-1.263,2.821-2.821,2.821h-5.268c-1.558,0-2.821-1.263-2.821-2.821,0-1.487,1.159-2.668,2.616-2.779v-25.296c-.459-.213-.878-.523-1.177-.979-.855-1.301-.497-3.053.804-3.909l1.644-1.083c.071-.049.157-.053.231-.094.165-.09.333-.153.516-.209.19-.06.37-.101.564-.116.082-.007.153-.048.239-.048.094,0,.172.044.266.052.194.019.381.057.568.116.172.056.329.119.482.201.157.083.299.18.441.296.153.123.28.258.403.407.06.074.142.115.194.197.049.071.052.157.094.232.089.164.153.336.209.52.056.187.097.365.112.557.007.086.048.156.048.242v28.901l.004.004Z" fill="#ccc"/>
      <path d="M799.354,1559.227v23.092c0,3.927-3.46,7.117-7.716,7.117h-11.321c-4.327,0-7.716-3.127-7.716-7.117v-23.092c0-3.927,3.46-7.117,7.716-7.117h11.321c4.256,0,7.716,3.19,7.716,7.117ZM793.712,1559.227c0-.814-.93-1.479-2.074-1.479h-11.321c-1.188,0-2.074.781-2.074,1.479v23.092c0,.814.931,1.479,2.074,1.479h11.321c1.188,0,2.074-.781,2.074-1.479v-23.092Z" fill="#ccc"/>
    </g>
    <g>
      <path d="M622.866,1616.628l.112,8.931c0,2.656-1.073,5.205-2.944,7.028-1.771,1.719-4.219,2.705-6.714,2.705h-6.8c-2.13,0-4.222-.714-5.885-2.018l-.609-.464c-2.388-1.805-3.763-4.588-3.763-7.626v-17.001c0-2.988,1.413-5.844,3.774-7.629l.628-.479c1.636-1.281,3.725-1.999,5.855-1.999h7.473c1.887,0,3.733.564,5.335,1.633l2.246,1.498c1.297.867,1.644,2.615.781,3.912-.863,1.301-2.612,1.645-3.912.781l-2.242-1.499c-.673-.448-1.435-.684-2.208-.684h-7.473c-.89,0-1.719.284-2.41.822l-.665.508c-.972.729-1.543,1.902-1.543,3.135v17.001c0,1.256.557,2.396,1.532,3.132l.646.493c.713.56,1.547.844,2.436.844h6.8c1.042,0,2.055-.407,2.78-1.109.796-.773,1.237-1.819,1.237-2.944l-.079-6.109h-6.445c-1.558,0-2.821-1.263-2.821-2.82s1.263-2.821,2.821-2.821h9.229c1.543,0,2.802,1.24,2.821,2.783l.007-.004Z" fill="#ccc"/>
      <path d="M714.108,1629.727c1.476.094,2.653,1.289,2.653,2.787,0,1.559-1.263,2.821-2.821,2.821h-5.268c-1.558,0-2.821-1.263-2.821-2.821,0-1.487,1.159-2.668,2.616-2.779v-25.296c-.459-.213-.878-.523-1.177-.979-.855-1.301-.497-3.053.804-3.909l1.644-1.083c.071-.049.157-.053.231-.094.165-.09.333-.153.516-.209.19-.06.37-.101.564-.116.082-.007.153-.048.239-.048.094,0,.172.044.266.052.194.019.381.057.568.116.172.056.329.119.482.201.157.083.299.18.441.296.153.123.28.258.403.407.06.074.142.115.194.197.049.071.052.157.094.232.089.164.153.336.209.52.056.187.097.365.112.557.007.086.048.156.048.242v28.901l.004.004Z" fill="#ccc"/>
      <path d="M735.852,1634.56v.078c0,1.559-1.263,2.821-2.821,2.821s-2.821-1.263-2.821-2.821,1.263-2.861,2.821-2.861,2.821,1.226,2.821,2.783Z" fill="#ccc"/>
      <path d="M799.354,1605.118v23.092c0,3.927-3.46,7.117-7.716,7.117h-11.321c-4.327,0-7.716-3.127-7.716-7.117v-23.092c0-3.927,3.46-7.117,7.716-7.117h11.321c4.256,0,7.716,3.19,7.716,7.117ZM793.712,1605.118c0-.814-.93-1.479-2.074-1.479h-11.321c-1.188,0-2.074.781-2.074,1.479v23.092c0,.814.931,1.479,2.074,1.479h11.321c1.188,0,2.074-.781,2.074-1.479v-23.092Z" fill="#ccc"/>
    </g>
    <g>
      <path d="M729.955,1673.888c1.476.093,2.653,1.289,2.653,2.787,0,1.558-1.263,2.82-2.821,2.82h-5.268c-1.558,0-2.821-1.263-2.821-2.82,0-1.487,1.159-2.668,2.616-2.78v-25.296c-.459-.213-.878-.522-1.177-.979-.855-1.3-.497-3.053.804-3.908l1.644-1.084c.071-.048.157-.052.231-.093.165-.09.333-.153.516-.21.19-.06.37-.101.564-.115.082-.008.153-.049.239-.049.094,0,.172.045.266.053.194.019.381.056.568.115.172.057.329.12.482.202.157.082.299.18.441.295.153.123.28.258.403.407.06.075.142.116.194.198.049.071.052.157.094.231.089.165.153.337.209.52.056.187.097.366.112.557.007.086.048.157.048.243v28.901l.004.004Z" fill="#ccc"/>
      <path d="M751.699,1678.721v.078c0,1.558-1.263,2.821-2.821,2.821s-2.821-1.264-2.821-2.821,1.263-2.862,2.821-2.862,2.821,1.226,2.821,2.784Z" fill="#ccc"/>
      <path d="M796.706,1673.888c1.476.093,2.653,1.289,2.653,2.787,0,1.558-1.263,2.82-2.821,2.82h-5.268c-1.558,0-2.821-1.263-2.821-2.82,0-1.487,1.159-2.668,2.616-2.78v-25.296c-.459-.213-.878-.522-1.177-.979-.855-1.3-.497-3.053.804-3.908l1.644-1.084c.071-.048.157-.052.231-.093.165-.09.333-.153.516-.21.19-.06.37-.101.564-.115.082-.008.153-.049.239-.049.094,0,.172.045.266.053.194.019.381.056.568.115.172.057.329.12.482.202.157.082.299.18.441.295.153.123.28.258.403.407.06.075.142.116.194.198.049.071.052.157.094.231.089.165.153.337.209.52.056.187.097.366.112.557.007.086.048.157.048.243v28.901l.004.004Z" fill="#ccc"/>
    </g>
    <g>
      <path d="M862.762,1726.535c1.392,0,2.519,1.128,2.519,2.519s-1.127,2.52-2.519,2.52h-6.889v25.706c0,1.392-1.128,2.519-2.519,2.519s-2.519-1.127-2.519-2.519v-25.706h-6.89c-1.391,0-2.519-1.128-2.519-2.52s1.127-2.519,2.519-2.519h18.817Z" fill="#ccc"/>
      <path d="M894.126,1729.054v23.521c0,.667-.264,1.308-.737,1.778l-4.701,4.704c-.98.987-2.569.984-3.556.01l-2.93-2.909-2.929,2.909c-.49.487-1.134.73-1.775.73s-1.291-.246-1.781-.736l-4.705-4.705c-.474-.471-.737-1.114-.737-1.781v-23.521c0-1.391,1.128-2.519,2.519-2.519s2.519,1.128,2.519,2.519v22.477l2.192,2.192,2.179-2.165v-6.021c0-1.393,1.127-2.52,2.519-2.52s2.519,1.127,2.519,2.52v6.021l2.179,2.165,2.188-2.192v-22.477c0-1.391,1.128-2.519,2.519-2.519s2.519,1.128,2.519,2.519Z" fill="#ccc"/>
      <path d="M920.507,1743.22c1.615,1.619,2.505,3.764,2.505,6.053v1.534c0,2.655-1.271,5.202-3.403,6.813l-.754.54c-1.451,1.067-3.263,1.671-5.071,1.671h-5.572c-1.675,0-3.306-.49-4.718-1.418l-2.015-1.338c-1.161-.773-1.471-2.335-.704-3.492.774-1.162,2.335-1.469,3.493-.704l2.005,1.331c.567.377,1.261.584,1.942.584h5.571c.741,0,1.488-.25,2.109-.711l.73-.523c.824-.621,1.348-1.668,1.348-2.753v-1.534c0-.941-.37-1.822-1.034-2.489-.664-.667-1.548-1.034-2.485-1.034h-6.773c-2.285,0-4.437-.891-6.052-2.502-1.615-1.621-2.506-3.771-2.506-6.053v-2.068c0-2.285.891-4.434,2.506-6.052,1.615-1.614,3.763-2.506,6.052-2.506h6.272c1.698,0,3.336.491,4.734,1.421l2.001,1.338c1.158.771,1.468,2.34.697,3.494-.771,1.154-2.329,1.478-3.493.693l-2.001-1.334c-.567-.377-1.238-.578-1.938-.578h-6.272c-.94,0-1.828.367-2.489,1.031-.667.668-1.034,1.555-1.034,2.492v2.068c0,.938.37,1.825,1.034,2.492.661.664,1.548,1.027,2.489,1.027h6.773c2.282,0,4.431.892,6.049,2.506h.003Z" fill="#ccc"/>
      <path d="M950.174,1726.655c1.038.337,1.738,1.305,1.738,2.396v28.226c0,1.391-1.128,2.519-2.519,2.519s-2.519-1.128-2.519-2.519v-20.498l-4.888,6.702c-.474.65-1.231,1.034-2.035,1.034s-1.561-.387-2.035-1.037l-4.854-6.68v20.479c0,1.391-1.128,2.519-2.519,2.519s-2.519-1.128-2.519-2.519v-28.226c0-1.091.701-2.056,1.738-2.396,1.038-.337,2.172.033,2.816.914l7.373,10.148,7.403-10.148c.641-.884,1.778-1.251,2.816-.91l.003-.004Z" fill="#ccc"/>
    </g>
    <g>
      <path d="M850.475,1782.641c1.628,2.006,2.539,4.581,2.539,7.23v10.105c0,2.643-.881,5.145-2.549,7.239-2.255,2.776-5.548,4.357-9.045,4.357h-9.775c-1.391,0-2.519-1.127-2.519-2.519v-28.226c0-1.391,1.128-2.552,2.519-2.552h9.775c3.523,0,6.91,1.631,9.055,4.367v-.004ZM847.976,1789.874c0-1.494-.51-2.946-1.438-4.087-1.225-1.562-3.126-2.472-5.118-2.472h-7.256v23.224h7.256c1.945,0,3.86-.924,5.118-2.476.934-1.175,1.438-2.596,1.438-4.084v-10.105Z" fill="#ccc"/>
      <path d="M879.395,1806.499c1.391,0,2.519,1.128,2.519,2.519s-1.128,2.52-2.519,2.52h-18.85c-1.391,0-2.519-1.128-2.519-2.52v-28.225c0-1.392,1.128-2.52,2.519-2.52h18.85c1.391,0,2.519,1.128,2.519,2.52s-1.128,2.519-2.519,2.519h-16.331v9.078h12.794c1.392,0,2.519,1.128,2.519,2.519s-1.127,2.52-2.519,2.52h-12.794v9.074h16.331v-.003Z" fill="#ccc"/>
      <path d="M908.308,1794.962c1.615,1.618,2.505,3.764,2.505,6.052v1.535c0,2.655-1.271,5.201-3.403,6.812l-.754.541c-1.451,1.067-3.263,1.671-5.071,1.671h-5.572c-1.675,0-3.306-.49-4.718-1.418l-2.015-1.338c-1.161-.773-1.471-2.335-.704-3.493.774-1.161,2.335-1.468,3.493-.703l2.005,1.331c.567.377,1.261.584,1.942.584h5.571c.741,0,1.488-.251,2.109-.711l.73-.524c.824-.62,1.348-1.668,1.348-2.752v-1.535c0-.94-.37-1.821-1.034-2.488-.664-.667-1.548-1.034-2.485-1.034h-6.773c-2.285,0-4.437-.891-6.052-2.503-1.615-1.621-2.506-3.77-2.506-6.052v-2.068c0-2.285.891-4.434,2.506-6.052,1.615-1.615,3.763-2.506,6.052-2.506h6.272c1.698,0,3.336.49,4.734,1.421l2.001,1.338c1.158.771,1.468,2.339.697,3.493-.771,1.154-2.329,1.479-3.493.694l-2.001-1.335c-.567-.377-1.238-.577-1.938-.577h-6.272c-.94,0-1.828.367-2.489,1.031-.667.667-1.034,1.555-1.034,2.492v2.068c0,.938.37,1.825,1.034,2.492.661.664,1.548,1.027,2.489,1.027h6.773c2.282,0,4.431.892,6.049,2.506h.003Z" fill="#ccc"/>
      <path d="M937.162,1778.277c1.392,0,2.519,1.128,2.519,2.519s-1.127,2.52-2.519,2.52h-6.889v25.706c0,1.391-1.128,2.519-2.519,2.519s-2.519-1.128-2.519-2.519v-25.706h-6.89c-1.391,0-2.519-1.128-2.519-2.52s1.127-2.519,2.519-2.519h18.817Z" fill="#ccc"/>
    </g>
    <g>
      <path d="M582.519,1732.104c1.392,0,2.519,1.128,2.519,2.519s-1.127,2.52-2.519,2.52h-6.889v25.706c0,1.391-1.128,2.519-2.519,2.519s-2.519-1.128-2.519-2.519v-25.706h-6.89c-1.391,0-2.519-1.128-2.519-2.52s1.127-2.519,2.519-2.519h18.817Z" fill="#ccc"/>
      <path d="M610.011,1758.428c1.174-.744,2.729-.407,3.48.768.75,1.174.407,2.729-.768,3.479l-1.935,1.234c-1.595.984-3.356,1.495-5.125,1.495h-6.172c-2.102,0-4.157-.697-5.785-1.969-2.292-1.752-3.673-4.558-3.673-7.49v-14.35c0-2.933,1.378-5.738,3.69-7.503,1.611-1.255,3.667-1.952,5.769-1.952h6.172c1.842,0,3.62.521,5.142,1.505l1.921,1.225c1.171.751,1.515,2.306.768,3.479-.751,1.168-2.306,1.515-3.48.768l-1.935-1.234c-.717-.467-1.548-.707-2.416-.707h-6.172c-.984,0-1.942.32-2.689.904-1.091.834-1.731,2.145-1.731,3.516v14.35c0,1.371.641,2.683,1.715,3.503.768.595,1.725.918,2.709.918h6.172c.834,0,1.678-.25,2.446-.728l1.905-1.214-.007.003Z" fill="#ccc"/>
      <path d="M642.736,1734.623v28.226c0,1.11-.728,2.088-1.789,2.412-.244.07-.487.106-.73.106-.828,0-1.618-.407-2.095-1.121l-14.203-21.302v19.904c0,1.391-1.128,2.519-2.519,2.519s-2.519-1.128-2.519-2.519v-28.226c0-1.111.728-2.089,1.789-2.412,1.054-.32,2.208.09,2.826,1.015l14.203,21.302v-19.904c0-1.391,1.128-2.519,2.519-2.519s2.519,1.128,2.519,2.519Z" fill="#ccc"/>
      <path d="M724.413,1747.66c1.548,1.548,2.402,3.603,2.402,5.781v2.369c0,3.029-1.441,5.905-3.854,7.697-1.631,1.234-3.623,1.895-5.738,1.895h-2.102c-1.912,0-7.593-1.061-9.602-2.068l-1.147-.54c-1.258-.595-1.795-2.096-1.201-3.354.594-1.261,2.092-1.792,3.353-1.201l1.201.567c1.114.557,5.922,1.562,7.4,1.562h2.102c1.007,0,1.945-.311,2.716-.891,1.171-.874,1.835-2.206,1.835-3.667v-2.369c0-.834-.331-1.621-.931-2.222l-.404-.403c-.48-.484-1.144-.761-1.818-.761h-4.971c-.971,0-1.858-.561-2.275-1.441s-.291-1.919.327-2.673l7.247-8.867h-10.002c-1.392,0-2.519-1.128-2.519-2.52s1.127-2.519,2.519-2.519h15.313c.971,0,1.858.561,2.275,1.441.417.877.29,1.918-.327,2.672l-7.253,8.875c1.885.083,3.71.888,5.051,2.229l.403.403v.004Z" fill="#ccc"/>
      <path d="M753.604,1747.423c1.855,2.159,1.805,4.211,1.762,5.862l-.014.757c0,3.083-.974,5.822-2.672,7.523-1.455,1.451-3.457,2.516-5.492,2.923-1.568.313-10.056.73-12.621.848h-.12c-1.338,0-2.452-1.055-2.516-2.402-.063-1.388,1.008-2.565,2.399-2.633,5.151-.243,11-.59,11.871-.757,1.054-.214,2.172-.804,2.916-1.548.554-.554,1.198-1.922,1.198-3.961l.013-.884c.033-1.397.02-1.788-.541-2.442-.634-.73-1.158-.87-2.402-.924h-12.938c-1.385,0-2.509-1.114-2.519-2.499l-.1-12.715c-.003-.674.257-1.317.731-1.795.474-.477,1.118-.744,1.788-.744h17.282c1.391,0,2.519,1.128,2.519,2.52s-1.128,2.519-2.519,2.519h-14.743l.06,7.677h10.546c2.099.091,4.201.471,6.109,2.673l.003.003Z" fill="#ccc"/>
      <path d="M765.416,1764.68v.07c0,1.392-1.128,2.52-2.519,2.52s-2.519-1.128-2.519-2.52,1.128-2.556,2.519-2.556,2.519,1.095,2.519,2.485Z" fill="#ccc"/>
      <path d="M791.797,1760.321c1.391,0,2.519,1.128,2.519,2.519s-1.127,2.52-2.519,2.52h-18.85c-.347,0-.681-.073-.981-.2-.02-.007-.034-.027-.054-.037-.29-.13-.55-.311-.767-.533-.01-.011-.023-.014-.033-.023-.09-.094-.127-.214-.197-.317-.11-.157-.23-.304-.3-.483-.07-.184-.086-.374-.113-.567-.02-.124-.073-.23-.073-.357,0-.013.006-.026.006-.04.003-.206.067-.403.12-.604.034-.117.037-.247.083-.357.043-.103.13-.187.19-.283.11-.184.217-.37.37-.521.01-.01.023-.033.023-.033l14.346-13.445c2.168-2.039,3.353-4.247,3.25-6.059-.07-1.269-.771-2.379-2.132-3.394-.917-.677-2.226-1.037-3.767-1.037-2.973,0-5.298.507-7,2.979-.788,1.15-2.353,1.438-3.503.65-1.145-.787-1.435-2.355-.647-3.503,3.55-5.162,9.071-5.162,11.15-5.162,2.625,0,4.964.701,6.766,2.025,3.243,2.419,4.053,5.225,4.164,7.156.19,3.35-1.525,6.906-4.834,10.02l-9.702,9.095h12.481l.003-.007Z" fill="#ccc"/>
    </g>
    <g>
      <path d="M521.193,1784.675c1.675,1.559,2.723,3.779,2.723,6.242v3.336c0,4.682-3.81,8.491-8.491,8.491h-12.845c-1.391,0-2.519-1.128-2.519-2.519v-28.226c0-1.392,1.128-2.519,2.519-2.519h12.578c2.562,0,4.924,1.274,6.315,3.412.804,1.182,1.241,2.64,1.241,4.178v3.17c0,1.838-.611,3.309-1.525,4.434h.003ZM505.102,1774.526v7.873h10.519c.581-.11,2.059-.547,2.059-2.155v-3.169c0-.534-.137-.998-.4-1.389-.494-.758-1.258-1.168-2.122-1.168h-10.059l.003.008ZM518.878,1790.921c0-1.789-1.354-3.268-3.089-3.467-.133.014-.267.014-.397.014h-10.292v10.242h10.326c1.905,0,3.453-1.552,3.453-3.453v-3.336Z" fill="#ccc"/>
      <path d="M551.299,1777.411c.984,1.195,1.535,2.713,1.535,4.264v18.518c0,1.391-1.128,2.519-2.519,2.519s-2.519-1.128-2.519-2.519v-11.594h-13.846v11.594c0,1.391-1.127,2.519-2.519,2.519s-2.519-1.128-2.519-2.519v-18.518c0-1.521.523-2.982,1.511-4.233l4.23-5.168c3.013-3.606,9.455-3.587,12.428-.017l4.22,5.154h-.003ZM533.957,1783.558h13.849v-1.886c0-.387-.137-.754-.391-1.061l-4.214-5.147c-1.011-1.212-3.616-1.232-4.657.02l-4.187,5.121c-.357.443-.4.827-.4,1.07v1.883Z" fill="#ccc"/>
      <path d="M650.694,1775.735v20.618c0,3.507-3.089,6.356-6.89,6.356h-10.109c-3.863,0-6.89-2.793-6.89-6.356v-20.618c0-3.507,3.089-6.355,6.89-6.355h10.109c3.8,0,6.89,2.849,6.89,6.355ZM645.656,1775.735c0-.728-.831-1.321-1.852-1.321h-10.109c-1.061,0-1.852.697-1.852,1.321v20.618c0,.728.831,1.321,1.852,1.321h10.109c1.061,0,1.852-.697,1.852-1.321v-20.618Z" fill="#ccc"/>
      <path d="M663.079,1797.708c1.318.084,2.369,1.151,2.369,2.489,0,1.392-1.127,2.519-2.519,2.519h-4.704c-1.391,0-2.519-1.127-2.519-2.519,0-1.328,1.034-2.382,2.335-2.482v-22.587c-.41-.189-.784-.467-1.051-.874-.764-1.161-.444-2.726.717-3.489l1.468-.969c.063-.043.14-.046.207-.083.147-.08.297-.137.46-.187.17-.053.33-.09.504-.104.073-.007.137-.043.213-.043.083,0,.153.039.237.047.173.016.34.049.507.104.153.049.293.105.43.18.14.073.267.16.394.264.137.109.25.23.36.363.054.066.127.104.174.177.043.063.046.14.083.207.08.147.137.3.187.464.05.166.087.326.1.497.007.077.043.14.043.217v25.806l.003.004Z" fill="#ccc"/>
      <path d="M690.137,1799.606c-2.959,2.956-10.286,3.105-11.724,3.105-1.391,0-2.519-1.127-2.519-2.515s1.124-2.522,2.516-2.522c3.093-.004,7.206-.674,8.164-1.631,1.235-1.234,1.985-3.773,2.412-6.594-1.812.925-4.007,1.451-6.569,1.451-7.376,0-11.961-4.123-11.961-10.759,0-5.204,3.143-10.763,11.961-10.763,8.598,0,11.774,5.281,11.927,10.369.013.08.053.15.06.23.097,1.475.797,14.559-4.267,19.627ZM689.336,1780.14c0-3.801-2.332-5.726-6.923-5.726-4.658,0-6.923,1.875-6.923,5.726,0,3.797,2.329,5.721,6.923,5.721s6.923-1.922,6.923-5.721Z" fill="#ccc"/>
      <path d="M722.936,1777.532l-18.817,28.225c-.487.728-1.284,1.121-2.099,1.121-.48,0-.964-.137-1.395-.424-1.158-.773-1.468-2.336-.697-3.493l18.817-28.226c.774-1.154,2.332-1.464,3.493-.697,1.158.771,1.468,2.336.697,3.494Z" fill="#ccc"/>
      <path d="M790.574,1784.773c1.094.276,1.901,1.265,1.901,2.442s-.807,2.165-1.901,2.441v10.537c0,1.391-1.128,2.518-2.519,2.518s-2.519-1.127-2.519-2.518v-10.463h-13.262c-.984,0-1.878-.567-2.289-1.462-.414-.894-.267-1.944.37-2.692l13.079-15.313c.477-.561,1.178-.884,1.915-.884h2.702c1.392,0,2.519,1.127,2.519,2.519v12.868l.003.007ZM785.533,1775.561l-7.797,9.132h7.797v-9.132Z" fill="#ccc"/>
    </g>
    <g>
      <path d="M1798.541,1517.187c1.675,1.559,2.723,3.78,2.723,6.242v3.337c0,4.681-3.81,8.49-8.491,8.49h-12.845c-1.391,0-2.519-1.127-2.519-2.519v-28.226c0-1.391,1.128-2.519,2.519-2.519h12.578c2.562,0,4.925,1.274,6.315,3.413.805,1.181,1.241,2.639,1.241,4.177v3.17c0,1.838-.61,3.31-1.524,4.434h.003ZM1782.45,1507.039v7.873h10.52c.58-.11,2.059-.547,2.059-2.155v-3.169c0-.534-.137-.998-.4-1.389-.494-.757-1.258-1.167-2.122-1.167h-10.059l.003.007ZM1796.225,1523.434c0-1.789-1.354-3.267-3.089-3.467-.134.014-.268.014-.397.014h-10.292v10.242h10.325c1.905,0,3.453-1.552,3.453-3.453v-3.336Z" fill="#ccc"/>
      <path d="M1830.111,1514.561c0,1.726-.694,3.407-1.902,4.618-1.107,1.104-2.549,1.731-4.1,1.854l5.694,10.473c.664,1.222.211,2.749-1.011,3.413-.38.21-.794.308-1.197.308-.895,0-1.759-.478-2.216-1.318l-6.976-12.828h-7.106v11.624c0,1.391-1.128,2.519-2.52,2.519s-2.519-1.128-2.519-2.519v-28.226c0-1.391,1.128-2.519,2.519-2.519h14.811c1.722,0,3.402.693,4.614,1.901,1.234,1.234,1.908,2.876,1.908,4.621v6.078ZM1825.073,1508.479c0-.417-.146-.771-.431-1.058-.267-.264-.664-.427-1.054-.427h-12.295v9.045h12.295c.413,0,.767-.146,1.054-.434.271-.268.431-.661.431-1.051v-6.076Z" fill="#ccc"/>
      <path d="M1858.863,1518.525l.101,7.974c0,2.372-.958,4.647-2.63,6.275-1.581,1.535-3.767,2.416-5.995,2.416h-6.072c-1.901,0-3.77-.638-5.254-1.802l-.544-.414c-2.132-1.611-3.36-4.097-3.36-6.809v-15.181c0-2.669,1.262-5.218,3.37-6.812l.561-.427c1.461-1.145,3.326-1.785,5.228-1.785h6.673c1.685,0,3.333.504,4.765,1.458l2.005,1.338c1.157.773,1.468,2.335.697,3.493-.771,1.161-2.332,1.468-3.493.697l-2.002-1.338c-.601-.4-1.281-.61-1.972-.61h-6.673c-.794,0-1.534.253-2.151.733l-.594.454c-.868.65-1.378,1.698-1.378,2.799v15.181c0,1.121.497,2.139,1.367,2.796l.577.44c.638.5,1.382.754,2.176.754h6.072c.931,0,1.835-.364,2.482-.991.71-.69,1.104-1.625,1.104-2.629l-.069-5.455h-5.756c-1.391,0-2.519-1.128-2.519-2.519s1.128-2.52,2.519-2.52h8.241c1.378,0,2.502,1.108,2.519,2.486l.007-.004Z" fill="#ccc"/>
    </g>
    <g>
      <path d="M1799.536,1637.823c1.325.44,2.035,1.865,1.595,3.187l-9.404,28.222c-.344,1.031-1.305,1.725-2.389,1.725s-2.046-.693-2.39-1.722l-9.408-28.225c-.437-1.318.271-2.746,1.592-3.187,1.328-.438,2.746.273,3.186,1.595l7.021,21.056,7.02-21.056c.437-1.321,1.861-2.032,3.183-1.595h-.004Z" fill="#ccc"/>
      <path d="M1826.238,1664.017c1.175-.744,2.729-.407,3.48.768.75,1.174.407,2.729-.768,3.479l-1.936,1.234c-1.595.984-3.355,1.495-5.124,1.495h-6.172c-2.103,0-4.157-.697-5.785-1.969-2.292-1.752-3.674-4.558-3.674-7.49v-14.35c0-2.933,1.378-5.738,3.69-7.503,1.611-1.255,3.666-1.952,5.769-1.952h6.172c1.842,0,3.62.521,5.142,1.505l1.921,1.225c1.172.751,1.515,2.306.768,3.479-.751,1.168-2.306,1.515-3.479.768l-1.936-1.234c-.717-.467-1.548-.707-2.415-.707h-6.172c-.984,0-1.942.32-2.689.904-1.091.834-1.731,2.145-1.731,3.516v14.35c0,1.371.641,2.683,1.715,3.503.768.595,1.725.918,2.709.918h6.172c.834,0,1.679-.25,2.446-.728l1.904-1.214-.007.003Z" fill="#ccc"/>
    </g>
    <g>
      <path d="M1801.261,1560.822c0,1.726-.694,3.407-1.902,4.618-1.107,1.104-2.549,1.731-4.1,1.854l5.694,10.473c.664,1.222.211,2.749-1.011,3.413-.38.21-.794.308-1.197.308-.895,0-1.759-.478-2.216-1.318l-6.976-12.828h-7.106v11.624c0,1.391-1.128,2.519-2.52,2.519s-2.519-1.128-2.519-2.519v-28.226c0-1.391,1.128-2.519,2.519-2.519h14.811c1.722,0,3.402.693,4.614,1.901,1.234,1.234,1.908,2.876,1.908,4.621v6.078ZM1796.223,1554.74c0-.417-.146-.771-.431-1.058-.267-.264-.664-.427-1.054-.427h-12.295v9.045h12.295c.413,0,.767-.146,1.054-.434.271-.268.431-.661.431-1.051v-6.076Z" fill="#ccc"/>
      <path d="M1830.113,1550.74v28.226c0,1.11-.728,2.088-1.788,2.412-.244.07-.487.106-.73.106-.828,0-1.618-.407-2.096-1.121l-14.202-21.302v19.904c0,1.391-1.128,2.519-2.52,2.519s-2.519-1.128-2.519-2.519v-28.226c0-1.111.728-2.089,1.788-2.412,1.055-.32,2.209.09,2.826,1.015l14.202,21.302v-19.904c0-1.391,1.128-2.519,2.52-2.519s2.519,1.128,2.519,2.519Z" fill="#ccc"/>
      <path d="M1858.863,1564.786l.101,7.974c0,2.372-.958,4.647-2.63,6.275-1.581,1.535-3.767,2.416-5.995,2.416h-6.072c-1.901,0-3.77-.638-5.254-1.802l-.544-.414c-2.132-1.611-3.36-4.097-3.36-6.809v-15.181c0-2.669,1.262-5.218,3.37-6.812l.561-.427c1.461-1.145,3.326-1.785,5.228-1.785h6.673c1.685,0,3.333.504,4.765,1.458l2.005,1.338c1.157.773,1.468,2.335.697,3.493-.771,1.161-2.332,1.468-3.493.697l-2.002-1.338c-.601-.4-1.281-.61-1.972-.61h-6.673c-.794,0-1.534.253-2.151.733l-.594.454c-.868.65-1.378,1.698-1.378,2.799v15.181c0,1.121.497,2.139,1.367,2.796l.577.44c.638.5,1.382.754,2.176.754h6.072c.931,0,1.835-.364,2.482-.991.71-.69,1.104-1.625,1.104-2.629l-.069-5.455h-5.756c-1.391,0-2.519-1.128-2.519-2.519s1.128-2.52,2.519-2.52h8.241c1.378,0,2.502,1.108,2.519,2.486l.007-.004Z" fill="#ccc"/>
    </g>
    <g>
      <path d="M1799.798,1598.794c.984,1.193,1.535,2.712,1.535,4.264v18.516c0,1.392-1.128,2.52-2.52,2.52s-2.519-1.128-2.519-2.52v-11.594h-13.846v11.594c0,1.392-1.128,2.52-2.52,2.52s-2.519-1.128-2.519-2.52v-18.516c0-1.521.523-2.982,1.512-4.234l4.23-5.168c3.013-3.606,9.455-3.586,12.428-.017l4.22,5.155h-.003ZM1782.456,1604.938h13.849v-1.885c0-.387-.137-.754-.391-1.061l-4.214-5.148c-1.011-1.211-3.616-1.23-4.657.021l-4.187,5.121c-.357.444-.4.827-.4,1.071v1.881Z" fill="#ccc"/>
      <path d="M1830.197,1621.573c0,1.392-1.128,2.52-2.52,2.52h-18.85c-1.392,0-2.52-1.128-2.52-2.52v-28.225c0-1.391,1.128-2.52,2.52-2.52s2.519,1.129,2.519,2.52v25.706h16.331c1.392,0,2.52,1.128,2.52,2.519Z" fill="#ccc"/>
      <path d="M1856.546,1590.829c1.392,0,2.519,1.129,2.519,2.52s-1.127,2.52-2.519,2.52h-6.89v25.705c0,1.392-1.128,2.52-2.519,2.52s-2.52-1.128-2.52-2.52v-25.705h-6.89c-1.391,0-2.519-1.129-2.519-2.52s1.128-2.52,2.519-2.52h18.817Z" fill="#ccc"/>
    </g>
    <g>
      <path d="M1799.536,1684.567c1.324.44,2.035,1.865,1.595,3.187l-9.405,28.222c-.344,1.031-1.305,1.725-2.389,1.725s-2.045-.693-2.389-1.722l-9.408-28.225c-.438-1.318.27-2.746,1.591-3.187,1.328-.438,2.746.273,3.187,1.595l7.02,21.056,7.02-21.056c.438-1.321,1.861-2.032,3.183-1.595h-.003Z" fill="#ccc"/>
      <path d="M1830.111,1697.038c0,1.726-.694,3.407-1.902,4.618-1.107,1.104-2.549,1.731-4.1,1.854l5.694,10.473c.664,1.222.211,2.749-1.011,3.413-.38.21-.794.308-1.197.308-.895,0-1.759-.478-2.216-1.318l-6.976-12.828h-7.106v11.624c0,1.391-1.128,2.519-2.52,2.519s-2.519-1.128-2.519-2.519v-28.226c0-1.391,1.128-2.519,2.519-2.519h14.811c1.722,0,3.402.693,4.614,1.901,1.234,1.234,1.908,2.876,1.908,4.621v6.078ZM1825.073,1690.956c0-.417-.146-.771-.431-1.058-.267-.264-.664-.427-1.054-.427h-12.295v9.045h12.295c.413,0,.767-.146,1.054-.434.271-.268.431-.661.431-1.051v-6.076Z" fill="#ccc"/>
    </g>
    <g>
      <path d="M1800.493,1779.738v23.521c0,.667-.264,1.308-.737,1.778l-4.701,4.704c-.98.987-2.569.984-3.557.01l-2.93-2.909-2.929,2.909c-.49.487-1.135.731-1.775.731s-1.291-.247-1.781-.737l-4.704-4.704c-.474-.471-.737-1.115-.737-1.782v-23.521c0-1.392,1.128-2.52,2.519-2.52s2.52,1.128,2.52,2.52v22.477l2.191,2.191,2.179-2.165v-6.021c0-1.392,1.128-2.52,2.519-2.52s2.52,1.128,2.52,2.52v6.021l2.179,2.165,2.188-2.191v-22.477c0-1.392,1.128-2.52,2.519-2.52s2.52,1.128,2.52,2.52Z" fill="#ccc"/>
      <path d="M1827.444,1779.127c1.225,1.225,1.901,2.866,1.901,4.618v6.072c0,1.725-.694,3.406-1.901,4.617-1.231,1.228-2.873,1.905-4.618,1.905h-12.297v11.623c0,1.392-1.128,2.52-2.52,2.52s-2.519-1.128-2.519-2.52v-28.225c0-1.392,1.128-2.52,2.519-2.52h14.813c1.725,0,3.406.694,4.617,1.905l.004.003ZM1824.307,1783.738c0-.417-.144-.771-.427-1.051-.271-.273-.664-.434-1.055-.434h-12.297v9.044h12.297c.414,0,.765-.146,1.052-.434.27-.267.43-.66.43-1.051v-6.075Z" fill="#ccc"/>
    </g>
    <path d="M1797.603,1849.447c1.391,0,2.519,1.128,2.519,2.52s-1.128,2.519-2.519,2.519h-18.82c-.928,0-1.782-.511-2.223-1.328-.437-.82-.387-1.814.127-2.585l6.796-10.196h-1.164c-1.391,0-2.519-1.128-2.519-2.519s1.128-2.52,2.519-2.52h4.521l6.053-9.077h-14.109c-1.392,0-2.52-1.128-2.52-2.52s1.128-2.519,2.52-2.519h18.82c.927,0,1.781.51,2.222,1.327.437.818.387,1.812-.127,2.586l-6.799,10.199h1.164c1.391,0,2.519,1.128,2.519,2.519s-1.128,2.52-2.519,2.52h-4.524l-6.049,9.074h14.113Z" fill="#ccc"/>
    <g>
      <path d="M1739.901,1865.226c1.392,0,2.52,1.128,2.52,2.519s-1.128,2.52-2.52,2.52h-6.889v25.706c0,1.391-1.128,2.519-2.52,2.519s-2.519-1.128-2.519-2.519v-25.706h-6.89c-1.392,0-2.519-1.128-2.519-2.52s1.127-2.519,2.519-2.519h18.816Z" fill="#ccc"/>
      <path d="M1768.751,1865.226c1.392,0,2.52,1.128,2.52,2.519s-1.128,2.52-2.52,2.52h-6.889v25.706c0,1.391-1.128,2.519-2.52,2.519s-2.519-1.128-2.519-2.519v-25.706h-6.89c-1.392,0-2.519-1.128-2.519-2.52s1.127-2.519,2.519-2.519h18.816Z" fill="#ccc"/>
      <path d="M1800.018,1881.79l.101,7.974c0,2.372-.958,4.647-2.63,6.275-1.581,1.535-3.767,2.416-5.995,2.416h-6.072c-1.901,0-3.77-.638-5.254-1.802l-.544-.414c-2.132-1.611-3.36-4.097-3.36-6.809v-15.181c0-2.669,1.262-5.218,3.37-6.812l.561-.427c1.461-1.145,3.326-1.785,5.228-1.785h6.673c1.685,0,3.333.504,4.765,1.458l2.005,1.338c1.157.773,1.468,2.335.697,3.493-.771,1.161-2.332,1.468-3.493.697l-2.002-1.338c-.601-.4-1.281-.61-1.972-.61h-6.673c-.794,0-1.534.253-2.151.733l-.594.454c-.868.65-1.378,1.698-1.378,2.799v15.181c0,1.121.497,2.139,1.367,2.796l.577.44c.638.5,1.382.754,2.176.754h6.072c.931,0,1.835-.364,2.482-.991.71-.69,1.104-1.625,1.104-2.629l-.069-5.455h-5.756c-1.391,0-2.519-1.128-2.519-2.519s1.128-2.52,2.519-2.52h8.241c1.378,0,2.502,1.108,2.519,2.486l.007-.004Z" fill="#ccc"/>
    </g>
    <g>
      <path d="M1739.834,1937.45c1.392,0,2.52,1.128,2.52,2.519s-1.128,2.52-2.52,2.52h-18.85c-1.392,0-2.52-1.128-2.52-2.52v-28.225c0-1.392,1.128-2.52,2.52-2.52h18.85c1.392,0,2.52,1.128,2.52,2.52s-1.128,2.519-2.52,2.519h-16.331v9.078h12.795c1.392,0,2.519,1.128,2.519,2.519s-1.127,2.52-2.519,2.52h-12.795v9.074h16.331v-.003Z" fill="#ccc"/>
      <path d="M1768.702,1909.228c1.392,0,2.519,1.128,2.519,2.519s-1.127,2.52-2.519,2.52h-6.89v25.706c0,1.391-1.128,2.519-2.519,2.519s-2.52-1.128-2.52-2.519v-25.706h-6.89c-1.391,0-2.519-1.128-2.519-2.52s1.128-2.519,2.519-2.519h18.817Z" fill="#ccc"/>
      <path d="M1798.602,1917.192c.984,1.194,1.535,2.712,1.535,4.264v18.517c0,1.391-1.128,2.519-2.52,2.519s-2.519-1.128-2.519-2.519v-11.594h-13.846v11.594c0,1.391-1.128,2.519-2.52,2.519s-2.519-1.128-2.519-2.519v-18.517c0-1.521.523-2.982,1.512-4.234l4.23-5.168c3.013-3.606,9.455-3.586,12.428-.017l4.22,5.155h-.003ZM1781.26,1923.338h13.849v-1.886c0-.387-.137-.754-.391-1.061l-4.214-5.147c-1.011-1.212-3.616-1.231-4.657.02l-4.187,5.121c-.357.444-.4.827-.4,1.071v1.882Z" fill="#ccc"/>
    </g>
    <g>
      <path d="M1846.361,1871.883v20.618c0,3.507-3.089,6.355-6.889,6.355h-10.109c-3.863,0-6.89-2.792-6.89-6.355v-20.618c0-3.507,3.09-6.355,6.89-6.355h10.109c3.8,0,6.889,2.849,6.889,6.355ZM1841.324,1871.883c0-.728-.831-1.321-1.852-1.321h-10.109c-1.061,0-1.852.697-1.852,1.321v20.618c0,.728.831,1.321,1.852,1.321h10.109c1.061,0,1.852-.697,1.852-1.321v-20.618Z" fill="#ccc"/>
      <path d="M1875.26,1871.883v20.618c0,3.507-3.089,6.355-6.889,6.355h-10.109c-3.863,0-6.89-2.792-6.89-6.355v-20.618c0-3.507,3.09-6.355,6.89-6.355h10.109c3.8,0,6.889,2.849,6.889,6.355ZM1870.223,1871.883c0-.728-.831-1.321-1.852-1.321h-10.109c-1.061,0-1.852.697-1.852,1.321v20.618c0,.728.831,1.321,1.852,1.321h10.109c1.061,0,1.852-.697,1.852-1.321v-20.618Z" fill="#ccc"/>
      <path d="M1899.109,1879.357v.033c0,1.392-1.128,2.52-2.519,2.52s-2.52-1.128-2.52-2.52,1.128-2.535,2.52-2.535,2.519,1.111,2.519,2.502ZM1899.109,1892.269v.033c0,1.391-1.128,2.519-2.519,2.519s-2.52-1.128-2.52-2.519,1.128-2.536,2.52-2.536,2.519,1.111,2.519,2.503Z" fill="#ccc"/>
      <path d="M1941.807,1871.883v20.618c0,3.507-3.089,6.355-6.889,6.355h-10.109c-3.863,0-6.89-2.792-6.89-6.355v-20.618c0-3.507,3.09-6.355,6.89-6.355h10.109c3.8,0,6.889,2.849,6.889,6.355ZM1936.77,1871.883c0-.728-.831-1.321-1.852-1.321h-10.109c-1.061,0-1.852.697-1.852,1.321v20.618c0,.728.831,1.321,1.852,1.321h10.109c1.061,0,1.852-.697,1.852-1.321v-20.618Z" fill="#ccc"/>
      <path d="M1968.304,1881.151c1.548,1.548,2.402,3.603,2.402,5.781v2.369c0,3.029-1.441,5.905-3.854,7.696-1.632,1.234-3.624,1.896-5.739,1.896h-2.102c-1.912,0-7.594-1.062-9.602-2.068l-1.148-.541c-1.257-.594-1.795-2.095-1.2-3.353.594-1.262,2.092-1.792,3.353-1.201l1.201.567c1.114.557,5.922,1.562,7.399,1.562h2.103c1.008,0,1.945-.311,2.716-.892,1.171-.874,1.835-2.205,1.835-3.666v-2.369c0-.834-.33-1.621-.931-2.222l-.404-.404c-.48-.483-1.145-.761-1.818-.761h-4.971c-.971,0-1.858-.56-2.275-1.44s-.29-1.919.327-2.673l7.246-8.868h-10.002c-1.392,0-2.52-1.127-2.52-2.519s1.128-2.519,2.52-2.519h15.313c.971,0,1.858.561,2.275,1.44.417.878.29,1.919-.327,2.673l-7.253,8.875c1.885.083,3.71.887,5.051,2.229l.404.403v.004Z" fill="#ccc"/>
      <path d="M1994.556,1879.357v.033c0,1.392-1.128,2.52-2.519,2.52s-2.52-1.128-2.52-2.52,1.128-2.535,2.52-2.535,2.519,1.111,2.519,2.502ZM1994.556,1892.269v.033c0,1.391-1.128,2.519-2.519,2.519s-2.52-1.128-2.52-2.519,1.128-2.536,2.52-2.536,2.519,1.111,2.519,2.503Z" fill="#ccc"/>
      <path d="M2034.188,1880.921c1.094.276,1.901,1.265,1.901,2.442s-.808,2.165-1.901,2.441v10.536c0,1.392-1.128,2.52-2.519,2.52s-2.52-1.128-2.52-2.52v-10.462h-13.262c-.984,0-1.878-.567-2.289-1.462-.413-.894-.267-1.945.371-2.692l13.078-15.313c.477-.561,1.178-.884,1.915-.884h2.702c1.392,0,2.52,1.127,2.52,2.519v12.868l.003.007ZM2029.147,1871.709l-7.797,9.132h7.797v-9.132Z" fill="#ccc"/>
      <path d="M2062.435,1893.812c1.392,0,2.52,1.127,2.52,2.519s-1.128,2.519-2.52,2.519h-18.85c-.348,0-.681-.073-.981-.2-.02-.006-.033-.026-.053-.036-.291-.13-.551-.311-.768-.534-.01-.01-.023-.013-.033-.023-.09-.093-.127-.213-.197-.316-.11-.157-.23-.304-.3-.484-.07-.183-.087-.373-.113-.566-.021-.124-.074-.23-.074-.357,0-.014.007-.026.007-.04.004-.207.067-.403.12-.604.033-.117.037-.247.084-.357.043-.104.13-.187.189-.283.11-.184.217-.37.371-.521.01-.01.023-.033.023-.033l14.346-13.445c2.169-2.039,3.353-4.247,3.25-6.06-.07-1.268-.771-2.378-2.133-3.393-.917-.678-2.225-1.037-3.767-1.037-2.973,0-5.298.507-6.999,2.979-.787,1.151-2.353,1.438-3.503.651-1.145-.788-1.435-2.355-.647-3.504,3.55-5.161,9.071-5.161,11.149-5.161,2.626,0,4.965.701,6.767,2.025,3.242,2.419,4.054,5.225,4.163,7.156.19,3.35-1.524,6.906-4.834,10.019l-9.702,9.096h12.481l.003-.007Z" fill="#ccc"/>
    </g>
    <g>
      <path d="M1845.161,1915.516v20.618c0,3.507-3.089,6.355-6.889,6.355h-10.109c-3.863,0-6.89-2.792-6.89-6.355v-20.618c0-3.507,3.09-6.355,6.89-6.355h10.109c3.8,0,6.889,2.849,6.889,6.355ZM1840.124,1915.516c0-.728-.831-1.321-1.852-1.321h-10.109c-1.061,0-1.852.697-1.852,1.321v20.618c0,.728.831,1.321,1.852,1.321h10.109c1.061,0,1.852-.697,1.852-1.321v-20.618Z" fill="#ccc"/>
      <path d="M1871.542,1937.445c1.392,0,2.52,1.127,2.52,2.519s-1.128,2.519-2.52,2.519h-18.85c-.348,0-.681-.073-.981-.2-.02-.006-.033-.026-.053-.036-.291-.13-.551-.311-.768-.534-.01-.01-.023-.013-.033-.023-.09-.093-.127-.213-.197-.316-.11-.157-.23-.304-.3-.484-.07-.183-.087-.373-.113-.566-.021-.124-.074-.23-.074-.357,0-.014.007-.026.007-.04.004-.207.067-.403.12-.604.033-.117.037-.247.084-.357.043-.104.13-.187.189-.283.11-.184.217-.37.371-.521.01-.01.022-.033.022-.033l14.347-13.445c2.169-2.039,3.353-4.247,3.25-6.06-.07-1.268-.771-2.378-2.133-3.393-.917-.678-2.225-1.037-3.767-1.037-2.973,0-5.298.507-6.999,2.979-.787,1.151-2.353,1.438-3.503.651-1.145-.788-1.435-2.355-.647-3.504,3.55-5.161,9.071-5.161,11.149-5.161,2.626,0,4.965.701,6.767,2.025,3.243,2.419,4.054,5.225,4.163,7.156.19,3.35-1.524,6.906-4.834,10.019l-9.702,9.096h12.481l.003-.007Z" fill="#ccc"/>
      <path d="M1897.909,1922.99v.033c0,1.392-1.128,2.52-2.519,2.52s-2.52-1.128-2.52-2.52,1.128-2.535,2.52-2.535,2.519,1.111,2.519,2.502ZM1897.909,1935.902v.033c0,1.391-1.128,2.519-2.519,2.519s-2.52-1.128-2.52-2.519,1.128-2.536,2.52-2.536,2.519,1.111,2.519,2.503Z" fill="#ccc"/>
      <path d="M1940.608,1915.516v20.618c0,3.507-3.089,6.355-6.889,6.355h-10.109c-3.863,0-6.89-2.792-6.89-6.355v-20.618c0-3.507,3.09-6.355,6.89-6.355h10.109c3.8,0,6.889,2.849,6.889,6.355ZM1935.571,1915.516c0-.728-.831-1.321-1.852-1.321h-10.109c-1.061,0-1.852.697-1.852,1.321v20.618c0,.728.831,1.321,1.852,1.321h10.109c1.061,0,1.852-.697,1.852-1.321v-20.618Z" fill="#ccc"/>
      <path d="M1957.346,1920.94c7.272,0,12.16,4.323,12.16,10.76,0,6.339-5.001,10.763-12.16,10.763s-11.728-4.224-11.728-10.763c0-.153.037-.287.04-.438-.007-.07-.04-.127-.04-.196,0-3.464,3.093-10.517,6.082-15.341,2.002-3.236,3.333-4.564,4.504-5.735.984-.984,2.626-1.03,3.61-.047.984.984,1.031,2.536.047,3.517l-.094.094c-1.074,1.071-2.085,2.085-3.783,4.824-.591.947-1.124,1.908-1.628,2.862.943-.18,1.928-.304,2.989-.304v.004ZM1964.469,1931.696c0-5.164-4.981-5.722-7.123-5.722-3.053,0-6.689.994-6.689,5.722,0,3.693,2.375,5.726,6.689,5.726,4.394,0,7.123-2.192,7.123-5.726Z" fill="#ccc"/>
      <path d="M1993.356,1922.99v.033c0,1.392-1.128,2.52-2.519,2.52s-2.52-1.128-2.52-2.52,1.128-2.535,2.52-2.535,2.519,1.111,2.519,2.502ZM1993.356,1935.902v.033c0,1.391-1.128,2.519-2.519,2.519s-2.52-1.128-2.52-2.519,1.128-2.536,2.52-2.536,2.519,1.111,2.519,2.503Z" fill="#ccc"/>
      <path d="M2036.054,1915.516v20.618c0,3.507-3.089,6.355-6.889,6.355h-10.109c-3.863,0-6.89-2.792-6.89-6.355v-20.618c0-3.507,3.09-6.355,6.89-6.355h10.109c3.8,0,6.889,2.849,6.889,6.355ZM2031.017,1915.516c0-.728-.831-1.321-1.852-1.321h-10.109c-1.061,0-1.852.697-1.852,1.321v20.618c0,.728.831,1.321,1.852,1.321h10.109c1.061,0,1.852-.697,1.852-1.321v-20.618Z" fill="#ccc"/>
      <path d="M2062.435,1937.445c1.392,0,2.52,1.127,2.52,2.519s-1.128,2.519-2.52,2.519h-18.85c-.348,0-.681-.073-.981-.2-.02-.006-.033-.026-.053-.036-.291-.13-.551-.311-.768-.534-.01-.01-.023-.013-.033-.023-.09-.093-.127-.213-.197-.316-.11-.157-.23-.304-.3-.484-.07-.183-.087-.373-.113-.566-.021-.124-.074-.23-.074-.357,0-.014.007-.026.007-.04.004-.207.067-.403.12-.604.033-.117.037-.247.084-.357.043-.104.13-.187.189-.283.11-.184.217-.37.371-.521.01-.01.023-.033.023-.033l14.346-13.445c2.169-2.039,3.353-4.247,3.25-6.06-.07-1.268-.771-2.378-2.133-3.393-.917-.678-2.225-1.037-3.767-1.037-2.973,0-5.298.507-6.999,2.979-.787,1.151-2.353,1.438-3.503.651-1.145-.788-1.435-2.355-.647-3.504,3.55-5.161,9.071-5.161,11.149-5.161,2.626,0,4.965.701,6.767,2.025,3.242,2.419,4.054,5.225,4.163,7.156.19,3.35-1.524,6.906-4.834,10.019l-9.702,9.096h12.481l.003-.007Z" fill="#ccc"/>
    </g>
    <g>
      <path d="M1859.16,1828.251v20.618c0,3.507-3.089,6.355-6.889,6.355h-10.109c-3.863,0-6.89-2.792-6.89-6.355v-20.618c0-3.507,3.09-6.355,6.89-6.355h10.109c3.8,0,6.889,2.849,6.889,6.355ZM1854.123,1828.251c0-.728-.831-1.321-1.852-1.321h-10.109c-1.061,0-1.852.697-1.852,1.321v20.618c0,.728.831,1.321,1.852,1.321h10.109c1.061,0,1.852-.697,1.852-1.321v-20.618Z" fill="#ccc"/>
      <path d="M1885.541,1850.181c1.392,0,2.52,1.127,2.52,2.519s-1.128,2.519-2.52,2.519h-18.85c-.348,0-.681-.073-.981-.2-.02-.006-.033-.026-.053-.036-.291-.13-.551-.311-.768-.534-.01-.01-.023-.013-.033-.023-.09-.093-.127-.213-.197-.316-.11-.157-.23-.304-.3-.484-.07-.183-.087-.373-.113-.566-.021-.124-.074-.23-.074-.357,0-.014.007-.026.007-.04.004-.207.067-.403.12-.604.033-.117.037-.247.084-.357.043-.104.13-.187.189-.283.11-.184.217-.37.371-.521.01-.01.022-.033.022-.033l14.347-13.445c2.169-2.039,3.353-4.247,3.25-6.06-.07-1.268-.771-2.378-2.133-3.393-.917-.678-2.225-1.037-3.767-1.037-2.973,0-5.298.507-6.999,2.979-.787,1.151-2.353,1.438-3.503.651-1.145-.788-1.435-2.355-.647-3.504,3.55-5.161,9.071-5.161,11.149-5.161,2.626,0,4.965.701,6.767,2.025,3.243,2.419,4.054,5.225,4.163,7.156.19,3.35-1.524,6.906-4.834,10.019l-9.702,9.096h12.481l.003-.007Z" fill="#ccc"/>
      <path d="M1911.908,1835.726v.033c0,1.392-1.128,2.52-2.519,2.52s-2.52-1.128-2.52-2.52,1.128-2.535,2.52-2.535,2.519,1.111,2.519,2.502ZM1911.908,1848.638v.033c0,1.391-1.128,2.519-2.519,2.519s-2.52-1.128-2.52-2.519,1.128-2.536,2.52-2.536,2.519,1.111,2.519,2.503Z" fill="#ccc"/>
      <path d="M1954.607,1828.251v20.618c0,3.507-3.089,6.355-6.889,6.355h-10.109c-3.863,0-6.89-2.792-6.89-6.355v-20.618c0-3.507,3.09-6.355,6.89-6.355h10.109c3.8,0,6.889,2.849,6.889,6.355ZM1949.57,1828.251c0-.728-.831-1.321-1.852-1.321h-10.109c-1.061,0-1.852.697-1.852,1.321v20.618c0,.728.831,1.321,1.852,1.321h10.109c1.061,0,1.852-.697,1.852-1.321v-20.618Z" fill="#ccc"/>
      <path d="M1980.987,1850.181c1.392,0,2.52,1.127,2.52,2.519s-1.128,2.519-2.52,2.519h-18.85c-.348,0-.681-.073-.981-.2-.02-.006-.033-.026-.053-.036-.291-.13-.551-.311-.768-.534-.01-.01-.023-.013-.033-.023-.09-.093-.127-.213-.197-.316-.11-.157-.23-.304-.3-.484-.07-.183-.087-.373-.113-.566-.021-.124-.074-.23-.074-.357,0-.014.007-.026.007-.04.004-.207.067-.403.12-.604.033-.117.037-.247.084-.357.043-.104.13-.187.189-.283.11-.184.217-.37.371-.521.01-.01.023-.033.023-.033l14.346-13.445c2.169-2.039,3.353-4.247,3.25-6.06-.07-1.268-.771-2.378-2.133-3.393-.917-.678-2.225-1.037-3.767-1.037-2.973,0-5.298.507-6.999,2.979-.787,1.151-2.353,1.438-3.503.651-1.145-.788-1.435-2.355-.647-3.504,3.55-5.161,9.071-5.161,11.149-5.161,2.626,0,4.965.701,6.767,2.025,3.242,2.419,4.054,5.225,4.163,7.156.19,3.35-1.524,6.906-4.834,10.019l-9.702,9.096h12.481l.003-.007Z" fill="#ccc"/>
      <path d="M2007.355,1835.726v.033c0,1.392-1.128,2.52-2.519,2.52s-2.52-1.128-2.52-2.52,1.128-2.535,2.52-2.535,2.519,1.111,2.519,2.502ZM2007.355,1848.638v.033c0,1.391-1.128,2.519-2.519,2.519s-2.52-1.128-2.52-2.519,1.128-2.536,2.52-2.536,2.519,1.111,2.519,2.503Z" fill="#ccc"/>
      <path d="M2033.539,1850.224c1.318.084,2.369,1.151,2.369,2.489,0,1.391-1.128,2.519-2.519,2.519h-4.704c-1.392,0-2.52-1.128-2.52-2.519,0-1.328,1.034-2.383,2.336-2.482v-22.587c-.411-.19-.784-.467-1.052-.874-.764-1.161-.443-2.726.718-3.49l1.468-.967c.063-.044.141-.047.207-.084.146-.08.297-.137.46-.187.171-.054.331-.09.504-.104.074-.007.137-.043.214-.043.083,0,.153.04.237.046.173.018.34.051.507.104.153.051.293.107.431.181.14.073.267.16.394.264.137.109.25.229.36.363.053.066.126.104.173.177.044.063.047.141.084.207.08.146.137.3.187.464.05.167.087.327.101.497.006.076.043.14.043.217v25.807l.003.003Z" fill="#ccc"/>
      <path d="M2060.596,1852.122c-2.959,2.956-10.285,3.106-11.724,3.106-1.391,0-2.519-1.128-2.519-2.516s1.124-2.522,2.516-2.522c3.093-.003,7.206-.674,8.164-1.632,1.234-1.234,1.984-3.773,2.412-6.592-1.812.924-4.007,1.451-6.569,1.451-7.377,0-11.961-4.124-11.961-10.76,0-5.205,3.143-10.763,11.961-10.763,8.598,0,11.773,5.281,11.927,10.369.014.08.054.149.061.229.097,1.476.797,14.561-4.268,19.628ZM2059.796,1832.654c0-3.8-2.332-5.725-6.923-5.725-4.657,0-6.923,1.875-6.923,5.725,0,3.797,2.329,5.723,6.923,5.723s6.923-1.922,6.923-5.723Z" fill="#ccc"/>
    </g>
    <g>
      <path d="M1910.076,1805.436c1.392,0,2.52,1.127,2.52,2.519s-1.128,2.519-2.52,2.519h-18.85c-.348,0-.681-.073-.981-.2-.02-.006-.033-.026-.053-.036-.291-.13-.551-.311-.768-.534-.01-.01-.023-.013-.033-.023-.09-.093-.127-.213-.197-.316-.11-.157-.23-.304-.3-.484-.07-.183-.087-.373-.113-.566-.021-.124-.074-.23-.074-.357,0-.014.007-.026.007-.04.004-.207.067-.403.12-.604.033-.117.037-.247.084-.357.043-.104.13-.187.189-.283.11-.184.217-.37.371-.521.01-.01.023-.033.023-.033l14.346-13.445c2.169-2.039,3.353-4.247,3.25-6.06-.07-1.268-.771-2.378-2.133-3.393-.917-.678-2.225-1.037-3.767-1.037-2.973,0-5.298.507-6.999,2.979-.787,1.151-2.353,1.438-3.503.651-1.145-.788-1.435-2.355-.647-3.504,3.55-5.161,9.071-5.161,11.149-5.161,2.626,0,4.965.701,6.767,2.025,3.242,2.419,4.054,5.225,4.163,7.156.19,3.35-1.524,6.906-4.834,10.019l-9.702,9.096h12.481l.003-.007Z" fill="#ccc"/>
      <path d="M1980.49,1792.775c1.548,1.548,2.402,3.603,2.402,5.781v2.369c0,3.029-1.441,5.905-3.854,7.696-1.632,1.234-3.624,1.896-5.739,1.896h-2.102c-1.912,0-7.594-1.062-9.602-2.068l-1.148-.541c-1.257-.594-1.795-2.095-1.2-3.353.594-1.262,2.092-1.792,3.353-1.201l1.201.567c1.114.557,5.922,1.562,7.399,1.562h2.103c1.008,0,1.945-.311,2.716-.892,1.171-.874,1.835-2.205,1.835-3.666v-2.369c0-.834-.33-1.621-.931-2.222l-.404-.404c-.48-.483-1.145-.76-1.818-.76h-4.971c-.971,0-1.858-.561-2.275-1.441s-.29-1.919.327-2.673l7.246-8.868h-10.002c-1.392,0-2.52-1.127-2.52-2.519s1.128-2.519,2.52-2.519h15.313c.971,0,1.858.561,2.275,1.44.417.878.29,1.919-.327,2.673l-7.253,8.875c1.885.083,3.71.887,5.051,2.229l.404.403v.004Z" fill="#ccc"/>
      <path d="M2016.389,1792.775c1.548,1.548,2.401,3.603,2.401,5.781v2.369c0,3.029-1.44,5.905-3.853,7.696-1.632,1.234-3.624,1.896-5.739,1.896h-2.102c-1.912,0-7.594-1.062-9.602-2.068l-1.148-.541c-1.258-.594-1.795-2.095-1.2-3.353.594-1.262,2.092-1.792,3.353-1.201l1.201.567c1.114.557,5.922,1.562,7.399,1.562h2.103c1.008,0,1.945-.311,2.716-.892,1.171-.874,1.835-2.205,1.835-3.666v-2.369c0-.834-.33-1.621-.931-2.222l-.404-.404c-.48-.483-1.145-.76-1.818-.76h-4.971c-.971,0-1.858-.561-2.275-1.441s-.29-1.919.327-2.673l7.246-8.868h-10.002c-1.392,0-2.52-1.127-2.52-2.519s1.128-2.519,2.52-2.519h15.313c.971,0,1.858.561,2.275,1.44.417.878.29,1.919-.327,2.673l-7.253,8.875c1.885.083,3.71.887,5.051,2.229l.404.403v.004Z" fill="#ccc"/>
      <path d="M2035.841,1809.795v.07c0,1.392-1.128,2.519-2.519,2.519s-2.52-1.127-2.52-2.519,1.128-2.556,2.52-2.556,2.519,1.095,2.519,2.485Z" fill="#ccc"/>
      <path d="M2059.58,1788.932c7.272,0,12.16,4.323,12.16,10.76,0,6.339-5.001,10.763-12.16,10.763s-11.728-4.224-11.728-10.763c0-.153.037-.287.04-.438-.007-.07-.04-.127-.04-.196,0-3.464,3.093-10.517,6.082-15.341,2.002-3.236,3.333-4.564,4.504-5.735.984-.984,2.626-1.03,3.61-.047.984.984,1.031,2.536.047,3.517l-.094.094c-1.074,1.071-2.085,2.085-3.783,4.824-.591.947-1.124,1.908-1.628,2.862.944-.18,1.928-.304,2.989-.304v.004ZM2066.703,1799.687c0-5.164-4.981-5.722-7.123-5.722-3.053,0-6.689.994-6.689,5.722,0,3.693,2.375,5.726,6.689,5.726,4.394,0,7.123-2.192,7.123-5.726Z" fill="#ccc"/>
    </g>
    <g>
      <path d="M1798.542,1746.173c1.675,1.559,2.723,3.78,2.723,6.242v3.337c0,4.681-3.811,8.491-8.491,8.491h-12.845c-1.392,0-2.52-1.128-2.52-2.52v-28.225c0-1.392,1.128-2.52,2.52-2.52h12.578c2.562,0,4.924,1.275,6.315,3.413.804,1.181,1.241,2.64,1.241,4.177v3.17c0,1.838-.611,3.31-1.525,4.434h.004ZM1782.451,1736.024v7.873h10.519c.581-.109,2.059-.547,2.059-2.154v-3.17c0-.533-.137-.998-.4-1.389-.493-.757-1.258-1.167-2.121-1.167h-10.06l.004.007ZM1796.226,1752.419c0-1.789-1.354-3.267-3.09-3.467-.133.014-.267.014-.396.014h-10.293v10.242h10.326c1.905,0,3.453-1.551,3.453-3.453v-3.336Z" fill="#ccc"/>
      <path d="M1827.596,1730.946c1.392,0,2.519,1.128,2.519,2.52s-1.127,2.519-2.519,2.519h-6.89v25.706c0,1.391-1.128,2.52-2.519,2.52s-2.52-1.129-2.52-2.52v-25.706h-6.89c-1.391,0-2.519-1.128-2.519-2.519s1.128-2.52,2.519-2.52h18.817Z" fill="#ccc"/>
      <path d="M1939.077,1759.206c1.318.084,2.369,1.152,2.369,2.49,0,1.391-1.128,2.518-2.52,2.518h-4.704c-1.391,0-2.519-1.127-2.519-2.518,0-1.328,1.034-2.383,2.335-2.482v-22.588c-.41-.189-.783-.467-1.051-.873-.764-1.162-.443-2.727.718-3.49l1.468-.968c.063-.044.14-.046.207-.083.146-.08.297-.137.46-.188.17-.053.33-.09.504-.104.073-.006.137-.043.214-.043.083,0,.153.04.236.047.174.017.341.05.508.104.153.05.293.106.43.18.141.074.268.16.394.264.138.11.251.23.36.363.054.067.127.104.174.178.043.062.047.14.083.207.08.146.138.3.188.463.05.167.087.327.1.498.007.076.044.14.044.217v25.806l.003.003Z" fill="#ccc"/>
      <path d="M1970.341,1737.233v20.619c0,3.506-3.089,6.355-6.89,6.355h-10.108c-3.863,0-6.89-2.793-6.89-6.355v-20.619c0-3.506,3.089-6.355,6.89-6.355h10.108c3.801,0,6.89,2.85,6.89,6.355ZM1965.303,1737.233c0-.727-.83-1.32-1.852-1.32h-10.108c-1.062,0-1.852.697-1.852,1.32v20.619c0,.727.83,1.32,1.852,1.32h10.108c1.062,0,1.852-.697,1.852-1.32v-20.619Z" fill="#ccc"/>
      <path d="M1996.838,1746.502c1.549,1.548,2.402,3.603,2.402,5.782v2.369c0,3.029-1.441,5.904-3.854,7.696-1.631,1.234-3.623,1.896-5.738,1.896h-2.102c-1.912,0-7.594-1.062-9.603-2.069l-1.147-.54c-1.258-.594-1.795-2.096-1.201-3.354.594-1.261,2.092-1.791,3.354-1.201l1.201.567c1.114.558,5.922,1.562,7.399,1.562h2.103c1.007,0,1.944-.311,2.716-.891,1.171-.874,1.835-2.205,1.835-3.666v-2.369c0-.834-.331-1.621-.932-2.223l-.403-.403c-.48-.483-1.145-.761-1.818-.761h-4.971c-.972,0-1.858-.561-2.275-1.441s-.291-1.918.326-2.672l7.247-8.868h-10.002c-1.392,0-2.52-1.128-2.52-2.519s1.128-2.52,2.52-2.52h15.313c.971,0,1.858.561,2.275,1.441.417.877.29,1.918-.327,2.672l-7.253,8.875c1.885.084,3.71.888,5.051,2.229l.403.404v.003Z" fill="#ccc"/>
      <path d="M2027.683,1739.03l-18.817,28.225c-.486.729-1.284,1.121-2.099,1.121-.479,0-.964-.137-1.395-.424-1.157-.773-1.468-2.335-.697-3.492l18.817-28.226c.773-1.154,2.332-1.464,3.493-.697,1.157.771,1.468,2.335.697,3.493Z" fill="#ccc"/>
      <path d="M2040.475,1759.206c1.318.084,2.369,1.152,2.369,2.49,0,1.391-1.128,2.518-2.52,2.518h-4.704c-1.391,0-2.519-1.127-2.519-2.518,0-1.328,1.034-2.383,2.335-2.482v-22.588c-.41-.189-.783-.467-1.051-.873-.764-1.162-.443-2.727.718-3.49l1.468-.968c.063-.044.14-.046.207-.083.146-.08.297-.137.46-.188.17-.053.33-.09.504-.104.073-.006.137-.043.214-.043.083,0,.153.04.236.047.174.017.341.05.508.104.153.05.293.106.43.18.141.074.268.16.394.264.138.11.251.23.36.363.054.067.127.104.174.178.043.062.047.14.083.207.08.146.138.3.188.463.05.167.087.327.1.498.007.076.044.14.044.217v25.806l.003.003Z" fill="#ccc"/>
      <path d="M2071.442,1732.21c.437.82.39,1.814-.124,2.585l-18.85,28.296c-.487.727-1.285,1.12-2.099,1.12-.48,0-.968-.137-1.395-.423-1.158-.771-1.472-2.332-.701-3.494l16.241-24.378h-11.777c-1.391,0-2.519-1.128-2.519-2.519s1.128-2.52,2.519-2.52h16.481c.932,0,1.785.511,2.223,1.328v.004Z" fill="#ccc"/>
    </g>
    <g>
      <path d="M2011.423,1530.211c1.392,0,2.519,1.128,2.519,2.519s-1.127,2.52-2.519,2.52h-18.85c-.348,0-.681-.073-.981-.2-.02-.007-.033-.027-.054-.037-.29-.13-.55-.311-.767-.533-.011-.011-.023-.014-.033-.023-.091-.094-.127-.214-.197-.317-.11-.157-.23-.304-.301-.483-.069-.184-.086-.374-.113-.567-.02-.124-.073-.23-.073-.357,0-.013.007-.026.007-.04.003-.206.066-.403.12-.604.033-.117.037-.247.083-.357.044-.103.131-.187.19-.283.11-.184.217-.37.37-.521.011-.01.023-.033.023-.033l14.347-13.445c2.168-2.039,3.353-4.247,3.249-6.059-.069-1.269-.771-2.379-2.132-3.394-.917-.677-2.226-1.037-3.767-1.037-2.973,0-5.298.507-6.999,2.979-.788,1.15-2.353,1.438-3.504.65-1.145-.787-1.435-2.355-.646-3.503,3.55-5.162,9.071-5.162,11.149-5.162,2.626,0,4.965.701,6.767,2.025,3.242,2.419,4.053,5.225,4.163,7.156.19,3.35-1.524,6.906-4.834,10.02l-9.702,9.095h12.481l.003-.007Z" fill="#ccc"/>
      <path d="M2030.679,1513.706c7.273,0,12.161,4.324,12.161,10.76,0,6.339-5.001,10.763-12.161,10.763s-11.727-4.224-11.727-10.763c0-.153.036-.287.04-.438-.007-.069-.04-.126-.04-.196,0-3.463,3.093-10.517,6.082-15.341,2.002-3.236,3.333-4.563,4.504-5.734.984-.984,2.626-1.031,3.61-.047.983.984,1.03,2.535.046,3.517l-.093.093c-1.074,1.071-2.085,2.085-3.783,4.824-.591.948-1.125,1.908-1.629,2.863.944-.181,1.929-.304,2.989-.304v.003ZM2037.802,1524.463c0-5.165-4.98-5.723-7.123-5.723-3.053,0-6.688.995-6.688,5.723,0,3.692,2.375,5.725,6.688,5.725,4.395,0,7.123-2.192,7.123-5.725Z" fill="#ccc"/>
      <path d="M2071.442,1503.257c.437.82.39,1.815-.124,2.586l-18.85,28.295c-.487.728-1.285,1.121-2.099,1.121-.48,0-.968-.137-1.395-.424-1.158-.771-1.472-2.332-.701-3.493l16.241-24.378h-11.777c-1.391,0-2.519-1.128-2.519-2.52s1.128-2.519,2.519-2.519h16.481c.932,0,1.785.511,2.223,1.328v.003Z" fill="#ccc"/>
    </g>
    <g>
      <path d="M2015.273,1563.547c1.095.276,1.902,1.264,1.902,2.441s-.808,2.166-1.902,2.442v10.536c0,1.392-1.128,2.519-2.519,2.519s-2.52-1.127-2.52-2.519v-10.463h-13.262c-.984,0-1.878-.566-2.288-1.461-.414-.895-.268-1.945.37-2.692l13.078-15.313c.478-.561,1.178-.885,1.915-.885h2.702c1.392,0,2.52,1.128,2.52,2.52v12.868l.003.007ZM2010.232,1554.335l-7.797,9.132h7.797v-9.132Z" fill="#ccc"/>
      <path d="M2027.189,1580.797v.07c0,1.391-1.128,2.519-2.519,2.519s-2.52-1.128-2.52-2.519,1.128-2.556,2.52-2.556,2.519,1.094,2.519,2.485Z" fill="#ccc"/>
      <path d="M2069.855,1559.583c0,1.458-.544,2.883-1.519,4.037.975,1.157,1.519,2.579,1.519,4.037v7.276c0,1.778-.798,3.503-2.189,4.728-1.308,1.157-3.049,1.795-4.9,1.795h-9.676c-1.812,0-3.597-.654-4.897-1.795-1.415-1.248-2.192-2.926-2.192-4.728v-7.276c0-1.458.544-2.883,1.519-4.037-.978-1.161-1.519-2.586-1.519-4.037v-4.904c0-1.778.798-3.503,2.189-4.728,1.311-1.161,3.053-1.799,4.9-1.799h9.676c1.818,0,3.603.654,4.9,1.795,1.415,1.252,2.189,2.93,2.189,4.728v4.908ZM2064.817,1567.65c0-.334-.19-.688-.518-.978l-.617-.541h-11.517l-.621.544c-.32.287-.51.641-.51.975v7.276c0,.344.163.66.483.944.384.337.971.54,1.568.54h9.675c.611,0,1.185-.193,1.568-.537.307-.267.487-.62.487-.947v-7.276ZM2051.042,1554.679v4.904c0,.334.189.69.521.987l.606.53h11.521l.624-.544c.317-.283.507-.64.507-.974v-4.904c0-.347-.163-.667-.487-.951-.38-.333-.967-.537-1.567-.537h-9.676c-.61,0-1.181.197-1.564.537h-.003c-.304.267-.484.621-.484.947l.004.004Z" fill="#ccc"/>
    </g>
    <g>
      <path d="M1987.689,1606.385c1.549,1.548,2.402,3.604,2.402,5.782v2.369c0,3.029-1.441,5.905-3.854,7.696-1.631,1.234-3.623,1.896-5.738,1.896h-2.102c-1.912,0-7.594-1.062-9.602-2.069l-1.148-.54c-1.258-.594-1.795-2.095-1.201-3.353.594-1.262,2.092-1.792,3.354-1.201l1.201.566c1.114.558,5.922,1.562,7.4,1.562h2.102c1.008,0,1.945-.31,2.715-.891,1.172-.874,1.836-2.205,1.836-3.666v-2.369c0-.834-.33-1.621-.932-2.222l-.403-.404c-.479-.483-1.144-.761-1.817-.761h-4.972c-.972,0-1.858-.561-2.275-1.441s-.29-1.918.327-2.672l7.246-8.868h-10.002c-1.392,0-2.52-1.128-2.52-2.519s1.128-2.52,2.52-2.52h15.313c.971,0,1.858.561,2.275,1.441.417.878.29,1.919-.327,2.673l-7.253,8.874c1.885.084,3.71.888,5.052,2.229l.402.404v.003Z" fill="#ccc"/>
      <path d="M2016.474,1619.046c1.391,0,2.518,1.128,2.518,2.52s-1.127,2.519-2.518,2.519h-18.851c-.347,0-.681-.073-.981-.2-.02-.007-.033-.026-.053-.036-.291-.131-.551-.311-.768-.534-.01-.01-.023-.014-.033-.023-.09-.094-.127-.214-.197-.316-.109-.157-.23-.304-.301-.484-.069-.184-.086-.373-.113-.567-.02-.123-.072-.229-.072-.356,0-.014.006-.026.006-.04.004-.207.066-.404.12-.604.034-.116.037-.246.083-.356.044-.104.131-.187.191-.283.109-.184.217-.371.369-.521.011-.011.023-.034.023-.034l14.347-13.445c2.169-2.038,3.353-4.247,3.249-6.059-.069-1.268-.77-2.379-2.131-3.393-.918-.678-2.227-1.038-3.768-1.038-2.973,0-5.298.508-6.999,2.979-.788,1.151-2.353,1.438-3.503.65-1.145-.787-1.436-2.355-.647-3.503,3.55-5.161,9.071-5.161,11.149-5.161,2.626,0,4.965.7,6.767,2.025,3.243,2.419,4.054,5.225,4.163,7.156.19,3.35-1.524,6.906-4.834,10.019l-9.702,9.095h12.481l.004-.007Z" fill="#ccc"/>
      <path d="M2029.042,1623.405v.07c0,1.391-1.128,2.519-2.519,2.519s-2.52-1.128-2.52-2.519,1.128-2.556,2.52-2.556,2.519,1.094,2.519,2.485Z" fill="#ccc"/>
      <path d="M2059.58,1602.542c7.273,0,12.16,4.323,12.16,10.759,0,6.34-5,10.764-12.16,10.764s-11.728-4.224-11.728-10.764c0-.153.036-.286.04-.437-.006-.07-.04-.127-.04-.197,0-3.463,3.093-10.516,6.082-15.34,2.002-3.236,3.333-4.564,4.505-5.735.983-.984,2.625-1.031,3.609-.047s1.031,2.536.047,3.517l-.094.094c-1.074,1.07-2.085,2.085-3.783,4.824-.591.947-1.125,1.908-1.629,2.862.945-.18,1.93-.304,2.99-.304v.004ZM2066.703,1613.298c0-5.165-4.981-5.722-7.123-5.722-3.053,0-6.689.994-6.689,5.722,0,3.693,2.375,5.726,6.689,5.726,4.394,0,7.123-2.192,7.123-5.726Z" fill="#ccc"/>
    </g>
    <g>
      <path d="M1997.026,1665.954c1.317.083,2.368,1.15,2.368,2.488,0,1.392-1.127,2.52-2.519,2.52h-4.704c-1.392,0-2.52-1.128-2.52-2.52,0-1.328,1.034-2.382,2.336-2.482v-22.586c-.41-.19-.784-.467-1.051-.875-.765-1.16-.444-2.725.717-3.489l1.468-.968c.063-.043.141-.047.207-.084.147-.08.297-.137.461-.186.17-.054.33-.091.504-.104.073-.008.137-.044.213-.044.084,0,.153.04.237.047.173.017.34.05.507.104.153.05.294.106.431.181.14.072.267.16.394.263.137.11.25.23.36.364.054.066.127.104.174.176.043.064.046.141.083.207.08.147.137.301.187.465.051.166.087.326.101.496.007.077.043.141.043.217v25.807l.004.004Z" fill="#ccc"/>
      <path d="M2011.776,1665.954c1.317.083,2.368,1.15,2.368,2.488,0,1.392-1.127,2.52-2.519,2.52h-4.704c-1.392,0-2.52-1.128-2.52-2.52,0-1.328,1.034-2.382,2.336-2.482v-22.586c-.41-.19-.784-.467-1.051-.875-.765-1.16-.444-2.725.717-3.489l1.468-.968c.063-.043.141-.047.207-.084.147-.08.297-.137.461-.186.17-.054.33-.091.504-.104.073-.008.137-.044.213-.044.084,0,.153.04.237.047.173.017.34.05.507.104.153.05.294.106.431.181.14.072.267.16.394.263.137.11.25.23.36.364.054.066.127.104.174.176.043.064.046.141.083.207.08.147.137.301.187.465.051.166.087.326.101.496.007.077.043.141.043.217v25.807l.004.004Z" fill="#ccc"/>
      <path d="M2040.928,1653.013c1.855,2.158,1.805,4.21,1.762,5.861l-.014.758c0,3.082-.974,5.821-2.672,7.523-1.455,1.451-3.457,2.516-5.492,2.922-1.567.314-10.056.73-12.621.848h-.12c-1.338,0-2.452-1.055-2.516-2.402-.063-1.388,1.008-2.565,2.399-2.633,5.151-.242,11-.59,11.87-.757,1.055-.214,2.172-.804,2.916-1.548.554-.554,1.198-1.922,1.198-3.961l.013-.883c.033-1.398.021-1.789-.54-2.443-.634-.73-1.158-.87-2.402-.924h-12.938c-1.384,0-2.509-1.114-2.519-2.498l-.101-12.715c-.003-.674.258-1.318.731-1.795.474-.478,1.117-.744,1.788-.744h17.282c1.391,0,2.519,1.127,2.519,2.519s-1.128,2.519-2.519,2.519h-14.743l.06,7.678h10.546c2.099.09,4.201.471,6.109,2.672l.003.004Z" fill="#ccc"/>
      <path d="M2067.383,1667.852c-2.96,2.955-10.286,3.105-11.725,3.105-1.391,0-2.519-1.127-2.519-2.516s1.124-2.521,2.516-2.521c3.093-.004,7.206-.674,8.164-1.632,1.234-1.234,1.985-3.773,2.412-6.593-1.812.924-4.007,1.451-6.569,1.451-7.376,0-11.961-4.123-11.961-10.76,0-5.204,3.144-10.763,11.961-10.763,8.598,0,11.774,5.282,11.928,10.369.013.08.053.15.06.23.097,1.475.798,14.56-4.267,19.628ZM2066.583,1648.385c0-3.8-2.332-5.726-6.923-5.726-4.658,0-6.923,1.875-6.923,5.726,0,3.797,2.328,5.722,6.923,5.722s6.923-1.922,6.923-5.722Z" fill="#ccc"/>
    </g>
    <g>
      <path d="M2013.728,1699.756c1.855,2.159,1.805,4.211,1.762,5.862l-.014.757c0,3.083-.974,5.822-2.672,7.523-1.455,1.451-3.457,2.516-5.492,2.923-1.567.313-10.055.73-12.621.848h-.119c-1.338,0-2.453-1.055-2.516-2.402-.064-1.388,1.008-2.565,2.398-2.633,5.151-.243,11-.59,11.871-.757,1.054-.214,2.172-.804,2.916-1.548.553-.554,1.197-1.922,1.197-3.961l.014-.884c.033-1.397.02-1.788-.541-2.442-.634-.73-1.158-.87-2.402-.924h-12.938c-1.385,0-2.51-1.114-2.52-2.499l-.1-12.715c-.004-.674.257-1.317.73-1.795.474-.477,1.117-.744,1.788-.744h17.282c1.391,0,2.52,1.128,2.52,2.52s-1.129,2.519-2.52,2.519h-14.743l.06,7.677h10.547c2.098.091,4.2.471,6.108,2.673l.003.003Z" fill="#ccc"/>
      <path d="M2041.324,1699.763c1.094.277,1.901,1.265,1.901,2.442s-.808,2.165-1.901,2.442v10.536c0,1.391-1.129,2.519-2.52,2.519s-2.52-1.128-2.52-2.519v-10.463h-13.262c-.984,0-1.878-.567-2.288-1.462-.413-.894-.267-1.944.37-2.692l13.078-15.313c.478-.561,1.178-.884,1.916-.884h2.701c1.393,0,2.52,1.128,2.52,2.519v12.868l.004.007ZM2036.282,1690.551l-7.797,9.132h7.797v-9.132Z" fill="#ccc"/>
      <path d="M2069.978,1699.756c1.854,2.159,1.805,4.211,1.762,5.862l-.014.757c0,3.083-.975,5.822-2.673,7.523-1.454,1.451-3.456,2.516-5.491,2.923-1.568.313-10.057.73-12.621.848h-.121c-1.338,0-2.451-1.055-2.516-2.402-.062-1.388,1.008-2.565,2.399-2.633,5.151-.243,11-.59,11.87-.757,1.055-.214,2.172-.804,2.916-1.548.555-.554,1.198-1.922,1.198-3.961l.013-.884c.033-1.397.021-1.788-.54-2.442-.634-.73-1.157-.87-2.401-.924h-12.939c-1.384,0-2.508-1.114-2.519-2.499l-.101-12.715c-.002-.674.258-1.317.731-1.795.474-.477,1.118-.744,1.788-.744h17.282c1.392,0,2.519,1.128,2.519,2.52s-1.127,2.519-2.519,2.519h-14.743l.061,7.677h10.545c2.1.091,4.201.471,6.109,2.673l.004.003Z" fill="#ccc"/>
    </g>
    <path d="M1301.69,1740.807c0,1.851-1.5,3.351-3.351,3.351h-25.056c-1.85,0-3.35-1.5-3.35-3.351v-37.583c0-1.851,1.5-3.351,3.35-3.351s3.351,1.5,3.351,3.351v34.232h21.706c1.851,0,3.351,1.5,3.351,3.351Z" fill="#ccc"/>
    <g>
      <path d="M1281.02,1629.259l.127,10.088c0,3.001-1.211,5.88-3.326,7.939-2.001,1.942-4.766,3.057-7.585,3.057h-7.682c-2.406,0-4.77-.807-6.648-2.279l-.688-.523c-2.697-2.039-4.25-5.184-4.25-8.615v-19.206c0-3.377,1.596-6.602,4.263-8.619l.709-.54c1.849-1.448,4.208-2.259,6.614-2.259h8.442c2.132,0,4.217.638,6.028,1.845l2.537,1.692c1.465.979,1.857,2.955.882,4.42-.975,1.469-2.951,1.857-4.419.882l-2.533-1.692c-.76-.507-1.621-.772-2.495-.772h-8.442c-1.005,0-1.942.321-2.723.929l-.751.574c-1.097.823-1.743,2.148-1.743,3.541v19.206c0,1.418.629,2.706,1.73,3.537l.73.558c.806.633,1.748.953,2.752.953h7.683c1.177,0,2.321-.46,3.14-1.253.899-.874,1.397-2.056,1.397-3.326l-.089-6.901h-7.281c-1.76,0-3.187-1.427-3.187-3.188s1.427-3.187,3.187-3.187h10.426c1.744,0,3.166,1.401,3.187,3.145l.008-.004Z" fill="#ccc"/>
      <path d="M1302.305,1623.119c9.202,0,15.386,5.471,15.386,13.613,0,8.02-6.327,13.617-15.386,13.617s-14.837-5.345-14.837-13.617c0-.194.046-.363.051-.554-.008-.088-.051-.16-.051-.249,0-4.381,3.913-13.305,7.695-19.408,2.533-4.094,4.217-5.774,5.699-7.256,1.245-1.245,3.321-1.305,4.566-.059,1.245,1.245,1.305,3.208.06,4.448l-.118.118c-1.359,1.355-2.639,2.639-4.787,6.104-.747,1.199-1.422,2.415-2.06,3.622,1.194-.228,2.439-.384,3.782-.384v.004ZM1311.317,1636.727c0-6.534-6.302-7.239-9.012-7.239-3.862,0-8.463,1.259-8.463,7.239,0,4.673,3.005,7.243,8.463,7.243,5.559,0,9.012-2.772,9.012-7.243Z" fill="#ccc"/>
    </g>
    <path d="M1076.401,981.894c2.347,2.731,2.284,5.327,2.229,7.416l-.017.958c0,3.9-1.232,7.366-3.381,9.518-1.841,1.836-4.373,3.183-6.948,3.698-1.984.397-12.722.924-15.968,1.072h-.152c-1.692,0-3.103-1.334-3.183-3.039-.08-1.756,1.275-3.246,3.035-3.331,6.517-.308,13.917-.747,15.019-.958,1.333-.271,2.748-1.018,3.689-1.958.701-.701,1.515-2.432,1.515-5.011l.017-1.119c.042-1.769.025-2.262-.684-3.089-.802-.925-1.465-1.102-3.04-1.169h-16.369c-1.751,0-3.174-1.41-3.187-3.162l-.127-16.086c-.004-.853.325-1.667.924-2.271.6-.604,1.414-.941,2.263-.941h21.865c1.76,0,3.187,1.426,3.187,3.187s-1.427,3.187-3.187,3.187h-18.652l.076,9.712h13.343c2.655.114,5.314.595,7.729,3.381l.004.004Z" fill="#ccc"/>
    <g>
      <path d="M1049.51,586.701c1.667.105,2.997,1.457,2.997,3.149,0,1.76-1.427,3.187-3.187,3.187h-5.952c-1.76,0-3.187-1.427-3.187-3.187,0-1.68,1.309-3.014,2.955-3.14v-28.577c-.519-.241-.992-.591-1.33-1.106-.966-1.469-.561-3.449.908-4.415l1.857-1.224c.08-.055.177-.059.262-.105.186-.102.375-.173.583-.236.215-.068.417-.114.637-.131.093-.009.173-.055.27-.055.105,0,.194.051.3.059.219.021.431.063.642.131.194.063.372.135.544.228.177.093.338.203.498.333.173.139.316.291.456.46.067.084.16.131.219.224.055.081.059.177.105.262.102.186.173.38.237.587.063.211.109.414.126.629.008.097.055.177.055.274v32.65l.004.004Z" fill="#ccc"/>
      <path d="M1089.067,558.901v26.086c0,4.436-3.909,8.041-8.716,8.041h-12.79c-4.888,0-8.716-3.533-8.716-8.041v-26.086c0-4.436,3.909-8.041,8.716-8.041h12.79c4.808,0,8.716,3.605,8.716,8.041ZM1082.693,558.901c0-.92-1.051-1.671-2.343-1.671h-12.79c-1.342,0-2.342.882-2.342,1.671v26.086c0,.92,1.051,1.671,2.342,1.671h12.79c1.342,0,2.343-.882,2.343-1.671v-26.086Z" fill="#ccc"/>
    </g>
    <path id="o" data-name="ManualGunReticle" d="M1354.235,807.52c0,38.681-31.38,70.061-70.061,70.061s-70.061-31.38-70.061-70.061,31.38-70.061,70.061-70.061,70.061,31.38,70.061,70.061ZM1284.174,801.111c-3.567,0-6.41,2.898-6.41,6.41s2.898,6.41,6.41,6.41,6.41-2.843,6.41-6.41-2.898-6.41-6.41-6.41Z" fill="none" stroke="#ccc" stroke-miterlimit="10" stroke-width="7"/>
    <g>
      <path d="M814.179,1819.74c1.038.337,1.738,1.305,1.738,2.396v28.225c0,1.392-1.128,2.52-2.519,2.52s-2.519-1.128-2.519-2.52v-20.498l-4.888,6.703c-.474.65-1.231,1.034-2.035,1.034s-1.561-.388-2.035-1.038l-4.854-6.679v20.478c0,1.392-1.128,2.52-2.519,2.52s-2.519-1.128-2.519-2.52v-28.225c0-1.091.701-2.056,1.738-2.396,1.038-.337,2.172.033,2.816.914l7.373,10.148,7.403-10.148c.641-.884,1.778-1.251,2.816-.911l.003-.003Z" fill="#ccc"/>
      <path d="M843.318,1827.584c.984,1.194,1.535,2.712,1.535,4.264v18.517c0,1.391-1.128,2.519-2.519,2.519s-2.519-1.128-2.519-2.519v-11.594h-13.846v11.594c0,1.391-1.127,2.519-2.519,2.519s-2.519-1.128-2.519-2.519v-18.517c0-1.521.523-2.982,1.511-4.234l4.23-5.168c3.013-3.606,9.455-3.586,12.428-.017l4.22,5.155h-.003ZM825.975,1833.729h13.849v-1.886c0-.387-.137-.754-.391-1.061l-4.214-5.147c-1.011-1.212-3.616-1.231-4.657.02l-4.187,5.121c-.357.444-.4.827-.4,1.071v1.882Z" fill="#ccc"/>
      <path d="M873.683,1822.139v28.226c0,1.11-.728,2.088-1.789,2.412-.244.07-.487.106-.73.106-.828,0-1.618-.407-2.095-1.121l-14.203-21.302v19.904c0,1.391-1.128,2.519-2.519,2.519s-2.519-1.128-2.519-2.519v-28.226c0-1.111.728-2.089,1.789-2.412,1.054-.32,2.208.09,2.826,1.015l14.203,21.302v-19.904c0-1.391,1.128-2.519,2.519-2.519s2.519,1.128,2.519,2.519Z" fill="#ccc"/>
      <path d="M911.625,1840.422c0,1.392-1.128,2.519-2.519,2.519h-14.109c-1.391,0-2.519-1.127-2.519-2.519s1.128-2.519,2.519-2.519h14.109c1.391,0,2.519,1.127,2.519,2.519Z" fill="#ccc"/>
      <path d="M924,1847.88c1.318.084,2.369,1.151,2.369,2.489,0,1.392-1.127,2.519-2.519,2.519h-4.704c-1.391,0-2.519-1.127-2.519-2.519,0-1.328,1.034-2.382,2.335-2.482v-22.587c-.41-.189-.784-.467-1.051-.874-.764-1.161-.444-2.726.717-3.489l1.468-.968c.063-.044.14-.047.207-.084.147-.08.297-.137.46-.187.17-.053.33-.09.504-.104.073-.007.137-.043.213-.043.083,0,.153.04.237.047.173.017.34.05.507.104.153.05.293.106.43.18.14.073.267.16.394.264.137.11.25.23.36.363.054.067.127.104.174.177.043.063.046.141.083.207.08.147.137.301.187.464.05.167.087.327.1.497.007.077.043.141.043.217v25.807l.003.003Z" fill="#ccc"/>
      <path d="M955.265,1825.907v20.618c0,3.507-3.089,6.356-6.89,6.356h-10.109c-3.863,0-6.89-2.793-6.89-6.356v-20.618c0-3.507,3.089-6.355,6.89-6.355h10.109c3.8,0,6.89,2.849,6.89,6.355ZM950.227,1825.907c0-.728-.831-1.321-1.852-1.321h-10.109c-1.061,0-1.852.697-1.852,1.321v20.618c0,.728.831,1.321,1.852,1.321h10.109c1.061,0,1.852-.697,1.852-1.321v-20.618Z" fill="#ccc"/>
    </g>
  </g>
  <g id="p" data-name="HUD_DGTL_RWS_GUN_MANUAL_Arrows_-_Dark">
    <path d="M1119.125,732.331l-3.162,19.52-857.328-125.63c3.277-41.807-26.093-79.955-68.211-86.778-44.369-7.188-86.313,23.06-93.501,67.429-7.188,44.368,23.061,86.312,67.429,93.5,42.119,6.824,82.03-20.1,92.12-60.803l857.328,125.63-3.162,19.52,115.681-8.14-107.194-44.247ZM245.853,630.999c-6.126,37.813-41.746,63.501-79.559,57.375-37.813-6.126-63.501-41.746-57.375-79.559,6.126-37.813,41.746-63.501,79.559-57.375s63.501,41.746,57.375,79.559Z" fill="#ccc" stroke="#161923" stroke-miterlimit="10" stroke-width="4"/>
    <path d="M1249.131,1659.723l-50.042,104.615,19.318,4.225-116.851,416.931c-41.565-5.558-81.262,21.681-90.378,63.364-9.603,43.909,18.307,87.445,62.215,97.048,43.909,9.603,87.445-18.306,97.048-62.216,9.116-41.682-15.585-83.007-55.675-95.307l116.851-416.931,19.318,4.225-1.802-115.953ZM1158.567,2281.093c-8.184,37.422-45.155,61.123-82.577,52.939-37.422-8.184-61.123-45.155-52.939-82.577,8.184-37.422,45.155-61.123,82.577-52.939,37.422,8.184,61.123,45.155,52.939,82.577Z" fill="#ccc" stroke="#161923" stroke-miterlimit="10" stroke-width="4"/>
    <path d="M819.174,1886.56l-70.092,92.388,18.07,8.03-102.855,202.208c-39.593-13.818-83.964,4.866-101.29,43.858-18.252,41.074.315,89.34,41.389,107.592,41.074,18.252,89.34-.315,107.592-41.389,17.327-38.991,1.457-84.444-35.334-104.569l102.855-202.208,18.07,8.03,21.594-113.939ZM700.881,2294.312c-15.555,35.006-56.543,50.773-91.549,35.218-35.006-15.555-50.773-56.543-35.218-91.549,15.555-35.006,56.543-50.773,91.549-35.218,35.006,15.555,50.773,56.543,35.218,91.549Z" fill="#ccc" stroke="#161923" stroke-miterlimit="10" stroke-width="4"/>
    <path d="M1092.295,1101.3l-112.339-24.744.276,19.613-722.292-28.025c.058-7.039-.791-14.196-2.677-21.322-11.406-43.101-55.751-68.886-98.85-57.48-43.101,11.406-68.886,55.751-57.48,98.851,11.406,43.1,55.75,68.885,98.851,57.479,31.387-8.306,53.572-34.086,58.917-64.127l723.719,28.036.276,19.613,111.599-27.893ZM194.7,1134.017c-36.733,9.721-74.39-12.176-84.111-48.909-9.721-36.733,12.176-74.39,48.909-84.111,36.733-9.721,74.39,12.176,84.111,48.909,9.721,36.733-12.176,74.39-48.909,84.111Z" fill="#ccc" stroke="#161923" stroke-miterlimit="10" stroke-width="4"/>
  </g>
  <g id="q" data-name="HUD_DGTL_RWS_GUN_LCOS_Numbers">
    <path d="M189.681,654.854v7h-22.401v-7h7.701v-71.834l-5.471,4.529-4.463-5.394,11.12-9.202h5.814v81.901h7.7Z" fill="#e3831f" stroke="#e3831f" stroke-miterlimit="10"/>
    <path d="M160.526,1111.87h43.276v7h-52.853v-6.976l9.202-10.042c4.823-5.373,9.248-10.298,13.448-14.778,2.086-2.086,4.176-4.526,6.195-6.885,2.111-2.461,10.542-11.95,10.542-11.95.956-.963,1.495-1.642,1.855-2.09.213-.27.396-.486.546-.654,1.025-1.306,1.887-2.958,2.496-4.785.578-1.733.872-3.119.872-5.895,0-2.384-.494-4.746-1.467-7.021-.885-2.349-2.296-4.042-4.158-5.905-2.125-1.75-4.137-3.01-6.104-3.745-5.628-2.111-9.419-2.107-15.041,0-2.576.966-4.515,2.156-6.108,3.749-1.837,1.838-3.314,3.935-4.158,5.905l-6.433-2.758c1.204-2.811,3.157-5.611,5.642-8.096,2.296-2.292,5.107-4.042,8.6-5.352,7.161-2.695,12.779-2.695,19.958,0,3.581,1.344,6.486,3.577,8.362,5.138,2.296,2.279,4.592,4.876,5.937,8.46,1.292,3,1.974,6.29,1.974,9.629,0,3.682-.473,5.832-1.232,8.11-.878,2.639-2.173,5.072-3.738,7.028l-.479.571c-.469.588-1.173,1.466-2.23,2.52.007,0-8.243,9.283-10.318,11.705-2.107,2.457-4.284,4.999-6.482,7.196-4.092,4.365-8.481,9.255-13.269,14.585l-4.831,5.338-.003-.003Z" fill="#e3831f" stroke="#e3831f" stroke-miterlimit="10"/>
    <path d="M1109.263,2281.299h9.45v7.001h-9.45v17.5h-7.001v-17.5h-36.401v-7.62l36.167-60.284h7.231v60.9l.004.003ZM1102.259,2233.612l-28.61,47.684h28.61v-47.684Z" fill="#e3831f" stroke="#e3831f" stroke-miterlimit="10"/>
    <path d="M662.616,2267.819c1.323,3.091,1.971,9.062,1.971,12.079,0,3.228,0,5.358-1.52,11.054-1.34,5.352-4.088,8.953-6.157,11.021-2.313,2.311-6.734,5.261-10.375,6.171-3.434,1.155-9.041,1.155-12.051,1.155-3.556,0-9.72-2.006-12.229-3.08-2.937-1.26-8.449-4.978-11.799-7.952l4.652-5.233c2.93,2.604,7.896,5.888,9.906,6.752,2.31.991,7.42,2.517,9.471,2.517,2.429,0,7.483,0,10.095-.871,2.24-.57,5.569-2.594,7.382-4.407,1.442-1.438,3.367-3.969,4.33-7.822,1.295-4.858,1.295-6.252,1.295-9.3,0-3.108-.71-7.715-1.467-9.476-.861-2.282-1.908-4.019-3.671-6.136-1.537-1.845-3.213-3.164-4.988-3.924-2.202-.945-4.533-1.82-6.671-1.82h-9.451v-7.623l20.798-23.528h-31.999v-7h39.552v9.02l-19.559,22.128h.658c3.413,0,6.682,1.204,9.429,2.384,2.797,1.201,5.359,3.179,7.609,5.877,2.279,2.73,3.71,5.128,4.792,8.012l-.003.004Z" fill="#e3831f" stroke="#e3831f" stroke-miterlimit="10"/>
  </g>
</svg>