<?xml version="1.0" encoding="UTF-8"?>
<svg id="b" data-name="ACT_CUE__-_Dark" xmlns="http://www.w3.org/2000/svg" width="2061.538" height="202.972" viewBox="0 0 2061.538 202.972">
  <path id="c" data-name="TargetDesignatorUnknownHooked" d="M1042.684,159.146h-71.481v-71.481h71.481v71.481ZM1042.684,159.146l19.257,19.257M971.202,87.665l-19.257-19.257M1042.684,87.665l19.257-19.257M971.202,159.146l-19.257,19.257" fill="none" stroke="#ccc" stroke-linecap="square" stroke-miterlimit="15.1" stroke-width="6"/>
  <path d="M1124.696,114.836v26.087c0,4.436-3.909,8.041-8.717,8.041h-12.79c-4.888,0-8.716-3.533-8.716-8.041v-26.087c0-4.436,3.908-8.041,8.716-8.041h12.79c4.808,0,8.717,3.605,8.717,8.041ZM1118.322,114.836c0-.92-1.051-1.671-2.343-1.671h-12.79c-1.342,0-2.342.882-2.342,1.671v26.087c0,.92,1.051,1.671,2.342,1.671h12.79c1.343,0,2.343-.882,2.343-1.671v-26.087Z" fill="#ccc"/>
  <g>
    <path d="M981.094,25.51c1.246,1.511,1.942,3.432,1.942,5.395v23.427c0,1.76-1.427,3.187-3.187,3.187s-3.187-1.427-3.187-3.187v-14.668h-17.517v14.668c0,1.76-1.427,3.187-3.187,3.187s-3.187-1.427-3.187-3.187v-23.427c0-1.925.663-3.773,1.912-5.356l5.353-6.539c3.812-4.563,11.962-4.538,15.723-.021l5.34,6.521h-.004ZM959.153,33.286h17.521v-2.385c0-.489-.173-.954-.494-1.342l-5.331-6.513c-1.279-1.532-4.576-1.557-5.893.025l-5.297,6.479c-.452.562-.507,1.047-.507,1.355v2.381Z" fill="#ccc"/>
    <path d="M1014.612,48.739c1.486-.941,3.453-.515,4.402.971s.515,3.453-.971,4.402l-2.448,1.562c-2.018,1.245-4.246,1.891-6.483,1.891h-7.809c-2.659,0-5.259-.882-7.319-2.491-2.9-2.216-4.647-5.766-4.647-9.476v-18.155c0-3.71,1.744-7.26,4.668-9.493,2.039-1.587,4.639-2.469,7.298-2.469h7.809c2.33,0,4.58.659,6.504,1.904l2.432,1.549c1.481.95,1.916,2.917.971,4.402-.95,1.478-2.917,1.917-4.402.971l-2.448-1.562c-.908-.591-1.959-.895-3.056-.895h-7.809c-1.245,0-2.457.405-3.402,1.144-1.38,1.055-2.191,2.714-2.191,4.449v18.155c0,1.735.811,3.394,2.169,4.432.971.751,2.183,1.161,3.428,1.161h7.809c1.056,0,2.124-.316,3.094-.92l2.41-1.537-.008.004Z" fill="#ccc"/>
    <path d="M1052.83,15.435c1.761,0,3.188,1.427,3.188,3.187s-1.427,3.187-3.188,3.187h-8.716v32.523c0,1.76-1.427,3.187-3.188,3.187s-3.187-1.427-3.187-3.187V21.809h-8.716c-1.76,0-3.187-1.427-3.187-3.187s1.427-3.187,3.187-3.187h23.806Z" fill="#ccc"/>
  </g>
</svg>