<?xml version="1.0" encoding="UTF-8"?>
<svg xmlns="http://www.w3.org/2000/svg" width="1589.087" height="910.957" viewBox="0 0 1589.087 910.957">
  <g id="DIR_to_Impromtu_waypoint_-_Dark">
    <g>
      <rect x="1078.313" y="658.103" width="86.087" height="72.391" fill="none"/>
      <path d="M1118.386,679.163h5.958v38.51h-5.958v-38.51Z" fill="#ccc" stroke="#ccc" stroke-miterlimit="10"/>
    </g>
    <g>
      <rect x="779.584" y="125.356" width="107.895" height="72.391" fill="none"/>
      <path d="M842.914,184.927h-28.703v-6.379h22.745v-9.812h-18.311v.073h-5.958v-22.404h5.958v.006h22.245v6.292h-22.245v9.741h19.558v.026h4.711v22.457Z" fill="#ccc" stroke="#ccc" stroke-miterlimit="10"/>
      <path d="M848.436,146.417h5.958v38.51h-5.958v-38.51Z" fill="#ccc" stroke="#ccc" stroke-miterlimit="10"/>
    </g>
    <g>
      <line x1="307.565" y1="462.913" x2="317.2" y2="465.59" fill="none" stroke="#ccc" stroke-miterlimit="10" stroke-width="7"/>
      <line x1="336.932" y1="471.071" x2="1037.412" y2="665.647" fill="none" stroke="#ccc" stroke-dasharray="20.479 20.479" stroke-miterlimit="10" stroke-width="7"/>
      <polyline points="1047.278 668.387 1056.913 671.064 1065.415 665.799" fill="none" stroke="#ccc" stroke-miterlimit="10" stroke-width="7"/>
      <line x1="1083.164" y1="654.808" x2="1429.276" y2="440.487" fill="none" stroke="#ccc" stroke-dasharray="20.877 20.877" stroke-miterlimit="10" stroke-width="7"/>
      <line x1="1438.15" y1="434.991" x2="1446.652" y2="429.727" fill="none" stroke="#ccc" stroke-miterlimit="10" stroke-width="7"/>
    </g>
    <polyline points="320.478 462.039 759.032 150.037 1059.355 672.907" fill="none" stroke="#ccc" stroke-miterlimit="10" stroke-width="7"/>
    <g>
      <rect x="1148.182" y="684.191" width="122.87" height="44.609" fill="none"/>
      <path d="M1161.307,692.179c-.044.068-4.485,6.906-4.485,17.177,0,10.328,4.439,17.109,4.484,17.176l.266.398v.955h-2.296l-.604.404c-.025-.037-.114-.173-.254-.404l-.013-.022c-1.047-1.745-4.751-8.614-4.751-18.507s3.704-16.762,4.751-18.506l.013-.021c.14-.231.229-.367.254-.404l.604.404h2.296v.951l-.265.399Z" fill="#ccc" stroke="#ccc" stroke-miterlimit="10"/>
      <path d="M1191.782,703.729l-.163,21.531-3.167-.023.09-12.024h-18.301v12.035h-3.167v-21.525l10.852-16.957h3.001l10.855,16.964ZM1188.566,710.044l.041-5.401-9.182-14.346-9.185,14.351v5.396h18.325Z" fill="#ccc" stroke="#ccc" stroke-miterlimit="10"/>
      <path d="M1221.977,703.729l-.163,21.531-3.167-.023.09-12.024h-18.301v12.035h-3.168v-21.525l10.853-16.957h3.001l10.855,16.964ZM1218.76,710.044l.041-5.401-9.181-14.346-9.185,14.351v5.396h18.324Z" fill="#ccc" stroke="#ccc" stroke-miterlimit="10"/>
      <path d="M1252.171,703.729l-.163,21.531-3.167-.023.09-12.024h-18.301v12.035h-3.167v-21.525l10.852-16.957h3.001l10.855,16.964ZM1248.956,710.044l.041-5.401-9.182-14.346-9.185,14.351v5.396h18.325Z" fill="#ccc" stroke="#ccc" stroke-miterlimit="10"/>
      <path d="M1260.826,690.849c1.046,1.743,4.75,8.611,4.75,18.506s-3.704,16.763-4.75,18.507l-.013.022c-.14.23-.229.367-.254.403l-.604-.403h-2.297v-.952l.265-.399c.045-.066,4.486-6.905,4.486-17.177s-4.441-17.11-4.486-17.177l-.265-.397v-.953h2.297l.604-.404c.025.037.114.173.254.404l.013.021h0Z" fill="#ccc" stroke="#ccc" stroke-miterlimit="10"/>
    </g>
    <path d="M311.83,465.42c-2.533-1.277-5.205-2.259-7.963-2.928l-1.845-.447c-2.664-.646-5.377-1.073-8.111-1.278l-13.029-1.204-17.854-1.168-8-.125.017-1.067,3.111.049.107-6.845-3.942-.564-95.017-39.478-10.832,4.722,32.667,26.205.071,1.157-32.133-26.286-1.247.158-7.365,4.775,4.149,19.003,5.807,3.914-3.838.918-4.022,1.36-.103,6.578,3.446,1.387,5.422.084-.023,1.511-2.756-.043-.993.963-.039,2.489s-4.174-.332-4.445-.069-3.04,1.109-3.04,1.109l-.094,6.056s2.742.932,3.004,1.203c.263.271,4.445.069,4.445.069l-.039,2.489.963.993,2.756.043-.024,1.511-5.422-.084-3.488,1.279-.103,6.578,3.978,1.485,3.807,1.037-5.927,3.731-4.74,18.865,7.213,5.003,1.242.197,32.936-25.271-.107,1.154-33.468,25.174,10.68,5.057,96.201-36.497,3.958-.441.107-6.845-3.111-.049.017-1.067h0l8,.125,17.881-.61,13.656-.824c2.343-.102,4.673-.395,6.968-.876l2.587-.542c2.683-.562,5.304-1.389,7.824-2.468l1.508-.646-1.409-.71Z" fill="#ccc" stroke="#ccc" stroke-miterlimit="10" stroke-width="2"/>
    <line x1="1019.745" y1="665.123" x2="1067.14" y2="712.518" fill="#ccc" stroke="#ccc" stroke-miterlimit="10" stroke-width="7"/>
    <line x1="1050.462" y1="634.405" x2="1097.857" y2="681.801" fill="#ccc" stroke="#ccc" stroke-miterlimit="10" stroke-width="7"/>
    <circle cx="1059.355" cy="672.907" r="8.217" fill="#ccc" stroke="#ccc" stroke-miterlimit="10"/>
    <line x1="726.852" y1="117.074" x2="791.613" y2="181.835" fill="#ccc" stroke="#ccc" stroke-miterlimit="10" stroke-width="7"/>
    <line x1="719.165" y1="141.025" x2="766.56" y2="188.421" fill="#ccc" stroke="#ccc" stroke-miterlimit="10" stroke-width="7"/>
    <line x1="749.883" y1="110.308" x2="797.278" y2="157.703" fill="#ccc" stroke="#ccc" stroke-miterlimit="10" stroke-width="7"/>
    <circle cx="758.776" cy="148.81" r="8.217" fill="#ccc" stroke="#ccc" stroke-miterlimit="10"/>
    <g>
      <rect x="860.047" y="175.443" width="229.21" height="44.609" fill="none"/>
      <path d="M882.4,183.432c-.044.068-4.485,6.906-4.485,17.177,0,10.328,4.439,17.109,4.484,17.176l.266.398v.955h-2.296l-.604.404c-.025-.037-.114-.173-.254-.404l-.013-.022c-1.047-1.745-4.751-8.614-4.751-18.507s3.704-16.762,4.751-18.506l.013-.021c.14-.231.229-.367.254-.404l.604.404h2.296v.951l-.265.399Z" fill="#ccc" stroke="#ccc" stroke-miterlimit="10"/>
      <path d="M911.754,183.163c.731,1.46,1.118,3.129,1.118,4.825v17.261c0,1.695-.387,3.366-1.118,4.826-.685,1.371-1.72,2.656-3.077,3.819-1.211,1.009-2.513,1.696-3.884,2.055-1.251.456-2.599.687-4.114.701h-.158c-1.693-.013-3.042-.241-4.356-.733-1.429-.537-2.7-1.265-3.783-2.168-1.375-1.177-2.41-2.462-3.096-3.834-.732-1.46-1.118-3.129-1.118-4.823v-17.261c0-1.694.388-3.363,1.118-4.825.686-1.371,1.721-2.657,3.078-3.819,1.211-1.011,2.513-1.696,3.885-2.054,1.293-.473,2.691-.703,4.272-.703,1.695,0,3.214.245,4.515.732,1.428.536,2.699,1.266,3.784,2.168,1.205,1.031,2.16,2.282,2.937,3.833h-.002ZM891.336,187.829v15.621l18.172-17.229c-.132-.576-.328-1.129-.584-1.643-.591-1.183-1.273-2.082-2.147-2.831-.792-.66-1.758-1.21-2.851-1.62-.93-.349-2.106-.532-3.403-.532-1.244,0-2.275.17-3.244.532l-.172.054c-.938.234-1.845.713-2.696,1.422-1.019.873-1.794,1.826-2.29,2.817-.513,1.026-.784,2.204-.784,3.409ZM909.707,205.25v-14.852l-17.995,17.062c.114.359.245.709.41,1.04.495.991,1.271,1.945,2.307,2.832.792.658,1.757,1.208,2.851,1.62.963.36,1.989.525,3.319.531,1.21-.006,2.219-.176,3.169-.531l.171-.055c.939-.234,1.845-.712,2.696-1.422,1.017-.872,1.793-1.825,2.289-2.817.513-1.024.783-2.202.783-3.409Z" fill="#ccc" stroke="#ccc" stroke-miterlimit="10"/>
      <path d="M941.669,193.7c.602,1.405.92,2.882.92,4.268v7.759c0,1.388-.318,2.862-.92,4.267-.586,1.37-1.555,2.683-2.657,3.601-.849.708-2.164,1.717-3.783,2.325-1.626.609-3.062.893-4.516.893-1.655,0-3.725-.357-5.148-.892-1.58-.594-2.853-1.385-3.89-2.423-.997-.821-1.965-2.134-2.553-3.504-.354-.703-.546-1.467-.714-2.14l-.048-.385v-1.425h3.168v1.23c.128.51.253.959.465,1.385.436,1.013,1.083,1.893,1.815,2.503.826.816,1.703,1.355,2.867,1.792,1.067.399,2.767.69,4.037.69,1.076,0,2.126-.214,3.402-.691.889-.335,1.801-.903,2.868-1.793.73-.609,1.378-1.492,1.775-2.417.434-1.013.663-2.057.663-3.018v-7.76c0-.961-.229-2.005-.663-3.02-.396-.925-1.044-1.806-1.775-2.415-.826-.815-1.704-1.355-2.868-1.791l-.484-.188c-.885-.347-1.29-.505-2.918-.505-1.986,0-3.577.425-5.009,1.337-1.069.668-2.015,1.613-2.675,2.67l-.466.744h-4.203v-18.369h23.912v3.167h-20.744v11.205c.725-.811,1.564-1.521,2.485-2.097,1.925-1.226,4.121-1.824,6.699-1.824,2.117,0,2.926.274,4.071.722l.443.172c1.58.592,2.852,1.384,3.889,2.421.996.822,1.966,2.133,2.553,3.503v.002Z" fill="#ccc" stroke="#ccc" stroke-miterlimit="10"/>
      <path d="M971.424,193.7c.602,1.405.92,2.882.92,4.268v7.759c0,1.388-.318,2.862-.92,4.267-.586,1.37-1.556,2.683-2.657,3.601-.849.708-2.165,1.717-3.783,2.325-1.627.609-3.062.893-4.517.893-1.654,0-3.725-.357-5.148-.892-1.58-.594-2.852-1.385-3.889-2.423-.998-.821-1.966-2.134-2.553-3.504-.354-.703-.547-1.467-.714-2.14l-.048-.385v-1.425h3.167v1.23c.128.51.253.959.466,1.385.436,1.013,1.083,1.893,1.814,2.503.827.816,1.704,1.355,2.868,1.792,1.067.399,2.767.69,4.036.69,1.077,0,2.127-.214,3.403-.691.889-.335,1.801-.903,2.868-1.793.729-.609,1.377-1.492,1.774-2.417.435-1.013.664-2.057.664-3.018v-7.76c0-.961-.229-2.005-.664-3.02-.396-.925-1.043-1.806-1.774-2.415-.827-.815-1.704-1.355-2.868-1.791l-.484-.188c-.886-.347-1.291-.505-2.919-.505-1.985,0-3.577.425-5.009,1.337-1.068.668-2.015,1.613-2.675,2.67l-.465.744h-4.203v-18.369h23.912v3.167h-20.745v11.205c.726-.811,1.564-1.521,2.486-2.097,1.924-1.226,4.12-1.824,6.698-1.824,2.117,0,2.927.274,4.071.722l.443.172c1.581.592,2.853,1.384,3.89,2.421.996.822,1.965,2.133,2.553,3.503v.002Z" fill="#ccc" stroke="#ccc" stroke-miterlimit="10"/>
      <path d="M1001.466,188.891v2.084l-20.429,20.271v.448l-.468.016-.016-.016h-2.685v-1.769l20.43-20.27v-.765h3.167Z" fill="#ccc" stroke="#ccc" stroke-miterlimit="10"/>
      <path d="M1011.298,213.642h19.579v3.167h-23.912v-3.156l4.163-4.543c2.183-2.431,4.184-4.659,6.084-6.686.944-.944,1.89-2.048,2.804-3.115.954-1.113,4.77-5.406,4.77-5.406.432-.436.676-.742.839-.945.097-.122.179-.22.247-.296.464-.591.854-1.338,1.129-2.165.262-.784.395-1.411.395-2.667,0-1.078-.224-2.146-.663-3.176-.401-1.063-1.039-1.829-1.882-2.672-.961-.792-1.871-1.362-2.762-1.694-2.546-.955-4.261-.953-6.805,0-1.165.437-2.043.976-2.763,1.696-.832.831-1.5,1.779-1.882,2.671l-2.91-1.248c.545-1.271,1.428-2.538,2.553-3.662,1.039-1.038,2.311-1.829,3.891-2.422,3.24-1.219,5.781-1.219,9.029,0,1.62.608,2.935,1.618,3.783,2.325,1.039,1.03,2.078,2.206,2.686,3.827.585,1.357.894,2.846.894,4.356,0,1.666-.214,2.639-.558,3.669-.397,1.194-.983,2.295-1.691,3.18l-.217.259c-.212.266-.53.663-1.009,1.14.003,0-3.729,4.2-4.668,5.296-.953,1.111-1.938,2.261-2.933,3.256-1.852,1.975-3.837,4.187-6.004,6.599l-2.186,2.415v-.002Z" fill="#ccc" stroke="#ccc" stroke-miterlimit="10"/>
      <path d="M1060.136,199.236c.882,1.542,1.001,3.024,1.001,4.269v1.426c0,1.34-.293,2.645-.92,4.107l-.081.161c-.724,1.269-1.646,2.373-2.736,3.281-.997.832-2.323,1.561-3.941,2.167-1.317.494-2.846.734-4.673.734-1.564,0-3.088-.328-4.502-.681l-.171-.054c-1.619-.606-2.946-1.337-3.942-2.167-1.091-.908-2.011-2.014-2.736-3.281-.882-1.542-1.001-3.022-1.001-4.269-.011-.221-.311-7.163.828-12.373,1.522-6.586,8.682-13.748,13.268-16.395l1.582,2.743c-4.068,2.347-10.51,8.94-11.758,14.346-.208.946-.361,1.971-.477,3.005.269-.235.553-.462.849-.679.836-.67,2.454-1.595,3.827-1.987,1.38-.396,7.256-.422,8.908.197,1.616.606,2.943,1.337,3.941,2.168,1.091.909,2.013,2.015,2.736,3.281h-.002ZM1057.973,204.934v-1.425c0-1.207-.163-1.964-.583-2.699-.535-.938-1.213-1.753-2.014-2.419-.715-.596-1.761-1.161-3.026-1.635-.928-.329-6.003-.361-6.93-.118-.91.261-2.147.959-2.769,1.455-1.899,1.395-3.048,3.273-3.048,4.938h-.04c.007,1.104.038,1.809.038,1.829.002,1.28.165,2.035.585,2.77.536.938,1.214,1.754,2.014,2.42.695.581,1.712,1.134,2.942,1.603,1.191.296,2.453.564,3.644.564,1.441,0,2.605-.175,3.562-.532,1.268-.477,2.313-1.041,3.026-1.635.779-.647,1.441-1.437,1.97-2.342.433-1.031.628-1.89.628-2.774h0Z" fill="#ccc" stroke="#ccc" stroke-miterlimit="10"/>
      <path d="M1069.806,182.102c1.047,1.743,4.75,8.611,4.75,18.506s-3.703,16.763-4.75,18.507l-.013.022c-.14.23-.229.367-.254.403l-.604-.403h-2.296v-.952l.264-.399c.045-.066,4.486-6.905,4.486-17.177s-4.441-17.11-4.486-17.177l-.264-.397v-.953h2.296l.604-.404c.025.037.114.173.254.404l.013.021h0Z" fill="#ccc" stroke="#ccc" stroke-miterlimit="10"/>
    </g>
  </g>
  <g id="DIR_to_Impromtu_waypoint_Arrow_-_Dark">
    <path d="M729.701,165.701l-67.862-34.943-3.152,12.628-286.899-71.64c1.232-4.506,1.902-9.241,1.902-14.132,0-29.584-24.068-53.652-53.652-53.652s-53.652,24.068-53.652,53.652,24.068,53.652,53.652,53.652c21.544,0,40.151-12.771,48.68-31.134l287.813,71.889-3.152,12.628,76.322,1.052ZM320.038,103.267c-25.213,0-45.652-20.439-45.652-45.652,0-25.213,20.439-45.652,45.652-45.652s45.652,20.439,45.652,45.652c0,25.213-20.439,45.652-45.652,45.652Z" fill="#ccc" stroke="#0d121e" stroke-miterlimit="10" stroke-width="2"/>
    <path d="M1099.081,662.028l76.262,3.198-2.445-12.784,297.723-58.271c.775,4.606,2.156,9.185,4.211,13.623,12.429,26.846,44.382,38.576,71.228,26.147,26.846-12.429,38.576-44.382,26.146-71.229-12.429-26.846-44.382-38.575-71.228-26.146-19.55,9.051-31.07,28.458-31.095,48.705l-298.657,58.429-2.445-12.784-69.702,31.11ZM1504.34,543.827c22.88-10.593,50.015-.632,60.608,22.248,10.593,22.88.632,50.015-22.248,60.608-22.88,10.593-50.015.632-60.608-22.248-10.593-22.88-.632-50.015,22.248-60.608Z" fill="#ccc" stroke="#0d121e" stroke-miterlimit="10" stroke-width="2"/>
    <path d="M308.321,83.186h28.483v4.607h-34.786v-4.591l6.056-6.609c3.175-3.536,6.086-6.778,8.851-9.727,1.373-1.373,2.749-2.979,4.078-4.531,1.389-1.62,6.939-7.864,6.939-7.864.629-.635.983-1.081,1.221-1.376.141-.177.26-.32.359-.431.675-.859,1.242-1.947,1.643-3.149.38-1.14.574-2.053.574-3.88,0-1.568-.325-3.123-.965-4.621-.583-1.545-1.511-2.66-2.737-3.887-1.398-1.151-2.723-1.98-4.018-2.465-3.705-1.389-6.199-1.387-9.899,0-1.695.637-2.972,1.42-4.02,2.468-1.209,1.21-2.182,2.589-2.737,3.886l-4.234-1.814c.792-1.85,2.078-3.693,3.713-5.328,1.511-1.51,3.361-2.662,5.66-3.523,4.713-1.773,8.411-1.773,13.136,0,2.356.885,4.269,2.355,5.503,3.383,1.511,1.499,3.022,3.209,3.907,5.567.85,1.975,1.299,4.14,1.299,6.338,0,2.423-.311,3.838-.811,5.337-.578,1.738-1.431,3.339-2.46,4.627l-.315.375c-.309.387-.772.965-1.468,1.658.005,0-5.425,6.109-6.791,7.704-1.387,1.617-2.82,3.29-4.267,4.737-2.693,2.872-5.582,6.09-8.733,9.6l-3.179,3.513-.002-.003Z" fill="#ff8500" stroke="#ff8500" stroke-miterlimit="10"/>
    <path d="M1537.964,590.116c.87,2.034,1.297,5.965,1.297,7.95,0,2.124,0,3.527-1,7.275-.883,3.522-2.69,5.894-4.053,7.255-1.522,1.521-4.432,3.462-6.828,4.062-2.26.76-5.95.76-7.932.76-2.341,0-6.397-1.32-8.049-2.027-1.933-.829-5.562-3.275-7.766-5.233l3.062-3.444c1.928,1.714,5.197,3.875,6.52,4.443,1.521.652,4.884,1.657,6.233,1.657,1.599,0,4.926,0,6.645-.574,1.474-.375,3.665-1.707,4.858-2.9.949-.946,2.216-2.612,2.85-5.148.853-3.198.853-4.114.853-6.121,0-2.046-.468-5.077-.966-6.236-.566-1.502-1.255-2.645-2.416-4.038-1.012-1.215-2.115-2.083-3.283-2.583-1.449-.622-2.983-1.198-4.391-1.198h-6.221v-5.017l13.689-15.486h-21.061v-4.607h26.031v5.937l-12.873,14.564h.434c2.246,0,4.397.793,6.206,1.569,1.841.79,3.527,2.092,5.008,3.867,1.5,1.797,2.442,3.375,3.154,5.273l-.002.002Z" fill="#ff8500" stroke="#ff8500" stroke-miterlimit="10"/>
  </g>
</svg>