<?xml version="1.0" encoding="UTF-8"?>
<svg xmlns="http://www.w3.org/2000/svg" width="1584.293" height="1072.174" viewBox="0 0 1584.293 1072.174">
  <g id="CDNU_-_Dark">
    <path d="M1403.61,903.706l-1222.305.984c-5.445.004-9.861-4.411-9.856-9.857l.667-725.918c.005-5.432,4.408-9.834,9.84-9.839l1222.305-.984c5.445-.004,9.861,4.411,9.856,9.857l-.667,725.918c-.005,5.432-4.408,9.834-9.84,9.839Z" fill="none" stroke="#ccc" stroke-miterlimit="10" stroke-width="11"/>
    <polyline points="785.123 902.825 1331.623 903.324 1331.623 653.747 1406.623 653.747 1406.623 327.67 1331.623 327.67 1331.623 160.085 252.123 160.085 252.123 332.358 173.906 332.358 173.906 653.248 252.123 653.248 252.123 902.825 785.123 902.825" fill="none" stroke="#ccc" stroke-miterlimit="10" stroke-width="8"/>
    <rect x="425.123" y="200.085" width="735" height="553" rx="13.681" ry="13.681" fill="none" stroke="#ccc" stroke-miterlimit="10" stroke-width="5"/>
    <rect x="414.123" y="186.085" width="760" height="580" rx="18.29" ry="18.29" fill="none" stroke="#ccc" stroke-miterlimit="10" stroke-width="5"/>
    <g>
      <rect x="267.123" y="201.085" width="137" height="81" fill="none" stroke="#ccc" stroke-miterlimit="10" stroke-width="5"/>
      <polygon points="387.122 241.334 359.756 213.834 359.756 230.834 284.623 230.834 284.623 251.834 359.756 251.834 359.756 268.834 387.122 241.334" fill="#ccc"/>
    </g>
    <g>
      <rect x="267.275" y="327.932" width="137" height="81" fill="none" stroke="#ccc" stroke-miterlimit="10" stroke-width="5"/>
      <polygon points="387.275 368.182 359.908 340.682 359.908 357.682 284.775 357.682 284.775 378.682 359.908 378.682 359.908 395.682 387.275 368.182" fill="#ccc"/>
    </g>
    <g>
      <rect x="267.275" y="454.932" width="137" height="81" fill="none" stroke="#ccc" stroke-miterlimit="10" stroke-width="5"/>
      <polygon points="387.275 495.182 359.908 467.682 359.908 484.682 284.775 484.682 284.775 505.682 359.908 505.682 359.908 522.682 387.275 495.182" fill="#ccc"/>
    </g>
    <g>
      <rect x="267.102" y="579.367" width="137" height="81" fill="none" stroke="#ccc" stroke-miterlimit="10" stroke-width="5"/>
      <polygon points="387.101 619.617 359.734 592.117 359.734 609.117 284.601 609.117 284.601 630.117 359.734 630.117 359.734 647.117 387.101 619.617" fill="#ccc"/>
    </g>
    <g>
      <rect x="1182.254" y="201.085" width="137" height="81" transform="translate(2501.507 483.169) rotate(-180)" fill="none" stroke="#ccc" stroke-miterlimit="10" stroke-width="5"/>
      <polygon points="1199.255 241.334 1226.622 213.834 1226.622 230.834 1301.754 230.834 1301.754 251.834 1226.622 251.834 1226.622 268.834 1199.255 241.334" fill="#ccc"/>
    </g>
    <g>
      <rect x="1182.102" y="327.932" width="137" height="81" transform="translate(2501.203 736.865) rotate(-180)" fill="none" stroke="#ccc" stroke-miterlimit="10" stroke-width="5"/>
      <polygon points="1199.102 368.182 1226.469 340.682 1226.469 357.682 1301.602 357.682 1301.602 378.682 1226.469 378.682 1226.469 395.682 1199.102 368.182" fill="#ccc"/>
    </g>
    <g>
      <rect x="1182.102" y="454.932" width="137" height="81" transform="translate(2501.203 990.865) rotate(-180)" fill="none" stroke="#ccc" stroke-miterlimit="10" stroke-width="5"/>
      <polygon points="1199.102 495.182 1226.469 467.682 1226.469 484.682 1301.602 484.682 1301.602 505.682 1226.469 505.682 1226.469 522.682 1199.102 495.182" fill="#ccc"/>
    </g>
    <g>
      <rect x="1182.275" y="579.367" width="137" height="81" transform="translate(2501.551 1239.734) rotate(-180)" fill="none" stroke="#ccc" stroke-miterlimit="10" stroke-width="5"/>
      <polygon points="1199.276 619.617 1226.643 592.117 1226.643 609.117 1301.776 609.117 1301.776 630.117 1226.643 630.117 1226.643 647.117 1199.276 619.617" fill="#ccc"/>
    </g>
    <circle cx="356.123" cy="736.085" r="30.5" fill="none" stroke="#ccc" stroke-miterlimit="10" stroke-width="5"/>
    <circle cx="1239.123" cy="736.085" r="30.5" fill="none" stroke="#ccc" stroke-miterlimit="10" stroke-width="5"/>
    <rect x="315.623" y="792.539" width="83" height="91" fill="none" stroke="#ccc" stroke-miterlimit="10" stroke-width="5"/>
    <rect x="307.623" y="783.039" width="101" height="110" rx="9.778" ry="9.778" fill="none" stroke="#ccc" stroke-miterlimit="10" stroke-width="5"/>
    <rect x="439.623" y="792.539" width="83" height="91" fill="none" stroke="#ccc" stroke-miterlimit="10" stroke-width="5"/>
    <rect x="431.623" y="783.039" width="101" height="110" rx="9.778" ry="9.778" fill="none" stroke="#ccc" stroke-miterlimit="10" stroke-width="5"/>
    <rect x="563.623" y="792.539" width="83" height="91" fill="none" stroke="#ccc" stroke-miterlimit="10" stroke-width="5"/>
    <rect x="555.623" y="783.039" width="101" height="110" rx="9.778" ry="9.778" fill="none" stroke="#ccc" stroke-miterlimit="10" stroke-width="5"/>
    <rect x="687.623" y="792.539" width="83" height="91" fill="none" stroke="#ccc" stroke-miterlimit="10" stroke-width="5"/>
    <rect x="679.623" y="783.039" width="101" height="110" rx="9.778" ry="9.778" fill="none" stroke="#ccc" stroke-miterlimit="10" stroke-width="5"/>
    <rect x="809.623" y="792.539" width="83" height="91" fill="none" stroke="#ccc" stroke-miterlimit="10" stroke-width="5"/>
    <rect x="801.623" y="783.039" width="101" height="110" rx="9.778" ry="9.778" fill="none" stroke="#ccc" stroke-miterlimit="10" stroke-width="5"/>
    <rect x="936.623" y="792.539" width="83" height="91" fill="none" stroke="#ccc" stroke-miterlimit="10" stroke-width="5"/>
    <rect x="928.623" y="783.039" width="101" height="110" rx="9.778" ry="9.778" fill="none" stroke="#ccc" stroke-miterlimit="10" stroke-width="5"/>
    <rect x="1056.623" y="792.539" width="83" height="91" fill="none" stroke="#ccc" stroke-miterlimit="10" stroke-width="5"/>
    <rect x="1048.623" y="783.039" width="101" height="110" rx="9.778" ry="9.778" fill="none" stroke="#ccc" stroke-miterlimit="10" stroke-width="5"/>
    <rect x="1181.623" y="792.539" width="83" height="91" fill="none" stroke="#ccc" stroke-miterlimit="10" stroke-width="5"/>
    <rect x="1173.623" y="783.039" width="101" height="110" rx="9.778" ry="9.778" fill="none" stroke="#ccc" stroke-miterlimit="10" stroke-width="5"/>
    <circle cx="213.123" cy="265.085" r="34.5" fill="none" stroke="#ccc" stroke-miterlimit="10" stroke-width="3.5"/>
    <circle cx="213.123" cy="265.085" r="27.5" fill="none" stroke="#ccc" stroke-miterlimit="10" stroke-width="3.5"/>
    <circle cx="213.623" cy="718.585" r="34.5" fill="none" stroke="#ccc" stroke-miterlimit="10" stroke-width="3.5"/>
    <circle cx="213.623" cy="718.585" r="27.5" fill="none" stroke="#ccc" stroke-miterlimit="10" stroke-width="3.5"/>
    <circle cx="213.623" cy="837.585" r="34.5" fill="none" stroke="#ccc" stroke-miterlimit="10" stroke-width="3.5"/>
    <circle cx="213.623" cy="837.585" r="27.5" fill="none" stroke="#ccc" stroke-miterlimit="10" stroke-width="3.5"/>
    <circle cx="1372.623" cy="265.085" r="34.5" fill="none" stroke="#ccc" stroke-miterlimit="10" stroke-width="3.5"/>
    <circle cx="1372.623" cy="265.085" r="27.5" fill="none" stroke="#ccc" stroke-miterlimit="10" stroke-width="3.5"/>
    <circle cx="1372.123" cy="718.585" r="34.5" fill="none" stroke="#ccc" stroke-miterlimit="10" stroke-width="3.5"/>
    <circle cx="1372.123" cy="718.585" r="27.5" fill="none" stroke="#ccc" stroke-miterlimit="10" stroke-width="3.5"/>
    <circle cx="1372.123" cy="837.585" r="34.5" fill="none" stroke="#ccc" stroke-miterlimit="10" stroke-width="3.5"/>
    <circle cx="1372.123" cy="837.585" r="27.5" fill="none" stroke="#ccc" stroke-miterlimit="10" stroke-width="3.5"/>
    <g>
      <rect x="321.412" y="805.635" width="66.913" height="64.957" fill="none"/>
      <path d="M335.327,820.004h6.823v36.208h-6.823v-36.208ZM337.817,820.004h21.292v6.574h-21.292v-6.574ZM337.817,835.268h18.552v6.574h-18.552v-6.574Z" fill="#ccc" stroke="#ccc" stroke-miterlimit="10"/>
      <path d="M374.411,856.212h-6.823v-28.189l-4.408,1.668v-7.246l5.404-2.44h5.827v36.208Z" fill="#ccc" stroke="#ccc" stroke-miterlimit="10"/>
    </g>
    <g>
      <rect x="445.412" y="805.635" width="66.913" height="64.957" fill="none"/>
      <path d="M454.633,820.004h6.823v36.208h-6.823v-36.208ZM457.123,820.004h21.292v6.574h-21.292v-6.574ZM457.123,835.268h18.552v6.574h-18.552v-6.574Z" fill="#ccc" stroke="#ccc" stroke-miterlimit="10"/>
      <path d="M483.432,850.061l12.426-16.336c.564-.73,1-1.482,1.307-2.254.307-.772.461-1.49.461-2.154v-.05c0-.979-.315-1.734-.946-2.267-.631-.53-1.528-.797-2.689-.797-1.129,0-2.042.37-2.739,1.108-.697.739-1.121,1.789-1.27,3.15v.024h-6.998v-.024c.149-2.258.693-4.2,1.631-5.827s2.204-2.867,3.798-3.723,3.437-1.283,5.528-1.283c2.257,0,4.188.37,5.79,1.108,1.602.739,2.822,1.814,3.66,3.226s1.258,3.112,1.258,5.104v.024c0,1.645-.286,3.275-.859,4.894-.572,1.619-1.374,3.084-2.403,4.396l-8.915,11.256h12.376v6.574h-21.416v-6.15Z" fill="#ccc" stroke="#ccc" stroke-miterlimit="10"/>
    </g>
    <g>
      <rect x="569.412" y="805.635" width="66.913" height="64.957" fill="none"/>
      <path d="M578.321,820.004h6.823v36.208h-6.823v-36.208ZM580.811,820.004h21.292v6.574h-21.292v-6.574ZM580.811,835.268h18.552v6.574h-18.552v-6.574Z" fill="#ccc" stroke="#ccc" stroke-miterlimit="10"/>
      <path d="M611.927,855.389c-1.71-.797-3.072-1.958-4.084-3.486-1.013-1.526-1.569-3.345-1.668-5.453h7.047c.1.747.319,1.382.66,1.905.34.522.776.921,1.308,1.195.531.273,1.146.411,1.843.411,1.295,0,2.295-.361,3.001-1.084.705-.722,1.058-1.738,1.058-3.051v-.846c0-1.378-.287-2.441-.859-3.188-.573-.748-1.391-1.121-2.453-1.121h-3.063v-6.574h3.063c.863,0,1.531-.327,2.005-.983.473-.656.709-1.573.709-2.752v-.622c0-1.112-.261-1.972-.785-2.578-.522-.605-1.257-.908-2.204-.908-.614,0-1.175.157-1.681.473s-.934.771-1.282,1.369-.598,1.32-.747,2.167h-7.022c.199-2.208.792-4.112,1.78-5.715s2.279-2.822,3.873-3.661c1.594-.838,3.37-1.258,5.329-1.258,3.204,0,5.682.818,7.433,2.453,1.751,1.636,2.627,3.956,2.627,6.961v1.096c0,1.677-.423,3.137-1.27,4.383-.847,1.244-2.051,2.175-3.611,2.789,1.743.398,3.092,1.312,4.046,2.738.955,1.429,1.432,3.246,1.432,5.454v1.096c0,2.108-.415,3.909-1.245,5.403-.831,1.494-2.042,2.632-3.636,3.412s-3.511,1.17-5.752,1.17c-2.191,0-4.143-.398-5.852-1.195Z" fill="#ccc" stroke="#ccc" stroke-miterlimit="10"/>
    </g>
    <g>
      <rect x="693.412" y="805.635" width="66.913" height="64.957" fill="none"/>
      <path d="M701.3,820.004h6.823v36.208h-6.823v-36.208ZM703.79,820.004h21.292v6.574h-21.292v-6.574ZM703.79,835.268h18.552v6.574h-18.552v-6.574Z" fill="#ccc" stroke="#ccc" stroke-miterlimit="10"/>
      <path d="M730.149,844.384l11.156-24.355h7.72l-10.857,24.057h16.262v6.574h-24.28v-6.275ZM744.767,834.921h6.823v21.316h-6.823v-21.316Z" fill="#ccc" stroke="#ccc" stroke-miterlimit="10"/>
    </g>
    <g>
      <rect x="815.412" y="805.635" width="66.913" height="64.957" fill="none"/>
      <path d="M823.924,820.004h6.823v36.208h-6.823v-36.208ZM826.414,820.004h21.291v6.574h-21.291v-6.574ZM826.414,835.268h18.553v6.574h-18.553v-6.574Z" fill="#ccc" stroke="#ccc" stroke-miterlimit="10"/>
      <path d="M858.638,855.302c-1.553-.854-2.798-2.1-3.735-3.735-.938-1.635-1.481-3.573-1.631-5.814v-.025h6.823v.025c.133,1.328.539,2.362,1.221,3.101.68.738,1.568,1.108,2.664,1.108,1.195,0,2.12-.391,2.776-1.171s.983-1.884.983-3.312v-3.039c0-1.427-.295-2.527-.884-3.299-.589-.772-1.415-1.158-2.478-1.158-.979,0-1.814.249-2.503.747s-1.166,1.195-1.432,2.092h-6.375v-20.818h19.448v6.574h-12.625v6.399c.515-.498,1.216-.892,2.104-1.183.888-.29,1.771-.436,2.651-.436,1.876,0,3.482.432,4.819,1.295,1.336.863,2.353,2.125,3.05,3.785s1.047,3.661,1.047,6.001v3.039c0,2.34-.42,4.341-1.258,6.001-.839,1.66-2.055,2.926-3.648,3.798-1.594.871-3.52,1.307-5.777,1.307-1.942,0-3.689-.427-5.242-1.282Z" fill="#ccc" stroke="#ccc" stroke-miterlimit="10"/>
    </g>
    <g>
      <rect x="942.412" y="805.635" width="66.913" height="64.957" fill="none"/>
      <path d="M951.721,820.004h6.823v36.208h-6.823v-36.208ZM954.211,820.004h21.291v6.574h-21.291v-6.574ZM954.211,835.268h18.553v6.574h-18.553v-6.574Z" fill="#ccc" stroke="#ccc" stroke-miterlimit="10"/>
      <path d="M985.189,855.302c-1.585-.854-2.793-2.1-3.623-3.735-.83-1.635-1.245-3.606-1.245-5.914v-.025c0-1.311.162-2.697.485-4.158.324-1.461.784-2.93,1.382-4.408.1-.248.203-.498.312-.746.108-.25.22-.49.337-.723l7.346-15.589h7.72l-8.716,18.054-1.719-.896c.415-.779,1.021-1.386,1.818-1.817s1.727-.647,2.789-.647c1.992,0,3.693.424,5.105,1.27,1.41.848,2.485,2.08,3.225,3.698.738,1.619,1.107,3.565,1.107,5.84v.024c0,2.325-.415,4.317-1.244,5.977-.831,1.661-2.039,2.923-3.624,3.785-1.585.864-3.499,1.295-5.739,1.295-2.226,0-4.131-.427-5.716-1.282ZM993.706,848.953c.656-.706.984-1.706.984-3.001v-.025c0-1.494-.328-2.643-.984-3.448s-1.59-1.208-2.801-1.208c-1.195,0-2.121.411-2.777,1.232-.656.822-.983,1.972-.983,3.449v.025c0,1.295.327,2.291.983,2.988s1.582,1.045,2.777,1.045c1.211,0,2.145-.352,2.801-1.058Z" fill="#ccc" stroke="#ccc" stroke-miterlimit="10"/>
    </g>
    <g>
      <rect x="1062.412" y="805.635" width="66.913" height="64.957" fill="none"/>
      <path d="M1071.966,820.004h6.823v36.208h-6.823v-36.208ZM1074.456,820.004h21.291v6.574h-21.291v-6.574ZM1074.456,835.268h18.553v6.574h-18.553v-6.574Z" fill="#ccc" stroke="#ccc" stroke-miterlimit="10"/>
      <path d="M1121.011,824.536l-8.119,31.676h-7.396l7.869-29.634h-6.226v5.454h-6.823v-12.028h20.694v4.532Z" fill="#ccc" stroke="#ccc" stroke-miterlimit="10"/>
    </g>
    <g>
      <path d="M1201.685,824.549h4.054v29.853h-2.796v-23.18l.112,1.313-3.122,18.54h-2.718l-3.122-18.129.112-1.725v23.18h-2.797v-29.853h4.055l3.11,20.12,3.111-20.12Z" fill="#ccc" stroke="#ccc" stroke-miterlimit="10"/>
      <path d="M1210.046,824.549h3.077v29.853h-3.077v-29.853ZM1211.158,824.549h9.826v5.42h-9.826v-5.42ZM1211.158,836.867h8.591v5.421h-8.591v-5.421ZM1211.158,848.98h9.826v5.421h-9.826v-5.421Z" fill="#ccc" stroke="#ccc" stroke-miterlimit="10"/>
      <path d="M1224.505,824.549h3.763l6.075,22.872-.27.533v-23.405h2.942v29.832h-3.784l-6.054-22.522.27-.534v23.057h-2.942v-29.832Z" fill="#ccc" stroke="#ccc" stroke-miterlimit="10"/>
      <path d="M1243.827,853.405c-.892-.869-1.569-2.135-2.033-3.798s-.696-3.665-.696-6.006v-19.053h3.077v19.196c0,1.712.251,3.039.753,3.983.501.944,1.209,1.417,2.122,1.417.921,0,1.634-.473,2.14-1.417.505-.944.758-2.271.758-3.983v-19.196h3.077v19.053c0,2.341-.234,4.343-.702,6.006s-1.149,2.929-2.044,3.798-1.971,1.304-3.229,1.304-2.332-.435-3.223-1.304Z" fill="#ccc" stroke="#ccc" stroke-miterlimit="10"/>
    </g>
    <g>
      <rect x="315.934" y="672.115" width="70.435" height="25.043" fill="none"/>
      <path d="M324.201,673.28h4.281v22.719h-4.281v-22.719ZM326.076,691.874h7.25c.979,0,1.737-.236,2.273-.711.536-.474.805-1.138.805-1.992v-.047c0-.572-.12-1.062-.359-1.469-.24-.406-.591-.716-1.055-.93-.464-.213-1.019-.32-1.664-.32h-7.25v-4.125h7.25c.885,0,1.57-.224,2.055-.672.484-.447.727-1.078.727-1.891,0-.729-.242-1.297-.727-1.703s-1.169-.609-2.055-.609h-7.25v-4.125h7.391c1.469,0,2.724.242,3.766.727,1.042.484,1.833,1.188,2.375,2.109.542.922.812,2.029.812,3.32,0,.886-.175,1.67-.523,2.352-.349.683-.857,1.242-1.523,1.68-.667.438-1.469.734-2.406.891,1,.136,1.856.44,2.57.914.713.475,1.255,1.092,1.625,1.852.37.761.555,1.641.555,2.641v.047c0,1.303-.273,2.417-.82,3.344-.547.928-1.344,1.633-2.391,2.117s-2.305.727-3.773.727h-7.656v-4.125Z" fill="#ccc" stroke="#ccc" stroke-miterlimit="10"/>
      <path d="M345.849,673.264h4.281v22.734h-4.281v-22.734ZM347.552,682.733h7.906c.438,0,.823-.109,1.156-.328.333-.219.591-.531.773-.938.182-.406.278-.875.289-1.406,0-.531-.091-1-.273-1.406-.183-.406-.44-.719-.773-.938-.333-.219-.724-.328-1.172-.328h-7.906v-4.125h8.25c1.25,0,2.349.281,3.297.844.948.562,1.682,1.357,2.203,2.383.521,1.026.781,2.217.781,3.57s-.261,2.545-.781,3.57c-.521,1.026-1.258,1.82-2.211,2.383s-2.05.844-3.289.844h-8.25v-4.125ZM352.333,686.155l4.578-.719,6.125,10.562h-5.188l-5.516-9.844Z" fill="#ccc" stroke="#ccc" stroke-miterlimit="10"/>
      <path d="M364.575,673.28h16.656v4.125h-16.656v-4.125ZM370.763,675.139h4.281v20.859h-4.281v-20.859Z" fill="#ccc" stroke="#ccc" stroke-miterlimit="10"/>
    </g>
    <g>
      <rect x="1180.586" y="671.895" width="131" height="25.043" fill="none"/>
      <path d="M1193.307,694.971c-1.256-.692-2.227-1.672-2.914-2.938s-1.031-2.731-1.031-4.398v-6.438c0-1.666.344-3.133,1.031-4.398s1.658-2.244,2.914-2.938c1.255-.692,2.705-1.039,4.352-1.039s3.096.347,4.352,1.039c1.255.693,2.227,1.672,2.914,2.938s1.031,2.732,1.031,4.398v6.438c0,1.667-.344,3.133-1.031,4.398s-1.659,2.245-2.914,2.938c-1.256.693-2.706,1.039-4.352,1.039s-3.097-.346-4.352-1.039ZM1199.689,691.237c.583-.328,1.033-.794,1.352-1.398.317-.604.477-1.302.477-2.094v-6.656c0-.791-.159-1.489-.477-2.094-.318-.604-.769-1.07-1.352-1.398-.584-.328-1.261-.492-2.031-.492s-1.448.164-2.031.492c-.584.328-1.034.795-1.352,1.398-.318.604-.477,1.303-.477,2.094v6.656c0,.792.158,1.49.477,2.094.317.604.768,1.07,1.352,1.398.583.328,1.26.492,2.031.492s1.447-.164,2.031-.492Z" fill="#ccc" stroke="#ccc" stroke-miterlimit="10"/>
      <path d="M1211.166,673.057h4.281v22.719h-4.281v-22.719ZM1212.728,673.057h13.359v4.125h-13.359v-4.125ZM1212.728,682.635h11.641v4.125h-11.641v-4.125Z" fill="#ccc" stroke="#ccc" stroke-miterlimit="10"/>
      <path d="M1230.361,673.057h4.281v22.719h-4.281v-22.719ZM1231.924,673.057h13.359v4.125h-13.359v-4.125ZM1231.924,682.635h11.641v4.125h-11.641v-4.125Z" fill="#ccc" stroke="#ccc" stroke-miterlimit="10"/>
      <path d="M1250.337,700.089h-4.062l10.156-29.719h4.062l-10.156,29.719Z" fill="#ccc" stroke="#ccc" stroke-miterlimit="10"/>
      <path d="M1267.071,694.971c-1.256-.692-2.227-1.672-2.914-2.938s-1.031-2.731-1.031-4.398v-6.438c0-1.666.344-3.133,1.031-4.398s1.658-2.244,2.914-2.938c1.255-.692,2.705-1.039,4.352-1.039s3.096.347,4.352,1.039c1.255.693,2.227,1.672,2.914,2.938s1.031,2.732,1.031,4.398v6.438c0,1.667-.344,3.133-1.031,4.398s-1.659,2.245-2.914,2.938c-1.256.693-2.706,1.039-4.352,1.039s-3.097-.346-4.352-1.039ZM1273.454,691.237c.583-.328,1.033-.794,1.352-1.398.317-.604.477-1.302.477-2.094v-6.656c0-.791-.159-1.489-.477-2.094-.318-.604-.769-1.07-1.352-1.398-.584-.328-1.261-.492-2.031-.492s-1.448.164-2.031.492c-.584.328-1.034.795-1.352,1.398-.318.604-.477,1.303-.477,2.094v6.656c0,.792.158,1.49.477,2.094.317.604.768,1.07,1.352,1.398.583.328,1.26.492,2.031.492s1.447-.164,2.031-.492Z" fill="#ccc" stroke="#ccc" stroke-miterlimit="10"/>
      <path d="M1284.931,673.057h5.234l8.453,17.406-.375.406v-17.812h4.094v22.703h-5.266l-8.422-17.141.375-.406v17.547h-4.094v-22.703Z" fill="#ccc" stroke="#ccc" stroke-miterlimit="10"/>
    </g>
  </g>
  <g id="Scratchpad_-_Dark">
    <g>
      <path d="M483.164,697.036v37.593h12.121v3.515h-15.634v-44.62h15.634v3.513h-12.121Z" fill="#ccc" stroke="#ccc" stroke-miterlimit="10" stroke-width="1.5"/>
      <path d="M1104.113,693.34v44.62h-15.635v-3.514h12.121v-37.593h-12.121v-3.514h15.635Z" fill="#ccc" stroke="#ccc" stroke-miterlimit="10" stroke-width="1.5"/>
    </g>
  </g>
  <g id="DIR_to_Coords_Result_-_Dark">
    <g>
      <rect x="422.406" y="222.33" width="148.621" height="52.826" fill="none"/>
      <path d="M474.766,260.617c.856-.646,1.597-1.466,2.266-2.537l2.393,1.496c-.848,1.357-1.84,2.451-3.031,3.345-.995.666-2.23,1.284-3.454,1.744-1.391.464-2.663.655-4.306.655-1.747,0-3.114-.208-4.305-.653-1.225-.408-2.341-.989-3.569-1.866-1.222-.761-2.279-1.933-2.981-3.34-.652-1.301-.996-2.788-.996-4.299v-15.379c0-1.785.574-3.176,1.136-4.299.915-1.474,1.905-2.568,3.097-3.461.992-.665,2.228-1.284,3.454-1.744,1.386-.463,2.658-.653,4.305-.653,1.748,0,3.115.209,4.305.655,1.223.406,2.339.986,3.569,1.865,1.326.996,2.321,2.16,2.981,3.48l-2.524,1.263c-.462-.927-1.176-1.756-2.123-2.466-.978-.698-1.837-1.147-2.844-1.483-.913-.341-1.966-.492-3.364-.492-1.342,0-2.317.143-3.364.492-.983.37-2.009.882-2.767,1.387-.856.645-1.597,1.466-2.267,2.537-.438.89-.773,1.792-.773,2.92v15.377c0,1.075.241,2.125.697,3.036.478.957,1.16,1.716,2.026,2.257,1.077.766,1.935,1.216,2.943,1.552.913.341,1.967.492,3.364.492,1.339,0,2.314-.143,3.364-.492.98-.369,2.007-.882,2.767-1.387l.003-.003Z" fill="#ccc" stroke="#ccc" stroke-miterlimit="10" stroke-width="1.5"/>
      <path d="M500.038,251.17l8.149,13.498v.817h-2.112l-.507.306-8.622-14.278c-.062,0-.127.004-.188.004h-7.902v13.968h-2.822v-34.425h10.582c1.628,0,3.239.336,4.666.968,1.531.681,2.777,1.515,3.81,2.549.838.837,1.458,1.923,2.06,2.973l.075.15c.559,1.306.82,2.469.82,3.66,0,1.236-.284,2.55-.82,3.801-.472,1.1-1.251,2.239-2.134,3.122-.816.816-2.135,1.904-3.795,2.458-.417.186-.837.323-1.259.432h0ZM488.857,233.881v14.814h7.902c1.586,0,2.572-.165,3.518-.584,1.016-.346,1.971-.975,2.82-1.824.629-.631,1.205-1.469,1.537-2.24.386-.902.591-1.832.591-2.688,0-.788-.173-1.553-.56-2.476-.52-.908-1.009-1.754-1.566-2.312-.797-.797-1.738-1.422-2.961-1.966-1.066-.473-2.283-.725-3.519-.725h-7.761Z" fill="#ccc" stroke="#ccc" stroke-miterlimit="10" stroke-width="1.5"/>
      <path d="M535.733,251.494c.612,1.213.907,2.407.907,3.547,0,3.039-1.115,5.535-3.315,7.419-2.056,1.899-4.656,2.88-7.689,2.88h-.282c-2.86,0-5.495-1.017-7.832-3.021-1.826-1.545-2.361-2.91-2.749-3.906-.058-.145-.111-.285-.169-.419l2.593-1.113c.069.161.135.329.205.504.326.834.663,1.696,1.951,2.785,1.844,1.583,3.805,2.348,6.002,2.348h.282c2.333,0,4.237-.708,5.814-2.166,1.63-1.397,2.369-3.073,2.369-5.312,0-.694-.198-1.473-.557-2.191-.309-.506-.758-1.175-1.354-1.573-.686-.542-1.566-1.049-2.454-1.429-.576-.247-1.223-.446-1.974-.676-.416-.128-.851-.262-1.302-.412l-4.149-1.105c-2.236-.687-3.849-1.721-4.981-3.177-1.229-1.579-1.851-3.436-1.851-5.522,0-2.581,1.071-4.794,3.18-6.581,2.005-1.851,4.28-2.733,7.121-2.733h.281c2.853.165,5.234,1.143,7.162,2.909,1.464,1.301,2.351,2.857,2.692,4.739l-2.778.502c-.23-1.271-.786-2.242-1.805-3.148-1.452-1.331-3.25-2.061-5.354-2.186l-.199.003c-2.115,0-3.736.625-5.251,2.025-1.514,1.284-2.228,2.731-2.228,4.467,0,1.444.423,2.719,1.255,3.79.776.998,1.899,1.696,3.535,2.2l4.182,1.114c.512.167.924.293,1.319.415.795.244,1.545.474,2.26.78,1.125.481,2.219,1.117,3.006,1.747.962.636,1.64,1.623,2.162,2.493h-.003Z" fill="#ccc" stroke="#ccc" stroke-miterlimit="10" stroke-width="1.5"/>
    </g>
    <g>
      <rect x="534.474" y="304.492" width="508" height="38.311" fill="none"/>
      <path d="M648.831,308.914v11.569h9.171v2.821h-9.171v17.072h-2.822v-34.284h21.305v2.822h-18.483Z" fill="#ccc" stroke="#ccc" stroke-miterlimit="10" stroke-width="1.5"/>
      <path d="M673.743,340.394v-33.014h2.822v33.014h-2.822Z" fill="#ccc" stroke="#ccc" stroke-miterlimit="10" stroke-width="1.5"/>
      <path d="M690.058,320.777v13.262c0,1.111.26,2.143.661,2.624.473.552,1.713.903,2.583.903.85,0,1.757-.332,1.767-.334l.236-.089h.678v2.537l.074.195c-.014.005-.04.014-.074.027v.063h-.189c-.464.149-1.454.423-2.493.423-1.546,0-3.612-.588-4.739-1.903-1.198-1.439-1.326-3.587-1.326-4.445v-13.262h-4.233v-2.822h4.233v-6.208h2.822v6.208h6.349v2.822h-6.349Z" fill="#ccc" stroke="#ccc" stroke-miterlimit="10" stroke-width="1.5"/>
      <path d="M739.172,312.603c.559,1.301.82,2.465.82,3.66,0,1.24-.284,2.554-.82,3.803-.471,1.097-1.248,2.236-2.133,3.12-.815.816-2.135,1.904-3.795,2.458-1.543.691-3.335.777-4.539.777h-8.04v13.968h-2.822v-34.425h10.723c1.697,0,3.179.308,4.666.968,1.528.681,2.774,1.515,3.809,2.549.885.884,1.662,2.022,2.134,3.123h-.002ZM736.582,318.952c.386-.9.591-1.83.591-2.689,0-.812-.182-1.597-.591-2.548-.326-.76-.915-1.618-1.535-2.239-.799-.797-1.739-1.422-2.961-1.966-1.127-.501-2.212-.725-3.519-.725h-7.9v14.814h8.04c1.525,0,2.609-.179,3.519-.584,1.016-.346,1.971-.975,2.82-1.824.622-.622,1.211-1.479,1.535-2.239h.002Z" fill="#ccc" stroke="#ccc" stroke-miterlimit="10" stroke-width="1.5"/>
      <path d="M746.408,340.394v-33.014h2.821v33.014h-2.821Z" fill="#ccc" stroke="#ccc" stroke-miterlimit="10" stroke-width="1.5"/>
      <path d="M773.852,324.693c.391,1.946.217,3.624.153,4.097v11.61h-2.821l.02-11.942c.002-.01.23-1.488-.133-3.301-.226-1.67-.81-2.861-1.803-3.73-.738-.645-2.146-1.061-3.587-1.061-1.22,0-2.466.446-3.507,1.255-2.151,1.813-3.265,4.298-3.265,7.351v11.428h-2.822v-11.428c0-.086.012-.166.013-.251l-.152.004s-.143-5.811-.143-7.653c0-.929-.137-2.988-.137-3.01l2.814-.188c.006.089.145,2.174.145,3.197v.197c.517-.661,1.104-1.278,1.771-1.841,1.577-1.228,3.437-1.883,5.282-1.883,2.149,0,4.184.658,5.443,1.76,1.509,1.321,2.427,3.134,2.728,5.39h0Z" fill="#ccc" stroke="#ccc" stroke-miterlimit="10" stroke-width="1.5"/>
      <path d="M817.518,321.183l-.146,19.184-2.821-.021.08-10.713h-16.306v10.723h-2.821v-19.178l9.668-15.108h2.674l9.672,15.114ZM814.653,326.809l.036-4.812-8.18-12.781-8.184,12.785v4.809h16.327Z" fill="#ccc" stroke="#ccc" stroke-miterlimit="10" stroke-width="1.5"/>
      <path d="M845.37,337.704v2.822h-21.445v-34.285h2.821v31.463h18.624Z" fill="#ccc" stroke="#ccc" stroke-miterlimit="10" stroke-width="1.5"/>
      <path d="M873.136,312.603c.559,1.301.819,2.465.819,3.66,0,1.24-.283,2.554-.819,3.803-.472,1.097-1.248,2.236-2.134,3.12-.814.816-2.135,1.904-3.795,2.458-1.543.691-3.335.777-4.539.777h-8.04v13.968h-2.822v-34.425h10.723c1.697,0,3.179.308,4.666.968,1.528.681,2.773,1.515,3.81,2.549.885.884,1.662,2.022,2.133,3.123h0ZM870.545,318.952c.387-.9.592-1.83.592-2.689,0-.812-.183-1.597-.592-2.548-.325-.76-.914-1.618-1.535-2.239-.798-.797-1.739-1.422-2.961-1.966-1.127-.501-2.212-.725-3.519-.725h-7.9v14.814h8.04c1.525,0,2.608-.179,3.519-.584,1.016-.346,1.971-.975,2.82-1.824.622-.622,1.211-1.479,1.535-2.239h0Z" fill="#ccc" stroke="#ccc" stroke-miterlimit="10" stroke-width="1.5"/>
      <path d="M902.521,307.503v32.874h-2.822v-14.955h-16.507v14.955h-2.821v-32.874h2.821v15.097h16.507v-15.097h2.822Z" fill="#ccc" stroke="#ccc" stroke-miterlimit="10" stroke-width="1.5"/>
      <path d="M930.95,321.183l-.146,19.184-2.821-.021.08-10.713h-16.306v10.723h-2.821v-19.178l9.668-15.108h2.674l9.672,15.114ZM928.085,326.809l.036-4.812-8.18-12.781-8.184,12.785v4.809h16.327Z" fill="#ccc" stroke="#ccc" stroke-miterlimit="10" stroke-width="1.5"/>
    </g>
    <g>
      <rect x="452.064" y="357.624" width="596.559" height="52.826" fill="none"/>
      <path d="M476.524,366.301v34.455h-2.799l-16.389-29.029v29.005h-2.822v-34.285h3.082l16.106,28.528v-28.675h2.822Z" fill="#ccc" stroke="#ccc" stroke-miterlimit="10" stroke-width="1.5"/>
      <path d="M503.96,384.159c.533,1.246.794,3.653.794,4.869,0,1.301,0,2.16-.612,4.456-.541,2.157-1.648,3.609-2.482,4.443-.933.931-2.714,2.12-4.182,2.487-1.384.465-3.644.465-4.857.465-1.434,0-3.918-.808-4.93-1.242-1.184-.508-3.406-2.006-4.756-3.205l1.875-2.109c1.181,1.05,3.183,2.373,3.993,2.722.931.399,2.991,1.014,3.818,1.014.979,0,3.017,0,4.069-.351.903-.23,2.245-1.045,2.976-1.776.582-.58,1.357-1.6,1.746-3.153.522-1.958.522-2.52.522-3.749,0-1.252-.287-3.109-.591-3.819-.347-.92-.769-1.62-1.48-2.474-.62-.743-1.295-1.275-2.011-1.582-.887-.381-1.827-.733-2.689-.733h-3.81v-3.073l8.384-9.484h-12.898v-2.822h15.943v3.636l-7.884,8.92h.265c1.375,0,2.693.485,3.801.961,1.127.484,2.16,1.281,3.067,2.369.918,1.101,1.496,2.067,1.932,3.229h-.001Z" fill="#ccc" stroke="#ccc" stroke-miterlimit="10" stroke-width="1.5"/>
      <path d="M532.174,371.042c.652,1.301.996,2.788.996,4.299v15.378c0,1.511-.344,3-.996,4.3-.61,1.222-1.532,2.366-2.742,3.403-1.079.898-2.239,1.511-3.461,1.83-1.114.406-2.315.612-3.666.625h-.141c-1.508-.011-2.71-.214-3.881-.653-1.273-.479-2.406-1.127-3.371-1.932-1.225-1.048-2.147-2.194-2.758-3.416-.652-1.301-.996-2.788-.996-4.297v-15.378c0-1.51.346-2.997.996-4.299.611-1.222,1.534-2.367,2.743-3.403,1.079-.9,2.239-1.511,3.461-1.83,1.152-.42,2.398-.626,3.807-.626,1.511,0,2.864.219,4.022.653,1.273.477,2.406,1.127,3.372,1.932,1.074.918,1.925,2.033,2.616,3.414h0ZM513.982,375.2v13.917l16.19-15.351c-.117-.514-.292-1.006-.521-1.463-.526-1.054-1.134-1.855-1.913-2.523-.706-.588-1.566-1.078-2.54-1.443-.828-.311-1.876-.474-3.032-.474-1.109,0-2.027.151-2.891.474l-.152.048c-.837.209-1.644.635-2.403,1.267-.907.777-1.599,1.627-2.04,2.51-.457.914-.699,1.964-.699,3.038ZM530.35,390.721v-13.233l-16.034,15.203c.102.32.219.632.366.927.441.883,1.133,1.732,2.056,2.522.705.587,1.564,1.077,2.54,1.443.858.322,1.772.469,2.957.474,1.078-.005,1.977-.156,2.823-.474l.152-.048c.837-.208,1.644-.635,2.403-1.267.906-.777,1.597-1.626,2.039-2.51.457-.913.699-1.962.699-3.038Z" fill="#ccc" stroke="#ccc" stroke-miterlimit="10" stroke-width="1.5"/>
      <path d="M552.276,373.464c0,3.5-2.849,6.349-6.349,6.349s-6.349-2.849-6.349-6.349,2.849-6.349,6.349-6.349,6.349,2.849,6.349,6.349ZM549.454,373.464c0-1.944-1.583-3.527-3.527-3.527s-3.527,1.583-3.527,3.527,1.583,3.527,3.527,3.527,3.527-1.583,3.527-3.527Z" fill="#ccc" stroke="#ccc" stroke-miterlimit="10" stroke-width="1.5"/>
      <path d="M598.604,398.056v2.822h-9.029v-2.822h3.104v-28.956l-2.206,1.826-1.799-2.174,4.482-3.709h2.344v33.013h3.104Z" fill="#ccc" stroke="#ccc" stroke-miterlimit="10" stroke-width="1.5"/>
      <path d="M622.536,389.592h3.81v2.822h-3.81v7.055h-2.822v-7.055h-14.673v-3.071l14.579-24.3h2.915v24.548h.001ZM619.712,370.37l-11.533,19.22h11.533v-19.22Z" fill="#ccc" stroke="#ccc" stroke-miterlimit="10" stroke-width="1.5"/>
      <path d="M632.774,397.59c0-1.636,1.264-2.963,2.822-2.963s2.822,1.327,2.822,2.963-1.263,2.963-2.822,2.963-2.822-1.326-2.822-2.963Z" fill="#ccc" stroke="#ccc" stroke-miterlimit="10" stroke-width="1.5"/>
      <path d="M654.757,398.056v2.822h-9.029v-2.822h3.104v-28.956l-2.206,1.826-1.799-2.174,4.482-3.709h2.344v33.013h3.104Z" fill="#ccc" stroke="#ccc" stroke-miterlimit="10" stroke-width="1.5"/>
      <path d="M728.184,366.485v34.425h-2.942l-8.13-14.464-7.99,14.464h-2.949v-34.425h2.822v28.818l6.646-12.029h2.927l6.793,12.09v-28.879h2.822Z" fill="#ccc" stroke="#ccc" stroke-miterlimit="10" stroke-width="1.5"/>
      <path d="M755.61,371.042c.651,1.301.996,2.788.996,4.299v15.378c0,1.511-.345,3-.996,4.3-.61,1.222-1.532,2.366-2.742,3.403-1.079.898-2.238,1.511-3.461,1.83-1.114.406-2.314.612-3.665.625h-.141c-1.509-.011-2.711-.214-3.882-.653-1.272-.479-2.405-1.127-3.37-1.932-1.226-1.048-2.147-2.194-2.759-3.416-.651-1.301-.996-2.788-.996-4.297v-15.378c0-1.51.346-2.997.996-4.299.611-1.222,1.533-2.367,2.743-3.403,1.079-.9,2.238-1.511,3.461-1.83,1.152-.42,2.398-.626,3.807-.626,1.511,0,2.863.219,4.021.653,1.273.477,2.406,1.127,3.372,1.932,1.074.918,1.925,2.033,2.616,3.414h0ZM737.418,375.2v13.917l16.189-15.351c-.116-.514-.292-1.006-.521-1.463-.526-1.054-1.134-1.855-1.913-2.523-.705-.588-1.565-1.078-2.539-1.443-.828-.311-1.877-.474-3.032-.474-1.109,0-2.027.151-2.891.474l-.152.048c-.837.209-1.644.635-2.403,1.267-.907.777-1.599,1.627-2.04,2.51-.457.914-.698,1.964-.698,3.038ZM753.785,390.721v-13.233l-16.033,15.203c.102.32.219.632.366.927.441.883,1.133,1.732,2.056,2.522.705.587,1.564,1.077,2.539,1.443.858.322,1.772.469,2.957.474,1.078-.005,1.977-.156,2.823-.474l.152-.048c.837-.208,1.644-.635,2.403-1.267.905-.777,1.597-1.626,2.038-2.51.457-.913.698-1.962.698-3.038Z" fill="#ccc" stroke="#ccc" stroke-miterlimit="10" stroke-width="1.5"/>
      <path d="M785.588,390.719c0,5.601-5.063,10.158-11.287,10.158s-11.287-4.557-11.287-10.158c0-3.785,2.317-7.088,5.738-8.835-2.772-1.64-4.609-4.464-4.609-7.672,0-5.057,4.558-9.171,10.158-9.171s10.158,4.114,10.158,9.171c0,3.208-1.838,6.033-4.609,7.672,3.422,1.747,5.738,5.05,5.738,8.835ZM782.766,390.719c0-4.045-3.797-7.336-8.466-7.336s-8.465,3.292-8.465,7.336,3.797,7.336,8.465,7.336,8.466-3.292,8.466-7.336ZM774.301,380.563c4.045,0,7.337-2.849,7.337-6.349s-3.292-6.349-7.337-6.349-7.336,2.849-7.336,6.349,3.291,6.349,7.336,6.349Z" fill="#ccc" stroke="#ccc" stroke-miterlimit="10" stroke-width="1.5"/>
      <path d="M801.951,398.056v2.822h-9.029v-2.822h3.104v-28.956l-2.205,1.826-1.799-2.174,4.482-3.709h2.343v33.013h3.104Z" fill="#ccc" stroke="#ccc" stroke-miterlimit="10" stroke-width="1.5"/>
      <path d="M821.084,373.464c0,3.5-2.849,6.349-6.349,6.349s-6.349-2.849-6.349-6.349,2.849-6.349,6.349-6.349,6.349,2.849,6.349,6.349ZM818.263,373.464c0-1.944-1.583-3.527-3.527-3.527s-3.527,1.583-3.527,3.527,1.583,3.527,3.527,3.527,3.527-1.583,3.527-3.527Z" fill="#ccc" stroke="#ccc" stroke-miterlimit="10" stroke-width="1.5"/>
      <path d="M874.978,389.592h3.81v2.822h-3.81v7.055h-2.821v-7.055h-14.673v-3.071l14.578-24.3h2.915v24.548h0ZM872.156,370.37l-11.533,19.22h11.533v-19.22Z" fill="#ccc" stroke="#ccc" stroke-miterlimit="10" stroke-width="1.5"/>
      <path d="M906.234,371.042c.651,1.301.996,2.788.996,4.299v15.378c0,1.511-.345,3-.996,4.3-.609,1.222-1.532,2.366-2.741,3.403-1.08.898-2.239,1.511-3.461,1.83-1.115.406-2.315.612-3.666.625h-.141c-1.509-.011-2.711-.214-3.882-.653-1.272-.479-2.405-1.127-3.37-1.932-1.225-1.048-2.147-2.194-2.759-3.416-.651-1.301-.996-2.788-.996-4.297v-15.378c0-1.51.346-2.997.996-4.299.611-1.222,1.534-2.367,2.743-3.403,1.079-.9,2.239-1.511,3.461-1.83,1.152-.42,2.398-.626,3.807-.626,1.511,0,2.864.219,4.022.653,1.272.477,2.405,1.127,3.372,1.932,1.073.918,1.924,2.033,2.615,3.414h0ZM888.042,375.2v13.917l16.19-15.351c-.117-.514-.292-1.006-.521-1.463-.526-1.054-1.135-1.855-1.913-2.523-.706-.588-1.566-1.078-2.54-1.443-.828-.311-1.877-.474-3.032-.474-1.108,0-2.027.151-2.891.474l-.152.048c-.837.209-1.644.635-2.402,1.267-.907.777-1.599,1.627-2.041,2.51-.457.914-.698,1.964-.698,3.038ZM904.41,390.721v-13.233l-16.033,15.203c.102.32.219.632.365.927.441.883,1.133,1.732,2.056,2.522.705.587,1.564,1.077,2.539,1.443.858.322,1.772.469,2.958.474,1.077-.005,1.977-.156,2.822-.474l.153-.048c.836-.208,1.644-.635,2.402-1.267.905-.777,1.597-1.626,2.039-2.51.457-.913.698-1.962.698-3.038Z" fill="#ccc" stroke="#ccc" stroke-miterlimit="10" stroke-width="1.5"/>
      <path d="M913.638,397.59c0-1.636,1.263-2.963,2.821-2.963s2.822,1.327,2.822,2.963-1.264,2.963-2.822,2.963-2.821-1.326-2.821-2.963Z" fill="#ccc" stroke="#ccc" stroke-miterlimit="10" stroke-width="1.5"/>
      <path d="M946.459,380.43c.536,1.253.819,2.568.819,3.802v6.914c0,1.236-.283,2.549-.819,3.801-.522,1.22-1.386,2.39-2.367,3.208-.757.63-1.929,1.529-3.371,2.071-1.449.543-2.729.796-4.023.796-1.475,0-3.318-.319-4.587-.794-1.408-.529-2.541-1.234-3.466-2.159-.889-.732-1.75-1.902-2.273-3.122-.316-.626-.487-1.307-.637-1.906l-.042-.343v-1.27h2.821v1.096c.114.454.226.855.415,1.234.388.901.965,1.686,1.617,2.229.736.728,1.518,1.208,2.555,1.597.951.355,2.465.615,3.597.615.959,0,1.895-.19,3.031-.617.792-.297,1.604-.804,2.556-1.597.65-.543,1.228-1.329,1.581-2.153.387-.903.592-1.833.592-2.689v-6.914c0-.856-.205-1.786-.592-2.69-.353-.824-.93-1.608-1.581-2.151-.736-.727-1.519-1.208-2.556-1.596l-.432-.167c-.788-.309-1.149-.45-2.6-.45-1.77,0-3.188.378-4.463,1.191-.952.595-1.795,1.438-2.383,2.378l-.415.663h-3.744v-16.366h21.304v2.822h-18.482v9.983c.646-.722,1.395-1.354,2.215-1.868,1.715-1.092,3.672-1.625,5.969-1.625,1.886,0,2.607.244,3.627.643l.396.152c1.407.528,2.541,1.233,3.465,2.158.888.732,1.751,1.9,2.274,3.121h0Z" fill="#ccc" stroke="#ccc" stroke-miterlimit="10" stroke-width="1.5"/>
    </g>
    <g>
      <rect x="437.077" y="604.009" width="192.156" height="52.826" fill="none"/>
      <path d="M445.275,627.468c0-1.637,1.264-2.963,2.822-2.963s2.822,1.326,2.822,2.963-1.263,2.963-2.822,2.963-2.822-1.327-2.822-2.963ZM445.275,643.974c0-1.636,1.264-2.963,2.822-2.963s2.822,1.327,2.822,2.963-1.263,2.963-2.822,2.963-2.822-1.326-2.822-2.963Z" fill="#ccc" stroke="#ccc" stroke-miterlimit="10" stroke-width="1.5"/>
      <path d="M460.15,614.266v11.569h10.159v2.822h-10.159v15.661h18.483v2.821h-21.305v-35.695h21.305v2.821h-18.483Z" fill="#ccc" stroke="#ccc" stroke-miterlimit="10" stroke-width="1.5"/>
      <path d="M507.213,646.492v.671h-1.886l-.736.44-8.392-14.068-8.52,14.077-.74-.449h-1.878v-.676l9.628-15.906-9.205-15.48v-.811h2.124l.5-.298,8.091,13.604,7.962-13.597.496.29h2.133v.806l-9.067,15.485,9.49,15.911Z" fill="#ccc" stroke="#ccc" stroke-miterlimit="10" stroke-width="1.5"/>
      <path d="M534.959,619.378c.559,1.301.82,2.464.82,3.659,0,1.24-.284,2.554-.82,3.803-.471,1.098-1.249,2.236-2.133,3.12-.815.816-2.135,1.903-3.795,2.458-1.543.691-3.335.777-4.539.777h-8.04v13.968h-2.822v-34.426h10.723c1.697,0,3.179.308,4.666.969,1.528.681,2.774,1.515,3.81,2.549.885.885,1.662,2.021,2.133,3.123h-.001ZM532.369,625.726c.386-.9.591-1.83.591-2.689,0-.812-.182-1.598-.591-2.548-.326-.761-.915-1.618-1.535-2.239-.799-.797-1.739-1.422-2.961-1.967-1.127-.501-2.212-.724-3.519-.724h-7.9v14.814h8.04c1.525,0,2.609-.18,3.519-.584,1.016-.347,1.971-.976,2.82-1.824.622-.622,1.21-1.479,1.535-2.239h.001Z" fill="#ccc" stroke="#ccc" stroke-miterlimit="10" stroke-width="1.5"/>
      <path d="M564.209,627.957l-.146,19.184-2.822-.021.081-10.713h-16.306v10.723h-2.822v-19.178l9.669-15.107h2.673l9.672,15.113ZM561.343,633.583l.037-4.812-8.18-12.781-8.183,12.786v4.808h16.327Z" fill="#ccc" stroke="#ccc" stroke-miterlimit="10" stroke-width="1.5"/>
      <path d="M592.624,612.685v34.455h-2.799l-16.389-29.029v29.005h-2.822v-34.284h3.082l16.106,28.528v-28.675h2.822Z" fill="#ccc" stroke="#ccc" stroke-miterlimit="10" stroke-width="1.5"/>
      <path d="M621.044,624.426v9.734c0,1.932-.329,3.771-.948,5.32-.588,1.624-1.506,3.079-2.709,4.284-.91,1.066-2.076,1.904-3.396,2.412-1.301.641-2.63.964-3.952.964h-11.005v-35.837h11.005c1.459,0,2.819.325,4.158.995,1.384.692,2.496,1.544,3.404,2.602.9.896,1.717,2.256,2.496,4.204.642,1.764.947,3.491.947,5.321ZM618.222,624.426c0-1.516-.243-2.887-.762-4.314-.617-1.54-1.234-2.6-1.93-3.295-.741-.857-1.542-1.466-2.596-1.993-.951-.476-1.871-.697-2.895-.697h-8.183v30.193h8.183c.903,0,1.83-.236,2.755-.699l.136-.059c.911-.34,1.691-.902,2.387-1.713.983-.99,1.679-2.099,2.143-3.374.497-1.242.762-2.76.762-4.314v-9.734Z" fill="#ccc" stroke="#ccc" stroke-miterlimit="10" stroke-width="1.5"/>
    </g>
    <g>
      <rect x="440.077" y="297.937" width="153.149" height="52.826" fill="none"/>
      <path d="M489.853,333.505l-10.8,10.591-10.592-10.591h9.19v-12.416h2.822v12.416h9.38Z" fill="#ccc" stroke="#ccc" stroke-miterlimit="10" stroke-width="1.5"/>
      <path d="M503.348,321.479v13.262c0,1.111.26,2.143.661,2.624.473.552,1.713.903,2.583.903.85,0,1.757-.332,1.767-.334l.236-.089h.678v2.537l.074.195c-.014.005-.04.014-.074.027v.063h-.189c-.464.149-1.454.423-2.493.423-1.546,0-3.612-.588-4.739-1.903-1.198-1.439-1.326-3.587-1.326-4.445v-13.262h-4.233v-2.822h4.233v-6.208h2.822v6.208h6.349v2.822h-6.349Z" fill="#ccc" stroke="#ccc" stroke-miterlimit="10" stroke-width="1.5"/>
      <path d="M537.019,329.215c0,6.536-4.684,11.852-10.441,11.852s-10.44-5.317-10.44-11.852,4.684-11.851,10.44-11.851,10.441,5.316,10.441,11.851ZM534.197,329.215c0-4.979-3.417-9.03-7.619-9.03s-7.619,4.051-7.619,9.03,3.417,9.03,7.619,9.03,7.619-4.051,7.619-9.03Z" fill="#ccc" stroke="#ccc" stroke-miterlimit="10" stroke-width="1.5"/>
      <path d="M564.822,333.505l-10.8,10.591-10.592-10.591h9.19v-12.416h2.822v12.416h9.38Z" fill="#ccc" stroke="#ccc" stroke-miterlimit="10" stroke-width="1.5"/>
    </g>
    <g>
      <rect x="641.444" y="222.79" width="94.876" height="52.826" fill="none"/>
      <path d="M681.024,238.63c0,3.5-2.849,6.349-6.349,6.349s-6.349-2.849-6.349-6.349,2.849-6.349,6.349-6.349,6.349,2.849,6.349,6.349ZM678.203,238.63c0-1.944-1.583-3.527-3.527-3.527s-3.527,1.583-3.527,3.527,1.583,3.527,3.527,3.527,3.527-1.583,3.527-3.527Z" fill="#ccc" stroke="#ccc" stroke-miterlimit="10" stroke-width="1.5"/>
      <path d="M709.447,231.66v34.284h-2.822v-28.712l-6.648,11.923h-3.068l-6.65-11.923v28.712h-2.822v-34.284h2.945l8.06,14.452,8.061-14.452h2.945Z" fill="#ccc" stroke="#ccc" stroke-miterlimit="10" stroke-width="1.5"/>
    </g>
    <g>
      <rect x="526.291" y="220.276" width="151.567" height="52.826" fill="none"/>
      <path d="M544.465,226.547v37.593h12.121v3.514h-15.634v-44.62h15.634v3.513h-12.121Z" fill="#ccc" stroke="#ccc" stroke-miterlimit="10" stroke-width="1.5"/>
      <path d="M583.083,237.787c.652,1.301.996,2.788.996,4.299v15.378c0,1.511-.344,3-.996,4.3-.61,1.222-1.532,2.366-2.742,3.403-1.079.898-2.239,1.511-3.461,1.83-1.114.406-2.315.612-3.666.625h-.141c-1.508-.011-2.71-.214-3.881-.653-1.273-.479-2.406-1.127-3.371-1.932-1.225-1.048-2.147-2.194-2.758-3.416-.652-1.301-.996-2.788-.996-4.297v-15.378c0-1.51.346-2.997.996-4.299.611-1.222,1.534-2.367,2.743-3.403,1.079-.9,2.239-1.511,3.461-1.83,1.152-.42,2.398-.626,3.807-.626,1.511,0,2.864.219,4.022.653,1.273.477,2.406,1.127,3.372,1.932,1.074.918,1.925,2.033,2.616,3.414h0ZM564.89,241.946v13.917l16.19-15.351c-.117-.514-.292-1.006-.521-1.463-.526-1.054-1.134-1.855-1.913-2.523-.706-.588-1.566-1.078-2.54-1.443-.828-.311-1.876-.474-3.032-.474-1.109,0-2.027.151-2.891.474l-.152.048c-.837.209-1.644.635-2.403,1.267-.907.777-1.599,1.627-2.04,2.51-.457.914-.699,1.964-.699,3.038ZM581.259,257.467v-13.233l-16.034,15.203c.102.32.219.632.366.927.441.883,1.133,1.732,2.056,2.522.705.587,1.564,1.077,2.54,1.443.858.322,1.772.469,2.957.474,1.078-.005,1.977-.156,2.823-.474l.152-.048c.837-.208,1.644-.635,2.403-1.267.906-.777,1.597-1.626,2.039-2.51.457-.913.699-1.962.699-3.038Z" fill="#ccc" stroke="#ccc" stroke-miterlimit="10" stroke-width="1.5"/>
      <path d="M611.759,252.406c-1.353,5.868-7.733,12.25-11.819,14.607l-1.41-2.443c3.626-2.092,9.366-7.966,10.476-12.781.185-.844.321-1.757.424-2.678-.24.21-.491.412-.755.605-.745.597-2.187,1.421-3.41,1.771-1.23.352-6.466.374-7.937-.176-1.443-.542-2.624-1.191-3.513-1.932-.972-.81-1.793-1.794-2.438-2.923-.786-1.373-.892-2.693-.892-3.804v-1.27c0-1.194.261-2.356.82-3.66l.072-.144c.645-1.13,1.466-2.114,2.438-2.923.888-.739,2.068-1.388,3.512-1.93,1.174-.44,2.536-.655,4.164-.655,1.393,0,2.75.292,4.011.607l.152.048c1.443.542,2.625,1.191,3.512,1.93.972.81,1.793,1.793,2.438,2.923.786,1.373.892,2.693.892,3.804.01.197.278,6.381-.738,11.024ZM609.673,243.077h.036c-.006-.983-.034-1.61-.034-1.629-.001-1.142-.146-1.814-.521-2.468-.479-.838-1.082-1.563-1.794-2.157-.621-.518-1.525-1.01-2.622-1.428-.992-.246-2.135-.502-3.247-.502-1.284,0-2.321.155-3.173.474-1.129.425-2.062.927-2.695,1.456-.694.577-1.284,1.28-1.755,2.086-.385.919-.559,1.684-.559,2.472v1.27c0,1.077.146,1.751.519,2.404.477.835,1.081,1.562,1.795,2.156.636.531,1.567,1.033,2.696,1.456.827.295,5.35.323,6.174.106.812-.233,1.913-.855,2.466-1.297,1.691-1.243,2.714-2.915,2.714-4.4h-.001Z" fill="#ccc" stroke="#ccc" stroke-miterlimit="10" stroke-width="1.5"/>
      <path d="M639.722,247.176c.536,1.253.819,2.568.819,3.802v6.914c0,1.236-.283,2.549-.819,3.801-.522,1.22-1.386,2.39-2.368,3.208-.756.63-1.929,1.529-3.371,2.071-1.449.543-2.729.796-4.024.796-1.474,0-3.318-.319-4.587-.794-1.408-.529-2.541-1.234-3.465-2.159-.889-.732-1.751-1.902-2.274-3.122-.316-.626-.487-1.307-.636-1.906l-.042-.343v-1.27h2.822v1.096c.114.454.226.855.415,1.234.388.901.965,1.686,1.617,2.229.736.728,1.518,1.208,2.555,1.597.951.355,2.465.615,3.596.615.959,0,1.895-.19,3.032-.617.792-.297,1.604-.804,2.555-1.597.65-.543,1.227-1.329,1.582-2.153.386-.903.591-1.833.591-2.689v-6.914c0-.856-.205-1.786-.591-2.69-.353-.824-.93-1.608-1.582-2.151-.737-.727-1.518-1.208-2.555-1.596l-.432-.167c-.789-.309-1.15-.45-2.601-.45-1.769,0-3.187.378-4.462,1.191-.953.595-1.795,1.438-2.383,2.378l-.415.663h-3.745v-16.366h21.305v2.822h-18.483v9.983c.646-.722,1.394-1.354,2.215-1.868,1.714-1.092,3.671-1.625,5.968-1.625,1.886,0,2.607.244,3.627.643l.395.152c1.408.528,2.541,1.233,3.465,2.158.887.732,1.751,1.9,2.274,3.121h0Z" fill="#ccc" stroke="#ccc" stroke-miterlimit="10" stroke-width="1.5"/>
      <path d="M663.217,222.851v44.62h-15.634v-3.514h12.121v-37.593h-12.121v-3.513h15.634Z" fill="#ccc" stroke="#ccc" stroke-miterlimit="10" stroke-width="1.5"/>
    </g>
    <g>
      <rect x="853.188" y="223.88" width="148.621" height="52.826" fill="none"/>
      <path d="M910.407,244.297v9.735c0,1.931-.328,3.771-.947,5.32-.589,1.624-1.506,3.079-2.709,4.283-.91,1.067-2.076,1.905-3.396,2.413-1.301.641-2.63.964-3.952.964h-11.005v-35.836h11.005c1.459,0,2.819.325,4.158.995,1.384.693,2.496,1.543,3.404,2.602.9.896,1.717,2.256,2.496,4.205.642,1.764.946,3.491.946,5.32ZM907.586,244.297c0-1.515-.243-2.887-.762-4.314-.617-1.539-1.234-2.599-1.931-3.294-.74-.858-1.542-1.466-2.596-1.994-.951-.475-1.871-.697-2.896-.697h-8.183v30.193h8.183c.903,0,1.83-.236,2.756-.698l.136-.06c.911-.34,1.691-.901,2.387-1.712.983-.991,1.679-2.098,2.144-3.374.496-1.243.762-2.76.762-4.314v-9.735Z" fill="#ccc" stroke="#ccc" stroke-miterlimit="10" stroke-width="1.5"/>
      <path d="M919.64,234.138v11.569h10.158v2.822h-10.158v15.661h18.482v2.822h-21.305v-35.695h21.305v2.822h-18.482Z" fill="#ccc" stroke="#ccc" stroke-miterlimit="10" stroke-width="1.5"/>
      <path d="M965.682,253.044c.612,1.213.907,2.407.907,3.547,0,3.039-1.114,5.535-3.315,7.419-2.056,1.899-4.656,2.88-7.689,2.88h-.282c-2.859,0-5.495-1.017-7.831-3.021-1.826-1.545-2.361-2.91-2.749-3.906-.058-.145-.111-.285-.169-.419l2.593-1.113c.069.161.136.329.205.504.325.834.663,1.696,1.951,2.785,1.844,1.583,3.805,2.348,6.002,2.348h.282c2.333,0,4.236-.708,5.813-2.166,1.63-1.397,2.369-3.073,2.369-5.312,0-.694-.197-1.473-.557-2.191-.31-.506-.758-1.175-1.354-1.573-.687-.542-1.566-1.049-2.454-1.429-.575-.247-1.223-.446-1.974-.676-.416-.128-.851-.262-1.303-.412l-4.149-1.105c-2.235-.687-3.849-1.721-4.981-3.177-1.229-1.579-1.851-3.436-1.851-5.522,0-2.581,1.07-4.794,3.18-6.581,2.005-1.851,4.28-2.733,7.121-2.733h.28c2.853.165,5.234,1.143,7.162,2.909,1.464,1.301,2.351,2.857,2.691,4.739l-2.777.502c-.23-1.271-.786-2.242-1.805-3.148-1.452-1.331-3.25-2.061-5.354-2.186l-.199.003c-2.114,0-3.735.625-5.251,2.025-1.514,1.284-2.228,2.731-2.228,4.467,0,1.444.423,2.719,1.255,3.79.776.998,1.899,1.696,3.535,2.2l4.182,1.114c.512.167.924.293,1.319.415.795.244,1.545.474,2.26.78,1.125.481,2.22,1.117,3.007,1.747.962.636,1.64,1.623,2.161,2.493h-.003Z" fill="#ccc" stroke="#ccc" stroke-miterlimit="10" stroke-width="1.5"/>
    </g>
    <g>
      <rect x="1072.226" y="224.34" width="94.876" height="52.826" fill="none"/>
      <path d="M1119.989,240.18c0,3.5-2.849,6.349-6.349,6.349s-6.349-2.849-6.349-6.349,2.849-6.349,6.349-6.349,6.349,2.849,6.349,6.349ZM1117.168,240.18c0-1.944-1.583-3.527-3.527-3.527s-3.527,1.583-3.527,3.527,1.583,3.527,3.527,3.527,3.527-1.583,3.527-3.527Z" fill="#ccc" stroke="#ccc" stroke-miterlimit="10" stroke-width="1.5"/>
      <path d="M1126.401,247.799c0-1.636,1.264-2.963,2.822-2.963s2.821,1.327,2.821,2.963-1.263,2.963-2.821,2.963-2.822-1.326-2.822-2.963ZM1126.401,264.306c0-1.636,1.264-2.963,2.822-2.963s2.821,1.327,2.821,2.963-1.263,2.963-2.821,2.963-2.822-1.326-2.822-2.963Z" fill="#ccc" stroke="#ccc" stroke-miterlimit="10" stroke-width="1.5"/>
    </g>
    <g>
      <rect x="978.379" y="225.348" width="113.483" height="52.826" fill="none"/>
      <path d="M985.522,231.619v37.593h12.121v3.514h-15.635v-44.62h15.635v3.513h-12.121Z" fill="#ccc" stroke="#ccc" stroke-miterlimit="10" stroke-width="1.5"/>
      <path d="M1024.14,242.86c.652,1.301.996,2.788.996,4.299v15.378c0,1.511-.344,3-.996,4.3-.609,1.222-1.532,2.366-2.741,3.403-1.079.898-2.239,1.511-3.461,1.83-1.114.407-2.315.612-3.665.625h-.142c-1.508-.011-2.71-.214-3.881-.653-1.273-.479-2.406-1.127-3.371-1.932-1.225-1.048-2.147-2.194-2.758-3.416-.652-1.301-.996-2.788-.996-4.297v-15.378c0-1.51.346-2.997.996-4.299.61-1.222,1.533-2.367,2.742-3.403,1.079-.9,2.239-1.511,3.461-1.83,1.152-.42,2.398-.626,3.807-.626,1.511,0,2.864.219,4.022.653,1.272.477,2.405,1.127,3.372,1.932,1.073.918,1.925,2.033,2.615,3.414h0ZM1005.948,247.018v13.917l16.189-15.351c-.117-.514-.292-1.006-.521-1.463-.526-1.054-1.135-1.855-1.913-2.523-.706-.588-1.566-1.078-2.54-1.443-.828-.311-1.876-.474-3.032-.474-1.108,0-2.027.151-2.891.474l-.152.048c-.837.209-1.644.635-2.402,1.267-.907.777-1.599,1.627-2.04,2.51-.457.914-.698,1.964-.698,3.038ZM1022.315,262.539v-13.233l-16.033,15.203c.102.32.219.632.365.927.441.883,1.133,1.732,2.056,2.522.705.587,1.564,1.077,2.54,1.443.857.322,1.771.469,2.957.474,1.078-.005,1.977-.156,2.823-.474l.152-.048c.837-.208,1.644-.635,2.402-1.267.906-.777,1.598-1.626,2.039-2.51.457-.913.698-1.962.698-3.038Z" fill="#ccc" stroke="#ccc" stroke-miterlimit="10" stroke-width="1.5"/>
      <path d="M1031.544,269.408c0-1.636,1.264-2.963,2.821-2.963s2.822,1.327,2.822,2.963-1.264,2.963-2.822,2.963-2.821-1.326-2.821-2.963Z" fill="#ccc" stroke="#ccc" stroke-miterlimit="10" stroke-width="1.5"/>
      <path d="M1064.613,242.86c.652,1.301.996,2.788.996,4.299v15.378c0,1.511-.344,3-.996,4.3-.609,1.222-1.532,2.366-2.741,3.403-1.079.898-2.239,1.511-3.461,1.83-1.114.407-2.315.612-3.665.625h-.142c-1.508-.011-2.71-.214-3.881-.653-1.273-.479-2.406-1.127-3.371-1.932-1.225-1.048-2.147-2.194-2.758-3.416-.652-1.301-.996-2.788-.996-4.297v-15.378c0-1.51.346-2.997.996-4.299.61-1.222,1.533-2.367,2.742-3.403,1.079-.9,2.239-1.511,3.461-1.83,1.152-.42,2.398-.626,3.807-.626,1.511,0,2.864.219,4.022.653,1.272.477,2.405,1.127,3.372,1.932,1.073.918,1.925,2.033,2.615,3.414h0ZM1046.422,247.018v13.917l16.189-15.351c-.117-.514-.292-1.006-.521-1.463-.526-1.054-1.135-1.855-1.913-2.523-.706-.588-1.566-1.078-2.54-1.443-.828-.311-1.876-.474-3.032-.474-1.108,0-2.027.151-2.891.474l-.152.048c-.837.209-1.644.635-2.402,1.267-.907.777-1.599,1.627-2.04,2.51-.457.914-.698,1.964-.698,3.038ZM1062.789,262.539v-13.233l-16.033,15.203c.102.32.219.632.365.927.441.883,1.133,1.732,2.056,2.522.705.587,1.564,1.077,2.54,1.443.857.322,1.771.469,2.957.474,1.078-.005,1.977-.156,2.823-.474l.152-.048c.837-.208,1.644-.635,2.402-1.267.906-.777,1.598-1.626,2.039-2.51.457-.913.698-1.962.698-3.038Z" fill="#ccc" stroke="#ccc" stroke-miterlimit="10" stroke-width="1.5"/>
      <path d="M1088.252,227.923v44.62h-15.634v-3.514h12.121v-37.593h-12.121v-3.514h15.634Z" fill="#ccc" stroke="#ccc" stroke-miterlimit="10" stroke-width="1.5"/>
    </g>
    <g>
      <rect x="1082.471" y="358.358" width="79.64" height="52.826" fill="none"/>
      <path d="M1126.574,370.099h-8.889v31.463h-2.821v-31.463h-8.89v-2.822h20.6v2.822Z" fill="#ccc" stroke="#ccc" stroke-miterlimit="10" stroke-width="1.5"/>
      <path d="M1132.973,381.817c0-1.636,1.264-2.963,2.822-2.963s2.821,1.327,2.821,2.963-1.263,2.963-2.821,2.963-2.822-1.326-2.822-2.963ZM1132.973,398.324c0-1.636,1.264-2.963,2.822-2.963s2.821,1.327,2.821,2.963-1.263,2.963-2.821,2.963-2.822-1.326-2.822-2.963Z" fill="#ccc" stroke="#ccc" stroke-miterlimit="10" stroke-width="1.5"/>
    </g>
    <g>
      <rect x="641.223" y="472.431" width="94.876" height="52.826" fill="none"/>
      <path d="M684.794,482.358l1.411.423-.812,2.702-1.411-.423c-.567-.109-1.481-.292-2.582-.032-.08.043-.17.091-.271.144-.571.296-1.527.794-2.233,1.765-.321.483-1.142,1.853-1.142,3.121v3.245h6.208v2.822h-6.208v19.47h-2.822v-19.47h-3.668v-2.822h3.668v-3.245c0-1.966,1.031-3.808,1.647-4.732,1.127-1.553,2.505-2.27,3.244-2.655.107-.056.197-.1.257-.138l.406-.183c1.821-.497,3.306-.198,4.104-.037l.2.046h0Z" fill="#ccc" stroke="#ccc" stroke-miterlimit="10" stroke-width="1.5"/>
      <path d="M699.684,495.973v13.262c0,1.111.26,2.143.661,2.624.473.552,1.713.903,2.583.903.85,0,1.757-.332,1.767-.334l.236-.089h.678v2.537l.074.195c-.014.005-.04.014-.074.027v.063h-.189c-.464.149-1.454.423-2.493.423-1.546,0-3.612-.588-4.739-1.903-1.198-1.439-1.326-3.587-1.326-4.445v-13.262h-4.233v-2.822h4.233v-6.208h2.822v6.208h6.349v2.822h-6.349Z" fill="#ccc" stroke="#ccc" stroke-miterlimit="10" stroke-width="1.5"/>
    </g>
    <g>
      <rect x="453.249" y="473.438" width="209.739" height="52.826" fill="none"/>
      <path d="M459.916,479.709v37.593h12.121v3.514h-15.634v-44.62h15.634v3.513h-12.121Z" fill="#ccc" stroke="#ccc" stroke-miterlimit="10" stroke-width="1.5"/>
      <path d="M482.926,517.478h21.72v3.513h-26.526v-3.501l4.618-5.04c2.421-2.696,4.641-5.168,6.749-7.417,1.047-1.047,2.096-2.271,3.109-3.456,1.06-1.235,5.291-5.997,5.291-5.997.48-.483.75-.824.931-1.049.107-.135.199-.244.274-.329.515-.655.947-1.484,1.253-2.401.29-.87.437-1.565.437-2.958,0-1.196-.248-2.382-.736-3.523-.444-1.179-1.152-2.029-2.087-2.964-1.066-.878-2.076-1.511-3.063-1.879-2.825-1.06-4.728-1.058-7.549,0-1.293.485-2.266,1.082-3.065,1.881-.922.922-1.664,1.975-2.087,2.963l-3.229-1.384c.604-1.411,1.584-2.816,2.832-4.063,1.152-1.151,2.563-2.029,4.316-2.686,3.594-1.353,6.414-1.353,10.017,0,1.797.674,3.255,1.795,4.197,2.579,1.152,1.144,2.305,2.447,2.979,4.246.648,1.505.991,3.157.991,4.833,0,1.848-.237,2.927-.618,4.07-.441,1.325-1.091,2.545-1.876,3.527l-.241.287c-.235.295-.588.736-1.119,1.265.003,0-4.137,4.659-5.179,5.875-1.058,1.233-2.15,2.508-3.253,3.611-2.054,2.191-4.256,4.645-6.66,7.32l-2.424,2.679h-.002Z" fill="#ccc" stroke="#ccc" stroke-miterlimit="10" stroke-width="1.5"/>
      <path d="M536.609,495.356c.667,1.56,1.021,3.197,1.021,4.734v8.608c0,1.539-.354,3.174-1.021,4.732-.65,1.52-1.725,2.976-2.948,3.995-.941.785-2.401,1.904-4.197,2.579-1.804.676-3.397.991-5.01.991-1.836,0-4.132-.397-5.711-.989-1.753-.659-3.164-1.537-4.314-2.688-1.107-.912-2.18-2.368-2.832-3.887-.394-.78-.606-1.627-.792-2.374l-.053-.427v-1.581h3.513v1.365c.143.565.281,1.064.517,1.537.483,1.122,1.202,2.099,2.013,2.775.917.906,1.89,1.503,3.181,1.988,1.184.443,3.069.766,4.478.766,1.194,0,2.359-.237,3.775-.768.986-.371,1.998-1.001,3.182-1.989.81-.676,1.528-1.655,1.969-2.681.481-1.124.736-2.282.736-3.348v-8.608c0-1.066-.255-2.224-.736-3.35-.439-1.026-1.158-2.003-1.969-2.679-.917-.905-1.89-1.504-3.182-1.987l-.538-.207c-.982-.385-1.432-.561-3.237-.561-2.203,0-3.968.471-5.557,1.482-1.186.742-2.234,1.79-2.967,2.962l-.517.826h-4.662v-20.377h26.526v3.513h-23.013v12.43c.805-.899,1.736-1.686,2.758-2.326,2.134-1.36,4.571-2.023,7.431-2.023,2.349,0,3.246.304,4.517.801l.492.19c1.753.657,3.164,1.535,4.314,2.686,1.105.912,2.18,2.367,2.832,3.886h0Z" fill="#ccc" stroke="#ccc" stroke-miterlimit="10" stroke-width="1.5"/>
      <path d="M569.919,483.667c.812,1.62,1.24,3.471,1.24,5.353v19.148c0,1.881-.429,3.735-1.24,5.354-.759,1.521-1.908,2.946-3.413,4.237-1.344,1.119-2.788,1.882-4.309,2.279-1.388.506-2.883.762-4.564.778h-.176c-1.878-.014-3.375-.267-4.833-.813-1.584-.596-2.995-1.404-4.197-2.405-1.525-1.306-2.674-2.732-3.434-4.253-.812-1.62-1.24-3.472-1.24-5.351v-19.148c0-1.879.43-3.731,1.24-5.353.76-1.521,1.909-2.948,3.415-4.237,1.344-1.121,2.788-1.881,4.309-2.278,1.435-.523,2.986-.78,4.739-.78,1.881,0,3.566.272,5.008.813,1.584.594,2.995,1.404,4.199,2.405,1.337,1.144,2.396,2.531,3.257,4.251h-.002ZM547.269,488.844v17.328l20.158-19.113c-.146-.639-.364-1.252-.648-1.822-.655-1.312-1.413-2.31-2.382-3.141-.878-.732-1.95-1.342-3.162-1.797-1.031-.386-2.336-.59-3.775-.59-1.381,0-2.524.188-3.6.59l-.189.06c-1.042.26-2.047.791-2.992,1.577-1.13.968-1.99,2.026-2.541,3.125-.569,1.138-.869,2.445-.869,3.782ZM567.648,508.17v-16.476l-19.963,18.928c.126.399.272.787.455,1.154.55,1.1,1.411,2.157,2.56,3.141.878.731,1.948,1.34,3.162,1.797,1.068.4,2.206.583,3.682.59,1.342-.007,2.461-.195,3.515-.59l.189-.06c1.042-.26,2.046-.791,2.992-1.578,1.128-.968,1.989-2.025,2.539-3.125.569-1.137.869-2.444.869-3.782Z" fill="#ccc" stroke="#ccc" stroke-miterlimit="10" stroke-width="1.5"/>
      <path d="M603.408,483.667c.812,1.62,1.24,3.471,1.24,5.353v19.148c0,1.881-.429,3.735-1.24,5.354-.759,1.521-1.908,2.946-3.413,4.237-1.344,1.119-2.788,1.882-4.309,2.279-1.388.506-2.883.762-4.564.778h-.176c-1.878-.014-3.375-.267-4.833-.813-1.584-.596-2.995-1.404-4.197-2.405-1.525-1.306-2.674-2.732-3.434-4.253-.812-1.62-1.24-3.472-1.24-5.351v-19.148c0-1.879.43-3.731,1.24-5.353.76-1.521,1.909-2.948,3.415-4.237,1.344-1.121,2.788-1.881,4.309-2.278,1.435-.523,2.986-.78,4.739-.78,1.881,0,3.566.272,5.008.813,1.584.594,2.995,1.404,4.199,2.405,1.337,1.144,2.396,2.531,3.257,4.251h-.002ZM580.758,488.844v17.328l20.158-19.113c-.146-.639-.364-1.252-.648-1.822-.655-1.312-1.413-2.31-2.382-3.141-.878-.732-1.95-1.342-3.162-1.797-1.031-.386-2.336-.59-3.775-.59-1.381,0-2.524.188-3.6.59l-.189.06c-1.042.26-2.047.791-2.992,1.577-1.13.968-1.99,2.026-2.54,3.125-.569,1.138-.87,2.445-.87,3.782ZM601.137,508.17v-16.476l-19.963,18.928c.126.399.272.787.455,1.154.55,1.1,1.411,2.157,2.56,3.141.878.731,1.948,1.34,3.162,1.797,1.068.4,2.207.583,3.682.59,1.342-.007,2.461-.195,3.515-.59l.189-.06c1.042-.26,2.046-.791,2.992-1.578,1.128-.968,1.989-2.025,2.539-3.125.569-1.137.869-2.444.869-3.782Z" fill="#ccc" stroke="#ccc" stroke-miterlimit="10" stroke-width="1.5"/>
      <path d="M636.897,483.667c.812,1.62,1.24,3.471,1.24,5.353v19.148c0,1.881-.429,3.735-1.24,5.354-.759,1.521-1.908,2.946-3.413,4.237-1.344,1.119-2.788,1.882-4.309,2.279-1.388.506-2.883.762-4.564.778h-.176c-1.878-.014-3.375-.267-4.833-.813-1.584-.596-2.995-1.404-4.197-2.405-1.525-1.306-2.674-2.732-3.434-4.253-.812-1.62-1.24-3.472-1.24-5.351v-19.148c0-1.879.43-3.731,1.24-5.353.76-1.521,1.909-2.948,3.415-4.237,1.344-1.121,2.788-1.881,4.309-2.278,1.435-.523,2.986-.78,4.739-.78,1.881,0,3.566.272,5.008.813,1.584.594,2.995,1.404,4.199,2.405,1.337,1.144,2.396,2.531,3.257,4.251h-.002ZM614.246,488.844v17.328l20.158-19.113c-.146-.639-.364-1.252-.648-1.822-.655-1.312-1.413-2.31-2.382-3.141-.878-.732-1.95-1.342-3.162-1.797-1.031-.386-2.336-.59-3.775-.59-1.381,0-2.524.188-3.6.59l-.189.06c-1.042.26-2.047.791-2.992,1.577-1.13.968-1.99,2.026-2.541,3.125-.569,1.138-.869,2.445-.869,3.782ZM634.625,508.17v-16.476l-19.963,18.928c.126.399.272.787.455,1.154.55,1.1,1.411,2.157,2.56,3.141.878.731,1.948,1.34,3.162,1.797,1.068.4,2.206.583,3.682.59,1.342-.007,2.461-.195,3.515-.59l.189-.06c1.042-.26,2.046-.791,2.992-1.578,1.128-.968,1.989-2.025,2.539-3.125.569-1.137.869-2.444.869-3.782Z" fill="#ccc" stroke="#ccc" stroke-miterlimit="10" stroke-width="1.5"/>
      <path d="M659.853,476.013v44.62h-15.634v-3.514h12.121v-37.593h-12.121v-3.514h15.634Z" fill="#ccc" stroke="#ccc" stroke-miterlimit="10" stroke-width="1.5"/>
    </g>
    <g>
      <rect x="904.814" y="473.942" width="233.81" height="52.826" fill="none"/>
      <path d="M916.065,480.213v37.593h12.121v3.514h-15.635v-44.62h15.635v3.513h-12.121Z" fill="#ccc" stroke="#ccc" stroke-miterlimit="10" stroke-width="1.5"/>
      <path d="M943.597,518.468v2.822h-9.029v-2.822h3.104v-28.956l-2.205,1.826-1.799-2.174,4.482-3.709h2.344v33.013h3.104Z" fill="#ccc" stroke="#ccc" stroke-miterlimit="10" stroke-width="1.5"/>
      <path d="M971.058,504.571c.533,1.246.794,3.653.794,4.869,0,1.301,0,2.16-.612,4.456-.54,2.157-1.647,3.609-2.481,4.443-.933.931-2.715,2.12-4.183,2.487-1.384.465-3.644.465-4.857.465-1.434,0-3.918-.808-4.93-1.242-1.184-.508-3.405-2.006-4.756-3.205l1.875-2.109c1.181,1.05,3.183,2.373,3.993,2.722.931.399,2.991,1.014,3.817,1.014.979,0,3.017,0,4.069-.351.903-.23,2.244-1.045,2.976-1.776.581-.58,1.357-1.6,1.745-3.153.522-1.958.522-2.52.522-3.749,0-1.252-.287-3.109-.592-3.819-.347-.92-.769-1.62-1.479-2.474-.62-.743-1.296-1.275-2.011-1.582-.888-.381-1.827-.733-2.689-.733h-3.81v-3.073l8.384-9.484h-12.898v-2.822h15.943v3.636l-7.884,8.92h.265c1.376,0,2.693.485,3.801.961,1.128.484,2.16,1.281,3.067,2.369.919,1.101,1.496,2.067,1.932,3.229h0Z" fill="#ccc" stroke="#ccc" stroke-miterlimit="10" stroke-width="1.5"/>
      <path d="M978.257,501.494c0-1.636,1.264-2.963,2.821-2.963s2.822,1.327,2.822,2.963-1.264,2.963-2.822,2.963-2.821-1.326-2.821-2.963ZM978.257,518.002c0-1.636,1.264-2.963,2.821-2.963s2.822,1.327,2.822,2.963-1.264,2.963-2.822,2.963-2.821-1.326-2.821-2.963Z" fill="#ccc" stroke="#ccc" stroke-miterlimit="10" stroke-width="1.5"/>
      <path d="M994.171,518.609h17.444v2.822h-21.304v-2.812l3.709-4.048c1.944-2.166,3.728-4.151,5.421-5.957.841-.841,1.683-1.824,2.497-2.775.851-.992,4.249-4.817,4.249-4.817.386-.388.603-.662.748-.842.086-.109.159-.196.22-.264.414-.526.761-1.192,1.006-1.928.233-.699.352-1.257.352-2.376,0-.961-.198-1.914-.591-2.831-.357-.947-.926-1.629-1.676-2.38-.856-.706-1.668-1.213-2.461-1.51-2.269-.851-3.797-.849-6.062,0-1.039.389-1.82.869-2.462,1.511-.741.741-1.336,1.585-1.677,2.38l-2.593-1.112c.485-1.133,1.272-2.262,2.274-3.263.926-.924,2.059-1.629,3.467-2.157,2.887-1.086,5.15-1.086,8.045,0,1.443.542,2.614,1.442,3.37,2.071.926.918,1.852,1.965,2.393,3.41.521,1.209.796,2.535.796,3.881,0,1.484-.19,2.35-.496,3.269-.354,1.064-.877,2.044-1.507,2.833l-.193.23c-.189.237-.473.591-.899,1.016.003,0-3.322,3.742-4.159,4.718-.849.991-1.727,2.015-2.612,2.901-1.649,1.759-3.419,3.73-5.349,5.879l-1.947,2.151h-.002Z" fill="#ccc" stroke="#ccc" stroke-miterlimit="10" stroke-width="1.5"/>
      <path d="M1035.539,510.004h3.809v2.822h-3.809v7.055h-2.822v-7.055h-14.673v-3.071l14.578-24.3h2.915v24.548h.002ZM1032.716,490.782l-11.533,19.22h11.533v-19.22Z" fill="#ccc" stroke="#ccc" stroke-miterlimit="10" stroke-width="1.5"/>
      <path d="M1045.777,501.494c0-1.636,1.264-2.963,2.821-2.963s2.822,1.327,2.822,2.963-1.264,2.963-2.822,2.963-2.821-1.326-2.821-2.963ZM1045.777,518.002c0-1.636,1.264-2.963,2.821-2.963s2.822,1.327,2.822,2.963-1.264,2.963-2.822,2.963-2.821-1.326-2.821-2.963Z" fill="#ccc" stroke="#ccc" stroke-miterlimit="10" stroke-width="1.5"/>
      <path d="M1078.847,491.453c.651,1.301.996,2.788.996,4.299v15.378c0,1.511-.345,3-.996,4.3-.61,1.222-1.532,2.366-2.742,3.403-1.079.898-2.238,1.511-3.461,1.83-1.114.406-2.314.612-3.665.625h-.141c-1.509-.011-2.711-.214-3.882-.653-1.272-.479-2.405-1.127-3.37-1.932-1.226-1.048-2.147-2.194-2.759-3.416-.651-1.301-.996-2.788-.996-4.297v-15.378c0-1.51.346-2.997.996-4.299.611-1.222,1.533-2.367,2.743-3.403,1.079-.9,2.238-1.511,3.461-1.83,1.152-.42,2.398-.626,3.807-.626,1.511,0,2.863.219,4.021.653,1.273.477,2.406,1.127,3.372,1.932,1.074.918,1.925,2.033,2.616,3.414h0ZM1060.654,495.612v13.917l16.189-15.351c-.116-.514-.292-1.006-.521-1.463-.526-1.054-1.134-1.855-1.913-2.523-.705-.588-1.565-1.078-2.539-1.443-.828-.311-1.877-.474-3.032-.474-1.109,0-2.027.151-2.891.474l-.152.048c-.837.209-1.644.635-2.403,1.267-.907.777-1.599,1.627-2.04,2.51-.457.914-.698,1.964-.698,3.038ZM1077.021,511.133v-13.233l-16.033,15.203c.102.32.219.632.366.927.441.883,1.133,1.732,2.056,2.522.705.587,1.564,1.077,2.539,1.443.858.322,1.772.469,2.957.474,1.078-.005,1.977-.156,2.823-.474l.152-.048c.837-.208,1.644-.635,2.403-1.267.905-.777,1.597-1.626,2.038-2.51.457-.913.698-1.962.698-3.038Z" fill="#ccc" stroke="#ccc" stroke-miterlimit="10" stroke-width="1.5"/>
      <path d="M1107.266,491.453c.651,1.301.996,2.788.996,4.299v15.378c0,1.511-.345,3-.996,4.3-.61,1.222-1.532,2.366-2.742,3.403-1.079.898-2.238,1.511-3.461,1.83-1.114.406-2.314.612-3.665.625h-.141c-1.509-.011-2.711-.214-3.882-.653-1.272-.479-2.405-1.127-3.37-1.932-1.226-1.048-2.147-2.194-2.759-3.416-.651-1.301-.996-2.788-.996-4.297v-15.378c0-1.51.346-2.997.996-4.299.611-1.222,1.533-2.367,2.743-3.403,1.079-.9,2.238-1.511,3.461-1.83,1.152-.42,2.398-.626,3.807-.626,1.511,0,2.863.219,4.021.653,1.273.477,2.406,1.127,3.372,1.932,1.074.918,1.925,2.033,2.616,3.414h0ZM1089.074,495.612v13.917l16.189-15.351c-.116-.514-.292-1.006-.521-1.463-.526-1.054-1.134-1.855-1.913-2.523-.705-.588-1.565-1.078-2.539-1.443-.828-.311-1.877-.474-3.032-.474-1.109,0-2.027.151-2.891.474l-.152.048c-.837.209-1.644.635-2.403,1.267-.907.777-1.599,1.627-2.04,2.51-.457.914-.698,1.964-.698,3.038ZM1105.441,511.133v-13.233l-16.033,15.203c.102.32.219.632.366.927.441.883,1.133,1.732,2.056,2.522.705.587,1.564,1.077,2.539,1.443.858.322,1.772.469,2.957.474,1.078-.005,1.977-.156,2.823-.474l.152-.048c.837-.208,1.644-.635,2.403-1.267.905-.777,1.597-1.626,2.038-2.51.457-.913.698-1.962.698-3.038Z" fill="#ccc" stroke="#ccc" stroke-miterlimit="10" stroke-width="1.5"/>
      <path d="M1130.905,476.517v44.62h-15.635v-3.514h12.121v-37.593h-12.121v-3.513h15.635Z" fill="#ccc" stroke="#ccc" stroke-miterlimit="10" stroke-width="1.5"/>
    </g>
    <g>
      <rect x="840.959" y="464.439" width="94.876" height="52.826" fill="none"/>
      <path d="M904.063,493.806c.859,4.809-.408,10.624-5.161,12.842-1.434.636-2.484.581-2.926.559-1.338-.004-2.249-.753-2.901-1.405-.448-.391-.775-.797-1.02-1.182-.582.674-1.277,1.257-2.054,1.706-1.787,1.036-3.847,1.277-5.797.674-2.25-.691-3.928-2.554-4.488-4.982-.506-2.024-.048-4.412,1.207-6.204,2.764-4.392,8.931-6.637,13.993-5.054l1.257.392-2.334,9.802c.089.323.195.783.225,1.219l.017.057c.119.417.264.937.922,1.512.455.452.729.639.905.639l.215.007c.308.015.816.042,1.609-.311,3.856-1.799,4.054-6.976,3.559-9.749-.472-2.359-1.192-3.979-2.331-5.221-1.139-1.361-2.909-2.428-5.166-3.133-8.104-2.434-15.433,2.984-17.57,9.399-.397.941-.654,1.931-.784,2.973-.294,2.489-.045,4.664.737,6.456,1.255,3.009,4.068,5.573,7.353,6.71,3.424,1.181,7.573.89,11.38-.803l1.146,2.579c-2.653,1.18-5.399,1.775-8.053,1.775-1.862,0-3.682-.293-5.396-.884-4.084-1.415-7.458-4.506-9.025-8.27-.978-2.235-1.298-4.901-.945-7.904.162-1.311.491-2.563.949-3.636,2.889-8.677,12.343-13.698,21.032-11.095,2.832.886,5.002,2.221,6.464,3.976,1.908,2.081,2.617,4.738,2.979,6.552l.003.002ZM892.155,495.848l.64-2.685c-.421-.06-.847-.089-1.275-.089-3.226,0-6.579,1.652-8.246,4.297-.812,1.163-1.124,2.741-.812,3.984.338,1.46,1.297,2.552,2.574,2.944,1.526.47,2.776.031,3.555-.419,1.198-.692,2.122-1.92,2.414-3.201l1.119-4.925.031.093h0Z" fill="#ccc" stroke="#ccc" stroke-miterlimit="10" stroke-width="1.5"/>
    </g>
    <g>
      <rect x="701.226" y="604.513" width="217.675" height="52.826" fill="none"/>
      <path d="M711.368,610.784v37.593h12.121v3.514h-15.634v-44.62h15.634v3.514h-12.121Z" fill="#ccc" stroke="#ccc" stroke-miterlimit="10" stroke-width="1.5"/>
      <path d="M749.986,622.061c.65,1.305.995,2.792.995,4.3v15.379c0,1.51-.345,2.997-.995,4.299-.612,1.225-1.535,2.37-2.742,3.404-1.08.9-2.239,1.512-3.461,1.83-1.115.406-2.317.612-3.666.625h-.141c-1.509-.011-2.712-.214-3.882-.653-1.275-.479-2.408-1.129-3.372-1.932-1.223-1.048-2.146-2.193-2.757-3.415-.652-1.303-.996-2.79-.996-4.299v-15.379c0-1.51.346-2.997.996-4.299.611-1.225,1.535-2.369,2.743-3.404,1.079-.899,2.238-1.51,3.459-1.829,1.15-.42,2.397-.626,3.807-.626,1.515,0,2.869.22,4.024.654,1.272.477,2.405,1.127,3.37,1.93,1.072.919,1.923,2.033,2.616,3.415h0ZM748.156,641.739v-15.379c0-1.072-.241-2.123-.696-3.038-.528-1.054-1.135-1.855-1.913-2.522-.706-.587-1.566-1.076-2.54-1.441-.828-.311-1.875-.475-3.032-.475-1.11,0-2.03.151-2.891.475l-.153.048c-.836.209-1.643.635-2.4,1.267-.906.776-1.599,1.625-2.041,2.51-.457.915-.698,1.964-.698,3.038v15.377c0,1.074.243,2.125.698,3.038.44.883,1.133,1.732,2.055,2.522.705.587,1.565,1.076,2.541,1.443.857.321,1.771.468,2.957.474,1.079-.006,1.977-.156,2.824-.474l.152-.048c.835-.209,1.644-.635,2.403-1.268.904-.775,1.597-1.625,2.038-2.51.456-.911.697-1.963.697-3.036h-.002Z" fill="#ccc" stroke="#ccc" stroke-miterlimit="10" stroke-width="1.5"/>
      <path d="M760.212,620.286v11.569h9.171v2.821h-9.171v17.072h-2.822v-34.284h21.305v2.821h-18.482Z" fill="#ccc" stroke="#ccc" stroke-miterlimit="10" stroke-width="1.5"/>
      <path d="M787.945,620.286v11.569h9.171v2.821h-9.171v17.072h-2.822v-34.284h21.305v2.821h-18.482Z" fill="#ccc" stroke="#ccc" stroke-miterlimit="10" stroke-width="1.5"/>
      <path d="M833.987,637.771c.612,1.213.907,2.407.907,3.547,0,3.039-1.114,5.535-3.315,7.42-2.056,1.899-4.656,2.88-7.689,2.88h-.282c-2.859,0-5.495-1.018-7.831-3.021-1.826-1.545-2.361-2.91-2.749-3.906-.058-.145-.111-.284-.169-.419l2.593-1.113c.069.161.136.329.205.504.325.834.663,1.696,1.951,2.785,1.844,1.583,3.805,2.348,6.002,2.348h.282c2.333,0,4.236-.708,5.813-2.165,1.63-1.397,2.369-3.073,2.369-5.312,0-.694-.197-1.473-.557-2.191-.31-.506-.758-1.175-1.354-1.573-.687-.541-1.566-1.049-2.454-1.429-.575-.247-1.223-.446-1.974-.676-.416-.129-.851-.263-1.303-.412l-4.149-1.104c-2.235-.688-3.849-1.722-4.981-3.178-1.229-1.578-1.851-3.436-1.851-5.521,0-2.581,1.07-4.795,3.18-6.581,2.005-1.851,4.28-2.732,7.121-2.732h.28c2.853.165,5.234,1.143,7.162,2.909,1.464,1.301,2.351,2.856,2.691,4.739l-2.777.502c-.23-1.271-.786-2.242-1.805-3.147-1.452-1.331-3.25-2.062-5.354-2.186l-.199.003c-2.114,0-3.735.625-5.251,2.024-1.514,1.284-2.228,2.731-2.228,4.467,0,1.444.423,2.719,1.255,3.79.776.997,1.899,1.695,3.535,2.199l4.182,1.114c.512.167.924.294,1.319.415.795.244,1.545.475,2.26.78,1.125.481,2.22,1.117,3.007,1.747.962.636,1.64,1.622,2.161,2.493h-.003Z" fill="#ccc" stroke="#ccc" stroke-miterlimit="10" stroke-width="1.5"/>
      <path d="M844.146,618.865v11.569h10.159v2.822h-10.159v15.66h18.483v2.822h-21.305v-35.695h21.305v2.821h-18.483Z" fill="#ccc" stroke="#ccc" stroke-miterlimit="10" stroke-width="1.5"/>
      <path d="M889.658,620.347h-8.889v31.463h-2.821v-31.463h-8.89v-2.821h20.6v2.821Z" fill="#ccc" stroke="#ccc" stroke-miterlimit="10" stroke-width="1.5"/>
      <path d="M912.291,607.088v44.62h-15.634v-3.514h12.121v-37.593h-12.121v-3.514h15.634Z" fill="#ccc" stroke="#ccc" stroke-miterlimit="10" stroke-width="1.5"/>
    </g>
    <g>
      <rect x="1003.894" y="603.782" width="155.59" height="52.826" fill="none"/>
      <path d="M1044.757,627.729l-.146,19.184-2.821-.021.08-10.713h-16.306v10.723h-2.821v-19.179l9.669-15.107h2.673l9.672,15.113ZM1041.891,633.356l.036-4.812-8.18-12.781-8.184,12.785v4.809h16.327Z" fill="#ccc" stroke="#ccc" stroke-miterlimit="10" stroke-width="1.5"/>
      <path d="M1073.175,612.641v24.407c0,1.562-.366,3.062-1.033,4.228-.573,1.152-1.496,2.298-2.706,3.334-1.019.852-2.119,1.322-3.185,1.778-1.233.464-2.502.679-3.94.679-1.513,0-2.867-.22-4.024-.655-1.271-.476-2.405-1.125-3.37-1.929-1.026-.882-2.059-1.876-2.757-3.275-.671-1.339-.996-2.701-.996-4.158v-24.408h2.821v24.408c0,1.024.222,1.944.699,2.896.448.898,1.146,1.602,2.054,2.382.705.587,1.566,1.076,2.54,1.441.828.312,1.876.476,3.031.476,1.107,0,2.028-.151,2.89-.474.859-.371,1.728-.742,2.414-1.315.907-.778,1.601-1.627,2.04-2.51.457-.805.698-1.836.698-2.896v-24.408h2.824Z" fill="#ccc" stroke="#ccc" stroke-miterlimit="10" stroke-width="1.5"/>
      <path d="M1100.182,615.522h-8.889v31.462h-2.821v-31.462h-8.89v-2.822h20.6v2.822Z" fill="#ccc" stroke="#ccc" stroke-miterlimit="10" stroke-width="1.5"/>
      <path d="M1127.598,617.235c.65,1.306.995,2.792.995,4.301v15.379c0,1.509-.345,2.996-.995,4.299-.612,1.225-1.535,2.37-2.742,3.404-1.08.9-2.239,1.511-3.461,1.83-1.115.406-2.317.612-3.666.625h-.141c-1.509-.012-2.712-.215-3.882-.653-1.275-.479-2.408-1.129-3.372-1.932-1.223-1.049-2.146-2.194-2.757-3.416-.651-1.302-.996-2.789-.996-4.299v-15.379c0-1.51.346-2.996.996-4.299.611-1.225,1.535-2.369,2.743-3.404,1.078-.898,2.237-1.51,3.459-1.828,1.15-.421,2.397-.627,3.807-.627,1.515,0,2.869.221,4.024.655,1.272.477,2.405,1.127,3.37,1.93,1.072.918,1.923,2.033,2.616,3.414h0ZM1125.767,636.913v-15.379c0-1.072-.241-2.123-.696-3.037-.528-1.054-1.135-1.855-1.913-2.522-.706-.587-1.566-1.077-2.54-1.442-.828-.311-1.875-.474-3.032-.474-1.11,0-2.03.15-2.891.474l-.153.048c-.836.209-1.643.635-2.4,1.268-.905.775-1.599,1.625-2.04,2.51-.457.914-.698,1.964-.698,3.037v15.378c0,1.073.242,2.124.698,3.037.44.884,1.133,1.732,2.055,2.522.705.587,1.565,1.077,2.541,1.443.857.322,1.771.469,2.957.475,1.079-.006,1.977-.157,2.824-.475l.152-.048c.835-.209,1.644-.635,2.403-1.267.904-.776,1.597-1.626,2.038-2.51.456-.912.697-1.963.697-3.036l-.002-.002Z" fill="#ccc" stroke="#ccc" stroke-miterlimit="10" stroke-width="1.5"/>
      <path d="M1135.001,627.24c0-1.637,1.264-2.963,2.822-2.963s2.821,1.326,2.821,2.963-1.263,2.963-2.821,2.963-2.822-1.326-2.822-2.963ZM1135.001,643.747c0-1.636,1.264-2.963,2.822-2.963s2.821,1.327,2.821,2.963-1.263,2.963-2.821,2.963-2.822-1.326-2.822-2.963Z" fill="#ccc" stroke="#ccc" stroke-miterlimit="10" stroke-width="1.5"/>
    </g>
    <g>
      <rect x="433.225" y="675.965" width="48.49" height="58.293" fill="none"/>
      <path d="M459.772,722.557h6.765l-8.859,12.077-9.257-12.077h7.09v-11.934h-7.18l9.347-11.789,8.944,11.789h-6.85v11.934Z" fill="#ccc" stroke="#ccc" stroke-miterlimit="10"/>
    </g>
  </g>
</svg>