<?xml version="1.0" encoding="UTF-8"?>
<svg xmlns="http://www.w3.org/2000/svg" width="1573.826" height="129.913" viewBox="0 0 1573.826 129.913">
  <g id="BUTTON_-_Dark">
    <rect x="779.587" y="20.5" width="83" height="91" rx="1.738" ry="1.738" fill="none" stroke="#ccc" stroke-miterlimit="10" stroke-width="5"/>
    <rect x="770.587" y="11" width="101" height="110" rx="5.276" ry="5.276" fill="none" stroke="#ccc" stroke-miterlimit="10" stroke-width="5"/>
  </g>
  <g id="STAT_-_Dark">
    <g>
      <path d="M799.992,70.099c.386.842.572,1.67.572,2.461,0,2.109-.703,3.84-2.091,5.148-1.297,1.317-2.937,1.998-4.85,1.998h-.178c-1.804,0-3.466-.706-4.939-2.096-1.151-1.072-1.488-2.019-1.733-2.709-.036-.101-.07-.198-.106-.291l1.636-.772c.043.112.085.229.129.35.205.579.418,1.177,1.23,1.933,1.163,1.098,2.399,1.629,3.785,1.629h.178c1.472,0,2.672-.491,3.667-1.502,1.027-.969,1.493-2.132,1.493-3.686,0-.481-.124-1.022-.351-1.521-.195-.351-.479-.815-.854-1.091-.433-.376-.987-.729-1.548-.992-.362-.171-.771-.31-1.244-.469-.263-.089-.537-.182-.821-.286l-2.617-.767c-1.41-.477-2.427-1.194-3.142-2.205-.775-1.095-1.167-2.384-1.167-3.832,0-1.791.675-3.327,2.005-4.566,1.265-1.284,2.7-1.896,4.491-1.896h.177c1.799.115,3.301.793,4.517,2.019.924.902,1.482,1.982,1.697,3.288l-1.752.349c-.145-.882-.495-1.556-1.138-2.184-.916-.923-2.049-1.43-3.377-1.517l-.125.002c-1.334,0-2.356.434-3.312,1.405-.955.891-1.405,1.896-1.405,3.1,0,1.002.267,1.886.792,2.629.489.692,1.197,1.177,2.229,1.526l2.638.773c.322.115.583.204.832.288.502.169.974.329,1.425.542.709.334,1.399.775,1.896,1.212.606.441,1.034,1.126,1.363,1.73h-.002Z" fill="#ccc" stroke="#ccc" stroke-miterlimit="10" stroke-width="2"/>
      <path d="M817.605,58.009h-5.605v21.831h-1.779v-21.831h-5.606v-1.958h12.991v1.958Z" fill="#ccc" stroke="#ccc" stroke-miterlimit="10" stroke-width="2"/>
      <path d="M835.518,66.479l-.092,13.311-1.779-.015.051-7.433h-10.283v7.44h-1.779v-13.307l6.098-10.482h1.687l6.099,10.486ZM833.711,70.384l.022-3.339-5.158-8.869-5.161,8.872v3.336h10.297Z" fill="#ccc" stroke="#ccc" stroke-miterlimit="10" stroke-width="2"/>
      <path d="M852.543,58.009h-5.605v21.831h-1.779v-21.831h-5.606v-1.958h12.991v1.958Z" fill="#ccc" stroke="#ccc" stroke-miterlimit="10" stroke-width="2"/>
    </g>
  </g>
</svg>