<?xml version="1.0" encoding="UTF-8"?>
<svg xmlns="http://www.w3.org/2000/svg" width="1291.565" height="802.957" viewBox="0 0 1291.565 802.957">
  <g id="Layer_7">
    <path d="M1256.588,769.469l-1222.305.984c-5.445.004-9.861-4.411-9.856-9.857l.667-725.918c.005-5.432,4.408-9.834,9.84-9.839l1222.305-.984c5.445-.004,9.861,4.411,9.856,9.857l-.667,725.918c-.005,5.432-4.408,9.834-9.84,9.839Z" fill="none" stroke="#ccc" stroke-miterlimit="10" stroke-width="11"/>
    <polyline points="638.102 768.588 1184.602 769.087 1184.602 519.51 1259.602 519.51 1259.602 193.433 1184.602 193.433 1184.602 25.847 105.102 25.847 105.102 198.12 26.884 198.12 26.884 519.011 105.102 519.011 105.102 768.588 638.102 768.588" fill="none" stroke="#ccc" stroke-miterlimit="10" stroke-width="8"/>
    <rect x="278.102" y="65.847" width="735" height="553" rx="13.681" ry="13.681" fill="none" stroke="#ccc" stroke-miterlimit="10" stroke-width="5"/>
    <rect x="267.102" y="51.847" width="760" height="580" rx="18.29" ry="18.29" fill="none" stroke="#ccc" stroke-miterlimit="10" stroke-width="5"/>
    <g>
      <rect x="120.102" y="66.847" width="137" height="81" fill="none" stroke="#ccc" stroke-miterlimit="10" stroke-width="5"/>
      <polygon points="240.101 107.097 212.734 79.597 212.734 96.597 137.601 96.597 137.601 117.597 212.734 117.597 212.734 134.597 240.101 107.097" fill="#ccc"/>
    </g>
    <g>
      <rect x="120.254" y="193.695" width="137" height="81" fill="none" stroke="#ccc" stroke-miterlimit="10" stroke-width="5"/>
      <polygon points="240.253 233.945 212.886 206.445 212.886 223.445 137.753 223.445 137.753 244.445 212.886 244.445 212.886 261.445 240.253 233.945" fill="#ccc"/>
    </g>
    <g>
      <rect x="120.254" y="320.695" width="137" height="81" fill="none" stroke="#ccc" stroke-miterlimit="10" stroke-width="5"/>
      <polygon points="240.253 360.945 212.886 333.445 212.886 350.445 137.753 350.445 137.753 371.445 212.886 371.445 212.886 388.445 240.253 360.945" fill="#ccc"/>
    </g>
    <g>
      <rect x="120.08" y="445.13" width="137" height="81" fill="none" stroke="#ccc" stroke-miterlimit="10" stroke-width="5"/>
      <polygon points="240.079 485.38 212.712 457.88 212.712 474.88 137.58 474.88 137.58 495.88 212.712 495.88 212.712 512.88 240.079 485.38" fill="#ccc"/>
    </g>
    <g>
      <rect x="1035.232" y="66.847" width="137" height="81" transform="translate(2207.464 214.695) rotate(-180)" fill="none" stroke="#ccc" stroke-miterlimit="10" stroke-width="5"/>
      <polygon points="1052.233 107.097 1079.6 79.597 1079.6 96.597 1154.732 96.597 1154.732 117.597 1079.6 117.597 1079.6 134.597 1052.233 107.097" fill="#ccc"/>
    </g>
    <g>
      <rect x="1035.08" y="193.695" width="137" height="81" transform="translate(2207.16 468.39) rotate(-180)" fill="none" stroke="#ccc" stroke-miterlimit="10" stroke-width="5"/>
      <polygon points="1052.081 233.945 1079.448 206.445 1079.448 223.445 1154.58 223.445 1154.58 244.445 1079.448 244.445 1079.448 261.445 1052.081 233.945" fill="#ccc"/>
    </g>
    <g>
      <rect x="1035.08" y="320.695" width="137" height="81" transform="translate(2207.16 722.39) rotate(-180)" fill="none" stroke="#ccc" stroke-miterlimit="10" stroke-width="5"/>
      <polygon points="1052.081 360.945 1079.448 333.445 1079.448 350.445 1154.58 350.445 1154.58 371.445 1079.448 371.445 1079.448 388.445 1052.081 360.945" fill="#ccc"/>
    </g>
    <g>
      <rect x="1035.254" y="445.13" width="137" height="81" transform="translate(2207.507 971.26) rotate(-180)" fill="none" stroke="#ccc" stroke-miterlimit="10" stroke-width="5"/>
      <polygon points="1052.255 485.38 1079.622 457.88 1079.622 474.88 1154.754 474.88 1154.754 495.88 1079.622 495.88 1079.622 512.88 1052.255 485.38" fill="#ccc"/>
    </g>
    <circle cx="209.102" cy="601.847" r="30.5" fill="none" stroke="#ccc" stroke-miterlimit="10" stroke-width="5"/>
    <circle cx="1092.102" cy="601.847" r="30.5" fill="none" stroke="#ccc" stroke-miterlimit="10" stroke-width="5"/>
    <rect x="168.602" y="658.302" width="83" height="91" fill="none" stroke="#ccc" stroke-miterlimit="10" stroke-width="5"/>
    <rect x="160.602" y="648.802" width="101" height="110" rx="9.778" ry="9.778" fill="none" stroke="#ccc" stroke-miterlimit="10" stroke-width="5"/>
    <rect x="292.602" y="658.302" width="83" height="91" fill="none" stroke="#ccc" stroke-miterlimit="10" stroke-width="5"/>
    <rect x="284.602" y="648.802" width="101" height="110" rx="9.778" ry="9.778" fill="none" stroke="#ccc" stroke-miterlimit="10" stroke-width="5"/>
    <rect x="416.602" y="658.302" width="83" height="91" fill="none" stroke="#ccc" stroke-miterlimit="10" stroke-width="5"/>
    <rect x="408.602" y="648.802" width="101" height="110" rx="9.778" ry="9.778" fill="none" stroke="#ccc" stroke-miterlimit="10" stroke-width="5"/>
    <rect x="540.602" y="658.302" width="83" height="91" fill="none" stroke="#ccc" stroke-miterlimit="10" stroke-width="5"/>
    <rect x="532.602" y="648.802" width="101" height="110" rx="9.778" ry="9.778" fill="none" stroke="#ccc" stroke-miterlimit="10" stroke-width="5"/>
    <rect x="662.602" y="658.302" width="83" height="91" fill="none" stroke="#ccc" stroke-miterlimit="10" stroke-width="5"/>
    <rect x="654.602" y="648.802" width="101" height="110" rx="9.778" ry="9.778" fill="none" stroke="#ccc" stroke-miterlimit="10" stroke-width="5"/>
    <rect x="789.602" y="658.302" width="83" height="91" fill="none" stroke="#ccc" stroke-miterlimit="10" stroke-width="5"/>
    <rect x="781.602" y="648.802" width="101" height="110" rx="9.778" ry="9.778" fill="none" stroke="#ccc" stroke-miterlimit="10" stroke-width="5"/>
    <rect x="909.602" y="658.302" width="83" height="91" fill="none" stroke="#ccc" stroke-miterlimit="10" stroke-width="5"/>
    <rect x="901.602" y="648.802" width="101" height="110" rx="9.778" ry="9.778" fill="none" stroke="#ccc" stroke-miterlimit="10" stroke-width="5"/>
    <rect x="1034.602" y="658.302" width="83" height="91" fill="none" stroke="#ccc" stroke-miterlimit="10" stroke-width="5"/>
    <rect x="1026.602" y="648.802" width="101" height="110" rx="9.778" ry="9.778" fill="none" stroke="#ccc" stroke-miterlimit="10" stroke-width="5"/>
    <circle cx="66.102" cy="130.847" r="34.5" fill="none" stroke="#ccc" stroke-miterlimit="10" stroke-width="3.5"/>
    <circle cx="66.102" cy="130.847" r="27.5" fill="none" stroke="#ccc" stroke-miterlimit="10" stroke-width="3.5"/>
    <circle cx="66.602" cy="584.347" r="34.5" fill="none" stroke="#ccc" stroke-miterlimit="10" stroke-width="3.5"/>
    <circle cx="66.602" cy="584.347" r="27.5" fill="none" stroke="#ccc" stroke-miterlimit="10" stroke-width="3.5"/>
    <circle cx="66.602" cy="703.347" r="34.5" fill="none" stroke="#ccc" stroke-miterlimit="10" stroke-width="3.5"/>
    <circle cx="66.602" cy="703.347" r="27.5" fill="none" stroke="#ccc" stroke-miterlimit="10" stroke-width="3.5"/>
    <circle cx="1225.602" cy="130.847" r="34.5" fill="none" stroke="#ccc" stroke-miterlimit="10" stroke-width="3.5"/>
    <circle cx="1225.602" cy="130.847" r="27.5" fill="none" stroke="#ccc" stroke-miterlimit="10" stroke-width="3.5"/>
    <circle cx="1225.102" cy="584.347" r="34.5" fill="none" stroke="#ccc" stroke-miterlimit="10" stroke-width="3.5"/>
    <circle cx="1225.102" cy="584.347" r="27.5" fill="none" stroke="#ccc" stroke-miterlimit="10" stroke-width="3.5"/>
    <circle cx="1225.102" cy="703.347" r="34.5" fill="none" stroke="#ccc" stroke-miterlimit="10" stroke-width="3.5"/>
    <circle cx="1225.102" cy="703.347" r="27.5" fill="none" stroke="#ccc" stroke-miterlimit="10" stroke-width="3.5"/>
  </g>
  <g id="Layer_8">
    <g>
      <rect x="174.39" y="671.398" width="66.913" height="64.957" fill="none"/>
      <path d="M188.305,685.767h6.823v36.208h-6.823v-36.208ZM190.795,685.767h21.292v6.574h-21.292v-6.574ZM190.795,701.031h18.552v6.574h-18.552v-6.574Z" fill="#ccc" stroke="#ccc" stroke-miterlimit="10"/>
      <path d="M227.389,721.975h-6.823v-28.189l-4.408,1.668v-7.246l5.404-2.44h5.827v36.208Z" fill="#ccc" stroke="#ccc" stroke-miterlimit="10"/>
    </g>
    <g>
      <rect x="298.39" y="671.398" width="66.913" height="64.957" fill="none"/>
      <path d="M307.611,685.767h6.823v36.208h-6.823v-36.208ZM310.102,685.767h21.292v6.574h-21.292v-6.574ZM310.102,701.031h18.552v6.574h-18.552v-6.574Z" fill="#ccc" stroke="#ccc" stroke-miterlimit="10"/>
      <path d="M336.411,715.824l12.426-16.336c.564-.73,1-1.482,1.307-2.254.307-.772.461-1.49.461-2.154v-.05c0-.979-.315-1.734-.946-2.267-.631-.53-1.528-.797-2.689-.797-1.129,0-2.042.37-2.739,1.108-.697.739-1.121,1.789-1.27,3.15v.024h-6.998v-.024c.149-2.258.693-4.2,1.631-5.827s2.204-2.867,3.798-3.723,3.437-1.283,5.528-1.283c2.257,0,4.188.37,5.79,1.108,1.602.739,2.822,1.814,3.66,3.226s1.258,3.112,1.258,5.104v.024c0,1.645-.286,3.275-.859,4.894-.572,1.619-1.374,3.084-2.403,4.396l-8.915,11.256h12.376v6.574h-21.416v-6.15Z" fill="#ccc" stroke="#ccc" stroke-miterlimit="10"/>
    </g>
    <g>
      <rect x="422.39" y="671.398" width="66.913" height="64.957" fill="none"/>
      <path d="M431.3,685.767h6.823v36.208h-6.823v-36.208ZM433.79,685.767h21.292v6.574h-21.292v-6.574ZM433.79,701.031h18.552v6.574h-18.552v-6.574Z" fill="#ccc" stroke="#ccc" stroke-miterlimit="10"/>
      <path d="M464.905,721.152c-1.71-.797-3.072-1.958-4.084-3.486-1.013-1.526-1.569-3.345-1.668-5.453h7.047c.1.747.319,1.382.66,1.905.34.522.776.921,1.308,1.195.531.273,1.146.411,1.843.411,1.295,0,2.295-.361,3.001-1.084.705-.722,1.058-1.738,1.058-3.051v-.846c0-1.378-.287-2.441-.859-3.188-.573-.748-1.391-1.121-2.453-1.121h-3.063v-6.574h3.063c.863,0,1.531-.327,2.005-.983.473-.656.709-1.573.709-2.752v-.622c0-1.112-.261-1.972-.785-2.578-.522-.605-1.257-.908-2.204-.908-.614,0-1.175.157-1.681.473s-.934.771-1.282,1.369-.598,1.32-.747,2.167h-7.022c.199-2.208.792-4.112,1.78-5.715s2.279-2.822,3.873-3.661c1.594-.838,3.37-1.258,5.329-1.258,3.204,0,5.682.818,7.433,2.453,1.751,1.636,2.627,3.956,2.627,6.961v1.096c0,1.677-.423,3.137-1.27,4.383-.847,1.244-2.051,2.175-3.611,2.789,1.743.398,3.092,1.312,4.046,2.738.955,1.429,1.432,3.246,1.432,5.454v1.096c0,2.108-.415,3.909-1.245,5.403-.831,1.494-2.042,2.632-3.636,3.412s-3.511,1.17-5.752,1.17c-2.191,0-4.143-.398-5.852-1.195Z" fill="#ccc" stroke="#ccc" stroke-miterlimit="10"/>
    </g>
    <g>
      <rect x="546.39" y="671.398" width="66.913" height="64.957" fill="none"/>
      <path d="M554.279,685.767h6.823v36.208h-6.823v-36.208ZM556.769,685.767h21.292v6.574h-21.292v-6.574ZM556.769,701.031h18.552v6.574h-18.552v-6.574Z" fill="#ccc" stroke="#ccc" stroke-miterlimit="10"/>
      <path d="M583.128,710.147l11.156-24.355h7.72l-10.857,24.057h16.261v6.574h-24.28v-6.275ZM597.746,700.684h6.823v21.316h-6.823v-21.316Z" fill="#ccc" stroke="#ccc" stroke-miterlimit="10"/>
    </g>
    <g>
      <rect x="668.39" y="671.398" width="66.913" height="64.957" fill="none"/>
      <path d="M676.902,685.767h6.823v36.208h-6.823v-36.208ZM679.392,685.767h21.291v6.574h-21.291v-6.574ZM679.392,701.031h18.553v6.574h-18.553v-6.574Z" fill="#ccc" stroke="#ccc" stroke-miterlimit="10"/>
      <path d="M711.616,721.066c-1.553-.854-2.798-2.1-3.735-3.735-.938-1.635-1.481-3.573-1.631-5.814v-.025h6.823v.025c.133,1.328.539,2.362,1.221,3.101.68.738,1.568,1.108,2.664,1.108,1.195,0,2.12-.391,2.776-1.171s.983-1.884.983-3.312v-3.039c0-1.427-.295-2.527-.884-3.299-.589-.772-1.415-1.158-2.478-1.158-.979,0-1.814.249-2.503.747s-1.166,1.195-1.432,2.092h-6.375v-20.818h19.448v6.574h-12.625v6.399c.515-.498,1.216-.892,2.104-1.183.888-.29,1.771-.436,2.651-.436,1.876,0,3.482.432,4.819,1.295,1.336.863,2.353,2.125,3.05,3.785s1.047,3.661,1.047,6.001v3.039c0,2.34-.42,4.341-1.258,6.001-.839,1.66-2.055,2.926-3.648,3.798-1.594.871-3.52,1.307-5.777,1.307-1.942,0-3.689-.427-5.242-1.282Z" fill="#ccc" stroke="#ccc" stroke-miterlimit="10"/>
    </g>
    <g>
      <rect x="795.39" y="671.398" width="66.913" height="64.957" fill="none"/>
      <path d="M804.699,685.767h6.823v36.208h-6.823v-36.208ZM807.19,685.767h21.291v6.574h-21.291v-6.574ZM807.19,701.031h18.553v6.574h-18.553v-6.574Z" fill="#ccc" stroke="#ccc" stroke-miterlimit="10"/>
      <path d="M838.168,721.066c-1.585-.854-2.793-2.1-3.623-3.735-.83-1.635-1.245-3.606-1.245-5.914v-.025c0-1.311.162-2.697.485-4.158.324-1.461.784-2.93,1.382-4.408.1-.248.203-.498.312-.746.108-.25.22-.49.337-.723l7.346-15.589h7.72l-8.716,18.054-1.719-.896c.415-.779,1.021-1.386,1.818-1.817s1.727-.647,2.789-.647c1.992,0,3.693.424,5.105,1.27,1.41.848,2.485,2.08,3.225,3.698.738,1.619,1.107,3.565,1.107,5.84v.024c0,2.325-.415,4.317-1.244,5.977-.831,1.661-2.039,2.923-3.624,3.785-1.585.864-3.499,1.295-5.739,1.295-2.226,0-4.131-.427-5.716-1.282ZM846.685,714.716c.656-.706.984-1.706.984-3.001v-.025c0-1.494-.328-2.643-.984-3.448s-1.59-1.208-2.801-1.208c-1.195,0-2.121.411-2.777,1.232-.656.822-.983,1.972-.983,3.449v.025c0,1.295.327,2.291.983,2.988s1.582,1.045,2.777,1.045c1.211,0,2.145-.352,2.801-1.058Z" fill="#ccc" stroke="#ccc" stroke-miterlimit="10"/>
    </g>
    <g>
      <rect x="915.39" y="671.398" width="66.913" height="64.957" fill="none"/>
      <path d="M924.944,685.767h6.823v36.208h-6.823v-36.208ZM927.435,685.767h21.291v6.574h-21.291v-6.574ZM927.435,701.031h18.553v6.574h-18.553v-6.574Z" fill="#ccc" stroke="#ccc" stroke-miterlimit="10"/>
      <path d="M973.989,690.299l-8.119,31.676h-7.396l7.869-29.634h-6.226v5.454h-6.823v-12.028h20.694v4.532Z" fill="#ccc" stroke="#ccc" stroke-miterlimit="10"/>
    </g>
    <g>
      <path d="M1054.662,690.312h4.055v29.852h-2.797v-23.18l.113,1.314-3.123,18.54h-2.717l-3.123-18.129.113-1.725v23.18h-2.797v-29.852h4.055l3.111,20.12,3.109-20.12Z" fill="#ccc" stroke="#ccc" stroke-miterlimit="10"/>
      <path d="M1063.024,690.312h3.078v29.852h-3.078v-29.852ZM1064.135,690.312h9.828v5.42h-9.828v-5.42ZM1064.135,702.63h8.592v5.42h-8.592v-5.42ZM1064.135,714.743h9.828v5.42h-9.828v-5.42Z" fill="#ccc" stroke="#ccc" stroke-miterlimit="10"/>
      <path d="M1077.483,690.312h3.762l6.076,22.872-.27.534v-23.405h2.943v29.832h-3.785l-6.053-22.522.27-.534v23.057h-2.943v-29.832Z" fill="#ccc" stroke="#ccc" stroke-miterlimit="10"/>
      <path d="M1096.805,719.168c-.891-.869-1.568-2.135-2.033-3.798-.463-1.663-.695-3.665-.695-6.005v-19.053h3.076v19.196c0,1.711.252,3.039.754,3.983.5.944,1.209,1.417,2.121,1.417.922,0,1.635-.472,2.141-1.417.504-.945.758-2.272.758-3.983v-19.196h3.076v19.053c0,2.34-.234,4.342-.701,6.005-.469,1.663-1.15,2.929-2.045,3.798s-1.971,1.304-3.229,1.304-2.332-.435-3.223-1.304Z" fill="#ccc" stroke="#ccc" stroke-miterlimit="10"/>
    </g>
    <g>
      <rect x="168.912" y="537.878" width="70.435" height="25.043" fill="none"/>
      <path d="M177.179,539.043h4.281v22.719h-4.281v-22.719ZM179.054,557.637h7.25c.979,0,1.737-.236,2.273-.711.536-.474.805-1.138.805-1.992v-.047c0-.572-.12-1.062-.359-1.469-.24-.406-.591-.716-1.055-.93-.464-.213-1.019-.32-1.664-.32h-7.25v-4.125h7.25c.885,0,1.57-.224,2.055-.672.484-.447.727-1.078.727-1.891,0-.729-.242-1.297-.727-1.703s-1.169-.609-2.055-.609h-7.25v-4.125h7.391c1.469,0,2.724.242,3.766.727,1.042.484,1.833,1.188,2.375,2.109.542.922.812,2.029.812,3.32,0,.886-.175,1.67-.523,2.352-.349.683-.857,1.242-1.523,1.68-.667.438-1.469.734-2.406.891,1,.136,1.856.44,2.57.914.713.475,1.255,1.092,1.625,1.852.37.761.555,1.641.555,2.641v.047c0,1.303-.273,2.417-.82,3.344-.547.928-1.344,1.633-2.391,2.117s-2.305.727-3.773.727h-7.656v-4.125Z" fill="#ccc" stroke="#ccc" stroke-miterlimit="10"/>
      <path d="M198.828,539.027h4.281v22.734h-4.281v-22.734ZM200.531,548.496h7.906c.438,0,.823-.109,1.156-.328.333-.219.591-.531.773-.938.182-.406.278-.875.289-1.406,0-.531-.091-1-.273-1.406-.183-.406-.44-.719-.773-.938-.333-.219-.724-.328-1.172-.328h-7.906v-4.125h8.25c1.25,0,2.349.281,3.297.844.948.562,1.682,1.357,2.203,2.383.521,1.026.781,2.217.781,3.57s-.261,2.545-.781,3.57c-.521,1.026-1.258,1.82-2.211,2.383s-2.05.844-3.289.844h-8.25v-4.125ZM205.312,551.918l4.578-.719,6.125,10.562h-5.188l-5.516-9.844Z" fill="#ccc" stroke="#ccc" stroke-miterlimit="10"/>
      <path d="M217.554,539.043h16.656v4.125h-16.656v-4.125ZM223.741,540.902h4.281v20.859h-4.281v-20.859Z" fill="#ccc" stroke="#ccc" stroke-miterlimit="10"/>
    </g>
    <g>
      <rect x="1033.564" y="537.658" width="131" height="25.043" fill="none"/>
      <path d="M1046.285,560.735c-1.256-.692-2.227-1.672-2.914-2.938s-1.031-2.731-1.031-4.398v-6.438c0-1.666.344-3.133,1.031-4.398s1.658-2.244,2.914-2.938c1.255-.692,2.705-1.039,4.352-1.039s3.096.347,4.352,1.039c1.255.693,2.227,1.672,2.914,2.938s1.031,2.732,1.031,4.398v6.438c0,1.667-.344,3.133-1.031,4.398s-1.659,2.245-2.914,2.938c-1.256.693-2.706,1.039-4.352,1.039s-3.097-.346-4.352-1.039ZM1052.668,557c.583-.328,1.033-.794,1.352-1.398.317-.604.477-1.302.477-2.094v-6.656c0-.791-.159-1.489-.477-2.094-.318-.604-.769-1.07-1.352-1.398-.584-.328-1.261-.492-2.031-.492s-1.448.164-2.031.492c-.584.328-1.034.795-1.352,1.398-.318.604-.477,1.303-.477,2.094v6.656c0,.792.158,1.49.477,2.094.317.604.768,1.07,1.352,1.398.583.328,1.26.492,2.031.492s1.447-.164,2.031-.492Z" fill="#ccc" stroke="#ccc" stroke-miterlimit="10"/>
      <path d="M1064.145,538.82h4.281v22.719h-4.281v-22.719ZM1065.707,538.82h13.359v4.125h-13.359v-4.125ZM1065.707,548.399h11.641v4.125h-11.641v-4.125Z" fill="#ccc" stroke="#ccc" stroke-miterlimit="10"/>
      <path d="M1083.34,538.82h4.281v22.719h-4.281v-22.719ZM1084.902,538.82h13.359v4.125h-13.359v-4.125ZM1084.902,548.399h11.641v4.125h-11.641v-4.125Z" fill="#ccc" stroke="#ccc" stroke-miterlimit="10"/>
      <path d="M1103.316,565.852h-4.062l10.156-29.719h4.062l-10.156,29.719Z" fill="#ccc" stroke="#ccc" stroke-miterlimit="10"/>
      <path d="M1120.05,560.735c-1.256-.692-2.227-1.672-2.914-2.938s-1.031-2.731-1.031-4.398v-6.438c0-1.666.344-3.133,1.031-4.398s1.658-2.244,2.914-2.938c1.255-.692,2.705-1.039,4.352-1.039s3.096.347,4.352,1.039c1.255.693,2.227,1.672,2.914,2.938s1.031,2.732,1.031,4.398v6.438c0,1.667-.344,3.133-1.031,4.398s-1.659,2.245-2.914,2.938c-1.256.693-2.706,1.039-4.352,1.039s-3.097-.346-4.352-1.039ZM1126.433,557c.583-.328,1.033-.794,1.352-1.398.317-.604.477-1.302.477-2.094v-6.656c0-.791-.159-1.489-.477-2.094-.318-.604-.769-1.07-1.352-1.398-.584-.328-1.261-.492-2.031-.492s-1.448.164-2.031.492c-.584.328-1.034.795-1.352,1.398-.318.604-.477,1.303-.477,2.094v6.656c0,.792.158,1.49.477,2.094.317.604.768,1.07,1.352,1.398.583.328,1.26.492,2.031.492s1.447-.164,2.031-.492Z" fill="#ccc" stroke="#ccc" stroke-miterlimit="10"/>
      <path d="M1137.909,538.82h5.234l8.453,17.406-.375.406v-17.812h4.094v22.703h-5.266l-8.422-17.141.375-.406v17.547h-4.094v-22.703Z" fill="#ccc" stroke="#ccc" stroke-miterlimit="10"/>
    </g>
  </g>
  <g id="Layer_11">
    <g>
      <rect x="274.727" y="76.666" width="57.746" height="52.826" fill="none"/>
      <path d="M304.264,109.486v-4.694h-9.312v-2.822h9.312v-4.479l7.996,5.864-7.996,6.13Z" fill="#ccc" stroke="#ccc" stroke-miterlimit="10" stroke-width="1.5"/>
    </g>
    <g>
      <rect x="263.38" y="154.744" width="728.05" height="38.311" fill="none"/>
      <path d="M371.095,157.745v11.569h10.159v2.822h-10.159v15.661h18.483v2.822h-21.305v-35.695h21.305v2.822h-18.483Z" fill="#ccc" stroke="#ccc" stroke-miterlimit="10" stroke-width="1.5"/>
      <path d="M408.422,171.433h10.158v10.158c0,1.06,0,2.662-.92,4.134l-.125.19c-.552.833-1.122,1.693-2.439,2.516-.65.494-2.245,1.26-3.355,1.676-1.174.44-2.536.655-4.164.655s-2.99-.214-4.164-.655c-1.443-.542-2.624-1.191-3.512-1.93-1.246-.933-2.062-2.075-2.782-3.083l-.117-.193c-.652-1.302-.996-2.79-.996-4.299v-15.52c0-1.723.371-3.085,1.202-4.416.665-1.345,1.93-2.525,2.817-3.287,1.045-.871,2.307-1.343,3.526-1.801,1.175-.441,2.538-.656,4.167-.656s2.99.214,4.164.655c1.09.408,2.25.962,3.45,1.646l.146.096c1.449,1.088,2.492,2.253,3.096,3.461l-2.524,1.263c-.398-.796-1.136-1.607-2.195-2.413-1.027-.581-2.05-1.068-2.963-1.411-.852-.32-1.889-.476-3.173-.476s-2.322.154-3.173.474c-1.048.394-2.036.763-2.697,1.315-.686.59-1.679,1.507-2.18,2.51-.608.985-.839,1.858-.839,3.038v15.52c0,1.037.226,2.051.652,2.943.638.89,1.25,1.729,2.171,2.418.691.573,1.624,1.076,2.752,1.5.853.32,1.889.476,3.173.476s2.321-.155,3.173-.474c1.075-.403,2.341-1.051,2.753-1.36.896-.567,1.209-1.037,1.68-1.75l.107-.163c.468-.75.468-1.735.468-2.603v-7.336h-7.336v-2.819Z" fill="#ccc" stroke="#ccc" stroke-miterlimit="10" stroke-width="1.5"/>
      <path d="M434.749,157.763v30.193h6.913v2.822h-16.648v-2.822h6.914v-30.193h-6.914v-2.822h16.648v2.822h-6.913Z" fill="#ccc" stroke="#ccc" stroke-miterlimit="10" stroke-width="1.5"/>
      <path d="M484.217,176.651c.612,1.213.907,2.407.907,3.547,0,3.039-1.115,5.535-3.315,7.419-2.056,1.899-4.656,2.88-7.689,2.88h-.282c-2.86,0-5.495-1.017-7.832-3.021-1.826-1.545-2.361-2.91-2.749-3.906-.058-.145-.111-.285-.169-.419l2.593-1.113c.069.161.135.329.205.504.326.834.663,1.696,1.951,2.785,1.844,1.583,3.805,2.348,6.002,2.348h.282c2.333,0,4.237-.708,5.814-2.166,1.63-1.397,2.369-3.073,2.369-5.312,0-.694-.198-1.473-.557-2.191-.309-.506-.758-1.175-1.354-1.573-.686-.542-1.566-1.049-2.454-1.429-.576-.247-1.223-.446-1.974-.676-.416-.128-.851-.262-1.302-.412l-4.149-1.105c-2.236-.687-3.849-1.721-4.981-3.177-1.229-1.579-1.851-3.436-1.851-5.522,0-2.581,1.071-4.794,3.18-6.581,2.005-1.851,4.28-2.733,7.121-2.733h.281c2.853.165,5.234,1.143,7.162,2.909,1.464,1.301,2.351,2.857,2.692,4.739l-2.778.502c-.23-1.271-.786-2.242-1.805-3.148-1.452-1.331-3.25-2.061-5.354-2.186l-.199.003c-2.115,0-3.736.625-5.251,2.025-1.514,1.284-2.228,2.731-2.228,4.467,0,1.444.423,2.719,1.255,3.79.776.998,1.899,1.696,3.535,2.2l4.182,1.114c.512.167.924.293,1.319.415.795.244,1.545.474,2.26.78,1.125.481,2.219,1.117,3.006,1.747.962.636,1.64,1.623,2.162,2.493h-.003Z" fill="#ccc" stroke="#ccc" stroke-miterlimit="10" stroke-width="1.5"/>
      <path d="M498.609,171.029v13.262c0,1.111.26,2.143.661,2.624.473.552,1.713.903,2.583.903.85,0,1.757-.332,1.767-.334l.236-.089h.678v2.537l.074.195c-.014.005-.04.014-.074.027v.063h-.189c-.464.149-1.454.423-2.493.423-1.546,0-3.612-.588-4.739-1.903-1.198-1.439-1.326-3.587-1.326-4.445v-13.262h-4.233v-2.822h4.233v-6.208h2.822v6.208h6.349v2.822h-6.349Z" fill="#ccc" stroke="#ccc" stroke-miterlimit="10" stroke-width="1.5"/>
      <path d="M528.927,189.52h-2.822v-.085c-.153-.288-.263-.582-.331-1.123-1.255,1.216-2.83,2.015-4.657,2.319-.344.039-.678.059-1.008.059-1.416,0-2.77-.362-4.477-1.159-.797-.393-2.629-1.302-3.647-3.508-.924-2.217-.516-4.297-.369-4.885.621-3.436,3.256-5.164,4.248-5.814l.146-.096c.383-.289.805-.484,1.145-.64.147-.068.289-.125.409-.207l.275-.144c1.94-.747,4.449-1.112,7.632-1.108-.194-.974-.774-1.784-.93-1.939l-.103-.116c-.823-1.029-1.859-1.37-2.249-1.499-1.065-.291-2.16-.285-3.538.02-1.128.226-2.064.545-2.816.802l-.431.147c-.234.095-.481.22-.698.329-.313.158-.584.288-.854.377l-.893-2.677c.154-.051.305-.134.484-.223.278-.138.594-.296.99-.454l.488-.168c.831-.284,1.863-.636,3.145-.893,1.119-.247,2.877-.523,4.881.022.666.218,2.311.76,3.649,2.402.564.599,1.582,2.126,1.759,4.052l.003,1.115h.003c0,.098.008.299.02.583.068,1.725.107,3.595.039,5.361.006.348.011.712.019,1.051.032,1.685.063,3.262.063,4.715,0,1.575.079,1.924.094,1.979.107.181.233.434.31.892l.02.515.002-.004ZM520.73,187.84c1.701-.287,3.085-1.208,4.037-2.732.302-.464.71-1.667.831-4.807-.025-1.388-.046-2.833-.052-4.349-2.744-.061-4.977.287-6.574.875-.196.117-.409.219-.637.323-.263.122-.491.226-.697.381l-.229.153c-.849.556-2.614,1.714-3.039,4.048-.059.252-.399,1.724.196,3.156.581,1.254,1.681,1.798,2.209,2.061,1.918.896,2.928,1,3.952.889h.002Z" fill="#ccc" stroke="#ccc" stroke-miterlimit="10" stroke-width="1.5"/>
      <path d="M541.636,168.925c1.536-.854,3.084-.854,4.583-.854v2.822c-1.294,0-2.315,0-3.267.527-.809.405-1.351,1.107-2.028,2.195-1.472,2.504-2.466,4.671-2.466,7.012v10.017h-2.821v-17.918c0-.581-.167-2.953-.277-4.406l2.812-.216c.024.331.224,2.917.274,4.162.022-.036.042-.076.064-.113.776-1.241,1.638-2.484,3.125-3.228h0Z" fill="#ccc" stroke="#ccc" stroke-miterlimit="10" stroke-width="1.5"/>
      <path d="M559.711,171.029v13.262c0,1.111.26,2.143.662,2.624.473.552,1.713.903,2.583.903.85,0,1.757-.332,1.767-.334l.235-.089h.679v2.537l.073.195c-.014.005-.039.014-.073.027v.063h-.189c-.464.149-1.454.423-2.492.423-1.547,0-3.612-.588-4.739-1.903-1.198-1.439-1.326-3.587-1.326-4.445v-13.262h-4.232v-2.822h4.232v-6.208h2.821v6.208h6.35v2.822h-6.35Z" fill="#ccc" stroke="#ccc" stroke-miterlimit="10" stroke-width="1.5"/>
      <path d="M597.424,187.918v2.822h-9.03v-2.822h3.104v-28.956l-2.205,1.826-1.799-2.174,4.482-3.709h2.343v33.013h3.104Z" fill="#ccc" stroke="#ccc" stroke-miterlimit="10" stroke-width="1.5"/>
      <path d="M624.883,166.007v1.857l-18.202,18.061v.399l-.416.014-.015-.014h-2.391v-1.576l18.201-18.059v-.682h2.822Z" fill="#ccc" stroke="#ccc" stroke-miterlimit="10" stroke-width="1.5"/>
      <path d="M635.16,188.059h17.444v2.822h-21.305v-2.812l3.71-4.048c1.943-2.166,3.728-4.151,5.42-5.957.841-.841,1.684-1.824,2.497-2.775.852-.992,4.25-4.817,4.25-4.817.385-.388.603-.662.748-.842.086-.109.159-.196.22-.264.413-.526.761-1.192,1.006-1.928.233-.699.352-1.257.352-2.376,0-.961-.199-1.914-.591-2.831-.357-.947-.926-1.629-1.677-2.38-.856-.706-1.667-1.213-2.46-1.51-2.27-.851-3.797-.849-6.062,0-1.039.389-1.82.869-2.463,1.511-.74.741-1.336,1.585-1.676,2.38l-2.593-1.112c.485-1.133,1.272-2.262,2.274-3.263.925-.924,2.059-1.629,3.466-2.157,2.887-1.086,5.151-1.086,8.045,0,1.443.542,2.614,1.442,3.371,2.071.926.918,1.851,1.965,2.393,3.41.521,1.209.796,2.535.796,3.881,0,1.484-.19,2.35-.497,3.269-.354,1.064-.876,2.044-1.507,2.833l-.193.23c-.188.237-.473.591-.898,1.016.003,0-3.322,3.742-4.159,4.718-.85.991-1.727,2.015-2.613,2.901-1.649,1.759-3.418,3.73-5.349,5.879l-1.946,2.151h-.002Z" fill="#ccc" stroke="#ccc" stroke-miterlimit="10" stroke-width="1.5"/>
      <path d="M829.568,159.227h-8.888v31.463h-2.822v-31.463h-8.889v-2.822h20.599v2.822Z" fill="#ccc" stroke="#ccc" stroke-miterlimit="10" stroke-width="1.5"/>
      <path d="M849.971,176.326l8.148,13.498v.817h-2.111l-.507.306-8.622-14.278c-.062,0-.127.004-.188.004h-7.902v13.968h-2.821v-34.425h10.581c1.628,0,3.239.336,4.666.968,1.53.681,2.776,1.515,3.81,2.549.838.837,1.459,1.923,2.06,2.973l.074.15c.56,1.306.82,2.469.82,3.66,0,1.236-.283,2.55-.82,3.801-.472,1.1-1.251,2.239-2.134,3.122-.815.816-2.135,1.904-3.795,2.458-.417.186-.837.323-1.259.432h0ZM838.789,159.037v14.814h7.902c1.586,0,2.572-.165,3.518-.584,1.016-.346,1.971-.975,2.82-1.824.629-.631,1.205-1.469,1.536-2.24.387-.902.591-1.832.591-2.688,0-.788-.173-1.553-.56-2.476-.52-.908-1.009-1.754-1.566-2.312-.797-.797-1.738-1.422-2.961-1.966-1.066-.473-2.283-.725-3.519-.725h-7.762Z" fill="#ccc" stroke="#ccc" stroke-miterlimit="10" stroke-width="1.5"/>
      <path d="M886.543,189.82v.809h-2.13l-.497.292-11.768-20.003-4.794,5.169v14.26h-2.821v-32.874h2.821v14.463l13.78-14.858.426.395h2.019v1.119l-9.427,10.166,12.391,21.062Z" fill="#ccc" stroke="#ccc" stroke-miterlimit="10" stroke-width="1.5"/>
    </g>
    <g>
      <rect x="289.397" y="465.649" width="192.156" height="52.826" fill="none"/>
      <path d="M331.88,474.509v34.426h-2.942l-8.13-14.465-7.99,14.465h-2.949v-34.426h2.822v28.818l6.646-12.029h2.927l6.793,12.09v-28.879h2.822Z" fill="#ccc" stroke="#ccc" stroke-miterlimit="10" stroke-width="1.5"/>
      <path d="M350.706,489.595h10.158v10.159c0,1.06,0,2.662-.92,4.134l-.125.19c-.552.832-1.122,1.692-2.439,2.516-.65.493-2.245,1.26-3.355,1.676-1.174.44-2.536.654-4.164.654s-2.99-.214-4.164-.654c-1.443-.542-2.624-1.19-3.512-1.93-1.246-.933-2.062-2.076-2.782-3.083l-.117-.193c-.652-1.303-.996-2.789-.996-4.299v-15.52c0-1.723.371-3.086,1.202-4.417.665-1.344,1.93-2.525,2.817-3.287,1.045-.87,2.307-1.343,3.526-1.8,1.175-.441,2.538-.656,4.167-.656s2.99.215,4.164.654c1.09.408,2.25.963,3.45,1.646l.146.097c1.449,1.087,2.492,2.253,3.096,3.461l-2.524,1.263c-.398-.796-1.136-1.607-2.195-2.413-1.027-.581-2.05-1.068-2.963-1.411-.852-.32-1.889-.476-3.173-.476s-2.322.154-3.173.475c-1.048.394-2.036.763-2.697,1.314-.686.59-1.679,1.507-2.18,2.511-.608.984-.839,1.857-.839,3.037v15.52c0,1.037.226,2.052.652,2.943.638.891,1.25,1.729,2.171,2.418.691.573,1.624,1.077,2.752,1.5.853.32,1.889.476,3.173.476s2.321-.155,3.173-.474c1.075-.404,2.341-1.052,2.753-1.36.896-.567,1.209-1.037,1.68-1.75l.107-.162c.468-.75.468-1.735.468-2.603v-7.337h-7.336v-2.819Z" fill="#ccc" stroke="#ccc" stroke-miterlimit="10" stroke-width="1.5"/>
      <path d="M388.428,494.813c.612,1.214.907,2.407.907,3.547,0,3.039-1.115,5.535-3.315,7.42-2.056,1.899-4.656,2.88-7.689,2.88h-.282c-2.86,0-5.495-1.018-7.832-3.021-1.826-1.545-2.361-2.909-2.749-3.905-.058-.146-.111-.285-.169-.419l2.593-1.113c.069.16.135.328.205.503.326.834.663,1.696,1.951,2.785,1.844,1.583,3.805,2.348,6.002,2.348h.282c2.333,0,4.237-.708,5.814-2.165,1.63-1.397,2.369-3.073,2.369-5.312,0-.693-.198-1.473-.557-2.19-.309-.507-.758-1.176-1.354-1.573-.686-.542-1.566-1.05-2.454-1.43-.576-.247-1.223-.445-1.974-.676-.416-.128-.851-.263-1.302-.412l-4.149-1.104c-2.236-.688-3.849-1.722-4.981-3.177-1.229-1.579-1.851-3.436-1.851-5.522,0-2.581,1.071-4.794,3.18-6.581,2.005-1.851,4.28-2.732,7.121-2.732h.281c2.853.165,5.234,1.143,7.162,2.909,1.464,1.301,2.351,2.857,2.692,4.739l-2.778.502c-.23-1.271-.786-2.241-1.805-3.147-1.452-1.33-3.25-2.062-5.354-2.186l-.199.003c-2.115,0-3.736.625-5.251,2.024-1.514,1.284-2.228,2.731-2.228,4.467,0,1.445.423,2.719,1.255,3.79.776.997,1.899,1.695,3.535,2.199l4.182,1.115c.512.166.924.293,1.319.414.795.244,1.545.475,2.26.78,1.125.481,2.219,1.118,3.006,1.747.962.637,1.64,1.622,2.162,2.493h-.003Z" fill="#ccc" stroke="#ccc" stroke-miterlimit="10" stroke-width="1.5"/>
      <path d="M433.333,498.744c0,5.601-5.063,10.158-11.287,10.158s-11.287-4.558-11.287-10.158c0-3.786,2.317-7.089,5.738-8.835-2.772-1.64-4.609-4.465-4.609-7.673,0-5.057,4.557-9.171,10.158-9.171s10.158,4.114,10.158,9.171c0,3.208-1.838,6.033-4.609,7.673,3.421,1.746,5.738,5.049,5.738,8.835ZM430.511,498.744c0-4.046-3.797-7.337-8.465-7.337s-8.465,3.291-8.465,7.337,3.797,7.336,8.465,7.336,8.465-3.291,8.465-7.336ZM422.046,488.587c4.045,0,7.336-2.849,7.336-6.35s-3.292-6.349-7.336-6.349-7.336,2.849-7.336,6.349,3.292,6.35,7.336,6.35Z" fill="#ccc" stroke="#ccc" stroke-miterlimit="10" stroke-width="1.5"/>
      <path d="M457.261,497.616h3.81v2.822h-3.81v7.054h-2.822v-7.054h-14.673v-3.072l14.579-24.299h2.915v24.548h.001ZM454.438,478.395l-11.533,19.221h11.533v-19.221Z" fill="#ccc" stroke="#ccc" stroke-miterlimit="10" stroke-width="1.5"/>
    </g>
    <g id="symbol-leftbracket">
      <polyline id="polyline169" points="340.26 80.412 325.808 80.412 325.808 123.221 340.26 123.221" fill="none" stroke="#ccc" stroke-miterlimit="10" stroke-width="3"/>
    </g>
    <g id="symbol-rightbracket">
      <polyline id="polyline168" points="979.218 80.412 993.67 80.412 993.67 123.221 979.218 123.221" fill="none" stroke="#ccc" stroke-miterlimit="10" stroke-width="3"/>
    </g>
    <g>
      <rect x="934.792" y="202.39" width="79.64" height="52.826" fill="none"/>
      <path d="M978.895,214.131h-8.889v31.463h-2.821v-31.463h-8.89v-2.822h20.6v2.822Z" fill="#ccc" stroke="#ccc" stroke-miterlimit="10" stroke-width="1.5"/>
      <path d="M985.293,225.848c0-1.637,1.264-2.963,2.822-2.963s2.821,1.326,2.821,2.963-1.263,2.963-2.821,2.963-2.822-1.326-2.822-2.963ZM985.293,242.355c0-1.636,1.264-2.963,2.822-2.963s2.821,1.327,2.821,2.963-1.263,2.963-2.821,2.963-2.822-1.326-2.822-2.963Z" fill="#ccc" stroke="#ccc" stroke-miterlimit="10" stroke-width="1.5"/>
    </g>
    <g id="symbol-rightbracket-2" data-name="symbol-rightbracket">
      <polyline id="polyline168-2" data-name="polyline168" points="546.127 342.99 560.58 342.99 560.58 385.799 546.127 385.799" fill="none" stroke="#ccc" stroke-miterlimit="10" stroke-width="3"/>
    </g>
    <g>
      <rect x="539.456" y="334.071" width="94.876" height="52.826" fill="none"/>
      <path d="M588.016,358.017h10.158v10.158c0,1.06,0,2.662-.92,4.134l-.125.19c-.552.832-1.122,1.693-2.439,2.516-.65.494-2.245,1.26-3.355,1.676-1.174.44-2.536.655-4.164.655s-2.99-.215-4.164-.655c-1.443-.542-2.624-1.19-3.512-1.93-1.246-.933-2.062-2.075-2.782-3.083l-.117-.193c-.652-1.302-.996-2.789-.996-4.299v-15.52c0-1.723.371-3.086,1.202-4.416.665-1.345,1.93-2.525,2.817-3.288,1.045-.87,2.307-1.343,3.526-1.8,1.175-.441,2.538-.656,4.167-.656s2.99.215,4.164.655c1.09.407,2.25.962,3.45,1.646l.146.096c1.449,1.088,2.492,2.253,3.096,3.461l-2.524,1.263c-.398-.796-1.136-1.607-2.195-2.413-1.027-.581-2.05-1.067-2.963-1.41-.852-.32-1.889-.476-3.173-.476s-2.322.153-3.173.474c-1.048.394-2.036.764-2.697,1.315-.686.59-1.679,1.507-2.18,2.51-.608.984-.839,1.858-.839,3.037v15.521c0,1.036.226,2.051.652,2.942.638.891,1.25,1.729,2.171,2.419.691.572,1.624,1.076,2.752,1.499.853.32,1.889.476,3.173.476s2.321-.155,3.173-.474c1.075-.403,2.341-1.052,2.753-1.36.896-.567,1.209-1.037,1.68-1.749l.107-.163c.468-.75.468-1.735.468-2.603v-7.337h-7.336v-2.818Z" fill="#ccc" stroke="#ccc" stroke-miterlimit="10" stroke-width="1.5"/>
    </g>
    <g>
      <rect x="325.037" y="336.644" width="245.87" height="52.826" fill="none"/>
      <path d="M376.735,377.075v2.822h-9.029v-2.822h3.104v-28.956l-2.206,1.826-1.799-2.174,4.482-3.709h2.344v33.013h3.104Z" fill="#ccc" stroke="#ccc" stroke-miterlimit="10" stroke-width="1.5"/>
      <path d="M393.101,377.075v2.822h-9.029v-2.822h3.104v-28.956l-2.206,1.826-1.799-2.174,4.482-3.709h2.344v33.013h3.104Z" fill="#ccc" stroke="#ccc" stroke-miterlimit="10" stroke-width="1.5"/>
      <path d="M399.537,360.102c0-1.636,1.264-2.963,2.822-2.963s2.822,1.327,2.822,2.963-1.263,2.963-2.822,2.963-2.822-1.326-2.822-2.963ZM399.537,376.61c0-1.636,1.264-2.963,2.822-2.963s2.822,1.327,2.822,2.963-1.263,2.963-2.822,2.963-2.822-1.326-2.822-2.963Z" fill="#ccc" stroke="#ccc" stroke-miterlimit="10" stroke-width="1.5"/>
      <path d="M415.451,377.216h17.444v2.822h-21.304v-2.812l3.709-4.048c1.944-2.166,3.728-4.151,5.421-5.957.841-.841,1.683-1.824,2.497-2.775.851-.992,4.25-4.817,4.25-4.817.385-.388.603-.662.748-.842.086-.109.16-.196.22-.264.414-.526.761-1.192,1.006-1.928.233-.699.352-1.257.352-2.376,0-.961-.199-1.914-.591-2.831-.357-.947-.925-1.629-1.676-2.38-.856-.706-1.668-1.213-2.461-1.51-2.269-.851-3.796-.849-6.062,0-1.039.389-1.82.869-2.462,1.511-.741.741-1.336,1.585-1.676,2.38l-2.593-1.112c.485-1.133,1.273-2.262,2.274-3.263.926-.924,2.059-1.629,3.467-2.157,2.887-1.086,5.151-1.086,8.045,0,1.443.542,2.614,1.442,3.371,2.071.925.918,1.851,1.965,2.393,3.41.521,1.209.796,2.535.796,3.881,0,1.484-.19,2.35-.497,3.269-.354,1.064-.876,2.044-1.507,2.833l-.193.23c-.189.237-.473.591-.899,1.016.003,0-3.322,3.742-4.159,4.718-.849.991-1.727,2.015-2.613,2.901-1.649,1.759-3.419,3.73-5.349,5.879l-1.947,2.151h-.001Z" fill="#ccc" stroke="#ccc" stroke-miterlimit="10" stroke-width="1.5"/>
      <path d="M443.185,377.216h17.444v2.822h-21.304v-2.812l3.709-4.048c1.944-2.166,3.728-4.151,5.421-5.957.841-.841,1.683-1.824,2.497-2.775.851-.992,4.25-4.817,4.25-4.817.385-.388.603-.662.748-.842.086-.109.16-.196.22-.264.414-.526.761-1.192,1.006-1.928.233-.699.352-1.257.352-2.376,0-.961-.199-1.914-.591-2.831-.357-.947-.925-1.629-1.676-2.38-.856-.706-1.668-1.213-2.461-1.51-2.269-.851-3.796-.849-6.062,0-1.039.389-1.82.869-2.462,1.511-.741.741-1.336,1.585-1.676,2.38l-2.593-1.112c.485-1.133,1.273-2.262,2.274-3.263.926-.924,2.059-1.629,3.467-2.157,2.887-1.086,5.151-1.086,8.045,0,1.443.542,2.614,1.442,3.371,2.071.925.918,1.851,1.965,2.393,3.41.521,1.209.796,2.535.796,3.881,0,1.484-.19,2.35-.497,3.269-.354,1.064-.876,2.044-1.507,2.833l-.193.23c-.189.237-.473.591-.899,1.016.003,0-3.322,3.742-4.159,4.718-.849.991-1.727,2.015-2.613,2.901-1.649,1.759-3.419,3.73-5.349,5.879l-1.947,2.151h-.001Z" fill="#ccc" stroke="#ccc" stroke-miterlimit="10" stroke-width="1.5"/>
      <path d="M467.057,360.102c0-1.636,1.264-2.963,2.822-2.963s2.822,1.327,2.822,2.963-1.263,2.963-2.822,2.963-2.822-1.326-2.822-2.963ZM467.057,376.61c0-1.636,1.264-2.963,2.822-2.963s2.822,1.327,2.822,2.963-1.263,2.963-2.822,2.963-2.822-1.326-2.822-2.963Z" fill="#ccc" stroke="#ccc" stroke-miterlimit="10" stroke-width="1.5"/>
      <path d="M500.136,363.178c.533,1.246.794,3.653.794,4.869,0,1.301,0,2.16-.612,4.456-.541,2.157-1.648,3.609-2.482,4.443-.933.931-2.714,2.12-4.182,2.487-1.384.465-3.645.465-4.858.465-1.434,0-3.918-.808-4.93-1.242-1.184-.508-3.406-2.006-4.756-3.205l1.875-2.109c1.181,1.05,3.183,2.373,3.993,2.722.931.399,2.991,1.014,3.818,1.014.979,0,3.017,0,4.069-.351.903-.23,2.245-1.045,2.976-1.776.582-.58,1.357-1.6,1.745-3.153.522-1.958.522-2.52.522-3.749,0-1.252-.287-3.109-.591-3.819-.347-.92-.769-1.62-1.48-2.474-.62-.743-1.295-1.275-2.011-1.582-.887-.381-1.827-.733-2.689-.733h-3.81v-3.073l8.384-9.484h-12.898v-2.822h15.943v3.636l-7.884,8.92h.265c1.375,0,2.693.485,3.801.961,1.127.484,2.16,1.281,3.067,2.369.918,1.101,1.496,2.067,1.932,3.229h-.001Z" fill="#ccc" stroke="#ccc" stroke-miterlimit="10" stroke-width="1.5"/>
      <path d="M528.36,363.178c.533,1.246.794,3.653.794,4.869,0,1.301,0,2.16-.612,4.456-.541,2.157-1.648,3.609-2.482,4.443-.933.931-2.714,2.12-4.182,2.487-1.384.465-3.644.465-4.857.465-1.434,0-3.918-.808-4.93-1.242-1.184-.508-3.406-2.006-4.756-3.205l1.875-2.109c1.181,1.05,3.183,2.373,3.993,2.722.931.399,2.991,1.014,3.818,1.014.979,0,3.017,0,4.069-.351.903-.23,2.245-1.045,2.976-1.776.582-.58,1.357-1.6,1.746-3.153.522-1.958.522-2.52.522-3.749,0-1.252-.287-3.109-.591-3.819-.347-.92-.769-1.62-1.48-2.474-.62-.743-1.295-1.275-2.011-1.582-.887-.381-1.827-.733-2.689-.733h-3.81v-3.073l8.384-9.484h-12.898v-2.822h15.943v3.636l-7.884,8.92h.265c1.375,0,2.693.485,3.801.961,1.127.484,2.16,1.281,3.067,2.369.918,1.101,1.496,2.067,1.932,3.229h-.001Z" fill="#ccc" stroke="#ccc" stroke-miterlimit="10" stroke-width="1.5"/>
    </g>
    <g id="symbol-rightbracket-3" data-name="symbol-rightbracket">
      <polyline id="polyline168-3" data-name="polyline168" points="892.936 341.407 907.389 341.407 907.389 384.216 892.936 384.216" fill="none" stroke="#ccc" stroke-miterlimit="10" stroke-width="3"/>
    </g>
    <g id="symbol-leftbracket-2" data-name="symbol-leftbracket">
      <polyline id="polyline169-2" data-name="polyline169" points="794.007 340.591 779.554 340.591 779.554 383.4 794.007 383.4" fill="none" stroke="#ccc" stroke-miterlimit="10" stroke-width="3"/>
    </g>
    <g>
      <rect x="794.007" y="335.582" width="108.205" height="52.826" fill="none"/>
      <path d="M830.009,362.117c.533,1.245.794,3.652.794,4.869,0,1.301,0,2.159-.611,4.455-.541,2.157-1.648,3.609-2.482,4.443-.933.931-2.715,2.12-4.182,2.487-1.385.465-3.645.465-4.857.465-1.434,0-3.918-.808-4.93-1.241-1.184-.508-3.406-2.006-4.756-3.205l1.875-2.109c1.18,1.05,3.182,2.373,3.992,2.722.932.398,2.991,1.014,3.818,1.014.979,0,3.016,0,4.068-.351.903-.23,2.244-1.046,2.976-1.776.581-.58,1.357-1.601,1.745-3.153.522-1.959.522-2.521.522-3.749,0-1.253-.286-3.109-.591-3.819-.348-.92-.77-1.62-1.48-2.474-.619-.743-1.295-1.275-2.011-1.581-.888-.381-1.827-.733-2.688-.733h-3.811v-3.073l8.385-9.484h-12.898v-2.821h15.942v3.636l-7.884,8.92h.266c1.375,0,2.693.485,3.801.961,1.127.483,2.16,1.28,3.066,2.368.919,1.101,1.496,2.067,1.932,3.229v.002Z" fill="#ccc" stroke="#ccc" stroke-miterlimit="10" stroke-width="1.5"/>
      <path d="M857.975,358.387c.535,1.253.818,2.568.818,3.803v6.913c0,1.236-.283,2.55-.818,3.801-.523,1.221-1.387,2.391-2.368,3.209-.757.63-1.929,1.529-3.37,2.07-1.449.544-2.729.796-4.024.796-1.474,0-3.318-.318-4.587-.794-1.408-.529-2.541-1.234-3.465-2.159-.889-.731-1.751-1.901-2.274-3.122-.315-.626-.487-1.307-.636-1.906l-.043-.343v-1.27h2.822v1.097c.113.454.225.854.414,1.234.389.901.965,1.686,1.617,2.229.736.729,1.518,1.208,2.555,1.598.951.355,2.465.615,3.597.615.96,0,1.896-.19,3.032-.617.791-.297,1.604-.804,2.555-1.597.65-.543,1.228-1.329,1.582-2.153.387-.902.591-1.832.591-2.688v-6.914c0-.856-.204-1.786-.591-2.69-.354-.823-.93-1.608-1.582-2.151-.736-.727-1.518-1.208-2.555-1.596l-.432-.166c-.789-.31-1.15-.45-2.601-.45-1.769,0-3.187.378-4.462,1.19-.953.596-1.795,1.438-2.384,2.379l-.415.663h-3.744v-16.366h21.305v2.821h-18.482v9.983c.646-.722,1.394-1.354,2.215-1.867,1.714-1.093,3.671-1.626,5.968-1.626,1.886,0,2.607.244,3.628.644l.395.152c1.408.527,2.541,1.233,3.465,2.157.888.732,1.752,1.9,2.275,3.121h0Z" fill="#ccc" stroke="#ccc" stroke-miterlimit="10" stroke-width="1.5"/>
      <path d="M886.25,349c.652,1.301.996,2.788.996,4.299v15.379c0,1.511-.344,2.999-.996,4.3-.609,1.223-1.531,2.366-2.741,3.403-1.079.898-2.239,1.511-3.461,1.83-1.114.406-2.315.612-3.665.625h-.141c-1.509-.012-2.711-.215-3.882-.653-1.272-.479-2.405-1.127-3.37-1.932-1.225-1.048-2.148-2.193-2.759-3.416-.651-1.301-.996-2.787-.996-4.297v-15.379c0-1.51.346-2.997.996-4.299.61-1.222,1.534-2.367,2.743-3.403,1.078-.9,2.238-1.511,3.461-1.83,1.152-.42,2.398-.626,3.807-.626,1.51,0,2.863.219,4.021.653,1.273.477,2.406,1.127,3.372,1.932,1.073.918,1.925,2.033,2.616,3.414h-.002ZM868.059,353.158v13.917l16.189-15.351c-.117-.514-.292-1.006-.521-1.463-.526-1.055-1.134-1.855-1.913-2.523-.705-.588-1.566-1.077-2.539-1.443-.828-.311-1.877-.474-3.033-.474-1.108,0-2.027.15-2.891.474l-.152.048c-.836.209-1.643.636-2.402,1.268-.907.777-1.599,1.627-2.04,2.51-.457.914-.698,1.964-.698,3.038ZM884.426,368.678v-13.232l-16.033,15.202c.102.32.219.632.365.927.441.884,1.133,1.732,2.057,2.522.705.588,1.564,1.077,2.539,1.443.857.322,1.771.469,2.957.475,1.078-.006,1.977-.156,2.823-.475l.152-.048c.837-.208,1.644-.635,2.403-1.267.905-.777,1.597-1.627,2.038-2.51.457-.913.698-1.963.698-3.038Z" fill="#ccc" stroke="#ccc" stroke-miterlimit="10" stroke-width="1.5"/>
    </g>
    <g>
      <rect x="297.284" y="537.606" width="48.49" height="58.293" fill="none"/>
      <path d="M323.832,584.198h6.765l-8.859,12.077-9.257-12.077h7.09v-11.934h-7.18l9.347-11.789,8.944,11.789h-6.85v11.934Z" fill="#ccc" stroke="#ccc" stroke-miterlimit="10"/>
    </g>
    <g id="symbol-rightbracket-4" data-name="symbol-rightbracket">
      <polyline id="polyline168-4" data-name="polyline168" points="961.499 556.436 975.952 556.436 975.952 599.245 961.499 599.245" fill="none" stroke="#ccc" stroke-miterlimit="10" stroke-width="3"/>
    </g>
    <g id="symbol-leftbracket-3" data-name="symbol-leftbracket">
      <polyline id="polyline169-3" data-name="polyline169" points="359.952 557.248 345.499 557.248 345.499 600.056 359.952 600.056" fill="none" stroke="#ccc" stroke-miterlimit="10" stroke-width="3"/>
    </g>
    <g>
      <rect x="305.948" y="76.775" width="671.395" height="52.826" fill="none"/>
      <path d="M374.388,85.451v34.455h-2.799l-16.389-29.029v29.005h-2.822v-34.285h3.082l16.106,28.528v-28.675h2.822Z" fill="#ccc" stroke="#ccc" stroke-miterlimit="10" stroke-width="1.5"/>
      <path d="M413.287,108.742h3.81v2.822h-3.81v7.055h-2.822v-7.055h-14.673v-3.071l14.579-24.3h2.915v24.548h.001ZM410.464,89.521l-11.533,19.22h11.533v-19.22Z" fill="#ccc" stroke="#ccc" stroke-miterlimit="10" stroke-width="1.5"/>
      <path d="M427.386,117.347h17.444v2.822h-21.304v-2.812l3.709-4.048c1.944-2.166,3.728-4.151,5.421-5.957.841-.841,1.683-1.824,2.497-2.775.851-.992,4.25-4.817,4.25-4.817.385-.388.603-.662.748-.842.086-.109.16-.196.22-.264.414-.526.761-1.192,1.006-1.928.233-.699.352-1.257.352-2.376,0-.961-.199-1.914-.591-2.831-.357-.947-.925-1.629-1.676-2.38-.856-.706-1.668-1.213-2.461-1.51-2.269-.851-3.796-.849-6.062,0-1.039.389-1.82.869-2.462,1.511-.741.741-1.336,1.585-1.676,2.38l-2.593-1.112c.485-1.133,1.273-2.262,2.274-3.263.926-.924,2.059-1.629,3.467-2.157,2.887-1.086,5.151-1.086,8.045,0,1.443.542,2.614,1.442,3.371,2.071.925.918,1.851,1.965,2.393,3.41.521,1.209.796,2.535.796,3.881,0,1.484-.19,2.35-.497,3.269-.354,1.064-.876,2.044-1.507,2.833l-.193.23c-.189.237-.473.591-.899,1.016.003,0-3.322,3.742-4.159,4.718-.849.991-1.727,2.015-2.613,2.901-1.649,1.759-3.419,3.73-5.349,5.879l-1.947,2.151h-.001Z" fill="#ccc" stroke="#ccc" stroke-miterlimit="10" stroke-width="1.5"/>
      <path d="M463.957,92.614c0,3.5-2.849,6.349-6.349,6.349s-6.349-2.849-6.349-6.349,2.849-6.349,6.349-6.349,6.349,2.849,6.349,6.349ZM461.135,92.614c0-1.944-1.583-3.527-3.527-3.527s-3.527,1.583-3.527,3.527,1.583,3.527,3.527,3.527,3.527-1.583,3.527-3.527Z" fill="#ccc" stroke="#ccc" stroke-miterlimit="10" stroke-width="1.5"/>
      <path d="M491.395,103.309c.533,1.246.794,3.653.794,4.869,0,1.301,0,2.16-.612,4.456-.541,2.157-1.648,3.609-2.482,4.443-.933.931-2.714,2.12-4.182,2.487-1.384.465-3.645.465-4.858.465-1.434,0-3.918-.808-4.93-1.242-1.184-.508-3.406-2.006-4.756-3.205l1.875-2.109c1.181,1.05,3.183,2.373,3.993,2.722.931.399,2.991,1.014,3.818,1.014.979,0,3.017,0,4.069-.351.903-.23,2.245-1.045,2.976-1.776.582-.58,1.357-1.6,1.745-3.153.522-1.958.522-2.52.522-3.749,0-1.252-.287-3.109-.591-3.819-.347-.92-.769-1.62-1.48-2.474-.62-.743-1.295-1.275-2.011-1.582-.887-.381-1.827-.733-2.689-.733h-3.81v-3.073l8.384-9.484h-12.898v-2.822h15.943v3.636l-7.884,8.92h.265c1.375,0,2.693.485,3.801.961,1.127.484,2.16,1.281,3.067,2.369.918,1.101,1.496,2.067,1.932,3.229h-.001Z" fill="#ccc" stroke="#ccc" stroke-miterlimit="10" stroke-width="1.5"/>
      <path d="M519.359,99.58c.536,1.253.819,2.568.819,3.802v6.914c0,1.236-.283,2.549-.819,3.801-.522,1.22-1.386,2.39-2.368,3.208-.756.63-1.929,1.529-3.371,2.071-1.449.543-2.729.796-4.024.796-1.474,0-3.318-.319-4.587-.794-1.408-.529-2.541-1.234-3.465-2.159-.889-.732-1.751-1.902-2.274-3.122-.316-.626-.487-1.307-.636-1.906l-.042-.343v-1.27h2.822v1.096c.114.454.226.855.415,1.234.388.901.965,1.686,1.617,2.229.736.728,1.518,1.208,2.555,1.597.951.355,2.465.615,3.596.615.959,0,1.895-.19,3.032-.617.792-.297,1.604-.804,2.555-1.597.65-.543,1.227-1.329,1.582-2.153.386-.903.591-1.833.591-2.689v-6.914c0-.856-.205-1.786-.591-2.69-.353-.824-.93-1.608-1.582-2.151-.737-.727-1.519-1.208-2.555-1.596l-.432-.167c-.789-.309-1.15-.45-2.601-.45-1.769,0-3.187.378-4.462,1.191-.953.595-1.795,1.438-2.383,2.378l-.415.663h-3.745v-16.366h21.304v2.822h-18.482v9.983c.646-.722,1.394-1.354,2.215-1.868,1.714-1.092,3.671-1.625,5.968-1.625,1.886,0,2.607.244,3.627.643l.395.152c1.408.528,2.541,1.233,3.465,2.158.887.732,1.751,1.9,2.274,3.121h0Z" fill="#ccc" stroke="#ccc" stroke-miterlimit="10" stroke-width="1.5"/>
      <path d="M526.62,116.74c0-1.636,1.264-2.963,2.822-2.963s2.822,1.327,2.822,2.963-1.263,2.963-2.822,2.963-2.822-1.326-2.822-2.963Z" fill="#ccc" stroke="#ccc" stroke-miterlimit="10" stroke-width="1.5"/>
      <path d="M556.169,108.742h3.809v2.822h-3.809v7.055h-2.822v-7.055h-14.673v-3.071l14.579-24.3h2.915v24.548h.001ZM553.345,89.521l-11.533,19.22h11.533v-19.22Z" fill="#ccc" stroke="#ccc" stroke-miterlimit="10" stroke-width="1.5"/>
      <path d="M723.359,85.635v34.425h-2.942l-8.13-14.464-7.989,14.464h-2.948v-34.425h2.821v28.818l6.646-12.029h2.928l6.793,12.09v-28.879h2.822Z" fill="#ccc" stroke="#ccc" stroke-miterlimit="10" stroke-width="1.5"/>
      <path d="M754.692,117.206v2.822h-9.03v-2.822h3.104v-28.956l-2.205,1.826-1.799-2.174,4.482-3.709h2.343v33.013h3.104Z" fill="#ccc" stroke="#ccc" stroke-miterlimit="10" stroke-width="1.5"/>
      <path d="M782.145,90.192c.651,1.301.996,2.788.996,4.299v15.378c0,1.511-.345,3-.996,4.3-.609,1.222-1.532,2.366-2.741,3.403-1.08.898-2.239,1.511-3.461,1.83-1.115.406-2.315.612-3.666.625h-.141c-1.509-.011-2.711-.214-3.882-.653-1.272-.479-2.405-1.127-3.37-1.932-1.225-1.048-2.147-2.194-2.759-3.416-.651-1.301-.996-2.788-.996-4.297v-15.378c0-1.51.346-2.997.996-4.299.611-1.222,1.534-2.367,2.743-3.403,1.079-.9,2.239-1.511,3.461-1.83,1.152-.42,2.398-.626,3.807-.626,1.511,0,2.864.219,4.022.653,1.272.477,2.405,1.127,3.372,1.932,1.073.918,1.924,2.033,2.615,3.414h0ZM763.952,94.35v13.917l16.19-15.351c-.117-.514-.292-1.006-.521-1.463-.526-1.054-1.135-1.855-1.913-2.523-.706-.588-1.566-1.078-2.54-1.443-.828-.311-1.877-.474-3.032-.474-1.108,0-2.027.151-2.891.474l-.152.048c-.837.209-1.644.635-2.403,1.267-.906.777-1.598,1.627-2.04,2.51-.457.914-.698,1.964-.698,3.038ZM780.32,109.871v-13.233l-16.033,15.203c.102.32.219.632.365.927.441.883,1.133,1.732,2.056,2.522.705.587,1.564,1.077,2.539,1.443.858.322,1.772.469,2.958.474,1.077-.005,1.977-.156,2.823-.474l.152-.048c.836-.208,1.644-.635,2.402-1.267.905-.777,1.597-1.626,2.039-2.51.457-.913.698-1.962.698-3.038Z" fill="#ccc" stroke="#ccc" stroke-miterlimit="10" stroke-width="1.5"/>
      <path d="M812.122,109.87c0,5.601-5.064,10.158-11.287,10.158s-11.287-4.557-11.287-10.158c0-3.785,2.316-7.088,5.737-8.835-2.772-1.64-4.609-4.464-4.609-7.672,0-5.057,4.558-9.171,10.159-9.171s10.158,4.114,10.158,9.171c0,3.208-1.839,6.033-4.609,7.672,3.421,1.747,5.738,5.05,5.738,8.835ZM809.3,109.87c0-4.045-3.797-7.336-8.465-7.336s-8.466,3.292-8.466,7.336,3.797,7.336,8.466,7.336,8.465-3.292,8.465-7.336ZM800.835,99.713c4.045,0,7.336-2.849,7.336-6.349s-3.291-6.349-7.336-6.349-7.337,2.849-7.337,6.349,3.291,6.349,7.337,6.349Z" fill="#ccc" stroke="#ccc" stroke-miterlimit="10" stroke-width="1.5"/>
      <path d="M831.253,92.614c0,3.5-2.849,6.349-6.349,6.349s-6.349-2.849-6.349-6.349,2.849-6.349,6.349-6.349,6.349,2.849,6.349,6.349ZM828.432,92.614c0-1.944-1.583-3.527-3.527-3.527s-3.527,1.583-3.527,3.527,1.583,3.527,3.527,3.527,3.527-1.583,3.527-3.527Z" fill="#ccc" stroke="#ccc" stroke-miterlimit="10" stroke-width="1.5"/>
      <path d="M862.588,117.206v2.822h-9.03v-2.822h3.104v-28.956l-2.205,1.826-1.799-2.174,4.482-3.709h2.343v33.013h3.104Z" fill="#ccc" stroke="#ccc" stroke-miterlimit="10" stroke-width="1.5"/>
      <path d="M889.791,99.58c.536,1.253.819,2.568.819,3.802v6.914c0,1.236-.283,2.549-.819,3.801-.522,1.22-1.386,2.39-2.367,3.208-.757.63-1.929,1.529-3.371,2.071-1.449.543-2.729.796-4.023.796-1.475,0-3.318-.319-4.587-.794-1.408-.529-2.541-1.234-3.466-2.159-.889-.732-1.75-1.902-2.273-3.122-.316-.626-.487-1.307-.637-1.906l-.042-.343v-1.27h2.821v1.096c.114.454.226.855.415,1.234.388.901.965,1.686,1.617,2.229.736.728,1.518,1.208,2.555,1.597.951.355,2.465.615,3.597.615.959,0,1.895-.19,3.031-.617.792-.297,1.604-.804,2.556-1.597.65-.543,1.228-1.329,1.581-2.153.387-.903.592-1.833.592-2.689v-6.914c0-.856-.205-1.786-.592-2.69-.353-.824-.93-1.608-1.581-2.151-.736-.727-1.519-1.208-2.556-1.596l-.432-.167c-.788-.309-1.149-.45-2.6-.45-1.77,0-3.188.378-4.463,1.191-.952.595-1.795,1.438-2.383,2.378l-.415.663h-3.744v-16.366h21.304v2.822h-18.482v9.983c.646-.722,1.394-1.354,2.215-1.868,1.715-1.092,3.672-1.625,5.969-1.625,1.886,0,2.606.244,3.627.643l.396.152c1.407.528,2.541,1.233,3.465,2.158.888.732,1.751,1.9,2.274,3.121h0Z" fill="#ccc" stroke="#ccc" stroke-miterlimit="10" stroke-width="1.5"/>
      <path d="M897.051,116.74c0-1.636,1.263-2.963,2.821-2.963s2.822,1.327,2.822,2.963-1.264,2.963-2.822,2.963-2.821-1.326-2.821-2.963Z" fill="#ccc" stroke="#ccc" stroke-miterlimit="10" stroke-width="1.5"/>
      <path d="M930.131,103.309c.533,1.246.794,3.653.794,4.869,0,1.301,0,2.16-.612,4.456-.54,2.157-1.647,3.609-2.481,4.443-.933.931-2.715,2.12-4.182,2.487-1.385.465-3.645.465-4.857.465-1.434,0-3.919-.808-4.93-1.242-1.185-.508-3.406-2.006-4.757-3.205l1.875-2.109c1.182,1.05,3.184,2.373,3.993,2.722.932.399,2.991,1.014,3.817,1.014.979,0,3.017,0,4.069-.351.903-.23,2.245-1.045,2.976-1.776.581-.58,1.357-1.6,1.745-3.153.522-1.958.522-2.52.522-3.749,0-1.252-.286-3.109-.592-3.819-.347-.92-.769-1.62-1.479-2.474-.619-.743-1.295-1.275-2.011-1.582-.888-.381-1.827-.733-2.689-.733h-3.809v-3.073l8.383-9.484h-12.898v-2.822h15.943v3.636l-7.884,8.92h.265c1.376,0,2.694.485,3.802.961,1.127.484,2.16,1.281,3.066,2.369.919,1.101,1.496,2.067,1.932,3.229h0Z" fill="#ccc" stroke="#ccc" stroke-miterlimit="10" stroke-width="1.5"/>
    </g>
    <g id="symbol-leftbracket-4" data-name="symbol-leftbracket">
      <polyline id="polyline169-4" data-name="polyline169" points="308.995 209.084 294.542 209.084 294.542 251.893 308.995 251.893" fill="none" stroke="#ccc" stroke-miterlimit="10" stroke-width="3"/>
    </g>
    <g id="symbol-rightbracket-5" data-name="symbol-rightbracket">
      <polyline id="polyline168-5" data-name="polyline168" points="537.933 209.084 552.386 209.084 552.386 251.893 537.933 251.893" fill="none" stroke="#ccc" stroke-miterlimit="10" stroke-width="3"/>
    </g>
    <g>
      <rect x="250.92" y="211.402" width="352.174" height="38.311" fill="none"/>
      <path d="M333.132,244.576v2.822h-9.029v-2.822h3.104v-28.956l-2.206,1.826-1.799-2.174,4.482-3.709h2.344v33.013h3.104Z" fill="#ccc" stroke="#ccc" stroke-miterlimit="10" stroke-width="1.5"/>
      <path d="M360.584,217.562c.652,1.301.996,2.788.996,4.299v15.378c0,1.511-.344,3-.996,4.3-.61,1.222-1.532,2.366-2.742,3.403-1.079.898-2.239,1.511-3.461,1.83-1.114.406-2.315.612-3.665.625h-.141c-1.508-.011-2.71-.214-3.881-.653-1.273-.479-2.406-1.127-3.371-1.932-1.225-1.048-2.147-2.194-2.758-3.416-.652-1.301-.996-2.788-.996-4.297v-15.378c0-1.51.346-2.997.996-4.299.611-1.222,1.533-2.367,2.743-3.403,1.079-.9,2.239-1.511,3.461-1.83,1.152-.42,2.398-.626,3.807-.626,1.511,0,2.864.219,4.022.653,1.273.477,2.406,1.127,3.372,1.932,1.074.918,1.925,2.033,2.616,3.414h0ZM342.392,221.72v13.917l16.189-15.351c-.117-.514-.292-1.006-.521-1.463-.526-1.054-1.134-1.855-1.913-2.523-.706-.588-1.566-1.078-2.54-1.443-.828-.311-1.876-.474-3.032-.474-1.109,0-2.027.151-2.891.474l-.152.048c-.837.209-1.644.635-2.403,1.267-.907.777-1.599,1.627-2.04,2.51-.457.914-.698,1.964-.698,3.038ZM358.759,237.241v-13.233l-16.033,15.203c.102.32.219.632.366.927.441.883,1.133,1.732,2.056,2.522.705.587,1.564,1.077,2.54,1.443.858.322,1.772.469,2.957.474,1.078-.005,1.977-.156,2.823-.474l.152-.048c.837-.208,1.644-.635,2.403-1.267.906-.777,1.597-1.626,2.039-2.51.457-.913.698-1.962.698-3.038Z" fill="#ccc" stroke="#ccc" stroke-miterlimit="10" stroke-width="1.5"/>
      <path d="M389.011,222.665v1.857l-18.202,18.061v.399l-.416.014-.014-.014h-2.392v-1.576l18.202-18.059v-.682h2.821Z" fill="#ccc" stroke="#ccc" stroke-miterlimit="10" stroke-width="1.5"/>
      <path d="M416.443,217.562c.652,1.301.996,2.788.996,4.299v15.378c0,1.511-.344,3-.996,4.3-.61,1.222-1.532,2.366-2.742,3.403-1.079.898-2.239,1.511-3.461,1.83-1.114.406-2.315.612-3.665.625h-.141c-1.508-.011-2.71-.214-3.881-.653-1.273-.479-2.406-1.127-3.371-1.932-1.225-1.048-2.147-2.194-2.758-3.416-.652-1.301-.996-2.788-.996-4.297v-15.378c0-1.51.346-2.997.996-4.299.611-1.222,1.533-2.367,2.743-3.403,1.079-.9,2.239-1.511,3.461-1.83,1.152-.42,2.398-.626,3.807-.626,1.511,0,2.864.219,4.022.653,1.273.477,2.406,1.127,3.372,1.932,1.074.918,1.925,2.033,2.616,3.414h0ZM398.252,221.72v13.917l16.189-15.351c-.117-.514-.292-1.006-.521-1.463-.526-1.054-1.134-1.855-1.913-2.523-.706-.588-1.566-1.078-2.54-1.443-.828-.311-1.876-.474-3.032-.474-1.109,0-2.027.151-2.891.474l-.152.048c-.837.209-1.644.635-2.403,1.267-.907.777-1.599,1.627-2.04,2.51-.457.914-.698,1.964-.698,3.038ZM414.619,237.241v-13.233l-16.033,15.203c.102.32.219.632.366.927.441.883,1.133,1.732,2.056,2.522.705.587,1.564,1.077,2.54,1.443.858.322,1.772.469,2.957.474,1.078-.005,1.977-.156,2.823-.474l.152-.048c.837-.208,1.644-.635,2.403-1.267.906-.777,1.597-1.626,2.039-2.51.457-.913.698-1.962.698-3.038Z" fill="#ccc" stroke="#ccc" stroke-miterlimit="10" stroke-width="1.5"/>
      <path d="M445.004,231.882c.786,1.374.892,2.695.892,3.804v1.27c0,1.194-.261,2.356-.819,3.66l-.072.144c-.645,1.13-1.466,2.114-2.438,2.923-.889.741-2.069,1.39-3.511,1.93-1.175.44-2.536.655-4.164.655-1.394,0-2.751-.292-4.011-.607l-.152-.048c-1.442-.541-2.625-1.191-3.512-1.93-.973-.81-1.792-1.794-2.438-2.923-.786-1.374-.892-2.693-.892-3.804-.01-.196-.276-6.381.738-11.023,1.355-5.868,7.734-12.25,11.82-14.607l1.409,2.443c-3.625,2.091-9.364,7.966-10.476,12.781-.185.844-.322,1.757-.425,2.678.24-.21.492-.412.756-.605.745-.597,2.188-1.421,3.41-1.771,1.229-.353,6.465-.375,7.937.176,1.44.54,2.623,1.191,3.512,1.931.972.81,1.793,1.795,2.438,2.924h0ZM443.077,236.959v-1.27c0-1.075-.145-1.749-.519-2.404-.478-.835-1.081-1.562-1.795-2.156-.636-.531-1.568-1.034-2.696-1.456-.826-.293-5.349-.322-6.174-.106-.812.233-1.913.855-2.466,1.296-1.693,1.243-2.717,2.917-2.717,4.401h-.035c.006.983.034,1.611.034,1.629,0,1.14.146,1.813.521,2.468.479.835,1.082,1.562,1.795,2.156.619.518,1.525,1.01,2.621,1.428,1.062.264,2.186.502,3.247.502,1.283,0,2.32-.155,3.173-.474,1.129-.425,2.062-.927,2.696-1.456.693-.577,1.283-1.28,1.755-2.087.385-.918.559-1.683.559-2.472h0Z" fill="#ccc" stroke="#ccc" stroke-miterlimit="10" stroke-width="1.5"/>
      <path d="M473.339,222.665v1.857l-18.202,18.061v.399l-.416.014-.015-.014h-2.391v-1.576l18.201-18.059v-.682h2.822Z" fill="#ccc" stroke="#ccc" stroke-miterlimit="10" stroke-width="1.5"/>
      <path d="M501.028,232.18c-1.353,5.868-7.733,12.25-11.819,14.607l-1.409-2.443c3.626-2.092,9.365-7.966,10.476-12.781.186-.844.322-1.757.425-2.678-.239.21-.491.412-.755.605-.745.597-2.187,1.421-3.41,1.771-1.23.352-6.466.374-7.936-.176-1.443-.542-2.625-1.191-3.514-1.932-.972-.81-1.793-1.794-2.438-2.923-.786-1.373-.892-2.693-.892-3.804v-1.27c0-1.194.261-2.356.819-3.66l.072-.144c.645-1.13,1.466-2.114,2.438-2.923.888-.739,2.068-1.388,3.512-1.93,1.174-.44,2.535-.655,4.164-.655,1.393,0,2.749.292,4.011.607l.152.048c1.443.542,2.624,1.191,3.512,1.93.972.81,1.793,1.793,2.438,2.923.785,1.373.892,2.693.892,3.804.01.197.277,6.381-.738,11.024ZM498.943,222.851h.035c-.006-.983-.034-1.61-.034-1.629,0-1.142-.146-1.814-.521-2.468-.479-.838-1.082-1.563-1.795-2.157-.62-.518-1.524-1.01-2.621-1.428-.992-.246-2.135-.502-3.246-.502-1.284,0-2.321.155-3.174.474-1.128.425-2.061.927-2.694,1.456-.694.577-1.284,1.28-1.755,2.086-.386.919-.559,1.684-.559,2.472v1.27c0,1.077.145,1.751.519,2.404.478.835,1.081,1.562,1.795,2.156.637.531,1.567,1.033,2.696,1.456.826.295,5.35.323,6.174.106.812-.233,1.913-.855,2.466-1.297,1.692-1.243,2.715-2.915,2.715-4.4h0Z" fill="#ccc" stroke="#ccc" stroke-miterlimit="10" stroke-width="1.5"/>
      <path d="M530.798,237.239c0,5.601-5.064,10.158-11.287,10.158s-11.287-4.557-11.287-10.158c0-3.785,2.316-7.088,5.737-8.835-2.772-1.64-4.609-4.464-4.609-7.672,0-5.057,4.558-9.171,10.159-9.171s10.158,4.114,10.158,9.171c0,3.208-1.839,6.033-4.609,7.672,3.421,1.747,5.738,5.05,5.738,8.835ZM527.976,237.239c0-4.045-3.797-7.336-8.465-7.336s-8.466,3.292-8.466,7.336,3.797,7.336,8.466,7.336,8.465-3.292,8.465-7.336ZM519.511,227.083c4.045,0,7.336-2.849,7.336-6.349s-3.291-6.349-7.336-6.349-7.337,2.849-7.337,6.349,3.291,6.349,7.337,6.349Z" fill="#ccc" stroke="#ccc" stroke-miterlimit="10" stroke-width="1.5"/>
    </g>
    <g>
      <rect x="546.757" y="203.99" width="110.492" height="52.826" fill="none"/>
      <path d="M584.236,215.73h-8.889v31.463h-2.821v-31.463h-8.889v-2.821h20.599v2.821Z" fill="#ccc" stroke="#ccc" stroke-miterlimit="10" stroke-width="1.5"/>
      <path d="M612.647,212.85v24.406c0,1.562-.366,3.062-1.033,4.229-.573,1.151-1.496,2.297-2.706,3.334-1.019.851-2.119,1.322-3.185,1.777-1.233.465-2.501.679-3.94.679-1.512,0-2.867-.22-4.024-.654-1.271-.476-2.406-1.126-3.37-1.929-1.026-.882-2.059-1.877-2.757-3.276-.67-1.339-.996-2.7-.996-4.157v-24.408h2.822v24.408c0,1.023.222,1.943.699,2.896.448.899,1.146,1.602,2.054,2.382.706.587,1.566,1.076,2.54,1.442.828.312,1.876.476,3.032.476,1.107,0,2.028-.151,2.89-.475.859-.371,1.727-.742,2.414-1.314.907-.779,1.6-1.627,2.04-2.511.457-.804.698-1.835.698-2.896v-24.408h2.824Z" fill="#ccc" stroke="#ccc" stroke-miterlimit="10" stroke-width="1.5"/>
      <path d="M621.877,214.248v11.569h10.158v2.822h-10.158v15.66h18.482v2.822h-21.304v-35.695h21.304v2.821h-18.482Z" fill="#ccc" stroke="#ccc" stroke-miterlimit="10" stroke-width="1.5"/>
    </g>
    <g id="symbol-rightbracket-6" data-name="symbol-rightbracket">
      <polyline id="polyline168-6" data-name="polyline168" points="929.924 209.939 944.377 209.939 944.377 252.748 929.924 252.748" fill="none" stroke="#ccc" stroke-miterlimit="10" stroke-width="3"/>
    </g>
    <g id="symbol-leftbracket-5" data-name="symbol-leftbracket">
      <polyline id="polyline169-5" data-name="polyline169" points="799.69 209.123 785.238 209.123 785.238 251.932 799.69 251.932" fill="none" stroke="#ccc" stroke-miterlimit="10" stroke-width="3"/>
    </g>
    <g>
      <rect x="792.647" y="201.187" width="134.609" height="52.826" fill="none"/>
      <path d="M823.609,232.405v-2.822h11.43v2.822h-11.43Z" fill="#ccc" stroke="#ccc" stroke-miterlimit="10" stroke-width="1.5"/>
      <path d="M855.084,232.405v-2.822h11.43v2.822h-11.43Z" fill="#ccc" stroke="#ccc" stroke-miterlimit="10" stroke-width="1.5"/>
      <path d="M884.875,232.405v-2.822h11.43v2.822h-11.43Z" fill="#ccc" stroke="#ccc" stroke-miterlimit="10" stroke-width="1.5"/>
    </g>
    <g>
      <rect x="805.21" y="255.799" width="94.876" height="52.826" fill="none"/>
      <path d="M840.295,279.745h10.158v10.158c0,1.06,0,2.663-.92,4.134l-.126.19c-.552.833-1.121,1.693-2.439,2.516-.65.494-2.244,1.26-3.354,1.676-1.174.44-2.536.655-4.164.655s-2.989-.214-4.163-.655c-1.443-.542-2.624-1.191-3.512-1.93-1.246-.933-2.062-2.075-2.782-3.083l-.117-.193c-.652-1.302-.996-2.79-.996-4.299v-15.52c0-1.723.371-3.085,1.202-4.416.664-1.345,1.93-2.525,2.817-3.288,1.045-.87,2.307-1.343,3.525-1.8,1.176-.442,2.538-.656,4.167-.656s2.989.214,4.163.655c1.091.408,2.25.962,3.45,1.646l.146.096c1.449,1.088,2.491,2.253,3.096,3.461l-2.524,1.263c-.398-.796-1.136-1.607-2.195-2.413-1.027-.581-2.05-1.068-2.963-1.411-.853-.32-1.89-.476-3.173-.476s-2.322.154-3.174.474c-1.048.394-2.035.763-2.697,1.315-.686.59-1.679,1.507-2.18,2.51-.608.985-.84,1.858-.84,3.038v15.52c0,1.037.226,2.051.652,2.943.638.89,1.25,1.729,2.171,2.418.691.573,1.624,1.076,2.753,1.5.853.32,1.889.476,3.173.476s2.321-.155,3.173-.474c1.075-.403,2.341-1.051,2.753-1.36.896-.567,1.209-1.037,1.681-1.75l.107-.163c.468-.75.468-1.735.468-2.603v-7.336h-7.336v-2.819Z" fill="#ccc" stroke="#ccc" stroke-miterlimit="10" stroke-width="1.5"/>
      <path d="M876.498,284.963c.612,1.213.907,2.407.907,3.547,0,3.039-1.115,5.535-3.315,7.419-2.056,1.899-4.656,2.88-7.689,2.88h-.282c-2.86,0-5.495-1.017-7.832-3.021-1.825-1.545-2.36-2.91-2.748-3.906-.059-.145-.111-.285-.17-.419l2.594-1.113c.069.161.135.329.204.504.326.834.663,1.696,1.951,2.785,1.845,1.583,3.806,2.348,6.002,2.348h.282c2.334,0,4.237-.708,5.814-2.166,1.63-1.397,2.369-3.073,2.369-5.312,0-.694-.198-1.473-.558-2.191-.309-.506-.758-1.175-1.354-1.573-.686-.542-1.566-1.049-2.453-1.429-.576-.247-1.224-.446-1.975-.676-.416-.128-.851-.262-1.302-.412l-4.149-1.105c-2.236-.687-3.849-1.721-4.981-3.177-1.229-1.579-1.852-3.436-1.852-5.522,0-2.581,1.071-4.794,3.181-6.581,2.005-1.851,4.28-2.733,7.12-2.733h.281c2.853.165,5.234,1.143,7.161,2.909,1.465,1.301,2.351,2.857,2.692,4.739l-2.778.502c-.229-1.271-.786-2.242-1.805-3.148-1.451-1.331-3.249-2.061-5.354-2.186l-.198.003c-2.115,0-3.736.625-5.252,2.025-1.514,1.284-2.228,2.731-2.228,4.467,0,1.445.424,2.719,1.256,3.79.776.998,1.899,1.696,3.534,2.2l4.182,1.114c.513.167.925.293,1.319.415.796.244,1.545.474,2.261.78,1.124.481,2.219,1.117,3.006,1.747.963.636,1.64,1.623,2.162,2.493h-.003Z" fill="#ccc" stroke="#ccc" stroke-miterlimit="10" stroke-width="1.5"/>
    </g>
    <g>
      <rect x="251.082" y="272.445" width="352.174" height="38.311" fill="none"/>
      <path d="M310.313,297.934v12.416h-2.822v-12.416h-9.19l10.592-10.592,10.8,10.592h-9.38Z" fill="#ccc" stroke="#ccc" stroke-miterlimit="10" stroke-width="1.5"/>
      <path d="M351.799,292.644c.297,2.243.153,4.039.148,4.114l.004,11.593h-2.822v-11.71c.006-.13.128-1.699-.128-3.623-.236-1.768-.67-2.972-1.366-3.783-.545-.635-1.558-.918-2.315-.918s-1.631.426-2.174,1.06c-1.649,1.886-2.482,4.421-2.482,7.547v11.428h-2.963v-11.71c.007-.13.128-1.699-.128-3.623-.235-1.768-.67-2.972-1.366-3.783-.544-.635-1.558-.918-2.315-.918s-1.631.426-2.175,1.06c-1.649,1.885-2.481,4.42-2.481,7.547v11.428h-2.822v-11.428c0-.096.01-.188.01-.282h-.151v-7.524c-.137-1.081-.141-2.979-.141-3.198h2.822c0,.44.014,1.521.07,2.321.181-.242.363-.482.562-.71,1.071-1.25,2.725-2.033,4.307-2.033,1.365,0,3.253.499,4.457,1.903.515.6.925,1.305,1.253,2.129.402-.714.872-1.383,1.411-2,1.072-1.25,2.726-2.033,4.307-2.033,1.366,0,3.254.499,4.457,1.903,1.067,1.246,1.708,2.913,2.021,5.247v-.002Z" fill="#ccc" stroke="#ccc" stroke-miterlimit="10" stroke-width="1.5"/>
      <path d="M379.304,296.466c0,6.536-4.684,11.852-10.441,11.852s-10.44-5.317-10.44-11.852,4.684-11.851,10.44-11.851,10.441,5.316,10.441,11.851ZM376.483,296.466c0-4.979-3.417-9.03-7.619-9.03s-7.619,4.051-7.619,9.03,3.417,9.03,7.619,9.03,7.619-4.051,7.619-9.03Z" fill="#ccc" stroke="#ccc" stroke-miterlimit="10" stroke-width="1.5"/>
      <path d="M406.739,283.708v1.857l-18.202,18.061v.399l-.416.014-.014-.014h-2.392v-1.576l18.202-18.059v-.682h2.821Z" fill="#ccc" stroke="#ccc" stroke-miterlimit="10" stroke-width="1.5"/>
      <path d="M433.893,307.913h-2.821v-.706l-.022-2.655c-1.884,2.316-4.587,3.782-7.595,3.782-5.679,0-10.3-5.19-10.3-11.569s4.621-11.569,10.3-11.569c2.935,0,5.58,1.393,7.458,3.613l-.122-13.899,2.822-.026.282,33.027h-.002ZM430.932,296.766c0-4.824-3.354-8.747-7.478-8.747s-7.478,3.923-7.478,8.747,3.355,8.748,7.478,8.748,7.478-3.923,7.478-8.748Z" fill="#ccc" stroke="#ccc" stroke-miterlimit="10" stroke-width="1.5"/>
      <path d="M457.829,307.221h-2.822v-.085c-.153-.288-.263-.582-.331-1.123-1.255,1.216-2.83,2.015-4.657,2.319-.344.039-.678.059-1.008.059-1.416,0-2.77-.362-4.477-1.159-.797-.393-2.629-1.302-3.647-3.508-.924-2.217-.517-4.297-.369-4.885.621-3.436,3.256-5.164,4.248-5.814l.146-.096c.383-.289.805-.484,1.145-.64.147-.068.289-.125.409-.207l.275-.144c1.94-.747,4.449-1.112,7.632-1.108-.194-.974-.774-1.784-.93-1.939l-.103-.116c-.823-1.029-1.859-1.37-2.249-1.499-1.065-.291-2.16-.285-3.538.02-1.128.226-2.064.545-2.816.802l-.431.147c-.234.095-.481.22-.698.329-.312.158-.584.288-.854.377l-.893-2.677c.153-.051.305-.134.483-.223.278-.138.594-.296.99-.454l.488-.168c.831-.284,1.863-.636,3.145-.893,1.119-.247,2.877-.523,4.881.022.666.218,2.311.76,3.649,2.402.564.599,1.582,2.126,1.759,4.052l.003,1.115h.003c0,.098.008.299.02.583.068,1.725.107,3.595.039,5.361.006.348.011.712.019,1.051.032,1.685.063,3.262.063,4.715,0,1.575.079,1.924.094,1.979.107.181.233.434.31.892l.02.515.002-.004ZM449.631,305.542c1.701-.287,3.085-1.208,4.037-2.732.302-.464.71-1.667.831-4.807-.025-1.388-.046-2.833-.052-4.349-2.744-.061-4.977.287-6.574.875-.196.117-.409.219-.637.323-.263.122-.491.226-.697.381l-.229.153c-.849.556-2.614,1.714-3.039,4.048-.059.252-.398,1.724.196,3.156.581,1.254,1.681,1.798,2.209,2.061,1.918.896,2.928,1,3.952.889h.002Z" fill="#ccc" stroke="#ccc" stroke-miterlimit="10" stroke-width="1.5"/>
      <path d="M485.285,283.708v1.857l-18.202,18.061v.399l-.416.014-.015-.014h-2.391v-1.576l18.201-18.059v-.682h2.822Z" fill="#ccc" stroke="#ccc" stroke-miterlimit="10" stroke-width="1.5"/>
      <path d="M508.291,285.919h2.599v.667l-.081.229c-.271.76-6.646,18.666-7.214,20.085-.279.693-1.304,3.118-2.852,5.244-1.335,1.837-2.96,3.843-4.883,4.806-1.741.868-2.91,1.31-2.958,1.328l-.993-2.642c.012-.004,1.093-.413,2.688-1.21,1.388-.694,2.793-2.47,3.862-3.941.516-.708.991-1.508,1.408-2.289l-8.167-21.597v-.68h2.529l.202-.077,7.05,18.639c1.301-3.566,4.65-12.95,6.584-18.384l.064-.179c.007-.019.013-.034.018-.051l.143.051h0Z" fill="#ccc" stroke="#ccc" stroke-miterlimit="10" stroke-width="1.5"/>
      <path d="M523.604,286.627c1.536-.854,3.084-.854,4.583-.854v2.822c-1.294,0-2.315,0-3.267.527-.809.405-1.351,1.107-2.028,2.195-1.472,2.504-2.466,4.671-2.466,7.012v10.017h-2.821v-17.918c0-.581-.167-2.953-.277-4.406l2.812-.216c.024.331.224,2.917.274,4.162.022-.036.042-.076.064-.113.776-1.241,1.638-2.484,3.125-3.228h0Z" fill="#ccc" stroke="#ccc" stroke-miterlimit="10" stroke-width="1.5"/>
      <path d="M546.635,297.934v12.416h-2.821v-12.416h-9.19l10.591-10.592,10.801,10.592h-9.38Z" fill="#ccc" stroke="#ccc" stroke-miterlimit="10" stroke-width="1.5"/>
    </g>
    <g>
      <rect x="274.762" y="339.047" width="57.746" height="52.826" fill="none"/>
      <path d="M304.299,371.867v-4.694h-9.312v-2.821h9.312v-4.479l7.996,5.864-7.996,6.13Z" fill="#ccc" stroke="#ccc" stroke-miterlimit="10" stroke-width="1.5"/>
    </g>
    <g id="symbol-leftbracket-6" data-name="symbol-leftbracket">
      <polyline id="polyline169-6" data-name="polyline169" points="340.296 342.793 325.843 342.793 325.843 385.602 340.296 385.602" fill="none" stroke="#ccc" stroke-miterlimit="10" stroke-width="3"/>
    </g>
    <g>
      <rect x="905.194" y="333.666" width="94.876" height="52.826" fill="none"/>
      <path d="M942.196,376.085v.887h-1.986l-.561.414-8.415-11.431-3.146,3.389v7.487h-2.822v-32.873h2.822v21.238l10.394-11.194.427.397h2.018v1.119l-7.738,8.334,9.009,12.234Z" fill="#ccc" stroke="#ccc" stroke-miterlimit="10" stroke-width="1.5"/>
      <path d="M954.174,357.208v13.262c0,1.111.26,2.143.662,2.624.473.552,1.713.903,2.583.903.85,0,1.757-.332,1.767-.334l.235-.089h.679v2.537l.074.195c-.015.005-.04.014-.074.027v.063h-.189c-.463.149-1.453.423-2.492.423-1.547,0-3.612-.588-4.739-1.903-1.198-1.439-1.326-3.587-1.326-4.445v-13.262h-4.233v-2.822h4.233v-6.208h2.821v6.208h6.35v2.822h-6.35Z" fill="#ccc" stroke="#ccc" stroke-miterlimit="10" stroke-width="1.5"/>
      <path d="M973.236,363.19c5.587,2.128,6.748,5.046,6.748,7.124,0,3.737-3.422,6.349-8.322,6.349-2.388,0-5.833-1.503-6.217-1.675l1.146-2.578c1.292.576,3.708,1.431,5.071,1.431,3.29,0,5.5-1.418,5.5-3.527,0-2.156-2.65-3.62-4.875-4.467-3.673-1.223-5.563-3.335-5.563-6.257,0-3.857,2.88-6.349,7.337-6.349,3.039,0,3.846.379,4.91.998.21.124.441.259.752.4l-1.169,2.568c-.412-.188-.721-.366-1.001-.529-.661-.384-1.061-.615-3.494-.615-1.686,0-4.515.458-4.515,3.527,0,1.104.419,2.51,3.69,3.6h.002Z" fill="#ccc" stroke="#ccc" stroke-miterlimit="10" stroke-width="1.5"/>
    </g>
  </g>
</svg>