<?xml version="1.0" encoding="UTF-8"?>
<svg xmlns="http://www.w3.org/2000/svg" width="1589.087" height="910.957" viewBox="0 0 1589.087 910.957">
  <g id="DIR_to_FPLN_waypoint_Arrows_-_Dark">
    <path d="M315.522,447.652l-72.476,23.946,6.803,11.096-143.866,85.409c-2.352-4.036-5.261-7.831-8.752-11.258-21.111-20.725-55.147-20.411-75.872.699s-20.411,55.147.7,75.873c21.111,20.725,55.147,20.411,75.872-.7,15.093-15.374,19.015-37.599,11.886-56.549l144.684-85.886,6.803,11.096,54.219-53.726ZM92.221,627.113c-17.663,17.992-46.567,18.258-64.559.595-17.992-17.663-18.258-46.567-.595-64.559s46.567-18.258,64.559-.595c17.992,17.663,18.258,46.567.595,64.559Z" fill="#ccc" stroke="#0d121e" stroke-miterlimit="10" stroke-width="2"/>
    <path d="M1301.087,733.565l63.231-42.755-9.564-8.828,131.087-152.386c3.361,3.244,7.193,6.105,11.483,8.453,25.952,14.203,58.62,4.644,72.822-21.307,14.203-25.952,4.644-58.62-21.308-72.823-25.951-14.202-58.619-4.644-72.822,21.308-10.343,18.899-8.073,41.353,3.941,57.65l-131.744,153.068-9.564-8.828-37.564,66.447ZM1483.035,469.069c12.104-22.117,39.846-30.235,61.964-18.131,22.117,12.104,30.235,39.846,18.131,61.964-12.104,22.117-39.846,30.235-61.964,18.131-22.117-12.104-30.235-39.846-18.131-61.964Z" fill="#ccc" stroke="#0d121e" stroke-miterlimit="10" stroke-width="2"/>
    <path d="M68.129,611.567h6.22v4.607h-6.22v11.518h-4.607v-11.518h-23.959v-5.016l23.805-39.678h4.759v40.083l.002.003ZM63.52,580.181l-18.831,31.384h18.831v-31.384Z" fill="#ff8500" stroke="#ff8500" stroke-miterlimit="10"/>
    <path d="M1537.939,488.463c.875,2.046,1.338,4.193,1.338,6.209v11.288c0,2.018-.463,4.163-1.338,6.206-.853,1.993-2.263,3.902-3.866,5.238-1.234,1.03-3.149,2.498-5.503,3.382-2.366.888-4.456,1.3-6.57,1.3-2.408,0-5.419-.521-7.489-1.297-2.3-.864-4.149-2.016-5.658-3.524-1.451-1.196-2.859-3.105-3.714-5.099-.516-1.022-.795-2.133-1.039-3.112l-.069-.56v-2.073h4.607v1.79c.187.741.369,1.396.678,2.016.634,1.472,1.575,2.753,2.64,3.64,1.203,1.188,2.479,1.972,4.173,2.607,1.553.581,4.024,1.005,5.872,1.005,1.566,0,3.094-.312,4.95-1.007,1.293-.486,2.619-1.313,4.172-2.607,1.062-.888,2.005-2.171,2.583-3.516.631-1.475.965-2.993.965-4.392v-11.288c0-1.398-.334-2.916-.965-4.393-.576-1.346-1.519-2.627-2.583-3.514-1.202-1.187-2.479-1.972-4.172-2.605l-.705-.271c-1.287-.505-1.877-.735-4.245-.735-2.89,0-5.204.617-7.287,1.944-1.555.973-2.931,2.348-3.891,3.885l-.678,1.082h-6.114v-26.723h34.786v4.607h-30.179v16.301c1.056-1.18,2.276-2.212,3.617-3.05,2.799-1.783,5.994-2.654,9.745-2.654,3.08,0,4.257.398,5.923,1.051l.645.249c2.3.861,4.149,2.013,5.658,3.522,1.449,1.195,2.858,3.103,3.714,5.096v.002Z" fill="#ff8500" stroke="#ff8500" stroke-miterlimit="10"/>
  </g>
  <g id="DIR_to_FPLN_waypoint_-_Dark">
    <g>
      <rect x="348.652" y="378.391" width="86.087" height="72.391" fill="none"/>
      <path d="M401.077,437.961h-28.703v-6.379h22.746v-9.812h-18.311v.073h-5.958v-22.404h5.958v.006h22.246v6.292h-22.246v9.741h19.558v.026h4.71v22.457Z" fill="#ccc" stroke="#ccc"/>
      <path d="M406.6,399.451h5.958v38.51h-5.958v-38.51Z" fill="#ccc" stroke="#ccc"/>
    </g>
    <g>
      <rect x="538.054" y="56.408" width="86.087" height="72.391" fill="none"/>
      <path d="M578.127,77.469h5.958v38.51h-5.958v-38.51Z" fill="#ccc" stroke="#ccc"/>
    </g>
    <g>
      <rect x="1009.908" y="361.509" width="86.087" height="72.391" fill="none"/>
      <path d="M1062.094,404.961v-.073h-18.311v9.812h22.745v6.379h-28.703v-22.457h4.711v-.026h19.558v-9.741h-22.246v-6.292h22.246v-.006h5.958v22.404h-5.958Z" fill="#ccc" stroke="#ccc"/>
    </g>
    <g>
      <rect x="1352.902" y="118.932" width="86.087" height="72.391" fill="none"/>
      <path d="M1410.042,162.384h-.002v16.117h-5.935s-22.248,0-22.248,0v-6.383h22.225v-9.81h-19.557v-6.291h19.559v-9.742h-22.246v-6.292h22.246v-.006h5.958v22.405Z" fill="#ccc" stroke="#ccc"/>
    </g>
    <g>
      <rect x="1311.754" y="720.783" width="86.087" height="72.391" fill="none"/>
      <path d="M1369.902,764.235h0v16.117h-5.958v-16.147h-24.271v-22.391h5.962v16.056h18.311v-16.04h5.957v22.405Z" fill="#ccc" stroke="#ccc"/>
    </g>
    <g>
      <line x1="1495.174" y1="824.87" x2="1485.725" y2="821.596" fill="none" stroke="#ccc" stroke-miterlimit="10" stroke-width="7"/>
      <line x1="1467.786" y1="815.382" x2="1297.364" y2="756.348" fill="none" stroke="#ccc" stroke-dasharray="18.985 18.985" stroke-miterlimit="10" stroke-width="7"/>
      <polyline points="1288.395 753.241 1278.946 749.967 1279.612 739.99" fill="none" stroke="#ccc" stroke-miterlimit="10" stroke-width="7"/>
      <line x1="1280.97" y1="719.682" x2="1318.296" y2="161.229" fill="none" stroke="#ccc" stroke-dasharray="20.353 20.353" stroke-miterlimit="10" stroke-width="7"/>
      <polyline points="1318.974 151.076 1319.641 141.098 1311.503 146.909" fill="none" stroke="#ccc" stroke-miterlimit="10" stroke-width="7"/>
      <line x1="1294.495" y1="159.054" x2="996.859" y2="371.594" fill="none" stroke="#ccc" stroke-dasharray="20.899 20.899" stroke-miterlimit="10" stroke-width="7"/>
      <polyline points="988.355 377.667 980.217 383.478 971.849 378.003" fill="none" stroke="#ccc" stroke-miterlimit="10" stroke-width="7"/>
      <line x1="955.368" y1="367.221" x2="535.087" y2="92.258" fill="none" stroke="#ccc" stroke-dasharray="19.696 19.696" stroke-miterlimit="10" stroke-width="7"/>
      <polyline points="526.846 86.866 518.478 81.391 513.131 89.841" fill="none" stroke="#ccc" stroke-miterlimit="10" stroke-width="7"/>
      <line x1="502.902" y1="106.005" x2="323.897" y2="388.86" fill="none" stroke="#ccc" stroke-dasharray="19.128 19.128" stroke-miterlimit="10" stroke-width="7"/>
      <line x1="318.782" y1="396.941" x2="313.435" y2="405.391" fill="none" stroke="#ccc" stroke-miterlimit="10" stroke-width="7"/>
    </g>
    <line x1="320.478" y1="405.391" x2="1270.728" y2="749.967" fill="#ccc" stroke="#ccc" stroke-miterlimit="10" stroke-width="7"/>
    <g>
      <rect x="595.03" y="94.669" width="122.87" height="44.609" fill="none"/>
      <path d="M608.155,102.656c-.044.068-4.486,6.906-4.486,17.177,0,10.328,4.44,17.109,4.484,17.176l.266.398v.955h-2.296l-.604.404c-.025-.037-.114-.173-.253-.404l-.013-.022c-1.047-1.745-4.751-8.614-4.751-18.507s3.704-16.762,4.751-18.506l.013-.021c.139-.231.228-.367.253-.404l.604.404h2.296v.951l-.265.399Z" fill="#ccc" stroke="#ccc" stroke-miterlimit="10"/>
      <path d="M638.63,114.207l-.163,21.531-3.167-.023.09-12.024h-18.301v12.035h-3.167v-21.525l10.852-16.957h3.001l10.855,16.964ZM635.414,120.521l.041-5.401-9.181-14.346-9.185,14.351v5.396h18.325Z" fill="#ccc" stroke="#ccc" stroke-miterlimit="10"/>
      <path d="M668.825,114.207l-.163,21.531-3.167-.023.09-12.024h-18.301v12.035h-3.167v-21.525l10.853-16.957h3l10.855,16.964ZM665.608,120.521l.041-5.401-9.181-14.346-9.185,14.351v5.396h18.325Z" fill="#ccc" stroke="#ccc" stroke-miterlimit="10"/>
      <path d="M699.02,114.207l-.163,21.531-3.167-.023.09-12.024h-18.301v12.035h-3.167v-21.525l10.852-16.957h3.001l10.855,16.964ZM695.803,120.521l.041-5.401-9.181-14.346-9.185,14.351v5.396h18.325Z" fill="#ccc" stroke="#ccc" stroke-miterlimit="10"/>
      <path d="M707.673,101.326c1.046,1.743,4.75,8.611,4.75,18.506s-3.704,16.763-4.75,18.507l-.013.022c-.14.23-.228.367-.253.403l-.605-.403h-2.296v-.952l.265-.399c.044-.066,4.486-6.905,4.486-17.177s-4.442-17.11-4.486-17.177l-.265-.397v-.953h2.296l.605-.404c.025.037.114.173.253.404l.013.021h0Z" fill="#ccc" stroke="#ccc" stroke-miterlimit="10"/>
    </g>
    <g>
      <rect x="1074.737" y="390.545" width="134.872" height="44.609" fill="none"/>
      <path d="M1090.978,398.534c-.045.068-4.486,6.906-4.486,17.177,0,10.328,4.439,17.109,4.484,17.176l.266.398v.955h-2.296l-.604.404c-.025-.037-.114-.173-.254-.404l-.012-.022c-1.047-1.745-4.752-8.614-4.752-18.507s3.705-16.762,4.752-18.506l.012-.021c.14-.231.229-.367.254-.404l.604.404h2.296v.951l-.264.399Z" fill="#ccc" stroke="#ccc" stroke-miterlimit="10"/>
      <path d="M1122.427,415.95c.469,1.241.92,2.736.92,4.897,0,2.239-.242,3.847-.762,5.059-.619,1.654-1.447,2.856-2.505,3.611-.986.935-2.313,1.538-3.858,1.754-1.278.345-2.506.345-3.801.345h-15.361v-19.297l-.316-.317v-20.767h15.043c1.306,0,2.574.193,3.667.556,1.313.374,2.659,1.156,3.628,2.125.991.991,1.865,2.268,2.395,3.503.469,1.248.92,2.743.92,4.901,0,2.136-.232,3.753-.713,4.939-.381,1.415-1.249,2.778-2.346,3.683-.215.211-.445.395-.68.569.41.281.789.568,1.111.836,1.104.918,2.071,2.231,2.658,3.601v.002ZM1099.912,394.402v15.357h12.512c.46,0,.924.051,1.387.1.354-.034.686-.084.963-.176l.304-.067c.879-.109,1.522-.41,2.085-.975l.132-.117c.469-.375,1.105-1.165,1.353-2.155l.081-.24c.335-.781.505-2.062.505-3.809,0-1.648-.332-2.764-.691-3.722-.34-.783-1-1.746-1.697-2.443-.592-.592-1.461-1.093-2.324-1.34-.826-.273-1.775-.413-2.731-.413h-11.876ZM1119.647,424.727c.362-.849.532-2.131.532-3.878,0-1.65-.331-2.762-.691-3.719-.368-.857-1.016-1.738-1.748-2.348-.949-.792-1.676-1.222-2.429-1.437-.474-.137-.948-.236-1.424-.306-.628.048-1.274.049-1.941.049h-11.718v15.36h12.193c1.201,0,2.153,0,3.048-.256l.239-.049c.95-.119,1.727-.456,2.244-.975l.24-.197c.55-.366,1.025-1.101,1.454-2.247h0Z" fill="#ccc" stroke="#ccc" stroke-miterlimit="10"/>
      <path d="M1154.548,415.95c.469,1.241.92,2.736.92,4.897,0,2.239-.242,3.847-.762,5.059-.619,1.654-1.447,2.856-2.506,3.611-.986.935-2.313,1.538-3.859,1.754-1.277.345-2.505.345-3.801.345h-15.359v-19.297l-.317-.317v-20.767h15.042c1.307,0,2.575.193,3.668.556,1.312.374,2.658,1.156,3.628,2.125.991.991,1.865,2.268,2.395,3.503.469,1.248.92,2.743.92,4.901,0,2.136-.233,3.753-.713,4.939-.382,1.415-1.249,2.778-2.345,3.683-.216.211-.447.395-.682.569.41.281.791.568,1.111.836,1.104.918,2.072,2.231,2.66,3.601v.002ZM1132.031,394.402v15.357h12.512c.461,0,.926.051,1.388.1.354-.034.686-.084.962-.176l.305-.067c.879-.109,1.521-.41,2.086-.975l.131-.117c.469-.375,1.105-1.165,1.353-2.155l.081-.24c.336-.781.505-2.062.505-3.809,0-1.648-.333-2.764-.692-3.722-.338-.783-.999-1.746-1.695-2.443-.592-.592-1.462-1.093-2.324-1.34-.827-.273-1.775-.413-2.732-.413h-11.877ZM1151.767,424.727c.362-.849.531-2.131.531-3.878,0-1.65-.33-2.762-.689-3.719-.369-.857-1.018-1.738-1.748-2.348-.951-.792-1.678-1.222-2.43-1.437-.474-.137-.949-.236-1.424-.306-.629.048-1.274.049-1.941.049h-11.719v15.36h12.193c1.203,0,2.154,0,3.049-.256l.239-.049c.95-.119,1.726-.456,2.244-.975l.241-.197c.549-.366,1.023-1.101,1.453-2.247h0Z" fill="#ccc" stroke="#ccc" stroke-miterlimit="10"/>
      <path d="M1186.668,415.95c.469,1.241.92,2.736.92,4.897,0,2.239-.242,3.847-.762,5.059-.619,1.654-1.447,2.856-2.505,3.611-.986.935-2.313,1.538-3.858,1.754-1.278.345-2.506.345-3.801.345h-15.361v-19.297l-.316-.317v-20.767h15.043c1.306,0,2.574.193,3.667.556,1.313.374,2.659,1.156,3.628,2.125.991.991,1.865,2.268,2.395,3.503.469,1.248.92,2.743.92,4.901,0,2.136-.232,3.753-.713,4.939-.381,1.415-1.249,2.778-2.346,3.683-.215.211-.445.395-.68.569.41.281.789.568,1.111.836,1.104.918,2.071,2.231,2.658,3.601v.002ZM1164.152,394.402v15.357h12.512c.46,0,.924.051,1.387.1.354-.034.686-.084.963-.176l.304-.067c.879-.109,1.522-.41,2.085-.975l.132-.117c.469-.375,1.105-1.165,1.353-2.155l.081-.24c.335-.781.505-2.062.505-3.809,0-1.648-.332-2.764-.691-3.722-.34-.783-1-1.746-1.697-2.443-.592-.592-1.461-1.093-2.324-1.34-.826-.273-1.775-.413-2.731-.413h-11.876ZM1183.887,424.727c.362-.849.532-2.131.532-3.878,0-1.65-.331-2.762-.691-3.719-.368-.857-1.016-1.738-1.748-2.348-.949-.792-1.676-1.222-2.429-1.437-.474-.137-.948-.236-1.424-.306-.628.048-1.274.049-1.941.049h-11.718v15.36h12.193c1.201,0,2.153,0,3.048-.256l.239-.049c.95-.119,1.727-.456,2.244-.975l.24-.197c.55-.366,1.025-1.101,1.454-2.247h0Z" fill="#ccc" stroke="#ccc" stroke-miterlimit="10"/>
      <path d="M1196.271,397.204c1.047,1.743,4.751,8.611,4.751,18.506s-3.704,16.763-4.751,18.507l-.012.022c-.141.23-.229.367-.254.403l-.605-.403h-2.296v-.952l.265-.399c.045-.066,4.486-6.905,4.486-17.177s-4.441-17.11-4.486-17.177l-.265-.397v-.953h2.296l.605-.404c.025.037.113.173.254.404l.012.021h0Z" fill="#ccc" stroke="#ccc" stroke-miterlimit="10"/>
    </g>
    <g>
      <rect x="1412.545" y="156.885" width="134.872" height="44.609" fill="none"/>
      <path d="M1430.27,164.874c-.044.068-4.485,6.906-4.485,17.177,0,10.328,4.439,17.109,4.484,17.176l.266.398v.955h-2.296l-.604.404c-.025-.037-.114-.173-.254-.404l-.013-.022c-1.047-1.745-4.751-8.614-4.751-18.507s3.704-16.762,4.751-18.506l.013-.021c.14-.231.229-.367.254-.404l.604.404h2.296v.951l-.265.399Z" fill="#ccc" stroke="#ccc" stroke-miterlimit="10"/>
      <path d="M1456.22,192.519c.962-.726,1.793-1.646,2.544-2.848l2.686,1.679c-.952,1.523-2.065,2.75-3.401,3.755-1.117.747-2.504,1.44-3.877,1.957-1.562.521-2.988.734-4.833.734-1.96,0-3.495-.232-4.831-.733-1.375-.457-2.628-1.109-4.007-2.095-1.371-.854-2.558-2.169-3.346-3.748-.731-1.46-1.118-3.129-1.118-4.825v-17.261c0-2.003.645-3.564,1.274-4.825,1.026-1.655,2.138-2.882,3.477-3.885,1.113-.746,2.5-1.44,3.876-1.957,1.556-.52,2.983-.733,4.832-.733,1.962,0,3.496.234,4.831.735,1.373.456,2.626,1.106,4.007,2.093,1.488,1.118,2.604,2.425,3.346,3.907l-2.833,1.417c-.52-1.04-1.32-1.972-2.384-2.769-1.097-.783-2.062-1.287-3.192-1.664-1.024-.383-2.205-.553-3.774-.553-1.507,0-2.601.16-3.775.553-1.104.415-2.255.99-3.105,1.557-.961.724-1.793,1.646-2.545,2.848-.491.999-.868,2.011-.868,3.277v17.26c0,1.207.271,2.385.782,3.408.537,1.073,1.302,1.925,2.274,2.533,1.208.86,2.171,1.365,3.304,1.742,1.024.383,2.207.553,3.774.553,1.503,0,2.598-.16,3.775-.553,1.101-.413,2.254-.99,3.105-1.557l.003-.003Z" fill="#ccc" stroke="#ccc" stroke-miterlimit="10"/>
      <path d="M1487.35,192.519c.962-.726,1.793-1.646,2.544-2.848l2.686,1.679c-.952,1.523-2.065,2.75-3.401,3.755-1.117.747-2.504,1.44-3.877,1.957-1.562.521-2.988.734-4.833.734-1.96,0-3.495-.232-4.831-.733-1.375-.457-2.628-1.109-4.007-2.095-1.371-.854-2.558-2.169-3.346-3.748-.731-1.46-1.118-3.129-1.118-4.825v-17.261c0-2.003.645-3.564,1.274-4.825,1.026-1.655,2.138-2.882,3.477-3.885,1.113-.746,2.5-1.44,3.876-1.957,1.556-.52,2.983-.733,4.832-.733,1.962,0,3.496.234,4.831.735,1.373.456,2.626,1.106,4.007,2.093,1.488,1.118,2.604,2.425,3.346,3.907l-2.833,1.417c-.52-1.04-1.32-1.972-2.384-2.769-1.097-.783-2.062-1.287-3.192-1.664-1.024-.383-2.205-.553-3.774-.553-1.507,0-2.601.16-3.775.553-1.104.415-2.255.99-3.105,1.557-.961.724-1.793,1.646-2.545,2.848-.491.999-.868,2.011-.868,3.277v17.26c0,1.207.271,2.385.782,3.408.537,1.073,1.302,1.925,2.274,2.533,1.208.86,2.171,1.365,3.304,1.742,1.024.383,2.207.553,3.774.553,1.503,0,2.598-.16,3.775-.553,1.101-.413,2.254-.99,3.105-1.557l.003-.003Z" fill="#ccc" stroke="#ccc" stroke-miterlimit="10"/>
      <path d="M1518.48,192.519c.962-.726,1.793-1.646,2.544-2.848l2.686,1.679c-.952,1.523-2.065,2.75-3.401,3.755-1.117.747-2.504,1.44-3.877,1.957-1.562.521-2.988.734-4.833.734-1.96,0-3.495-.232-4.831-.733-1.375-.457-2.628-1.109-4.007-2.095-1.371-.854-2.558-2.169-3.346-3.748-.731-1.46-1.118-3.129-1.118-4.825v-17.261c0-2.003.645-3.564,1.274-4.825,1.026-1.655,2.138-2.882,3.477-3.885,1.113-.746,2.5-1.44,3.876-1.957,1.556-.52,2.983-.733,4.832-.733,1.962,0,3.496.234,4.831.735,1.373.456,2.626,1.106,4.007,2.093,1.488,1.118,2.604,2.425,3.346,3.907l-2.833,1.417c-.52-1.04-1.32-1.972-2.384-2.769-1.097-.783-2.062-1.287-3.192-1.664-1.024-.383-2.205-.553-3.774-.553-1.507,0-2.601.16-3.775.553-1.104.415-2.255.99-3.105,1.557-.961.724-1.793,1.646-2.545,2.848-.491.999-.868,2.011-.868,3.277v17.26c0,1.207.271,2.385.782,3.408.537,1.073,1.302,1.925,2.274,2.533,1.208.86,2.171,1.365,3.304,1.742,1.024.383,2.207.553,3.774.553,1.503,0,2.598-.16,3.775-.553,1.101-.413,2.254-.99,3.105-1.557l.003-.003Z" fill="#ccc" stroke="#ccc" stroke-miterlimit="10"/>
      <path d="M1532.593,163.544c1.047,1.743,4.751,8.611,4.751,18.506s-3.704,16.763-4.751,18.507l-.013.022c-.14.23-.228.367-.253.403l-.605-.403h-2.296v-.952l.265-.399c.044-.066,4.486-6.905,4.486-17.177s-4.442-17.11-4.486-17.177l-.265-.397v-.953h2.296l.605-.404c.025.037.113.173.253.404l.013.021h0Z" fill="#ccc" stroke="#ccc" stroke-miterlimit="10"/>
    </g>
    <g>
      <rect x="1370.864" y="731.931" width="134.872" height="44.609" fill="none"/>
      <path d="M1389.992,739.92c-.044.068-4.486,6.906-4.486,17.177,0,10.328,4.44,17.109,4.484,17.176l.267.398v.955h-2.297l-.604.404c-.025-.037-.114-.173-.253-.404l-.013-.022c-1.047-1.745-4.751-8.614-4.751-18.507s3.704-16.762,4.751-18.506l.013-.021c.139-.231.228-.367.253-.404l.604.404h2.297v.951l-.265.399Z" fill="#ccc" stroke="#ccc" stroke-miterlimit="10"/>
      <path d="M1420.461,747.507v10.927c0,2.167-.369,4.232-1.064,5.972-.66,1.822-1.689,3.455-3.04,4.808-1.021,1.196-2.33,2.138-3.812,2.707-1.46.72-2.952,1.082-4.436,1.082h-12.353v-40.223h12.353c1.637,0,3.164.364,4.666,1.116,1.554.778,2.802,1.732,3.821,2.92,1.011,1.006,1.928,2.532,2.802,4.72.721,1.979,1.062,3.918,1.062,5.972ZM1417.294,747.507c0-1.701-.272-3.24-.855-4.843-.692-1.728-1.386-2.917-2.166-3.697-.832-.963-1.731-1.646-2.914-2.238-1.067-.533-2.1-.782-3.249-.782h-9.185v33.889h9.185c1.013,0,2.054-.265,3.093-.784l.151-.066c1.023-.382,1.898-1.012,2.68-1.923,1.104-1.111,1.885-2.354,2.405-3.786.558-1.395.855-3.097.855-4.842v-10.927Z" fill="#ccc" stroke="#ccc" stroke-miterlimit="10"/>
      <path d="M1450.656,747.507v10.927c0,2.167-.368,4.232-1.063,5.972-.661,1.822-1.69,3.455-3.041,4.808-1.021,1.196-2.329,2.138-3.812,2.707-1.46.72-2.951,1.082-4.436,1.082h-12.352v-40.223h12.352c1.638,0,3.164.364,4.667,1.116,1.554.778,2.801,1.732,3.821,2.92,1.01,1.006,1.927,2.532,2.801,4.72.721,1.979,1.062,3.918,1.062,5.972ZM1447.489,747.507c0-1.701-.272-3.24-.854-4.843-.692-1.728-1.386-2.917-2.167-3.697-.831-.963-1.73-1.646-2.913-2.238-1.067-.533-2.101-.782-3.25-.782h-9.185v33.889h9.185c1.014,0,2.054-.265,3.093-.784l.152-.066c1.022-.382,1.898-1.012,2.679-1.923,1.104-1.111,1.885-2.354,2.406-3.786.557-1.395.854-3.097.854-4.842v-10.927Z" fill="#ccc" stroke="#ccc" stroke-miterlimit="10"/>
      <path d="M1480.851,747.507v10.927c0,2.167-.369,4.232-1.064,5.972-.66,1.822-1.689,3.455-3.04,4.808-1.021,1.196-2.33,2.138-3.812,2.707-1.46.72-2.952,1.082-4.436,1.082h-12.353v-40.223h12.353c1.637,0,3.164.364,4.666,1.116,1.554.778,2.802,1.732,3.821,2.92,1.011,1.006,1.928,2.532,2.802,4.72.721,1.979,1.062,3.918,1.062,5.972ZM1477.684,747.507c0-1.701-.272-3.24-.855-4.843-.692-1.728-1.386-2.917-2.166-3.697-.832-.963-1.731-1.646-2.914-2.238-1.067-.533-2.1-.782-3.249-.782h-9.185v33.889h9.185c1.013,0,2.054-.265,3.093-.784l.151-.066c1.023-.382,1.898-1.012,2.68-1.923,1.104-1.111,1.885-2.354,2.405-3.786.558-1.395.855-3.097.855-4.842v-10.927Z" fill="#ccc" stroke="#ccc" stroke-miterlimit="10"/>
      <path d="M1489.509,738.59c1.047,1.743,4.751,8.611,4.751,18.506s-3.704,16.763-4.751,18.507l-.013.022c-.14.23-.228.367-.253.403l-.605-.403h-2.296v-.952l.265-.399c.044-.066,4.486-6.905,4.486-17.177s-4.442-17.11-4.486-17.177l-.265-.397v-.953h2.296l.605-.404c.025.037.113.173.253.404l.013.021h0Z" fill="#ccc" stroke="#ccc" stroke-miterlimit="10"/>
    </g>
    <g>
      <line x1="481.379" y1="71.096" x2="528.774" y2="118.491" fill="#ccc" stroke="#ccc" stroke-miterlimit="10" stroke-width="7"/>
      <line x1="512.096" y1="40.379" x2="559.491" y2="87.774" fill="#ccc" stroke="#ccc" stroke-miterlimit="10" stroke-width="7"/>
      <circle cx="520.989" cy="78.88" r="8.217" fill="#ccc" stroke="#ccc" stroke-miterlimit="10"/>
    </g>
    <path d="M262.524,388.787c-1.972-2.04-4.171-3.847-6.555-5.386l-1.595-1.03c-2.303-1.487-4.724-2.783-7.238-3.877l-11.907-5.426-16.474-6.98-7.513-2.751.367-1.002,2.922,1.07,2.354-6.428-3.537-1.831-76.725-68.556-11.783.893,22.22,35.499-.314,1.116-21.689-35.399-1.23-.261-8.527,2.085-2.338,19.31,4.195,5.607-3.926-.396-4.246-.04-2.262,6.178,2.797,2.444,5.092,1.865-.52,1.419-2.588-.948-1.255.582-.856,2.337s-3.832-1.687-4.174-1.529-3.236.046-3.236.046l-2.083,5.687s2.282,1.782,2.441,2.125c.159.342,4.174,1.529,4.174,1.529l-.856,2.338.582,1.254,2.588.948-.52,1.419-5.092-1.865-3.714.06-2.262,6.178,3.268,2.711,3.253,2.233-6.824,1.572-10.686,16.253,5.164,7.098,1.108.595,39.42-13.021-.481,1.055-39.89,12.754,8.42,8.291,102.854-2.794,3.883.886,2.354-6.428-2.922-1.07.367-1.002h0l7.513,2.751,17.086,5.31,13.166,3.718c2.246.675,4.542,1.165,6.868,1.466l2.621.34c2.719.352,5.465.435,8.2.245l1.637-.113-1.096-1.134Z" fill="#ccc" stroke="#ccc" stroke-miterlimit="10" stroke-width="2"/>
    <line x1="943.998" y1="375.921" x2="991.393" y2="423.317" fill="#ccc" stroke="#ccc" stroke-miterlimit="10" stroke-width="7"/>
    <line x1="974.715" y1="345.204" x2="1022.111" y2="392.599" fill="#ccc" stroke="#ccc" stroke-miterlimit="10" stroke-width="7"/>
    <circle cx="983.609" cy="383.706" r="8.217" fill="#ccc" stroke="#ccc" stroke-miterlimit="10"/>
    <line x1="1282.085" y1="129.4" x2="1329.48" y2="176.795" fill="#ccc" stroke="#ccc" stroke-miterlimit="10" stroke-width="7"/>
    <line x1="1312.802" y1="98.682" x2="1360.198" y2="146.077" fill="#ccc" stroke="#ccc" stroke-miterlimit="10" stroke-width="7"/>
    <circle cx="1321.696" cy="137.184" r="8.217" fill="#ccc" stroke="#ccc" stroke-miterlimit="10"/>
    <line x1="277.802" y1="392.357" x2="325.198" y2="439.753" fill="#ccc" stroke="#ccc" stroke-miterlimit="10" stroke-width="7"/>
    <line x1="308.52" y1="361.64" x2="355.915" y2="409.035" fill="#ccc" stroke="#ccc" stroke-miterlimit="10" stroke-width="7"/>
    <circle cx="317.413" cy="400.142" r="8.217" fill="#ccc" stroke="#ccc" stroke-miterlimit="10"/>
    <line x1="1245.75" y1="720.58" x2="1310.511" y2="785.341" fill="#ccc" stroke="#ccc" stroke-miterlimit="10" stroke-width="7"/>
    <line x1="1238.063" y1="744.531" x2="1285.458" y2="791.926" fill="#ccc" stroke="#ccc" stroke-miterlimit="10" stroke-width="7"/>
    <line x1="1268.781" y1="713.814" x2="1316.176" y2="761.209" fill="#ccc" stroke="#ccc" stroke-miterlimit="10" stroke-width="7"/>
    <circle cx="1277.674" cy="752.316" r="8.217" fill="#ccc" stroke="#ccc" stroke-miterlimit="10"/>
  </g>
</svg>