<?xml version="1.0" encoding="UTF-8"?>
<svg xmlns="http://www.w3.org/2000/svg" width="1584.293" height="1072.174" viewBox="0 0 1584.293 1072.174">
  <g id="CDNU_-_Dark">
    <path d="M1403.61,903.706l-1222.305.984c-5.445.004-9.861-4.411-9.856-9.857l.667-725.918c.005-5.432,4.408-9.834,9.84-9.839l1222.305-.984c5.445-.004,9.861,4.411,9.856,9.857l-.667,725.918c-.005,5.432-4.408,9.834-9.84,9.839Z" fill="none" stroke="#ccc" stroke-miterlimit="10" stroke-width="11"/>
    <polyline points="785.123 902.825 1331.623 903.324 1331.623 653.747 1406.623 653.747 1406.623 327.67 1331.623 327.67 1331.623 160.085 252.123 160.085 252.123 332.358 173.906 332.358 173.906 653.248 252.123 653.248 252.123 902.825 785.123 902.825" fill="none" stroke="#ccc" stroke-miterlimit="10" stroke-width="8"/>
    <rect x="425.123" y="200.085" width="735" height="553" rx="13.681" ry="13.681" fill="none" stroke="#ccc" stroke-miterlimit="10" stroke-width="5"/>
    <rect x="414.123" y="186.085" width="760" height="580" rx="18.29" ry="18.29" fill="none" stroke="#ccc" stroke-miterlimit="10" stroke-width="5"/>
    <g>
      <rect x="267.123" y="201.085" width="137" height="81" fill="none" stroke="#ccc" stroke-miterlimit="10" stroke-width="5"/>
      <polygon points="387.122 241.334 359.756 213.834 359.756 230.834 284.623 230.834 284.623 251.834 359.756 251.834 359.756 268.834 387.122 241.334" fill="#ccc"/>
    </g>
    <g>
      <rect x="267.275" y="327.932" width="137" height="81" fill="none" stroke="#ccc" stroke-miterlimit="10" stroke-width="5"/>
      <polygon points="387.275 368.182 359.908 340.682 359.908 357.682 284.775 357.682 284.775 378.682 359.908 378.682 359.908 395.682 387.275 368.182" fill="#ccc"/>
    </g>
    <g>
      <rect x="267.275" y="454.932" width="137" height="81" fill="none" stroke="#ccc" stroke-miterlimit="10" stroke-width="5"/>
      <polygon points="387.275 495.182 359.908 467.682 359.908 484.682 284.775 484.682 284.775 505.682 359.908 505.682 359.908 522.682 387.275 495.182" fill="#ccc"/>
    </g>
    <g>
      <rect x="267.102" y="579.367" width="137" height="81" fill="none" stroke="#ccc" stroke-miterlimit="10" stroke-width="5"/>
      <polygon points="387.101 619.617 359.734 592.117 359.734 609.117 284.601 609.117 284.601 630.117 359.734 630.117 359.734 647.117 387.101 619.617" fill="#ccc"/>
    </g>
    <g>
      <rect x="1182.254" y="201.085" width="137" height="81" transform="translate(2501.507 483.169) rotate(-180)" fill="none" stroke="#ccc" stroke-miterlimit="10" stroke-width="5"/>
      <polygon points="1199.255 241.334 1226.622 213.834 1226.622 230.834 1301.754 230.834 1301.754 251.834 1226.622 251.834 1226.622 268.834 1199.255 241.334" fill="#ccc"/>
    </g>
    <g>
      <rect x="1182.102" y="327.932" width="137" height="81" transform="translate(2501.203 736.865) rotate(-180)" fill="none" stroke="#ccc" stroke-miterlimit="10" stroke-width="5"/>
      <polygon points="1199.102 368.182 1226.469 340.682 1226.469 357.682 1301.602 357.682 1301.602 378.682 1226.469 378.682 1226.469 395.682 1199.102 368.182" fill="#ccc"/>
    </g>
    <g>
      <rect x="1182.102" y="454.932" width="137" height="81" transform="translate(2501.203 990.865) rotate(-180)" fill="none" stroke="#ccc" stroke-miterlimit="10" stroke-width="5"/>
      <polygon points="1199.102 495.182 1226.469 467.682 1226.469 484.682 1301.602 484.682 1301.602 505.682 1226.469 505.682 1226.469 522.682 1199.102 495.182" fill="#ccc"/>
    </g>
    <g>
      <rect x="1182.275" y="579.367" width="137" height="81" transform="translate(2501.551 1239.734) rotate(-180)" fill="none" stroke="#ccc" stroke-miterlimit="10" stroke-width="5"/>
      <polygon points="1199.276 619.617 1226.643 592.117 1226.643 609.117 1301.776 609.117 1301.776 630.117 1226.643 630.117 1226.643 647.117 1199.276 619.617" fill="#ccc"/>
    </g>
    <circle cx="356.123" cy="736.085" r="30.5" fill="none" stroke="#ccc" stroke-miterlimit="10" stroke-width="5"/>
    <circle cx="1239.123" cy="736.085" r="30.5" fill="none" stroke="#ccc" stroke-miterlimit="10" stroke-width="5"/>
    <rect x="315.623" y="792.539" width="83" height="91" fill="none" stroke="#ccc" stroke-miterlimit="10" stroke-width="5"/>
    <rect x="307.623" y="783.039" width="101" height="110" rx="9.778" ry="9.778" fill="none" stroke="#ccc" stroke-miterlimit="10" stroke-width="5"/>
    <rect x="439.623" y="792.539" width="83" height="91" fill="none" stroke="#ccc" stroke-miterlimit="10" stroke-width="5"/>
    <rect x="431.623" y="783.039" width="101" height="110" rx="9.778" ry="9.778" fill="none" stroke="#ccc" stroke-miterlimit="10" stroke-width="5"/>
    <rect x="563.623" y="792.539" width="83" height="91" fill="none" stroke="#ccc" stroke-miterlimit="10" stroke-width="5"/>
    <rect x="555.623" y="783.039" width="101" height="110" rx="9.778" ry="9.778" fill="none" stroke="#ccc" stroke-miterlimit="10" stroke-width="5"/>
    <rect x="687.623" y="792.539" width="83" height="91" fill="none" stroke="#ccc" stroke-miterlimit="10" stroke-width="5"/>
    <rect x="679.623" y="783.039" width="101" height="110" rx="9.778" ry="9.778" fill="none" stroke="#ccc" stroke-miterlimit="10" stroke-width="5"/>
    <rect x="809.623" y="792.539" width="83" height="91" fill="none" stroke="#ccc" stroke-miterlimit="10" stroke-width="5"/>
    <rect x="801.623" y="783.039" width="101" height="110" rx="9.778" ry="9.778" fill="none" stroke="#ccc" stroke-miterlimit="10" stroke-width="5"/>
    <rect x="936.623" y="792.539" width="83" height="91" fill="none" stroke="#ccc" stroke-miterlimit="10" stroke-width="5"/>
    <rect x="928.623" y="783.039" width="101" height="110" rx="9.778" ry="9.778" fill="none" stroke="#ccc" stroke-miterlimit="10" stroke-width="5"/>
    <rect x="1056.623" y="792.539" width="83" height="91" fill="none" stroke="#ccc" stroke-miterlimit="10" stroke-width="5"/>
    <rect x="1048.623" y="783.039" width="101" height="110" rx="9.778" ry="9.778" fill="none" stroke="#ccc" stroke-miterlimit="10" stroke-width="5"/>
    <rect x="1181.623" y="792.539" width="83" height="91" fill="none" stroke="#ccc" stroke-miterlimit="10" stroke-width="5"/>
    <rect x="1173.623" y="783.039" width="101" height="110" rx="9.778" ry="9.778" fill="none" stroke="#ccc" stroke-miterlimit="10" stroke-width="5"/>
    <circle cx="213.123" cy="265.085" r="34.5" fill="none" stroke="#ccc" stroke-miterlimit="10" stroke-width="3.5"/>
    <circle cx="213.123" cy="265.085" r="27.5" fill="none" stroke="#ccc" stroke-miterlimit="10" stroke-width="3.5"/>
    <circle cx="213.623" cy="718.585" r="34.5" fill="none" stroke="#ccc" stroke-miterlimit="10" stroke-width="3.5"/>
    <circle cx="213.623" cy="718.585" r="27.5" fill="none" stroke="#ccc" stroke-miterlimit="10" stroke-width="3.5"/>
    <circle cx="213.623" cy="837.585" r="34.5" fill="none" stroke="#ccc" stroke-miterlimit="10" stroke-width="3.5"/>
    <circle cx="213.623" cy="837.585" r="27.5" fill="none" stroke="#ccc" stroke-miterlimit="10" stroke-width="3.5"/>
    <circle cx="1372.623" cy="265.085" r="34.5" fill="none" stroke="#ccc" stroke-miterlimit="10" stroke-width="3.5"/>
    <circle cx="1372.623" cy="265.085" r="27.5" fill="none" stroke="#ccc" stroke-miterlimit="10" stroke-width="3.5"/>
    <circle cx="1372.123" cy="718.585" r="34.5" fill="none" stroke="#ccc" stroke-miterlimit="10" stroke-width="3.5"/>
    <circle cx="1372.123" cy="718.585" r="27.5" fill="none" stroke="#ccc" stroke-miterlimit="10" stroke-width="3.5"/>
    <circle cx="1372.123" cy="837.585" r="34.5" fill="none" stroke="#ccc" stroke-miterlimit="10" stroke-width="3.5"/>
    <circle cx="1372.123" cy="837.585" r="27.5" fill="none" stroke="#ccc" stroke-miterlimit="10" stroke-width="3.5"/>
    <g>
      <rect x="321.412" y="805.635" width="66.913" height="64.957" fill="none"/>
      <path d="M335.327,820.004h6.823v36.208h-6.823v-36.208ZM337.817,820.004h21.292v6.574h-21.292v-6.574ZM337.817,835.268h18.552v6.574h-18.552v-6.574Z" fill="#ccc" stroke="#ccc" stroke-miterlimit="10"/>
      <path d="M374.411,856.212h-6.823v-28.189l-4.408,1.668v-7.246l5.404-2.44h5.827v36.208Z" fill="#ccc" stroke="#ccc" stroke-miterlimit="10"/>
    </g>
    <g>
      <rect x="445.412" y="805.635" width="66.913" height="64.957" fill="none"/>
      <path d="M454.633,820.004h6.823v36.208h-6.823v-36.208ZM457.123,820.004h21.292v6.574h-21.292v-6.574ZM457.123,835.268h18.552v6.574h-18.552v-6.574Z" fill="#ccc" stroke="#ccc" stroke-miterlimit="10"/>
      <path d="M483.432,850.061l12.426-16.336c.564-.73,1-1.482,1.307-2.254.307-.772.461-1.49.461-2.154v-.05c0-.979-.315-1.734-.946-2.267-.631-.53-1.528-.797-2.689-.797-1.129,0-2.042.37-2.739,1.108-.697.739-1.121,1.789-1.27,3.15v.024h-6.998v-.024c.149-2.258.693-4.2,1.631-5.827s2.204-2.867,3.798-3.723,3.437-1.283,5.528-1.283c2.257,0,4.188.37,5.79,1.108,1.602.739,2.822,1.814,3.66,3.226s1.258,3.112,1.258,5.104v.024c0,1.645-.286,3.275-.859,4.894-.572,1.619-1.374,3.084-2.403,4.396l-8.915,11.256h12.376v6.574h-21.416v-6.15Z" fill="#ccc" stroke="#ccc" stroke-miterlimit="10"/>
    </g>
    <g>
      <rect x="569.412" y="805.635" width="66.913" height="64.957" fill="none"/>
      <path d="M578.321,820.004h6.823v36.208h-6.823v-36.208ZM580.811,820.004h21.292v6.574h-21.292v-6.574ZM580.811,835.268h18.552v6.574h-18.552v-6.574Z" fill="#ccc" stroke="#ccc" stroke-miterlimit="10"/>
      <path d="M611.927,855.389c-1.71-.797-3.072-1.958-4.084-3.486-1.013-1.526-1.569-3.345-1.668-5.453h7.047c.1.747.319,1.382.66,1.905.34.522.776.921,1.308,1.195.531.273,1.146.411,1.843.411,1.295,0,2.295-.361,3.001-1.084.705-.722,1.058-1.738,1.058-3.051v-.846c0-1.378-.287-2.441-.859-3.188-.573-.748-1.391-1.121-2.453-1.121h-3.063v-6.574h3.063c.863,0,1.531-.327,2.005-.983.473-.656.709-1.573.709-2.752v-.622c0-1.112-.261-1.972-.785-2.578-.522-.605-1.257-.908-2.204-.908-.614,0-1.175.157-1.681.473s-.934.771-1.282,1.369-.598,1.32-.747,2.167h-7.022c.199-2.208.792-4.112,1.78-5.715s2.279-2.822,3.873-3.661c1.594-.838,3.37-1.258,5.329-1.258,3.204,0,5.682.818,7.433,2.453,1.751,1.636,2.627,3.956,2.627,6.961v1.096c0,1.677-.423,3.137-1.27,4.383-.847,1.244-2.051,2.175-3.611,2.789,1.743.398,3.092,1.312,4.046,2.738.955,1.429,1.432,3.246,1.432,5.454v1.096c0,2.108-.415,3.909-1.245,5.403-.831,1.494-2.042,2.632-3.636,3.412s-3.511,1.17-5.752,1.17c-2.191,0-4.143-.398-5.852-1.195Z" fill="#ccc" stroke="#ccc" stroke-miterlimit="10"/>
    </g>
    <g>
      <rect x="693.412" y="805.635" width="66.913" height="64.957" fill="none"/>
      <path d="M701.3,820.004h6.823v36.208h-6.823v-36.208ZM703.79,820.004h21.292v6.574h-21.292v-6.574ZM703.79,835.268h18.552v6.574h-18.552v-6.574Z" fill="#ccc" stroke="#ccc" stroke-miterlimit="10"/>
      <path d="M730.149,844.384l11.156-24.355h7.72l-10.857,24.057h16.262v6.574h-24.28v-6.275ZM744.767,834.921h6.823v21.316h-6.823v-21.316Z" fill="#ccc" stroke="#ccc" stroke-miterlimit="10"/>
    </g>
    <g>
      <rect x="815.412" y="805.635" width="66.913" height="64.957" fill="none"/>
      <path d="M823.924,820.004h6.823v36.208h-6.823v-36.208ZM826.414,820.004h21.291v6.574h-21.291v-6.574ZM826.414,835.268h18.553v6.574h-18.553v-6.574Z" fill="#ccc" stroke="#ccc" stroke-miterlimit="10"/>
      <path d="M858.638,855.302c-1.553-.854-2.798-2.1-3.735-3.735-.938-1.635-1.481-3.573-1.631-5.814v-.025h6.823v.025c.133,1.328.539,2.362,1.221,3.101.68.738,1.568,1.108,2.664,1.108,1.195,0,2.12-.391,2.776-1.171s.983-1.884.983-3.312v-3.039c0-1.427-.295-2.527-.884-3.299-.589-.772-1.415-1.158-2.478-1.158-.979,0-1.814.249-2.503.747s-1.166,1.195-1.432,2.092h-6.375v-20.818h19.448v6.574h-12.625v6.399c.515-.498,1.216-.892,2.104-1.183.888-.29,1.771-.436,2.651-.436,1.876,0,3.482.432,4.819,1.295,1.336.863,2.353,2.125,3.05,3.785s1.047,3.661,1.047,6.001v3.039c0,2.34-.42,4.341-1.258,6.001-.839,1.66-2.055,2.926-3.648,3.798-1.594.871-3.52,1.307-5.777,1.307-1.942,0-3.689-.427-5.242-1.282Z" fill="#ccc" stroke="#ccc" stroke-miterlimit="10"/>
    </g>
    <g>
      <rect x="942.412" y="805.635" width="66.913" height="64.957" fill="none"/>
      <path d="M951.721,820.004h6.823v36.208h-6.823v-36.208ZM954.211,820.004h21.291v6.574h-21.291v-6.574ZM954.211,835.268h18.553v6.574h-18.553v-6.574Z" fill="#ccc" stroke="#ccc" stroke-miterlimit="10"/>
      <path d="M985.189,855.302c-1.585-.854-2.793-2.1-3.623-3.735-.83-1.635-1.245-3.606-1.245-5.914v-.025c0-1.311.162-2.697.485-4.158.324-1.461.784-2.93,1.382-4.408.1-.248.203-.498.312-.746.108-.25.22-.49.337-.723l7.346-15.589h7.72l-8.716,18.054-1.719-.896c.415-.779,1.021-1.386,1.818-1.817s1.727-.647,2.789-.647c1.992,0,3.693.424,5.105,1.27,1.41.848,2.485,2.08,3.225,3.698.738,1.619,1.107,3.565,1.107,5.84v.024c0,2.325-.415,4.317-1.244,5.977-.831,1.661-2.039,2.923-3.624,3.785-1.585.864-3.499,1.295-5.739,1.295-2.226,0-4.131-.427-5.716-1.282ZM993.706,848.953c.656-.706.984-1.706.984-3.001v-.025c0-1.494-.328-2.643-.984-3.448s-1.59-1.208-2.801-1.208c-1.195,0-2.121.411-2.777,1.232-.656.822-.983,1.972-.983,3.449v.025c0,1.295.327,2.291.983,2.988s1.582,1.045,2.777,1.045c1.211,0,2.145-.352,2.801-1.058Z" fill="#ccc" stroke="#ccc" stroke-miterlimit="10"/>
    </g>
    <g>
      <rect x="1062.412" y="805.635" width="66.913" height="64.957" fill="none"/>
      <path d="M1071.966,820.004h6.823v36.208h-6.823v-36.208ZM1074.456,820.004h21.291v6.574h-21.291v-6.574ZM1074.456,835.268h18.553v6.574h-18.553v-6.574Z" fill="#ccc" stroke="#ccc" stroke-miterlimit="10"/>
      <path d="M1121.011,824.536l-8.119,31.676h-7.396l7.869-29.634h-6.226v5.454h-6.823v-12.028h20.694v4.532Z" fill="#ccc" stroke="#ccc" stroke-miterlimit="10"/>
    </g>
    <g>
      <path d="M1201.685,824.549h4.054v29.853h-2.796v-23.18l.112,1.313-3.122,18.54h-2.718l-3.122-18.129.112-1.725v23.18h-2.797v-29.853h4.055l3.11,20.12,3.111-20.12Z" fill="#ccc" stroke="#ccc" stroke-miterlimit="10"/>
      <path d="M1210.046,824.549h3.077v29.853h-3.077v-29.853ZM1211.158,824.549h9.826v5.42h-9.826v-5.42ZM1211.158,836.867h8.591v5.421h-8.591v-5.421ZM1211.158,848.98h9.826v5.421h-9.826v-5.421Z" fill="#ccc" stroke="#ccc" stroke-miterlimit="10"/>
      <path d="M1224.505,824.549h3.763l6.075,22.872-.27.533v-23.405h2.942v29.832h-3.784l-6.054-22.522.27-.534v23.057h-2.942v-29.832Z" fill="#ccc" stroke="#ccc" stroke-miterlimit="10"/>
      <path d="M1243.827,853.405c-.892-.869-1.569-2.135-2.033-3.798s-.696-3.665-.696-6.006v-19.053h3.077v19.196c0,1.712.251,3.039.753,3.983.501.944,1.209,1.417,2.122,1.417.921,0,1.634-.473,2.14-1.417.505-.944.758-2.271.758-3.983v-19.196h3.077v19.053c0,2.341-.234,4.343-.702,6.006s-1.149,2.929-2.044,3.798-1.971,1.304-3.229,1.304-2.332-.435-3.223-1.304Z" fill="#ccc" stroke="#ccc" stroke-miterlimit="10"/>
    </g>
    <g>
      <rect x="315.934" y="672.115" width="70.435" height="25.043" fill="none"/>
      <path d="M324.201,673.28h4.281v22.719h-4.281v-22.719ZM326.076,691.874h7.25c.979,0,1.737-.236,2.273-.711.536-.474.805-1.138.805-1.992v-.047c0-.572-.12-1.062-.359-1.469-.24-.406-.591-.716-1.055-.93-.464-.213-1.019-.32-1.664-.32h-7.25v-4.125h7.25c.885,0,1.57-.224,2.055-.672.484-.447.727-1.078.727-1.891,0-.729-.242-1.297-.727-1.703s-1.169-.609-2.055-.609h-7.25v-4.125h7.391c1.469,0,2.724.242,3.766.727,1.042.484,1.833,1.188,2.375,2.109.542.922.812,2.029.812,3.32,0,.886-.175,1.67-.523,2.352-.349.683-.857,1.242-1.523,1.68-.667.438-1.469.734-2.406.891,1,.136,1.856.44,2.57.914.713.475,1.255,1.092,1.625,1.852.37.761.555,1.641.555,2.641v.047c0,1.303-.273,2.417-.82,3.344-.547.928-1.344,1.633-2.391,2.117s-2.305.727-3.773.727h-7.656v-4.125Z" fill="#ccc" stroke="#ccc" stroke-miterlimit="10"/>
      <path d="M345.849,673.264h4.281v22.734h-4.281v-22.734ZM347.552,682.733h7.906c.438,0,.823-.109,1.156-.328.333-.219.591-.531.773-.938.182-.406.278-.875.289-1.406,0-.531-.091-1-.273-1.406-.183-.406-.44-.719-.773-.938-.333-.219-.724-.328-1.172-.328h-7.906v-4.125h8.25c1.25,0,2.349.281,3.297.844.948.562,1.682,1.357,2.203,2.383.521,1.026.781,2.217.781,3.57s-.261,2.545-.781,3.57c-.521,1.026-1.258,1.82-2.211,2.383s-2.05.844-3.289.844h-8.25v-4.125ZM352.333,686.155l4.578-.719,6.125,10.562h-5.188l-5.516-9.844Z" fill="#ccc" stroke="#ccc" stroke-miterlimit="10"/>
      <path d="M364.575,673.28h16.656v4.125h-16.656v-4.125ZM370.763,675.139h4.281v20.859h-4.281v-20.859Z" fill="#ccc" stroke="#ccc" stroke-miterlimit="10"/>
    </g>
    <g>
      <rect x="1180.586" y="671.895" width="131" height="25.043" fill="none"/>
      <path d="M1193.307,694.971c-1.256-.692-2.227-1.672-2.914-2.938s-1.031-2.731-1.031-4.398v-6.438c0-1.666.344-3.133,1.031-4.398s1.658-2.244,2.914-2.938c1.255-.692,2.705-1.039,4.352-1.039s3.096.347,4.352,1.039c1.255.693,2.227,1.672,2.914,2.938s1.031,2.732,1.031,4.398v6.438c0,1.667-.344,3.133-1.031,4.398s-1.659,2.245-2.914,2.938c-1.256.693-2.706,1.039-4.352,1.039s-3.097-.346-4.352-1.039ZM1199.689,691.237c.583-.328,1.033-.794,1.352-1.398.317-.604.477-1.302.477-2.094v-6.656c0-.791-.159-1.489-.477-2.094-.318-.604-.769-1.07-1.352-1.398-.584-.328-1.261-.492-2.031-.492s-1.448.164-2.031.492c-.584.328-1.034.795-1.352,1.398-.318.604-.477,1.303-.477,2.094v6.656c0,.792.158,1.49.477,2.094.317.604.768,1.07,1.352,1.398.583.328,1.26.492,2.031.492s1.447-.164,2.031-.492Z" fill="#ccc" stroke="#ccc" stroke-miterlimit="10"/>
      <path d="M1211.166,673.057h4.281v22.719h-4.281v-22.719ZM1212.728,673.057h13.359v4.125h-13.359v-4.125ZM1212.728,682.635h11.641v4.125h-11.641v-4.125Z" fill="#ccc" stroke="#ccc" stroke-miterlimit="10"/>
      <path d="M1230.361,673.057h4.281v22.719h-4.281v-22.719ZM1231.924,673.057h13.359v4.125h-13.359v-4.125ZM1231.924,682.635h11.641v4.125h-11.641v-4.125Z" fill="#ccc" stroke="#ccc" stroke-miterlimit="10"/>
      <path d="M1250.337,700.089h-4.062l10.156-29.719h4.062l-10.156,29.719Z" fill="#ccc" stroke="#ccc" stroke-miterlimit="10"/>
      <path d="M1267.071,694.971c-1.256-.692-2.227-1.672-2.914-2.938s-1.031-2.731-1.031-4.398v-6.438c0-1.666.344-3.133,1.031-4.398s1.658-2.244,2.914-2.938c1.255-.692,2.705-1.039,4.352-1.039s3.096.347,4.352,1.039c1.255.693,2.227,1.672,2.914,2.938s1.031,2.732,1.031,4.398v6.438c0,1.667-.344,3.133-1.031,4.398s-1.659,2.245-2.914,2.938c-1.256.693-2.706,1.039-4.352,1.039s-3.097-.346-4.352-1.039ZM1273.454,691.237c.583-.328,1.033-.794,1.352-1.398.317-.604.477-1.302.477-2.094v-6.656c0-.791-.159-1.489-.477-2.094-.318-.604-.769-1.07-1.352-1.398-.584-.328-1.261-.492-2.031-.492s-1.448.164-2.031.492c-.584.328-1.034.795-1.352,1.398-.318.604-.477,1.303-.477,2.094v6.656c0,.792.158,1.49.477,2.094.317.604.768,1.07,1.352,1.398.583.328,1.26.492,2.031.492s1.447-.164,2.031-.492Z" fill="#ccc" stroke="#ccc" stroke-miterlimit="10"/>
      <path d="M1284.931,673.057h5.234l8.453,17.406-.375.406v-17.812h4.094v22.703h-5.266l-8.422-17.141.375-.406v17.547h-4.094v-22.703Z" fill="#ccc" stroke="#ccc" stroke-miterlimit="10"/>
    </g>
  </g>
  <g id="Scratchpad_-_Dark">
    <g>
      <path d="M483.164,697.036v37.593h12.121v3.515h-15.634v-44.62h15.634v3.513h-12.121Z" fill="#ccc" stroke="#ccc" stroke-miterlimit="10" stroke-width="1.5"/>
      <path d="M1104.113,693.34v44.62h-15.635v-3.514h12.121v-37.593h-12.121v-3.514h15.635Z" fill="#ccc" stroke="#ccc" stroke-miterlimit="10" stroke-width="1.5"/>
    </g>
  </g>
  <g id="Flt_Pln_Select_1_x2F_2_Page_-_Dark">
    <g>
      <rect x="536.354" y="284.046" width="508" height="52.826" fill="none"/>
      <path d="M611.466,295.728v11.569h9.171v2.822h-9.171v17.072h-2.822v-34.284h21.305v2.822h-18.483Z" fill="#ccc" stroke="#ccc" stroke-miterlimit="10" stroke-width="1.5"/>
      <path d="M636.377,327.208v-33.014h2.822v33.014h-2.822Z" fill="#ccc" stroke="#ccc" stroke-miterlimit="10" stroke-width="1.5"/>
      <path d="M652.693,307.591v13.262c0,1.111.259,2.143.661,2.624.473.552,1.713.903,2.583.903.85,0,1.757-.332,1.767-.334l.235-.089h.679v2.537l.074.195c-.014.005-.04.014-.074.027v.063h-.189c-.464.149-1.454.423-2.493.423-1.546,0-3.612-.588-4.739-1.903-1.198-1.439-1.326-3.587-1.326-4.445v-13.262h-4.233v-2.822h4.233v-6.208h2.822v6.208h6.349v2.822h-6.349Z" fill="#ccc" stroke="#ccc" stroke-miterlimit="10" stroke-width="1.5"/>
      <path d="M701.807,299.417c.559,1.301.82,2.464.82,3.66,0,1.24-.284,2.554-.82,3.803-.471,1.097-1.249,2.236-2.133,3.12-.815.816-2.135,1.904-3.795,2.458-1.543.691-3.335.777-4.539.777h-8.04v13.968h-2.822v-34.425h10.723c1.697,0,3.179.308,4.666.968,1.528.681,2.774,1.515,3.81,2.549.885.885,1.662,2.021,2.133,3.123h-.001ZM699.217,305.766c.386-.9.591-1.83.591-2.689,0-.812-.182-1.597-.591-2.548-.326-.76-.915-1.618-1.535-2.239-.799-.797-1.739-1.422-2.961-1.967-1.127-.501-2.212-.724-3.519-.724h-7.9v14.814h8.04c1.525,0,2.609-.179,3.519-.584,1.016-.346,1.971-.975,2.82-1.824.622-.622,1.21-1.479,1.535-2.239h.001Z" fill="#ccc" stroke="#ccc" stroke-miterlimit="10" stroke-width="1.5"/>
      <path d="M709.043,327.208v-33.014h2.822v33.014h-2.822Z" fill="#ccc" stroke="#ccc" stroke-miterlimit="10" stroke-width="1.5"/>
      <path d="M736.488,311.507c.39,1.946.217,3.624.153,4.097v11.61h-2.822l.021-11.942c0-.01.229-1.488-.133-3.301-.226-1.67-.81-2.861-1.803-3.73-.738-.645-2.146-1.061-3.587-1.061-1.22,0-2.466.446-3.507,1.255-2.151,1.813-3.265,4.298-3.265,7.351v11.428h-2.822v-11.428c0-.086.011-.166.013-.251l-.152.004s-.143-5.811-.143-7.653c0-.929-.137-2.988-.137-3.009l2.815-.188c.006.089.144,2.174.144,3.197v.197c.517-.661,1.105-1.278,1.772-1.841,1.577-1.228,3.437-1.883,5.282-1.883,2.149,0,4.184.659,5.444,1.76,1.508,1.321,2.427,3.134,2.728,5.39h0Z" fill="#ccc" stroke="#ccc" stroke-miterlimit="10" stroke-width="1.5"/>
      <path d="M779.27,313.213c.612,1.213.907,2.407.907,3.547,0,3.039-1.114,5.535-3.315,7.419-2.056,1.899-4.656,2.88-7.689,2.88h-.282c-2.859,0-5.495-1.017-7.831-3.021-1.826-1.545-2.361-2.91-2.749-3.906-.058-.145-.111-.285-.169-.419l2.593-1.113c.069.161.136.329.205.504.325.834.663,1.696,1.951,2.785,1.844,1.583,3.805,2.348,6.002,2.348h.282c2.333,0,4.236-.708,5.813-2.166,1.63-1.397,2.369-3.073,2.369-5.312,0-.694-.197-1.473-.557-2.191-.31-.506-.758-1.175-1.354-1.573-.687-.542-1.566-1.049-2.454-1.429-.575-.247-1.223-.446-1.974-.676-.416-.128-.851-.262-1.303-.412l-4.149-1.105c-2.235-.687-3.849-1.721-4.981-3.177-1.229-1.579-1.851-3.436-1.851-5.522,0-2.581,1.07-4.794,3.18-6.581,2.005-1.851,4.28-2.733,7.121-2.733h.28c2.853.165,5.234,1.143,7.162,2.909,1.464,1.301,2.351,2.857,2.691,4.739l-2.777.502c-.23-1.271-.786-2.242-1.805-3.148-1.452-1.331-3.25-2.061-5.354-2.186l-.199.003c-2.114,0-3.735.625-5.251,2.025-1.514,1.284-2.228,2.731-2.228,4.467,0,1.445.423,2.719,1.255,3.79.776.998,1.899,1.696,3.535,2.2l4.182,1.114c.512.167.924.293,1.319.415.795.244,1.545.474,2.26.78,1.125.481,2.22,1.117,3.007,1.747.962.636,1.64,1.623,2.161,2.493h-.003Z" fill="#ccc" stroke="#ccc" stroke-miterlimit="10" stroke-width="1.5"/>
      <path d="M806.219,316.185h-16.783c.161,5.134,3.243,8.183,8.318,8.183,2.54,0,4.349-.453,5.249-.745.849-.419,1.308-.577,1.358-.594l.447,1.339.454,1.336c-.053.018-.416.152-1.094.491l-.183.076c-1.258.419-3.358.918-6.232.918-6.771,0-11.146-4.486-11.146-11.428,0-7.597,3.955-12.133,10.581-12.133,7.423,0,9.029,8.935,9.029,11.146v1.411ZM803.228,313.364c-.466-2.473-2.015-6.913-6.039-6.913-5.23,0-7.091,3.368-7.599,6.913h13.638Z" fill="#ccc" stroke="#ccc" stroke-miterlimit="10" stroke-width="1.5"/>
      <path d="M812.628,327.208v-33.014h2.821v33.014h-2.821Z" fill="#ccc" stroke="#ccc" stroke-miterlimit="10" stroke-width="1.5"/>
      <path d="M841.498,316.185h-16.783c.161,5.134,3.243,8.183,8.318,8.183,2.54,0,4.349-.453,5.249-.745.849-.419,1.308-.577,1.358-.594l.447,1.339.454,1.336c-.053.018-.416.152-1.094.491l-.183.076c-1.258.419-3.358.918-6.232.918-6.771,0-11.146-4.486-11.146-11.428,0-7.597,3.955-12.133,10.581-12.133,7.423,0,9.029,8.935,9.029,11.146v1.411ZM838.508,313.364c-.466-2.473-2.015-6.913-6.039-6.913-5.23,0-7.091,3.368-7.599,6.913h13.638Z" fill="#ccc" stroke="#ccc" stroke-miterlimit="10" stroke-width="1.5"/>
      <path d="M864.546,323.216l1.146,2.579-.78.346c-.653.992-2.567,1.045-5.859,1.045-6.771,0-11.146-4.542-11.146-11.569,0-7.173,4.819-11.992,11.992-11.992,1.552,0,3.689.267,4.582.714.512.255,1.148.51,1.163.516l-1.05,2.619s-.765-.308-1.376-.613c-.324-.145-1.838-.416-3.319-.416-5.571,0-9.171,3.599-9.171,9.17,0,5.477,3.112,8.748,8.324,8.748,2.191,0,3.191-.082,3.636-.144.2-.244.463-.405.714-.489l1.145-.515h0Z" fill="#ccc" stroke="#ccc" stroke-miterlimit="10" stroke-width="1.5"/>
      <path d="M879.166,307.591v13.262c0,1.111.26,2.143.662,2.624.473.552,1.713.903,2.583.903.85,0,1.757-.332,1.767-.334l.235-.089h.679v2.537l.073.195c-.014.005-.039.014-.073.027v.063h-.189c-.464.149-1.454.423-2.492.423-1.547,0-3.612-.588-4.739-1.903-1.198-1.439-1.326-3.587-1.326-4.445v-13.262h-4.232v-2.822h4.232v-6.208h2.821v6.208h6.35v2.822h-6.35Z" fill="#ccc" stroke="#ccc" stroke-miterlimit="10" stroke-width="1.5"/>
      <path d="M916.88,324.48v2.822h-9.03v-2.822h3.104v-28.956l-2.205,1.826-1.799-2.174,4.482-3.709h2.343v33.013h3.104Z" fill="#ccc" stroke="#ccc" stroke-miterlimit="10" stroke-width="1.5"/>
      <path d="M944.339,302.569v1.857l-18.202,18.061v.399l-.416.014-.015-.014h-2.391v-1.576l18.201-18.059v-.682h2.822Z" fill="#ccc" stroke="#ccc" stroke-miterlimit="10" stroke-width="1.5"/>
      <path d="M954.616,324.621h17.444v2.822h-21.305v-2.812l3.71-4.048c1.943-2.166,3.728-4.151,5.42-5.957.841-.841,1.684-1.824,2.497-2.775.852-.992,4.25-4.817,4.25-4.817.385-.388.603-.662.748-.842.086-.109.159-.196.22-.264.413-.526.761-1.192,1.006-1.928.233-.699.352-1.257.352-2.376,0-.961-.199-1.914-.591-2.831-.357-.947-.926-1.629-1.677-2.38-.856-.706-1.667-1.213-2.46-1.51-2.27-.851-3.797-.849-6.062,0-1.039.39-1.82.869-2.463,1.511-.74.741-1.336,1.585-1.676,2.38l-2.593-1.112c.485-1.133,1.272-2.262,2.274-3.263.925-.924,2.059-1.629,3.466-2.157,2.887-1.086,5.151-1.086,8.045,0,1.443.542,2.614,1.442,3.371,2.071.926.918,1.851,1.965,2.393,3.41.521,1.209.796,2.535.796,3.881,0,1.484-.19,2.35-.497,3.269-.354,1.064-.876,2.044-1.507,2.833l-.193.23c-.188.237-.473.591-.898,1.016.003,0-3.322,3.742-4.159,4.718-.85.991-1.727,2.015-2.613,2.901-1.649,1.759-3.418,3.73-5.349,5.879l-1.946,2.151h-.002Z" fill="#ccc" stroke="#ccc" stroke-miterlimit="10" stroke-width="1.5"/>
    </g>
    <g>
      <rect x="435.587" y="351.693" width="315.619" height="52.826" fill="none"/>
      <path d="M455.152,379.77h-9.312v4.753l-7.804-6.189,7.804-5.92v4.535h9.312v2.821Z" fill="#ccc" stroke="#ccc" stroke-miterlimit="10" stroke-width="1.5"/>
      <path d="M483.144,360.699v24.549c0,1.578-.361,3.032-1.137,4.583-.297.597-.635,1.272-1.179,1.844-.533.684-1.188,1.175-1.77,1.613l-.127.084c-.746.447-1.584.951-2.643,1.15-1.092.341-2.63.463-3.728.463-1.166,0-2.484,0-3.713-.501-1.077-.313-1.741-.646-2.514-1.11-.776-.466-1.649-.99-2.238-1.773-.135-.182-.292-.344-.443-.504-.327-.347-.697-.739-.959-1.264-.447-.895-.949-1.902-1.123-3.114l-.014-.199v-1.27h2.822v1.161c.123.726.47,1.419.837,2.153.079.158.279.37.491.595.222.236.447.479.647.747.257.34.853.698,1.428,1.044.635.381,1.083.604,1.923.844l.169.059c.719.309,1.676.309,2.688.309,1.11,0,2.32-.146,2.939-.352l.216-.053c.563-.093,1.093-.404,1.7-.768.479-.36.921-.7,1.212-1.086l.13-.149c.262-.263.487-.711.724-1.186.573-1.144.839-2.199.839-3.32v-24.549h2.823Z" fill="#ccc" stroke="#ccc" stroke-miterlimit="10" stroke-width="1.5"/>
      <path d="M510.6,365.147c.65,1.305.995,2.792.995,4.3v15.379c0,1.509-.344,2.997-.995,4.299-.612,1.225-1.535,2.37-2.743,3.404-1.08.9-2.239,1.511-3.461,1.83-1.115.406-2.317.612-3.666.625h-.141c-1.508-.011-2.712-.214-3.881-.653-1.275-.479-2.408-1.129-3.372-1.932-1.223-1.048-2.146-2.194-2.757-3.416-.652-1.302-.996-2.79-.996-4.299v-15.379c0-1.51.346-2.997.996-4.299.611-1.225,1.535-2.369,2.743-3.404,1.078-.899,2.238-1.51,3.459-1.829,1.15-.42,2.397-.626,3.807-.626,1.514,0,2.869.22,4.024.655,1.272.477,2.406,1.127,3.371,1.93,1.072.918,1.923,2.033,2.616,3.415h.001ZM508.77,384.824v-15.379c0-1.072-.241-2.123-.697-3.038-.528-1.054-1.134-1.855-1.913-2.522-.706-.587-1.566-1.077-2.54-1.442-.828-.311-1.875-.474-3.032-.474-1.11,0-2.03.151-2.891.474l-.154.048c-.835.209-1.643.635-2.4,1.267-.906.776-1.599,1.625-2.041,2.51-.457.915-.698,1.964-.698,3.038v15.377c0,1.074.243,2.125.698,3.038.44.883,1.133,1.732,2.055,2.522.705.587,1.566,1.077,2.541,1.443.857.322,1.772.468,2.957.474,1.079-.006,1.977-.157,2.825-.474l.152-.048c.835-.209,1.644-.635,2.403-1.267.904-.776,1.597-1.625,2.039-2.51.456-.912.697-1.963.697-3.036h-.001Z" fill="#ccc" stroke="#ccc" stroke-miterlimit="10" stroke-width="1.5"/>
      <path d="M539.449,392.162v2.822h-21.445v-34.285h2.822v31.463h18.624Z" fill="#ccc" stroke="#ccc" stroke-miterlimit="10" stroke-width="1.5"/>
      <path d="M567.33,392.162v2.822h-21.445v-34.285h2.822v31.463h18.624Z" fill="#ccc" stroke="#ccc" stroke-miterlimit="10" stroke-width="1.5"/>
      <path d="M595.917,362.721l-9.736,13.121v19.004h-2.821v-19.01l-9.594-13.12v-.743h1.798l.753-.55,8.462,11.575,8.594-11.583.752.559h1.792v.748Z" fill="#ccc" stroke="#ccc" stroke-miterlimit="10" stroke-width="1.5"/>
    </g>
    <g>
      <rect x="435.587" y="469.792" width="449.314" height="52.826" fill="none"/>
      <path d="M455.152,497.869h-9.312v4.753l-7.804-6.189,7.804-5.92v4.535h9.312v2.821Z" fill="#ccc" stroke="#ccc" stroke-miterlimit="10" stroke-width="1.5"/>
      <path d="M475.559,498.632l8.149,13.498v.817h-2.112l-.507.306-8.622-14.278c-.062,0-.127.004-.188.004h-7.902v13.968h-2.822v-34.425h10.582c1.628,0,3.239.336,4.666.968,1.531.681,2.777,1.515,3.81,2.549.838.837,1.458,1.923,2.06,2.973l.075.15c.559,1.306.82,2.469.82,3.66,0,1.236-.284,2.55-.82,3.801-.472,1.1-1.251,2.239-2.134,3.122-.816.816-2.135,1.904-3.795,2.458-.417.186-.837.323-1.259.432h0ZM464.378,481.343v14.814h7.902c1.586,0,2.572-.165,3.518-.584,1.016-.346,1.971-.975,2.82-1.824.629-.631,1.205-1.469,1.537-2.24.386-.902.591-1.832.591-2.688,0-.788-.173-1.553-.56-2.476-.52-.908-1.009-1.754-1.566-2.312-.797-.797-1.738-1.422-2.961-1.966-1.066-.473-2.283-.725-3.519-.725h-7.761Z" fill="#ccc" stroke="#ccc" stroke-miterlimit="10" stroke-width="1.5"/>
      <path d="M511.14,483.246c.65,1.305.995,2.792.995,4.3v15.379c0,1.509-.344,2.997-.995,4.299-.612,1.225-1.535,2.37-2.743,3.404-1.08.9-2.239,1.511-3.461,1.83-1.115.406-2.317.612-3.666.625h-.141c-1.508-.011-2.712-.214-3.881-.653-1.275-.479-2.408-1.129-3.372-1.932-1.223-1.048-2.146-2.194-2.757-3.416-.652-1.302-.996-2.79-.996-4.299v-15.379c0-1.51.346-2.997.996-4.299.611-1.225,1.535-2.369,2.743-3.404,1.078-.899,2.238-1.51,3.459-1.829,1.15-.42,2.397-.626,3.807-.626,1.514,0,2.869.22,4.024.655,1.272.477,2.406,1.127,3.371,1.93,1.072.918,1.923,2.033,2.616,3.415h.001ZM509.309,502.924v-15.379c0-1.072-.241-2.123-.697-3.038-.528-1.054-1.134-1.855-1.913-2.522-.706-.587-1.566-1.077-2.54-1.442-.828-.311-1.875-.474-3.032-.474-1.11,0-2.03.151-2.891.474l-.154.048c-.835.209-1.643.635-2.4,1.267-.906.776-1.599,1.625-2.041,2.51-.457.915-.698,1.964-.698,3.038v15.377c0,1.074.243,2.125.698,3.038.44.883,1.133,1.732,2.055,2.522.705.587,1.566,1.077,2.541,1.443.857.322,1.772.468,2.957.474,1.079-.006,1.977-.157,2.825-.474l.152-.048c.835-.209,1.644-.635,2.403-1.267.904-.776,1.597-1.625,2.039-2.51.456-.912.697-1.963.697-3.036h-.001Z" fill="#ccc" stroke="#ccc" stroke-miterlimit="10" stroke-width="1.5"/>
      <path d="M530.959,493.739h10.158v10.158c0,1.06,0,2.662-.92,4.134l-.125.19c-.552.833-1.122,1.693-2.439,2.516-.65.494-2.245,1.26-3.355,1.676-1.174.44-2.536.655-4.164.655s-2.99-.214-4.164-.655c-1.443-.542-2.624-1.191-3.512-1.93-1.246-.933-2.062-2.075-2.782-3.083l-.117-.193c-.652-1.302-.996-2.79-.996-4.299v-15.52c0-1.723.371-3.085,1.202-4.416.665-1.345,1.93-2.525,2.817-3.287,1.045-.871,2.307-1.343,3.526-1.801,1.175-.441,2.538-.656,4.167-.656s2.99.214,4.164.655c1.09.408,2.25.962,3.45,1.646l.146.096c1.449,1.088,2.492,2.253,3.096,3.461l-2.524,1.263c-.398-.796-1.136-1.607-2.195-2.413-1.027-.581-2.05-1.068-2.963-1.411-.852-.32-1.889-.476-3.173-.476s-2.322.154-3.173.474c-1.048.394-2.036.763-2.697,1.315-.686.59-1.679,1.507-2.18,2.51-.608.985-.839,1.858-.839,3.038v15.52c0,1.037.226,2.051.652,2.943.638.89,1.25,1.729,2.171,2.418.691.573,1.624,1.076,2.752,1.5.853.32,1.889.476,3.173.476s2.321-.155,3.173-.474c1.075-.403,2.341-1.051,2.753-1.36.896-.567,1.209-1.037,1.68-1.75l.107-.163c.468-.75.468-1.735.468-2.603v-7.336h-7.336v-2.819Z" fill="#ccc" stroke="#ccc" stroke-miterlimit="10" stroke-width="1.5"/>
      <path d="M550.372,480.051v11.569h10.159v2.822h-10.159v15.661h18.483v2.822h-21.305v-35.695h21.305v2.822h-18.483Z" fill="#ccc" stroke="#ccc" stroke-miterlimit="10" stroke-width="1.5"/>
      <path d="M589.286,498.632l8.149,13.498v.817h-2.112l-.507.306-8.622-14.278c-.062,0-.127.004-.188.004h-7.902v13.968h-2.822v-34.425h10.582c1.628,0,3.239.336,4.666.968,1.531.681,2.777,1.515,3.81,2.549.838.837,1.458,1.923,2.06,2.973l.075.15c.559,1.306.82,2.469.82,3.66,0,1.236-.284,2.55-.82,3.801-.472,1.1-1.251,2.239-2.134,3.122-.816.816-2.135,1.904-3.795,2.458-.417.186-.837.323-1.259.432h0ZM578.105,481.343v14.814h7.902c1.586,0,2.572-.165,3.518-.584,1.016-.346,1.971-.975,2.82-1.824.629-.631,1.205-1.469,1.537-2.24.386-.902.591-1.832.591-2.688,0-.788-.173-1.553-.56-2.476-.52-.908-1.009-1.754-1.566-2.312-.797-.797-1.738-1.422-2.961-1.966-1.066-.473-2.283-.725-3.519-.725h-7.761Z" fill="#ccc" stroke="#ccc" stroke-miterlimit="10" stroke-width="1.5"/>
      <path d="M624.98,498.956c.612,1.213.907,2.407.907,3.547,0,3.039-1.115,5.535-3.315,7.419-2.056,1.899-4.656,2.88-7.689,2.88h-.282c-2.86,0-5.495-1.017-7.832-3.021-1.826-1.545-2.361-2.91-2.749-3.906-.058-.145-.111-.285-.169-.419l2.593-1.113c.069.161.135.329.205.504.326.834.663,1.696,1.951,2.785,1.844,1.583,3.805,2.348,6.002,2.348h.282c2.333,0,4.237-.708,5.814-2.166,1.63-1.397,2.369-3.073,2.369-5.312,0-.694-.198-1.473-.557-2.191-.309-.506-.758-1.175-1.354-1.573-.686-.542-1.566-1.049-2.454-1.429-.576-.247-1.223-.446-1.974-.676-.416-.128-.851-.262-1.302-.412l-4.149-1.105c-2.236-.687-3.849-1.721-4.981-3.177-1.229-1.579-1.851-3.436-1.851-5.522,0-2.581,1.071-4.794,3.18-6.581,2.005-1.851,4.28-2.733,7.121-2.733h.281c2.853.165,5.234,1.143,7.162,2.909,1.464,1.301,2.351,2.857,2.692,4.739l-2.778.502c-.23-1.271-.786-2.242-1.805-3.148-1.452-1.331-3.25-2.061-5.354-2.186l-.199.003c-2.115,0-3.736.625-5.251,2.025-1.514,1.284-2.228,2.731-2.228,4.467,0,1.444.423,2.719,1.255,3.79.776.998,1.899,1.696,3.535,2.2l4.182,1.114c.512.167.924.293,1.319.415.795.244,1.545.474,2.26.78,1.125.481,2.219,1.117,3.006,1.747.962.636,1.64,1.623,2.162,2.493h-.003Z" fill="#ccc" stroke="#ccc" stroke-miterlimit="10" stroke-width="1.5"/>
    </g>
    <g>
      <rect x="613.326" y="596.043" width="535.46" height="52.826" fill="none"/>
      <path d="M800.021,619.991l-.145,19.184-2.822-.021.08-10.713h-16.305v10.723h-2.822v-19.179l9.669-15.107h2.674l9.671,15.113ZM797.156,625.618l.037-4.812-8.181-12.781-8.183,12.785v4.809h16.326Z" fill="#ccc" stroke="#ccc" stroke-miterlimit="10" stroke-width="1.5"/>
      <path d="M824.41,634.33c.856-.646,1.598-1.466,2.267-2.537l2.393,1.496c-.848,1.357-1.84,2.45-3.03,3.345-.995.666-2.231,1.284-3.454,1.744-1.392.464-2.662.654-4.307.654-1.746,0-3.113-.207-4.304-.653-1.225-.407-2.341-.988-3.57-1.866-1.222-.761-2.278-1.933-2.98-3.34-.652-1.301-.996-2.788-.996-4.299v-15.379c0-1.784.574-3.176,1.136-4.299.914-1.474,1.904-2.567,3.097-3.461.991-.664,2.228-1.283,3.454-1.743,1.385-.463,2.657-.653,4.304-.653,1.749,0,3.115.209,4.305.654,1.224.406,2.34.986,3.57,1.865,1.326.996,2.32,2.16,2.98,3.48l-2.523,1.263c-.463-.927-1.177-1.756-2.124-2.466-.978-.698-1.837-1.147-2.844-1.483-.913-.341-1.966-.492-3.364-.492-1.341,0-2.316.143-3.363.492-.983.37-2.009.882-2.767,1.388-.856.645-1.597,1.466-2.268,2.536-.438.891-.772,1.792-.772,2.921v15.377c0,1.075.241,2.125.696,3.036.479.957,1.16,1.716,2.026,2.258,1.076.766,1.935,1.216,2.943,1.552.912.342,1.967.492,3.363.492,1.339,0,2.313-.143,3.363-.492.98-.368,2.008-.882,2.767-1.387l.003-.003Z" fill="#ccc" stroke="#ccc" stroke-miterlimit="10" stroke-width="1.5"/>
      <path d="M856.279,607.784h-8.888v31.462h-2.822v-31.462h-8.889v-2.822h20.599v2.822Z" fill="#ccc" stroke="#ccc" stroke-miterlimit="10" stroke-width="1.5"/>
      <path d="M872.413,606.32v30.192h6.914v2.822h-16.648v-2.822h6.913v-30.192h-6.913v-2.822h16.648v2.822h-6.914Z" fill="#ccc" stroke="#ccc" stroke-miterlimit="10" stroke-width="1.5"/>
      <path d="M911.858,604.903v7.705l-22.193,26.721h-3.907v-34.426h2.821v31.315l20.458-24.631v-6.685h2.821Z" fill="#ccc" stroke="#ccc" stroke-miterlimit="10" stroke-width="1.5"/>
      <path d="M940.307,619.991l-.146,19.184-2.821-.021.08-10.713h-16.306v10.723h-2.821v-19.179l9.668-15.107h2.674l9.672,15.113ZM937.441,625.618l.036-4.812-8.18-12.781-8.184,12.785v4.809h16.327Z" fill="#ccc" stroke="#ccc" stroke-miterlimit="10" stroke-width="1.5"/>
      <path d="M967.311,607.784h-8.888v31.462h-2.822v-31.462h-8.889v-2.822h20.599v2.822Z" fill="#ccc" stroke="#ccc" stroke-miterlimit="10" stroke-width="1.5"/>
      <path d="M976.532,606.302v11.569h10.158v2.821h-10.158v15.661h18.482v2.821h-21.304v-35.695h21.304v2.822h-18.482Z" fill="#ccc" stroke="#ccc" stroke-miterlimit="10" stroke-width="1.5"/>
      <path d="M1019.26,607.722v11.568h9.171v2.822h-9.171v17.071h-2.821v-34.284h21.304v2.822h-18.482Z" fill="#ccc" stroke="#ccc" stroke-miterlimit="10" stroke-width="1.5"/>
      <path d="M1065.503,611.412c.559,1.301.819,2.464.819,3.659,0,1.24-.283,2.554-.819,3.803-.472,1.098-1.248,2.236-2.134,3.12-.814.816-2.135,1.904-3.795,2.459-1.543.691-3.335.776-4.539.776h-8.04v13.968h-2.822v-34.425h10.723c1.697,0,3.179.308,4.666.968,1.528.681,2.773,1.515,3.81,2.549.885.885,1.662,2.021,2.133,3.123h0ZM1062.912,617.76c.387-.9.592-1.83.592-2.689,0-.812-.183-1.597-.592-2.548-.325-.76-.914-1.618-1.535-2.239-.798-.797-1.739-1.422-2.961-1.967-1.127-.501-2.212-.724-3.519-.724h-7.901v14.814h8.041c1.525,0,2.608-.18,3.519-.584,1.016-.346,1.971-.976,2.82-1.824.622-.622,1.211-1.479,1.535-2.239h0Z" fill="#ccc" stroke="#ccc" stroke-miterlimit="10" stroke-width="1.5"/>
      <path d="M1094.183,636.512v2.822h-21.445v-34.285h2.821v31.463h18.624Z" fill="#ccc" stroke="#ccc" stroke-miterlimit="10" stroke-width="1.5"/>
      <path d="M1122.628,604.719v34.455h-2.8l-16.389-29.028v29.005h-2.821v-34.285h3.081l16.106,28.528v-28.675h2.822Z" fill="#ccc" stroke="#ccc" stroke-miterlimit="10" stroke-width="1.5"/>
      <path d="M1138.349,628.863v-4.693h-9.312v-2.822h9.312v-4.479l7.995,5.864-7.995,6.13Z" fill="#ccc" stroke="#ccc" stroke-miterlimit="10" stroke-width="1.5"/>
    </g>
    <g>
      <rect x="428.887" y="676.168" width="48.49" height="58.293" fill="none"/>
      <path d="M455.434,722.761h6.765l-8.859,12.076-9.257-12.076h7.09v-11.934h-7.18l9.347-11.789,8.944,11.789h-6.85v11.934Z" fill="#ccc" stroke="#ccc" stroke-miterlimit="10"/>
    </g>
    <g>
      <rect x="784.028" y="469.479" width="355.5" height="52.826" fill="none"/>
      <path d="M1029.377,498.653c.418,1.106.819,2.438.819,4.364,0,1.995-.216,3.427-.679,4.506-.551,1.475-1.289,2.545-2.231,3.218-.879.833-2.062,1.37-3.438,1.562-1.139.308-2.232.308-3.386.308h-13.686v-17.193l-.282-.282v-18.502h13.401c1.164,0,2.294.172,3.268.495,1.17.333,2.369,1.03,3.232,1.894.884.883,1.662,2.021,2.134,3.121.417,1.112.819,2.444.819,4.367,0,1.903-.207,3.344-.635,4.401-.34,1.261-1.113,2.476-2.09,3.282-.191.188-.397.351-.606.506.365.251.704.506.99.745.983.818,1.846,1.988,2.369,3.208h0ZM1009.315,479.455v13.683h11.147c.41,0,.824.045,1.236.089.315-.031.61-.075.857-.156l.271-.061c.783-.097,1.356-.365,1.858-.868l.117-.104c.418-.334.984-1.038,1.205-1.92l.072-.214c.299-.696.449-1.837.449-3.394,0-1.469-.296-2.462-.616-3.315-.302-.698-.891-1.556-1.511-2.177-.528-.528-1.303-.974-2.071-1.194-.736-.244-1.582-.368-2.434-.368h-10.582ZM1026.899,506.473c.323-.756.474-1.899.474-3.456,0-1.47-.295-2.46-.615-3.312-.328-.765-.905-1.549-1.558-2.092-.846-.706-1.494-1.088-2.164-1.28-.422-.122-.845-.21-1.269-.272-.56.042-1.136.044-1.729.044h-10.44v13.686h10.864c1.07,0,1.918,0,2.716-.229l.213-.044c.847-.105,1.538-.406,1.999-.868l.215-.176c.489-.326.912-.98,1.295-2.002h0Z" fill="#ccc" stroke="#ccc" stroke-miterlimit="10" stroke-width="1.5"/>
      <path d="M1039.45,479.737v11.569h10.158v2.822h-10.158v15.661h18.482v2.822h-21.304v-35.695h21.304v2.822h-18.482Z" fill="#ccc" stroke="#ccc" stroke-miterlimit="10" stroke-width="1.5"/>
      <path d="M1084.962,481.219h-8.888v31.462h-2.822v-31.462h-8.889v-2.822h20.599v2.822Z" fill="#ccc" stroke="#ccc" stroke-miterlimit="10" stroke-width="1.5"/>
      <path d="M1113.375,493.427l-.146,19.184-2.821-.021.08-10.713h-16.306v10.723h-2.821v-19.178l9.668-15.108h2.674l9.672,15.114ZM1110.51,499.053l.036-4.812-8.18-12.781-8.184,12.786v4.808h16.327Z" fill="#ccc" stroke="#ccc" stroke-miterlimit="10" stroke-width="1.5"/>
      <path d="M1129.093,502.299v-4.694h-9.312v-2.822h9.312v-4.479l7.995,5.864-7.995,6.13Z" fill="#ccc" stroke="#ccc" stroke-miterlimit="10" stroke-width="1.5"/>
    </g>
    <g>
      <rect x="784.028" y="350.86" width="355.5" height="52.826" fill="none"/>
      <path d="M991.246,379.7l8.148,13.498v.816h-2.111l-.507.307-8.622-14.278c-.062,0-.127.004-.188.004h-7.902v13.968h-2.821v-34.425h10.581c1.628,0,3.239.336,4.666.968,1.53.681,2.776,1.515,3.81,2.549.838.837,1.459,1.924,2.06,2.973l.074.15c.56,1.306.82,2.469.82,3.659,0,1.236-.283,2.55-.82,3.802-.472,1.1-1.251,2.238-2.134,3.121-.815.816-2.135,1.904-3.795,2.459-.417.186-.837.322-1.259.432v-.002ZM980.064,362.411v14.814h7.902c1.586,0,2.572-.165,3.518-.584,1.016-.346,1.971-.976,2.82-1.824.629-.631,1.205-1.469,1.536-2.24.387-.902.591-1.832.591-2.688,0-.787-.173-1.553-.56-2.476-.52-.907-1.009-1.754-1.566-2.312-.797-.797-1.738-1.422-2.961-1.967-1.066-.473-2.283-.724-3.519-.724h-7.762Z" fill="#ccc" stroke="#ccc" stroke-miterlimit="10" stroke-width="1.5"/>
      <path d="M1008.63,361.119v11.569h10.158v2.821h-10.158v15.661h18.482v2.821h-21.304v-35.695h21.304v2.822h-18.482Z" fill="#ccc" stroke="#ccc" stroke-miterlimit="10" stroke-width="1.5"/>
      <path d="M1051.525,389.147c.856-.646,1.598-1.466,2.267-2.537l2.393,1.496c-.848,1.357-1.84,2.45-3.03,3.345-.995.666-2.231,1.284-3.454,1.744-1.392.464-2.662.654-4.307.654-1.746,0-3.113-.207-4.304-.653-1.226-.407-2.341-.988-3.57-1.866-1.222-.761-2.278-1.933-2.98-3.34-.652-1.301-.996-2.788-.996-4.299v-15.379c0-1.784.574-3.176,1.136-4.299.914-1.474,1.904-2.567,3.097-3.461.991-.664,2.228-1.283,3.454-1.743,1.385-.463,2.657-.653,4.304-.653,1.749,0,3.115.209,4.305.654,1.224.406,2.34.986,3.57,1.865,1.326.996,2.32,2.16,2.98,3.48l-2.523,1.263c-.463-.927-1.177-1.756-2.124-2.466-.978-.698-1.837-1.147-2.844-1.483-.913-.341-1.966-.492-3.364-.492-1.341,0-2.316.143-3.363.492-.983.37-2.009.882-2.767,1.388-.856.645-1.597,1.466-2.268,2.536-.438.891-.772,1.792-.772,2.921v15.377c0,1.075.241,2.125.696,3.036.479.957,1.16,1.716,2.026,2.258,1.076.766,1.935,1.216,2.943,1.552.912.342,1.967.492,3.363.492,1.339,0,2.313-.143,3.363-.492.98-.368,2.008-.882,2.767-1.387l.003-.003Z" fill="#ccc" stroke="#ccc" stroke-miterlimit="10" stroke-width="1.5"/>
      <path d="M1080.777,389.147c.856-.646,1.598-1.466,2.267-2.537l2.393,1.496c-.848,1.357-1.84,2.45-3.03,3.345-.995.666-2.231,1.284-3.454,1.744-1.392.464-2.662.654-4.307.654-1.746,0-3.113-.207-4.304-.653-1.226-.407-2.341-.988-3.57-1.866-1.222-.761-2.278-1.933-2.98-3.34-.652-1.301-.996-2.788-.996-4.299v-15.379c0-1.784.574-3.176,1.136-4.299.914-1.474,1.904-2.567,3.097-3.461.991-.664,2.228-1.283,3.454-1.743,1.385-.463,2.657-.653,4.304-.653,1.749,0,3.115.209,4.305.654,1.224.406,2.34.986,3.57,1.865,1.326.996,2.32,2.16,2.98,3.48l-2.523,1.263c-.463-.927-1.177-1.756-2.124-2.466-.978-.698-1.837-1.147-2.844-1.483-.913-.341-1.966-.492-3.364-.492-1.341,0-2.316.143-3.363.492-.983.37-2.009.882-2.767,1.388-.856.645-1.597,1.466-2.268,2.536-.438.891-.772,1.792-.772,2.921v15.377c0,1.075.241,2.125.696,3.036.479.957,1.16,1.716,2.026,2.258,1.076.766,1.935,1.216,2.943,1.552.912.342,1.967.492,3.363.492,1.339,0,2.313-.143,3.363-.492.98-.368,2.008-.882,2.767-1.387l.003-.003Z" fill="#ccc" stroke="#ccc" stroke-miterlimit="10" stroke-width="1.5"/>
      <path d="M1094.869,361.119v11.569h10.158v2.821h-10.158v15.661h18.482v2.821h-21.304v-35.695h21.304v2.822h-18.482Z" fill="#ccc" stroke="#ccc" stroke-miterlimit="10" stroke-width="1.5"/>
      <path d="M1129.093,383.68v-4.693h-9.312v-2.822h9.312v-4.479l7.995,5.864-7.995,6.13Z" fill="#ccc" stroke="#ccc" stroke-miterlimit="10" stroke-width="1.5"/>
    </g>
    <g>
      <rect x="441.634" y="222.452" width="315.619" height="52.826" fill="none"/>
      <path d="M461.199,250.529h-9.312v4.753l-7.804-6.189,7.804-5.92v4.535h9.312v2.821Z" fill="#ccc" stroke="#ccc" stroke-miterlimit="10" stroke-width="1.5"/>
      <path d="M489.617,246.4l-.146,19.184-2.822-.021.081-10.713h-16.306v10.723h-2.822v-19.178l9.669-15.108h2.673l9.672,15.114ZM486.751,252.026l.037-4.812-8.18-12.781-8.183,12.785v4.809h16.327Z" fill="#ccc" stroke="#ccc" stroke-miterlimit="10" stroke-width="1.5"/>
      <path d="M517.468,262.922v2.821h-21.445v-34.284h2.822v31.463h18.624Z" fill="#ccc" stroke="#ccc" stroke-miterlimit="10" stroke-width="1.5"/>
      <path d="M545.234,237.82c.559,1.301.82,2.465.82,3.66,0,1.24-.284,2.554-.82,3.803-.471,1.097-1.249,2.235-2.133,3.12-.815.815-2.135,1.903-3.795,2.458-1.543.691-3.335.777-4.539.777h-8.04v13.968h-2.822v-34.426h10.723c1.697,0,3.179.308,4.666.968,1.528.682,2.774,1.516,3.81,2.55.885.884,1.662,2.021,2.133,3.122h-.001ZM542.644,244.17c.386-.9.591-1.83.591-2.689,0-.812-.182-1.598-.591-2.548-.326-.761-.915-1.618-1.535-2.239-.799-.797-1.739-1.423-2.961-1.967-1.127-.501-2.212-.725-3.519-.725h-7.9v14.814h8.04c1.525,0,2.609-.179,3.519-.584,1.016-.346,1.971-.975,2.82-1.824.622-.622,1.21-1.479,1.535-2.238h.001Z" fill="#ccc" stroke="#ccc" stroke-miterlimit="10" stroke-width="1.5"/>
      <path d="M574.621,232.719v32.874h-2.822v-14.955h-16.507v14.955h-2.822v-32.874h2.822v15.097h16.507v-15.097h2.822Z" fill="#ccc" stroke="#ccc" stroke-miterlimit="10" stroke-width="1.5"/>
      <path d="M603.051,246.4l-.146,19.184-2.822-.021.081-10.713h-16.306v10.723h-2.822v-19.178l9.669-15.108h2.673l9.672,15.114ZM600.185,252.026l.037-4.812-8.18-12.781-8.183,12.785v4.809h16.327Z" fill="#ccc" stroke="#ccc" stroke-miterlimit="10" stroke-width="1.5"/>
    </g>
    <g>
      <rect x="790.075" y="221.619" width="355.5" height="52.826" fill="none"/>
      <path d="M933.685,231.896v30.193h6.914v2.822h-16.648v-2.822h6.913v-30.193h-6.913v-2.822h16.648v2.822h-6.914Z" fill="#ccc" stroke="#ccc" stroke-miterlimit="10" stroke-width="1.5"/>
      <path d="M969.039,230.296v34.455h-2.8l-16.389-29.029v29.005h-2.821v-34.285h3.081l16.106,28.528v-28.675h2.822Z" fill="#ccc" stroke="#ccc" stroke-miterlimit="10" stroke-width="1.5"/>
      <path d="M997.459,242.036v9.735c0,1.931-.329,3.771-.948,5.32-.589,1.624-1.506,3.079-2.709,4.283-.91,1.067-2.075,1.905-3.396,2.413-1.301.641-2.63.964-3.951.964h-11.005v-35.836h11.005c1.458,0,2.818.325,4.157.995,1.385.693,2.496,1.543,3.404,2.602.9.896,1.718,2.256,2.496,4.205.643,1.764.947,3.491.947,5.32ZM994.637,242.036c0-1.515-.242-2.887-.762-4.314-.616-1.539-1.234-2.599-1.93-3.294-.741-.858-1.543-1.466-2.597-1.994-.951-.475-1.871-.697-2.895-.697h-8.184v30.193h8.184c.902,0,1.829-.236,2.755-.698l.136-.06c.911-.34,1.691-.901,2.387-1.712.983-.991,1.68-2.098,2.144-3.374.497-1.243.762-2.76.762-4.314v-9.735Z" fill="#ccc" stroke="#ccc" stroke-miterlimit="10" stroke-width="1.5"/>
      <path d="M1013.602,231.896v30.193h6.914v2.822h-16.648v-2.822h6.913v-30.193h-6.913v-2.822h16.648v2.822h-6.914Z" fill="#ccc" stroke="#ccc" stroke-miterlimit="10" stroke-width="1.5"/>
      <path d="M1048.961,245.568l-.146,19.184-2.821-.021.08-10.713h-16.306v10.723h-2.821v-19.178l9.668-15.108h2.674l9.672,15.114ZM1046.096,251.194l.036-4.812-8.18-12.781-8.184,12.786v4.808h16.327Z" fill="#ccc" stroke="#ccc" stroke-miterlimit="10" stroke-width="1.5"/>
      <path d="M1074.221,262.192h17.444v2.822h-21.305v-2.812l3.71-4.048c1.943-2.166,3.728-4.151,5.42-5.957.841-.841,1.684-1.824,2.497-2.775.852-.992,4.25-4.817,4.25-4.817.385-.388.603-.662.748-.842.086-.109.159-.196.22-.264.413-.526.761-1.192,1.006-1.928.233-.699.352-1.257.352-2.376,0-.961-.199-1.914-.591-2.831-.357-.947-.926-1.629-1.677-2.38-.856-.706-1.667-1.213-2.46-1.51-2.27-.851-3.797-.849-6.062,0-1.039.39-1.82.869-2.463,1.511-.74.741-1.336,1.585-1.676,2.38l-2.593-1.112c.485-1.133,1.272-2.262,2.274-3.263.925-.924,2.058-1.629,3.466-2.157,2.887-1.086,5.151-1.086,8.045,0,1.443.542,2.614,1.442,3.371,2.071.926.918,1.851,1.965,2.393,3.41.521,1.209.796,2.535.796,3.881,0,1.484-.19,2.35-.497,3.269-.354,1.064-.876,2.044-1.507,2.833l-.193.23c-.188.237-.473.591-.898,1.016.003,0-3.322,3.742-4.159,4.718-.85.991-1.727,2.015-2.613,2.901-1.649,1.759-3.418,3.73-5.349,5.879l-1.946,2.151h-.002Z" fill="#ccc" stroke="#ccc" stroke-miterlimit="10" stroke-width="1.5"/>
      <path d="M1101.954,262.192h17.444v2.822h-21.305v-2.812l3.71-4.048c1.943-2.166,3.728-4.151,5.42-5.957.841-.841,1.684-1.824,2.497-2.775.852-.992,4.25-4.817,4.25-4.817.385-.388.603-.662.748-.842.086-.109.159-.196.22-.264.413-.526.761-1.192,1.006-1.928.233-.699.352-1.257.352-2.376,0-.961-.199-1.914-.591-2.831-.357-.947-.926-1.629-1.677-2.38-.856-.706-1.667-1.213-2.46-1.51-2.27-.851-3.797-.849-6.062,0-1.039.39-1.82.869-2.463,1.511-.74.741-1.336,1.585-1.676,2.38l-2.593-1.112c.485-1.133,1.272-2.262,2.274-3.263.925-.924,2.059-1.629,3.466-2.157,2.887-1.086,5.151-1.086,8.045,0,1.443.542,2.614,1.442,3.371,2.071.926.918,1.851,1.965,2.393,3.41.521,1.209.796,2.535.796,3.881,0,1.484-.19,2.35-.497,3.269-.354,1.064-.876,2.044-1.507,2.833l-.193.23c-.188.237-.473.591-.898,1.016.003,0-3.322,3.742-4.159,4.718-.85.991-1.727,2.015-2.613,2.901-1.649,1.759-3.418,3.73-5.349,5.879l-1.946,2.151h-.002Z" fill="#ccc" stroke="#ccc" stroke-miterlimit="10" stroke-width="1.5"/>
      <path d="M1135.14,254.44v-4.694h-9.312v-2.822h9.312v-4.479l7.995,5.864-7.995,6.13Z" fill="#ccc" stroke="#ccc" stroke-miterlimit="10" stroke-width="1.5"/>
    </g>
  </g>
  <g id="Flt_Pln_Select_1_x2F_2_Page_Arrows_-_dark">
    <path d="M438.179,242.014l-67.862-34.943-3.152,12.628-255.668-69.654c1.232-4.506,1.902-9.241,1.902-14.132,0-29.584-24.068-53.652-53.652-53.652S6.096,106.329,6.096,135.913s24.068,53.652,53.652,53.652c21.544,0,40.151-12.771,48.68-31.134l256.581,69.903-3.152,12.628,76.322,1.052ZM59.748,181.565c-25.213,0-45.652-20.439-45.652-45.652,0-25.213,20.439-45.652,45.652-45.652s45.652,20.439,45.652,45.652c0,25.213-20.439,45.652-45.652,45.652Z" fill="#ccc" stroke="#0d121e" stroke-miterlimit="10" stroke-width="2.2"/>
    <path d="M438.264,722.053l-75.801-8.965,1.469,12.932-251.997,28.631c-5.362-27.075-30.761-46.024-58.666-42.853-29.395,3.34-50.592,29.971-47.253,59.366s29.971,50.592,59.366,47.252c27.904-3.17,48.405-27.333,47.557-54.922l251.997-28.631,1.469,12.932,71.858-25.742ZM64.481,810.468c-25.052,2.846-47.668-15.155-50.514-40.207-2.846-25.052,15.155-47.668,40.207-50.514s47.668,15.155,50.514,40.207c2.846,25.052-15.155,47.668-40.207,50.514Z" fill="#ccc" stroke="#0d121e" stroke-miterlimit="10" stroke-width="2.2"/>
    <path d="M1215.463,668.752l1.469-12.932,251.997,28.631c-.849,27.589,19.652,51.752,47.557,54.922,29.395,3.34,56.026-17.858,59.366-47.252,3.34-29.394-17.858-56.026-47.253-59.366-27.904-3.17-53.303,15.778-58.666,42.853l-251.997-28.631,1.469-12.932-75.801,8.965,71.858,25.742ZM1477.182,680.91c2.846-25.052,25.462-43.053,50.514-40.207s43.053,25.462,40.207,50.514c-2.846,25.052-25.462,43.053-50.514,40.207-25.052-2.846-43.053-25.462-40.207-50.514Z" fill="#ccc" stroke="#0d121e" stroke-miterlimit="10" stroke-width="2.2"/>
    <path d="M66.755,159.454v4.607h-14.744v-4.607h5.068v-47.279l-3.601,2.981-2.938-3.55,7.319-6.057h3.827v53.905h5.068Z" fill="#ff8500" stroke="#ff8500" stroke-miterlimit="10"/>
    <path d="M47.566,789.373h28.483v4.607h-34.786v-4.591l6.056-6.609c3.175-3.536,6.086-6.778,8.851-9.727,1.373-1.373,2.749-2.979,4.078-4.531,1.389-1.62,6.939-7.865,6.939-7.865.629-.634.983-1.08,1.221-1.375.141-.178.26-.32.359-.431.675-.859,1.242-1.947,1.643-3.149.38-1.141.574-2.053.574-3.88,0-1.568-.325-3.124-.965-4.621-.583-1.546-1.511-2.661-2.737-3.887-1.398-1.151-2.723-1.98-4.018-2.465-3.705-1.389-6.199-1.387-9.899,0-1.695.636-2.972,1.419-4.02,2.468-1.209,1.209-2.182,2.589-2.737,3.886l-4.234-1.814c.792-1.851,2.078-3.693,3.713-5.329,1.511-1.509,3.361-2.661,5.66-3.522,4.713-1.773,8.411-1.773,13.136,0,2.356.885,4.269,2.354,5.503,3.382,1.511,1.5,3.022,3.209,3.907,5.568.85,1.975,1.299,4.14,1.299,6.338,0,2.423-.311,3.838-.811,5.337-.578,1.737-1.431,3.339-2.46,4.626l-.315.376c-.309.387-.772.965-1.468,1.658.005,0-5.425,6.109-6.791,7.704-1.387,1.617-2.82,3.29-4.267,4.736-2.693,2.873-5.582,6.091-8.733,9.6l-3.179,3.514-.002-.003Z" fill="#ff8500" stroke="#ff8500" stroke-miterlimit="10"/>
    <path d="M1537.903,688.069c.87,2.034,1.297,5.964,1.297,7.95,0,2.124,0,3.527-1,7.275-.883,3.522-2.69,5.893-4.053,7.254-1.522,1.521-4.432,3.463-6.828,4.062-2.26.761-5.95.761-7.932.761-2.341,0-6.397-1.32-8.049-2.027-1.933-.829-5.562-3.276-7.766-5.234l3.062-3.444c1.928,1.714,5.197,3.875,6.52,4.444,1.521.651,4.884,1.656,6.233,1.656,1.599,0,4.926,0,6.645-.573,1.474-.376,3.665-1.707,4.858-2.9.949-.947,2.216-2.612,2.85-5.149.853-3.197.853-4.114.853-6.121,0-2.045-.468-5.077-.966-6.236-.566-1.502-1.255-2.645-2.416-4.038-1.012-1.214-2.115-2.082-3.283-2.582-1.449-.622-2.983-1.198-4.391-1.198h-6.221v-5.018l13.689-15.485h-21.061v-4.607h26.031v5.937l-12.873,14.564h.434c2.246,0,4.397.792,6.206,1.568,1.841.79,3.527,2.092,5.008,3.868,1.5,1.797,2.442,3.375,3.154,5.273l-.002.002Z" fill="#ff8500" stroke="#ff8500" stroke-miterlimit="10"/>
  </g>
</svg>