<?xml version="1.0" encoding="UTF-8"?>
<svg xmlns="http://www.w3.org/2000/svg" width="1584.293" height="1072.174" viewBox="0 0 1584.293 1072.174">
  <g id="CDNU_-_Dark">
    <path d="M1403.61,903.706l-1222.305.984c-5.445.004-9.861-4.411-9.856-9.857l.667-725.918c.005-5.432,4.408-9.834,9.84-9.839l1222.305-.984c5.445-.004,9.861,4.411,9.856,9.857l-.667,725.918c-.005,5.432-4.408,9.834-9.84,9.839Z" fill="none" stroke="#ccc" stroke-miterlimit="10" stroke-width="11"/>
    <polyline points="785.123 902.825 1331.623 903.324 1331.623 653.747 1406.623 653.747 1406.623 327.67 1331.623 327.67 1331.623 160.085 252.123 160.085 252.123 332.358 173.906 332.358 173.906 653.248 252.123 653.248 252.123 902.825 785.123 902.825" fill="none" stroke="#ccc" stroke-miterlimit="10" stroke-width="8"/>
    <rect x="425.123" y="200.085" width="735" height="553" rx="13.681" ry="13.681" fill="none" stroke="#ccc" stroke-miterlimit="10" stroke-width="5"/>
    <rect x="414.123" y="186.085" width="760" height="580" rx="18.29" ry="18.29" fill="none" stroke="#ccc" stroke-miterlimit="10" stroke-width="5"/>
    <g>
      <rect x="267.123" y="201.085" width="137" height="81" fill="none" stroke="#ccc" stroke-miterlimit="10" stroke-width="5"/>
      <polygon points="387.122 241.334 359.756 213.834 359.756 230.834 284.623 230.834 284.623 251.834 359.756 251.834 359.756 268.834 387.122 241.334" fill="#ccc"/>
    </g>
    <g>
      <rect x="267.275" y="327.932" width="137" height="81" fill="none" stroke="#ccc" stroke-miterlimit="10" stroke-width="5"/>
      <polygon points="387.275 368.182 359.908 340.682 359.908 357.682 284.775 357.682 284.775 378.682 359.908 378.682 359.908 395.682 387.275 368.182" fill="#ccc"/>
    </g>
    <g>
      <rect x="267.275" y="454.932" width="137" height="81" fill="none" stroke="#ccc" stroke-miterlimit="10" stroke-width="5"/>
      <polygon points="387.275 495.182 359.908 467.682 359.908 484.682 284.775 484.682 284.775 505.682 359.908 505.682 359.908 522.682 387.275 495.182" fill="#ccc"/>
    </g>
    <g>
      <rect x="267.102" y="579.367" width="137" height="81" fill="none" stroke="#ccc" stroke-miterlimit="10" stroke-width="5"/>
      <polygon points="387.101 619.617 359.734 592.117 359.734 609.117 284.601 609.117 284.601 630.117 359.734 630.117 359.734 647.117 387.101 619.617" fill="#ccc"/>
    </g>
    <g>
      <rect x="1182.254" y="201.085" width="137" height="81" transform="translate(2501.507 483.169) rotate(-180)" fill="none" stroke="#ccc" stroke-miterlimit="10" stroke-width="5"/>
      <polygon points="1199.255 241.334 1226.622 213.834 1226.622 230.834 1301.754 230.834 1301.754 251.834 1226.622 251.834 1226.622 268.834 1199.255 241.334" fill="#ccc"/>
    </g>
    <g>
      <rect x="1182.102" y="327.932" width="137" height="81" transform="translate(2501.203 736.865) rotate(-180)" fill="none" stroke="#ccc" stroke-miterlimit="10" stroke-width="5"/>
      <polygon points="1199.102 368.182 1226.469 340.682 1226.469 357.682 1301.602 357.682 1301.602 378.682 1226.469 378.682 1226.469 395.682 1199.102 368.182" fill="#ccc"/>
    </g>
    <g>
      <rect x="1182.102" y="454.932" width="137" height="81" transform="translate(2501.203 990.865) rotate(-180)" fill="none" stroke="#ccc" stroke-miterlimit="10" stroke-width="5"/>
      <polygon points="1199.102 495.182 1226.469 467.682 1226.469 484.682 1301.602 484.682 1301.602 505.682 1226.469 505.682 1226.469 522.682 1199.102 495.182" fill="#ccc"/>
    </g>
    <g>
      <rect x="1182.275" y="579.367" width="137" height="81" transform="translate(2501.551 1239.734) rotate(-180)" fill="none" stroke="#ccc" stroke-miterlimit="10" stroke-width="5"/>
      <polygon points="1199.276 619.617 1226.643 592.117 1226.643 609.117 1301.776 609.117 1301.776 630.117 1226.643 630.117 1226.643 647.117 1199.276 619.617" fill="#ccc"/>
    </g>
    <circle cx="356.123" cy="736.085" r="30.5" fill="none" stroke="#ccc" stroke-miterlimit="10" stroke-width="5"/>
    <circle cx="1239.123" cy="736.085" r="30.5" fill="none" stroke="#ccc" stroke-miterlimit="10" stroke-width="5"/>
    <rect x="315.623" y="792.539" width="83" height="91" fill="none" stroke="#ccc" stroke-miterlimit="10" stroke-width="5"/>
    <rect x="307.623" y="783.039" width="101" height="110" rx="9.778" ry="9.778" fill="none" stroke="#ccc" stroke-miterlimit="10" stroke-width="5"/>
    <rect x="439.623" y="792.539" width="83" height="91" fill="none" stroke="#ccc" stroke-miterlimit="10" stroke-width="5"/>
    <rect x="431.623" y="783.039" width="101" height="110" rx="9.778" ry="9.778" fill="none" stroke="#ccc" stroke-miterlimit="10" stroke-width="5"/>
    <rect x="563.623" y="792.539" width="83" height="91" fill="none" stroke="#ccc" stroke-miterlimit="10" stroke-width="5"/>
    <rect x="555.623" y="783.039" width="101" height="110" rx="9.778" ry="9.778" fill="none" stroke="#ccc" stroke-miterlimit="10" stroke-width="5"/>
    <rect x="687.623" y="792.539" width="83" height="91" fill="none" stroke="#ccc" stroke-miterlimit="10" stroke-width="5"/>
    <rect x="679.623" y="783.039" width="101" height="110" rx="9.778" ry="9.778" fill="none" stroke="#ccc" stroke-miterlimit="10" stroke-width="5"/>
    <rect x="809.623" y="792.539" width="83" height="91" fill="none" stroke="#ccc" stroke-miterlimit="10" stroke-width="5"/>
    <rect x="801.623" y="783.039" width="101" height="110" rx="9.778" ry="9.778" fill="none" stroke="#ccc" stroke-miterlimit="10" stroke-width="5"/>
    <rect x="936.623" y="792.539" width="83" height="91" fill="none" stroke="#ccc" stroke-miterlimit="10" stroke-width="5"/>
    <rect x="928.623" y="783.039" width="101" height="110" rx="9.778" ry="9.778" fill="none" stroke="#ccc" stroke-miterlimit="10" stroke-width="5"/>
    <rect x="1056.623" y="792.539" width="83" height="91" fill="none" stroke="#ccc" stroke-miterlimit="10" stroke-width="5"/>
    <rect x="1048.623" y="783.039" width="101" height="110" rx="9.778" ry="9.778" fill="none" stroke="#ccc" stroke-miterlimit="10" stroke-width="5"/>
    <rect x="1181.623" y="792.539" width="83" height="91" fill="none" stroke="#ccc" stroke-miterlimit="10" stroke-width="5"/>
    <rect x="1173.623" y="783.039" width="101" height="110" rx="9.778" ry="9.778" fill="none" stroke="#ccc" stroke-miterlimit="10" stroke-width="5"/>
    <circle cx="213.123" cy="265.085" r="34.5" fill="none" stroke="#ccc" stroke-miterlimit="10" stroke-width="3.5"/>
    <circle cx="213.123" cy="265.085" r="27.5" fill="none" stroke="#ccc" stroke-miterlimit="10" stroke-width="3.5"/>
    <circle cx="213.623" cy="718.585" r="34.5" fill="none" stroke="#ccc" stroke-miterlimit="10" stroke-width="3.5"/>
    <circle cx="213.623" cy="718.585" r="27.5" fill="none" stroke="#ccc" stroke-miterlimit="10" stroke-width="3.5"/>
    <circle cx="213.623" cy="837.585" r="34.5" fill="none" stroke="#ccc" stroke-miterlimit="10" stroke-width="3.5"/>
    <circle cx="213.623" cy="837.585" r="27.5" fill="none" stroke="#ccc" stroke-miterlimit="10" stroke-width="3.5"/>
    <circle cx="1372.623" cy="265.085" r="34.5" fill="none" stroke="#ccc" stroke-miterlimit="10" stroke-width="3.5"/>
    <circle cx="1372.623" cy="265.085" r="27.5" fill="none" stroke="#ccc" stroke-miterlimit="10" stroke-width="3.5"/>
    <circle cx="1372.123" cy="718.585" r="34.5" fill="none" stroke="#ccc" stroke-miterlimit="10" stroke-width="3.5"/>
    <circle cx="1372.123" cy="718.585" r="27.5" fill="none" stroke="#ccc" stroke-miterlimit="10" stroke-width="3.5"/>
    <circle cx="1372.123" cy="837.585" r="34.5" fill="none" stroke="#ccc" stroke-miterlimit="10" stroke-width="3.5"/>
    <circle cx="1372.123" cy="837.585" r="27.5" fill="none" stroke="#ccc" stroke-miterlimit="10" stroke-width="3.5"/>
    <g>
      <rect x="321.412" y="805.635" width="66.913" height="64.957" fill="none"/>
      <path d="M335.327,820.004h6.823v36.208h-6.823v-36.208ZM337.817,820.004h21.292v6.574h-21.292v-6.574ZM337.817,835.268h18.552v6.574h-18.552v-6.574Z" fill="#ccc" stroke="#ccc" stroke-miterlimit="10"/>
      <path d="M374.411,856.212h-6.823v-28.189l-4.408,1.668v-7.246l5.404-2.44h5.827v36.208Z" fill="#ccc" stroke="#ccc" stroke-miterlimit="10"/>
    </g>
    <g>
      <rect x="445.412" y="805.635" width="66.913" height="64.957" fill="none"/>
      <path d="M454.633,820.004h6.823v36.208h-6.823v-36.208ZM457.123,820.004h21.292v6.574h-21.292v-6.574ZM457.123,835.268h18.552v6.574h-18.552v-6.574Z" fill="#ccc" stroke="#ccc" stroke-miterlimit="10"/>
      <path d="M483.432,850.061l12.426-16.336c.564-.73,1-1.482,1.307-2.254.307-.772.461-1.49.461-2.154v-.05c0-.979-.315-1.734-.946-2.267-.631-.53-1.528-.797-2.689-.797-1.129,0-2.042.37-2.739,1.108-.697.739-1.121,1.789-1.27,3.15v.024h-6.998v-.024c.149-2.258.693-4.2,1.631-5.827s2.204-2.867,3.798-3.723,3.437-1.283,5.528-1.283c2.257,0,4.188.37,5.79,1.108,1.602.739,2.822,1.814,3.66,3.226s1.258,3.112,1.258,5.104v.024c0,1.645-.286,3.275-.859,4.894-.572,1.619-1.374,3.084-2.403,4.396l-8.915,11.256h12.376v6.574h-21.416v-6.15Z" fill="#ccc" stroke="#ccc" stroke-miterlimit="10"/>
    </g>
    <g>
      <rect x="569.412" y="805.635" width="66.913" height="64.957" fill="none"/>
      <path d="M578.321,820.004h6.823v36.208h-6.823v-36.208ZM580.811,820.004h21.292v6.574h-21.292v-6.574ZM580.811,835.268h18.552v6.574h-18.552v-6.574Z" fill="#ccc" stroke="#ccc" stroke-miterlimit="10"/>
      <path d="M611.927,855.389c-1.71-.797-3.072-1.958-4.084-3.486-1.013-1.526-1.569-3.345-1.668-5.453h7.047c.1.747.319,1.382.66,1.905.34.522.776.921,1.308,1.195.531.273,1.146.411,1.843.411,1.295,0,2.295-.361,3.001-1.084.705-.722,1.058-1.738,1.058-3.051v-.846c0-1.378-.287-2.441-.859-3.188-.573-.748-1.391-1.121-2.453-1.121h-3.063v-6.574h3.063c.863,0,1.531-.327,2.005-.983.473-.656.709-1.573.709-2.752v-.622c0-1.112-.261-1.972-.785-2.578-.522-.605-1.257-.908-2.204-.908-.614,0-1.175.157-1.681.473s-.934.771-1.282,1.369-.598,1.32-.747,2.167h-7.022c.199-2.208.792-4.112,1.78-5.715s2.279-2.822,3.873-3.661c1.594-.838,3.37-1.258,5.329-1.258,3.204,0,5.682.818,7.433,2.453,1.751,1.636,2.627,3.956,2.627,6.961v1.096c0,1.677-.423,3.137-1.27,4.383-.847,1.244-2.051,2.175-3.611,2.789,1.743.398,3.092,1.312,4.046,2.738.955,1.429,1.432,3.246,1.432,5.454v1.096c0,2.108-.415,3.909-1.245,5.403-.831,1.494-2.042,2.632-3.636,3.412s-3.511,1.17-5.752,1.17c-2.191,0-4.143-.398-5.852-1.195Z" fill="#ccc" stroke="#ccc" stroke-miterlimit="10"/>
    </g>
    <g>
      <rect x="693.412" y="805.635" width="66.913" height="64.957" fill="none"/>
      <path d="M701.3,820.004h6.823v36.208h-6.823v-36.208ZM703.79,820.004h21.292v6.574h-21.292v-6.574ZM703.79,835.268h18.552v6.574h-18.552v-6.574Z" fill="#ccc" stroke="#ccc" stroke-miterlimit="10"/>
      <path d="M730.149,844.384l11.156-24.355h7.72l-10.857,24.057h16.262v6.574h-24.28v-6.275ZM744.767,834.921h6.823v21.316h-6.823v-21.316Z" fill="#ccc" stroke="#ccc" stroke-miterlimit="10"/>
    </g>
    <g>
      <rect x="815.412" y="805.635" width="66.913" height="64.957" fill="none"/>
      <path d="M823.924,820.004h6.823v36.208h-6.823v-36.208ZM826.414,820.004h21.291v6.574h-21.291v-6.574ZM826.414,835.268h18.553v6.574h-18.553v-6.574Z" fill="#ccc" stroke="#ccc" stroke-miterlimit="10"/>
      <path d="M858.638,855.302c-1.553-.854-2.798-2.1-3.735-3.735-.938-1.635-1.481-3.573-1.631-5.814v-.025h6.823v.025c.133,1.328.539,2.362,1.221,3.101.68.738,1.568,1.108,2.664,1.108,1.195,0,2.12-.391,2.776-1.171s.983-1.884.983-3.312v-3.039c0-1.427-.295-2.527-.884-3.299-.589-.772-1.415-1.158-2.478-1.158-.979,0-1.814.249-2.503.747s-1.166,1.195-1.432,2.092h-6.375v-20.818h19.448v6.574h-12.625v6.399c.515-.498,1.216-.892,2.104-1.183.888-.29,1.771-.436,2.651-.436,1.876,0,3.482.432,4.819,1.295,1.336.863,2.353,2.125,3.05,3.785s1.047,3.661,1.047,6.001v3.039c0,2.34-.42,4.341-1.258,6.001-.839,1.66-2.055,2.926-3.648,3.798-1.594.871-3.52,1.307-5.777,1.307-1.942,0-3.689-.427-5.242-1.282Z" fill="#ccc" stroke="#ccc" stroke-miterlimit="10"/>
    </g>
    <g>
      <rect x="942.412" y="805.635" width="66.913" height="64.957" fill="none"/>
      <path d="M951.721,820.004h6.823v36.208h-6.823v-36.208ZM954.211,820.004h21.291v6.574h-21.291v-6.574ZM954.211,835.268h18.553v6.574h-18.553v-6.574Z" fill="#ccc" stroke="#ccc" stroke-miterlimit="10"/>
      <path d="M985.189,855.302c-1.585-.854-2.793-2.1-3.623-3.735-.83-1.635-1.245-3.606-1.245-5.914v-.025c0-1.311.162-2.697.485-4.158.324-1.461.784-2.93,1.382-4.408.1-.248.203-.498.312-.746.108-.25.22-.49.337-.723l7.346-15.589h7.72l-8.716,18.054-1.719-.896c.415-.779,1.021-1.386,1.818-1.817s1.727-.647,2.789-.647c1.992,0,3.693.424,5.105,1.27,1.41.848,2.485,2.08,3.225,3.698.738,1.619,1.107,3.565,1.107,5.84v.024c0,2.325-.415,4.317-1.244,5.977-.831,1.661-2.039,2.923-3.624,3.785-1.585.864-3.499,1.295-5.739,1.295-2.226,0-4.131-.427-5.716-1.282ZM993.706,848.953c.656-.706.984-1.706.984-3.001v-.025c0-1.494-.328-2.643-.984-3.448s-1.59-1.208-2.801-1.208c-1.195,0-2.121.411-2.777,1.232-.656.822-.983,1.972-.983,3.449v.025c0,1.295.327,2.291.983,2.988s1.582,1.045,2.777,1.045c1.211,0,2.145-.352,2.801-1.058Z" fill="#ccc" stroke="#ccc" stroke-miterlimit="10"/>
    </g>
    <g>
      <rect x="1062.412" y="805.635" width="66.913" height="64.957" fill="none"/>
      <path d="M1071.966,820.004h6.823v36.208h-6.823v-36.208ZM1074.456,820.004h21.291v6.574h-21.291v-6.574ZM1074.456,835.268h18.553v6.574h-18.553v-6.574Z" fill="#ccc" stroke="#ccc" stroke-miterlimit="10"/>
      <path d="M1121.011,824.536l-8.119,31.676h-7.396l7.869-29.634h-6.226v5.454h-6.823v-12.028h20.694v4.532Z" fill="#ccc" stroke="#ccc" stroke-miterlimit="10"/>
    </g>
    <g>
      <path d="M1201.685,824.549h4.054v29.853h-2.796v-23.18l.112,1.313-3.122,18.54h-2.718l-3.122-18.129.112-1.725v23.18h-2.797v-29.853h4.055l3.11,20.12,3.111-20.12Z" fill="#ccc" stroke="#ccc" stroke-miterlimit="10"/>
      <path d="M1210.046,824.549h3.077v29.853h-3.077v-29.853ZM1211.158,824.549h9.826v5.42h-9.826v-5.42ZM1211.158,836.867h8.591v5.421h-8.591v-5.421ZM1211.158,848.98h9.826v5.421h-9.826v-5.421Z" fill="#ccc" stroke="#ccc" stroke-miterlimit="10"/>
      <path d="M1224.505,824.549h3.763l6.075,22.872-.27.533v-23.405h2.942v29.832h-3.784l-6.054-22.522.27-.534v23.057h-2.942v-29.832Z" fill="#ccc" stroke="#ccc" stroke-miterlimit="10"/>
      <path d="M1243.827,853.405c-.892-.869-1.569-2.135-2.033-3.798s-.696-3.665-.696-6.006v-19.053h3.077v19.196c0,1.712.251,3.039.753,3.983.501.944,1.209,1.417,2.122,1.417.921,0,1.634-.473,2.14-1.417.505-.944.758-2.271.758-3.983v-19.196h3.077v19.053c0,2.341-.234,4.343-.702,6.006s-1.149,2.929-2.044,3.798-1.971,1.304-3.229,1.304-2.332-.435-3.223-1.304Z" fill="#ccc" stroke="#ccc" stroke-miterlimit="10"/>
    </g>
    <g>
      <rect x="315.934" y="672.115" width="70.435" height="25.043" fill="none"/>
      <path d="M324.201,673.28h4.281v22.719h-4.281v-22.719ZM326.076,691.874h7.25c.979,0,1.737-.236,2.273-.711.536-.474.805-1.138.805-1.992v-.047c0-.572-.12-1.062-.359-1.469-.24-.406-.591-.716-1.055-.93-.464-.213-1.019-.32-1.664-.32h-7.25v-4.125h7.25c.885,0,1.57-.224,2.055-.672.484-.447.727-1.078.727-1.891,0-.729-.242-1.297-.727-1.703s-1.169-.609-2.055-.609h-7.25v-4.125h7.391c1.469,0,2.724.242,3.766.727,1.042.484,1.833,1.188,2.375,2.109.542.922.812,2.029.812,3.32,0,.886-.175,1.67-.523,2.352-.349.683-.857,1.242-1.523,1.68-.667.438-1.469.734-2.406.891,1,.136,1.856.44,2.57.914.713.475,1.255,1.092,1.625,1.852.37.761.555,1.641.555,2.641v.047c0,1.303-.273,2.417-.82,3.344-.547.928-1.344,1.633-2.391,2.117s-2.305.727-3.773.727h-7.656v-4.125Z" fill="#ccc" stroke="#ccc" stroke-miterlimit="10"/>
      <path d="M345.849,673.264h4.281v22.734h-4.281v-22.734ZM347.552,682.733h7.906c.438,0,.823-.109,1.156-.328.333-.219.591-.531.773-.938.182-.406.278-.875.289-1.406,0-.531-.091-1-.273-1.406-.183-.406-.44-.719-.773-.938-.333-.219-.724-.328-1.172-.328h-7.906v-4.125h8.25c1.25,0,2.349.281,3.297.844.948.562,1.682,1.357,2.203,2.383.521,1.026.781,2.217.781,3.57s-.261,2.545-.781,3.57c-.521,1.026-1.258,1.82-2.211,2.383s-2.05.844-3.289.844h-8.25v-4.125ZM352.333,686.155l4.578-.719,6.125,10.562h-5.188l-5.516-9.844Z" fill="#ccc" stroke="#ccc" stroke-miterlimit="10"/>
      <path d="M364.575,673.28h16.656v4.125h-16.656v-4.125ZM370.763,675.139h4.281v20.859h-4.281v-20.859Z" fill="#ccc" stroke="#ccc" stroke-miterlimit="10"/>
    </g>
    <g>
      <rect x="1180.586" y="671.895" width="131" height="25.043" fill="none"/>
      <path d="M1193.307,694.971c-1.256-.692-2.227-1.672-2.914-2.938s-1.031-2.731-1.031-4.398v-6.438c0-1.666.344-3.133,1.031-4.398s1.658-2.244,2.914-2.938c1.255-.692,2.705-1.039,4.352-1.039s3.096.347,4.352,1.039c1.255.693,2.227,1.672,2.914,2.938s1.031,2.732,1.031,4.398v6.438c0,1.667-.344,3.133-1.031,4.398s-1.659,2.245-2.914,2.938c-1.256.693-2.706,1.039-4.352,1.039s-3.097-.346-4.352-1.039ZM1199.689,691.237c.583-.328,1.033-.794,1.352-1.398.317-.604.477-1.302.477-2.094v-6.656c0-.791-.159-1.489-.477-2.094-.318-.604-.769-1.07-1.352-1.398-.584-.328-1.261-.492-2.031-.492s-1.448.164-2.031.492c-.584.328-1.034.795-1.352,1.398-.318.604-.477,1.303-.477,2.094v6.656c0,.792.158,1.49.477,2.094.317.604.768,1.07,1.352,1.398.583.328,1.26.492,2.031.492s1.447-.164,2.031-.492Z" fill="#ccc" stroke="#ccc" stroke-miterlimit="10"/>
      <path d="M1211.166,673.057h4.281v22.719h-4.281v-22.719ZM1212.728,673.057h13.359v4.125h-13.359v-4.125ZM1212.728,682.635h11.641v4.125h-11.641v-4.125Z" fill="#ccc" stroke="#ccc" stroke-miterlimit="10"/>
      <path d="M1230.361,673.057h4.281v22.719h-4.281v-22.719ZM1231.924,673.057h13.359v4.125h-13.359v-4.125ZM1231.924,682.635h11.641v4.125h-11.641v-4.125Z" fill="#ccc" stroke="#ccc" stroke-miterlimit="10"/>
      <path d="M1250.337,700.089h-4.062l10.156-29.719h4.062l-10.156,29.719Z" fill="#ccc" stroke="#ccc" stroke-miterlimit="10"/>
      <path d="M1267.071,694.971c-1.256-.692-2.227-1.672-2.914-2.938s-1.031-2.731-1.031-4.398v-6.438c0-1.666.344-3.133,1.031-4.398s1.658-2.244,2.914-2.938c1.255-.692,2.705-1.039,4.352-1.039s3.096.347,4.352,1.039c1.255.693,2.227,1.672,2.914,2.938s1.031,2.732,1.031,4.398v6.438c0,1.667-.344,3.133-1.031,4.398s-1.659,2.245-2.914,2.938c-1.256.693-2.706,1.039-4.352,1.039s-3.097-.346-4.352-1.039ZM1273.454,691.237c.583-.328,1.033-.794,1.352-1.398.317-.604.477-1.302.477-2.094v-6.656c0-.791-.159-1.489-.477-2.094-.318-.604-.769-1.07-1.352-1.398-.584-.328-1.261-.492-2.031-.492s-1.448.164-2.031.492c-.584.328-1.034.795-1.352,1.398-.318.604-.477,1.303-.477,2.094v6.656c0,.792.158,1.49.477,2.094.317.604.768,1.07,1.352,1.398.583.328,1.26.492,2.031.492s1.447-.164,2.031-.492Z" fill="#ccc" stroke="#ccc" stroke-miterlimit="10"/>
      <path d="M1284.931,673.057h5.234l8.453,17.406-.375.406v-17.812h4.094v22.703h-5.266l-8.422-17.141.375-.406v17.547h-4.094v-22.703Z" fill="#ccc" stroke="#ccc" stroke-miterlimit="10"/>
    </g>
  </g>
  <g id="Scratchpad_-_Dark">
    <g>
      <path d="M483.164,697.036v37.593h12.121v3.515h-15.634v-44.62h15.634v3.513h-12.121Z" fill="#ccc" stroke="#ccc" stroke-miterlimit="10" stroke-width="1.5"/>
      <path d="M1104.113,693.34v44.62h-15.635v-3.514h12.121v-37.593h-12.121v-3.514h15.635Z" fill="#ccc" stroke="#ccc" stroke-miterlimit="10" stroke-width="1.5"/>
    </g>
  </g>
  <g id="Progress_1_x2F_3_-_Dark">
    <g>
      <rect x="421.597" y="222.187" width="148.621" height="52.826" fill="none"/>
      <path d="M479.207,242.604v9.735c0,1.931-.329,3.771-.948,5.32-.588,1.624-1.506,3.079-2.709,4.283-.91,1.067-2.076,1.905-3.396,2.413-1.301.641-2.63.964-3.952.964h-11.005v-35.836h11.005c1.459,0,2.819.325,4.158.995,1.384.693,2.496,1.543,3.404,2.602.9.896,1.717,2.256,2.496,4.205.642,1.764.947,3.491.947,5.32ZM476.385,242.604c0-1.515-.243-2.887-.762-4.314-.617-1.539-1.234-2.599-1.93-3.294-.741-.858-1.542-1.466-2.596-1.994-.951-.475-1.871-.697-2.895-.697h-8.183v30.193h8.183c.903,0,1.83-.236,2.755-.698l.136-.06c.911-.34,1.691-.901,2.387-1.712.983-.991,1.679-2.098,2.143-3.374.497-1.243.762-2.76.762-4.314v-9.735Z" fill="#ccc" stroke="#ccc" stroke-miterlimit="10" stroke-width="1.5"/>
      <path d="M506.217,233.928h-8.889v31.463h-2.821v-31.463h-8.889v-2.822h20.599v2.822Z" fill="#ccc" stroke="#ccc" stroke-miterlimit="10" stroke-width="1.5"/>
      <path d="M534.626,264.521v.809h-2.129l-.498.292-11.767-20.003-4.794,5.169v14.26h-2.822v-32.874h2.822v14.463l13.78-14.858.426.395h2.019v1.119l-9.427,10.166,12.391,21.062Z" fill="#ccc" stroke="#ccc" stroke-miterlimit="10" stroke-width="1.5"/>
    </g>
    <g>
      <rect x="533.665" y="304.349" width="508" height="38.311" fill="none"/>
      <path d="M675.987,312.46c.559,1.301.82,2.465.82,3.66,0,1.24-.284,2.554-.82,3.803-.471,1.097-1.249,2.236-2.133,3.12-.815.816-2.135,1.904-3.795,2.458-1.543.691-3.335.777-4.539.777h-8.04v13.968h-2.822v-34.425h10.723c1.697,0,3.179.308,4.666.968,1.528.681,2.774,1.515,3.81,2.549.885.884,1.662,2.022,2.133,3.123h-.001ZM673.396,318.809c.386-.9.591-1.83.591-2.689,0-.812-.182-1.597-.591-2.548-.326-.76-.915-1.618-1.535-2.239-.799-.797-1.739-1.422-2.961-1.966-1.127-.501-2.212-.725-3.519-.725h-7.9v14.814h8.04c1.525,0,2.609-.179,3.519-.584,1.016-.346,1.971-.975,2.82-1.824.622-.622,1.21-1.479,1.535-2.239h.001Z" fill="#ccc" stroke="#ccc" stroke-miterlimit="10" stroke-width="1.5"/>
      <path d="M689.499,318.531c1.537-.854,3.084-.854,4.583-.854v2.822c-1.293,0-2.315,0-3.266.527-.808.405-1.35,1.107-2.029,2.195-1.471,2.504-2.465,4.671-2.465,7.012v10.017h-2.822v-17.918c0-.581-.167-2.953-.278-4.406l2.813-.216c.024.331.223,2.917.274,4.162.022-.036.042-.076.064-.113.776-1.241,1.638-2.484,3.125-3.228h0Z" fill="#ccc" stroke="#ccc" stroke-miterlimit="10" stroke-width="1.5"/>
      <path d="M721.4,328.37c0,6.536-4.684,11.852-10.441,11.852s-10.44-5.317-10.44-11.852,4.684-11.851,10.44-11.851,10.441,5.316,10.441,11.851ZM718.578,328.37c0-4.979-3.417-9.03-7.619-9.03s-7.619,4.051-7.619,9.03,3.417,9.03,7.619,9.03,7.619-4.051,7.619-9.03Z" fill="#ccc" stroke="#ccc" stroke-miterlimit="10" stroke-width="1.5"/>
      <path d="M748.411,328.666c0,.807-.075,1.593-.215,2.353-.026.794-.052,1.528-.074,2.203-.077,2.216-.133,3.836-.133,4.897,0,2.133-.523,4.365-.935,5.296-.736,2.421-2.635,3.922-3.656,4.432-2.026,1.25-4.191,1.598-6.026,1.598-1.668,0-3.064-.288-3.847-.447l-.207-.042c-1.215-.242-2.289-.612-3.199-1.1l-.052-.029c-.103-.056-.203-.114-.302-.173l.302-.502v-2.118h.814l.334.202c.704.422,1.597.743,2.656.955l.221.045c1.471.303,4.913,1.009,7.934-.851.576-.295,1.888-1.25,2.347-2.854l.095-.243c.169-.34.698-2.239.698-4.166,0-.305.006-.666.014-1.061-1.847,1.964-4.331,3.177-7.068,3.177-5.679,0-10.3-5.19-10.3-11.569s4.621-11.569,10.3-11.569c2.799,0,5.339,1.266,7.197,3.308.005-1.172.138-3.046.144-3.126l2.814.202c0,.019-.138,1.939-.138,3.003,0,.725.058,3.894.1,6.061.114.69.183,1.396.183,2.123v-.004ZM738.109,337.417c3.535,0,6.498-2.887,7.273-6.747.021-.651.043-1.318.065-2.043,0,0-.016-.769-.037-1.832-.735-3.925-3.728-6.874-7.3-6.874-4.124,0-7.478,3.923-7.478,8.747s3.356,8.748,7.478,8.748h-.002Z" fill="#ccc" stroke="#ccc" stroke-miterlimit="10" stroke-width="1.5"/>
      <path d="M761.087,318.531c1.537-.854,3.085-.854,4.583-.854v2.822c-1.294,0-2.315,0-3.267.527-.808.405-1.35,1.107-2.028,2.195-1.472,2.504-2.465,4.671-2.465,7.012v10.017h-2.822v-17.918c0-.581-.166-2.953-.277-4.406l2.813-.216c.023.331.223,2.917.273,4.162.022-.036.042-.076.064-.113.776-1.241,1.639-2.484,3.125-3.228h0Z" fill="#ccc" stroke="#ccc" stroke-miterlimit="10" stroke-width="1.5"/>
      <path d="M791.718,329.228h-16.783c.16,5.134,3.243,8.183,8.318,8.183,2.539,0,4.348-.453,5.248-.745.85-.419,1.308-.577,1.358-.594l.447,1.339.455,1.336c-.053.018-.417.152-1.094.491l-.184.076c-1.257.419-3.357.918-6.231.918-6.771,0-11.146-4.486-11.146-11.428,0-7.597,3.956-12.133,10.582-12.133,7.422,0,9.029,8.935,9.029,11.146v1.411ZM788.726,326.406c-.466-2.473-2.015-6.913-6.038-6.913-5.23,0-7.091,3.368-7.6,6.913h13.638Z" fill="#ccc" stroke="#ccc" stroke-miterlimit="10" stroke-width="1.5"/>
      <path d="M805.916,326.615c5.588,2.128,6.749,5.046,6.749,7.123,0,3.738-3.422,6.349-8.323,6.349-2.387,0-5.833-1.502-6.216-1.675l1.146-2.578c1.292.576,3.708,1.431,5.07,1.431,3.29,0,5.501-1.418,5.501-3.527,0-2.156-2.651-3.619-4.876-4.467-3.672-1.223-5.562-3.335-5.562-6.257,0-3.857,2.879-6.349,7.336-6.349,3.039,0,3.847.379,4.91.998.21.124.441.259.752.4l-1.168,2.568c-.412-.188-.721-.366-1.002-.529-.66-.384-1.06-.615-3.493-.615-1.687,0-4.516.458-4.516,3.527,0,1.104.419,2.51,3.691,3.6h0Z" fill="#ccc" stroke="#ccc" stroke-miterlimit="10" stroke-width="1.5"/>
      <path d="M826.887,326.615c5.588,2.128,6.749,5.046,6.749,7.123,0,3.738-3.422,6.349-8.323,6.349-2.387,0-5.833-1.502-6.216-1.675l1.146-2.578c1.292.576,3.708,1.431,5.07,1.431,3.29,0,5.501-1.418,5.501-3.527,0-2.156-2.651-3.619-4.876-4.467-3.672-1.223-5.562-3.335-5.562-6.257,0-3.857,2.879-6.349,7.336-6.349,3.039,0,3.847.379,4.91.998.21.124.441.259.752.4l-1.168,2.568c-.412-.188-.721-.366-1.002-.529-.66-.384-1.06-.615-3.493-.615-1.687,0-4.516.458-4.516,3.527,0,1.104.419,2.51,3.691,3.6h0Z" fill="#ccc" stroke="#ccc" stroke-miterlimit="10" stroke-width="1.5"/>
      <path d="M864.991,337.523v2.822h-9.03v-2.822h3.104v-28.956l-2.205,1.826-1.799-2.174,4.482-3.709h2.343v33.013h3.104Z" fill="#ccc" stroke="#ccc" stroke-miterlimit="10" stroke-width="1.5"/>
      <path d="M892.451,315.612v1.857l-18.202,18.061v.399l-.416.014-.015-.014h-2.391v-1.576l18.201-18.059v-.682h2.822Z" fill="#ccc" stroke="#ccc" stroke-miterlimit="10" stroke-width="1.5"/>
      <path d="M919.892,323.626c.533,1.246.794,3.653.794,4.869,0,1.301,0,2.16-.612,4.456-.54,2.157-1.647,3.609-2.481,4.443-.933.931-2.715,2.12-4.182,2.487-1.385.465-3.645.465-4.858.465-1.433,0-3.918-.808-4.929-1.242-1.185-.508-3.406-2.006-4.757-3.205l1.875-2.109c1.182,1.05,3.184,2.373,3.993,2.722.932.399,2.991,1.014,3.817,1.014.979,0,3.017,0,4.069-.351.903-.23,2.245-1.045,2.976-1.776.581-.58,1.357-1.6,1.745-3.153.522-1.958.522-2.52.522-3.749,0-1.252-.286-3.109-.592-3.819-.347-.92-.769-1.62-1.479-2.474-.619-.743-1.295-1.275-2.011-1.582-.888-.381-1.827-.733-2.689-.733h-3.809v-3.073l8.383-9.484h-12.898v-2.822h15.943v3.636l-7.884,8.92h.265c1.376,0,2.693.485,3.802.961,1.127.484,2.16,1.281,3.067,2.369.918,1.101,1.495,2.067,1.931,3.229h0Z" fill="#ccc" stroke="#ccc" stroke-miterlimit="10" stroke-width="1.5"/>
    </g>
    <g>
      <rect x="451.255" y="357.481" width="631.402" height="52.826" fill="none"/>
      <path d="M474.72,370.899c.652,1.301.996,2.788.996,4.299v15.378c0,1.511-.344,3-.996,4.3-.61,1.222-1.532,2.366-2.742,3.403-1.079.898-2.239,1.511-3.461,1.83-1.114.406-2.315.612-3.665.625h-.141c-1.508-.011-2.71-.214-3.881-.653-1.273-.479-2.406-1.127-3.371-1.932-1.225-1.048-2.147-2.194-2.758-3.416-.652-1.301-.996-2.788-.996-4.297v-15.378c0-1.51.346-2.997.996-4.299.611-1.222,1.533-2.367,2.743-3.403,1.079-.9,2.239-1.511,3.461-1.83,1.152-.42,2.398-.626,3.807-.626,1.511,0,2.864.219,4.022.653,1.273.477,2.406,1.127,3.372,1.932,1.074.918,1.925,2.033,2.616,3.414h0ZM456.528,375.057v13.917l16.189-15.351c-.117-.514-.292-1.006-.521-1.463-.526-1.054-1.134-1.855-1.913-2.523-.706-.588-1.566-1.078-2.54-1.443-.828-.311-1.876-.474-3.032-.474-1.109,0-2.027.151-2.891.474l-.152.048c-.837.209-1.644.635-2.403,1.267-.907.777-1.599,1.627-2.04,2.51-.457.914-.698,1.964-.698,3.038ZM472.895,390.578v-13.233l-16.033,15.203c.102.32.219.632.366.927.441.883,1.133,1.732,2.056,2.522.705.587,1.564,1.077,2.54,1.443.858.322,1.772.469,2.957.474,1.078-.005,1.977-.156,2.823-.474l.152-.048c.837-.208,1.644-.635,2.403-1.267.906-.777,1.597-1.626,2.039-2.51.457-.913.698-1.962.698-3.038Z" fill="#ccc" stroke="#ccc" stroke-miterlimit="10" stroke-width="1.5"/>
      <path d="M492.054,397.913v2.822h-9.029v-2.822h3.104v-28.956l-2.206,1.826-1.799-2.174,4.482-3.709h2.344v33.013h3.104Z" fill="#ccc" stroke="#ccc" stroke-miterlimit="10" stroke-width="1.5"/>
      <path d="M535.493,366.158v34.455h-2.799l-16.389-29.029v29.005h-2.822v-34.285h3.082l16.106,28.528v-28.675h2.822Z" fill="#ccc" stroke="#ccc" stroke-miterlimit="10" stroke-width="1.5"/>
      <path d="M559.398,389.449h3.81v2.822h-3.81v7.055h-2.822v-7.055h-14.673v-3.071l14.579-24.3h2.915v24.548h.001ZM556.575,370.227l-11.533,19.22h11.533v-19.22Z" fill="#ccc" stroke="#ccc" stroke-miterlimit="10" stroke-width="1.5"/>
      <path d="M579.566,397.913v2.822h-9.029v-2.822h3.104v-28.956l-2.206,1.826-1.799-2.174,4.482-3.709h2.344v33.013h3.104Z" fill="#ccc" stroke="#ccc" stroke-miterlimit="10" stroke-width="1.5"/>
      <path d="M598.7,373.321c0,3.5-2.849,6.349-6.349,6.349s-6.349-2.849-6.349-6.349,2.849-6.349,6.349-6.349,6.349,2.849,6.349,6.349ZM595.878,373.321c0-1.944-1.583-3.527-3.527-3.527s-3.527,1.583-3.527,3.527,1.583,3.527,3.527,3.527,3.527-1.583,3.527-3.527Z" fill="#ccc" stroke="#ccc" stroke-miterlimit="10" stroke-width="1.5"/>
      <path d="M626.138,384.016c.533,1.246.794,3.653.794,4.869,0,1.301,0,2.16-.612,4.456-.541,2.157-1.648,3.609-2.482,4.443-.933.931-2.714,2.12-4.182,2.487-1.384.465-3.645.465-4.858.465-1.434,0-3.918-.808-4.93-1.242-1.184-.508-3.406-2.006-4.756-3.205l1.875-2.109c1.181,1.05,3.183,2.373,3.993,2.722.931.399,2.991,1.014,3.818,1.014.979,0,3.017,0,4.069-.351.903-.23,2.245-1.045,2.976-1.776.582-.58,1.357-1.6,1.745-3.153.522-1.958.522-2.52.522-3.749,0-1.252-.287-3.109-.591-3.819-.347-.92-.769-1.62-1.48-2.474-.62-.743-1.295-1.275-2.011-1.582-.887-.381-1.827-.733-2.689-.733h-3.81v-3.073l8.384-9.484h-12.898v-2.822h15.943v3.636l-7.884,8.92h.265c1.375,0,2.693.485,3.801.961,1.127.484,2.16,1.281,3.067,2.369.918,1.101,1.496,2.067,1.932,3.229h-.001Z" fill="#ccc" stroke="#ccc" stroke-miterlimit="10" stroke-width="1.5"/>
      <path d="M654.352,370.899c.652,1.301.996,2.788.996,4.299v15.378c0,1.511-.344,3-.996,4.3-.61,1.222-1.532,2.366-2.742,3.403-1.079.898-2.239,1.511-3.461,1.83-1.114.406-2.315.612-3.665.625h-.141c-1.508-.011-2.71-.214-3.881-.653-1.273-.479-2.406-1.127-3.371-1.932-1.225-1.048-2.147-2.194-2.758-3.416-.652-1.301-.996-2.788-.996-4.297v-15.378c0-1.51.346-2.997.996-4.299.611-1.222,1.533-2.367,2.743-3.403,1.079-.9,2.239-1.511,3.461-1.83,1.152-.42,2.398-.626,3.807-.626,1.511,0,2.864.219,4.022.653,1.273.477,2.406,1.127,3.372,1.932,1.074.918,1.925,2.033,2.616,3.414h0ZM636.16,375.057v13.917l16.189-15.351c-.117-.514-.292-1.006-.521-1.463-.526-1.054-1.134-1.855-1.913-2.523-.706-.588-1.566-1.078-2.54-1.443-.828-.311-1.876-.474-3.032-.474-1.109,0-2.027.151-2.891.474l-.152.048c-.837.209-1.644.635-2.403,1.267-.907.777-1.599,1.627-2.04,2.51-.457.914-.698,1.964-.698,3.038ZM652.527,390.578v-13.233l-16.033,15.203c.102.32.219.632.366.927.441.883,1.133,1.732,2.056,2.522.705.587,1.564,1.077,2.54,1.443.858.322,1.772.469,2.957.474,1.078-.005,1.977-.156,2.823-.474l.152-.048c.837-.208,1.644-.635,2.403-1.267.906-.777,1.597-1.626,2.039-2.51.457-.913.698-1.962.698-3.038Z" fill="#ccc" stroke="#ccc" stroke-miterlimit="10" stroke-width="1.5"/>
      <path d="M661.756,397.447c0-1.636,1.264-2.963,2.822-2.963s2.822,1.327,2.822,2.963-1.263,2.963-2.822,2.963-2.822-1.326-2.822-2.963Z" fill="#ccc" stroke="#ccc" stroke-miterlimit="10" stroke-width="1.5"/>
      <path d="M694.832,364.9v3.992l-14.532,30.05v.382h-2.822v-1.029l14.532-30.05v-.523h-18.201v-2.822h21.022Z" fill="#ccc" stroke="#ccc" stroke-miterlimit="10" stroke-width="1.5"/>
      <path d="M734.058,367.739v11.569h10.158v2.822h-10.158v15.661h18.482v2.822h-21.305v-35.695h21.305v2.822h-18.482Z" fill="#ccc" stroke="#ccc" stroke-miterlimit="10" stroke-width="1.5"/>
      <path d="M779.986,370.899c.651,1.301.996,2.788.996,4.299v15.378c0,1.511-.345,3-.996,4.3-.61,1.222-1.532,2.366-2.742,3.403-1.079.898-2.238,1.511-3.461,1.83-1.114.406-2.314.612-3.665.625h-.141c-1.509-.011-2.711-.214-3.882-.653-1.272-.479-2.405-1.127-3.37-1.932-1.226-1.048-2.147-2.194-2.759-3.416-.651-1.301-.996-2.788-.996-4.297v-15.378c0-1.51.346-2.997.996-4.299.611-1.222,1.533-2.367,2.743-3.403,1.079-.9,2.238-1.511,3.461-1.83,1.152-.42,2.398-.626,3.807-.626,1.511,0,2.863.219,4.021.653,1.273.477,2.406,1.127,3.372,1.932,1.074.918,1.925,2.033,2.616,3.414h0ZM761.794,375.057v13.917l16.189-15.351c-.116-.514-.292-1.006-.521-1.463-.526-1.054-1.134-1.855-1.913-2.523-.705-.588-1.565-1.078-2.539-1.443-.828-.311-1.877-.474-3.032-.474-1.109,0-2.027.151-2.891.474l-.152.048c-.837.209-1.644.635-2.403,1.267-.907.777-1.599,1.627-2.04,2.51-.457.914-.698,1.964-.698,3.038ZM778.161,390.578v-13.233l-16.033,15.203c.102.32.219.632.366.927.441.883,1.133,1.732,2.056,2.522.705.587,1.564,1.077,2.539,1.443.858.322,1.772.469,2.957.474,1.078-.005,1.977-.156,2.823-.474l.152-.048c.837-.208,1.644-.635,2.403-1.267.905-.777,1.597-1.626,2.038-2.51.457-.913.698-1.962.698-3.038Z" fill="#ccc" stroke="#ccc" stroke-miterlimit="10" stroke-width="1.5"/>
      <path d="M804.885,389.449h3.81v2.822h-3.81v7.055h-2.822v-7.055h-14.673v-3.071l14.579-24.3h2.914v24.548h.002ZM802.061,370.227l-11.532,19.22h11.532v-19.22Z" fill="#ccc" stroke="#ccc" stroke-miterlimit="10" stroke-width="1.5"/>
      <path d="M825.053,397.913v2.822h-9.03v-2.822h3.104v-28.956l-2.205,1.826-1.799-2.174,4.482-3.709h2.343v33.013h3.104Z" fill="#ccc" stroke="#ccc" stroke-miterlimit="10" stroke-width="1.5"/>
      <path d="M844.186,373.321c0,3.5-2.849,6.349-6.349,6.349s-6.349-2.849-6.349-6.349,2.849-6.349,6.349-6.349,6.349,2.849,6.349,6.349ZM841.365,373.321c0-1.944-1.583-3.527-3.527-3.527s-3.527,1.583-3.527,3.527,1.583,3.527,3.527,3.527,3.527-1.583,3.527-3.527Z" fill="#ccc" stroke="#ccc" stroke-miterlimit="10" stroke-width="1.5"/>
      <path d="M871.624,384.016c.533,1.246.794,3.653.794,4.869,0,1.301,0,2.16-.612,4.456-.54,2.157-1.647,3.609-2.481,4.443-.933.931-2.715,2.12-4.182,2.487-1.385.465-3.645.465-4.858.465-1.433,0-3.918-.808-4.929-1.242-1.185-.508-3.406-2.006-4.757-3.205l1.875-2.109c1.182,1.05,3.184,2.373,3.993,2.722.932.399,2.991,1.014,3.817,1.014.979,0,3.017,0,4.069-.351.903-.23,2.245-1.045,2.976-1.776.581-.58,1.357-1.6,1.745-3.153.522-1.958.522-2.52.522-3.749,0-1.252-.286-3.109-.592-3.819-.347-.92-.769-1.62-1.479-2.474-.619-.743-1.295-1.275-2.011-1.582-.888-.381-1.827-.733-2.689-.733h-3.809v-3.073l8.383-9.484h-12.898v-2.822h15.943v3.636l-7.884,8.92h.265c1.376,0,2.693.485,3.802.961,1.127.484,2.16,1.281,3.067,2.369.918,1.101,1.495,2.067,1.931,3.229h0Z" fill="#ccc" stroke="#ccc" stroke-miterlimit="10" stroke-width="1.5"/>
      <path d="M882.683,398.054h17.444v2.822h-21.305v-2.812l3.71-4.048c1.943-2.166,3.728-4.151,5.42-5.957.841-.841,1.684-1.824,2.497-2.775.852-.992,4.25-4.817,4.25-4.817.385-.388.603-.662.748-.842.086-.109.159-.196.22-.264.413-.526.761-1.192,1.006-1.928.233-.699.352-1.257.352-2.376,0-.961-.199-1.914-.591-2.831-.357-.947-.926-1.629-1.677-2.38-.856-.706-1.667-1.213-2.46-1.51-2.27-.851-3.797-.849-6.062,0-1.039.389-1.82.869-2.463,1.511-.74.741-1.336,1.585-1.676,2.38l-2.593-1.112c.485-1.133,1.272-2.262,2.274-3.263.925-.924,2.059-1.629,3.466-2.157,2.887-1.086,5.151-1.086,8.045,0,1.443.542,2.614,1.442,3.371,2.071.926.918,1.851,1.965,2.393,3.41.521,1.209.796,2.535.796,3.881,0,1.484-.19,2.35-.497,3.269-.354,1.064-.876,2.044-1.507,2.833l-.193.23c-.188.237-.473.591-.898,1.016.003,0-3.322,3.742-4.159,4.718-.85.991-1.727,2.015-2.613,2.901-1.649,1.759-3.418,3.73-5.349,5.879l-1.946,2.151h-.002Z" fill="#ccc" stroke="#ccc" stroke-miterlimit="10" stroke-width="1.5"/>
      <path d="M906.557,397.447c0-1.636,1.263-2.963,2.821-2.963s2.822,1.327,2.822,2.963-1.264,2.963-2.822,2.963-2.821-1.326-2.821-2.963Z" fill="#ccc" stroke="#ccc" stroke-miterlimit="10" stroke-width="1.5"/>
      <path d="M928.541,397.913v2.822h-9.03v-2.822h3.104v-28.956l-2.205,1.826-1.799-2.174,4.482-3.709h2.343v33.013h3.104Z" fill="#ccc" stroke="#ccc" stroke-miterlimit="10" stroke-width="1.5"/>
    </g>
    <g>
      <rect x="436.267" y="603.866" width="541.911" height="52.826" fill="none"/>
      <path d="M438.717,627.325c0-1.637,1.264-2.963,2.822-2.963s2.822,1.326,2.822,2.963-1.263,2.963-2.822,2.963-2.822-1.327-2.822-2.963ZM438.717,643.832c0-1.636,1.264-2.963,2.822-2.963s2.822,1.327,2.822,2.963-1.263,2.963-2.822,2.963-2.822-1.326-2.822-2.963Z" fill="#ccc" stroke="#ccc" stroke-miterlimit="10" stroke-width="1.5"/>
      <path d="M472.922,646.349v.671h-1.886l-.736.44-8.392-14.068-8.52,14.077-.74-.449h-1.878v-.676l9.628-15.906-9.205-15.48v-.811h2.124l.5-.298,8.091,13.604,7.962-13.597.496.29h2.133v.806l-9.067,15.485,9.49,15.911Z" fill="#ccc" stroke="#ccc" stroke-miterlimit="10" stroke-width="1.5"/>
      <path d="M499.936,615.606h-8.889v31.463h-2.821v-31.463h-8.889v-2.821h20.599v2.821Z" fill="#ccc" stroke="#ccc" stroke-miterlimit="10" stroke-width="1.5"/>
      <path d="M528.346,646.2v.809h-2.129l-.498.292-11.767-20.004-4.794,5.17v14.26h-2.822v-32.873h2.822v14.462l13.78-14.857.426.396h2.019v1.118l-9.427,10.166,12.391,21.062Z" fill="#ccc" stroke="#ccc" stroke-miterlimit="10" stroke-width="1.5"/>
      <path d="M646.162,644.336v2.821h-21.445v-34.284h2.822v31.463h18.624Z" fill="#ccc" stroke="#ccc" stroke-miterlimit="10" stroke-width="1.5"/>
      <path d="M662.527,644.298v2.822h-9.029v-2.822h3.104v-28.955l-2.206,1.825-1.799-2.174,4.482-3.709h2.344v33.013h3.104Z" fill="#ccc" stroke="#ccc" stroke-miterlimit="10" stroke-width="1.5"/>
      <path d="M690.235,631.902c-1.353,5.867-7.733,12.249-11.819,14.606l-1.41-2.443c3.626-2.093,9.366-7.966,10.476-12.781.185-.844.321-1.757.424-2.678-.24.21-.491.412-.755.605-.745.597-2.187,1.42-3.41,1.771-1.23.351-6.466.374-7.937-.177-1.443-.542-2.624-1.19-3.513-1.932-.972-.81-1.793-1.794-2.438-2.923-.786-1.373-.892-2.693-.892-3.804v-1.271c0-1.193.261-2.355.82-3.659l.072-.145c.645-1.13,1.466-2.113,2.438-2.923.888-.739,2.068-1.389,3.512-1.931,1.174-.439,2.536-.654,4.164-.654,1.393,0,2.75.292,4.011.606l.152.048c1.443.542,2.625,1.191,3.512,1.931.972.81,1.793,1.793,2.438,2.923.786,1.373.892,2.693.892,3.804.01.198.278,6.382-.738,11.025ZM688.15,622.573h.036c-.006-.983-.034-1.609-.034-1.63-.001-1.141-.146-1.814-.521-2.468-.479-.838-1.082-1.562-1.794-2.157-.621-.518-1.525-1.01-2.622-1.428-.992-.245-2.135-.502-3.247-.502-1.284,0-2.321.155-3.173.474-1.129.425-2.062.928-2.695,1.456-.694.577-1.284,1.28-1.755,2.087-.385.919-.559,1.684-.559,2.472v1.271c0,1.076.146,1.751.519,2.404.477.835,1.081,1.562,1.795,2.155.636.53,1.567,1.033,2.696,1.456.827.295,5.35.323,6.174.105.812-.232,1.913-.854,2.466-1.296,1.691-1.243,2.714-2.915,2.714-4.4h-.001Z" fill="#ccc" stroke="#ccc" stroke-miterlimit="10" stroke-width="1.5"/>
      <path d="M697.432,643.832c0-1.636,1.264-2.963,2.822-2.963s2.822,1.327,2.822,2.963-1.263,2.963-2.822,2.963-2.822-1.326-2.822-2.963Z" fill="#ccc" stroke="#ccc" stroke-miterlimit="10" stroke-width="1.5"/>
      <path d="M730.511,630.4c.533,1.246.794,3.653.794,4.869,0,1.301,0,2.16-.612,4.456-.541,2.157-1.648,3.608-2.482,4.442-.933.932-2.714,2.121-4.182,2.487-1.384.466-3.644.466-4.857.466-1.434,0-3.918-.809-4.93-1.241-1.184-.508-3.406-2.007-4.756-3.206l1.875-2.109c1.181,1.05,3.183,2.373,3.993,2.722.931.399,2.991,1.015,3.818,1.015.979,0,3.017,0,4.069-.352.903-.229,2.245-1.045,2.976-1.776.582-.579,1.357-1.6,1.746-3.153.522-1.958.522-2.52.522-3.748,0-1.253-.287-3.11-.591-3.819-.347-.92-.769-1.62-1.48-2.474-.62-.743-1.295-1.275-2.011-1.581-.887-.381-1.827-.734-2.689-.734h-3.81v-3.072l8.384-9.484h-12.898v-2.821h15.943v3.636l-7.884,8.919h.265c1.375,0,2.693.485,3.801.961,1.127.484,2.16,1.281,3.067,2.369.918,1.101,1.496,2.067,1.932,3.229h-.001Z" fill="#ccc" stroke="#ccc" stroke-miterlimit="10" stroke-width="1.5"/>
      <path d="M755.894,631.324c.39,1.945.217,3.624.153,4.097v11.61h-2.822l.021-11.941c0-.01.229-1.489-.133-3.302-.226-1.67-.81-2.861-1.803-3.73-.738-.645-2.146-1.061-3.587-1.061-1.221,0-2.467.445-3.508,1.256-2.151,1.812-3.265,4.297-3.265,7.351v11.428h-2.821v-11.428c0-.086.011-.167.013-.251l-.152.004s-.143-5.812-.143-7.654c0-.928-.138-2.988-.138-3.009l2.815-.188c.006.088.144,2.174.144,3.196v.197c.517-.66,1.105-1.277,1.772-1.841,1.577-1.228,3.437-1.884,5.282-1.884,2.149,0,4.184.659,5.443,1.761,1.508,1.321,2.427,3.134,2.728,5.39h0Z" fill="#ccc" stroke="#ccc" stroke-miterlimit="10" stroke-width="1.5"/>
      <path d="M788.22,631.323c.297,2.242.153,4.039.147,4.113l.005,11.594h-2.822v-11.71c.006-.13.128-1.699-.128-3.624-.236-1.768-.671-2.972-1.366-3.782-.545-.635-1.558-.919-2.315-.919s-1.631.427-2.174,1.061c-1.649,1.886-2.481,4.421-2.481,7.547v11.428h-2.963v-11.71c.007-.13.128-1.699-.129-3.624-.235-1.768-.67-2.972-1.365-3.782-.545-.635-1.558-.919-2.315-.919s-1.631.427-2.175,1.061c-1.648,1.885-2.481,4.42-2.481,7.547v11.428h-2.821v-11.428c0-.097.01-.188.01-.282h-.151v-7.524c-.137-1.081-.141-2.979-.141-3.199h2.821c0,.44.015,1.521.07,2.321.182-.241.363-.482.562-.71,1.071-1.25,2.726-2.033,4.307-2.033,1.365,0,3.253.5,4.457,1.903.515.6.925,1.306,1.253,2.13.401-.715.872-1.383,1.411-2,1.072-1.25,2.726-2.033,4.307-2.033,1.366,0,3.254.5,4.457,1.903,1.066,1.246,1.709,2.912,2.021,5.247l.002-.002Z" fill="#ccc" stroke="#ccc" stroke-miterlimit="10" stroke-width="1.5"/>
      <path d="M906.815,624.283v9.734c0,1.932-.329,3.771-.948,5.32-.589,1.624-1.506,3.079-2.709,4.284-.91,1.066-2.075,1.904-3.396,2.412-1.301.641-2.63.964-3.951.964h-11.005v-35.837h11.005c1.458,0,2.818.325,4.157.995,1.385.692,2.496,1.544,3.404,2.602.9.896,1.718,2.256,2.496,4.204.643,1.764.947,3.491.947,5.321ZM903.993,624.283c0-1.516-.242-2.887-.762-4.314-.616-1.54-1.234-2.6-1.93-3.295-.741-.857-1.543-1.466-2.597-1.993-.951-.476-1.871-.697-2.895-.697h-8.184v30.193h8.184c.902,0,1.829-.236,2.755-.699l.136-.059c.911-.34,1.691-.902,2.387-1.713.983-.99,1.68-2.099,2.144-3.374.497-1.242.762-2.76.762-4.314v-9.734Z" fill="#ccc" stroke="#ccc" stroke-miterlimit="10" stroke-width="1.5"/>
      <path d="M916.046,615.546v11.568h9.171v2.822h-9.171v17.071h-2.821v-34.284h21.304v2.822h-18.482Z" fill="#ccc" stroke="#ccc" stroke-miterlimit="10" stroke-width="1.5"/>
      <path d="M961.557,615.606h-8.888v31.463h-2.822v-31.463h-8.889v-2.821h20.599v2.821Z" fill="#ccc" stroke="#ccc" stroke-miterlimit="10" stroke-width="1.5"/>
    </g>
    <g>
      <rect x="439.267" y="297.794" width="153.149" height="52.826" fill="none"/>
      <path d="M489.044,333.362l-10.8,10.591-10.592-10.591h9.19v-12.416h2.822v12.416h9.38Z" fill="#ccc" stroke="#ccc" stroke-miterlimit="10" stroke-width="1.5"/>
      <path d="M502.538,321.336v13.262c0,1.111.26,2.143.661,2.624.473.552,1.713.903,2.583.903.85,0,1.757-.332,1.767-.334l.236-.089h.678v2.537l.074.195c-.014.005-.04.014-.074.027v.063h-.189c-.464.149-1.454.423-2.493.423-1.546,0-3.612-.588-4.739-1.903-1.198-1.439-1.326-3.587-1.326-4.445v-13.262h-4.233v-2.822h4.233v-6.208h2.822v6.208h6.349v2.822h-6.349Z" fill="#ccc" stroke="#ccc" stroke-miterlimit="10" stroke-width="1.5"/>
      <path d="M536.209,329.072c0,6.536-4.684,11.852-10.441,11.852s-10.44-5.317-10.44-11.852,4.684-11.851,10.44-11.851,10.441,5.316,10.441,11.851ZM533.388,329.072c0-4.979-3.417-9.03-7.619-9.03s-7.619,4.051-7.619,9.03,3.417,9.03,7.619,9.03,7.619-4.051,7.619-9.03Z" fill="#ccc" stroke="#ccc" stroke-miterlimit="10" stroke-width="1.5"/>
      <path d="M564.013,333.362l-10.8,10.591-10.592-10.591h9.19v-12.416h2.822v12.416h9.38Z" fill="#ccc" stroke="#ccc" stroke-miterlimit="10" stroke-width="1.5"/>
    </g>
    <g>
      <rect x="640.634" y="222.648" width="94.876" height="52.826" fill="none"/>
      <path d="M680.214,238.487c0,3.5-2.849,6.349-6.349,6.349s-6.349-2.849-6.349-6.349,2.849-6.349,6.349-6.349,6.349,2.849,6.349,6.349ZM677.392,238.487c0-1.944-1.583-3.527-3.527-3.527s-3.527,1.583-3.527,3.527,1.583,3.527,3.527,3.527,3.527-1.583,3.527-3.527Z" fill="#ccc" stroke="#ccc" stroke-miterlimit="10" stroke-width="1.5"/>
      <path d="M708.637,231.517v34.284h-2.822v-28.712l-6.648,11.923h-3.068l-6.65-11.923v28.712h-2.822v-34.284h2.945l8.06,14.452,8.061-14.452h2.945Z" fill="#ccc" stroke="#ccc" stroke-miterlimit="10" stroke-width="1.5"/>
    </g>
    <g>
      <rect x="565.395" y="223.655" width="94.876" height="52.826" fill="none"/>
      <path d="M594.512,250.189c.533,1.246.794,3.653.794,4.869,0,1.301,0,2.16-.612,4.456-.541,2.157-1.648,3.609-2.482,4.443-.933.931-2.714,2.12-4.182,2.487-1.384.465-3.644.465-4.857.465-1.434,0-3.918-.808-4.93-1.241-1.184-.508-3.406-2.006-4.756-3.206l1.875-2.109c1.181,1.05,3.183,2.373,3.993,2.722.931.399,2.991,1.014,3.818,1.014.979,0,3.017,0,4.069-.351.903-.23,2.245-1.045,2.976-1.776.582-.58,1.357-1.6,1.746-3.153.522-1.958.522-2.52.522-3.749,0-1.252-.287-3.109-.591-3.819-.347-.92-.769-1.62-1.48-2.474-.62-.743-1.295-1.275-2.011-1.582-.887-.381-1.827-.733-2.689-.733h-3.81v-3.073l8.384-9.484h-12.898v-2.822h15.943v3.636l-7.884,8.92h.265c1.375,0,2.693.485,3.801.96,1.127.484,2.16,1.281,3.067,2.369.918,1.101,1.496,2.067,1.932,3.229h-.001Z" fill="#ccc" stroke="#ccc" stroke-miterlimit="10" stroke-width="1.5"/>
      <path d="M622.868,251.393c.786,1.374.892,2.695.892,3.804v1.27c0,1.194-.261,2.356-.82,3.66l-.072.144c-.645,1.13-1.466,2.114-2.438,2.923-.889.741-2.07,1.39-3.512,1.93-1.174.44-2.535.655-4.164.655-1.394,0-2.751-.292-4.011-.607l-.152-.048c-1.442-.541-2.624-1.191-3.512-1.93-.972-.81-1.792-1.794-2.438-2.923-.786-1.374-.892-2.693-.892-3.804-.01-.196-.276-6.381.738-11.023,1.356-5.868,7.735-12.25,11.82-14.607l1.41,2.443c-3.625,2.091-9.364,7.966-10.476,12.781-.185.844-.322,1.757-.425,2.678.24-.21.492-.412.756-.605.745-.597,2.187-1.421,3.41-1.771,1.229-.353,6.464-.375,7.936.176,1.44.54,2.623,1.191,3.512,1.932.972.81,1.793,1.794,2.438,2.923h-.001ZM620.94,256.469v-1.27c0-1.075-.146-1.75-.519-2.404-.477-.835-1.081-1.562-1.795-2.156-.636-.531-1.569-1.034-2.696-1.456-.827-.293-5.349-.322-6.174-.106-.812.233-1.913.855-2.466,1.296-1.693,1.243-2.716,2.917-2.716,4.401h-.035c.005.983.034,1.611.034,1.629.001,1.14.146,1.813.521,2.468.479.835,1.082,1.562,1.795,2.156.619.518,1.525,1.01,2.621,1.428,1.061.264,2.186.502,3.247.502,1.284,0,2.321-.155,3.173-.474,1.129-.425,2.062-.927,2.696-1.456.694-.577,1.284-1.28,1.755-2.087.385-.918.559-1.683.559-2.472h.001Z" fill="#ccc" stroke="#ccc" stroke-miterlimit="10" stroke-width="1.5"/>
      <path d="M651.194,237.072c.652,1.301.996,2.788.996,4.299v15.378c0,1.511-.344,3-.996,4.3-.61,1.222-1.532,2.366-2.742,3.403-1.079.898-2.239,1.511-3.461,1.83-1.114.407-2.315.612-3.665.625h-.141c-1.508-.011-2.71-.214-3.881-.653-1.273-.479-2.406-1.127-3.371-1.932-1.225-1.048-2.147-2.194-2.758-3.416-.652-1.301-.996-2.788-.996-4.297v-15.378c0-1.51.346-2.997.996-4.299.611-1.222,1.533-2.367,2.743-3.403,1.079-.9,2.239-1.511,3.461-1.83,1.152-.42,2.398-.626,3.807-.626,1.511,0,2.864.219,4.022.653,1.273.477,2.406,1.127,3.372,1.932,1.074.918,1.925,2.033,2.616,3.414h0ZM633.002,241.23v13.917l16.189-15.351c-.117-.514-.292-1.006-.521-1.463-.526-1.054-1.134-1.855-1.913-2.523-.706-.588-1.566-1.078-2.54-1.443-.828-.311-1.876-.474-3.032-.474-1.109,0-2.027.151-2.891.474l-.152.048c-.837.209-1.644.635-2.403,1.267-.907.777-1.599,1.627-2.04,2.51-.457.914-.698,1.964-.698,3.038ZM649.37,256.751v-13.233l-16.033,15.203c.102.32.219.632.366.927.441.883,1.133,1.732,2.056,2.522.705.587,1.564,1.077,2.54,1.443.858.322,1.772.469,2.957.474,1.078-.005,1.977-.156,2.823-.474l.152-.048c.837-.208,1.644-.635,2.403-1.267.906-.777,1.597-1.626,2.039-2.51.457-.913.698-1.962.698-3.038Z" fill="#ccc" stroke="#ccc" stroke-miterlimit="10" stroke-width="1.5"/>
    </g>
    <g>
      <rect x="852.379" y="223.737" width="148.621" height="52.826" fill="none"/>
      <path d="M913.577,247.684h10.158v10.158c0,1.06,0,2.662-.92,4.134l-.126.19c-.552.833-1.121,1.693-2.439,2.516-.65.494-2.244,1.26-3.354,1.676-1.174.44-2.536.655-4.164.655s-2.989-.214-4.163-.655c-1.443-.542-2.624-1.191-3.512-1.93-1.246-.933-2.062-2.075-2.782-3.083l-.117-.193c-.652-1.302-.996-2.79-.996-4.299v-15.52c0-1.723.371-3.085,1.202-4.416.664-1.345,1.93-2.525,2.817-3.287,1.045-.871,2.307-1.343,3.525-1.801,1.176-.441,2.538-.656,4.167-.656s2.989.214,4.163.655c1.091.408,2.25.962,3.45,1.646l.146.096c1.449,1.088,2.491,2.253,3.096,3.461l-2.524,1.263c-.398-.796-1.136-1.607-2.195-2.413-1.027-.581-2.05-1.068-2.963-1.411-.853-.32-1.89-.476-3.173-.476s-2.322.154-3.174.474c-1.048.394-2.035.763-2.697,1.315-.686.59-1.679,1.507-2.18,2.51-.608.985-.84,1.858-.84,3.038v15.52c0,1.037.226,2.051.652,2.943.638.89,1.25,1.729,2.171,2.418.691.573,1.624,1.076,2.753,1.5.853.32,1.889.476,3.173.476s2.321-.155,3.173-.474c1.075-.403,2.341-1.051,2.753-1.36.896-.567,1.209-1.037,1.681-1.75l.107-.163c.468-.75.468-1.735.468-2.603v-7.336h-7.336v-2.819Z" fill="#ccc" stroke="#ccc" stroke-miterlimit="10" stroke-width="1.5"/>
      <path d="M951.299,252.901c.612,1.213.907,2.407.907,3.547,0,3.039-1.114,5.535-3.315,7.419-2.056,1.899-4.656,2.88-7.689,2.88h-.282c-2.859,0-5.495-1.017-7.831-3.021-1.826-1.545-2.361-2.91-2.749-3.906-.058-.145-.111-.285-.169-.419l2.593-1.113c.069.161.136.329.205.504.325.834.663,1.696,1.951,2.785,1.844,1.583,3.805,2.348,6.002,2.348h.282c2.333,0,4.236-.708,5.813-2.166,1.63-1.397,2.369-3.073,2.369-5.312,0-.694-.197-1.473-.557-2.191-.31-.506-.758-1.175-1.354-1.573-.687-.542-1.566-1.049-2.454-1.429-.575-.247-1.223-.446-1.974-.676-.416-.128-.851-.262-1.303-.412l-4.149-1.105c-2.235-.687-3.849-1.721-4.981-3.177-1.229-1.579-1.851-3.436-1.851-5.522,0-2.581,1.07-4.794,3.18-6.581,2.005-1.851,4.28-2.733,7.121-2.733h.28c2.853.165,5.234,1.143,7.162,2.909,1.464,1.301,2.351,2.857,2.691,4.739l-2.777.502c-.23-1.271-.786-2.242-1.805-3.148-1.452-1.331-3.25-2.061-5.354-2.186l-.199.003c-2.114,0-3.735.625-5.251,2.025-1.514,1.284-2.228,2.731-2.228,4.467,0,1.444.423,2.719,1.255,3.79.776.998,1.899,1.696,3.535,2.2l4.182,1.114c.512.167.924.293,1.319.415.795.244,1.545.474,2.26.78,1.125.481,2.22,1.117,3.007,1.747.962.636,1.64,1.623,2.161,2.493h-.003Z" fill="#ccc" stroke="#ccc" stroke-miterlimit="10" stroke-width="1.5"/>
    </g>
    <g>
      <rect x="1071.417" y="224.197" width="94.876" height="52.826" fill="none"/>
      <path d="M1116.037,247.656c0-1.636,1.264-2.963,2.821-2.963s2.822,1.327,2.822,2.963-1.264,2.963-2.822,2.963-2.821-1.326-2.821-2.963ZM1116.037,264.163c0-1.636,1.264-2.963,2.821-2.963s2.822,1.327,2.822,2.963-1.264,2.963-2.822,2.963-2.821-1.326-2.821-2.963Z" fill="#ccc" stroke="#ccc" stroke-miterlimit="10" stroke-width="1.5"/>
    </g>
    <g>
      <rect x="951.302" y="225.205" width="166.181" height="52.826" fill="none"/>
      <path d="M981.157,257.173h3.809v2.822h-3.809v7.055h-2.822v-7.055h-14.673v-3.071l14.578-24.3h2.915v24.548h.002ZM978.334,237.951l-11.533,19.22h11.533v-19.22Z" fill="#ccc" stroke="#ccc" stroke-miterlimit="10" stroke-width="1.5"/>
      <path d="M995.256,265.778h17.444v2.822h-21.304v-2.812l3.709-4.048c1.944-2.166,3.728-4.151,5.421-5.957.841-.841,1.683-1.824,2.497-2.775.851-.992,4.249-4.817,4.249-4.817.386-.388.603-.662.748-.842.086-.109.159-.196.22-.264.414-.526.761-1.192,1.006-1.928.233-.699.352-1.257.352-2.376,0-.961-.198-1.914-.591-2.831-.357-.947-.926-1.629-1.676-2.38-.856-.706-1.668-1.213-2.461-1.51-2.269-.851-3.797-.849-6.062,0-1.039.389-1.82.869-2.462,1.511-.741.741-1.336,1.585-1.677,2.38l-2.593-1.112c.485-1.133,1.272-2.262,2.274-3.263.926-.924,2.059-1.629,3.467-2.157,2.887-1.086,5.15-1.086,8.045,0,1.443.542,2.614,1.442,3.37,2.071.926.918,1.852,1.965,2.393,3.41.521,1.209.796,2.535.796,3.881,0,1.484-.19,2.35-.496,3.269-.354,1.064-.877,2.044-1.507,2.833l-.193.23c-.189.237-.473.591-.899,1.016.003,0-3.322,3.742-4.159,4.718-.849.991-1.727,2.015-2.612,2.901-1.649,1.759-3.419,3.73-5.349,5.879l-1.947,2.151h-.002Z" fill="#ccc" stroke="#ccc" stroke-miterlimit="10" stroke-width="1.5"/>
      <path d="M1040.154,251.739c.533,1.246.795,3.653.795,4.869,0,1.301,0,2.16-.612,4.456-.541,2.157-1.648,3.609-2.482,4.443-.933.931-2.714,2.12-4.182,2.487-1.384.465-3.645.465-4.857.465-1.434,0-3.918-.808-4.93-1.242-1.184-.508-3.406-2.006-4.756-3.205l1.875-2.109c1.181,1.05,3.183,2.373,3.992,2.722.932.399,2.991,1.014,3.818,1.014.979,0,3.017,0,4.068-.351.903-.23,2.245-1.045,2.976-1.776.582-.58,1.357-1.6,1.745-3.153.522-1.958.522-2.52.522-3.749,0-1.252-.286-3.109-.591-3.819-.348-.92-.77-1.62-1.48-2.474-.619-.743-1.295-1.275-2.011-1.582-.887-.381-1.827-.733-2.688-.733h-3.81v-3.073l8.384-9.484h-12.898v-2.822h15.942v3.636l-7.884,8.92h.266c1.375,0,2.693.485,3.801.961,1.127.484,2.16,1.281,3.067,2.369.918,1.101,1.495,2.067,1.932,3.229h-.002Z" fill="#ccc" stroke="#ccc" stroke-miterlimit="10" stroke-width="1.5"/>
      <path d="M1064.283,267.624v.887h-1.986l-.561.414-8.415-11.431-3.146,3.389v7.487h-2.822v-32.873h2.822v21.238l10.394-11.194.427.397h2.019v1.119l-7.738,8.334,9.008,12.234Z" fill="#ccc" stroke="#ccc" stroke-miterlimit="10" stroke-width="1.5"/>
      <path d="M1077.78,248.747v13.262c0,1.111.26,2.143.661,2.624.474.552,1.713.903,2.584.903.85,0,1.757-.332,1.767-.334l.235-.089h.679v2.537l.073.195c-.014.005-.04.014-.073.027v.063h-.189c-.464.149-1.454.423-2.493.423-1.546,0-3.611-.588-4.738-1.903-1.198-1.439-1.326-3.587-1.326-4.445v-13.262h-4.233v-2.822h4.233v-6.208h2.821v6.208h6.349v2.822h-6.349Z" fill="#ccc" stroke="#ccc" stroke-miterlimit="10" stroke-width="1.5"/>
      <path d="M1098.361,254.729c5.587,2.128,6.748,5.046,6.748,7.123,0,3.738-3.421,6.349-8.322,6.349-2.388,0-5.833-1.502-6.217-1.675l1.146-2.578c1.293.576,3.708,1.431,5.071,1.431,3.29,0,5.501-1.418,5.501-3.527,0-2.156-2.651-3.619-4.876-4.467-3.673-1.223-5.563-3.335-5.563-6.257,0-3.857,2.88-6.349,7.337-6.349,3.039,0,3.847.379,4.91.998.21.124.441.259.752.4l-1.169,2.568c-.412-.188-.721-.366-1.001-.529-.661-.384-1.06-.615-3.493-.615-1.687,0-4.516.458-4.516,3.527,0,1.104.419,2.51,3.691,3.6h0Z" fill="#ccc" stroke="#ccc" stroke-miterlimit="10" stroke-width="1.5"/>
    </g>
    <g>
      <rect x="499.601" y="417.335" width="94.876" height="52.826" fill="none"/>
      <path d="M543.139,429.075h-8.889v31.462h-2.821v-31.462h-8.889v-2.822h20.599v2.822Z" fill="#ccc" stroke="#ccc" stroke-miterlimit="10" stroke-width="1.5"/>
      <path d="M570.554,430.789c.65,1.305.995,2.792.995,4.3v15.379c0,1.509-.344,2.997-.995,4.299-.612,1.225-1.535,2.37-2.743,3.404-1.08.9-2.239,1.511-3.461,1.83-1.115.406-2.317.612-3.666.625h-.141c-1.508-.011-2.712-.214-3.881-.653-1.275-.479-2.408-1.128-3.372-1.932-1.223-1.048-2.146-2.194-2.757-3.416-.652-1.302-.996-2.79-.996-4.299v-15.379c0-1.51.346-2.997.996-4.299.611-1.225,1.535-2.369,2.743-3.404,1.078-.899,2.238-1.51,3.459-1.829,1.15-.42,2.397-.626,3.807-.626,1.514,0,2.869.22,4.024.655,1.272.477,2.406,1.127,3.371,1.93,1.072.918,1.923,2.033,2.616,3.415h.001ZM568.724,450.467v-15.379c0-1.072-.241-2.123-.697-3.038-.528-1.054-1.134-1.855-1.913-2.522-.706-.587-1.566-1.077-2.54-1.442-.828-.311-1.875-.474-3.032-.474-1.11,0-2.03.151-2.891.474l-.154.048c-.835.209-1.643.635-2.4,1.267-.906.776-1.599,1.625-2.041,2.51-.457.915-.698,1.964-.698,3.038v15.377c0,1.074.243,2.125.698,3.038.44.883,1.133,1.732,2.055,2.522.705.587,1.566,1.077,2.541,1.443.857.322,1.772.469,2.957.474,1.079-.005,1.977-.157,2.825-.474l.152-.048c.835-.209,1.644-.635,2.403-1.267.904-.776,1.597-1.625,2.039-2.51.456-.912.697-1.962.697-3.036h-.001Z" fill="#ccc" stroke="#ccc" stroke-miterlimit="10" stroke-width="1.5"/>
    </g>
    <g>
      <rect x="982.874" y="603.639" width="175.8" height="52.826" fill="none"/>
      <path d="M1014.708,632.479l8.149,13.497v.817h-2.111l-.507.306-8.622-14.277c-.062,0-.127.004-.188.004h-7.902v13.968h-2.822v-34.426h10.582c1.628,0,3.239.336,4.666.968,1.53.682,2.776,1.516,3.81,2.55.838.837,1.458,1.923,2.06,2.973l.074.149c.56,1.307.82,2.47.82,3.66,0,1.236-.283,2.55-.82,3.801-.472,1.101-1.251,2.239-2.134,3.122-.816.815-2.135,1.903-3.796,2.458-.416.187-.837.323-1.259.432h0ZM1003.527,615.189v14.814h7.902c1.586,0,2.571-.165,3.518-.584,1.016-.346,1.971-.975,2.82-1.824.629-.631,1.204-1.469,1.536-2.24.387-.901.591-1.831.591-2.688,0-.788-.173-1.554-.56-2.476-.52-.908-1.009-1.755-1.566-2.312-.797-.797-1.738-1.423-2.961-1.967-1.066-.473-2.283-.725-3.52-.725h-7.761Z" fill="#ccc" stroke="#ccc" stroke-miterlimit="10" stroke-width="1.5"/>
      <path d="M1050.288,617.056c.651,1.301.996,2.788.996,4.3v15.378c0,1.512-.345,3-.996,4.301-.61,1.222-1.532,2.366-2.742,3.403-1.079.898-2.238,1.511-3.461,1.829-1.114.406-2.314.612-3.665.625h-.141c-1.509-.011-2.711-.214-3.882-.652-1.272-.479-2.405-1.128-3.37-1.932-1.226-1.049-2.147-2.194-2.759-3.416-.651-1.301-.996-2.788-.996-4.298v-15.378c0-1.51.346-2.997.996-4.3.611-1.222,1.533-2.367,2.743-3.402,1.079-.9,2.238-1.512,3.461-1.83,1.152-.421,2.398-.627,3.807-.627,1.511,0,2.863.219,4.021.653,1.273.478,2.406,1.128,3.372,1.932,1.074.919,1.925,2.033,2.616,3.414h0ZM1032.096,621.215v13.917l16.189-15.351c-.116-.514-.292-1.006-.521-1.463-.526-1.054-1.134-1.855-1.913-2.522-.705-.589-1.565-1.078-2.539-1.443-.828-.311-1.877-.475-3.032-.475-1.109,0-2.027.151-2.891.475l-.152.048c-.837.209-1.644.635-2.403,1.267-.907.777-1.599,1.627-2.04,2.511-.457.914-.698,1.964-.698,3.037ZM1048.463,636.736v-13.233l-16.033,15.203c.102.32.219.632.366.927.441.883,1.133,1.732,2.056,2.522.705.587,1.564,1.076,2.539,1.443.858.321,1.772.469,2.957.474,1.078-.005,1.977-.156,2.823-.474l.152-.048c.837-.209,1.644-.635,2.403-1.268.905-.777,1.597-1.626,2.038-2.51.457-.913.698-1.962.698-3.037Z" fill="#ccc" stroke="#ccc" stroke-miterlimit="10" stroke-width="1.5"/>
      <path d="M1072.685,643.605c0-1.637,1.264-2.963,2.821-2.963s2.822,1.326,2.822,2.963-1.264,2.963-2.822,2.963-2.821-1.326-2.821-2.963Z" fill="#ccc" stroke="#ccc" stroke-miterlimit="10" stroke-width="1.5"/>
      <path d="M1120.749,617.056c.651,1.301.996,2.788.996,4.3v15.378c0,1.512-.345,3-.996,4.301-.61,1.222-1.532,2.366-2.742,3.403-1.079.898-2.238,1.511-3.461,1.829-1.114.406-2.314.612-3.665.625h-.141c-1.509-.011-2.711-.214-3.882-.652-1.272-.479-2.405-1.128-3.37-1.932-1.226-1.049-2.147-2.194-2.759-3.416-.651-1.301-.996-2.788-.996-4.298v-15.378c0-1.51.346-2.997.996-4.3.611-1.222,1.533-2.367,2.743-3.402,1.079-.9,2.238-1.512,3.461-1.83,1.152-.421,2.398-.627,3.807-.627,1.511,0,2.863.219,4.021.653,1.273.478,2.406,1.128,3.372,1.932,1.074.919,1.925,2.033,2.616,3.414h0ZM1102.557,621.215v13.917l16.189-15.351c-.116-.514-.292-1.006-.521-1.463-.526-1.054-1.134-1.855-1.913-2.522-.705-.589-1.565-1.078-2.539-1.443-.828-.311-1.877-.475-3.032-.475-1.109,0-2.027.151-2.891.475l-.152.048c-.837.209-1.644.635-2.403,1.267-.907.777-1.599,1.627-2.04,2.511-.457.914-.698,1.964-.698,3.037ZM1118.924,636.736v-13.233l-16.033,15.203c.102.32.219.632.366.927.441.883,1.133,1.732,2.056,2.522.705.587,1.564,1.076,2.539,1.443.858.321,1.772.469,2.957.474,1.078-.005,1.977-.156,2.823-.474l.152-.048c.837-.209,1.644-.635,2.403-1.268.905-.777,1.597-1.626,2.038-2.51.457-.913.698-1.962.698-3.037Z" fill="#ccc" stroke="#ccc" stroke-miterlimit="10" stroke-width="1.5"/>
      <path d="M1140.849,619.479c0,3.5-2.849,6.349-6.349,6.349s-6.349-2.849-6.349-6.349,2.849-6.35,6.349-6.35,6.349,2.849,6.349,6.35ZM1138.028,619.479c0-1.944-1.583-3.527-3.527-3.527s-3.527,1.583-3.527,3.527,1.583,3.526,3.527,3.526,3.527-1.582,3.527-3.526Z" fill="#ccc" stroke="#ccc" stroke-miterlimit="10" stroke-width="1.5"/>
    </g>
    <g>
      <rect x="434.151" y="675.822" width="48.49" height="58.293" fill="none"/>
      <path d="M460.698,722.415h6.765l-8.859,12.077-9.257-12.077h7.09v-11.934h-7.18l9.347-11.789,8.944,11.789h-6.85v11.934Z" fill="#ccc" stroke="#ccc" stroke-miterlimit="10"/>
    </g>
    <g>
      <rect x="714.366" y="417.335" width="144.219" height="52.826" fill="none"/>
      <path d="M758.211,437.752v9.735c0,1.931-.328,3.771-.948,5.32-.588,1.624-1.505,3.079-2.708,4.283-.91,1.067-2.076,1.905-3.396,2.413-1.301.641-2.63.964-3.952.964h-11.005v-35.836h11.005c1.459,0,2.819.325,4.158.995,1.384.693,2.496,1.543,3.404,2.602.9.896,1.717,2.256,2.496,4.205.642,1.764.946,3.491.946,5.32ZM755.39,437.752c0-1.515-.243-2.887-.762-4.314-.617-1.539-1.234-2.599-1.931-3.294-.74-.858-1.542-1.466-2.596-1.994-.951-.475-1.871-.697-2.896-.697h-8.183v30.193h8.183c.903,0,1.83-.236,2.756-.698l.136-.06c.911-.34,1.691-.901,2.387-1.712.983-.991,1.679-2.098,2.144-3.374.496-1.243.762-2.76.762-4.314v-9.735Z" fill="#ccc" stroke="#ccc" stroke-miterlimit="10" stroke-width="1.5"/>
      <path d="M774.356,427.612v30.193h6.913v2.822h-16.648v-2.822h6.914v-30.193h-6.914v-2.822h16.648v2.822h-6.913Z" fill="#ccc" stroke="#ccc" stroke-miterlimit="10" stroke-width="1.5"/>
      <path d="M808.831,446.499c.612,1.213.907,2.407.907,3.547,0,3.039-1.115,5.535-3.315,7.419-2.056,1.899-4.656,2.88-7.689,2.88h-.282c-2.86,0-5.495-1.017-7.832-3.021-1.825-1.545-2.36-2.91-2.748-3.906-.059-.145-.111-.285-.17-.419l2.594-1.113c.069.161.135.329.204.504.326.834.663,1.696,1.951,2.785,1.845,1.583,3.806,2.348,6.002,2.348h.282c2.334,0,4.237-.708,5.814-2.166,1.63-1.397,2.369-3.073,2.369-5.312,0-.694-.198-1.473-.558-2.191-.309-.506-.758-1.175-1.354-1.573-.686-.542-1.566-1.049-2.453-1.429-.576-.247-1.224-.446-1.975-.676-.416-.128-.851-.262-1.302-.412l-4.149-1.105c-2.236-.687-3.849-1.721-4.981-3.177-1.229-1.579-1.852-3.436-1.852-5.522,0-2.581,1.071-4.794,3.181-6.581,2.005-1.851,4.28-2.733,7.12-2.733h.281c2.853.165,5.234,1.143,7.161,2.909,1.465,1.301,2.351,2.857,2.692,4.739l-2.778.502c-.229-1.271-.786-2.242-1.805-3.148-1.451-1.331-3.249-2.061-5.354-2.186l-.198.003c-2.115,0-3.736.625-5.252,2.025-1.514,1.284-2.228,2.731-2.228,4.467,0,1.445.424,2.719,1.256,3.79.776.998,1.899,1.696,3.534,2.2l4.182,1.114c.513.167.925.293,1.319.415.796.244,1.545.474,2.261.78,1.124.481,2.219,1.117,3.006,1.747.963.636,1.64,1.623,2.162,2.493h-.003Z" fill="#ccc" stroke="#ccc" stroke-miterlimit="10" stroke-width="1.5"/>
      <path d="M836.767,429.076h-8.889v31.462h-2.821v-31.462h-8.889v-2.822h20.599v2.822Z" fill="#ccc" stroke="#ccc" stroke-miterlimit="10" stroke-width="1.5"/>
    </g>
    <g>
      <rect x="1014.887" y="417.335" width="94.876" height="52.826" fill="none"/>
      <path d="M1027.124,427.593v11.569h10.159v2.822h-10.159v15.661h18.483v2.822h-21.305v-35.695h21.305v2.822h-18.483Z" fill="#ccc" stroke="#ccc" stroke-miterlimit="10" stroke-width="1.5"/>
      <path d="M1072.636,429.076h-8.889v31.462h-2.821v-31.462h-8.89v-2.822h20.6v2.822Z" fill="#ccc" stroke="#ccc" stroke-miterlimit="10" stroke-width="1.5"/>
      <path d="M1081.856,427.593v11.569h10.158v2.822h-10.158v15.661h18.482v2.822h-21.305v-35.695h21.305v2.822h-18.482Z" fill="#ccc" stroke="#ccc" stroke-miterlimit="10" stroke-width="1.5"/>
    </g>
    <g>
      <rect x="436.342" y="477.93" width="715.576" height="52.826" fill="none"/>
      <path d="M438.791,501.388c0-1.637,1.264-2.963,2.822-2.963s2.822,1.326,2.822,2.963-1.263,2.963-2.822,2.963-2.822-1.327-2.822-2.963ZM438.791,517.895c0-1.636,1.264-2.963,2.822-2.963s2.822,1.327,2.822,2.963-1.263,2.963-2.822,2.963-2.822-1.326-2.822-2.963Z" fill="#ccc" stroke="#ccc" stroke-miterlimit="10" stroke-width="1.5"/>
      <path d="M501.849,491.347c.652,1.301.996,2.787.996,4.299v15.379c0,1.511-.344,2.999-.996,4.3-.61,1.222-1.532,2.366-2.742,3.403-1.079.898-2.239,1.511-3.461,1.83-1.114.406-2.315.612-3.665.625h-.141c-1.508-.012-2.71-.215-3.881-.653-1.273-.479-2.406-1.128-3.371-1.932-1.225-1.049-2.147-2.194-2.758-3.416-.652-1.301-.996-2.788-.996-4.298v-15.378c0-1.51.346-2.997.996-4.299.611-1.223,1.533-2.368,2.743-3.403,1.079-.9,2.239-1.511,3.461-1.83,1.152-.42,2.398-.626,3.807-.626,1.511,0,2.864.219,4.022.653,1.273.477,2.406,1.127,3.372,1.931,1.074.919,1.925,2.033,2.616,3.415h0ZM483.657,495.505v13.917l16.189-15.351c-.117-.513-.292-1.006-.521-1.463-.526-1.054-1.134-1.855-1.913-2.522-.706-.588-1.566-1.078-2.54-1.443-.828-.311-1.876-.474-3.032-.474-1.109,0-2.027.15-2.891.474l-.152.048c-.837.209-1.644.635-2.403,1.268-.907.777-1.599,1.626-2.04,2.51-.457.914-.698,1.964-.698,3.037ZM500.024,511.026v-13.232l-16.033,15.202c.102.32.219.632.366.927.441.883,1.133,1.732,2.056,2.522.705.587,1.564,1.077,2.54,1.443.858.322,1.772.469,2.957.475,1.078-.006,1.977-.157,2.823-.475l.152-.048c.837-.209,1.644-.635,2.403-1.267.906-.777,1.597-1.627,2.039-2.51.457-.913.698-1.963.698-3.038Z" fill="#ccc" stroke="#ccc" stroke-miterlimit="10" stroke-width="1.5"/>
      <path d="M530.275,485.348v3.991l-14.532,30.05v.383h-2.822v-1.028l14.532-30.051v-.523h-18.201v-2.821h21.022Z" fill="#ccc" stroke="#ccc" stroke-miterlimit="10" stroke-width="1.5"/>
      <path d="M540.553,518.503h17.444v2.821h-21.304v-2.812l3.709-4.048c1.944-2.166,3.728-4.151,5.421-5.957.841-.841,1.683-1.824,2.497-2.775.851-.991,4.25-4.816,4.25-4.816.385-.388.603-.662.748-.843.086-.108.16-.195.22-.264.414-.526.761-1.192,1.006-1.929.233-.698.352-1.257.352-2.376,0-.961-.199-1.913-.591-2.83-.357-.946-.925-1.63-1.676-2.38-.856-.705-1.668-1.214-2.461-1.51-2.269-.851-3.796-.85-6.062,0-1.039.39-1.82.869-2.462,1.511-.741.741-1.336,1.586-1.676,2.381l-2.593-1.112c.485-1.133,1.273-2.262,2.274-3.264.926-.924,2.059-1.629,3.467-2.157,2.887-1.086,5.151-1.086,8.045,0,1.443.542,2.614,1.442,3.371,2.071.925.919,1.851,1.966,2.393,3.41.521,1.209.796,2.535.796,3.882,0,1.484-.19,2.351-.497,3.269-.354,1.064-.876,2.045-1.507,2.833l-.193.23c-.189.237-.473.591-.899,1.016.003,0-3.322,3.741-4.159,4.718-.849.99-1.727,2.015-2.613,2.901-1.649,1.759-3.419,3.73-5.349,5.879l-1.947,2.151h-.001Z" fill="#ccc" stroke="#ccc" stroke-miterlimit="10" stroke-width="1.5"/>
      <path d="M592.116,493.769c0,3.501-2.849,6.35-6.349,6.35s-6.349-2.849-6.349-6.35,2.849-6.35,6.349-6.35,6.349,2.849,6.349,6.35ZM589.294,493.769c0-1.944-1.583-3.527-3.527-3.527s-3.527,1.583-3.527,3.527,1.583,3.527,3.527,3.527,3.527-1.583,3.527-3.527Z" fill="#ccc" stroke="#ccc" stroke-miterlimit="10" stroke-width="1.5"/>
      <path d="M635.532,486.8v34.284h-2.822v-28.713l-6.648,11.924h-3.068l-6.65-11.924v28.713h-2.822v-34.284h2.945l8.06,14.452,8.061-14.452h2.945Z" fill="#ccc" stroke="#ccc" stroke-miterlimit="10" stroke-width="1.5"/>
      <path d="M677.959,496.45v1.856l-18.202,18.062v.398l-.416.015-.014-.015h-2.392v-1.575l18.202-18.06v-.682h2.822Z" fill="#ccc" stroke="#ccc" stroke-miterlimit="10" stroke-width="1.5"/>
      <path d="M703.229,518.503h17.444v2.821h-21.304v-2.812l3.709-4.048c1.944-2.166,3.728-4.151,5.421-5.957.841-.841,1.683-1.824,2.497-2.775.851-.991,4.25-4.816,4.25-4.816.385-.388.603-.662.748-.843.086-.108.16-.195.22-.264.414-.526.761-1.192,1.006-1.929.233-.698.352-1.257.352-2.376,0-.961-.199-1.913-.591-2.83-.357-.946-.925-1.63-1.676-2.38-.856-.705-1.668-1.214-2.461-1.51-2.269-.851-3.796-.85-6.062,0-1.039.39-1.82.869-2.462,1.511-.741.741-1.336,1.586-1.676,2.381l-2.593-1.112c.485-1.133,1.273-2.262,2.274-3.264.926-.924,2.059-1.629,3.467-2.157,2.887-1.086,5.151-1.086,8.045,0,1.443.542,2.614,1.442,3.371,2.071.925.919,1.851,1.966,2.393,3.41.521,1.209.796,2.535.796,3.882,0,1.484-.19,2.351-.497,3.269-.354,1.064-.876,2.045-1.507,2.833l-.193.23c-.189.237-.473.591-.899,1.016.003,0-3.322,3.741-4.159,4.718-.849.99-1.727,2.015-2.613,2.901-1.649,1.759-3.419,3.73-5.349,5.879l-1.947,2.151h-.001Z" fill="#ccc" stroke="#ccc" stroke-miterlimit="10" stroke-width="1.5"/>
      <path d="M748.118,491.347c.652,1.301.996,2.787.996,4.299v15.379c0,1.511-.344,2.999-.996,4.3-.609,1.222-1.532,2.366-2.741,3.403-1.079.898-2.239,1.511-3.461,1.83-1.114.406-2.315.612-3.665.625h-.142c-1.508-.012-2.71-.215-3.881-.653-1.273-.479-2.406-1.128-3.371-1.932-1.225-1.049-2.147-2.194-2.758-3.416-.652-1.301-.996-2.788-.996-4.298v-15.378c0-1.51.346-2.997.996-4.299.611-1.223,1.533-2.368,2.743-3.403,1.079-.9,2.239-1.511,3.461-1.83,1.152-.42,2.398-.626,3.807-.626,1.511,0,2.864.219,4.022.653,1.272.477,2.405,1.127,3.372,1.931,1.073.919,1.925,2.033,2.615,3.415h0ZM729.926,495.505v13.917l16.19-15.351c-.117-.513-.292-1.006-.521-1.463-.526-1.054-1.135-1.855-1.913-2.522-.706-.588-1.566-1.078-2.54-1.443-.828-.311-1.876-.474-3.032-.474-1.108,0-2.027.15-2.891.474l-.152.048c-.837.209-1.644.635-2.403,1.268-.907.777-1.599,1.626-2.04,2.51-.457.914-.698,1.964-.698,3.037ZM746.294,511.026v-13.232l-16.034,15.202c.102.32.219.632.366.927.441.883,1.133,1.732,2.056,2.522.705.587,1.564,1.077,2.54,1.443.857.322,1.771.469,2.957.475,1.078-.006,1.977-.157,2.823-.475l.152-.048c.837-.209,1.644-.635,2.402-1.267.906-.777,1.598-1.627,2.039-2.51.457-.913.698-1.963.698-3.038Z" fill="#ccc" stroke="#ccc" stroke-miterlimit="10" stroke-width="1.5"/>
      <path d="M755.522,517.895c0-1.636,1.264-2.963,2.821-2.963s2.822,1.327,2.822,2.963-1.264,2.963-2.822,2.963-2.821-1.326-2.821-2.963Z" fill="#ccc" stroke="#ccc" stroke-miterlimit="10" stroke-width="1.5"/>
      <path d="M788.601,504.464c.534,1.246.795,3.653.795,4.869,0,1.301,0,2.16-.612,4.456-.541,2.157-1.648,3.608-2.482,4.442-.933.932-2.714,2.121-4.182,2.487-1.384.466-3.645.466-4.857.466-1.434,0-3.918-.809-4.93-1.241-1.184-.508-3.406-2.007-4.756-3.206l1.875-2.109c1.181,1.05,3.183,2.373,3.992,2.722.932.399,2.991,1.015,3.818,1.015.979,0,3.017,0,4.068-.352.903-.229,2.245-1.045,2.976-1.776.582-.579,1.357-1.6,1.746-3.153.521-1.958.521-2.52.521-3.748,0-1.253-.286-3.11-.591-3.819-.348-.92-.77-1.62-1.48-2.474-.619-.743-1.295-1.275-2.011-1.581-.887-.381-1.827-.734-2.688-.734h-3.81v-3.072l8.384-9.484h-12.898v-2.821h15.943v3.636l-7.885,8.919h.266c1.375,0,2.693.485,3.801.961,1.127.484,2.16,1.281,3.067,2.369.919,1.101,1.495,2.067,1.932,3.229h-.002Z" fill="#ccc" stroke="#ccc" stroke-miterlimit="10" stroke-width="1.5"/>
      <path d="M813.984,505.387c.391,1.945.218,3.624.153,4.097v11.61h-2.821l.021-11.941c0-.01.229-1.489-.133-3.302-.227-1.67-.811-2.861-1.804-3.73-.737-.645-2.146-1.061-3.586-1.061-1.221,0-2.467.445-3.508,1.256-2.151,1.812-3.265,4.297-3.265,7.351v11.428h-2.821v-11.428c0-.086.011-.167.013-.251l-.152.004s-.143-5.812-.143-7.654c0-.928-.138-2.988-.138-3.009l2.814-.188c.006.088.145,2.174.145,3.196v.197c.517-.66,1.104-1.277,1.772-1.841,1.577-1.228,3.437-1.884,5.282-1.884,2.148,0,4.183.659,5.442,1.761,1.509,1.321,2.427,3.134,2.728,5.39h0Z" fill="#ccc" stroke="#ccc" stroke-miterlimit="10" stroke-width="1.5"/>
      <path d="M846.31,505.386c.297,2.242.153,4.039.147,4.113l.005,11.594h-2.822v-11.71c.006-.13.128-1.699-.129-3.624-.235-1.768-.67-2.972-1.365-3.782-.545-.635-1.558-.919-2.315-.919s-1.631.427-2.174,1.061c-1.649,1.886-2.481,4.421-2.481,7.547v11.428h-2.963v-11.71c.007-.13.128-1.699-.129-3.624-.235-1.768-.67-2.972-1.366-3.782-.544-.635-1.558-.919-2.314-.919s-1.631.427-2.175,1.061c-1.649,1.885-2.481,4.42-2.481,7.547v11.428h-2.821v-11.428c0-.097.01-.188.01-.282h-.151v-7.524c-.137-1.081-.141-2.979-.141-3.199h2.821c0,.44.015,1.521.07,2.321.181-.241.363-.482.562-.71,1.071-1.25,2.725-2.033,4.307-2.033,1.365,0,3.253.5,4.456,1.903.516.6.926,1.306,1.253,2.13.402-.715.872-1.383,1.411-2,1.073-1.25,2.726-2.033,4.308-2.033,1.366,0,3.254.5,4.457,1.903,1.066,1.246,1.709,2.912,2.021,5.247l.002-.002Z" fill="#ccc" stroke="#ccc" stroke-miterlimit="10" stroke-width="1.5"/>
      <path d="M978.905,491.347c.651,1.301.996,2.787.996,4.299v15.379c0,1.511-.345,2.999-.996,4.3-.609,1.222-1.532,2.366-2.741,3.403-1.08.898-2.239,1.511-3.461,1.83-1.115.406-2.315.612-3.666.625h-.141c-1.509-.012-2.711-.215-3.882-.653-1.272-.479-2.405-1.128-3.37-1.932-1.225-1.049-2.147-2.194-2.759-3.416-.651-1.301-.996-2.788-.996-4.298v-15.378c0-1.51.346-2.997.996-4.299.611-1.223,1.534-2.368,2.743-3.403,1.079-.9,2.239-1.511,3.461-1.83,1.152-.42,2.398-.626,3.807-.626,1.511,0,2.864.219,4.022.653,1.272.477,2.405,1.127,3.372,1.931,1.073.919,1.924,2.033,2.615,3.415h0ZM960.713,495.505v13.917l16.19-15.351c-.117-.513-.292-1.006-.521-1.463-.526-1.054-1.135-1.855-1.913-2.522-.706-.588-1.566-1.078-2.54-1.443-.828-.311-1.877-.474-3.032-.474-1.108,0-2.027.15-2.891.474l-.152.048c-.837.209-1.644.635-2.402,1.268-.907.777-1.599,1.626-2.041,2.51-.457.914-.698,1.964-.698,3.037ZM977.081,511.026v-13.232l-16.033,15.202c.102.32.219.632.365.927.441.883,1.133,1.732,2.056,2.522.705.587,1.564,1.077,2.539,1.443.858.322,1.772.469,2.958.475,1.077-.006,1.977-.157,2.822-.475l.153-.048c.836-.209,1.644-.635,2.402-1.267.905-.777,1.597-1.627,2.039-2.51.457-.913.698-1.963.698-3.038Z" fill="#ccc" stroke="#ccc" stroke-miterlimit="10" stroke-width="1.5"/>
      <path d="M1007.324,491.347c.651,1.301.996,2.787.996,4.299v15.379c0,1.511-.345,2.999-.996,4.3-.609,1.222-1.532,2.366-2.741,3.403-1.08.898-2.239,1.511-3.461,1.83-1.115.406-2.315.612-3.666.625h-.141c-1.509-.012-2.711-.215-3.882-.653-1.272-.479-2.405-1.128-3.37-1.932-1.225-1.049-2.147-2.194-2.759-3.416-.651-1.301-.996-2.788-.996-4.298v-15.378c0-1.51.346-2.997.996-4.299.611-1.223,1.534-2.368,2.743-3.403,1.079-.9,2.239-1.511,3.461-1.83,1.152-.42,2.398-.626,3.807-.626,1.511,0,2.864.219,4.022.653,1.272.477,2.405,1.127,3.372,1.931,1.073.919,1.924,2.033,2.615,3.415h0ZM989.132,495.505v13.917l16.19-15.351c-.117-.513-.292-1.006-.521-1.463-.526-1.054-1.135-1.855-1.913-2.522-.706-.588-1.566-1.078-2.54-1.443-.828-.311-1.877-.474-3.032-.474-1.108,0-2.027.15-2.891.474l-.152.048c-.837.209-1.644.635-2.403,1.268-.906.777-1.598,1.626-2.04,2.51-.457.914-.698,1.964-.698,3.037ZM1005.5,511.026v-13.232l-16.033,15.202c.102.32.219.632.365.927.441.883,1.133,1.732,2.056,2.522.705.587,1.564,1.077,2.539,1.443.858.322,1.772.469,2.958.475,1.077-.006,1.977-.157,2.823-.475l.152-.048c.836-.209,1.644-.635,2.402-1.267.905-.777,1.597-1.627,2.039-2.51.457-.913.698-1.963.698-3.038Z" fill="#ccc" stroke="#ccc" stroke-miterlimit="10" stroke-width="1.5"/>
      <path d="M1014.728,501.388c0-1.637,1.263-2.963,2.821-2.963s2.822,1.326,2.822,2.963-1.264,2.963-2.822,2.963-2.821-1.327-2.821-2.963ZM1014.728,517.895c0-1.636,1.263-2.963,2.821-2.963s2.822,1.327,2.822,2.963-1.264,2.963-2.822,2.963-2.821-1.326-2.821-2.963Z" fill="#ccc" stroke="#ccc" stroke-miterlimit="10" stroke-width="1.5"/>
      <path d="M1047.798,491.347c.651,1.301.996,2.787.996,4.299v15.379c0,1.511-.345,2.999-.996,4.3-.609,1.222-1.532,2.366-2.741,3.403-1.08.898-2.239,1.511-3.461,1.83-1.115.406-2.315.612-3.666.625h-.141c-1.509-.012-2.711-.215-3.882-.653-1.272-.479-2.405-1.128-3.37-1.932-1.225-1.049-2.147-2.194-2.759-3.416-.651-1.301-.996-2.788-.996-4.298v-15.378c0-1.51.346-2.997.996-4.299.611-1.223,1.534-2.368,2.743-3.403,1.079-.9,2.239-1.511,3.461-1.83,1.152-.42,2.398-.626,3.807-.626,1.511,0,2.864.219,4.022.653,1.272.477,2.405,1.127,3.372,1.931,1.073.919,1.924,2.033,2.615,3.415h0ZM1029.605,495.505v13.917l16.19-15.351c-.117-.513-.292-1.006-.521-1.463-.526-1.054-1.135-1.855-1.913-2.522-.706-.588-1.566-1.078-2.54-1.443-.828-.311-1.877-.474-3.032-.474-1.108,0-2.027.15-2.891.474l-.152.048c-.837.209-1.644.635-2.402,1.268-.907.777-1.599,1.626-2.041,2.51-.457.914-.698,1.964-.698,3.037ZM1045.974,511.026v-13.232l-16.033,15.202c.102.32.219.632.365.927.441.883,1.133,1.732,2.056,2.522.705.587,1.564,1.077,2.539,1.443.858.322,1.772.469,2.958.475,1.077-.006,1.977-.157,2.822-.475l.153-.048c.836-.209,1.644-.635,2.402-1.267.905-.777,1.597-1.627,2.039-2.51.457-.913.698-1.963.698-3.038Z" fill="#ccc" stroke="#ccc" stroke-miterlimit="10" stroke-width="1.5"/>
      <path d="M1059.062,518.503h17.444v2.821h-21.305v-2.812l3.71-4.048c1.943-2.166,3.728-4.151,5.42-5.957.841-.841,1.684-1.824,2.497-2.775.852-.991,4.25-4.816,4.25-4.816.385-.388.603-.662.748-.843.086-.108.159-.195.22-.264.413-.526.761-1.192,1.006-1.929.233-.698.352-1.257.352-2.376,0-.961-.199-1.913-.591-2.83-.357-.946-.926-1.63-1.677-2.38-.856-.705-1.667-1.214-2.46-1.51-2.27-.851-3.797-.85-6.062,0-1.039.39-1.82.869-2.463,1.511-.74.741-1.336,1.586-1.676,2.381l-2.593-1.112c.485-1.133,1.272-2.262,2.274-3.264.925-.924,2.059-1.629,3.466-2.157,2.887-1.086,5.151-1.086,8.045,0,1.443.542,2.614,1.442,3.371,2.071.926.919,1.851,1.966,2.393,3.41.521,1.209.796,2.535.796,3.882,0,1.484-.19,2.351-.497,3.269-.354,1.064-.876,2.045-1.507,2.833l-.193.23c-.188.237-.473.591-.898,1.016.003,0-3.322,3.741-4.159,4.718-.85.99-1.727,2.015-2.613,2.901-1.649,1.759-3.418,3.73-5.349,5.879l-1.946,2.151h-.002Z" fill="#ccc" stroke="#ccc" stroke-miterlimit="10" stroke-width="1.5"/>
      <path d="M1082.935,501.388c0-1.637,1.263-2.963,2.821-2.963s2.822,1.326,2.822,2.963-1.264,2.963-2.822,2.963-2.821-1.327-2.821-2.963ZM1082.935,517.895c0-1.636,1.263-2.963,2.821-2.963s2.822,1.327,2.822,2.963-1.264,2.963-2.822,2.963-2.821-1.326-2.821-2.963Z" fill="#ccc" stroke="#ccc" stroke-miterlimit="10" stroke-width="1.5"/>
      <path d="M1115.757,500.735c.536,1.253.819,2.567.819,3.803v6.913c0,1.235-.283,2.549-.819,3.801-.522,1.221-1.386,2.39-2.367,3.208-.757.631-1.929,1.529-3.371,2.071-1.449.543-2.729.796-4.023.796-1.475,0-3.318-.318-4.587-.794-1.408-.529-2.541-1.234-3.466-2.159-.889-.732-1.75-1.901-2.273-3.122-.316-.627-.487-1.307-.637-1.906l-.042-.343v-1.27h2.821v1.096c.114.455.226.855.415,1.235.388.901.965,1.686,1.617,2.229.736.729,1.518,1.208,2.555,1.598.951.355,2.465.615,3.597.615.959,0,1.895-.19,3.031-.617.792-.298,1.604-.804,2.556-1.597.65-.543,1.228-1.329,1.581-2.153.387-.903.592-1.833.592-2.689v-6.913c0-.856-.205-1.786-.592-2.69-.353-.824-.93-1.608-1.581-2.151-.736-.727-1.519-1.208-2.556-1.596l-.432-.167c-.788-.309-1.149-.45-2.6-.45-1.77,0-3.188.379-4.463,1.191-.952.595-1.795,1.438-2.383,2.379l-.415.663h-3.744v-16.366h21.304v2.821h-18.482v9.983c.646-.723,1.395-1.354,2.215-1.868,1.715-1.092,3.672-1.625,5.969-1.625,1.886,0,2.607.244,3.627.644l.396.152c1.407.527,2.541,1.232,3.465,2.157.888.732,1.751,1.9,2.274,3.121h0Z" fill="#ccc" stroke="#ccc" stroke-miterlimit="10" stroke-width="1.5"/>
      <path d="M1126.877,518.503h17.444v2.821h-21.305v-2.812l3.71-4.048c1.943-2.166,3.728-4.151,5.42-5.957.841-.841,1.684-1.824,2.497-2.775.852-.991,4.25-4.816,4.25-4.816.385-.388.603-.662.748-.843.086-.108.159-.195.22-.264.413-.526.761-1.192,1.006-1.929.233-.698.352-1.257.352-2.376,0-.961-.199-1.913-.591-2.83-.357-.946-.926-1.63-1.677-2.38-.856-.705-1.667-1.214-2.46-1.51-2.27-.851-3.797-.85-6.062,0-1.039.39-1.82.869-2.463,1.511-.74.741-1.336,1.586-1.676,2.381l-2.593-1.112c.485-1.133,1.272-2.262,2.274-3.264.925-.924,2.059-1.629,3.466-2.157,2.887-1.086,5.151-1.086,8.045,0,1.443.542,2.614,1.442,3.371,2.071.926.919,1.851,1.966,2.393,3.41.521,1.209.796,2.535.796,3.882,0,1.484-.19,2.351-.497,3.269-.354,1.064-.876,2.045-1.507,2.833l-.193.23c-.188.237-.473.591-.898,1.016.003,0-3.322,3.741-4.159,4.718-.85.99-1.727,2.015-2.613,2.901-1.649,1.759-3.418,3.73-5.349,5.879l-1.946,2.151h-.002Z" fill="#ccc" stroke="#ccc" stroke-miterlimit="10" stroke-width="1.5"/>
    </g>
  </g>
  <g id="Progress_1_x2F_3_Arrows_-_Dark">
    <path d="M446.551,229.907l-66.795-36.941-3.526,12.529L110.262,120.746c1.365-4.467,2.176-9.18,2.321-14.069.878-29.571-22.466-54.343-52.037-55.22S6.203,73.922,5.326,103.493s22.466,54.342,52.037,55.22c21.535.639,40.512-11.574,49.582-29.676l266.874,85.025-3.526,12.529,76.257,3.316ZM57.6,150.717c-25.202-.748-45.026-21.785-44.278-46.986.748-25.202,21.785-45.026,46.986-44.278,25.202.748,45.026,21.785,44.278,46.986-.748,25.202-21.785,45.026-46.986,44.278Z" fill="#ccc" stroke="#0d121e" stroke-miterlimit="10" stroke-width="2"/>
    <path d="M1206.261,235.826l-3.953-12.4,272.779-100.244c9.685,17.781,29.07,29.336,50.57,27.96,29.524-1.891,52.005-27.448,50.114-56.971-1.891-29.524-27.448-52.005-56.971-50.114-29.523,1.89-52.004,27.448-50.114,56.971.313,4.881,1.284,9.564,2.802,13.981l-271.883,99.938-3.953-12.4-65.49,39.208,76.099-5.927ZM1476.669,100.516c-1.611-25.161,17.48-46.865,42.642-48.476,25.161-1.611,46.865,17.48,48.476,42.642,1.611,25.161-17.48,46.865-42.642,48.476-25.161,1.611-46.865-17.48-48.476-42.642Z" fill="#ccc" stroke="#0d121e" stroke-miterlimit="10" stroke-width="2"/>
    <path d="M514.913,444.767l-74.304-17.465v13.015l-327.702-14.479c-2.271-27.508-25.369-49.202-53.453-49.202-29.584,0-53.652,24.068-53.652,53.652s24.068,53.652,53.652,53.652c28.084,0,51.181-21.694,53.453-49.202l327.702,14.479v13.015l74.304-17.465ZM59.453,475.94c-25.213,0-45.652-20.439-45.652-45.652s20.439-45.652,45.652-45.652,45.652,20.439,45.652,45.652-20.439,45.652-45.652,45.652Z" fill="#ccc" stroke="#0d121e" stroke-miterlimit="10" stroke-width="2"/>
    <path d="M1203.652,662.478l1.469-12.932,263.808,34.905c-.882,28.689,21.322,53.674,50.93,55.2,27.269,1.406,51.528-18.361,55.7-45.346,4.676-30.248-16.838-58.128-46.96-61.55-27.904-3.17-53.303,15.778-58.666,42.853l-263.808-34.905,1.469-12.932-75.801,8.965,71.858,25.742ZM1477.182,680.91c2.846-25.052,25.462-43.053,50.514-40.207,25.052,2.846,43.053,25.462,40.207,50.514-2.846,25.052-25.462,43.053-50.514,40.207-25.052-2.846-43.053-25.462-40.207-50.514Z" fill="#ccc" stroke="#0d121e" stroke-miterlimit="10" stroke-width="2"/>
    <path d="M437.812,364.277l-67.862-34.943-3.152,12.628-255.668-69.654c1.232-4.506,1.902-9.241,1.902-14.132,0-29.584-24.068-53.652-53.652-53.652s-53.652,24.068-53.652,53.652,24.068,53.652,53.652,53.652c21.544,0,40.151-12.771,48.68-31.134l256.581,69.903-3.152,12.628,76.322,1.052ZM59.381,303.828c-25.213,0-45.652-20.439-45.652-45.652,0-25.213,20.439-45.652,45.652-45.652s45.652,20.439,45.652,45.652c0,25.213-20.439,45.652-45.652,45.652Z" fill="#ccc" stroke="#0d121e" stroke-miterlimit="10" stroke-width="2"/>
    <path d="M1233.391,482.087l-4.536-12.199,247.652-92.658c10.515,17.302,30.426,27.927,51.837,25.535,29.401-3.286,50.647-29.879,47.361-59.279-3.286-29.401-29.879-50.647-59.28-47.361-29.4,3.286-50.647,29.879-47.361,59.279.543,4.861,1.735,9.492,3.46,13.833l-246.772,92.309-4.536-12.199-63.561,42.264,75.733-9.523ZM1477.016,354.515c-2.8-25.057,15.242-47.64,40.299-50.44,25.057-2.8,47.64,15.242,50.44,40.299,2.8,25.057-15.242,47.64-40.299,50.44-25.057,2.8-47.64-15.242-50.44-40.299Z" fill="#ccc" stroke="#0d121e" stroke-miterlimit="10" stroke-width="2"/>
    <path d="M358.265,643.845l4.146,12.337-256.219,93.535c-9.96-17.628-29.523-28.88-50.999-27.168-29.49,2.35-51.571,28.255-49.221,57.745,2.35,29.49,28.255,51.571,57.745,49.221,29.49-2.35,51.57-28.255,49.22-57.745-.389-4.876-1.433-9.542-3.019-13.936l255.328-93.214,4.146,12.337,64.871-40.223-75.997,7.112ZM104.962,772.405c2.003,25.133-16.748,47.132-41.881,49.135-25.133,2.003-47.132-16.748-49.135-41.881-2.003-25.133,16.748-47.132,41.881-49.135s47.132,16.748,49.135,41.881Z" fill="#ccc" stroke="#0d121e" stroke-miterlimit="10" stroke-width="2"/>
    <path d="M361.49,508.116l3.152,12.628-256.581,69.903c-8.529-18.363-27.136-31.134-48.68-31.134-29.584,0-53.652,24.068-53.652,53.652s24.068,53.652,53.652,53.652,53.652-24.068,53.652-53.652c0-4.891-.67-9.626-1.902-14.132l255.668-69.654,3.152,12.628,67.862-34.943-76.322,1.052ZM105.033,613.165c0,25.213-20.439,45.652-45.652,45.652s-45.652-20.439-45.652-45.652c0-25.213,20.439-45.652,45.652-45.652s45.652,20.439,45.652,45.652Z" fill="#ccc" stroke="#0d121e" stroke-miterlimit="10" stroke-width="2"/>
    <path d="M67.699,124.93v4.607h-14.744v-4.607h5.068v-47.279l-3.601,2.981-2.938-3.55,7.319-6.057h3.827v53.905h5.068Z" fill="#ff8500" stroke="#ff8500" stroke-miterlimit="10"/>
    <path d="M47.663,277.906h28.483v4.607h-34.786v-4.591l6.056-6.609c3.175-3.536,6.086-6.778,8.851-9.727,1.373-1.373,2.749-2.979,4.078-4.531,1.389-1.62,6.939-7.865,6.939-7.865.629-.634.983-1.081,1.221-1.375.141-.177.26-.32.359-.431.675-.859,1.242-1.947,1.643-3.149.38-1.14.574-2.053.574-3.879,0-1.569-.325-3.124-.965-4.621-.583-1.546-1.511-2.661-2.737-3.887-1.398-1.152-2.723-1.981-4.018-2.465-3.705-1.389-6.199-1.387-9.899,0-1.695.636-2.972,1.419-4.02,2.467-1.209,1.209-2.182,2.589-2.737,3.886l-4.234-1.815c.792-1.85,2.078-3.693,3.713-5.329,1.511-1.509,3.361-2.661,5.66-3.522,4.713-1.774,8.411-1.774,13.136,0,2.356.885,4.269,2.354,5.503,3.382,1.511,1.5,3.022,3.209,3.907,5.568.85,1.975,1.299,4.14,1.299,6.338,0,2.423-.311,3.838-.811,5.337-.578,1.737-1.431,3.338-2.46,4.626l-.315.375c-.309.387-.772.965-1.468,1.659.005,0-5.425,6.109-6.791,7.704-1.387,1.617-2.82,3.29-4.267,4.737-2.693,2.873-5.582,6.091-8.733,9.6l-3.179,3.513-.002-.002Z" fill="#ff8500" stroke="#ff8500" stroke-miterlimit="10"/>
    <path d="M75.29,438.855c.871,2.034,1.297,5.965,1.297,7.95,0,2.124,0,3.527-1,7.275-.882,3.522-2.69,5.894-4.052,7.255-1.522,1.521-4.432,3.462-6.828,4.062-2.26.76-5.951.76-7.932.76-2.341,0-6.397-1.32-8.049-2.027-1.933-.829-5.561-3.275-7.766-5.233l3.062-3.444c1.928,1.714,5.197,3.875,6.52,4.443,1.521.652,4.884,1.657,6.234,1.657,1.599,0,4.925,0,6.644-.574,1.474-.375,3.665-1.707,4.858-2.9.949-.946,2.216-2.612,2.85-5.148.853-3.198.853-4.114.853-6.121,0-2.046-.468-5.077-.965-6.236-.567-1.502-1.255-2.645-2.417-4.038-1.011-1.215-2.115-2.083-3.283-2.583-1.449-.622-2.983-1.198-4.391-1.198h-6.22v-5.017l13.689-15.486h-21.061v-4.607h26.032v5.937l-12.873,14.564h.433c2.246,0,4.398.793,6.206,1.569,1.841.79,3.527,2.092,5.008,3.867,1.5,1.797,2.442,3.375,3.154,5.273l-.002.002Z" fill="#ff8500" stroke="#ff8500" stroke-miterlimit="10"/>
    <path d="M1537.876,324.662v6.517l-23.729,49.067v.624h-4.607v-1.679l23.729-49.067v-.854h-29.719v-4.607h34.326Z" fill="#ff8500" stroke="#ff8500" stroke-miterlimit="10"/>
    <path d="M1539.13,698.781c0,9.146-8.268,16.587-18.43,16.587s-18.43-7.44-18.43-16.587c0-6.181,3.782-11.573,9.369-14.426-4.527-2.677-7.526-7.289-7.526-12.527,0-8.257,7.441-14.975,16.587-14.975s16.587,6.718,16.587,14.975c0,5.238-3.002,9.851-7.526,12.527,5.587,2.853,9.369,8.245,9.369,14.426ZM1534.522,698.781c0-6.604-6.199-11.979-13.822-11.979s-13.822,5.374-13.822,11.979,6.199,11.979,13.822,11.979,13.822-5.374,13.822-11.979ZM1520.7,682.197c6.604,0,11.979-4.651,11.979-10.367s-5.375-10.366-11.979-10.366-11.979,4.651-11.979,10.366,5.375,10.367,11.979,10.367Z" fill="#ff8500" stroke="#ff8500" stroke-miterlimit="10"/>
    <path d="M1536.735,100.717c1.283,2.244,1.456,4.4,1.456,6.211v2.073c0,1.949-.426,3.847-1.339,5.976l-.117.235c-1.053,1.845-2.394,3.451-3.98,4.773-1.451,1.209-3.38,2.269-5.734,3.151-1.917.719-4.14,1.069-6.798,1.069-2.276,0-4.492-.477-6.55-.991l-.249-.078c-2.354-.882-4.285-1.944-5.733-3.151-1.588-1.323-2.926-2.931-3.981-4.773-1.283-2.244-1.456-4.398-1.456-6.211-.016-.32-.451-10.42,1.205-17.999,2.214-9.581,12.629-20.001,19.301-23.851l2.302,3.99c-5.919,3.414-15.29,13.007-17.105,20.87-.302,1.377-.525,2.868-.693,4.372.392-.343.804-.672,1.234-.988,1.217-.974,3.571-2.32,5.568-2.891,2.007-.576,10.556-.613,12.959.288,2.352.882,4.282,1.944,5.733,3.154,1.587,1.322,2.928,2.93,3.981,4.773l-.003-.002ZM1533.589,109.006v-2.073c0-1.755-.237-2.856-.848-3.925-.779-1.364-1.765-2.55-2.931-3.52-1.039-.866-2.562-1.689-4.402-2.377-1.351-.479-8.733-.525-10.081-.173-1.325.38-3.124,1.396-4.027,2.117-2.765,2.029-4.435,4.762-4.435,7.185h-.058c.01,1.606.056,2.631.056,2.661.002,1.862.239,2.96.85,4.029.781,1.364,1.768,2.55,2.931,3.52,1.012.846,2.49,1.649,4.28,2.332,1.732.431,3.568.82,5.301.82,2.097,0,3.79-.253,5.182-.774,1.843-.693,3.365-1.513,4.402-2.377,1.133-.942,2.096-2.089,2.865-3.407.629-1.5.912-2.748.912-4.036h.003Z" fill="#ff8500" stroke="#ff8500" stroke-miterlimit="10"/>
    <path d="M69.926,622.178h6.22v4.607h-6.22v11.519h-4.607v-11.519h-23.959v-5.015l23.805-39.677h4.759v40.083l.002.002ZM65.316,590.793l-18.831,31.384h18.831v-31.384Z" fill="#ff8500" stroke="#ff8500" stroke-miterlimit="10"/>
    <path d="M75.028,769.895c.875,2.046,1.338,4.193,1.338,6.209v11.288c0,2.018-.463,4.163-1.338,6.206-.853,1.993-2.262,3.902-3.866,5.238-1.235,1.03-3.149,2.498-5.503,3.382-2.366.888-4.456,1.3-6.57,1.3-2.408,0-5.418-.521-7.489-1.297-2.299-.864-4.149-2.016-5.658-3.524-1.451-1.196-2.859-3.105-3.713-5.099-.516-1.022-.795-2.133-1.039-3.112l-.069-.56v-2.073h4.607v1.79c.187.741.369,1.396.677,2.016.634,1.472,1.576,2.753,2.64,3.64,1.203,1.188,2.479,1.972,4.172,2.607,1.553.581,4.024,1.005,5.872,1.005,1.566,0,3.094-.312,4.951-1.007,1.292-.486,2.619-1.313,4.172-2.607,1.062-.888,2.004-2.171,2.583-3.516.631-1.475.965-2.993.965-4.392v-11.288c0-1.398-.334-2.916-.965-4.393-.576-1.346-1.518-2.627-2.583-3.514-1.203-1.187-2.479-1.972-4.172-2.605l-.705-.271c-1.288-.505-1.877-.735-4.246-.735-2.889,0-5.204.617-7.287,1.944-1.555.973-2.931,2.348-3.891,3.885l-.677,1.082h-6.114v-26.723h34.786v4.607h-30.179v16.301c1.055-1.18,2.276-2.212,3.617-3.05,2.799-1.783,5.994-2.654,9.745-2.654,3.08,0,4.257.398,5.923,1.051l.645.249c2.299.861,4.149,2.013,5.658,3.522,1.449,1.195,2.859,3.103,3.714,5.096v.002Z" fill="#ff8500" stroke="#ff8500" stroke-miterlimit="10"/>
  </g>
</svg>