<?xml version="1.0" encoding="UTF-8"?>
<svg xmlns="http://www.w3.org/2000/svg" width="1763.564" height="2045.511" viewBox="0 0 1763.564 2045.511">
  <g id="b" data-name="HSD_-_Dark">
    <path d="M812.694,35.772l-118.957,4.342-118.956,7.236-192.957,18.266c-24.227,2.293-48.382,5.198-72.437,8.712l-54.714,7.991c-56.35,8.23-95.718,40.523-110.854,100.517l-11.733,57.706-10.435,60.056-29.739,188.851-21.13,193.192-11.739,183.786-2.112,139.904-.236-.256.12,7.959-.12,7.959.236-.256,2.112,139.904,11.739,183.786,21.13,193.192,29.739,188.851,10.435,60.056,11.733,57.706c15.136,59.994,54.504,92.287,110.854,100.517l54.714,7.991c24.055,3.513,48.21,6.418,72.437,8.712l192.957,18.266,118.956,7.236,118.957,4.341h65.739l10.174-.342,10.174.342h65.739l118.957-4.341,118.956-7.236,192.957-18.266c24.227-2.293,48.382-5.198,72.437-8.712l54.714-7.991c56.35-8.23,95.718-40.523,110.854-100.517l11.733-57.706,10.435-60.056,29.739-188.851,21.13-193.192,11.739-183.786,2.111-139.904.236.256-.12-7.959.12-7.959-.236.256-2.111-139.904-11.739-183.786-21.13-193.192-29.739-188.851-10.435-60.056-11.733-57.706c-15.136-59.994-54.504-92.287-110.854-100.517l-54.714-7.991c-24.055-3.513-48.21-6.418-72.437-8.712l-192.957-18.266-118.956-7.236-118.957-4.342h-65.739l-10.174.342-10.174-.342h-65.739Z" fill="none" stroke="#ccc" stroke-miterlimit="10" stroke-width="9"/>
  </g>
  <g id="c" data-name="NAV_DEST_Steering_-_Dark">
    <line x1="1128.799" y1="562.735" x2="1136.861" y2="541.959" fill="none" stroke="#ccc" stroke-linecap="round" stroke-miterlimit="10" stroke-width="6"/>
    <line x1="1151.528" y1="509.411" x2="1159.59" y2="488.634" fill="none" stroke="#ccc" stroke-linecap="round" stroke-miterlimit="10" stroke-width="6"/>
    <line x1="1181.694" y1="562.859" x2="1211.042" y2="506.902" fill="none" stroke="#ccc" stroke-linecap="round" stroke-miterlimit="10" stroke-width="6"/>
    <line x1="1211.825" y1="606.293" x2="1258.39" y2="533.902" fill="none" stroke="#ccc" stroke-linecap="round" stroke-miterlimit="10" stroke-width="6"/>
    <line x1="1264.651" y1="615.685" x2="1303.39" y2="565.598" fill="none" stroke="#ccc" stroke-linecap="round" stroke-miterlimit="10" stroke-width="6"/>
    <line x1="1286.173" y1="663.815" x2="1344.477" y2="601.207" fill="none" stroke="#ccc" stroke-linecap="round" stroke-miterlimit="10" stroke-width="6"/>
    <line x1="1336.651" y1="682.598" x2="1383.216" y2="639.163" fill="none" stroke="#ccc" stroke-linecap="round" stroke-miterlimit="10" stroke-width="6"/>
    <path d="M1402.328,693.515c8.722-6.598,14.931-11.308,14.931-11.308" fill="none" stroke="#ccc" stroke-linecap="round" stroke-miterlimit="10" stroke-width="6"/>
    <path d="M1347.216,734.641c.606-.242,7.551-5.361,16.852-12.313" fill="none" stroke="#ccc" stroke-linecap="round" stroke-miterlimit="10" stroke-width="6"/>
    <line x1="1394.173" y1="760.076" x2="1447.39" y2="725.641" fill="none" stroke="#ccc" stroke-linecap="round" stroke-miterlimit="10" stroke-width="6"/>
    <line x1="1398.086" y1="812.511" x2="1473.216" y2="773.38" fill="none" stroke="#ccc" stroke-linecap="round" stroke-miterlimit="10" stroke-width="6"/>
    <line x1="1437.999" y1="846.554" x2="1495.129" y2="822.685" fill="none" stroke="#ccc" stroke-linecap="round" stroke-miterlimit="10" stroke-width="6"/>
    <line x1="1432.912" y1="899.772" x2="1512.738" y2="873.163" fill="none" stroke="#ccc" stroke-linecap="round" stroke-miterlimit="10" stroke-width="6"/>
    <line x1="1466.173" y1="938.902" x2="1526.825" y2="924.424" fill="none" stroke="#ccc" stroke-linecap="round" stroke-miterlimit="10" stroke-width="6"/>
    <line x1="1515.917" y1="980.346" x2="1534.26" y2="977.641" fill="none" stroke="#ccc" stroke-linecap="round" stroke-miterlimit="10" stroke-width="6"/>
    <line x1="1449.346" y1="990.163" x2="1468.508" y2="987.337" fill="none" stroke="#ccc" stroke-linecap="round" stroke-miterlimit="10" stroke-width="6"/>
    <line x1="1537.912" y1="1030.467" x2="1476.086" y2="1033.076" fill="none" stroke="#ccc" stroke-linecap="round" stroke-miterlimit="10" stroke-width="6"/>
    <line x1="1535.564" y1="1082.641" x2="1453.129" y2="1080.815" fill="none" stroke="#ccc" stroke-linecap="round" stroke-miterlimit="10" stroke-width="6"/>
    <path d="M1531.129,1135.859c-1.043,0-60.261-6.783-60.261-6.783" fill="none" stroke="#ccc" stroke-linecap="round" stroke-miterlimit="10" stroke-width="6"/>
    <line x1="1520.433" y1="1188.293" x2="1439.042" y2="1171.076" fill="none" stroke="#ccc" stroke-linecap="round" stroke-miterlimit="10" stroke-width="6"/>
    <path d="M1504.52,1239.163c-.783,0-57.913-18.261-57.913-18.261" fill="none" stroke="#ccc" stroke-linecap="round" stroke-miterlimit="10" stroke-width="6"/>
    <line x1="1090.52" y1="524.12" x2="1110.086" y2="465.033" fill="none" stroke="#ccc" stroke-linecap="round" stroke-miterlimit="10" stroke-width="6"/>
    <path d="M1038.086,533.902c1.174-2.348,18.391-82.957,18.391-82.957" fill="none" stroke="#ccc" stroke-linecap="round" stroke-miterlimit="10" stroke-width="6"/>
    <path d="M993.868,502.598c.783-1.957,8.609-61.435,8.609-61.435" fill="none" stroke="#ccc" stroke-linecap="round" stroke-miterlimit="10" stroke-width="6"/>
    <path d="M943.781,522.554c-.391-1.565,2.739-86.87,2.739-86.87" fill="none" stroke="#ccc" stroke-linecap="round" stroke-miterlimit="10" stroke-width="6"/>
    <line x1="703.45" y1="546.29" x2="677.991" y2="488.461" fill="none" stroke="#ccc" stroke-linecap="round" stroke-miterlimit="10" stroke-width="6"/>
    <line x1="670.424" y1="587.567" x2="628.91" y2="512.165" fill="none" stroke="#ccc" stroke-linecap="round" stroke-miterlimit="10" stroke-width="6"/>
    <line x1="617.08" y1="593.329" x2="581.851" y2="540.714" fill="none" stroke="#ccc" stroke-linecap="round" stroke-miterlimit="10" stroke-width="6"/>
    <line x1="547.213" y1="584.263" x2="538.429" y2="573.434" fill="none" stroke="#ccc" stroke-linecap="round" stroke-miterlimit="10" stroke-width="6"/>
    <line x1="592.323" y1="639.878" x2="579.449" y2="624.006" fill="none" stroke="#ccc" stroke-linecap="round" stroke-miterlimit="10" stroke-width="6"/>
    <line x1="540.68" y1="655.17" x2="497.189" y2="608.657" fill="none" stroke="#ccc" stroke-linecap="round" stroke-miterlimit="10" stroke-width="6"/>
    <line x1="474.48" y1="727.366" x2="423.738" y2="689.378" fill="none" stroke="#ccc" stroke-linecap="round" stroke-miterlimit="10" stroke-width="6"/>
    <line x1="467.388" y1="780.194" x2="395.104" y2="736.025" fill="none" stroke="#ccc" stroke-linecap="round" stroke-miterlimit="10" stroke-width="6"/>
    <line x1="424.07" y1="811.042" x2="368.702" y2="783.327" fill="none" stroke="#ccc" stroke-linecap="round" stroke-miterlimit="10" stroke-width="6"/>
    <line x1="364.143" y1="838.264" x2="351.992" y2="833.268" fill="none" stroke="#ccc" stroke-linecap="round" stroke-miterlimit="10" stroke-width="6"/>
    <line x1="429.815" y1="865.265" x2="410.286" y2="857.235" fill="none" stroke="#ccc" stroke-linecap="round" stroke-miterlimit="10" stroke-width="6"/>
    <line x1="390.439" y1="901.642" x2="330.917" y2="883.056" fill="none" stroke="#ccc" stroke-linecap="round" stroke-miterlimit="10" stroke-width="6"/>
    <line x1="310.659" y1="988.878" x2="372.162" y2="995.702" fill="none" stroke="#ccc" stroke-linecap="round" stroke-miterlimit="10" stroke-width="6"/>
    <line x1="308.265" y1="1041.481" x2="390.632" y2="1045.288" fill="none" stroke="#ccc" stroke-linecap="round" stroke-miterlimit="10" stroke-width="6"/>
    <path d="M309.056,1094.877c1.041.071,60.583-2.652,60.583-2.652" fill="none" stroke="#ccc" stroke-linecap="round" stroke-miterlimit="10" stroke-width="6"/>
    <line x1="384.125" y1="1138.487" x2="405.175" y2="1135.517" fill="none" stroke="#ccc" stroke-linecap="round" stroke-miterlimit="10" stroke-width="6"/>
    <line x1="315.755" y1="1148.311" x2="332.131" y2="1146.001" fill="none" stroke="#ccc" stroke-linecap="round" stroke-miterlimit="10" stroke-width="6"/>
    <path d="M327.766,1200.149c.781.053,59.025-14.264,59.025-14.264" fill="none" stroke="#ccc" stroke-linecap="round" stroke-miterlimit="10" stroke-width="6"/>
    <line x1="797.056" y1="513.867" x2="781.571" y2="453.582" fill="none" stroke="#ccc" stroke-linecap="round" stroke-miterlimit="10" stroke-width="6"/>
    <path d="M837.862,456.015c-1.113-7.71-1.845-12.827-1.845-12.827" fill="none" stroke="#ccc" stroke-linecap="round" stroke-miterlimit="10" stroke-width="6"/>
    <path d="M848.701,527.207c-.297-.712-1.515-8.261-3.087-18.568" fill="none" stroke="#ccc" stroke-linecap="round" stroke-miterlimit="10" stroke-width="6"/>
    <path d="M894.952,498.994c-.647-2.005-4.394-61.879-4.394-61.879" fill="none" stroke="#ccc" stroke-linecap="round" stroke-miterlimit="10" stroke-width="6"/>
    <path d="M943.56,522.324c.497-1.535,3.198-86.854,3.198-86.854" fill="none" stroke="#ccc" stroke-linecap="round" stroke-miterlimit="10" stroke-width="6"/>
    <line x1="455.042" y1="645.033" x2="519.999" y2="702.163" fill="none" stroke="#ccc" stroke-linecap="round" stroke-miterlimit="10" stroke-width="6"/>
    <line x1="312.999" y1="933.815" x2="396.738" y2="951.424" fill="none" stroke="#ccc" stroke-linecap="round" stroke-miterlimit="10" stroke-width="6"/>
    <line x1="728.433" y1="466.728" x2="756.086" y2="548.12" fill="none" stroke="#ccc" stroke-linecap="round" stroke-miterlimit="10" stroke-width="6"/>
    <line x1="338.694" y1="1250.902" x2="416.955" y2="1225.859" fill="none" stroke="#ccc" stroke-linecap="round" stroke-miterlimit="10" stroke-width="6"/>
    <line x1="359.042" y1="1299.946" x2="413.303" y2="1276.989" fill="none" stroke="#ccc" stroke-linecap="round" stroke-miterlimit="10" stroke-width="6"/>
    <line x1="382.52" y1="1346.902" x2="454.52" y2="1308.815" fill="none" stroke="#ccc" stroke-linecap="round" stroke-miterlimit="10" stroke-width="6"/>
    <line x1="410.694" y1="1392.293" x2="461.303" y2="1359.424" fill="none" stroke="#ccc" stroke-linecap="round" stroke-miterlimit="10" stroke-width="6"/>
    <line x1="496.208" y1="1391.539" x2="508.26" y2="1382.38" fill="none" stroke="#ccc" stroke-linecap="round" stroke-miterlimit="10" stroke-width="6"/>
    <line x1="443.042" y1="1431.946" x2="455.504" y2="1422.475" fill="none" stroke="#ccc" stroke-linecap="round" stroke-miterlimit="10" stroke-width="6"/>
    <line x1="477.477" y1="1473.685" x2="521.303" y2="1432.467" fill="none" stroke="#ccc" stroke-linecap="round" stroke-miterlimit="10" stroke-width="6"/>
    <path d="M516.086,1509.163c1.565-1.565,54.783-60.522,54.783-60.522" fill="none" stroke="#ccc" stroke-linecap="round" stroke-miterlimit="10" stroke-width="6"/>
    <line x1="557.303" y1="1540.467" x2="592.781" y2="1494.033" fill="none" stroke="#ccc" stroke-linecap="round" stroke-miterlimit="10" stroke-width="6"/>
    <path d="M601.651,1569.163c1.565-2.087,43.304-67.304,43.304-67.304" fill="none" stroke="#ccc" stroke-linecap="round" stroke-miterlimit="10" stroke-width="6"/>
    <line x1="648.607" y1="1594.207" x2="674.173" y2="1543.076" fill="none" stroke="#ccc" stroke-linecap="round" stroke-miterlimit="10" stroke-width="6"/>
    <line x1="721.543" y1="1552.21" x2="819.738" y2="1311.946" fill="none" stroke="#ccc" stroke-linecap="round" stroke-miterlimit="10" stroke-width="6"/>
    <line x1="697.129" y1="1611.946" x2="701.605" y2="1600.995" fill="none" stroke="#ccc" stroke-linecap="round" stroke-miterlimit="10" stroke-width="6"/>
    <line x1="746.173" y1="1632.815" x2="763.39" y2="1575.946" fill="none" stroke="#ccc" stroke-linecap="round" stroke-miterlimit="10" stroke-width="6"/>
    <line x1="796.781" y1="1641.685" x2="812.955" y2="1568.12" fill="none" stroke="#ccc" stroke-linecap="round" stroke-miterlimit="10" stroke-width="6"/>
    <line x1="848.433" y1="1652.12" x2="854.694" y2="1594.728" fill="none" stroke="#ccc" stroke-linecap="round" stroke-miterlimit="10" stroke-width="6"/>
    <line x1="900.607" y1="1654.728" x2="902.694" y2="1578.033" fill="none" stroke="#ccc" stroke-linecap="round" stroke-miterlimit="10" stroke-width="6"/>
    <line x1="952.781" y1="1655.25" x2="950.694" y2="1598.38" fill="none" stroke="#ccc" stroke-linecap="round" stroke-miterlimit="10" stroke-width="6"/>
    <line x1="996.732" y1="1585.443" x2="995.042" y2="1570.728" fill="none" stroke="#ccc" stroke-linecap="round" stroke-miterlimit="10" stroke-width="6"/>
    <line x1="1003.912" y1="1647.946" x2="1002.367" y2="1634.498" fill="none" stroke="#ccc" stroke-linecap="round" stroke-miterlimit="10" stroke-width="6"/>
    <line x1="1057.129" y1="1640.641" x2="1044.607" y2="1584.815" fill="none" stroke="#ccc" stroke-linecap="round" stroke-miterlimit="10" stroke-width="6"/>
    <line x1="1107.216" y1="1626.554" x2="1082.694" y2="1552.989" fill="none" stroke="#ccc" stroke-linecap="round" stroke-miterlimit="10" stroke-width="6"/>
    <line x1="1156.781" y1="1608.815" x2="1133.825" y2="1556.641" fill="none" stroke="#ccc" stroke-linecap="round" stroke-miterlimit="10" stroke-width="6"/>
    <line x1="1203.738" y1="1585.337" x2="1166.694" y2="1518.554" fill="none" stroke="#ccc" stroke-linecap="round" stroke-miterlimit="10" stroke-width="6"/>
    <line x1="1249.129" y1="1561.859" x2="1217.825" y2="1513.859" fill="none" stroke="#ccc" stroke-linecap="round" stroke-miterlimit="10" stroke-width="6"/>
    <line x1="1252.859" y1="1480.404" x2="1242.346" y2="1467.424" fill="none" stroke="#ccc" stroke-linecap="round" stroke-miterlimit="10" stroke-width="6"/>
    <line x1="1293.477" y1="1530.554" x2="1283.474" y2="1518.204" fill="none" stroke="#ccc" stroke-linecap="round" stroke-miterlimit="10" stroke-width="6"/>
    <line x1="1332.086" y1="1496.641" x2="1292.955" y2="1455.424" fill="none" stroke="#ccc" stroke-linecap="round" stroke-miterlimit="10" stroke-width="6"/>
    <line x1="1370.173" y1="1460.641" x2="1311.216" y2="1408.467" fill="none" stroke="#ccc" stroke-linecap="round" stroke-miterlimit="10" stroke-width="6"/>
    <line x1="1404.086" y1="1422.033" x2="1357.651" y2="1387.076" fill="none" stroke="#ccc" stroke-linecap="round" stroke-miterlimit="10" stroke-width="6"/>
    <line x1="1437.477" y1="1379.25" x2="1367.564" y2="1336.989" fill="none" stroke="#ccc" stroke-linecap="round" stroke-miterlimit="10" stroke-width="6"/>
    <line x1="1462.52" y1="1333.859" x2="1408.781" y2="1307.25" fill="none" stroke="#ccc" stroke-linecap="round" stroke-miterlimit="10" stroke-width="6"/>
    <line x1="1422.544" y1="1261.361" x2="1409.303" y2="1256.12" fill="none" stroke="#ccc" stroke-linecap="round" stroke-miterlimit="10" stroke-width="6"/>
    <line x1="1484.433" y1="1285.859" x2="1470.742" y2="1280.439" fill="none" stroke="#ccc" stroke-linecap="round" stroke-miterlimit="10" stroke-width="6"/>
    <rect x="1098.755" y="485.312" width="90.267" height="90.267" rx="15.665" ry="15.665" transform="translate(1113.416 -730.079) rotate(63.737)" fill="none" stroke="#ccc" stroke-linecap="round" stroke-miterlimit="10" stroke-width="6"/>
    <path d="M914.987,350.455l-28.412,43.74c-1.597,2.458.167,5.707,3.098,5.707h56.824c2.931,0,4.695-3.249,3.098-5.707l-28.412-43.74c-1.457-2.243-4.74-2.243-6.197,0Z" fill="none" stroke="#ccc" stroke-linecap="round" stroke-miterlimit="10" stroke-width="6"/>
    <rect x="660.083" y="1541.638" width="90.267" height="90.267" rx="15.665" ry="15.665" transform="translate(1950.628 376.762) rotate(69.788)" fill="none" stroke="#ccc" stroke-linecap="round" stroke-miterlimit="10" stroke-width="6"/>
    <line x1="927.216" y1="1679.772" x2="927.216" y2="1741.337" fill="none" stroke="#ccc" stroke-linecap="round" stroke-miterlimit="10" stroke-width="6"/>
    <line x1="960.086" y1="1711.598" x2="896.955" y2="1711.598" fill="none" stroke="#ccc" stroke-linecap="round" stroke-miterlimit="10" stroke-width="6"/>
    <line x1="1024.781" y1="816.815" x2="1122.75" y2="575.197" fill="none" stroke="#ccc" stroke-linecap="round" stroke-miterlimit="10" stroke-width="6"/>
    <path d="M1122.313,617.426c.128.047.264-.047.265-.184l.278-43.437c.001-.184-.229-.269-.348-.128l-27.967,33.237c-.088.104-.045.264.083.312" fill="none" stroke="#ccc" stroke-linecap="round" stroke-miterlimit="10" stroke-width="6"/>
    <path d="M1149.561,398.365l13.752,70.721c.49,2.519,3.334,3.783,5.533,2.46l61.721-37.163" fill="none" stroke="#ccc" stroke-linecap="round" stroke-miterlimit="10" stroke-width="6"/>
    <path d="M1165.735,513.351l-13.607,34.076c-.536,1.34-1.886,2.17-3.323,2.049-.327-.032-.639-.105-.933-.223-1-.398-1.758-1.271-1.989-2.363l-6.877-32.565-9.596,24.03c-.671,1.679-2.576,2.497-4.256,1.826s-2.497-2.576-1.826-4.255l13.607-34.076c.536-1.341,1.885-2.171,3.322-2.05,1.427.121,2.624,1.174,2.922,2.587l6.877,32.565,9.596-24.031c.671-1.68,2.577-2.496,4.257-1.826,1.68.672,2.497,2.576,1.826,4.256Z" fill="#ccc"/>
    <path d="M1428.427,1280.367c-.673,1.68-2.58,2.494-4.258,1.82-1.679-.674-2.494-2.58-1.82-4.258l9.123-22.744c.674-1.678,2.58-2.492,4.259-1.819l34.054,13.661c1.68.674,2.494,2.58,1.82,4.258l-9.123,22.744c-.674,1.678-2.58,2.492-4.259,1.819-1.679-.674-2.493-2.579-1.819-4.259l7.904-19.703-10.953-4.395-6.193,15.438c-.673,1.678-2.578,2.493-4.258,1.82-1.678-.674-2.493-2.58-1.82-4.258l6.193-15.438-10.949-4.393-7.904,19.704h.004Z" fill="#ccc"/>
    <path d="M701.753,1573.146c-1.124-2.751-1.116-5.771.033-8.516l.771-1.84c1.334-3.185,4.136-5.599,7.502-6.461l1.176-.27c2.275-.551,4.751-.366,6.919.541l6.682,2.798c2.009.841,3.718,2.248,4.945,4.069l1.744,2.615c1.004,1.512.593,3.539-.91,4.542-1.511,1.003-3.536.588-4.54-.909l-1.737-2.604c-.491-.736-1.219-1.332-2.035-1.674l-6.681-2.798c-.889-.372-1.911-.446-2.887-.206l-1.139.26c-1.3.331-2.453,1.325-2.998,2.625l-.771,1.84c-.472,1.129-.47,2.371-.009,3.504.462,1.134,1.337,2.018,2.461,2.488l8.121,3.4c2.74,1.146,4.874,3.296,6.002,6.039,1.121,2.754,1.111,5.778-.035,8.514l-1.038,2.481c-1.147,2.74-3.295,4.869-6.042,5.999-2.748,1.126-5.771,1.115-8.517-.033l-7.521-3.149c-2.037-.853-3.754-2.263-4.963-4.081l-1.729-2.609c-1.001-1.506-.586-3.541.918-4.539,1.504-.997,3.534-.604,4.537.922l1.729,2.605c.49.736,1.195,1.312,2.036,1.664l7.521,3.149c1.129.473,2.376.478,3.502.014,1.136-.465,2.021-1.345,2.491-2.469l1.038-2.481c.471-1.123.473-2.373.012-3.508-.459-1.127-1.34-2.008-2.469-2.48l-8.121-3.4c-2.736-1.146-4.865-3.293-5.995-6.041l-.004-.002Z" fill="#ccc"/>
    <path d="M374.722,824.605l28.379,11.385c.806.323,1.451.95,1.789,1.75l3.4,7.948c.717,1.661-.057,3.576-1.709,4.296l-4.928,2.127,2.092,4.941c.351.827.333,1.723.023,2.495-.312.777-.924,1.438-1.752,1.793l-7.953,3.398c-.797.344-1.701.351-2.506.027l-28.379-11.384c-1.679-.674-2.494-2.58-1.82-4.259s2.58-2.493,4.258-1.819l27.119,10.879,3.705-1.584-1.558-3.676-7.266-2.915c-1.679-.673-2.493-2.58-1.819-4.258.673-1.679,2.579-2.493,4.258-1.82l7.266,2.915,3.667-1.582-1.585-3.701-27.119-10.879c-1.678-.673-2.494-2.579-1.82-4.258s2.58-2.493,4.258-1.82Z" fill="#ccc"/>
    <g>
      <path d="M834.592,483.534c2.135,1.882,3.41,4.479,3.588,7.306l.192,3.073c.247,3.931-1.39,7.78-4.373,10.3-2.016,1.735-4.547,2.753-7.291,2.926l-2.728.171c-2.479.156-9.938-.757-12.625-1.901l-1.533-.608c-1.68-.668-2.499-2.572-1.832-4.252.669-1.685,2.569-2.495,4.253-1.831l1.604.638c1.492.632,7.81,1.543,9.728,1.423l2.728-.171c1.307-.082,2.498-.561,3.451-1.377,1.448-1.229,2.201-3.01,2.082-4.907l-.192-3.073c-.068-1.083-.561-2.077-1.39-2.808l-.557-.49c-.661-.588-1.547-.894-2.421-.839l-6.45.405c-1.259.079-2.455-.576-3.069-1.685-.612-1.108-.532-2.465.207-3.494l8.68-12.095-12.978.814c-1.805.113-3.359-1.258-3.473-3.063-.113-1.805,1.258-3.36,3.062-3.473l19.868-1.247c1.261-.079,2.458.576,3.069,1.685.612,1.104.534,2.465-.206,3.494l-8.688,12.105c2.452-.045,4.886.849,6.735,2.48l.556.491v.004Z" fill="#ccc"/>
      <path d="M872.089,481.18c2.135,1.882,3.409,4.479,3.587,7.306l.192,3.073c.247,3.931-1.389,7.78-4.373,10.3-2.016,1.735-4.546,2.753-7.291,2.926l-2.727.171c-2.479.155-9.938-.758-12.625-1.902l-1.533-.608c-1.681-.668-2.499-2.572-1.832-4.252.668-1.685,2.569-2.495,4.252-1.832l1.604.638c1.492.632,7.811,1.543,9.729,1.423l2.727-.171c1.308-.082,2.498-.562,3.451-1.377,1.448-1.229,2.201-3.01,2.082-4.907l-.192-3.073c-.068-1.082-.561-2.077-1.389-2.807l-.557-.491c-.663-.588-1.547-.894-2.421-.839l-6.45.405c-1.26.079-2.455-.576-3.069-1.685-.612-1.109-.533-2.465.207-3.494l8.68-12.095-12.978.814c-1.805.113-3.359-1.258-3.473-3.063-.113-1.805,1.258-3.36,3.062-3.473l19.868-1.247c1.26-.079,2.457.576,3.069,1.685.612,1.104.533,2.465-.206,3.493l-8.688,12.105c2.452-.046,4.885.849,6.735,2.479l.556.491v.004Z" fill="#ccc"/>
    </g>
    <g>
      <path d="M555.378,610.173c2.843.133,5.463,1.361,7.37,3.455l2.072,2.277c2.652,2.912,3.783,6.938,3.033,10.771-.486,2.614-1.824,4.992-3.857,6.844l-2.02,1.84c-1.838,1.673-8.228,5.626-11.039,6.416l-1.576.485c-1.729.53-3.56-.443-4.09-2.172-.533-1.732.443-3.553,2.172-4.089l1.65-.506c1.559-.44,7.059-3.683,8.479-4.977l2.021-1.839c.969-.882,1.598-2,1.83-3.233.361-1.865-.166-3.726-1.445-5.131l-2.072-2.277c-.73-.802-1.737-1.269-2.84-1.321l-.742-.035c-.885-.044-1.766.271-2.412.86l-4.779,4.351c-.933.85-2.276,1.087-3.448.606-1.172-.482-1.958-1.59-2.024-2.855l-.797-14.866-9.613,8.754c-1.338,1.218-3.408,1.121-4.626-.216s-1.122-3.408.216-4.626l14.719-13.403c.934-.85,2.277-1.088,3.449-.606,1.169.479,1.958,1.589,2.025,2.854l.795,14.878c1.885-1.57,4.342-2.394,6.807-2.279l.74.035.003.003Z" fill="#ccc"/>
      <path d="M577.353,573.866l18.047,19.818c3.068,3.37,2.594,8.812-1.059,12.139l-9.717,8.848c-3.714,3.382-9.066,3.346-12.186-.079l-18.046-19.818c-3.069-3.37-2.593-8.813,1.06-12.139l9.717-8.848c3.652-3.327,9.115-3.292,12.184.079ZM572.511,578.275c-.637-.699-1.955-.542-2.936.352l-9.717,8.848c-1.02.929-1.17,2.291-.623,2.891l18.046,19.818c.636.699,1.954.542,2.936-.352l9.717-8.848c1.02-.929,1.17-2.291.624-2.891l-18.047-19.818Z" fill="#ccc"/>
    </g>
    <path d="M1393.209,718.286c-.133,2.844-1.361,5.463-3.455,7.369l-2.276,2.074c-2.912,2.651-6.938,3.782-10.771,3.032-2.614-.487-4.992-1.824-6.844-3.857l-1.84-2.021c-1.673-1.837-5.627-8.227-6.416-11.039l-.485-1.576c-.53-1.729.444-3.559,2.172-4.09,1.731-.531,3.553.443,4.089,2.172l.506,1.651c.44,1.56,3.683,7.058,4.977,8.479l1.84,2.02c.882.969,2,1.599,3.232,1.831,1.865.36,3.727-.166,5.131-1.445l2.277-2.073c.801-.73,1.27-1.736,1.32-2.84l.035-.741c.044-.884-.271-1.766-.86-2.413l-4.352-4.778c-.85-.933-1.087-2.276-.606-3.448.482-1.172,1.59-1.958,2.855-2.025l14.865-.796-8.754-9.614c-1.218-1.337-1.121-3.408.217-4.625,1.337-1.219,3.408-1.121,4.625.216l13.404,14.719c.85.934,1.087,2.277.605,3.448-.479,1.17-1.59,1.959-2.854,2.025l-14.878.797c1.568,1.884,2.394,4.342,2.279,6.805l-.035.741-.004.003Z" fill="#ccc"/>
    <path d="M1498.345,982.715c1.174,9.382-3.615,16.385-11.918,17.423-8.176,1.022-14.689-4.714-15.844-13.95-1.15-9.191,3.556-15.809,11.99-16.863.198-.025.377,0,.57-.02.09-.019.157-.072.248-.083,4.467-.559,14.063,2.293,20.77,5.37,4.496,2.061,6.424,3.563,8.124,4.885,1.428,1.111,1.753,3.221.643,4.649s-3.104,1.738-4.528.628l-.137-.106c-1.555-1.213-3.025-2.354-6.832-4.102-1.318-.609-2.643-1.143-3.956-1.638.386,1.188.703,2.438.874,3.807h-.004ZM1485.62,993.639c6.662-.833,6.577-7.349,6.231-10.111-.492-3.938-2.361-8.469-8.46-7.706-4.765.596-7.002,3.988-6.306,9.553.709,5.668,3.977,8.835,8.534,8.265Z" fill="#ccc"/>
    <g>
      <path d="M1269.634,1481.988c-1.457.906-3.375.57-4.387-.845-1.051-1.472-.709-3.517.764-4.567l4.977-3.553c1.473-1.051,3.516-.711,4.566.762,1.004,1.404.706,3.302-.596,4.39l17.062,23.896c.576-.108,1.183-.098,1.771.132,1.686.65,2.529,2.548,1.877,4.233l-.822,2.132c-.033.094-.111.156-.155.245-.095.196-.212.369-.347.546-.139.186-.281.345-.455.49-.072.062-.111.148-.192.207-.088.062-.192.072-.285.129-.196.113-.398.204-.615.273-.2.063-.392.109-.591.135-.204.028-.404.032-.615.018-.229-.012-.439-.053-.656-.111-.107-.03-.213-.014-.318-.057-.094-.033-.154-.113-.244-.155-.195-.095-.371-.215-.548-.35-.179-.14-.339-.28-.481-.45-.065-.076-.151-.115-.209-.197l-19.494-27.303h-.006Z" fill="#ccc"/>
      <path d="M1239.256,1503.748c-1.473,1.051-3.518.709-4.568-.763s-.711-3.517.762-4.567l19.943-14.238c.367-.263.775-.437,1.189-.529.025-.009.055.002.083-.002.405-.082.817-.088,1.216-.016.018.004.034-.003.053,0,.166.031.295.131.447.187.236.083.473.147.684.285.212.142.373.33.549.515.113.115.251.188.347.322.011.014.013.033.023.047.152.222.234.479.329.729.053.149.147.289.181.44.032.143.005.297.015.443.021.278.049.557,0,.831-.004.019,0,.054,0,.054l-5.022,25.062c-.754,3.794-.339,7.026,1.139,8.864,1.032,1.288,2.612,1.935,4.818,1.979,1.483.024,3.139-.582,4.77-1.746,3.145-2.246,5.222-4.539,5.154-8.439-.037-1.812,1.402-3.298,3.215-3.335,1.807-.032,3.297,1.409,3.331,3.218.144,8.142-5.698,12.312-7.897,13.883-2.779,1.983-5.781,3.009-8.688,2.968-5.258-.109-8.234-2.466-9.812-4.426-2.73-3.4-3.603-8.458-2.452-14.252l3.395-16.95-13.205,9.428.003.01Z" fill="#ccc"/>
    </g>
    <g>
      <path d="M1011.134,1594.115c-1.716.048-3.202-1.21-3.359-2.942-.165-1.801,1.162-3.394,2.963-3.558l6.091-.555c1.801-.164,3.394,1.162,3.558,2.963.157,1.72-1.059,3.206-2.73,3.489l2.665,29.241c.552.197,1.069.512,1.463,1.008,1.126,1.412.896,3.477-.517,4.602l-1.786,1.426c-.077.064-.177.078-.258.133-.182.121-.369.213-.575.297-.214.088-.417.155-.64.193-.095.018-.172.072-.271.08-.107.011-.203-.033-.312-.032-.227,0-.446-.024-.669-.073-.205-.047-.393-.104-.578-.184-.19-.078-.365-.175-.541-.295-.19-.126-.353-.268-.51-.428-.077-.08-.176-.119-.245-.208-.064-.077-.077-.177-.133-.259-.121-.18-.212-.373-.297-.578-.083-.21-.15-.412-.188-.631-.018-.1-.073-.177-.082-.276l-3.045-33.409-.004-.004Z" fill="#ccc"/>
      <path d="M974.92,1614.308c-2.655-2.576-2.834-5.238-2.973-7.381l-.071-.982c-.364-3.99.575-7.651,2.571-10.055,1.713-2.051,4.178-3.664,6.766-4.432,1.993-.59,12.932-2.132,16.24-2.586.052-.004.103-.009.154-.014,1.732-.158,3.3,1.075,3.54,2.812.246,1.79-1.001,3.44-2.794,3.691-6.641.923-14.172,2.062-15.279,2.381-1.339.4-2.717,1.297-3.592,2.348-.652.782-1.325,2.629-1.084,5.268l.087,1.146c.122,1.814.186,2.318.988,3.099.907.871,1.602.99,3.219.913l16.749-1.526c1.794-.163,3.38,1.146,3.557,2.938l1.63,16.448c.083.873-.178,1.736-.735,2.411-.557.673-1.359,1.095-2.227,1.173l-22.374,2.039c-1.802.164-3.394-1.162-3.558-2.964s1.162-3.394,2.964-3.558l19.087-1.739-.983-9.932-13.653,1.244c-2.728.131-5.493-.114-8.223-2.739l-.006-.004Z" fill="#ccc"/>
    </g>
    <g>
      <path d="M487.92,1399.945c-1.07-1.458-.758-3.507.7-4.578,1.458-1.07,3.507-.758,4.577.701l14.508,19.748c.268.363.446.77.545,1.182.009.025-.002.055.003.084.087.404.099.815.032,1.215-.004.019.004.035,0,.053-.028.166-.126.298-.181.45-.079.236-.14.476-.275.687-.139.215-.325.379-.507.557-.114.115-.184.254-.316.352-.015.01-.033.012-.048.023-.22.154-.475.24-.726.34-.148.053-.287.15-.438.186-.142.034-.296.009-.443.02-.277.026-.555.058-.83.014-.02-.004-.054,0-.054,0l-25.128-4.682c-3.804-.703-7.029-.244-8.848,1.259-1.274,1.049-1.899,2.638-1.914,4.845-.004,1.482.625,3.129,1.812,4.744,2.287,3.115,4.607,5.16,8.508,5.041,1.812-.062,3.316,1.357,3.378,3.169.056,1.806-1.364,3.315-3.173,3.374-8.139.253-12.389-5.531-13.988-7.709-2.021-2.751-3.087-5.74-3.086-8.646.039-5.26,2.354-8.268,4.293-9.871,3.363-2.777,8.408-3.717,14.218-2.645l16.995,3.164-9.606-13.076-.009.002Z" fill="#ccc"/>
      <path d="M476.494,1384.297c-.926-1.444-.617-3.367.785-4.396,1.457-1.07,3.506-.758,4.577.7l3.62,4.928c1.071,1.458.758,3.508-.7,4.579-1.392,1.021-3.292.748-4.397-.537l-23.664,17.383c.117.576.115,1.182-.106,1.773-.628,1.694-2.515,2.564-4.208,1.936l-2.144-.794c-.095-.032-.157-.111-.247-.153-.197-.092-.371-.205-.55-.338-.187-.138-.349-.276-.496-.447-.063-.072-.151-.11-.21-.19-.064-.088-.076-.192-.133-.284-.116-.194-.209-.395-.282-.611-.065-.199-.114-.389-.142-.59-.031-.203-.039-.403-.027-.615.01-.229.048-.439.104-.657.028-.106.01-.212.051-.317.033-.095.111-.157.153-.247.092-.197.21-.374.342-.553.137-.181.276-.343.444-.487.074-.066.113-.153.193-.213l27.036-19.861v-.006Z" fill="#ccc"/>
    </g>
    <g>
      <path d="M372.048,1149.322c-.189-1.799,1.116-3.41,2.915-3.6,1.798-.188,3.409,1.116,3.599,2.915l2.56,24.37c.047.448-.003.89-.126,1.296-.006.027-.029.047-.04.073-.129.394-.326.754-.586,1.065-.012.015-.015.032-.026.045-.107.13-.258.194-.383.298-.188.164-.361.34-.584.455-.229.114-.472.162-.719.224-.156.042-.287.126-.45.143-.018.002-.036-.004-.054-.002-.268.023-.531-.032-.797-.074-.155-.027-.324-.014-.473-.06-.139-.042-.26-.143-.393-.207-.252-.118-.508-.23-.723-.408-.015-.012-.047-.025-.047-.025l-19.331-16.722c-2.93-2.526-5.946-3.759-8.274-3.379-1.629.263-2.971,1.32-4.097,3.218-.751,1.277-1.04,3.018-.83,5.01.403,3.844,1.374,6.781,4.802,8.645,1.596.862,2.179,2.846,1.317,4.441-.862,1.587-2.851,2.175-4.441,1.312-7.155-3.889-7.904-11.027-8.187-13.715-.357-3.395.231-6.513,1.699-9.021,2.687-4.522,6.204-5.951,8.687-6.356,4.306-.7,9.136,1.034,13.61,4.891l13.075,11.309-1.695-16.137-.009-.003Z" fill="#ccc"/>
      <path d="M351.532,1114.418c.209-1.453,1.376-2.632,2.899-2.791,1.521-.16,2.908.75,3.416,2.128l13.621-1.431c1.799-.189,3.409,1.115,3.598,2.914.189,1.799-1.115,3.409-2.914,3.599l-13.526,1.421,1.801,17.145c.134,1.273-.479,2.507-1.578,3.158-1.101.656-2.479.608-3.532-.114l-21.574-14.827c-.789-.541-1.303-1.403-1.403-2.357l-.366-3.493c-.189-1.799,1.116-3.41,2.914-3.6l16.637-1.747.009-.004ZM340.307,1122.185l12.864,8.84-1.059-10.08-11.806,1.24Z" fill="#ccc"/>
    </g>
    <g>
      <rect x="864.09" y="1791.02" width="134.609" height="61.97" fill="none"/>
      <path d="M924.612,1821.684c2.177,2.025,3.539,4.914,3.539,8.114v4.337c0,6.085-4.953,11.038-11.038,11.038h-16.698c-1.809,0-3.274-1.466-3.274-3.274v-36.691c0-1.809,1.466-3.274,3.274-3.274h16.352c3.33,0,6.401,1.656,8.21,4.437,1.045,1.535,1.613,3.431,1.613,5.43v4.12c0,2.39-.794,4.303-1.982,5.765h.005ZM903.694,1808.491v10.235h13.675c.755-.144,2.676-.712,2.676-2.802v-4.12c0-.694-.178-1.297-.521-1.805-.642-.984-1.635-1.518-2.758-1.518h-13.077l.005.009ZM921.601,1829.804c0-2.325-1.761-4.246-4.016-4.507-.174.018-.347.018-.517.018h-13.38v13.315h13.424c2.477,0,4.488-2.018,4.488-4.489v-4.337Z" fill="#ccc"/>
      <path d="M964.193,1802.44c1.506,1.007,1.909,3.036.907,4.541l-11.676,17.522v17.353c0,1.809-1.466,3.274-3.274,3.274s-3.274-1.466-3.274-3.274v-17.353l-11.68-17.522c-1.002-1.505-.599-3.539.906-4.541,1.509-1.006,3.534-.603,4.541.906l9.507,14.261,9.503-14.261c1.006-1.505,3.031-1.908,4.54-.91v.004Z" fill="#ccc"/>
    </g>
    <g>
      <rect x="210.479" y="280.084" width="134.609" height="61.97" fill="none"/>
      <path d="M255.784,307.336c0,2.242-.902,4.428-2.473,6.002-1.439,1.436-3.313,2.251-5.33,2.411l7.403,13.614c.863,1.588.273,3.574-1.314,4.438-.494.272-1.032.398-1.557.398-1.162,0-2.286-.62-2.88-1.713l-9.069-16.676h-9.237v15.11c0,1.809-1.466,3.274-3.274,3.274s-3.274-1.466-3.274-3.274v-36.692c0-1.809,1.466-3.274,3.274-3.274h19.252c2.238,0,4.424.902,5.998,2.473,1.605,1.604,2.481,3.738,2.481,6.007v7.902ZM249.234,299.429c0-.542-.19-1.002-.559-1.375-.348-.342-.863-.555-1.371-.555h-15.982v11.758h15.982c.538,0,.998-.19,1.371-.563.351-.348.559-.859.559-1.366v-7.898Z" fill="#ccc"/>
      <path d="M293.292,294.228v36.692c0,1.444-.946,2.715-2.325,3.136-.316.091-.633.139-.949.139-1.076,0-2.104-.529-2.725-1.457l-18.463-27.692v25.875c0,1.809-1.466,3.274-3.274,3.274s-3.274-1.466-3.274-3.274v-36.692c0-1.444.945-2.715,2.325-3.136,1.37-.416,2.871.117,3.673,1.318l18.463,27.692v-25.875c0-1.809,1.467-3.274,3.275-3.274s3.274,1.466,3.274,3.274Z" fill="#ccc"/>
      <path d="M330.666,312.488l.131,10.365c0,3.084-1.245,6.042-3.418,8.158-2.056,1.995-4.896,3.14-7.794,3.14h-7.894c-2.472,0-4.9-.828-6.831-2.342l-.707-.538c-2.771-2.095-4.367-5.325-4.367-8.852v-19.733c0-3.47,1.64-6.783,4.381-8.856l.729-.556c1.899-1.487,4.324-2.32,6.796-2.32h8.675c2.189,0,4.332.655,6.193,1.896l2.606,1.739c1.505,1.006,1.908,3.036.906,4.541-1.002,1.509-3.031,1.908-4.541.906l-2.603-1.739c-.78-.521-1.665-.794-2.562-.794h-8.675c-1.032,0-1.995.33-2.797.954l-.772.59c-1.128.846-1.791,2.208-1.791,3.64v19.733c0,1.457.646,2.78,1.778,3.635l.75.572c.828.65,1.796.98,2.828.98h7.894c1.21,0,2.385-.473,3.227-1.288.924-.898,1.436-2.112,1.436-3.418l-.091-7.091h-7.481c-1.809,0-3.274-1.466-3.274-3.274s1.466-3.275,3.274-3.275h10.712c1.792,0,3.253,1.44,3.275,3.231l.008-.004Z" fill="#ccc"/>
    </g>
    <g>
      <rect x="159.748" y="338.727" width="226.425" height="77.784" fill="none"/>
      <path d="M224.806,362.752v33.812c0,5.751-5.066,10.423-11.298,10.423h-16.578c-6.336,0-11.299-4.579-11.299-10.423v-33.812c0-5.75,5.066-10.423,11.299-10.423h16.578c6.231,0,11.298,4.673,11.298,10.423ZM216.545,362.752c0-1.192-1.362-2.166-3.036-2.166h-16.578c-1.74,0-3.037,1.144-3.037,2.166v33.812c0,1.193,1.362,2.167,3.037,2.167h16.578c1.739,0,3.036-1.144,3.036-2.167v-33.812Z" fill="#ccc"/>
      <path d="M268.07,398.715c2.282,0,4.131,1.85,4.131,4.131s-1.849,4.131-4.131,4.131h-30.912c-.569,0-1.116-.12-1.608-.328-.033-.011-.055-.044-.088-.061-.476-.213-.902-.509-1.259-.875-.016-.017-.038-.022-.055-.038-.147-.153-.208-.351-.322-.521-.181-.257-.378-.497-.492-.793-.115-.301-.143-.613-.187-.93-.033-.203-.12-.378-.12-.586,0-.021.011-.044.011-.065.006-.34.109-.662.197-.99.055-.191.06-.405.137-.586.071-.169.213-.306.312-.465.181-.301.355-.607.607-.854.017-.017.038-.055.038-.055l23.526-22.049c3.557-3.344,5.499-6.965,5.329-9.937-.114-2.079-1.264-3.9-3.496-5.563-1.504-1.111-3.649-1.702-6.177-1.702-4.875,0-8.688.832-11.479,4.886-1.292,1.888-3.857,2.358-5.745,1.067-1.877-1.291-2.353-3.863-1.062-5.745,5.821-8.464,14.876-8.464,18.285-8.464,4.306,0,8.142,1.148,11.096,3.321,5.318,3.966,6.647,8.567,6.828,11.735.312,5.493-2.5,11.325-7.928,16.431l-15.91,14.914h20.468l.005-.011Z" fill="#ccc"/>
      <path d="M315.654,377.951c2.539,2.539,3.939,5.909,3.939,9.482v3.884c0,4.969-2.363,9.685-6.319,12.623-2.675,2.024-5.941,3.107-9.41,3.107h-3.447c-3.135,0-12.452-1.74-15.746-3.393l-1.882-.886c-2.062-.975-2.943-3.437-1.97-5.499.974-2.068,3.431-2.938,5.498-1.97l1.97.931c1.828.913,9.712,2.561,12.136,2.561h3.447c1.651,0,3.189-.51,4.453-1.461,1.92-1.434,3.009-3.617,3.009-6.014v-3.884c0-1.368-.541-2.659-1.526-3.645l-.662-.662c-.787-.793-1.876-1.247-2.981-1.247h-8.152c-1.592,0-3.048-.919-3.731-2.363s-.476-3.146.536-4.383l11.884-14.543h-16.402c-2.282,0-4.131-1.849-4.131-4.131s1.849-4.131,4.131-4.131h25.112c1.593,0,3.048.92,3.731,2.364.685,1.438.477,3.146-.536,4.382l-11.895,14.554c3.092.137,6.084,1.456,8.284,3.655l.661.662v.005Z" fill="#ccc"/>
      <path d="M336.077,405.864v.114c0,2.282-1.849,4.131-4.131,4.131s-4.131-1.849-4.131-4.131,1.85-4.19,4.131-4.19,4.131,1.795,4.131,4.076Z" fill="#ccc"/>
      <path d="M356.388,398.786c2.161.137,3.885,1.888,3.885,4.081,0,2.282-1.85,4.131-4.131,4.131h-7.715c-2.281,0-4.131-1.849-4.131-4.131,0-2.177,1.696-3.906,3.83-4.07v-37.04c-.673-.312-1.285-.767-1.724-1.434-1.253-1.904-.728-4.471,1.177-5.723l2.407-1.587c.104-.071.229-.077.339-.137.241-.132.487-.225.756-.307.278-.088.541-.147.826-.17.12-.011.224-.071.35-.071.137,0,.252.066.389.077.284.027.558.082.832.17.251.082.481.175.705.295.23.12.438.263.646.433.225.181.411.377.591.596.088.109.208.17.285.29.071.104.076.23.137.34.131.24.225.492.307.76.082.274.142.536.164.815.011.126.071.23.071.355v42.32l.005.006Z" fill="#ccc"/>
    </g>
    <g>
      <rect x="813.658" y="930.1" width="226.425" height="77.784" fill="none"/>
      <path d="M882.087,946.903c2.148,2.646,3.351,6.046,3.351,9.542v13.338c0,3.487-1.162,6.79-3.364,9.555-2.977,3.664-7.322,5.751-11.938,5.751h-12.901c-1.836,0-3.324-1.488-3.324-3.324v-37.252c0-1.836,1.488-3.368,3.324-3.368h12.901c4.65,0,9.119,2.152,11.951,5.764v-.005ZM878.789,956.45c0-1.973-.674-3.889-1.898-5.395-1.616-2.061-4.126-3.263-6.755-3.263h-9.577v30.651h9.577c2.567,0,5.095-1.22,6.755-3.268,1.233-1.55,1.898-3.426,1.898-5.39v-13.337Z" fill="#ccc"/>
      <path d="M920.26,978.391c1.836,0,3.324,1.488,3.324,3.324s-1.488,3.324-3.324,3.324h-24.879c-1.836,0-3.324-1.488-3.324-3.324v-37.252c0-1.836,1.488-3.324,3.324-3.324h24.879c1.836,0,3.324,1.488,3.324,3.324s-1.488,3.325-3.324,3.325h-21.555v11.98h16.887c1.837,0,3.325,1.488,3.325,3.325s-1.488,3.324-3.325,3.324h-16.887v11.977h21.555v-.004Z" fill="#ccc"/>
      <path d="M958.425,963.165c2.131,2.136,3.307,4.967,3.307,7.987v2.025c0,3.505-1.678,6.865-4.491,8.992l-.995.713c-1.916,1.409-4.307,2.206-6.693,2.206h-7.354c-2.21,0-4.363-.647-6.226-1.871l-2.66-1.766c-1.532-1.022-1.941-3.083-.929-4.61,1.021-1.532,3.082-1.938,4.61-.93l2.646,1.757c.748.498,1.664.771,2.562.771h7.354c.978,0,1.964-.33,2.782-.938l.965-.691c1.088-.819,1.779-2.201,1.779-3.633v-2.025c0-1.241-.489-2.404-1.365-3.285-.877-.88-2.043-1.364-3.28-1.364h-8.939c-3.016,0-5.856-1.176-7.987-3.303-2.131-2.14-3.307-4.976-3.307-7.987v-2.73c0-3.017,1.176-5.852,3.307-7.987,2.131-2.132,4.967-3.307,7.987-3.307h8.278c2.241,0,4.403.646,6.248,1.875l2.643,1.767c1.527,1.017,1.938,3.086.92,4.609-1.017,1.523-3.073,1.951-4.61.916l-2.642-1.761c-.749-.498-1.634-.762-2.559-.762h-8.278c-1.241,0-2.413.484-3.284,1.36-.881.881-1.365,2.052-1.365,3.289v2.73c0,1.237.488,2.408,1.365,3.289.871.876,2.043,1.356,3.284,1.356h8.939c3.012,0,5.847,1.175,7.982,3.307h.005Z" fill="#ccc"/>
      <path d="M996.513,941.144c1.836,0,3.324,1.488,3.324,3.324s-1.488,3.324-3.324,3.324h-9.093v33.928c0,1.836-1.488,3.324-3.324,3.324s-3.325-1.488-3.325-3.324v-33.928h-9.093c-1.836,0-3.324-1.488-3.324-3.324s1.488-3.324,3.324-3.324h24.835Z" fill="#ccc"/>
    </g>
    <g>
      <rect x="779.183" y="1005.705" width="283.164" height="142.937" fill="none"/>
      <path d="M836.493,1016.585v23.521c0,.668-.264,1.309-.737,1.778l-4.701,4.704c-.98.988-2.568.984-3.557.011l-2.929-2.909-2.93,2.909c-.49.486-1.134.73-1.774.73-.645,0-1.292-.247-1.782-.737l-4.704-4.704c-.474-.471-.737-1.114-.737-1.782v-23.521c0-1.392,1.128-2.519,2.52-2.519s2.519,1.127,2.519,2.519v22.477l2.191,2.192,2.179-2.166v-6.021c0-1.392,1.128-2.52,2.52-2.52s2.519,1.128,2.519,2.52v6.021l2.179,2.166,2.188-2.192v-22.477c0-1.392,1.128-2.519,2.52-2.519s2.519,1.127,2.519,2.519Z" fill="#ccc"/>
      <path d="M864.029,1020.353v20.618c0,3.507-3.089,6.355-6.889,6.355h-10.109c-3.863,0-6.89-2.792-6.89-6.355v-20.618c0-3.507,3.09-6.355,6.89-6.355h10.109c3.8,0,6.889,2.849,6.889,6.355ZM858.992,1020.353c0-.728-.831-1.321-1.852-1.321h-10.109c-1.061,0-1.852.697-1.852,1.321v20.618c0,.728.831,1.321,1.852,1.321h10.109c1.061,0,1.852-.697,1.852-1.321v-20.618Z" fill="#ccc"/>
      <path d="M891.578,1020.353v20.618c0,3.507-3.089,6.355-6.889,6.355h-10.109c-3.863,0-6.89-2.792-6.89-6.355v-20.618c0-3.507,3.09-6.355,6.89-6.355h10.109c3.8,0,6.889,2.849,6.889,6.355ZM886.541,1020.353c0-.728-.831-1.321-1.852-1.321h-10.109c-1.061,0-1.852.697-1.852,1.321v20.618c0,.728.831,1.321,1.852,1.321h10.109c1.061,0,1.852-.697,1.852-1.321v-20.618Z" fill="#ccc"/>
      <path d="M919.094,1025.428c0,1.458-.544,2.883-1.518,4.037.974,1.157,1.518,2.579,1.518,4.037v7.276c0,1.778-.797,3.503-2.188,4.728-1.308,1.157-3.049,1.795-4.901,1.795h-9.675c-1.812,0-3.597-.654-4.897-1.795-1.415-1.248-2.192-2.926-2.192-4.728v-7.276c0-1.458.544-2.883,1.519-4.037-.978-1.161-1.519-2.586-1.519-4.037v-4.904c0-1.778.798-3.503,2.188-4.728,1.312-1.161,3.053-1.798,4.901-1.798h9.675c1.818,0,3.604.653,4.901,1.795,1.415,1.251,2.188,2.929,2.188,4.728v4.907ZM914.057,1033.495c0-.334-.19-.688-.518-.978l-.617-.54h-11.517l-.621.543c-.32.287-.511.641-.511.975v7.276c0,.344.164.661.484.944.384.337.971.54,1.568.54h9.675c.61,0,1.185-.193,1.568-.537.307-.267.487-.62.487-.947v-7.276ZM900.281,1020.523v4.904c0,.334.19.69.521.987l.607.531h11.521l.624-.544c.316-.284.507-.641.507-.975v-4.904c0-.347-.163-.667-.487-.951-.38-.333-.968-.537-1.568-.537h-9.675c-.61,0-1.181.197-1.564.537h-.004c-.304.268-.483.621-.483.948l.003.003Z" fill="#ccc"/>
      <path d="M946.17,1022.149l-18.816,28.226c-.487.728-1.285,1.121-2.099,1.121-.48,0-.965-.137-1.395-.424-1.158-.773-1.469-2.335-.697-3.493l18.816-28.225c.774-1.154,2.332-1.465,3.493-.697,1.158.771,1.468,2.335.697,3.492Z" fill="#ccc"/>
      <path d="M974.127,1020.353v20.618c0,3.507-3.089,6.355-6.889,6.355h-10.109c-3.863,0-6.89-2.792-6.89-6.355v-20.618c0-3.507,3.09-6.355,6.89-6.355h10.109c3.8,0,6.889,2.849,6.889,6.355ZM969.09,1020.353c0-.728-.831-1.321-1.852-1.321h-10.109c-1.061,0-1.852.697-1.852,1.321v20.618c0,.728.831,1.321,1.852,1.321h10.109c1.061,0,1.852-.697,1.852-1.321v-20.618Z" fill="#ccc"/>
      <path d="M999.565,1029.385c1.854,2.158,1.805,4.21,1.762,5.862l-.014.757c0,3.083-.974,5.822-2.672,7.523-1.455,1.451-3.457,2.516-5.492,2.923-1.567.313-10.056.73-12.621.848h-.12c-1.338,0-2.452-1.055-2.516-2.402-.063-1.388,1.008-2.565,2.398-2.633,5.151-.243,11-.59,11.871-.757,1.055-.214,2.172-.805,2.916-1.548.554-.555,1.197-1.922,1.197-3.961l.014-.884c.033-1.398.021-1.788-.54-2.442-.635-.73-1.158-.871-2.402-.924h-12.938c-1.385,0-2.509-1.114-2.519-2.499l-.101-12.715c-.003-.674.257-1.317.73-1.795s1.118-.744,1.789-.744h17.281c1.392,0,2.52,1.128,2.52,2.52s-1.128,2.519-2.52,2.519h-14.743l.061,7.677h10.546c2.099.09,4.2.471,6.109,2.673l.003.003Z" fill="#ccc"/>
      <path d="M1028.876,1020.353v20.618c0,3.507-3.089,6.355-6.889,6.355h-10.109c-3.863,0-6.89-2.792-6.89-6.355v-20.618c0-3.507,3.09-6.355,6.89-6.355h10.109c3.8,0,6.889,2.849,6.889,6.355ZM1023.839,1020.353c0-.728-.831-1.321-1.852-1.321h-10.109c-1.061,0-1.852.697-1.852,1.321v20.618c0,.728.831,1.321,1.852,1.321h10.109c1.061,0,1.852-.697,1.852-1.321v-20.618Z" fill="#ccc"/>
      <path d="M841.229,1060.066c1.391,0,2.519,1.127,2.519,2.519s-1.128,2.519-2.519,2.519h-6.89v25.707c0,1.391-1.128,2.519-2.52,2.519s-2.519-1.128-2.519-2.519v-25.707h-6.89c-1.391,0-2.519-1.127-2.519-2.519s1.128-2.519,2.519-2.519h18.817Z" fill="#ccc"/>
      <path d="M869.78,1068.029c.984,1.194,1.534,2.713,1.534,4.265v18.517c0,1.391-1.127,2.519-2.519,2.519s-2.519-1.128-2.519-2.519v-11.594h-13.846v11.594c0,1.391-1.128,2.519-2.52,2.519s-2.519-1.128-2.519-2.519v-18.517c0-1.521.523-2.983,1.511-4.234l4.23-5.168c3.013-3.606,9.456-3.586,12.429-.017l4.22,5.154h-.003ZM852.437,1074.175h13.85v-1.885c0-.387-.137-.754-.391-1.061l-4.214-5.148c-1.011-1.211-3.616-1.23-4.657.021l-4.188,5.121c-.356.443-.4.827-.4,1.071v1.881Z" fill="#ccc"/>
      <path d="M896.323,1076.751c1.614,1.618,2.505,3.764,2.505,6.052v1.535c0,2.655-1.271,5.201-3.402,6.812l-.754.54c-1.451,1.068-3.264,1.672-5.071,1.672h-5.572c-1.675,0-3.306-.49-4.717-1.418l-2.016-1.338c-1.161-.773-1.471-2.335-.704-3.493.774-1.161,2.336-1.468,3.493-.704l2.005,1.331c.567.377,1.262.584,1.942.584h5.571c.741,0,1.488-.25,2.108-.71l.731-.524c.823-.62,1.348-1.668,1.348-2.752v-1.535c0-.94-.37-1.821-1.034-2.488-.664-.668-1.549-1.035-2.486-1.035h-6.772c-2.285,0-4.438-.891-6.052-2.502-1.615-1.621-2.506-3.77-2.506-6.052v-2.068c0-2.285.891-4.435,2.506-6.053,1.614-1.614,3.764-2.505,6.052-2.505h6.272c1.698,0,3.336.49,4.734,1.421l2.002,1.338c1.157.771,1.468,2.339.697,3.493-.771,1.154-2.329,1.478-3.493.694l-2.002-1.335c-.567-.377-1.238-.577-1.938-.577h-6.272c-.94,0-1.828.367-2.488,1.031-.668.667-1.035,1.555-1.035,2.492v2.068c0,.938.371,1.825,1.035,2.492.66.664,1.548,1.027,2.488,1.027h6.772c2.282,0,4.431.891,6.049,2.506h.004Z" fill="#ccc"/>
      <path d="M938.826,1066.353v20.618c0,3.507-3.089,6.355-6.889,6.355h-10.109c-3.863,0-6.89-2.792-6.89-6.355v-20.618c0-3.507,3.09-6.355,6.89-6.355h10.109c3.8,0,6.889,2.849,6.889,6.355ZM933.789,1066.353c0-.728-.831-1.321-1.852-1.321h-10.109c-1.061,0-1.852.697-1.852,1.321v20.618c0,.728.831,1.321,1.852,1.321h10.109c1.061,0,1.852-.697,1.852-1.321v-20.618Z" fill="#ccc"/>
      <path d="M962.169,1090.224c-2.959,2.956-10.285,3.106-11.724,3.106-1.391,0-2.519-1.128-2.519-2.516s1.124-2.522,2.516-2.522c3.093-.003,7.206-.674,8.164-1.632,1.234-1.234,1.984-3.773,2.412-6.592-1.812.924-4.007,1.451-6.569,1.451-7.377,0-11.961-4.124-11.961-10.76,0-5.205,3.143-10.763,11.961-10.763,8.598,0,11.773,5.281,11.927,10.369.014.08.054.149.061.229.097,1.475.797,14.561-4.268,19.628ZM961.368,1070.757c0-3.8-2.332-5.725-6.923-5.725-4.657,0-6.923,1.875-6.923,5.725,0,3.797,2.329,5.723,6.923,5.723s6.923-1.922,6.923-5.723Z" fill="#ccc"/>
      <path d="M991.673,1075.622c1.548,1.548,2.401,3.603,2.401,5.781v2.369c0,3.029-1.44,5.905-3.853,7.696-1.632,1.234-3.624,1.896-5.739,1.896h-2.102c-1.912,0-7.594-1.062-9.602-2.068l-1.148-.541c-1.258-.594-1.795-2.095-1.2-3.353.594-1.262,2.092-1.792,3.353-1.201l1.201.567c1.114.557,5.922,1.562,7.399,1.562h2.103c1.008,0,1.945-.311,2.716-.892,1.171-.874,1.835-2.205,1.835-3.666v-2.369c0-.834-.33-1.621-.931-2.222l-.404-.404c-.48-.483-1.145-.761-1.818-.761h-4.971c-.971,0-1.858-.56-2.275-1.44s-.29-1.919.327-2.673l7.246-8.868h-10.002c-1.392,0-2.52-1.127-2.52-2.519s1.128-2.519,2.52-2.519h15.313c.971,0,1.858.561,2.275,1.44.417.878.29,1.919-.327,2.673l-7.253,8.875c1.885.083,3.71.887,5.051,2.229l.404.403v.004Z" fill="#ccc"/>
      <path d="M1019.106,1088.283c1.392,0,2.52,1.127,2.52,2.519s-1.128,2.519-2.52,2.519h-18.85c-.348,0-.681-.073-.981-.2-.02-.006-.033-.026-.053-.036-.291-.13-.551-.311-.768-.534-.01-.01-.023-.013-.033-.023-.09-.093-.127-.213-.197-.316-.11-.157-.23-.304-.3-.484-.07-.183-.087-.373-.113-.566-.021-.124-.074-.23-.074-.357,0-.014.007-.026.007-.04.004-.207.067-.403.12-.604.033-.117.037-.247.084-.357.043-.104.13-.187.189-.283.11-.184.217-.37.371-.521.01-.01.023-.033.023-.033l14.346-13.445c2.169-2.039,3.353-4.247,3.25-6.06-.07-1.268-.771-2.378-2.133-3.393-.917-.678-2.225-1.037-3.767-1.037-2.973,0-5.298.507-6.999,2.979-.787,1.151-2.353,1.438-3.503.651-1.145-.788-1.435-2.355-.647-3.504,3.55-5.161,9.071-5.161,11.149-5.161,2.626,0,4.965.701,6.767,2.025,3.242,2.419,4.054,5.225,4.163,7.156.19,3.35-1.524,6.906-4.834,10.019l-9.702,9.096h12.481l.003-.007Z" fill="#ccc"/>
      <path d="M863.671,1122.631l.1,7.974c0,2.372-.957,4.647-2.629,6.275-1.581,1.535-3.767,2.416-5.995,2.416h-6.072c-1.901,0-3.77-.638-5.255-1.802l-.544-.414c-2.132-1.611-3.359-4.097-3.359-6.81v-15.18c0-2.669,1.262-5.218,3.37-6.812l.561-.428c1.461-1.145,3.326-1.784,5.228-1.784h6.673c1.685,0,3.333.503,4.764,1.457l2.006,1.338c1.157.774,1.468,2.336.697,3.493-.771,1.161-2.332,1.469-3.493.697l-2.002-1.338c-.601-.4-1.281-.61-1.972-.61h-6.673c-.794,0-1.534.254-2.151.734l-.595.454c-.867.65-1.378,1.697-1.378,2.799v15.18c0,1.121.498,2.139,1.368,2.796l.577.44c.638.501,1.382.754,2.176.754h6.072c.931,0,1.835-.363,2.481-.99.711-.69,1.104-1.625,1.104-2.629l-.07-5.455h-5.755c-1.391,0-2.519-1.128-2.519-2.52s1.128-2.519,2.519-2.519h8.241c1.378,0,2.502,1.107,2.519,2.485l.007-.003Z" fill="#ccc"/>
      <path d="M888.798,1122.751c1.614,1.618,2.505,3.764,2.505,6.052v1.535c0,2.655-1.271,5.201-3.402,6.812l-.754.54c-1.451,1.068-3.264,1.672-5.071,1.672h-5.572c-1.675,0-3.306-.49-4.717-1.418l-2.016-1.338c-1.161-.773-1.472-2.335-.704-3.493.774-1.161,2.336-1.468,3.493-.704l2.005,1.331c.567.377,1.262.584,1.942.584h5.571c.741,0,1.488-.25,2.108-.71l.731-.524c.823-.62,1.348-1.668,1.348-2.752v-1.535c0-.94-.37-1.821-1.034-2.488-.664-.668-1.549-1.035-2.486-1.035h-6.772c-2.285,0-4.438-.891-6.052-2.502-1.615-1.621-2.506-3.77-2.506-6.052v-2.068c0-2.285.891-4.435,2.506-6.053,1.614-1.614,3.764-2.505,6.052-2.505h6.272c1.698,0,3.336.49,4.734,1.421l2.002,1.338c1.157.771,1.468,2.339.697,3.493s-2.329,1.478-3.493.694l-2.002-1.335c-.567-.377-1.238-.577-1.938-.577h-6.272c-.94,0-1.828.367-2.488,1.031-.668.667-1.035,1.555-1.035,2.492v2.068c0,.938.371,1.825,1.035,2.492.66.664,1.548,1.027,2.488,1.027h6.772c2.282,0,4.431.891,6.049,2.506h.004Z" fill="#ccc"/>
      <path d="M918.852,1112.353v20.618c0,3.507-3.089,6.355-6.889,6.355h-10.109c-3.863,0-6.89-2.792-6.89-6.355v-20.618c0-3.507,3.09-6.355,6.89-6.355h10.109c3.8,0,6.889,2.849,6.889,6.355ZM913.815,1112.353c0-.728-.831-1.321-1.852-1.321h-10.109c-1.061,0-1.852.697-1.852,1.321v20.618c0,.728.831,1.321,1.852,1.321h10.109c1.061,0,1.852-.697,1.852-1.321v-20.618Z" fill="#ccc"/>
      <path d="M946.369,1117.428c0,1.458-.544,2.883-1.518,4.037.974,1.157,1.518,2.579,1.518,4.037v7.276c0,1.778-.797,3.503-2.188,4.728-1.308,1.157-3.049,1.795-4.901,1.795h-9.675c-1.812,0-3.597-.654-4.897-1.795-1.415-1.248-2.192-2.926-2.192-4.728v-7.276c0-1.458.544-2.883,1.519-4.037-.978-1.161-1.519-2.586-1.519-4.037v-4.904c0-1.778.798-3.503,2.188-4.728,1.312-1.161,3.053-1.798,4.901-1.798h9.675c1.818,0,3.604.653,4.901,1.795,1.415,1.251,2.188,2.929,2.188,4.728v4.907ZM941.332,1125.495c0-.334-.19-.688-.518-.978l-.617-.54h-11.517l-.621.543c-.32.287-.511.641-.511.975v7.276c0,.344.164.661.484.944.384.337.971.54,1.568.54h9.675c.61,0,1.185-.193,1.568-.537.307-.267.487-.62.487-.947v-7.276ZM927.555,1112.523v4.904c0,.334.19.69.521.987l.607.531h11.521l.624-.544c.316-.284.507-.641.507-.975v-4.904c0-.347-.163-.667-.487-.951-.38-.333-.968-.537-1.568-.537h-9.675c-.61,0-1.181.197-1.564.537h-.004c-.304.268-.483.621-.483.948l.003.003Z" fill="#ccc"/>
      <path d="M969.694,1136.224c-2.959,2.956-10.285,3.106-11.724,3.106-1.391,0-2.519-1.128-2.519-2.516s1.124-2.522,2.516-2.522c3.093-.003,7.206-.674,8.164-1.632,1.234-1.234,1.984-3.773,2.412-6.592-1.812.924-4.007,1.451-6.569,1.451-7.377,0-11.961-4.124-11.961-10.76,0-5.205,3.143-10.763,11.961-10.763,8.598,0,11.773,5.281,11.927,10.369.014.08.054.149.061.229.097,1.475.797,14.561-4.268,19.628ZM968.893,1116.757c0-3.8-2.332-5.725-6.923-5.725-4.657,0-6.923,1.875-6.923,5.725,0,3.797,2.329,5.723,6.923,5.723s6.923-1.922,6.923-5.723Z" fill="#ccc"/>
      <path d="M999.083,1134.283c1.392,0,2.52,1.127,2.52,2.519s-1.128,2.519-2.52,2.519h-18.85c-.348,0-.681-.073-.981-.2-.02-.006-.033-.026-.053-.036-.291-.13-.551-.311-.768-.534-.01-.01-.023-.013-.033-.023-.09-.093-.127-.213-.197-.316-.11-.157-.23-.304-.3-.484-.07-.183-.087-.373-.113-.566-.021-.124-.074-.23-.074-.357,0-.014.007-.026.007-.04.004-.207.067-.403.12-.604.033-.117.037-.247.084-.357.043-.104.13-.187.189-.283.11-.184.217-.37.371-.521.01-.01.023-.033.023-.033l14.346-13.445c2.169-2.039,3.353-4.247,3.25-6.06-.07-1.268-.771-2.378-2.133-3.393-.917-.678-2.225-1.037-3.767-1.037-2.973,0-5.298.507-6.999,2.979-.787,1.151-2.353,1.438-3.503.651-1.145-.788-1.435-2.355-.647-3.504,3.55-5.161,9.071-5.161,11.149-5.161,2.626,0,4.965.701,6.767,2.025,3.242,2.419,4.054,5.225,4.163,7.156.19,3.35-1.524,6.906-4.834,10.019l-9.702,9.096h12.481l.003-.007Z" fill="#ccc"/>
    </g>
  </g>
</svg>