<?xml version="1.0" encoding="UTF-8"?>
<svg id="b" data-name="CDM_x2F_FPM_x2F_PFPM_-_Dark" xmlns="http://www.w3.org/2000/svg" width="2061.538" height="216.432" viewBox="0 0 2061.538 216.432">
  <path id="c" data-name="FPMCaged" d="M628.956,133.128c0,5.038-4.107,9.144-9.144,9.144s-9.144-4.107-9.144-9.144,4.107-9.144,9.144-9.144,9.144,4.107,9.144,9.144ZM610.667,133.128h-18.234M628.956,133.128h18.234M619.812,123.984v-9.09" fill="none" stroke="#ccc" stroke-linecap="square" stroke-miterlimit="15.1" stroke-width="6"/>
  <path id="d" data-name="CDM" d="M1000.262,142.273c-.986-2.847-1.588-5.914-1.588-9.144,0-15.113,12.265-27.378,27.378-27.378s27.378,12.266,27.378,27.378c0,3.231-.547,6.297-1.588,9.144M998.674,133.128h-54.757M1053.431,133.128h54.757M1026.053,105.75v-27.378" fill="none" stroke="#ccc" stroke-linecap="square" stroke-miterlimit="15.1" stroke-width="6"/>
  <path id="e" data-name="PotentialPath" d="M1144.769,73.046l-29.807,17.21,29.807,17.21" fill="none" stroke="#ccc" stroke-miterlimit="15.1" stroke-width="6"/>
</svg>