<?xml version="1.0" encoding="UTF-8"?>
<svg id="b" data-name="HUD_AOA_-_Dark" xmlns="http://www.w3.org/2000/svg" width="2061.538" height="626.087" viewBox="0 0 2061.538 626.087">
  <g>
    <path d="M478.351,554.318c2.078,2.418,2.021,4.716,1.973,6.565l-.015.848c0,3.452-1.091,6.521-2.993,8.426-1.629,1.625-3.871,2.817-6.15,3.273-1.756.351-11.262.818-14.135.948h-.135c-1.498,0-2.746-1.181-2.817-2.689-.071-1.555,1.128-2.874,2.687-2.948,5.769-.272,12.319-.661,13.294-.849,1.181-.239,2.433-.9,3.266-1.733.62-.62,1.341-2.152,1.341-4.436l.015-.99c.037-1.565.022-2.002-.605-2.734-.71-.818-1.296-.976-2.69-1.035h-14.49c-1.55,0-2.81-1.248-2.821-2.799l-.112-14.239c-.003-.755.288-1.476.818-2.011.531-.534,1.252-.833,2.003-.833h19.354c1.558,0,2.821,1.263,2.821,2.821s-1.263,2.821-2.821,2.821h-16.511l.067,8.598h11.811c2.35.101,4.704.526,6.841,2.992l.003.004Z" fill="#ccc"/>
    <path d="M499.421,573.645v.078c0,1.558-1.263,2.821-2.821,2.821s-2.821-1.264-2.821-2.821,1.263-2.862,2.821-2.862,2.821,1.226,2.821,2.784Z" fill="#ccc"/>
    <path d="M536.193,554.325c1.226.31,2.13,1.416,2.13,2.734s-.904,2.426-2.13,2.735v11.8c0,1.558-1.263,2.821-2.821,2.821s-2.821-1.264-2.821-2.821v-11.718h-14.853c-1.102,0-2.104-.635-2.563-1.637-.463-1.001-.299-2.178.415-3.015l14.647-17.15c.534-.628,1.319-.99,2.145-.99h3.027c1.558,0,2.821,1.263,2.821,2.821v14.411l.004.008ZM530.547,544.009l-8.732,10.227h8.732v-10.227Z" fill="#ccc"/>
  </g>
  <path id="c" data-name="FPMUncaged" d="M1052.897,290.606c0,14.545-11.795,26.34-26.34,26.34s-26.34-11.795-26.34-26.34,11.795-26.34,26.34-26.34,26.34,11.795,26.34,26.34ZM1000.216,290.606h-52.681M1052.897,290.606h52.681M1026.556,264.265v-26.34" fill="none" stroke="#ccc" stroke-linecap="square" stroke-miterlimit="15.1" stroke-width="6"/>
  <line x1="936.817" y1="391.304" x2="171.426" y2="391.304" fill="none" stroke="#ccc" stroke-linecap="square" stroke-miterlimit="15.1" stroke-width="6"/>
  <line x1="1115.998" y1="391.304" x2="1875.948" y2="391.304" fill="none" stroke="#ccc" stroke-linecap="square" stroke-miterlimit="15.1" stroke-width="6"/>
  <path d="M368.085,542.905l-13.431,16.416c-1.502,1.836-3.749,2.901-6.122,2.901h0c-2.098,0-4.11-.833-5.593-2.317l-.635-.635c-1.483-1.483-2.317-3.495-2.317-5.593v-.472c0-2.098.833-4.11,2.317-5.593l.635-.635c1.483-1.483,3.495-2.317,5.593-2.317h0c2.372,0,4.619,1.065,6.122,2.901l13.431,16.416" fill="none" stroke="#ccc" stroke-linecap="round" stroke-linejoin="round" stroke-width="6"/>
  <path id="d" data-name="AoABracket" d="M946.182,219.484h-18.73v138.601h18.73M940.938,290.658h-13.485" fill="none" stroke="#ccc" stroke-miterlimit="15.1" stroke-width="7"/>
</svg>