<?xml version="1.0" encoding="UTF-8"?>
<svg id="b" data-name="Navigation_Data_Readout_-_Dark" xmlns="http://www.w3.org/2000/svg" width="2061.538" height="216.432" viewBox="0 0 2061.538 216.432">
  <g>
    <path d="M1541.89,101.835v23.521c0,.667-.264,1.308-.737,1.778l-4.701,4.704c-.98.987-2.568.984-3.556.01l-2.93-2.909-2.93,2.909c-.49.487-1.134.731-1.774.731s-1.291-.247-1.781-.737l-4.705-4.704c-.474-.471-.737-1.115-.737-1.782v-23.521c0-1.391,1.128-2.519,2.52-2.519s2.519,1.128,2.519,2.519v22.477l2.192,2.192,2.179-2.165v-6.022c0-1.392,1.127-2.519,2.519-2.519s2.519,1.127,2.519,2.519v6.022l2.179,2.165,2.188-2.192v-22.477c0-1.391,1.128-2.519,2.52-2.519s2.519,1.128,2.519,2.519Z" fill="#ccc"/>
    <path d="M1568.841,101.224c1.225,1.225,1.902,2.866,1.902,4.618v6.072c0,1.725-.694,3.406-1.902,4.617-1.23,1.228-2.872,1.905-4.617,1.905h-12.298v11.624c0,1.391-1.128,2.519-2.519,2.519s-2.52-1.128-2.52-2.519v-28.225c0-1.391,1.128-2.519,2.52-2.519h14.813c1.725,0,3.406.694,4.617,1.905l.003.003ZM1565.705,105.835c0-.417-.144-.771-.427-1.051-.271-.273-.664-.434-1.055-.434h-12.298v9.044h12.298c.414,0,.764-.146,1.051-.434.271-.267.431-.661.431-1.051v-6.076Z" fill="#ccc"/>
  </g>
  <g>
    <path d="M1644.389,127.533c1.392,0,2.52,1.127,2.52,2.519s-1.128,2.519-2.52,2.519h-18.85c-.348,0-.681-.073-.981-.2-.02-.006-.033-.026-.053-.036-.291-.13-.551-.311-.768-.534-.01-.01-.023-.013-.033-.023-.09-.093-.127-.213-.197-.316-.11-.157-.23-.304-.3-.484-.07-.183-.087-.373-.113-.566-.021-.124-.074-.23-.074-.357,0-.014.007-.026.007-.04.004-.207.067-.403.12-.604.033-.117.037-.247.084-.357.043-.104.13-.187.189-.283.11-.184.217-.37.371-.521.01-.01.023-.033.023-.033l14.346-13.445c2.169-2.039,3.353-4.247,3.25-6.06-.07-1.268-.771-2.378-2.133-3.393-.917-.678-2.225-1.037-3.767-1.037-2.973,0-5.298.507-6.999,2.979-.787,1.151-2.353,1.438-3.503.651-1.145-.788-1.435-2.355-.647-3.504,3.55-5.161,9.071-5.161,11.149-5.161,2.626,0,4.965.701,6.767,2.025,3.242,2.419,4.054,5.225,4.163,7.156.19,3.35-1.524,6.906-4.834,10.019l-9.702,9.096h12.481l.003-.007Z" fill="#ccc"/>
    <path d="M1714.803,114.872c1.548,1.548,2.402,3.603,2.402,5.781v2.369c0,3.029-1.441,5.905-3.854,7.696-1.632,1.234-3.624,1.896-5.739,1.896h-2.102c-1.912,0-7.594-1.062-9.602-2.068l-1.148-.541c-1.257-.594-1.795-2.095-1.2-3.353.594-1.262,2.092-1.792,3.353-1.201l1.201.567c1.114.557,5.922,1.562,7.399,1.562h2.103c1.008,0,1.945-.311,2.716-.892,1.171-.874,1.835-2.205,1.835-3.666v-2.369c0-.834-.33-1.621-.931-2.222l-.404-.404c-.48-.483-1.145-.76-1.818-.76h-4.971c-.971,0-1.858-.561-2.275-1.441s-.29-1.919.327-2.673l7.246-8.868h-10.002c-1.392,0-2.52-1.127-2.52-2.519s1.128-2.519,2.52-2.519h15.313c.971,0,1.858.561,2.275,1.44.417.878.29,1.919-.327,2.673l-7.253,8.875c1.885.083,3.71.887,5.051,2.229l.404.403v.004Z" fill="#ccc"/>
    <path d="M1750.702,114.872c1.548,1.548,2.401,3.603,2.401,5.781v2.369c0,3.029-1.44,5.905-3.853,7.696-1.632,1.234-3.624,1.896-5.739,1.896h-2.102c-1.912,0-7.594-1.062-9.602-2.068l-1.148-.541c-1.258-.594-1.795-2.095-1.2-3.353.594-1.262,2.092-1.792,3.353-1.201l1.201.567c1.114.557,5.922,1.562,7.399,1.562h2.103c1.008,0,1.945-.311,2.716-.892,1.171-.874,1.835-2.205,1.835-3.666v-2.369c0-.834-.33-1.621-.931-2.222l-.404-.404c-.48-.483-1.145-.76-1.818-.76h-4.971c-.971,0-1.858-.561-2.275-1.441s-.29-1.919.327-2.673l7.246-8.868h-10.002c-1.392,0-2.52-1.127-2.52-2.519s1.128-2.519,2.52-2.519h15.313c.971,0,1.858.561,2.275,1.44.417.878.29,1.919-.327,2.673l-7.253,8.875c1.885.083,3.71.887,5.051,2.229l.404.403v.004Z" fill="#ccc"/>
    <path d="M1770.154,131.891v.07c0,1.392-1.128,2.519-2.519,2.519s-2.52-1.127-2.52-2.519,1.128-2.556,2.52-2.556,2.519,1.095,2.519,2.485Z" fill="#ccc"/>
    <path d="M1793.893,111.028c7.272,0,12.16,4.323,12.16,10.76,0,6.339-5.001,10.763-12.16,10.763s-11.728-4.224-11.728-10.763c0-.153.037-.287.04-.438-.007-.07-.04-.127-.04-.196,0-3.464,3.093-10.517,6.082-15.341,2.002-3.236,3.333-4.564,4.504-5.735.984-.984,2.626-1.03,3.61-.047.984.984,1.031,2.536.047,3.517l-.094.094c-1.074,1.071-2.085,2.085-3.783,4.824-.591.947-1.124,1.908-1.628,2.862.944-.18,1.928-.304,2.989-.304v.004ZM1801.016,121.784c0-5.164-4.981-5.722-7.123-5.722-3.053,0-6.689.994-6.689,5.722,0,3.693,2.375,5.726,6.689,5.726,4.394,0,7.123-2.192,7.123-5.726Z" fill="#ccc"/>
  </g>
</svg>