<?xml version="1.0" encoding="UTF-8"?>
<svg id="a" data-name="Dark" xmlns="http://www.w3.org/2000/svg" width="1659.13" height="457.043" viewBox="0 0 1659.13 457.043">
  <rect x="16.043" y="206.609" width="167.87" height="79.826" rx="39.913" ry="39.913" fill="none" stroke="#ccc" stroke-miterlimit="10" stroke-width="5"/>
  <rect x="328.444" y="206.609" width="167.87" height="79.826" rx="39.913" ry="39.913" fill="none" stroke="#ccc" stroke-miterlimit="10" stroke-width="5"/>
  <rect x="685.565" y="28.565" width="167.87" height="79.826" rx="39.913" ry="39.913" fill="none" stroke="#ccc" stroke-miterlimit="10" stroke-width="5"/>
  <rect x="1081.204" y="206.609" width="167.87" height="79.826" rx="39.913" ry="39.913" fill="none" stroke="#ccc" stroke-miterlimit="10" stroke-width="5"/>
  <rect x="1464.218" y="206.609" width="167.87" height="79.826" rx="39.913" ry="39.913" fill="none" stroke="#ccc" stroke-miterlimit="10" stroke-width="5"/>
  <path d="M310.957,68.478h27.955c40.575,0,73.467,32.892,73.467,73.467v54.489" fill="none" stroke="#ccc" stroke-linecap="round" stroke-miterlimit="10" stroke-width="5"/>
  <path d="M99.978,174.261v-32.315c0-40.575,32.892-73.467,73.467-73.467h33.946" fill="none" stroke="#ccc" stroke-linecap="round" stroke-miterlimit="10" stroke-width="5"/>
  <path d="M201.667,424.831h-27.955c-40.575,0-73.467-32.892-73.467-73.467v-54.489" fill="none" stroke="#ccc" stroke-linecap="round" stroke-miterlimit="10" stroke-width="5"/>
  <path d="M412.379,318.783v32.315c0,40.575-32.892,73.467-73.467,73.467h-33.946" fill="none" stroke="#ccc" stroke-linecap="round" stroke-miterlimit="10" stroke-width="5"/>
  <path d="M587.739,132.457v-27.357c0-20.619,16.715-37.335,37.335-37.335h43.274" fill="none" stroke="#ccc" stroke-linecap="round" stroke-miterlimit="10" stroke-width="5"/>
  <polyline points="507.913 246.522 587.739 246.522 587.739 182.348" fill="none" stroke="#ccc" stroke-linecap="round" stroke-miterlimit="10" stroke-width="5"/>
  <path d="M871.826,67.765h51.448c20.619,0,37.335,16.715,37.335,37.335v141.422h97.826" fill="none" stroke="#ccc" stroke-linecap="round" stroke-miterlimit="10" stroke-width="5"/>
  <line x1="587.739" y1="246.522" x2="706.304" y2="246.522" stroke="#ccc" stroke-linecap="round" stroke-miterlimit="10" stroke-width="5"/>
  <line x1="960.609" y1="246.522" x2="827.217" y2="246.522" stroke="#ccc" stroke-linecap="round" stroke-miterlimit="10" stroke-width="5"/>
  <line x1="1270.174" y1="246.522" x2="1439.217" y2="246.522" stroke="#ccc" stroke-linecap="round" stroke-miterlimit="10" stroke-width="5"/>
  <line x1="999.391" y1="342.783" x2="518.087" y2="342.783" fill="none" stroke="#ccc" stroke-linecap="round" stroke-miterlimit="10" stroke-width="5"/>
  <path d="M1548.153,298.565v6.883c0,20.619-16.715,37.335-37.335,37.335h-394.035" fill="none" stroke="#ccc" stroke-linecap="round" stroke-miterlimit="10" stroke-width="5"/>
  <line x1="1165.221" y1="342.866" x2="1165.221" y2="298.648" fill="none" stroke="#ccc" stroke-linecap="round" stroke-miterlimit="10" stroke-width="5"/>
  <g>
    <rect x="201.401" y="405.023" width="103.565" height="38.209" fill="none"/>
    <path d="M206.699,415.253h2.686v17.75h-2.686v-17.75ZM208.445,430.451h2.759c.415,0,.734-.124.958-.372s.336-.6.336-1.057v-9.789c0-.456-.112-.809-.336-1.057s-.543-.372-.958-.372h-2.759v-2.552h2.881c.813,0,1.509.151,2.087.452.578.302,1.02.739,1.324,1.312.306.574.458,1.269.458,2.082v10.059c0,.806-.154,1.498-.464,2.075-.31.578-.753,1.018-1.33,1.318-.578.302-1.274.452-2.088.452h-2.868v-2.552Z" fill="#ccc"/>
    <path d="M219.065,432.673c-.668-.342-1.179-.834-1.532-1.477-.354-.643-.531-1.42-.531-2.332v-9.473c0-.911.177-1.691.531-2.338.354-.646.864-1.139,1.532-1.477.667-.338,1.473-.507,2.417-.507s1.749.169,2.417.507c.667.338,1.178.83,1.531,1.477.354.646.531,1.427.531,2.338v9.473c0,.912-.177,1.689-.531,2.332-.354.643-.864,1.135-1.531,1.477-.668.342-1.474.513-2.417.513s-1.75-.171-2.417-.513ZM222.446,430.329c.269-.146.472-.355.61-.629.139-.272.208-.6.208-.982v-9.191c0-.383-.069-.711-.208-.982-.139-.273-.342-.48-.61-.623s-.59-.214-.964-.214-.696.071-.965.214-.472.35-.61.623c-.139.271-.207.6-.207.982v9.191c0,.383.068.71.207.982.139.273.342.482.61.629s.59.22.965.22.695-.073.964-.22Z" fill="#ccc"/>
    <path d="M229.507,432.679c-.622-.338-1.094-.83-1.416-1.477-.321-.646-.481-1.426-.481-2.338v-13.611h2.686v13.697c0,.512.126.904.378,1.178.252.272.61.408,1.074.408.472,0,.836-.136,1.093-.408.256-.273.385-.666.385-1.178v-13.697h2.686v13.611c0,.912-.165,1.691-.495,2.338-.329.646-.804,1.139-1.422,1.477s-1.367.507-2.246.507c-.871,0-1.617-.169-2.24-.507Z" fill="#ccc"/>
    <path d="M237.802,415.253h2.686v17.75h-2.686v-17.75ZM239.402,430.488h2.795c.456,0,.806-.115,1.05-.348s.366-.555.366-.971v-2.344c0-.373-.059-.693-.177-.957-.118-.266-.291-.467-.519-.605-.229-.138-.497-.207-.806-.207h-2.71v-2.502h2.673c.423,0,.751-.141.982-.422.232-.281.349-.682.349-1.202v-1.855c0-.415-.114-.736-.342-.964s-.55-.342-.965-.342h-2.697v-2.516h2.819c.806,0,1.497.141,2.075.422s1.018.691,1.318,1.232.452,1.19.452,1.947v1.893c0,.553-.098,1.039-.293,1.459-.195.418-.473.762-.83,1.031-.358.268-.794.451-1.307.549.562.082,1.04.261,1.435.537.395.277.697.637.909,1.08s.317.963.317,1.557v2.381c0,.773-.148,1.432-.445,1.977-.297.546-.727.963-1.288,1.252s-1.241.434-2.038.434h-3.125v-2.516Z" fill="#ccc"/>
    <path d="M248.289,415.253h2.686v17.75h-2.686v-17.75ZM249.546,430.451h6.263v2.552h-6.263v-2.552Z" fill="#ccc"/>
    <path d="M257.493,415.253h2.686v17.75h-2.686v-17.75ZM258.774,415.253h6.482v2.576h-6.482v-2.576ZM258.774,422.908h5.872v2.563h-5.872v-2.563ZM258.774,430.427h6.482v2.576h-6.482v-2.576Z" fill="#ccc"/>
    <path d="M270.75,415.253h8.765v2.552h-8.765v-2.552ZM273.801,416.718h2.661v16.285h-2.661v-16.285Z" fill="#ccc"/>
    <path d="M283.298,415.253h2.124l4.175,17.75h-2.747l-2.49-12.879-2.49,12.879h-2.746l4.175-17.75ZM281.882,427.18h5.054v2.503h-5.054v-2.503Z" fill="#ccc"/>
    <path d="M291.038,415.253h2.686v17.75h-2.686v-17.75ZM292.392,423.567h3.247c.285,0,.529-.065.732-.195s.36-.317.471-.562c.109-.244.164-.541.164-.891v-2.405c0-.366-.053-.675-.158-.928-.106-.252-.263-.446-.47-.579-.208-.135-.454-.202-.739-.202h-3.247v-2.552h3.271c.854,0,1.585.157,2.191.471.606.312,1.07.773,1.392,1.379.321.606.482,1.333.482,2.18v2.893c0,.83-.163,1.54-.488,2.131-.326.59-.792,1.039-1.397,1.348-.606.311-1.333.465-2.18.465h-3.271v-2.552Z" fill="#ccc"/>
  </g>
  <g>
    <rect x="16.043" y="206.609" width="167.87" height="79.826" fill="none"/>
    <path d="M48.803,225.933h6.23v41.178h-6.23v-41.178ZM52.287,243.888h13.197v5.862h-13.197v-5.862ZM61.887,225.933h6.23v41.178h-6.23v-41.178Z" fill="#ccc"/>
    <path d="M73.442,225.905h6.146v41.206h-6.146v-41.206ZM76.274,243.775h7.533c.774,0,1.444-.142,2.011-.425s.996-.694,1.289-1.232c.292-.538.448-1.204.467-1.997v-4.39c0-.812-.146-1.51-.439-2.096-.293-.585-.727-1.034-1.303-1.345-.576-.312-1.251-.467-2.025-.467h-7.533v-5.919h7.08c2.209,0,4.097.364,5.664,1.09,1.567.727,2.766,1.794,3.597,3.2.831,1.407,1.246,3.092,1.246,5.055v4.814c0,2.021-.416,3.752-1.246,5.197-.831,1.444-2.035,2.544-3.611,3.299-1.577.755-3.46,1.133-5.65,1.133h-7.08v-5.919ZM82.674,248.419l5.749-1.303,6.599,19.994h-6.74l-5.607-18.691Z" fill="#ccc"/>
    <path d="M110.683,225.933h4.701l4.786,30.189,2.832-30.189h6.259l-5.466,41.178h-6.315l-4.276-27.301-4.588,27.301h-6.315l-5.494-41.178h6.259l2.832,30.189,4.786-30.189Z" fill="#ccc"/>
    <path d="M135.733,266.374c-1.52-.774-2.681-1.897-3.483-3.37-.803-1.473-1.194-3.266-1.175-5.381v-2.124l6.174-.057v2.039c0,1.265.344,2.247,1.034,2.945.689.699,1.675,1.048,2.959,1.048,1.227,0,2.176-.344,2.846-1.034.67-.689,1.005-1.666,1.005-2.931v-3.597c0-.887-.227-1.643-.68-2.266s-1.034-1.147-1.742-1.572-1.676-.93-2.903-1.515c-.057-.019-.113-.042-.17-.071s-.113-.052-.17-.071l-.368-.17c-1.624-.793-2.983-1.586-4.078-2.379-1.095-.793-2.016-1.869-2.761-3.229-.746-1.359-1.119-3.059-1.119-5.098v-2.237c0-2.077.392-3.852,1.175-5.324.783-1.473,1.93-2.586,3.441-3.342,1.51-.755,3.332-1.133,5.466-1.133,2.096,0,3.88.382,5.353,1.147s2.591,1.888,3.356,3.37c.765,1.482,1.156,3.271,1.175,5.367v2.237l-6.202.057v-2.124c0-1.303-.321-2.298-.963-2.988-.642-.689-1.548-1.034-2.719-1.034-1.265,0-2.228.326-2.889.977-.661.651-.991,1.553-.991,2.705v2.662c0,.906.222,1.681.666,2.322.443.642,1.005,1.166,1.685,1.572.68.406,1.614.892,2.804,1.458.17.076.335.156.496.241.16.085.326.175.496.269.057.019.123.042.198.071.075.028.142.062.198.099,1.604.774,2.898,1.511,3.88,2.209.981.699,1.822,1.685,2.521,2.959.698,1.274,1.048,2.913,1.048,4.914v3.597c0,2.115-.392,3.918-1.175,5.409-.784,1.491-1.926,2.62-3.427,3.384-1.501.766-3.318,1.147-5.452,1.147-2.152,0-3.989-.387-5.508-1.161Z" fill="#ccc"/>
  </g>
  <g>
    <rect x="328.444" y="206.609" width="167.87" height="79.826" fill="none"/>
    <path d="M349.183,225.933h20.334v5.919h-20.334v-5.919ZM356.263,229.331h6.174v37.779h-6.174v-37.779Z" fill="#ccc"/>
    <path d="M386.735,225.933h4.701l4.786,30.189,2.832-30.189h6.259l-5.466,41.178h-6.315l-4.276-27.301-4.588,27.301h-6.315l-5.494-41.178h6.259l2.832,30.189,4.786-30.189Z" fill="#ccc"/>
    <path d="M411.785,266.374c-1.52-.774-2.681-1.897-3.483-3.37-.803-1.473-1.194-3.266-1.175-5.381v-2.124l6.174-.057v2.039c0,1.265.344,2.247,1.034,2.945.689.699,1.675,1.048,2.959,1.048,1.227,0,2.176-.344,2.846-1.034.67-.689,1.005-1.666,1.005-2.931v-3.597c0-.887-.227-1.643-.68-2.266s-1.034-1.147-1.742-1.572-1.676-.93-2.903-1.515c-.057-.019-.113-.042-.17-.071s-.113-.052-.17-.071l-.368-.17c-1.624-.793-2.983-1.586-4.078-2.379-1.095-.793-2.016-1.869-2.761-3.229-.746-1.359-1.119-3.059-1.119-5.098v-2.237c0-2.077.392-3.852,1.175-5.324.783-1.473,1.93-2.586,3.441-3.342,1.51-.755,3.332-1.133,5.466-1.133,2.096,0,3.88.382,5.353,1.147s2.591,1.888,3.356,3.37c.765,1.482,1.156,3.271,1.175,5.367v2.237l-6.202.057v-2.124c0-1.303-.321-2.298-.963-2.988-.642-.689-1.548-1.034-2.719-1.034-1.265,0-2.228.326-2.889.977-.661.651-.991,1.553-.991,2.705v2.662c0,.906.222,1.681.666,2.322.443.642,1.005,1.166,1.685,1.572.68.406,1.614.892,2.804,1.458.17.076.335.156.496.241.16.085.326.175.496.269.057.019.123.042.198.071.075.028.142.062.198.099,1.604.774,2.898,1.511,3.88,2.209.981.699,1.822,1.685,2.521,2.959.698,1.274,1.048,2.913,1.048,4.914v3.597c0,2.115-.392,3.918-1.175,5.409-.784,1.491-1.926,2.62-3.427,3.384-1.501.766-3.318,1.147-5.452,1.147-2.152,0-3.989-.387-5.508-1.161Z" fill="#ccc"/>
    <path d="M447.652,249.41v5.891h-14.84v-5.891h14.84Z" fill="#ccc"/>
    <path d="M460.113,225.933h4.928l9.686,41.178h-6.372l-5.777-29.878-5.777,29.878h-6.372l9.686-41.178ZM456.828,253.602h11.725v5.806h-11.725v-5.806Z" fill="#ccc"/>
  </g>
  <g>
    <rect x="685.565" y="28.565" width="167.87" height="79.826" fill="none"/>
    <path d="M696.509,56.054h3.094l6.323,17.825-.496.547v-18.372h3.486v24.832h-3.127l-6.272-17.039.496-.564v17.603h-3.504v-24.832Z" fill="#ccc"/>
    <path d="M712.13,56.054h3.76v24.849h-3.76v-24.849ZM713.924,56.054h9.074v3.606h-9.074v-3.606ZM713.924,66.769h8.22v3.589h-8.22v-3.589ZM713.924,77.297h9.074v3.606h-9.074v-3.606Z" fill="#ccc"/>
    <path d="M729.647,66.616l3.486-10.562h4.05l-5.64,13.723-3.845,11.125h-4.051l5.999-14.287ZM729.835,70.546l-.649-1.401-5.332-13.091h4.051l3.179,9.57.752,1.624,5.725,13.655h-4.05l-3.675-10.356Z" fill="#ccc"/>
    <path d="M738.721,56.054h12.271v3.572h-12.271v-3.572ZM742.994,58.105h3.726v22.798h-3.726v-22.798Z" fill="#ccc"/>
    <path d="M759.537,56.054h3.76v24.849h-3.76v-24.849ZM761.297,77.331h8.767v3.572h-8.767v-3.572Z" fill="#ccc"/>
    <path d="M777.413,56.054h2.974l5.845,24.849h-3.845l-3.486-18.03-3.486,18.03h-3.846l5.845-24.849ZM775.43,72.751h7.075v3.503h-7.075v-3.503Z" fill="#ccc"/>
    <path d="M789.316,80.45c-.872-.472-1.532-1.162-1.982-2.067-.45-.906-.675-1.997-.675-3.273v-19.055h3.76v19.175c0,.718.176,1.268.529,1.649s.854.572,1.504.572c.661,0,1.171-.19,1.529-.572.359-.382.539-.932.539-1.649v-19.175h3.76v19.055c0,1.276-.231,2.367-.692,3.273-.462.905-1.125,1.595-1.991,2.067-.866.473-1.914.709-3.145.709-1.219,0-2.265-.237-3.136-.709Z" fill="#ccc"/>
    <path d="M800.928,56.054h3.094l6.323,17.825-.496.547v-18.372h3.486v24.832h-3.127l-6.272-17.039.496-.564v17.603h-3.504v-24.832Z" fill="#ccc"/>
    <path d="M819.266,80.407c-.878-.501-1.55-1.225-2.017-2.17-.468-.945-.701-2.085-.701-3.418v-12.664c0-1.344.233-2.489.701-3.435.467-.945,1.139-1.669,2.017-2.17.877-.501,1.931-.752,3.161-.752,1.242,0,2.302.248,3.179.744.877.495,1.547,1.222,2.008,2.179.462.957.692,2.102.692,3.435v1.521h-3.794v-1.521c0-.547-.08-1.02-.239-1.418-.159-.398-.396-.701-.709-.906s-.692-.308-1.137-.308c-.433,0-.803.103-1.11.308s-.547.504-.718.897c-.171.394-.257.869-.257,1.427v12.664c0,.559.086,1.031.257,1.418.171.388.41.684.718.889s.678.308,1.11.308c.456,0,.838-.105,1.146-.316s.541-.51.7-.897c.159-.387.239-.86.239-1.418v-1.521h3.794v1.521c-.012,1.333-.245,2.478-.7,3.435-.456.957-1.126,1.684-2.009,2.179-.883.496-1.939.744-3.17.744s-2.284-.251-3.161-.752Z" fill="#ccc"/>
    <path d="M830.836,56.054h3.76v24.849h-3.76v-24.849ZM832.938,66.889h7.964v3.538h-7.964v-3.538ZM838.731,56.054h3.76v24.849h-3.76v-24.849Z" fill="#ccc"/>
  </g>
  <g>
    <rect x="1081.204" y="206.609" width="167.87" height="79.826" fill="none"/>
    <path d="M1108.838,225.933h6.23v41.178h-6.23v-41.178ZM1111.981,245.219h7.533c.661,0,1.228-.151,1.699-.453.472-.302.836-.736,1.091-1.303s.382-1.255.382-2.067v-5.579c0-.85-.123-1.567-.368-2.152-.245-.585-.608-1.034-1.09-1.345s-1.053-.467-1.714-.467h-7.533v-5.919h7.59c1.982,0,3.677.364,5.084,1.09,1.406.727,2.482,1.794,3.229,3.2.745,1.407,1.118,3.092,1.118,5.055v6.712c0,1.926-.378,3.573-1.133,4.942-.755,1.369-1.836,2.412-3.242,3.129-1.407.718-3.092,1.076-5.056,1.076h-7.59v-5.919Z" fill="#ccc"/>
    <path d="M1133.618,225.933h6.23v41.178h-6.23v-41.178ZM1137.668,261.192h6.4c.963,0,1.704-.288,2.224-.864.519-.576.778-1.392.778-2.45v-22.713c0-1.057-.26-1.874-.778-2.45-.52-.576-1.261-.864-2.224-.864h-6.4v-5.919h6.684c1.888,0,3.502.35,4.843,1.048,1.341.699,2.365,1.713,3.073,3.044s1.062,2.941,1.062,4.829v23.336c0,1.869-.358,3.474-1.076,4.814-.718,1.341-1.746,2.36-3.087,3.059s-2.955,1.048-4.843,1.048h-6.655v-5.919Z" fill="#ccc"/>
    <path d="M1161.783,266.374c-1.521-.774-2.682-1.897-3.483-3.37-.803-1.473-1.194-3.266-1.176-5.381v-2.124l6.174-.057v2.039c0,1.265.345,2.247,1.034,2.945.688.699,1.675,1.048,2.959,1.048,1.228,0,2.176-.344,2.847-1.034.67-.689,1.005-1.666,1.005-2.931v-3.597c0-.887-.227-1.643-.68-2.266s-1.033-1.147-1.741-1.572-1.676-.93-2.903-1.515c-.057-.019-.113-.042-.17-.071s-.113-.052-.17-.071l-.368-.17c-1.624-.793-2.983-1.586-4.078-2.379s-2.016-1.869-2.761-3.229c-.746-1.359-1.119-3.059-1.119-5.098v-2.237c0-2.077.392-3.852,1.176-5.324.783-1.473,1.93-2.586,3.44-3.342,1.511-.755,3.332-1.133,5.466-1.133,2.096,0,3.88.382,5.353,1.147s2.592,1.888,3.356,3.37c.765,1.482,1.156,3.271,1.175,5.367v2.237l-6.202.057v-2.124c0-1.303-.321-2.298-.963-2.988-.642-.689-1.548-1.034-2.719-1.034-1.265,0-2.228.326-2.889.977s-.991,1.553-.991,2.705v2.662c0,.906.222,1.681.666,2.322.443.642,1.005,1.166,1.685,1.572.68.406,1.614.892,2.804,1.458.17.076.335.156.496.241.16.085.325.175.495.269.057.019.123.042.198.071s.142.062.198.099c1.604.774,2.898,1.511,3.88,2.209.981.699,1.822,1.685,2.521,2.959s1.048,2.913,1.048,4.914v3.597c0,2.115-.392,3.918-1.175,5.409-.784,1.491-1.926,2.62-3.427,3.384-1.501.766-3.318,1.147-5.452,1.147-2.152,0-3.988-.387-5.508-1.161Z" fill="#ccc"/>
    <path d="M1179.695,225.933h20.334v5.919h-20.334v-5.919ZM1186.775,229.331h6.174v37.779h-6.174v-37.779Z" fill="#ccc"/>
    <path d="M1203.937,225.933h20.334v5.919h-20.334v-5.919ZM1211.017,229.331h6.174v37.779h-6.174v-37.779Z" fill="#ccc"/>
  </g>
  <g>
    <rect x="1464.218" y="206.609" width="167.87" height="79.826" fill="none"/>
    <path d="M1503.803,225.933h6.23v41.178h-6.23v-41.178ZM1506.947,245.219h7.533c.66,0,1.227-.151,1.699-.453.472-.302.835-.736,1.09-1.303s.383-1.255.383-2.067v-5.579c0-.85-.123-1.567-.368-2.152-.246-.585-.609-1.034-1.091-1.345s-1.053-.467-1.713-.467h-7.533v-5.919h7.59c1.982,0,3.677.364,5.083,1.09,1.406.727,2.482,1.794,3.229,3.2.746,1.407,1.119,3.092,1.119,5.055v6.712c0,1.926-.378,3.573-1.133,4.942-.756,1.369-1.837,2.412-3.243,3.129-1.406.718-3.092,1.076-5.055,1.076h-7.59v-5.919Z" fill="#ccc"/>
    <path d="M1532.845,266.374c-1.52-.774-2.681-1.897-3.483-3.37s-1.194-3.266-1.175-5.381v-2.124l6.174-.057v2.039c0,1.265.344,2.247,1.033,2.945.689.699,1.676,1.048,2.96,1.048,1.227,0,2.176-.344,2.846-1.034.67-.689,1.006-1.666,1.006-2.931v-3.597c0-.887-.227-1.643-.68-2.266s-1.034-1.147-1.742-1.572-1.676-.93-2.902-1.515c-.057-.019-.113-.042-.17-.071s-.113-.052-.17-.071l-.368-.17c-1.624-.793-2.983-1.586-4.078-2.379-1.096-.793-2.016-1.869-2.762-3.229s-1.118-3.059-1.118-5.098v-2.237c0-2.077.392-3.852,1.175-5.324s1.931-2.586,3.441-3.342,3.332-1.133,5.466-1.133c2.096,0,3.88.382,5.353,1.147s2.591,1.888,3.355,3.37c.765,1.482,1.156,3.271,1.176,5.367v2.237l-6.202.057v-2.124c0-1.303-.321-2.298-.963-2.988-.643-.689-1.549-1.034-2.719-1.034-1.266,0-2.229.326-2.889.977-.661.651-.991,1.553-.991,2.705v2.662c0,.906.222,1.681.665,2.322.443.642,1.006,1.166,1.686,1.572.68.406,1.614.892,2.804,1.458.17.076.335.156.495.241s.326.175.496.269c.057.019.122.042.198.071.075.028.142.062.198.099,1.604.774,2.897,1.511,3.88,2.209.981.699,1.821,1.685,2.521,2.959.698,1.274,1.048,2.913,1.048,4.914v3.597c0,2.115-.393,3.918-1.176,5.409s-1.926,2.62-3.427,3.384c-1.501.766-3.318,1.147-5.451,1.147-2.152,0-3.989-.387-5.509-1.161Z" fill="#ccc"/>
    <path d="M1550.758,225.933h20.334v5.919h-20.334v-5.919ZM1557.838,229.331h6.174v37.779h-6.174v-37.779Z" fill="#ccc"/>
    <path d="M1575.001,225.933h20.334v5.919h-20.334v-5.919ZM1582.081,229.331h6.174v37.779h-6.174v-37.779Z" fill="#ccc"/>
  </g>
  <polygon points="99.978 196.435 110.086 158.935 89.87 158.935 99.978 196.435" fill="#ccc"/>
  <g>
    <rect x="207.391" y="48.66" width="103.565" height="38.209" fill="none"/>
    <path d="M212.69,58.89h2.686v17.749h-2.686v-17.749ZM214.435,74.088h2.759c.415,0,.734-.124.958-.373.224-.248.335-.6.335-1.056v-9.79c0-.456-.112-.808-.335-1.056-.224-.249-.543-.373-.958-.373h-2.759v-2.551h2.881c.813,0,1.509.151,2.087.452.578.301,1.02.739,1.324,1.312.306.574.458,1.268.458,2.082v10.059c0,.806-.155,1.498-.464,2.075-.31.578-.753,1.018-1.331,1.318-.578.301-1.274.452-2.087.452h-2.869v-2.551Z" fill="#ccc"/>
    <path d="M225.055,76.31c-.667-.342-1.178-.834-1.532-1.477-.354-.643-.531-1.42-.531-2.332v-9.473c0-.911.177-1.691.531-2.337.354-.647.864-1.14,1.532-1.478.667-.337,1.473-.506,2.417-.506s1.75.169,2.417.506c.667.338,1.178.83,1.532,1.478.354.646.531,1.426.531,2.337v9.473c0,.912-.177,1.689-.531,2.332-.354.643-.865,1.135-1.532,1.477-.667.342-1.473.513-2.417.513s-1.75-.171-2.417-.513ZM228.437,73.966c.269-.146.472-.356.61-.628.138-.273.208-.6.208-.983v-9.192c0-.382-.069-.71-.208-.982-.139-.273-.342-.48-.61-.623-.269-.142-.59-.213-.964-.213s-.696.071-.964.213c-.269.143-.472.35-.61.623-.139.272-.208.6-.208.982v9.192c0,.383.069.71.208.983.138.272.342.482.61.628s.59.22.964.22.696-.073.964-.22Z" fill="#ccc"/>
    <path d="M235.498,76.316c-.622-.338-1.094-.83-1.416-1.478-.321-.646-.482-1.426-.482-2.337v-13.611h2.686v13.696c0,.513.126.905.378,1.178.252.273.61.409,1.074.409.472,0,.836-.136,1.093-.409.256-.272.384-.665.384-1.178v-13.696h2.686v13.611c0,.912-.165,1.691-.495,2.337-.329.647-.804,1.14-1.422,1.478-.619.337-1.367.506-2.246.506-.871,0-1.617-.169-2.24-.506Z" fill="#ccc"/>
    <path d="M243.793,58.89h2.686v17.749h-2.686v-17.749ZM245.392,74.125h2.795c.456,0,.806-.116,1.05-.348.244-.232.366-.556.366-.971v-2.344c0-.374-.059-.694-.177-.958-.118-.265-.292-.466-.519-.604-.228-.138-.497-.208-.806-.208h-2.71v-2.502h2.673c.423,0,.751-.141.982-.421.232-.281.348-.682.348-1.203v-1.855c0-.415-.114-.736-.342-.964-.228-.228-.549-.342-.964-.342h-2.698v-2.515h2.82c.806,0,1.497.141,2.075.421.578.281,1.017.692,1.318,1.233.301.541.452,1.19.452,1.947v1.892c0,.554-.098,1.04-.293,1.459-.195.419-.472.763-.83,1.031-.358.269-.793.452-1.306.549.562.082,1.04.261,1.435.537.395.277.697.637.909,1.081.211.443.317.962.317,1.556v2.38c0,.773-.148,1.433-.445,1.978-.297.545-.727.962-1.288,1.251-.562.289-1.241.434-2.039.434h-3.125v-2.515Z" fill="#ccc"/>
    <path d="M254.279,58.89h2.686v17.749h-2.686v-17.749ZM255.536,74.088h6.262v2.551h-6.262v-2.551Z" fill="#ccc"/>
    <path d="M263.483,58.89h2.686v17.749h-2.686v-17.749ZM264.765,58.89h6.482v2.576h-6.482v-2.576ZM264.765,66.544h5.872v2.563h-5.872v-2.563ZM264.765,74.064h6.482v2.576h-6.482v-2.576Z" fill="#ccc"/>
    <path d="M276.74,58.89h8.765v2.551h-8.765v-2.551ZM279.792,60.355h2.661v16.284h-2.661v-16.284Z" fill="#ccc"/>
    <path d="M289.289,58.89h2.124l4.175,17.749h-2.747l-2.49-12.878-2.49,12.878h-2.747l4.175-17.749ZM287.873,70.817h5.054v2.502h-5.054v-2.502Z" fill="#ccc"/>
    <path d="M297.028,58.89h2.686v17.749h-2.686v-17.749ZM298.383,67.203h3.247c.285,0,.529-.065.732-.195.203-.13.36-.317.47-.562.109-.244.165-.541.165-.891v-2.405c0-.366-.053-.675-.159-.928-.106-.252-.263-.446-.47-.58-.208-.135-.454-.202-.739-.202h-3.247v-2.551h3.271c.854,0,1.585.157,2.191.47.606.313,1.07.773,1.392,1.38.322.606.482,1.333.482,2.179v2.893c0,.83-.163,1.54-.488,2.13-.326.59-.792,1.04-1.397,1.349-.606.31-1.333.464-2.179.464h-3.271v-2.551Z" fill="#ccc"/>
  </g>
  <polygon points="412.379 296.609 402.271 334.109 422.487 334.109 412.379 296.609" fill="#ccc"/>
  <g>
    <rect x="536.714" y="125.341" width="103.565" height="64.076" fill="none"/>
    <path d="M546.046,154.436c-.655-.333-1.155-.818-1.501-1.453-.346-.635-.515-1.408-.507-2.319v-.916l2.661-.024v.879c0,.545.148.969.445,1.27.297.301.722.452,1.276.452.529,0,.938-.148,1.227-.446.289-.297.433-.718.433-1.263v-1.55c0-.382-.098-.708-.293-.977s-.446-.494-.75-.678c-.306-.183-.723-.4-1.251-.653-.024-.008-.049-.018-.073-.031-.024-.012-.049-.022-.073-.03l-.159-.073c-.7-.342-1.286-.684-1.758-1.025-.472-.342-.869-.806-1.19-1.392-.321-.586-.482-1.318-.482-2.197v-.964c0-.895.169-1.66.506-2.295.338-.635.832-1.115,1.483-1.44.651-.325,1.436-.488,2.356-.488.903,0,1.672.165,2.307.495.635.329,1.117.813,1.446,1.452.33.639.499,1.41.507,2.313v.964l-2.673.024v-.916c0-.562-.139-.991-.415-1.288-.277-.297-.667-.445-1.172-.445-.545,0-.96.141-1.245.421-.285.281-.427.67-.427,1.166v1.147c0,.391.096.725.287,1.001.191.277.433.502.726.678.293.175.696.384,1.208.628.073.033.145.067.214.104.069.036.14.075.213.116.024.008.053.018.085.031.032.012.061.026.085.042.691.334,1.249.651,1.672.952.423.301.785.726,1.086,1.276.301.549.452,1.255.452,2.118v1.55c0,.912-.169,1.689-.507,2.332-.337.643-.83,1.129-1.477,1.458-.647.33-1.431.495-2.35.495-.928,0-1.719-.167-2.375-.5Z" fill="#ccc"/>
    <path d="M557.295,154.753h-2.686v-17.749h2.686v17.749Z" fill="#ccc"/>
    <path d="M559.456,137.004h2.209l4.517,12.732-.354.391v-13.123h2.49v17.737h-2.234l-4.48-12.17.354-.403v12.573h-2.502v-17.737Z" fill="#ccc"/>
    <path d="M579.353,145.183v5.249c0,.944-.171,1.752-.513,2.423-.342.672-.836,1.187-1.483,1.544-.646.358-1.426.537-2.337.537-.92,0-1.709-.169-2.368-.506-.659-.338-1.164-.83-1.514-1.478-.35-.646-.525-1.422-.525-2.325v-9.241c0-.96.171-1.782.513-2.466s.836-1.204,1.483-1.562c.646-.358,1.426-.537,2.337-.537.887,0,1.65.173,2.289.519.639.346,1.125.853,1.459,1.52.333.667.504,1.465.513,2.393v1.123h-2.795v-1.123c0-.374-.057-.694-.171-.958-.114-.265-.281-.466-.5-.604-.22-.138-.484-.208-.793-.208-.342,0-.635.075-.879.226-.244.15-.432.368-.562.653-.13.285-.195.627-.195,1.025v9.241c0,.334.067.627.202.879.134.252.329.444.586.574.256.13.563.195.921.195.35,0,.651-.071.903-.213.252-.143.446-.348.58-.617.135-.269.202-.598.202-.989v-2.734h-1.746v-2.539h4.395Z" fill="#ccc"/>
    <path d="M581.404,137.004h2.686v17.749h-2.686v-17.749ZM582.661,152.202h6.262v2.551h-6.262v-2.551Z" fill="#ccc"/>
    <path d="M590.608,137.004h2.686v17.749h-2.686v-17.749ZM591.89,137.004h6.482v2.576h-6.482v-2.576ZM591.89,144.658h5.872v2.563h-5.872v-2.563ZM591.89,152.178h6.482v2.576h-6.482v-2.576Z" fill="#ccc"/>
    <path d="M603.865,137.004h8.765v2.551h-8.765v-2.551ZM606.917,138.469h2.661v16.284h-2.661v-16.284Z" fill="#ccc"/>
    <path d="M616.414,137.004h2.124l4.175,17.749h-2.747l-2.49-12.878-2.49,12.878h-2.747l4.175-17.749ZM614.998,148.93h5.054v2.502h-5.054v-2.502Z" fill="#ccc"/>
    <path d="M624.153,137.004h2.686v17.749h-2.686v-17.749ZM625.508,145.317h3.247c.285,0,.529-.065.732-.195.203-.13.36-.317.47-.562.109-.244.165-.541.165-.891v-2.405c0-.366-.053-.675-.159-.928-.106-.252-.263-.446-.47-.58-.208-.135-.454-.202-.739-.202h-3.247v-2.551h3.271c.854,0,1.585.157,2.191.47.606.313,1.07.773,1.392,1.38.322.606.482,1.333.482,2.179v2.893c0,.83-.163,1.54-.488,2.13-.326.59-.792,1.04-1.397,1.349-.606.31-1.333.464-2.179.464h-3.271v-2.551Z" fill="#ccc"/>
    <path d="M563.179,160.004h2.124l4.175,17.749h-2.747l-2.49-12.879-2.49,12.879h-2.747l4.175-17.749ZM561.763,171.931h5.054v2.502h-5.054v-2.502Z" fill="#ccc"/>
    <path d="M573.469,177.753h-2.686v-17.749h2.686v17.749Z" fill="#ccc"/>
    <path d="M584.761,160.004h2.441v17.749h-2.417v-12.915l.195.781-2.808,9.118h-1.514l-2.808-8.874.269-1.025v12.915h-2.49v-17.749h2.527l3.259,10.4,3.345-10.4Z" fill="#ccc"/>
    <path d="M596.016,170.124v2.539h-6.396v-2.539h6.396Z" fill="#ccc"/>
    <path d="M600.245,177.485c-.59-.301-1.037-.745-1.343-1.331-.305-.586-.462-1.285-.47-2.1v-.793h2.686v.793c-.008.407.1.723.323.946.224.225.531.336.922.336.407,0,.722-.114.946-.342.224-.228.335-.55.335-.964v-4.371c0-.398-.1-.705-.299-.921-.199-.216-.478-.323-.836-.323-.366,0-.651.102-.854.305-.204.203-.301.492-.293.867h-2.539v-9.583h7.361v2.588h-4.675v3.968c.236-.244.515-.432.836-.562.322-.13.645-.195.971-.195.635,0,1.178.151,1.63.452.451.301.795.74,1.031,1.318.236.578.354,1.273.354,2.087v4.371c0,.821-.157,1.525-.47,2.111-.313.586-.767,1.031-1.361,1.337-.594.305-1.306.458-2.136.458-.822,0-1.528-.151-2.118-.452Z" fill="#ccc"/>
    <path d="M608.381,172.602l3.76-12.585h2.795l-3.601,12.439h6.409v2.575h-9.363v-2.429ZM613.96,167.658h2.625v10.107h-2.625v-10.107Z" fill="#ccc"/>
  </g>
  <g>
    <rect x="717.717" y="214.484" width="103.565" height="64.076" fill="none"/>
    <path d="M727.05,243.579c-.655-.333-1.155-.818-1.501-1.453-.346-.635-.515-1.408-.507-2.319v-.916l2.661-.024v.879c0,.545.148.969.445,1.27.297.301.722.452,1.276.452.529,0,.938-.148,1.227-.446.289-.297.433-.718.433-1.263v-1.55c0-.382-.098-.708-.293-.977s-.446-.494-.75-.678c-.306-.183-.723-.4-1.251-.653-.024-.008-.049-.018-.073-.031-.024-.012-.049-.022-.073-.03l-.159-.073c-.7-.342-1.286-.684-1.758-1.025-.472-.342-.869-.806-1.19-1.392-.321-.586-.482-1.318-.482-2.197v-.964c0-.895.169-1.66.506-2.295.338-.635.832-1.115,1.483-1.44.651-.325,1.436-.488,2.356-.488.903,0,1.672.165,2.307.495.635.329,1.117.813,1.446,1.452.33.639.499,1.41.507,2.313v.964l-2.673.024v-.916c0-.562-.139-.991-.415-1.288-.277-.297-.667-.445-1.172-.445-.545,0-.96.141-1.245.421-.285.281-.427.67-.427,1.166v1.147c0,.391.096.725.287,1.001.191.277.433.502.726.678.293.175.696.384,1.208.628.073.033.145.067.214.104.069.036.14.075.213.116.024.008.053.018.085.031.032.012.061.026.085.042.691.334,1.249.651,1.672.952.423.301.785.726,1.086,1.276.301.549.452,1.255.452,2.118v1.55c0,.912-.169,1.689-.507,2.332-.337.643-.83,1.129-1.477,1.458-.647.33-1.431.495-2.35.495-.928,0-1.719-.167-2.375-.5Z" fill="#ccc"/>
    <path d="M738.299,243.896h-2.686v-17.749h2.686v17.749Z" fill="#ccc"/>
    <path d="M740.46,226.147h2.209l4.517,12.732-.354.391v-13.123h2.49v17.737h-2.234l-4.48-12.17.354-.403v12.573h-2.502v-17.737Z" fill="#ccc"/>
    <path d="M760.357,234.326v5.249c0,.944-.171,1.752-.513,2.423-.342.672-.836,1.187-1.483,1.544-.646.358-1.426.537-2.337.537-.92,0-1.709-.169-2.368-.506-.659-.338-1.164-.83-1.514-1.478-.35-.646-.525-1.422-.525-2.325v-9.241c0-.96.171-1.782.513-2.466s.836-1.204,1.483-1.562c.646-.358,1.426-.537,2.337-.537.887,0,1.65.173,2.289.519.639.346,1.125.853,1.459,1.52.334.667.504,1.465.513,2.393v1.123h-2.796v-1.123c0-.374-.057-.694-.17-.958-.115-.265-.281-.466-.501-.604-.22-.138-.484-.208-.793-.208-.342,0-.635.075-.879.226-.244.15-.432.368-.562.653-.13.285-.195.627-.195,1.025v9.241c0,.334.067.627.202.879.134.252.329.444.586.574.256.13.563.195.921.195.35,0,.651-.071.903-.213.252-.143.446-.348.58-.617.135-.269.201-.598.201-.989v-2.734h-1.745v-2.539h4.395Z" fill="#ccc"/>
    <path d="M762.408,226.147h2.686v17.749h-2.686v-17.749ZM763.665,241.345h6.263v2.551h-6.263v-2.551Z" fill="#ccc"/>
    <path d="M771.612,226.147h2.686v17.749h-2.686v-17.749ZM772.893,226.147h6.482v2.576h-6.482v-2.576ZM772.893,233.801h5.872v2.563h-5.872v-2.563ZM772.893,241.321h6.482v2.576h-6.482v-2.576Z" fill="#ccc"/>
    <path d="M784.869,226.147h8.765v2.551h-8.765v-2.551ZM787.921,227.612h2.661v16.284h-2.661v-16.284Z" fill="#ccc"/>
    <path d="M797.418,226.147h2.124l4.175,17.749h-2.747l-2.49-12.878-2.49,12.878h-2.746l4.175-17.749ZM796.002,238.074h5.054v2.502h-5.054v-2.502Z" fill="#ccc"/>
    <path d="M805.157,226.147h2.686v17.749h-2.686v-17.749ZM806.512,234.46h3.246c.285,0,.529-.065.732-.195.203-.13.36-.317.471-.562.109-.244.164-.541.164-.891v-2.405c0-.366-.053-.675-.158-.928-.105-.252-.263-.446-.47-.58-.208-.135-.454-.202-.739-.202h-3.246v-2.551h3.271c.854,0,1.584.157,2.19.47.606.313,1.07.773,1.392,1.38.322.606.482,1.333.482,2.179v2.893c0,.83-.163,1.54-.488,2.13-.326.59-.791,1.04-1.397,1.349-.606.31-1.333.464-2.179.464h-3.271v-2.551Z" fill="#ccc"/>
    <path d="M750.341,249.147h2.124l4.175,17.749h-2.747l-2.49-12.878-2.49,12.878h-2.747l4.175-17.749ZM748.925,261.074h5.054v2.501h-5.054v-2.501Z" fill="#ccc"/>
    <path d="M760.631,266.896h-2.686v-17.749h2.686v17.749Z" fill="#ccc"/>
    <path d="M771.922,249.147h2.441v17.749h-2.416v-12.915l.195.781-2.809,9.118h-1.514l-2.807-8.874.268-1.025v12.915h-2.49v-17.749h2.527l3.26,10.4,3.344-10.4Z" fill="#ccc"/>
    <path d="M783.178,259.267v2.539h-6.396v-2.539h6.396Z" fill="#ccc"/>
    <path d="M792.223,251.308l-3.564,15.587h-2.697l3.527-15.307h-2.625v2.1h-2.611v-4.541h7.971v2.161Z" fill="#ccc"/>
  </g>
  <polygon points="677.779 67.765 640.279 57.657 640.279 77.873 677.779 67.765" fill="#ccc"/>
  <polygon points="1072.728 246.522 1035.228 236.414 1035.228 256.63 1072.728 246.522" fill="#ccc"/>
  <polygon points="1455.239 246.522 1417.739 236.414 1417.739 256.63 1455.239 246.522" fill="#ccc"/>
  <polygon points="489.163 342.783 526.663 352.891 526.663 332.675 489.163 342.783" fill="#ccc"/>
  <g>
    <rect x="1006.653" y="310.745" width="103.565" height="64.076" fill="none"/>
    <path d="M1011.951,333.909h2.686v17.749h-2.686v-17.749ZM1013.697,349.107h2.759c.415,0,.734-.124.958-.373.224-.248.336-.6.336-1.056v-9.79c0-.456-.112-.808-.336-1.056-.224-.249-.543-.373-.958-.373h-2.759v-2.551h2.881c.813,0,1.509.15,2.087.451.578.302,1.02.739,1.324,1.312.306.574.458,1.268.458,2.081v10.059c0,.807-.154,1.498-.464,2.076-.31.577-.753,1.017-1.33,1.318-.578.301-1.274.451-2.088.451h-2.868v-2.551Z" fill="#ccc"/>
    <path d="M1024.317,351.327c-.668-.342-1.179-.834-1.532-1.477-.354-.643-.531-1.42-.531-2.332v-9.473c0-.911.177-1.69.531-2.337.354-.647.864-1.14,1.532-1.478.667-.338,1.473-.507,2.417-.507s1.749.169,2.417.507c.667.338,1.178.83,1.531,1.478.354.646.531,1.426.531,2.337v9.473c0,.912-.177,1.689-.531,2.332-.354.643-.864,1.135-1.531,1.477-.668.342-1.474.514-2.417.514s-1.75-.172-2.417-.514ZM1027.698,348.984c.269-.146.472-.355.61-.628s.208-.601.208-.983v-9.191c0-.383-.069-.71-.208-.982-.139-.273-.342-.48-.61-.623s-.59-.214-.964-.214-.696.071-.965.214-.472.35-.61.623c-.139.272-.207.6-.207.982v9.191c0,.383.068.711.207.983s.342.481.61.628.59.221.965.221.695-.074.964-.221Z" fill="#ccc"/>
    <path d="M1034.759,351.334c-.622-.338-1.094-.83-1.416-1.478-.321-.646-.481-1.426-.481-2.338v-13.61h2.686v13.696c0,.513.126.905.378,1.178.252.273.61.409,1.074.409.472,0,.836-.136,1.093-.409.256-.272.385-.665.385-1.178v-13.696h2.686v13.61c0,.912-.165,1.691-.495,2.338-.329.647-.804,1.14-1.422,1.478-.618.337-1.367.507-2.246.507-.871,0-1.617-.17-2.24-.507Z" fill="#ccc"/>
    <path d="M1043.054,333.909h2.686v17.749h-2.686v-17.749ZM1044.654,349.143h2.795c.456,0,.806-.116,1.05-.348.244-.232.366-.556.366-.971v-2.344c0-.374-.059-.694-.177-.958-.118-.265-.291-.466-.519-.604-.229-.139-.497-.208-.806-.208h-2.71v-2.502h2.673c.423,0,.751-.141.982-.421.232-.281.349-.682.349-1.203v-1.855c0-.415-.114-.736-.342-.964-.229-.228-.55-.342-.965-.342h-2.697v-2.515h2.819c.806,0,1.497.141,2.075.421.578.281,1.018.691,1.318,1.233.301.541.452,1.189.452,1.946v1.893c0,.554-.098,1.039-.293,1.459-.195.419-.473.763-.83,1.031-.358.269-.794.451-1.307.549.562.082,1.04.261,1.435.537.395.277.697.637.909,1.081.212.443.317.962.317,1.556v2.381c0,.773-.148,1.433-.445,1.978s-.727.963-1.288,1.251c-.562.289-1.241.434-2.038.434h-3.125v-2.515Z" fill="#ccc"/>
    <path d="M1053.541,333.909h2.686v17.749h-2.686v-17.749ZM1054.797,349.107h6.263v2.551h-6.263v-2.551Z" fill="#ccc"/>
    <path d="M1062.745,333.909h2.686v17.749h-2.686v-17.749ZM1064.026,333.909h6.482v2.575h-6.482v-2.575ZM1064.026,341.562h5.872v2.563h-5.872v-2.563ZM1064.026,349.081h6.482v2.576h-6.482v-2.576Z" fill="#ccc"/>
    <path d="M1076.002,333.909h8.765v2.551h-8.765v-2.551ZM1079.053,335.373h2.661v16.284h-2.661v-16.284Z" fill="#ccc"/>
    <path d="M1088.55,333.909h2.124l4.175,17.749h-2.747l-2.49-12.879-2.49,12.879h-2.746l4.175-17.749ZM1087.134,345.834h5.054v2.503h-5.054v-2.503Z" fill="#ccc"/>
    <path d="M1096.29,333.909h2.686v17.749h-2.686v-17.749ZM1097.644,342.221h3.247c.285,0,.529-.064.732-.195.203-.13.36-.317.471-.562.109-.244.164-.541.164-.891v-2.405c0-.366-.053-.675-.158-.928-.106-.252-.263-.445-.47-.579-.208-.135-.454-.202-.739-.202h-3.247v-2.551h3.271c.854,0,1.585.156,2.191.47s1.07.773,1.392,1.38c.321.605.482,1.332.482,2.179v2.893c0,.83-.163,1.54-.488,2.131-.326.59-.792,1.039-1.397,1.349-.606.31-1.333.464-2.18.464h-3.271v-2.552Z" fill="#ccc"/>
  </g>
</svg>