<?xml version="1.0" encoding="UTF-8"?>
<svg id="d" data-name="LTS_LOS_-_Dark" xmlns="http://www.w3.org/2000/svg" width="2395.288" height="564.913" viewBox="0 0 2395.288 564.913">
  <polygon id="e" data-name="GGWTarget" points="1312.956 359.395 1383.611 236.953 1242.303 236.953 1312.956 359.395" fill="none" stroke="#ccc" stroke-linecap="square" stroke-miterlimit="15.1" stroke-width="11"/>
  <polygon id="f" data-name="GGWTarget" points="1077 359.395 1147.654 236.953 1006.346 236.953 1077 359.395" fill="none" stroke="#ccc" stroke-linecap="square" stroke-miterlimit="15.1" stroke-width="11"/>
  <g>
    <rect x="1045.473" y="251.87" width="63.869" height="109.174" fill="none"/>
    <path d="M1094.243,276.701c2.486,0,4.502,2.016,4.502,4.502v50.5c0,1.984-1.299,3.734-3.197,4.309-.432.131-.871.194-1.305.194-1.477,0-2.896-.729-3.746-2.005l-25.419-38.128v35.631c0,2.486-2.016,4.502-4.502,4.502s-4.502-2.016-4.502-4.502v-50.5c0-1.984,1.299-3.734,3.197-4.309,1.899-.575,3.95.161,5.051,1.812l25.419,38.128v-35.631c0-2.486,2.016-4.502,4.502-4.502h0Z" fill="#ccc"/>
  </g>
</svg>