<?xml version="1.0" encoding="UTF-8"?>
<svg xmlns="http://www.w3.org/2000/svg" width="2426.217" height="1026.761" viewBox="0 0 2426.217 1026.761">
  <g id="a" data-name="Loadout_copy_3_-_Dark">
    <g id="b" data-name="SMSLines">
      <path id="c" data-name="path8" d="M830.505,681.9l30.916-51.832M954.419,474.154l-29.916,50.166M1090.083,246.658s31.24-52.316,31.249-52.332c.049,0,.083,0,.083,0h131.664s31.249,52.332,31.249,52.332M726.423,779.315l-97.498.833M1512.992,629.984l30.916,51.832M1449.91,524.319l-29.916-50.166M1647.99,779.315l97.498.833" fill="none" stroke="#ccc" stroke-miterlimit="10" stroke-width="6"/>
    </g>
    <g id="d" data-name="JettisonSelected">
      <g id="e" data-name="g13">
        <polyline id="f" data-name="line12" points="868.254 444.488 892.254 431.738 916.17 444.488" fill="none" stroke="#ccc" stroke-miterlimit="10" stroke-width="7"/>
      </g>
    </g>
    <g id="g" data-name="SMSSidewinder">
      <g id="h" data-name="g21">
        <g id="i" data-name="_Mirror_Repeat_-5">
          <g id="j" data-name="g19">
            <path id="k" data-name="polyline19" d="M530.51,822.647l25.333-28.749v-114.914l18.916-17.25.75-.684c.375.342.75.684.75.684l18.916,17.25v114.914l25.333,28.749" fill="none" stroke="#ccc" stroke-miterlimit="10" stroke-width="7"/>
          </g>
        </g>
      </g>
    </g>
    <g id="l" data-name="SMSSidewinderCaptive">
      <path id="m" data-name="catm1" d="M1750.747,822.971l25.333-28.749v-114.914l18.916-17.25.75-.684c.375.342.75.684.75.684l18.916,17.25v114.914l25.333,28.749" fill="none" stroke="#ccc" stroke-miterlimit="10" stroke-width="7"/>
    </g>
    <g id="n" data-name="JettisonSelected">
      <g id="o" data-name="g13">
        <polyline id="p" data-name="line13" points="1507.217 444.826 1483.301 432.076 1459.302 444.826" fill="none" stroke="#ccc" stroke-miterlimit="10" stroke-width="7"/>
      </g>
    </g>
    <g id="q" data-name="SMSDropTank">
      <g id="r" data-name="g11">
        <g id="s" data-name="_Mirror_Repeat_">
          <g id="t" data-name="g9">
            <path id="u" data-name="polyline8" d="M1483.282,524.658h-6.98l-14.25,66.665,20.916,33.166.249.396c.125-.198.25-.396.25-.396l21-33.166-14.25-66.665h-6.936Z" fill="none" stroke="#ccc" stroke-miterlimit="10" stroke-width="7"/>
          </g>
        </g>
      </g>
    </g>
    <line x1="1228.601" y1="739.322" x2="1143.249" y2="740.156" fill="none" stroke="#ccc" stroke-miterlimit="10" stroke-width="4"/>
    <g id="v" data-name="SMSDropTank">
      <g id="w" data-name="g11">
        <g id="x" data-name="_Mirror_Repeat_">
          <g id="y" data-name="g9">
            <path id="z" data-name="polyline8" d="M891.959,524.247h-6.98l-14.25,66.665,20.916,33.166.249.396c.125-.198.25-.396.25-.396l21-33.166-14.25-66.665h-6.936Z" fill="none" stroke="#ccc" stroke-miterlimit="10" stroke-width="7"/>
          </g>
        </g>
      </g>
    </g>
  </g>
  <g id="aa" data-name="Layer_6_copy_2_-_Dark">
    <rect x="1044.519" y="652.674" width="89.739" height="219.982" fill="none" stroke="#ccc" stroke-miterlimit="10" stroke-width="6"/>
    <rect x="987.239" y="230.293" width="89.739" height="219.982" fill="none" stroke="#ccc" stroke-miterlimit="10" stroke-width="6"/>
    <rect x="1294.872" y="230.293" width="89.739" height="219.982" fill="none" stroke="#ccc" stroke-miterlimit="10" stroke-width="6"/>
    <rect x="1237.592" y="652.674" width="89.739" height="219.982" fill="none" stroke="#ccc" stroke-miterlimit="10" stroke-width="6"/>
    <rect x="734.434" y="691.344" width="89.739" height="219.982" fill="none" stroke="#ccc" stroke-miterlimit="10" stroke-width="6"/>
    <rect x="1548.425" y="691.344" width="89.739" height="219.982" fill="none" stroke="#ccc" stroke-miterlimit="10" stroke-width="6"/>
  </g>
  <g id="ac" data-name="Layer_4">
    <g>
      <rect x="972.555" y="161.732" width="118.994" height="64.957" fill="none"/>
      <path d="M1044.449,194.358c.653,1.525.973,4.473.973,5.962,0,1.593,0,2.645-.75,5.456-.662,2.642-2.018,4.419-3.039,5.44-1.142,1.141-3.324,2.597-5.121,3.046-1.695.57-4.462.57-5.948.57-1.755,0-4.798-.99-6.037-1.521-1.449-.622-4.17-2.457-5.824-3.925l2.296-2.583c1.446,1.286,3.897,2.906,4.889,3.333,1.141.489,3.663,1.242,4.675,1.242,1.199,0,3.694,0,4.982-.43,1.106-.282,2.749-1.28,3.644-2.175.711-.71,1.662-1.959,2.137-3.861.639-2.398.639-3.085.639-4.59,0-1.534-.351-3.808-.724-4.677-.425-1.126-.941-1.983-1.812-3.029-.759-.911-1.586-1.562-2.462-1.937-1.086-.466-2.237-.898-3.293-.898h-4.665v-3.763l10.266-11.613h-15.795v-3.456h19.523v4.452l-9.654,10.922h.325c1.685,0,3.298.595,4.655,1.177,1.38.593,2.645,1.569,3.756,2.901,1.125,1.348,1.831,2.531,2.365,3.955l-.002.002Z" fill="#ff8500" stroke="#ff8500" stroke-miterlimit="10" stroke-width="3"/>
    </g>
    <g>
      <rect x="1279.7" y="161.732" width="118.994" height="64.957" fill="none"/>
      <path d="M1351.606,195.831c.962,1.683,1.092,3.3,1.092,4.658v1.555c0,1.462-.319,2.885-1.004,4.482l-.088.176c-.79,1.384-1.795,2.588-2.985,3.58-1.089.907-2.535,1.702-4.301,2.363-1.438.539-3.104.802-5.098.802-1.707,0-3.369-.357-4.912-.743l-.187-.059c-1.766-.662-3.214-1.458-4.301-2.363-1.19-.992-2.193-2.198-2.985-3.58-.962-1.683-1.092-3.298-1.092-4.658-.012-.24-.339-7.814.903-13.498,1.661-7.186,9.472-15,14.475-17.887l1.727,2.992c-4.438,2.561-11.467,9.754-12.828,15.651-.227,1.033-.395,2.151-.521,3.279.294-.257.604-.504.927-.741.912-.73,2.678-1.74,4.176-2.168,1.505-.432,7.916-.46,9.718.216,1.764.662,3.212,1.458,4.3,2.365,1.19.992,2.196,2.198,2.986,3.58h-.002ZM1349.246,202.047v-1.555c0-1.316-.178-2.142-.636-2.944-.584-1.023-1.323-1.913-2.197-2.64-.779-.649-1.922-1.266-3.302-1.783-1.013-.359-6.55-.394-7.561-.13-.993.285-2.343,1.047-3.02,1.588-2.073,1.522-3.326,3.571-3.326,5.389h-.043c.007,1.204.041,1.973.041,1.996.002,1.396.18,2.22.638,3.021.586,1.023,1.325,1.913,2.197,2.64.759.634,1.868,1.237,3.21,1.748,1.3.323,2.677.615,3.976.615,1.572,0,2.843-.19,3.886-.581,1.382-.52,2.524-1.135,3.302-1.783.85-.707,1.572-1.567,2.149-2.555.472-1.125.684-2.062.684-3.027h.002Z" fill="#ff8500" stroke="#ff8500" stroke-miterlimit="10" stroke-width="3"/>
    </g>
    <g>
      <rect x="832.44" y="448.812" width="118.994" height="64.957" fill="none"/>
      <path d="M883.615,498.629h21.361v3.455h-26.088v-3.443l4.542-4.957c2.38-2.652,4.564-5.083,6.638-7.294,1.03-1.03,2.061-2.234,3.058-3.398,1.042-1.214,5.204-5.898,5.204-5.898.472-.475.738-.811.916-1.032.105-.133.195-.24.27-.323.506-.645.931-1.46,1.232-2.362.285-.855.43-1.54.43-2.91,0-1.176-.244-2.343-.724-3.465-.438-1.16-1.134-1.996-2.053-2.915-1.049-.864-2.042-1.486-3.013-1.849-2.778-1.042-4.649-1.04-7.424,0-1.271.477-2.229,1.064-3.015,1.851-.907.907-1.636,1.942-2.053,2.915l-3.175-1.361c.594-1.387,1.559-2.77,2.785-3.996,1.133-1.132,2.521-1.996,4.245-2.642,3.535-1.331,6.308-1.331,9.852,0,1.767.663,3.201,1.766,4.127,2.536,1.133,1.125,2.267,2.407,2.93,4.176.637,1.48.974,3.104.974,4.753,0,1.817-.233,2.878-.608,4.003-.434,1.303-1.073,2.503-1.845,3.469l-.237.282c-.231.29-.579.724-1.101,1.244.003,0-4.068,4.582-5.093,5.777-1.04,1.213-2.115,2.467-3.2,3.552-2.02,2.154-4.186,4.568-6.549,7.199l-2.384,2.635h-.002Z" fill="#ff8500" stroke="#ff8500" stroke-miterlimit="10" stroke-width="3"/>
    </g>
    <g>
      <rect x="1424.727" y="448.753" width="118.994" height="64.957" fill="none"/>
      <path d="M1497.096,457.971v4.888l-17.795,36.798v.468h-3.455v-1.259l17.795-36.798v-.641h-22.287v-3.456h25.742Z" fill="#ff8500" stroke="#ff8500" stroke-miterlimit="10" stroke-width="3"/>
    </g>
    <g>
      <rect x="722.727" y="579.057" width="118.994" height="64.957" fill="none"/>
      <path d="M767.773,628.701v3.455h-11.057v-3.455h3.801v-35.458l-2.7,2.236-2.203-2.663,5.489-4.542h2.87v40.426h3.801Z" fill="#ff8500" stroke="#ff8500" stroke-miterlimit="10" stroke-width="3"/>
      <path d="M807.814,614.915c.512,1.354,1.004,2.985,1.004,5.344,0,2.443-.264,4.196-.831,5.518-.675,1.805-1.579,3.117-2.733,3.941-1.077,1.019-2.524,1.677-4.21,1.913-1.395.376-2.733.376-4.146.376h-16.759v-21.054l-.345-.345v-22.657h16.411c1.425,0,2.809.211,4.001.606,1.432.408,2.901,1.261,3.958,2.319,1.082,1.082,2.035,2.474,2.612,3.821.511,1.362,1.004,2.993,1.004,5.347,0,2.331-.254,4.095-.778,5.389-.416,1.545-1.363,3.032-2.559,4.019-.235.23-.487.431-.743.621.447.308.862.62,1.213.912,1.204,1.002,2.26,2.434,2.9,3.929v.002ZM783.248,591.406v16.755h13.65c.503,0,1.009.056,1.514.109.387-.038.748-.091,1.05-.191l.332-.075c.958-.119,1.66-.447,2.275-1.062l.143-.127c.512-.41,1.206-1.272,1.476-2.352l.088-.263c.367-.852.551-2.25.551-4.155,0-1.798-.363-3.015-.755-4.06-.37-.855-1.09-1.905-1.851-2.666-.646-.646-1.594-1.192-2.536-1.462-.902-.299-1.937-.451-2.98-.451h-12.958ZM804.781,624.491c.396-.926.581-2.325.581-4.231,0-1.8-.361-3.013-.753-4.057-.402-.937-1.109-1.897-1.907-2.562-1.037-.864-1.83-1.332-2.65-1.567-.517-.149-1.035-.258-1.553-.333-.686.052-1.391.053-2.118.053h-12.785v16.759h13.303c1.311,0,2.35,0,3.326-.28l.261-.054c1.037-.129,1.883-.498,2.448-1.062l.263-.216c.6-.399,1.118-1.201,1.586-2.452h0Z" fill="#ff8500" stroke="#ff8500" stroke-miterlimit="10" stroke-width="3"/>
    </g>
    <g>
      <rect x="519.523" y="579.057" width="118.994" height="64.957" fill="none"/>
      <path d="M565.62,628.701v3.455h-11.057v-3.455h3.801v-35.458l-2.7,2.236-2.203-2.663,5.489-4.542h2.87v40.426h3.801Z" fill="#ff8500" stroke="#ff8500" stroke-miterlimit="10" stroke-width="3"/>
      <path d="M604.598,608.516l-.178,23.491-3.455-.026.098-13.118h-19.967v13.13h-3.455v-23.484l11.84-18.5h3.274l11.843,18.507ZM601.089,615.406l.045-5.894-10.018-15.651-10.021,15.656v5.888h19.993Z" fill="#ff8500" stroke="#ff8500" stroke-miterlimit="10" stroke-width="3"/>
    </g>
    <g>
      <rect x="1740.149" y="578.094" width="118.994" height="64.957" fill="none"/>
      <path d="M1793.99,618.754c0,6.859-6.2,12.439-13.821,12.439s-13.821-5.58-13.821-12.439c0-4.636,2.837-8.68,7.026-10.819-3.396-2.008-5.645-5.466-5.645-9.396,0-6.192,5.58-11.229,12.439-11.229s12.439,5.038,12.439,11.229c0,3.929-2.251,7.388-5.645,9.396,4.189,2.139,7.026,6.183,7.026,10.819ZM1790.535,618.754c0-4.954-4.649-8.984-10.366-8.984s-10.366,4.031-10.366,8.984,4.649,8.984,10.366,8.984,10.366-4.031,10.366-8.984ZM1780.168,606.316c4.953,0,8.983-3.488,8.983-7.774s-4.03-7.774-8.983-7.774-8.984,3.488-8.984,7.774,4.031,7.774,8.984,7.774Z" fill="#ff8500" stroke="#ff8500" stroke-miterlimit="10" stroke-width="3"/>
      <path d="M1832.963,607.553l-.179,23.491-3.455-.026.099-13.118h-19.967v13.13h-3.455v-23.484l11.84-18.5h3.273l11.844,18.507ZM1829.455,614.443l.045-5.894-10.018-15.651-10.021,15.656v5.888h19.993Z" fill="#ff8500" stroke="#ff8500" stroke-miterlimit="10" stroke-width="3"/>
    </g>
    <g>
      <rect x="1533.797" y="578.094" width="118.994" height="64.957" fill="none"/>
      <path d="M1586.588,618.754c0,6.859-6.201,12.439-13.822,12.439s-13.821-5.58-13.821-12.439c0-4.636,2.837-8.68,7.026-10.819-3.395-2.008-5.645-5.466-5.645-9.396,0-6.192,5.581-11.229,12.439-11.229s12.439,5.038,12.439,11.229c0,3.929-2.251,7.388-5.645,9.396,4.19,2.139,7.027,6.183,7.027,10.819ZM1583.132,618.754c0-4.954-4.649-8.984-10.366-8.984s-10.366,4.031-10.366,8.984,4.649,8.984,10.366,8.984,10.366-4.031,10.366-8.984ZM1572.766,606.316c4.953,0,8.984-3.488,8.984-7.774s-4.031-7.774-8.984-7.774-8.983,3.488-8.983,7.774,4.03,7.774,8.983,7.774Z" fill="#ff8500" stroke="#ff8500" stroke-miterlimit="10" stroke-width="3"/>
      <path d="M1626.625,613.952c.512,1.354,1.004,2.985,1.004,5.344,0,2.443-.265,4.196-.831,5.518-.676,1.805-1.579,3.117-2.733,3.941-1.076,1.019-2.524,1.677-4.21,1.913-1.395.376-2.733.376-4.146.376h-16.759v-21.054l-.346-.345v-22.657h16.411c1.426,0,2.81.211,4.002.606,1.432.408,2.9,1.261,3.958,2.319,1.081,1.082,2.035,2.474,2.612,3.821.511,1.362,1.004,2.993,1.004,5.347,0,2.331-.254,4.095-.778,5.389-.416,1.545-1.362,3.032-2.559,4.019-.234.23-.487.431-.742.621.447.308.861.62,1.213.912,1.204,1.002,2.26,2.434,2.9,3.929v.002ZM1602.059,590.444v16.755h13.65c.503,0,1.01.056,1.514.109.388-.038.748-.091,1.051-.191l.332-.075c.958-.119,1.66-.447,2.275-1.062l.143-.127c.512-.41,1.206-1.272,1.476-2.352l.088-.263c.367-.852.552-2.25.552-4.155,0-1.798-.363-3.015-.755-4.06-.37-.855-1.091-1.905-1.851-2.666-.646-.646-1.595-1.192-2.536-1.462-.902-.299-1.937-.451-2.98-.451h-12.958ZM1623.591,623.529c.396-.926.581-2.325.581-4.231,0-1.8-.361-3.013-.754-4.057-.402-.937-1.108-1.897-1.907-2.562-1.036-.864-1.829-1.332-2.65-1.567-.517-.149-1.034-.258-1.553-.333-.686.052-1.391.053-2.118.053h-12.785v16.759h13.304c1.311,0,2.35,0,3.325-.28l.261-.054c1.037-.129,1.884-.498,2.448-1.062l.263-.216c.6-.399,1.118-1.201,1.586-2.452h0Z" fill="#ff8500" stroke="#ff8500" stroke-miterlimit="10" stroke-width="3"/>
    </g>
    <g>
      <rect x="1027.541" y="578.471" width="118.994" height="64.957" fill="none"/>
      <path d="M1095.412,617.75h4.665v3.455h-4.665v8.639h-3.456v-8.639h-17.968v-3.761l17.852-29.756h3.569v30.06l.002.002ZM1091.955,594.212l-14.123,23.536h14.123v-23.536Z" fill="#ff8500" stroke="#ff8500" stroke-miterlimit="10" stroke-width="3"/>
    </g>
    <g>
      <rect x="1219.745" y="578.471" width="118.994" height="64.957" fill="none"/>
      <path d="M1291.443,606.531c.657,1.534,1.004,3.145,1.004,4.656v8.465c0,1.514-.347,3.122-1.004,4.654-.639,1.495-1.697,2.927-2.899,3.929-.926.772-2.362,1.873-4.127,2.537-1.774.665-3.341.974-4.928.974-1.805,0-4.063-.39-5.617-.973-1.724-.648-3.111-1.512-4.243-2.643-1.088-.897-2.144-2.329-2.785-3.824-.387-.767-.596-1.6-.779-2.334l-.052-.42v-1.555h3.455v1.342c.14.556.276,1.047.508,1.512.475,1.104,1.182,2.064,1.98,2.73.901.891,1.859,1.479,3.128,1.956,1.165.436,3.019.753,4.404.753,1.175,0,2.32-.233,3.713-.755.969-.364,1.964-.984,3.129-1.956.796-.665,1.503-1.627,1.937-2.636.473-1.106.724-2.245.724-3.293v-8.466c0-1.049-.25-2.188-.724-3.295-.432-1.009-1.139-1.969-1.937-2.634-.902-.89-1.859-1.479-3.129-1.954l-.528-.204c-.966-.378-1.408-.551-3.185-.551-2.167,0-3.903.463-5.464,1.458-1.167.729-2.198,1.76-2.918,2.913l-.508.812h-4.585v-20.041h26.088v3.456h-22.633v12.225c.792-.885,1.707-1.659,2.712-2.288,2.099-1.337,4.496-1.99,7.308-1.99,2.31,0,3.193.299,4.442.788l.484.187c1.724.646,3.112,1.51,4.243,2.642,1.087.896,2.144,2.327,2.785,3.821v.002Z" fill="#ff8500" stroke="#ff8500" stroke-miterlimit="10" stroke-width="3"/>
    </g>
  </g>
</svg>