<?xml version="1.0" encoding="UTF-8"?>
<svg xmlns="http://www.w3.org/2000/svg" width="3071.543" height="2965.696" viewBox="0 0 3071.543 2965.696">
  <g id="f" data-name="PTID_-_Dark">
    <g>
      <rect x="741.336" y="713.785" width="1580" height="1589" fill="none" stroke="#ccc" stroke-miterlimit="10" stroke-width="3"/>
      <rect x="724.281" y="688.285" width="1610.609" height="1643" rx="37.742" ry="37.742" fill="none" stroke="#ccc" stroke-miterlimit="10" stroke-width="8"/>
      <g>
        <rect x="573.273" y="885.785" width="94" height="96" fill="none" stroke="#ccc" stroke-miterlimit="10" stroke-width="8"/>
        <polyline points="576.273 987.785 673.273 987.785 673.273 889.785" fill="none" stroke="#ccc" stroke-miterlimit="10" stroke-width="12"/>
        <polygon points="656.273 933.285 608.273 918.785 608.273 929.785 582.273 929.785 582.273 937.785 608.273 937.785 608.273 947.785 656.273 933.285" fill="#ccc"/>
        <rect x="561.773" y="1022.285" width="116" height="12" rx="6" ry="6" fill="none" stroke="#ccc" stroke-miterlimit="10" stroke-width="5"/>
      </g>
      <g>
        <rect x="573.273" y="1076.785" width="94" height="96" fill="none" stroke="#ccc" stroke-miterlimit="10" stroke-width="8"/>
        <polyline points="576.273 1178.785 673.273 1178.785 673.273 1080.785" fill="none" stroke="#ccc" stroke-miterlimit="10" stroke-width="12"/>
        <polygon points="656.273 1124.285 608.273 1109.785 608.273 1120.785 582.273 1120.785 582.273 1128.785 608.273 1128.785 608.273 1138.785 656.273 1124.285" fill="#ccc"/>
        <rect x="561.773" y="1213.285" width="116" height="12" rx="6" ry="6" fill="none" stroke="#ccc" stroke-miterlimit="10" stroke-width="5"/>
      </g>
      <g>
        <rect x="573.273" y="1268.785" width="94" height="96" fill="none" stroke="#ccc" stroke-miterlimit="10" stroke-width="8"/>
        <polyline points="576.273 1370.785 673.273 1370.785 673.273 1272.785" fill="none" stroke="#ccc" stroke-miterlimit="10" stroke-width="12"/>
        <polygon points="656.273 1316.285 608.273 1301.785 608.273 1312.785 582.273 1312.785 582.273 1320.785 608.273 1320.785 608.273 1330.785 656.273 1316.285" fill="#ccc"/>
        <rect x="561.773" y="1405.285" width="116" height="12" rx="6" ry="6" fill="none" stroke="#ccc" stroke-miterlimit="10" stroke-width="5"/>
      </g>
      <g>
        <rect x="573.273" y="1461.785" width="94" height="96" fill="none" stroke="#ccc" stroke-miterlimit="10" stroke-width="8"/>
        <polyline points="576.273 1563.785 673.273 1563.785 673.273 1465.785" fill="none" stroke="#ccc" stroke-miterlimit="10" stroke-width="12"/>
        <polygon points="656.273 1509.285 608.273 1494.785 608.273 1505.785 582.273 1505.785 582.273 1513.785 608.273 1513.785 608.273 1523.785 656.273 1509.285" fill="#ccc"/>
        <rect x="561.773" y="1598.285" width="116" height="12" rx="6" ry="6" fill="none" stroke="#ccc" stroke-miterlimit="10" stroke-width="5"/>
      </g>
      <g>
        <rect x="573.273" y="1652.785" width="94" height="96" fill="none" stroke="#ccc" stroke-miterlimit="10" stroke-width="8"/>
        <polyline points="576.273 1754.785 673.273 1754.785 673.273 1656.785" fill="none" stroke="#ccc" stroke-miterlimit="10" stroke-width="12"/>
        <polygon points="656.273 1700.285 608.273 1685.785 608.273 1696.785 582.273 1696.785 582.273 1704.785 608.273 1704.785 608.273 1714.785 656.273 1700.285" fill="#ccc"/>
        <rect x="561.773" y="1789.285" width="116" height="12" rx="6" ry="6" fill="none" stroke="#ccc" stroke-miterlimit="10" stroke-width="5"/>
      </g>
      <g>
        <rect x="573.273" y="1844.785" width="94" height="96" fill="none" stroke="#ccc" stroke-miterlimit="10" stroke-width="8"/>
        <polyline points="576.273 1946.785 673.273 1946.785 673.273 1848.785" fill="none" stroke="#ccc" stroke-miterlimit="10" stroke-width="12"/>
        <polygon points="656.273 1892.285 608.273 1877.785 608.273 1888.785 582.273 1888.785 582.273 1896.785 608.273 1896.785 608.273 1906.785 656.273 1892.285" fill="#ccc"/>
        <rect x="561.773" y="1981.285" width="116" height="12" rx="6" ry="6" fill="none" stroke="#ccc" stroke-miterlimit="10" stroke-width="5"/>
      </g>
      <g>
        <rect x="569.773" y="2035.785" width="94" height="96" fill="none" stroke="#ccc" stroke-miterlimit="10" stroke-width="8"/>
        <polyline points="572.773 2137.785 669.773 2137.785 669.773 2039.785" fill="none" stroke="#ccc" stroke-miterlimit="10" stroke-width="12"/>
        <polygon points="652.773 2083.285 604.773 2068.785 604.773 2079.785 578.773 2079.785 578.773 2087.785 604.773 2087.785 604.773 2097.785 652.773 2083.285" fill="#ccc"/>
      </g>
      <g>
        <rect x="2401.77" y="889.249" width="94" height="96" transform="translate(4897.541 1874.498) rotate(-180)" fill="none" stroke="#ccc" stroke-miterlimit="10" stroke-width="8"/>
        <polyline points="2406.27 990.785 2499.336 990.785 2499.336 892.785" fill="none" stroke="#ccc" stroke-miterlimit="10" stroke-width="12"/>
        <polygon points="2412.771 936.749 2460.771 922.249 2460.771 933.249 2486.77 933.249 2486.77 941.249 2460.771 941.249 2460.771 951.249 2412.771 936.749" fill="#ccc"/>
        <rect x="2391.27" y="1025.749" width="116" height="12" rx="6" ry="6" transform="translate(4898.541 2063.498) rotate(180)" fill="none" stroke="#ccc" stroke-miterlimit="10" stroke-width="5"/>
      </g>
      <g>
        <rect x="2401.77" y="1080.249" width="94" height="96" transform="translate(4897.541 2256.498) rotate(-180)" fill="none" stroke="#ccc" stroke-miterlimit="10" stroke-width="8"/>
        <polyline points="2404.336 1182.785 2501.336 1182.785 2501.336 1084.785" fill="none" stroke="#ccc" stroke-miterlimit="10" stroke-width="12"/>
        <polygon points="2412.771 1127.749 2460.771 1113.249 2460.771 1124.249 2486.77 1124.249 2486.77 1132.249 2460.771 1132.249 2460.771 1142.249 2412.771 1127.749" fill="#ccc"/>
        <rect x="2391.27" y="1216.749" width="116" height="12" rx="6" ry="6" transform="translate(4898.541 2445.498) rotate(180)" fill="none" stroke="#ccc" stroke-miterlimit="10" stroke-width="5"/>
      </g>
      <g>
        <rect x="2401.77" y="1272.249" width="94" height="96" transform="translate(4897.541 2640.498) rotate(-180)" fill="none" stroke="#ccc" stroke-miterlimit="10" stroke-width="8"/>
        <polyline points="2401.27 1374.249 2498.27 1374.249 2498.27 1276.249" fill="none" stroke="#ccc" stroke-miterlimit="10" stroke-width="12"/>
        <polygon points="2412.771 1319.749 2460.771 1305.249 2460.771 1316.249 2486.77 1316.249 2486.77 1324.249 2460.771 1324.249 2460.771 1334.249 2412.771 1319.749" fill="#ccc"/>
        <rect x="2391.27" y="1408.749" width="116" height="12" rx="6" ry="6" transform="translate(4898.541 2829.498) rotate(-180)" fill="none" stroke="#ccc" stroke-miterlimit="10" stroke-width="5"/>
      </g>
      <g>
        <rect x="2401.77" y="1465.249" width="94" height="96" transform="translate(4897.541 3026.498) rotate(-180)" fill="none" stroke="#ccc" stroke-miterlimit="10" stroke-width="8"/>
        <polyline points="2402.27 1566.249 2499.27 1566.249 2499.27 1468.249" fill="none" stroke="#ccc" stroke-miterlimit="10" stroke-width="12"/>
        <polygon points="2412.771 1512.749 2460.771 1498.249 2460.771 1509.249 2486.77 1509.249 2486.77 1517.249 2460.771 1517.249 2460.771 1527.249 2412.771 1512.749" fill="#ccc"/>
        <rect x="2391.27" y="1601.749" width="116" height="12" rx="6" ry="6" transform="translate(4898.541 3215.498) rotate(-180)" fill="none" stroke="#ccc" stroke-miterlimit="10" stroke-width="5"/>
      </g>
      <g>
        <rect x="2401.77" y="1656.249" width="94" height="96" transform="translate(4897.541 3408.498) rotate(-180)" fill="none" stroke="#ccc" stroke-miterlimit="10" stroke-width="8"/>
        <polyline points="2403.27 1757.249 2500.27 1757.249 2500.27 1659.249" fill="none" stroke="#ccc" stroke-miterlimit="10" stroke-width="12"/>
        <polygon points="2412.771 1703.749 2460.771 1689.249 2460.771 1700.249 2486.77 1700.249 2486.77 1708.249 2460.771 1708.249 2460.771 1718.249 2412.771 1703.749" fill="#ccc"/>
        <rect x="2391.27" y="1792.749" width="116" height="12" rx="6" ry="6" transform="translate(4898.541 3597.498) rotate(-180)" fill="none" stroke="#ccc" stroke-miterlimit="10" stroke-width="5"/>
      </g>
      <g>
        <rect x="2401.77" y="1848.249" width="94" height="96" transform="translate(4897.541 3792.498) rotate(-180)" fill="none" stroke="#ccc" stroke-miterlimit="10" stroke-width="8"/>
        <polyline points="2403.27 1948.249 2500.27 1948.249 2500.27 1850.249" fill="none" stroke="#ccc" stroke-miterlimit="10" stroke-width="12"/>
        <polygon points="2412.771 1895.749 2460.771 1881.249 2460.771 1892.249 2486.77 1892.249 2486.77 1900.249 2460.771 1900.249 2460.771 1910.249 2412.771 1895.749" fill="#ccc"/>
        <rect x="2391.27" y="1984.749" width="116" height="12" rx="6" ry="6" transform="translate(4898.541 3981.498) rotate(180)" fill="none" stroke="#ccc" stroke-miterlimit="10" stroke-width="5"/>
      </g>
      <g>
        <rect x="2405.27" y="2039.249" width="94" height="96" transform="translate(4904.541 4174.498) rotate(-180)" fill="none" stroke="#ccc" stroke-miterlimit="10" stroke-width="8"/>
        <polyline points="2405.77 2141.249 2502.77 2141.249 2502.77 2043.249" fill="none" stroke="#ccc" stroke-miterlimit="10" stroke-width="12"/>
        <polygon points="2416.271 2086.749 2464.271 2072.249 2464.271 2083.249 2490.27 2083.249 2490.27 2091.249 2464.271 2091.249 2464.271 2101.249 2416.271 2086.749" fill="#ccc"/>
      </g>
      <g>
        <rect x="952.27" y="2377.84" width="94" height="96" transform="translate(-1426.569 3425.11) rotate(-90)" fill="none" stroke="#ccc" stroke-miterlimit="10" stroke-width="8"/>
        <polygon points="998.77 2389.84 984.27 2437.84 995.271 2437.84 995.271 2463.84 1003.27 2463.84 1003.27 2437.84 1013.27 2437.84 998.77 2389.84" fill="#ccc"/>
        <rect x="1035.77" y="2420.34" width="116" height="12" rx="6" ry="6" transform="translate(-1332.569 3520.11) rotate(-90)" fill="none" stroke="#ccc" stroke-miterlimit="10" stroke-width="5"/>
      </g>
      <g>
        <rect x="1143.27" y="2377.84" width="94" height="96" transform="translate(-1235.569 3616.11) rotate(-90)" fill="none" stroke="#ccc" stroke-miterlimit="10" stroke-width="8"/>
        <polygon points="1189.77 2389.84 1175.27 2437.84 1186.271 2437.84 1186.271 2463.84 1194.27 2463.84 1194.27 2437.84 1204.27 2437.84 1189.77 2389.84" fill="#ccc"/>
        <rect x="1226.77" y="2420.34" width="116" height="12" rx="6" ry="6" transform="translate(-1141.569 3711.11) rotate(-90)" fill="none" stroke="#ccc" stroke-miterlimit="10" stroke-width="5"/>
      </g>
      <g>
        <rect x="1335.27" y="2378.34" width="94" height="96" transform="translate(-1044.069 3808.61) rotate(-90)" fill="none" stroke="#ccc" stroke-miterlimit="10" stroke-width="8"/>
        <polygon points="1381.77 2390.34 1367.27 2438.34 1378.271 2438.34 1378.271 2464.34 1386.27 2464.34 1386.27 2438.34 1396.27 2438.34 1381.77 2390.34" fill="#ccc"/>
      </g>
      <g>
        <rect x="1639.27" y="2377.84" width="94" height="96" transform="translate(-739.569 4112.11) rotate(-90)" fill="none" stroke="#ccc" stroke-miterlimit="10" stroke-width="8"/>
        <polygon points="1685.77 2389.84 1671.27 2437.84 1682.271 2437.84 1682.271 2463.84 1690.27 2463.84 1690.27 2437.84 1700.27 2437.84 1685.77 2389.84" fill="#ccc"/>
        <rect x="1722.77" y="2420.34" width="116" height="12" rx="6" ry="6" transform="translate(-645.569 4207.11) rotate(-90)" fill="none" stroke="#ccc" stroke-miterlimit="10" stroke-width="5"/>
      </g>
      <g>
        <rect x="1831.27" y="2377.84" width="94" height="96" transform="translate(-547.569 4304.11) rotate(-90)" fill="none" stroke="#ccc" stroke-miterlimit="10" stroke-width="8"/>
        <polygon points="1877.77 2389.84 1863.27 2437.84 1874.271 2437.84 1874.271 2463.84 1882.27 2463.84 1882.27 2437.84 1892.27 2437.84 1877.77 2389.84" fill="#ccc"/>
        <rect x="1914.77" y="2420.34" width="116" height="12" rx="6" ry="6" transform="translate(-453.569 4399.11) rotate(-90)" fill="none" stroke="#ccc" stroke-miterlimit="10" stroke-width="5"/>
      </g>
      <g>
        <rect x="2022.27" y="2378.34" width="94" height="96" transform="translate(-357.069 4495.61) rotate(-90)" fill="none" stroke="#ccc" stroke-miterlimit="10" stroke-width="8"/>
        <polygon points="2068.77 2390.34 2054.27 2438.34 2065.271 2438.34 2065.271 2464.34 2073.27 2464.34 2073.27 2438.34 2083.27 2438.34 2068.77 2390.34" fill="#ccc"/>
      </g>
      <polyline points="955.336 2480.952 1052.336 2480.952 1052.336 2382.952" fill="none" stroke="#ccc" stroke-miterlimit="10" stroke-width="12"/>
      <polyline points="1146.336 2480.952 1243.336 2480.952 1243.336 2382.952" fill="none" stroke="#ccc" stroke-miterlimit="10" stroke-width="12"/>
      <polyline points="1337.336 2480.952 1434.336 2480.952 1434.336 2382.952" fill="none" stroke="#ccc" stroke-miterlimit="10" stroke-width="12"/>
      <polyline points="1645.336 2480.952 1742.336 2480.952 1742.336 2382.952" fill="none" stroke="#ccc" stroke-miterlimit="10" stroke-width="12"/>
      <polyline points="1834.336 2480.952 1931.336 2480.952 1931.336 2382.952" fill="none" stroke="#ccc" stroke-miterlimit="10" stroke-width="12"/>
      <polyline points="2027.336 2480.952 2124.336 2480.952 2124.336 2382.952" fill="none" stroke="#ccc" stroke-miterlimit="10" stroke-width="12"/>
    </g>
    <path d="M427.975,438.176h2213.112v1710.62c0,282.905-229.34,512.245-512.245,512.245H940.371c-279.895,0-507.006-226.499-507.762-506.392l-4.634-1716.472Z" fill="none" stroke="#ccc" stroke-miterlimit="10" stroke-width="14"/>
    <path d="M435.477,799.776h289.58v-71.661c0-21.743,17.626-39.37,39.37-39.37" fill="none" stroke="#ccc" stroke-miterlimit="10" stroke-width="2"/>
    <path d="M433.227,812.53h303.084v-87.937c0-14.411,11.683-26.094,26.094-26.094h773.627" fill="none" stroke="#ccc" stroke-miterlimit="10" stroke-width="8"/>
    <path d="M1533.031,689.496h761.852c21.743,0,39.37,17.626,39.37,39.37v71.661s289.58,0,289.58,0v-244.568h-39.728c-33.579,0-60.799-27.221-60.799-60.799v-41.229h-441.122v54.015c0,26.517-21.496,48.013-48.013,48.013h0,4.501c-20.859,0-47.263-13.901-47.263-42.762l-.75-59.266-293.117-1.396c-12.117-.058-21.97,9.749-21.97,21.866v61.662c0,14.303-11.595,25.898-25.898,25.898h-128.644" fill="none" stroke="#ccc" stroke-miterlimit="10" stroke-width="4"/>
    <path d="M2638.837,812.53h-315.087v-87.937c0-14.411-11.683-26.094-26.094-26.094h-764.625" fill="none" stroke="#ccc" stroke-miterlimit="10" stroke-width="8"/>
    <path d="M1525.529,551.458h125.709c7.638,0,13.83-6.192,13.83-13.83v-94.2h336.093v69.117c0,14.862,12.048,26.91,26.91,26.91h16.929c14.736,0,26.681-11.946,26.681-26.681v-70.846h463.628v59.739c0,23.355,18.933,42.289,42.289,42.289h59.739" fill="none" stroke="#ccc" stroke-miterlimit="10" stroke-width="4"/>
    <path d="M1534.531,689.496h-772.355c-21.743,0-39.37,17.626-39.37,39.37v71.661h-289.58v-244.568h39.728c33.579,0,60.799-27.221,60.799-60.799v-41.229h441.122v54.015c0,26.517,21.496,48.013,48.013,48.013h0-4.501c20.859,0,47.263-13.901,47.263-42.762l.75-59.266,293.117-1.396c12.117-.058,21.97,9.749,21.97,21.866v61.662c0,14.303,11.595,25.898,25.898,25.898h128.644" fill="none" stroke="#ccc" stroke-miterlimit="10" stroke-width="4"/>
    <path d="M1531.53,551.458h-125.709c-7.638,0-13.83-6.192-13.83-13.83v-94.2s-336.093,0-336.093,0v69.117c0,14.862-12.048,26.91-26.91,26.91h-16.929c-14.736,0-26.681-11.946-26.681-26.681v-70.846s-463.628,0-463.628,0v59.739c0,23.355-18.933,42.289-42.289,42.289h-52.237" fill="none" stroke="#ccc" stroke-miterlimit="10" stroke-width="4"/>
    <circle cx="2578.82" cy="498.943" r="34.51" fill="none" stroke="#ccc" stroke-miterlimit="10" stroke-width="2"/>
    <polygon points="2575.819 476.437 2583.321 476.437 2583.321 495.942 2601.326 495.942 2601.326 504.945 2583.321 504.945 2583.321 522.95 2575.819 522.95 2575.819 504.945 2556.314 504.945 2556.314 495.942 2574.319 495.942 2574.319 476.437 2575.819 476.437" fill="none" stroke="#ccc" stroke-miterlimit="10" stroke-width="2"/>
    <circle cx="2578.82" cy="1301.665" r="34.51" fill="none" stroke="#ccc" stroke-miterlimit="10" stroke-width="2"/>
    <polygon points="2575.819 1279.159 2583.321 1279.159 2583.321 1298.664 2601.326 1298.664 2601.326 1307.667 2583.321 1307.667 2583.321 1325.672 2575.819 1325.672 2575.819 1307.667 2556.314 1307.667 2556.314 1298.664 2574.319 1298.664 2574.319 1279.159 2575.819 1279.159" fill="none" stroke="#ccc" stroke-miterlimit="10" stroke-width="2"/>
    <circle cx="2578.82" cy="2054.873" r="34.51" fill="none" stroke="#ccc" stroke-miterlimit="10" stroke-width="2"/>
    <polygon points="2575.819 2032.367 2583.321 2032.367 2583.321 2051.873 2601.326 2051.873 2601.326 2060.875 2583.321 2060.875 2583.321 2078.88 2575.819 2078.88 2575.819 2060.875 2556.314 2060.875 2556.314 2051.873 2574.319 2051.873 2574.319 2032.367 2575.819 2032.367" fill="none" stroke="#ccc" stroke-miterlimit="10" stroke-width="2"/>
    <circle cx="2188.712" cy="2604.025" r="34.51" fill="none" stroke="#ccc" stroke-miterlimit="10" stroke-width="2"/>
    <polygon points="2185.711 2581.519 2193.213 2581.519 2193.213 2601.024 2211.218 2601.024 2211.218 2610.027 2193.213 2610.027 2193.213 2628.032 2185.711 2628.032 2185.711 2610.027 2166.206 2610.027 2166.206 2601.024 2184.211 2601.024 2184.211 2581.519 2185.711 2581.519" fill="none" stroke="#ccc" stroke-miterlimit="10" stroke-width="2"/>
    <circle cx="1530.03" cy="2604.025" r="34.51" fill="none" stroke="#ccc" stroke-miterlimit="10" stroke-width="2"/>
    <polygon points="1527.029 2581.519 1534.531 2581.519 1534.531 2601.024 1552.536 2601.024 1552.536 2610.027 1534.531 2610.027 1534.531 2628.032 1527.029 2628.032 1527.029 2610.027 1507.524 2610.027 1507.524 2601.024 1525.529 2601.024 1525.529 2581.519 1527.029 2581.519" fill="none" stroke="#ccc" stroke-miterlimit="10" stroke-width="2"/>
    <circle cx="871.348" cy="2604.025" r="34.51" fill="none" stroke="#ccc" stroke-miterlimit="10" stroke-width="2"/>
    <polygon points="868.347 2581.519 875.849 2581.519 875.849 2601.024 893.854 2601.024 893.854 2610.027 875.849 2610.027 875.849 2628.032 868.347 2628.032 868.347 2610.027 848.842 2610.027 848.842 2601.024 866.847 2601.024 866.847 2581.519 868.347 2581.519" fill="none" stroke="#ccc" stroke-miterlimit="10" stroke-width="2"/>
    <circle cx="481.24" cy="2053.373" r="34.51" fill="none" stroke="#ccc" stroke-miterlimit="10" stroke-width="2"/>
    <polygon points="478.239 2030.867 485.741 2030.867 485.741 2050.372 503.746 2050.372 503.746 2059.375 485.741 2059.375 485.741 2077.38 478.239 2077.38 478.239 2059.375 458.734 2059.375 458.734 2050.372 476.739 2050.372 476.739 2030.867 478.239 2030.867" fill="none" stroke="#ccc" stroke-miterlimit="10" stroke-width="2"/>
    <circle cx="481.24" cy="1301.665" r="34.51" fill="none" stroke="#ccc" stroke-miterlimit="10" stroke-width="2"/>
    <polygon points="478.239 1279.159 485.741 1279.159 485.741 1298.664 503.746 1298.664 503.746 1307.667 485.741 1307.667 485.741 1325.672 478.239 1325.672 478.239 1307.667 458.734 1307.667 458.734 1298.664 476.739 1298.664 476.739 1279.159 478.239 1279.159" fill="none" stroke="#ccc" stroke-miterlimit="10" stroke-width="2"/>
    <circle cx="478.239" cy="498.943" r="34.51" fill="none" stroke="#ccc" stroke-miterlimit="10" stroke-width="2"/>
    <polygon points="475.238 476.437 482.74 476.437 482.74 495.942 500.745 495.942 500.745 504.945 482.74 504.945 482.74 522.95 475.238 522.95 475.238 504.945 455.733 504.945 455.733 495.942 473.738 495.942 473.738 476.437 475.238 476.437" fill="none" stroke="#ccc" stroke-miterlimit="10" stroke-width="2"/>
    <circle cx="1019.889" cy="497.443" r="34.51" fill="none" stroke="#ccc" stroke-miterlimit="10" stroke-width="2"/>
    <polygon points="1016.888 474.936 1024.39 474.936 1024.39 494.442 1042.395 494.442 1042.395 503.444 1024.39 503.444 1024.39 521.449 1016.888 521.449 1016.888 503.444 997.383 503.444 997.383 494.442 1015.388 494.442 1015.388 474.936 1016.888 474.936" fill="none" stroke="#ccc" stroke-miterlimit="10" stroke-width="2"/>
    <circle cx="1528.53" cy="497.443" r="34.51" fill="none" stroke="#ccc" stroke-miterlimit="10" stroke-width="2"/>
    <polygon points="1525.529 474.936 1533.031 474.936 1533.031 494.442 1551.036 494.442 1551.036 503.444 1533.031 503.444 1533.031 521.449 1523.797 521.449 1523.797 503.444 1506.023 503.444 1506.023 494.442 1524.028 494.442 1524.028 474.936 1525.529 474.936" fill="none" stroke="#ccc" stroke-miterlimit="10" stroke-width="2"/>
    <circle cx="2035.67" cy="498.943" r="34.51" fill="none" stroke="#ccc" stroke-miterlimit="10" stroke-width="2"/>
    <polygon points="2032.669 476.437 2040.171 476.437 2040.171 495.942 2058.176 495.942 2058.176 504.945 2040.171 504.945 2040.171 522.95 2032.669 522.95 2032.669 504.945 2013.164 504.945 2013.164 495.942 2031.169 495.942 2031.169 476.437 2032.669 476.437" fill="none" stroke="#ccc" stroke-miterlimit="10" stroke-width="2"/>
    <path d="M522.921,1291.42l-.161-.569c-3.531-9.414-10.63-17.057-19.757-21.271l-2.243-1.035c-4.83-2.229-10.087-3.384-15.406-3.384h-53.766l.138,37.264v38.25h53.768c5.321,0,10.578-1.155,15.409-3.385l2.238-1.033c9.129-4.214,16.228-11.857,19.757-21.271l.352-1.398c1.836-7.29,1.722-14.935-.329-22.168Z" fill="none" stroke="#ccc" stroke-miterlimit="10" stroke-width="4"/>
    <path d="M522.875,2042.009l-.161-.569c-3.531-9.414-10.63-17.057-19.757-21.271l-2.243-1.035c-4.83-2.229-10.087-3.384-15.406-3.384h-53.766l.138,37.264v38.25h53.768c5.321,0,10.578-1.155,15.409-3.385l2.238-1.033c9.129-4.214,16.228-11.857,19.757-21.271l.352-1.398c1.836-7.29,1.722-14.935-.329-22.168Z" fill="none" stroke="#ccc" stroke-miterlimit="10" stroke-width="4"/>
    <path d="M2535.25,1291.42l.161-.569c3.531-9.414,10.63-17.057,19.757-21.271l2.243-1.035c4.83-2.229,10.087-3.384,15.406-3.384l65.769-1.5-.138,37.264v38.25s-65.771,1.5-65.771,1.5c-5.321,0-10.578-1.155-15.409-3.385l-2.238-1.033c-9.129-4.214-16.228-11.857-19.757-21.271l-.352-1.398c-1.836-7.29-1.722-14.935.329-22.168Z" fill="none" stroke="#ccc" stroke-miterlimit="10" stroke-width="4"/>
    <path d="M2535.296,2042.009l.161-.569c3.531-9.414,10.63-17.057,19.757-21.271l2.243-1.035c4.83-2.229,10.087-3.384,15.406-3.384h67.27s-.138,37.264-.138,37.264v38.25h-67.271c-5.321,0-10.578-1.155-15.409-3.385l-2.238-1.033c-9.129-4.214-16.228-11.857-19.757-21.271l-.352-1.398c-1.836-7.29-1.722-14.935.329-22.168Z" fill="none" stroke="#ccc" stroke-miterlimit="10" stroke-width="4"/>
    <path d="M1519.113,2562.177l-.569.161c-9.414,3.531-17.057,10.63-21.271,19.757l-1.035,2.243c-2.229,4.83-3.384,10.087-3.384,15.406v53.766l37.264-.138h38.25v-53.768c0-5.321-1.155-10.578-3.385-15.409l-1.033-2.238c-4.214-9.129-11.857-16.228-21.271-19.757l-1.398-.352c-7.29-1.836-14.935-1.722-22.168.329Z" fill="none" stroke="#ccc" stroke-miterlimit="10" stroke-width="4"/>
    <path d="M638.783,2566.515h238.609c17.378,0,31.466,14.088,31.466,31.466v66.061" fill="none" stroke="#ccc" stroke-miterlimit="10" stroke-width="4"/>
    <path d="M2418.276,2566.515h-238.609c-17.378,0-31.466,14.088-31.466,31.466v66.061" fill="none" stroke="#ccc" stroke-miterlimit="10" stroke-width="4"/>
    <circle cx="617.778" cy="674.492" r="90.025" fill="none" stroke="#ccc" stroke-miterlimit="10" stroke-width="6"/>
    <polygon points="602.774 582.966 557.761 674.492 589.425 758.845 648.724 758.845 677.794 675.992 635.783 582.966 602.774 582.966" fill="none" stroke="#ccc" stroke-miterlimit="10" stroke-width="6"/>
    <line x1="617.778" y1="560.46" x2="617.778" y2="654.986" fill="none" stroke="#ccc" stroke-miterlimit="10" stroke-width="6"/>
    <line x1="536.755" y1="593.469" x2="554.775" y2="611.489" fill="none" stroke="#ccc" stroke-miterlimit="10" stroke-width="6"/>
    <line x1="506.747" y1="672.991" x2="527.753" y2="672.991" fill="none" stroke="#ccc" stroke-miterlimit="10" stroke-width="6"/>
    <line x1="541.257" y1="752.513" x2="556.01" y2="737.76" fill="none" stroke="#ccc" stroke-miterlimit="10" stroke-width="6"/>
    <path d="M728.808,672.991h-20.199" fill="none" stroke="#ccc" stroke-miterlimit="10" stroke-width="6"/>
    <line x1="695.799" y1="594.97" x2="679.859" y2="610.91" fill="none" stroke="#ccc" stroke-miterlimit="10" stroke-width="6"/>
    <path d="M2442.336,583.134c49.719,0,90.025,40.306,90.025,90.025s-40.306,90.025-90.025,90.025-90.025-40.306-90.025-90.025" fill="none" stroke="#ccc" stroke-miterlimit="10" stroke-width="6"/>
    <path d="M2352.311,673.158c0-49.719,40.306-90.025,90.025-90.025" fill="none" stroke="#ccc" stroke-miterlimit="10" stroke-width="6"/>
    <polygon points="2460.341 581.633 2502.353 674.659 2473.282 757.512 2413.983 757.512 2382.319 673.158 2427.332 581.633 2460.341 581.633" fill="none" stroke="#ccc" stroke-miterlimit="10" stroke-width="6"/>
    <line x1="2440.836" y1="559.127" x2="2440.836" y2="653.653" fill="none" stroke="#ccc" stroke-miterlimit="10" stroke-width="6"/>
    <line x1="2361.314" y1="592.136" x2="2379.333" y2="610.155" fill="none" stroke="#ccc" stroke-miterlimit="10" stroke-width="6"/>
    <line x1="2520.358" y1="593.636" x2="2504.418" y2="609.576" fill="none" stroke="#ccc" stroke-miterlimit="10" stroke-width="6"/>
    <g>
      <path d="M2530.091,744.358h5.019v26.631h-5.019v-26.631ZM2532.619,766.153h6.393c1.648,0,2.924-.396,3.828-1.19.903-.793,1.355-1.917,1.355-3.37v-7.839c0-1.453-.452-2.576-1.355-3.37-.904-.793-2.18-1.19-3.828-1.19h-6.393v-4.835h6.282c2.223,0,4.118.373,5.688,1.117,1.568.745,2.763,1.832,3.58,3.26.818,1.429,1.228,3.15,1.228,5.165v7.546c0,1.917-.394,3.59-1.182,5.019-.787,1.429-1.969,2.54-3.544,3.333-1.575.794-3.504,1.19-5.787,1.19h-6.265v-4.835Z" fill="#ccc" stroke="#ccc" stroke-miterlimit="10"/>
      <path d="M2560.741,744.358h3.187l10.184,26.631h-5.403l-6.374-18.188-6.373,18.188h-5.403l10.184-26.631ZM2555.447,761.885h14.012v4.835h-14.012v-4.835Z" fill="#ccc" stroke="#ccc" stroke-miterlimit="10"/>
      <path d="M2584.283,760.714v10.275h-5.019v-10.275l-7.839-16.356h5.257l5.092,11.465,5.092-11.465h5.256l-7.839,16.356Z" fill="#ccc" stroke="#ccc" stroke-miterlimit="10"/>
    </g>
    <line x1="2506.172" y1="736.926" x2="2521.032" y2="751.785" fill="none" stroke="#ccc" stroke-miterlimit="10" stroke-width="6"/>
    <g>
      <path d="M2533.642,567.595h3.187l10.184,26.631h-5.403l-6.374-18.188-6.373,18.188h-5.403l10.184-26.631ZM2528.348,585.123h14.012v4.835h-14.012v-4.835Z" fill="#ccc" stroke="#ccc" stroke-miterlimit="10"/>
      <path d="M2552.44,593.338c-1.453-.775-2.558-1.905-3.314-3.389-.758-1.483-1.136-3.269-1.136-5.357v-16.997h5.019v17.125c0,1.526.409,2.711,1.227,3.553.818.843,1.973,1.264,3.462,1.264,1.502,0,2.665-.421,3.489-1.264.824-.842,1.236-2.027,1.236-3.553v-17.125h5.019v16.997c0,2.088-.382,3.874-1.145,5.357-.764,1.484-1.875,2.613-3.334,3.389s-3.214,1.163-5.266,1.163-3.804-.388-5.257-1.163Z" fill="#ccc" stroke="#ccc" stroke-miterlimit="10"/>
      <path d="M2568.785,567.595h19.524v4.835h-19.524v-4.835ZM2576.038,569.775h5.019v24.451h-5.019v-24.451Z" fill="#ccc" stroke="#ccc" stroke-miterlimit="10"/>
      <path d="M2594.095,593.282c-1.472-.812-2.61-1.959-3.416-3.443-.806-1.483-1.209-3.202-1.209-5.156v-7.546c0-1.954.403-3.672,1.209-5.156.806-1.484,1.944-2.631,3.416-3.443,1.471-.812,3.171-1.218,5.101-1.218s3.629.406,5.101,1.218,2.61,1.959,3.416,3.443c.806,1.483,1.209,3.202,1.209,5.156v7.546c0,1.954-.403,3.672-1.209,5.156-.806,1.484-1.944,2.631-3.416,3.443-1.472.812-3.172,1.218-5.101,1.218s-3.63-.406-5.101-1.218ZM2601.577,588.905c.684-.384,1.212-.931,1.584-1.639.373-.708.559-1.526.559-2.454v-7.803c0-.928-.186-1.746-.559-2.454-.372-.708-.9-1.255-1.584-1.639-.684-.385-1.478-.577-2.381-.577s-1.697.192-2.381.577c-.685.384-1.212.931-1.585,1.639-.372.708-.559,1.526-.559,2.454v7.803c0,.928.187,1.746.559,2.454.373.708.9,1.255,1.585,1.639.684.385,1.477.577,2.381.577s1.697-.192,2.381-.577Z" fill="#ccc" stroke="#ccc" stroke-miterlimit="10"/>
    </g>
    <g>
      <path d="M2393.839,522.582h6.136l9.908,20.403-.439.477v-20.88h4.799v26.612h-6.173l-9.872-20.092.439-.477v20.568h-4.798v-26.612Z" fill="#ccc" stroke="#ccc" stroke-miterlimit="10"/>
      <path d="M2424.451,549.213h-5.201v-26.631h5.201v26.631Z" fill="#ccc" stroke="#ccc" stroke-miterlimit="10"/>
      <path d="M2448.396,534.322v5.202c0,1.978-.399,3.721-1.199,5.229-.8,1.508-1.933,2.674-3.397,3.499-1.466.824-3.163,1.236-5.092,1.236-1.941,0-3.654-.388-5.138-1.163s-2.631-1.871-3.443-3.288-1.218-3.059-1.218-4.927v-7.857c0-1.978.399-3.718,1.199-5.22s1.933-2.665,3.397-3.489c1.466-.824,3.163-1.236,5.092-1.236,1.588,0,3.053.327,4.396.98,1.343.653,2.463,1.578,3.36,2.775s1.505,2.583,1.822,4.158h-5.421c-.184-.562-.485-1.047-.907-1.456-.421-.409-.915-.721-1.483-.934-.567-.214-1.157-.321-1.768-.321-.891,0-1.676.196-2.354.586s-1.202.946-1.575,1.667c-.372.721-.559,1.551-.559,2.491v7.857c0,.831.189,1.563.568,2.198.378.635.916,1.124,1.611,1.465.696.342,1.502.513,2.418.513.903,0,1.694-.186,2.372-.559s1.199-.913,1.565-1.621c.366-.708.55-1.544.55-2.509v-.439h-4.029v-4.835h9.23Z" fill="#ccc" stroke="#ccc" stroke-miterlimit="10"/>
      <path d="M2452.854,522.582h5.019v26.631h-5.019v-26.631ZM2455.18,533.59h15.514v4.835h-15.514v-4.835ZM2467.433,522.582h5.019v26.631h-5.019v-26.631Z" fill="#ccc" stroke="#ccc" stroke-miterlimit="10"/>
      <path d="M2475.628,522.582h19.524v4.835h-19.524v-4.835ZM2482.88,524.762h5.019v24.451h-5.019v-24.451Z" fill="#ccc" stroke="#ccc" stroke-miterlimit="10"/>
    </g>
    <g>
      <path d="M2297.047,593.282c-1.472-.812-2.61-1.959-3.416-3.443-.806-1.483-1.209-3.202-1.209-5.156v-7.546c0-1.954.403-3.672,1.209-5.156.806-1.484,1.944-2.631,3.416-3.443,1.471-.812,3.171-1.218,5.101-1.218s3.629.406,5.101,1.218,2.61,1.959,3.416,3.443c.806,1.483,1.209,3.202,1.209,5.156v7.546c0,1.954-.403,3.672-1.209,5.156-.806,1.484-1.944,2.631-3.416,3.443-1.472.812-3.172,1.218-5.101,1.218s-3.63-.406-5.101-1.218ZM2304.529,588.905c.684-.384,1.212-.931,1.584-1.639.373-.708.559-1.526.559-2.454v-7.803c0-.928-.186-1.746-.559-2.454-.372-.708-.9-1.255-1.584-1.639-.684-.385-1.478-.577-2.381-.577s-1.697.192-2.381.577c-.685.384-1.212.931-1.585,1.639-.372.708-.559,1.526-.559,2.454v7.803c0,.928.187,1.746.559,2.454.373.708.9,1.255,1.585,1.639.684.385,1.477.577,2.381.577s1.697-.192,2.381-.577Z" fill="#ccc" stroke="#ccc" stroke-miterlimit="10"/>
      <path d="M2316.332,567.595h5.019v26.631h-5.019v-26.631ZM2318.163,567.595h15.66v4.835h-15.66v-4.835ZM2318.163,578.822h13.646v4.835h-13.646v-4.835Z" fill="#ccc" stroke="#ccc" stroke-miterlimit="10"/>
      <path d="M2337.181,567.595h5.019v26.631h-5.019v-26.631ZM2339.013,567.595h15.659v4.835h-15.659v-4.835ZM2339.013,578.822h13.645v4.835h-13.645v-4.835Z" fill="#ccc" stroke="#ccc" stroke-miterlimit="10"/>
    </g>
    <g>
      <path d="M549.75,466.508h8.59l13.872,28.565-.615.667v-29.231h6.719v37.257h-8.642l-13.821-28.129.615-.667v28.795h-6.718v-37.257Z" fill="#ccc" stroke="#ccc" stroke-miterlimit="10"/>
      <path d="M593.418,466.508h4.462l14.257,37.283h-7.564l-8.923-25.462-8.924,25.462h-7.564l14.257-37.283ZM586.007,491.047h19.616v6.77h-19.616v-6.77Z" fill="#ccc" stroke="#ccc" stroke-miterlimit="10"/>
      <path d="M607.342,466.508h7.23l7.924,24.873,7.923-24.873h7.231l-12.411,37.283h-5.487l-12.41-37.283Z" fill="#ccc" stroke="#ccc" stroke-miterlimit="10"/>
      <path d="M673.064,466.508h9.257v37.283h-6.385v-28.95l.256,1.641-7.128,23.155h-6.206l-7.128-22.642.256-2.154v28.95h-6.385v-37.283h9.257l7.104,25.129,7.103-25.129Z" fill="#ccc" stroke="#ccc" stroke-miterlimit="10"/>
      <path d="M692.975,502.47c-2.06-1.137-3.654-2.744-4.782-4.821-1.128-2.077-1.692-4.483-1.692-7.218v-10.564c0-2.735.564-5.141,1.692-7.218s2.723-3.684,4.782-4.821c2.06-1.136,4.44-1.705,7.142-1.705s5.081.569,7.141,1.705c2.061,1.137,3.654,2.744,4.782,4.821,1.129,2.077,1.692,4.483,1.692,7.218v10.564c0,2.735-.563,5.141-1.692,7.218-1.128,2.077-2.722,3.684-4.782,4.821-2.06,1.137-4.44,1.705-7.141,1.705s-5.082-.568-7.142-1.705ZM703.45,496.342c.957-.539,1.696-1.304,2.218-2.295.521-.991.782-2.136.782-3.436v-10.924c0-1.299-.261-2.444-.782-3.436-.521-.991-1.261-1.756-2.218-2.295-.957-.538-2.068-.808-3.333-.808s-2.377.27-3.334.808c-.957.539-1.696,1.304-2.218,2.295-.521.992-.782,2.137-.782,3.436v10.924c0,1.299.261,2.444.782,3.436.521.992,1.261,1.757,2.218,2.295.957.538,2.068.808,3.334.808s2.376-.27,3.333-.808Z" fill="#ccc" stroke="#ccc" stroke-miterlimit="10"/>
      <path d="M717.4,466.508h7.025v37.283h-7.025v-37.283ZM720.938,497.021h8.949c2.308,0,4.094-.555,5.359-1.667,1.265-1.111,1.897-2.684,1.897-4.718v-10.975c0-2.034-.633-3.607-1.897-4.718-1.266-1.111-3.052-1.667-5.359-1.667h-8.949v-6.77h8.796c3.11,0,5.765.521,7.962,1.564,2.196,1.043,3.867,2.564,5.013,4.564,1.145,2,1.718,4.41,1.718,7.231v10.564c0,2.684-.551,5.026-1.654,7.026-1.103,2-2.756,3.556-4.961,4.667s-4.906,1.667-8.104,1.667h-8.77v-6.77Z" fill="#ccc" stroke="#ccc" stroke-miterlimit="10"/>
      <path d="M748.093,466.508h7.026v37.283h-7.026v-37.283ZM750.632,466.508h22.437v6.77h-22.437v-6.77ZM750.632,481.893h19.616v6.769h-19.616v-6.769ZM750.632,497.021h22.437v6.77h-22.437v-6.77Z" fill="#ccc" stroke="#ccc" stroke-miterlimit="10"/>
      <path d="M793.571,503.637c-1.701-.359-3.3-.885-4.795-1.577-1.496-.692-2.834-1.525-4.014-2.5l3.257-5.795c1.436,1.179,3.094,2.09,4.975,2.731,1.88.641,3.812.961,5.795.961,2.29,0,4.068-.389,5.333-1.167,1.266-.778,1.898-1.876,1.898-3.295v-.025c0-.991-.282-1.778-.847-2.359s-1.299-1.009-2.205-1.282-2.068-.521-3.487-.744c-.052-.017-.099-.026-.141-.026-.043,0-.09-.008-.142-.025l-.564-.077c-2.496-.393-4.563-.884-6.205-1.474-1.641-.59-3.034-1.624-4.18-3.103-1.146-1.478-1.718-3.577-1.718-6.295v-.025c0-2.411.538-4.47,1.615-6.18s2.642-3.013,4.692-3.911c2.052-.897,4.53-1.346,7.437-1.346,1.333,0,2.696.154,4.09.461,1.393.308,2.757.752,4.09,1.333,1.333.582,2.599,1.282,3.795,2.103l-2.975,5.949c-1.436-.991-2.936-1.761-4.5-2.308-1.564-.547-3.064-.82-4.5-.82-2.154,0-3.82.355-5,1.064-1.18.71-1.77,1.706-1.77,2.987v.026c0,1.077.308,1.927.923,2.551s1.376,1.082,2.282,1.372,2.18.598,3.82.923c.068.017.137.03.206.039.067.009.136.021.205.039.103.017.2.038.295.064.094.025.191.047.295.064,2.358.461,4.328,1.022,5.91,1.68,1.581.658,2.901,1.718,3.962,3.18,1.06,1.461,1.589,3.458,1.589,5.987v.051c0,2.376-.556,4.41-1.666,6.103-1.111,1.692-2.731,2.983-4.859,3.872-2.128.889-4.688,1.333-7.68,1.333-1.778,0-3.518-.18-5.218-.539Z" fill="#ccc" stroke="#ccc" stroke-miterlimit="10"/>
      <path d="M815.636,466.508h7.025v37.283h-7.025v-37.283ZM818.174,466.508h22.437v6.77h-22.437v-6.77ZM818.174,481.893h19.616v6.769h-19.616v-6.769ZM818.174,497.021h22.437v6.77h-22.437v-6.77Z" fill="#ccc" stroke="#ccc" stroke-miterlimit="10"/>
      <path d="M843.766,466.508h7.025v37.283h-7.025v-37.283ZM846.894,497.021h21.847v6.77h-21.847v-6.77Z" fill="#ccc" stroke="#ccc" stroke-miterlimit="10"/>
    </g>
    <g>
      <path d="M710.346,568.592h3.187l10.184,26.631h-5.403l-6.374-18.188-6.373,18.188h-5.403l10.184-26.631ZM705.052,586.12h14.012v4.835h-14.012v-4.835Z" fill="#ccc" stroke="#ccc" stroke-miterlimit="10"/>
      <path d="M726.526,568.592h5.019v26.631h-5.019v-26.631ZM728.851,579.6h15.514v4.835h-15.514v-4.835ZM741.105,568.592h5.019v26.631h-5.019v-26.631Z" fill="#ccc" stroke="#ccc" stroke-miterlimit="10"/>
      <path d="M751.497,568.574h5.019v26.649h-5.019v-26.649ZM753.493,579.674h9.269c.513,0,.964-.128,1.354-.385s.693-.623.907-1.099c.213-.476.326-1.025.339-1.648,0-.623-.107-1.172-.32-1.648-.214-.476-.517-.842-.907-1.099s-.849-.385-1.373-.385h-9.269v-4.835h9.671c1.466,0,2.754.33,3.864.989,1.111.659,1.973,1.591,2.583,2.793.61,1.203.916,2.598.916,4.185s-.306,2.983-.916,4.186-1.475,2.134-2.592,2.793-2.402.989-3.855.989h-9.671v-4.835ZM759.097,583.684l5.367-.842,7.18,12.381h-6.081l-6.466-11.539Z" fill="#ccc" stroke="#ccc" stroke-miterlimit="10"/>
      <path d="M779.371,595.113c-1.215-.256-2.356-.632-3.425-1.126s-2.024-1.09-2.866-1.786l2.326-4.14c1.025.843,2.209,1.493,3.553,1.951,1.343.458,2.723.687,4.14.687,1.636,0,2.905-.278,3.81-.833.903-.555,1.355-1.34,1.355-2.354v-.018c0-.708-.202-1.27-.604-1.685-.403-.415-.929-.721-1.575-.916-.647-.195-1.478-.372-2.491-.531-.036-.012-.07-.018-.101-.018s-.064-.006-.101-.019l-.403-.055c-1.783-.281-3.26-.632-4.433-1.053-1.172-.421-2.167-1.16-2.985-2.216s-1.227-2.555-1.227-4.497v-.018c0-1.722.385-3.193,1.153-4.414.77-1.221,1.887-2.152,3.352-2.793,1.466-.641,3.236-.962,5.312-.962.953,0,1.927.11,2.922.33.995.22,1.969.538,2.921.953.953.415,1.856.916,2.711,1.502l-2.124,4.249c-1.026-.708-2.098-1.257-3.215-1.648-1.117-.391-2.188-.586-3.215-.586-1.538,0-2.729.253-3.571.76-.842.507-1.264,1.218-1.264,2.134v.018c0,.77.22,1.377.659,1.822.439.446.983.772,1.631.98.646.208,1.557.428,2.729.66.049.012.098.021.146.027.049.006.098.016.146.027.073.012.144.027.211.046.066.018.137.034.211.046,1.685.33,3.092.729,4.222,1.2,1.129.47,2.072,1.227,2.829,2.271s1.136,2.47,1.136,4.277v.037c0,1.697-.396,3.15-1.19,4.359s-1.95,2.131-3.471,2.766c-1.521.635-3.349.953-5.485.953-1.271,0-2.513-.128-3.728-.385Z" fill="#ccc" stroke="#ccc" stroke-miterlimit="10"/>
    </g>
    <g>
      <path d="M740.609,679.377h-5.202v-26.631h5.202v26.631Z" fill="#ccc" stroke="#ccc" stroke-miterlimit="10"/>
      <path d="M762.376,652.746h6.612v26.631h-4.561v-20.678l.183,1.172-5.092,16.539h-4.432l-5.092-16.172.183-1.539v20.678h-4.561v-26.631h6.612l5.073,17.949,5.074-17.949Z" fill="#ccc" stroke="#ccc" stroke-miterlimit="10"/>
      <path d="M778.445,678.488c-1.453-.775-2.558-1.905-3.315-3.389-.757-1.483-1.136-3.269-1.136-5.357v-16.997h5.019v17.125c0,1.526.409,2.711,1.227,3.553.818.843,1.972,1.264,3.462,1.264,1.502,0,2.665-.421,3.489-1.264.824-.842,1.236-2.027,1.236-3.553v-17.125h5.018v16.997c0,2.088-.381,3.874-1.145,5.357-.763,1.484-1.875,2.613-3.333,3.389s-3.214,1.163-5.266,1.163-3.804-.388-5.257-1.163Z" fill="#ccc" stroke="#ccc" stroke-miterlimit="10"/>
    </g>
    <g>
      <path d="M594.021,549.132h-5.201v-26.631h5.201v26.631Z" fill="#ccc" stroke="#ccc" stroke-miterlimit="10"/>
      <path d="M599.029,522.501h6.136l9.908,20.403-.439.477v-20.88h4.799v26.612h-6.173l-9.872-20.092.439-.477v20.568h-4.798v-26.612Z" fill="#ccc" stroke="#ccc" stroke-miterlimit="10"/>
      <path d="M629.449,549.022c-1.216-.256-2.357-.632-3.426-1.126s-2.023-1.09-2.866-1.786l2.326-4.14c1.025.843,2.21,1.493,3.554,1.951,1.343.458,2.723.687,4.139.687,1.637,0,2.906-.278,3.81-.833.903-.555,1.355-1.34,1.355-2.354v-.018c0-.708-.201-1.27-.604-1.685-.402-.415-.928-.721-1.575-.916s-1.478-.372-2.49-.531c-.037-.012-.071-.018-.102-.018s-.063-.006-.101-.019l-.402-.055c-1.783-.281-3.261-.632-4.433-1.053s-2.168-1.16-2.985-2.216c-.818-1.056-1.228-2.555-1.228-4.497v-.018c0-1.722.385-3.193,1.154-4.414.77-1.221,1.887-2.152,3.352-2.793,1.465-.641,3.235-.962,5.312-.962.952,0,1.926.11,2.921.33.995.22,1.97.538,2.922.953s1.855.916,2.711,1.502l-2.125,4.249c-1.025-.708-2.097-1.257-3.214-1.648-1.118-.391-2.189-.586-3.215-.586-1.538,0-2.729.253-3.571.76-.843.507-1.264,1.218-1.264,2.134v.018c0,.77.22,1.377.659,1.822.439.446.982.772,1.63.98.647.208,1.557.428,2.729.66.048.012.097.021.146.027.048.006.098.016.146.027.073.012.143.027.21.046.067.018.138.034.211.046,1.685.33,3.092.729,4.222,1.2,1.129.47,2.072,1.227,2.83,2.271.757,1.044,1.136,2.47,1.136,4.277v.037c0,1.697-.397,3.15-1.191,4.359-.793,1.209-1.95,2.131-3.471,2.766-1.52.635-3.349.953-5.485.953-1.27,0-2.512-.128-3.727-.385Z" fill="#ccc" stroke="#ccc" stroke-miterlimit="10"/>
    </g>
    <g>
      <path d="M473.454,591.755c-1.441-.775-2.54-1.905-3.297-3.389-.758-1.483-1.136-3.275-1.136-5.375v-7.308c0-2.1.378-3.892,1.136-5.375.757-1.483,1.855-2.616,3.297-3.397,1.44-.781,3.174-1.172,5.201-1.172,1.673,0,3.169.36,4.487,1.081,1.319.721,2.408,1.768,3.27,3.141.86,1.374,1.456,3.031,1.786,4.973h-5.202c-.195-.879-.497-1.63-.906-2.252-.409-.623-.904-1.099-1.483-1.429-.58-.33-1.23-.495-1.951-.495-.94,0-1.74.192-2.399.577-.659.384-1.163.946-1.511,1.685s-.522,1.627-.522,2.665v7.308c0,1.038.175,1.923.522,2.656s.852,1.292,1.511,1.676c.659.385,1.459.577,2.399.577.732,0,1.393-.162,1.979-.485s1.08-.797,1.483-1.419c.402-.623.696-1.38.879-2.271h5.202c-.343,1.942-.943,3.599-1.805,4.973-.86,1.374-1.947,2.42-3.26,3.141-1.312.72-2.806,1.081-4.479,1.081-2.027,0-3.761-.388-5.201-1.163Z" fill="#ccc" stroke="#ccc" stroke-miterlimit="10"/>
      <path d="M489.542,566.012h5.165l5.659,17.766,5.659-17.766h5.165l-8.864,26.631h-3.92l-8.864-26.631Z" fill="#ccc" stroke="#ccc" stroke-miterlimit="10"/>
      <path d="M519.788,566.012h3.187l10.184,26.631h-5.403l-6.374-18.188-6.373,18.188h-5.403l10.184-26.631ZM514.494,583.54h14.012v4.835h-14.012v-4.835Z" fill="#ccc" stroke="#ccc" stroke-miterlimit="10"/>
    </g>
    <g>
      <path d="M451.98,670.355v5.202c0,1.978-.4,3.721-1.2,5.229-.8,1.508-1.932,2.674-3.397,3.499-1.465.824-3.162,1.236-5.092,1.236-1.941,0-3.653-.388-5.137-1.163-1.484-.775-2.632-1.871-3.443-3.288-.812-1.417-1.219-3.059-1.219-4.927v-7.857c0-1.978.4-3.718,1.2-5.22s1.933-2.665,3.397-3.489,3.162-1.236,5.092-1.236c1.587,0,3.053.327,4.396.98,1.343.653,2.464,1.578,3.361,2.775s1.505,2.583,1.822,4.158h-5.422c-.183-.562-.485-1.047-.906-1.456s-.916-.721-1.483-.934c-.568-.214-1.157-.321-1.768-.321-.892,0-1.676.196-2.354.586s-1.203.946-1.575,1.667c-.373.721-.559,1.551-.559,2.491v7.857c0,.831.189,1.563.567,2.198.379.635.916,1.124,1.612,1.465.695.342,1.502.513,2.417.513.904,0,1.694-.186,2.372-.559s1.2-.913,1.566-1.621c.366-.708.549-1.544.549-2.509v-.439h-4.029v-4.835h9.231Z" fill="#ccc" stroke="#ccc" stroke-miterlimit="10"/>
      <path d="M456.438,658.615h6.136l9.908,20.403-.439.477v-20.88h4.799v26.612h-6.173l-9.872-20.092.439-.477v20.568h-4.798v-26.612Z" fill="#ccc" stroke="#ccc" stroke-miterlimit="10"/>
      <path d="M482.214,658.615h5.019v26.631h-5.019v-26.631ZM484.742,680.41h6.393c1.648,0,2.924-.396,3.828-1.19.903-.793,1.355-1.917,1.355-3.37v-7.839c0-1.453-.452-2.576-1.355-3.37-.904-.793-2.18-1.19-3.828-1.19h-6.393v-4.835h6.282c2.223,0,4.118.373,5.688,1.117,1.568.745,2.763,1.832,3.58,3.26.818,1.429,1.228,3.15,1.228,5.165v7.546c0,1.917-.394,3.59-1.182,5.019-.787,1.429-1.969,2.54-3.544,3.333-1.575.794-3.504,1.19-5.787,1.19h-6.265v-4.835Z" fill="#ccc" stroke="#ccc" stroke-miterlimit="10"/>
    </g>
    <g>
      <path d="M466.929,766.825c-1.472-.812-2.61-1.959-3.416-3.443-.806-1.483-1.209-3.202-1.209-5.156v-7.546c0-1.954.403-3.672,1.209-5.156.806-1.484,1.944-2.631,3.416-3.443,1.471-.812,3.171-1.218,5.101-1.218s3.629.406,5.101,1.218,2.61,1.959,3.416,3.443c.806,1.483,1.209,3.202,1.209,5.156v7.546c0,1.954-.403,3.672-1.209,5.156-.806,1.484-1.944,2.631-3.416,3.443-1.472.812-3.172,1.218-5.101,1.218s-3.63-.406-5.101-1.218ZM474.411,762.448c.684-.384,1.212-.931,1.584-1.639.373-.708.559-1.526.559-2.454v-7.803c0-.928-.186-1.746-.559-2.454-.372-.708-.9-1.255-1.584-1.639-.684-.385-1.478-.577-2.381-.577s-1.697.192-2.381.577c-.685.384-1.212.931-1.585,1.639-.372.708-.559,1.526-.559,2.454v7.803c0,.928.187,1.746.559,2.454.373.708.9,1.255,1.585,1.639.684.385,1.477.577,2.381.577s1.697-.192,2.381-.577Z" fill="#ccc" stroke="#ccc" stroke-miterlimit="10"/>
      <path d="M486.213,741.138h5.019v26.631h-5.019v-26.631ZM488.044,741.138h15.66v4.835h-15.66v-4.835ZM488.044,752.365h13.646v4.835h-13.646v-4.835Z" fill="#ccc" stroke="#ccc" stroke-miterlimit="10"/>
      <path d="M507.063,741.138h5.019v26.631h-5.019v-26.631ZM508.895,741.138h15.659v4.835h-15.659v-4.835ZM508.895,752.365h13.645v4.835h-13.645v-4.835Z" fill="#ccc" stroke="#ccc" stroke-miterlimit="10"/>
    </g>
    <polygon points="618.302 576.965 603.822 620.477 632.782 620.477 618.302 576.965" fill="#ccc"/>
    <line x1="618.096" y1="608.738" x2="618.096" y2="654.986" stroke="#ccc" stroke-miterlimit="10" stroke-width="7"/>
    <polygon points="2440.48 576.871 2426 620.383 2454.96 620.383 2440.48 576.871" fill="#ccc"/>
    <line x1="2440.274" y1="608.645" x2="2440.274" y2="654.893" stroke="#ccc" stroke-miterlimit="10" stroke-width="7"/>
    <circle cx="1123.572" cy="618.004" r="25.132" fill="none" stroke="#ccc" stroke-miterlimit="10" stroke-width="5"/>
    <circle cx="1337.814" cy="617.438" r="25.132" fill="none" stroke="#ccc" stroke-miterlimit="10" stroke-width="5"/>
    <circle cx="1852.17" cy="588.79" r="67.747" fill="none" stroke="#ccc" stroke-miterlimit="10" stroke-width="5"/>
    <line x1="1849.485" y1="609.663" x2="1832.056" y2="652.501" stroke="#ccc" stroke-miterlimit="10" stroke-width="7"/>
    <circle cx="1231.078" cy="584.599" r="66.768" fill="none" stroke="#ccc" stroke-miterlimit="10" stroke-width="5"/>
    <line x1="1210.376" y1="616.141" x2="1194.474" y2="641.441" fill="none" stroke="#ccc" stroke-miterlimit="10" stroke-width="7"/>
    <g>
      <path d="M1818.602,505.109c-1.44-.775-2.54-1.905-3.297-3.389-.757-1.483-1.136-3.275-1.136-5.375v-7.308c0-2.1.379-3.892,1.136-5.375s1.856-2.616,3.297-3.397c1.44-.781,3.175-1.172,5.202-1.172,1.672,0,3.168.36,4.486,1.081,1.319.721,2.408,1.768,3.27,3.141.861,1.374,1.457,3.031,1.786,4.973h-5.202c-.195-.879-.497-1.63-.906-2.252-.409-.623-.904-1.099-1.483-1.429-.58-.33-1.23-.495-1.95-.495-.941,0-1.74.192-2.4.577-.658.384-1.162.946-1.511,1.685-.348.739-.522,1.627-.522,2.665v7.308c0,1.038.175,1.923.522,2.656.349.732.853,1.292,1.511,1.676.66.385,1.459.577,2.4.577.732,0,1.392-.162,1.978-.485s1.081-.797,1.483-1.419c.402-.623.696-1.38.879-2.271h5.202c-.343,1.942-.943,3.599-1.804,4.973-.861,1.374-1.948,2.42-3.261,3.141-1.312.72-2.806,1.081-4.478,1.081-2.027,0-3.762-.388-5.202-1.163Z" fill="#ccc"/>
      <path d="M1840.781,505.053c-1.473-.812-2.611-1.959-3.416-3.443-.807-1.483-1.209-3.202-1.209-5.156v-7.546c0-1.954.402-3.672,1.209-5.156.805-1.484,1.943-2.631,3.416-3.443,1.471-.812,3.171-1.218,5.1-1.218s3.63.406,5.102,1.218c1.471.812,2.609,1.959,3.416,3.443.806,1.483,1.209,3.202,1.209,5.156v7.546c0,1.954-.403,3.672-1.209,5.156-.807,1.484-1.945,2.631-3.416,3.443-1.472.812-3.172,1.218-5.102,1.218s-3.629-.406-5.1-1.218ZM1848.262,500.676c.684-.384,1.212-.931,1.584-1.639.372-.708.559-1.526.559-2.454v-7.803c0-.928-.187-1.746-.559-2.454s-.9-1.255-1.584-1.639c-.685-.385-1.478-.577-2.382-.577s-1.697.192-2.381.577c-.684.384-1.211.931-1.584,1.639s-.559,1.526-.559,2.454v7.803c0,.928.186,1.746.559,2.454.373.708.9,1.255,1.584,1.639.684.385,1.478.577,2.381.577s1.697-.192,2.382-.577Z" fill="#ccc"/>
      <path d="M1860.064,479.366h6.136l9.909,20.403-.44.477v-20.88h4.799v26.612h-6.173l-9.871-20.092.439-.477v20.568h-4.799v-26.612Z" fill="#ccc"/>
      <path d="M1883.643,479.366h19.524v4.835h-19.524v-4.835ZM1890.896,481.546h5.019v24.451h-5.019v-24.451Z" fill="#ccc"/>
    </g>
    <g>
      <path d="M1199.165,480.274h5.019v26.631h-5.019v-26.631ZM1201.363,502.07h8.498c1.147,0,2.036-.277,2.665-.833s.943-1.334.943-2.335v-.055c0-.671-.141-1.245-.421-1.722-.281-.476-.693-.839-1.236-1.089-.544-.25-1.194-.375-1.951-.375h-8.498v-4.835h8.498c1.038,0,1.841-.263,2.408-.788.568-.525.853-1.264.853-2.216,0-.854-.284-1.52-.853-1.996-.567-.477-1.37-.714-2.408-.714h-8.498v-4.835h8.663c1.722,0,3.192.284,4.414.852,1.221.568,2.148,1.392,2.784,2.473.635,1.081.952,2.378.952,3.892,0,1.038-.205,1.957-.613,2.756-.409.8-1.005,1.456-1.786,1.969-.781.513-1.722.861-2.82,1.044,1.172.159,2.176.516,3.013,1.071.836.556,1.472,1.279,1.904,2.17.434.892.65,1.923.65,3.095v.055c0,1.526-.32,2.833-.961,3.919-.642,1.087-1.575,1.914-2.803,2.482-1.227.568-2.701.852-4.423.852h-8.975v-4.835Z" fill="#ccc"/>
      <path d="M1222.89,480.256h5.019v26.649h-5.019v-26.649ZM1224.886,491.355h9.269c.513,0,.964-.128,1.354-.385s.693-.623.907-1.099c.213-.476.326-1.025.339-1.648,0-.623-.107-1.172-.32-1.648-.214-.476-.517-.842-.907-1.099s-.849-.385-1.373-.385h-9.269v-4.835h9.671c1.466,0,2.754.33,3.864.989,1.111.659,1.973,1.591,2.583,2.793.61,1.203.916,2.598.916,4.185s-.306,2.983-.916,4.186-1.475,2.134-2.592,2.793-2.402.989-3.855.989h-9.671v-4.835ZM1230.491,495.366l5.367-.842,7.18,12.381h-6.081l-6.466-11.539Z" fill="#ccc"/>
      <path d="M1243.191,480.274h19.524v4.835h-19.524v-4.835ZM1250.444,482.454h5.019v24.451h-5.019v-24.451Z" fill="#ccc"/>
    </g>
    <circle cx="1231.078" cy="584.599" r="37.884" fill="none" stroke="#ccc" stroke-miterlimit="10" stroke-width="5"/>
    <line x1="1235.637" y1="583.416" x2="1266.124" y2="601.803" fill="none" stroke="#ccc" stroke-miterlimit="10" stroke-width="7"/>
    <g>
      <path d="M999.469,605.54h5.019v26.649h-5.019v-26.649ZM1001.465,616.639h9.268c.513,0,.964-.128,1.355-.385s.693-.623.907-1.099c.213-.476.327-1.025.339-1.648,0-.623-.107-1.172-.32-1.648-.214-.476-.516-.842-.907-1.099-.391-.256-.849-.385-1.374-.385h-9.268v-4.835h9.671c1.465,0,2.753.33,3.864.989,1.111.659,1.972,1.591,2.583,2.793.611,1.203.916,2.598.916,4.185s-.305,2.983-.916,4.186c-.61,1.203-1.474,2.134-2.591,2.793s-2.403.989-3.855.989h-9.671v-4.835ZM1007.069,620.65l5.367-.842,7.18,12.381h-6.081l-6.466-11.539Z" fill="#ccc"/>
      <path d="M1027.343,632.079c-1.215-.256-2.357-.632-3.425-1.126s-2.024-1.09-2.866-1.786l2.326-4.14c1.025.843,2.209,1.493,3.553,1.951,1.343.458,2.723.687,4.139.687,1.636,0,2.906-.278,3.81-.833.903-.555,1.355-1.34,1.355-2.354v-.018c0-.708-.202-1.27-.604-1.685s-.928-.721-1.575-.916c-.647-.195-1.478-.372-2.491-.531-.037-.012-.071-.018-.101-.018s-.064-.006-.101-.019l-.403-.055c-1.783-.281-3.26-.632-4.433-1.053-1.172-.421-2.167-1.16-2.985-2.216-.818-1.056-1.227-2.555-1.227-4.497v-.018c0-1.722.385-3.193,1.154-4.414.77-1.221,1.887-2.152,3.352-2.793,1.465-.641,3.236-.962,5.312-.962.953,0,1.926.11,2.921.33.995.22,1.969.538,2.921.953.953.415,1.856.916,2.711,1.502l-2.125,4.249c-1.026-.708-2.097-1.257-3.214-1.648-1.118-.391-2.189-.586-3.215-.586-1.538,0-2.729.253-3.571.76s-1.264,1.218-1.264,2.134v.018c0,.77.22,1.377.659,1.822.439.446.983.772,1.63.98.647.208,1.557.428,2.729.66.048.012.097.021.146.027.048.006.098.016.146.027.073.012.143.027.21.046.067.018.137.034.211.046,1.685.33,3.092.729,4.222,1.2,1.129.47,2.072,1.227,2.83,2.271.757,1.044,1.136,2.47,1.136,4.277v.037c0,1.697-.397,3.15-1.191,4.359-.793,1.209-1.95,2.131-3.471,2.766-1.52.635-3.349.953-5.485.953-1.27,0-2.512-.128-3.727-.385Z" fill="#ccc"/>
      <path d="M1041.645,605.558h19.524v4.835h-19.524v-4.835ZM1048.898,607.738h5.019v24.451h-5.019v-24.451Z" fill="#ccc"/>
      <path d="M1063.612,605.54h5.019v26.649h-5.019v-26.649ZM1065.608,616.639h9.268c.513,0,.964-.128,1.355-.385s.693-.623.907-1.099c.213-.476.327-1.025.339-1.648,0-.623-.107-1.172-.32-1.648-.214-.476-.516-.842-.907-1.099-.391-.256-.849-.385-1.374-.385h-9.268v-4.835h9.671c1.465,0,2.753.33,3.864.989,1.111.659,1.972,1.591,2.583,2.793.611,1.203.916,2.598.916,4.185s-.305,2.983-.916,4.186c-.61,1.203-1.474,2.134-2.591,2.793s-2.403.989-3.855.989h-9.671v-4.835ZM1071.213,620.65l5.367-.842,7.18,12.381h-6.081l-6.466-11.539Z" fill="#ccc"/>
    </g>
    <g>
      <path d="M1381.962,632.08c-1.215-.257-2.357-.632-3.425-1.127-1.068-.494-2.024-1.09-2.866-1.785l2.326-4.14c1.025.843,2.209,1.493,3.553,1.95,1.343.458,2.723.688,4.139.688,1.636,0,2.906-.278,3.81-.834.903-.555,1.355-1.34,1.355-2.354v-.018c0-.708-.202-1.271-.604-1.686s-.928-.721-1.575-.916c-.647-.195-1.478-.372-2.491-.531-.037-.012-.071-.018-.101-.018s-.064-.006-.101-.019l-.403-.055c-1.783-.281-3.26-.632-4.433-1.054-1.172-.421-2.167-1.16-2.985-2.216-.818-1.057-1.227-2.555-1.227-4.497v-.018c0-1.722.385-3.193,1.154-4.414.77-1.221,1.887-2.152,3.352-2.793,1.465-.642,3.236-.962,5.312-.962.953,0,1.926.109,2.921.329.995.221,1.969.538,2.921.953.953.415,1.856.916,2.711,1.502l-2.125,4.249c-1.026-.708-2.097-1.258-3.214-1.648-1.118-.391-2.189-.586-3.215-.586-1.538,0-2.729.253-3.571.76s-1.264,1.218-1.264,2.134v.019c0,.77.22,1.377.659,1.822.439.446.983.772,1.63.979.647.208,1.557.428,2.729.66.048.012.097.021.146.027.048.006.098.016.146.027.073.012.143.027.21.046.067.018.137.033.211.046,1.685.329,3.092.729,4.222,1.199,1.129.471,2.072,1.228,2.83,2.271.757,1.044,1.136,2.47,1.136,4.276v.037c0,1.697-.397,3.149-1.191,4.358-.793,1.209-1.95,2.131-3.471,2.766-1.52.636-3.349.953-5.485.953-1.27,0-2.512-.129-3.727-.385Z" fill="#ccc"/>
      <path d="M1396.264,605.558h19.524v4.836h-19.524v-4.836ZM1403.517,607.738h5.019v24.451h-5.019v-24.451Z" fill="#ccc"/>
      <path d="M1418.232,605.54h5.019v26.649h-5.019v-26.649ZM1420.228,616.639h9.268c.513,0,.964-.128,1.355-.385.391-.256.693-.622.907-1.099.213-.477.327-1.025.339-1.648,0-.623-.107-1.172-.32-1.648-.214-.477-.516-.843-.907-1.099-.391-.257-.849-.385-1.374-.385h-9.268v-4.836h9.671c1.465,0,2.753.33,3.864.989,1.111.659,1.972,1.591,2.583,2.793.611,1.203.916,2.599.916,4.186s-.305,2.982-.916,4.186c-.61,1.202-1.474,2.134-2.591,2.793s-2.403.988-3.855.988h-9.671v-4.835ZM1425.832,620.65l5.367-.842,7.18,12.381h-6.081l-6.466-11.539Z" fill="#ccc"/>
      <path d="M1442.195,605.558h5.019v26.631h-5.019v-26.631ZM1445.217,621.786l10.678-16.228h6.319l-16.355,22.748-.641-6.521ZM1449.649,618.709l4.323-2.729,9.359,16.209h-5.953l-7.729-13.48Z" fill="#ccc"/>
    </g>
  </g>
  <g id="g" data-name="PTID_TAC_PAGE_NAV_DEST_-_Dark">
    <g>
      <rect x="770.087" y="830.739" width="37.043" height="152.87" fill="none"/>
      <path d="M798.257,872.549h-3.793v-18.669l-5.795,5.852-5.925-5.852v18.669h-3.794v-24.542h3.794l5.925,5.873,5.795-5.873h3.793v24.542Z" fill="#ccc"/>
      <path d="M782.642,885.06v6.202l15.644.035v4.025l-15.637-.036v6.202l15.637.035v4.025l-19.334-.036v-4.024h.004v-6.202h-.004v-1.273h-.003v-12.942h.003v-.036h19.334v4.025h-15.644Z" fill="#ccc"/>
      <path d="M798.256,938.547h-3.79s0,0,0,0h0v-.002l-11.723-17.628v17.63h-3.792v-24.534h3.792l11.723,17.588v-17.589h3.792v24.535Z" fill="#ccc"/>
      <path d="M798.262,967.416v4.133h-19.313v-.042h0v-24.51h3.792v20.42h11.729v-20.42h3.792v20.42h0Z" fill="#ccc"/>
    </g>
    <g>
      <rect x="770.153" y="1039.956" width="37.043" height="165.392" fill="none"/>
      <path d="M782.807,1067.612v16.282h15.519v4.133h-19.311v-24.511h.003v-.037h19.308v4.133h-15.519Z" fill="#ccc"/>
      <path d="M795.757,1121.027h-14.153v-24.513h4.259v20.253h9.894v4.259Z" fill="#ccc"/>
      <path d="M782.86,1133.533v6.199h15.446v14.295h-19.274l.002-4.065h15.445v-6.199h-15.447v-14.261h19.274v4.031h-15.446Z" fill="#ccc"/>
      <path d="M798.322,1187.026h-3.79s0,0,0,0h0v-.002l-11.723-17.628v17.63h-3.792v-24.534h3.792l11.723,17.588v-17.589h3.792v24.535Z" fill="#ccc"/>
    </g>
    <g>
      <rect x="770.674" y="1255.956" width="37.043" height="165.392" fill="none"/>
      <path d="M798.846,1283.278h-7.759v20.749h-3.792v-20.749h-7.759v-3.792h19.31v3.792Z" fill="#ccc"/>
      <path d="M798.865,1312.516v24.511h-3.792v-10.176h-11.744v10.177h-3.792v-24.511h3.792v10.201h11.744v-10.202h3.792Z" fill="#ccc"/>
      <path d="M796.279,1370.027h-14.153v-24.513h4.259v20.253h9.894v4.259Z" fill="#ccc"/>
      <path d="M798.872,1390.722c0,6.773-5.466,12.302-12.239,12.302l-7.111.003-.004-24.546h7.09c6.773,0,12.263,5.469,12.263,12.241ZM794.751,1390.734c0-4.335-2.615-8.132-6.95-8.132h-4.44l.065,16.339h4.456c4.335,0,6.869-3.873,6.869-8.207Z" fill="#ccc"/>
    </g>
    <g>
      <rect x="773.665" y="1900.826" width="80.161" height="165.392" fill="none"/>
      <path d="M789.106,1973.884h3.792v24.513h-3.792v-24.513Z" fill="#ccc"/>
      <path d="M815.626,1998.395l-19.24.002v-24.521l19.24-.002v24.521ZM800.178,1994.336h11.655v-16.451h-11.655v16.451Z" fill="#ccc"/>
      <path d="M838.376,1998.395l-19.24.002v-24.521l19.24-.002v24.521ZM822.928,1994.336h11.655v-16.451h-11.655v16.451Z" fill="#ccc"/>
    </g>
    <polygon points="809.349 1870.783 794.612 1896.309 824.087 1896.309 809.349 1870.783" fill="#ccc"/>
    <polygon points="809.349 2116.483 794.612 2090.957 824.087 2090.957 809.349 2116.483" fill="#ccc"/>
    <g>
      <rect x="945.783" y="2233.695" width="104.217" height="34.435" fill="none"/>
      <path d="M969.044,2265.788l-2.25-7.467h-6.155l-2.254,7.467h-4.366l7.622-24.503h4.139l7.548,24.503h-4.284ZM965.549,2254.188l-1.829-6.07-1.833,6.07h3.662Z" fill="#ccc"/>
      <path d="M980.667,2245.294v6.199h15.446v14.295h-19.274l.002-4.065h15.445v-6.198h-15.447v-14.262h19.274v4.031h-15.446Z" fill="#ccc"/>
      <path d="M1018.933,2245.039h-7.759v20.749h-3.792v-20.749h-7.759v-3.792h19.31v3.792Z" fill="#ccc"/>
      <path d="M1041.759,2249.681c0,1.432-.516,2.742-1.371,3.758.855,1.016,1.371,2.326,1.371,3.758v3.36c0,3.226-2.615,5.229-5.841,5.229h-9.682v.002h-3.792v-24.526h3.792v.003h9.682c3.226,0,5.841,2.615,5.841,5.841v2.576ZM1026.236,2245.397v5.959h9.682c.12,0,.239.004.357.012.958-.144,1.693-.97,1.693-1.968v-2.014c0-1.099-.891-1.989-1.989-1.989h-9.743ZM1037.967,2260.277v-2.799c0-.999-.735-1.825-1.694-1.968-.118.007-.235.012-.355.012h-9.682v6.131h9.743c1.099,0,1.989-.277,1.989-1.376h0Z" fill="#ccc"/>
    </g>
    <g>
      <rect x="1330.383" y="2233.956" width="104.217" height="34.435" fill="none"/>
      <path d="M1352.216,2256.145h-5.446v9.902h-3.792v-24.553h13.467c3.226,0,5.841,2.615,5.841,5.841v2.969c0,3.176-2.536,5.758-5.693,5.837l5.72,9.907h-4.38s-5.717-9.903-5.717-9.903ZM1346.77,2245.628v6.385h9.735c1.099,0,1.989-.891,1.989-1.989v-2.406c0-1.099-.891-1.989-1.989-1.989h-9.735Z" fill="#ccc"/>
      <path d="M1368.037,2241.537h3.792v24.512h-3.792v-24.512Z" fill="#ccc"/>
      <path d="M1396.91,2253.744c0,6.773-5.466,12.302-12.239,12.302l-7.111.003-.004-24.546h7.09c6.773,0,12.263,5.469,12.263,12.241ZM1392.789,2253.756c0-4.335-2.615-8.132-6.95-8.132h-4.44l.065,16.339h4.456c4.335,0,6.869-3.872,6.869-8.207Z" fill="#ccc"/>
      <path d="M1422.005,2253.744c0,6.773-5.466,12.302-12.239,12.302l-7.111.003-.004-24.546h7.09c6.773,0,12.263,5.469,12.263,12.241ZM1417.884,2253.756c0-4.335-2.615-8.132-6.95-8.132h-4.441l.065,16.339h4.456c4.335,0,6.869-3.872,6.869-8.207Z" fill="#ccc"/>
    </g>
    <rect x="1326.522" y="2237.087" width="107.478" height="36.522" fill="none" stroke="#ccc" stroke-miterlimit="10" stroke-width="3"/>
    <g>
      <rect x="1634.703" y="2235" width="104.217" height="34.435" fill="none"/>
      <path d="M1653.161,2246.603v6.202l15.644.035v4.024l-15.637-.035v6.202l15.637.035v4.024l-19.334-.035v-4.024h.004v-6.202h-.004v-1.273h-.003v-12.942h.003v-.036h19.334v4.025h-15.644Z" fill="#ccc"/>
      <path d="M1689.487,2254.814l9.596,9.596-2.681,2.682-9.597-9.596-9.597,9.596-2.682-2.682,9.597-9.596-9.597-9.597,2.682-2.682,9.597,9.597,9.597-9.597,2.681,2.682-9.596,9.597Z" fill="#ccc"/>
      <path d="M1724.145,2248.38v2.969c0,3.226-2.615,5.841-5.842,5.841h-9.675v9.902h-3.792v-24.553h13.467c3.226,0,5.842,2.615,5.842,5.841ZM1720.353,2248.661c0-1.099-.891-1.989-1.989-1.989h-9.735v6.385h9.735c1.099,0,1.989-.891,1.989-1.989v-2.406Z" fill="#ccc"/>
    </g>
    <g>
      <rect x="2250.839" y="2008.434" width="37.043" height="165.392" fill="none"/>
      <path d="M2276.369,2031.992v20.254c0,2.353-1.907,4.26-4.26,4.26l-3.854-.009c-1.221-.002-3.034-.625-3.857-1.356-.914-.813-1.933-2.536-2.049-3.328-.034-.229.143-.433.373-.433h3.355c.205,0,.393.128.458.322.02.061.052.126.103.193.168.228.442.351.725.351h3.013c.958,0,1.734-.776,1.734-1.734v-18.52h4.26Z" fill="#ccc"/>
      <path d="M2279.009,2089.506h-3.794v-18.669l-5.795,5.852-5.926-5.852v18.669h-3.794v-24.542h3.794l5.926,5.873,5.795-5.873h3.794v24.542Z" fill="#ccc"/>
      <path d="M2263.546,2102.011v6.199h15.446v14.295h-19.274l.002-4.065h15.445v-6.198h-15.447v-14.262h19.274v4.031h-15.446Z" fill="#ccc"/>
      <path d="M2279.008,2155.504h-3.79v.002-.002h-.002v-.002l-11.723-17.628v17.63h-3.793v-24.534h3.793l11.723,17.588v-17.589h3.792v24.535Z" fill="#ccc"/>
    </g>
    <g>
      <rect x="2249.868" y="1819.564" width="37.043" height="165.392" fill="none"/>
      <path d="M2278.066,1855.331c0,6.772-5.466,12.301-12.239,12.301l-7.11.004-.004-24.547h7.09c6.773,0,12.264,5.469,12.264,12.242ZM2273.945,1855.342c0-4.336-2.615-8.133-6.95-8.133h-4.44l.065,16.34h4.456c4.335,0,6.869-3.873,6.869-8.207Z" fill="#ccc"/>
      <path d="M2262.423,1880.146v6.202l15.644.035v4.025l-15.637-.036v6.202l15.637.035v4.025l-19.334-.036v-4.024h.004v-6.202h-.004v-1.272h-.003v-12.943h.003v-.035h19.334v4.024h-15.644Z" fill="#ccc"/>
      <path d="M2262.576,1913.141v6.199h15.446v14.295h-19.274l.002-4.065h15.444v-6.198h-15.446v-14.262h19.274v4.031h-15.446Z" fill="#ccc"/>
      <path d="M2278.04,1945.885h-7.759v20.75h-3.792v-20.75h-7.759v-3.791h19.31v3.791Z" fill="#ccc"/>
    </g>
    <g>
      <rect x="2249.868" y="1435.76" width="37.043" height="165.392" fill="none"/>
      <path d="M2273.754,1500.331l-2.25-7.467h-6.154l-2.255,7.467h-4.365l7.621-24.502h4.139l7.549,24.502h-4.284ZM2270.259,1488.732l-1.829-6.07-1.833,6.07h3.662Z" fill="#ccc"/>
      <path d="M2275.473,1533.331h-14.153v-24.513h4.259v20.253h9.895v4.259Z" fill="#ccc"/>
      <path d="M2278.04,1545.582h-7.759v20.749h-3.792v-20.749h-7.759v-3.792h19.31v3.792Z" fill="#ccc"/>
    </g>
    <rect x="2251.694" y="1464.652" width="33.391" height="111.13" fill="none" stroke="#ccc" stroke-miterlimit="10" stroke-width="3"/>
    <g>
      <rect x="2249.868" y="1257.587" width="37.043" height="165.392" fill="none"/>
      <path d="M2278.038,1305.656h-3.79s0,0,0,0h0v-.002l-11.724-17.628v17.63h-3.792v-24.534h3.792l11.724,17.588v-17.589h3.792v24.535Z" fill="#ccc"/>
      <path d="M2273.754,1338.657l-2.25-7.467h-6.154l-2.255,7.467h-4.365l7.621-24.502h4.139l7.549,24.502h-4.284ZM2270.259,1327.058l-1.829-6.07-1.833,6.07h3.662Z" fill="#ccc"/>
      <path d="M2278.04,1350.908h-7.759v20.749h-3.792v-20.749h-7.759v-3.792h19.31v3.792Z" fill="#ccc"/>
      <path d="M2272.263,1404.649l-9.486-9.488v9.497h-4.222v-24.525h4.222v6.357l6.87-6.358h5.972l-11.185,10.722,13.796,13.804-5.967-.008Z" fill="#ccc"/>
    </g>
    <rect x="2251.694" y="1270.826" width="33.391" height="143.217" fill="none" stroke="#ccc" stroke-miterlimit="10" stroke-width="3"/>
    <g>
      <rect x="2249.868" y="1072.565" width="37.043" height="111.913" fill="none"/>
      <path d="M2278.065,1098.092c0,6.773-5.466,12.302-12.238,12.302l-7.111.003-.004-24.546h7.091c6.772,0,12.263,5.469,12.263,12.241ZM2273.944,1098.104c0-4.335-2.615-8.132-6.949-8.132h-4.441l.065,16.339h4.456c4.335,0,6.869-3.873,6.869-8.207Z" fill="#ccc"/>
      <path d="M2263.502,1143.397l-3.284-1.896,13.063-22.627,3.284,1.896-13.063,22.627Z" fill="#ccc"/>
      <path d="M2275.473,1176.397h-14.153v-24.513h4.259v20.253h9.895v4.259Z" fill="#ccc"/>
    </g>
    <rect x="2251.694" y="1072.957" width="33.391" height="111.13" fill="none" stroke="#ccc" stroke-miterlimit="10" stroke-width="3"/>
    <g>
      <rect x="2249.868" y="891.587" width="37.043" height="111.913" fill="none"/>
      <path d="M2262.576,908.925v6.199h15.446v14.295h-19.274l.002-4.065h15.444v-6.199h-15.446v-14.261h19.274v4.031h-15.446Z" fill="#ccc"/>
      <path d="M2270.274,953.451v8.967h-3.81v-9.069l-7.77-13.348,3.596-2.059,6.108,10.495,6.108-10.495,3.596,2.059-7.829,13.45Z" fill="#ccc"/>
      <path d="M2278.038,995.418h-3.793v-18.669l-5.796,5.852-5.925-5.852v18.669h-3.794v-24.542h3.794l5.925,5.873,5.796-5.873h3.793v24.542Z" fill="#ccc"/>
    </g>
    <rect x="2251.694" y="891.978" width="33.391" height="111.13" fill="none" stroke="#ccc" stroke-miterlimit="10" stroke-width="3"/>
    <g>
      <rect x="1904.87" y="758.739" width="390.261" height="32.348" fill="none"/>
      <path d="M1927.132,768.704h-8.202v21.934h-4.009v-21.934h-8.201v-4.009h20.412v4.009Z" fill="#ccc"/>
      <path d="M1935.617,764.695h4.011v19.735l6.126-6.186,6.264,6.186v-19.735h4.01v25.943h-4.01l-6.264-6.208-6.126,6.208h-4.011v-25.943Z" fill="#ccc"/>
      <path d="M1968.559,768.974v6.553h16.329v15.111h-20.375l.002-4.297h16.326v-6.553h-16.328v-15.075h20.375v4.261h-16.329Z" fill="#ccc"/>
      <path d="M2013.783,790.638h-4.01v-19.735l-6.127,6.186-6.263-6.186v19.735h-4.011v-25.943h4.011l6.263,6.208,6.127-6.208h4.01v25.943Z" fill="#ccc"/>
      <path d="M2076.277,790.636h-20.339s0-25.92,0-25.92l20.339-.002v25.922ZM2059.947,786.344h12.321v-17.391h-12.321v17.391Z" fill="#ccc"/>
      <path d="M2108.22,779.793h0v10.845h-4.008v-15.11h0v-6.568h-15.049v-4.25h16.964v.008h2.093v15.075Z" fill="#ccc"/>
      <path d="M2121.169,775.689c0-1.369.925-2.331,2.22-2.331s2.146.962,2.184,2.331c0,1.295-.852,2.294-2.221,2.294-1.295,0-2.183-.999-2.183-2.294ZM2121.169,788.751c0-1.369.925-2.331,2.22-2.331s2.146.962,2.184,2.331c0,1.295-.852,2.294-2.221,2.294-1.295,0-2.183-.999-2.183-2.294Z" fill="#ccc"/>
      <path d="M2158.268,790.636h-20.339s0-25.92,0-25.92l20.339-.002v25.922ZM2141.938,786.344h12.321v-17.391h-12.321v17.391Z" fill="#ccc"/>
      <path d="M2191.494,790.635h-1.746s-14.584,0-14.584,0v.002h-4.009v-25.923h4.009v.004h12.321v-.006h4.009v25.922ZM2175.164,768.952v6.555h12.321v-6.555h-12.321ZM2175.164,786.343h12.321v-6.603h-12.321v6.603Z" fill="#ccc"/>
      <path d="M2204.456,775.689c0-1.369.925-2.331,2.22-2.331s2.146.962,2.184,2.331c0,1.295-.852,2.294-2.221,2.294-1.295,0-2.183-.999-2.183-2.294ZM2204.456,788.751c0-1.369.925-2.331,2.22-2.331s2.146.962,2.184,2.331c0,1.295-.852,2.294-2.221,2.294-1.295,0-2.183-.999-2.183-2.294Z" fill="#ccc"/>
      <path d="M2241.556,779.793h0v10.845h-4.009v-10.865h-16.331v-15.066h4.012v10.803h12.32v-10.792h4.009v15.075Z" fill="#ccc"/>
      <path d="M2274.78,790.637h-1.746s-17.567,0-17.567,0v-4.292h15.305v-6.603h-14.236v-.007h-2.094v-15.019l20.339-.002v25.922ZM2270.771,775.51v-6.555h-12.321v6.555h12.321Z" fill="#ccc"/>
    </g>
    <g>
      <rect x="2165.739" y="798.201" width="134.676" height="32.348" fill="none"/>
      <path d="M2188.047,817.092c0,7.16-5.777,13.004-12.938,13.004l-7.517.003-.004-25.948h7.495c7.159,0,12.963,5.781,12.963,12.94ZM2183.691,817.105c0-4.582-2.765-8.596-7.347-8.596h-4.694l.069,17.271h4.711c4.582,0,7.261-4.094,7.261-8.676Z" fill="#ccc"/>
      <path d="M2200.427,808.441v6.556l16.537.038v4.254l-16.529-.038v6.556l16.529.038v4.254l-20.438-.038v-4.254h.005v-6.556h-.005v-1.346h-.003v-13.682h.003v-.038h20.438v4.254h-16.537Z" fill="#ccc"/>
      <path d="M2229.466,808.436v6.553h16.328v15.111h-20.375l.002-4.297h16.327v-6.553h-16.329v-15.075h20.375v4.261h-16.328Z" fill="#ccc"/>
      <path d="M2274.691,808.166h-8.201v21.934h-4.009v-21.934h-8.202v-4.009h20.412v4.009Z" fill="#ccc"/>
    </g>
    <g>
      <rect x="849.481" y="798.522" width="214.867" height="32.348" fill="none"/>
      <path d="M871.744,808.487h-8.202v21.934h-4.009v-21.934h-8.202v-4.009h20.412v4.009Z" fill="#ccc"/>
      <path d="M896.309,826.041v-5.461h-7.184v-4.38h11.564l.003,14.221h-20.464v-25.938h20.464v4.261h-16.445v17.298h12.062Z" fill="#ccc"/>
      <path d="M929.574,808.487h-8.202v21.934h-4.009v-21.934h-8.202v-4.009h20.412v4.009Z" fill="#ccc"/>
    </g>
    <g>
      <rect x="1872.341" y="1117.749" width="310.677" height="32.348" fill="none"/>
      <path d="M1894.61,1132.621c0,1.513-.545,2.899-1.449,3.973.904,1.074,1.449,2.459,1.449,3.973v3.552c0,3.41-2.765,5.527-6.175,5.527h-10.235s-4.009.001-4.009.001v-25.927h4.009v.003h10.235c3.41,0,6.175,2.765,6.175,6.175v2.723ZM1878.2,1128.092v6.299h10.235c.127,0,.253.005.377.013,1.013-.151,1.79-1.025,1.79-2.08v-2.129c0-1.161-.941-2.103-2.104-2.103h-10.299ZM1890.602,1143.821v-2.958c0-1.056-.778-1.929-1.792-2.08-.124.007-.249.012-.375.012h-10.235v6.481h10.299c1.162,0,2.104-.294,2.104-1.455h0Z" fill="#ccc"/>
      <path d="M1918.97,1149.647l-2.378-7.893h-6.507l-2.383,7.893h-4.615l8.057-25.902h4.375l7.979,25.902h-4.528ZM1915.276,1137.385l-1.934-6.417-1.938,6.417h3.871Z" fill="#ccc"/>
      <path d="M1981.983,1138.802v-.049h-12.321v6.603h15.305v4.292h-17.567s-1.746,0-1.746,0v-15.11h3.17v-.017h13.16v-6.555h-14.969v-4.233h14.969v-.004h4.009v15.075h-4.009Z" fill="#ccc"/>
      <path d="M2015.895,1138.801h0v10.845h-3.993s-14.97,0-14.97,0v-4.295h14.954v-6.6h-13.158v-4.233h13.159v-6.555h-14.968v-4.233h14.968v-.004h4.009v15.075Z" fill="#ccc"/>
      <path d="M2045.791,1138.801h0v10.845h-3.993s-14.97,0-14.97,0v-4.295h14.954v-6.6h-13.158v-4.233h13.159v-6.555h-14.968v-4.233h14.968v-.004h4.009v15.075Z" fill="#ccc"/>
      <path d="M2060.485,1122.758c2.086,0,3.776,1.687,3.776,3.769s-1.69,3.768-3.776,3.768-3.775-1.687-3.775-3.768,1.69-3.769,3.775-3.769ZM2058.54,1126.527c0,1.068.873,1.938,1.945,1.938s1.946-.87,1.946-1.938-.873-1.938-1.946-1.938-1.945.87-1.945,1.938Z" fill="#ccc"/>
      <path d="M2078.644,1149.647l-3.472-2.004,13.81-23.919,3.472,2.004-13.81,23.919Z" fill="#ccc"/>
      <path d="M2123.704,1149.646h-20.338s0-25.92,0-25.92l20.338-.002v25.922ZM2107.375,1145.354h12.32v-17.391h-12.32v17.391Z" fill="#ccc"/>
      <path d="M2134.63,1123.735h4.009v25.912h-4.009v-25.912Z" fill="#ccc"/>
      <path d="M2169.879,1149.644h-1.746s-14.583,0-14.583,0v.002h-4.009v-25.925h4.009v.006h14.968v4.255h-14.968v6.534h13.16v.017h3.169v15.11ZM2153.55,1145.353h12.32v-6.603h-12.32v6.603Z" fill="#ccc"/>
    </g>
    <g>
      <rect x="2044.957" y="1157.045" width="169.048" height="32.348" fill="none"/>
      <path d="M2067.265,1175.937c0,7.16-5.777,13.004-12.938,13.004l-7.517.003-.004-25.948h7.495c7.159,0,12.963,5.781,12.963,12.94ZM2062.909,1175.949c0-4.582-2.765-8.596-7.347-8.596h-4.694l.069,17.271h4.711c4.582,0,7.261-4.094,7.261-8.676Z" fill="#ccc"/>
      <path d="M2096.152,1169.164v3.138c0,3.41-2.765,6.174-6.175,6.175h-10.228v10.468h-4.009v-25.955h14.236c3.41,0,6.175,2.764,6.175,6.175ZM2092.144,1169.461c0-1.162-.942-2.103-2.104-2.103h-10.291v6.75h10.291c1.161,0,2.104-.941,2.104-2.103v-2.544Z" fill="#ccc"/>
      <path d="M2141.81,1188.943h-20.338s0-25.92,0-25.92l20.338-.002v25.922ZM2125.481,1184.651h12.32v-17.391h-12.32v17.391Z" fill="#ccc"/>
      <path d="M2170.633,1188.941h-1.746s-14.584,0-14.584,0v.002h-4.009v-25.925h4.009v.006h14.969v4.255h-14.969v6.534h13.16v.017h3.17v15.11ZM2154.303,1184.65h12.321v-6.603h-12.321v6.603Z" fill="#ccc"/>
    </g>
    <circle cx="1529.674" cy="2177.935" r="21.848" fill="none" stroke="#ccc" stroke-miterlimit="10" stroke-width="2"/>
    <line x1="1507.826" y1="2177.935" x2="1551.522" y2="2177.935" fill="none" stroke="#ccc" stroke-miterlimit="10" stroke-width="2"/>
    <line x1="1529.674" y1="2199.783" x2="1529.674" y2="2156.087" fill="none" stroke="#ccc" stroke-miterlimit="10" stroke-width="2"/>
    <polyline points="1424.87 1892.478 1529.674 2177.935 1636.696 1892.478" fill="none" stroke="#ccc" stroke-miterlimit="10" stroke-width="3"/>
    <line x1="1743.652" y1="1603.565" x2="1850.478" y2="1313.609" fill="none" stroke="#ccc" stroke-miterlimit="10" stroke-width="3"/>
    <line x1="1959.652" y1="1017.783" x2="2057.087" y2="758.348" fill="none" stroke="#ccc" stroke-miterlimit="10" stroke-width="3"/>
    <line x1="1007.609" y1="758.348" x2="1114.435" y2="1048.304" fill="none" stroke="#ccc" stroke-miterlimit="10" stroke-width="3"/>
    <line x1="1223.609" y1="1344.13" x2="1321.043" y2="1603.565" fill="none" stroke="#ccc" stroke-miterlimit="10" stroke-width="3"/>
    <g>
      <circle cx="1289.087" cy="1996.696" r="15.999" fill="none" stroke="#ccc" stroke-miterlimit="10" stroke-width="2"/>
      <circle cx="1289.087" cy="1996.696" r="2.986" fill="#ccc" stroke="#ccc" stroke-miterlimit="10" stroke-width="2"/>
      <line x1="1272.768" y1="1980.377" x2="1305.406" y2="2013.014" fill="none" stroke="#ccc" stroke-miterlimit="10" stroke-width="2"/>
    </g>
    <line x1="1158.284" y1="1234.3" x2="1180.984" y2="1257" fill="#ccc" stroke="#ccc" stroke-miterlimit="10" stroke-width="2"/>
    <line x1="1172.996" y1="1219.589" x2="1195.696" y2="1242.288" fill="#ccc" stroke="#ccc" stroke-miterlimit="10" stroke-width="2"/>
    <circle cx="1177.255" cy="1238.029" r="3.936" fill="#ccc" stroke="#ccc" stroke-miterlimit="10" stroke-width="2"/>
    <g>
      <path d="M1106.047,1386.482c-.349.349-25.836,25.836-25.836,25.836" fill="#ccc" stroke="#ccc" stroke-miterlimit="10" stroke-width="2"/>
      <path d="M1080.211,1386.482c.698.698,26.069,26.069,26.069,26.069" fill="#ccc" stroke="#ccc" stroke-miterlimit="10" stroke-width="2"/>
    </g>
    <line x1="1358.555" y1="1528.876" x2="1381.255" y2="1551.575" fill="#ccc" stroke="#ccc" stroke-miterlimit="10" stroke-width="2"/>
    <line x1="1373.267" y1="1514.164" x2="1395.967" y2="1536.863" fill="#ccc" stroke="#ccc" stroke-miterlimit="10" stroke-width="2"/>
    <circle cx="1377.526" cy="1532.604" r="3.936" fill="#ccc" stroke="#ccc" stroke-miterlimit="10" stroke-width="2"/>
    <g>
      <rect x="879.215" y="1501.5" width="169.048" height="32.348" fill="none"/>
      <path d="M881.065,1521.78v-4.369h12.318v4.369h-12.318Z" fill="#ccc"/>
      <path d="M922.198,1533.397h-20.338s0-25.92,0-25.92l20.338-.002v25.922ZM905.868,1529.105h12.321v-17.391h-12.321v17.391Z" fill="#ccc"/>
      <path d="M930.682,1533.399v-4.261h3.975v4.261h-3.975Z" fill="#ccc"/>
      <path d="M963.452,1533.397h-20.338s0-25.92,0-25.92l20.338-.002v25.922ZM947.123,1529.105h12.321v-17.391h-12.321v17.391Z" fill="#ccc"/>
      <path d="M992.275,1533.397h-20.338s0-25.92,0-25.92l20.338-.002v25.922ZM975.945,1529.105h12.321v-17.391h-12.321v17.391Z" fill="#ccc"/>
    </g>
    <g>
      <rect x="908.562" y="1404.457" width="60.308" height="32.348" fill="none"/>
      <path d="M930.751,1436.355h-1.746s-17.567,0-17.567,0v-4.292h15.305v-6.603h-12.321v.049h-4.009v-15.075h4.009v.004h14.968v4.233h-14.968v6.555h13.16v.017h3.169v15.11Z" fill="#ccc"/>
      <path d="M959.573,1436.352h-1.746s-14.583,0-14.583,0v.002h-4.009v-25.923h4.009v.004h12.321v-.006h4.009v25.922ZM943.244,1414.67v6.555h12.321v-6.555h-12.321ZM943.244,1432.061h12.321v-6.603h-12.321v6.603Z" fill="#ccc"/>
    </g>
    <g>
      <rect x="922.082" y="1595.022" width="60.308" height="32.348" fill="none"/>
      <path d="M944.271,1626.92h-20.338s0-25.92,0-25.92l20.338-.003v25.923ZM927.941,1622.628h12.321v-17.391h-12.321v17.391Z" fill="#ccc"/>
    </g>
    <g>
      <rect x="1897.971" y="1818.84" width="60.308" height="32.348" fill="none"/>
      <path d="M1920.24,1833.713c0,1.513-.545,2.898-1.449,3.973.904,1.073,1.449,2.459,1.449,3.973v3.552c0,3.41-2.765,5.527-6.175,5.527h-10.235v.002h-4.009v-25.927h4.009v.003h10.235c3.41,0,6.175,2.765,6.175,6.175v2.723ZM1903.83,1829.183v6.3h10.235c.127,0,.253.005.377.013,1.013-.151,1.79-1.025,1.79-2.08v-2.129c0-1.161-.941-2.104-2.104-2.104h-10.299ZM1916.232,1844.913v-2.958c0-1.056-.778-1.93-1.792-2.08-.124.008-.249.013-.375.013h-10.235v6.481h10.299c1.162,0,2.104-.294,2.104-1.455h0Z" fill="#ccc"/>
      <path d="M1940.958,1841.26v9.479h-4.026v-9.587l-8.214-14.11,3.801-2.177,6.458,11.095,6.457-11.095,3.801,2.177-8.276,14.219Z" fill="#ccc"/>
    </g>
    <g>
      <rect x="1010.609" y="1751.829" width="80.89" height="32.348" fill="none"/>
      <path d="M1031.436,1772.882h0v10.846h-18.963v-4.295h14.955v-6.6h-13.159v-4.233h13.16v-6.556h-14.968v-4.233h14.968v-.004h4.009v15.075Z" fill="#ccc"/>
      <path d="M1060.251,1783.726h-20.338s0-25.92,0-25.92l20.338-.003v25.923ZM1043.921,1779.434h12.321v-17.391h-12.321v17.391Z" fill="#ccc"/>
      <path d="M1089.073,1783.726h-20.338s0-25.92,0-25.92l20.338-.003v25.923ZM1072.744,1779.434h12.321v-17.391h-12.321v17.391Z" fill="#ccc"/>
    </g>
    <g>
      <rect x="1205.812" y="1216.566" width="80.89" height="32.348" fill="none"/>
      <path d="M1226.718,1237.619h0v10.845h-4.008v-15.11h0v-6.569h-15.048v-4.249h16.963v.008h2.093v15.075Z" fill="#ccc"/>
    </g>
    <g>
      <rect x="1043.797" y="1378.473" width="101.942" height="32.348" fill="none"/>
      <path d="M1065.986,1410.37h-20.338s0-25.92,0-25.92l20.338-.002v25.922ZM1049.656,1406.078h12.321v-17.391h-12.321v17.391Z" fill="#ccc"/>
      <path d="M1124.974,1384.46h4.009v25.912h-4.009v-25.912Z" fill="#ccc"/>
    </g>
    <g>
      <rect x="1324.696" y="1519.174" width="109.101" height="32.348" fill="none"/>
      <path d="M1342.876,1540.228v-.05h-12.321v6.603h15.305v4.292h-19.313v-15.11h3.169v-.018h13.16v-6.555h-14.968v-4.233h14.968v-.004h4.009v15.075h-4.009Z" fill="#ccc"/>
      <path d="M1422.202,1540.228v-.05h-12.321v6.603h15.305v4.292h-19.313v-15.11h3.169v-.018h13.16v-6.555h-14.968v-4.233h14.968v-.004h4.009v15.075h-4.009Z" fill="#ccc"/>
    </g>
    <g>
      <rect x="1238.373" y="1978.957" width="109.101" height="32.348" fill="none"/>
      <path d="M1260.562,2010.854h-20.338s0-25.92,0-25.92l20.338-.003v25.923ZM1244.232,2006.562h12.321v-17.391h-12.321v17.391Z" fill="#ccc"/>
      <path d="M1339.888,2010.852h-1.746s-14.583,0-14.583,0v.002h-4.009v-25.925h4.009v.006h14.968v4.255h-14.968v6.534h13.16v.017h3.169v15.11ZM1323.559,2006.561h12.321v-6.603h-12.321v6.603Z" fill="#ccc"/>
    </g>
    <line x1="1182.522" y1="1944.783" x2="1289.087" y2="1997.087" fill="#ccc" stroke="#ccc" stroke-miterlimit="10" stroke-width="4"/>
    <g>
      <line x1="1481.967" y1="1333.272" x2="1476.241" y2="1331.482" fill="none" stroke="#ccc" stroke-miterlimit="10" stroke-width="4"/>
      <line x1="1464.51" y1="1327.815" x2="1188.847" y2="1241.652" fill="none" stroke="#ccc" stroke-dasharray="12.29 12.29" stroke-miterlimit="10" stroke-width="4"/>
      <polyline points="1182.982 1239.819 1177.255 1238.029 1174.487 1243.352" fill="none" stroke="#ccc" stroke-miterlimit="10" stroke-width="4"/>
      <line x1="1169.276" y1="1253.368" x2="1098.939" y2="1388.582" fill="none" stroke="#ccc" stroke-dasharray="11.29 11.29" stroke-miterlimit="10" stroke-width="4"/>
      <polyline points="1096.334 1393.59 1093.565 1398.913 1098.971 1401.518" fill="none" stroke="#ccc" stroke-miterlimit="10" stroke-width="4"/>
      <line x1="1109.897" y1="1406.782" x2="1366.658" y2="1530.498" fill="none" stroke="#ccc" stroke-dasharray="12.128 12.128" stroke-miterlimit="10" stroke-width="4"/>
      <polyline points="1372.121 1533.13 1377.526 1535.735 1378.374 1541.674" fill="none" stroke="#ccc" stroke-miterlimit="10" stroke-width="4"/>
      <line x1="1380.084" y1="1553.654" x2="1485.253" y2="2290.375" fill="none" stroke="#ccc" stroke-dasharray="12.101 12.101" stroke-miterlimit="10" stroke-width="4"/>
      <line x1="1486.109" y1="2296.364" x2="1486.957" y2="2302.304" fill="none" stroke="#ccc" stroke-miterlimit="10" stroke-width="4"/>
    </g>
    <g>
      <line x1="2325.913" y1="1732.696" x2="2320.491" y2="1730.127" fill="none" stroke="#ccc" stroke-miterlimit="10" stroke-width="4"/>
      <line x1="2309.657" y1="1724.993" x2="1491.665" y2="1337.397" fill="none" stroke="#ccc" stroke-dasharray="11.989 11.989" stroke-miterlimit="10" stroke-width="4"/>
      <line x1="1486.248" y1="1334.83" x2="1480.826" y2="1332.261" fill="none" stroke="#ccc" stroke-miterlimit="10" stroke-width="4"/>
    </g>
    <g>
      <rect x="1133.406" y="941.322" width="214.867" height="32.348" fill="none"/>
      <path d="M1145.023,962.752h-5.757v10.468h-4.009v-25.955h14.236c3.41,0,6.175,2.764,6.175,6.175v3.138c0,3.357-2.681,6.087-6.019,6.17l6.047,10.473h-4.63s-6.043-10.469-6.043-10.469ZM1139.265,951.633v6.75h10.291c1.161,0,2.103-.941,2.103-2.103v-2.544c0-1.162-.942-2.103-2.103-2.103h-10.291Z" fill="#ccc"/>
      <path d="M1180.035,973.22l-2.378-7.893h-6.506l-2.383,7.893h-4.615l8.057-25.902h4.375l7.979,25.902h-4.528ZM1176.341,960.959l-1.933-6.417-1.938,6.417h3.871Z" fill="#ccc"/>
      <path d="M1228.861,962.375h0v10.845h-3.993s-14.97,0-14.97,0v-4.295h14.955v-6.6h-13.159v-4.233h13.16v-6.555h-14.968v-4.233h14.968v-.004h4.009v15.075Z" fill="#ccc"/>
      <path d="M1237.337,947.308h4.009v25.912h-4.009v-25.912Z" fill="#ccc"/>
      <path d="M1249.807,973.22v-4.261h3.975v4.261h-3.975Z" fill="#ccc"/>
      <path d="M1282.577,973.22h-1.746s-17.567,0-17.567,0v-4.292h15.305v-6.603h-12.321v.049h-4.009v-15.075h4.009v.004h14.968v4.233h-14.968v6.555h13.16v.017h3.169v15.11Z" fill="#ccc"/>
    </g>
    <g>
      <rect x="1682.002" y="941.322" width="214.867" height="32.348" fill="none"/>
      <path d="M1779.16,973.22h-4.011v-19.735l-6.126,6.186-6.264-6.186v19.735h-4.011v-25.943h4.011l6.264,6.208,6.126-6.208h4.011v25.943Z" fill="#ccc"/>
      <path d="M1808.064,956.194c0,1.513-.545,2.899-1.449,3.973.904,1.074,1.449,2.459,1.449,3.973v3.552c0,3.41-2.765,5.527-6.175,5.527h-10.235s-4.009.001-4.009.001v-25.927h4.009v.003h10.235c3.41,0,6.175,2.765,6.175,6.175v2.723ZM1791.654,951.665v6.299h10.235c.127,0,.253.005.377.013,1.013-.151,1.79-1.025,1.79-2.08v-2.129c0-1.161-.941-2.103-2.104-2.103h-10.299ZM1804.056,967.395v-2.958c0-1.056-.778-1.929-1.792-2.08-.124.007-.249.012-.375.012h-10.235v6.481h10.299c1.162,0,2.104-.294,2.104-1.455h0Z" fill="#ccc"/>
      <path d="M1833.377,947.308h4.009v25.912h-4.009v-25.912Z" fill="#ccc"/>
      <path d="M1866.183,973.22h-1.746s-17.567,0-17.567,0v-4.292h15.305v-6.603h-12.32v.049h-4.009v-15.075h4.009v.004h14.968v4.233h-14.968v6.555h13.16v.017h3.169v15.11Z" fill="#ccc"/>
      <path d="M1895.006,973.217h-1.746s-14.583,0-14.583,0v.002h-4.009v-25.925h4.009v.006h14.968v4.255h-14.968v6.534h13.16v.017h3.169v15.11ZM1878.677,968.926h12.32v-6.603h-12.32v6.603Z" fill="#ccc"/>
    </g>
    <g>
      <rect x="1133.326" y="991.885" width="214.867" height="32.348" fill="none"/>
      <path d="M1155.595,1006.757c0,1.513-.545,2.899-1.449,3.973.904,1.074,1.449,2.459,1.449,3.973v3.552c0,3.41-2.765,5.527-6.175,5.527h-10.235s-4.009.001-4.009.001v-25.927h4.009v.003h10.235c3.41,0,6.175,2.765,6.175,6.175v2.723ZM1139.185,1002.228v6.299h10.235c.126,0,.252.005.377.013,1.013-.151,1.79-1.025,1.79-2.08v-2.129c0-1.161-.941-2.103-2.103-2.103h-10.299ZM1151.586,1017.958v-2.958c0-1.056-.778-1.929-1.792-2.08-.124.007-.249.012-.375.012h-10.235v6.481h10.299c1.162,0,2.103-.294,2.103-1.455h0Z" fill="#ccc"/>
      <path d="M1184.484,1001.85h-8.202v21.934h-4.009v-21.934h-8.202v-4.009h20.412v4.009Z" fill="#ccc"/>
      <path d="M1228.86,1012.939h0v10.845h-4.008v-15.11h0v-6.568h-15.048v-4.25h16.963v.008h2.093v15.075Z" fill="#ccc"/>
      <path d="M1256.387,1012.939h0v10.845h-4.008v-15.11h0v-6.568h-15.048v-4.25h16.963v.008h2.093v15.075Z" fill="#ccc"/>
    </g>
    <g>
      <rect x="1638" y="991.885" width="258.788" height="32.348" fill="none"/>
      <path d="M1662.368,1023.783l-2.378-7.893h-6.506l-2.384,7.893h-4.614l8.057-25.902h4.375l7.979,25.902h-4.528ZM1658.673,1011.522l-1.933-6.417-1.938,6.417h3.871Z" fill="#ccc"/>
      <path d="M1690.343,1023.783h-14.961v-25.913h4.502v21.41h10.459v4.502Z" fill="#ccc"/>
      <path d="M1742.833,1004.098v8.696h8.362v2.22h-8.362v8.77h-2.368v-8.77h-8.362v-2.22h8.362v-8.696h2.368Z" fill="#ccc" stroke="#ccc" stroke-miterlimit="10" stroke-width="2"/>
      <path d="M1775.627,1012.938v-.049h-12.321v6.603h15.305v4.292h-17.567s-1.746,0-1.746,0v-15.11h3.17v-.017h13.16v-6.555h-14.969v-4.233h14.969v-.004h4.009v15.075h-4.009Z" fill="#ccc"/>
      <path d="M1804.449,1012.938v-.049h-12.32v6.603h15.305v4.292h-17.567s-1.746,0-1.746,0v-15.11h3.169v-.017h13.16v-6.555h-14.968v-4.233h14.968v-.004h4.009v15.075h-4.009Z" fill="#ccc"/>
      <path d="M1837.281,1023.782h-20.339s0-25.92,0-25.92l20.339-.002v25.922ZM1820.951,1019.49h12.321v-17.391h-12.321v17.391Z" fill="#ccc"/>
      <path d="M1866.103,1023.782h-20.338s0-25.92,0-25.92l20.338-.002v25.922ZM1849.774,1019.49h12.32v-17.391h-12.32v17.391Z" fill="#ccc"/>
      <path d="M1890.918,1012.938v-.049h-12.321v6.603h15.305v4.292h-17.567s-1.746,0-1.746,0v-15.11h3.17v-.017h13.16v-6.555h-14.969v-4.233h14.969v-.004h4.009v15.075h-4.009Z" fill="#ccc"/>
    </g>
    <polyline points="1456.696 1731 1456.696 1710.652 1498.696 1710.652 1498.696 1732.043" fill="none" stroke="#ccc" stroke-miterlimit="10" stroke-width="5"/>
    <line x1="1478.087" y1="1731.783" x2="1528.435" y2="1789.957" fill="none" stroke="#ccc" stroke-miterlimit="10" stroke-width="5"/>
    <rect x="1473.334" y="1726.41" width="5.185" height="5.185" rx="2.592" ry="2.592" fill="none" stroke="#ccc" stroke-miterlimit="10" stroke-width="5"/>
    <g>
      <rect x="1386.261" y="1714.304" width="66.261" height="40.696" fill="none"/>
      <path d="M1419.814,1736.023v-.053h-12.986v6.96h16.131v4.523h-20.356v-15.927h3.341v-.019h13.871v-6.909h-15.777v-4.462h15.777v-.004h4.226v15.89h-4.226Z" fill="#ccc"/>
      <path d="M1446.334,1736.023v-.053h-12.986v6.96h16.131v4.523h-20.356v-15.927h3.341v-.019h13.871v-6.909h-15.777v-4.462h15.777v-.004h4.226v15.89h-4.226Z" fill="#ccc"/>
    </g>
    <g>
      <rect x="1872.68" y="1074.131" width="310.677" height="32.348" fill="none"/>
      <path d="M1894.95,1089.003c0,1.513-.546,2.899-1.449,3.973.903,1.074,1.449,2.459,1.449,3.973v3.552c0,3.41-2.765,5.527-6.175,5.527h-10.235s-4.009.001-4.009.001v-25.927h4.009v.003h10.235c3.41,0,6.175,2.765,6.175,6.175v2.723ZM1878.54,1084.474v6.299h10.235c.126,0,.252.005.377.013,1.013-.151,1.789-1.025,1.789-2.08v-2.129c0-1.161-.941-2.103-2.103-2.103h-10.299ZM1890.941,1100.204v-2.958c0-1.056-.777-1.929-1.791-2.08-.124.007-.249.012-.375.012h-10.235v6.481h10.299c1.161,0,2.103-.294,2.103-1.455h0Z" fill="#ccc"/>
      <path d="M1923.839,1084.096h-8.202v21.934h-4.009v-21.934h-8.201v-4.009h20.412v4.009Z" fill="#ccc"/>
      <path d="M1965.993,1080.117h4.009v25.912h-4.009v-25.912Z" fill="#ccc"/>
      <path d="M1999.961,1095.185h0v10.845h-4.009v-15.11h0v-6.568h-15.048v-4.25h16.963v.008h2.094v15.075Z" fill="#ccc"/>
      <path d="M2031.213,1095.185h0v10.845h-4.009v-10.865h-16.331v-15.066h4.012v10.803h12.32v-10.792h4.009v15.075Z" fill="#ccc"/>
      <path d="M2045.914,1079.14c2.085,0,3.775,1.687,3.775,3.769s-1.69,3.768-3.775,3.768-3.776-1.687-3.776-3.768,1.69-3.769,3.776-3.769ZM2043.967,1082.909c0,1.068.873,1.938,1.946,1.938s1.945-.87,1.945-1.938-.873-1.938-1.945-1.938-1.946.87-1.946,1.938Z" fill="#ccc"/>
      <path d="M2064.072,1106.029l-3.472-2.004,13.81-23.919,3.472,2.004-13.81,23.919Z" fill="#ccc"/>
      <path d="M2109.132,1106.028h-20.339s0-25.92,0-25.92l20.339-.002v25.922ZM2092.802,1101.736h12.321v-17.391h-12.321v17.391Z" fill="#ccc"/>
      <path d="M2140.399,1095.185h0v10.845h-4.009v-10.865h-16.331v-15.066h4.012v10.803h12.32v-10.792h4.009v15.075Z" fill="#ccc"/>
      <path d="M2171.662,1106.027h-1.746s-14.583,0-14.583,0v.002h-4.009v-25.925h4.009v.006h14.968v4.255h-14.968v6.534h13.16v.017h3.169v15.11ZM2155.333,1101.735h12.32v-6.603h-12.32v6.603Z" fill="#ccc"/>
    </g>
    <line x1="1464.032" y1="1326.663" x2="1486.731" y2="1349.363" fill="#ccc" stroke="#ccc" stroke-miterlimit="10" stroke-width="2"/>
    <line x1="1478.744" y1="1311.951" x2="1501.443" y2="1334.651" fill="#ccc" stroke="#ccc" stroke-miterlimit="10" stroke-width="2"/>
    <circle cx="1483.003" cy="1330.392" r="3.936" fill="#ccc" stroke="#ccc" stroke-miterlimit="10" stroke-width="2"/>
    <g>
      <rect x="1427.504" y="1311" width="109.101" height="32.348" fill="none"/>
      <path d="M1448.331,1332.053h0v10.845h-3.993s-14.97,0-14.97,0v-4.295h14.954v-6.6h-13.159v-4.233h13.16v-6.555h-14.968v-4.233h14.968v-.004h4.009v15.075Z" fill="#ccc"/>
      <path d="M1527.649,1342.898h-1.746s-17.567,0-17.567,0v-4.292h15.305v-6.603h-14.236v-.007h-2.093v-15.019l20.338-.002v25.922ZM1523.641,1327.771v-6.555h-12.321v6.555h12.321Z" fill="#ccc"/>
    </g>
  </g>
  <g id="h" data-name="PTID_TAC_PAGE_NAV_DEST_-_Dark">
    <g>
      <rect x="1799.624" y="2234.934" width="191.343" height="34.435" fill="none"/>
      <path d="M1835.586,2254.722c0,6.772-5.466,12.302-12.238,12.302l-7.111.003-.004-24.546h7.091c6.772,0,12.263,5.469,12.263,12.241ZM1831.464,2254.734c0-4.335-2.615-8.132-6.949-8.132h-4.441l.065,16.339h4.456c4.335,0,6.869-3.873,6.869-8.207Z" fill="#ccc"/>
      <path d="M1845.021,2246.538v6.202l15.644.035v4.025l-15.637-.036v6.202l15.637.035v4.025l-19.334-.036v-4.024h.004v-6.202h-.004v-1.272h-.003v-12.942h.003v-.036h19.334v4.024h-15.644Z" fill="#ccc"/>
      <path d="M1870.215,2246.533v6.199h15.446v14.295h-19.274l.002-4.065h15.444v-6.198h-15.446v-14.262h19.274v4.031h-15.446Z" fill="#ccc"/>
      <path d="M1910.721,2246.278h-7.759v20.749h-3.792v-20.749h-7.759v-3.792h19.31v3.792Z" fill="#ccc"/>
      <path d="M1949.361,2267.025l-19.239.002v-24.521l19.239-.002v24.521ZM1933.914,2262.966h11.655v-16.451h-11.655v16.451Z" fill="#ccc"/>
      <path d="M1974.351,2267.026h-1.652s-16.618,0-16.618,0v-4.061h14.479v-6.246h-11.655v.047h-3.793v-14.261h3.793v.004h14.159v4.005h-14.159v6.2h12.448v.017h2.999v14.294Z" fill="#ccc"/>
    </g>
  </g>
  <g id="i" data-name="PTID_TAC_PAGE_NAV_DEST_Arrows_Dark">
    <path d="M1146.13,1222.043l-101.482-56.124-5.357,19.035L163.042,910.458c2.074-6.787,3.306-13.948,3.526-21.375,1.333-44.927-34.133-82.563-79.059-83.897-44.927-1.333-82.563,34.133-83.897,79.06-1.333,44.927,34.133,82.562,79.06,83.896,32.717.971,61.551-17.585,75.33-45.087l877.626,274.916-5.357,19.035,115.858,5.038ZM83.033,955.993c-38.289-1.136-68.408-33.097-67.271-71.387,1.136-38.289,33.097-68.408,71.387-67.271,38.289,1.136,68.408,33.097,67.271,71.387-1.136,38.289-33.097,68.408-71.387,67.271Z" fill="#ccc" stroke="#0d121e" stroke-miterlimit="10" stroke-width="4"/>
    <path d="M1331.968,1333.908l5.357,19.035L158.003,1695.791c-13.78-27.503-42.613-46.058-75.33-45.087-44.927,1.333-80.394,38.969-79.06,83.896,1.333,44.927,38.969,80.394,83.897,79.06,44.927-1.333,80.393-38.969,79.059-83.897-.22-7.428-1.452-14.588-3.526-21.375l1177.946-342.429,5.357,19.035,101.482-56.124-115.858,5.038ZM154.419,1730.124c1.136,38.289-28.982,70.25-67.271,71.387-38.289,1.136-70.25-28.982-71.387-67.271-1.136-38.289,28.982-70.25,67.271-71.387,38.289-1.136,70.25,28.982,71.387,67.271Z" fill="#ccc" stroke="#0d121e" stroke-miterlimit="10" stroke-width="4"/>
    <path d="M2013.278,2397.781l18.093-7.98,188.064,418.222c-36.846,20.023-52.842,65.432-35.624,104.471,18.138,41.125,66.352,59.826,107.477,41.687,41.124-18.138,59.825-66.352,41.687-107.477-17.218-39.039-61.537-57.846-101.168-44.138l-188.064-418.222,18.093-7.98-69.835-92.582,21.278,113.999ZM2230.404,2816.139c35.049-15.458,75.993.423,91.451,35.471,15.458,35.049-.423,75.993-35.471,91.451-35.049,15.458-75.993-.423-91.451-35.471-15.458-35.049.423-75.993,35.471-91.451Z" fill="#ccc" stroke="#0d121e" stroke-miterlimit="10" stroke-width="4"/>
    <path d="M1187.217,929.739l-10.922-115.452-18.738,6.317-168.546-548.75c6.774-2.117,13.381-5.141,19.637-9.149,37.845-24.248,48.907-74.765,24.659-112.61-24.248-37.845-74.765-48.907-112.61-24.659-37.845,24.248-48.906,74.765-24.658,112.61,17.658,27.56,49.247,40.896,79.728,36.755l168.977,550.123-18.738,6.317,61.211,98.497ZM906.273,231.489c-20.666-32.254-11.272-75.153,20.982-95.819,32.254-20.666,75.153-11.272,95.819,20.982,20.666,32.254,11.272,75.153-20.982,95.819-32.254,20.666-75.153,11.272-95.819-20.982Z" fill="#ccc" stroke="#0d121e" stroke-miterlimit="10" stroke-width="4"/>
    <path d="M2397.835,2018.901l3.186-19.516,502.637,71.595c-3.329,41.803,25.994,79.987,68.104,86.863,44.36,7.243,86.341-22.954,93.584-67.313,7.243-44.359-22.954-86.341-67.314-93.584-42.11-6.876-82.055,19.999-92.195,60.69l-502.637-71.595,3.186-19.516-115.691,7.997,107.14,44.38ZM2916.445,2066.218c6.173-37.806,41.824-63.449,79.63-57.276,37.806,6.173,63.449,41.824,57.276,79.63-6.173,37.806-41.824,63.449-79.63,57.276-37.806-6.173-63.449-41.824-57.276-79.63Z" fill="#ccc" stroke="#0d121e" stroke-miterlimit="10" stroke-width="4"/>
    <path d="M1770.261,948.13l-24.989-113.243-17.822,8.566-256.28-574.451c6.463-2.931,12.65-6.742,18.368-11.487,34.588-28.704,39.376-80.195,10.673-114.783-28.704-34.588-80.195-39.376-114.783-10.672-34.588,28.703-39.375,80.195-10.671,114.783,20.903,25.188,53.887,34.552,83.632,26.707l256.876,575.761-17.822,8.566,72.82,90.253ZM1384.108,239.081c-24.463-29.478-20.397-73.205,9.081-97.668,29.478-24.463,73.205-20.397,97.668,9.081,24.463,29.478,20.397,73.205-9.081,97.668-29.478,24.463-73.205,20.397-97.668-9.081Z" fill="#ccc" stroke="#0d121e" stroke-miterlimit="10" stroke-width="4"/>
  </g>
  <g id="j" data-name="PTID_TAC_PAGE_NAV_DEST_Numbers">
    <path d="M66.947,922.659h43.276v7h-52.853v-6.976l9.202-10.042c4.823-5.373,9.248-10.298,13.448-14.778,2.086-2.086,4.176-4.526,6.195-6.885,2.111-2.461,10.542-11.95,10.542-11.95.956-.963,1.495-1.642,1.855-2.09.213-.27.396-.486.546-.654,1.025-1.306,1.887-2.958,2.496-4.785.578-1.733.872-3.119.872-5.895,0-2.384-.494-4.746-1.467-7.021-.885-2.349-2.296-4.042-4.158-5.905-2.125-1.75-4.137-3.01-6.104-3.745-5.628-2.111-9.419-2.107-15.041,0-2.576.966-4.515,2.156-6.108,3.749-1.837,1.838-3.314,3.935-4.158,5.905l-6.433-2.758c1.204-2.811,3.157-5.611,5.642-8.096,2.296-2.292,5.107-4.042,8.6-5.352,7.161-2.695,12.779-2.695,19.958,0,3.581,1.344,6.486,3.577,8.362,5.138,2.296,2.279,4.592,4.876,5.937,8.46,1.292,3,1.974,6.29,1.974,9.629,0,3.682-.473,5.832-1.232,8.11-.878,2.639-2.173,5.072-3.738,7.028l-.479.571c-.469.588-1.173,1.466-2.23,2.52.007,0-8.243,9.283-10.318,11.705-2.107,2.457-4.284,4.999-6.482,7.196-4.092,4.365-8.481,9.255-13.269,14.585l-4.831,5.338-.003-.003Z" fill="#ff8500" stroke="#ff8500" stroke-miterlimit="10"/>
    <path d="M96.103,1771.871v7h-22.401v-7h7.701v-71.835l-5.471,4.529-4.463-5.394,11.12-9.202h5.814v81.901h7.7Z" fill="#ff8500" stroke="#ff8500" stroke-miterlimit="10"/>
    <path d="M2284.934,2888.466c1.95,3.409,2.212,6.686,2.212,9.437v3.15c0,2.961-.647,5.846-2.033,9.079l-.179.357c-1.6,2.804-3.637,5.243-6.048,7.252-2.205,1.838-5.135,3.448-8.712,4.789-2.912,1.092-6.29,1.624-10.329,1.624-3.458,0-6.825-.725-9.951-1.506l-.378-.118c-3.577-1.341-6.511-2.955-8.712-4.789-2.412-2.009-4.445-4.452-6.049-7.252-1.949-3.409-2.212-6.682-2.212-9.437-.024-.486-.686-15.831,1.831-27.347,3.363-14.558,19.188-30.389,29.324-36.237l3.497,6.062c-8.992,5.188-23.231,19.763-25.989,31.709-.459,2.093-.798,4.357-1.054,6.643.595-.521,1.222-1.021,1.876-1.501,1.849-1.48,5.426-3.525,8.46-4.393,3.049-.875,16.038-.932,19.688.438,3.574,1.34,6.507,2.954,8.712,4.791,2.412,2.01,4.449,4.452,6.049,7.253l-.004-.004ZM2280.153,2901.059v-3.15c0-2.667-.36-4.34-1.288-5.964-1.183-2.072-2.681-3.875-4.452-5.349-1.578-1.315-3.892-2.565-6.688-3.612-2.052-.728-13.27-.798-15.317-.262-2.013.577-4.746,2.121-6.118,3.216-4.2,3.084-6.737,7.235-6.737,10.918h-.088c.014,2.439.084,3.997.084,4.042.004,2.828.364,4.498,1.292,6.122,1.187,2.072,2.685,3.875,4.452,5.349,1.536,1.284,3.783,2.506,6.503,3.542,2.632.654,5.422,1.246,8.054,1.246,3.186,0,5.758-.385,7.872-1.176,2.801-1.054,5.114-2.3,6.689-3.612,1.722-1.432,3.185-3.175,4.354-5.177.956-2.279,1.387-4.176,1.387-6.133h.003Z" fill="#ff8500" stroke="#ff8500" stroke-miterlimit="10"/>
    <path d="M3009.99,2079.432c1.33,3.109,2.034,6.371,2.034,9.434v17.15c0,3.066-.704,6.325-2.034,9.43-1.295,3.027-3.437,5.93-5.873,7.96-1.876,1.564-4.784,3.794-8.362,5.138-3.594,1.348-6.769,1.975-9.982,1.975-3.657,0-8.232-.791-11.379-1.971-3.493-1.312-6.304-3.062-8.597-5.355-2.205-1.816-4.344-4.719-5.642-7.746-.784-1.554-1.208-3.24-1.579-4.729l-.104-.851v-3.149h7v2.719c.283,1.127.561,2.121,1.029,3.062.962,2.237,2.394,4.184,4.011,5.531,1.827,1.806,3.767,2.996,6.339,3.962,2.359.882,6.115,1.526,8.922,1.526,2.381,0,4.701-.473,7.522-1.53,1.964-.738,3.979-1.995,6.339-3.962,1.613-1.348,3.045-3.297,3.924-5.342.959-2.24,1.466-4.547,1.466-6.671v-17.151c0-2.124-.507-4.431-1.466-6.674-.875-2.045-2.307-3.99-3.924-5.338-1.827-1.803-3.767-2.996-6.339-3.959l-1.071-.413c-1.957-.767-2.853-1.116-6.451-1.116-4.389,0-7.906.938-11.07,2.953-2.363,1.478-4.453,3.567-5.912,5.902l-1.029,1.645h-9.289v-40.602h52.853v7h-45.853v24.768c1.604-1.793,3.458-3.361,5.495-4.635,4.253-2.709,9.107-4.032,14.806-4.032,4.68,0,6.469.605,8.999,1.597l.98.377c3.493,1.31,6.304,3.06,8.597,5.353,2.201,1.816,4.344,4.714,5.642,7.742v.003Z" fill="#ff8500" stroke="#ff8500" stroke-miterlimit="10"/>
    <path d="M1449.831,211.425h7.542v5.586h-7.542v13.966h-5.586v-13.966h-29.049v-6.081l28.862-48.107h5.771v48.599l.003.002ZM1444.242,173.371l-22.832,38.052h22.832v-38.052Z" fill="#ff8500" stroke="#ff8500" stroke-miterlimit="10"/>
    <path d="M987.357,200.669c1.056,2.466,1.573,7.231,1.573,9.639,0,2.576,0,4.276-1.212,8.821-1.07,4.271-3.262,7.145-4.913,8.795-1.846,1.844-5.374,4.198-8.279,4.925-2.74.921-7.215.921-9.617.921-2.838,0-7.757-1.6-9.76-2.458-2.343-1.005-6.743-3.972-9.416-6.346l3.712-4.176c2.338,2.078,6.302,4.698,7.905,5.388,1.844.791,5.922,2.008,7.559,2.008,1.938,0,5.972,0,8.056-.695,1.788-.456,4.444-2.07,5.891-3.517,1.151-1.148,2.687-3.167,3.455-6.243,1.034-3.877,1.034-4.988,1.034-7.421,0-2.48-.567-6.156-1.17-7.561-.687-1.821-1.522-3.207-2.93-4.896-1.226-1.472-2.564-2.525-3.98-3.131-1.757-.754-3.617-1.453-5.324-1.453h-7.542v-6.083l16.597-18.776h-25.535v-5.586h31.563v7.198l-15.608,17.659h.525c2.724,0,5.333.96,7.525,1.902,2.232.958,4.276,2.536,6.073,4.69,1.818,2.179,2.96,4.092,3.824,6.394l-.003.003Z" fill="#ff8500" stroke="#ff8500" stroke-miterlimit="10"/>
  </g>
</svg>