<?xml version="1.0" encoding="UTF-8"?>
<svg xmlns="http://www.w3.org/2000/svg" width="2398.735" height="316.957" viewBox="0 0 2398.735 316.957">
  <g id="a" data-name="FTI_smoler_-_Dark">
    <path d="M2036.585,182.24c-.134.321-.277.636-.418.953.142-.316.282-.634.418-.953Z" fill="#ccc"/>
    <path d="M541.469,258.71c2.894,16.247,17.67,29.167,33.673,28.864,14.143-.267,28.294-.047,42.442-.047,339.339.017,1128.665.08,1183.99-.012,20.9-.035,34.071-11.428,37.149-32.139.77-5.184.674-10.523.678-15.791.038-49.201.016-98.402-.006-147.603-.002-5.701.013-11.406-.201-17.101-.346-9.169-3.465-17.178-9.751-24.076-7.771-8.529-17.289-12.286-28.7-12.268-48.143.076-1128.831.206-1221.319-.115-20.364-.071-36.155,14.355-38.47,32.283-.511,3.959-.531,8-.534,12.003-.047,54.902-.073,109.805-.021,164.707.004,3.768.409,7.581,1.07,11.295ZM549.034,83.526c.004-4.207-.028-8.529.867-12.598,3.316-15.075,16.364-23.724,30.226-23.677,76.86.263,869.546.06,1189.027.082,10.558,0,21.117-.011,31.673.127,16.929.221,29.407,12.656,29.709,29.707.179,10.132.038,20.271.036,30.406-.006,46.244.06,92.487-.126,138.73-.02,4.958-.87,10.128-2.456,14.821-3.619,10.71-15.139,17.861-26.585,17.829-76.65-.216-153.3-.104-229.95-.103-127.328.002-254.656,0-381.984,0v.021c-200.177,0-400.354,0-600.531,0-3.378,0-6.783-.289-10.131.029-13.313,1.267-28.829-9.511-29.658-28.138-.103-2.319-.128-4.644-.129-6.966-.013-53.423-.036-106.846.011-160.269Z" fill="#ccc"/>
    <path d="M566.163,246.323c.001,1.897-.034,3.824.264,5.685.953,5.938,4.18,8.794,10.288,9.052,4.006.17,8.023.106,12.035.106,200.183.004,400.367.003,600.55.003v-.03c198.494,0,396.988,0,595.483-.001,5.701,0,11.405.078,17.104-.06,7.579-.184,10.626-3.083,11.442-10.648.158-1.465.179-2.95.18-4.426.011-54.48.016-108.96.003-163.441,0-2.532.018-5.087-.298-7.59-.714-5.653-4.931-9.545-10.567-9.894-2.104-.13-4.222-.046-6.334-.046-396.144.011-792.288.023-1188.432.034-9.714,0-19.428-.076-29.14.002-7.268.058-11.361,3.649-12.31,10.859-.384,2.916-.335,5.901-.335,8.854.005,53.847.031,107.693.067,161.54Z" fill="none" stroke="#ccc" stroke-miterlimit="10" stroke-width="10"/>
  </g>
  <g id="b" data-name="Saving_Capture_x2F_Hold_Mode_-_Dark">
    <g>
      <rect x="508.609" y="83.278" width="1304.331" height="65.016" fill="none"/>
      <path d="M621.368,120.387c1.025,2.03,1.519,4.028,1.519,5.936,0,5.087-1.865,9.264-5.549,12.418-3.44,3.179-7.792,4.819-12.869,4.819h-.472c-4.787,0-9.197-1.702-13.108-5.055-3.055-2.586-3.95-4.869-4.6-6.536-.097-.243-.187-.478-.283-.701l4.34-1.863c.116.269.227.55.342.843.545,1.396,1.11,2.838,3.266,4.661,3.086,2.649,6.369,3.93,10.045,3.93h.473c3.905,0,7.091-1.186,9.73-3.625,2.728-2.338,3.965-5.143,3.965-8.891,0-1.161-.331-2.465-.933-3.667-.517-.848-1.268-1.967-2.267-2.633-1.147-.906-2.621-1.757-4.106-2.392-.963-.413-2.047-.746-3.304-1.131-.697-.215-1.424-.439-2.179-.689l-6.945-1.85c-3.743-1.149-6.441-2.881-8.337-5.317-2.057-2.643-3.098-5.75-3.098-9.242,0-4.318,1.792-8.023,5.322-11.013,3.355-3.099,7.164-4.574,11.917-4.574h.47c4.774.276,8.76,1.913,11.986,4.869,2.451,2.177,3.934,4.781,4.505,7.932l-4.649.841c-.385-2.128-1.315-3.752-3.02-5.269-2.43-2.227-5.438-3.449-8.961-3.657l-.333.005c-3.54,0-6.253,1.046-8.789,3.389-2.534,2.148-3.729,4.571-3.729,7.476,0,2.418.708,4.55,2.102,6.342,1.299,1.67,3.178,2.839,5.915,3.682l6.999,1.865c.857.278,1.547.491,2.208.694,1.332.408,2.585.793,3.783,1.306,1.882.806,3.714,1.87,5.032,2.924,1.611,1.064,2.744,2.715,3.618,4.172l-.005.003Z" fill="#ccc" stroke="#ccc" stroke-miterlimit="10" stroke-width="2"/>
      <path d="M718.753,94.032c1.091,2.177,1.667,4.666,1.667,7.195v25.737c0,2.529-.576,5.021-1.667,7.197-1.02,2.045-2.564,3.96-4.588,5.695-1.806,1.505-3.748,2.529-5.792,3.063-1.866.68-3.875,1.024-6.135,1.046h-.236c-2.524-.02-4.536-.359-6.496-1.094-2.13-.801-4.026-1.887-5.641-3.232-2.05-1.755-3.594-3.672-4.617-5.717-1.091-2.177-1.667-4.666-1.667-7.192v-25.738c0-2.526.579-5.015,1.667-7.194,1.022-2.045,2.567-3.963,4.59-5.695,1.807-1.507,3.748-2.529,5.792-3.062,1.929-.704,4.014-1.049,6.371-1.049,2.529,0,4.793.366,6.732,1.093,2.13.799,4.026,1.887,5.644,3.233,1.797,1.537,3.221,3.402,4.378,5.714h-.002ZM688.307,100.991v23.292l27.096-25.691c-.196-.859-.489-1.684-.871-2.448-.881-1.764-1.898-3.105-3.202-4.223-1.181-.984-2.621-1.804-4.25-2.415-1.386-.52-3.14-.794-5.074-.794-1.856,0-3.393.253-4.838.794l-.255.08c-1.4.35-2.751,1.062-4.021,2.12-1.518,1.302-2.675,2.723-3.414,4.201-.765,1.53-1.169,3.287-1.169,5.084ZM715.7,126.968v-22.146l-26.833,25.442c.17.536.366,1.059.612,1.552.739,1.479,1.896,2.899,3.44,4.222,1.18.982,2.619,1.802,4.25,2.416,1.436.538,2.966.784,4.949.793,1.804-.009,3.308-.262,4.725-.793l.255-.08c1.4-.35,2.751-1.063,4.021-2.121,1.516-1.301,2.673-2.723,3.412-4.2.765-1.528,1.168-3.285,1.168-5.084Z" fill="#ccc" stroke="#ccc" stroke-miterlimit="10" stroke-width="2"/>
      <path d="M766.231,94.032c1.091,2.177,1.667,4.666,1.667,7.195v25.737c0,2.529-.576,5.021-1.667,7.197-1.02,2.045-2.564,3.96-4.588,5.695-1.806,1.505-3.748,2.529-5.792,3.063-1.866.68-3.875,1.024-6.135,1.046h-.236c-2.524-.02-4.536-.359-6.496-1.094-2.13-.801-4.026-1.887-5.641-3.232-2.05-1.755-3.594-3.672-4.617-5.717-1.091-2.177-1.667-4.666-1.667-7.192v-25.738c0-2.526.579-5.015,1.667-7.194,1.022-2.045,2.567-3.963,4.59-5.695,1.807-1.507,3.748-2.529,5.792-3.062,1.929-.704,4.014-1.049,6.371-1.049,2.529,0,4.793.366,6.732,1.093,2.13.799,4.026,1.887,5.644,3.233,1.797,1.537,3.221,3.402,4.378,5.714h-.002ZM735.785,100.991v23.292l27.096-25.691c-.196-.859-.489-1.684-.871-2.448-.881-1.764-1.898-3.105-3.202-4.223-1.181-.984-2.621-1.804-4.25-2.415-1.386-.52-3.14-.794-5.074-.794-1.856,0-3.393.253-4.838.794l-.255.08c-1.4.35-2.751,1.062-4.021,2.12-1.518,1.302-2.675,2.723-3.414,4.201-.765,1.53-1.169,3.287-1.169,5.084ZM763.178,126.968v-22.146l-26.833,25.442c.17.536.366,1.059.612,1.552.739,1.479,1.896,2.899,3.44,4.222,1.18.982,2.619,1.802,4.25,2.416,1.436.538,2.966.784,4.949.793,1.804-.009,3.308-.262,4.725-.793l.255-.08c1.4-.35,2.751-1.063,4.021-2.121,1.516-1.301,2.673-2.723,3.412-4.2.765-1.528,1.168-3.285,1.168-5.084Z" fill="#ccc" stroke="#ccc" stroke-miterlimit="10" stroke-width="2"/>
      <path d="M784.997,139.481h29.195v4.722h-35.656v-4.706l6.208-6.774c3.254-3.624,6.238-6.946,9.072-9.969,1.407-1.407,2.817-3.054,4.179-4.645,1.424-1.66,7.112-8.062,7.112-8.062.645-.649,1.008-1.107,1.251-1.41.144-.182.267-.328.368-.441.692-.881,1.273-1.995,1.684-3.228.39-1.169.588-2.104.588-3.977,0-1.608-.333-3.202-.989-4.737-.597-1.584-1.549-2.727-2.805-3.983-1.433-1.181-2.791-2.03-4.118-2.526-3.797-1.424-6.354-1.422-10.146,0-1.738.651-3.046,1.455-4.12,2.529-1.24,1.239-2.236,2.654-2.805,3.983l-4.34-1.861c.812-1.896,2.13-3.784,3.807-5.461,1.549-1.547,3.445-2.728,5.802-3.61,4.831-1.818,8.621-1.818,13.464,0,2.416.906,4.375,2.413,5.641,3.466,1.549,1.537,3.098,3.289,4.005,5.707.871,2.024,1.332,4.244,1.332,6.496,0,2.484-.319,3.935-.831,5.472-.593,1.78-1.466,3.421-2.522,4.741l-.323.385c-.316.396-.791.989-1.504,1.7.005,0-5.561,6.262-6.961,7.896-1.421,1.657-2.89,3.371-4.373,4.854-2.76,2.944-5.722,6.243-8.952,9.84l-3.259,3.601-.002-.002Z" fill="#ccc" stroke="#ccc" stroke-miterlimit="10" stroke-width="2"/>
      <path d="M911.956,88.762v55.018h-4.723v-25.029h-27.627v25.029h-4.722v-55.018h4.722v25.266h27.627v-25.266h4.723Z" fill="#ccc" stroke="#ccc" stroke-miterlimit="10" stroke-width="2"/>
      <path d="M1007.798,94.032c1.091,2.177,1.667,4.666,1.667,7.195v25.737c0,2.529-.576,5.021-1.667,7.197-1.02,2.045-2.564,3.96-4.588,5.695-1.806,1.505-3.748,2.529-5.792,3.063-1.866.68-3.875,1.024-6.135,1.046h-.236c-2.524-.02-4.536-.359-6.496-1.094-2.13-.801-4.026-1.887-5.641-3.232-2.05-1.755-3.594-3.672-4.617-5.717-1.091-2.177-1.667-4.666-1.667-7.192v-25.738c0-2.526.579-5.015,1.667-7.194,1.022-2.045,2.567-3.963,4.59-5.695,1.807-1.507,3.748-2.529,5.792-3.062,1.929-.704,4.014-1.049,6.371-1.049,2.529,0,4.793.366,6.732,1.093,2.13.799,4.026,1.887,5.644,3.233,1.797,1.537,3.221,3.402,4.378,5.714h-.002ZM977.351,100.991v23.292l27.096-25.691c-.196-.859-.489-1.684-.871-2.448-.881-1.764-1.898-3.105-3.202-4.223-1.181-.984-2.621-1.804-4.25-2.415-1.386-.52-3.14-.794-5.074-.794-1.856,0-3.393.253-4.838.794l-.255.08c-1.4.35-2.751,1.062-4.021,2.12-1.518,1.302-2.675,2.723-3.414,4.201-.765,1.53-1.169,3.287-1.169,5.084ZM1004.745,126.968v-22.146l-26.833,25.442c.17.536.366,1.059.612,1.552.739,1.479,1.896,2.899,3.44,4.222,1.181.982,2.619,1.802,4.25,2.416,1.436.538,2.966.784,4.949.793,1.804-.009,3.308-.262,4.725-.793l.255-.08c1.4-.35,2.751-1.063,4.021-2.121,1.516-1.301,2.673-2.723,3.412-4.2.765-1.528,1.168-3.285,1.168-5.084Z" fill="#ccc" stroke="#ccc" stroke-miterlimit="10" stroke-width="2"/>
      <path d="M1055.275,94.032c1.091,2.177,1.667,4.666,1.667,7.195v25.737c0,2.529-.576,5.021-1.667,7.197-1.02,2.045-2.564,3.96-4.588,5.695-1.806,1.505-3.748,2.529-5.792,3.063-1.866.68-3.875,1.024-6.135,1.046h-.236c-2.524-.02-4.536-.359-6.496-1.094-2.13-.801-4.026-1.887-5.641-3.232-2.05-1.755-3.594-3.672-4.617-5.717-1.091-2.177-1.667-4.666-1.667-7.192v-25.738c0-2.526.579-5.015,1.667-7.194,1.022-2.045,2.567-3.963,4.59-5.695,1.807-1.507,3.748-2.529,5.792-3.062,1.929-.704,4.014-1.049,6.371-1.049,2.529,0,4.793.366,6.732,1.093,2.13.799,4.026,1.887,5.644,3.233,1.797,1.537,3.221,3.402,4.378,5.714h-.002ZM1024.829,100.991v23.292l27.096-25.691c-.196-.859-.489-1.684-.871-2.448-.881-1.764-1.898-3.105-3.202-4.223-1.181-.984-2.621-1.804-4.25-2.415-1.386-.52-3.14-.794-5.074-.794-1.856,0-3.393.253-4.838.794l-.255.08c-1.4.35-2.751,1.062-4.021,2.12-1.518,1.302-2.675,2.723-3.414,4.201-.765,1.53-1.169,3.287-1.169,5.084ZM1052.222,126.968v-22.146l-26.833,25.442c.17.536.366,1.059.612,1.552.739,1.479,1.896,2.899,3.44,4.222,1.181.982,2.619,1.802,4.25,2.416,1.436.538,2.966.784,4.949.793,1.804-.009,3.308-.262,4.725-.793l.255-.08c1.4-.35,2.751-1.063,4.021-2.121,1.516-1.301,2.673-2.723,3.412-4.2.765-1.528,1.168-3.285,1.168-5.084Z" fill="#ccc" stroke="#ccc" stroke-miterlimit="10" stroke-width="2"/>
      <path d="M1102.769,115.986c.893,2.085,1.33,6.113,1.33,8.148,0,2.178,0,3.615-1.025,7.457-.904,3.61-2.758,6.04-4.153,7.436-1.561,1.559-4.543,3.549-6.999,4.163-2.316.779-6.099.779-8.13.779-2.399,0-6.558-1.353-8.25-2.078-1.981-.85-5.7-3.357-7.96-5.364l3.138-3.53c1.977,1.757,5.327,3.972,6.683,4.555,1.559.668,5.006,1.698,6.39,1.698,1.639,0,5.048,0,6.81-.588,1.511-.386,3.757-1.75,4.98-2.974.973-.97,2.271-2.678,2.921-5.277.874-3.277.874-4.217.874-6.273,0-2.097-.479-5.205-.989-6.393-.581-1.539-1.287-2.711-2.477-4.139-1.037-1.245-2.168-2.135-3.365-2.647-1.485-.638-3.058-1.228-4.501-1.228h-6.375v-5.144l14.031-15.872h-21.587v-4.723h26.683v6.085l-13.195,14.928h.444c2.302,0,4.508.812,6.361,1.608,1.887.81,3.615,2.145,5.134,3.965,1.537,1.842,2.503,3.459,3.232,5.404l-.002.003Z" fill="#ccc" stroke="#ccc" stroke-miterlimit="10" stroke-width="2"/>
      <path d="M1188.184,119.843l13.639,22.591v1.367h-3.534l-.848.512-14.43-23.896c-.104,0-.212.007-.314.007h-13.226v23.377h-4.722v-57.615h17.709c2.725,0,5.421.562,7.809,1.62,2.562,1.14,4.647,2.535,6.375,4.267,1.402,1.4,2.441,3.218,3.447,4.975l.125.251c.936,2.187,1.373,4.132,1.373,6.125,0,2.068-.475,4.267-1.373,6.361-.791,1.842-2.095,3.747-3.572,5.225-1.365,1.365-3.573,3.187-6.352,4.114-.697.312-1.401.54-2.107.723v-.003ZM1169.471,90.907v24.794h13.226c2.653,0,4.304-.276,5.887-.978,1.7-.579,3.298-1.632,4.72-3.053,1.053-1.057,2.016-2.458,2.571-3.75.647-1.509.989-3.065.989-4.498,0-1.318-.291-2.6-.938-4.144-.869-1.519-1.688-2.936-2.621-3.868-1.334-1.334-2.91-2.381-4.956-3.292-1.785-.791-3.821-1.212-5.89-1.212h-12.99Z" fill="#ccc" stroke="#ccc" stroke-miterlimit="10" stroke-width="2"/>
      <path d="M1297.663,94.032c1.091,2.177,1.667,4.666,1.667,7.195v25.737c0,2.529-.576,5.021-1.667,7.197-1.02,2.045-2.564,3.96-4.588,5.695-1.807,1.505-3.747,2.529-5.792,3.063-1.865.68-3.875,1.024-6.135,1.046h-.236c-2.524-.02-4.536-.359-6.496-1.094-2.13-.801-4.025-1.887-5.641-3.232-2.05-1.755-3.594-3.672-4.616-5.717-1.091-2.177-1.667-4.666-1.667-7.192v-25.738c0-2.526.578-5.015,1.667-7.194,1.022-2.045,2.566-3.963,4.59-5.695,1.807-1.507,3.748-2.529,5.792-3.062,1.93-.704,4.015-1.049,6.371-1.049,2.529,0,4.794.366,6.732,1.093,2.13.799,4.025,1.887,5.644,3.233,1.797,1.537,3.221,3.402,4.378,5.714h-.003ZM1267.217,100.991v23.292l27.096-25.691c-.196-.859-.488-1.684-.871-2.448-.881-1.764-1.898-3.105-3.202-4.223-1.181-.984-2.621-1.804-4.25-2.415-1.387-.52-3.141-.794-5.074-.794-1.856,0-3.394.253-4.839.794l-.255.08c-1.4.35-2.751,1.062-4.021,2.12-1.519,1.302-2.675,2.723-3.414,4.201-.766,1.53-1.169,3.287-1.169,5.084ZM1294.61,126.968v-22.146l-26.834,25.442c.17.536.366,1.059.611,1.552.739,1.479,1.896,2.899,3.44,4.222,1.181.982,2.619,1.802,4.251,2.416,1.436.538,2.966.784,4.949.793,1.804-.009,3.308-.262,4.725-.793l.255-.08c1.4-.35,2.751-1.063,4.021-2.121,1.516-1.301,2.673-2.723,3.412-4.2.765-1.528,1.169-3.285,1.169-5.084Z" fill="#ccc" stroke="#ccc" stroke-miterlimit="10" stroke-width="2"/>
      <path d="M1345.14,94.032c1.091,2.177,1.667,4.666,1.667,7.195v25.737c0,2.529-.576,5.021-1.667,7.197-1.02,2.045-2.564,3.96-4.588,5.695-1.807,1.505-3.747,2.529-5.792,3.063-1.865.68-3.875,1.024-6.135,1.046h-.236c-2.524-.02-4.536-.359-6.496-1.094-2.13-.801-4.025-1.887-5.641-3.232-2.05-1.755-3.594-3.672-4.616-5.717-1.091-2.177-1.667-4.666-1.667-7.192v-25.738c0-2.526.578-5.015,1.667-7.194,1.022-2.045,2.566-3.963,4.59-5.695,1.807-1.507,3.748-2.529,5.792-3.062,1.93-.704,4.015-1.049,6.371-1.049,2.529,0,4.794.366,6.732,1.093,2.13.799,4.025,1.887,5.644,3.233,1.797,1.537,3.221,3.402,4.378,5.714h-.003ZM1314.694,100.991v23.292l27.096-25.691c-.196-.859-.488-1.684-.871-2.448-.881-1.764-1.898-3.105-3.202-4.223-1.181-.984-2.621-1.804-4.25-2.415-1.387-.52-3.141-.794-5.074-.794-1.856,0-3.394.253-4.839.794l-.255.08c-1.4.35-2.751,1.062-4.021,2.12-1.519,1.302-2.675,2.723-3.414,4.201-.766,1.53-1.169,3.287-1.169,5.084ZM1342.088,126.968v-22.146l-26.834,25.442c.17.536.366,1.059.611,1.552.739,1.479,1.896,2.899,3.44,4.222,1.181.982,2.619,1.802,4.251,2.416,1.436.538,2.966.784,4.949.793,1.804-.009,3.308-.262,4.725-.793l.255-.08c1.4-.35,2.751-1.063,4.021-2.121,1.516-1.301,2.673-2.723,3.412-4.2.765-1.528,1.169-3.285,1.169-5.084Z" fill="#ccc" stroke="#ccc" stroke-miterlimit="10" stroke-width="2"/>
      <path d="M1392.618,94.032c1.091,2.177,1.667,4.666,1.667,7.195v25.737c0,2.529-.576,5.021-1.667,7.197-1.02,2.045-2.564,3.96-4.588,5.695-1.807,1.505-3.747,2.529-5.792,3.063-1.865.68-3.875,1.024-6.135,1.046h-.236c-2.524-.02-4.536-.359-6.496-1.094-2.13-.801-4.025-1.887-5.641-3.232-2.05-1.755-3.594-3.672-4.616-5.717-1.091-2.177-1.667-4.666-1.667-7.192v-25.738c0-2.526.578-5.015,1.667-7.194,1.022-2.045,2.566-3.963,4.59-5.695,1.807-1.507,3.748-2.529,5.792-3.062,1.93-.704,4.015-1.049,6.371-1.049,2.529,0,4.794.366,6.732,1.093,2.13.799,4.025,1.887,5.644,3.233,1.797,1.537,3.221,3.402,4.378,5.714h-.003ZM1362.172,100.991v23.292l27.096-25.691c-.196-.859-.488-1.684-.871-2.448-.881-1.764-1.898-3.105-3.202-4.223-1.181-.984-2.621-1.804-4.25-2.415-1.387-.52-3.141-.794-5.074-.794-1.856,0-3.394.253-4.839.794l-.255.08c-1.4.35-2.751,1.062-4.021,2.12-1.519,1.302-2.675,2.723-3.414,4.201-.766,1.53-1.169,3.287-1.169,5.084ZM1389.565,126.968v-22.146l-26.834,25.442c.17.536.366,1.059.611,1.552.739,1.479,1.896,2.899,3.44,4.222,1.181.982,2.619,1.802,4.251,2.416,1.436.538,2.966.784,4.949.793,1.804-.009,3.308-.262,4.725-.793l.255-.08c1.4-.35,2.751-1.063,4.021-2.121,1.516-1.301,2.673-2.723,3.412-4.2.765-1.528,1.169-3.285,1.169-5.084Z" fill="#ccc" stroke="#ccc" stroke-miterlimit="10" stroke-width="2"/>
      <path d="M1514.643,116.977c-5.882,0-9.682-5.282-9.682-13.459s3.8-13.46,9.682-13.46,9.682,5.285,9.682,13.46-3.8,13.459-9.682,13.459ZM1514.643,112.254c4.721,0,4.959-7.277,4.959-8.736s-.238-8.737-4.959-8.737-4.959,7.277-4.959,8.737.239,8.736,4.959,8.736ZM1536.367,93.614l-21.251,49.351v.458h-4.723v-1.431l21.442-49.8.526.227h4.005v1.195ZM1542.27,130.2c0,8.177-3.799,13.459-9.681,13.459s-9.682-5.282-9.682-13.459,3.799-13.46,9.682-13.46,9.681,5.282,9.681,13.46ZM1537.548,130.2c0-1.457-.238-8.737-4.958-8.737s-4.959,7.277-4.959,8.737.238,8.736,4.959,8.736,4.958-7.28,4.958-8.736Z" fill="#ccc" stroke="#ccc" stroke-miterlimit="10" stroke-width="2"/>
      <path d="M1593.074,124.061h-17.71v18.418h-4.723v-18.418h-17.71v-4.723h17.71v-18.418h4.723v18.418h17.71v4.723Z" fill="#ccc" stroke="#ccc" stroke-miterlimit="10" stroke-width="2"/>
      <path d="M1638.944,94.032c1.091,2.177,1.667,4.666,1.667,7.195v25.737c0,2.529-.576,5.021-1.667,7.197-1.02,2.045-2.564,3.96-4.588,5.695-1.807,1.505-3.747,2.529-5.792,3.063-1.865.68-3.875,1.024-6.135,1.046h-.236c-2.524-.02-4.536-.359-6.496-1.094-2.13-.801-4.025-1.887-5.641-3.232-2.05-1.755-3.594-3.672-4.616-5.717-1.091-2.177-1.667-4.666-1.667-7.192v-25.738c0-2.526.578-5.015,1.667-7.194,1.022-2.045,2.566-3.963,4.59-5.695,1.807-1.507,3.748-2.529,5.792-3.062,1.93-.704,4.015-1.049,6.371-1.049,2.529,0,4.794.366,6.732,1.093,2.13.799,4.025,1.887,5.644,3.233,1.797,1.537,3.221,3.402,4.378,5.714h-.003ZM1608.498,100.991v23.292l27.096-25.691c-.196-.859-.488-1.684-.871-2.448-.881-1.764-1.898-3.105-3.202-4.223-1.181-.984-2.621-1.804-4.25-2.415-1.387-.52-3.141-.794-5.074-.794-1.856,0-3.394.253-4.839.794l-.255.08c-1.4.35-2.751,1.062-4.021,2.12-1.519,1.302-2.675,2.723-3.414,4.201-.766,1.53-1.169,3.287-1.169,5.084ZM1635.891,126.968v-22.146l-26.834,25.442c.17.536.366,1.059.611,1.552.739,1.479,1.896,2.899,3.44,4.222,1.181.982,2.619,1.802,4.251,2.416,1.436.538,2.966.784,4.949.793,1.804-.009,3.308-.262,4.725-.793l.255-.08c1.4-.35,2.751-1.063,4.021-2.121,1.516-1.301,2.673-2.723,3.412-4.2.765-1.528,1.169-3.285,1.169-5.084Z" fill="#ccc" stroke="#ccc" stroke-miterlimit="10" stroke-width="2"/>
      <path d="M1686.422,94.032c1.091,2.177,1.667,4.666,1.667,7.195v25.737c0,2.529-.576,5.021-1.667,7.197-1.02,2.045-2.564,3.96-4.588,5.695-1.807,1.505-3.747,2.529-5.792,3.063-1.865.68-3.875,1.024-6.135,1.046h-.236c-2.524-.02-4.536-.359-6.496-1.094-2.13-.801-4.025-1.887-5.641-3.232-2.05-1.755-3.594-3.672-4.616-5.717-1.091-2.177-1.667-4.666-1.667-7.192v-25.738c0-2.526.578-5.015,1.667-7.194,1.022-2.045,2.566-3.963,4.59-5.695,1.807-1.507,3.748-2.529,5.792-3.062,1.93-.704,4.015-1.049,6.371-1.049,2.529,0,4.794.366,6.732,1.093,2.13.799,4.025,1.887,5.644,3.233,1.797,1.537,3.221,3.402,4.378,5.714h-.003ZM1655.975,100.991v23.292l27.096-25.691c-.196-.859-.488-1.684-.871-2.448-.881-1.764-1.898-3.105-3.202-4.223-1.181-.984-2.621-1.804-4.25-2.415-1.387-.52-3.141-.794-5.074-.794-1.856,0-3.394.253-4.839.794l-.255.08c-1.4.35-2.751,1.062-4.021,2.12-1.519,1.302-2.675,2.723-3.414,4.201-.766,1.53-1.169,3.287-1.169,5.084ZM1683.369,126.968v-22.146l-26.834,25.442c.17.536.366,1.059.611,1.552.739,1.479,1.896,2.899,3.44,4.222,1.181.982,2.619,1.802,4.251,2.416,1.436.538,2.966.784,4.949.793,1.804-.009,3.308-.262,4.725-.793l.255-.08c1.4-.35,2.751-1.063,4.021-2.121,1.516-1.301,2.673-2.723,3.412-4.2.765-1.528,1.169-3.285,1.169-5.084Z" fill="#ccc" stroke="#ccc" stroke-miterlimit="10" stroke-width="2"/>
      <path d="M1733.899,94.032c1.091,2.177,1.667,4.666,1.667,7.195v25.737c0,2.529-.576,5.021-1.667,7.197-1.02,2.045-2.564,3.96-4.588,5.695-1.807,1.505-3.747,2.529-5.792,3.063-1.865.68-3.875,1.024-6.135,1.046h-.236c-2.524-.02-4.536-.359-6.496-1.094-2.13-.801-4.025-1.887-5.641-3.232-2.05-1.755-3.594-3.672-4.616-5.717-1.091-2.177-1.667-4.666-1.667-7.192v-25.738c0-2.526.578-5.015,1.667-7.194,1.022-2.045,2.566-3.963,4.59-5.695,1.807-1.507,3.748-2.529,5.792-3.062,1.93-.704,4.015-1.049,6.371-1.049,2.529,0,4.794.366,6.732,1.093,2.13.799,4.025,1.887,5.644,3.233,1.797,1.537,3.221,3.402,4.378,5.714h-.003ZM1703.453,100.991v23.292l27.096-25.691c-.196-.859-.488-1.684-.871-2.448-.881-1.764-1.898-3.105-3.202-4.223-1.181-.984-2.621-1.804-4.25-2.415-1.387-.52-3.141-.794-5.074-.794-1.856,0-3.394.253-4.839.794l-.255.08c-1.4.35-2.751,1.062-4.021,2.12-1.519,1.302-2.675,2.723-3.414,4.201-.766,1.53-1.169,3.287-1.169,5.084ZM1730.847,126.968v-22.146l-26.834,25.442c.17.536.366,1.059.611,1.552.739,1.479,1.896,2.899,3.44,4.222,1.181.982,2.619,1.802,4.251,2.416,1.436.538,2.966.784,4.949.793,1.804-.009,3.308-.262,4.725-.793l.255-.08c1.4-.35,2.751-1.063,4.021-2.121,1.516-1.301,2.673-2.723,3.412-4.2.765-1.528,1.169-3.285,1.169-5.084Z" fill="#ccc" stroke="#ccc" stroke-miterlimit="10" stroke-width="2"/>
    </g>
    <g>
      <rect x="540.37" y="171.54" width="1272.522" height="65.016" fill="none"/>
      <path d="M634.787,208.665c.699,1.852,1.372,4.08,1.372,7.304,0,3.339-.361,5.735-1.136,7.542-.923,2.468-2.158,4.26-3.735,5.386-1.471,1.394-3.45,2.293-5.754,2.614-1.906.515-3.736.515-5.667.515h-22.904v-28.774l-.472-.473v-30.966h22.43c1.948,0,3.839.288,5.469.829,1.958.557,3.965,1.724,5.41,3.169,1.479,1.478,2.782,3.381,3.57,5.223.699,1.861,1.372,4.09,1.372,7.309,0,3.186-.347,5.596-1.062,7.364-.569,2.111-1.863,4.145-3.497,5.493-.321.313-.666.588-1.016.848.612.42,1.178.848,1.658,1.246,1.646,1.37,3.088,3.327,3.965,5.37v.002ZM601.212,176.535v22.899h18.656c.687,0,1.379.076,2.069.149.529-.053,1.022-.125,1.436-.263l.453-.102c1.311-.163,2.27-.611,3.11-1.452l.196-.175c.699-.56,1.648-1.737,2.016-3.213l.121-.359c.5-1.164.753-3.074.753-5.679,0-2.458-.496-4.121-1.032-5.549-.505-1.169-1.49-2.604-2.529-3.644-.883-.884-2.179-1.63-3.466-1.998-1.232-.408-2.647-.616-4.073-.616h-17.709ZM630.641,221.754c.541-1.266.793-3.179.793-5.783,0-2.46-.494-4.118-1.03-5.544-.55-1.28-1.516-2.593-2.607-3.502-1.417-1.181-2.5-1.82-3.622-2.142-.706-.203-1.415-.352-2.123-.456-.937.071-1.9.073-2.895.073h-17.474v22.905h18.182c1.792,0,3.211,0,4.546-.383l.356-.073c1.417-.177,2.574-.681,3.346-1.452l.359-.295c.819-.546,1.528-1.642,2.168-3.352v.003Z" fill="#ccc" stroke="#ccc" stroke-miterlimit="10" stroke-width="2"/>
      <path d="M657.343,195.72c2.572-1.429,5.162-1.429,7.67-1.429v4.723c-2.165,0-3.875,0-5.466.883-1.353.678-2.26,1.854-3.396,3.674-2.463,4.191-4.125,7.818-4.125,11.736v16.765h-4.723v-29.988c0-.973-.279-4.942-.465-7.375l4.708-.36c.04.555.373,4.881.458,6.965.038-.061.07-.127.108-.188,1.299-2.078,2.741-4.158,5.23-5.402v-.002Z" fill="#ccc" stroke="#ccc" stroke-miterlimit="10" stroke-width="2"/>
      <path d="M688.74,209.251c9.351,3.562,11.294,8.445,11.294,11.922,0,6.255-5.726,10.625-13.93,10.625-3.995,0-9.761-2.515-10.403-2.803l1.917-4.313c2.163.963,6.206,2.395,8.486,2.395,5.507,0,9.207-2.373,9.207-5.903,0-3.608-4.437-6.058-8.161-7.477-6.146-2.047-9.311-5.582-9.311-10.472,0-6.456,4.819-10.626,12.279-10.626,5.086,0,6.437.635,8.217,1.67.352.207.739.434,1.259.67l-1.956,4.297c-.689-.313-1.206-.611-1.676-.885-1.105-.643-1.773-1.029-5.847-1.029-2.821,0-7.556.768-7.556,5.903,0,1.847.701,4.2,6.177,6.023l.002.003Z" fill="#ccc" stroke="#ccc" stroke-miterlimit="10" stroke-width="2"/>
      <path d="M722.521,199.24v22.195c0,1.861.435,3.587,1.107,4.393.791.923,2.867,1.511,4.324,1.511,1.422,0,2.94-.555,2.956-.56l.395-.148h1.136v4.245l.123.326c-.024.009-.066.023-.123.045v.105h-.316c-.777.251-2.434.709-4.172.709-2.588,0-6.045-.985-7.931-3.186-2.005-2.408-2.22-6.004-2.22-7.44v-22.195h-7.084v-4.724h7.084v-10.39h4.722v10.39h10.626v4.724h-10.625Z" fill="#ccc" stroke="#ccc" stroke-miterlimit="10" stroke-width="2"/>
      <path d="M829.225,208.65c1.025,2.03,1.519,4.028,1.519,5.936,0,5.087-1.866,9.264-5.549,12.418-3.44,3.179-7.792,4.819-12.869,4.819h-.472c-4.787,0-9.197-1.702-13.108-5.055-3.055-2.586-3.95-4.869-4.6-6.536-.097-.243-.187-.478-.283-.701l4.34-1.863c.116.269.227.55.342.843.545,1.396,1.11,2.838,3.266,4.661,3.086,2.649,6.369,3.93,10.045,3.93h.473c3.905,0,7.091-1.186,9.73-3.625,2.728-2.338,3.965-5.143,3.965-8.891,0-1.161-.331-2.465-.933-3.667-.517-.848-1.268-1.967-2.267-2.633-1.147-.906-2.621-1.757-4.106-2.392-.964-.413-2.047-.746-3.304-1.131-.696-.215-1.424-.439-2.179-.689l-6.945-1.85c-3.743-1.149-6.441-2.881-8.338-5.317-2.057-2.643-3.098-5.75-3.098-9.242,0-4.318,1.792-8.023,5.322-11.013,3.355-3.099,7.164-4.574,11.917-4.574h.47c4.774.276,8.76,1.913,11.986,4.869,2.451,2.177,3.934,4.781,4.505,7.932l-4.649.841c-.385-2.128-1.315-3.752-3.02-5.269-2.43-2.227-5.438-3.449-8.961-3.657l-.333.005c-3.54,0-6.253,1.046-8.789,3.389-2.534,2.148-3.729,4.571-3.729,7.476,0,2.418.708,4.55,2.102,6.342,1.298,1.67,3.178,2.839,5.915,3.682l6.999,1.865c.857.278,1.547.491,2.208.694,1.332.408,2.585.793,3.783,1.306,1.882.806,3.714,1.87,5.032,2.924,1.61,1.064,2.744,2.715,3.618,4.172l-.005.003Z" fill="#ccc" stroke="#ccc" stroke-miterlimit="10" stroke-width="2"/>
      <path d="M871.853,205.793c.654,3.257.363,6.066.257,6.857v19.431h-4.723l.034-19.986c.002-.016.385-2.491-.222-5.524-.378-2.796-1.355-4.789-3.018-6.244-1.235-1.079-3.592-1.775-6.002-1.775-2.042,0-4.128.746-5.871,2.102-3.601,3.034-5.463,7.192-5.463,12.302v19.127h-4.723v-19.127c0-.144.019-.277.021-.42l-.255.007s-.238-9.726-.238-12.81c0-1.554-.229-5.001-.229-5.036l4.711-.314c.01.148.241,3.639.241,5.351v.331c.864-1.105,1.849-2.14,2.966-3.082,2.64-2.054,5.751-3.151,8.84-3.151,3.597,0,7.001,1.102,9.109,2.946,2.525,2.21,4.062,5.244,4.565,9.02v-.002Z" fill="#ccc" stroke="#ccc" stroke-miterlimit="10" stroke-width="2"/>
      <path d="M912.247,230.188h-4.722v-.144c-.257-.481-.439-.973-.555-1.879-2.099,2.035-4.736,3.372-7.794,3.882-.574.065-1.133.099-1.686.099-2.371,0-4.636-.606-7.493-1.938-1.334-.659-4.399-2.179-6.104-5.872-1.546-3.71-.864-7.192-.618-8.175,1.039-5.75,5.45-8.644,7.109-9.731l.246-.16c.64-.484,1.346-.811,1.915-1.072.248-.113.484-.21.685-.345l.461-.24c3.249-1.25,7.447-1.861,12.774-1.854-.326-1.629-1.297-2.986-1.557-3.246l-.172-.193c-1.376-1.723-3.112-2.293-3.764-2.508-1.783-.487-3.615-.478-5.922.032-1.887.378-3.455.914-4.713,1.344l-.72.246c-.392.158-.805.368-1.168.55-.524.264-.978.481-1.428.631l-1.495-4.479c.257-.086.51-.225.81-.373.465-.231.994-.496,1.657-.761l.817-.281c1.391-.475,3.119-1.065,5.264-1.495,1.873-.413,4.814-.875,8.168.038,1.114.364,3.867,1.271,6.108,4.02.944,1.003,2.647,3.559,2.942,6.781l.005,1.867h.005c0,.163.014.501.033.977.115,2.887.179,6.016.065,8.972.01.582.019,1.192.031,1.76.054,2.819.105,5.459.105,7.892,0,2.635.133,3.221.159,3.312.179.303.39.725.517,1.492l.033.862.002-.008ZM898.529,227.376c2.848-.479,5.164-2.021,6.757-4.571.503-.776,1.188-2.792,1.391-8.045-.043-2.323-.078-4.742-.087-7.278-4.593-.102-8.329.48-11.003,1.465-.328.196-.685.365-1.065.54-.438.204-.821.378-1.166.639l-.383.256c-1.421.931-4.375,2.87-5.086,6.775-.099.422-.667,2.886.329,5.282.973,2.1,2.812,3.011,3.698,3.45,3.209,1.499,4.899,1.674,6.614,1.487h.002Z" fill="#ccc" stroke="#ccc" stroke-miterlimit="10" stroke-width="2"/>
      <path d="M940.401,193.324c9.507,0,17.238,8.685,17.238,19.362s-7.733,19.362-17.238,19.362c-4.906,0-9.327-2.325-12.47-6.032l.192,20.888-4.723.044-.472-52.913h4.723v1.18l.04,4.442c3.155-3.88,7.676-6.33,12.71-6.33v-.003ZM952.916,212.689c0-8.072-5.615-14.64-12.515-14.64s-12.514,6.567-12.514,14.64,5.615,14.641,12.514,14.641,12.515-6.566,12.515-14.641Z" fill="#ccc" stroke="#ccc" stroke-miterlimit="10" stroke-width="2"/>
      <path d="M1053.656,208.65c1.025,2.03,1.519,4.028,1.519,5.936,0,5.087-1.866,9.264-5.549,12.418-3.44,3.179-7.792,4.819-12.869,4.819h-.472c-4.787,0-9.197-1.702-13.108-5.055-3.055-2.586-3.95-4.869-4.6-6.536-.097-.243-.187-.478-.283-.701l4.34-1.863c.116.269.227.55.342.843.545,1.396,1.11,2.838,3.266,4.661,3.086,2.649,6.369,3.93,10.045,3.93h.473c3.905,0,7.091-1.186,9.73-3.625,2.728-2.338,3.965-5.143,3.965-8.891,0-1.161-.331-2.465-.933-3.667-.517-.848-1.268-1.967-2.267-2.633-1.147-.906-2.621-1.757-4.106-2.392-.964-.413-2.047-.746-3.304-1.131-.696-.215-1.424-.439-2.179-.689l-6.945-1.85c-3.743-1.149-6.441-2.881-8.338-5.317-2.057-2.643-3.098-5.75-3.098-9.242,0-4.318,1.792-8.023,5.322-11.013,3.355-3.099,7.164-4.574,11.917-4.574h.47c4.774.276,8.76,1.913,11.986,4.869,2.451,2.177,3.934,4.781,4.505,7.932l-4.649.841c-.385-2.128-1.315-3.752-3.02-5.269-2.43-2.227-5.438-3.449-8.961-3.657l-.333.005c-3.54,0-6.253,1.046-8.789,3.389-2.534,2.148-3.729,4.571-3.729,7.476,0,2.418.708,4.55,2.102,6.342,1.298,1.67,3.178,2.839,5.915,3.682l6.999,1.865c.857.278,1.547.491,2.208.694,1.332.408,2.585.793,3.783,1.306,1.882.806,3.714,1.87,5.032,2.924,1.61,1.064,2.744,2.715,3.618,4.172l-.005.003Z" fill="#ccc" stroke="#ccc" stroke-miterlimit="10" stroke-width="2"/>
      <path d="M1098.672,213.624h-28.089c.269,8.593,5.428,13.695,13.922,13.695,4.25,0,7.277-.759,8.784-1.247,1.421-.701,2.189-.965,2.274-.994l.749,2.241.76,2.236c-.087.03-.697.255-1.83.821l-.307.127c-2.104.702-5.62,1.538-10.43,1.538-11.332,0-18.654-7.509-18.654-19.127,0-12.715,6.621-20.307,17.709-20.307,12.422,0,15.112,14.954,15.112,18.654v2.361ZM1093.666,208.902c-.78-4.14-3.372-11.57-10.107-11.57-8.753,0-11.868,5.637-12.718,11.57h22.825Z" fill="#ccc" stroke="#ccc" stroke-miterlimit="10" stroke-width="2"/>
      <path d="M1121.117,199.24v22.195c0,1.861.435,3.587,1.107,4.393.791.923,2.867,1.511,4.324,1.511,1.422,0,2.94-.555,2.956-.56l.395-.148h1.136v4.245l.123.326c-.024.009-.066.023-.123.045v.105h-.316c-.777.251-2.434.709-4.172.709-2.588,0-6.045-.985-7.931-3.186-2.005-2.408-2.22-6.004-2.22-7.44v-22.195h-7.084v-4.724h7.084v-10.39h4.722v10.39h10.626v4.724h-10.625Z" fill="#ccc" stroke="#ccc" stroke-miterlimit="10" stroke-width="2"/>
      <path d="M1286.158,174.668v12.895l-37.143,44.721h-6.541v-57.615h4.723v52.41l34.239-41.224v-11.187h4.722Z" fill="#ccc" stroke="#ccc" stroke-miterlimit="10" stroke-width="2"/>
      <path d="M1296.84,183.911c0-2.738,2.114-4.959,4.723-4.959s4.723,2.221,4.723,4.959-2.114,4.959-4.723,4.959-4.723-2.221-4.723-4.959ZM1299.202,232.081v-37.544h4.722v37.544h-4.722Z" fill="#ccc" stroke="#ccc" stroke-miterlimit="10" stroke-width="2"/>
      <path d="M1349.752,213.624h-28.09c.27,8.593,5.429,13.695,13.922,13.695,4.251,0,7.278-.759,8.784-1.247,1.421-.701,2.188-.965,2.274-.994l.748,2.241.761,2.236c-.088.03-.697.255-1.83.821l-.308.127c-2.104.702-5.619,1.538-10.43,1.538-11.331,0-18.654-7.509-18.654-19.127,0-12.715,6.621-20.307,17.71-20.307,12.423,0,15.112,14.954,15.112,18.654v2.361ZM1344.746,208.902c-.779-4.14-3.371-11.57-10.106-11.57-8.753,0-11.868,5.637-12.718,11.57h22.824Z" fill="#ccc" stroke="#ccc" stroke-miterlimit="10" stroke-width="2"/>
      <path d="M1403.837,192.159l-.065,1.506-9.417,38.399h-4.399l-7.842-30.973-7.844,30.973h-4.645l-9.235-38.962v-.943h4.723v.666l6.902,28.908,7.79-30.755h4.621l7.69,30.38,6.999-28.541v-.658h4.722Z" fill="#ccc" stroke="#ccc" stroke-miterlimit="10" stroke-width="2"/>
      <path d="M1624.942,208.65c1.025,2.03,1.519,4.028,1.519,5.936,0,5.087-1.865,9.264-5.549,12.418-3.44,3.179-7.793,4.819-12.869,4.819h-.473c-4.786,0-9.197-1.702-13.107-5.055-3.056-2.586-3.95-4.869-4.6-6.536-.097-.243-.187-.478-.283-.701l4.34-1.863c.116.269.227.55.343.843.545,1.396,1.109,2.838,3.266,4.661,3.086,2.649,6.368,3.93,10.045,3.93h.472c3.906,0,7.091-1.186,9.731-3.625,2.727-2.338,3.964-5.143,3.964-8.891,0-1.161-.33-2.465-.933-3.667-.517-.848-1.268-1.967-2.267-2.633-1.147-.906-2.621-1.757-4.106-2.392-.963-.413-2.047-.746-3.303-1.131-.697-.215-1.424-.439-2.18-.689l-6.944-1.85c-3.743-1.149-6.442-2.881-8.338-5.317-2.057-2.643-3.099-5.75-3.099-9.242,0-4.318,1.793-8.023,5.322-11.013,3.355-3.099,7.165-4.574,11.918-4.574h.47c4.774.276,8.761,1.913,11.986,4.869,2.45,2.177,3.934,4.781,4.505,7.932l-4.649.841c-.385-2.128-1.315-3.752-3.02-5.269-2.431-2.227-5.438-3.449-8.962-3.657l-.333.005c-3.539,0-6.252,1.046-8.788,3.389-2.534,2.148-3.729,4.571-3.729,7.476,0,2.418.708,4.55,2.102,6.342,1.299,1.67,3.178,2.839,5.915,3.682l6.999,1.865c.856.278,1.546.491,2.207.694,1.332.408,2.586.793,3.783,1.306,1.882.806,3.714,1.87,5.032,2.924,1.61,1.064,2.743,2.715,3.617,4.172l-.005.003Z" fill="#ccc" stroke="#ccc" stroke-miterlimit="10" stroke-width="2"/>
      <path d="M1669.958,213.624h-28.09c.27,8.593,5.429,13.695,13.922,13.695,4.251,0,7.278-.759,8.784-1.247,1.421-.701,2.188-.965,2.274-.994l.748,2.241.761,2.236c-.088.03-.697.255-1.83.821l-.308.127c-2.104.702-5.619,1.538-10.43,1.538-11.331,0-18.654-7.509-18.654-19.127,0-12.715,6.621-20.307,17.71-20.307,12.423,0,15.112,14.954,15.112,18.654v2.361ZM1664.952,208.902c-.779-4.14-3.371-11.57-10.106-11.57-8.754,0-11.868,5.637-12.718,11.57h22.824Z" fill="#ccc" stroke="#ccc" stroke-miterlimit="10" stroke-width="2"/>
      <path d="M1711.03,205.793c.653,3.257.363,6.066.256,6.857v19.431h-4.722l.033-19.986c.003-.016.385-2.491-.222-5.524-.379-2.796-1.355-4.789-3.019-6.244-1.234-1.079-3.591-1.775-6.002-1.775-2.043,0-4.128.746-5.87,2.102-3.601,3.034-5.464,7.192-5.464,12.302v19.127h-4.723v-19.127c0-.144.019-.277.021-.42l-.255.007s-.239-9.726-.239-12.81c0-1.554-.229-5.001-.229-5.036l4.711-.314c.01.148.241,3.639.241,5.351v.331c.864-1.105,1.85-2.14,2.966-3.082,2.64-2.054,5.752-3.151,8.841-3.151,3.597,0,7.001,1.102,9.109,2.946,2.524,2.21,4.062,5.244,4.565,9.02v-.002Z" fill="#ccc" stroke="#ccc" stroke-miterlimit="10" stroke-width="2"/>
      <path d="M1756.797,231.346h-4.723v-1.181l-.037-4.444c-3.152,3.878-7.678,6.331-12.711,6.331-9.504,0-17.238-8.688-17.238-19.363s7.734-19.361,17.238-19.361c4.911,0,9.339,2.33,12.481,6.046l-.203-23.263,4.723-.042.472,55.274-.002.003ZM1751.841,212.689c0-8.072-5.613-14.64-12.515-14.64s-12.516,6.567-12.516,14.64,5.615,14.641,12.516,14.641,12.515-6.566,12.515-14.641Z" fill="#ccc" stroke="#ccc" stroke-miterlimit="10" stroke-width="2"/>
    </g>
  </g>
</svg>