<?xml version="1.0" encoding="UTF-8"?>
<svg xmlns="http://www.w3.org/2000/svg" width="2398.735" height="316.957" viewBox="0 0 2398.735 316.957">
  <g id="a" data-name="FTI_smoler_-_Dark">
    <path d="M2036.585,182.24c-.134.321-.277.636-.418.953.142-.316.282-.634.418-.953Z" fill="#ccc"/>
    <path d="M541.469,258.71c2.894,16.247,17.67,29.167,33.673,28.864,14.143-.267,28.294-.047,42.442-.047,339.339.017,1128.665.08,1183.99-.012,20.9-.035,34.071-11.428,37.149-32.139.77-5.184.674-10.523.678-15.791.038-49.201.016-98.402-.006-147.603-.002-5.701.013-11.406-.201-17.101-.346-9.169-3.465-17.178-9.751-24.076-7.771-8.529-17.289-12.286-28.7-12.268-48.143.076-1128.831.206-1221.319-.115-20.364-.071-36.155,14.355-38.47,32.283-.511,3.959-.531,8-.534,12.003-.047,54.902-.073,109.805-.021,164.707.004,3.768.409,7.581,1.07,11.295ZM549.034,83.526c.004-4.207-.028-8.529.867-12.598,3.316-15.075,16.364-23.724,30.226-23.677,76.86.263,869.546.06,1189.027.082,10.558,0,21.117-.011,31.673.127,16.929.221,29.407,12.656,29.709,29.707.179,10.132.038,20.271.036,30.406-.006,46.244.06,92.487-.126,138.73-.02,4.958-.87,10.128-2.456,14.821-3.619,10.71-15.139,17.861-26.585,17.829-76.65-.216-153.3-.104-229.95-.103-127.328.002-254.656,0-381.984,0v.021c-200.177,0-400.354,0-600.531,0-3.378,0-6.783-.289-10.131.029-13.313,1.267-28.829-9.511-29.658-28.138-.103-2.319-.128-4.644-.129-6.966-.013-53.423-.036-106.846.011-160.269Z" fill="#ccc"/>
    <path d="M566.163,246.323c.001,1.897-.034,3.824.264,5.685.953,5.938,4.18,8.794,10.288,9.052,4.006.17,8.023.106,12.035.106,200.183.004,400.367.003,600.55.003v-.03c198.494,0,396.988,0,595.483-.001,5.701,0,11.405.078,17.104-.06,7.579-.184,10.626-3.083,11.442-10.648.158-1.465.179-2.95.18-4.426.011-54.48.016-108.96.003-163.441,0-2.532.018-5.087-.298-7.59-.714-5.653-4.931-9.545-10.567-9.894-2.104-.13-4.222-.046-6.334-.046-396.144.011-792.288.023-1188.432.034-9.714,0-19.428-.076-29.14.002-7.268.058-11.361,3.649-12.31,10.859-.384,2.916-.335,5.901-.335,8.854.005,53.847.031,107.693.067,161.54Z" fill="none" stroke="#ccc" stroke-miterlimit="10" stroke-width="10"/>
  </g>
  <g id="b" data-name="SEND_IMAGE_-_Dark">
    <g>
      <rect x="151.478" y="83.278" width="1661.462" height="65.016" fill="none"/>
      <path d="M642.39,120.387c1.025,2.03,1.519,4.028,1.519,5.936,0,5.087-1.865,9.264-5.549,12.418-3.44,3.179-7.792,4.819-12.869,4.819h-.472c-4.787,0-9.197-1.702-13.108-5.055-3.055-2.586-3.95-4.869-4.6-6.536-.097-.243-.187-.478-.283-.701l4.34-1.863c.116.269.227.55.342.843.545,1.396,1.11,2.838,3.266,4.661,3.086,2.649,6.369,3.93,10.045,3.93h.473c3.905,0,7.091-1.186,9.73-3.625,2.728-2.338,3.965-5.143,3.965-8.891,0-1.161-.331-2.465-.933-3.667-.517-.848-1.268-1.967-2.267-2.633-1.147-.906-2.621-1.757-4.106-2.392-.963-.413-2.047-.746-3.304-1.131-.697-.215-1.424-.439-2.179-.689l-6.945-1.85c-3.743-1.149-6.441-2.881-8.337-5.317-2.057-2.643-3.098-5.75-3.098-9.242,0-4.318,1.792-8.023,5.322-11.013,3.355-3.099,7.164-4.574,11.917-4.574h.47c4.774.276,8.76,1.913,11.986,4.869,2.451,2.177,3.934,4.781,4.505,7.932l-4.649.841c-.385-2.128-1.315-3.752-3.02-5.269-2.43-2.227-5.438-3.449-8.961-3.657l-.333.005c-3.54,0-6.253,1.046-8.789,3.389-2.534,2.148-3.729,4.571-3.729,7.476,0,2.418.708,4.55,2.102,6.342,1.299,1.67,3.178,2.839,5.915,3.682l6.999,1.865c.857.278,1.547.491,2.208.694,1.332.408,2.585.793,3.783,1.306,1.882.806,3.714,1.87,5.032,2.924,1.611,1.064,2.744,2.715,3.618,4.172l-.005.003Z" fill="#ccc" stroke="#ccc" stroke-miterlimit="10" stroke-width="2"/>
      <path d="M659.307,88.745v19.362h17.001v4.723h-17.001v26.21h30.933v4.723h-35.655v-59.74h35.655v4.723h-30.933Z" fill="#ccc" stroke="#ccc" stroke-miterlimit="10" stroke-width="2"/>
      <path d="M737.749,86.098v57.665h-4.685l-27.429-48.583v48.543h-4.723v-57.379h5.157l26.956,47.745v-47.991h4.723Z" fill="#ccc" stroke="#ccc" stroke-miterlimit="10" stroke-width="2"/>
      <path d="M785.226,105.746v16.293c0,3.232-.55,6.312-1.587,8.904-.984,2.718-2.52,5.152-4.534,7.169-1.523,1.785-3.473,3.188-5.684,4.038-2.177,1.071-4.401,1.612-6.614,1.612h-18.418v-59.977h18.418c2.441,0,4.718.543,6.958,1.665,2.316,1.159,4.177,2.583,5.698,4.354,1.507,1.5,2.874,3.776,4.177,7.037,1.075,2.951,1.584,5.842,1.584,8.904ZM780.504,105.746c0-2.536-.406-4.831-1.275-7.221-1.032-2.576-2.066-4.35-3.23-5.514-1.239-1.436-2.581-2.453-4.345-3.337-1.591-.796-3.131-1.166-4.845-1.166h-13.695v50.531h13.695c1.511,0,3.062-.395,4.612-1.169l.227-.099c1.525-.569,2.831-1.509,3.995-2.867,1.646-1.657,2.81-3.511,3.587-5.646.831-2.08,1.275-4.619,1.275-7.221v-16.293Z" fill="#ccc" stroke="#ccc" stroke-miterlimit="10" stroke-width="2"/>
      <path d="M912.199,88.776v50.532h11.57v4.723h-27.863v-4.723h11.57v-50.532h-11.57v-4.723h27.863v4.723h-11.57Z" fill="#ccc" stroke="#ccc" stroke-miterlimit="10" stroke-width="2"/>
      <path d="M971.281,86.421v57.38h-4.723v-48.055l-11.126,19.955h-5.136l-11.129-19.955v48.055h-4.722v-57.38h4.928l13.49,24.188,13.49-24.188h4.928Z" fill="#ccc" stroke="#ccc" stroke-miterlimit="10" stroke-width="2"/>
      <path d="M1018.765,111.656l-.243,32.106-4.723-.035.134-17.93h-27.289v17.946h-4.723v-32.098l16.182-25.284h4.475l16.187,25.294ZM1013.97,121.073l.062-8.055-13.691-21.391-13.695,21.397v8.048h27.325Z" fill="#ccc" stroke="#ccc" stroke-miterlimit="10" stroke-width="2"/>
      <path d="M1050.179,111.655h17.001v17.001c0,1.773,0,4.456-1.54,6.919l-.21.318c-.923,1.394-1.877,2.834-4.083,4.21-1.089.826-3.757,2.108-5.615,2.806-1.964.736-4.243,1.096-6.968,1.096s-5.003-.359-6.968-1.096c-2.416-.907-4.392-1.993-5.877-3.23-2.085-1.561-3.452-3.474-4.657-5.159l-.196-.324c-1.091-2.179-1.667-4.668-1.667-7.194v-25.975c0-2.883.621-5.164,2.012-7.391,1.112-2.25,3.23-4.227,4.715-5.502,1.75-1.457,3.861-2.248,5.901-3.013,1.967-.739,4.248-1.098,6.973-1.098s5.003.358,6.968,1.096c1.825.682,3.766,1.61,5.773,2.755l.246.161c2.425,1.82,4.17,3.771,5.181,5.792l-4.224,2.113c-.666-1.332-1.901-2.689-3.674-4.038-1.719-.973-3.431-1.787-4.958-2.361-1.426-.535-3.162-.795-5.311-.795s-3.887.257-5.311.793c-1.754.659-3.407,1.277-4.515,2.201-1.148.986-2.81,2.521-3.648,4.2-1.018,1.648-1.405,3.11-1.405,5.084v25.975c0,1.735.377,3.433,1.091,4.925,1.067,1.49,2.092,2.893,3.634,4.048,1.157.958,2.718,1.802,4.607,2.51,1.426.536,3.162.796,5.311.796s3.884-.26,5.311-.794c1.799-.675,3.917-1.759,4.607-2.275,1.5-.949,2.023-1.736,2.812-2.929l.179-.271c.784-1.256.784-2.904.784-4.356v-12.278h-12.279v-4.718Z" fill="#ccc" stroke="#ccc" stroke-miterlimit="10" stroke-width="2"/>
      <path d="M1082.583,88.745v19.362h17.001v4.723h-17.001v26.21h30.933v4.723h-35.655v-59.74h35.655v4.723h-30.933Z" fill="#ccc" stroke="#ccc" stroke-miterlimit="10" stroke-width="2"/>
      <path d="M1309.42,94.094c1.089,2.184,1.665,4.673,1.665,7.197v25.737c0,2.526-.576,5.016-1.665,7.195-1.024,2.05-2.568,3.967-4.59,5.697-1.807,1.507-3.747,2.529-5.792,3.062-1.866.681-3.878,1.025-6.135,1.047h-.236c-2.524-.02-4.538-.359-6.496-1.094-2.135-.803-4.03-1.889-5.644-3.232-2.047-1.755-3.591-3.672-4.613-5.717-1.092-2.18-1.668-4.668-1.668-7.195v-25.737c0-2.526.579-5.016,1.668-7.195,1.022-2.05,2.568-3.965,4.59-5.697,1.804-1.505,3.745-2.527,5.79-3.061,1.924-.704,4.012-1.049,6.371-1.049,2.533,0,4.8.369,6.734,1.096,2.13.799,4.025,1.887,5.641,3.23,1.795,1.537,3.219,3.402,4.378,5.715h.002ZM1306.357,127.027v-25.738c0-1.795-.403-3.554-1.166-5.084-.884-1.764-1.898-3.104-3.202-4.222-1.181-.982-2.621-1.802-4.25-2.413-1.387-.52-3.139-.794-5.074-.794-1.858,0-3.398.253-4.839.794l-.257.08c-1.398.35-2.749,1.062-4.017,2.12-1.517,1.299-2.676,2.721-3.415,4.201-.765,1.53-1.169,3.287-1.169,5.084v25.735c0,1.797.406,3.557,1.169,5.084.737,1.479,1.896,2.899,3.438,4.222,1.181.982,2.621,1.802,4.253,2.416,1.436.538,2.965.784,4.949.793,1.806-.009,3.308-.262,4.727-.793l.255-.08c1.398-.35,2.751-1.062,4.021-2.121,1.514-1.299,2.673-2.72,3.412-4.2.763-1.525,1.167-3.285,1.167-5.082l-.003-.002Z" fill="#ccc" stroke="#ccc" stroke-miterlimit="10" stroke-width="2"/>
      <path d="M1326.446,91.123v19.362h15.349v4.723h-15.349v28.571h-4.723v-57.379h35.656v4.723h-30.934Z" fill="#ccc" stroke="#ccc" stroke-miterlimit="10" stroke-width="2"/>
    </g>
    <g>
      <rect x="566.383" y="169.192" width="827.096" height="65.016" fill="none"/>
      <path d="M628.947,197.225l-1.587,11.334h7.143v4.723h-7.804l-2.113,15.112h-4.723l.024-1.039,1.96-14.073h-8.442l-2.04,15.112h-4.723l.021-1.027,1.894-14.085h-6.638v-4.723h7.273l1.523-11.334h-6.907v-4.723h7.542l1.903-14.168h4.723l-.021,1.264-1.743,12.904h8.529l1.972-14.168h4.723l-.023,1.275-1.804,12.893h6.784v4.723h-7.445ZM622.505,208.559l1.577-11.334h-8.51l-1.53,11.334h8.463Z" fill="#ccc" stroke="#ccc" stroke-miterlimit="10" stroke-width="2"/>
      <path d="M674.046,197.225l-1.587,11.334h7.143v4.723h-7.804l-2.113,15.112h-4.723l.024-1.039,1.96-14.073h-8.442l-2.04,15.112h-4.723l.021-1.027,1.894-14.085h-6.638v-4.723h7.273l1.523-11.334h-6.907v-4.723h7.542l1.903-14.168h4.722l-.021,1.264-1.743,12.904h8.529l1.972-14.168h4.723l-.023,1.275-1.804,12.893h6.784v4.723h-7.445ZM667.604,208.559l1.577-11.334h-8.51l-1.53,11.334h8.463Z" fill="#ccc" stroke="#ccc" stroke-miterlimit="10" stroke-width="2"/>
      <path d="M719.145,197.225l-1.587,11.334h7.143v4.723h-7.804l-2.113,15.112h-4.723l.024-1.039,1.96-14.073h-8.442l-2.04,15.112h-4.723l.021-1.027,1.894-14.085h-6.638v-4.723h7.273l1.523-11.334h-6.907v-4.723h7.542l1.903-14.168h4.723l-.021,1.264-1.743,12.904h8.529l1.972-14.168h4.723l-.023,1.275-1.804,12.893h6.784v4.723h-7.445ZM712.703,208.559l1.577-11.334h-8.51l-1.53,11.334h8.463Z" fill="#ccc" stroke="#ccc" stroke-miterlimit="10" stroke-width="2"/>
      <path d="M764.244,197.225l-1.587,11.334h7.143v4.723h-7.804l-2.113,15.112h-4.723l.024-1.039,1.96-14.073h-8.442l-2.04,15.112h-4.723l.021-1.027,1.894-14.085h-6.638v-4.723h7.273l1.523-11.334h-6.907v-4.723h7.542l1.903-14.168h4.722l-.021,1.264-1.743,12.904h8.529l1.972-14.168h4.723l-.023,1.275-1.804,12.893h6.784v4.723h-7.445ZM757.803,208.559l1.577-11.334h-8.51l-1.53,11.334h8.463Z" fill="#ccc" stroke="#ccc" stroke-miterlimit="10" stroke-width="2"/>
      <path d="M809.343,197.225l-1.587,11.334h7.143v4.723h-7.804l-2.113,15.112h-4.723l.024-1.039,1.96-14.073h-8.442l-2.04,15.112h-4.723l.021-1.027,1.894-14.085h-6.638v-4.723h7.273l1.523-11.334h-6.907v-4.723h7.542l1.903-14.168h4.723l-.021,1.264-1.743,12.904h8.529l1.972-14.168h4.723l-.023,1.275-1.804,12.893h6.784v4.723h-7.445ZM802.902,208.559l1.577-11.334h-8.51l-1.53,11.334h8.463Z" fill="#ccc" stroke="#ccc" stroke-miterlimit="10" stroke-width="2"/>
      <path d="M854.442,197.225l-1.587,11.334h7.143v4.723h-7.804l-2.113,15.112h-4.723l.024-1.039,1.96-14.073h-8.442l-2.04,15.112h-4.723l.021-1.027,1.894-14.085h-6.638v-4.723h7.273l1.523-11.334h-6.907v-4.723h7.542l1.903-14.168h4.722l-.021,1.264-1.743,12.904h8.529l1.972-14.168h4.723l-.023,1.275-1.804,12.893h6.784v4.723h-7.445ZM848.001,208.559l1.577-11.334h-8.51l-1.53,11.334h8.463Z" fill="#ccc" stroke="#ccc" stroke-miterlimit="10" stroke-width="2"/>
      <path d="M899.541,197.225l-1.587,11.334h7.143v4.723h-7.804l-2.113,15.112h-4.723l.024-1.039,1.96-14.073h-8.442l-2.04,15.112h-4.723l.021-1.027,1.894-14.085h-6.638v-4.723h7.273l1.523-11.334h-6.907v-4.723h7.542l1.903-14.168h4.723l-.021,1.264-1.743,12.904h8.529l1.972-14.168h4.723l-.023,1.275-1.804,12.893h6.784v4.723h-7.445ZM893.1,208.559l1.577-11.334h-8.51l-1.53,11.334h8.463Z" fill="#ccc" stroke="#ccc" stroke-miterlimit="10" stroke-width="2"/>
      <path d="M944.641,197.225l-1.587,11.334h7.143v4.723h-7.804l-2.113,15.112h-4.723l.024-1.039,1.96-14.073h-8.442l-2.04,15.112h-4.723l.021-1.027,1.894-14.085h-6.638v-4.723h7.273l1.523-11.334h-6.907v-4.723h7.542l1.903-14.168h4.723l-.021,1.264-1.743,12.904h8.529l1.972-14.168h4.723l-.023,1.275-1.804,12.893h6.784v4.723h-7.445ZM938.2,208.559l1.577-11.334h-8.51l-1.53,11.334h8.463Z" fill="#ccc" stroke="#ccc" stroke-miterlimit="10" stroke-width="2"/>
      <path d="M989.74,197.225l-1.587,11.334h7.143v4.723h-7.804l-2.113,15.112h-4.723l.024-1.039,1.96-14.073h-8.442l-2.04,15.112h-4.723l.021-1.027,1.894-14.085h-6.638v-4.723h7.273l1.523-11.334h-6.907v-4.723h7.542l1.903-14.168h4.722l-.021,1.264-1.743,12.904h8.529l1.972-14.168h4.723l-.023,1.275-1.804,12.893h6.784v4.723h-7.445ZM983.299,208.559l1.577-11.334h-8.51l-1.53,11.334h8.463Z" fill="#ccc" stroke="#ccc" stroke-miterlimit="10" stroke-width="2"/>
      <path d="M1034.839,197.225l-1.587,11.334h7.143v4.723h-7.804l-2.113,15.112h-4.723l.024-1.039,1.96-14.073h-8.442l-2.04,15.112h-4.723l.021-1.027,1.894-14.085h-6.638v-4.723h7.273l1.523-11.334h-6.907v-4.723h7.542l1.903-14.168h4.723l-.021,1.264-1.743,12.904h8.529l1.972-14.168h4.723l-.023,1.275-1.804,12.893h6.784v4.723h-7.445ZM1028.398,208.559l1.577-11.334h-8.51l-1.53,11.334h8.463Z" fill="#ccc" stroke="#ccc" stroke-miterlimit="10" stroke-width="2"/>
      <path d="M1079.938,197.225l-1.587,11.334h7.143v4.723h-7.804l-2.113,15.112h-4.723l.024-1.039,1.96-14.073h-8.442l-2.04,15.112h-4.723l.021-1.027,1.894-14.085h-6.638v-4.723h7.273l1.523-11.334h-6.907v-4.723h7.542l1.903-14.168h4.722l-.021,1.264-1.743,12.904h8.529l1.972-14.168h4.723l-.023,1.275-1.804,12.893h6.784v4.723h-7.445ZM1073.497,208.559l1.577-11.334h-8.51l-1.53,11.334h8.463Z" fill="#ccc" stroke="#ccc" stroke-miterlimit="10" stroke-width="2"/>
      <path d="M1125.037,197.225l-1.587,11.334h7.143v4.723h-7.804l-2.113,15.112h-4.723l.024-1.039,1.96-14.073h-8.442l-2.04,15.112h-4.723l.021-1.027,1.894-14.085h-6.638v-4.723h7.273l1.523-11.334h-6.907v-4.723h7.542l1.903-14.168h4.723l-.021,1.264-1.743,12.904h8.529l1.972-14.168h4.723l-.023,1.275-1.804,12.893h6.784v4.723h-7.445ZM1118.596,208.559l1.577-11.334h-8.51l-1.53,11.334h8.463Z" fill="#ccc" stroke="#ccc" stroke-miterlimit="10" stroke-width="2"/>
      <path d="M1170.137,197.225l-1.587,11.334h7.143v4.723h-7.804l-2.113,15.112h-4.723l.024-1.039,1.96-14.073h-8.442l-2.04,15.112h-4.723l.021-1.027,1.894-14.085h-6.638v-4.723h7.273l1.523-11.334h-6.907v-4.723h7.542l1.903-14.168h4.722l-.021,1.264-1.743,12.904h8.529l1.972-14.168h4.723l-.023,1.275-1.804,12.893h6.784v4.723h-7.445ZM1163.695,208.559l1.577-11.334h-8.51l-1.53,11.334h8.463Z" fill="#ccc" stroke="#ccc" stroke-miterlimit="10" stroke-width="2"/>
      <path d="M1215.236,197.225l-1.587,11.334h7.143v4.723h-7.804l-2.113,15.112h-4.723l.023-1.039,1.96-14.073h-8.442l-2.04,15.112h-4.723l.021-1.027,1.894-14.085h-6.638v-4.723h7.273l1.523-11.334h-6.907v-4.723h7.542l1.903-14.168h4.723l-.021,1.264-1.742,12.904h8.528l1.972-14.168h4.723l-.023,1.275-1.804,12.893h6.783v4.723h-7.444ZM1208.794,208.559l1.578-11.334h-8.511l-1.53,11.334h8.462Z" fill="#ccc" stroke="#ccc" stroke-miterlimit="10" stroke-width="2"/>
      <path d="M1260.336,197.225l-1.587,11.334h7.143v4.723h-7.804l-2.113,15.112h-4.723l.023-1.039,1.96-14.073h-8.441l-2.041,15.112h-4.722l.021-1.027,1.895-14.085h-6.638v-4.723h7.272l1.523-11.334h-6.907v-4.723h7.542l1.903-14.168h4.723l-.021,1.264-1.742,12.904h8.528l1.972-14.168h4.723l-.023,1.275-1.804,12.893h6.783v4.723h-7.444ZM1253.893,208.559l1.578-11.334h-8.511l-1.53,11.334h8.463Z" fill="#ccc" stroke="#ccc" stroke-miterlimit="10" stroke-width="2"/>
      <path d="M1305.434,197.225l-1.587,11.334h7.143v4.723h-7.804l-2.113,15.112h-4.723l.023-1.039,1.96-14.073h-8.441l-2.041,15.112h-4.722l.021-1.027,1.895-14.085h-6.638v-4.723h7.272l1.523-11.334h-6.907v-4.723h7.542l1.903-14.168h4.723l-.021,1.264-1.742,12.904h8.528l1.972-14.168h4.723l-.023,1.275-1.804,12.893h6.783v4.723h-7.444ZM1298.992,208.559l1.578-11.334h-8.511l-1.53,11.334h8.463Z" fill="#ccc" stroke="#ccc" stroke-miterlimit="10" stroke-width="2"/>
      <path d="M1350.533,197.225l-1.587,11.334h7.143v4.723h-7.804l-2.113,15.112h-4.723l.023-1.039,1.96-14.073h-8.441l-2.041,15.112h-4.722l.021-1.027,1.895-14.085h-6.638v-4.723h7.272l1.523-11.334h-6.907v-4.723h7.542l1.903-14.168h4.723l-.021,1.264-1.742,12.904h8.528l1.972-14.168h4.723l-.023,1.275-1.804,12.893h6.783v4.723h-7.444ZM1344.091,208.559l1.578-11.334h-8.511l-1.53,11.334h8.463Z" fill="#ccc" stroke="#ccc" stroke-miterlimit="10" stroke-width="2"/>
    </g>
  </g>
</svg>