<?xml version="1.0" encoding="UTF-8"?>
<svg xmlns="http://www.w3.org/2000/svg" width="2398.735" height="316.957" viewBox="0 0 2398.735 316.957">
  <g id="a" data-name="FTI_smoler_-_Dark">
    <path d="M2036.585,182.24c-.134.321-.277.636-.418.953.142-.316.282-.634.418-.953Z" fill="#ccc"/>
    <path d="M541.469,258.71c2.894,16.247,17.67,29.167,33.673,28.864,14.143-.267,28.294-.047,42.442-.047,339.339.017,1128.665.08,1183.99-.012,20.9-.035,34.071-11.428,37.149-32.139.77-5.184.674-10.523.678-15.791.038-49.201.016-98.402-.006-147.603-.002-5.701.013-11.406-.201-17.101-.346-9.169-3.465-17.178-9.751-24.076-7.771-8.529-17.289-12.286-28.7-12.268-48.143.076-1128.831.206-1221.319-.115-20.364-.071-36.155,14.355-38.47,32.283-.511,3.959-.531,8-.534,12.003-.047,54.902-.073,109.805-.021,164.707.004,3.768.409,7.581,1.07,11.295ZM549.034,83.526c.004-4.207-.028-8.529.867-12.598,3.316-15.075,16.364-23.724,30.226-23.677,76.86.263,869.546.06,1189.027.082,10.558,0,21.117-.011,31.673.127,16.929.221,29.407,12.656,29.709,29.707.179,10.132.038,20.271.036,30.406-.006,46.244.06,92.487-.126,138.73-.02,4.958-.87,10.128-2.456,14.821-3.619,10.71-15.139,17.861-26.585,17.829-76.65-.216-153.3-.104-229.95-.103-127.328.002-254.656,0-381.984,0v.021c-200.177,0-400.354,0-600.531,0-3.378,0-6.783-.289-10.131.029-13.313,1.267-28.829-9.511-29.658-28.138-.103-2.319-.128-4.644-.129-6.966-.013-53.423-.036-106.846.011-160.269Z" fill="#ccc"/>
    <path d="M566.163,246.323c.001,1.897-.034,3.824.264,5.685.953,5.938,4.18,8.794,10.288,9.052,4.006.17,8.023.106,12.035.106,200.183.004,400.367.003,600.55.003v-.03c198.494,0,396.988,0,595.483-.001,5.701,0,11.405.078,17.104-.06,7.579-.184,10.626-3.083,11.442-10.648.158-1.465.179-2.95.18-4.426.011-54.48.016-108.96.003-163.441,0-2.532.018-5.087-.298-7.59-.714-5.653-4.931-9.545-10.567-9.894-2.104-.13-4.222-.046-6.334-.046-396.144.011-792.288.023-1188.432.034-9.714,0-19.428-.076-29.14.002-7.268.058-11.361,3.649-12.31,10.859-.384,2.916-.335,5.901-.335,8.854.005,53.847.031,107.693.067,161.54Z" fill="none" stroke="#ccc" stroke-miterlimit="10" stroke-width="10"/>
  </g>
  <g id="b" data-name="Send_x2212_to_x2212_Call_x2212_Sign_x2212_Menu_02-_Dark">
    <g>
      <rect x="566.431" y="83.278" width="1246.51" height="65.016" fill="none"/>
      <path d="M633.225,120.387c1.025,2.03,1.519,4.028,1.519,5.936,0,5.087-1.866,9.264-5.549,12.418-3.44,3.179-7.792,4.819-12.869,4.819h-.472c-4.787,0-9.197-1.702-13.108-5.055-3.055-2.586-3.95-4.869-4.6-6.536-.097-.243-.187-.478-.283-.701l4.34-1.863c.116.269.227.55.342.843.545,1.396,1.11,2.838,3.266,4.661,3.086,2.649,6.369,3.93,10.045,3.93h.473c3.905,0,7.091-1.186,9.73-3.625,2.728-2.338,3.965-5.143,3.965-8.891,0-1.161-.331-2.465-.933-3.667-.517-.848-1.268-1.967-2.267-2.633-1.147-.906-2.621-1.757-4.106-2.392-.964-.413-2.047-.746-3.304-1.131-.696-.215-1.424-.439-2.179-.689l-6.945-1.85c-3.743-1.149-6.441-2.881-8.338-5.317-2.057-2.643-3.098-5.75-3.098-9.242,0-4.318,1.792-8.023,5.322-11.013,3.355-3.099,7.164-4.574,11.917-4.574h.47c4.774.276,8.76,1.913,11.986,4.869,2.451,2.177,3.934,4.781,4.505,7.932l-4.649.841c-.385-2.128-1.315-3.752-3.02-5.269-2.43-2.227-5.438-3.449-8.961-3.657l-.333.005c-3.54,0-6.253,1.046-8.789,3.389-2.534,2.148-3.729,4.571-3.729,7.476,0,2.418.708,4.55,2.102,6.342,1.298,1.67,3.178,2.839,5.915,3.682l6.999,1.865c.857.278,1.547.491,2.208.694,1.332.408,2.585.793,3.783,1.306,1.882.806,3.714,1.87,5.032,2.924,1.61,1.064,2.744,2.715,3.618,4.172l-.005.003Z" fill="#ccc" stroke="#ccc" stroke-miterlimit="10" stroke-width="2"/>
      <path d="M650.142,88.745v19.362h17.001v4.723h-17.001v26.21h30.933v4.723h-35.655v-59.74h35.655v4.723h-30.933Z" fill="#ccc" stroke="#ccc" stroke-miterlimit="10" stroke-width="2"/>
      <path d="M728.584,86.098v57.665h-4.685l-27.429-48.583v48.543h-4.723v-57.379h5.157l26.957,47.745v-47.991h4.723Z" fill="#ccc" stroke="#ccc" stroke-miterlimit="10" stroke-width="2"/>
      <path d="M776.062,105.746v16.293c0,3.232-.55,6.312-1.587,8.904-.984,2.718-2.519,5.152-4.534,7.169-1.523,1.785-3.473,3.188-5.684,4.038-2.177,1.071-4.401,1.612-6.614,1.612h-18.418v-59.977h18.418c2.441,0,4.718.543,6.958,1.665,2.316,1.159,4.177,2.583,5.698,4.354,1.506,1.5,2.874,3.776,4.177,7.037,1.075,2.951,1.584,5.842,1.584,8.904ZM771.339,105.746c0-2.536-.406-4.831-1.275-7.221-1.032-2.576-2.066-4.35-3.23-5.514-1.239-1.436-2.581-2.453-4.345-3.337-1.591-.796-3.131-1.166-4.845-1.166h-13.695v50.531h13.695c1.511,0,3.062-.395,4.612-1.169l.227-.099c1.525-.569,2.831-1.509,3.995-2.867,1.646-1.657,2.81-3.511,3.587-5.646.831-2.08,1.275-4.619,1.275-7.221v-16.293Z" fill="#ccc" stroke="#ccc" stroke-miterlimit="10" stroke-width="2"/>
      <path d="M821.179,91.226h-14.876v52.657h-4.722v-52.657h-14.876v-4.723h34.475v4.723Z" fill="#ccc" stroke="#ccc" stroke-miterlimit="10" stroke-width="2"/>
      <path d="M866.976,94.094c1.088,2.184,1.665,4.673,1.665,7.197v25.737c0,2.526-.576,5.016-1.665,7.195-1.025,2.05-2.569,3.967-4.59,5.697-1.807,1.507-3.748,2.529-5.792,3.062-1.865.681-3.877,1.025-6.135,1.047h-.236c-2.524-.02-4.539-.359-6.496-1.094-2.134-.803-4.031-1.889-5.644-3.232-2.047-1.755-3.591-3.672-4.614-5.717-1.091-2.18-1.667-4.668-1.667-7.195v-25.737c0-2.526.579-5.016,1.667-7.195,1.022-2.05,2.569-3.965,4.59-5.697,1.804-1.505,3.745-2.527,5.79-3.061,1.924-.704,4.012-1.049,6.371-1.049,2.534,0,4.8.369,6.734,1.096,2.13.799,4.026,1.887,5.641,3.23,1.794,1.537,3.218,3.402,4.378,5.715h.002ZM863.914,127.027v-25.738c0-1.795-.404-3.554-1.167-5.084-.883-1.764-1.899-3.104-3.202-4.222-1.181-.982-2.621-1.802-4.25-2.413-1.386-.52-3.138-.794-5.074-.794-1.858,0-3.398.253-4.838.794l-.257.08c-1.398.35-2.749,1.062-4.017,2.12-1.516,1.299-2.675,2.721-3.414,4.201-.765,1.53-1.169,3.287-1.169,5.084v25.735c0,1.797.406,3.557,1.169,5.084.736,1.479,1.896,2.899,3.438,4.222,1.181.982,2.621,1.802,4.252,2.416,1.436.538,2.966.784,4.949.793,1.807-.009,3.308-.262,4.728-.793l.255-.08c1.398-.35,2.751-1.062,4.021-2.121,1.514-1.299,2.673-2.72,3.412-4.2.763-1.525,1.167-3.285,1.167-5.082l-.002-.002Z" fill="#ccc" stroke="#ccc" stroke-miterlimit="10" stroke-width="2"/>
      <path d="M1009.414,135.655c1.434-1.082,2.673-2.454,3.792-4.246l4.005,2.503c-1.419,2.271-3.079,4.102-5.072,5.599-1.665,1.115-3.733,2.149-5.78,2.919-2.328.776-4.456,1.096-7.207,1.096-2.923,0-5.211-.348-7.205-1.094-2.049-.683-3.917-1.655-5.974-3.124-2.045-1.272-3.813-3.234-4.989-5.589-1.091-2.177-1.667-4.666-1.667-7.194v-25.738c0-2.987.961-5.315,1.901-7.195,1.53-2.468,3.188-4.297,5.183-5.792,1.66-1.112,3.729-2.148,5.78-2.919,2.319-.774,4.449-1.093,7.204-1.093,2.926,0,5.214.35,7.205,1.096,2.047.68,3.915,1.65,5.974,3.121,2.219,1.667,3.884,3.615,4.989,5.825l-4.225,2.114c-.774-1.552-1.969-2.94-3.554-4.128-1.636-1.169-3.074-1.92-4.76-2.481-1.528-.571-3.289-.824-5.629-.824-2.246,0-3.877.238-5.629.824-1.646.618-3.362,1.476-4.63,2.321-1.433,1.079-2.673,2.453-3.794,4.245-.732,1.49-1.294,2.999-1.294,4.888v25.736c0,1.799.404,3.556,1.167,5.081.8,1.601,1.941,2.871,3.391,3.778,1.802,1.282,3.237,2.035,4.926,2.597,1.528.572,3.292.824,5.629.824,2.241,0,3.873-.238,5.629-.824,1.641-.616,3.36-1.476,4.63-2.32l.004-.005Z" fill="#ccc" stroke="#ccc" stroke-miterlimit="10" stroke-width="2"/>
      <path d="M1065.033,111.656l-.243,32.106-4.723-.035.134-17.93h-27.289v17.946h-4.723v-32.098l16.182-25.284h4.475l16.187,25.294ZM1060.237,121.073l.062-8.055-13.691-21.391-13.695,21.397v8.048h27.325Z" fill="#ccc" stroke="#ccc" stroke-miterlimit="10" stroke-width="2"/>
      <path d="M1111.558,139.308v4.723h-35.892v-57.38h4.723v52.657h31.169Z" fill="#ccc" stroke="#ccc" stroke-miterlimit="10" stroke-width="2"/>
      <path d="M1158.134,139.308v4.723h-35.892v-57.38h4.723v52.657h31.169Z" fill="#ccc" stroke="#ccc" stroke-miterlimit="10" stroke-width="2"/>
      <path d="M1204.183,120.387c1.024,2.03,1.518,4.028,1.518,5.936,0,5.087-1.865,9.264-5.549,12.418-3.44,3.179-7.792,4.819-12.869,4.819h-.472c-4.787,0-9.197-1.702-13.108-5.055-3.055-2.586-3.95-4.869-4.6-6.536-.097-.243-.187-.478-.283-.701l4.34-1.863c.116.269.227.55.342.843.545,1.396,1.11,2.838,3.266,4.661,3.086,2.649,6.369,3.93,10.045,3.93h.473c3.905,0,7.091-1.186,9.73-3.625,2.728-2.338,3.965-5.143,3.965-8.891,0-1.161-.331-2.465-.933-3.667-.517-.848-1.268-1.967-2.267-2.633-1.147-.906-2.621-1.757-4.106-2.392-.964-.413-2.047-.746-3.304-1.131-.696-.215-1.424-.439-2.179-.689l-6.945-1.85c-3.743-1.149-6.441-2.881-8.338-5.317-2.057-2.643-3.098-5.75-3.098-9.242,0-4.318,1.792-8.023,5.322-11.013,3.355-3.099,7.164-4.574,11.917-4.574h.47c4.774.276,8.76,1.913,11.986,4.869,2.451,2.177,3.934,4.781,4.506,7.932l-4.65.841c-.385-2.128-1.315-3.752-3.02-5.269-2.43-2.227-5.438-3.449-8.961-3.657l-.333.005c-3.54,0-6.253,1.046-8.789,3.389-2.534,2.148-3.729,4.571-3.729,7.476,0,2.418.708,4.55,2.102,6.342,1.298,1.67,3.178,2.839,5.915,3.682l6.999,1.865c.857.278,1.547.491,2.208.694,1.332.408,2.585.793,3.783,1.306,1.882.806,3.714,1.87,5.032,2.924,1.61,1.064,2.744,2.715,3.618,4.172l-.005.003Z" fill="#ccc" stroke="#ccc" stroke-miterlimit="10" stroke-width="2"/>
      <path d="M1232.67,88.776v50.532h11.57v4.723h-27.863v-4.723h11.57v-50.532h-11.57v-4.723h27.863v4.723h-11.57Z" fill="#ccc" stroke="#ccc" stroke-miterlimit="10" stroke-width="2"/>
      <path d="M1275.695,111.655h17.002v17.001c0,1.773,0,4.456-1.54,6.919l-.21.318c-.923,1.394-1.877,2.834-4.083,4.21-1.088.826-3.757,2.108-5.615,2.806-1.964.736-4.243,1.096-6.968,1.096s-5.004-.359-6.968-1.096c-2.416-.907-4.393-1.993-5.878-3.23-2.085-1.561-3.452-3.474-4.656-5.159l-.195-.324c-1.092-2.179-1.668-4.668-1.668-7.194v-25.975c0-2.883.621-5.164,2.013-7.391,1.111-2.25,3.229-4.227,4.715-5.502,1.75-1.457,3.861-2.248,5.901-3.013,1.967-.739,4.248-1.098,6.973-1.098s5.004.358,6.968,1.096c1.825.682,3.767,1.61,5.773,2.755l.246.161c2.425,1.82,4.17,3.771,5.181,5.792l-4.225,2.113c-.666-1.332-1.901-2.689-3.674-4.038-1.72-.973-3.432-1.787-4.959-2.361-1.427-.535-3.162-.795-5.311-.795s-3.887.257-5.311.793c-1.755.659-3.407,1.277-4.515,2.201-1.147.986-2.811,2.521-3.648,4.2-1.018,1.648-1.405,3.11-1.405,5.084v25.975c0,1.735.378,3.433,1.091,4.925,1.067,1.49,2.093,2.893,3.635,4.048,1.156.958,2.718,1.802,4.606,2.51,1.427.536,3.162.796,5.311.796s3.885-.26,5.311-.794c1.8-.675,3.917-1.759,4.607-2.275,1.499-.949,2.023-1.736,2.812-2.929l.18-.271c.784-1.256.784-2.904.784-4.356v-12.278h-12.279v-4.718Z" fill="#ccc" stroke="#ccc" stroke-miterlimit="10" stroke-width="2"/>
      <path d="M1340.214,86.098v57.665h-4.686l-27.429-48.583v48.543h-4.723v-57.379h5.157l26.957,47.745v-47.991h4.723Z" fill="#ccc" stroke="#ccc" stroke-miterlimit="10" stroke-width="2"/>
      <path d="M1575.942,123.824v-4.723h19.129v4.723h-19.129Z" fill="#ccc" stroke="#ccc" stroke-miterlimit="10" stroke-width="2"/>
      <path d="M1649.391,86.405v12.895l-37.143,44.721h-6.541v-57.615h4.723v52.41l34.239-41.224v-11.187h4.722Z" fill="#ccc" stroke="#ccc" stroke-miterlimit="10" stroke-width="2"/>
      <path d="M1697.146,90.034l-16.294,21.96v31.807h-4.723v-31.815l-16.057-21.959v-1.243h3.009l1.261-.921,14.163,19.371,14.383-19.386,1.259.936h2.999v1.251Z" fill="#ccc" stroke="#ccc" stroke-miterlimit="10" stroke-width="2"/>
      <path d="M1724.415,139.244v4.723h-15.112v-4.723h5.195v-48.461l-3.691,3.056-3.011-3.639,7.502-6.208h3.923v55.252h5.194Z" fill="#ccc" stroke="#ccc" stroke-miterlimit="10" stroke-width="2"/>
      <path d="M1751.721,139.244v4.723h-15.112v-4.723h5.195v-48.461l-3.691,3.056-3.011-3.639,7.502-6.208h3.923v55.252h5.194Z" fill="#ccc" stroke="#ccc" stroke-miterlimit="10" stroke-width="2"/>
      <path d="M1762.407,123.824v-4.723h19.129v4.723h-19.129Z" fill="#ccc" stroke="#ccc" stroke-miterlimit="10" stroke-width="2"/>
    </g>
    <g>
      <rect x="566.383" y="169.192" width="1246.51" height="65.016" fill="none"/>
      <path d="M609.75,174.659v19.362h17.001v4.723h-17.001v26.21h30.933v4.723h-35.655v-59.74h35.655v4.723h-30.933Z" fill="#ccc" stroke="#ccc" stroke-miterlimit="10" stroke-width="2"/>
      <path d="M681.79,203.445c.654,3.257.363,6.066.257,6.857v19.431h-4.723l.034-19.986c.002-.016.385-2.491-.222-5.524-.378-2.796-1.355-4.789-3.018-6.244-1.235-1.079-3.592-1.775-6.002-1.775-2.042,0-4.128.746-5.871,2.102-3.601,3.034-5.463,7.192-5.463,12.302v19.127h-4.723v-19.127c0-.144.019-.277.021-.42l-.255.007s-.238-9.726-.238-12.81c0-1.554-.229-5.001-.229-5.036l4.711-.314c.01.148.241,3.639.241,5.351v.331c.864-1.105,1.849-2.14,2.966-3.082,2.639-2.054,5.751-3.151,8.84-3.151,3.597,0,7.001,1.102,9.109,2.946,2.525,2.21,4.062,5.244,4.565,9.02v-.002Z" fill="#ccc" stroke="#ccc" stroke-miterlimit="10" stroke-width="2"/>
      <path d="M727.557,228.997h-4.723v-1.181l-.038-4.444c-3.152,3.878-7.677,6.331-12.711,6.331-9.504,0-17.237-8.688-17.237-19.363s7.733-19.361,17.237-19.361c4.912,0,9.339,2.33,12.482,6.046l-.203-23.263,4.722-.042.473,55.274-.002.003ZM722.601,210.34c0-8.072-5.613-14.64-12.515-14.64s-12.515,6.567-12.515,14.64,5.616,14.641,12.515,14.641,12.515-6.566,12.515-14.641Z" fill="#ccc" stroke="#ccc" stroke-miterlimit="10" stroke-width="2"/>
      <path d="M825.049,172.335v57.38h-4.723v-48.055l-11.126,19.955h-5.136l-11.129-19.955v48.055h-4.722v-57.38h4.928l13.49,24.188,13.49-24.188h4.928Z" fill="#ccc" stroke="#ccc" stroke-miterlimit="10" stroke-width="2"/>
      <path d="M870.637,209.838c0,10.938-7.839,19.836-17.473,19.836s-17.474-8.899-17.474-19.836,7.839-19.834,17.474-19.834,17.473,8.897,17.473,19.834ZM865.915,209.838c0-8.332-5.72-15.111-12.751-15.111s-12.751,6.779-12.751,15.111,5.72,15.113,12.751,15.113,12.751-6.78,12.751-15.113Z" fill="#ccc" stroke="#ccc" stroke-miterlimit="10" stroke-width="2"/>
      <path d="M915.99,228.997h-4.723v-1.181l-.038-4.444c-3.152,3.878-7.677,6.331-12.711,6.331-9.504,0-17.237-8.688-17.237-19.363s7.733-19.361,17.237-19.361c4.912,0,9.339,2.33,12.482,6.046l-.203-23.263,4.723-.042.472,55.274-.002.003ZM911.034,210.34c0-8.072-5.613-14.64-12.515-14.64s-12.515,6.567-12.515,14.64,5.616,14.641,12.515,14.641,12.515-6.566,12.515-14.641Z" fill="#ccc" stroke="#ccc" stroke-miterlimit="10" stroke-width="2"/>
      <path d="M1037.02,206.301c1.025,2.03,1.519,4.028,1.519,5.936,0,5.087-1.866,9.264-5.549,12.418-3.44,3.179-7.792,4.819-12.869,4.819h-.472c-4.787,0-9.197-1.702-13.108-5.055-3.055-2.586-3.95-4.869-4.6-6.536-.097-.243-.187-.478-.283-.701l4.34-1.863c.116.269.227.55.342.843.545,1.396,1.11,2.838,3.266,4.661,3.086,2.649,6.369,3.93,10.045,3.93h.473c3.905,0,7.091-1.186,9.73-3.625,2.728-2.338,3.965-5.143,3.965-8.891,0-1.161-.331-2.465-.933-3.667-.517-.848-1.268-1.967-2.267-2.633-1.147-.906-2.621-1.757-4.106-2.392-.964-.413-2.047-.746-3.304-1.131-.696-.215-1.424-.439-2.179-.689l-6.945-1.85c-3.743-1.149-6.441-2.881-8.338-5.317-2.057-2.643-3.098-5.75-3.098-9.242,0-4.318,1.792-8.023,5.322-11.013,3.355-3.099,7.164-4.574,11.917-4.574h.47c4.774.276,8.76,1.913,11.986,4.869,2.451,2.177,3.934,4.781,4.505,7.932l-4.649.841c-.385-2.128-1.315-3.752-3.02-5.269-2.43-2.227-5.438-3.449-8.961-3.657l-.333.005c-3.54,0-6.253,1.046-8.789,3.389-2.534,2.148-3.729,4.571-3.729,7.476,0,2.418.708,4.55,2.102,6.342,1.298,1.67,3.178,2.839,5.915,3.682l6.999,1.865c.857.278,1.547.491,2.208.694,1.332.408,2.585.793,3.783,1.306,1.882.806,3.714,1.87,5.032,2.924,1.61,1.064,2.744,2.715,3.618,4.172l-.005.003Z" fill="#ccc" stroke="#ccc" stroke-miterlimit="10" stroke-width="2"/>
      <path d="M1082.036,211.276h-28.089c.269,8.593,5.428,13.695,13.922,13.695,4.25,0,7.277-.759,8.784-1.247,1.421-.701,2.189-.965,2.274-.994l.749,2.241.76,2.236c-.087.03-.697.255-1.83.821l-.307.127c-2.104.702-5.62,1.538-10.43,1.538-11.332,0-18.654-7.509-18.654-19.127,0-12.715,6.621-20.307,17.709-20.307,12.422,0,15.112,14.954,15.112,18.654v2.361ZM1077.031,206.553c-.78-4.14-3.372-11.57-10.107-11.57-8.753,0-11.868,5.637-12.718,11.57h22.825Z" fill="#ccc" stroke="#ccc" stroke-miterlimit="10" stroke-width="2"/>
      <path d="M1104.481,196.892v22.195c0,1.861.435,3.587,1.107,4.393.791.923,2.867,1.511,4.324,1.511,1.422,0,2.94-.555,2.956-.56l.395-.148h1.136v4.245l.123.326c-.024.009-.066.023-.123.045v.105h-.316c-.777.251-2.434.709-4.172.709-2.588,0-6.045-.985-7.931-3.186-2.005-2.408-2.22-6.004-2.22-7.44v-22.195h-7.084v-4.724h7.084v-10.39h4.722v10.39h10.626v4.724h-10.625Z" fill="#ccc" stroke="#ccc" stroke-miterlimit="10" stroke-width="2"/>
      <path d="M1262.912,175.948l-16.294,21.96v31.807h-4.723v-31.815l-16.057-21.959v-1.243h3.009l1.261-.921,14.163,19.371,14.383-19.386,1.259.936h2.999v1.251Z" fill="#ccc" stroke="#ccc" stroke-miterlimit="10" stroke-width="2"/>
      <path d="M1306.384,211.276h-28.09c.27,8.593,5.429,13.695,13.922,13.695,4.251,0,7.278-.759,8.784-1.247,1.421-.701,2.188-.965,2.274-.994l.748,2.241.761,2.236c-.088.03-.697.255-1.83.821l-.308.127c-2.104.702-5.619,1.538-10.43,1.538-11.331,0-18.654-7.509-18.654-19.127,0-12.715,6.621-20.307,17.71-20.307,12.423,0,15.112,14.954,15.112,18.654v2.361ZM1301.378,206.553c-.779-4.14-3.371-11.57-10.106-11.57-8.754,0-11.868,5.637-12.718,11.57h22.824Z" fill="#ccc" stroke="#ccc" stroke-miterlimit="10" stroke-width="2"/>
      <path d="M1330.06,206.903c9.351,3.562,11.294,8.445,11.294,11.922,0,6.255-5.726,10.625-13.929,10.625-3.995,0-9.762-2.515-10.404-2.803l1.918-4.313c2.163.963,6.205,2.395,8.486,2.395,5.507,0,9.207-2.373,9.207-5.903,0-3.608-4.438-6.058-8.161-7.477-6.146-2.047-9.311-5.582-9.311-10.472,0-6.456,4.819-10.626,12.279-10.626,5.085,0,6.437.635,8.217,1.67.352.207.739.434,1.259.67l-1.956,4.297c-.689-.313-1.206-.611-1.676-.885-1.105-.643-1.773-1.029-5.847-1.029-2.821,0-7.557.768-7.557,5.903,0,1.847.701,4.2,6.178,6.023l.002.003Z" fill="#ccc" stroke="#ccc" stroke-miterlimit="10" stroke-width="2"/>
      <path d="M1463.9,172.012v57.665h-4.686l-27.429-48.583v48.543h-4.723v-57.379h5.157l26.957,47.745v-47.991h4.723Z" fill="#ccc" stroke="#ccc" stroke-miterlimit="10" stroke-width="2"/>
      <path d="M1509.488,209.838c0,10.938-7.839,19.836-17.474,19.836s-17.474-8.899-17.474-19.836,7.84-19.834,17.474-19.834,17.474,8.897,17.474,19.834ZM1504.765,209.838c0-8.332-5.719-15.111-12.751-15.111s-12.751,6.779-12.751,15.111,5.72,15.113,12.751,15.113,12.751-6.78,12.751-15.113Z" fill="#ccc" stroke="#ccc" stroke-miterlimit="10" stroke-width="2"/>
      <path d="M1657.008,172.012v57.665h-4.686l-27.429-48.583v48.543h-4.723v-57.379h5.157l26.957,47.745v-47.991h4.723Z" fill="#ccc" stroke="#ccc" stroke-miterlimit="10" stroke-width="2"/>
      <path d="M1700.471,211.276h-28.09c.27,8.593,5.429,13.695,13.922,13.695,4.251,0,7.278-.759,8.784-1.247,1.421-.701,2.188-.965,2.274-.994l.748,2.241.761,2.236c-.088.03-.697.255-1.83.821l-.308.127c-2.104.702-5.619,1.538-10.43,1.538-11.331,0-18.654-7.509-18.654-19.127,0-12.715,6.621-20.307,17.71-20.307,12.423,0,15.112,14.954,15.112,18.654v2.361ZM1695.465,206.553c-.779-4.14-3.371-11.57-10.106-11.57-8.753,0-11.868,5.637-12.718,11.57h22.824Z" fill="#ccc" stroke="#ccc" stroke-miterlimit="10" stroke-width="2"/>
      <path d="M1741.095,193.641l-12.11,17.319,12.11,17.32v1.452h-3.372l-.923.645-10.697-15.296-10.696,15.296-.923-.645h-3.375v-1.452l12.113-17.32-12.113-17.319v-1.452h3.375l.923-.646,10.696,15.297,10.697-15.297.923.646h3.372v1.452Z" fill="#ccc" stroke="#ccc" stroke-miterlimit="10" stroke-width="2"/>
      <path d="M1763.586,196.892v22.195c0,1.861.435,3.587,1.107,4.393.791.923,2.866,1.511,4.324,1.511,1.422,0,2.939-.555,2.956-.56l.394-.148h1.136v4.245l.123.326c-.023.009-.066.023-.123.045v.105h-.316c-.776.251-2.434.709-4.172.709-2.588,0-6.045-.985-7.931-3.186-2.006-2.408-2.221-6.004-2.221-7.44v-22.195h-7.084v-4.724h7.084v-10.39h4.723v10.39h10.626v4.724h-10.626Z" fill="#ccc" stroke="#ccc" stroke-miterlimit="10" stroke-width="2"/>
    </g>
  </g>
</svg>