<?xml version="1.0" encoding="UTF-8"?>
<svg id="a" data-name="ECMD_Symbols_-_Dark" xmlns="http://www.w3.org/2000/svg" width="62" height="54" viewBox="0 0 62 54">
  <g id="b" data-name="threat_unknown">
    <path d="M19.99,17.533c-.166-1.623.666-3.162,1.581-4.535.541-.791,1.082-1.54,1.831-2.164,1.04-.832,2.413-1.248,3.745-1.498,2.913-.624,5.95-.832,8.78.083s5.326,3.121,5.992,6.033c.166.749.208,1.498.25,2.205.083,2.497-.208,5.243-2.08,6.907-.707.624-1.54.999-2.372,1.415-1.914.957-3.786,1.997-5.576,3.162-.499.333-.999.666-1.415,1.082-1.415,1.456-1.082,3.911-1.123,5.95" fill="none" stroke="#ccc" stroke-miterlimit="10" stroke-width="3"/>
    <path d="M29.518,41.042c0,.541-.042,3.62,0,4.161" fill="none" stroke="#ccc" stroke-miterlimit="10" stroke-width="3"/>
  </g>
</svg>