<?xml version="1.0" encoding="UTF-8"?>
<svg xmlns="http://www.w3.org/2000/svg" width="2398.735" height="316.957" viewBox="0 0 2398.735 316.957">
  <g id="a" data-name="FTI_smoler_-_Dark">
    <path d="M2036.585,182.24c-.134.321-.277.636-.418.953.142-.316.282-.634.418-.953Z" fill="#ccc"/>
    <path d="M541.469,258.71c2.894,16.247,17.67,29.167,33.673,28.864,14.143-.267,28.294-.047,42.442-.047,339.339.017,1128.665.08,1183.99-.012,20.9-.035,34.071-11.428,37.149-32.139.77-5.184.674-10.523.678-15.791.038-49.201.016-98.402-.006-147.603-.002-5.701.013-11.406-.201-17.101-.346-9.169-3.465-17.178-9.751-24.076-7.771-8.529-17.289-12.286-28.7-12.268-48.143.076-1128.831.206-1221.319-.115-20.364-.071-36.155,14.355-38.47,32.283-.511,3.959-.531,8-.534,12.003-.047,54.902-.073,109.805-.021,164.707.004,3.768.409,7.581,1.07,11.295ZM549.034,83.526c.004-4.207-.028-8.529.867-12.598,3.316-15.075,16.364-23.724,30.226-23.677,76.86.263,869.546.06,1189.027.082,10.558,0,21.117-.011,31.673.127,16.929.221,29.407,12.656,29.709,29.707.179,10.132.038,20.271.036,30.406-.006,46.244.06,92.487-.126,138.73-.02,4.958-.87,10.128-2.456,14.821-3.619,10.71-15.139,17.861-26.585,17.829-76.65-.216-153.3-.104-229.95-.103-127.328.002-254.656,0-381.984,0v.021c-200.177,0-400.354,0-600.531,0-3.378,0-6.783-.289-10.131.029-13.313,1.267-28.829-9.511-29.658-28.138-.103-2.319-.128-4.644-.129-6.966-.013-53.423-.036-106.846.011-160.269Z" fill="#ccc"/>
    <path d="M566.163,246.323c.001,1.897-.034,3.824.264,5.685.953,5.938,4.18,8.794,10.288,9.052,4.006.17,8.023.106,12.035.106,200.183.004,400.367.003,600.55.003v-.03c198.494,0,396.988,0,595.483-.001,5.701,0,11.405.078,17.104-.06,7.579-.184,10.626-3.083,11.442-10.648.158-1.465.179-2.95.18-4.426.011-54.48.016-108.96.003-163.441,0-2.532.018-5.087-.298-7.59-.714-5.653-4.931-9.545-10.567-9.894-2.104-.13-4.222-.046-6.334-.046-396.144.011-792.288.023-1188.432.034-9.714,0-19.428-.076-29.14.002-7.268.058-11.361,3.649-12.31,10.859-.384,2.916-.335,5.901-.335,8.854.005,53.847.031,107.693.067,161.54Z" fill="none" stroke="#ccc" stroke-miterlimit="10" stroke-width="10"/>
  </g>
  <g id="b" data-name="View_Menu_-_Dark">
    <g>
      <rect x="224.261" y="83.278" width="1589.258" height="65.016" fill="none"/>
      <path d="M636.881,120.387c1.025,2.03,1.519,4.028,1.519,5.936,0,5.087-1.865,9.264-5.549,12.418-3.44,3.179-7.792,4.819-12.869,4.819h-.472c-4.787,0-9.197-1.702-13.108-5.055-3.055-2.586-3.95-4.869-4.6-6.536-.097-.243-.187-.478-.283-.701l4.34-1.863c.116.269.227.55.342.843.545,1.396,1.11,2.838,3.266,4.661,3.086,2.649,6.369,3.93,10.045,3.93h.473c3.905,0,7.091-1.186,9.73-3.625,2.728-2.338,3.965-5.143,3.965-8.891,0-1.161-.331-2.465-.933-3.667-.517-.848-1.268-1.967-2.267-2.633-1.147-.906-2.621-1.757-4.106-2.392-.963-.413-2.047-.746-3.304-1.131-.697-.215-1.424-.439-2.179-.689l-6.945-1.85c-3.743-1.149-6.441-2.881-8.337-5.317-2.057-2.643-3.098-5.75-3.098-9.242,0-4.318,1.792-8.023,5.322-11.013,3.355-3.099,7.164-4.574,11.917-4.574h.47c4.774.276,8.76,1.913,11.986,4.869,2.451,2.177,3.934,4.781,4.505,7.932l-4.649.841c-.385-2.128-1.315-3.752-3.02-5.269-2.43-2.227-5.438-3.449-8.961-3.657l-.333.005c-3.54,0-6.253,1.046-8.789,3.389-2.534,2.148-3.729,4.571-3.729,7.476,0,2.418.708,4.55,2.102,6.342,1.299,1.67,3.178,2.839,5.915,3.682l6.999,1.865c.857.278,1.547.491,2.208.694,1.332.408,2.585.793,3.783,1.306,1.882.806,3.714,1.87,5.032,2.924,1.611,1.064,2.744,2.715,3.618,4.172l-.005.003Z" fill="#ccc" stroke="#ccc" stroke-miterlimit="10" stroke-width="2"/>
      <path d="M734.266,94.032c1.091,2.177,1.667,4.666,1.667,7.195v25.737c0,2.529-.576,5.021-1.667,7.197-1.02,2.045-2.564,3.96-4.588,5.695-1.806,1.505-3.748,2.529-5.792,3.063-1.866.68-3.875,1.024-6.135,1.046h-.236c-2.524-.02-4.536-.359-6.496-1.094-2.13-.801-4.026-1.887-5.641-3.232-2.05-1.755-3.594-3.672-4.617-5.717-1.091-2.177-1.667-4.666-1.667-7.192v-25.738c0-2.526.579-5.015,1.667-7.194,1.022-2.045,2.567-3.963,4.59-5.695,1.807-1.507,3.748-2.529,5.792-3.062,1.929-.704,4.014-1.049,6.371-1.049,2.529,0,4.793.366,6.732,1.093,2.13.799,4.026,1.887,5.644,3.233,1.797,1.537,3.221,3.402,4.378,5.714h-.002ZM703.82,100.991v23.292l27.096-25.691c-.196-.859-.489-1.684-.871-2.448-.881-1.764-1.898-3.105-3.202-4.223-1.181-.984-2.621-1.804-4.25-2.415-1.386-.52-3.14-.794-5.074-.794-1.856,0-3.393.253-4.838.794l-.255.08c-1.4.35-2.751,1.062-4.021,2.12-1.518,1.302-2.675,2.723-3.414,4.201-.765,1.53-1.169,3.287-1.169,5.084ZM731.213,126.968v-22.146l-26.833,25.442c.17.536.366,1.059.612,1.552.739,1.479,1.896,2.899,3.44,4.222,1.18.982,2.619,1.802,4.25,2.416,1.436.538,2.966.784,4.949.793,1.804-.009,3.308-.262,4.725-.793l.255-.08c1.4-.35,2.751-1.063,4.021-2.121,1.516-1.301,2.673-2.723,3.412-4.2.765-1.528,1.168-3.285,1.168-5.084Z" fill="#ccc" stroke="#ccc" stroke-miterlimit="10" stroke-width="2"/>
      <path d="M781.744,94.032c1.091,2.177,1.667,4.666,1.667,7.195v25.737c0,2.529-.576,5.021-1.667,7.197-1.02,2.045-2.564,3.96-4.588,5.695-1.806,1.505-3.748,2.529-5.792,3.063-1.866.68-3.875,1.024-6.135,1.046h-.236c-2.524-.02-4.536-.359-6.496-1.094-2.13-.801-4.026-1.887-5.641-3.232-2.05-1.755-3.594-3.672-4.617-5.717-1.091-2.177-1.667-4.666-1.667-7.192v-25.738c0-2.526.579-5.015,1.667-7.194,1.022-2.045,2.567-3.963,4.59-5.695,1.807-1.507,3.748-2.529,5.792-3.062,1.929-.704,4.014-1.049,6.371-1.049,2.529,0,4.793.366,6.732,1.093,2.13.799,4.026,1.887,5.644,3.233,1.797,1.537,3.221,3.402,4.378,5.714h-.002ZM751.297,100.991v23.292l27.096-25.691c-.196-.859-.489-1.684-.871-2.448-.881-1.764-1.898-3.105-3.202-4.223-1.181-.984-2.621-1.804-4.25-2.415-1.386-.52-3.14-.794-5.074-.794-1.856,0-3.393.253-4.838.794l-.255.08c-1.4.35-2.751,1.062-4.021,2.12-1.518,1.302-2.675,2.723-3.414,4.201-.765,1.53-1.169,3.287-1.169,5.084ZM778.69,126.968v-22.146l-26.833,25.442c.17.536.366,1.059.612,1.552.739,1.479,1.896,2.899,3.44,4.222,1.18.982,2.619,1.802,4.25,2.416,1.436.538,2.966.784,4.949.793,1.804-.009,3.308-.262,4.725-.793l.255-.08c1.4-.35,2.751-1.063,4.021-2.121,1.516-1.301,2.673-2.723,3.412-4.2.765-1.528,1.168-3.285,1.168-5.084Z" fill="#ccc" stroke="#ccc" stroke-miterlimit="10" stroke-width="2"/>
      <path d="M829.221,94.032c1.091,2.177,1.667,4.666,1.667,7.195v25.737c0,2.529-.576,5.021-1.667,7.197-1.02,2.045-2.564,3.96-4.588,5.695-1.806,1.505-3.748,2.529-5.792,3.063-1.866.68-3.875,1.024-6.135,1.046h-.236c-2.524-.02-4.536-.359-6.496-1.094-2.13-.801-4.026-1.887-5.641-3.232-2.05-1.755-3.594-3.672-4.617-5.717-1.091-2.177-1.667-4.666-1.667-7.192v-25.738c0-2.526.579-5.015,1.667-7.194,1.022-2.045,2.567-3.963,4.59-5.695,1.807-1.507,3.748-2.529,5.792-3.062,1.929-.704,4.014-1.049,6.371-1.049,2.529,0,4.793.366,6.732,1.093,2.13.799,4.026,1.887,5.644,3.233,1.797,1.537,3.221,3.402,4.378,5.714h-.002ZM798.775,100.991v23.292l27.096-25.691c-.196-.859-.489-1.684-.871-2.448-.881-1.764-1.898-3.105-3.202-4.223-1.181-.984-2.621-1.804-4.25-2.415-1.386-.52-3.14-.794-5.074-.794-1.856,0-3.393.253-4.838.794l-.255.08c-1.4.35-2.751,1.062-4.021,2.12-1.518,1.302-2.675,2.723-3.414,4.201-.765,1.53-1.169,3.287-1.169,5.084ZM826.168,126.968v-22.146l-26.833,25.442c.17.536.366,1.059.612,1.552.739,1.479,1.896,2.899,3.44,4.222,1.18.982,2.619,1.802,4.25,2.416,1.436.538,2.966.784,4.949.793,1.804-.009,3.308-.262,4.725-.793l.255-.08c1.4-.35,2.751-1.063,4.021-2.121,1.516-1.301,2.673-2.723,3.412-4.2.765-1.528,1.168-3.285,1.168-5.084Z" fill="#ccc" stroke="#ccc" stroke-miterlimit="10" stroke-width="2"/>
      <path d="M953.627,88.762v55.018h-4.723v-25.029h-27.627v25.029h-4.722v-55.018h4.722v25.266h27.627v-25.266h4.723Z" fill="#ccc" stroke="#ccc" stroke-miterlimit="10" stroke-width="2"/>
      <path d="M1049.468,94.032c1.091,2.177,1.667,4.666,1.667,7.195v25.737c0,2.529-.576,5.021-1.667,7.197-1.02,2.045-2.564,3.96-4.588,5.695-1.806,1.505-3.748,2.529-5.792,3.063-1.866.68-3.875,1.024-6.135,1.046h-.236c-2.524-.02-4.536-.359-6.496-1.094-2.13-.801-4.026-1.887-5.641-3.232-2.05-1.755-3.594-3.672-4.617-5.717-1.091-2.177-1.667-4.666-1.667-7.192v-25.738c0-2.526.579-5.015,1.667-7.194,1.022-2.045,2.567-3.963,4.59-5.695,1.807-1.507,3.748-2.529,5.792-3.062,1.929-.704,4.014-1.049,6.371-1.049,2.529,0,4.793.366,6.732,1.093,2.13.799,4.026,1.887,5.644,3.233,1.797,1.537,3.221,3.402,4.378,5.714h-.002ZM1019.022,100.991v23.292l27.096-25.691c-.196-.859-.489-1.684-.871-2.448-.881-1.764-1.898-3.105-3.202-4.223-1.181-.984-2.621-1.804-4.25-2.415-1.386-.52-3.14-.794-5.074-.794-1.856,0-3.393.253-4.838.794l-.255.08c-1.4.35-2.751,1.062-4.021,2.12-1.518,1.302-2.675,2.723-3.414,4.201-.765,1.53-1.169,3.287-1.169,5.084ZM1046.415,126.968v-22.146l-26.833,25.442c.17.536.366,1.059.612,1.552.739,1.479,1.896,2.899,3.44,4.222,1.18.982,2.619,1.802,4.25,2.416,1.436.538,2.966.784,4.949.793,1.804-.009,3.308-.262,4.725-.793l.255-.08c1.4-.35,2.751-1.063,4.021-2.121,1.516-1.301,2.673-2.723,3.412-4.2.765-1.528,1.168-3.285,1.168-5.084Z" fill="#ccc" stroke="#ccc" stroke-miterlimit="10" stroke-width="2"/>
      <path d="M1096.946,94.032c1.091,2.177,1.667,4.666,1.667,7.195v25.737c0,2.529-.576,5.021-1.667,7.197-1.02,2.045-2.564,3.96-4.588,5.695-1.806,1.505-3.748,2.529-5.792,3.063-1.866.68-3.875,1.024-6.135,1.046h-.236c-2.524-.02-4.536-.359-6.496-1.094-2.13-.801-4.026-1.887-5.641-3.232-2.05-1.755-3.594-3.672-4.617-5.717-1.091-2.177-1.667-4.666-1.667-7.192v-25.738c0-2.526.579-5.015,1.667-7.194,1.022-2.045,2.567-3.963,4.59-5.695,1.807-1.507,3.748-2.529,5.792-3.062,1.929-.704,4.014-1.049,6.371-1.049,2.529,0,4.793.366,6.732,1.093,2.13.799,4.026,1.887,5.644,3.233,1.797,1.537,3.221,3.402,4.378,5.714h-.002ZM1066.499,100.991v23.292l27.096-25.691c-.196-.859-.489-1.684-.871-2.448-.881-1.764-1.898-3.105-3.202-4.223-1.181-.984-2.621-1.804-4.25-2.415-1.386-.52-3.14-.794-5.074-.794-1.856,0-3.393.253-4.838.794l-.255.08c-1.4.35-2.751,1.062-4.021,2.12-1.518,1.302-2.675,2.723-3.414,4.201-.765,1.53-1.169,3.287-1.169,5.084ZM1093.892,126.968v-22.146l-26.833,25.442c.17.536.366,1.059.612,1.552.739,1.479,1.896,2.899,3.44,4.222,1.18.982,2.619,1.802,4.25,2.416,1.436.538,2.966.784,4.949.793,1.804-.009,3.308-.262,4.725-.793l.255-.08c1.4-.35,2.751-1.063,4.021-2.121,1.516-1.301,2.673-2.723,3.412-4.2.765-1.528,1.168-3.285,1.168-5.084Z" fill="#ccc" stroke="#ccc" stroke-miterlimit="10" stroke-width="2"/>
      <path d="M1144.423,94.032c1.091,2.177,1.667,4.666,1.667,7.195v25.737c0,2.529-.576,5.021-1.667,7.197-1.02,2.045-2.564,3.96-4.588,5.695-1.806,1.505-3.748,2.529-5.792,3.063-1.866.68-3.875,1.024-6.135,1.046h-.236c-2.524-.02-4.536-.359-6.496-1.094-2.13-.801-4.026-1.887-5.641-3.232-2.05-1.755-3.594-3.672-4.617-5.717-1.091-2.177-1.667-4.666-1.667-7.192v-25.738c0-2.526.579-5.015,1.667-7.194,1.022-2.045,2.567-3.963,4.59-5.695,1.807-1.507,3.748-2.529,5.792-3.062,1.929-.704,4.014-1.049,6.371-1.049,2.529,0,4.793.366,6.732,1.093,2.13.799,4.026,1.887,5.644,3.233,1.797,1.537,3.221,3.402,4.378,5.714h-.002ZM1113.977,100.991v23.292l27.096-25.691c-.196-.859-.489-1.684-.871-2.448-.881-1.764-1.898-3.105-3.202-4.223-1.181-.984-2.621-1.804-4.25-2.415-1.386-.52-3.14-.794-5.074-.794-1.856,0-3.393.253-4.838.794l-.255.08c-1.4.35-2.751,1.062-4.021,2.12-1.518,1.302-2.675,2.723-3.414,4.201-.765,1.53-1.169,3.287-1.169,5.084ZM1141.37,126.968v-22.146l-26.833,25.442c.17.536.366,1.059.612,1.552.739,1.479,1.896,2.899,3.44,4.222,1.18.982,2.619,1.802,4.25,2.416,1.436.538,2.966.784,4.949.793,1.804-.009,3.308-.262,4.725-.793l.255-.08c1.4-.35,2.751-1.063,4.021-2.121,1.516-1.301,2.673-2.723,3.412-4.2.765-1.528,1.168-3.285,1.168-5.084Z" fill="#ccc" stroke="#ccc" stroke-miterlimit="10" stroke-width="2"/>
      <path d="M1230.183,119.843l13.638,22.591v1.367h-3.534l-.848.512-14.43-23.896c-.104,0-.212.007-.313.007h-13.227v23.377h-4.723v-57.615h17.71c2.725,0,5.421.562,7.81,1.62,2.562,1.14,4.646,2.535,6.375,4.267,1.402,1.4,2.441,3.218,3.447,4.975l.125.251c.936,2.187,1.372,4.132,1.372,6.125,0,2.068-.475,4.267-1.372,6.361-.791,1.842-2.095,3.747-3.572,5.225-1.365,1.365-3.572,3.187-6.352,4.114-.697.312-1.4.54-2.106.723v-.003ZM1211.47,90.907v24.794h13.227c2.653,0,4.304-.276,5.887-.978,1.699-.579,3.298-1.632,4.72-3.053,1.053-1.057,2.017-2.458,2.571-3.75.647-1.509.989-3.065.989-4.498,0-1.318-.29-2.6-.938-4.144-.869-1.519-1.688-2.936-2.621-3.868-1.334-1.334-2.909-2.381-4.956-3.292-1.785-.791-3.821-1.212-5.889-1.212h-12.99Z" fill="#ccc" stroke="#ccc" stroke-miterlimit="10" stroke-width="2"/>
      <path d="M1339.662,94.032c1.091,2.177,1.667,4.666,1.667,7.195v25.737c0,2.529-.576,5.021-1.667,7.197-1.02,2.045-2.564,3.96-4.588,5.695-1.807,1.505-3.747,2.529-5.792,3.063-1.865.68-3.875,1.024-6.135,1.046h-.236c-2.524-.02-4.536-.359-6.496-1.094-2.13-.801-4.025-1.887-5.641-3.232-2.05-1.755-3.594-3.672-4.616-5.717-1.091-2.177-1.667-4.666-1.667-7.192v-25.738c0-2.526.578-5.015,1.667-7.194,1.022-2.045,2.566-3.963,4.59-5.695,1.807-1.507,3.748-2.529,5.792-3.062,1.93-.704,4.015-1.049,6.371-1.049,2.529,0,4.794.366,6.732,1.093,2.13.799,4.025,1.887,5.644,3.233,1.797,1.537,3.221,3.402,4.378,5.714h-.003ZM1309.216,100.991v23.292l27.096-25.691c-.196-.859-.488-1.684-.871-2.448-.881-1.764-1.898-3.105-3.202-4.223-1.181-.984-2.621-1.804-4.25-2.415-1.387-.52-3.141-.794-5.074-.794-1.856,0-3.394.253-4.839.794l-.255.08c-1.4.35-2.751,1.062-4.021,2.12-1.519,1.302-2.675,2.723-3.414,4.201-.766,1.53-1.169,3.287-1.169,5.084ZM1336.609,126.968v-22.146l-26.834,25.442c.17.536.366,1.059.611,1.552.739,1.479,1.896,2.899,3.44,4.222,1.181.982,2.619,1.802,4.251,2.416,1.436.538,2.966.784,4.949.793,1.804-.009,3.308-.262,4.725-.793l.255-.08c1.4-.35,2.751-1.063,4.021-2.121,1.516-1.301,2.673-2.723,3.412-4.2.765-1.528,1.169-3.285,1.169-5.084Z" fill="#ccc" stroke="#ccc" stroke-miterlimit="10" stroke-width="2"/>
      <path d="M1387.14,94.032c1.091,2.177,1.667,4.666,1.667,7.195v25.737c0,2.529-.576,5.021-1.667,7.197-1.02,2.045-2.564,3.96-4.588,5.695-1.807,1.505-3.747,2.529-5.792,3.063-1.865.68-3.875,1.024-6.135,1.046h-.236c-2.524-.02-4.536-.359-6.496-1.094-2.13-.801-4.025-1.887-5.641-3.232-2.05-1.755-3.594-3.672-4.616-5.717-1.091-2.177-1.667-4.666-1.667-7.192v-25.738c0-2.526.578-5.015,1.667-7.194,1.022-2.045,2.566-3.963,4.59-5.695,1.807-1.507,3.748-2.529,5.792-3.062,1.93-.704,4.015-1.049,6.371-1.049,2.529,0,4.794.366,6.732,1.093,2.13.799,4.025,1.887,5.644,3.233,1.797,1.537,3.221,3.402,4.378,5.714h-.003ZM1356.693,100.991v23.292l27.096-25.691c-.196-.859-.488-1.684-.871-2.448-.881-1.764-1.898-3.105-3.202-4.223-1.181-.984-2.621-1.804-4.25-2.415-1.387-.52-3.141-.794-5.074-.794-1.856,0-3.394.253-4.839.794l-.255.08c-1.4.35-2.751,1.062-4.021,2.12-1.519,1.302-2.675,2.723-3.414,4.201-.766,1.53-1.169,3.287-1.169,5.084ZM1384.087,126.968v-22.146l-26.834,25.442c.17.536.366,1.059.611,1.552.739,1.479,1.896,2.899,3.44,4.222,1.181.982,2.619,1.802,4.251,2.416,1.436.538,2.966.784,4.949.793,1.804-.009,3.308-.262,4.725-.793l.255-.08c1.4-.35,2.751-1.063,4.021-2.121,1.516-1.301,2.673-2.723,3.412-4.2.765-1.528,1.169-3.285,1.169-5.084Z" fill="#ccc" stroke="#ccc" stroke-miterlimit="10" stroke-width="2"/>
      <path d="M1434.617,94.032c1.091,2.177,1.667,4.666,1.667,7.195v25.737c0,2.529-.576,5.021-1.667,7.197-1.02,2.045-2.564,3.96-4.588,5.695-1.807,1.505-3.747,2.529-5.792,3.063-1.865.68-3.875,1.024-6.135,1.046h-.236c-2.524-.02-4.536-.359-6.496-1.094-2.13-.801-4.025-1.887-5.641-3.232-2.05-1.755-3.594-3.672-4.616-5.717-1.091-2.177-1.667-4.666-1.667-7.192v-25.738c0-2.526.578-5.015,1.667-7.194,1.022-2.045,2.566-3.963,4.59-5.695,1.807-1.507,3.748-2.529,5.792-3.062,1.93-.704,4.015-1.049,6.371-1.049,2.529,0,4.794.366,6.732,1.093,2.13.799,4.025,1.887,5.644,3.233,1.797,1.537,3.221,3.402,4.378,5.714h-.003ZM1404.171,100.991v23.292l27.096-25.691c-.196-.859-.488-1.684-.871-2.448-.881-1.764-1.898-3.105-3.202-4.223-1.181-.984-2.621-1.804-4.25-2.415-1.387-.52-3.141-.794-5.074-.794-1.856,0-3.394.253-4.839.794l-.255.08c-1.4.35-2.751,1.062-4.021,2.12-1.519,1.302-2.675,2.723-3.414,4.201-.766,1.53-1.169,3.287-1.169,5.084ZM1431.564,126.968v-22.146l-26.834,25.442c.17.536.366,1.059.611,1.552.739,1.479,1.896,2.899,3.44,4.222,1.181.982,2.619,1.802,4.251,2.416,1.436.538,2.966.784,4.949.793,1.804-.009,3.308-.262,4.725-.793l.255-.08c1.4-.35,2.751-1.063,4.021-2.121,1.516-1.301,2.673-2.723,3.412-4.2.765-1.528,1.169-3.285,1.169-5.084Z" fill="#ccc" stroke="#ccc" stroke-miterlimit="10" stroke-width="2"/>
    </g>
    <g>
      <rect x="549.017" y="171.54" width="1263.876" height="73.053" fill="none"/>
      <path d="M606.069,181.028v19.362h17.001v4.723h-17.001v26.21h30.933v4.723h-35.655v-59.74h35.655v4.723h-30.933Z" fill="#ccc" stroke="#ccc" stroke-miterlimit="10" stroke-width="2"/>
      <path d="M678.109,209.813c.654,3.257.363,6.066.257,6.857v19.431h-4.723l.034-19.986c.002-.016.385-2.491-.222-5.524-.378-2.796-1.355-4.789-3.018-6.244-1.235-1.079-3.592-1.775-6.002-1.775-2.042,0-4.128.746-5.871,2.102-3.601,3.034-5.463,7.192-5.463,12.302v19.127h-4.723v-19.127c0-.144.019-.277.021-.42l-.255.007s-.238-9.726-.238-12.81c0-1.554-.229-5.001-.229-5.036l4.711-.314c.01.148.241,3.639.241,5.351v.331c.864-1.105,1.849-2.14,2.966-3.082,2.64-2.054,5.751-3.151,8.84-3.151,3.597,0,7.001,1.102,9.109,2.946,2.525,2.21,4.062,5.244,4.565,9.02v-.002Z" fill="#ccc" stroke="#ccc" stroke-miterlimit="10" stroke-width="2"/>
      <path d="M723.876,235.365h-4.723v-1.181l-.038-4.444c-3.152,3.878-7.677,6.331-12.711,6.331-9.504,0-17.237-8.688-17.237-19.363s7.733-19.361,17.237-19.361c4.912,0,9.339,2.33,12.482,6.046l-.203-23.263,4.723-.042.472,55.274-.002.003ZM718.92,216.708c0-8.072-5.613-14.64-12.515-14.64s-12.515,6.567-12.515,14.64,5.616,14.641,12.515,14.641,12.515-6.566,12.515-14.641Z" fill="#ccc" stroke="#ccc" stroke-miterlimit="10" stroke-width="2"/>
      <path d="M821.368,198.029v16.293c0,3.232-.55,6.312-1.587,8.904-.984,2.718-2.519,5.152-4.534,7.169-1.523,1.785-3.473,3.188-5.684,4.038-2.177,1.071-4.401,1.612-6.614,1.612h-18.418v-59.977h18.418c2.441,0,4.718.543,6.958,1.665,2.316,1.159,4.177,2.583,5.698,4.354,1.506,1.5,2.874,3.776,4.177,7.037,1.075,2.951,1.584,5.842,1.584,8.904ZM816.645,198.029c0-2.536-.406-4.831-1.275-7.221-1.032-2.576-2.066-4.35-3.23-5.514-1.239-1.436-2.581-2.453-4.345-3.337-1.591-.796-3.131-1.166-4.845-1.166h-13.695v50.531h13.695c1.511,0,3.062-.395,4.612-1.169l.227-.099c1.525-.569,2.831-1.509,3.995-2.867,1.646-1.657,2.81-3.511,3.587-5.646.831-2.08,1.275-4.619,1.275-7.221v-16.293Z" fill="#ccc" stroke="#ccc" stroke-miterlimit="10" stroke-width="2"/>
      <path d="M862.626,230.16c0,1.556.231,5.004.231,5.039l-4.713.314c-.009-.149-.24-3.641-.24-5.354v-.33c-.864,1.104-1.847,2.14-2.966,3.082-2.636,2.054-5.75,3.151-8.839,3.151-3.599,0-7.003-1.103-9.112-2.947-2.524-2.209-4.059-5.244-4.564-9.02-.654-3.254-.362-6.064-.255-6.857v-19.429h4.722l-.033,19.986c-.002.016-.385,2.491.221,5.525.378,2.796,1.358,4.786,3.019,6.24,1.232,1.079,3.591,1.776,6.002,1.776,2.042,0,4.128-.746,5.868-2.102,3.602-3.031,5.465-7.189,5.465-12.303v-19.126h4.722v19.129c0,.142-.019.278-.021.42l.255-.007s.238,9.724.238,12.808v.002Z" fill="#ccc" stroke="#ccc" stroke-miterlimit="10" stroke-width="2"/>
      <path d="M916.458,209.811c.498,3.754.256,6.76.248,6.886l.007,19.402h-4.723v-19.599c.01-.217.215-2.843-.215-6.063-.395-2.959-1.122-4.974-2.286-6.331-.912-1.062-2.606-1.537-3.875-1.537s-2.729.713-3.639,1.773c-2.76,3.157-4.153,7.399-4.153,12.631v19.126h-4.958v-19.599c.011-.217.215-2.843-.215-6.063-.395-2.959-1.122-4.974-2.286-6.331-.911-1.062-2.607-1.537-3.875-1.537s-2.73.713-3.639,1.773c-2.76,3.154-4.153,7.397-4.153,12.631v19.126h-4.723v-19.126c0-.161.017-.314.017-.473h-.252v-12.593c-.229-1.809-.236-4.984-.236-5.354h4.722c0,.737.024,2.546.118,3.885.303-.404.607-.808.94-1.188,1.792-2.092,4.56-3.401,7.207-3.401,2.285,0,5.445.835,7.458,3.185.862,1.004,1.549,2.185,2.097,3.563.673-1.195,1.459-2.313,2.361-3.347,1.795-2.092,4.562-3.401,7.209-3.401,2.286,0,5.445.835,7.459,3.185,1.785,2.085,2.859,4.874,3.382,8.781l.002-.004Z" fill="#ccc" stroke="#ccc" stroke-miterlimit="10" stroke-width="2"/>
      <path d="M944.931,197.344c9.507,0,17.237,8.685,17.237,19.362s-7.732,19.362-17.237,19.362c-4.906,0-9.327-2.325-12.47-6.032l.192,20.888-4.723.044-.472-52.913h4.723v1.18l.04,4.442c3.155-3.88,7.676-6.33,12.71-6.33v-.003ZM957.446,216.708c0-8.072-5.615-14.64-12.515-14.64s-12.514,6.567-12.514,14.64,5.615,14.641,12.514,14.641,12.515-6.566,12.515-14.641Z" fill="#ccc" stroke="#ccc" stroke-miterlimit="10" stroke-width="2"/>
      <path d="M1058.185,212.669c1.025,2.03,1.519,4.028,1.519,5.936,0,5.087-1.865,9.264-5.549,12.418-3.44,3.179-7.792,4.819-12.869,4.819h-.472c-4.787,0-9.197-1.702-13.108-5.055-3.055-2.586-3.95-4.869-4.6-6.536-.097-.243-.187-.478-.283-.701l4.34-1.863c.116.269.227.55.342.843.545,1.396,1.11,2.838,3.266,4.661,3.086,2.649,6.369,3.93,10.045,3.93h.473c3.905,0,7.091-1.186,9.73-3.625,2.728-2.338,3.965-5.143,3.965-8.891,0-1.161-.331-2.465-.933-3.667-.517-.848-1.268-1.967-2.267-2.633-1.147-.906-2.621-1.757-4.106-2.392-.963-.413-2.047-.746-3.304-1.131-.697-.215-1.424-.439-2.179-.689l-6.945-1.85c-3.743-1.149-6.441-2.881-8.337-5.317-2.057-2.643-3.098-5.75-3.098-9.242,0-4.318,1.792-8.023,5.322-11.013,3.355-3.099,7.164-4.574,11.917-4.574h.47c4.774.276,8.76,1.913,11.986,4.869,2.451,2.177,3.934,4.781,4.505,7.932l-4.649.841c-.385-2.128-1.315-3.752-3.02-5.269-2.43-2.227-5.438-3.449-8.961-3.657l-.333.005c-3.54,0-6.253,1.046-8.789,3.389-2.534,2.148-3.729,4.571-3.729,7.476,0,2.418.708,4.55,2.102,6.342,1.299,1.67,3.178,2.839,5.915,3.682l6.999,1.865c.857.278,1.547.491,2.208.694,1.332.408,2.585.793,3.783,1.306,1.882.806,3.714,1.87,5.032,2.924,1.611,1.064,2.744,2.715,3.618,4.172l-.005.003Z" fill="#ccc" stroke="#ccc" stroke-miterlimit="10" stroke-width="2"/>
      <path d="M1103.202,217.644h-28.089c.269,8.593,5.428,13.695,13.922,13.695,4.25,0,7.277-.759,8.784-1.247,1.421-.701,2.189-.965,2.274-.994l.749,2.241.76,2.236c-.087.03-.697.255-1.83.821l-.307.127c-2.104.702-5.62,1.538-10.43,1.538-11.332,0-18.654-7.509-18.654-19.127,0-12.715,6.621-20.307,17.709-20.307,12.422,0,15.112,14.954,15.112,18.654v2.361ZM1098.196,212.921c-.78-4.14-3.372-11.57-10.107-11.57-8.753,0-11.868,5.637-12.718,11.57h22.825Z" fill="#ccc" stroke="#ccc" stroke-miterlimit="10" stroke-width="2"/>
      <path d="M1144.273,209.813c.654,3.257.363,6.066.257,6.857v19.431h-4.723l.034-19.986c.002-.016.385-2.491-.222-5.524-.378-2.796-1.355-4.789-3.018-6.244-1.235-1.079-3.592-1.775-6.002-1.775-2.042,0-4.128.746-5.871,2.102-3.601,3.034-5.463,7.192-5.463,12.302v19.127h-4.723v-19.127c0-.144.019-.277.021-.42l-.255.007s-.238-9.726-.238-12.81c0-1.554-.229-5.001-.229-5.036l4.711-.314c.01.148.241,3.639.241,5.351v.331c.864-1.105,1.849-2.14,2.966-3.082,2.64-2.054,5.751-3.151,8.84-3.151,3.597,0,7.001,1.102,9.109,2.946,2.525,2.21,4.062,5.244,4.565,9.02v-.002Z" fill="#ccc" stroke="#ccc" stroke-miterlimit="10" stroke-width="2"/>
      <path d="M1190.04,235.365h-4.723v-1.181l-.038-4.444c-3.152,3.878-7.677,6.331-12.711,6.331-9.504,0-17.237-8.688-17.237-19.363s7.733-19.361,17.237-19.361c4.912,0,9.339,2.33,12.482,6.046l-.203-23.263,4.723-.042.472,55.274-.002.003ZM1185.084,216.708c0-8.072-5.613-14.64-12.515-14.64s-12.515,6.567-12.515,14.64,5.616,14.641,12.515,14.641,12.515-6.566,12.515-14.641Z" fill="#ccc" stroke="#ccc" stroke-miterlimit="10" stroke-width="2"/>
      <path d="M1287.769,181.044v55.018h-4.724v-25.029h-27.627v25.029h-4.723v-55.018h4.723v25.266h27.627v-25.266h4.724Z" fill="#ccc" stroke="#ccc" stroke-miterlimit="10" stroke-width="2"/>
      <path d="M1333.366,216.206c0,10.938-7.839,19.836-17.474,19.836s-17.474-8.899-17.474-19.836,7.84-19.834,17.474-19.834,17.474,8.897,17.474,19.834ZM1328.643,216.206c0-8.332-5.719-15.111-12.751-15.111s-12.751,6.779-12.751,15.111,5.72,15.113,12.751,15.113,12.751-6.78,12.751-15.113Z" fill="#ccc" stroke="#ccc" stroke-miterlimit="10" stroke-width="2"/>
      <path d="M1344.01,236.091v-55.254h4.723v55.254h-4.723Z" fill="#ccc" stroke="#ccc" stroke-miterlimit="10" stroke-width="2"/>
      <path d="M1394.134,235.365h-4.723v-1.181l-.038-4.444c-3.151,3.878-7.677,6.331-12.71,6.331-9.504,0-17.238-8.688-17.238-19.363s7.734-19.361,17.238-19.361c4.911,0,9.339,2.33,12.481,6.046l-.203-23.263,4.723-.042.472,55.274-.002.003ZM1389.178,216.708c0-8.072-5.613-14.64-12.515-14.64s-12.516,6.567-12.516,14.64,5.615,14.641,12.516,14.641,12.515-6.566,12.515-14.641Z" fill="#ccc" stroke="#ccc" stroke-miterlimit="10" stroke-width="2"/>
      <path d="M1698.552,178.688v12.895l-37.143,44.721h-6.541v-57.615h4.723v52.41l34.239-41.224v-11.187h4.722Z" fill="#ccc" stroke="#ccc" stroke-miterlimit="10" stroke-width="2"/>
      <path d="M1721.04,203.26v22.195c0,1.861.435,3.587,1.107,4.393.791.923,2.866,1.511,4.324,1.511,1.422,0,2.939-.555,2.956-.56l.394-.148h1.136v4.245l.123.326c-.023.009-.066.023-.123.045v.105h-.316c-.776.251-2.434.709-4.172.709-2.588,0-6.045-.985-7.931-3.186-2.005-2.408-2.22-6.004-2.22-7.44v-22.195h-7.085v-4.724h7.085v-10.39h4.722v10.39h10.626v4.724h-10.626Z" fill="#ccc" stroke="#ccc" stroke-miterlimit="10" stroke-width="2"/>
      <path d="M1752.866,199.739c2.571-1.429,5.161-1.429,7.669-1.429v4.723c-2.164,0-3.874,0-5.466.883-1.354.678-2.26,1.854-3.396,3.674-2.463,4.191-4.126,7.818-4.126,11.736v16.765h-4.722v-29.988c0-.973-.279-4.942-.466-7.375l4.709-.36c.04.555.373,4.881.458,6.965.038-.061.071-.127.108-.188,1.299-2.078,2.741-4.158,5.23-5.402v-.002Z" fill="#ccc" stroke="#ccc" stroke-miterlimit="10" stroke-width="2"/>
    </g>
  </g>
</svg>