<?xml version="1.0" encoding="UTF-8"?>
<svg id="a" data-name="Layer_1" xmlns="http://www.w3.org/2000/svg" width="1080" height="1080" viewBox="0 0 1080 1080">
  <rect x="228.702" y="379.52" width="622.072" height="321.389" fill="#686868" stroke="#000" stroke-miterlimit="10" stroke-width="5"/>
  <path d="M283.617,392.123v61.274c0,8.918-7.229,16.147-16.147,16.147h-28.865v144.94h24.518c11.319,0,20.494,9.176,20.494,20.494v53.326h510.441v-61.962c0-7.047,5.712-12.759,12.759-12.759h27.752v-145.84h-29.066c-7.315,0-13.246-5.93-13.246-13.246v-64.176l-508.641,1.8Z" fill="#525252" stroke="#000" stroke-miterlimit="10" stroke-width="5"/>
  <circle cx="254.726" cy="442.951" r="17.296" fill="none" stroke="#000" stroke-miterlimit="10" stroke-width="2"/>
  <circle cx="254.726" cy="442.951" r="13.786" fill="#525252" stroke="#000" stroke-miterlimit="10" stroke-width="2"/>
  <rect x="252.109" y="429.034" width="4.501" height="28.808" transform="translate(-239.058 309.739) rotate(-45)" fill="#525252" stroke="#000" stroke-miterlimit="10" stroke-width="2"/>
  <circle cx="818.732" cy="442.295" r="17.296" fill="none" stroke="#000" stroke-miterlimit="10" stroke-width="2"/>
  <circle cx="818.732" cy="442.295" r="13.786" fill="#525252" stroke="#000" stroke-miterlimit="10" stroke-width="2"/>
  <rect x="816.115" y="428.378" width="4.501" height="28.808" transform="translate(-73.4 708.359) rotate(-45)" fill="#525252" stroke="#000" stroke-miterlimit="10" stroke-width="2"/>
  <circle cx="818.458" cy="640.193" r="17.296" fill="none" stroke="#000" stroke-miterlimit="10" stroke-width="2"/>
  <circle cx="818.458" cy="640.193" r="13.786" fill="#525252" stroke="#000" stroke-miterlimit="10" stroke-width="2"/>
  <rect x="815.841" y="626.276" width="4.501" height="28.808" transform="translate(-213.416 766.129) rotate(-45)" fill="#525252" stroke="#000" stroke-miterlimit="10" stroke-width="2"/>
  <circle cx="763.543" cy="653.697" r="17.296" fill="none" stroke="#000" stroke-miterlimit="10" stroke-width="2"/>
  <circle cx="763.543" cy="653.697" r="13.786" fill="#525252" stroke="#000" stroke-miterlimit="10" stroke-width="2"/>
  <rect x="760.925" y="639.78" width="4.501" height="28.808" transform="translate(-239.049 731.253) rotate(-45)" fill="#525252" stroke="#000" stroke-miterlimit="10" stroke-width="2"/>
  <circle cx="254.707" cy="640.076" r="17.296" fill="none" stroke="#000" stroke-miterlimit="10" stroke-width="2"/>
  <circle cx="254.707" cy="640.076" r="13.786" fill="#525252" stroke="#000" stroke-miterlimit="10" stroke-width="2"/>
  <rect x="252.089" y="626.159" width="4.501" height="28.808" transform="translate(-378.452 367.462) rotate(-45)" fill="#525252" stroke="#000" stroke-miterlimit="10" stroke-width="2"/>
  <circle cx="313.223" cy="654.48" r="17.296" fill="none" stroke="#000" stroke-miterlimit="10" stroke-width="2"/>
  <circle cx="313.223" cy="654.48" r="13.786" fill="#525252" stroke="#000" stroke-miterlimit="10" stroke-width="2"/>
  <rect x="310.605" y="640.563" width="4.501" height="28.808" transform="translate(-371.498 413.058) rotate(-45)" fill="#525252" stroke="#000" stroke-miterlimit="10" stroke-width="2"/>
  <rect x="682.428" y="528.061" width="75.621" height="72.02" fill="none" stroke="#000" stroke-miterlimit="10" stroke-width="4"/>
  <rect x="688.729" y="535.263" width="62.117" height="57.616" fill="#383838" stroke="#000" stroke-miterlimit="10" stroke-width="4"/>
  <g>
    <rect x="694.757" y="533.123" width="48.887" height="32.564" fill="none"/>
    <path d="M700.47,542.374h10.309v2.554h-10.309v-2.554ZM704.299,543.525h2.65v12.91h-2.65v-12.91Z" fill="#579924"/>
    <path d="M714.604,555.967c-.761-.409-1.341-1.006-1.741-1.789-.399-.783-.6-1.729-.6-2.839v-3.858c0-1.108.2-2.055.6-2.838.4-.784.98-1.382,1.741-1.794.761-.413,1.676-.619,2.746-.619.884,0,1.673.19,2.369.57.696.381,1.272.934,1.727,1.658.454.726.769,1.601.943,2.626h-2.747c-.104-.464-.263-.86-.479-1.189s-.478-.58-.783-.754c-.307-.175-.649-.262-1.03-.262-.496,0-.919.102-1.267.305-.349.203-.614.5-.798.89-.184.391-.275.859-.275,1.407v3.858c0,.548.092,1.016.275,1.402s.449.682.798.885c.348.203.771.305,1.267.305.387,0,.735-.085,1.045-.256s.57-.421.783-.75c.213-.328.367-.729.464-1.199h2.747c-.181,1.025-.498,1.9-.953,2.626-.454.726-1.028,1.278-1.722,1.658-.692.381-1.48.571-2.364.571-1.07,0-1.985-.205-2.746-.614Z" fill="#579924"/>
    <path d="M725.226,542.374h3.24l5.231,10.773-.231.252v-11.025h2.533v14.052h-3.259l-5.213-10.608.232-.252v10.86h-2.534v-14.052Z" fill="#579924"/>
  </g>
  <g>
    <rect x="695.012" y="562.273" width="48.887" height="32.564" fill="none"/>
    <path d="M705.438,571.524h2.65v14.062h-2.65v-14.062ZM706.396,571.524h8.462v2.554h-8.462v-2.554ZM706.396,577.327h7.397v2.553h-7.397v-2.553ZM706.396,583.033h8.462v2.553h-8.462v-2.553Z" fill="#579924"/>
    <path d="M727.889,577.724v2.746c0,1.045-.211,1.965-.634,2.762-.422.796-1.02,1.411-1.794,1.847-.773.436-1.67.653-2.688.653-1.024,0-1.929-.205-2.712-.614-.784-.409-1.39-.988-1.818-1.736s-.644-1.615-.644-2.602v-4.148c0-1.044.212-1.963.634-2.756s1.021-1.407,1.794-1.843c.773-.435,1.67-.652,2.688-.652.838,0,1.611.173,2.321.518.709.345,1.3.833,1.774,1.465.474.632.794,1.363.962,2.195h-2.862c-.097-.297-.257-.553-.479-.769-.223-.217-.483-.381-.783-.493-.3-.113-.611-.17-.934-.17-.471,0-.885.104-1.243.31-.357.207-.635.5-.831.88-.197.381-.295.819-.295,1.315v4.148c0,.438.1.825.3,1.161.199.335.483.593.851.773s.793.271,1.276.271c.478,0,.895-.098,1.253-.295.357-.196.633-.481.826-.855s.29-.815.29-1.325v-.232h-2.127v-2.553h4.874Z" fill="#579924"/>
    <path d="M733.666,585.586h-2.747v-14.062h2.747v14.062Z" fill="#579924"/>
  </g>
  <line x1="700.433" y1="564.071" x2="740.944" y2="564.071" fill="#383838" stroke="#579924" stroke-miterlimit="10" stroke-width="4"/>
  <g>
    <rect x="679.276" y="464.352" width="72.471" height="52.006" fill="none"/>
    <path d="M682.74,470.582h10.777v2.669h-10.777v-2.669ZM686.744,471.785h2.77v13.497h-2.77v-13.497Z" fill="#fff"/>
    <path d="M699.072,470.582h1.76l5.621,14.7h-2.982l-3.519-10.04-3.519,10.04h-2.982l5.621-14.7ZM696.15,480.257h7.734v2.669h-7.734v-2.669Z" fill="#fff"/>
    <path d="M710.25,484.792c-.795-.428-1.401-1.052-1.819-1.871s-.627-1.808-.627-2.967v-4.034c0-1.159.209-2.148.627-2.967.418-.819,1.024-1.444,1.819-1.875.796-.431,1.753-.647,2.871-.647.924,0,1.75.199,2.478.597.728.398,1.329.976,1.805,1.734.475.758.804,1.673.985,2.745h-2.871c-.107-.485-.274-.9-.5-1.244-.227-.344-.499-.607-.819-.789-.32-.182-.679-.273-1.077-.273-.519,0-.96.106-1.324.318-.363.212-.642.522-.834.93s-.288.898-.288,1.471v4.034c0,.573.096,1.062.288,1.466.192.405.471.713.834.925.364.212.806.318,1.324.318.405,0,.769-.089,1.093-.268.323-.179.596-.44.818-.784s.385-.762.485-1.254h2.871c-.188,1.072-.521,1.987-.995,2.745-.476.758-1.075,1.336-1.8,1.734-.725.398-1.549.597-2.473.597-1.118,0-2.075-.214-2.871-.642Z" fill="#fff"/>
    <path d="M725.157,470.582h1.76l5.621,14.7h-2.982l-3.519-10.04-3.519,10.04h-2.982l5.621-14.7ZM722.235,480.257h7.734v2.669h-7.734v-2.669Z" fill="#fff"/>
    <path d="M734.999,470.582h3.388l5.47,11.263-.243.263v-11.525h2.649v14.69h-3.407l-5.45-11.091.243-.263v11.354h-2.649v-14.69Z" fill="#fff"/>
    <path d="M697.465,509.639c-.795-.428-1.401-1.052-1.819-1.871s-.627-1.808-.627-2.967v-4.034c0-1.159.209-2.148.627-2.967.418-.819,1.024-1.444,1.819-1.875.796-.431,1.753-.647,2.871-.647.924,0,1.75.199,2.478.597.728.398,1.329.976,1.805,1.734.475.758.804,1.673.985,2.745h-2.871c-.107-.485-.274-.9-.5-1.244-.227-.344-.499-.607-.819-.789-.32-.182-.679-.273-1.077-.273-.519,0-.96.106-1.324.318-.363.212-.642.522-.834.93s-.288.898-.288,1.471v4.034c0,.573.096,1.062.288,1.466.192.405.471.713.834.925.364.212.806.318,1.324.318.405,0,.769-.089,1.093-.268.323-.179.596-.44.818-.784s.385-.762.485-1.254h2.871c-.188,1.072-.521,1.987-.995,2.745-.476.758-1.075,1.336-1.8,1.734-.725.398-1.549.597-2.473.597-1.118,0-2.075-.214-2.871-.642Z" fill="#fff"/>
    <path d="M717.821,495.429h3.65v14.7h-2.518v-11.415l.101.647-2.811,9.13h-2.446l-2.811-8.927.101-.85v11.415h-2.518v-14.7h3.65l2.801,9.908,2.8-9.908Z" fill="#fff"/>
    <path d="M725.349,495.429h2.771v14.7h-2.771v-14.7ZM726.744,507.46h3.528c.91,0,1.614-.219,2.113-.657s.748-1.058.748-1.86v-4.327c0-.802-.249-1.422-.748-1.86-.499-.438-1.203-.657-2.113-.657h-3.528v-2.669h3.468c1.227,0,2.273.206,3.14.617s1.524,1.011,1.977,1.8c.451.789.677,1.739.677,2.851v4.165c0,1.059-.217,1.982-.651,2.771-.436.789-1.087,1.402-1.957,1.84-.869.438-1.935.657-3.194.657h-3.458v-2.669Z" fill="#fff"/>
  </g>
  <g>
    <rect x="470.511" y="397.262" width="152.501" height="52.006" fill="none"/>
    <path d="M483.785,415.916h2.851l3.124,9.807,3.124-9.807h2.851l-4.893,14.7h-2.164l-4.894-14.7Z" fill="#fff"/>
    <path d="M498.248,433.406h-2.628l6.572-19.23h2.628l-6.572,19.23Z" fill="#fff"/>
    <path d="M509.081,430.125c-.802-.428-1.412-1.052-1.83-1.871-.418-.819-.627-1.805-.627-2.957v-9.382h2.77v9.453c0,.842.226,1.496.677,1.961.452.465,1.089.697,1.911.697.829,0,1.471-.232,1.926-.697.455-.465.683-1.119.683-1.961v-9.453h2.77v9.382c0,1.152-.21,2.138-.632,2.957s-1.035,1.442-1.84,1.871c-.806.428-1.774.642-2.907.642s-2.1-.214-2.902-.642Z" fill="#fff"/>
    <path d="M520.834,415.916h2.77v14.7h-2.77v-14.7ZM522.118,421.992h8.563v2.669h-8.563v-2.669ZM528.882,415.916h2.77v14.7h-2.77v-14.7Z" fill="#fff"/>
    <path d="M535.529,415.916h2.77v14.7h-2.77v-14.7ZM536.54,415.916h8.644v2.669h-8.644v-2.669ZM536.54,422.113h7.533v2.669h-7.533v-2.669Z" fill="#fff"/>
    <path d="M553.424,428.119l5.045-6.632c.229-.297.406-.602.531-.915.124-.313.187-.605.187-.875v-.021c0-.397-.128-.704-.384-.92-.257-.215-.62-.323-1.092-.323-.459,0-.829.15-1.112.45s-.455.727-.516,1.279v.01h-2.841v-.01c.061-.917.281-1.705.662-2.366s.895-1.164,1.542-1.511c.646-.347,1.395-.521,2.244-.521.917,0,1.7.15,2.351.45s1.146.736,1.486,1.309c.34.573.511,1.264.511,2.073v.01c0,.667-.116,1.33-.349,1.987-.233.657-.559,1.252-.976,1.785l-3.62,4.57h5.025v2.669h-8.695v-2.497Z" fill="#fff"/>
    <path d="M575.695,415.916h1.76l5.621,14.7h-2.982l-3.519-10.04-3.519,10.04h-2.982l5.621-14.7ZM572.773,425.591h7.734v2.669h-7.734v-2.669Z" fill="#fff"/>
    <path d="M585.538,415.916h3.388l5.47,11.263-.243.263v-11.525h2.649v14.69h-3.407l-5.45-11.091.243-.263v11.354h-2.649v-14.69Z" fill="#fff"/>
    <path d="M599.465,415.916h10.777v2.669h-10.777v-2.669ZM603.469,417.119h2.77v13.497h-2.77v-13.497Z" fill="#fff"/>
  </g>
  <g>
    <rect x="526.548" y="444.474" width="152.501" height="52.006" fill="none"/>
    <path d="M586.253,477.337c-.802-.428-1.412-1.052-1.83-1.871s-.627-1.805-.627-2.957v-9.382h2.771v9.453c0,.842.226,1.496.678,1.961.451.465,1.088.697,1.91.697.829,0,1.472-.232,1.927-.697.455-.465.682-1.119.682-1.961v-9.453h2.771v9.382c0,1.152-.211,2.138-.632,2.957s-1.034,1.442-1.84,1.871-1.774.642-2.907.642-2.1-.214-2.901-.642Z" fill="#fff"/>
    <path d="M598.006,463.127h2.771v14.7h-2.771v-14.7ZM599.271,469.457h4.701c.33,0,.621-.076.874-.228.253-.152.45-.366.592-.642s.212-.593.212-.95c0-.364-.069-.686-.207-.966-.139-.279-.334-.495-.586-.647-.253-.152-.548-.228-.885-.228h-4.701v-2.669h4.63c.917,0,1.724.187,2.422.561.697.374,1.238.901,1.622,1.582.385.681.576,1.47.576,2.366s-.191,1.683-.576,2.36c-.384.678-.925,1.202-1.622,1.572-.698.371-1.505.556-2.422.556h-4.63v-2.669Z" fill="#fff"/>
    <path d="M611.337,463.117h2.771v14.71h-2.771v-14.71ZM612.439,469.244h5.115c.283,0,.533-.071.749-.212.215-.142.382-.344.5-.606.118-.263.181-.566.188-.91,0-.344-.06-.647-.178-.91-.117-.263-.284-.465-.5-.607s-.469-.212-.759-.212h-5.115v-2.669h5.338c.809,0,1.521.182,2.134.546.613.364,1.088.878,1.425,1.542s.506,1.434.506,2.31-.169,1.646-.506,2.31c-.337.664-.813,1.178-1.43,1.542-.617.364-1.326.546-2.129.546h-5.338v-2.669ZM615.533,471.458l2.962-.465,3.964,6.834h-3.357l-3.568-6.37Z" fill="#fff"/>
  </g>
  <g>
    <rect x="528.34" y="501.19" width="152.501" height="52.006" fill="none"/>
    <path d="M584.42,519.843h2.771v14.7h-2.771v-14.7ZM585.654,531.875h8.613v2.669h-8.613v-2.669Z" fill="#fff"/>
    <path d="M602.259,519.843h2.225l2.811,9.807,1.891-9.807h2.851l-3.387,14.7h-2.608l-2.608-10.272-2.729,10.272h-2.608l-3.387-14.7h2.851l1.891,9.807,2.811-9.807Z" fill="#fff"/>
    <path d="M614.498,519.833h2.771v14.71h-2.771v-14.71ZM615.601,525.96h5.115c.283,0,.533-.071.749-.212.215-.142.382-.344.5-.606.118-.263.181-.566.188-.91,0-.344-.06-.647-.178-.91-.117-.263-.284-.465-.5-.607s-.469-.212-.759-.212h-5.115v-2.669h5.338c.809,0,1.521.182,2.134.546.613.364,1.088.878,1.425,1.542s.506,1.434.506,2.31-.169,1.646-.506,2.31c-.337.664-.813,1.178-1.43,1.542-.617.364-1.326.546-2.129.546h-5.338v-2.669ZM618.694,528.174l2.962-.465,3.964,6.834h-3.357l-3.568-6.37Z" fill="#fff"/>
  </g>
  <g>
    <rect x="471.507" y="538.746" width="152.501" height="52.006" fill="none"/>
    <path d="M495.867,571.609c-.802-.428-1.412-1.052-1.83-1.87-.418-.819-.627-1.805-.627-2.958v-9.382h2.77v9.453c0,.843.226,1.496.677,1.961.452.466,1.089.698,1.911.698.829,0,1.471-.232,1.926-.698.455-.465.683-1.118.683-1.961v-9.453h2.77v9.382c0,1.153-.21,2.139-.632,2.958-.421.818-1.035,1.442-1.84,1.87-.806.428-1.774.642-2.907.642s-2.1-.214-2.902-.642Z" fill="#fff"/>
    <path d="M507.621,557.399h2.77v14.7h-2.77v-14.7ZM508.905,563.476h8.563v2.669h-8.563v-2.669ZM515.668,557.399h2.77v14.7h-2.77v-14.7Z" fill="#fff"/>
    <path d="M522.315,557.399h2.77v14.7h-2.77v-14.7ZM523.326,557.399h8.645v2.669h-8.645v-2.669ZM523.326,563.597h7.532v2.669h-7.532v-2.669Z" fill="#fff"/>
    <path d="M550.588,572.1h-2.771v-11.444l-1.789.677v-2.941l2.193-.991h2.366v14.7Z" fill="#fff"/>
    <path d="M565.354,557.399h2.851l3.124,9.807,3.124-9.807h2.852l-4.894,14.7h-2.164l-4.893-14.7Z" fill="#fff"/>
    <path d="M581.712,571.579c-.812-.448-1.44-1.082-1.886-1.901-.444-.818-.667-1.767-.667-2.846v-4.165c0-1.078.223-2.027.667-2.847.445-.818,1.073-1.452,1.886-1.9s1.751-.672,2.815-.672,2.004.224,2.816.672c.812.448,1.44,1.082,1.885,1.9.445.819.668,1.769.668,2.847v4.165c0,1.079-.223,2.027-.668,2.846-.444.819-1.073,1.453-1.885,1.901-.812.448-1.751.672-2.816.672s-2.003-.224-2.815-.672ZM585.842,569.162c.378-.212.669-.514.875-.904.205-.391.308-.843.308-1.354v-4.308c0-.512-.103-.964-.308-1.354-.206-.391-.497-.692-.875-.905-.378-.212-.815-.318-1.314-.318s-.937.106-1.314.318c-.377.213-.669.515-.874.905-.206.391-.309.843-.309,1.354v4.308c0,.512.103.964.309,1.354.205.391.497.692.874.904.378.213.815.319,1.314.319s.937-.106,1.314-.319Z" fill="#fff"/>
    <path d="M593.267,557.399h2.771v14.7h-2.771v-14.7ZM594.501,569.431h8.613v2.669h-8.613v-2.669Z" fill="#fff"/>
  </g>
  <g>
    <rect x="296.506" y="538.452" width="152.501" height="52.006" fill="none"/>
    <path d="M330.087,557.105h2.77v14.7h-2.77v-14.7ZM331.755,566.063l5.895-8.958h3.488l-9.028,12.557-.354-3.599ZM334.202,564.364l2.386-1.506,5.166,8.947h-3.286l-4.267-7.441Z" fill="#fff"/>
    <path d="M349.392,566.134v5.672h-2.77v-5.672l-4.327-9.028h2.901l2.811,6.329,2.811-6.329h2.901l-4.327,9.028Z" fill="#fff"/>
    <path d="M370.927,557.105h3.649v14.7h-2.517v-11.414l.101.646-2.811,9.13h-2.447l-2.811-8.928.101-.849v11.414h-2.518v-14.7h3.65l2.8,9.908,2.801-9.908Z" fill="#fff"/>
    <path d="M380.703,571.285c-.812-.448-1.441-1.082-1.886-1.901-.445-.818-.667-1.767-.667-2.846v-4.165c0-1.078.222-2.027.667-2.847.445-.818,1.073-1.452,1.886-1.9.812-.448,1.75-.672,2.815-.672s2.003.224,2.816.672c.812.448,1.441,1.082,1.886,1.9.445.819.667,1.769.667,2.847v4.165c0,1.079-.222,2.027-.667,2.846-.445.819-1.074,1.453-1.886,1.901-.812.448-1.751.672-2.816.672s-2.003-.224-2.815-.672ZM384.833,568.868c.377-.212.669-.514.875-.904s.309-.843.309-1.354v-4.308c0-.512-.103-.964-.309-1.354s-.497-.692-.875-.905c-.377-.212-.815-.318-1.314-.318s-.937.106-1.314.318c-.377.213-.669.515-.875.905-.206.391-.309.843-.309,1.354v4.308c0,.512.103.964.309,1.354.206.391.497.692.875.904.377.213.815.319,1.314.319s.937-.106,1.314-.319Z" fill="#fff"/>
    <path d="M392.259,557.105h2.77v14.7h-2.77v-14.7ZM393.654,569.137h3.529c.91,0,1.614-.219,2.113-.657.499-.438.748-1.059.748-1.86v-4.327c0-.802-.25-1.422-.748-1.86-.499-.438-1.203-.657-2.113-.657h-3.529v-2.669h3.468c1.227,0,2.273.206,3.139.616.866.412,1.525,1.012,1.977,1.8.452.789.678,1.739.678,2.852v4.165c0,1.059-.217,1.981-.652,2.771-.435.788-1.087,1.401-1.956,1.84-.87.438-1.935.657-3.195.657h-3.458v-2.669Z" fill="#fff"/>
    <path d="M406.286,557.105h2.77v14.7h-2.77v-14.7ZM407.287,557.105h8.846v2.669h-8.846v-2.669ZM407.287,563.172h7.734v2.669h-7.734v-2.669ZM407.287,569.137h8.846v2.669h-8.846v-2.669Z" fill="#fff"/>
  </g>
  <g>
    <rect x="299.216" y="397.113" width="152.501" height="52.006" fill="none"/>
    <path d="M356.159,408.994l3.306-5.651h2.922l-4.863,8.311-3.741,6.39h-2.922l5.298-9.049ZM356.128,412.027l-.283-.475-4.863-8.209h2.922l3.296,5.571.384.657,5.025,8.472h-2.922l-3.559-6.016Z" fill="#fff"/>
    <path d="M374.322,403.343h3.649v14.7h-2.517v-11.415l.101.647-2.811,9.13h-2.447l-2.811-8.927.101-.85v11.415h-2.518v-14.7h3.65l2.8,9.908,2.801-9.908Z" fill="#fff"/>
    <path d="M384.517,418.043h-2.871v-14.7h2.871v14.7Z" fill="#fff"/>
    <path d="M388.192,403.333h2.77v14.71h-2.77v-14.71ZM389.294,409.459h5.116c.283,0,.532-.071.748-.212s.382-.344.5-.606c.118-.263.18-.566.187-.91,0-.344-.059-.647-.177-.91-.118-.263-.285-.465-.5-.607-.216-.142-.469-.212-.758-.212h-5.116v-2.669h5.338c.809,0,1.52.182,2.133.546.613.364,1.088.878,1.426,1.542.337.664.505,1.434.505,2.31s-.168,1.646-.505,2.31c-.337.664-.814,1.178-1.431,1.542s-1.326.546-2.128.546h-5.338v-2.669ZM392.388,411.673l2.962-.465,3.963,6.834h-3.356l-3.569-6.37Z" fill="#fff"/>
    <path d="M360.609,442.829c-.671-.142-1.301-.349-1.891-.622s-1.117-.602-1.583-.985l1.284-2.285c.566.465,1.22.824,1.961,1.077.741.253,1.503.379,2.285.379.903,0,1.604-.153,2.103-.46.499-.307.748-.74.748-1.299v-.01c0-.391-.111-.701-.333-.93-.222-.229-.512-.397-.87-.505-.357-.108-.815-.206-1.375-.293-.02-.007-.039-.01-.055-.01-.017,0-.036-.003-.056-.01l-.223-.03c-.984-.155-1.799-.349-2.447-.582-.647-.232-1.196-.64-1.648-1.223s-.677-1.41-.677-2.482v-.01c0-.95.212-1.763.637-2.437.424-.674,1.041-1.188,1.85-1.542.809-.354,1.786-.531,2.932-.531.526,0,1.063.061,1.613.182s1.087.297,1.612.526c.526.229,1.025.505,1.497.829l-1.173,2.345c-.566-.391-1.158-.694-1.774-.91s-1.208-.324-1.774-.324c-.849,0-1.506.14-1.971.419-.465.28-.698.672-.698,1.178v.01c0,.425.122.76.364,1.006.243.246.542.426.9.541.357.115.859.236,1.506.364.027.007.054.012.081.015s.054.008.081.015c.041.007.079.015.116.025.037.01.076.019.116.025.93.182,1.707.403,2.331.663.623.259,1.144.677,1.562,1.253.417.576.626,1.363.626,2.361v.02c0,.937-.219,1.739-.657,2.406-.438.667-1.077,1.176-1.916,1.527-.839.351-1.849.526-3.028.526-.701,0-1.387-.071-2.057-.212Z" fill="#fff"/>
    <path d="M371.235,428.189h2.77v14.7h-2.77v-14.7ZM372.236,428.189h8.846v2.669h-8.846v-2.669ZM372.236,434.255h7.734v2.669h-7.734v-2.669ZM372.236,440.221h8.846v2.669h-8.846v-2.669Z" fill="#fff"/>
    <path d="M384.252,428.189h2.77v14.7h-2.77v-14.7ZM385.485,440.221h8.614v2.669h-8.614v-2.669Z" fill="#fff"/>
  </g>
  <g>
    <rect x="412.638" y="453.43" width="152.501" height="89.035" fill="none"/>
    <path d="M416.511,475.999c-.802-.428-1.412-1.052-1.83-1.871-.418-.819-.627-1.805-.627-2.957v-9.382h2.77v9.453c0,.842.226,1.496.677,1.961.452.465,1.089.697,1.911.697.829,0,1.471-.232,1.926-.697.455-.465.683-1.119.683-1.961v-9.453h2.77v9.382c0,1.152-.21,2.138-.632,2.957s-1.035,1.442-1.84,1.871c-.806.428-1.774.642-2.907.642s-2.1-.214-2.902-.642Z" fill="#fff"/>
    <path d="M428.264,461.789h2.77v14.7h-2.77v-14.7ZM429.548,467.865h8.563v2.669h-8.563v-2.669ZM436.312,461.789h2.77v14.7h-2.77v-14.7Z" fill="#fff"/>
    <path d="M442.959,461.789h2.77v14.7h-2.77v-14.7ZM443.97,461.789h8.645v2.669h-8.645v-2.669ZM443.97,467.986h7.532v2.669h-7.532v-2.669Z" fill="#fff"/>
    <path d="M465.029,476.489h-2.771v-11.445l-1.79.677v-2.942l2.194-.991h2.366v14.7Z" fill="#fff"/>
    <path d="M414.256,490.597h2.77v14.7h-2.77v-14.7ZM415.47,502.628h4.691c.633,0,1.124-.153,1.471-.46s.521-.736.521-1.289v-.031c0-.371-.078-.688-.232-.95-.155-.263-.383-.463-.683-.602s-.659-.207-1.077-.207h-4.691v-2.669h4.691c.573,0,1.016-.145,1.33-.435.313-.29.47-.698.47-1.223,0-.472-.157-.839-.47-1.102-.313-.263-.757-.395-1.33-.395h-4.691v-2.669h4.782c.951,0,1.763.157,2.437.47.674.313,1.187.768,1.537,1.365.35.597.525,1.312.525,2.148,0,.573-.113,1.08-.338,1.521-.226.441-.555.804-.986,1.087-.432.283-.95.475-1.557.576.647.088,1.202.285,1.663.592.462.307.812.706,1.052,1.198.239.492.359,1.062.359,1.708v.031c0,.842-.177,1.563-.531,2.164-.354.6-.87,1.056-1.547,1.37s-1.491.47-2.442.47h-4.954v-2.669Z" fill="#fff"/>
    <path d="M430.21,504.777c-.812-.448-1.441-1.082-1.886-1.901s-.667-1.768-.667-2.846v-4.165c0-1.079.222-2.027.667-2.846s1.073-1.453,1.886-1.901c.812-.448,1.75-.672,2.815-.672s2.003.224,2.816.672c.812.448,1.441,1.082,1.886,1.901s.667,1.768.667,2.846v4.165c0,1.079-.222,2.027-.667,2.846s-1.074,1.453-1.886,1.901c-.812.448-1.751.672-2.816.672s-2.003-.224-2.815-.672ZM434.34,502.36c.377-.212.669-.514.875-.905s.309-.843.309-1.355v-4.307c0-.512-.103-.964-.309-1.355-.206-.391-.497-.692-.875-.905s-.815-.318-1.314-.318-.937.106-1.314.318-.669.514-.875.905c-.206.391-.309.843-.309,1.355v4.307c0,.512.103.964.309,1.355.206.391.497.692.875.905s.815.318,1.314.318.937-.106,1.314-.318Z" fill="#fff"/>
    <path d="M439.946,490.597h10.777v2.669h-10.777v-2.669ZM443.95,491.8h2.771v13.497h-2.771v-13.497Z" fill="#fff"/>
    <path d="M452.983,490.597h2.77v14.7h-2.77v-14.7ZM454.268,496.673h8.563v2.669h-8.563v-2.669ZM461.031,490.597h2.77v14.7h-2.77v-14.7Z" fill="#fff"/>
    <path d="M412.74,519.405h2.851l3.124,9.807,3.124-9.807h2.851l-4.893,14.7h-2.164l-4.894-14.7Z" fill="#fff"/>
    <path d="M427.202,536.896h-2.628l6.572-19.23h2.628l-6.572,19.23Z" fill="#fff"/>
    <path d="M438.035,533.615c-.802-.428-1.412-1.052-1.83-1.871-.418-.819-.627-1.805-.627-2.957v-9.382h2.77v9.453c0,.842.226,1.496.677,1.961.452.465,1.089.697,1.911.697.829,0,1.471-.232,1.926-.697.455-.465.683-1.119.683-1.961v-9.453h2.77v9.382c0,1.152-.21,2.138-.632,2.957s-1.035,1.442-1.84,1.871c-.806.428-1.774.642-2.907.642s-2.1-.214-2.902-.642Z" fill="#fff"/>
    <path d="M449.789,519.405h2.77v14.7h-2.77v-14.7ZM451.073,525.481h8.563v2.669h-8.563v-2.669ZM457.836,519.405h2.77v14.7h-2.77v-14.7Z" fill="#fff"/>
    <path d="M464.483,519.405h2.77v14.7h-2.77v-14.7ZM465.494,519.405h8.645v2.669h-8.645v-2.669ZM465.494,525.603h7.532v2.669h-7.532v-2.669Z" fill="#fff"/>
    <path d="M482.378,531.608l5.045-6.632c.229-.297.406-.602.531-.915.125-.313.187-.605.187-.875v-.021c0-.397-.128-.704-.384-.92-.256-.215-.621-.323-1.092-.323-.458,0-.829.15-1.112.45s-.455.727-.516,1.279v.01h-2.841v-.01c.061-.917.281-1.705.662-2.366.38-.661.895-1.164,1.542-1.511.647-.347,1.396-.521,2.245-.521.917,0,1.7.15,2.351.45s1.146.736,1.486,1.309c.34.573.51,1.264.51,2.073v.01c0,.667-.116,1.33-.349,1.987s-.558,1.252-.976,1.785l-3.62,4.57h5.025v2.669h-8.695v-2.497Z" fill="#fff"/>
  </g>
  <g>
    <rect x="414.439" y="561.378" width="152.501" height="118.825" fill="none"/>
    <path d="M416.057,584.633h2.77v14.7h-2.77v-14.7ZM417.27,596.664h4.691c.633,0,1.124-.153,1.471-.46s.521-.736.521-1.289v-.03c0-.371-.078-.688-.232-.95-.155-.264-.383-.464-.683-.602-.3-.139-.659-.208-1.077-.208h-4.691v-2.669h4.691c.573,0,1.016-.145,1.33-.435s.47-.697.47-1.224c0-.472-.157-.839-.47-1.102s-.757-.395-1.33-.395h-4.691v-2.669h4.782c.951,0,1.763.156,2.437.47.674.313,1.187.769,1.537,1.365.35.597.525,1.312.525,2.148,0,.573-.113,1.08-.338,1.521-.226.441-.555.804-.986,1.087-.432.283-.95.476-1.557.576.647.088,1.202.285,1.663.592.462.307.812.706,1.052,1.198.239.491.359,1.062.359,1.708v.03c0,.843-.177,1.564-.531,2.164s-.87,1.057-1.547,1.37-1.491.47-2.442.47h-4.954v-2.669Z" fill="#fff"/>
    <path d="M430.064,584.633h2.77v14.7h-2.77v-14.7ZM431.278,596.664h4.691c.633,0,1.124-.153,1.471-.46s.521-.736.521-1.289v-.03c0-.371-.078-.688-.232-.95-.155-.264-.383-.464-.683-.602-.3-.139-.659-.208-1.077-.208h-4.691v-2.669h4.691c.573,0,1.016-.145,1.33-.435s.47-.697.47-1.224c0-.472-.157-.839-.47-1.102s-.757-.395-1.33-.395h-4.691v-2.669h4.782c.951,0,1.763.156,2.437.47.674.313,1.187.769,1.537,1.365.35.597.525,1.312.525,2.148,0,.573-.113,1.08-.338,1.521-.226.441-.555.804-.986,1.087-.432.283-.95.476-1.557.576.647.088,1.202.285,1.663.592.462.307.812.706,1.052,1.198.239.491.359,1.062.359,1.708v.03c0,.843-.177,1.564-.531,2.164s-.87,1.057-1.547,1.37-1.491.47-2.442.47h-4.954v-2.669Z" fill="#fff"/>
    <path d="M420.262,613.441h1.759l5.622,14.7h-2.983l-3.518-10.039-3.519,10.039h-2.982l5.621-14.7ZM417.341,623.117h7.734v2.669h-7.734v-2.669Z" fill="#fff"/>
    <path d="M431.551,627.651c-.802-.428-1.412-1.052-1.83-1.87-.418-.819-.627-1.805-.627-2.958v-9.382h2.77v9.453c0,.843.226,1.496.677,1.961.452.466,1.089.698,1.911.698.829,0,1.471-.232,1.926-.698.455-.465.683-1.118.683-1.961v-9.453h2.77v9.382c0,1.153-.21,2.139-.632,2.958-.421.818-1.035,1.442-1.84,1.87-.806.428-1.774.642-2.907.642s-2.1-.214-2.902-.642Z" fill="#fff"/>
    <path d="M441.484,613.441h10.777v2.669h-10.777v-2.669ZM445.487,614.645h2.771v13.497h-2.771v-13.497Z" fill="#fff"/>
    <path d="M456.366,627.621c-.812-.448-1.441-1.082-1.886-1.901-.445-.818-.667-1.767-.667-2.846v-4.165c0-1.078.222-2.027.667-2.847.445-.818,1.073-1.452,1.886-1.9.812-.448,1.75-.672,2.815-.672s2.003.224,2.816.672c.812.448,1.441,1.082,1.886,1.9.445.819.667,1.769.667,2.847v4.165c0,1.079-.222,2.027-.667,2.846-.445.819-1.074,1.453-1.886,1.901-.812.448-1.751.672-2.816.672s-2.003-.224-2.815-.672ZM460.496,625.204c.377-.212.669-.514.875-.904s.309-.843.309-1.354v-4.308c0-.512-.103-.964-.309-1.354s-.497-.692-.875-.905c-.377-.212-.815-.318-1.314-.318s-.937.106-1.314.318c-.377.213-.669.515-.875.905-.206.391-.309.843-.309,1.354v4.308c0,.512.103.964.309,1.354.206.391.497.692.875.904.377.213.815.319,1.314.319s.937-.106,1.314-.319Z" fill="#fff"/>
    <path d="M416.057,642.249h2.77v14.7h-2.77v-14.7ZM417.452,654.28h3.529c.91,0,1.614-.219,2.113-.657.499-.438.748-1.059.748-1.86v-4.327c0-.802-.25-1.422-.748-1.86-.499-.438-1.203-.657-2.113-.657h-3.529v-2.669h3.468c1.227,0,2.273.206,3.139.616.866.412,1.525,1.012,1.977,1.8.452.789.678,1.739.678,2.852v4.165c0,1.059-.217,1.981-.652,2.771-.435.788-1.087,1.401-1.956,1.84-.87.438-1.935.657-3.195.657h-3.458v-2.669Z" fill="#fff"/>
    <path d="M430.084,642.249h2.77v14.7h-2.77v-14.7ZM431.348,648.578h4.701c.33,0,.622-.076.875-.228.253-.151.45-.365.592-.643.142-.275.212-.593.212-.95,0-.363-.069-.686-.207-.965-.138-.28-.333-.496-.586-.647s-.548-.228-.885-.228h-4.701v-2.669h4.63c.917,0,1.724.187,2.421.562.698.374,1.239.901,1.623,1.582.384.681.576,1.469.576,2.365s-.192,1.684-.576,2.361c-.384.677-.925,1.201-1.623,1.572-.697.37-1.505.556-2.421.556h-4.63v-2.669Z" fill="#fff"/>
  </g>
  <circle cx="375.443" cy="501.954" r="31.059" fill="#aaa" stroke="#000" stroke-miterlimit="10" stroke-width="3"/>
  <circle cx="375.893" cy="501.504" r="24.307" fill="#aaa" stroke="#000" stroke-miterlimit="10" stroke-width="3"/>
  <rect x="357.888" y="447.489" width="36.01" height="34.209" fill="#aaa" stroke="#000" stroke-miterlimit="10" stroke-width="3"/>
  <path d="M393.898,481.698h-36.01l5.43,21.72c.298,6.946,6.006,12.49,13.025,12.49,7.209,0,13.054-5.844,13.054-13.054,0-.041-.006-.08-.006-.121l4.507-21.035Z" fill="#aaa" stroke="#000" stroke-miterlimit="10" stroke-width="3"/>
  <circle cx="376.221" cy="626.435" r="31.059" fill="#aaa" stroke="#000" stroke-miterlimit="10" stroke-width="3"/>
  <circle cx="376.671" cy="625.985" r="24.307" fill="#aaa" stroke="#000" stroke-miterlimit="10" stroke-width="3"/>
  <path d="M393.898,600.531l-35.11.9,5.308,26.468c.298,6.946,6.006,12.49,13.025,12.49,7.209,0,13.054-5.844,13.054-13.054,0-.041-.006-.08-.006-.121l3.729-26.683Z" fill="#aaa" stroke="#000" stroke-miterlimit="10" stroke-width="3"/>
  <circle cx="376.343" cy="598.28" r="17.555" fill="#aaa" stroke="#000" stroke-miterlimit="10" stroke-width="3"/>
  <circle cx="546.192" cy="504.36" r="31.059" fill="#aaa" stroke="#000" stroke-miterlimit="10" stroke-width="3"/>
  <circle cx="546.642" cy="503.91" r="24.307" fill="#aaa" stroke="#000" stroke-miterlimit="10" stroke-width="3"/>
  <path d="M563.869,478.455l-35.11.9,5.308,26.468c.298,6.946,6.006,12.49,13.025,12.49,7.209,0,13.054-5.844,13.054-13.054,0-.041-.006-.08-.006-.121l3.729-26.683Z" fill="#aaa" stroke="#000" stroke-miterlimit="10" stroke-width="3"/>
  <circle cx="546.314" cy="476.205" r="17.555" fill="#aaa" stroke="#000" stroke-miterlimit="10" stroke-width="3"/>
  <circle cx="545.59" cy="623.487" r="30.158" fill="#aaa" stroke="#000" stroke-miterlimit="10" stroke-width="3"/>
  <line x1="517.232" y1="623.037" x2="537.938" y2="623.037" fill="none" stroke="#fff" stroke-miterlimit="10" stroke-width="8"/>
</svg>