<?xml version="1.0" encoding="UTF-8"?>
<svg id="a" data-name="Layer_1" xmlns="http://www.w3.org/2000/svg" width="1880.807" height="1079.87" viewBox="0 0 1880.807 1079.87">
<polygon points="28.729 182.18 28.729 176.229 .14 176.229 .14 176.281 .136 176.281 .136 195.419 .14 195.419 .14 197.301 .147 197.301 .147 206.471 .14 206.471 .14 212.422 28.729 212.475 28.729 206.524 5.608 206.471 5.608 197.301 28.729 197.353 28.729 191.402 5.597 191.35 5.597 182.18 28.729 182.18" id="E" />
<polygon points="28.739 225.881 28.739 219.771 .19 219.771 .19 219.825 .185 219.825 .185 239.476 .19 239.476 .19 241.408 .196 241.408 .196 256.067 5.804 256.067 5.804 241.408 28.739 241.408 28.739 235.298 5.793 235.298 5.793 225.881 28.739 225.881" id="F" />
<polygon points="28.689 102.609 28.689 96.498 .14 96.498 .14 96.553 .135 96.553 .135 132.795 .14 132.795 5.743 132.795 28.689 132.795 28.689 126.684 5.743 126.684 5.743 102.609 28.689 102.609" id="C" />
<polygon points="23.117 295.814 23.117 310.899 5.752 310.899 5.752 295.815 .145 295.815 .145 332.057 5.752 332.057 5.752 317.009 23.117 317.009 23.117 332.056 28.725 332.056 28.725 295.814 23.117 295.814" id="H" />
<path d="M22.361,56.429h6.334l-11.161-36.23h-6.119L.145,56.429h6.455l3.333-11.041h9.101l3.327,11.041ZM11.778,39.278l2.71-8.976,2.704,8.976h-5.415Z" id="A" />
<polygon points="28.895 1028.448 28.895 1028.446 28.896 1028.445 28.895 1028.445 28.895 1022.841 .296 1022.841 .296 1028.448 21.444 1028.448 .297 1053.546 .297 1053.546 .297 1059.153 28.884 1059.153 28.884 1053.546 7.635 1053.546 28.893 1028.448 28.895 1028.448" id="Z" />
<polygon points="36.574 944.18 32.609 940.215 18.42 954.405 4.23 940.215 .265 944.18 14.455 958.37 .265 972.559 4.23 976.524 18.42 962.335 32.609 976.524 36.574 972.559 22.384 958.37 36.574 944.18" id="X" />
<path d="M10.596,138.346H.112l.005,36.294,10.515-.004c10.015,0,18.097-8.175,18.097-18.19s-8.118-18.1-18.133-18.1ZM12.478,168.599h-6.589l-.097-24.159h6.566c6.409,0,10.276,5.614,10.276,12.023s-3.747,12.135-10.156,12.135Z" id="D" />
<rect x="-15.205" y="351.727" width="36.244" height="5.607" transform="translate(357.448 351.613) rotate(90)" id="I" />
<path d="M17.912,376.059v27.383c0,1.416-1.148,2.565-2.565,2.565h-4.455c-.418,0-.823-.183-1.072-.518-.075-.101-.123-.197-.152-.286-.096-.288-.373-.477-.677-.477h-4.961c-.341,0-.602.302-.552.639.173,1.171,1.678,3.719,3.03,4.921,1.217,1.082,3.899,2.003,5.703,2.007l5.7.012h0s0,0,0,0c3.478,0,6.298-2.82,6.298-6.298v-29.948h-6.298Z" id="J" />
<polygon points="28.645 500.529 23.036 500.529 14.467 509.213 5.705 500.529 .096 500.529 .096 536.817 5.705 536.817 5.705 509.213 14.467 517.865 23.036 509.213 23.036 536.817 28.645 536.817 28.645 500.529" id="M" />
<polygon points="28.745 539.435 23.138 539.435 23.138 565.443 5.804 539.436 .196 539.436 .196 575.713 5.804 575.713 5.804 549.645 23.138 575.711 23.138 575.713 23.14 575.713 23.141 575.716 23.141 575.713 28.745 575.713 28.745 539.435" id="N" />
<path d="M.242,588.113v18.459c0,4.918,3.987,8.905,8.905,8.905h10.747c4.918,0,8.905-3.987,8.905-8.905v-18.459c0-4.918-3.987-8.905-8.905-8.905h-10.747c-4.918,0-8.905,3.987-8.905,8.905ZM5.849,603.999v-13.36c0-3.216,2.607-5.824,5.824-5.824h5.674c3.228,0,5.845,2.617,5.845,5.845v13.284c0,3.272-2.653,5.925-5.925,5.925h-5.548c-3.242,0-5.87-2.628-5.87-5.87Z" id="O" />
<path d="M20.159,619.961H5.853s0,0,0,0H.246v3.053s0,.002,0,.003H.246s0,.002,0,.003v13.412h0v19.834h5.607v-14.642h14.306c4.77,0,8.637-3.867,8.637-8.637v-4.389c0-4.77-3.867-8.637-8.637-8.637ZM23.189,632.572c0,1.624-1.317,2.941-2.941,2.941H5.853v-9.441h14.395c1.624,0,2.941,1.317,2.941,2.941v3.559Z" id="P" />
<path d="M19.894,658.346h-10.747c-4.918,0-8.905,3.987-8.905,8.905v18.459c0,4.918,3.987,8.905,8.905,8.905h10.747c4.918,0,8.905-3.987,8.905-8.905v-18.459c0-4.918-3.987-8.905-8.905-8.905ZM11.719,689.007c-3.242,0-5.87-2.628-5.87-5.87v-13.36c0-3.216,2.607-5.824,5.824-5.824h5.674c3.228,0,5.845,2.617,5.845,5.845v13.284c0,.544-.075,1.069-.212,1.569l-3.945-3.945-4.321,4.321,3.838,3.838c-.414.092-.844.141-1.285.141h-5.548Z" id="Q" />
<path d="M22.39,734.601l6.476.002-8.458-14.649c4.669-.117,8.418-3.935,8.418-8.631v-4.389c0-4.77-3.867-8.637-8.637-8.637H5.883s0,0,0,0H.276v3.052s0,.002,0,.003H.276s0,.002,0,.003v13.412h0v19.834h5.607v-14.642h8.053s8.453,14.641,8.453,14.641ZM20.278,704.408c1.624,0,2.941,1.317,2.941,2.941v3.559c0,1.624-1.317,2.941-2.941,2.941H5.883v-9.441h14.394Z" id="R" />
<polygon points="28.946 748.055 28.946 742.094 .446 742.094 .446 763.181 23.286 763.181 23.286 772.347 .449 772.347 .446 778.357 28.946 778.357 28.946 757.221 6.106 757.221 6.106 748.055 28.946 748.055" id="S" />
<polygon points="28.847 782.202 .295 782.202 .295 787.809 11.767 787.809 11.767 818.489 17.375 818.489 17.375 787.809 28.847 787.809 28.847 782.202" id="T" />
<polygon points="28.799 851.004 28.799 820.81 23.192 820.81 23.192 851.004 5.85 851.004 5.85 820.81 .242 820.81 .242 857.052 .243 857.052 .243 857.115 28.799 857.115 28.799 851.004 28.799 851.004" id="U" />
<polygon points="11.457 896.396 17.576 896.396 28.846 860.166 22.391 860.166 14.502 886.293 6.63 860.166 .296 860.166 11.457 896.396" id="V" />
<polygon points=".296 936 5.906 936 14.475 927.316 23.236 936 28.846 936 28.846 899.712 23.236 899.712 23.236 927.316 14.475 918.663 5.906 927.316 5.906 899.712 .296 899.712 .296 936" id="W" />
<polygon points="29.521 986.567 24.205 983.523 15.172 999.04 6.139 983.523 .823 986.567 12.311 1006.303 12.311 1019.713 17.944 1019.713 17.944 1006.455 29.521 986.567" id="Y" />
<polygon points="20.928 488.95 6.298 488.95 6.298 459.003 0 459.003 0 495.248 6.298 495.248 6.298 495.248 20.928 495.248 20.928 488.95" id="L" />
<path d="M28.703,67.349c0-4.77-3.867-8.637-8.637-8.637H5.75s0-.004,0-.004H.143v36.265h5.607v-.002h14.317c4.77,0,8.637-2.961,8.637-7.731v-4.969c0-2.117-.763-4.055-2.027-5.557,1.264-1.502,2.027-3.44,2.027-5.557v-3.809ZM20.156,64.823c1.624,0,2.941,1.317,2.941,2.941v2.978c0,1.475-1.086,2.697-2.503,2.909-.175-.011-.35-.018-.528-.018H5.75s0-8.811,0-8.811h14.406ZM23.097,86.825c0,1.624-1.317,2.035-2.941,2.035H5.75v-9.066h14.317c.176,0,.351-.007.524-.017,1.418.211,2.506,1.433,2.506,2.909v4.139Z" id="B" />
<polygon points="5.962 287.808 5.962 263.614 28.964 263.614 28.964 257.653 .34 257.653 .34 293.935 28.964 293.935 28.96 274.043 12.784 274.043 12.784 280.17 22.833 280.17 22.833 287.808 5.962 287.808" id="G" />
<polygon points="29.53 454.696 9.131 434.285 25.669 418.432 16.839 418.432 6.681 427.832 6.681 418.432 .439 418.432 .439 433.955 .438 434.408 .439 434.409 .439 454.696 6.681 454.696 6.681 440.653 20.707 454.683 29.53 454.696" id="K" />
<rect x="43.429" y="35.507" width="36.244" height="5.607" transform="translate(99.861 -23.241) rotate(90)" id="one" />
<polygon points="87.195 90.112 87.195 69.026 81.588 69.026 81.588 69.031 60.651 69.031 60.651 74.953 81.588 74.953 81.588 84.121 63.18 84.121 63.18 84.146 58.747 84.146 58.747 105.281 61.189 105.281 61.189 105.282 85.761 105.282 85.761 99.278 64.354 99.278 64.354 90.043 81.588 90.043 81.588 90.112 87.195 90.112" id="two" />
<polygon points="87.192 119.517 81.585 119.517 81.585 119.522 60.648 119.522 60.648 125.444 81.585 125.444 81.585 134.612 63.178 134.612 63.178 140.534 81.584 140.534 81.584 149.766 60.666 149.766 60.666 155.774 81.605 155.774 81.605 155.773 87.191 155.773 87.191 140.603 87.192 140.603 87.192 119.517" id="three" />
<polygon points="87.196 168.827 81.589 168.827 81.589 183.923 64.356 183.923 64.356 168.812 58.744 168.812 58.744 189.886 63.181 189.886 64.356 189.886 81.587 189.886 81.587 205.083 87.195 205.083 87.195 189.914 87.196 189.914 87.196 168.827" id="four" />
<polygon points="87.196 234.911 82.763 234.911 82.763 234.887 64.355 234.887 64.355 225.718 85.292 225.718 85.292 219.796 64.355 219.796 64.355 219.791 58.748 219.791 58.748 240.877 64.355 240.877 64.355 240.808 81.589 240.808 81.589 250.043 60.182 250.043 60.182 256.047 84.754 256.047 84.754 256.047 87.196 256.047 87.196 234.911" id="five" />
<path d="M87.196,282.093h-4.434v-.024h-18.408v-9.139h20.937v-5.951h-20.937v-.009h-5.607v36.263h5.607v-.003h20.398s2.443,0,2.443,0v-21.136ZM64.355,287.99h17.234v9.235h-17.234v-9.235Z" id="six" />
<polygon points="87.206 313.862 84.278 313.862 84.278 313.851 60.551 313.851 60.551 319.794 81.599 319.794 81.599 328.982 81.598 328.982 81.598 350.118 87.205 350.118 87.205 334.949 87.206 334.949 87.206 313.862" id="seven" />
<path d="M87.196,363.136h-5.607v.009h-17.234v-.005h-5.607v36.26h5.607v-.003h20.398s2.443,0,2.443,0v-36.259ZM81.589,369.067v9.169h-17.234v-9.169h17.234ZM64.355,384.157h17.234v9.235h-17.234v-9.235Z" id="eight" />
<path d="M87.213,414.551l-28.448.004v21.008h2.928v.009h19.913v9.235h-21.407v6.003h24.572s2.443,0,2.443,0v-36.259ZM64.372,429.65v-9.169h17.234v9.169h-17.234Z" id="nine" />
<path d="M87.184,470.024l-28.448.003v36.258l28.448-.002v-36.259ZM64.343,475.954h17.234v24.326h-17.234v-24.326Z" id="zero" />
<polygon points="69.87 575.605 75.967 575.605 87.197 554.469 80.765 554.469 72.904 569.711 65.059 554.469 58.748 554.469 69.87 575.605" id="symbol-smallv" />
<path d="M62.973,600.885v-7.083h19.974v7.083h-19.974Z" id="symbol-dash" />
<rect x="57.479" y="539.342" width="5.56" height="5.96" id="symbol-period" />
</svg>