<?xml version="1.0" encoding="UTF-8"?>
<svg id="Layer_3" xmlns="http://www.w3.org/2000/svg" width="990.013" height="611.385" viewBox="0 0 990.013 611.385">
  <g id="A">
    <polyline points="37.744 25.521 37.744 24.783 29.957 2.964 29.837 2.964 22.051 24.83 22.051 25.521" fill="none" stroke="red" stroke-miterlimit="10" stroke-width="4"/>
    <line id="Symbol-Dash" x1="24.841" y1="16.566" x2="34.963" y2="16.566" fill="none" stroke="red" stroke-linejoin="bevel" stroke-width="4"/>
  </g>
  <g id="B">
    <path d="M75.337,7.857c0-2.701-2.189-4.89-4.89-4.89h-8.106s0-.002,0-.002h-3.175v20.533h3.175s8.106-.001,8.106-.001c2.701,0,4.89-1.677,4.89-4.377v-2.813c0-1.198-1.195-2.296-1.911-3.146.716-.85,1.911-1.948,1.911-3.146v-2.156Z" fill="none" stroke="red" stroke-miterlimit="10" stroke-width="4"/>
    <line id="Symbol-Dash-2" data-name="Symbol-Dash" x1="60.049" y1="13.231" x2="74.886" y2="13.231" fill="none" stroke="red" stroke-linejoin="bevel" stroke-width="4"/>
  </g>
  <polyline id="C" points="107.193 2.964 90.222 2.964 90.222 23.446 107.193 23.446" fill="none" stroke="red" stroke-miterlimit="10" stroke-width="4"/>
  <path id="D" d="M131.658,2.964h-5.909l.003,20.457,5.926-.002c5.645,0,10.2-4.608,10.2-10.252s-4.576-10.202-10.22-10.202Z" fill="none" stroke="red" stroke-miterlimit="10" stroke-width="4"/>
  <g id="E">
    <polyline points="177.365 2.964 160.156 2.964 160.156 23.446 177.365 23.446" fill="none" stroke="red" stroke-miterlimit="10" stroke-width="4"/>
    <line x1="177.365" y1="13.75" x2="160.156" y2="13.75" fill="none" stroke="red" stroke-miterlimit="10" stroke-width="4"/>
  </g>
  <g id="F">
    <polyline points="211.124 2.964 193.914 2.964 193.914 25.434" fill="none" stroke="red" stroke-miterlimit="10" stroke-width="4"/>
    <line x1="211.124" y1="13.75" x2="193.914" y2="13.75" fill="none" stroke="red" stroke-miterlimit="10" stroke-width="4"/>
  </g>
  <g id="G">
    <polyline points="241.741 2.964 224.531 2.964 224.531 25.434" fill="none" stroke="red" stroke-miterlimit="10" stroke-width="4"/>
    <polyline points="224.531 23.446 239.737 23.446 239.737 14.722 230.333 14.722" fill="none" stroke="red" stroke-miterlimit="10" stroke-width="4"/>
  </g>
  <g id="H">
    <line x1="260.248" y1=".945" x2="260.248" y2="25.434" fill="none" stroke="red" stroke-miterlimit="10" stroke-width="4"/>
    <line x1="275.248" y1=".945" x2="275.248" y2="25.434" fill="none" stroke="red" stroke-miterlimit="10" stroke-width="4"/>
    <line x1="260.248" y1="13.75" x2="275.248" y2="13.75" fill="none" stroke="red" stroke-miterlimit="10" stroke-width="4"/>
  </g>
  <line id="I" x1="299.484" y1=".945" x2="299.484" y2="25.434" fill="none" stroke="red" stroke-miterlimit="10" stroke-width="4"/>
  <path id="J" d="M337.857.945v21.013c0,.822-.666,1.488-1.488,1.488h-5.437c-1.011,0-2.222-.82-2.222-1.83v-.826" fill="none" stroke="red" stroke-miterlimit="10" stroke-width="4"/>
  <g id="K">
    <line id="I-2" data-name="I" x1="360.813" y1=".945" x2="360.813" y2="25.434" fill="none" stroke="red" stroke-miterlimit="10" stroke-width="4"/>
    <line x1="360.781" y1="11.453" x2="374.374" y2="25.047" fill="none" stroke="red" stroke-miterlimit="10" stroke-width="4"/>
    <line x1="361.637" y1="12.309" x2="373.21" y2="1.459" fill="none" stroke="red" stroke-miterlimit="10" stroke-width="4"/>
  </g>
  <polyline id="L" points="396.112 .945 396.112 23.446 407.99 23.446" fill="none" stroke="red" stroke-miterlimit="10" stroke-width="4"/>
  <polyline id="M" points="426.52 25.434 426.52 2.964 426.731 2.964 434.092 10.578 441.43 2.97 441.706 2.964 441.706 25.434" fill="none" stroke="red" stroke-miterlimit="10" stroke-width="4"/>
  <polyline id="N" points="460.09 25.434 460.09 2.964 460.482 2.964 474.666 23.446 475.107 23.446 475.107 .977" fill="none" stroke="red" stroke-miterlimit="10" stroke-width="4"/>
  <path id="O" d="M493.282,7.992v10.421c0,2.777,2.251,5.028,5.028,5.028h6.067c2.777,0,5.027-2.251,5.027-5.028V7.992c0-2.777-2.251-5.028-5.028-5.028h-6.067c-2.777,0-5.028,2.251-5.028,5.028Z" fill="none" stroke="red" stroke-miterlimit="10" stroke-width="4"/>
  <path id="P" d="M529.198,14.36h10.513c2.518,0,4.56-2.383,4.56-5.322v-.752c0-2.939-2.041-5.322-4.56-5.322h-7.552s0,0,0,0h-2.96v1.881s0,.001,0,.002h0s0,.001,0,.002v8.264h0v12.321" fill="none" stroke="red" stroke-miterlimit="10" stroke-width="4"/>
  <path id="Q" d="M570.12,17.73l3.583,3.583c1.26-.226,1.335.847-.351,1.769-.45.246-.966.364-1.479.364h-5.773c-2.65,0-4.799-2.148-4.799-4.799V7.725c0-2.629,2.131-4.761,4.761-4.761h4.639c2.639,0,4.778,2.139,4.778,4.778v11.761c-.149,1.333-.811,2.409-1.178,2.678" fill="none" stroke="red" stroke-miterlimit="10" stroke-width="4"/>
  <g id="R">
    <path id="R-2" data-name="R" d="M594.565,14.36h10.513c2.518,0,4.56-2.383,4.56-5.322v-.752c0-2.939-2.041-5.322-4.56-5.322h-10.512s0,22.47,0,22.47" fill="none" stroke="red" stroke-miterlimit="10" stroke-width="4"/>
    <polyline points="603.063 14.36 608.885 24.443 608.885 25.434" fill="none" stroke="red" stroke-miterlimit="10" stroke-width="4"/>
  </g>
  <polyline id="S" points="645.533 2.964 628.27 2.964 628.27 13.504 643.857 13.504 643.857 23.446 626.787 23.446" fill="none" stroke="red" stroke-miterlimit="10" stroke-width="4"/>
  <g id="T">
    <line x1="660.087" y1="2.964" x2="678.867" y2="2.964" fill="none" stroke="red" stroke-miterlimit="10" stroke-width="4"/>
    <line x1="669.477" y1="2.964" x2="669.477" y2="25.43" fill="none" stroke="red" stroke-miterlimit="10" stroke-width="4"/>
  </g>
  <polyline id="U" points="697.123 .945 697.123 23.446 712.579 23.446 712.579 .945" fill="none" stroke="red" stroke-miterlimit="10" stroke-width="4"/>
  <path id="V" d="M729.388.945v.51l6.75,21.991h1.092l6.766-21.991v-.51" fill="none" stroke="red" stroke-miterlimit="10" stroke-width="4"/>
  <polyline id="W" points="778.01 .94 778.01 23.445 777.802 23.445 770.555 16.589 763.33 23.44 763.058 23.445 763.058 .94" fill="none" stroke="red" stroke-miterlimit="10" stroke-width="4"/>
  <g id="X">
    <line x1="793.17" y1="2.736" x2="814.445" y2="24.011" fill="none" stroke="red" stroke-miterlimit="10" stroke-width="4"/>
    <line x1="814.445" y1="2.736" x2="793.17" y2="24.011" fill="none" stroke="red" stroke-miterlimit="10" stroke-width="4"/>
  </g>
  <g id="Y">
    <line x1="830.02" y1="2.526" x2="837.513" y2="15.658" fill="none" stroke="red" stroke-miterlimit="10" stroke-width="4"/>
    <line x1="845.141" y1="2.595" x2="837.513" y2="15.658" fill="none" stroke="red" stroke-miterlimit="10" stroke-width="4"/>
    <line x1="837.513" y1="25.434" x2="837.513" y2="14.477" fill="none" stroke="red" stroke-miterlimit="10" stroke-width="4"/>
  </g>
  <polyline id="Z" points="862.251 2.964 879.079 2.964 879.079 3.356 864.239 23.005 864.239 23.446 881.063 23.446" fill="none" stroke="red" stroke-miterlimit="10" stroke-width="4"/>
  <line id="One" x1="31.604" y1="39.478" x2="31.604" y2="63.967" fill="none" stroke="red" stroke-miterlimit="10" stroke-width="4"/>
  <polyline id="Two" points="56.542 41.498 72.617 41.498 72.617 52.287 56.965 52.287 56.965 61.979 73.059 61.979" fill="none" stroke="red" stroke-miterlimit="10" stroke-width="4"/>
  <g id="Three">
    <polyline points="89.732 41.498 105.342 41.498 105.342 61.979 89.732 61.979" fill="none" stroke="red" stroke-miterlimit="10" stroke-width="4"/>
    <line x1="91.397" y1="52.284" x2="105.342" y2="52.284" fill="none" stroke="red" stroke-miterlimit="10" stroke-width="4"/>
  </g>
  <g id="Four">
    <line id="_x31_" x1="138.672" y1="40.359" x2="138.672" y2="64.104" fill="none" stroke="red" stroke-miterlimit="10" stroke-width="4"/>
    <polyline points="123.858 39.478 123.858 51.738 138.672 51.738" fill="none" stroke="red" stroke-miterlimit="10" stroke-width="4"/>
  </g>
  <polyline id="Five" points="172.321 41.498 156.683 41.498 156.683 52.03 171.748 52.03 171.748 61.979 155.805 61.979" fill="none" stroke="red" stroke-miterlimit="10" stroke-width="4"/>
  <polyline id="Six" points="207.424 41.498 191.639 41.498 191.639 52.03 206.704 52.03 206.704 61.979 191.639 61.979 191.639 52.03" fill="none" stroke="red" stroke-miterlimit="10" stroke-width="4"/>
  <polyline id="Seven" points="221.019 41.498 237.096 41.498 237.096 63.967" fill="none" stroke="red" stroke-miterlimit="10" stroke-width="4"/>
  <g id="Eight">
    <rect x="258.683" y="41.498" width="15.261" height="20.481" fill="none" stroke="red" stroke-miterlimit="10" stroke-width="4"/>
    <line x1="258.683" y1="52.287" x2="273.944" y2="52.287" fill="none" stroke="red" stroke-miterlimit="10" stroke-width="4"/>
  </g>
  <polyline id="Nine" points="292.857 61.963 308.642 61.963 308.642 51.431 293.576 51.431 293.576 41.482 308.642 41.482 308.642 51.431" fill="none" stroke="red" stroke-miterlimit="10" stroke-width="4"/>
  <rect id="Zero" x="324.422" y="41.482" width="15.544" height="20.481" fill="none" stroke="red" stroke-miterlimit="10" stroke-width="4"/>
  <polyline id="symbol-smallv" points="377.965 49.206 377.965 50 371.639 61.993 370.074 61.993 363.487 50 363.487 49.206" fill="none" stroke="red" stroke-miterlimit="10" stroke-width="4"/>
  <line id="symbol-period" x1="393.225" y1="60.032" x2="396.882" y2="60.032" fill="none" stroke="red" stroke-miterlimit="10" stroke-width="4"/>
  <line id="symbol-dash" x1="407.988" y1="60.032" x2="421.126" y2="60.032" fill="none" stroke="red" stroke-miterlimit="10" stroke-width="4"/>
  <circle id="symbol-degree" cx="433.306" cy="43.802" r="2.227" fill="none" stroke="red" stroke-miterlimit="10"/>
  <line id="symbol-slash" x1="441.459" y1="60.588" x2="452.946" y2="42.683" fill="none" stroke="red" stroke-miterlimit="10" stroke-width="4"/>
</svg>