<?xml version="1.0" encoding="UTF-8"?>
<svg id="b" data-name="AON_-_Light" xmlns="http://www.w3.org/2000/svg" width="2061.538" height="202.972" viewBox="0 0 2061.538 202.972">
  <g>
    <path d="M1014.667,100.276c2.347,2.73,2.284,5.326,2.229,7.416l-.017.958c0,3.9-1.232,7.366-3.381,9.519-1.841,1.836-4.373,3.183-6.948,3.697-1.984.397-12.722.925-15.968,1.072h-.152c-1.692,0-3.103-1.334-3.183-3.039-.08-1.756,1.275-3.246,3.035-3.33,6.517-.309,13.917-.747,15.019-.958,1.333-.271,2.748-1.018,3.689-1.959.701-.7,1.515-2.432,1.515-5.011l.017-1.118c.042-1.769.025-2.263-.684-3.09-.802-.925-1.465-1.102-3.04-1.169h-16.369c-1.751,0-3.174-1.41-3.187-3.162l-.127-16.086c-.004-.853.325-1.667.924-2.271.6-.604,1.414-.941,2.263-.941h21.865c1.76,0,3.187,1.426,3.187,3.187s-1.427,3.187-3.187,3.187h-18.652l.076,9.713h13.343c2.655.114,5.314.595,7.729,3.381l.004.005Z"/>
    <path d="M1050.789,100.276c2.347,2.73,2.283,5.326,2.229,7.416l-.017.958c0,3.9-1.232,7.366-3.381,9.519-1.841,1.836-4.373,3.183-6.948,3.697-1.984.397-12.723.925-15.969,1.072h-.152c-1.692,0-3.103-1.334-3.183-3.039-.08-1.756,1.275-3.246,3.035-3.33,6.517-.309,13.917-.747,15.019-.958,1.333-.271,2.747-1.018,3.688-1.959.701-.7,1.516-2.432,1.516-5.011l.017-1.118c.042-1.769.025-2.263-.684-3.09-.802-.925-1.465-1.102-3.039-1.169h-16.37c-1.751,0-3.174-1.41-3.187-3.162l-.127-16.086c-.004-.853.325-1.667.924-2.271.6-.604,1.414-.941,2.263-.941h21.865c1.76,0,3.187,1.426,3.187,3.187s-1.427,3.187-3.187,3.187h-18.653l.076,9.713h13.343c2.655.114,5.314.595,7.729,3.381l.005.005Z"/>
  </g>
  <line x1="1058.461" y1="105.161" x2="1148.08" y2="122.938" stroke="#000" stroke-linecap="round" stroke-miterlimit="10" stroke-width="7"/>
</svg>