<?xml version="1.0" encoding="UTF-8"?>
<svg xmlns="http://www.w3.org/2000/svg" width="1584.293" height="1072.174" viewBox="0 0 1584.293 1072.174">
  <g id="a" data-name="CDNU_-_Light">
    <path d="M1403.61,903.706l-1222.305.984c-5.445.004-9.861-4.411-9.856-9.857l.667-725.918c.005-5.432,4.408-9.834,9.84-9.839l1222.305-.984c5.445-.004,9.861,4.411,9.856,9.857l-.667,725.918c-.005,5.432-4.408,9.834-9.84,9.839Z" fill="none" stroke="#000" stroke-miterlimit="10" stroke-width="11"/>
    <polyline points="785.123 902.825 1331.623 903.324 1331.623 653.747 1406.623 653.747 1406.623 327.67 1331.623 327.67 1331.623 160.085 252.123 160.085 252.123 332.358 173.906 332.358 173.906 653.248 252.123 653.248 252.123 902.825 785.123 902.825" fill="none" stroke="#000" stroke-miterlimit="10" stroke-width="8"/>
    <rect x="425.123" y="200.085" width="735" height="553" rx="13.681" ry="13.681" fill="none" stroke="#000" stroke-miterlimit="10" stroke-width="5"/>
    <rect x="414.123" y="186.085" width="760" height="580" rx="18.29" ry="18.29" fill="none" stroke="#000" stroke-miterlimit="10" stroke-width="5"/>
    <g>
      <rect x="267.123" y="201.085" width="137" height="81" fill="none" stroke="#000" stroke-miterlimit="10" stroke-width="5"/>
      <polygon points="387.122 241.334 359.756 213.834 359.756 230.834 284.623 230.834 284.623 251.834 359.756 251.834 359.756 268.834 387.122 241.334" stroke="#000" stroke-miterlimit="10"/>
    </g>
    <g>
      <rect x="267.275" y="327.932" width="137" height="81" fill="none" stroke="#000" stroke-miterlimit="10" stroke-width="5"/>
      <polygon points="387.275 368.182 359.908 340.682 359.908 357.682 284.775 357.682 284.775 378.682 359.908 378.682 359.908 395.682 387.275 368.182" stroke="#000" stroke-miterlimit="10"/>
    </g>
    <g>
      <rect x="267.275" y="454.932" width="137" height="81" fill="none" stroke="#000" stroke-miterlimit="10" stroke-width="5"/>
      <polygon points="387.275 495.182 359.908 467.682 359.908 484.682 284.775 484.682 284.775 505.682 359.908 505.682 359.908 522.682 387.275 495.182" stroke="#000" stroke-miterlimit="10"/>
    </g>
    <g>
      <rect x="267.102" y="579.367" width="137" height="81" fill="none" stroke="#000" stroke-miterlimit="10" stroke-width="5"/>
      <polygon points="387.101 619.617 359.734 592.117 359.734 609.117 284.601 609.117 284.601 630.117 359.734 630.117 359.734 647.117 387.101 619.617" stroke="#000" stroke-miterlimit="10"/>
    </g>
    <g>
      <rect x="1182.254" y="201.085" width="137" height="81" transform="translate(2501.507 483.169) rotate(-180)" fill="none" stroke="#000" stroke-miterlimit="10" stroke-width="5"/>
      <polygon points="1199.255 241.334 1226.622 213.834 1226.622 230.834 1301.754 230.834 1301.754 251.834 1226.622 251.834 1226.622 268.834 1199.255 241.334" stroke="#000" stroke-miterlimit="10"/>
    </g>
    <g>
      <rect x="1182.102" y="327.932" width="137" height="81" transform="translate(2501.203 736.865) rotate(-180)" fill="none" stroke="#000" stroke-miterlimit="10" stroke-width="5"/>
      <polygon points="1199.102 368.182 1226.469 340.682 1226.469 357.682 1301.602 357.682 1301.602 378.682 1226.469 378.682 1226.469 395.682 1199.102 368.182" stroke="#000" stroke-miterlimit="10"/>
    </g>
    <g>
      <rect x="1182.102" y="454.932" width="137" height="81" transform="translate(2501.203 990.865) rotate(-180)" fill="none" stroke="#000" stroke-miterlimit="10" stroke-width="5"/>
      <polygon points="1199.102 495.182 1226.469 467.682 1226.469 484.682 1301.602 484.682 1301.602 505.682 1226.469 505.682 1226.469 522.682 1199.102 495.182" stroke="#000" stroke-miterlimit="10"/>
    </g>
    <g>
      <rect x="1182.275" y="579.367" width="137" height="81" transform="translate(2501.551 1239.734) rotate(-180)" fill="none" stroke="#000" stroke-miterlimit="10" stroke-width="5"/>
      <polygon points="1199.276 619.617 1226.643 592.117 1226.643 609.117 1301.776 609.117 1301.776 630.117 1226.643 630.117 1226.643 647.117 1199.276 619.617" stroke="#000" stroke-miterlimit="10"/>
    </g>
    <circle cx="356.123" cy="736.085" r="30.5" fill="none" stroke="#000" stroke-miterlimit="10" stroke-width="5"/>
    <circle cx="1239.123" cy="736.085" r="30.5" fill="none" stroke="#000" stroke-miterlimit="10" stroke-width="5"/>
    <rect x="315.623" y="792.539" width="83" height="91" fill="none" stroke="#000" stroke-miterlimit="10" stroke-width="5"/>
    <rect x="307.623" y="783.039" width="101" height="110" rx="9.778" ry="9.778" fill="none" stroke="#000" stroke-miterlimit="10" stroke-width="5"/>
    <rect x="439.623" y="792.539" width="83" height="91" fill="none" stroke="#000" stroke-miterlimit="10" stroke-width="5"/>
    <rect x="431.623" y="783.039" width="101" height="110" rx="9.778" ry="9.778" fill="none" stroke="#000" stroke-miterlimit="10" stroke-width="5"/>
    <rect x="563.623" y="792.539" width="83" height="91" fill="none" stroke="#000" stroke-miterlimit="10" stroke-width="5"/>
    <rect x="555.623" y="783.039" width="101" height="110" rx="9.778" ry="9.778" fill="none" stroke="#000" stroke-miterlimit="10" stroke-width="5"/>
    <rect x="687.623" y="792.539" width="83" height="91" fill="none" stroke="#000" stroke-miterlimit="10" stroke-width="5"/>
    <rect x="679.623" y="783.039" width="101" height="110" rx="9.778" ry="9.778" fill="none" stroke="#000" stroke-miterlimit="10" stroke-width="5"/>
    <rect x="809.623" y="792.539" width="83" height="91" fill="none" stroke="#000" stroke-miterlimit="10" stroke-width="5"/>
    <rect x="801.623" y="783.039" width="101" height="110" rx="9.778" ry="9.778" fill="none" stroke="#000" stroke-miterlimit="10" stroke-width="5"/>
    <rect x="936.623" y="792.539" width="83" height="91" fill="none" stroke="#000" stroke-miterlimit="10" stroke-width="5"/>
    <rect x="928.623" y="783.039" width="101" height="110" rx="9.778" ry="9.778" fill="none" stroke="#000" stroke-miterlimit="10" stroke-width="5"/>
    <rect x="1056.623" y="792.539" width="83" height="91" fill="none" stroke="#000" stroke-miterlimit="10" stroke-width="5"/>
    <rect x="1048.623" y="783.039" width="101" height="110" rx="9.778" ry="9.778" fill="none" stroke="#000" stroke-miterlimit="10" stroke-width="5"/>
    <rect x="1181.623" y="792.539" width="83" height="91" fill="none" stroke="#000" stroke-miterlimit="10" stroke-width="5"/>
    <rect x="1173.623" y="783.039" width="101" height="110" rx="9.778" ry="9.778" fill="none" stroke="#000" stroke-miterlimit="10" stroke-width="5"/>
    <circle cx="213.123" cy="265.085" r="34.5" fill="none" stroke="#000" stroke-miterlimit="10" stroke-width="3.5"/>
    <circle cx="213.123" cy="265.085" r="27.5" fill="none" stroke="#000" stroke-miterlimit="10" stroke-width="3.5"/>
    <circle cx="213.623" cy="718.585" r="34.5" fill="none" stroke="#000" stroke-miterlimit="10" stroke-width="3.5"/>
    <circle cx="213.623" cy="718.585" r="27.5" fill="none" stroke="#000" stroke-miterlimit="10" stroke-width="3.5"/>
    <circle cx="213.623" cy="837.585" r="34.5" fill="none" stroke="#000" stroke-miterlimit="10" stroke-width="3.5"/>
    <circle cx="213.623" cy="837.585" r="27.5" fill="none" stroke="#000" stroke-miterlimit="10" stroke-width="3.5"/>
    <circle cx="1372.623" cy="265.085" r="34.5" fill="none" stroke="#000" stroke-miterlimit="10" stroke-width="3.5"/>
    <circle cx="1372.623" cy="265.085" r="27.5" fill="none" stroke="#000" stroke-miterlimit="10" stroke-width="3.5"/>
    <circle cx="1372.123" cy="718.585" r="34.5" fill="none" stroke="#000" stroke-miterlimit="10" stroke-width="3.5"/>
    <circle cx="1372.123" cy="718.585" r="27.5" fill="none" stroke="#000" stroke-miterlimit="10" stroke-width="3.5"/>
    <circle cx="1372.123" cy="837.585" r="34.5" fill="none" stroke="#000" stroke-miterlimit="10" stroke-width="3.5"/>
    <circle cx="1372.123" cy="837.585" r="27.5" fill="none" stroke="#000" stroke-miterlimit="10" stroke-width="3.5"/>
    <g>
      <rect x="321.946" y="804.749" width="66.913" height="64.957" fill="none"/>
      <path d="M335.861,819.119h6.823v36.208h-6.823v-36.208ZM338.351,819.119h21.292v6.574h-21.292v-6.574ZM338.351,834.384h18.552v6.574h-18.552v-6.574Z" stroke="#000" stroke-miterlimit="10"/>
      <path d="M374.945,855.327h-6.823v-28.189l-4.408,1.668v-7.246l5.404-2.44h5.827v36.208Z" stroke="#000" stroke-miterlimit="10"/>
    </g>
    <g>
      <rect x="445.946" y="804.749" width="66.913" height="64.957" fill="none"/>
      <path d="M455.167,819.119h6.823v36.208h-6.823v-36.208ZM457.657,819.119h21.292v6.574h-21.292v-6.574ZM457.657,834.384h18.552v6.574h-18.552v-6.574Z" stroke="#000" stroke-miterlimit="10"/>
      <path d="M483.966,849.177l12.426-16.336c.564-.73,1-1.482,1.307-2.254.307-.772.461-1.49.461-2.154v-.05c0-.979-.315-1.734-.946-2.267-.631-.53-1.528-.797-2.689-.797-1.129,0-2.042.37-2.739,1.108-.697.739-1.121,1.789-1.27,3.15v.024h-6.998v-.024c.149-2.258.693-4.2,1.631-5.827s2.204-2.867,3.798-3.723,3.437-1.283,5.528-1.283c2.257,0,4.188.37,5.79,1.108,1.602.739,2.822,1.814,3.66,3.226s1.258,3.112,1.258,5.104v.024c0,1.645-.286,3.275-.859,4.894-.572,1.619-1.374,3.084-2.403,4.396l-8.915,11.256h12.376v6.574h-21.416v-6.15Z" stroke="#000" stroke-miterlimit="10"/>
    </g>
    <g>
      <rect x="569.946" y="804.749" width="66.913" height="64.957" fill="none"/>
      <path d="M578.855,819.119h6.823v36.208h-6.823v-36.208ZM581.346,819.119h21.292v6.574h-21.292v-6.574ZM581.346,834.384h18.552v6.574h-18.552v-6.574Z" stroke="#000" stroke-miterlimit="10"/>
      <path d="M612.461,854.505c-1.71-.797-3.072-1.958-4.084-3.486-1.013-1.526-1.569-3.345-1.668-5.453h7.047c.1.747.319,1.382.66,1.905.34.522.776.921,1.308,1.195.531.273,1.146.411,1.843.411,1.295,0,2.295-.361,3.001-1.084.705-.722,1.058-1.738,1.058-3.051v-.846c0-1.378-.287-2.441-.859-3.188-.573-.748-1.391-1.121-2.453-1.121h-3.063v-6.574h3.063c.863,0,1.531-.327,2.005-.983.473-.656.709-1.573.709-2.752v-.622c0-1.112-.261-1.972-.785-2.578-.522-.605-1.257-.908-2.204-.908-.614,0-1.175.157-1.681.473s-.934.771-1.282,1.369-.598,1.32-.747,2.167h-7.022c.199-2.208.792-4.112,1.78-5.715s2.279-2.822,3.873-3.661c1.594-.838,3.37-1.258,5.329-1.258,3.204,0,5.682.818,7.433,2.453,1.751,1.636,2.627,3.956,2.627,6.961v1.096c0,1.677-.423,3.137-1.27,4.383-.847,1.244-2.051,2.175-3.611,2.789,1.743.398,3.092,1.312,4.046,2.738.955,1.429,1.432,3.246,1.432,5.454v1.096c0,2.108-.415,3.909-1.245,5.403-.831,1.494-2.042,2.632-3.636,3.412s-3.511,1.17-5.752,1.17c-2.191,0-4.143-.398-5.852-1.195Z" stroke="#000" stroke-miterlimit="10"/>
    </g>
    <g>
      <rect x="693.946" y="804.749" width="66.913" height="64.957" fill="none"/>
      <path d="M701.834,819.119h6.823v36.208h-6.823v-36.208ZM704.325,819.119h21.292v6.574h-21.292v-6.574ZM704.325,834.384h18.552v6.574h-18.552v-6.574Z" stroke="#000" stroke-miterlimit="10"/>
      <path d="M730.683,843.499l11.156-24.355h7.72l-10.857,24.057h16.261v6.574h-24.279v-6.275ZM745.301,834.036h6.823v21.316h-6.823v-21.316Z" stroke="#000" stroke-miterlimit="10"/>
    </g>
    <g>
      <rect x="815.946" y="804.749" width="66.913" height="64.957" fill="none"/>
      <path d="M824.457,819.119h6.823v36.208h-6.823v-36.208ZM826.947,819.119h21.291v6.574h-21.291v-6.574ZM826.947,834.384h18.553v6.574h-18.553v-6.574Z" stroke="#000" stroke-miterlimit="10"/>
      <path d="M859.171,854.418c-1.553-.854-2.798-2.1-3.735-3.735-.938-1.635-1.481-3.573-1.631-5.814v-.025h6.823v.025c.133,1.328.539,2.362,1.221,3.101.68.738,1.568,1.108,2.664,1.108,1.195,0,2.12-.391,2.776-1.171s.983-1.884.983-3.312v-3.039c0-1.427-.295-2.527-.884-3.299-.589-.772-1.415-1.158-2.478-1.158-.979,0-1.814.249-2.503.747s-1.166,1.195-1.432,2.092h-6.375v-20.818h19.448v6.574h-12.625v6.399c.515-.498,1.216-.892,2.104-1.183.888-.29,1.771-.436,2.651-.436,1.876,0,3.482.432,4.819,1.295,1.336.863,2.353,2.125,3.05,3.785s1.047,3.661,1.047,6.001v3.039c0,2.34-.42,4.341-1.258,6.001-.839,1.66-2.055,2.926-3.648,3.798-1.594.871-3.52,1.307-5.777,1.307-1.942,0-3.689-.427-5.242-1.282Z" stroke="#000" stroke-miterlimit="10"/>
    </g>
    <g>
      <rect x="942.946" y="804.749" width="66.913" height="64.957" fill="none"/>
      <path d="M952.254,819.119h6.823v36.208h-6.823v-36.208ZM954.744,819.119h21.291v6.574h-21.291v-6.574ZM954.744,834.384h18.553v6.574h-18.553v-6.574Z" stroke="#000" stroke-miterlimit="10"/>
      <path d="M985.723,854.418c-1.585-.854-2.793-2.1-3.623-3.735-.83-1.635-1.245-3.606-1.245-5.914v-.025c0-1.311.162-2.697.485-4.158.324-1.461.784-2.93,1.382-4.408.1-.248.203-.498.312-.746.108-.25.22-.49.337-.723l7.346-15.589h7.72l-8.716,18.054-1.719-.896c.415-.779,1.021-1.386,1.818-1.817s1.727-.647,2.789-.647c1.992,0,3.693.424,5.105,1.27,1.41.848,2.485,2.08,3.225,3.698.738,1.619,1.107,3.565,1.107,5.84v.024c0,2.325-.415,4.317-1.244,5.977-.831,1.661-2.039,2.923-3.624,3.785-1.585.864-3.499,1.295-5.739,1.295-2.226,0-4.131-.427-5.716-1.282ZM994.239,848.068c.656-.706.984-1.706.984-3.001v-.025c0-1.494-.328-2.643-.984-3.448s-1.59-1.208-2.801-1.208c-1.195,0-2.121.411-2.777,1.232-.656.822-.983,1.972-.983,3.449v.025c0,1.295.327,2.291.983,2.988s1.582,1.045,2.777,1.045c1.211,0,2.145-.352,2.801-1.058Z" stroke="#000" stroke-miterlimit="10"/>
    </g>
    <g>
      <rect x="1062.946" y="804.749" width="66.913" height="64.957" fill="none"/>
      <path d="M1072.499,819.119h6.823v36.208h-6.823v-36.208ZM1074.989,819.119h21.291v6.574h-21.291v-6.574ZM1074.989,834.384h18.553v6.574h-18.553v-6.574Z" stroke="#000" stroke-miterlimit="10"/>
      <path d="M1121.544,823.651l-8.119,31.676h-7.396l7.869-29.634h-6.226v5.454h-6.823v-12.028h20.694v4.532Z" stroke="#000" stroke-miterlimit="10"/>
    </g>
    <g>
      <path d="M1202.22,823.664h4.053v29.852h-2.795v-23.18l.111,1.314-3.121,18.539h-2.719l-3.121-18.129.111-1.725v23.18h-2.797v-29.852h4.055l3.111,20.12,3.111-20.12Z" stroke="#000" stroke-miterlimit="10"/>
      <path d="M1210.579,823.664h3.078v29.852h-3.078v-29.852ZM1211.692,823.664h9.826v5.42h-9.826v-5.42ZM1211.692,835.982h8.59v5.42h-8.59v-5.42ZM1211.692,848.095h9.826v5.42h-9.826v-5.42Z" stroke="#000" stroke-miterlimit="10"/>
      <path d="M1225.038,823.664h3.764l6.074,22.871-.27.534v-23.405h2.943v29.831h-3.785l-6.053-22.522.27-.534v23.057h-2.943v-29.831Z" stroke="#000" stroke-miterlimit="10"/>
      <path d="M1244.36,852.52c-.891-.869-1.568-2.136-2.033-3.799-.463-1.663-.695-3.665-.695-6.005v-19.053h3.076v19.196c0,1.711.252,3.038.754,3.983.5.944,1.209,1.416,2.121,1.416.922,0,1.635-.472,2.141-1.416.504-.945.758-2.272.758-3.983v-19.196h3.076v19.053c0,2.34-.234,4.342-.701,6.005-.469,1.663-1.15,2.93-2.045,3.799s-1.971,1.304-3.229,1.304-2.332-.435-3.223-1.304Z" stroke="#000" stroke-miterlimit="10"/>
    </g>
    <g>
      <rect x="316.467" y="671.23" width="70.435" height="25.043" fill="none"/>
      <path d="M324.735,672.395h4.281v22.719h-4.281v-22.719ZM326.61,690.989h7.25c.979,0,1.737-.236,2.273-.711.536-.474.805-1.138.805-1.992v-.047c0-.572-.12-1.062-.359-1.469-.24-.406-.591-.716-1.055-.93-.464-.213-1.019-.32-1.664-.32h-7.25v-4.125h7.25c.885,0,1.57-.224,2.055-.672.484-.447.727-1.078.727-1.891,0-.729-.242-1.297-.727-1.703s-1.169-.609-2.055-.609h-7.25v-4.125h7.391c1.469,0,2.724.242,3.766.727,1.042.484,1.833,1.188,2.375,2.109.542.922.812,2.029.812,3.32,0,.886-.175,1.67-.523,2.352-.349.683-.857,1.242-1.523,1.68-.667.438-1.469.734-2.406.891,1,.136,1.856.44,2.57.914.713.475,1.255,1.092,1.625,1.852.37.761.555,1.641.555,2.641v.047c0,1.303-.273,2.417-.82,3.344-.547.928-1.344,1.633-2.391,2.117s-2.305.727-3.773.727h-7.656v-4.125Z" stroke="#000" stroke-miterlimit="10"/>
      <path d="M346.383,672.38h4.281v22.734h-4.281v-22.734ZM348.086,681.848h7.906c.438,0,.823-.109,1.156-.328.333-.219.591-.531.773-.938.182-.406.278-.875.289-1.406,0-.531-.091-1-.273-1.406-.183-.406-.44-.719-.773-.938-.333-.219-.724-.328-1.172-.328h-7.906v-4.125h8.25c1.25,0,2.349.281,3.297.844.948.562,1.682,1.357,2.203,2.383.521,1.026.781,2.217.781,3.57s-.261,2.545-.781,3.57c-.521,1.026-1.258,1.82-2.211,2.383s-2.05.844-3.289.844h-8.25v-4.125ZM352.868,685.27l4.578-.719,6.125,10.562h-5.188l-5.516-9.844Z" stroke="#000" stroke-miterlimit="10"/>
      <path d="M365.109,672.395h16.656v4.125h-16.656v-4.125ZM371.297,674.255h4.281v20.859h-4.281v-20.859Z" stroke="#000" stroke-miterlimit="10"/>
    </g>
    <g>
      <rect x="1181.12" y="671.01" width="131" height="25.043" fill="none"/>
      <path d="M1193.84,694.087c-1.256-.692-2.227-1.672-2.914-2.938s-1.031-2.731-1.031-4.398v-6.438c0-1.666.344-3.133,1.031-4.398s1.658-2.244,2.914-2.938c1.255-.692,2.705-1.039,4.352-1.039s3.096.347,4.352,1.039c1.255.693,2.227,1.672,2.914,2.938s1.031,2.732,1.031,4.398v6.438c0,1.667-.344,3.133-1.031,4.398s-1.659,2.245-2.914,2.938c-1.256.693-2.706,1.039-4.352,1.039s-3.097-.346-4.352-1.039ZM1200.223,690.352c.583-.328,1.033-.794,1.352-1.398.317-.604.477-1.302.477-2.094v-6.656c0-.791-.159-1.489-.477-2.094-.318-.604-.769-1.07-1.352-1.398-.584-.328-1.261-.492-2.031-.492s-1.448.164-2.031.492c-.584.328-1.034.795-1.352,1.398-.318.604-.477,1.303-.477,2.094v6.656c0,.792.158,1.49.477,2.094.317.604.768,1.07,1.352,1.398.583.328,1.26.492,2.031.492s1.447-.164,2.031-.492Z" stroke="#000" stroke-miterlimit="10"/>
      <path d="M1211.699,672.173h4.281v22.719h-4.281v-22.719ZM1213.262,672.173h13.359v4.125h-13.359v-4.125ZM1213.262,681.751h11.641v4.125h-11.641v-4.125Z" stroke="#000" stroke-miterlimit="10"/>
      <path d="M1230.894,672.173h4.281v22.719h-4.281v-22.719ZM1232.457,672.173h13.359v4.125h-13.359v-4.125ZM1232.457,681.751h11.641v4.125h-11.641v-4.125Z" stroke="#000" stroke-miterlimit="10"/>
      <path d="M1250.87,699.204h-4.062l10.156-29.719h4.062l-10.156,29.719Z" stroke="#000" stroke-miterlimit="10"/>
      <path d="M1267.604,694.087c-1.256-.692-2.227-1.672-2.914-2.938s-1.031-2.731-1.031-4.398v-6.438c0-1.666.344-3.133,1.031-4.398s1.658-2.244,2.914-2.938c1.255-.692,2.705-1.039,4.352-1.039s3.096.347,4.352,1.039c1.255.693,2.227,1.672,2.914,2.938s1.031,2.732,1.031,4.398v6.438c0,1.667-.344,3.133-1.031,4.398s-1.659,2.245-2.914,2.938c-1.256.693-2.706,1.039-4.352,1.039s-3.097-.346-4.352-1.039ZM1273.987,690.352c.583-.328,1.033-.794,1.352-1.398.317-.604.477-1.302.477-2.094v-6.656c0-.791-.159-1.489-.477-2.094-.318-.604-.769-1.07-1.352-1.398-.584-.328-1.261-.492-2.031-.492s-1.448.164-2.031.492c-.584.328-1.034.795-1.352,1.398-.318.604-.477,1.303-.477,2.094v6.656c0,.792.158,1.49.477,2.094.317.604.768,1.07,1.352,1.398.583.328,1.26.492,2.031.492s1.447-.164,2.031-.492Z" stroke="#000" stroke-miterlimit="10"/>
      <path d="M1285.464,672.173h5.234l8.453,17.406-.375.406v-17.812h4.094v22.703h-5.266l-8.422-17.141.375-.406v17.547h-4.094v-22.703Z" stroke="#000" stroke-miterlimit="10"/>
    </g>
  </g>
  <g id="b" data-name="Scratchpad_-_Light">
    <g>
      <path d="M483.172,697.045v37.593h12.121v3.515h-15.634v-44.62h15.634v3.513h-12.121Z" stroke="#000" stroke-miterlimit="10" stroke-width="1.5"/>
      <path d="M1104.121,693.348v44.62h-15.635v-3.514h12.121v-37.593h-12.121v-3.514h15.635Z" stroke="#000" stroke-miterlimit="10" stroke-width="1.5"/>
    </g>
  </g>
  <g id="c" data-name="Time_Selection_Page_-_Light">
    <g>
      <rect x="434.609" y="225.321" width="143.713" height="52.826" fill="none"/>
      <path d="M454.174,253.398h-9.312v4.753l-7.804-6.189,7.804-5.92v4.535h9.312v2.821Z" stroke="#000" stroke-miterlimit="10" stroke-width="1.5"/>
      <path d="M482.588,233.998v34.455h-2.799l-16.389-29.029v29.005h-2.822v-34.285h3.082l16.106,28.528v-28.675h2.822Z" stroke="#000" stroke-miterlimit="10" stroke-width="1.5"/>
      <path d="M510.015,238.775c.65,1.305.995,2.792.995,4.3v15.379c0,1.509-.344,2.997-.995,4.299-.612,1.225-1.535,2.37-2.743,3.404-1.08.9-2.239,1.511-3.461,1.83-1.115.406-2.317.612-3.666.625h-.141c-1.508-.011-2.711-.214-3.881-.653-1.275-.479-2.408-1.129-3.372-1.932-1.223-1.048-2.146-2.194-2.757-3.416-.652-1.302-.996-2.79-.996-4.299v-15.379c0-1.51.346-2.997.996-4.299.611-1.225,1.535-2.369,2.743-3.404,1.078-.899,2.238-1.51,3.459-1.829,1.15-.42,2.397-.626,3.807-.626,1.514,0,2.869.22,4.024.655,1.272.477,2.406,1.127,3.371,1.93,1.072.918,1.923,2.033,2.616,3.415h.001ZM508.184,258.453v-15.379c0-1.072-.241-2.123-.697-3.038-.528-1.054-1.134-1.855-1.913-2.522-.706-.587-1.566-1.077-2.54-1.442-.828-.311-1.875-.474-3.032-.474-1.11,0-2.03.151-2.891.474l-.154.048c-.835.209-1.643.635-2.4,1.267-.906.776-1.599,1.625-2.041,2.51-.457.915-.698,1.964-.698,3.038v15.377c0,1.074.243,2.125.698,3.038.44.883,1.133,1.732,2.055,2.522.705.587,1.566,1.077,2.541,1.443.857.322,1.772.468,2.957.474,1.079-.006,1.977-.157,2.825-.474l.152-.048c.835-.209,1.644-.635,2.403-1.267.904-.776,1.597-1.625,2.039-2.51.456-.912.697-1.963.697-3.036h-.001Z" stroke="#000" stroke-miterlimit="10" stroke-width="1.5"/>
      <path d="M539.428,233.998v34.455h-2.799l-16.389-29.029v29.005h-2.822v-34.285h3.082l16.106,28.528v-28.675h2.822Z" stroke="#000" stroke-miterlimit="10" stroke-width="1.5"/>
      <path d="M548.66,235.579v11.569h10.159v2.822h-10.159v15.661h18.483v2.822h-21.305v-35.695h21.305v2.822h-18.483Z" stroke="#000" stroke-miterlimit="10" stroke-width="1.5"/>
    </g>
    <g>
      <rect x="425.123" y="294.682" width="735" height="38.311" fill="none"/>
      <path d="M631.828,299.165h-8.889v31.463h-2.821v-31.463h-8.889v-2.822h20.599v2.822Z" stroke="#000" stroke-miterlimit="10" stroke-width="1.5"/>
      <path d="M647.962,297.701v30.193h6.913v2.822h-16.648v-2.822h6.914v-30.193h-6.914v-2.822h16.648v2.822h-6.913Z" stroke="#000" stroke-miterlimit="10" stroke-width="1.5"/>
      <path d="M683.315,296.295v34.284h-2.822v-28.712l-6.648,11.923h-3.068l-6.65-11.923v28.712h-2.822v-34.284h2.945l8.06,14.452,8.061-14.452h2.945Z" stroke="#000" stroke-miterlimit="10" stroke-width="1.5"/>
      <path d="M692.547,297.683v11.569h10.158v2.822h-10.158v15.661h18.482v2.822h-21.304v-35.695h21.304v2.822h-18.482Z" stroke="#000" stroke-miterlimit="10" stroke-width="1.5"/>
      <path d="M753.583,316.589c.612,1.213.907,2.407.907,3.547,0,3.039-1.115,5.535-3.315,7.419-2.056,1.899-4.656,2.88-7.689,2.88h-.282c-2.86,0-5.495-1.017-7.832-3.021-1.825-1.545-2.36-2.91-2.748-3.906-.058-.145-.111-.285-.169-.419l2.593-1.113c.069.161.135.329.204.504.326.834.663,1.696,1.951,2.785,1.845,1.583,3.806,2.348,6.002,2.348h.282c2.334,0,4.237-.708,5.814-2.166,1.63-1.397,2.369-3.073,2.369-5.312,0-.694-.198-1.473-.558-2.191-.309-.506-.758-1.175-1.354-1.573-.686-.542-1.566-1.049-2.453-1.429-.576-.247-1.224-.446-1.975-.676-.416-.128-.851-.262-1.302-.412l-4.149-1.105c-2.236-.687-3.849-1.721-4.981-3.177-1.229-1.579-1.851-3.436-1.851-5.522,0-2.581,1.071-4.794,3.18-6.581,2.005-1.851,4.28-2.733,7.12-2.733h.281c2.853.165,5.234,1.143,7.161,2.909,1.465,1.301,2.351,2.857,2.692,4.739l-2.778.502c-.229-1.271-.786-2.242-1.805-3.148-1.451-1.331-3.249-2.061-5.354-2.186l-.198.003c-2.115,0-3.736.625-5.252,2.025-1.514,1.284-2.228,2.731-2.228,4.467,0,1.444.424,2.719,1.256,3.79.776.998,1.899,1.696,3.534,2.2l4.182,1.114c.513.167.925.293,1.319.415.796.244,1.545.474,2.261.78,1.124.481,2.219,1.117,3.006,1.747.963.636,1.64,1.623,2.162,2.493h-.003Z" stroke="#000" stroke-miterlimit="10" stroke-width="1.5"/>
      <path d="M763.741,297.683v11.569h10.159v2.822h-10.159v15.661h18.483v2.822h-21.305v-35.695h21.305v2.822h-18.483Z" stroke="#000" stroke-miterlimit="10" stroke-width="1.5"/>
      <path d="M810.099,327.894v2.822h-21.445v-34.285h2.821v31.463h18.624Z" stroke="#000" stroke-miterlimit="10" stroke-width="1.5"/>
      <path d="M819.355,297.683v11.569h10.159v2.822h-10.159v15.661h18.483v2.822h-21.305v-35.695h21.305v2.822h-18.483Z" stroke="#000" stroke-miterlimit="10" stroke-width="1.5"/>
      <path d="M862.251,325.711c.856-.646,1.598-1.466,2.267-2.537l2.393,1.496c-.848,1.357-1.84,2.451-3.03,3.345-.995.666-2.231,1.284-3.454,1.744-1.392.464-2.662.655-4.307.655-1.746,0-3.113-.208-4.304-.653-1.226-.408-2.341-.989-3.57-1.866-1.222-.761-2.278-1.933-2.98-3.34-.652-1.301-.996-2.788-.996-4.299v-15.379c0-1.785.574-3.176,1.136-4.299.914-1.474,1.904-2.568,3.097-3.461.991-.665,2.228-1.284,3.454-1.744,1.385-.463,2.657-.653,4.304-.653,1.749,0,3.115.209,4.305.655,1.224.406,2.34.986,3.57,1.865,1.326.996,2.32,2.16,2.98,3.48l-2.523,1.263c-.463-.927-1.177-1.756-2.124-2.466-.978-.698-1.837-1.147-2.844-1.483-.913-.341-1.966-.492-3.364-.492-1.341,0-2.316.143-3.363.492-.983.37-2.009.882-2.767,1.387-.856.645-1.597,1.466-2.268,2.537-.438.89-.772,1.792-.772,2.92v15.377c0,1.075.241,2.125.696,3.036.479.957,1.16,1.716,2.026,2.257,1.076.766,1.935,1.216,2.943,1.552.912.341,1.967.492,3.363.492,1.339,0,2.313-.143,3.363-.492.98-.369,2.008-.882,2.767-1.387l.003-.003Z" stroke="#000" stroke-miterlimit="10" stroke-width="1.5"/>
      <path d="M894.12,299.165h-8.888v31.463h-2.822v-31.463h-8.889v-2.822h20.599v2.822Z" stroke="#000" stroke-miterlimit="10" stroke-width="1.5"/>
      <path d="M910.254,297.701v30.193h6.914v2.822h-16.648v-2.822h6.913v-30.193h-6.913v-2.822h16.648v2.822h-6.914Z" stroke="#000" stroke-miterlimit="10" stroke-width="1.5"/>
      <path d="M944.614,300.879c.65,1.305.994,2.792.994,4.3v15.379c0,1.509-.344,2.997-.994,4.299-.612,1.225-1.535,2.37-2.743,3.404-1.079.9-2.239,1.511-3.461,1.83-1.114.406-2.316.612-3.665.625h-.142c-1.508-.011-2.712-.214-3.881-.653-1.275-.479-2.409-1.129-3.372-1.932-1.224-1.048-2.146-2.194-2.757-3.416-.652-1.302-.996-2.79-.996-4.299v-15.379c0-1.51.346-2.997.996-4.299.61-1.225,1.534-2.369,2.742-3.404,1.078-.899,2.238-1.51,3.46-1.829,1.149-.42,2.396-.626,3.807-.626,1.514,0,2.868.22,4.023.655,1.272.477,2.405,1.127,3.371,1.93,1.072.918,1.923,2.033,2.615,3.415h.002ZM942.784,320.556v-15.379c0-1.072-.241-2.123-.697-3.038-.527-1.054-1.135-1.855-1.913-2.522-.705-.587-1.566-1.077-2.54-1.442-.828-.311-1.875-.474-3.031-.474-1.11,0-2.03.151-2.892.474l-.153.048c-.835.209-1.643.635-2.4,1.267-.905.776-1.599,1.625-2.04,2.51-.457.915-.698,1.964-.698,3.038v15.377c0,1.074.243,2.125.698,3.038.44.883,1.133,1.732,2.055,2.522.705.587,1.565,1.077,2.541,1.443.857.322,1.771.468,2.957.474,1.079-.006,1.977-.157,2.824-.474l.152-.048c.836-.209,1.645-.635,2.403-1.267.904-.776,1.597-1.625,2.038-2.51.456-.912.697-1.963.697-3.036h0Z" stroke="#000" stroke-miterlimit="10" stroke-width="1.5"/>
      <path d="M974.027,296.101v34.455h-2.8l-16.389-29.029v29.005h-2.821v-34.285h3.081l16.106,28.528v-28.675h2.822Z" stroke="#000" stroke-miterlimit="10" stroke-width="1.5"/>
    </g>
    <g>
      <rect x="434.163" y="676.61" width="48.49" height="58.293" fill="none"/>
      <path d="M460.711,723.202h6.765l-8.859,12.077-9.257-12.077h7.09v-11.934h-7.18l9.347-11.789,8.944,11.789h-6.85v11.934Z" stroke="#000" stroke-miterlimit="10"/>
    </g>
    <g>
      <rect x="1008.78" y="225.866" width="143.713" height="52.826" fill="none"/>
      <path d="M1041.762,234.543v34.455h-2.799l-16.389-29.029v29.005h-2.822v-34.285h3.082l16.106,28.528v-28.675h2.821Z" stroke="#000" stroke-miterlimit="10" stroke-width="1.5"/>
      <path d="M1069.188,239.321c.65,1.305.995,2.792.995,4.3v15.379c0,1.509-.345,2.997-.995,4.299-.612,1.225-1.535,2.37-2.742,3.404-1.08.9-2.239,1.511-3.461,1.83-1.115.406-2.317.612-3.666.625h-.141c-1.509-.011-2.712-.214-3.882-.653-1.275-.479-2.408-1.129-3.372-1.932-1.223-1.048-2.146-2.194-2.757-3.416-.651-1.302-.996-2.79-.996-4.299v-15.379c0-1.51.346-2.997.996-4.299.611-1.225,1.535-2.369,2.743-3.404,1.078-.899,2.237-1.51,3.459-1.829,1.15-.42,2.397-.626,3.807-.626,1.515,0,2.869.22,4.024.655,1.272.477,2.405,1.127,3.37,1.93,1.072.918,1.923,2.033,2.616,3.415h0ZM1067.358,258.998v-15.379c0-1.072-.241-2.123-.696-3.038-.528-1.054-1.135-1.855-1.913-2.522-.706-.587-1.566-1.077-2.54-1.442-.828-.311-1.875-.474-3.032-.474-1.11,0-2.03.151-2.891.474l-.153.048c-.836.209-1.643.635-2.4,1.267-.905.776-1.599,1.625-2.04,2.51-.457.915-.698,1.964-.698,3.038v15.377c0,1.074.242,2.125.698,3.038.44.883,1.133,1.732,2.055,2.522.705.587,1.565,1.077,2.541,1.443.857.322,1.771.468,2.957.474,1.079-.006,1.977-.157,2.824-.474l.152-.048c.835-.209,1.644-.635,2.403-1.267.904-.776,1.597-1.625,2.038-2.51.456-.912.697-1.963.697-3.036h-.002Z" stroke="#000" stroke-miterlimit="10" stroke-width="1.5"/>
      <path d="M1098.601,234.543v34.455h-2.799l-16.389-29.029v29.005h-2.822v-34.285h3.082l16.106,28.528v-28.675h2.821Z" stroke="#000" stroke-miterlimit="10" stroke-width="1.5"/>
      <path d="M1107.834,236.125v11.569h10.158v2.822h-10.158v15.661h18.482v2.822h-21.305v-35.695h21.305v2.822h-18.482Z" stroke="#000" stroke-miterlimit="10" stroke-width="1.5"/>
      <path d="M1142.057,258.687v-4.694h-9.312v-2.822h9.312v-4.478l7.995,5.864-7.995,6.13Z" stroke="#000" stroke-miterlimit="10" stroke-width="1.5"/>
    </g>
    <g>
      <rect x="434.909" y="342.019" width="143.713" height="52.826" fill="none"/>
      <path d="M451.467,362.092h-4.63l2.331,4.1-2.455,1.394-2.3-4.048-2.3,4.048-2.455-1.394,2.33-4.1h-4.629v-2.822h4.629l-2.33-4.1,2.455-1.394,2.3,4.048,2.3-4.048,2.455,1.394-2.331,4.1h4.63v2.822Z" stroke="#000" stroke-miterlimit="10" stroke-width="1.5"/>
      <path d="M480.04,352.287v32.874h-2.822v-14.955h-16.507v14.955h-2.822v-32.874h2.822v15.097h16.507v-15.097h2.822Z" stroke="#000" stroke-miterlimit="10" stroke-width="1.5"/>
      <path d="M508.467,350.88v24.407c0,1.562-.366,3.062-1.033,4.228-.573,1.152-1.496,2.297-2.706,3.334-1.019.851-2.119,1.322-3.185,1.778-1.233.464-2.501.679-3.94.679-1.512,0-2.867-.22-4.024-.654-1.271-.476-2.406-1.126-3.37-1.929-1.026-.882-2.059-1.876-2.757-3.276-.67-1.339-.996-2.701-.996-4.158v-24.408h2.822v24.408c0,1.024.222,1.944.699,2.896.448.899,1.146,1.602,2.054,2.382.706.587,1.566,1.076,2.54,1.442.828.312,1.876.476,3.032.476,1.107,0,2.028-.151,2.89-.474.859-.371,1.727-.742,2.414-1.315.907-.779,1.6-1.627,2.04-2.51.457-.804.698-1.835.698-2.896v-24.408h2.824Z" stroke="#000" stroke-miterlimit="10" stroke-width="1.5"/>
      <path d="M536.885,362.436v9.735c0,1.931-.329,3.771-.948,5.32-.588,1.624-1.505,3.079-2.708,4.283-.91,1.067-2.076,1.905-3.396,2.413-1.301.641-2.63.964-3.952.964h-11.005v-35.836h11.005c1.459,0,2.819.325,4.158.995,1.384.693,2.496,1.543,3.404,2.602.9.896,1.717,2.256,2.496,4.205.642,1.764.947,3.491.947,5.32ZM534.063,362.436c0-1.515-.243-2.887-.762-4.314-.617-1.539-1.234-2.599-1.93-3.294-.741-.858-1.542-1.466-2.596-1.994-.951-.475-1.871-.697-2.895-.697h-8.183v30.193h8.183c.903,0,1.83-.236,2.755-.698l.136-.06c.911-.34,1.691-.901,2.387-1.712.983-.991,1.679-2.098,2.143-3.374.497-1.243.762-2.76.762-4.314v-9.735Z" stroke="#000" stroke-miterlimit="10" stroke-width="1.5"/>
    </g>
    <g>
      <rect x="1009.08" y="342.565" width="143.713" height="52.826" fill="none"/>
      <path d="M1069.791,352.833v32.874h-2.822v-14.955h-16.508v14.955h-2.821v-32.874h2.821v15.097h16.508v-15.097h2.822Z" stroke="#000" stroke-miterlimit="10" stroke-width="1.5"/>
      <path d="M1098.218,351.425v24.407c0,1.562-.366,3.062-1.033,4.228-.573,1.152-1.496,2.297-2.706,3.334-1.019.851-2.119,1.322-3.185,1.778-1.233.464-2.502.679-3.94.679-1.513,0-2.867-.22-4.024-.654-1.271-.476-2.405-1.126-3.37-1.929-1.026-.882-2.059-1.876-2.757-3.276-.671-1.339-.996-2.701-.996-4.158v-24.408h2.821v24.408c0,1.024.222,1.944.699,2.896.448.899,1.146,1.602,2.054,2.382.705.587,1.566,1.076,2.54,1.442.828.312,1.876.476,3.031.476,1.107,0,2.028-.151,2.89-.474.859-.371,1.728-.742,2.414-1.315.907-.779,1.601-1.627,2.04-2.51.457-.804.698-1.835.698-2.896v-24.408h2.824Z" stroke="#000" stroke-miterlimit="10" stroke-width="1.5"/>
      <path d="M1126.636,362.981v9.735c0,1.931-.329,3.771-.948,5.32-.588,1.624-1.506,3.079-2.709,4.283-.91,1.067-2.075,1.905-3.396,2.413-1.301.641-2.63.964-3.952.964h-11.005v-35.836h11.005c1.459,0,2.818.325,4.158.995,1.384.693,2.495,1.543,3.404,2.602.899.896,1.717,2.256,2.495,4.205.643,1.764.947,3.491.947,5.32ZM1123.813,362.981c0-1.515-.242-2.887-.762-4.314-.616-1.539-1.234-2.599-1.93-3.294-.741-.858-1.542-1.466-2.597-1.994-.95-.475-1.87-.697-2.895-.697h-8.184v30.193h8.184c.902,0,1.83-.236,2.755-.698l.136-.06c.911-.34,1.691-.901,2.388-1.712.983-.991,1.679-2.098,2.143-3.374.497-1.243.762-2.76.762-4.314v-9.735Z" stroke="#000" stroke-miterlimit="10" stroke-width="1.5"/>
      <path d="M1142.357,375.385v-4.694h-9.312v-2.822h9.312v-4.478l7.996,5.864-7.996,6.13Z" stroke="#000" stroke-miterlimit="10" stroke-width="1.5"/>
    </g>
    <g>
      <rect x="434.909" y="465.065" width="143.713" height="52.826" fill="none"/>
      <path d="M454.474,493.142h-9.312v4.753l-7.804-6.189,7.804-5.92v4.535h9.312v2.821Z" stroke="#000" stroke-miterlimit="10" stroke-width="1.5"/>
      <path d="M483.761,494.239c.417,1.106.82,2.438.82,4.364,0,1.995-.216,3.427-.679,4.507-.552,1.474-1.29,2.545-2.232,3.218-.879.833-2.062,1.37-3.438,1.562-1.139.308-2.232.308-3.386.308h-13.686v-17.193l-.282-.282v-18.502h13.402c1.164,0,2.294.172,3.268.495,1.169.333,2.369,1.03,3.232,1.894.883.883,1.662,2.021,2.133,3.121.418,1.112.82,2.444.82,4.367,0,1.903-.208,3.344-.635,4.401-.34,1.261-1.113,2.476-2.09,3.282-.192.188-.397.351-.606.506.365.251.704.506.99.745.983.818,1.846,1.988,2.369,3.208h0ZM463.7,475.041v13.683h11.147c.411,0,.824.045,1.236.089.316-.031.611-.075.858-.156l.271-.061c.783-.097,1.356-.365,1.858-.868l.117-.104c.417-.334.985-1.038,1.205-1.92l.072-.214c.299-.696.45-1.837.45-3.394,0-1.469-.296-2.462-.617-3.315-.302-.698-.89-1.556-1.511-2.177-.527-.528-1.302-.974-2.071-1.194-.737-.244-1.582-.368-2.434-.368h-10.582ZM481.284,502.06c.323-.756.474-1.899.474-3.456,0-1.47-.295-2.46-.615-3.312-.329-.765-.906-1.549-1.558-2.092-.847-.706-1.494-1.088-2.165-1.28-.421-.122-.845-.21-1.268-.272-.56.042-1.136.044-1.73.044h-10.44v13.686h10.864c1.071,0,1.919,0,2.716-.229l.213-.044c.846-.105,1.538-.406,1.999-.868l.214-.176c.49-.326.913-.98,1.295-2.002h0Z" stroke="#000" stroke-miterlimit="10" stroke-width="1.5"/>
      <path d="M513.023,485.482v9.735c0,1.931-.329,3.771-.948,5.32-.588,1.624-1.506,3.079-2.709,4.283-.91,1.067-2.076,1.905-3.396,2.413-1.301.641-2.63.964-3.952.964h-11.005v-35.836h11.005c1.459,0,2.819.325,4.158.995,1.384.693,2.496,1.543,3.404,2.602.9.896,1.717,2.256,2.496,4.205.642,1.764.947,3.491.947,5.32ZM510.201,485.482c0-1.515-.243-2.887-.762-4.314-.617-1.539-1.234-2.599-1.93-3.294-.741-.858-1.542-1.466-2.596-1.994-.951-.475-1.871-.697-2.895-.697h-8.183v30.193h8.183c.903,0,1.83-.236,2.755-.698l.136-.06c.911-.34,1.691-.901,2.387-1.712.983-.991,1.679-2.098,2.143-3.374.497-1.243.762-2.76.762-4.314v-9.735Z" stroke="#000" stroke-miterlimit="10" stroke-width="1.5"/>
      <path d="M541.584,475.333v32.874h-2.822v-14.955h-16.507v14.955h-2.822v-32.874h2.822v15.097h16.507v-15.097h2.822Z" stroke="#000" stroke-miterlimit="10" stroke-width="1.5"/>
      <path d="M557.735,475.342v30.193h6.913v2.822h-16.648v-2.822h6.914v-30.193h-6.914v-2.822h16.648v2.822h-6.913Z" stroke="#000" stroke-miterlimit="10" stroke-width="1.5"/>
    </g>
    <g>
      <rect x="1009.08" y="465.611" width="143.713" height="52.826" fill="none"/>
      <path d="M1045.729,494.784c.417,1.106.819,2.438.819,4.364,0,1.995-.216,3.427-.679,4.507-.552,1.474-1.289,2.545-2.231,3.218-.88.833-2.062,1.37-3.438,1.562-1.139.308-2.232.308-3.387.308h-13.686v-17.193l-.282-.282v-18.502h13.402c1.164,0,2.294.172,3.268.495,1.17.333,2.369,1.03,3.232,1.894.883.883,1.662,2.021,2.133,3.121.418,1.112.82,2.444.82,4.367,0,1.903-.208,3.344-.635,4.401-.341,1.261-1.113,2.476-2.09,3.282-.192.188-.397.351-.606.506.365.251.704.506.99.745.983.818,1.846,1.988,2.369,3.208h0ZM1025.668,475.587v13.683h11.147c.41,0,.823.045,1.235.089.316-.031.611-.075.858-.156l.271-.061c.783-.097,1.356-.365,1.858-.868l.117-.104c.417-.334.984-1.038,1.205-1.92l.071-.214c.3-.696.45-1.837.45-3.394,0-1.469-.296-2.462-.616-3.315-.302-.698-.891-1.556-1.512-2.177-.527-.528-1.302-.974-2.07-1.194-.737-.244-1.582-.368-2.435-.368h-10.581ZM1043.252,502.605c.323-.756.474-1.899.474-3.456,0-1.47-.295-2.46-.615-3.312-.328-.765-.905-1.549-1.558-2.092-.847-.706-1.494-1.088-2.164-1.28-.422-.122-.845-.21-1.269-.272-.56.042-1.136.044-1.729.044h-10.44v13.686h10.863c1.071,0,1.919,0,2.716-.229l.214-.044c.846-.105,1.537-.406,1.999-.868l.214-.176c.49-.326.913-.98,1.296-2.002h0Z" stroke="#000" stroke-miterlimit="10" stroke-width="1.5"/>
      <path d="M1074.991,486.027v9.735c0,1.931-.329,3.771-.948,5.32-.588,1.624-1.506,3.079-2.709,4.283-.91,1.067-2.075,1.905-3.396,2.413-1.301.641-2.63.964-3.952.964h-11.005v-35.836h11.005c1.459,0,2.818.325,4.158.995,1.384.693,2.495,1.543,3.404,2.602.899.896,1.717,2.256,2.495,4.205.643,1.764.947,3.491.947,5.32ZM1072.169,486.027c0-1.515-.242-2.887-.762-4.314-.616-1.539-1.234-2.599-1.93-3.294-.741-.858-1.542-1.466-2.597-1.994-.95-.475-1.87-.697-2.895-.697h-8.184v30.193h8.184c.902,0,1.83-.236,2.755-.698l.136-.06c.911-.34,1.691-.901,2.388-1.712.983-.991,1.679-2.098,2.143-3.374.497-1.243.762-2.76.762-4.314v-9.735Z" stroke="#000" stroke-miterlimit="10" stroke-width="1.5"/>
      <path d="M1103.553,475.879v32.874h-2.822v-14.955h-16.508v14.955h-2.821v-32.874h2.821v15.097h16.508v-15.097h2.822Z" stroke="#000" stroke-miterlimit="10" stroke-width="1.5"/>
      <path d="M1119.703,475.887v30.193h6.913v2.822h-16.648v-2.822h6.913v-30.193h-6.913v-2.822h16.648v2.822h-6.913Z" stroke="#000" stroke-miterlimit="10" stroke-width="1.5"/>
      <path d="M1142.358,498.431v-4.694h-9.312v-2.822h9.312v-4.478l7.995,5.864-7.995,6.13Z" stroke="#000" stroke-miterlimit="10" stroke-width="1.5"/>
    </g>
    <g>
      <rect x="434.909" y="593.454" width="171.215" height="52.826" fill="none"/>
      <path d="M454.474,621.531h-9.312v4.753l-7.804-6.189,7.804-5.92v4.535h9.312v2.821Z" stroke="#000" stroke-miterlimit="10" stroke-width="1.5"/>
      <path d="M474.881,622.294l8.149,13.497v.817h-2.112l-.507.306-8.622-14.277c-.062,0-.127.004-.188.004h-7.902v13.968h-2.822v-34.426h10.582c1.628,0,3.239.336,4.666.968,1.531.682,2.777,1.516,3.81,2.55.838.837,1.458,1.923,2.06,2.973l.075.149c.559,1.307.82,2.47.82,3.66,0,1.236-.284,2.55-.82,3.801-.472,1.101-1.251,2.239-2.134,3.122-.816.815-2.135,1.903-3.795,2.458-.417.187-.837.323-1.259.432h0ZM463.7,605.004v14.814h7.902c1.586,0,2.572-.165,3.518-.584,1.016-.346,1.971-.975,2.82-1.824.629-.631,1.205-1.469,1.537-2.24.386-.901.591-1.831.591-2.688,0-.788-.173-1.554-.56-2.476-.52-.908-1.009-1.755-1.566-2.312-.797-.797-1.738-1.423-2.961-1.967-1.066-.473-2.283-.725-3.519-.725h-7.761Z" stroke="#000" stroke-miterlimit="10" stroke-width="1.5"/>
      <path d="M510.044,605.194h-8.889v31.463h-2.821v-31.463h-8.889v-2.821h20.599v2.821Z" stroke="#000" stroke-miterlimit="10" stroke-width="1.5"/>
      <path d="M519.265,603.712v11.569h10.158v2.822h-10.158v15.66h18.482v2.822h-21.304v-35.695h21.304v2.821h-18.482Z" stroke="#000" stroke-miterlimit="10" stroke-width="1.5"/>
      <path d="M560.326,617.194l-.948,6.772h4.268v2.822h-4.663l-1.263,9.029h-2.822l.014-.621,1.171-8.408h-5.044l-1.219,9.029h-2.822l.013-.613,1.131-8.416h-3.966v-2.822h4.345l.91-6.772h-4.127v-2.821h4.506l1.137-8.466h2.822l-.013.755-1.041,7.711h5.096l1.178-8.466h2.822l-.014.763-1.078,7.703h4.053v2.821h-4.448ZM556.477,623.967l.942-6.772h-5.084l-.915,6.772h5.057Z" stroke="#000" stroke-miterlimit="10" stroke-width="1.5"/>
      <path d="M587.325,617.194l-.948,6.772h4.268v2.822h-4.663l-1.263,9.029h-2.822l.014-.621,1.171-8.408h-5.044l-1.219,9.029h-2.822l.013-.613,1.131-8.416h-3.966v-2.822h4.345l.91-6.772h-4.127v-2.821h4.506l1.137-8.466h2.822l-.013.755-1.041,7.711h5.096l1.178-8.466h2.822l-.014.763-1.078,7.703h4.053v2.821h-4.448ZM583.475,623.967l.942-6.772h-5.084l-.915,6.772h5.057Z" stroke="#000" stroke-miterlimit="10" stroke-width="1.5"/>
    </g>
    <g>
      <rect x="970.435" y="594" width="182.358" height="52.826" fill="none"/>
      <path d="M1019.946,622.84l8.149,13.497v.817h-2.112l-.507.306-8.621-14.277c-.062,0-.127.004-.188.004h-7.902v13.968h-2.821v-34.426h10.581c1.629,0,3.239.336,4.666.968,1.531.682,2.777,1.516,3.81,2.55.838.837,1.459,1.923,2.06,2.973l.075.149c.559,1.307.82,2.47.82,3.66,0,1.236-.284,2.55-.82,3.801-.473,1.101-1.252,2.239-2.135,3.122-.815.815-2.135,1.903-3.795,2.458-.417.187-.837.323-1.259.432h0ZM1008.765,605.55v14.814h7.902c1.586,0,2.572-.165,3.518-.584,1.016-.346,1.971-.975,2.82-1.824.629-.631,1.205-1.469,1.537-2.24.386-.901.591-1.831.591-2.688,0-.788-.174-1.554-.561-2.476-.52-.908-1.009-1.755-1.565-2.312-.798-.797-1.738-1.423-2.962-1.967-1.066-.473-2.283-.725-3.519-.725h-7.762Z" stroke="#000" stroke-miterlimit="10" stroke-width="1.5"/>
      <path d="M1055.109,605.74h-8.889v31.463h-2.821v-31.463h-8.89v-2.821h20.6v2.821Z" stroke="#000" stroke-miterlimit="10" stroke-width="1.5"/>
      <path d="M1064.33,604.258v11.569h10.158v2.822h-10.158v15.66h18.482v2.822h-21.305v-35.695h21.305v2.821h-18.482Z" stroke="#000" stroke-miterlimit="10" stroke-width="1.5"/>
      <path d="M1099.171,634.431v2.821h-9.029v-2.821h3.104v-28.956l-2.206,1.826-1.799-2.174,4.482-3.71h2.344v33.014h3.104Z" stroke="#000" stroke-miterlimit="10" stroke-width="1.5"/>
      <path d="M1126.63,601.418v3.992l-14.532,30.05v.383h-2.822v-1.029l14.532-30.05v-.523h-18.2v-2.822h21.022Z" stroke="#000" stroke-miterlimit="10" stroke-width="1.5"/>
      <path d="M1142.358,626.82v-4.694h-9.312v-2.821h9.312v-4.479l7.996,5.864-7.996,6.13Z" stroke="#000" stroke-miterlimit="10" stroke-width="1.5"/>
    </g>
    <g>
      <rect x="434.909" y="403.542" width="193.503" height="52.826" fill="none"/>
      <path d="M458.689,418.911c.559,1.301.82,2.465.82,3.66,0,1.24-.284,2.554-.82,3.803-.471,1.097-1.249,2.236-2.133,3.12-.815.816-2.135,1.904-3.795,2.458-1.543.691-3.335.777-4.539.777h-8.04v13.968h-2.822v-34.425h10.723c1.697,0,3.179.308,4.666.968,1.528.681,2.774,1.515,3.81,2.549.885.884,1.662,2.022,2.133,3.123h-.001ZM456.099,425.26c.386-.9.591-1.83.591-2.689,0-.812-.182-1.597-.591-2.548-.326-.76-.915-1.618-1.535-2.239-.799-.797-1.739-1.422-2.961-1.966-1.127-.501-2.212-.725-3.519-.725h-7.9v14.814h8.04c1.525,0,2.609-.179,3.519-.584,1.016-.346,1.971-.975,2.82-1.824.622-.622,1.21-1.479,1.535-2.239h.001Z" stroke="#000" stroke-miterlimit="10" stroke-width="1.5"/>
      <path d="M472.202,424.981c1.537-.854,3.084-.854,4.583-.854v2.822c-1.293,0-2.315,0-3.266.527-.808.405-1.35,1.107-2.029,2.195-1.471,2.504-2.465,4.671-2.465,7.012v10.017h-2.822v-17.918c0-.581-.167-2.953-.278-4.406l2.813-.216c.024.331.223,2.917.274,4.162.022-.036.042-.076.064-.113.776-1.241,1.638-2.484,3.125-3.228h0Z" stroke="#000" stroke-miterlimit="10" stroke-width="1.5"/>
      <path d="M483.221,417.925c0-1.636,1.263-2.962,2.822-2.962s2.822,1.327,2.822,2.962-1.263,2.963-2.822,2.963-2.822-1.327-2.822-2.963ZM484.632,446.707v-22.433h2.822v22.433h-2.822Z" stroke="#000" stroke-miterlimit="10" stroke-width="1.5"/>
      <path d="M520.942,430.999c.297,2.243.153,4.039.148,4.114l.004,11.593h-2.822v-11.71c.006-.13.128-1.699-.128-3.623-.236-1.768-.67-2.972-1.366-3.783-.545-.635-1.558-.918-2.315-.918s-1.631.426-2.174,1.06c-1.649,1.886-2.482,4.421-2.482,7.547v11.428h-2.963v-11.71c.007-.13.128-1.699-.128-3.623-.235-1.768-.67-2.972-1.366-3.783-.544-.635-1.558-.918-2.315-.918s-1.631.426-2.175,1.06c-1.649,1.885-2.481,4.42-2.481,7.547v11.428h-2.822v-11.428c0-.096.01-.188.01-.282h-.151v-7.524c-.137-1.081-.141-2.979-.141-3.198h2.822c0,.44.014,1.521.07,2.321.181-.242.363-.482.562-.71,1.071-1.25,2.725-2.033,4.307-2.033,1.365,0,3.253.499,4.457,1.903.515.6.925,1.305,1.253,2.129.402-.714.872-1.383,1.411-2,1.072-1.25,2.726-2.033,4.307-2.033,1.366,0,3.254.499,4.457,1.903,1.067,1.246,1.708,2.913,2.021,5.247v-.002Z" stroke="#000" stroke-miterlimit="10" stroke-width="1.5"/>
      <path d="M545.094,445.576h-2.822v-.085c-.154-.288-.262-.582-.332-1.123-1.254,1.216-2.83,2.015-4.657,2.319-.343.039-.677.059-1.007.059-1.417,0-2.77-.362-4.477-1.159-.797-.393-2.629-1.302-3.647-3.508-.924-2.217-.516-4.297-.369-4.885.621-3.436,3.256-5.164,4.248-5.814l.147-.096c.382-.289.804-.484,1.144-.64.148-.068.289-.125.409-.207l.275-.144c1.941-.747,4.45-1.112,7.633-1.108-.194-.974-.774-1.784-.93-1.939l-.103-.116c-.823-1.029-1.859-1.37-2.249-1.499-1.065-.291-2.16-.285-3.539.02-1.127.226-2.064.545-2.816.802l-.43.147c-.234.095-.481.22-.698.329-.313.158-.584.288-.854.377l-.893-2.677c.154-.051.305-.134.484-.223.277-.138.594-.296.99-.454l.488-.168c.831-.284,1.864-.636,3.145-.893,1.119-.247,2.876-.523,4.88.022.666.218,2.311.76,3.65,2.402.564.599,1.582,2.126,1.758,4.052l.003,1.115h.003c0,.098.008.299.02.583.069,1.725.107,3.595.04,5.361.006.348.011.712.019,1.051.032,1.685.063,3.262.063,4.715,0,1.575.08,1.924.095,1.979.107.181.233.434.309.892l.02.515v-.004ZM536.897,443.896c1.702-.287,3.085-1.208,4.038-2.732.301-.464.71-1.667.831-4.807-.025-1.388-.047-2.833-.052-4.349-2.744-.061-4.976.287-6.575.875-.196.117-.409.219-.636.323-.262.122-.491.226-.697.381l-.229.153c-.849.556-2.614,1.714-3.039,4.048-.059.252-.399,1.724.196,3.156.582,1.254,1.68,1.798,2.209,2.061,1.917.896,2.927,1,3.952.889h.001Z" stroke="#000" stroke-miterlimit="10" stroke-width="1.5"/>
      <path d="M557.803,424.981c1.537-.854,3.084-.854,4.583-.854v2.822c-1.293,0-2.315,0-3.266.527-.808.405-1.35,1.107-2.029,2.195-1.471,2.504-2.465,4.671-2.465,7.012v10.017h-2.822v-17.918c0-.581-.167-2.953-.278-4.406l2.813-.216c.024.331.223,2.917.274,4.162.022-.036.042-.076.064-.113.776-1.241,1.638-2.484,3.125-3.228h0Z" stroke="#000" stroke-miterlimit="10" stroke-width="1.5"/>
      <path d="M585.412,424.273h2.599v.667l-.082.229c-.271.76-6.646,18.666-7.213,20.085-.279.693-1.304,3.118-2.852,5.244-1.335,1.837-2.96,3.843-4.883,4.806-1.741.868-2.909,1.31-2.957,1.328l-.993-2.642c.011-.004,1.092-.413,2.688-1.21,1.388-.694,2.793-2.47,3.863-3.941.515-.708.991-1.508,1.408-2.289l-8.167-21.597v-.68h2.53l.202-.077,7.05,18.639c1.301-3.566,4.65-12.95,6.584-18.384l.063-.179c.007-.019.013-.034.019-.051l.143.051h0Z" stroke="#000" stroke-miterlimit="10" stroke-width="1.5"/>
    </g>
    <g>
      <rect x="922.933" y="404.088" width="229.86" height="52.826" fill="none"/>
      <path d="M953.034,433.252c.612,1.213.907,2.407.907,3.547,0,3.039-1.114,5.535-3.315,7.419-2.056,1.899-4.656,2.88-7.689,2.88h-.282c-2.859,0-5.495-1.017-7.831-3.021-1.826-1.545-2.361-2.91-2.749-3.906-.058-.145-.111-.285-.169-.419l2.593-1.113c.069.161.136.329.205.504.325.834.663,1.696,1.951,2.785,1.844,1.583,3.805,2.348,6.002,2.348h.282c2.333,0,4.236-.708,5.813-2.166,1.63-1.397,2.369-3.073,2.369-5.312,0-.694-.197-1.473-.557-2.191-.31-.506-.758-1.175-1.354-1.573-.687-.542-1.566-1.049-2.454-1.429-.575-.247-1.223-.446-1.974-.676-.416-.128-.851-.262-1.303-.412l-4.149-1.105c-2.235-.687-3.849-1.721-4.981-3.177-1.229-1.579-1.851-3.436-1.851-5.522,0-2.581,1.07-4.794,3.18-6.581,2.005-1.851,4.28-2.733,7.121-2.733h.28c2.853.165,5.234,1.143,7.162,2.909,1.464,1.301,2.351,2.857,2.691,4.739l-2.777.502c-.23-1.271-.786-2.242-1.805-3.148-1.452-1.331-3.25-2.061-5.354-2.186l-.199.003c-2.114,0-3.735.625-5.251,2.025-1.514,1.284-2.228,2.731-2.228,4.467,0,1.444.423,2.719,1.255,3.79.776.998,1.899,1.696,3.535,2.2l4.182,1.114c.512.167.924.293,1.319.415.795.244,1.545.474,2.26.78,1.125.481,2.22,1.117,3.007,1.747.962.636,1.64,1.623,2.161,2.493h-.003Z" stroke="#000" stroke-miterlimit="10" stroke-width="1.5"/>
      <path d="M979.983,436.224h-16.784c.161,5.134,3.244,8.183,8.318,8.183,2.54,0,4.349-.453,5.249-.745.849-.419,1.308-.577,1.358-.594l.447,1.339.454,1.336c-.052.018-.416.152-1.094.491l-.183.076c-1.258.419-3.357.918-6.232.918-6.771,0-11.146-4.486-11.146-11.428,0-7.597,3.956-12.133,10.581-12.133,7.423,0,9.03,8.935,9.03,11.146v1.411ZM976.992,433.403c-.466-2.473-2.015-6.913-6.039-6.913-5.229,0-7.091,3.368-7.599,6.913h13.638Z" stroke="#000" stroke-miterlimit="10" stroke-width="1.5"/>
      <path d="M1003.031,443.255l1.146,2.579-.78.346c-.653.992-2.568,1.045-5.859,1.045-6.771,0-11.146-4.542-11.146-11.569,0-7.173,4.82-11.992,11.993-11.992,1.552,0,3.689.267,4.582.714.511.255,1.148.51,1.163.516l-1.05,2.619s-.765-.308-1.376-.613c-.324-.145-1.838-.416-3.319-.416-5.572,0-9.171,3.599-9.171,9.17,0,5.477,3.112,8.748,8.324,8.748,2.191,0,3.191-.082,3.636-.144.2-.244.463-.405.714-.489l1.145-.515h0Z" stroke="#000" stroke-miterlimit="10" stroke-width="1.5"/>
      <path d="M1031.478,435.366c0,6.536-4.685,11.852-10.441,11.852s-10.44-5.317-10.44-11.852,4.685-11.851,10.44-11.851,10.441,5.316,10.441,11.851ZM1028.656,435.366c0-4.979-3.417-9.03-7.619-9.03s-7.618,4.051-7.618,9.03,3.417,9.03,7.618,9.03,7.619-4.051,7.619-9.03Z" stroke="#000" stroke-miterlimit="10" stroke-width="1.5"/>
      <path d="M1056.074,431.546c.39,1.946.217,3.624.153,4.097v11.61h-2.822l.021-11.942c0-.01.229-1.488-.133-3.301-.226-1.67-.81-2.861-1.803-3.73-.738-.645-2.146-1.061-3.587-1.061-1.221,0-2.467.446-3.508,1.255-2.151,1.813-3.265,4.298-3.265,7.351v11.428h-2.821v-11.428c0-.086.011-.166.013-.251l-.152.004s-.143-5.811-.143-7.653c0-.929-.138-2.988-.138-3.01l2.815-.188c.006.089.144,2.174.144,3.197v.197c.517-.661,1.105-1.278,1.772-1.841,1.577-1.228,3.437-1.883,5.282-1.883,2.149,0,4.184.658,5.443,1.76,1.508,1.321,2.427,3.134,2.728,5.39h0Z" stroke="#000" stroke-miterlimit="10" stroke-width="1.5"/>
      <path d="M1083.471,446.813h-2.821v-.706l-.022-2.655c-1.884,2.316-4.587,3.782-7.596,3.782-5.678,0-10.299-5.19-10.299-11.569s4.621-11.569,10.299-11.569c2.936,0,5.581,1.393,7.459,3.613l-.122-13.899,2.822-.026.282,33.027h-.002ZM1080.51,435.666c0-4.824-3.354-8.747-7.479-8.747s-7.478,3.923-7.478,8.747,3.355,8.748,7.478,8.748,7.479-3.923,7.479-8.748Z" stroke="#000" stroke-miterlimit="10" stroke-width="1.5"/>
      <path d="M1107.406,446.121h-2.822v-.085c-.153-.288-.262-.582-.331-1.123-1.255,1.216-2.83,2.015-4.657,2.319-.343.039-.677.059-1.008.059-1.416,0-2.77-.362-4.477-1.159-.797-.393-2.629-1.302-3.647-3.508-.924-2.217-.516-4.297-.369-4.885.621-3.436,3.257-5.164,4.248-5.814l.147-.096c.382-.289.804-.484,1.144-.64.148-.068.289-.125.409-.207l.275-.144c1.941-.747,4.45-1.112,7.633-1.108-.194-.974-.775-1.784-.931-1.939l-.103-.116c-.822-1.029-1.859-1.37-2.249-1.499-1.065-.291-2.159-.285-3.538.02-1.128.226-2.064.545-2.816.802l-.431.147c-.233.095-.48.22-.698.329-.312.158-.584.288-.854.377l-.893-2.677c.153-.051.305-.134.484-.223.277-.138.594-.296.989-.454l.488-.168c.831-.284,1.864-.636,3.146-.893,1.119-.247,2.876-.523,4.88.022.666.218,2.311.76,3.65,2.402.564.599,1.581,2.126,1.758,4.052l.003,1.115h.003c0,.098.008.299.02.583.069,1.725.107,3.595.039,5.361.006.348.012.712.019,1.051.032,1.685.063,3.262.063,4.715,0,1.575.079,1.924.095,1.979.107.181.232.434.309.892l.02.515.002-.004ZM1099.209,444.442c1.702-.287,3.085-1.208,4.038-2.732.301-.464.71-1.667.831-4.807-.025-1.388-.047-2.833-.053-4.349-2.744-.061-4.976.287-6.574.875-.196.117-.409.219-.637.323-.262.122-.491.226-.696.381l-.229.153c-.849.556-2.614,1.714-3.039,4.048-.059.252-.398,1.724.196,3.156.581,1.254,1.681,1.798,2.21,2.061,1.917.896,2.927,1,3.952.889h0Z" stroke="#000" stroke-miterlimit="10" stroke-width="1.5"/>
      <path d="M1120.115,425.527c1.536-.854,3.084-.854,4.582-.854v2.822c-1.293,0-2.314,0-3.266.527-.809.405-1.351,1.107-2.029,2.195-1.471,2.504-2.465,4.671-2.465,7.012v10.017h-2.821v-17.918c0-.581-.167-2.953-.278-4.406l2.813-.216c.024.331.223,2.917.274,4.162.022-.036.042-.076.064-.113.776-1.241,1.638-2.484,3.125-3.228h0Z" stroke="#000" stroke-miterlimit="10" stroke-width="1.5"/>
      <path d="M1147.725,424.819h2.599v.667l-.082.229c-.271.76-6.646,18.666-7.214,20.085-.279.693-1.304,3.118-2.852,5.244-1.335,1.837-2.96,3.843-4.883,4.806-1.741.868-2.909,1.31-2.957,1.328l-.993-2.642c.011-.004,1.092-.413,2.688-1.21,1.388-.694,2.793-2.47,3.863-3.941.515-.708.99-1.508,1.407-2.289l-8.167-21.597v-.68h2.529l.202-.077,7.05,18.639c1.301-3.566,4.65-12.95,6.585-18.384l.063-.179c.007-.019.013-.034.019-.051l.143.051h0Z" stroke="#000" stroke-miterlimit="10" stroke-width="1.5"/>
    </g>
  </g>
  <g id="d" data-name="Time_Selection_Page_-_Light">
    <path d="M446.551,229.907l-66.795-36.941-3.526,12.529L110.262,120.746c1.365-4.467,2.176-9.18,2.321-14.069.878-29.571-22.466-54.343-52.037-55.22S6.203,73.922,5.326,103.493c-.878,29.57,22.466,54.342,52.037,55.22,21.535.639,40.512-11.574,49.582-29.676l266.874,85.025-3.526,12.529,76.257,3.316ZM57.6,150.717c-25.202-.748-45.026-21.785-44.278-46.986.748-25.202,21.785-45.026,46.986-44.278,25.202.748,45.026,21.785,44.278,46.986-.748,25.202-21.785,45.026-46.986,44.278Z" stroke="#fff" stroke-miterlimit="10" stroke-width="2"/>
    <path d="M437.812,364.277l-67.862-34.943-3.152,12.628-255.668-69.654c1.232-4.506,1.902-9.241,1.902-14.132,0-29.584-24.068-53.652-53.652-53.652s-53.652,24.068-53.652,53.652,24.068,53.652,53.652,53.652c21.544,0,40.151-12.771,48.68-31.134l256.581,69.903-3.152,12.628,76.322,1.052ZM59.381,303.828c-25.213,0-45.652-20.439-45.652-45.652,0-25.213,20.439-45.652,45.652-45.652s45.652,20.439,45.652,45.652c0,25.213-20.439,45.652-45.652,45.652Z" stroke="#fff" stroke-miterlimit="10" stroke-width="2"/>
    <path d="M358.265,643.845l4.146,12.337-256.219,93.535c-9.96-17.628-29.523-28.88-50.999-27.168-29.49,2.35-51.571,28.255-49.221,57.745,2.35,29.49,28.255,51.571,57.745,49.221,29.49-2.35,51.57-28.255,49.22-57.745-.389-4.876-1.433-9.542-3.019-13.936l255.328-93.214,4.146,12.337,64.871-40.223-75.997,7.112ZM104.962,772.405c2.003,25.133-16.748,47.132-41.881,49.135-25.133,2.003-47.132-16.748-49.135-41.881-2.003-25.133,16.748-47.132,41.881-49.135s47.132,16.748,49.135,41.881Z" stroke="#fff" stroke-miterlimit="10" stroke-width="2"/>
    <path d="M361.49,508.116l3.152,12.628-256.581,69.903c-8.529-18.363-27.136-31.134-48.68-31.134-29.584,0-53.652,24.068-53.652,53.652s24.068,53.652,53.652,53.652,53.652-24.068,53.652-53.652c0-4.891-.67-9.626-1.902-14.132l255.668-69.654,3.152,12.628,67.862-34.943-76.322,1.052ZM105.033,613.165c0,25.213-20.439,45.652-45.652,45.652s-45.652-20.439-45.652-45.652c0-25.213,20.439-45.652,45.652-45.652s45.652,20.439,45.652,45.652Z" stroke="#fff" stroke-miterlimit="10" stroke-width="2"/>
    <path d="M67.699,124.93v4.607h-14.744v-4.607h5.068v-47.279l-3.601,2.981-2.938-3.55,7.319-6.057h3.827v53.905h5.068Z" fill="#ff8500" stroke="#ff8500" stroke-miterlimit="10"/>
    <path d="M47.663,277.906h28.483v4.607h-34.786v-4.591l6.056-6.609c3.175-3.536,6.086-6.778,8.851-9.727,1.373-1.373,2.749-2.979,4.078-4.531,1.389-1.62,6.939-7.865,6.939-7.865.629-.634.983-1.081,1.221-1.375.141-.177.26-.32.359-.431.675-.859,1.242-1.947,1.643-3.149.38-1.14.574-2.053.574-3.879,0-1.569-.325-3.124-.965-4.621-.583-1.546-1.511-2.661-2.737-3.887-1.398-1.152-2.723-1.981-4.018-2.465-3.705-1.389-6.199-1.387-9.899,0-1.695.636-2.972,1.419-4.02,2.467-1.209,1.209-2.182,2.589-2.737,3.886l-4.234-1.815c.792-1.85,2.078-3.693,3.713-5.329,1.511-1.509,3.361-2.661,5.66-3.522,4.713-1.774,8.411-1.774,13.136,0,2.356.885,4.269,2.354,5.503,3.382,1.511,1.5,3.022,3.209,3.907,5.568.85,1.975,1.299,4.14,1.299,6.338,0,2.423-.311,3.838-.811,5.337-.578,1.737-1.431,3.338-2.46,4.626l-.315.375c-.309.387-.772.965-1.468,1.659.005,0-5.425,6.109-6.791,7.704-1.387,1.617-2.82,3.29-4.267,4.737-2.693,2.873-5.582,6.091-8.733,9.6l-3.179,3.513-.002-.002Z" fill="#ff8500" stroke="#ff8500" stroke-miterlimit="10"/>
    <path d="M1543.321,585.198v6.517l-23.729,49.067v.624h-4.607v-1.679l23.729-49.067v-.854h-29.719v-4.607h34.326Z" fill="#ff8500" stroke="#ff8500" stroke-miterlimit="10"/>
    <path d="M1533.457,256.101c1.283,2.244,1.456,4.4,1.456,6.211v2.073c0,1.949-.426,3.847-1.339,5.976l-.117.235c-1.053,1.845-2.394,3.451-3.98,4.773-1.451,1.209-3.38,2.269-5.734,3.151-1.917.719-4.14,1.069-6.798,1.069-2.276,0-4.492-.477-6.55-.991l-.249-.078c-2.354-.882-4.285-1.944-5.733-3.151-1.588-1.323-2.926-2.931-3.981-4.773-1.283-2.244-1.456-4.398-1.456-6.211-.016-.32-.451-10.42,1.205-17.999,2.214-9.581,12.629-20.001,19.301-23.851l2.302,3.99c-5.919,3.414-15.29,13.007-17.105,20.87-.302,1.377-.525,2.868-.693,4.372.392-.343.804-.672,1.234-.988,1.217-.974,3.571-2.32,5.568-2.891,2.007-.576,10.556-.613,12.959.288,2.352.882,4.282,1.944,5.733,3.154,1.587,1.322,2.928,2.93,3.981,4.773l-.003-.002ZM1530.31,264.39v-2.073c0-1.755-.237-2.856-.848-3.925-.779-1.364-1.765-2.55-2.931-3.52-1.039-.866-2.562-1.689-4.402-2.377-1.351-.479-8.733-.525-10.081-.173-1.325.38-3.124,1.396-4.027,2.117-2.765,2.029-4.435,4.762-4.435,7.185h-.058c.01,1.606.056,2.631.056,2.661.002,1.862.239,2.96.85,4.029.781,1.364,1.768,2.55,2.931,3.52,1.012.846,2.49,1.649,4.28,2.332,1.732.431,3.568.82,5.301.82,2.097,0,3.79-.253,5.182-.774,1.843-.693,3.365-1.513,4.402-2.377,1.133-.942,2.096-2.089,2.865-3.407.629-1.5.912-2.748.912-4.036h.003Z" fill="#ff8500" stroke="#ff8500" stroke-miterlimit="10"/>
    <path d="M1535.33,789.444c0,9.146-8.268,16.587-18.43,16.587s-18.43-7.441-18.43-16.587c0-6.181,3.782-11.574,9.369-14.426-4.527-2.677-7.526-7.289-7.526-12.528,0-8.256,7.441-14.974,16.587-14.974s16.587,6.718,16.587,14.974c0,5.239-3.002,9.852-7.526,12.528,5.587,2.852,9.369,8.245,9.369,14.426ZM1530.723,789.444c0-6.604-6.199-11.979-13.822-11.979s-13.822,5.375-13.822,11.979,6.199,11.979,13.822,11.979,13.822-5.375,13.822-11.979ZM1516.9,772.859c6.604,0,11.979-4.65,11.979-10.366s-5.375-10.367-11.979-10.367-11.979,4.651-11.979,10.367,5.375,10.366,11.979,10.366Z" fill="#ff8500" stroke="#ff8500" stroke-miterlimit="10"/>
    <path d="M1537.875,102.576c.876,2.046,1.339,4.193,1.339,6.209v11.288c0,2.018-.463,4.163-1.339,6.206-.853,1.993-2.262,3.902-3.865,5.238-1.235,1.03-3.149,2.498-5.504,3.382-2.366.888-4.455,1.3-6.57,1.3-2.407,0-5.418-.521-7.489-1.297-2.299-.864-4.149-2.016-5.658-3.524-1.451-1.196-2.858-3.105-3.713-5.099-.517-1.022-.795-2.133-1.039-3.112l-.069-.56v-2.073h4.607v1.79c.187.741.368,1.396.677,2.016.634,1.472,1.576,2.753,2.641,3.64,1.202,1.188,2.479,1.972,4.172,2.607,1.553.581,4.024,1.005,5.872,1.005,1.566,0,3.094-.312,4.951-1.007,1.292-.486,2.619-1.313,4.172-2.607,1.062-.888,2.004-2.171,2.582-3.516.632-1.475.966-2.993.966-4.392v-11.288c0-1.398-.334-2.916-.966-4.393-.575-1.346-1.518-2.627-2.582-3.514-1.203-1.187-2.479-1.972-4.172-2.605l-.705-.271c-1.288-.505-1.878-.735-4.246-.735-2.889,0-5.204.617-7.286,1.944-1.556.973-2.931,2.348-3.892,3.885l-.677,1.082h-6.114v-26.723h34.786v4.607h-30.179v16.301c1.055-1.18,2.276-2.212,3.617-3.05,2.799-1.783,5.994-2.654,9.744-2.654,3.08,0,4.258.398,5.923,1.051l.646.249c2.299.861,4.148,2.013,5.657,3.522,1.449,1.195,2.859,3.103,3.714,5.096v.002Z" fill="#ff8500" stroke="#ff8500" stroke-miterlimit="10"/>
    <path d="M75.29,613.306c.871,2.034,1.297,5.965,1.297,7.95,0,2.124,0,3.527-1,7.275-.882,3.522-2.69,5.894-4.052,7.255-1.522,1.521-4.432,3.462-6.828,4.062-2.26.76-5.951.76-7.932.76-2.341,0-6.397-1.32-8.049-2.027-1.933-.829-5.561-3.275-7.766-5.233l3.062-3.444c1.928,1.714,5.197,3.875,6.52,4.443,1.521.652,4.884,1.657,6.234,1.657,1.599,0,4.925,0,6.644-.574,1.474-.375,3.665-1.707,4.858-2.9.949-.946,2.216-2.612,2.85-5.148.853-3.198.853-4.114.853-6.121,0-2.046-.468-5.077-.965-6.236-.567-1.502-1.255-2.645-2.417-4.038-1.011-1.215-2.115-2.083-3.283-2.583-1.449-.622-2.983-1.198-4.391-1.198h-6.22v-5.017l13.689-15.486h-21.061v-4.607h26.032v5.936l-12.873,14.564h.433c2.246,0,4.398.793,6.206,1.569,1.841.79,3.527,2.092,5.008,3.867,1.5,1.797,2.442,3.375,3.154,5.273l-.002.002Z" fill="#ff8500" stroke="#ff8500" stroke-miterlimit="10"/>
    <path d="M69.925,784.856h6.22v4.607h-6.22v11.519h-4.607v-11.519h-23.959v-5.016l23.805-39.677h4.759v40.082l.002.003ZM65.315,753.469l-18.831,31.384h18.831v-31.384Z" fill="#ff8500" stroke="#ff8500" stroke-miterlimit="10"/>
    <path d="M1212.081,226.591l-3.526-12.529,266.874-85.025c9.07,18.102,28.048,30.315,49.582,29.676,29.571-.878,52.915-25.649,52.037-55.22-.878-29.571-25.649-52.915-55.22-52.037s-52.914,25.649-52.037,55.22c.145,4.889.956,9.602,2.321,14.069l-265.968,84.749-3.526-12.529-66.795,36.941,76.257-3.316ZM1477.788,106.439c-.748-25.202,19.076-46.238,44.278-46.986,25.202-.748,46.238,19.076,46.986,44.278.748,25.202-19.076,46.238-44.278,46.986s-46.238-19.076-46.986-44.278Z" stroke="#fff" stroke-miterlimit="10" stroke-width="2"/>
    <path d="M1220.884,363.224l-3.152-12.628,256.581-69.903c8.529,18.363,27.136,31.134,48.68,31.134,29.584,0,53.652-24.068,53.652-53.652s-24.068-53.652-53.652-53.652c-29.583,0-53.652,24.068-53.652,53.652,0,4.891.67,9.626,1.902,14.132l-255.668,69.654-3.152-12.628-67.862,34.943,76.322-1.052ZM1477.341,258.176c0-25.213,20.439-45.652,45.652-45.652,25.213,0,45.652,20.439,45.652,45.652,0,25.213-20.439,45.652-45.652,45.652-25.213,0-45.652-20.439-45.652-45.652Z" stroke="#fff" stroke-miterlimit="10" stroke-width="2"/>
    <path d="M1148.112,636.733l64.871,40.223,4.146-12.337,255.328,93.214c-1.586,4.394-2.631,9.06-3.019,13.936-2.35,29.49,19.73,55.395,49.22,57.745,29.49,2.35,55.395-19.73,57.745-49.221,2.35-29.49-19.73-55.394-49.221-57.745-21.476-1.712-41.039,9.541-50.999,27.168l-256.219-93.535,4.146-12.337-75.997-7.112ZM1526.546,730.524c25.133,2.003,43.884,24.001,41.881,49.135-2.003,25.133-24.001,43.884-49.135,41.881s-43.884-24.001-41.881-49.135c2.003-25.133,24.001-43.884,49.135-41.881Z" stroke="#fff" stroke-miterlimit="10" stroke-width="2"/>
    <path d="M1144.562,507.064l67.862,34.943,3.152-12.628,255.668,69.654c-1.232,4.506-1.902,9.241-1.902,14.132,0,29.584,24.068,53.652,53.652,53.652s53.652-24.068,53.652-53.652-24.068-53.652-53.652-53.652c-21.544,0-40.151,12.771-48.68,31.134l-256.581-69.903,3.152-12.628-76.322-1.052ZM1522.993,567.512c25.213,0,45.652,20.439,45.652,45.652,0,25.213-20.439,45.652-45.652,45.652s-45.652-20.439-45.652-45.652c0-25.213,20.439-45.652,45.652-45.652Z" stroke="#fff" stroke-miterlimit="10" stroke-width="2"/>
  </g>
</svg>