<?xml version="1.0" encoding="UTF-8"?>
<svg xmlns="http://www.w3.org/2000/svg" width="1584.293" height="1072.174" viewBox="0 0 1584.293 1072.174">
  <g id="a" data-name="CDNU_-_Light">
    <path d="M1403.61,903.706l-1222.305.984c-5.445.004-9.861-4.411-9.856-9.857l.667-725.918c.005-5.432,4.408-9.834,9.84-9.839l1222.305-.984c5.445-.004,9.861,4.411,9.856,9.857l-.667,725.918c-.005,5.432-4.408,9.834-9.84,9.839Z" fill="none" stroke="#000" stroke-miterlimit="10" stroke-width="11"/>
    <polyline points="785.123 902.825 1331.623 903.324 1331.623 653.747 1406.623 653.747 1406.623 327.67 1331.623 327.67 1331.623 160.085 252.123 160.085 252.123 332.358 173.906 332.358 173.906 653.248 252.123 653.248 252.123 902.825 785.123 902.825" fill="none" stroke="#000" stroke-miterlimit="10" stroke-width="8"/>
    <rect x="425.123" y="200.085" width="735" height="553" rx="13.681" ry="13.681" fill="none" stroke="#000" stroke-miterlimit="10" stroke-width="5"/>
    <rect x="414.123" y="186.085" width="760" height="580" rx="18.29" ry="18.29" fill="none" stroke="#000" stroke-miterlimit="10" stroke-width="5"/>
    <g>
      <rect x="267.123" y="201.085" width="137" height="81" fill="none" stroke="#000" stroke-miterlimit="10" stroke-width="5"/>
      <polygon points="387.122 241.334 359.756 213.834 359.756 230.834 284.623 230.834 284.623 251.834 359.756 251.834 359.756 268.834 387.122 241.334" stroke="#000" stroke-miterlimit="10"/>
    </g>
    <g>
      <rect x="267.275" y="327.932" width="137" height="81" fill="none" stroke="#000" stroke-miterlimit="10" stroke-width="5"/>
      <polygon points="387.275 368.182 359.908 340.682 359.908 357.682 284.775 357.682 284.775 378.682 359.908 378.682 359.908 395.682 387.275 368.182" stroke="#000" stroke-miterlimit="10"/>
    </g>
    <g>
      <rect x="267.275" y="454.932" width="137" height="81" fill="none" stroke="#000" stroke-miterlimit="10" stroke-width="5"/>
      <polygon points="387.275 495.182 359.908 467.682 359.908 484.682 284.775 484.682 284.775 505.682 359.908 505.682 359.908 522.682 387.275 495.182" stroke="#000" stroke-miterlimit="10"/>
    </g>
    <g>
      <rect x="267.102" y="579.367" width="137" height="81" fill="none" stroke="#000" stroke-miterlimit="10" stroke-width="5"/>
      <polygon points="387.101 619.617 359.734 592.117 359.734 609.117 284.601 609.117 284.601 630.117 359.734 630.117 359.734 647.117 387.101 619.617" stroke="#000" stroke-miterlimit="10"/>
    </g>
    <g>
      <rect x="1182.254" y="201.085" width="137" height="81" transform="translate(2501.507 483.169) rotate(-180)" fill="none" stroke="#000" stroke-miterlimit="10" stroke-width="5"/>
      <polygon points="1199.255 241.334 1226.622 213.834 1226.622 230.834 1301.754 230.834 1301.754 251.834 1226.622 251.834 1226.622 268.834 1199.255 241.334" stroke="#000" stroke-miterlimit="10"/>
    </g>
    <g>
      <rect x="1182.102" y="327.932" width="137" height="81" transform="translate(2501.203 736.865) rotate(-180)" fill="none" stroke="#000" stroke-miterlimit="10" stroke-width="5"/>
      <polygon points="1199.102 368.182 1226.469 340.682 1226.469 357.682 1301.602 357.682 1301.602 378.682 1226.469 378.682 1226.469 395.682 1199.102 368.182" stroke="#000" stroke-miterlimit="10"/>
    </g>
    <g>
      <rect x="1182.102" y="454.932" width="137" height="81" transform="translate(2501.203 990.865) rotate(-180)" fill="none" stroke="#000" stroke-miterlimit="10" stroke-width="5"/>
      <polygon points="1199.102 495.182 1226.469 467.682 1226.469 484.682 1301.602 484.682 1301.602 505.682 1226.469 505.682 1226.469 522.682 1199.102 495.182" stroke="#000" stroke-miterlimit="10"/>
    </g>
    <g>
      <rect x="1182.275" y="579.367" width="137" height="81" transform="translate(2501.551 1239.734) rotate(-180)" fill="none" stroke="#000" stroke-miterlimit="10" stroke-width="5"/>
      <polygon points="1199.276 619.617 1226.643 592.117 1226.643 609.117 1301.776 609.117 1301.776 630.117 1226.643 630.117 1226.643 647.117 1199.276 619.617" stroke="#000" stroke-miterlimit="10"/>
    </g>
    <circle cx="356.123" cy="736.085" r="30.5" fill="none" stroke="#000" stroke-miterlimit="10" stroke-width="5"/>
    <circle cx="1239.123" cy="736.085" r="30.5" fill="none" stroke="#000" stroke-miterlimit="10" stroke-width="5"/>
    <rect x="315.623" y="792.539" width="83" height="91" fill="none" stroke="#000" stroke-miterlimit="10" stroke-width="5"/>
    <rect x="307.623" y="783.039" width="101" height="110" rx="9.778" ry="9.778" fill="none" stroke="#000" stroke-miterlimit="10" stroke-width="5"/>
    <rect x="439.623" y="792.539" width="83" height="91" fill="none" stroke="#000" stroke-miterlimit="10" stroke-width="5"/>
    <rect x="431.623" y="783.039" width="101" height="110" rx="9.778" ry="9.778" fill="none" stroke="#000" stroke-miterlimit="10" stroke-width="5"/>
    <rect x="563.623" y="792.539" width="83" height="91" fill="none" stroke="#000" stroke-miterlimit="10" stroke-width="5"/>
    <rect x="555.623" y="783.039" width="101" height="110" rx="9.778" ry="9.778" fill="none" stroke="#000" stroke-miterlimit="10" stroke-width="5"/>
    <rect x="687.623" y="792.539" width="83" height="91" fill="none" stroke="#000" stroke-miterlimit="10" stroke-width="5"/>
    <rect x="679.623" y="783.039" width="101" height="110" rx="9.778" ry="9.778" fill="none" stroke="#000" stroke-miterlimit="10" stroke-width="5"/>
    <rect x="809.623" y="792.539" width="83" height="91" fill="none" stroke="#000" stroke-miterlimit="10" stroke-width="5"/>
    <rect x="801.623" y="783.039" width="101" height="110" rx="9.778" ry="9.778" fill="none" stroke="#000" stroke-miterlimit="10" stroke-width="5"/>
    <rect x="936.623" y="792.539" width="83" height="91" fill="none" stroke="#000" stroke-miterlimit="10" stroke-width="5"/>
    <rect x="928.623" y="783.039" width="101" height="110" rx="9.778" ry="9.778" fill="none" stroke="#000" stroke-miterlimit="10" stroke-width="5"/>
    <rect x="1056.623" y="792.539" width="83" height="91" fill="none" stroke="#000" stroke-miterlimit="10" stroke-width="5"/>
    <rect x="1048.623" y="783.039" width="101" height="110" rx="9.778" ry="9.778" fill="none" stroke="#000" stroke-miterlimit="10" stroke-width="5"/>
    <rect x="1181.623" y="792.539" width="83" height="91" fill="none" stroke="#000" stroke-miterlimit="10" stroke-width="5"/>
    <rect x="1173.623" y="783.039" width="101" height="110" rx="9.778" ry="9.778" fill="none" stroke="#000" stroke-miterlimit="10" stroke-width="5"/>
    <circle cx="213.123" cy="265.085" r="34.5" fill="none" stroke="#000" stroke-miterlimit="10" stroke-width="3.5"/>
    <circle cx="213.123" cy="265.085" r="27.5" fill="none" stroke="#000" stroke-miterlimit="10" stroke-width="3.5"/>
    <circle cx="213.623" cy="718.585" r="34.5" fill="none" stroke="#000" stroke-miterlimit="10" stroke-width="3.5"/>
    <circle cx="213.623" cy="718.585" r="27.5" fill="none" stroke="#000" stroke-miterlimit="10" stroke-width="3.5"/>
    <circle cx="213.623" cy="837.585" r="34.5" fill="none" stroke="#000" stroke-miterlimit="10" stroke-width="3.5"/>
    <circle cx="213.623" cy="837.585" r="27.5" fill="none" stroke="#000" stroke-miterlimit="10" stroke-width="3.5"/>
    <circle cx="1372.623" cy="265.085" r="34.5" fill="none" stroke="#000" stroke-miterlimit="10" stroke-width="3.5"/>
    <circle cx="1372.623" cy="265.085" r="27.5" fill="none" stroke="#000" stroke-miterlimit="10" stroke-width="3.5"/>
    <circle cx="1372.123" cy="718.585" r="34.5" fill="none" stroke="#000" stroke-miterlimit="10" stroke-width="3.5"/>
    <circle cx="1372.123" cy="718.585" r="27.5" fill="none" stroke="#000" stroke-miterlimit="10" stroke-width="3.5"/>
    <circle cx="1372.123" cy="837.585" r="34.5" fill="none" stroke="#000" stroke-miterlimit="10" stroke-width="3.5"/>
    <circle cx="1372.123" cy="837.585" r="27.5" fill="none" stroke="#000" stroke-miterlimit="10" stroke-width="3.5"/>
    <g>
      <rect x="321.946" y="804.749" width="66.913" height="64.957" fill="none"/>
      <path d="M335.861,819.119h6.823v36.208h-6.823v-36.208ZM338.351,819.119h21.292v6.574h-21.292v-6.574ZM338.351,834.384h18.552v6.574h-18.552v-6.574Z" stroke="#000" stroke-miterlimit="10"/>
      <path d="M374.945,855.327h-6.823v-28.189l-4.408,1.668v-7.246l5.404-2.44h5.827v36.208Z" stroke="#000" stroke-miterlimit="10"/>
    </g>
    <g>
      <rect x="445.946" y="804.749" width="66.913" height="64.957" fill="none"/>
      <path d="M455.167,819.119h6.823v36.208h-6.823v-36.208ZM457.657,819.119h21.292v6.574h-21.292v-6.574ZM457.657,834.384h18.552v6.574h-18.552v-6.574Z" stroke="#000" stroke-miterlimit="10"/>
      <path d="M483.966,849.177l12.426-16.336c.564-.73,1-1.482,1.307-2.254.307-.772.461-1.49.461-2.154v-.05c0-.979-.315-1.734-.946-2.267-.631-.53-1.528-.797-2.689-.797-1.129,0-2.042.37-2.739,1.108-.697.739-1.121,1.789-1.27,3.15v.024h-6.998v-.024c.149-2.258.693-4.2,1.631-5.827s2.204-2.867,3.798-3.723,3.437-1.283,5.528-1.283c2.257,0,4.188.37,5.79,1.108,1.602.739,2.822,1.814,3.66,3.226s1.258,3.112,1.258,5.104v.024c0,1.645-.286,3.275-.859,4.894-.572,1.619-1.374,3.084-2.403,4.396l-8.915,11.256h12.376v6.574h-21.416v-6.15Z" stroke="#000" stroke-miterlimit="10"/>
    </g>
    <g>
      <rect x="569.946" y="804.749" width="66.913" height="64.957" fill="none"/>
      <path d="M578.855,819.119h6.823v36.208h-6.823v-36.208ZM581.346,819.119h21.292v6.574h-21.292v-6.574ZM581.346,834.384h18.552v6.574h-18.552v-6.574Z" stroke="#000" stroke-miterlimit="10"/>
      <path d="M612.461,854.505c-1.71-.797-3.072-1.958-4.084-3.486-1.013-1.526-1.569-3.345-1.668-5.453h7.047c.1.747.319,1.382.66,1.905.34.522.776.921,1.308,1.195.531.273,1.146.411,1.843.411,1.295,0,2.295-.361,3.001-1.084.705-.722,1.058-1.738,1.058-3.051v-.846c0-1.378-.287-2.441-.859-3.188-.573-.748-1.391-1.121-2.453-1.121h-3.063v-6.574h3.063c.863,0,1.531-.327,2.005-.983.473-.656.709-1.573.709-2.752v-.622c0-1.112-.261-1.972-.785-2.578-.522-.605-1.257-.908-2.204-.908-.614,0-1.175.157-1.681.473s-.934.771-1.282,1.369-.598,1.32-.747,2.167h-7.022c.199-2.208.792-4.112,1.78-5.715s2.279-2.822,3.873-3.661c1.594-.838,3.37-1.258,5.329-1.258,3.204,0,5.682.818,7.433,2.453,1.751,1.636,2.627,3.956,2.627,6.961v1.096c0,1.677-.423,3.137-1.27,4.383-.847,1.244-2.051,2.175-3.611,2.789,1.743.398,3.092,1.312,4.046,2.738.955,1.429,1.432,3.246,1.432,5.454v1.096c0,2.108-.415,3.909-1.245,5.403-.831,1.494-2.042,2.632-3.636,3.412s-3.511,1.17-5.752,1.17c-2.191,0-4.143-.398-5.852-1.195Z" stroke="#000" stroke-miterlimit="10"/>
    </g>
    <g>
      <rect x="693.946" y="804.749" width="66.913" height="64.957" fill="none"/>
      <path d="M701.834,819.119h6.823v36.208h-6.823v-36.208ZM704.325,819.119h21.292v6.574h-21.292v-6.574ZM704.325,834.384h18.552v6.574h-18.552v-6.574Z" stroke="#000" stroke-miterlimit="10"/>
      <path d="M730.683,843.499l11.156-24.355h7.72l-10.857,24.057h16.261v6.574h-24.279v-6.275ZM745.301,834.036h6.823v21.316h-6.823v-21.316Z" stroke="#000" stroke-miterlimit="10"/>
    </g>
    <g>
      <rect x="815.946" y="804.749" width="66.913" height="64.957" fill="none"/>
      <path d="M824.457,819.119h6.823v36.208h-6.823v-36.208ZM826.947,819.119h21.291v6.574h-21.291v-6.574ZM826.947,834.384h18.553v6.574h-18.553v-6.574Z" stroke="#000" stroke-miterlimit="10"/>
      <path d="M859.171,854.418c-1.553-.854-2.798-2.1-3.735-3.735-.938-1.635-1.481-3.573-1.631-5.814v-.025h6.823v.025c.133,1.328.539,2.362,1.221,3.101.68.738,1.568,1.108,2.664,1.108,1.195,0,2.12-.391,2.776-1.171s.983-1.884.983-3.312v-3.039c0-1.427-.295-2.527-.884-3.299-.589-.772-1.415-1.158-2.478-1.158-.979,0-1.814.249-2.503.747s-1.166,1.195-1.432,2.092h-6.375v-20.818h19.448v6.574h-12.625v6.399c.515-.498,1.216-.892,2.104-1.183.888-.29,1.771-.436,2.651-.436,1.876,0,3.482.432,4.819,1.295,1.336.863,2.353,2.125,3.05,3.785s1.047,3.661,1.047,6.001v3.039c0,2.34-.42,4.341-1.258,6.001-.839,1.66-2.055,2.926-3.648,3.798-1.594.871-3.52,1.307-5.777,1.307-1.942,0-3.689-.427-5.242-1.282Z" stroke="#000" stroke-miterlimit="10"/>
    </g>
    <g>
      <rect x="942.946" y="804.749" width="66.913" height="64.957" fill="none"/>
      <path d="M952.254,819.119h6.823v36.208h-6.823v-36.208ZM954.744,819.119h21.291v6.574h-21.291v-6.574ZM954.744,834.384h18.553v6.574h-18.553v-6.574Z" stroke="#000" stroke-miterlimit="10"/>
      <path d="M985.723,854.418c-1.585-.854-2.793-2.1-3.623-3.735-.83-1.635-1.245-3.606-1.245-5.914v-.025c0-1.311.162-2.697.485-4.158.324-1.461.784-2.93,1.382-4.408.1-.248.203-.498.312-.746.108-.25.22-.49.337-.723l7.346-15.589h7.72l-8.716,18.054-1.719-.896c.415-.779,1.021-1.386,1.818-1.817s1.727-.647,2.789-.647c1.992,0,3.693.424,5.105,1.27,1.41.848,2.485,2.08,3.225,3.698.738,1.619,1.107,3.565,1.107,5.84v.024c0,2.325-.415,4.317-1.244,5.977-.831,1.661-2.039,2.923-3.624,3.785-1.585.864-3.499,1.295-5.739,1.295-2.226,0-4.131-.427-5.716-1.282ZM994.239,848.068c.656-.706.984-1.706.984-3.001v-.025c0-1.494-.328-2.643-.984-3.448s-1.59-1.208-2.801-1.208c-1.195,0-2.121.411-2.777,1.232-.656.822-.983,1.972-.983,3.449v.025c0,1.295.327,2.291.983,2.988s1.582,1.045,2.777,1.045c1.211,0,2.145-.352,2.801-1.058Z" stroke="#000" stroke-miterlimit="10"/>
    </g>
    <g>
      <rect x="1062.946" y="804.749" width="66.913" height="64.957" fill="none"/>
      <path d="M1072.499,819.119h6.823v36.208h-6.823v-36.208ZM1074.989,819.119h21.291v6.574h-21.291v-6.574ZM1074.989,834.384h18.553v6.574h-18.553v-6.574Z" stroke="#000" stroke-miterlimit="10"/>
      <path d="M1121.544,823.651l-8.119,31.676h-7.396l7.869-29.634h-6.226v5.454h-6.823v-12.028h20.694v4.532Z" stroke="#000" stroke-miterlimit="10"/>
    </g>
    <g>
      <path d="M1202.22,823.664h4.053v29.852h-2.795v-23.18l.111,1.314-3.121,18.539h-2.719l-3.121-18.129.111-1.725v23.18h-2.797v-29.852h4.055l3.111,20.12,3.111-20.12Z" stroke="#000" stroke-miterlimit="10"/>
      <path d="M1210.579,823.664h3.078v29.852h-3.078v-29.852ZM1211.692,823.664h9.826v5.42h-9.826v-5.42ZM1211.692,835.982h8.59v5.42h-8.59v-5.42ZM1211.692,848.095h9.826v5.42h-9.826v-5.42Z" stroke="#000" stroke-miterlimit="10"/>
      <path d="M1225.038,823.664h3.764l6.074,22.871-.27.534v-23.405h2.943v29.831h-3.785l-6.053-22.522.27-.534v23.057h-2.943v-29.831Z" stroke="#000" stroke-miterlimit="10"/>
      <path d="M1244.36,852.52c-.891-.869-1.568-2.136-2.033-3.799-.463-1.663-.695-3.665-.695-6.005v-19.053h3.076v19.196c0,1.711.252,3.038.754,3.983.5.944,1.209,1.416,2.121,1.416.922,0,1.635-.472,2.141-1.416.504-.945.758-2.272.758-3.983v-19.196h3.076v19.053c0,2.34-.234,4.342-.701,6.005-.469,1.663-1.15,2.93-2.045,3.799s-1.971,1.304-3.229,1.304-2.332-.435-3.223-1.304Z" stroke="#000" stroke-miterlimit="10"/>
    </g>
    <g>
      <rect x="316.467" y="671.23" width="70.435" height="25.043" fill="none"/>
      <path d="M324.735,672.395h4.281v22.719h-4.281v-22.719ZM326.61,690.989h7.25c.979,0,1.737-.236,2.273-.711.536-.474.805-1.138.805-1.992v-.047c0-.572-.12-1.062-.359-1.469-.24-.406-.591-.716-1.055-.93-.464-.213-1.019-.32-1.664-.32h-7.25v-4.125h7.25c.885,0,1.57-.224,2.055-.672.484-.447.727-1.078.727-1.891,0-.729-.242-1.297-.727-1.703s-1.169-.609-2.055-.609h-7.25v-4.125h7.391c1.469,0,2.724.242,3.766.727,1.042.484,1.833,1.188,2.375,2.109.542.922.812,2.029.812,3.32,0,.886-.175,1.67-.523,2.352-.349.683-.857,1.242-1.523,1.68-.667.438-1.469.734-2.406.891,1,.136,1.856.44,2.57.914.713.475,1.255,1.092,1.625,1.852.37.761.555,1.641.555,2.641v.047c0,1.303-.273,2.417-.82,3.344-.547.928-1.344,1.633-2.391,2.117s-2.305.727-3.773.727h-7.656v-4.125Z" stroke="#000" stroke-miterlimit="10"/>
      <path d="M346.383,672.38h4.281v22.734h-4.281v-22.734ZM348.086,681.848h7.906c.438,0,.823-.109,1.156-.328.333-.219.591-.531.773-.938.182-.406.278-.875.289-1.406,0-.531-.091-1-.273-1.406-.183-.406-.44-.719-.773-.938-.333-.219-.724-.328-1.172-.328h-7.906v-4.125h8.25c1.25,0,2.349.281,3.297.844.948.562,1.682,1.357,2.203,2.383.521,1.026.781,2.217.781,3.57s-.261,2.545-.781,3.57c-.521,1.026-1.258,1.82-2.211,2.383s-2.05.844-3.289.844h-8.25v-4.125ZM352.868,685.27l4.578-.719,6.125,10.562h-5.188l-5.516-9.844Z" stroke="#000" stroke-miterlimit="10"/>
      <path d="M365.109,672.395h16.656v4.125h-16.656v-4.125ZM371.297,674.255h4.281v20.859h-4.281v-20.859Z" stroke="#000" stroke-miterlimit="10"/>
    </g>
    <g>
      <rect x="1181.12" y="671.01" width="131" height="25.043" fill="none"/>
      <path d="M1193.84,694.087c-1.256-.692-2.227-1.672-2.914-2.938s-1.031-2.731-1.031-4.398v-6.438c0-1.666.344-3.133,1.031-4.398s1.658-2.244,2.914-2.938c1.255-.692,2.705-1.039,4.352-1.039s3.096.347,4.352,1.039c1.255.693,2.227,1.672,2.914,2.938s1.031,2.732,1.031,4.398v6.438c0,1.667-.344,3.133-1.031,4.398s-1.659,2.245-2.914,2.938c-1.256.693-2.706,1.039-4.352,1.039s-3.097-.346-4.352-1.039ZM1200.223,690.352c.583-.328,1.033-.794,1.352-1.398.317-.604.477-1.302.477-2.094v-6.656c0-.791-.159-1.489-.477-2.094-.318-.604-.769-1.07-1.352-1.398-.584-.328-1.261-.492-2.031-.492s-1.448.164-2.031.492c-.584.328-1.034.795-1.352,1.398-.318.604-.477,1.303-.477,2.094v6.656c0,.792.158,1.49.477,2.094.317.604.768,1.07,1.352,1.398.583.328,1.26.492,2.031.492s1.447-.164,2.031-.492Z" stroke="#000" stroke-miterlimit="10"/>
      <path d="M1211.699,672.173h4.281v22.719h-4.281v-22.719ZM1213.262,672.173h13.359v4.125h-13.359v-4.125ZM1213.262,681.751h11.641v4.125h-11.641v-4.125Z" stroke="#000" stroke-miterlimit="10"/>
      <path d="M1230.894,672.173h4.281v22.719h-4.281v-22.719ZM1232.457,672.173h13.359v4.125h-13.359v-4.125ZM1232.457,681.751h11.641v4.125h-11.641v-4.125Z" stroke="#000" stroke-miterlimit="10"/>
      <path d="M1250.87,699.204h-4.062l10.156-29.719h4.062l-10.156,29.719Z" stroke="#000" stroke-miterlimit="10"/>
      <path d="M1267.604,694.087c-1.256-.692-2.227-1.672-2.914-2.938s-1.031-2.731-1.031-4.398v-6.438c0-1.666.344-3.133,1.031-4.398s1.658-2.244,2.914-2.938c1.255-.692,2.705-1.039,4.352-1.039s3.096.347,4.352,1.039c1.255.693,2.227,1.672,2.914,2.938s1.031,2.732,1.031,4.398v6.438c0,1.667-.344,3.133-1.031,4.398s-1.659,2.245-2.914,2.938c-1.256.693-2.706,1.039-4.352,1.039s-3.097-.346-4.352-1.039ZM1273.987,690.352c.583-.328,1.033-.794,1.352-1.398.317-.604.477-1.302.477-2.094v-6.656c0-.791-.159-1.489-.477-2.094-.318-.604-.769-1.07-1.352-1.398-.584-.328-1.261-.492-2.031-.492s-1.448.164-2.031.492c-.584.328-1.034.795-1.352,1.398-.318.604-.477,1.303-.477,2.094v6.656c0,.792.158,1.49.477,2.094.317.604.768,1.07,1.352,1.398.583.328,1.26.492,2.031.492s1.447-.164,2.031-.492Z" stroke="#000" stroke-miterlimit="10"/>
      <path d="M1285.464,672.173h5.234l8.453,17.406-.375.406v-17.812h4.094v22.703h-5.266l-8.422-17.141.375-.406v17.547h-4.094v-22.703Z" stroke="#000" stroke-miterlimit="10"/>
    </g>
  </g>
  <g id="b" data-name="Scratchpad_-_Light">
    <g>
      <path d="M483.172,697.045v37.593h12.121v3.515h-15.634v-44.62h15.634v3.513h-12.121Z" stroke="#000" stroke-miterlimit="10" stroke-width="1.5"/>
      <path d="M1104.121,693.348v44.62h-15.635v-3.514h12.121v-37.593h-12.121v-3.514h15.635Z" stroke="#000" stroke-miterlimit="10" stroke-width="1.5"/>
    </g>
  </g>
  <g id="c" data-name="MAP_Bias_Page_-_Light">
    <g>
      <rect x="606.123" y="292.882" width="543.5" height="38.311" fill="none"/>
      <path d="M717.85,294.494v34.284h-2.822v-28.712l-6.648,11.923h-3.068l-6.65-11.923v28.712h-2.822v-34.284h2.945l8.06,14.452,8.061-14.452h2.945Z" stroke="#000" stroke-miterlimit="10" stroke-width="1.5"/>
      <path d="M741.789,327.657h-2.822v-.085c-.153-.288-.262-.582-.331-1.123-1.255,1.216-2.83,2.015-4.657,2.319-.343.039-.677.06-1.008.06-1.417,0-2.77-.363-4.477-1.159-.797-.393-2.629-1.302-3.647-3.508-.924-2.217-.516-4.297-.369-4.884.621-3.436,3.256-5.165,4.248-5.814l.147-.096c.382-.289.804-.484,1.144-.64.148-.068.289-.125.409-.207l.275-.144c1.941-.747,4.451-1.112,7.633-1.108-.194-.974-.774-1.784-.931-1.939l-.103-.116c-.822-1.029-1.859-1.37-2.249-1.499-1.065-.291-2.16-.285-3.539.02-1.127.226-2.064.546-2.816.803l-.43.147c-.234.095-.481.22-.698.329-.313.158-.584.288-.854.377l-.893-2.677c.154-.051.305-.134.484-.223.277-.138.594-.296.99-.454l.488-.168c.831-.284,1.864-.636,3.145-.893,1.119-.247,2.876-.523,4.88.022.666.218,2.311.76,3.65,2.402.564.599,1.581,2.126,1.758,4.052l.003,1.115h.003c0,.098.008.3.02.583.069,1.726.107,3.595.039,5.361.006.348.012.712.019,1.051.032,1.685.063,3.262.063,4.716,0,1.575.079,1.924.095,1.979.107.181.232.433.309.892l.02.515.002-.004ZM733.592,325.977c1.702-.286,3.085-1.208,4.038-2.731.301-.464.71-1.667.831-4.807-.025-1.388-.047-2.833-.053-4.349-2.744-.061-4.976.287-6.575.875-.196.117-.409.219-.636.323-.262.121-.491.226-.697.381l-.229.153c-.849.556-2.614,1.714-3.039,4.048-.059.252-.399,1.724.196,3.156.582,1.254,1.68,1.798,2.209,2.061,1.917.896,2.927,1,3.952.889h.001Z" stroke="#000" stroke-miterlimit="10" stroke-width="1.5"/>
      <path d="M758.662,305.632c5.681,0,10.3,5.189,10.3,11.569s-4.621,11.569-10.3,11.569c-2.932,0-5.573-1.39-7.451-3.604l.115,12.48-2.822.027-.282-31.616h2.822v.705l.023,2.654c1.885-2.318,4.587-3.782,7.595-3.782h0ZM766.14,317.202c0-4.824-3.354-8.747-7.478-8.747s-7.478,3.923-7.478,8.747,3.355,8.748,7.478,8.748,7.478-3.923,7.478-8.748Z" stroke="#000" stroke-miterlimit="10" stroke-width="1.5"/>
      <path d="M813.244,314.798c.418,1.106.819,2.438.819,4.364,0,1.995-.216,3.427-.679,4.506-.551,1.475-1.289,2.545-2.231,3.218-.879.833-2.062,1.37-3.438,1.562-1.139.308-2.232.308-3.386.308h-13.686v-17.193l-.282-.282v-18.502h13.401c1.164,0,2.294.172,3.268.495,1.17.333,2.369,1.03,3.232,1.894.884.883,1.662,2.021,2.134,3.121.417,1.112.819,2.444.819,4.367,0,1.903-.207,3.344-.635,4.401-.34,1.261-1.113,2.476-2.09,3.282-.191.188-.397.351-.606.506.365.251.704.506.99.745.983.818,1.846,1.988,2.369,3.208h0ZM793.182,295.6v13.683h11.147c.41,0,.824.045,1.236.089.315-.031.61-.075.857-.156l.271-.061c.783-.097,1.356-.365,1.858-.868l.117-.104c.418-.334.984-1.038,1.205-1.92l.072-.214c.299-.696.449-1.837.449-3.394,0-1.469-.296-2.462-.616-3.315-.302-.698-.891-1.556-1.511-2.177-.528-.528-1.303-.974-2.071-1.194-.736-.244-1.582-.368-2.434-.368h-10.582ZM810.766,322.618c.323-.756.474-1.899.474-3.456,0-1.47-.295-2.46-.615-3.312-.328-.765-.905-1.549-1.558-2.092-.846-.706-1.494-1.088-2.164-1.28-.422-.122-.845-.21-1.269-.272-.56.042-1.136.044-1.729.044h-10.44v13.686h10.864c1.07,0,1.918,0,2.716-.229l.213-.044c.847-.105,1.538-.406,1.999-.868l.215-.176c.489-.326.912-.98,1.295-2.002h0Z" stroke="#000" stroke-miterlimit="10" stroke-width="1.5"/>
      <path d="M820.496,300.007c0-1.636,1.263-2.963,2.821-2.963s2.821,1.327,2.821,2.963-1.263,2.963-2.821,2.963-2.821-1.327-2.821-2.963ZM821.907,328.789v-22.433h2.821v22.433h-2.821Z" stroke="#000" stroke-miterlimit="10" stroke-width="1.5"/>
      <path d="M850.078,327.657h-2.822v-.085c-.153-.288-.263-.582-.331-1.123-1.255,1.216-2.83,2.015-4.657,2.319-.344.039-.678.06-1.008.06-1.416,0-2.77-.363-4.477-1.159-.797-.393-2.629-1.302-3.647-3.508-.924-2.217-.517-4.297-.369-4.884.621-3.436,3.256-5.165,4.248-5.814l.146-.096c.383-.289.805-.484,1.145-.64.147-.068.289-.125.409-.207l.275-.144c1.941-.747,4.449-1.112,7.632-1.108-.194-.974-.774-1.784-.93-1.939l-.103-.116c-.823-1.029-1.859-1.37-2.249-1.499-1.065-.291-2.16-.285-3.538.02-1.128.226-2.064.546-2.816.803l-.431.147c-.234.095-.481.22-.698.329-.312.158-.584.288-.854.377l-.893-2.677c.153-.051.305-.134.483-.223.278-.138.594-.296.99-.454l.488-.168c.831-.284,1.864-.636,3.145-.893,1.119-.247,2.877-.523,4.881.022.666.218,2.311.76,3.649,2.402.564.599,1.582,2.126,1.759,4.052l.003,1.115h.003c0,.098.008.3.02.583.068,1.726.107,3.595.039,5.361.006.348.011.712.019,1.051.032,1.685.063,3.262.063,4.716,0,1.575.079,1.924.094,1.979.107.181.233.433.31.892l.02.515.002-.004ZM841.881,325.977c1.701-.286,3.085-1.208,4.037-2.731.302-.464.71-1.667.831-4.807-.025-1.388-.046-2.833-.052-4.349-2.744-.061-4.977.287-6.574.875-.196.117-.409.219-.637.323-.262.121-.491.226-.697.381l-.229.153c-.849.556-2.614,1.714-3.039,4.048-.059.252-.398,1.724.196,3.156.581,1.254,1.681,1.798,2.209,2.061,1.918.896,2.928,1,3.952.889h.002Z" stroke="#000" stroke-miterlimit="10" stroke-width="1.5"/>
      <path d="M864.301,315.148c5.588,2.128,6.749,5.046,6.749,7.124,0,3.737-3.422,6.349-8.323,6.349-2.387,0-5.833-1.503-6.216-1.675l1.146-2.578c1.292.576,3.708,1.431,5.07,1.431,3.29,0,5.501-1.418,5.501-3.527,0-2.156-2.651-3.62-4.876-4.467-3.672-1.223-5.562-3.335-5.562-6.257,0-3.857,2.879-6.349,7.336-6.349,3.039,0,3.847.379,4.91.998.21.124.441.259.752.4l-1.168,2.568c-.412-.188-.721-.366-1.002-.529-.66-.384-1.06-.615-3.493-.615-1.687,0-4.516.458-4.516,3.527,0,1.104.419,2.51,3.691,3.6h0Z" stroke="#000" stroke-miterlimit="10" stroke-width="1.5"/>
      <path d="M1048.434,299.078c.65,1.305.994,2.792.994,4.3v15.379c0,1.509-.344,2.997-.994,4.299-.612,1.225-1.535,2.37-2.743,3.404-1.079.9-2.239,1.511-3.461,1.83-1.114.406-2.316.612-3.665.625h-.142c-1.508-.011-2.712-.214-3.881-.653-1.275-.479-2.409-1.128-3.372-1.932-1.224-1.048-2.146-2.194-2.757-3.416-.652-1.302-.996-2.79-.996-4.299v-15.379c0-1.51.346-2.997.996-4.299.61-1.225,1.534-2.369,2.742-3.404,1.078-.899,2.238-1.51,3.46-1.829,1.149-.42,2.396-.626,3.807-.626,1.514,0,2.868.22,4.023.655,1.272.477,2.405,1.127,3.371,1.93,1.072.918,1.923,2.033,2.615,3.415h.002ZM1046.604,318.756v-15.379c0-1.072-.241-2.123-.697-3.038-.527-1.054-1.135-1.855-1.913-2.522-.705-.587-1.566-1.077-2.54-1.442-.828-.311-1.875-.474-3.031-.474-1.11,0-2.03.151-2.892.474l-.153.048c-.835.209-1.643.635-2.4,1.267-.905.776-1.599,1.625-2.04,2.51-.457.915-.698,1.964-.698,3.038v15.377c0,1.074.243,2.125.698,3.038.44.883,1.133,1.732,2.055,2.522.705.587,1.565,1.077,2.541,1.443.857.322,1.771.469,2.957.474,1.079-.005,1.977-.157,2.824-.474l.152-.048c.836-.209,1.645-.635,2.403-1.267.904-.776,1.597-1.625,2.038-2.51.456-.912.697-1.962.697-3.036h0Z" stroke="#000" stroke-miterlimit="10" stroke-width="1.5"/>
      <path d="M1058.658,297.303v11.569h9.171v2.822h-9.171v17.072h-2.821v-34.284h21.304v2.822h-18.482Z" stroke="#000" stroke-miterlimit="10" stroke-width="1.5"/>
      <path d="M1086.392,297.303v11.569h9.171v2.822h-9.171v17.072h-2.821v-34.284h21.304v2.822h-18.482Z" stroke="#000" stroke-miterlimit="10" stroke-width="1.5"/>
    </g>
    <g>
      <rect x="437.371" y="285.624" width="153.149" height="52.826" fill="none"/>
      <path d="M452.876,318.37v12.416h-2.822v-12.416h-9.19l10.592-10.592,10.8,10.592h-9.38Z" stroke="#000" stroke-miterlimit="10" stroke-width="1.5"/>
      <path d="M494.362,313.081c.297,2.243.153,4.039.148,4.114l.004,11.593h-2.822v-11.71c.006-.13.128-1.699-.128-3.623-.236-1.768-.67-2.972-1.366-3.783-.545-.635-1.558-.918-2.315-.918s-1.631.426-2.174,1.06c-1.649,1.886-2.482,4.421-2.482,7.547v11.428h-2.963v-11.71c.007-.13.128-1.699-.128-3.623-.235-1.768-.67-2.972-1.366-3.783-.544-.635-1.558-.918-2.315-.918s-1.631.426-2.175,1.06c-1.649,1.885-2.481,4.42-2.481,7.547v11.428h-2.822v-11.428c0-.096.01-.188.01-.282h-.151v-7.524c-.137-1.081-.141-2.979-.141-3.198h2.822c0,.44.014,1.521.07,2.321.181-.242.363-.482.562-.71,1.071-1.25,2.725-2.033,4.307-2.033,1.365,0,3.253.499,4.457,1.903.515.6.925,1.305,1.253,2.129.402-.714.872-1.383,1.411-2,1.072-1.25,2.726-2.033,4.307-2.033,1.366,0,3.254.499,4.457,1.903,1.067,1.246,1.708,2.913,2.021,5.247v-.002Z" stroke="#000" stroke-miterlimit="10" stroke-width="1.5"/>
      <path d="M518.514,327.658h-2.822v-.085c-.154-.288-.262-.582-.332-1.123-1.254,1.216-2.83,2.015-4.657,2.319-.343.039-.677.059-1.007.059-1.417,0-2.77-.362-4.477-1.159-.797-.393-2.629-1.302-3.647-3.508-.924-2.217-.516-4.297-.369-4.885.621-3.436,3.256-5.164,4.248-5.814l.147-.096c.382-.289.804-.484,1.144-.64.148-.068.289-.125.409-.207l.275-.144c1.941-.747,4.45-1.112,7.633-1.108-.194-.974-.774-1.784-.93-1.939l-.103-.116c-.823-1.029-1.859-1.37-2.249-1.499-1.065-.291-2.16-.285-3.539.02-1.127.226-2.064.545-2.816.802l-.43.147c-.234.095-.481.22-.698.329-.313.158-.584.288-.854.377l-.893-2.677c.154-.051.305-.134.484-.223.277-.138.594-.296.99-.454l.488-.168c.831-.284,1.864-.636,3.145-.893,1.119-.247,2.876-.523,4.88.022.666.218,2.311.76,3.65,2.402.564.599,1.582,2.126,1.758,4.052l.003,1.115h.003c0,.098.008.299.02.583.069,1.725.107,3.595.04,5.361.006.348.011.712.019,1.051.032,1.685.063,3.262.063,4.715,0,1.575.08,1.924.095,1.979.107.181.233.434.309.892l.02.515v-.004ZM510.317,325.978c1.702-.287,3.085-1.208,4.038-2.732.301-.464.71-1.667.831-4.807-.025-1.388-.047-2.833-.052-4.349-2.744-.061-4.976.287-6.575.875-.196.117-.409.219-.636.323-.262.122-.491.226-.697.381l-.229.153c-.849.556-2.614,1.714-3.039,4.048-.059.252-.399,1.724.196,3.156.582,1.254,1.68,1.798,2.209,2.061,1.917.896,2.927,1,3.952.889h.001Z" stroke="#000" stroke-miterlimit="10" stroke-width="1.5"/>
      <path d="M531.223,307.063c1.537-.854,3.084-.854,4.583-.854v2.822c-1.293,0-2.315,0-3.266.527-.808.405-1.35,1.107-2.029,2.195-1.471,2.504-2.465,4.671-2.465,7.012v10.017h-2.822v-17.918c0-.581-.167-2.953-.278-4.406l2.813-.216c.024.331.223,2.917.274,4.162.022-.036.042-.076.064-.113.776-1.241,1.638-2.484,3.125-3.228h0Z" stroke="#000" stroke-miterlimit="10" stroke-width="1.5"/>
      <path d="M559.173,328.043v.887h-1.986l-.561.414-8.416-11.431-3.146,3.389v7.487h-2.822v-32.873h2.822v21.238l10.394-11.194.426.397h2.019v1.119l-7.738,8.334,9.008,12.234Z" stroke="#000" stroke-miterlimit="10" stroke-width="1.5"/>
      <path d="M577.628,318.37v12.416h-2.822v-12.416h-9.19l10.592-10.592,10.8,10.592h-9.38Z" stroke="#000" stroke-miterlimit="10" stroke-width="1.5"/>
    </g>
    <g>
      <rect x="437.202" y="214.122" width="706.125" height="54.925" fill="none"/>
      <path d="M443.765,221.443v37.593h12.121v3.514h-15.634v-44.62h15.634v3.513h-12.121Z" stroke="#000" stroke-miterlimit="10" stroke-width="1.5"/>
      <path d="M516.926,227.943v34.455h-2.799l-16.389-29.029v29.005h-2.822v-34.285h3.082l16.106,28.528v-28.675h2.822Z" stroke="#000" stroke-miterlimit="10" stroke-width="1.5"/>
      <path d="M552.179,259.697v2.822h-9.029v-2.822h3.104v-28.956l-2.206,1.826-1.799-2.174,4.482-3.709h2.344v33.013h3.104Z" stroke="#000" stroke-miterlimit="10" stroke-width="1.5"/>
      <path d="M581.601,245.801c.533,1.246.794,3.653.794,4.869,0,1.301,0,2.16-.612,4.456-.541,2.157-1.648,3.609-2.482,4.443-.933.931-2.714,2.12-4.182,2.487-1.384.465-3.645.465-4.858.465-1.434,0-3.918-.808-4.93-1.241-1.184-.508-3.406-2.006-4.756-3.206l1.875-2.109c1.181,1.05,3.183,2.373,3.993,2.722.931.399,2.991,1.014,3.818,1.014.979,0,3.017,0,4.069-.351.903-.23,2.245-1.045,2.976-1.776.582-.58,1.357-1.6,1.745-3.153.522-1.958.522-2.52.522-3.749,0-1.252-.287-3.109-.591-3.819-.347-.92-.769-1.62-1.48-2.474-.62-.743-1.295-1.275-2.011-1.582-.887-.381-1.827-.733-2.689-.733h-3.81v-3.073l8.384-9.484h-12.898v-2.822h15.943v3.636l-7.884,8.92h.265c1.375,0,2.693.485,3.801.96,1.127.484,2.16,1.281,3.067,2.369.918,1.101,1.496,2.067,1.932,3.229h-.001Z" stroke="#000" stroke-miterlimit="10" stroke-width="1.5"/>
      <path d="M603.457,235.106c0,3.5-2.849,6.349-6.349,6.349s-6.349-2.849-6.349-6.349,2.849-6.349,6.349-6.349,6.349,2.849,6.349,6.349ZM600.635,235.106c0-1.944-1.583-3.527-3.527-3.527s-3.527,1.583-3.527,3.527,1.583,3.527,3.527,3.527,3.527-1.583,3.527-3.527Z" stroke="#000" stroke-miterlimit="10" stroke-width="1.5"/>
      <path d="M632.855,245.801c.533,1.246.794,3.653.794,4.869,0,1.301,0,2.16-.612,4.456-.541,2.157-1.648,3.609-2.482,4.443-.933.931-2.714,2.12-4.182,2.487-1.384.465-3.645.465-4.858.465-1.434,0-3.918-.808-4.93-1.241-1.184-.508-3.406-2.006-4.756-3.206l1.875-2.109c1.181,1.05,3.183,2.373,3.993,2.722.931.399,2.991,1.014,3.818,1.014.979,0,3.017,0,4.069-.351.903-.23,2.245-1.045,2.976-1.776.582-.58,1.357-1.6,1.745-3.153.522-1.958.522-2.52.522-3.749,0-1.252-.287-3.109-.591-3.819-.347-.92-.769-1.62-1.48-2.474-.62-.743-1.295-1.275-2.011-1.582-.887-.381-1.827-.733-2.689-.733h-3.81v-3.073l8.384-9.484h-12.898v-2.822h15.943v3.636l-7.884,8.92h.265c1.375,0,2.693.485,3.801.96,1.127.484,2.16,1.281,3.067,2.369.918,1.101,1.496,2.067,1.932,3.229h-.001Z" stroke="#000" stroke-miterlimit="10" stroke-width="1.5"/>
      <path d="M662.78,242.072c.536,1.253.819,2.568.819,3.802v6.914c0,1.236-.283,2.549-.819,3.801-.522,1.22-1.386,2.39-2.368,3.208-.756.63-1.929,1.529-3.371,2.071-1.449.543-2.729.796-4.024.796-1.474,0-3.318-.319-4.587-.794-1.408-.529-2.541-1.234-3.465-2.159-.889-.732-1.751-1.902-2.274-3.122-.316-.626-.487-1.307-.636-1.906l-.042-.343v-1.27h2.822v1.096c.114.454.226.855.415,1.234.388.901.965,1.686,1.617,2.229.736.728,1.518,1.208,2.555,1.597.951.355,2.465.615,3.596.615.959,0,1.895-.19,3.032-.617.792-.297,1.604-.804,2.555-1.597.65-.543,1.227-1.329,1.582-2.153.386-.903.591-1.833.591-2.689v-6.914c0-.856-.205-1.786-.591-2.69-.353-.824-.93-1.608-1.582-2.151-.737-.727-1.518-1.208-2.555-1.596l-.432-.167c-.789-.309-1.15-.45-2.601-.45-1.769,0-3.187.378-4.462,1.191-.953.595-1.795,1.438-2.383,2.378l-.415.663h-3.745v-16.366h21.305v2.822h-18.483v9.983c.646-.722,1.394-1.354,2.215-1.868,1.714-1.092,3.671-1.625,5.968-1.625,1.886,0,2.607.244,3.627.643l.395.153c1.408.527,2.541,1.233,3.465,2.157.887.732,1.751,1.9,2.274,3.121h0Z" stroke="#000" stroke-miterlimit="10" stroke-width="1.5"/>
      <path d="M672,259.232c0-1.636,1.264-2.963,2.822-2.963s2.822,1.327,2.822,2.963-1.263,2.963-2.822,2.963-2.822-1.326-2.822-2.963Z" stroke="#000" stroke-miterlimit="10" stroke-width="1.5"/>
      <path d="M706.781,242.072c.536,1.253.819,2.568.819,3.802v6.914c0,1.236-.283,2.549-.819,3.801-.522,1.22-1.386,2.39-2.368,3.208-.756.63-1.929,1.529-3.371,2.071-1.449.543-2.729.796-4.024.796-1.474,0-3.318-.319-4.587-.794-1.408-.529-2.541-1.234-3.465-2.159-.889-.732-1.751-1.902-2.274-3.122-.316-.626-.487-1.307-.636-1.906l-.042-.343v-1.27h2.822v1.096c.114.454.226.855.415,1.234.388.901.965,1.686,1.617,2.229.736.728,1.518,1.208,2.555,1.597.951.355,2.465.615,3.596.615.959,0,1.895-.19,3.032-.617.792-.297,1.604-.804,2.555-1.597.65-.543,1.227-1.329,1.582-2.153.386-.903.591-1.833.591-2.689v-6.914c0-.856-.205-1.786-.591-2.69-.353-.824-.93-1.608-1.582-2.151-.737-.727-1.518-1.208-2.555-1.596l-.432-.167c-.789-.309-1.15-.45-2.601-.45-1.769,0-3.187.378-4.462,1.191-.953.595-1.795,1.438-2.383,2.378l-.415.663h-3.745v-16.366h21.305v2.822h-18.483v9.983c.646-.722,1.394-1.354,2.215-1.868,1.714-1.092,3.671-1.625,5.968-1.625,1.886,0,2.607.244,3.627.643l.395.153c1.408.527,2.541,1.233,3.465,2.157.887.732,1.751,1.9,2.274,3.121h0Z" stroke="#000" stroke-miterlimit="10" stroke-width="1.5"/>
      <path d="M752.73,229.524v11.569h10.159v2.822h-10.159v15.661h18.483v2.822h-21.305v-35.695h21.305v2.822h-18.483Z" stroke="#000" stroke-miterlimit="10" stroke-width="1.5"/>
      <path d="M806.486,259.697v2.822h-9.03v-2.822h3.104v-28.956l-2.205,1.826-1.799-2.174,4.482-3.709h2.343v33.013h3.104Z" stroke="#000" stroke-miterlimit="10" stroke-width="1.5"/>
      <path d="M832.376,251.234h3.81v2.822h-3.81v7.055h-2.821v-7.055h-14.673v-3.071l14.578-24.3h2.915v24.548h0ZM829.553,232.012l-11.532,19.22h11.532v-19.22Z" stroke="#000" stroke-miterlimit="10" stroke-width="1.5"/>
      <path d="M862.069,251.234h3.81v2.822h-3.81v7.055h-2.821v-7.055h-14.673v-3.071l14.578-24.3h2.915v24.548h0ZM859.246,232.012l-11.532,19.22h11.532v-19.22Z" stroke="#000" stroke-miterlimit="10" stroke-width="1.5"/>
      <path d="M886.967,235.106c0,3.5-2.849,6.349-6.349,6.349s-6.349-2.849-6.349-6.349,2.849-6.349,6.349-6.349,6.349,2.849,6.349,6.349ZM884.145,235.106c0-1.944-1.583-3.527-3.527-3.527s-3.527,1.583-3.527,3.527,1.583,3.527,3.527,3.527,3.527-1.583,3.527-3.527Z" stroke="#000" stroke-miterlimit="10" stroke-width="1.5"/>
      <path d="M916.105,242.072c.536,1.253.819,2.568.819,3.802v6.914c0,1.236-.283,2.549-.819,3.801-.522,1.22-1.386,2.39-2.367,3.208-.757.63-1.929,1.529-3.371,2.071-1.449.543-2.729.796-4.023.796-1.475,0-3.318-.319-4.587-.794-1.408-.529-2.541-1.234-3.466-2.159-.889-.732-1.75-1.902-2.273-3.122-.316-.626-.487-1.307-.637-1.906l-.042-.343v-1.27h2.821v1.096c.114.454.226.855.415,1.234.388.901.965,1.686,1.617,2.229.736.728,1.518,1.208,2.555,1.597.951.355,2.465.615,3.597.615.959,0,1.895-.19,3.031-.617.792-.297,1.604-.804,2.556-1.597.65-.543,1.228-1.329,1.581-2.153.387-.903.592-1.833.592-2.689v-6.914c0-.856-.205-1.786-.592-2.69-.353-.824-.93-1.608-1.581-2.151-.736-.727-1.519-1.208-2.556-1.596l-.432-.167c-.788-.309-1.149-.45-2.6-.45-1.77,0-3.188.378-4.463,1.191-.952.595-1.795,1.438-2.383,2.378l-.415.663h-3.744v-16.366h21.304v2.822h-18.482v9.983c.646-.722,1.395-1.354,2.215-1.868,1.715-1.092,3.672-1.625,5.969-1.625,1.886,0,2.607.244,3.627.643l.396.153c1.407.527,2.541,1.233,3.465,2.157.888.732,1.751,1.9,2.274,3.121h0Z" stroke="#000" stroke-miterlimit="10" stroke-width="1.5"/>
      <path d="M946.348,226.684v3.992l-14.532,30.05v.382h-2.821v-1.029l14.532-30.05v-.523h-18.2v-2.822h21.021Z" stroke="#000" stroke-miterlimit="10" stroke-width="1.5"/>
      <path d="M954.725,259.232c0-1.636,1.263-2.963,2.821-2.963s2.822,1.327,2.822,2.963-1.264,2.963-2.822,2.963-2.821-1.326-2.821-2.963Z" stroke="#000" stroke-miterlimit="10" stroke-width="1.5"/>
      <path d="M989.756,232.683c.651,1.301.996,2.788.996,4.299v15.378c0,1.511-.345,3-.996,4.3-.609,1.222-1.532,2.366-2.741,3.403-1.08.898-2.239,1.511-3.461,1.83-1.115.407-2.315.612-3.666.625h-.141c-1.509-.011-2.711-.214-3.882-.653-1.272-.479-2.405-1.127-3.37-1.932-1.225-1.048-2.147-2.194-2.759-3.416-.651-1.301-.996-2.788-.996-4.297v-15.378c0-1.51.346-2.997.996-4.299.611-1.222,1.534-2.367,2.743-3.403,1.079-.9,2.239-1.511,3.461-1.83,1.152-.42,2.398-.626,3.807-.626,1.511,0,2.864.219,4.022.653,1.272.477,2.405,1.127,3.372,1.932,1.073.918,1.924,2.033,2.615,3.414h0ZM971.563,236.842v13.917l16.19-15.351c-.117-.514-.292-1.006-.521-1.463-.526-1.054-1.135-1.855-1.913-2.523-.706-.588-1.566-1.078-2.54-1.443-.828-.311-1.877-.474-3.032-.474-1.108,0-2.027.151-2.891.474l-.152.048c-.837.209-1.644.635-2.402,1.267-.907.777-1.599,1.627-2.041,2.51-.457.914-.698,1.964-.698,3.038ZM987.932,252.363v-13.233l-16.033,15.203c.102.32.219.632.365.927.441.883,1.133,1.732,2.056,2.522.705.587,1.564,1.077,2.539,1.443.858.322,1.772.469,2.958.474,1.077-.005,1.977-.156,2.822-.474l.153-.048c.836-.208,1.644-.635,2.402-1.267.905-.777,1.597-1.626,2.039-2.51.457-.913.698-1.962.698-3.038Z" stroke="#000" stroke-miterlimit="10" stroke-width="1.5"/>
      <path d="M1066.215,217.746v44.62h-15.635v-3.514h12.121v-37.593h-12.121v-3.514h15.635Z" stroke="#000" stroke-miterlimit="10" stroke-width="1.5"/>
    </g>
    <g>
      <rect x="437.202" y="340.97" width="706.125" height="54.925" fill="none"/>
      <path d="M443.765,348.29v37.593h12.121v3.514h-15.634v-44.62h15.634v3.513h-12.121Z" stroke="#000" stroke-miterlimit="10" stroke-width="1.5"/>
      <path d="M516.928,354.974v24.407c0,1.562-.366,3.062-1.033,4.228-.573,1.152-1.496,2.297-2.706,3.334-1.019.851-2.119,1.322-3.185,1.778-1.233.464-2.501.679-3.94.679-1.512,0-2.867-.22-4.024-.655-1.271-.476-2.406-1.125-3.37-1.929-1.026-.882-2.059-1.876-2.757-3.276-.67-1.339-.996-2.701-.996-4.158v-24.408h2.822v24.408c0,1.024.222,1.944.699,2.896.448.899,1.146,1.602,2.054,2.382.706.587,1.566,1.076,2.54,1.442.828.312,1.876.476,3.032.476,1.107,0,2.028-.151,2.89-.474.859-.371,1.727-.742,2.414-1.315.907-.779,1.6-1.627,2.04-2.51.457-.804.698-1.835.698-2.896v-24.408h2.824Z" stroke="#000" stroke-miterlimit="10" stroke-width="1.5"/>
      <path d="M547.31,370.062l-.146,19.184-2.822-.021.081-10.713h-16.306v10.723h-2.822v-19.178l9.669-15.108h2.673l9.672,15.114ZM544.444,375.688l.037-4.812-8.18-12.781-8.183,12.786v4.808h16.327Z" stroke="#000" stroke-miterlimit="10" stroke-width="1.5"/>
      <path d="M577.686,354.984v34.284h-2.822v-28.712l-6.648,11.923h-3.068l-6.65-11.923v28.712h-2.822v-34.284h2.945l8.06,14.452,8.061-14.452h2.945Z" stroke="#000" stroke-miterlimit="10" stroke-width="1.5"/>
      <path d="M1063.701,344.594v44.62h-15.635v-3.514h12.121v-37.593h-12.121v-3.514h15.635Z" stroke="#000" stroke-miterlimit="10" stroke-width="1.5"/>
    </g>
    <g>
      <rect x="435.75" y="395.682" width="703.873" height="52.826" fill="none"/>
      <path d="M450.212,428.428v12.416h-2.822v-12.416h-9.19l10.592-10.592,10.8,10.592h-9.38Z" stroke="#000" stroke-miterlimit="10" stroke-width="1.5"/>
      <path d="M482.962,438.101v.887h-1.986l-.561.414-8.416-11.431-3.146,3.389v7.487h-2.822v-32.873h2.822v21.238l10.394-11.194.426.397h2.019v1.119l-7.738,8.334,9.008,12.234Z" stroke="#000" stroke-miterlimit="10" stroke-width="1.5"/>
      <path d="M507.589,423.14c.39,1.946.217,3.624.153,4.097v11.61h-2.822l.02-11.942c.001-.01.23-1.488-.133-3.301-.226-1.67-.81-2.861-1.803-3.73-.738-.645-2.146-1.061-3.587-1.061-1.22,0-2.466.446-3.507,1.255-2.151,1.813-3.265,4.298-3.265,7.351v11.428h-2.822v-11.428c0-.086.011-.166.013-.251l-.152.004s-.143-5.811-.143-7.653c0-.929-.137-2.988-.137-3.01l2.815-.188c.006.089.144,2.174.144,3.197v.197c.517-.661,1.105-1.278,1.772-1.841,1.577-1.228,3.437-1.883,5.282-1.883,2.149,0,4.184.658,5.443,1.76,1.508,1.321,2.427,3.134,2.728,5.39h0Z" stroke="#000" stroke-miterlimit="10" stroke-width="1.5"/>
      <path d="M535.129,426.96c0,6.536-4.684,11.852-10.441,11.852s-10.44-5.317-10.44-11.852,4.684-11.851,10.44-11.851,10.441,5.316,10.441,11.851ZM532.307,426.96c0-4.979-3.417-9.03-7.619-9.03s-7.619,4.051-7.619,9.03,3.417,9.03,7.619,9.03,7.619-4.051,7.619-9.03Z" stroke="#000" stroke-miterlimit="10" stroke-width="1.5"/>
      <path d="M567.5,414.993l-.039.9-5.626,22.944h-2.629l-4.686-18.507-4.687,18.507h-2.775l-5.518-23.28v-.564h2.822v.398l4.124,17.273,4.655-18.376h2.761l4.595,18.152,4.182-17.053v-.394h2.821Z" stroke="#000" stroke-miterlimit="10" stroke-width="1.5"/>
      <path d="M592.113,423.14c.391,1.946.217,3.624.153,4.097v11.61h-2.822l.02-11.942c.001-.01.23-1.488-.133-3.301-.226-1.67-.81-2.861-1.803-3.73-.738-.645-2.146-1.061-3.587-1.061-1.22,0-2.466.446-3.507,1.255-2.151,1.813-3.265,4.298-3.265,7.351v11.428h-2.822v-11.428c0-.086.011-.166.013-.251l-.152.004s-.143-5.811-.143-7.653c0-.929-.137-2.988-.137-3.01l2.815-.188c.006.089.144,2.174.144,3.197v.197c.517-.661,1.105-1.278,1.772-1.841,1.577-1.228,3.437-1.883,5.282-1.883,2.149,0,4.184.658,5.443,1.76,1.508,1.321,2.427,3.134,2.728,5.39h0Z" stroke="#000" stroke-miterlimit="10" stroke-width="1.5"/>
      <path d="M624.205,415.69c5.681,0,10.3,5.189,10.3,11.569s-4.621,11.569-10.3,11.569c-2.931,0-5.573-1.39-7.451-3.604l.115,12.48-2.822.027-.282-31.616h2.822v.705l.024,2.654c1.885-2.318,4.586-3.782,7.594-3.782h0ZM631.683,427.26c0-4.824-3.355-8.747-7.478-8.747s-7.477,3.923-7.477,8.747,3.355,8.748,7.477,8.748,7.478-3.923,7.478-8.748Z" stroke="#000" stroke-miterlimit="10" stroke-width="1.5"/>
      <path d="M661.792,426.96c0,6.536-4.684,11.852-10.441,11.852s-10.44-5.317-10.44-11.852,4.684-11.851,10.44-11.851,10.441,5.316,10.441,11.851ZM658.97,426.96c0-4.979-3.417-9.03-7.619-9.03s-7.619,4.051-7.619,9.03,3.417,9.03,7.619,9.03,7.619-4.051,7.619-9.03Z" stroke="#000" stroke-miterlimit="10" stroke-width="1.5"/>
      <path d="M675.994,425.206c5.587,2.128,6.748,5.046,6.748,7.123,0,3.738-3.421,6.349-8.323,6.349-2.387,0-5.833-1.502-6.216-1.675l1.146-2.578c1.292.576,3.708,1.431,5.071,1.431,3.291,0,5.501-1.418,5.501-3.527,0-2.156-2.651-3.619-4.876-4.467-3.672-1.223-5.563-3.335-5.563-6.257,0-3.857,2.879-6.349,7.337-6.349,3.039,0,3.846.379,4.91.998.21.124.441.259.752.4l-1.168,2.568c-.412-.188-.721-.366-1.001-.529-.661-.384-1.06-.615-3.493-.615-1.686,0-4.515.458-4.515,3.527,0,1.104.419,2.51,3.691,3.6h.001Z" stroke="#000" stroke-miterlimit="10" stroke-width="1.5"/>
      <path d="M689.175,410.065c0-1.636,1.263-2.962,2.822-2.962s2.822,1.327,2.822,2.962-1.263,2.963-2.822,2.963-2.822-1.327-2.822-2.963ZM690.586,438.847v-22.433h2.822v22.433h-2.822Z" stroke="#000" stroke-miterlimit="10" stroke-width="1.5"/>
      <path d="M708.283,419.224v13.262c0,1.111.26,2.143.661,2.624.473.552,1.713.903,2.583.903.85,0,1.757-.332,1.767-.334l.236-.089h.678v2.537l.074.195c-.014.005-.04.014-.074.027v.063h-.189c-.464.149-1.454.423-2.493.423-1.546,0-3.612-.588-4.739-1.903-1.198-1.439-1.326-3.587-1.326-4.445v-13.262h-4.233v-2.822h4.233v-6.208h2.822v6.208h6.349v2.822h-6.349Z" stroke="#000" stroke-miterlimit="10" stroke-width="1.5"/>
      <path d="M721.073,410.065c0-1.636,1.263-2.962,2.822-2.962s2.822,1.327,2.822,2.962-1.263,2.963-2.822,2.963-2.822-1.327-2.822-2.963ZM722.484,438.847v-22.433h2.822v22.433h-2.822Z" stroke="#000" stroke-miterlimit="10" stroke-width="1.5"/>
      <path d="M754.008,426.96c0,6.536-4.684,11.852-10.44,11.852s-10.44-5.317-10.44-11.852,4.684-11.851,10.44-11.851,10.44,5.316,10.44,11.851ZM751.186,426.96c0-4.979-3.418-9.03-7.619-9.03s-7.619,4.051-7.619,9.03,3.418,9.03,7.619,9.03,7.619-4.051,7.619-9.03Z" stroke="#000" stroke-miterlimit="10" stroke-width="1.5"/>
      <path d="M778.603,423.14c.391,1.946.217,3.624.153,4.097v11.61h-2.821l.02-11.942c.002-.01.23-1.488-.133-3.301-.226-1.67-.81-2.861-1.803-3.73-.738-.645-2.146-1.061-3.587-1.061-1.22,0-2.466.446-3.507,1.255-2.151,1.813-3.265,4.298-3.265,7.351v11.428h-2.822v-11.428c0-.086.012-.166.013-.251l-.152.004s-.143-5.811-.143-7.653c0-.929-.137-2.988-.137-3.01l2.814-.188c.006.089.145,2.174.145,3.197v.197c.517-.661,1.104-1.278,1.771-1.841,1.577-1.228,3.438-1.883,5.282-1.883,2.149,0,4.184.658,5.443,1.76,1.509,1.321,2.427,3.134,2.728,5.39h0Z" stroke="#000" stroke-miterlimit="10" stroke-width="1.5"/>
      <path d="M797.274,428.428v12.416h-2.821v-12.416h-9.19l10.591-10.592,10.801,10.592h-9.38Z" stroke="#000" stroke-miterlimit="10" stroke-width="1.5"/>
    </g>
    <g>
      <rect x="435.75" y="466.905" width="438.812" height="52.826" fill="none"/>
      <path d="M438.2,490.363c0-1.636,1.264-2.963,2.822-2.963s2.822,1.327,2.822,2.963-1.263,2.963-2.822,2.963-2.822-1.326-2.822-2.963ZM438.2,506.87c0-1.636,1.264-2.963,2.822-2.963s2.822,1.327,2.822,2.963-1.263,2.963-2.822,2.963-2.822-1.326-2.822-2.963Z" stroke="#000" stroke-miterlimit="10" stroke-width="1.5"/>
      <path d="M486.378,496.069c.612,1.213.907,2.407.907,3.547,0,3.039-1.115,5.535-3.315,7.419-2.056,1.899-4.656,2.88-7.689,2.88h-.282c-2.86,0-5.495-1.017-7.832-3.021-1.826-1.545-2.361-2.91-2.749-3.906-.058-.145-.111-.285-.169-.419l2.593-1.113c.069.161.135.329.205.504.326.834.663,1.696,1.951,2.785,1.844,1.583,3.805,2.348,6.002,2.348h.282c2.333,0,4.237-.708,5.814-2.166,1.63-1.397,2.369-3.073,2.369-5.312,0-.694-.198-1.473-.557-2.191-.309-.506-.758-1.175-1.354-1.573-.686-.542-1.566-1.049-2.454-1.429-.576-.247-1.223-.446-1.974-.676-.416-.128-.851-.262-1.302-.412l-4.149-1.105c-2.236-.687-3.849-1.721-4.981-3.177-1.229-1.579-1.851-3.436-1.851-5.522,0-2.581,1.071-4.794,3.18-6.581,2.005-1.851,4.28-2.733,7.121-2.733h.281c2.853.165,5.234,1.143,7.162,2.909,1.464,1.301,2.351,2.857,2.692,4.739l-2.778.502c-.23-1.271-.786-2.242-1.805-3.148-1.452-1.331-3.25-2.061-5.354-2.186l-.199.003c-2.115,0-3.736.625-5.251,2.025-1.514,1.284-2.228,2.731-2.228,4.467,0,1.444.423,2.719,1.255,3.79.776.998,1.899,1.696,3.535,2.2l4.182,1.114c.512.167.924.293,1.319.415.795.244,1.545.474,2.26.78,1.125.481,2.219,1.117,3.006,1.747.962.636,1.64,1.623,2.162,2.493h-.003Z" stroke="#000" stroke-miterlimit="10" stroke-width="1.5"/>
      <path d="M529.725,480.322c.652,1.301.996,2.788.996,4.299v15.378c0,1.511-.344,3-.996,4.3-.61,1.222-1.532,2.366-2.742,3.403-1.079.898-2.239,1.511-3.461,1.83-1.114.406-2.315.612-3.666.625h-.141c-1.508-.011-2.71-.214-3.881-.653-1.273-.479-2.406-1.127-3.371-1.932-1.225-1.048-2.147-2.194-2.758-3.416-.652-1.301-.996-2.788-.996-4.297v-15.378c0-1.51.346-2.997.996-4.299.611-1.222,1.534-2.367,2.743-3.403,1.079-.9,2.239-1.511,3.461-1.83,1.152-.42,2.398-.626,3.807-.626,1.511,0,2.864.219,4.022.653,1.273.477,2.406,1.127,3.372,1.932,1.074.918,1.925,2.033,2.616,3.414h0ZM511.533,484.48v13.917l16.19-15.351c-.117-.514-.292-1.006-.521-1.463-.526-1.054-1.134-1.855-1.913-2.523-.706-.588-1.566-1.078-2.54-1.443-.828-.311-1.876-.474-3.032-.474-1.109,0-2.027.151-2.891.474l-.152.048c-.837.209-1.644.635-2.403,1.267-.907.777-1.599,1.627-2.04,2.51-.457.914-.699,1.964-.699,3.038ZM527.901,500.001v-13.233l-16.034,15.203c.102.32.219.632.366.927.441.883,1.133,1.732,2.056,2.522.705.587,1.564,1.077,2.54,1.443.858.322,1.772.469,2.957.474,1.078-.005,1.977-.156,2.823-.474l.152-.048c.837-.208,1.644-.635,2.403-1.267.906-.777,1.597-1.626,2.039-2.51.457-.913.699-1.962.699-3.038Z" stroke="#000" stroke-miterlimit="10" stroke-width="1.5"/>
      <path d="M558.145,480.322c.652,1.301.996,2.788.996,4.299v15.378c0,1.511-.344,3-.996,4.3-.61,1.222-1.532,2.366-2.742,3.403-1.079.898-2.239,1.511-3.461,1.83-1.114.406-2.315.612-3.666.625h-.141c-1.508-.011-2.71-.214-3.881-.653-1.273-.479-2.406-1.127-3.371-1.932-1.225-1.048-2.147-2.194-2.758-3.416-.652-1.301-.996-2.788-.996-4.297v-15.378c0-1.51.346-2.997.996-4.299.611-1.222,1.534-2.367,2.743-3.403,1.079-.9,2.239-1.511,3.461-1.83,1.152-.42,2.398-.626,3.807-.626,1.511,0,2.864.219,4.022.653,1.273.477,2.406,1.127,3.372,1.932,1.074.918,1.925,2.033,2.616,3.414h0ZM539.953,484.48v13.917l16.19-15.351c-.117-.514-.292-1.006-.521-1.463-.526-1.054-1.134-1.855-1.913-2.523-.706-.588-1.566-1.078-2.54-1.443-.828-.311-1.876-.474-3.032-.474-1.109,0-2.027.151-2.891.474l-.152.048c-.837.209-1.644.635-2.403,1.267-.907.777-1.599,1.627-2.04,2.51-.457.914-.699,1.964-.699,3.038ZM556.321,500.001v-13.233l-16.034,15.203c.102.32.219.632.366.927.441.883,1.133,1.732,2.056,2.522.705.587,1.564,1.077,2.54,1.443.858.322,1.772.469,2.957.474,1.078-.005,1.977-.156,2.823-.474l.152-.048c.837-.208,1.644-.635,2.403-1.267.906-.777,1.597-1.626,2.039-2.51.457-.913.699-1.962.699-3.038Z" stroke="#000" stroke-miterlimit="10" stroke-width="1.5"/>
      <path d="M565.549,506.87c0-1.636,1.264-2.963,2.822-2.963s2.822,1.327,2.822,2.963-1.263,2.963-2.822,2.963-2.822-1.326-2.822-2.963Z" stroke="#000" stroke-miterlimit="10" stroke-width="1.5"/>
      <path d="M598.619,480.322c.652,1.301.996,2.788.996,4.299v15.378c0,1.511-.344,3-.996,4.3-.61,1.222-1.532,2.366-2.742,3.403-1.079.898-2.239,1.511-3.461,1.83-1.114.406-2.315.612-3.665.625h-.141c-1.508-.011-2.71-.214-3.881-.653-1.273-.479-2.406-1.127-3.371-1.932-1.225-1.048-2.147-2.194-2.758-3.416-.652-1.301-.996-2.788-.996-4.297v-15.378c0-1.51.346-2.997.996-4.299.611-1.222,1.533-2.367,2.743-3.403,1.079-.9,2.239-1.511,3.461-1.83,1.152-.42,2.398-.626,3.807-.626,1.511,0,2.864.219,4.022.653,1.273.477,2.406,1.127,3.372,1.932,1.074.918,1.925,2.033,2.616,3.414h0ZM580.427,484.48v13.917l16.189-15.351c-.117-.514-.292-1.006-.521-1.463-.526-1.054-1.134-1.855-1.913-2.523-.706-.588-1.566-1.078-2.54-1.443-.828-.311-1.876-.474-3.032-.474-1.109,0-2.027.151-2.891.474l-.152.048c-.837.209-1.644.635-2.403,1.267-.907.777-1.599,1.627-2.04,2.51-.457.914-.698,1.964-.698,3.038ZM596.794,500.001v-13.233l-16.033,15.203c.102.32.219.632.366.927.441.883,1.133,1.732,2.056,2.522.705.587,1.564,1.077,2.54,1.443.858.322,1.772.469,2.957.474,1.078-.005,1.977-.156,2.823-.474l.152-.048c.837-.208,1.644-.635,2.403-1.267.906-.777,1.597-1.626,2.039-2.51.457-.913.698-1.962.698-3.038Z" stroke="#000" stroke-miterlimit="10" stroke-width="1.5"/>
      <path d="M627.18,494.643c.786,1.374.892,2.695.892,3.804v1.27c0,1.194-.261,2.356-.82,3.66l-.072.144c-.645,1.13-1.466,2.114-2.438,2.923-.889.741-2.07,1.39-3.512,1.93-1.174.44-2.535.655-4.164.655-1.394,0-2.751-.292-4.011-.607l-.152-.048c-1.442-.541-2.624-1.191-3.512-1.93-.972-.81-1.792-1.794-2.438-2.923-.786-1.374-.892-2.693-.892-3.804-.01-.196-.276-6.381.738-11.023,1.356-5.868,7.734-12.25,11.82-14.607l1.41,2.443c-3.625,2.091-9.364,7.966-10.476,12.781-.185.844-.322,1.757-.425,2.678.24-.21.492-.412.756-.605.745-.597,2.187-1.421,3.41-1.771,1.229-.353,6.464-.375,7.936.176,1.44.54,2.623,1.191,3.512,1.931.972.81,1.793,1.795,2.438,2.924h-.001ZM625.253,499.719v-1.27c0-1.075-.146-1.749-.519-2.404-.477-.835-1.081-1.562-1.795-2.156-.636-.531-1.569-1.034-2.696-1.456-.827-.293-5.349-.322-6.174-.106-.811.233-1.913.855-2.466,1.296-1.693,1.243-2.716,2.917-2.716,4.401h-.035c.005.983.034,1.611.034,1.629.001,1.14.146,1.813.521,2.468.479.835,1.082,1.562,1.795,2.156.619.518,1.525,1.01,2.621,1.428,1.061.264,2.186.502,3.247.502,1.284,0,2.321-.155,3.173-.474,1.129-.425,2.062-.927,2.696-1.456.694-.577,1.284-1.28,1.755-2.087.385-.918.559-1.683.559-2.472h.001Z" stroke="#000" stroke-miterlimit="10" stroke-width="1.5"/>
      <path d="M670.508,485.425v1.857l-18.202,18.061v.399l-.416.014-.014-.014h-2.392v-1.576l18.202-18.059v-.682h2.821Z" stroke="#000" stroke-miterlimit="10" stroke-width="1.5"/>
      <path d="M713.928,475.765v34.425h-2.942l-8.13-14.464-7.99,14.464h-2.949v-34.425h2.822v28.818l6.646-12.029h2.927l6.793,12.09v-28.879h2.822Z" stroke="#000" stroke-miterlimit="10" stroke-width="1.5"/>
      <path d="M756.347,480.322c.652,1.301.996,2.788.996,4.299v15.378c0,1.511-.344,3-.996,4.3-.609,1.222-1.532,2.366-2.741,3.403-1.079.898-2.239,1.511-3.461,1.83-1.114.406-2.315.612-3.665.625h-.142c-1.508-.011-2.71-.214-3.881-.653-1.273-.479-2.406-1.127-3.371-1.932-1.225-1.048-2.147-2.194-2.758-3.416-.652-1.301-.996-2.788-.996-4.297v-15.378c0-1.51.346-2.997.996-4.299.61-1.222,1.533-2.367,2.742-3.403,1.079-.9,2.239-1.511,3.461-1.83,1.152-.42,2.398-.626,3.807-.626,1.511,0,2.864.219,4.022.653,1.272.477,2.405,1.127,3.372,1.932,1.073.918,1.925,2.033,2.615,3.414h0ZM738.155,484.48v13.917l16.189-15.351c-.117-.514-.292-1.006-.521-1.463-.526-1.054-1.135-1.855-1.913-2.523-.706-.588-1.566-1.078-2.54-1.443-.828-.311-1.876-.474-3.032-.474-1.108,0-2.027.151-2.891.474l-.152.048c-.837.209-1.644.635-2.402,1.267-.907.777-1.599,1.627-2.04,2.51-.457.914-.698,1.964-.698,3.038ZM754.522,500.001v-13.233l-16.033,15.203c.102.32.219.632.365.927.441.883,1.133,1.732,2.056,2.522.705.587,1.564,1.077,2.54,1.443.857.322,1.771.469,2.957.474,1.078-.005,1.977-.156,2.823-.474l.152-.048c.837-.208,1.644-.635,2.402-1.267.906-.777,1.598-1.626,2.039-2.51.457-.913.698-1.962.698-3.038Z" stroke="#000" stroke-miterlimit="10" stroke-width="1.5"/>
      <path d="M784.766,480.322c.652,1.301.996,2.788.996,4.299v15.378c0,1.511-.344,3-.996,4.3-.609,1.222-1.532,2.366-2.741,3.403-1.079.898-2.239,1.511-3.461,1.83-1.114.406-2.315.612-3.665.625h-.142c-1.508-.011-2.71-.214-3.881-.653-1.273-.479-2.406-1.127-3.371-1.932-1.225-1.048-2.147-2.194-2.758-3.416-.652-1.301-.996-2.788-.996-4.297v-15.378c0-1.51.346-2.997.996-4.299.61-1.222,1.533-2.367,2.742-3.403,1.079-.9,2.239-1.511,3.461-1.83,1.152-.42,2.398-.626,3.807-.626,1.511,0,2.864.219,4.022.653,1.272.477,2.405,1.127,3.372,1.932,1.074.918,1.925,2.033,2.616,3.414h-.002ZM766.575,484.48v13.917l16.189-15.351c-.117-.514-.292-1.006-.521-1.463-.526-1.054-1.135-1.855-1.913-2.523-.706-.588-1.566-1.078-2.54-1.443-.828-.311-1.876-.474-3.032-.474-1.108,0-2.027.151-2.891.474l-.152.048c-.837.209-1.644.635-2.402,1.267-.907.777-1.599,1.627-2.04,2.51-.457.914-.698,1.964-.698,3.038ZM782.942,500.001v-13.233l-16.033,15.203c.102.32.219.632.365.927.441.883,1.133,1.732,2.056,2.522.705.587,1.564,1.077,2.54,1.443.857.322,1.771.469,2.957.474,1.078-.005,1.977-.156,2.823-.474l.152-.048c.837-.208,1.644-.635,2.402-1.267.906-.777,1.598-1.626,2.039-2.51.457-.913.698-1.962.698-3.038Z" stroke="#000" stroke-miterlimit="10" stroke-width="1.5"/>
      <path d="M792.171,506.87c0-1.636,1.263-2.963,2.821-2.963s2.822,1.327,2.822,2.963-1.264,2.963-2.822,2.963-2.821-1.326-2.821-2.963Z" stroke="#000" stroke-miterlimit="10" stroke-width="1.5"/>
      <path d="M808.085,507.477h17.444v2.822h-21.305v-2.812l3.71-4.048c1.943-2.166,3.728-4.151,5.42-5.957.841-.841,1.684-1.824,2.497-2.775.852-.992,4.25-4.817,4.25-4.817.385-.388.603-.662.748-.842.086-.109.159-.196.22-.264.413-.526.761-1.192,1.006-1.928.233-.699.352-1.257.352-2.376,0-.961-.199-1.914-.591-2.831-.357-.947-.926-1.629-1.677-2.38-.856-.706-1.667-1.213-2.46-1.51-2.27-.851-3.797-.849-6.062,0-1.039.389-1.82.869-2.463,1.511-.74.741-1.336,1.585-1.676,2.38l-2.593-1.112c.485-1.133,1.272-2.262,2.274-3.263.925-.924,2.058-1.629,3.466-2.157,2.887-1.086,5.151-1.086,8.045,0,1.443.542,2.614,1.442,3.371,2.071.926.918,1.851,1.965,2.393,3.41.521,1.209.796,2.535.796,3.881,0,1.484-.19,2.35-.497,3.269-.354,1.064-.876,2.044-1.507,2.833l-.193.23c-.188.237-.473.591-.898,1.016.003,0-3.322,3.742-4.159,4.718-.85.991-1.727,2.015-2.613,2.901-1.649,1.759-3.418,3.73-5.349,5.879l-1.946,2.151h-.002Z" stroke="#000" stroke-miterlimit="10" stroke-width="1.5"/>
      <path d="M852.983,493.439c.533,1.246.794,3.653.794,4.869,0,1.301,0,2.16-.612,4.456-.54,2.157-1.647,3.609-2.481,4.443-.933.931-2.715,2.12-4.182,2.487-1.385.465-3.645.465-4.858.465-1.433,0-3.918-.808-4.929-1.242-1.185-.508-3.406-2.006-4.757-3.205l1.875-2.109c1.182,1.05,3.184,2.373,3.993,2.722.932.399,2.991,1.014,3.817,1.014.979,0,3.017,0,4.069-.351.903-.23,2.245-1.045,2.976-1.776.581-.58,1.357-1.6,1.745-3.153.522-1.958.522-2.52.522-3.749,0-1.252-.286-3.109-.592-3.819-.347-.92-.769-1.62-1.479-2.474-.619-.743-1.295-1.275-2.011-1.582-.888-.381-1.827-.733-2.689-.733h-3.809v-3.073l8.383-9.484h-12.898v-2.822h15.943v3.636l-7.884,8.92h.265c1.376,0,2.693.485,3.802.961,1.127.484,2.16,1.281,3.067,2.369.918,1.101,1.495,2.067,1.931,3.229h0Z" stroke="#000" stroke-miterlimit="10" stroke-width="1.5"/>
    </g>
    <g>
      <rect x="951.72" y="461.218" width="197.903" height="52.826" fill="none"/>
      <path d="M976.184,485.166l-.146,19.184-2.821-.021.08-10.713h-16.306v10.723h-2.821v-19.178l9.669-15.108h2.673l9.672,15.114ZM973.319,490.793l.036-4.812-8.18-12.781-8.184,12.785v4.809h16.327Z" stroke="#000" stroke-miterlimit="10" stroke-width="1.5"/>
      <path d="M1000.574,499.505c.856-.646,1.597-1.466,2.266-2.537l2.393,1.496c-.848,1.357-1.84,2.451-3.03,3.345-.995.666-2.23,1.284-3.454,1.744-1.391.464-2.662.655-4.306.655-1.747,0-3.114-.208-4.305-.653-1.225-.408-2.341-.989-3.569-1.866-1.223-.761-2.279-1.933-2.981-3.34-.652-1.301-.996-2.788-.996-4.299v-15.379c0-1.785.574-3.176,1.136-4.299.914-1.474,1.904-2.568,3.097-3.461.992-.665,2.228-1.284,3.454-1.744,1.386-.463,2.658-.653,4.305-.653,1.748,0,3.115.209,4.305.655,1.223.406,2.339.986,3.569,1.865,1.326.996,2.32,2.16,2.981,3.48l-2.524,1.263c-.463-.927-1.177-1.756-2.123-2.466-.979-.698-1.837-1.147-2.845-1.483-.913-.341-1.966-.492-3.363-.492-1.342,0-2.317.143-3.364.492-.983.37-2.009.882-2.767,1.387-.856.645-1.597,1.466-2.267,2.537-.438.89-.773,1.792-.773,2.92v15.377c0,1.075.241,2.125.697,3.036.478.957,1.159,1.716,2.025,2.257,1.077.766,1.935,1.216,2.943,1.552.913.341,1.967.492,3.363.492,1.339,0,2.314-.143,3.364-.492.98-.369,2.007-.882,2.767-1.387l.003-.003Z" stroke="#000" stroke-miterlimit="10" stroke-width="1.5"/>
      <path d="M1029.827,499.505c.856-.646,1.597-1.466,2.266-2.537l2.393,1.496c-.848,1.357-1.84,2.451-3.03,3.345-.995.666-2.23,1.284-3.454,1.744-1.391.464-2.662.655-4.306.655-1.747,0-3.114-.208-4.305-.653-1.225-.408-2.341-.989-3.569-1.866-1.223-.761-2.279-1.933-2.981-3.34-.652-1.301-.996-2.788-.996-4.299v-15.379c0-1.785.574-3.176,1.136-4.299.914-1.474,1.904-2.568,3.097-3.461.992-.665,2.228-1.284,3.454-1.744,1.386-.463,2.658-.653,4.305-.653,1.748,0,3.115.209,4.305.655,1.223.406,2.339.986,3.569,1.865,1.326.996,2.32,2.16,2.981,3.48l-2.524,1.263c-.463-.927-1.177-1.756-2.123-2.466-.979-.698-1.837-1.147-2.845-1.483-.913-.341-1.966-.492-3.363-.492-1.342,0-2.317.143-3.364.492-.983.37-2.009.882-2.767,1.387-.856.645-1.597,1.466-2.267,2.537-.438.89-.773,1.792-.773,2.92v15.377c0,1.075.241,2.125.697,3.036.478.957,1.159,1.716,2.025,2.257,1.077.766,1.935,1.216,2.943,1.552.913.341,1.967.492,3.363.492,1.339,0,2.314-.143,3.364-.492.98-.369,2.007-.882,2.767-1.387l.003-.003Z" stroke="#000" stroke-miterlimit="10" stroke-width="1.5"/>
      <path d="M1043.918,471.476v11.569h10.158v2.822h-10.158v15.661h18.482v2.822h-21.304v-35.695h21.304v2.822h-18.482Z" stroke="#000" stroke-miterlimit="10" stroke-width="1.5"/>
      <path d="M1090.16,476.587c.559,1.301.82,2.465.82,3.66,0,1.24-.284,2.554-.82,3.803-.471,1.097-1.248,2.236-2.133,3.12-.815.816-2.135,1.904-3.796,2.458-1.543.691-3.335.777-4.539.777h-8.04v13.968h-2.822v-34.425h10.723c1.697,0,3.18.308,4.666.968,1.528.681,2.774,1.515,3.81,2.549.885.884,1.662,2.022,2.134,3.123h-.002ZM1087.57,482.936c.386-.9.591-1.83.591-2.689,0-.812-.182-1.597-.591-2.548-.326-.76-.915-1.618-1.535-2.239-.799-.797-1.739-1.422-2.962-1.966-1.127-.501-2.212-.725-3.519-.725h-7.9v14.814h8.04c1.525,0,2.609-.179,3.519-.584,1.016-.346,1.972-.975,2.82-1.824.622-.622,1.211-1.479,1.535-2.239h.002Z" stroke="#000" stroke-miterlimit="10" stroke-width="1.5"/>
      <path d="M1117.996,472.959h-8.889v31.463h-2.821v-31.463h-8.89v-2.822h20.6v2.822Z" stroke="#000" stroke-miterlimit="10" stroke-width="1.5"/>
      <path d="M1133.706,494.038v-4.694h-9.312v-2.822h9.312v-4.478l7.996,5.864-7.996,6.13Z" stroke="#000" stroke-miterlimit="10" stroke-width="1.5"/>
    </g>
    <g>
      <rect x="921.913" y="593.454" width="225.662" height="52.826" fill="none"/>
      <path d="M938.365,622.294l8.149,13.498v.816h-2.111l-.507.307-8.622-14.278c-.062,0-.127.004-.188.004h-7.902v13.968h-2.822v-34.425h10.582c1.628,0,3.239.336,4.666.968,1.53.681,2.776,1.515,3.81,2.549.838.837,1.458,1.924,2.06,2.973l.074.15c.56,1.306.82,2.469.82,3.659,0,1.236-.283,2.55-.82,3.802-.472,1.1-1.251,2.238-2.134,3.121-.816.816-2.135,1.904-3.796,2.459-.416.186-.837.322-1.259.432v-.002ZM927.184,605.005v14.814h7.902c1.586,0,2.571-.165,3.518-.584,1.016-.346,1.971-.976,2.82-1.824.629-.631,1.204-1.469,1.536-2.24.387-.902.591-1.832.591-2.688,0-.787-.173-1.553-.56-2.476-.52-.907-1.009-1.754-1.566-2.312-.797-.797-1.738-1.422-2.961-1.966-1.066-.474-2.283-.725-3.52-.725h-7.761Z" stroke="#000" stroke-miterlimit="10" stroke-width="1.5"/>
      <path d="M966.932,622.294l8.149,13.498v.816h-2.111l-.507.307-8.622-14.278c-.062,0-.127.004-.188.004h-7.902v13.968h-2.822v-34.425h10.582c1.628,0,3.239.336,4.666.968,1.53.681,2.776,1.515,3.81,2.549.838.837,1.458,1.924,2.06,2.973l.074.15c.56,1.306.82,2.469.82,3.659,0,1.236-.283,2.55-.82,3.802-.472,1.1-1.251,2.238-2.134,3.121-.816.816-2.135,1.904-3.796,2.459-.416.186-.837.322-1.259.432v-.002ZM955.751,605.005v14.814h7.902c1.586,0,2.571-.165,3.518-.584,1.016-.346,1.971-.976,2.82-1.824.629-.631,1.204-1.469,1.536-2.24.387-.902.591-1.832.591-2.688,0-.787-.173-1.553-.56-2.476-.52-.907-1.009-1.754-1.566-2.312-.797-.797-1.738-1.422-2.961-1.966-1.066-.474-2.283-.725-3.52-.725h-7.761Z" stroke="#000" stroke-miterlimit="10" stroke-width="1.5"/>
      <path d="M984.317,603.713v11.569h10.158v2.821h-10.158v15.661h18.482v2.821h-21.305v-35.695h21.305v2.822h-18.482Z" stroke="#000" stroke-miterlimit="10" stroke-width="1.5"/>
      <path d="M1030.816,602.461v24.55c0,1.577-.36,3.032-1.137,4.583-.298.597-.635,1.272-1.18,1.844-.533.684-1.188,1.175-1.77,1.612l-.127.085c-.746.447-1.584.951-2.643,1.149-1.092.342-2.63.463-3.728.463-1.165,0-2.484,0-3.713-.501-1.077-.312-1.741-.646-2.515-1.11-.775-.466-1.649-.99-2.237-1.773-.136-.182-.292-.344-.443-.504-.327-.347-.696-.739-.959-1.264-.447-.895-.95-1.902-1.123-3.114l-.015-.198v-1.271h2.822v1.161c.123.726.47,1.42.837,2.153.078.158.279.37.49.596.222.235.447.479.647.746.257.34.853.698,1.429,1.044.635.381,1.083.604,1.923.844l.169.06c.72.309,1.676.309,2.688.309,1.11,0,2.32-.146,2.939-.352l.216-.053c.562-.094,1.093-.404,1.7-.768.478-.36.921-.7,1.212-1.087l.13-.149c.262-.263.486-.711.724-1.186.572-1.144.839-2.199.839-3.319v-24.55h2.823Z" stroke="#000" stroke-miterlimit="10" stroke-width="1.5"/>
      <path d="M1040.078,603.713v11.569h10.158v2.821h-10.158v15.661h18.482v2.821h-21.305v-35.695h21.305v2.822h-18.482Z" stroke="#000" stroke-miterlimit="10" stroke-width="1.5"/>
      <path d="M1082.973,631.741c.856-.646,1.598-1.466,2.266-2.537l2.394,1.496c-.849,1.357-1.84,2.45-3.031,3.345-.994.666-2.23,1.284-3.453,1.744-1.392.464-2.663.654-4.307.654-1.746,0-3.113-.207-4.305-.653-1.225-.407-2.341-.988-3.569-1.866-1.222-.761-2.278-1.933-2.981-3.34-.651-1.301-.996-2.788-.996-4.299v-15.379c0-1.784.574-3.176,1.136-4.299.915-1.474,1.905-2.567,3.098-3.461.991-.664,2.228-1.283,3.453-1.743,1.386-.463,2.658-.653,4.305-.653,1.748,0,3.115.209,4.305.654,1.224.406,2.34.986,3.569,1.865,1.326.996,2.321,2.16,2.981,3.48l-2.524,1.263c-.462-.927-1.176-1.756-2.123-2.466-.978-.698-1.837-1.147-2.845-1.483-.912-.341-1.965-.492-3.363-.492-1.342,0-2.316.143-3.363.492-.983.37-2.009.882-2.767,1.388-.856.645-1.598,1.466-2.268,2.536-.438.891-.773,1.792-.773,2.921v15.377c0,1.075.241,2.125.697,3.036.479.957,1.16,1.716,2.026,2.258,1.076.766,1.934,1.216,2.942,1.552.913.342,1.967.492,3.364.492,1.339,0,2.313-.143,3.363-.492.98-.368,2.008-.882,2.767-1.387l.003-.003Z" stroke="#000" stroke-miterlimit="10" stroke-width="1.5"/>
      <path d="M1114.842,605.195h-8.889v31.463h-2.821v-31.463h-8.89v-2.822h20.6v2.822Z" stroke="#000" stroke-miterlimit="10" stroke-width="1.5"/>
      <path d="M1130.553,626.274v-4.693h-9.312v-2.822h9.312v-4.478l7.995,5.863-7.995,6.13Z" stroke="#000" stroke-miterlimit="10" stroke-width="1.5"/>
    </g>
  </g>
  <g id="d" data-name="MAP_Bias_Page_Arrows_-_Light">
    <path d="M446.942,225.994l-66.795-36.941-3.526,12.529L110.653,116.833c1.365-4.467,2.176-9.18,2.321-14.069.878-29.571-22.466-54.343-52.037-55.22S6.595,70.009,5.717,99.58c-.878,29.57,22.466,54.342,52.037,55.22,21.535.639,40.512-11.574,49.582-29.676l266.874,85.025-3.526,12.529,76.257,3.316ZM57.991,146.804c-25.202-.748-45.026-21.785-44.278-46.986.748-25.202,21.785-45.026,46.986-44.278,25.202.748,45.026,21.785,44.278,46.986-.748,25.202-21.785,45.026-46.986,44.278Z" stroke="#fff" stroke-miterlimit="10" stroke-width="2"/>
    <path d="M1192.961,297.019l-5.41-11.838,291.217-142.062c11.744,16.493,32.374,25.644,53.554,21.702,29.085-5.412,48.343-33.478,42.931-62.562-5.412-29.085-33.478-48.343-62.563-42.931-29.084,5.412-48.343,33.478-42.93,62.563.895,4.808,2.42,9.341,4.456,13.545l-290.364,141.65-5.41-11.838-60.323,46.768,74.841-14.998ZM1477.625,120.427c-4.613-24.787,11.742-48.621,36.529-53.234,24.787-4.613,48.621,11.742,53.234,36.529,4.613,24.787-11.742,48.621-36.529,53.234-24.787,4.613-48.621-11.742-53.234-36.529Z" stroke="#fff" stroke-miterlimit="10" stroke-width="2"/>
    <path d="M1215.463,668.752l1.469-12.932,251.997,28.631c-.849,27.589,19.652,51.752,47.557,54.922,29.395,3.34,56.026-17.858,59.366-47.252,3.34-29.394-17.858-56.026-47.253-59.366-27.904-3.17-53.303,15.778-58.666,42.853l-251.997-28.631,1.469-12.932-75.801,8.965,71.858,25.742ZM1477.182,680.91c2.846-25.052,25.462-43.053,50.514-40.207,25.052,2.846,43.053,25.462,40.207,50.514-2.846,25.052-25.462,43.053-50.514,40.207-25.052-2.846-43.053-25.462-40.207-50.514Z" stroke="#fff" stroke-miterlimit="10" stroke-width="2"/>
    <path d="M1215.345,512.074v-13.015h253.618c2.271,27.508,25.369,49.202,53.453,49.202,29.584,0,53.652-24.068,53.652-53.652,0-29.583-24.068-53.652-53.652-53.652-28.084,0-51.181,21.694-53.453,49.202h-253.618s0-13.015,0-13.015l-74.304,17.465,74.304,17.465ZM1476.764,494.609c0-25.213,20.439-45.652,45.652-45.652s45.652,20.439,45.652,45.652c0,25.213-20.439,45.652-45.652,45.652s-45.652-20.439-45.652-45.652Z" stroke="#fff" stroke-miterlimit="10" stroke-width="2"/>
    <path d="M437.812,364.277l-67.862-34.943-3.152,12.628-255.668-69.654c1.232-4.506,1.902-9.241,1.902-14.132,0-29.584-24.068-53.652-53.652-53.652s-53.652,24.068-53.652,53.652,24.068,53.652,53.652,53.652c21.544,0,40.151-12.771,48.68-31.134l256.581,69.903-3.152,12.628,76.322,1.052ZM59.381,303.828c-25.213,0-45.652-20.439-45.652-45.652,0-25.213,20.439-45.652,45.652-45.652s45.652,20.439,45.652,45.652c0,25.213-20.439,45.652-45.652,45.652Z" stroke="#fff" stroke-miterlimit="10" stroke-width="2"/>
    <path d="M361.49,508.116l3.152,12.628-256.581,69.903c-8.529-18.363-27.136-31.134-48.68-31.134-29.584,0-53.652,24.068-53.652,53.652s24.068,53.652,53.652,53.652,53.652-24.068,53.652-53.652c0-4.891-.67-9.626-1.902-14.132l255.668-69.654,3.152,12.628,67.862-34.943-76.322,1.052ZM105.033,613.165c0,25.213-20.439,45.652-45.652,45.652s-45.652-20.439-45.652-45.652c0-25.213,20.439-45.652,45.652-45.652s45.652,20.439,45.652,45.652Z" stroke="#fff" stroke-miterlimit="10" stroke-width="2"/>
    <path d="M67.699,124.93v4.607h-14.744v-4.607h5.068v-47.279l-3.601,2.981-2.938-3.55,7.319-6.057h3.827v53.905h5.068Z" fill="#ff8500" stroke="#ff8500" stroke-miterlimit="10"/>
    <path d="M47.663,277.906h28.483v4.607h-34.786v-4.591l6.056-6.609c3.175-3.536,6.086-6.778,8.851-9.727,1.373-1.373,2.749-2.979,4.078-4.531,1.389-1.62,6.939-7.865,6.939-7.865.629-.634.983-1.081,1.221-1.375.141-.177.26-.32.359-.431.675-.859,1.242-1.947,1.643-3.149.38-1.14.574-2.053.574-3.879,0-1.569-.325-3.124-.965-4.621-.583-1.546-1.511-2.661-2.737-3.887-1.398-1.152-2.723-1.981-4.018-2.465-3.705-1.389-6.199-1.387-9.899,0-1.695.636-2.972,1.419-4.02,2.467-1.209,1.209-2.182,2.589-2.737,3.886l-4.234-1.815c.792-1.85,2.078-3.693,3.713-5.329,1.511-1.509,3.361-2.661,5.66-3.522,4.713-1.774,8.411-1.774,13.136,0,2.356.885,4.269,2.354,5.503,3.382,1.511,1.5,3.022,3.209,3.907,5.568.85,1.975,1.299,4.14,1.299,6.338,0,2.423-.311,3.838-.811,5.337-.578,1.737-1.431,3.338-2.46,4.626l-.315.375c-.309.387-.772.965-1.468,1.659.005,0-5.425,6.109-6.791,7.704-1.387,1.617-2.82,3.29-4.267,4.737-2.693,2.873-5.582,6.091-8.733,9.6l-3.179,3.513-.002-.002Z" fill="#ff8500" stroke="#ff8500" stroke-miterlimit="10"/>
    <path d="M1536.979,490.49c.875,2.045,1.338,4.193,1.338,6.208v11.288c0,2.018-.463,4.163-1.338,6.207-.854,1.993-2.263,3.902-3.866,5.238-1.235,1.03-3.149,2.498-5.503,3.382-2.367.887-4.456,1.299-6.57,1.299-2.408,0-5.419-.521-7.49-1.297-2.299-.864-4.148-2.016-5.658-3.524-1.451-1.196-2.858-3.105-3.713-5.098-.516-1.023-.795-2.133-1.039-3.113l-.069-.56v-2.073h4.607v1.79c.187.742.368,1.396.677,2.016.635,1.472,1.576,2.753,2.641,3.64,1.203,1.189,2.479,1.972,4.172,2.608,1.553.581,4.025,1.004,5.873,1.004,1.566,0,3.094-.311,4.95-1.006,1.292-.486,2.619-1.313,4.172-2.608,1.062-.887,2.005-2.17,2.583-3.516.631-1.475.965-2.993.965-4.391v-11.288c0-1.398-.334-2.917-.965-4.393-.576-1.346-1.519-2.626-2.583-3.513-1.202-1.187-2.479-1.972-4.172-2.605l-.705-.272c-1.288-.504-1.878-.735-4.245-.735-2.89,0-5.205.617-7.287,1.944-1.555.972-2.931,2.348-3.891,3.884l-.678,1.083h-6.114v-26.723h34.786v4.607h-30.179v16.301c1.056-1.18,2.276-2.212,3.617-3.05,2.799-1.783,5.994-2.654,9.745-2.654,3.08,0,4.257.398,5.922,1.05l.646.249c2.3.861,4.149,2.013,5.657,3.522,1.449,1.195,2.859,3.103,3.715,5.096v.002Z" fill="#ff8500" stroke="#ff8500" stroke-miterlimit="10"/>
    <path d="M1537.257,690.034c1.283,2.244,1.456,4.4,1.456,6.211v2.073c0,1.949-.426,3.848-1.339,5.977l-.117.234c-1.053,1.846-2.394,3.451-3.98,4.773-1.451,1.21-3.38,2.27-5.734,3.151-1.917.719-4.14,1.069-6.798,1.069-2.276,0-4.492-.478-6.55-.991l-.249-.078c-2.354-.882-4.285-1.944-5.733-3.151-1.588-1.322-2.926-2.931-3.981-4.773-1.283-2.244-1.456-4.397-1.456-6.211-.016-.32-.451-10.42,1.205-17.999,2.214-9.581,12.629-20.001,19.301-23.851l2.302,3.99c-5.919,3.414-15.29,13.007-17.105,20.87-.302,1.377-.525,2.867-.693,4.372.392-.344.804-.673,1.234-.988,1.217-.975,3.571-2.32,5.568-2.892,2.007-.575,10.556-.612,12.959.288,2.352.883,4.282,1.944,5.733,3.154,1.587,1.322,2.928,2.93,3.981,4.773l-.003-.003ZM1534.11,698.323v-2.073c0-1.756-.237-2.856-.848-3.926-.779-1.363-1.765-2.55-2.931-3.52-1.039-.866-2.562-1.689-4.402-2.378-1.351-.479-8.733-.525-10.081-.173-1.325.38-3.124,1.396-4.027,2.117-2.765,2.029-4.435,4.762-4.435,7.186h-.058c.01,1.605.056,2.631.056,2.66.002,1.862.239,2.961.85,4.029.781,1.364,1.768,2.551,2.931,3.521,1.012.846,2.49,1.649,4.28,2.331,1.732.431,3.568.82,5.301.82,2.097,0,3.79-.253,5.182-.774,1.843-.693,3.365-1.513,4.402-2.377,1.133-.942,2.096-2.09,2.865-3.407.629-1.5.912-2.748.912-4.036h.003Z" fill="#ff8500" stroke="#ff8500" stroke-miterlimit="10"/>
    <path d="M1531.877,117.145h6.22v4.607h-6.22v11.519h-4.607v-11.519h-23.959v-5.015l23.805-39.677h4.759v40.083l.003.002ZM1527.266,85.759l-18.83,31.384h18.83v-31.384Z" fill="#ff8500" stroke="#ff8500" stroke-miterlimit="10"/>
    <path d="M75.29,613.306c.871,2.034,1.297,5.965,1.297,7.95,0,2.124,0,3.527-1,7.275-.882,3.522-2.69,5.894-4.052,7.255-1.522,1.521-4.432,3.462-6.828,4.062-2.26.76-5.951.76-7.932.76-2.341,0-6.397-1.32-8.049-2.027-1.933-.829-5.561-3.275-7.766-5.233l3.062-3.444c1.928,1.714,5.197,3.875,6.52,4.443,1.521.652,4.884,1.657,6.234,1.657,1.599,0,4.925,0,6.644-.574,1.474-.375,3.665-1.707,4.858-2.9.949-.946,2.216-2.612,2.85-5.148.853-3.198.853-4.114.853-6.121,0-2.046-.468-5.077-.965-6.236-.567-1.502-1.255-2.645-2.417-4.038-1.011-1.215-2.115-2.083-3.283-2.583-1.449-.622-2.983-1.198-4.391-1.198h-6.22v-5.017l13.689-15.486h-21.061v-4.607h26.032v5.936l-12.873,14.564h.433c2.246,0,4.398.793,6.206,1.569,1.841.79,3.527,2.092,5.008,3.867,1.5,1.797,2.442,3.375,3.154,5.273l-.002.002Z" fill="#ff8500" stroke="#ff8500" stroke-miterlimit="10"/>
  </g>
</svg>