<?xml version="1.0" encoding="UTF-8"?>
<svg xmlns="http://www.w3.org/2000/svg" width="1584.293" height="1072.174" viewBox="0 0 1584.293 1072.174">
  <g id="CDNU_-_Light">
    <path d="M1403.61,903.706l-1222.305.984c-5.445.004-9.861-4.411-9.856-9.857l.667-725.918c.005-5.432,4.408-9.834,9.84-9.839l1222.305-.984c5.445-.004,9.861,4.411,9.856,9.857l-.667,725.918c-.005,5.432-4.408,9.834-9.84,9.839Z" fill="none" stroke="#000" stroke-miterlimit="10" stroke-width="11"/>
    <polyline points="785.123 902.825 1331.623 903.324 1331.623 653.747 1406.623 653.747 1406.623 327.67 1331.623 327.67 1331.623 160.085 252.123 160.085 252.123 332.358 173.906 332.358 173.906 653.248 252.123 653.248 252.123 902.825 785.123 902.825" fill="none" stroke="#000" stroke-miterlimit="10" stroke-width="8"/>
    <rect x="425.123" y="200.085" width="735" height="553" rx="13.681" ry="13.681" fill="none" stroke="#000" stroke-miterlimit="10" stroke-width="5"/>
    <rect x="414.123" y="186.085" width="760" height="580" rx="18.29" ry="18.29" fill="none" stroke="#000" stroke-miterlimit="10" stroke-width="5"/>
    <g>
      <rect x="267.123" y="201.085" width="137" height="81" fill="none" stroke="#000" stroke-miterlimit="10" stroke-width="5"/>
      <polygon points="387.122 241.334 359.756 213.834 359.756 230.834 284.623 230.834 284.623 251.834 359.756 251.834 359.756 268.834 387.122 241.334" stroke="#000" stroke-miterlimit="10"/>
    </g>
    <g>
      <rect x="267.275" y="327.932" width="137" height="81" fill="none" stroke="#000" stroke-miterlimit="10" stroke-width="5"/>
      <polygon points="387.275 368.182 359.908 340.682 359.908 357.682 284.775 357.682 284.775 378.682 359.908 378.682 359.908 395.682 387.275 368.182" stroke="#000" stroke-miterlimit="10"/>
    </g>
    <g>
      <rect x="267.275" y="454.932" width="137" height="81" fill="none" stroke="#000" stroke-miterlimit="10" stroke-width="5"/>
      <polygon points="387.275 495.182 359.908 467.682 359.908 484.682 284.775 484.682 284.775 505.682 359.908 505.682 359.908 522.682 387.275 495.182" stroke="#000" stroke-miterlimit="10"/>
    </g>
    <g>
      <rect x="267.102" y="579.367" width="137" height="81" fill="none" stroke="#000" stroke-miterlimit="10" stroke-width="5"/>
      <polygon points="387.101 619.617 359.734 592.117 359.734 609.117 284.601 609.117 284.601 630.117 359.734 630.117 359.734 647.117 387.101 619.617" stroke="#000" stroke-miterlimit="10"/>
    </g>
    <g>
      <rect x="1182.254" y="201.085" width="137" height="81" transform="translate(2501.507 483.169) rotate(-180)" fill="none" stroke="#000" stroke-miterlimit="10" stroke-width="5"/>
      <polygon points="1199.255 241.334 1226.622 213.834 1226.622 230.834 1301.754 230.834 1301.754 251.834 1226.622 251.834 1226.622 268.834 1199.255 241.334" stroke="#000" stroke-miterlimit="10"/>
    </g>
    <g>
      <rect x="1182.102" y="327.932" width="137" height="81" transform="translate(2501.203 736.865) rotate(-180)" fill="none" stroke="#000" stroke-miterlimit="10" stroke-width="5"/>
      <polygon points="1199.102 368.182 1226.469 340.682 1226.469 357.682 1301.602 357.682 1301.602 378.682 1226.469 378.682 1226.469 395.682 1199.102 368.182" stroke="#000" stroke-miterlimit="10"/>
    </g>
    <g>
      <rect x="1182.102" y="454.932" width="137" height="81" transform="translate(2501.203 990.865) rotate(-180)" fill="none" stroke="#000" stroke-miterlimit="10" stroke-width="5"/>
      <polygon points="1199.102 495.182 1226.469 467.682 1226.469 484.682 1301.602 484.682 1301.602 505.682 1226.469 505.682 1226.469 522.682 1199.102 495.182" stroke="#000" stroke-miterlimit="10"/>
    </g>
    <g>
      <rect x="1182.275" y="579.367" width="137" height="81" transform="translate(2501.551 1239.734) rotate(-180)" fill="none" stroke="#000" stroke-miterlimit="10" stroke-width="5"/>
      <polygon points="1199.276 619.617 1226.643 592.117 1226.643 609.117 1301.776 609.117 1301.776 630.117 1226.643 630.117 1226.643 647.117 1199.276 619.617" stroke="#000" stroke-miterlimit="10"/>
    </g>
    <circle cx="356.123" cy="736.085" r="30.5" fill="none" stroke="#000" stroke-miterlimit="10" stroke-width="5"/>
    <circle cx="1239.123" cy="736.085" r="30.5" fill="none" stroke="#000" stroke-miterlimit="10" stroke-width="5"/>
    <rect x="315.623" y="792.539" width="83" height="91" fill="none" stroke="#000" stroke-miterlimit="10" stroke-width="5"/>
    <rect x="307.623" y="783.039" width="101" height="110" rx="9.778" ry="9.778" fill="none" stroke="#000" stroke-miterlimit="10" stroke-width="5"/>
    <rect x="439.623" y="792.539" width="83" height="91" fill="none" stroke="#000" stroke-miterlimit="10" stroke-width="5"/>
    <rect x="431.623" y="783.039" width="101" height="110" rx="9.778" ry="9.778" fill="none" stroke="#000" stroke-miterlimit="10" stroke-width="5"/>
    <rect x="563.623" y="792.539" width="83" height="91" fill="none" stroke="#000" stroke-miterlimit="10" stroke-width="5"/>
    <rect x="555.623" y="783.039" width="101" height="110" rx="9.778" ry="9.778" fill="none" stroke="#000" stroke-miterlimit="10" stroke-width="5"/>
    <rect x="687.623" y="792.539" width="83" height="91" fill="none" stroke="#000" stroke-miterlimit="10" stroke-width="5"/>
    <rect x="679.623" y="783.039" width="101" height="110" rx="9.778" ry="9.778" fill="none" stroke="#000" stroke-miterlimit="10" stroke-width="5"/>
    <rect x="809.623" y="792.539" width="83" height="91" fill="none" stroke="#000" stroke-miterlimit="10" stroke-width="5"/>
    <rect x="801.623" y="783.039" width="101" height="110" rx="9.778" ry="9.778" fill="none" stroke="#000" stroke-miterlimit="10" stroke-width="5"/>
    <rect x="936.623" y="792.539" width="83" height="91" fill="none" stroke="#000" stroke-miterlimit="10" stroke-width="5"/>
    <rect x="928.623" y="783.039" width="101" height="110" rx="9.778" ry="9.778" fill="none" stroke="#000" stroke-miterlimit="10" stroke-width="5"/>
    <rect x="1056.623" y="792.539" width="83" height="91" fill="none" stroke="#000" stroke-miterlimit="10" stroke-width="5"/>
    <rect x="1048.623" y="783.039" width="101" height="110" rx="9.778" ry="9.778" fill="none" stroke="#000" stroke-miterlimit="10" stroke-width="5"/>
    <rect x="1181.623" y="792.539" width="83" height="91" fill="none" stroke="#000" stroke-miterlimit="10" stroke-width="5"/>
    <rect x="1173.623" y="783.039" width="101" height="110" rx="9.778" ry="9.778" fill="none" stroke="#000" stroke-miterlimit="10" stroke-width="5"/>
    <circle cx="213.123" cy="265.085" r="34.5" fill="none" stroke="#000" stroke-miterlimit="10" stroke-width="3.5"/>
    <circle cx="213.123" cy="265.085" r="27.5" fill="none" stroke="#000" stroke-miterlimit="10" stroke-width="3.5"/>
    <circle cx="213.623" cy="718.585" r="34.5" fill="none" stroke="#000" stroke-miterlimit="10" stroke-width="3.5"/>
    <circle cx="213.623" cy="718.585" r="27.5" fill="none" stroke="#000" stroke-miterlimit="10" stroke-width="3.5"/>
    <circle cx="213.623" cy="837.585" r="34.5" fill="none" stroke="#000" stroke-miterlimit="10" stroke-width="3.5"/>
    <circle cx="213.623" cy="837.585" r="27.5" fill="none" stroke="#000" stroke-miterlimit="10" stroke-width="3.5"/>
    <circle cx="1372.623" cy="265.085" r="34.5" fill="none" stroke="#000" stroke-miterlimit="10" stroke-width="3.5"/>
    <circle cx="1372.623" cy="265.085" r="27.5" fill="none" stroke="#000" stroke-miterlimit="10" stroke-width="3.5"/>
    <circle cx="1372.123" cy="718.585" r="34.5" fill="none" stroke="#000" stroke-miterlimit="10" stroke-width="3.5"/>
    <circle cx="1372.123" cy="718.585" r="27.5" fill="none" stroke="#000" stroke-miterlimit="10" stroke-width="3.5"/>
    <circle cx="1372.123" cy="837.585" r="34.5" fill="none" stroke="#000" stroke-miterlimit="10" stroke-width="3.5"/>
    <circle cx="1372.123" cy="837.585" r="27.5" fill="none" stroke="#000" stroke-miterlimit="10" stroke-width="3.5"/>
    <g>
      <rect x="321.946" y="804.749" width="66.913" height="64.957" fill="none"/>
      <path d="M335.861,819.119h6.823v36.208h-6.823v-36.208ZM338.351,819.119h21.292v6.574h-21.292v-6.574ZM338.351,834.384h18.552v6.574h-18.552v-6.574Z" stroke="#000" stroke-miterlimit="10"/>
      <path d="M374.945,855.327h-6.823v-28.189l-4.408,1.668v-7.246l5.404-2.44h5.827v36.208Z" stroke="#000" stroke-miterlimit="10"/>
    </g>
    <g>
      <rect x="445.946" y="804.749" width="66.913" height="64.957" fill="none"/>
      <path d="M455.167,819.119h6.823v36.208h-6.823v-36.208ZM457.657,819.119h21.292v6.574h-21.292v-6.574ZM457.657,834.384h18.552v6.574h-18.552v-6.574Z" stroke="#000" stroke-miterlimit="10"/>
      <path d="M483.966,849.177l12.426-16.336c.564-.73,1-1.482,1.307-2.254.307-.772.461-1.49.461-2.154v-.05c0-.979-.315-1.734-.946-2.267-.631-.53-1.528-.797-2.689-.797-1.129,0-2.042.37-2.739,1.108-.697.739-1.121,1.789-1.27,3.15v.024h-6.998v-.024c.149-2.258.693-4.2,1.631-5.827s2.204-2.867,3.798-3.723,3.437-1.283,5.528-1.283c2.257,0,4.188.37,5.79,1.108,1.602.739,2.822,1.814,3.66,3.226s1.258,3.112,1.258,5.104v.024c0,1.645-.286,3.275-.859,4.894-.572,1.619-1.374,3.084-2.403,4.396l-8.915,11.256h12.376v6.574h-21.416v-6.15Z" stroke="#000" stroke-miterlimit="10"/>
    </g>
    <g>
      <rect x="569.946" y="804.749" width="66.913" height="64.957" fill="none"/>
      <path d="M578.855,819.119h6.823v36.208h-6.823v-36.208ZM581.346,819.119h21.292v6.574h-21.292v-6.574ZM581.346,834.384h18.552v6.574h-18.552v-6.574Z" stroke="#000" stroke-miterlimit="10"/>
      <path d="M612.461,854.505c-1.71-.797-3.072-1.958-4.084-3.486-1.013-1.526-1.569-3.345-1.668-5.453h7.047c.1.747.319,1.382.66,1.905.34.522.776.921,1.308,1.195.531.273,1.146.411,1.843.411,1.295,0,2.295-.361,3.001-1.084.705-.722,1.058-1.738,1.058-3.051v-.846c0-1.378-.287-2.441-.859-3.188-.573-.748-1.391-1.121-2.453-1.121h-3.063v-6.574h3.063c.863,0,1.531-.327,2.005-.983.473-.656.709-1.573.709-2.752v-.622c0-1.112-.261-1.972-.785-2.578-.522-.605-1.257-.908-2.204-.908-.614,0-1.175.157-1.681.473s-.934.771-1.282,1.369-.598,1.32-.747,2.167h-7.022c.199-2.208.792-4.112,1.78-5.715s2.279-2.822,3.873-3.661c1.594-.838,3.37-1.258,5.329-1.258,3.204,0,5.682.818,7.433,2.453,1.751,1.636,2.627,3.956,2.627,6.961v1.096c0,1.677-.423,3.137-1.27,4.383-.847,1.244-2.051,2.175-3.611,2.789,1.743.398,3.092,1.312,4.046,2.738.955,1.429,1.432,3.246,1.432,5.454v1.096c0,2.108-.415,3.909-1.245,5.403-.831,1.494-2.042,2.632-3.636,3.412s-3.511,1.17-5.752,1.17c-2.191,0-4.143-.398-5.852-1.195Z" stroke="#000" stroke-miterlimit="10"/>
    </g>
    <g>
      <rect x="693.946" y="804.749" width="66.913" height="64.957" fill="none"/>
      <path d="M701.834,819.119h6.823v36.208h-6.823v-36.208ZM704.325,819.119h21.292v6.574h-21.292v-6.574ZM704.325,834.384h18.552v6.574h-18.552v-6.574Z" stroke="#000" stroke-miterlimit="10"/>
      <path d="M730.683,843.499l11.156-24.355h7.72l-10.857,24.057h16.261v6.574h-24.279v-6.275ZM745.301,834.036h6.823v21.316h-6.823v-21.316Z" stroke="#000" stroke-miterlimit="10"/>
    </g>
    <g>
      <rect x="815.946" y="804.749" width="66.913" height="64.957" fill="none"/>
      <path d="M824.457,819.119h6.823v36.208h-6.823v-36.208ZM826.947,819.119h21.291v6.574h-21.291v-6.574ZM826.947,834.384h18.553v6.574h-18.553v-6.574Z" stroke="#000" stroke-miterlimit="10"/>
      <path d="M859.171,854.418c-1.553-.854-2.798-2.1-3.735-3.735-.938-1.635-1.481-3.573-1.631-5.814v-.025h6.823v.025c.133,1.328.539,2.362,1.221,3.101.68.738,1.568,1.108,2.664,1.108,1.195,0,2.12-.391,2.776-1.171s.983-1.884.983-3.312v-3.039c0-1.427-.295-2.527-.884-3.299-.589-.772-1.415-1.158-2.478-1.158-.979,0-1.814.249-2.503.747s-1.166,1.195-1.432,2.092h-6.375v-20.818h19.448v6.574h-12.625v6.399c.515-.498,1.216-.892,2.104-1.183.888-.29,1.771-.436,2.651-.436,1.876,0,3.482.432,4.819,1.295,1.336.863,2.353,2.125,3.05,3.785s1.047,3.661,1.047,6.001v3.039c0,2.34-.42,4.341-1.258,6.001-.839,1.66-2.055,2.926-3.648,3.798-1.594.871-3.52,1.307-5.777,1.307-1.942,0-3.689-.427-5.242-1.282Z" stroke="#000" stroke-miterlimit="10"/>
    </g>
    <g>
      <rect x="942.946" y="804.749" width="66.913" height="64.957" fill="none"/>
      <path d="M952.254,819.119h6.823v36.208h-6.823v-36.208ZM954.744,819.119h21.291v6.574h-21.291v-6.574ZM954.744,834.384h18.553v6.574h-18.553v-6.574Z" stroke="#000" stroke-miterlimit="10"/>
      <path d="M985.723,854.418c-1.585-.854-2.793-2.1-3.623-3.735-.83-1.635-1.245-3.606-1.245-5.914v-.025c0-1.311.162-2.697.485-4.158.324-1.461.784-2.93,1.382-4.408.1-.248.203-.498.312-.746.108-.25.22-.49.337-.723l7.346-15.589h7.72l-8.716,18.054-1.719-.896c.415-.779,1.021-1.386,1.818-1.817s1.727-.647,2.789-.647c1.992,0,3.693.424,5.105,1.27,1.41.848,2.485,2.08,3.225,3.698.738,1.619,1.107,3.565,1.107,5.84v.024c0,2.325-.415,4.317-1.244,5.977-.831,1.661-2.039,2.923-3.624,3.785-1.585.864-3.499,1.295-5.739,1.295-2.226,0-4.131-.427-5.716-1.282ZM994.239,848.068c.656-.706.984-1.706.984-3.001v-.025c0-1.494-.328-2.643-.984-3.448s-1.59-1.208-2.801-1.208c-1.195,0-2.121.411-2.777,1.232-.656.822-.983,1.972-.983,3.449v.025c0,1.295.327,2.291.983,2.988s1.582,1.045,2.777,1.045c1.211,0,2.145-.352,2.801-1.058Z" stroke="#000" stroke-miterlimit="10"/>
    </g>
    <g>
      <rect x="1062.946" y="804.749" width="66.913" height="64.957" fill="none"/>
      <path d="M1072.499,819.119h6.823v36.208h-6.823v-36.208ZM1074.989,819.119h21.291v6.574h-21.291v-6.574ZM1074.989,834.384h18.553v6.574h-18.553v-6.574Z" stroke="#000" stroke-miterlimit="10"/>
      <path d="M1121.544,823.651l-8.119,31.676h-7.396l7.869-29.634h-6.226v5.454h-6.823v-12.028h20.694v4.532Z" stroke="#000" stroke-miterlimit="10"/>
    </g>
    <g>
      <path d="M1202.22,823.664h4.053v29.852h-2.795v-23.18l.111,1.314-3.121,18.539h-2.719l-3.121-18.129.111-1.725v23.18h-2.797v-29.852h4.055l3.111,20.12,3.111-20.12Z" stroke="#000" stroke-miterlimit="10"/>
      <path d="M1210.579,823.664h3.078v29.852h-3.078v-29.852ZM1211.692,823.664h9.826v5.42h-9.826v-5.42ZM1211.692,835.982h8.59v5.42h-8.59v-5.42ZM1211.692,848.095h9.826v5.42h-9.826v-5.42Z" stroke="#000" stroke-miterlimit="10"/>
      <path d="M1225.038,823.664h3.764l6.074,22.871-.27.534v-23.405h2.943v29.831h-3.785l-6.053-22.522.27-.534v23.057h-2.943v-29.831Z" stroke="#000" stroke-miterlimit="10"/>
      <path d="M1244.36,852.52c-.891-.869-1.568-2.136-2.033-3.799-.463-1.663-.695-3.665-.695-6.005v-19.053h3.076v19.196c0,1.711.252,3.038.754,3.983.5.944,1.209,1.416,2.121,1.416.922,0,1.635-.472,2.141-1.416.504-.945.758-2.272.758-3.983v-19.196h3.076v19.053c0,2.34-.234,4.342-.701,6.005-.469,1.663-1.15,2.93-2.045,3.799s-1.971,1.304-3.229,1.304-2.332-.435-3.223-1.304Z" stroke="#000" stroke-miterlimit="10"/>
    </g>
    <g>
      <rect x="316.467" y="671.23" width="70.435" height="25.043" fill="none"/>
      <path d="M324.735,672.395h4.281v22.719h-4.281v-22.719ZM326.61,690.989h7.25c.979,0,1.737-.236,2.273-.711.536-.474.805-1.138.805-1.992v-.047c0-.572-.12-1.062-.359-1.469-.24-.406-.591-.716-1.055-.93-.464-.213-1.019-.32-1.664-.32h-7.25v-4.125h7.25c.885,0,1.57-.224,2.055-.672.484-.447.727-1.078.727-1.891,0-.729-.242-1.297-.727-1.703s-1.169-.609-2.055-.609h-7.25v-4.125h7.391c1.469,0,2.724.242,3.766.727,1.042.484,1.833,1.188,2.375,2.109.542.922.812,2.029.812,3.32,0,.886-.175,1.67-.523,2.352-.349.683-.857,1.242-1.523,1.68-.667.438-1.469.734-2.406.891,1,.136,1.856.44,2.57.914.713.475,1.255,1.092,1.625,1.852.37.761.555,1.641.555,2.641v.047c0,1.303-.273,2.417-.82,3.344-.547.928-1.344,1.633-2.391,2.117s-2.305.727-3.773.727h-7.656v-4.125Z" stroke="#000" stroke-miterlimit="10"/>
      <path d="M346.383,672.38h4.281v22.734h-4.281v-22.734ZM348.086,681.848h7.906c.438,0,.823-.109,1.156-.328.333-.219.591-.531.773-.938.182-.406.278-.875.289-1.406,0-.531-.091-1-.273-1.406-.183-.406-.44-.719-.773-.938-.333-.219-.724-.328-1.172-.328h-7.906v-4.125h8.25c1.25,0,2.349.281,3.297.844.948.562,1.682,1.357,2.203,2.383.521,1.026.781,2.217.781,3.57s-.261,2.545-.781,3.57c-.521,1.026-1.258,1.82-2.211,2.383s-2.05.844-3.289.844h-8.25v-4.125ZM352.868,685.27l4.578-.719,6.125,10.562h-5.188l-5.516-9.844Z" stroke="#000" stroke-miterlimit="10"/>
      <path d="M365.109,672.395h16.656v4.125h-16.656v-4.125ZM371.297,674.255h4.281v20.859h-4.281v-20.859Z" stroke="#000" stroke-miterlimit="10"/>
    </g>
    <g>
      <rect x="1181.12" y="671.01" width="131" height="25.043" fill="none"/>
      <path d="M1193.84,694.087c-1.256-.692-2.227-1.672-2.914-2.938s-1.031-2.731-1.031-4.398v-6.438c0-1.666.344-3.133,1.031-4.398s1.658-2.244,2.914-2.938c1.255-.692,2.705-1.039,4.352-1.039s3.096.347,4.352,1.039c1.255.693,2.227,1.672,2.914,2.938s1.031,2.732,1.031,4.398v6.438c0,1.667-.344,3.133-1.031,4.398s-1.659,2.245-2.914,2.938c-1.256.693-2.706,1.039-4.352,1.039s-3.097-.346-4.352-1.039ZM1200.223,690.352c.583-.328,1.033-.794,1.352-1.398.317-.604.477-1.302.477-2.094v-6.656c0-.791-.159-1.489-.477-2.094-.318-.604-.769-1.07-1.352-1.398-.584-.328-1.261-.492-2.031-.492s-1.448.164-2.031.492c-.584.328-1.034.795-1.352,1.398-.318.604-.477,1.303-.477,2.094v6.656c0,.792.158,1.49.477,2.094.317.604.768,1.07,1.352,1.398.583.328,1.26.492,2.031.492s1.447-.164,2.031-.492Z" stroke="#000" stroke-miterlimit="10"/>
      <path d="M1211.699,672.173h4.281v22.719h-4.281v-22.719ZM1213.262,672.173h13.359v4.125h-13.359v-4.125ZM1213.262,681.751h11.641v4.125h-11.641v-4.125Z" stroke="#000" stroke-miterlimit="10"/>
      <path d="M1230.894,672.173h4.281v22.719h-4.281v-22.719ZM1232.457,672.173h13.359v4.125h-13.359v-4.125ZM1232.457,681.751h11.641v4.125h-11.641v-4.125Z" stroke="#000" stroke-miterlimit="10"/>
      <path d="M1250.87,699.204h-4.062l10.156-29.719h4.062l-10.156,29.719Z" stroke="#000" stroke-miterlimit="10"/>
      <path d="M1267.604,694.087c-1.256-.692-2.227-1.672-2.914-2.938s-1.031-2.731-1.031-4.398v-6.438c0-1.666.344-3.133,1.031-4.398s1.658-2.244,2.914-2.938c1.255-.692,2.705-1.039,4.352-1.039s3.096.347,4.352,1.039c1.255.693,2.227,1.672,2.914,2.938s1.031,2.732,1.031,4.398v6.438c0,1.667-.344,3.133-1.031,4.398s-1.659,2.245-2.914,2.938c-1.256.693-2.706,1.039-4.352,1.039s-3.097-.346-4.352-1.039ZM1273.987,690.352c.583-.328,1.033-.794,1.352-1.398.317-.604.477-1.302.477-2.094v-6.656c0-.791-.159-1.489-.477-2.094-.318-.604-.769-1.07-1.352-1.398-.584-.328-1.261-.492-2.031-.492s-1.448.164-2.031.492c-.584.328-1.034.795-1.352,1.398-.318.604-.477,1.303-.477,2.094v6.656c0,.792.158,1.49.477,2.094.317.604.768,1.07,1.352,1.398.583.328,1.26.492,2.031.492s1.447-.164,2.031-.492Z" stroke="#000" stroke-miterlimit="10"/>
      <path d="M1285.464,672.173h5.234l8.453,17.406-.375.406v-17.812h4.094v22.703h-5.266l-8.422-17.141.375-.406v17.547h-4.094v-22.703Z" stroke="#000" stroke-miterlimit="10"/>
    </g>
  </g>
  <g id="Scratchpad_-_Light">
    <g>
      <path d="M483.172,697.045v37.593h12.121v3.515h-15.634v-44.62h15.634v3.513h-12.121Z" stroke="#000" stroke-miterlimit="10" stroke-width="1.5"/>
      <path d="M1104.121,693.348v44.62h-15.635v-3.514h12.121v-37.593h-12.121v-3.514h15.635Z" stroke="#000" stroke-miterlimit="10" stroke-width="1.5"/>
    </g>
  </g>
  <g id="EGI_Start_Page_2_x2F_2_Arrows_-_Light">
    <path d="M522.973,85.78v4.607h-14.744v-4.607h5.068v-47.279l-3.601,2.981-2.938-3.55,7.319-6.057h3.827v53.905h5.068Z" fill="#ff8500" stroke="#ff8500" stroke-miterlimit="10"/>
    <path d="M437.872,373.676l-67.862-34.943-3.152,12.628-255.668-69.654c1.232-4.506,1.902-9.241,1.902-14.132,0-29.584-24.068-53.652-53.652-53.652s-53.652,24.068-53.652,53.652,24.068,53.652,53.652,53.652c21.544,0,40.151-12.771,48.68-31.134l256.581,69.903-3.152,12.628,76.322,1.052ZM59.44,313.227c-25.213,0-45.652-20.439-45.652-45.652s20.439-45.652,45.652-45.652,45.652,20.439,45.652,45.652-20.439,45.652-45.652,45.652Z" stroke="#fff" stroke-miterlimit="10" stroke-width="2"/>
    <path d="M46.599,292.455h28.483v4.607h-34.786v-4.591l6.056-6.609c3.175-3.536,6.086-6.778,8.851-9.727,1.373-1.373,2.749-2.979,4.078-4.531,1.389-1.62,6.939-7.865,6.939-7.865.629-.634.983-1.081,1.221-1.375.141-.177.26-.32.359-.431.675-.859,1.242-1.947,1.643-3.149.38-1.14.574-2.053.574-3.879,0-1.569-.325-3.124-.965-4.621-.583-1.546-1.511-2.661-2.737-3.887-1.398-1.152-2.723-1.981-4.018-2.465-3.705-1.389-6.199-1.387-9.899,0-1.695.636-2.972,1.419-4.02,2.467-1.209,1.209-2.182,2.589-2.737,3.886l-4.234-1.815c.792-1.85,2.078-3.693,3.713-5.329,1.511-1.509,3.361-2.661,5.66-3.522,4.713-1.774,8.411-1.774,13.136,0,2.356.885,4.269,2.354,5.503,3.382,1.511,1.5,3.022,3.209,3.907,5.568.85,1.975,1.299,4.14,1.299,6.338,0,2.423-.311,3.838-.811,5.337-.578,1.737-1.431,3.338-2.46,4.626l-.315.375c-.309.387-.772.965-1.468,1.659.005,0-5.425,6.109-6.791,7.704-1.387,1.617-2.82,3.29-4.267,4.737-2.693,2.873-5.582,6.091-8.733,9.6l-3.179,3.513-.002-.002Z" fill="#ff8500" stroke="#ff8500" stroke-miterlimit="10"/>
    <path d="M440.853,424.119l-74.304-17.465v13.015H112.931c-2.271-27.508-25.369-49.202-53.453-49.202-29.584,0-53.652,24.068-53.652,53.652s24.068,53.652,53.652,53.652c28.084,0,51.181-21.694,53.453-49.202h253.618v13.015l74.304-17.465ZM59.478,469.771c-25.213,0-45.652-20.439-45.652-45.652s20.439-45.652,45.652-45.652,45.652,20.439,45.652,45.652-20.439,45.652-45.652,45.652Z" stroke="#fff" stroke-miterlimit="10" stroke-width="2"/>
    <path d="M74.226,427.46c.871,2.034,1.297,5.964,1.297,7.95,0,2.124,0,3.527-1,7.275-.882,3.522-2.69,5.893-4.052,7.254-1.522,1.521-4.432,3.462-6.828,4.062-2.26.76-5.951.76-7.932.76-2.341,0-6.397-1.32-8.049-2.027-1.933-.829-5.561-3.276-7.766-5.234l3.062-3.444c1.928,1.714,5.197,3.875,6.52,4.444,1.521.652,4.884,1.657,6.234,1.657,1.599,0,4.925,0,6.644-.574,1.474-.375,3.665-1.707,4.858-2.9.949-.947,2.216-2.612,2.85-5.149.853-3.198.853-4.114.853-6.121,0-2.045-.468-5.077-.965-6.236-.567-1.502-1.255-2.645-2.417-4.038-1.011-1.214-2.115-2.083-3.283-2.583-1.449-.622-2.983-1.198-4.391-1.198h-6.22v-5.017l13.689-15.486h-21.061v-4.607h26.032v5.937l-12.873,14.564h.433c2.246,0,4.398.792,6.206,1.569,1.841.79,3.527,2.092,5.008,3.868,1.5,1.797,2.442,3.375,3.154,5.273l-.002.002Z" fill="#ff8500" stroke="#ff8500" stroke-miterlimit="10"/>
    <path d="M1220.135,321.461l-3.152-12.628,256.581-69.903c8.529,18.363,27.136,31.134,48.68,31.134,29.584,0,53.652-24.068,53.652-53.652s-24.068-53.652-53.652-53.652c-29.583,0-53.652,24.068-53.652,53.652,0,4.891.67,9.626,1.902,14.132l-255.668,69.654-3.152-12.628-67.862,34.943,76.322-1.052ZM1476.592,216.412c0-25.213,20.439-45.652,45.652-45.652,25.213,0,45.652,20.439,45.652,45.652s-20.439,45.652-45.652,45.652c-25.213,0-45.652-20.439-45.652-45.652Z" stroke="#fff" stroke-miterlimit="10" stroke-width="2"/>
    <path d="M1215.136,440.9v-13.015h253.618c2.271,27.508,25.369,49.202,53.453,49.202,29.584,0,53.652-24.068,53.652-53.652,0-29.583-24.068-53.652-53.652-53.652-28.084,0-51.181,21.694-53.453,49.202h-253.618s0-13.015,0-13.015l-74.304,17.465,74.304,17.465ZM1476.555,423.435c0-25.213,20.439-45.652,45.652-45.652,25.213,0,45.652,20.439,45.652,45.652,0,25.213-20.439,45.652-45.652,45.652s-45.652-20.439-45.652-45.652Z" stroke="#fff" stroke-miterlimit="10" stroke-width="2"/>
    <path d="M361.599,514.82l3.152,12.628-256.581,69.903c-8.529-18.363-27.136-31.134-48.68-31.134-29.584,0-53.652,24.068-53.652,53.652s24.068,53.652,53.652,53.652,53.652-24.068,53.652-53.652c0-4.891-.67-9.626-1.902-14.132l255.668-69.654,3.152,12.628,67.862-34.943-76.322,1.052ZM105.142,619.869c0,25.213-20.439,45.652-45.652,45.652s-45.652-20.439-45.652-45.652,20.439-45.652,45.652-45.652,45.652,20.439,45.652,45.652Z" stroke="#fff" stroke-miterlimit="10" stroke-width="2"/>
    <path d="M1144.143,516.899l67.862,34.943,3.152-12.628,255.668,69.654c-1.232,4.506-1.902,9.241-1.902,14.132,0,29.584,24.068,53.652,53.652,53.652,29.584,0,53.652-24.068,53.652-53.652,0-29.583-24.068-53.652-53.652-53.652-21.544,0-40.151,12.771-48.68,31.134l-256.581-69.903,3.152-12.628-76.322-1.052ZM1522.574,577.347c25.213,0,45.652,20.439,45.652,45.652,0,25.213-20.439,45.652-45.652,45.652-25.213,0-45.652-20.439-45.652-45.652,0-25.213,20.439-45.652,45.652-45.652Z" stroke="#fff" stroke-miterlimit="10" stroke-width="2"/>
    <path d="M68.862,630.615h6.22v4.607h-6.22v11.519h-4.607v-11.519h-23.959v-5.016l23.805-39.677h4.759v40.082l.002.003ZM64.252,599.228l-18.831,31.384h18.831v-31.384Z" fill="#ff8500" stroke="#ff8500" stroke-miterlimit="10"/>
    <path d="M1539.084,225.039c1.283,2.244,1.456,4.4,1.456,6.211v2.073c0,1.949-.427,3.847-1.339,5.976l-.117.235c-1.053,1.845-2.394,3.451-3.981,4.773-1.451,1.209-3.379,2.269-5.733,3.151-1.917.719-4.14,1.069-6.799,1.069-2.275,0-4.492-.477-6.549-.991l-.249-.078c-2.354-.882-4.285-1.944-5.734-3.151-1.587-1.323-2.926-2.931-3.98-4.773-1.283-2.244-1.456-4.398-1.456-6.211-.017-.32-.451-10.42,1.205-17.999,2.214-9.581,12.629-20.001,19.301-23.851l2.301,3.99c-5.918,3.414-15.29,13.007-17.105,20.87-.302,1.377-.524,2.868-.693,4.372.392-.343.805-.672,1.235-.988,1.216-.974,3.57-2.32,5.568-2.891,2.006-.576,10.556-.613,12.958.288,2.353.882,4.282,1.944,5.734,3.154,1.587,1.322,2.928,2.93,3.98,4.773l-.002-.002ZM1535.936,233.328v-2.073c0-1.755-.237-2.856-.848-3.925-.778-1.364-1.765-2.55-2.931-3.52-1.038-.866-2.562-1.689-4.402-2.377-1.35-.479-8.733-.525-10.081-.173-1.324.38-3.123,1.396-4.026,2.117-2.765,2.029-4.435,4.762-4.435,7.185h-.058c.009,1.606.055,2.631.055,2.661.003,1.862.24,2.96.851,4.029.78,1.364,1.767,2.55,2.93,3.52,1.012.846,2.491,1.649,4.281,2.332,1.731.431,3.568.82,5.301.82,2.096,0,3.789-.253,5.181-.774,1.843-.693,3.366-1.513,4.402-2.377,1.134-.942,2.097-2.089,2.866-3.407.629-1.5.912-2.748.912-4.036h.002Z" fill="#ff8500" stroke="#ff8500" stroke-miterlimit="10"/>
    <path d="M1539.702,396.508v6.517l-23.729,49.067v.624h-4.607v-1.679l23.729-49.067v-.854h-29.718v-4.607h34.325Z" fill="#ff8500" stroke="#ff8500" stroke-miterlimit="10"/>
    <path d="M393.234,655.936l5.085,11.981-289.515,125.894c-8.343-18.818-27.19-31.984-49.065-31.984-29.584,0-53.652,24.068-53.652,53.652s24.068,53.652,53.652,53.652,53.652-24.068,53.652-53.652c0-4.568-.577-9.002-1.656-13.239l290.061-126.131,5.085,11.981,61.574-45.108-75.222,12.954ZM59.739,861.13c-25.213,0-45.652-20.439-45.652-45.652s20.439-45.652,45.652-45.652,45.652,20.439,45.652,45.652-20.439,45.652-45.652,45.652Z" stroke="#fff" stroke-miterlimit="10" stroke-width="2"/>
    <path d="M1113.87,642.981l61.574,45.108,5.085-11.981,290.061,126.131c-1.079,4.236-1.656,8.671-1.656,13.239,0,29.583,24.068,53.652,53.652,53.652,29.584,0,53.652-24.068,53.652-53.652,0-29.584-24.068-53.652-53.652-53.652-21.875,0-40.721,13.166-49.065,31.984l-289.515-125.894,5.085-11.981-75.222-12.954ZM1476.934,815.478c0-25.213,20.439-45.652,45.652-45.652,25.213,0,45.652,20.439,45.652,45.652,0,25.213-20.439,45.652-45.652,45.652-25.213,0-45.652-20.439-45.652-45.652Z" stroke="#fff" stroke-miterlimit="10" stroke-width="2"/>
    <path d="M73.964,814.046c.875,2.045,1.338,4.192,1.338,6.208v11.288c0,2.019-.463,4.163-1.338,6.207-.853,1.992-2.262,3.902-3.866,5.238-1.235,1.029-3.149,2.497-5.503,3.382-2.366.887-4.456,1.299-6.57,1.299-2.408,0-5.418-.521-7.489-1.297-2.299-.863-4.149-2.016-5.658-3.524-1.451-1.195-2.859-3.105-3.713-5.098-.516-1.023-.795-2.134-1.039-3.113l-.069-.56v-2.073h4.607v1.79c.187.742.369,1.396.677,2.016.634,1.473,1.576,2.753,2.64,3.64,1.203,1.189,2.479,1.973,4.172,2.608,1.553.58,4.024,1.004,5.872,1.004,1.566,0,3.094-.311,4.951-1.006,1.292-.486,2.619-1.313,4.172-2.608,1.062-.887,2.004-2.17,2.583-3.516.631-1.475.965-2.992.965-4.391v-11.288c0-1.398-.334-2.917-.965-4.394-.576-1.346-1.518-2.626-2.583-3.513-1.203-1.187-2.479-1.973-4.172-2.605l-.705-.272c-1.288-.504-1.877-.734-4.246-.734-2.889,0-5.204.617-7.287,1.944-1.555.972-2.931,2.348-3.891,3.884l-.677,1.083h-6.114v-26.724h34.786v4.607h-30.179v16.302c1.055-1.18,2.276-2.212,3.617-3.051,2.799-1.783,5.994-2.653,9.745-2.653,3.08,0,4.257.398,5.923,1.05l.645.249c2.299.861,4.149,2.014,5.658,3.522,1.449,1.195,2.859,3.104,3.714,5.096v.003Z" fill="#ff8500" stroke="#ff8500" stroke-miterlimit="10"/>
    <path d="M1540.957,635.781c0,9.146-8.269,16.587-18.431,16.587s-18.43-7.44-18.43-16.587c0-6.181,3.783-11.574,9.369-14.426-4.526-2.677-7.525-7.289-7.525-12.527,0-8.257,7.44-14.975,16.586-14.975s16.587,6.718,16.587,14.975c0,5.238-3.001,9.851-7.526,12.527,5.587,2.852,9.37,8.245,9.37,14.426ZM1536.349,635.781c0-6.604-6.2-11.979-13.823-11.979s-13.822,5.374-13.822,11.979,6.199,11.979,13.822,11.979,13.823-5.374,13.823-11.979ZM1522.526,619.197c6.605,0,11.979-4.651,11.979-10.367s-5.374-10.367-11.979-10.367-11.979,4.652-11.979,10.367,5.374,10.367,11.979,10.367Z" fill="#ff8500" stroke="#ff8500" stroke-miterlimit="10"/>
    <path d="M715.72,407.093l-21.71-73.177-11.3,6.459-135.814-238.712c13.384-9.766,22.104-25.559,22.104-43.358,0-29.584-24.068-53.652-53.652-53.652s-53.652,24.068-53.652,53.652,24.068,53.652,53.652,53.652c8.602,0,16.731-2.047,23.945-5.661l135.691,238.495-11.3,6.459,52.036,55.843ZM515.348,103.956c-25.213,0-45.652-20.439-45.652-45.652s20.439-45.652,45.652-45.652,45.652,20.439,45.652,45.652-20.439,45.652-45.652,45.652Z" stroke="#fff" stroke-miterlimit="10" stroke-width="2"/>
    <path d="M1540.475,801.002c.016.322.453,10.419-1.205,18.001-2.21,9.581-12.627,20.001-19.299,23.851l-2.301-3.99c5.92-3.416,15.292-13.007,17.104-20.869.302-1.378.525-2.868.693-4.373-.392.344-.802.673-1.232.988-1.216.975-3.57,2.32-5.567,2.892-2.01.573-10.559.61-12.959-.288-2.356-.885-4.285-1.944-5.736-3.153-1.587-1.323-2.928-2.931-3.98-4.773-1.283-2.242-1.456-4.398-1.456-6.211v-2.073c0-1.949.426-3.848,1.338-5.977l.118-.234c1.053-1.846,2.394-3.451,3.98-4.773,1.449-1.207,3.377-2.267,5.734-3.151,1.916-.719,4.14-1.069,6.798-1.069,2.274,0,4.49.477,6.55.991l.249.078c2.356.885,4.284,1.944,5.733,3.151,1.588,1.322,2.929,2.928,3.981,4.773,1.283,2.241,1.455,4.397,1.455,6.211h0ZM1535.865,803.77h.058c-.009-1.605-.056-2.628-.056-2.66-.002-1.864-.239-2.963-.85-4.029-.781-1.369-1.767-2.553-2.931-3.522-1.014-.846-2.49-1.649-4.28-2.332-1.619-.4-3.485-.819-5.301-.819-2.097,0-3.789.253-5.181.773-1.843.693-3.366,1.514-4.4,2.378-1.134.942-2.097,2.089-2.866,3.407-.629,1.499-.912,2.748-.912,4.036v2.073c0,1.758.237,2.858.848,3.926.779,1.363,1.765,2.55,2.931,3.52,1.039.866,2.56,1.687,4.402,2.378,1.35.481,8.735.527,10.081.173,1.325-.381,3.124-1.396,4.027-2.117,2.762-2.03,4.432-4.76,4.432-7.186l-.002.002Z" fill="#ff8500" stroke="#ff8500" stroke-miterlimit="10"/>
  </g>
  <g id="EGI_Start_Page_2_x2F_2_-_Light">
    <g>
      <rect x="414.554" y="302.917" width="508" height="38.311" fill="none"/>
      <path d="M508.503,305.918v11.569h10.159v2.822h-10.159v15.661h18.483v2.822h-21.305v-35.695h21.305v2.822h-18.483Z" stroke="#000" stroke-miterlimit="10" stroke-width="1.5"/>
      <path d="M545.83,319.606h10.158v10.158c0,1.06,0,2.662-.92,4.134l-.125.19c-.552.833-1.122,1.693-2.439,2.516-.65.494-2.245,1.26-3.355,1.676-1.174.44-2.536.655-4.164.655s-2.99-.214-4.164-.655c-1.443-.542-2.624-1.191-3.512-1.93-1.246-.933-2.062-2.075-2.782-3.083l-.117-.193c-.652-1.302-.996-2.79-.996-4.299v-15.52c0-1.723.371-3.085,1.202-4.416.665-1.345,1.93-2.525,2.817-3.287,1.045-.871,2.307-1.343,3.526-1.801,1.175-.441,2.538-.656,4.167-.656s2.99.214,4.164.655c1.09.408,2.25.962,3.45,1.646l.146.096c1.449,1.088,2.492,2.253,3.096,3.461l-2.524,1.263c-.398-.796-1.136-1.607-2.195-2.413-1.027-.581-2.05-1.068-2.963-1.411-.852-.32-1.889-.476-3.173-.476s-2.322.154-3.173.474c-1.048.394-2.036.763-2.697,1.315-.686.59-1.679,1.507-2.18,2.51-.608.985-.839,1.858-.839,3.038v15.52c0,1.037.226,2.051.652,2.943.638.89,1.25,1.729,2.171,2.418.691.573,1.624,1.076,2.752,1.5.853.32,1.889.476,3.173.476s2.321-.155,3.173-.474c1.075-.403,2.341-1.051,2.753-1.36.896-.567,1.209-1.037,1.68-1.75l.107-.163c.468-.75.468-1.735.468-2.603v-7.336h-7.336v-2.819Z" stroke="#000" stroke-miterlimit="10" stroke-width="1.5"/>
      <path d="M572.157,305.936v30.193h6.913v2.822h-16.648v-2.822h6.914v-30.193h-6.914v-2.822h16.648v2.822h-6.913Z" stroke="#000" stroke-miterlimit="10" stroke-width="1.5"/>
      <path d="M621.625,324.823c.612,1.213.907,2.407.907,3.547,0,3.039-1.115,5.535-3.315,7.419-2.056,1.899-4.656,2.88-7.689,2.88h-.282c-2.86,0-5.495-1.017-7.832-3.021-1.826-1.545-2.361-2.91-2.749-3.906-.058-.145-.111-.285-.169-.419l2.593-1.113c.069.161.135.329.205.504.326.834.663,1.696,1.951,2.785,1.844,1.583,3.805,2.348,6.002,2.348h.282c2.333,0,4.237-.708,5.814-2.166,1.63-1.397,2.369-3.073,2.369-5.312,0-.694-.198-1.473-.557-2.191-.309-.506-.758-1.175-1.354-1.573-.686-.542-1.566-1.049-2.454-1.429-.576-.247-1.223-.446-1.974-.676-.416-.128-.851-.262-1.302-.412l-4.149-1.105c-2.236-.687-3.849-1.721-4.981-3.177-1.229-1.579-1.851-3.436-1.851-5.522,0-2.581,1.071-4.794,3.18-6.581,2.005-1.851,4.28-2.733,7.121-2.733h.281c2.853.165,5.234,1.143,7.162,2.909,1.464,1.301,2.351,2.857,2.692,4.739l-2.778.502c-.23-1.271-.786-2.242-1.805-3.148-1.452-1.331-3.25-2.061-5.354-2.186l-.199.003c-2.115,0-3.736.625-5.251,2.025-1.514,1.284-2.228,2.731-2.228,4.467,0,1.444.423,2.719,1.255,3.79.776.998,1.899,1.696,3.535,2.2l4.182,1.114c.512.167.924.293,1.319.415.795.244,1.545.474,2.26.78,1.125.481,2.219,1.117,3.006,1.747.962.636,1.64,1.623,2.162,2.493h-.003Z" stroke="#000" stroke-miterlimit="10" stroke-width="1.5"/>
      <path d="M649.562,307.4h-8.889v31.463h-2.821v-31.463h-8.889v-2.822h20.599v2.822Z" stroke="#000" stroke-miterlimit="10" stroke-width="1.5"/>
      <path d="M677.974,319.608l-.145,19.184-2.822-.021.081-10.713h-16.306v10.723h-2.822v-19.178l9.669-15.108h2.674l9.671,15.114ZM675.109,325.234l.037-4.812-8.181-12.781-8.183,12.785v4.809h16.327Z" stroke="#000" stroke-miterlimit="10" stroke-width="1.5"/>
      <path d="M698.383,324.499l8.148,13.498v.817h-2.111l-.507.306-8.622-14.278c-.062,0-.127.004-.188.004h-7.902v13.968h-2.821v-34.425h10.581c1.628,0,3.239.336,4.666.968,1.53.681,2.776,1.515,3.81,2.549.838.837,1.459,1.923,2.06,2.973l.074.15c.56,1.306.82,2.469.82,3.66,0,1.236-.283,2.55-.82,3.801-.472,1.1-1.251,2.239-2.134,3.122-.815.816-2.135,1.904-3.795,2.458-.417.186-.837.323-1.259.432h0ZM687.202,307.21v14.814h7.902c1.586,0,2.572-.165,3.518-.584,1.016-.346,1.971-.975,2.82-1.824.629-.631,1.205-1.469,1.536-2.24.387-.902.591-1.832.591-2.688,0-.788-.173-1.553-.56-2.476-.52-.908-1.009-1.754-1.566-2.312-.797-.797-1.738-1.422-2.961-1.966-1.066-.473-2.283-.725-3.519-.725h-7.762Z" stroke="#000" stroke-miterlimit="10" stroke-width="1.5"/>
      <path d="M733.545,307.4h-8.888v31.463h-2.822v-31.463h-8.889v-2.822h20.599v2.822Z" stroke="#000" stroke-miterlimit="10" stroke-width="1.5"/>
      <path d="M758.799,336.232h17.444v2.822h-21.305v-2.812l3.71-4.048c1.943-2.166,3.728-4.151,5.42-5.957.841-.841,1.684-1.824,2.497-2.775.852-.992,4.25-4.817,4.25-4.817.385-.388.603-.662.748-.842.086-.109.159-.196.22-.264.413-.526.761-1.192,1.006-1.928.233-.699.352-1.257.352-2.376,0-.961-.199-1.914-.591-2.831-.357-.947-.926-1.629-1.677-2.38-.856-.706-1.667-1.213-2.46-1.51-2.27-.851-3.797-.849-6.062,0-1.039.389-1.82.869-2.463,1.511-.74.741-1.336,1.585-1.676,2.38l-2.593-1.112c.485-1.133,1.272-2.262,2.274-3.263.925-.924,2.058-1.629,3.466-2.157,2.887-1.086,5.151-1.086,8.045,0,1.443.542,2.614,1.442,3.371,2.071.926.918,1.851,1.965,2.393,3.41.521,1.209.796,2.535.796,3.881,0,1.484-.19,2.35-.497,3.269-.354,1.064-.876,2.044-1.507,2.833l-.193.23c-.188.237-.473.591-.898,1.016.003,0-3.322,3.742-4.159,4.718-.85.991-1.727,2.015-2.613,2.901-1.649,1.759-3.418,3.73-5.349,5.879l-1.946,2.151h-.002Z" stroke="#000" stroke-miterlimit="10" stroke-width="1.5"/>
      <path d="M803.695,314.18v1.857l-18.202,18.061v.399l-.416.014-.015-.014h-2.391v-1.576l18.201-18.059v-.682h2.822Z" stroke="#000" stroke-miterlimit="10" stroke-width="1.5"/>
      <path d="M813.972,336.232h17.444v2.822h-21.305v-2.812l3.71-4.048c1.943-2.166,3.728-4.151,5.42-5.957.841-.841,1.684-1.824,2.497-2.775.852-.992,4.25-4.817,4.25-4.817.385-.388.603-.662.748-.842.086-.109.159-.196.22-.264.413-.526.761-1.192,1.006-1.928.233-.699.352-1.257.352-2.376,0-.961-.199-1.914-.591-2.831-.357-.947-.926-1.629-1.677-2.38-.856-.706-1.667-1.213-2.46-1.51-2.27-.851-3.797-.849-6.062,0-1.039.389-1.82.869-2.463,1.511-.74.741-1.336,1.585-1.676,2.38l-2.593-1.112c.485-1.133,1.272-2.262,2.274-3.263.925-.924,2.059-1.629,3.466-2.157,2.887-1.086,5.151-1.086,8.045,0,1.443.542,2.614,1.442,3.371,2.071.926.918,1.851,1.965,2.393,3.41.521,1.209.796,2.535.796,3.881,0,1.484-.19,2.35-.497,3.269-.354,1.064-.876,2.044-1.507,2.833l-.193.23c-.188.237-.473.591-.898,1.016.003,0-3.322,3.742-4.159,4.718-.85.991-1.727,2.015-2.613,2.901-1.649,1.759-3.418,3.73-5.349,5.879l-1.946,2.151h-.002Z" stroke="#000" stroke-miterlimit="10" stroke-width="1.5"/>
    </g>
    <g>
      <rect x="433.177" y="674.39" width="48.49" height="58.293" fill="none"/>
      <path d="M459.725,720.983h6.765l-8.859,12.076-9.257-12.076h7.09v-11.934h-7.18l9.347-11.789,8.944,11.789h-6.85v11.934Z"/>
    </g>
    <g>
      <rect x="442.743" y="231.898" width="254.155" height="52.826" fill="none"/>
      <path d="M454.504,264.718v-4.694h-9.312v-2.822h9.312v-4.478l7.996,5.864-7.996,6.13Z" stroke="#000" stroke-miterlimit="10" stroke-width="1.5"/>
    </g>
    <g>
      <rect x="449.431" y="400.855" width="653.146" height="52.826" fill="none"/>
      <path d="M473.012,430.019c.612,1.213.907,2.407.907,3.547,0,3.039-1.115,5.535-3.315,7.419-2.056,1.899-4.656,2.88-7.689,2.88h-.282c-2.86,0-5.495-1.017-7.832-3.021-1.826-1.545-2.361-2.91-2.749-3.906-.058-.145-.111-.285-.169-.419l2.593-1.113c.069.161.135.329.205.504.326.834.663,1.696,1.951,2.785,1.844,1.583,3.805,2.348,6.002,2.348h.282c2.333,0,4.237-.708,5.814-2.166,1.63-1.397,2.369-3.073,2.369-5.312,0-.694-.198-1.473-.557-2.191-.309-.506-.758-1.175-1.354-1.573-.686-.542-1.566-1.049-2.454-1.429-.576-.247-1.223-.446-1.974-.676-.416-.128-.851-.262-1.302-.412l-4.149-1.105c-2.236-.687-3.849-1.721-4.981-3.177-1.229-1.579-1.851-3.436-1.851-5.522,0-2.581,1.071-4.794,3.18-6.581,2.005-1.851,4.28-2.733,7.121-2.733h.281c2.853.165,5.234,1.143,7.162,2.909,1.464,1.301,2.351,2.857,2.692,4.739l-2.778.502c-.23-1.271-.786-2.242-1.805-3.148-1.452-1.331-3.25-2.061-5.354-2.186l-.199.003c-2.115,0-3.736.625-5.251,2.025-1.514,1.284-2.228,2.731-2.228,4.467,0,1.444.423,2.719,1.255,3.79.776.998,1.899,1.696,3.535,2.2l4.182,1.114c.512.167.924.293,1.319.415.795.244,1.545.474,2.26.78,1.125.481,2.219,1.117,3.006,1.747.962.636,1.64,1.623,2.162,2.493h-.003Z" stroke="#000" stroke-miterlimit="10" stroke-width="1.5"/>
      <path d="M502.363,424.803l-.146,19.184-2.822-.021.081-10.713h-16.306v10.723h-2.822v-19.178l9.669-15.108h2.673l9.672,15.114ZM499.497,430.429l.037-4.812-8.18-12.781-8.183,12.785v4.809h16.327Z" stroke="#000" stroke-miterlimit="10" stroke-width="1.5"/>
      <path d="M529.369,412.595h-8.889v31.463h-2.821v-31.463h-8.889v-2.822h20.599v2.822Z" stroke="#000" stroke-miterlimit="10" stroke-width="1.5"/>
      <path d="M571.528,423.66c.536,1.253.819,2.568.819,3.802v6.914c0,1.236-.283,2.549-.819,3.801-.522,1.22-1.386,2.39-2.368,3.208-.756.63-1.929,1.529-3.371,2.071-1.449.543-2.729.796-4.024.796-1.474,0-3.318-.319-4.587-.794-1.408-.529-2.541-1.234-3.465-2.159-.889-.732-1.751-1.902-2.274-3.122-.316-.626-.487-1.307-.636-1.906l-.042-.343v-1.27h2.822v1.096c.114.454.226.855.415,1.234.388.901.965,1.686,1.617,2.229.736.728,1.518,1.208,2.555,1.597.951.355,2.465.615,3.596.615.959,0,1.895-.19,3.032-.617.792-.297,1.604-.804,2.555-1.597.65-.543,1.227-1.329,1.582-2.153.386-.903.591-1.833.591-2.689v-6.914c0-.856-.205-1.786-.591-2.69-.353-.824-.93-1.608-1.582-2.151-.737-.727-1.518-1.208-2.555-1.596l-.432-.167c-.789-.309-1.15-.45-2.601-.45-1.769,0-3.187.378-4.462,1.191-.953.595-1.795,1.438-2.383,2.378l-.415.663h-3.745v-16.366h21.305v2.822h-18.483v9.983c.646-.722,1.394-1.354,2.215-1.868,1.714-1.092,3.671-1.625,5.968-1.625,1.886,0,2.607.244,3.627.643l.395.152c1.408.528,2.541,1.233,3.465,2.158.887.732,1.751,1.9,2.274,3.121h0Z" stroke="#000" stroke-miterlimit="10" stroke-width="1.5"/>
      <path d="M701.559,412.534v11.569h9.171v2.821h-9.171v17.072h-2.822v-34.284h21.305v2.822h-18.483Z" stroke="#000" stroke-miterlimit="10" stroke-width="1.5"/>
      <path d="M747.487,414.309c.65,1.305.994,2.792.994,4.3v15.379c0,1.509-.344,2.997-.994,4.299-.612,1.225-1.535,2.37-2.743,3.404-1.079.9-2.239,1.511-3.461,1.83-1.114.406-2.316.612-3.665.625h-.142c-1.508-.011-2.712-.214-3.881-.653-1.275-.479-2.408-1.129-3.372-1.932-1.223-1.048-2.146-2.194-2.757-3.416-.652-1.302-.996-2.79-.996-4.299v-15.379c0-1.51.346-2.997.996-4.299.611-1.225,1.535-2.369,2.743-3.404,1.078-.899,2.238-1.51,3.459-1.829,1.149-.42,2.397-.626,3.807-.626,1.514,0,2.868.22,4.023.655,1.272.477,2.406,1.127,3.371,1.93,1.072.918,1.923,2.033,2.615,3.415h.002ZM745.657,433.987v-15.379c0-1.072-.241-2.123-.697-3.038-.527-1.054-1.134-1.855-1.913-2.522-.705-.587-1.566-1.077-2.539-1.442-.828-.311-1.875-.474-3.032-.474-1.11,0-2.03.151-2.891.474l-.154.048c-.835.209-1.642.635-2.399,1.267-.906.776-1.599,1.625-2.041,2.51-.457.915-.698,1.964-.698,3.038v15.377c0,1.074.243,2.125.698,3.038.44.883,1.133,1.732,2.055,2.522.705.587,1.566,1.077,2.541,1.443.857.322,1.772.468,2.957.474,1.079-.006,1.977-.157,2.825-.474l.152-.048c.835-.209,1.644-.635,2.402-1.267.904-.776,1.597-1.625,2.039-2.51.455-.912.696-1.963.696-3.036h0Z" stroke="#000" stroke-miterlimit="10" stroke-width="1.5"/>
      <path d="M776.9,409.725v34.284h-2.822v-28.712l-6.647,11.923h-3.068l-6.65-11.923v28.712h-2.821v-34.284h2.944l8.061,14.452,8.061-14.452h2.944Z" stroke="#000" stroke-miterlimit="10" stroke-width="1.5"/>
      <path d="M815.798,432.822h3.81v2.822h-3.81v7.055h-2.821v-7.055h-14.673v-3.071l14.578-24.3h2.915v24.548h0ZM812.975,413.601l-11.533,19.22h11.533v-19.22Z" stroke="#000" stroke-miterlimit="10" stroke-width="1.5"/>
      <path d="M981.664,438.068l2.737,3.787v.88h-1.996l-.56.404-1.866-2.582c-.353.388-.729.769-1.152,1.133-.833.696-1.86,1.441-3.288,1.822-1.057.433-2.279.635-3.837.635-1.61,0-2.861-.214-3.942-.677-1.104-.412-2.068-.99-3.169-1.906-1.075-.922-1.927-2.036-2.615-3.417-.652-1.301-.996-2.788-.996-4.299v-15.379c0-1.51.344-2.997.996-4.299.609-1.222,1.533-2.368,2.742-3.403.834-.695,1.861-1.442,3.287-1.821,1.056-.433,2.279-.635,3.838-.635,1.611,0,2.863.216,3.943.679,1.101.411,2.067.987,3.168,1.905,1.075.921,1.926,2.036,2.615,3.417.652,1.302.996,2.789.996,4.299v15.377c0,1.429-.318,2.832-.902,4.082h0ZM977.003,439.537c.493-.423.917-.869,1.276-1.328l-7.004-9.69v-1.021h2.192l.363-.263,5.789,8.008c.074-.411.122-.83.122-1.255v-15.379c0-1.074-.241-2.125-.698-3.038-.526-1.052-1.133-1.855-1.912-2.522-.841-.699-1.539-1.119-2.398-1.442-.777-.331-1.677-.474-2.892-.474s-2.114.143-2.829.45l-.215.072c-.879.219-1.537.665-2.26,1.267-.907.777-1.6,1.625-2.04,2.508-.457.915-.698,1.964-.698,3.038v15.379c0,1.074.241,2.125.698,3.036.524,1.054,1.131,1.855,1.911,2.524.841.698,1.54,1.12,2.4,1.443.777.33,1.678.474,2.891.474s2.113-.144,2.829-.45l.215-.072c.879-.22,1.539-.666,2.26-1.267h0Z" stroke="#000" stroke-miterlimit="10" stroke-width="1.5"/>
      <path d="M1056.816,414.272c.651,1.301.996,2.788.996,4.299v15.378c0,1.511-.345,3-.996,4.3-.609,1.222-1.532,2.366-2.741,3.403-1.08.898-2.239,1.511-3.461,1.83-1.115.406-2.315.612-3.666.625h-.141c-1.509-.011-2.711-.214-3.882-.653-1.272-.479-2.405-1.127-3.37-1.932-1.225-1.048-2.147-2.194-2.759-3.416-.651-1.301-.996-2.788-.996-4.297v-15.378c0-1.51.346-2.997.996-4.299.611-1.222,1.534-2.367,2.743-3.403,1.079-.9,2.239-1.511,3.461-1.83,1.152-.42,2.398-.626,3.807-.626,1.511,0,2.864.219,4.022.653,1.272.477,2.405,1.127,3.372,1.932,1.073.918,1.924,2.033,2.615,3.414h0ZM1038.624,418.43v13.917l16.19-15.351c-.117-.514-.292-1.006-.521-1.463-.526-1.054-1.135-1.855-1.913-2.523-.706-.588-1.566-1.078-2.54-1.443-.828-.311-1.877-.474-3.032-.474-1.108,0-2.027.151-2.891.474l-.152.048c-.837.209-1.644.635-2.403,1.267-.906.777-1.598,1.627-2.04,2.51-.457.914-.698,1.964-.698,3.038ZM1054.992,433.951v-13.233l-16.033,15.203c.102.32.219.632.365.927.441.883,1.133,1.732,2.056,2.522.705.587,1.564,1.077,2.539,1.443.858.322,1.772.469,2.958.474,1.077-.005,1.977-.156,2.823-.474l.152-.048c.836-.208,1.644-.635,2.402-1.267.905-.777,1.597-1.626,2.039-2.51.457-.913.698-1.962.698-3.038Z" stroke="#000" stroke-miterlimit="10" stroke-width="1.5"/>
      <path d="M1064.221,440.821c0-1.636,1.263-2.963,2.821-2.963s2.822,1.327,2.822,2.963-1.264,2.963-2.822,2.963-2.821-1.326-2.821-2.963Z" stroke="#000" stroke-miterlimit="10" stroke-width="1.5"/>
      <path d="M1098.849,433.95c0,5.601-5.064,10.158-11.287,10.158s-11.287-4.557-11.287-10.158c0-3.785,2.316-7.088,5.737-8.835-2.772-1.64-4.609-4.464-4.609-7.672,0-5.057,4.558-9.171,10.159-9.171s10.158,4.114,10.158,9.171c0,3.208-1.839,6.033-4.609,7.672,3.421,1.747,5.738,5.05,5.738,8.835ZM1096.026,433.95c0-4.045-3.797-7.336-8.465-7.336s-8.466,3.292-8.466,7.336,3.797,7.336,8.466,7.336,8.465-3.292,8.465-7.336ZM1087.561,423.793c4.045,0,7.336-2.849,7.336-6.349s-3.291-6.349-7.336-6.349-7.337,2.849-7.337,6.349,3.291,6.349,7.337,6.349Z" stroke="#000" stroke-miterlimit="10" stroke-width="1.5"/>
    </g>
    <g>
      <rect x="442.743" y="603.521" width="285.378" height="52.826" fill="none"/>
      <path d="M454.504,636.342v-4.694h-9.312v-2.821h9.312v-4.479l7.996,5.864-7.996,6.13Z" stroke="#000" stroke-miterlimit="10" stroke-width="1.5"/>
      <path d="M501.885,641.808c.856-.646,1.597-1.467,2.266-2.537l2.393,1.495c-.848,1.357-1.84,2.451-3.031,3.346-.995.666-2.23,1.283-3.454,1.743-1.391.465-2.663.655-4.306.655-1.747,0-3.114-.208-4.305-.653-1.225-.408-2.341-.989-3.569-1.866-1.222-.761-2.279-1.934-2.981-3.34-.652-1.301-.996-2.788-.996-4.299v-15.379c0-1.785.574-3.176,1.136-4.299.915-1.475,1.905-2.568,3.097-3.461.992-.665,2.228-1.284,3.454-1.744,1.386-.463,2.658-.653,4.305-.653,1.748,0,3.115.209,4.305.655,1.223.406,2.339.985,3.569,1.865,1.326.996,2.321,2.159,2.981,3.48l-2.524,1.263c-.462-.927-1.176-1.757-2.123-2.467-.978-.698-1.837-1.146-2.844-1.482-.913-.342-1.966-.492-3.364-.492-1.342,0-2.317.143-3.364.492-.983.369-2.009.882-2.767,1.387-.856.645-1.597,1.466-2.267,2.537-.438.89-.773,1.792-.773,2.92v15.378c0,1.075.241,2.124.697,3.036.478.956,1.16,1.716,2.026,2.257,1.077.767,1.935,1.217,2.943,1.553.913.341,1.967.492,3.364.492,1.339,0,2.314-.143,3.364-.492.98-.369,2.007-.882,2.767-1.388l.003-.002Z" stroke="#000" stroke-miterlimit="10" stroke-width="1.5"/>
      <path d="M539.255,612.382v7.704l-22.193,26.721h-3.908v-34.425h2.822v31.315l20.458-24.632v-6.684h2.821Z" stroke="#000" stroke-miterlimit="10" stroke-width="1.5"/>
      <path d="M582.694,612.391v34.284h-2.822v-28.713l-6.648,11.923h-3.068l-6.65-11.923v28.713h-2.822v-34.284h2.945l8.06,14.451,8.061-14.451h2.945Z" stroke="#000" stroke-miterlimit="10" stroke-width="1.5"/>
      <path d="M611.117,627.469l-.146,19.184-2.822-.021.081-10.713h-16.306v10.723h-2.822v-19.178l9.669-15.108h2.673l9.672,15.114ZM608.251,633.095l.037-4.812-8.18-12.781-8.183,12.786v4.808h16.327Z" stroke="#000" stroke-miterlimit="10" stroke-width="1.5"/>
      <path d="M639.533,612.198v34.455h-2.799l-16.389-29.029v29.005h-2.822v-34.284h3.082l16.106,28.528v-28.675h2.822Z" stroke="#000" stroke-miterlimit="10" stroke-width="1.5"/>
      <path d="M667.954,612.382v24.406c0,1.562-.366,3.062-1.033,4.229-.573,1.151-1.496,2.297-2.706,3.334-1.019.851-2.119,1.322-3.185,1.777-1.233.465-2.501.679-3.94.679-1.512,0-2.867-.22-4.024-.654-1.271-.476-2.406-1.126-3.37-1.929-1.026-.882-2.059-1.877-2.757-3.276-.67-1.339-.996-2.7-.996-4.157v-24.408h2.822v24.408c0,1.023.222,1.943.699,2.896.448.899,1.146,1.602,2.054,2.382.706.587,1.566,1.076,2.54,1.442.828.312,1.876.476,3.032.476,1.107,0,2.028-.151,2.89-.475.859-.371,1.727-.742,2.414-1.314.907-.779,1.6-1.627,2.04-2.511.457-.804.698-1.835.698-2.896v-24.408h2.824Z" stroke="#000" stroke-miterlimit="10" stroke-width="1.5"/>
      <path d="M696.377,627.469l-.146,19.184-2.822-.021.081-10.713h-16.306v10.723h-2.822v-19.178l9.669-15.108h2.673l9.672,15.114ZM693.511,633.095l.037-4.812-8.18-12.781-8.183,12.786v4.808h16.327Z" stroke="#000" stroke-miterlimit="10" stroke-width="1.5"/>
      <path d="M724.228,643.991v2.821h-21.445v-34.284h2.822v31.463h18.624Z" stroke="#000" stroke-miterlimit="10" stroke-width="1.5"/>
    </g>
    <g>
      <rect x="458.279" y="239.561" width="697.634" height="38.311" fill="none"/>
      <path d="M476.597,240.174v33.888h10.927v3.167h-14.094v-40.223h14.094v3.167h-10.927Z" stroke="#000" stroke-miterlimit="10" stroke-width="1.5"/>
      <path d="M509.659,263.962v-3.11h12.597v3.11h-12.597Z" stroke="#000" stroke-miterlimit="10" stroke-width="1.5"/>
      <path d="M545.838,263.962v-3.11h12.597v3.11h-12.597Z" stroke="#000" stroke-miterlimit="10" stroke-width="1.5"/>
      <path d="M582.016,263.962v-3.11h12.597v3.11h-12.597Z" stroke="#000" stroke-miterlimit="10" stroke-width="1.5"/>
      <path d="M632.19,247.012c0,3.858-3.14,6.998-6.998,6.998s-6.997-3.14-6.997-6.998,3.14-6.998,6.997-6.998,6.998,3.14,6.998,6.998ZM629.08,247.012c0-2.143-1.745-3.888-3.888-3.888s-3.887,1.745-3.887,3.888,1.745,3.888,3.887,3.888,3.888-1.745,3.888-3.888Z" stroke="#000" stroke-miterlimit="10" stroke-width="1.5"/>
      <path d="M655.779,263.962v-3.11h12.597v3.11h-12.597Z" stroke="#000" stroke-miterlimit="10" stroke-width="1.5"/>
      <path d="M691.958,263.962v-3.11h12.597v3.11h-12.597Z" stroke="#000" stroke-miterlimit="10" stroke-width="1.5"/>
      <path d="M728.137,273.603c0-1.803,1.393-3.266,3.109-3.266s3.111,1.462,3.111,3.266-1.393,3.266-3.11,3.266-3.11-1.462-3.11-3.266Z" stroke="#000" stroke-miterlimit="10" stroke-width="1.5"/>
      <path d="M757.945,263.962v-3.11h12.597v3.11h-12.597Z" stroke="#000" stroke-miterlimit="10" stroke-width="1.5"/>
      <path d="M843.695,263.962v-3.11h12.597v3.11h-12.597Z" stroke="#000" stroke-miterlimit="10" stroke-width="1.5"/>
      <path d="M879.875,263.962v-3.11h12.597v3.11h-12.597Z" stroke="#000" stroke-miterlimit="10" stroke-width="1.5"/>
      <path d="M916.054,263.962v-3.11h12.597v3.11h-12.597Z" stroke="#000" stroke-miterlimit="10" stroke-width="1.5"/>
      <path d="M952.232,263.962v-3.11h12.597v3.11h-12.597Z" stroke="#000" stroke-miterlimit="10" stroke-width="1.5"/>
      <path d="M1002.407,247.012c0,3.858-3.14,6.998-6.998,6.998s-6.997-3.14-6.997-6.998,3.14-6.998,6.997-6.998,6.998,3.14,6.998,6.998ZM999.297,247.012c0-2.143-1.745-3.888-3.888-3.888s-3.888,1.745-3.888,3.888,1.745,3.888,3.888,3.888,3.888-1.745,3.888-3.888Z" stroke="#000" stroke-miterlimit="10" stroke-width="1.5"/>
      <path d="M1025.995,263.962v-3.11h12.597v3.11h-12.597Z" stroke="#000" stroke-miterlimit="10" stroke-width="1.5"/>
      <path d="M1062.174,273.603c0-1.803,1.393-3.266,3.109-3.266s3.11,1.462,3.11,3.266-1.393,3.266-3.11,3.266-3.109-1.462-3.109-3.266Z" stroke="#000" stroke-miterlimit="10" stroke-width="1.5"/>
      <path d="M1091.981,263.962v-3.11h12.597v3.11h-12.597Z" stroke="#000" stroke-miterlimit="10" stroke-width="1.5"/>
      <path d="M1140.772,236.842v40.223h-14.093v-3.168h10.926v-33.888h-10.926v-3.167h14.093Z" stroke="#000" stroke-miterlimit="10" stroke-width="1.5"/>
    </g>
    <g>
      <polyline points="1023.165 352.99 1135.694 352.99 1135.694 391.301 1023.165 391.301" fill="none"/>
      <path d="M1059.961,354.409v34.455h-2.799l-16.39-29.029v29.005h-2.821v-34.285h3.081l16.106,28.528v-28.675h2.822Z" stroke="#000" stroke-miterlimit="10" stroke-width="1.5"/>
      <path d="M1088.385,369.68l-.145,19.184-2.822-.021.08-10.713h-16.306v10.723h-2.821v-19.178l9.669-15.108h2.673l9.672,15.114ZM1085.519,375.307l.037-4.812-8.181-12.781-8.184,12.785v4.809h16.327Z" stroke="#000" stroke-miterlimit="10" stroke-width="1.5"/>
      <path d="M1120.891,354.593v7.705l-22.193,26.721h-3.907v-34.425h2.821v31.315l20.458-24.631v-6.684h2.821Z" stroke="#000" stroke-miterlimit="10" stroke-width="1.5"/>
    </g>
    <g>
      <polyline points="437.776 352.99 550.305 352.99 550.305 391.301 437.776 391.301" fill="none"/>
      <path d="M474.572,354.409v34.455h-2.799l-16.389-29.029v29.005h-2.822v-34.285h3.082l16.106,28.528v-28.675h2.822Z" stroke="#000" stroke-miterlimit="10" stroke-width="1.5"/>
      <path d="M502.996,369.68l-.145,19.184-2.822-.021.08-10.713h-16.305v10.723h-2.822v-19.178l9.669-15.108h2.673l9.671,15.114ZM500.131,375.307l.037-4.812-8.181-12.781-8.183,12.785v4.809h16.327Z" stroke="#000" stroke-miterlimit="10" stroke-width="1.5"/>
      <path d="M535.503,354.593v7.705l-22.193,26.721h-3.907v-34.425h2.821v31.315l20.458-24.631v-6.684h2.821Z" stroke="#000" stroke-miterlimit="10" stroke-width="1.5"/>
    </g>
    <g>
      <rect x="442.743" y="476.804" width="687.537" height="52.826" fill="none"/>
      <path d="M454.505,509.624v-4.694h-9.312v-2.822h9.312v-4.478l7.996,5.864-7.996,6.13Z" stroke="#000" stroke-miterlimit="10" stroke-width="1.5"/>
      <path d="M497.905,505.644l8.149,13.498v.817h-2.112l-.507.306-8.622-14.278c-.062,0-.127.004-.188.004h-7.902v13.968h-2.822v-34.425h10.582c1.628,0,3.239.336,4.666.968,1.531.681,2.777,1.515,3.81,2.549.838.837,1.458,1.923,2.06,2.973l.075.15c.559,1.306.82,2.469.82,3.66,0,1.236-.284,2.55-.82,3.801-.472,1.1-1.251,2.239-2.134,3.122-.816.816-2.135,1.904-3.795,2.458-.417.186-.837.323-1.259.432h0ZM486.724,488.354v14.814h7.902c1.586,0,2.572-.165,3.518-.584,1.016-.346,1.971-.975,2.82-1.824.629-.631,1.205-1.469,1.537-2.24.386-.902.591-1.832.591-2.688,0-.788-.173-1.553-.56-2.476-.52-.908-1.009-1.754-1.566-2.312-.797-.797-1.738-1.422-2.961-1.966-1.066-.473-2.283-.725-3.519-.725h-7.761Z" stroke="#000" stroke-miterlimit="10" stroke-width="1.5"/>
      <path d="M515.29,487.062v11.569h10.158v2.822h-10.158v15.661h18.482v2.822h-21.304v-35.695h21.304v2.822h-18.482Z" stroke="#000" stroke-miterlimit="10" stroke-width="1.5"/>
      <path d="M561.332,505.968c.612,1.213.907,2.407.907,3.547,0,3.039-1.115,5.535-3.315,7.419-2.056,1.899-4.656,2.88-7.689,2.88h-.282c-2.86,0-5.495-1.017-7.832-3.021-1.826-1.545-2.361-2.91-2.749-3.906-.058-.145-.111-.285-.169-.419l2.593-1.113c.069.161.135.329.205.504.326.834.663,1.696,1.951,2.785,1.844,1.583,3.805,2.348,6.002,2.348h.282c2.333,0,4.237-.708,5.814-2.166,1.63-1.397,2.369-3.073,2.369-5.312,0-.694-.198-1.473-.557-2.191-.309-.506-.758-1.175-1.354-1.573-.686-.542-1.566-1.049-2.454-1.429-.576-.247-1.223-.446-1.974-.676-.416-.128-.851-.262-1.302-.412l-4.149-1.105c-2.236-.687-3.849-1.721-4.981-3.177-1.229-1.579-1.851-3.436-1.851-5.522,0-2.581,1.071-4.794,3.18-6.581,2.005-1.851,4.28-2.733,7.121-2.733h.281c2.853.165,5.234,1.143,7.162,2.909,1.464,1.301,2.351,2.857,2.692,4.739l-2.778.502c-.23-1.271-.786-2.242-1.805-3.148-1.452-1.331-3.25-2.061-5.354-2.186l-.199.003c-2.115,0-3.736.625-5.251,2.025-1.514,1.284-2.228,2.731-2.228,4.467,0,1.444.423,2.719,1.255,3.79.776.998,1.899,1.696,3.535,2.2l4.182,1.114c.512.167.924.293,1.319.415.795.244,1.545.474,2.26.78,1.125.481,2.219,1.117,3.006,1.747.962.636,1.64,1.623,2.162,2.493h-.003Z" stroke="#000" stroke-miterlimit="10" stroke-width="1.5"/>
      <path d="M589.269,488.545h-8.889v31.463h-2.821v-31.463h-8.889v-2.822h20.599v2.822Z" stroke="#000" stroke-miterlimit="10" stroke-width="1.5"/>
      <path d="M617.682,500.752l-.146,19.184-2.822-.021.081-10.713h-16.306v10.723h-2.822v-19.178l9.669-15.108h2.673l9.672,15.114ZM614.816,506.379l.037-4.812-8.18-12.781-8.183,12.785v4.809h16.327Z" stroke="#000" stroke-miterlimit="10" stroke-width="1.5"/>
      <path d="M638.091,505.644l8.149,13.498v.817h-2.112l-.507.306-8.622-14.278c-.062,0-.127.004-.188.004h-7.902v13.968h-2.822v-34.425h10.582c1.628,0,3.239.336,4.666.968,1.531.681,2.777,1.515,3.81,2.549.838.837,1.458,1.923,2.06,2.973l.075.15c.559,1.306.82,2.469.82,3.66,0,1.236-.284,2.55-.82,3.801-.472,1.1-1.251,2.239-2.134,3.122-.816.816-2.135,1.904-3.795,2.458-.417.186-.837.323-1.259.432h0ZM626.91,488.354v14.814h7.902c1.586,0,2.572-.165,3.518-.584,1.016-.346,1.971-.975,2.82-1.824.629-.631,1.205-1.469,1.537-2.24.386-.902.591-1.832.591-2.688,0-.788-.173-1.553-.56-2.476-.52-.908-1.009-1.754-1.566-2.312-.797-.797-1.738-1.422-2.961-1.966-1.066-.473-2.283-.725-3.519-.725h-7.761Z" stroke="#000" stroke-miterlimit="10" stroke-width="1.5"/>
      <path d="M673.254,488.545h-8.889v31.463h-2.821v-31.463h-8.889v-2.822h20.599v2.822Z" stroke="#000" stroke-miterlimit="10" stroke-width="1.5"/>
      <path d="M731.654,500.752l-.146,19.184-2.822-.021.081-10.713h-16.306v10.723h-2.822v-19.178l9.669-15.108h2.673l9.672,15.114ZM728.788,506.379l.037-4.812-8.18-12.781-8.183,12.785v4.809h16.327Z" stroke="#000" stroke-miterlimit="10" stroke-width="1.5"/>
      <path d="M759.505,517.274v2.822h-21.445v-34.285h2.822v31.463h18.623Z" stroke="#000" stroke-miterlimit="10" stroke-width="1.5"/>
      <path d="M775.676,487.081v30.193h6.913v2.822h-16.648v-2.822h6.914v-30.193h-6.914v-2.822h16.648v2.822h-6.913Z" stroke="#000" stroke-miterlimit="10" stroke-width="1.5"/>
      <path d="M801.435,500.751h10.158v10.158c0,1.06,0,2.662-.92,4.134l-.126.19c-.551.833-1.121,1.693-2.439,2.516-.65.494-2.244,1.26-3.354,1.676-1.174.44-2.535.655-4.164.655s-2.989-.214-4.163-.655c-1.443-.542-2.624-1.191-3.512-1.93-1.246-.933-2.062-2.075-2.782-3.083l-.117-.193c-.651-1.302-.996-2.79-.996-4.299v-15.52c0-1.723.371-3.085,1.202-4.416.664-1.345,1.93-2.525,2.817-3.287,1.046-.871,2.307-1.343,3.526-1.801,1.175-.441,2.538-.656,4.166-.656s2.989.214,4.163.655c1.091.408,2.251.962,3.45,1.646l.146.096c1.449,1.088,2.491,2.253,3.096,3.461l-2.524,1.263c-.397-.796-1.136-1.607-2.195-2.413-1.027-.581-2.05-1.068-2.963-1.411-.852-.32-1.889-.476-3.173-.476s-2.322.154-3.173.474c-1.049.394-2.036.763-2.698,1.315-.686.59-1.679,1.507-2.18,2.51-.607.985-.839,1.858-.839,3.038v15.52c0,1.037.226,2.051.651,2.943.638.89,1.25,1.729,2.172,2.418.69.573,1.623,1.076,2.752,1.5.853.32,1.89.476,3.173.476s2.321-.155,3.174-.474c1.075-.403,2.341-1.051,2.752-1.36.896-.567,1.21-1.037,1.681-1.75l.107-.163c.469-.75.469-1.735.469-2.603v-7.336h-7.337v-2.819Z" stroke="#000" stroke-miterlimit="10" stroke-width="1.5"/>
      <path d="M840.037,485.481v34.455h-2.8l-16.389-29.029v29.005h-2.821v-34.285h3.081l16.106,28.528v-28.675h2.822Z" stroke="#000" stroke-miterlimit="10" stroke-width="1.5"/>
      <path d="M942.014,488.545h-8.888v31.463h-2.822v-31.463h-8.889v-2.822h20.599v2.822Z" stroke="#000" stroke-miterlimit="10" stroke-width="1.5"/>
      <path d="M970.427,500.752l-.146,19.184-2.821-.021.08-10.713h-16.306v10.723h-2.821v-19.178l9.668-15.108h2.674l9.672,15.114ZM967.561,506.379l.036-4.812-8.18-12.781-8.184,12.785v4.809h16.327Z" stroke="#000" stroke-miterlimit="10" stroke-width="1.5"/>
      <path d="M1012.842,490.221c.651,1.301.996,2.788.996,4.299v15.378c0,1.511-.345,3-.996,4.3-.609,1.222-1.532,2.366-2.741,3.403-1.08.898-2.239,1.511-3.461,1.83-1.115.406-2.315.612-3.666.625h-.141c-1.509-.011-2.711-.214-3.882-.653-1.272-.479-2.405-1.127-3.37-1.932-1.225-1.048-2.147-2.194-2.759-3.416-.651-1.301-.996-2.788-.996-4.297v-15.378c0-1.51.346-2.997.996-4.299.611-1.222,1.534-2.367,2.743-3.403,1.079-.9,2.239-1.511,3.461-1.83,1.152-.42,2.398-.626,3.807-.626,1.511,0,2.864.219,4.022.653,1.272.477,2.405,1.127,3.372,1.932,1.073.918,1.924,2.033,2.615,3.414h0ZM994.649,494.38v13.917l16.19-15.351c-.117-.514-.292-1.006-.521-1.463-.526-1.054-1.135-1.855-1.913-2.523-.706-.588-1.566-1.078-2.54-1.443-.828-.311-1.877-.474-3.032-.474-1.108,0-2.027.151-2.891.474l-.152.048c-.837.209-1.644.635-2.403,1.267-.906.777-1.598,1.627-2.04,2.51-.457.914-.698,1.964-.698,3.038ZM1011.017,509.901v-13.233l-16.033,15.203c.102.32.219.632.365.927.441.883,1.133,1.732,2.056,2.522.705.587,1.564,1.077,2.539,1.443.858.322,1.772.469,2.958.474,1.077-.005,1.977-.156,2.823-.474l.152-.048c.836-.208,1.644-.635,2.402-1.267.905-.777,1.597-1.626,2.039-2.51.457-.913.698-1.962.698-3.038Z" stroke="#000" stroke-miterlimit="10" stroke-width="1.5"/>
      <path d="M1041.261,490.221c.651,1.301.996,2.788.996,4.299v15.378c0,1.511-.345,3-.996,4.3-.609,1.222-1.532,2.366-2.741,3.403-1.08.898-2.239,1.511-3.461,1.83-1.115.406-2.315.612-3.666.625h-.141c-1.509-.011-2.711-.214-3.882-.653-1.272-.479-2.405-1.127-3.37-1.932-1.225-1.048-2.147-2.194-2.759-3.416-.651-1.301-.996-2.788-.996-4.297v-15.378c0-1.51.346-2.997.996-4.299.611-1.222,1.534-2.367,2.743-3.403,1.079-.9,2.239-1.511,3.461-1.83,1.152-.42,2.398-.626,3.807-.626,1.511,0,2.864.219,4.022.653,1.272.477,2.405,1.127,3.372,1.932,1.073.918,1.924,2.033,2.615,3.414h0ZM1023.068,494.38v13.917l16.19-15.351c-.117-.514-.292-1.006-.521-1.463-.526-1.054-1.135-1.855-1.913-2.523-.706-.588-1.566-1.078-2.54-1.443-.828-.311-1.877-.474-3.032-.474-1.108,0-2.027.151-2.891.474l-.152.048c-.837.209-1.644.635-2.402,1.267-.907.777-1.599,1.627-2.041,2.51-.457.914-.698,1.964-.698,3.038ZM1039.436,509.901v-13.233l-16.033,15.203c.102.32.219.632.365.927.441.883,1.133,1.732,2.056,2.522.705.587,1.564,1.077,2.539,1.443.858.322,1.772.469,2.958.474,1.077-.005,1.977-.156,2.822-.474l.153-.048c.836-.208,1.644-.635,2.402-1.267.905-.777,1.597-1.626,2.039-2.51.457-.913.698-1.962.698-3.038Z" stroke="#000" stroke-miterlimit="10" stroke-width="1.5"/>
      <path d="M1048.665,500.262c0-1.636,1.263-2.963,2.821-2.963s2.822,1.327,2.822,2.963-1.264,2.963-2.822,2.963-2.821-1.326-2.821-2.963ZM1048.665,516.77c0-1.636,1.263-2.963,2.821-2.963s2.822,1.327,2.822,2.963-1.264,2.963-2.822,2.963-2.821-1.326-2.821-2.963Z" stroke="#000" stroke-miterlimit="10" stroke-width="1.5"/>
      <path d="M1081.734,490.221c.651,1.301.996,2.788.996,4.299v15.378c0,1.511-.345,3-.996,4.3-.609,1.222-1.532,2.366-2.741,3.403-1.08.898-2.239,1.511-3.461,1.83-1.115.406-2.315.612-3.666.625h-.141c-1.509-.011-2.711-.214-3.882-.653-1.272-.479-2.405-1.127-3.37-1.932-1.225-1.048-2.147-2.194-2.759-3.416-.651-1.301-.996-2.788-.996-4.297v-15.378c0-1.51.346-2.997.996-4.299.611-1.222,1.534-2.367,2.743-3.403,1.079-.9,2.239-1.511,3.461-1.83,1.152-.42,2.398-.626,3.807-.626,1.511,0,2.864.219,4.022.653,1.272.477,2.405,1.127,3.372,1.932,1.073.918,1.924,2.033,2.615,3.414h0ZM1063.542,494.38v13.917l16.19-15.351c-.117-.514-.292-1.006-.521-1.463-.526-1.054-1.135-1.855-1.913-2.523-.706-.588-1.566-1.078-2.54-1.443-.828-.311-1.877-.474-3.032-.474-1.108,0-2.027.151-2.891.474l-.152.048c-.837.209-1.644.635-2.403,1.267-.906.777-1.598,1.627-2.04,2.51-.457.914-.698,1.964-.698,3.038ZM1079.91,509.901v-13.233l-16.033,15.203c.102.32.219.632.365.927.441.883,1.133,1.732,2.056,2.522.705.587,1.564,1.077,2.539,1.443.858.322,1.772.469,2.958.474,1.077-.005,1.977-.156,2.823-.474l.152-.048c.836-.208,1.644-.635,2.402-1.267.905-.777,1.597-1.626,2.039-2.51.457-.913.698-1.962.698-3.038Z" stroke="#000" stroke-miterlimit="10" stroke-width="1.5"/>
      <path d="M1110.154,490.221c.651,1.301.996,2.788.996,4.299v15.378c0,1.511-.345,3-.996,4.3-.609,1.222-1.532,2.366-2.741,3.403-1.08.898-2.239,1.511-3.461,1.83-1.115.406-2.315.612-3.666.625h-.141c-1.509-.011-2.711-.214-3.882-.653-1.272-.479-2.405-1.127-3.37-1.932-1.225-1.048-2.147-2.194-2.759-3.416-.651-1.301-.996-2.788-.996-4.297v-15.378c0-1.51.346-2.997.996-4.299.611-1.222,1.534-2.367,2.743-3.403,1.079-.9,2.239-1.511,3.461-1.83,1.152-.42,2.398-.626,3.807-.626,1.511,0,2.864.219,4.022.653,1.272.477,2.405,1.127,3.372,1.932,1.073.918,1.924,2.033,2.615,3.414h0ZM1091.962,494.38v13.917l16.19-15.351c-.117-.514-.292-1.006-.521-1.463-.526-1.054-1.135-1.855-1.913-2.523-.706-.588-1.566-1.078-2.54-1.443-.828-.311-1.877-.474-3.032-.474-1.108,0-2.027.151-2.891.474l-.152.048c-.837.209-1.644.635-2.403,1.267-.906.777-1.598,1.627-2.04,2.51-.457.914-.698,1.964-.698,3.038ZM1108.33,509.901v-13.233l-16.033,15.203c.102.32.219.632.365.927.441.883,1.133,1.732,2.056,2.522.705.587,1.564,1.077,2.539,1.443.858.322,1.772.469,2.958.474,1.077-.005,1.977-.156,2.823-.474l.152-.048c.836-.208,1.644-.635,2.402-1.267.905-.777,1.597-1.626,2.039-2.51.457-.913.698-1.962.698-3.038Z" stroke="#000" stroke-miterlimit="10" stroke-width="1.5"/>
    </g>
    <g>
      <polyline points="958.773 608.246 1130.28 608.246 1130.28 646.557 958.773 646.557" fill="none"/>
      <path d="M995.686,624.937l-.146,19.184-2.821-.021.08-10.713h-16.306v10.723h-2.821v-19.179l9.669-15.107h2.673l9.672,15.113ZM992.821,630.564l.036-4.812-8.18-12.781-8.184,12.785v4.809h16.327Z" stroke="#000" stroke-miterlimit="10" stroke-width="1.5"/>
      <path d="M1011.828,611.266v30.192h6.913v2.822h-16.648v-2.822h6.913v-30.192h-6.913v-2.822h16.648v2.822h-6.913Z" stroke="#000" stroke-miterlimit="10" stroke-width="1.5"/>
      <path d="M1047.181,621.406v9.735c0,1.931-.328,3.771-.947,5.32-.589,1.624-1.506,3.078-2.709,4.283-.91,1.066-2.076,1.904-3.396,2.412-1.301.641-2.63.964-3.952.964h-11.005v-35.836h11.005c1.459,0,2.819.324,4.158.994,1.384.693,2.496,1.544,3.404,2.602.9.896,1.717,2.257,2.496,4.205.642,1.764.946,3.49.946,5.32ZM1044.359,621.406c0-1.516-.243-2.887-.762-4.314-.617-1.539-1.234-2.599-1.931-3.295-.74-.857-1.542-1.466-2.596-1.993-.951-.476-1.871-.697-2.896-.697h-8.183v30.193h8.183c.903,0,1.83-.236,2.756-.698l.136-.06c.911-.34,1.691-.901,2.387-1.713.983-.99,1.679-2.098,2.144-3.373.496-1.243.762-2.76.762-4.314v-9.735Z" stroke="#000" stroke-miterlimit="10" stroke-width="1.5"/>
      <path d="M1056.413,611.248v11.569h10.158v2.821h-10.158v15.661h18.482v2.821h-21.305v-35.695h21.305v2.822h-18.482Z" stroke="#000" stroke-miterlimit="10" stroke-width="1.5"/>
      <path d="M1103.335,621.406v9.735c0,1.931-.329,3.771-.948,5.32-.589,1.624-1.506,3.078-2.709,4.283-.91,1.066-2.075,1.904-3.396,2.412-1.301.641-2.63.964-3.951.964h-11.005v-35.836h11.005c1.458,0,2.818.324,4.157.994,1.385.693,2.496,1.544,3.404,2.602.9.896,1.718,2.257,2.496,4.205.643,1.764.947,3.49.947,5.32ZM1100.513,621.406c0-1.516-.242-2.887-.762-4.314-.616-1.539-1.234-2.599-1.93-3.295-.741-.857-1.543-1.466-2.597-1.993-.951-.476-1.871-.697-2.895-.697h-8.184v30.193h8.184c.902,0,1.829-.236,2.755-.698l.136-.06c.911-.34,1.691-.901,2.387-1.713.983-.99,1.68-2.098,2.144-3.373.497-1.243.762-2.76.762-4.314v-9.735Z" stroke="#000" stroke-miterlimit="10" stroke-width="1.5"/>
      <path d="M1109.744,624.448c0-1.637,1.263-2.963,2.821-2.963s2.822,1.326,2.822,2.963-1.264,2.963-2.822,2.963-2.821-1.326-2.821-2.963ZM1109.744,640.955c0-1.636,1.263-2.963,2.821-2.963s2.822,1.327,2.822,2.963-1.264,2.963-2.822,2.963-2.821-1.326-2.821-2.963Z" stroke="#000" stroke-miterlimit="10" stroke-width="1.5"/>
    </g>
  </g>
</svg>