<?xml version="1.0" encoding="UTF-8"?>
<svg xmlns="http://www.w3.org/2000/svg" width="2565.563" height="2482.239" viewBox="0 0 2565.563 2482.239">
  <g id="b" data-name="ECMD_-_Light">
    <path d="M2356.084,1181.413l-4.696-118.957-7.826-118.956-19.757-192.957c-2.48-24.227-5.623-48.382-9.422-72.437l-8.643-54.714c-8.902-56.35-43.83-95.718-108.719-110.854l-62.415-11.733-64.957-10.435-204.261-29.739-208.957-21.13-198.783-11.739-151.32-2.112.277-.236-8.609.12-8.609-.12.277.236-151.32,2.112-198.783,11.739-208.957,21.13-204.261,29.739-64.957,10.435-62.415,11.733c-64.889,15.136-99.818,54.504-108.719,110.854l-8.643,54.714c-3.8,24.055-6.942,48.21-9.422,72.437l-19.757,192.957-7.826,118.956-4.696,118.957v65.739l.37,10.174-.37,10.174v65.739l4.696,118.957,7.826,118.956,19.757,192.957c2.48,24.227,5.623,48.382,9.422,72.437l8.643,54.714c8.902,56.35,43.83,95.718,108.719,110.854l62.415,11.733,64.957,10.435,204.261,29.739,208.957,21.13,198.783,11.739,151.32,2.111-.277.236,8.609-.12,8.609.12-.277-.236,151.32-2.111,198.783-11.739,208.957-21.13,204.261-29.739,64.957-10.435,62.415-11.733c64.889-15.136,99.817-54.504,108.719-110.854l8.643-54.714c3.8-24.055,6.942-48.21,9.422-72.437l19.757-192.957,7.826-118.956,4.696-118.957v-65.739l-.37-10.174.37-10.174v-65.739Z" fill="none" stroke="#000" stroke-miterlimit="10" stroke-width="9"/>
  </g>
  <g id="d" data-name="ECMD_ECM_ECM_-_Light">
    <circle cx="1335.53" cy="1201.924" r="523.565" fill="none" stroke="#000" stroke-dasharray="60 22" stroke-miterlimit="10" stroke-width="8"/>
    <line x1="1272.954" y1="703.63" x2="1268.649" y2="663.717" fill="none" stroke="#000" stroke-dasharray="60 22" stroke-miterlimit="10" stroke-width="8"/>
    <line x1="1731.68" y1="892.718" x2="1763.532" y2="868.282" fill="none" stroke="#000" stroke-dasharray="60 22" stroke-miterlimit="10" stroke-width="8"/>
    <line x1="1831.766" y1="1130.217" x2="1871.62" y2="1125.392" fill="none" stroke="#000" stroke-dasharray="60 22" stroke-miterlimit="10" stroke-width="8"/>
    <line x1="1640.562" y1="1600.328" x2="1665.259" y2="1631.976" fill="none" stroke="#000" stroke-dasharray="60 22" stroke-miterlimit="10" stroke-width="8"/>
    <line x1="1405.41" y1="1741.761" x2="1401.106" y2="1701.848" fill="none" stroke="#000" stroke-dasharray="60 22" stroke-miterlimit="10" stroke-width="8"/>
    <line x1="900.099" y1="1532.529" x2="931.287" y2="1507.253" fill="none" stroke="#000" stroke-dasharray="60 22" stroke-miterlimit="10" stroke-width="8"/>
    <line x1="794.832" y1="1271.261" x2="834.641" y2="1266.087" fill="none" stroke="#000" stroke-dasharray="60 22" stroke-miterlimit="10" stroke-width="8"/>
    <line x1="1035.698" y1="800.185" x2="1008.949" y2="770.25" fill="none" stroke="#000" stroke-dasharray="60 22" stroke-miterlimit="10" stroke-width="8"/>
    <circle cx="1336.345" cy="1200.587" r="302.238" fill="none" stroke="#000" stroke-dasharray="51 22" stroke-miterlimit="10" stroke-width="8"/>
    <line x1="1334.78" y1="1164.196" x2="1334.78" y2="1230.326" fill="none" stroke="#000" stroke-dasharray="51 22" stroke-miterlimit="10" stroke-width="18"/>
    <line x1="1369.997" y1="1196.674" x2="1301.519" y2="1196.674" fill="none" stroke="#000" stroke-dasharray="51 22" stroke-miterlimit="10" stroke-width="18"/>
    <rect x="1244.258" y="541.239" width="184.696" height="59.478" fill="none" stroke="#000" stroke-miterlimit="10" stroke-width="7"/>
    <circle cx="1677.954" cy="974.413" r="147.522" fill="none" stroke="#000" stroke-miterlimit="10" stroke-width="7"/>
    <g id="e" data-name="threat_land">
      <path id="f" data-name="path47" d="M1666.384,945.954v17.422l-15.759,15.997h15.284v30.965l-16.155,12.988h56.861l-15.284-11.958v-31.915h12.513l-13.859-14.967v-17.977l-11.238-23.357-12.362,22.802Z" fill="none" stroke="#000" stroke-miterlimit="15.1" stroke-width="5"/>
      <g>
        <line x1="1665.909" y1="999.885" x2="1694.418" y2="969.158" fill="none" stroke="#000" stroke-miterlimit="15.1" stroke-width="5"/>
        <line x1="1666.542" y1="949.122" x2="1682.698" y2="931.7" fill="none" stroke="#000" stroke-miterlimit="15.1" stroke-width="5"/>
        <line x1="1660.84" y1="979.374" x2="1689.983" y2="947.855" fill="none" stroke="#000" stroke-miterlimit="15.1" stroke-width="5"/>
        <line x1="1666.542" y1="1023.247" x2="1691.409" y2="996.48" fill="none" stroke="#000" stroke-miterlimit="15.1" stroke-width="5"/>
        <line x1="1688.795" y1="1023.247" x2="1696.319" y2="1015.169" fill="none" stroke="#000" stroke-miterlimit="15.1" stroke-width="5"/>
      </g>
    </g>
    <g id="g" data-name="threat_land">
      <path id="h" data-name="path47" d="M879.947,722.841v17.422l-15.759,15.997h15.284v30.965l-16.155,12.988h56.861l-15.284-11.958v-31.915h12.513l-13.859-14.967v-17.977l-11.238-23.357-12.362,22.802Z" fill="none" stroke="#000" stroke-miterlimit="15.1" stroke-width="5"/>
      <g>
        <line x1="879.472" y1="776.771" x2="907.982" y2="746.044" fill="none" stroke="#000" stroke-miterlimit="15.1" stroke-width="5"/>
        <line x1="880.106" y1="726.009" x2="896.261" y2="708.586" fill="none" stroke="#000" stroke-miterlimit="15.1" stroke-width="5"/>
        <line x1="874.404" y1="756.26" x2="903.547" y2="724.741" fill="none" stroke="#000" stroke-miterlimit="15.1" stroke-width="5"/>
        <line x1="880.106" y1="800.133" x2="904.972" y2="773.366" fill="none" stroke="#000" stroke-miterlimit="15.1" stroke-width="5"/>
        <line x1="902.359" y1="800.133" x2="909.882" y2="792.056" fill="none" stroke="#000" stroke-miterlimit="15.1" stroke-width="5"/>
      </g>
    </g>
    <g id="i" data-name="threat_land">
      <path id="j" data-name="path47" d="M843.32,1598.888v17.422l-15.759,15.997h15.284v30.965l-16.155,12.988h56.861l-15.284-11.958v-31.915h12.513l-13.859-14.967v-17.977l-11.238-23.357-12.362,22.802Z" fill="none" stroke="#000" stroke-miterlimit="15.1" stroke-width="5"/>
      <g>
        <line x1="842.845" y1="1652.818" x2="871.354" y2="1622.091" fill="none" stroke="#000" stroke-miterlimit="15.1" stroke-width="5"/>
        <line x1="843.478" y1="1602.056" x2="859.634" y2="1584.633" fill="none" stroke="#000" stroke-miterlimit="15.1" stroke-width="5"/>
        <line x1="837.777" y1="1632.307" x2="866.92" y2="1600.788" fill="none" stroke="#000" stroke-miterlimit="15.1" stroke-width="5"/>
        <line x1="843.478" y1="1676.18" x2="868.345" y2="1649.413" fill="none" stroke="#000" stroke-miterlimit="15.1" stroke-width="5"/>
        <line x1="865.732" y1="1676.18" x2="873.255" y2="1668.103" fill="none" stroke="#000" stroke-miterlimit="15.1" stroke-width="5"/>
      </g>
    </g>
    <g id="k" data-name="threat_air">
      <path id="l" data-name="path53" d="M1292.659,779.894h62.44l-30.921,50.911-30.921-50.911h-.599Z" fill="none" stroke="#000" stroke-linecap="square" stroke-miterlimit="15.1" stroke-width="6"/>
      <path id="m" data-name="path53-2" d="M1308.381,750.096h32.643l-16.321,28.151-16.321-28.151Z" fill="none" stroke="#000" stroke-linecap="square" stroke-miterlimit="15.1" stroke-width="6"/>
      <g>
        <line x1="1334.016" y1="761.955" x2="1322.007" y2="749.946" fill="none" stroke="#000" stroke-miterlimit="15.1" stroke-width="6"/>
        <line x1="1332.788" y1="817.328" x2="1295.368" y2="779.833" fill="none" stroke="#000" stroke-miterlimit="15.1" stroke-width="6"/>
        <line x1="1343.27" y1="800.632" x2="1322.942" y2="780.305" fill="none" stroke="#000" stroke-miterlimit="15.1" stroke-width="6"/>
      </g>
    </g>
    <g id="n" data-name="threat_air">
      <path id="o" data-name="path53" d="M1117.659,839.566l54.655-30.192-2.448,59.515-51.683-29.612-.459.253h0l-.066.036Z" fill="none" stroke="#000" stroke-linecap="square" stroke-miterlimit="15.1" stroke-width="6"/>
      <path id="p" data-name="path53-2" d="M1117.013,805.881l28.573-15.784-.675,32.533-27.898-16.749Z" fill="none" stroke="#000" stroke-linecap="square" stroke-miterlimit="15.1" stroke-width="6"/>
      <g>
        <line x1="1145.186" y1="803.866" x2="1128.867" y2="799.161" fill="none" stroke="#000" stroke-miterlimit="15.1" stroke-width="6"/>
        <line x1="1170.886" y1="852.928" x2="1120.001" y2="838.202" fill="none" stroke="#000" stroke-miterlimit="15.1" stroke-width="6"/>
        <line x1="1171.988" y1="833.246" x2="1144.365" y2="825.282" fill="none" stroke="#000" stroke-miterlimit="15.1" stroke-width="6"/>
      </g>
    </g>
    <g id="q" data-name="threat_aaa">
      <path id="r" data-name="path50" d="M949.72,991.601l42.966-32.835,3.756,3.756-31.563,24.418" fill="#ccc" stroke="#000" stroke-linecap="square" stroke-miterlimit="15.1" stroke-width="5"/>
      <path d="M1005.207,1020.866c0-18.53-16.589-33.617-37.06-33.617s-37.06,15.024-37.06,33.617" fill="none" stroke="#000" stroke-linecap="round" stroke-linejoin="round" stroke-width="5"/>
      <line x1="931.024" y1="1021.304" x2="1005.207" y2="1021.304" fill="none" stroke="#000" stroke-linecap="square" stroke-miterlimit="15.1" stroke-width="5"/>
      <g>
        <line x1="951.745" y1="1021.304" x2="982.983" y2="990.129" fill="none" stroke="#000" stroke-miterlimit="15.1" stroke-width="5"/>
        <line x1="931.274" y1="1020.115" x2="964.14" y2="987.312" fill="none" stroke="#000" stroke-miterlimit="15.1" stroke-width="5"/>
        <line x1="972.153" y1="1020.866" x2="995.128" y2="997.891" fill="none" stroke="#000" stroke-miterlimit="15.1" stroke-width="5"/>
        <line x1="992.06" y1="1020.866" x2="1003.016" y2="1009.911" fill="none" stroke="#000" stroke-miterlimit="15.1" stroke-width="5"/>
      </g>
    </g>
    <g id="s" data-name="threat_aaa">
      <path id="t" data-name="path50" d="M947.972,1427.756l42.966-32.835,3.756,3.756-31.563,24.418" fill="#ccc" stroke="#000" stroke-linecap="square" stroke-miterlimit="15.1" stroke-width="5"/>
      <path d="M1003.458,1457.021c0-18.53-16.589-33.617-37.06-33.617s-37.06,15.024-37.06,33.617" fill="none" stroke="#000" stroke-linecap="round" stroke-linejoin="round" stroke-width="5"/>
      <line x1="929.275" y1="1457.46" x2="1003.458" y2="1457.46" fill="none" stroke="#000" stroke-linecap="square" stroke-miterlimit="15.1" stroke-width="5"/>
      <g>
        <line x1="949.996" y1="1457.46" x2="981.235" y2="1426.284" fill="none" stroke="#000" stroke-miterlimit="15.1" stroke-width="5"/>
        <line x1="929.526" y1="1456.27" x2="962.392" y2="1423.467" fill="none" stroke="#000" stroke-miterlimit="15.1" stroke-width="5"/>
        <line x1="970.405" y1="1457.021" x2="993.379" y2="1434.047" fill="none" stroke="#000" stroke-miterlimit="15.1" stroke-width="5"/>
        <line x1="990.312" y1="1457.021" x2="1001.267" y2="1446.066" fill="none" stroke="#000" stroke-miterlimit="15.1" stroke-width="5"/>
      </g>
    </g>
    <circle cx="715.639" cy="1104.62" r="203.185" fill="none" stroke="#000" stroke-miterlimit="10" stroke-width="7"/>
    <g id="u" data-name="threat_land">
      <path id="v" data-name="path47" d="M700.058,1068.628v17.422l-15.759,15.997h15.284v30.965l-16.155,12.988h56.861l-15.284-11.958v-31.915h12.513l-13.859-14.967v-17.977l-11.238-23.357-12.362,22.802Z" fill="none" stroke="#000" stroke-miterlimit="15.1" stroke-width="5"/>
      <g>
        <line x1="699.583" y1="1122.559" x2="728.092" y2="1091.832" fill="none" stroke="#000" stroke-miterlimit="15.1" stroke-width="5"/>
        <line x1="700.216" y1="1071.796" x2="716.372" y2="1054.374" fill="none" stroke="#000" stroke-miterlimit="15.1" stroke-width="5"/>
        <line x1="694.514" y1="1102.048" x2="723.657" y2="1070.529" fill="none" stroke="#000" stroke-miterlimit="15.1" stroke-width="5"/>
        <line x1="700.216" y1="1145.921" x2="725.083" y2="1119.153" fill="none" stroke="#000" stroke-miterlimit="15.1" stroke-width="5"/>
        <line x1="722.469" y1="1145.921" x2="729.993" y2="1137.843" fill="none" stroke="#000" stroke-miterlimit="15.1" stroke-width="5"/>
      </g>
    </g>
    <g id="w" data-name="threat_ship">
      <path id="x" data-name="path48" d="M1445.696,1563.636h33.16v-28.076h28.759v28.076h34.721l-29.258,31.718h-67.914v-31.718h.607-.076Z" fill="none" stroke="#000" stroke-miterlimit="15.1" stroke-width="5"/>
      <g>
        <line x1="1486.976" y1="1595.43" x2="1518.916" y2="1563.489" fill="none" stroke="#000" stroke-miterlimit="15.1" stroke-width="5"/>
        <line x1="1479.008" y1="1546.031" x2="1489.48" y2="1535.636" fill="none" stroke="#000" stroke-miterlimit="15.1" stroke-width="5"/>
        <line x1="1445.089" y1="1579.95" x2="1460.569" y2="1564.47" fill="none" stroke="#000" stroke-miterlimit="15.1" stroke-width="5"/>
        <line x1="1457.154" y1="1595.43" x2="1507.618" y2="1544.966" fill="none" stroke="#000" stroke-miterlimit="15.1" stroke-width="5"/>
      </g>
    </g>
    <g>
      <rect x="1861.867" y="1513.63" width="207" height="175.304" fill="none"/>
      <path d="M1896.125,1571.979c0,2.242-.902,4.428-2.473,6.002-1.439,1.436-3.313,2.251-5.33,2.411l7.403,13.614c.863,1.588.273,3.574-1.314,4.438-.494.272-1.032.398-1.557.398-1.162,0-2.286-.62-2.88-1.713l-9.069-16.676h-9.237v15.11c0,1.809-1.466,3.274-3.274,3.274s-3.274-1.466-3.274-3.274v-36.692c0-1.809,1.466-3.274,3.274-3.274h19.252c2.238,0,4.424.902,5.998,2.473,1.604,1.604,2.481,3.738,2.481,6.007v7.902ZM1889.575,1564.072c0-.542-.19-1.002-.56-1.375-.347-.342-.862-.555-1.37-.555h-15.982v11.758h15.982c.538,0,.998-.19,1.37-.563.352-.348.56-.859.56-1.366v-7.898Z"/>
      <path d="M1921.402,1595.564c0,1.809-1.467,3.274-3.275,3.274h-12.23c-1.809,0-3.274-1.466-3.274-3.274s1.466-3.274,3.274-3.274h2.841v-30.144h-2.841c-1.809,0-3.274-1.466-3.274-3.274s1.466-3.274,3.274-3.274h12.23c1.809,0,3.275,1.466,3.275,3.274s-1.467,3.274-3.275,3.274h-2.841v30.144h2.841c1.809,0,3.275,1.466,3.275,3.274Z"/>
      <path d="M1958.917,1558.872v36.692c0,1.444-.946,2.715-2.325,3.136-.316.091-.633.139-.949.139-1.076,0-2.104-.529-2.725-1.457l-18.463-27.692v25.875c0,1.809-1.466,3.274-3.274,3.274s-3.274-1.466-3.274-3.274v-36.692c0-1.444.945-2.715,2.325-3.136,1.37-.416,2.871.117,3.673,1.318l18.463,27.692v-25.875c0-1.809,1.467-3.274,3.275-3.274s3.274,1.466,3.274,3.274Z"/>
      <path d="M1996.291,1577.131l.131,10.365c0,3.084-1.245,6.042-3.418,8.158-2.056,1.995-4.896,3.14-7.794,3.14h-7.894c-2.472,0-4.9-.828-6.831-2.342l-.707-.538c-2.771-2.095-4.367-5.325-4.367-8.852v-19.733c0-3.47,1.64-6.783,4.381-8.856l.729-.556c1.899-1.487,4.324-2.32,6.796-2.32h8.675c2.189,0,4.332.655,6.193,1.896l2.606,1.739c1.505,1.006,1.908,3.036.906,4.541-1.002,1.509-3.031,1.908-4.541.906l-2.603-1.739c-.78-.521-1.665-.794-2.562-.794h-8.675c-1.032,0-1.995.33-2.797.954l-.772.59c-1.128.846-1.791,2.208-1.791,3.64v19.733c0,1.457.646,2.78,1.778,3.635l.75.572c.828.65,1.796.98,2.828.98h7.894c1.21,0,2.385-.473,3.227-1.288.924-.898,1.436-2.112,1.436-3.418l-.091-7.091h-7.481c-1.809,0-3.274-1.466-3.274-3.274s1.466-3.275,3.274-3.275h10.712c1.792,0,3.253,1.44,3.275,3.231l.008-.004Z"/>
      <path d="M1896.128,1617.872v36.692c0,1.444-.946,2.715-2.325,3.136-.316.091-.633.139-.949.139-1.076,0-2.104-.529-2.725-1.457l-18.463-27.692v25.875c0,1.809-1.466,3.274-3.274,3.274s-3.274-1.466-3.274-3.274v-36.692c0-1.444.945-2.715,2.325-3.136,1.37-.416,2.871.117,3.673,1.318l18.463,27.692v-25.875c0-1.809,1.467-3.274,3.275-3.274s3.274,1.466,3.274,3.274Z"/>
      <path d="M1933.628,1622.86v26.76c0,4.558-4.012,8.262-8.951,8.262h-13.103c-4.936,0-8.952-3.704-8.952-8.262v-26.76c0-4.559,4.012-8.263,8.952-8.263h13.103c4.936,0,8.951,3.704,8.951,8.263ZM1927.083,1622.86c0-.933-1.102-1.718-2.406-1.718h-13.103c-1.38,0-2.407.906-2.407,1.718v26.76c0,.915,1.123,1.718,2.407,1.718h13.103c1.379,0,2.406-.907,2.406-1.718v-26.76Z"/>
      <path d="M1971.135,1630.979c0,2.242-.902,4.428-2.473,6.002-1.439,1.436-3.313,2.251-5.33,2.411l7.403,13.614c.863,1.588.273,3.574-1.314,4.438-.494.272-1.032.398-1.557.398-1.162,0-2.286-.62-2.88-1.713l-9.069-16.676h-9.237v15.11c0,1.809-1.466,3.274-3.274,3.274s-3.274-1.466-3.274-3.274v-36.692c0-1.809,1.466-3.274,3.274-3.274h19.252c2.238,0,4.424.902,5.998,2.473,1.604,1.604,2.481,3.738,2.481,6.007v7.902ZM1964.585,1623.072c0-.542-.19-1.002-.56-1.375-.347-.342-.862-.555-1.37-.555h-15.982v11.758h15.982c.538,0,.998-.19,1.37-.563.352-.348.56-.859.56-1.366v-7.898Z"/>
      <path d="M2006.426,1614.753c1.349.438,2.26,1.696,2.26,3.114v36.691c0,1.809-1.466,3.274-3.274,3.274s-3.274-1.466-3.274-3.274v-26.646l-6.354,8.713c-.616.846-1.601,1.345-2.646,1.345s-2.029-.503-2.646-1.349l-6.311-8.684v26.621c0,1.809-1.466,3.274-3.274,3.274s-3.274-1.466-3.274-3.274v-36.691c0-1.418.911-2.672,2.26-3.114,1.349-.438,2.823.043,3.66,1.188l9.585,13.193,9.624-13.193c.833-1.149,2.312-1.627,3.661-1.185l.004-.004Z"/>
    </g>
    <g>
      <circle cx="1333.573" cy="1201.533" r="523.565" fill="none"/>
      <path d="M1553.366,705.741l-13.918,33.942c-.548,1.337-1.905,2.154-3.34,2.02-.327-.036-.639-.112-.932-.231-.995-.409-1.745-1.288-1.967-2.382l-6.575-32.621-9.815,23.937c-.686,1.673-2.599,2.473-4.271,1.787-1.673-.686-2.474-2.599-1.787-4.272l13.917-33.942c.549-1.336,1.905-2.153,3.341-2.02,1.426.135,2.612,1.197,2.898,2.613l6.574,32.621,9.816-23.937c.686-1.672,2.598-2.473,4.27-1.787,1.674.686,2.474,2.599,1.788,4.272Z"/>
      <path d="M1797.419,1410.506c-.703,1.666-2.625,2.446-4.291,1.742-1.665-.704-2.444-2.625-1.741-4.291l9.537-22.573c.705-1.665,2.625-2.444,4.291-1.741l33.8,14.28c1.666.705,2.447,2.625,1.742,4.291l-9.537,22.573c-.704,1.666-2.625,2.445-4.291,1.742-1.666-.705-2.445-2.625-1.742-4.29l8.263-19.558-10.871-4.594-6.474,15.322c-.704,1.666-2.625,2.445-4.289,1.742-1.667-.704-2.447-2.625-1.743-4.291l6.473-15.322-10.866-4.592-8.264,19.557.004.002Z"/>
      <path d="M1114.714,1677.293c-1.092-2.765-1.048-5.784.134-8.515l.792-1.831c1.371-3.167,4.201-5.549,7.576-6.37l1.179-.256c2.282-.525,4.755-.311,6.912.622l6.647,2.876c1.998.864,3.691,2.291,4.896,4.126l1.714,2.637c.986,1.521.55,3.546-.963,4.53-1.522.985-3.544.546-4.53-.963l-1.706-2.623c-.482-.742-1.203-1.348-2.016-1.699l-6.646-2.875c-.884-.382-1.904-.469-2.882-.241l-1.143.249c-1.303.314-2.469,1.294-3.028,2.588l-.792,1.831c-.485,1.122-.498,2.364-.051,3.503.448,1.14,1.312,2.033,2.432,2.517l8.08,3.496c2.727,1.179,4.834,3.353,5.929,6.107,1.09,2.768,1.044,5.791-.135,8.514l-1.066,2.469c-1.18,2.727-3.352,4.83-6.112,5.926-2.76,1.094-5.783,1.048-8.514-.134l-7.483-3.235c-2.026-.877-3.727-2.309-4.913-4.14l-1.699-2.629c-.983-1.518-.544-3.548.972-4.528,1.515-.979,3.54-.562,4.525.976l1.699,2.625c.481.742,1.179,1.327,2.015,1.688l7.483,3.237c1.122.485,2.37.506,3.501.056,1.141-.453,2.037-1.322,2.521-2.44l1.067-2.469c.482-1.117.499-2.368.052-3.506-.445-1.134-1.316-2.025-2.438-2.511l-8.08-3.495c-2.723-1.178-4.827-3.35-5.924-6.11l-.004-.002Z"/>
      <path d="M837.212,983.149l28.321,11.519c.804.327,1.445.958,1.78,1.759l3.361,7.964c.708,1.665-.072,3.575-1.729,4.287l-4.938,2.102,2.069,4.952c.346.829.324,1.723.01,2.495-.315.775-.93,1.434-1.76,1.784l-7.969,3.36c-.798.34-1.702.342-2.507.015l-28.32-11.519c-1.675-.682-2.48-2.591-1.799-4.266.681-1.675,2.591-2.481,4.267-1.8l27.062,11.008,3.713-1.566-1.54-3.684-7.251-2.95c-1.675-.681-2.48-2.591-1.799-4.266s2.591-2.481,4.266-1.799l7.251,2.949,3.675-1.563-1.567-3.709-27.064-11.007c-1.675-.681-2.48-2.591-1.799-4.266.681-1.675,2.592-2.481,4.267-1.799Z"/>
    </g>
    <g>
      <rect x="1242.209" y="538.668" width="184.174" height="55.304" fill="none"/>
      <path d="M1309.121,570.357c2.013,2.012,3.123,4.684,3.123,7.516v3.079c0,3.938-1.874,7.677-5.01,10.006-2.121,1.605-4.71,2.463-7.46,2.463h-2.732c-2.484,0-9.871-1.379-12.481-2.689l-1.492-.703c-1.635-.772-2.333-2.724-1.562-4.359.772-1.639,2.72-2.329,4.358-1.561l1.562.737c1.449.724,7.698,2.03,9.62,2.03h2.732c1.31,0,2.528-.403,3.53-1.158,1.522-1.136,2.386-2.867,2.386-4.767v-3.079c0-1.084-.43-2.108-1.21-2.889l-.525-.525c-.624-.629-1.487-.989-2.363-.989h-6.463c-1.262,0-2.415-.729-2.958-1.874-.542-1.145-.377-2.494.426-3.474l9.42-11.528h-13.003c-1.809,0-3.274-1.466-3.274-3.274s1.466-3.275,3.274-3.275h19.907c1.263,0,2.416.729,2.958,1.874.542,1.141.378,2.494-.425,3.474l-9.429,11.537c2.45.108,4.822,1.153,6.566,2.897l.524.525v.004Z"/>
      <path d="M1346.69,570.357c2.013,2.012,3.123,4.684,3.123,7.516v3.079c0,3.938-1.874,7.677-5.01,10.006-2.12,1.605-4.71,2.463-7.46,2.463h-2.732c-2.484,0-9.871-1.379-12.481-2.689l-1.492-.703c-1.635-.772-2.333-2.724-1.562-4.359.772-1.639,2.72-2.329,4.358-1.561l1.562.737c1.449.724,7.698,2.03,9.62,2.03h2.732c1.31,0,2.528-.403,3.53-1.158,1.522-1.136,2.386-2.867,2.386-4.767v-3.079c0-1.084-.43-2.108-1.21-2.889l-.525-.525c-.624-.629-1.487-.989-2.363-.989h-6.463c-1.262,0-2.415-.729-2.958-1.874-.542-1.145-.377-2.494.426-3.474l9.42-11.528h-13.003c-1.809,0-3.274-1.466-3.274-3.274s1.466-3.275,3.274-3.275h19.907c1.263,0,2.416.729,2.958,1.874.542,1.141.378,2.494-.425,3.474l-9.429,11.537c2.45.108,4.822,1.153,6.566,2.897l.524.525v.004Z"/>
      <path d="M1386.996,551.777c.568,1.067.508,2.359-.16,3.361l-24.505,36.783c-.634.945-1.67,1.457-2.729,1.457-.624,0-1.258-.178-1.812-.551-1.505-1.001-1.913-3.031-.911-4.541l21.113-31.691h-15.31c-1.809,0-3.274-1.466-3.274-3.274s1.466-3.275,3.274-3.275h21.425c1.21,0,2.32.664,2.889,1.727v.004Z"/>
    </g>
    <g>
      <rect x="1721.084" y="940.118" width="47" height="55.846" fill="none"/>
      <path d="M1739.579,967.082c9.455,0,15.809,5.621,15.809,13.987,0,8.24-6.501,13.991-15.809,13.991s-15.245-5.49-15.245-13.991c0-.199.048-.373.052-.568-.008-.091-.052-.165-.052-.256,0-4.502,4.021-13.671,7.906-19.941,2.603-4.207,4.333-5.934,5.855-7.456,1.279-1.279,3.413-1.34,4.692-.061,1.28,1.279,1.341,3.296.062,4.571l-.122.121c-1.396,1.393-2.711,2.711-4.918,6.271-.768,1.232-1.462,2.481-2.116,3.722,1.227-.234,2.507-.395,3.886-.395v.004ZM1748.839,981.065c0-6.714-6.476-7.438-9.26-7.438-3.969,0-8.696,1.292-8.696,7.438,0,4.801,3.088,7.442,8.696,7.442,5.712,0,9.26-2.85,9.26-7.442Z"/>
    </g>
    <g>
      <rect x="893.854" y="1590.834" width="78.625" height="58.947" fill="none"/>
      <path d="M924.883,1604.118c1.809,0,3.274,1.466,3.274,3.274s-1.466,3.274-3.274,3.274h-21.23v11.801h16.633c1.809,0,3.274,1.467,3.274,3.274s-1.466,3.275-3.274,3.275h-16.633v15.071c0,1.809-1.466,3.274-3.274,3.274s-3.274-1.466-3.274-3.274v-36.692c0-1.809,1.466-3.274,3.274-3.274h24.505v-.004Z"/>
      <path d="M962.452,1604.118c1.809,0,3.274,1.466,3.274,3.274s-1.466,3.274-3.274,3.274h-21.23v11.801h16.633c1.809,0,3.274,1.467,3.274,3.274s-1.466,3.275-3.274,3.275h-16.633v15.071c0,1.809-1.466,3.274-3.274,3.274s-3.274-1.466-3.274-3.274v-36.692c0-1.809,1.466-3.274,3.274-3.274h24.505v-.004Z"/>
    </g>
    <g>
      <rect x="934.328" y="717.015" width="78.625" height="58.947" fill="none"/>
      <path d="M965.356,730.299c1.809,0,3.274,1.466,3.274,3.274s-1.466,3.274-3.274,3.274h-21.23v11.801h16.633c1.809,0,3.274,1.467,3.274,3.274s-1.466,3.275-3.274,3.275h-16.633v15.071c0,1.809-1.466,3.274-3.274,3.274s-3.274-1.466-3.274-3.274v-36.692c0-1.809,1.466-3.274,3.274-3.274h24.505v-.004Z"/>
      <path d="M1002.926,730.299c1.809,0,3.274,1.466,3.274,3.274s-1.466,3.274-3.274,3.274h-21.23v11.801h16.633c1.809,0,3.274,1.467,3.274,3.274s-1.466,3.275-3.274,3.275h-16.633v15.071c0,1.809-1.466,3.274-3.274,3.274s-3.274-1.466-3.274-3.274v-36.692c0-1.809,1.466-3.274,3.274-3.274h24.505v-.004Z"/>
    </g>
    <g>
      <rect x="1197.676" y="800.102" width="78.625" height="58.947" fill="none"/>
      <path d="M1228.705,850.072c1.809,0,3.274,1.466,3.274,3.274s-1.466,3.274-3.274,3.274h-24.504c-.451,0-.885-.096-1.275-.261-.026-.008-.044-.034-.069-.047-.378-.17-.716-.403-.998-.694-.013-.013-.03-.018-.043-.03-.117-.121-.165-.277-.256-.412-.144-.204-.3-.395-.391-.629-.091-.238-.112-.485-.147-.737-.025-.16-.096-.299-.096-.464,0-.018.009-.035.009-.052.005-.27.087-.525.156-.785.044-.152.048-.321.108-.465.057-.134.169-.242.247-.368.144-.238.282-.481.481-.677.014-.013.03-.043.03-.043l18.65-17.479c2.818-2.65,4.358-5.521,4.224-7.877-.091-1.647-1.002-3.092-2.771-4.41-1.192-.881-2.893-1.349-4.896-1.349-3.864,0-6.887.659-9.099,3.873-1.023,1.496-3.058,1.869-4.555.846-1.487-1.024-1.864-3.062-.841-4.555,4.614-6.709,11.792-6.709,14.494-6.709,3.414,0,6.454.91,8.796,2.633,4.216,3.144,5.27,6.792,5.413,9.303.247,4.354-1.982,8.978-6.285,13.024l-12.612,11.823h16.226l.004-.009Z"/>
      <path d="M1264.08,852.595c-3.848,3.843-13.371,4.038-15.241,4.038-1.809,0-3.274-1.466-3.274-3.27s1.462-3.279,3.271-3.279c4.021-.004,9.368-.876,10.613-2.121,1.604-1.604,2.58-4.905,3.136-8.57-2.355,1.202-5.209,1.887-8.54,1.887-9.59,0-15.549-5.36-15.549-13.986,0-6.767,4.086-13.992,15.549-13.992,11.177,0,15.306,6.866,15.505,13.479.018.104.069.195.078.3.126,1.917,1.036,18.927-5.547,25.515ZM1263.039,827.289c0-4.939-3.032-7.442-9-7.442-6.055,0-8.999,2.438-8.999,7.442,0,4.936,3.027,7.438,8.999,7.438s9-2.498,9-7.438Z"/>
    </g>
    <g>
      <rect x="1360.07" y="752.354" width="78.625" height="58.947" fill="none"/>
      <path d="M1391.099,802.323c1.809,0,3.274,1.466,3.274,3.274s-1.466,3.274-3.274,3.274h-24.504c-.451,0-.885-.096-1.275-.261-.026-.008-.044-.034-.069-.047-.378-.17-.716-.403-.998-.694-.013-.013-.03-.018-.043-.03-.117-.121-.165-.277-.256-.412-.144-.204-.3-.395-.391-.629-.091-.238-.112-.485-.147-.737-.025-.16-.096-.299-.096-.464,0-.018.009-.035.009-.052.005-.27.087-.525.156-.785.044-.152.048-.321.108-.465.057-.134.169-.242.247-.368.144-.238.282-.481.481-.677.014-.013.03-.043.03-.043l18.65-17.479c2.818-2.65,4.358-5.521,4.224-7.877-.091-1.647-1.002-3.092-2.771-4.41-1.192-.881-2.893-1.349-4.896-1.349-3.864,0-6.887.659-9.099,3.873-1.023,1.496-3.058,1.869-4.555.846-1.487-1.024-1.864-3.062-.841-4.555,4.614-6.709,11.792-6.709,14.494-6.709,3.414,0,6.454.91,8.796,2.633,4.216,3.144,5.27,6.792,5.413,9.303.247,4.354-1.982,8.978-6.285,13.024l-12.612,11.823h16.226l.004-.009Z"/>
      <path d="M1426.474,804.846c-3.848,3.843-13.371,4.038-15.241,4.038-1.809,0-3.274-1.466-3.274-3.27s1.462-3.279,3.271-3.279c4.021-.004,9.368-.876,10.613-2.121,1.604-1.604,2.58-4.905,3.136-8.57-2.355,1.202-5.209,1.887-8.54,1.887-9.59,0-15.549-5.36-15.549-13.986,0-6.767,4.086-13.992,15.549-13.992,11.177,0,15.306,6.866,15.505,13.479.018.104.069.195.078.3.126,1.917,1.036,18.927-5.547,25.515ZM1425.433,779.539c0-4.939-3.032-7.442-9-7.442-6.055,0-8.999,2.438-8.999,7.442,0,4.936,3.027,7.438,8.999,7.438s9-2.498,9-7.438Z"/>
    </g>
    <g>
      <rect x="754.758" y="1062.792" width="47" height="55.846" fill="none"/>
      <path d="M785.938,1094.751c2.012,2.013,3.123,4.685,3.123,7.517v3.079c0,3.938-1.875,7.677-5.01,10.006-2.121,1.604-4.711,2.464-7.461,2.464h-2.732c-2.484,0-9.871-1.38-12.48-2.689l-1.492-.702c-1.635-.772-2.334-2.724-1.562-4.359.773-1.64,2.721-2.329,4.359-1.562l1.561.737c1.449.725,7.699,2.03,9.621,2.03h2.732c1.309,0,2.527-.403,3.529-1.158,1.523-1.137,2.387-2.867,2.387-4.767v-3.079c0-1.084-.43-2.107-1.211-2.889l-.525-.524c-.623-.629-1.486-.989-2.363-.989h-6.463c-1.262,0-2.414-.729-2.957-1.873-.543-1.146-.377-2.494.426-3.475l9.42-11.528h-13.004c-1.809,0-3.273-1.466-3.273-3.274s1.465-3.274,3.273-3.274h19.908c1.262,0,2.416.729,2.957,1.874.543,1.141.379,2.494-.424,3.474l-9.43,11.537c2.451.108,4.822,1.153,6.566,2.897l.525.524v.004Z"/>
    </g>
    <g>
      <rect x="1549.424" y="1534.205" width="78.625" height="58.947" fill="none"/>
      <path d="M1582.867,1585.24c1.223,1.331,1.136,3.404-.2,4.628-.629.576-1.418.858-2.212.858-.885,0-1.765-.355-2.411-1.059l-15.856-17.283h-2.962v15.071c0,1.809-1.467,3.274-3.275,3.274s-3.274-1.466-3.274-3.274v-36.691c0-1.809,1.466-3.274,3.274-3.274s3.275,1.466,3.275,3.274v15.075h2.957l15.856-17.287c1.224-1.341,3.292-1.423,4.628-.2,1.332,1.224,1.423,3.297.2,4.628l-14.799,16.134,14.799,16.13v-.004Z"/>
      <path d="M1619.008,1547.663c1.722.573,2.646,2.425,2.073,4.143l-12.227,36.688c-.446,1.34-1.695,2.242-3.105,2.242s-2.658-.902-3.105-2.238l-12.23-36.691c-.568-1.714.352-3.569,2.069-4.143,1.726-.567,3.569.356,4.142,2.073l9.125,27.372,9.125-27.372c.568-1.717,2.421-2.641,4.138-2.073h-.004Z"/>
    </g>
    <g>
      <rect x="1015.556" y="1396.646" width="78.625" height="58.947" fill="none"/>
      <path d="M1046.584,1446.615c1.809,0,3.274,1.466,3.274,3.274s-1.466,3.274-3.274,3.274h-24.504c-.451,0-.885-.096-1.275-.261-.026-.008-.044-.034-.069-.047-.378-.17-.716-.403-.998-.694-.013-.013-.03-.018-.043-.03-.117-.121-.165-.277-.256-.412-.144-.204-.3-.395-.391-.629-.091-.238-.112-.485-.147-.737-.025-.16-.096-.299-.096-.464,0-.018.009-.035.009-.052.005-.27.087-.525.156-.785.044-.152.048-.321.108-.465.057-.134.169-.242.247-.368.144-.238.282-.481.481-.677.014-.013.03-.043.03-.043l18.65-17.479c2.818-2.65,4.358-5.521,4.224-7.877-.091-1.647-1.002-3.092-2.771-4.41-1.192-.881-2.893-1.349-4.896-1.349-3.864,0-6.887.659-9.099,3.873-1.023,1.496-3.058,1.869-4.555.846-1.487-1.024-1.864-3.062-.841-4.555,4.614-6.709,11.792-6.709,14.494-6.709,3.414,0,6.454.91,8.796,2.633,4.216,3.144,5.27,6.792,5.413,9.303.247,4.354-1.982,8.978-6.285,13.024l-12.612,11.823h16.226l.004-.009Z"/>
      <path d="M1084.153,1446.615c1.809,0,3.274,1.466,3.274,3.274s-1.466,3.274-3.274,3.274h-24.504c-.451,0-.885-.096-1.275-.261-.026-.008-.044-.034-.069-.047-.378-.17-.716-.403-.998-.694-.013-.013-.03-.018-.043-.03-.117-.121-.165-.277-.256-.412-.144-.204-.3-.395-.391-.629-.091-.238-.112-.485-.147-.737-.025-.16-.096-.299-.096-.464,0-.018.009-.035.009-.052.005-.27.087-.525.156-.785.044-.152.048-.321.108-.465.057-.134.169-.242.247-.368.144-.238.282-.481.481-.677.014-.013.03-.043.03-.043l18.65-17.479c2.818-2.65,4.358-5.521,4.224-7.877-.091-1.647-1.002-3.092-2.771-4.41-1.192-.881-2.893-1.349-4.896-1.349-3.864,0-6.887.659-9.099,3.873-1.023,1.496-3.058,1.869-4.555.846-1.487-1.024-1.864-3.062-.841-4.555,4.614-6.709,11.792-6.709,14.494-6.709,3.414,0,6.454.91,8.796,2.633,4.216,3.144,5.27,6.792,5.413,9.303.247,4.354-1.982,8.978-6.285,13.024l-12.612,11.823h16.226l.004-.009Z"/>
    </g>
    <g>
      <rect x="1014.673" y="960.91" width="78.625" height="58.947" fill="none"/>
      <path d="M1045.701,1010.88c1.809,0,3.274,1.466,3.274,3.274s-1.466,3.274-3.274,3.274h-24.504c-.451,0-.885-.096-1.275-.261-.026-.008-.044-.034-.069-.047-.378-.17-.716-.403-.998-.694-.013-.013-.03-.018-.043-.03-.117-.121-.165-.277-.256-.412-.144-.204-.3-.395-.391-.629-.091-.238-.112-.485-.147-.737-.025-.16-.096-.299-.096-.464,0-.018.009-.035.009-.052.005-.27.087-.525.156-.785.044-.152.048-.321.108-.465.057-.134.169-.242.247-.368.144-.238.282-.481.481-.677.014-.013.03-.043.03-.043l18.65-17.479c2.818-2.65,4.358-5.521,4.224-7.877-.091-1.647-1.002-3.092-2.771-4.41-1.192-.881-2.893-1.349-4.896-1.349-3.864,0-6.887.659-9.099,3.873-1.023,1.496-3.058,1.869-4.555.846-1.487-1.024-1.864-3.062-.841-4.555,4.614-6.709,11.792-6.709,14.494-6.709,3.414,0,6.454.91,8.796,2.633,4.216,3.144,5.27,6.792,5.413,9.303.247,4.354-1.982,8.978-6.285,13.024l-12.612,11.823h16.226l.004-.009Z"/>
      <path d="M1083.27,1010.88c1.809,0,3.274,1.466,3.274,3.274s-1.466,3.274-3.274,3.274h-24.504c-.451,0-.885-.096-1.275-.261-.026-.008-.044-.034-.069-.047-.378-.17-.716-.403-.998-.694-.013-.013-.03-.018-.043-.03-.117-.121-.165-.277-.256-.412-.144-.204-.3-.395-.391-.629-.091-.238-.112-.485-.147-.737-.025-.16-.096-.299-.096-.464,0-.018.009-.035.009-.052.005-.27.087-.525.156-.785.044-.152.048-.321.108-.465.057-.134.169-.242.247-.368.144-.238.282-.481.481-.677.014-.013.03-.043.03-.043l18.65-17.479c2.818-2.65,4.358-5.521,4.224-7.877-.091-1.647-1.002-3.092-2.771-4.41-1.192-.881-2.893-1.349-4.896-1.349-3.864,0-6.887.659-9.099,3.873-1.023,1.496-3.058,1.869-4.555.846-1.487-1.024-1.864-3.062-.841-4.555,4.614-6.709,11.792-6.709,14.494-6.709,3.414,0,6.454.91,8.796,2.633,4.216,3.144,5.27,6.792,5.413,9.303.247,4.354-1.982,8.978-6.285,13.024l-12.612,11.823h16.226l.004-.009Z"/>
    </g>
    <rect x="2200.736" y="951.913" width="78.261" height="241.043" fill="none" stroke="#000" stroke-miterlimit="10" stroke-width="7"/>
    <g>
      <rect x="2216.379" y="595.239" width="48.957" height="238.304" fill="none"/>
      <path d="M2254.116,609.863c1.349.438,2.26,1.696,2.26,3.114v36.691c0,1.809-1.466,3.274-3.274,3.274s-3.274-1.466-3.274-3.274v-26.646l-6.354,8.713c-.616.846-1.601,1.345-2.646,1.345s-2.029-.503-2.646-1.349l-6.311-8.684v26.621c0,1.809-1.466,3.274-3.274,3.274s-3.274-1.466-3.274-3.274v-36.691c0-1.418.911-2.672,2.26-3.114,1.349-.438,2.823.043,3.66,1.188l9.585,13.193,9.624-13.193c.833-1.149,2.312-1.627,3.661-1.185l.004-.004Z"/>
      <path d="M2253.102,705.394c1.809,0,3.274,1.466,3.274,3.274s-1.466,3.274-3.274,3.274h-24.505c-1.809,0-3.274-1.466-3.274-3.274v-36.691c0-1.809,1.466-3.274,3.274-3.274h24.505c1.809,0,3.274,1.466,3.274,3.274s-1.466,3.274-3.274,3.274h-21.23v11.801h16.633c1.809,0,3.274,1.467,3.274,3.274s-1.466,3.275-3.274,3.275h-16.633v11.797h21.23v-.005Z"/>
      <path d="M2256.365,730.981v36.692c0,1.444-.945,2.715-2.325,3.136-.316.091-.633.139-.949.139-1.076,0-2.104-.529-2.724-1.457l-18.464-27.692v25.875c0,1.809-1.466,3.274-3.274,3.274s-3.274-1.466-3.274-3.274v-36.692c0-1.444.945-2.715,2.325-3.136,1.37-.416,2.871.117,3.673,1.318l18.463,27.692v-25.875c0-1.809,1.467-3.274,3.275-3.274s3.274,1.466,3.274,3.274Z"/>
      <path d="M2253.095,786.706c1.809,0,3.274,1.466,3.274,3.274v31.748c0,4.558-4.016,8.262-8.956,8.262h-13.098c-4.936,0-8.956-3.704-8.956-8.262v-31.748c0-1.809,1.466-3.274,3.274-3.274s3.274,1.466,3.274,3.274v31.748c0,.915,1.127,1.718,2.411,1.718h13.098c1.384,0,2.412-.907,2.412-1.718v-31.748c0-1.809,1.466-3.274,3.274-3.274h-.009Z"/>
    </g>
    <g>
      <rect x="2216.379" y="952.612" width="48.957" height="238.304" fill="none"/>
      <path d="M2253.102,1033.267c1.809,0,3.274,1.466,3.274,3.274s-1.466,3.274-3.274,3.274h-24.505c-1.809,0-3.274-1.466-3.274-3.274v-36.692c0-1.809,1.466-3.274,3.274-3.274h24.505c1.809,0,3.274,1.466,3.274,3.274s-1.466,3.274-3.274,3.274h-21.23v11.801h16.633c1.809,0,3.274,1.467,3.274,3.274s-1.466,3.275-3.274,3.275h-16.633v11.797h21.23v-.005Z"/>
      <path d="M2251.327,1089.799c1.527-.967,3.548-.529,4.523.998.977,1.526.529,3.548-.997,4.523l-2.516,1.604c-2.073,1.279-4.363,1.943-6.662,1.943h-8.023c-2.732,0-5.404-.906-7.521-2.56-2.979-2.276-4.775-5.924-4.775-9.736v-18.654c0-3.812,1.792-7.46,4.797-9.754,2.095-1.631,4.767-2.537,7.499-2.537h8.023c2.395,0,4.706.677,6.684,1.956l2.498,1.592c1.522.976,1.97,2.997.998,4.523-.976,1.518-2.997,1.969-4.523.998l-2.516-1.605c-.933-.606-2.013-.919-3.141-.919h-8.023c-1.279,0-2.524.416-3.495,1.175-1.419,1.085-2.251,2.789-2.251,4.571v18.654c0,1.782.832,3.487,2.229,4.554.998.772,2.242,1.193,3.522,1.193h8.023c1.084,0,2.182-.326,3.179-.946l2.477-1.578-.009.004Z"/>
      <path d="M2254.116,1114.736c1.349.438,2.26,1.696,2.26,3.114v36.691c0,1.809-1.466,3.274-3.274,3.274s-3.274-1.466-3.274-3.274v-26.646l-6.354,8.713c-.616.846-1.601,1.345-2.646,1.345s-2.029-.503-2.646-1.349l-6.311-8.684v26.621c0,1.809-1.466,3.274-3.274,3.274s-3.274-1.466-3.274-3.274v-36.691c0-1.418.911-2.672,2.26-3.114,1.349-.438,2.823.043,3.66,1.188l9.585,13.193,9.624-13.193c.833-1.149,2.312-1.627,3.661-1.185l.004-.004Z"/>
    </g>
    <g>
      <rect x="2216.379" y="1309.985" width="48.957" height="238.304" fill="none"/>
      <path d="M2256.365,1357.226v36.692c0,1.444-.945,2.715-2.325,3.136-.316.091-.633.139-.949.139-1.076,0-2.104-.529-2.724-1.457l-18.464-27.692v25.875c0,1.809-1.466,3.274-3.274,3.274s-3.274-1.466-3.274-3.274v-36.692c0-1.444.945-2.715,2.325-3.136,1.37-.416,2.871.117,3.673,1.318l18.463,27.692v-25.875c0-1.809,1.467-3.274,3.275-3.274s3.274,1.466,3.274,3.274Z"/>
      <path d="M2254.427,1423.304c1.279,1.553,1.995,3.526,1.995,5.543v24.071c0,1.809-1.466,3.274-3.274,3.274s-3.274-1.466-3.274-3.274v-15.071h-17.999v15.071c0,1.809-1.467,3.274-3.275,3.274s-3.274-1.466-3.274-3.274v-24.071c0-1.978.682-3.877,1.965-5.504l5.5-6.718c3.916-4.688,12.291-4.662,16.155-.021l5.486,6.7h-.004ZM2231.882,1431.293h18.004v-2.45c0-.503-.178-.98-.508-1.38l-5.478-6.691c-1.314-1.575-4.701-1.601-6.055.025l-5.443,6.657c-.464.577-.521,1.076-.521,1.393v2.446Z"/>
      <path d="M2254.119,1472.121c1.722.573,2.646,2.425,2.073,4.143l-12.227,36.688c-.446,1.34-1.695,2.242-3.105,2.242s-2.658-.902-3.105-2.238l-12.23-36.691c-.568-1.714.352-3.569,2.069-4.143,1.726-.567,3.569.356,4.142,2.073l9.125,27.372,9.125-27.372c.568-1.717,2.421-2.641,4.138-2.073h-.004Z"/>
    </g>
    <g>
      <rect x="2216.379" y="1667.358" width="48.957" height="238.304" fill="none"/>
      <path d="M2253.093,1711.325c1.809,0,3.274,1.466,3.274,3.274s-1.466,3.274-3.274,3.274h-8.956v33.418c0,1.809-1.466,3.274-3.274,3.274s-3.274-1.466-3.274-3.274v-33.418h-8.957c-1.809,0-3.274-1.466-3.274-3.274s1.466-3.274,3.274-3.274h24.462Z"/>
      <path d="M2250.244,1810.291c0,1.809-1.467,3.274-3.275,3.274h-12.23c-1.809,0-3.274-1.466-3.274-3.274s1.466-3.274,3.274-3.274h2.841v-30.144h-2.841c-1.809,0-3.274-1.466-3.274-3.274s1.466-3.274,3.274-3.274h12.23c1.809,0,3.275,1.466,3.275,3.274s-1.467,3.274-3.275,3.274h-2.841v30.144h2.841c1.809,0,3.275,1.466,3.275,3.274Z"/>
      <path d="M2253.075,1834.997c2.117,2.606,3.301,5.955,3.301,9.398v13.138c0,3.435-1.145,6.688-3.313,9.411-2.932,3.608-7.213,5.664-11.758,5.664h-12.708c-1.809,0-3.274-1.466-3.274-3.274v-36.691c0-1.809,1.466-3.318,3.274-3.318h12.708c4.58,0,8.982,2.121,11.771,5.678v-.005ZM2249.827,1844.401c0-1.943-.664-3.83-1.869-5.313-1.592-2.029-4.064-3.214-6.653-3.214h-9.434v30.191h9.434c2.528,0,5.018-1.202,6.653-3.219,1.214-1.526,1.869-3.374,1.869-5.309v-13.137Z"/>
    </g>
  </g>
</svg>