<?xml version="1.0" encoding="UTF-8"?>
<svg xmlns="http://www.w3.org/2000/svg" width="1763.564" height="2045.511" viewBox="0 0 1763.564 2045.511">
  <g id="b" data-name="HSD_-_Light">
    <path d="M812.694,35.772l-118.957,4.342-118.956,7.236-192.957,18.266c-24.227,2.293-48.382,5.198-72.437,8.712l-54.714,7.991c-56.35,8.23-95.718,40.523-110.854,100.517l-11.733,57.706-10.435,60.056-29.739,188.851-21.13,193.192-11.739,183.786-2.112,139.904-.236-.256.12,7.959-.12,7.959.236-.256,2.112,139.904,11.739,183.786,21.13,193.192,29.739,188.851,10.435,60.056,11.733,57.706c15.136,59.994,54.504,92.287,110.854,100.517l54.714,7.991c24.055,3.513,48.21,6.418,72.437,8.712l192.957,18.266,118.956,7.236,118.957,4.341h65.739l10.174-.342,10.174.342h65.739l118.957-4.341,118.956-7.236,192.957-18.266c24.227-2.293,48.382-5.198,72.437-8.712l54.714-7.991c56.35-8.23,95.718-40.523,110.854-100.517l11.733-57.706,10.435-60.056,29.739-188.851,21.13-193.192,11.739-183.786,2.111-139.904.236.256-.12-7.959.12-7.959-.236.256-2.111-139.904-11.739-183.786-21.13-193.192-29.739-188.851-10.435-60.056-11.733-57.706c-15.136-59.994-54.504-92.287-110.854-100.517l-54.714-7.991c-24.055-3.513-48.21-6.418-72.437-8.712l-192.957-18.266-118.956-7.236-118.957-4.342h-65.739l-10.174.342-10.174-.342h-65.739Z" fill="none" stroke="#000" stroke-miterlimit="10" stroke-width="9"/>
  </g>
  <g id="c" data-name="NAV_TACAN_Steering_-_Light">
    <path d="M1165.735,513.351l-13.607,34.076c-.536,1.34-1.886,2.17-3.323,2.049-.327-.032-.639-.105-.933-.223-1-.398-1.758-1.271-1.989-2.363l-6.877-32.565-9.596,24.03c-.671,1.679-2.576,2.497-4.256,1.826s-2.497-2.576-1.826-4.255l13.607-34.076c.536-1.341,1.885-2.171,3.322-2.05,1.427.121,2.624,1.174,2.922,2.587l6.877,32.565,9.596-24.031c.671-1.68,2.577-2.496,4.257-1.826,1.68.672,2.497,2.576,1.826,4.256Z"/>
    <path d="M1428.427,1280.367c-.673,1.68-2.58,2.494-4.258,1.82-1.679-.674-2.494-2.58-1.82-4.258l9.123-22.744c.674-1.678,2.58-2.492,4.259-1.819l34.054,13.661c1.68.674,2.494,2.58,1.82,4.258l-9.123,22.744c-.674,1.678-2.58,2.492-4.259,1.819-1.679-.674-2.493-2.579-1.819-4.259l7.904-19.703-10.953-4.395-6.193,15.438c-.673,1.678-2.578,2.493-4.258,1.82-1.678-.674-2.493-2.58-1.82-4.258l6.193-15.438-10.949-4.393-7.904,19.704h.004Z"/>
    <path d="M701.753,1573.146c-1.124-2.751-1.116-5.771.033-8.516l.771-1.84c1.334-3.185,4.136-5.599,7.502-6.461l1.176-.27c2.275-.551,4.751-.366,6.919.541l6.682,2.798c2.009.841,3.718,2.248,4.945,4.069l1.744,2.615c1.004,1.512.593,3.539-.91,4.542-1.511,1.003-3.536.588-4.54-.909l-1.737-2.604c-.491-.736-1.219-1.332-2.035-1.674l-6.681-2.798c-.889-.372-1.911-.446-2.887-.206l-1.139.26c-1.3.331-2.453,1.325-2.998,2.625l-.771,1.84c-.472,1.129-.47,2.371-.009,3.504.462,1.134,1.337,2.018,2.461,2.488l8.121,3.4c2.74,1.146,4.874,3.296,6.002,6.039,1.121,2.754,1.111,5.778-.035,8.514l-1.038,2.481c-1.147,2.74-3.295,4.869-6.042,5.999-2.748,1.126-5.771,1.115-8.517-.033l-7.521-3.149c-2.037-.853-3.754-2.263-4.963-4.081l-1.729-2.609c-1.001-1.506-.586-3.541.918-4.539,1.504-.997,3.534-.604,4.537.922l1.729,2.605c.49.736,1.195,1.312,2.036,1.664l7.521,3.149c1.129.473,2.376.478,3.502.014,1.136-.465,2.021-1.345,2.491-2.469l1.038-2.481c.471-1.123.473-2.373.012-3.508-.459-1.127-1.34-2.008-2.469-2.48l-8.121-3.4c-2.736-1.146-4.865-3.293-5.995-6.041l-.004-.002Z"/>
    <path d="M374.722,824.605l28.379,11.385c.806.323,1.451.95,1.789,1.75l3.4,7.948c.717,1.661-.057,3.576-1.709,4.296l-4.928,2.127,2.092,4.941c.351.827.333,1.723.023,2.495-.312.777-.924,1.438-1.752,1.793l-7.953,3.398c-.797.344-1.701.351-2.506.027l-28.379-11.384c-1.679-.674-2.494-2.58-1.82-4.259s2.58-2.493,4.258-1.819l27.119,10.879,3.705-1.584-1.558-3.676-7.266-2.915c-1.679-.673-2.493-2.58-1.819-4.258.673-1.679,2.579-2.493,4.258-1.82l7.266,2.915,3.667-1.582-1.585-3.701-27.119-10.879c-1.678-.673-2.494-2.579-1.82-4.258s2.58-2.493,4.258-1.82Z"/>
    <g>
      <path d="M834.592,483.534c2.135,1.882,3.41,4.479,3.588,7.306l.192,3.073c.247,3.931-1.39,7.78-4.373,10.3-2.016,1.735-4.547,2.753-7.291,2.926l-2.728.171c-2.479.156-9.938-.757-12.625-1.901l-1.533-.608c-1.68-.668-2.499-2.572-1.832-4.252.669-1.685,2.569-2.495,4.253-1.831l1.604.638c1.492.632,7.81,1.543,9.728,1.423l2.728-.171c1.307-.082,2.498-.561,3.451-1.377,1.448-1.229,2.201-3.01,2.082-4.907l-.192-3.073c-.068-1.083-.561-2.077-1.39-2.808l-.557-.49c-.661-.588-1.547-.894-2.421-.839l-6.45.405c-1.259.079-2.455-.576-3.069-1.685-.612-1.108-.532-2.465.207-3.494l8.68-12.095-12.978.814c-1.805.113-3.359-1.258-3.473-3.063-.113-1.805,1.258-3.36,3.062-3.473l19.868-1.247c1.261-.079,2.458.576,3.069,1.685.612,1.104.534,2.465-.206,3.494l-8.688,12.105c2.452-.045,4.886.849,6.735,2.48l.556.491v.004Z"/>
      <path d="M872.089,481.18c2.135,1.882,3.409,4.479,3.587,7.306l.192,3.073c.247,3.931-1.389,7.78-4.373,10.3-2.016,1.735-4.546,2.753-7.291,2.926l-2.727.171c-2.479.155-9.938-.758-12.625-1.902l-1.533-.608c-1.681-.668-2.499-2.572-1.832-4.252.668-1.685,2.569-2.495,4.252-1.832l1.604.638c1.492.632,7.811,1.543,9.729,1.423l2.727-.171c1.308-.082,2.498-.562,3.451-1.377,1.448-1.229,2.201-3.01,2.082-4.907l-.192-3.073c-.068-1.082-.561-2.077-1.389-2.807l-.557-.491c-.663-.588-1.547-.894-2.421-.839l-6.45.405c-1.26.079-2.455-.576-3.069-1.685-.612-1.109-.533-2.465.207-3.494l8.68-12.095-12.978.814c-1.805.113-3.359-1.258-3.473-3.063-.113-1.805,1.258-3.36,3.062-3.473l19.868-1.247c1.26-.079,2.457.576,3.069,1.685.612,1.104.533,2.465-.206,3.493l-8.688,12.105c2.452-.046,4.885.849,6.735,2.479l.556.491v.004Z"/>
    </g>
    <g>
      <path d="M555.378,610.173c2.843.133,5.463,1.361,7.37,3.455l2.072,2.277c2.652,2.912,3.783,6.938,3.033,10.771-.486,2.614-1.824,4.992-3.857,6.844l-2.02,1.84c-1.838,1.673-8.228,5.626-11.039,6.416l-1.576.485c-1.729.53-3.56-.443-4.09-2.172-.533-1.732.443-3.553,2.172-4.089l1.65-.506c1.559-.44,7.059-3.683,8.479-4.977l2.021-1.839c.969-.882,1.598-2,1.83-3.233.361-1.865-.166-3.726-1.445-5.131l-2.072-2.277c-.73-.802-1.737-1.269-2.84-1.321l-.742-.035c-.885-.044-1.766.271-2.412.86l-4.779,4.351c-.933.85-2.276,1.087-3.448.606-1.172-.482-1.958-1.59-2.024-2.855l-.797-14.866-9.613,8.754c-1.338,1.218-3.408,1.121-4.626-.216s-1.122-3.408.216-4.626l14.719-13.403c.934-.85,2.277-1.088,3.449-.606,1.169.479,1.958,1.589,2.025,2.854l.795,14.878c1.885-1.57,4.342-2.394,6.807-2.279l.74.035.003.003Z"/>
      <path d="M577.353,573.866l18.047,19.818c3.068,3.37,2.594,8.812-1.059,12.139l-9.717,8.848c-3.714,3.382-9.066,3.346-12.186-.079l-18.046-19.818c-3.069-3.37-2.593-8.813,1.06-12.139l9.717-8.848c3.652-3.327,9.115-3.292,12.184.079ZM572.511,578.275c-.637-.699-1.955-.542-2.936.352l-9.717,8.848c-1.02.929-1.17,2.291-.623,2.891l18.046,19.818c.636.699,1.954.542,2.936-.352l9.717-8.848c1.02-.929,1.17-2.291.624-2.891l-18.047-19.818Z"/>
    </g>
    <path d="M1393.209,718.286c-.133,2.844-1.361,5.463-3.455,7.369l-2.276,2.074c-2.912,2.651-6.938,3.782-10.771,3.032-2.614-.487-4.992-1.824-6.844-3.857l-1.84-2.021c-1.673-1.837-5.627-8.227-6.416-11.039l-.485-1.576c-.53-1.729.444-3.559,2.172-4.09,1.731-.531,3.553.443,4.089,2.172l.506,1.651c.44,1.56,3.683,7.058,4.977,8.479l1.84,2.02c.882.969,2,1.599,3.232,1.831,1.865.36,3.727-.166,5.131-1.445l2.277-2.073c.801-.73,1.27-1.736,1.32-2.84l.035-.741c.044-.884-.271-1.766-.86-2.413l-4.352-4.778c-.85-.933-1.087-2.276-.606-3.448.482-1.172,1.59-1.958,2.855-2.025l14.865-.796-8.754-9.614c-1.218-1.337-1.121-3.408.217-4.625,1.337-1.219,3.408-1.121,4.625.216l13.404,14.719c.85.934,1.087,2.277.605,3.448-.479,1.17-1.59,1.959-2.854,2.025l-14.878.797c1.568,1.884,2.394,4.342,2.279,6.805l-.035.741-.004.003Z"/>
    <path d="M1498.345,982.715c1.174,9.382-3.615,16.385-11.918,17.423-8.176,1.022-14.689-4.714-15.844-13.95-1.15-9.191,3.556-15.809,11.99-16.863.198-.025.377,0,.57-.02.09-.019.157-.072.248-.083,4.467-.559,14.063,2.293,20.77,5.37,4.496,2.061,6.424,3.563,8.124,4.885,1.428,1.111,1.753,3.221.643,4.649s-3.104,1.738-4.528.628l-.137-.106c-1.555-1.213-3.025-2.354-6.832-4.102-1.318-.609-2.643-1.143-3.956-1.638.386,1.188.703,2.438.874,3.807h-.004ZM1485.62,993.639c6.662-.833,6.577-7.349,6.231-10.111-.492-3.938-2.361-8.469-8.46-7.706-4.765.596-7.002,3.988-6.306,9.553.709,5.668,3.977,8.835,8.534,8.265Z"/>
    <g>
      <path d="M1269.634,1481.988c-1.457.906-3.375.57-4.387-.845-1.051-1.472-.709-3.517.764-4.567l4.977-3.553c1.473-1.051,3.516-.711,4.566.762,1.004,1.404.706,3.302-.596,4.39l17.062,23.896c.576-.108,1.183-.098,1.771.132,1.686.65,2.529,2.548,1.877,4.233l-.822,2.132c-.033.094-.111.156-.155.245-.095.196-.212.369-.347.546-.139.186-.281.345-.455.49-.072.062-.111.148-.192.207-.088.062-.192.072-.285.129-.196.113-.398.204-.615.273-.2.063-.392.109-.591.135-.204.028-.404.032-.615.018-.229-.012-.439-.053-.656-.111-.107-.03-.213-.014-.318-.057-.094-.033-.154-.113-.244-.155-.195-.095-.371-.215-.548-.35-.179-.14-.339-.28-.481-.45-.065-.076-.151-.115-.209-.197l-19.494-27.303h-.006Z"/>
      <path d="M1239.256,1503.748c-1.473,1.051-3.518.709-4.568-.763s-.711-3.517.762-4.567l19.943-14.238c.367-.263.775-.437,1.189-.529.025-.009.055.002.083-.002.405-.082.817-.088,1.216-.016.018.004.034-.003.053,0,.166.031.295.131.447.187.236.083.473.147.684.285.212.142.373.33.549.515.113.115.251.188.347.322.011.014.013.033.023.047.152.222.234.479.329.729.053.149.147.289.181.44.032.143.005.297.015.443.021.278.049.557,0,.831-.004.019,0,.054,0,.054l-5.022,25.062c-.754,3.794-.339,7.026,1.139,8.864,1.032,1.288,2.612,1.935,4.818,1.979,1.483.024,3.139-.582,4.77-1.746,3.145-2.246,5.222-4.539,5.154-8.439-.037-1.812,1.402-3.298,3.215-3.335,1.807-.032,3.297,1.409,3.331,3.218.144,8.142-5.698,12.312-7.897,13.883-2.779,1.983-5.781,3.009-8.688,2.968-5.258-.109-8.234-2.466-9.812-4.426-2.73-3.4-3.603-8.458-2.452-14.252l3.395-16.95-13.205,9.428.003.01Z"/>
    </g>
    <g>
      <path d="M1011.134,1594.115c-1.716.048-3.202-1.21-3.359-2.942-.165-1.801,1.162-3.394,2.963-3.558l6.091-.555c1.801-.164,3.394,1.162,3.558,2.963.157,1.72-1.059,3.206-2.73,3.489l2.665,29.241c.552.197,1.069.512,1.463,1.008,1.126,1.412.896,3.477-.517,4.602l-1.786,1.426c-.077.064-.177.078-.258.133-.182.121-.369.213-.575.297-.214.088-.417.155-.64.193-.095.018-.172.072-.271.08-.107.011-.203-.033-.312-.032-.227,0-.446-.024-.669-.073-.205-.047-.393-.104-.578-.184-.19-.078-.365-.175-.541-.295-.19-.126-.353-.268-.51-.428-.077-.08-.176-.119-.245-.208-.064-.077-.077-.177-.133-.259-.121-.18-.212-.373-.297-.578-.083-.21-.15-.412-.188-.631-.018-.1-.073-.177-.082-.276l-3.045-33.409-.004-.004Z"/>
      <path d="M974.92,1614.308c-2.655-2.576-2.834-5.238-2.973-7.381l-.071-.982c-.364-3.99.575-7.651,2.571-10.055,1.713-2.051,4.178-3.664,6.766-4.432,1.993-.59,12.932-2.132,16.24-2.586.052-.004.103-.009.154-.014,1.732-.158,3.3,1.075,3.54,2.812.246,1.79-1.001,3.44-2.794,3.691-6.641.923-14.172,2.062-15.279,2.381-1.339.4-2.717,1.297-3.592,2.348-.652.782-1.325,2.629-1.084,5.268l.087,1.146c.122,1.814.186,2.318.988,3.099.907.871,1.602.99,3.219.913l16.749-1.526c1.794-.163,3.38,1.146,3.557,2.938l1.63,16.448c.083.873-.178,1.736-.735,2.411-.557.673-1.359,1.095-2.227,1.173l-22.374,2.039c-1.802.164-3.394-1.162-3.558-2.964s1.162-3.394,2.964-3.558l19.087-1.739-.983-9.932-13.653,1.244c-2.728.131-5.493-.114-8.223-2.739l-.006-.004Z"/>
    </g>
    <g>
      <path d="M487.92,1399.945c-1.07-1.458-.758-3.507.7-4.578,1.458-1.07,3.507-.758,4.577.701l14.508,19.748c.268.363.446.77.545,1.182.009.025-.002.055.003.084.087.404.099.815.032,1.215-.004.019.004.035,0,.053-.028.166-.126.298-.181.45-.079.236-.14.476-.275.687-.139.215-.325.379-.507.557-.114.115-.184.254-.316.352-.015.01-.033.012-.048.023-.22.154-.475.24-.726.34-.148.053-.287.15-.438.186-.142.034-.296.009-.443.02-.277.026-.555.058-.83.014-.02-.004-.054,0-.054,0l-25.128-4.682c-3.804-.703-7.029-.244-8.848,1.259-1.274,1.049-1.899,2.638-1.914,4.845-.004,1.482.625,3.129,1.812,4.744,2.287,3.115,4.607,5.16,8.508,5.041,1.812-.062,3.316,1.357,3.378,3.169.056,1.806-1.364,3.315-3.173,3.374-8.139.253-12.389-5.531-13.988-7.709-2.021-2.751-3.087-5.74-3.086-8.646.039-5.26,2.354-8.268,4.293-9.871,3.363-2.777,8.408-3.717,14.218-2.645l16.995,3.164-9.606-13.076-.009.002Z"/>
      <path d="M476.494,1384.297c-.926-1.444-.617-3.367.785-4.396,1.457-1.07,3.506-.758,4.577.7l3.62,4.928c1.071,1.458.758,3.508-.7,4.579-1.392,1.021-3.292.748-4.397-.537l-23.664,17.383c.117.576.115,1.182-.106,1.773-.628,1.694-2.515,2.564-4.208,1.936l-2.144-.794c-.095-.032-.157-.111-.247-.153-.197-.092-.371-.205-.55-.338-.187-.138-.349-.276-.496-.447-.063-.072-.151-.11-.21-.19-.064-.088-.076-.192-.133-.284-.116-.194-.209-.395-.282-.611-.065-.199-.114-.389-.142-.59-.031-.203-.039-.403-.027-.615.01-.229.048-.439.104-.657.028-.106.01-.212.051-.317.033-.095.111-.157.153-.247.092-.197.21-.374.342-.553.137-.181.276-.343.444-.487.074-.066.113-.153.193-.213l27.036-19.861v-.006Z"/>
    </g>
    <g>
      <path d="M372.048,1149.322c-.189-1.799,1.116-3.41,2.915-3.6,1.798-.188,3.409,1.116,3.599,2.915l2.56,24.37c.047.448-.003.89-.126,1.296-.006.027-.029.047-.04.073-.129.394-.326.754-.586,1.065-.012.015-.015.032-.026.045-.107.13-.258.194-.383.298-.188.164-.361.34-.584.455-.229.114-.472.162-.719.224-.156.042-.287.126-.45.143-.018.002-.036-.004-.054-.002-.268.023-.531-.032-.797-.074-.155-.027-.324-.014-.473-.06-.139-.042-.26-.143-.393-.207-.252-.118-.508-.23-.723-.408-.015-.012-.047-.025-.047-.025l-19.331-16.722c-2.93-2.526-5.946-3.759-8.274-3.379-1.629.263-2.971,1.32-4.097,3.218-.751,1.277-1.04,3.018-.83,5.01.403,3.844,1.374,6.781,4.802,8.645,1.596.862,2.179,2.846,1.317,4.441-.862,1.587-2.851,2.175-4.441,1.312-7.155-3.889-7.904-11.027-8.187-13.715-.357-3.395.231-6.513,1.699-9.021,2.687-4.522,6.204-5.951,8.687-6.356,4.306-.7,9.136,1.034,13.61,4.891l13.075,11.309-1.695-16.137-.009-.003Z"/>
      <path d="M351.532,1114.418c.209-1.453,1.376-2.632,2.899-2.791,1.521-.16,2.908.75,3.416,2.128l13.621-1.431c1.799-.189,3.409,1.115,3.598,2.914.189,1.799-1.115,3.409-2.914,3.599l-13.526,1.421,1.801,17.145c.134,1.273-.479,2.507-1.578,3.158-1.101.656-2.479.608-3.532-.114l-21.574-14.827c-.789-.541-1.303-1.403-1.403-2.357l-.366-3.493c-.189-1.799,1.116-3.41,2.914-3.6l16.637-1.747.009-.004ZM340.307,1122.185l12.864,8.84-1.059-10.08-11.806,1.24Z"/>
    </g>
    <line x1="1128.799" y1="562.735" x2="1136.861" y2="541.959" fill="none" stroke="#000" stroke-linecap="round" stroke-miterlimit="10" stroke-width="6"/>
    <line x1="1151.528" y1="509.411" x2="1159.59" y2="488.634" fill="none" stroke="#000" stroke-linecap="round" stroke-miterlimit="10" stroke-width="6"/>
    <line x1="1181.694" y1="562.859" x2="1211.042" y2="506.902" fill="none" stroke="#000" stroke-linecap="round" stroke-miterlimit="10" stroke-width="6"/>
    <line x1="1211.825" y1="606.293" x2="1258.39" y2="533.902" fill="none" stroke="#000" stroke-linecap="round" stroke-miterlimit="10" stroke-width="6"/>
    <line x1="1264.651" y1="615.685" x2="1303.39" y2="565.598" fill="none" stroke="#000" stroke-linecap="round" stroke-miterlimit="10" stroke-width="6"/>
    <line x1="1286.173" y1="663.815" x2="1344.477" y2="601.207" fill="none" stroke="#000" stroke-linecap="round" stroke-miterlimit="10" stroke-width="6"/>
    <line x1="1336.651" y1="682.598" x2="1383.216" y2="639.163" fill="none" stroke="#000" stroke-linecap="round" stroke-miterlimit="10" stroke-width="6"/>
    <path d="M1402.328,693.515c8.722-6.598,14.931-11.308,14.931-11.308" fill="none" stroke="#000" stroke-linecap="round" stroke-miterlimit="10" stroke-width="6"/>
    <path d="M1347.216,734.641c.606-.242,7.551-5.361,16.852-12.313" fill="none" stroke="#000" stroke-linecap="round" stroke-miterlimit="10" stroke-width="6"/>
    <line x1="1394.173" y1="760.076" x2="1447.39" y2="725.641" fill="none" stroke="#000" stroke-linecap="round" stroke-miterlimit="10" stroke-width="6"/>
    <line x1="1398.086" y1="812.511" x2="1473.216" y2="773.38" fill="none" stroke="#000" stroke-linecap="round" stroke-miterlimit="10" stroke-width="6"/>
    <line x1="1437.999" y1="846.554" x2="1495.129" y2="822.685" fill="none" stroke="#000" stroke-linecap="round" stroke-miterlimit="10" stroke-width="6"/>
    <line x1="1432.912" y1="899.772" x2="1512.738" y2="873.163" fill="none" stroke="#000" stroke-linecap="round" stroke-miterlimit="10" stroke-width="6"/>
    <line x1="1466.173" y1="938.902" x2="1526.825" y2="924.424" fill="none" stroke="#000" stroke-linecap="round" stroke-miterlimit="10" stroke-width="6"/>
    <line x1="1515.917" y1="980.346" x2="1534.26" y2="977.641" fill="none" stroke="#000" stroke-linecap="round" stroke-miterlimit="10" stroke-width="6"/>
    <line x1="1449.346" y1="990.163" x2="1468.508" y2="987.337" fill="none" stroke="#000" stroke-linecap="round" stroke-miterlimit="10" stroke-width="6"/>
    <line x1="1537.912" y1="1030.467" x2="1476.086" y2="1033.076" fill="none" stroke="#000" stroke-linecap="round" stroke-miterlimit="10" stroke-width="6"/>
    <line x1="1535.564" y1="1082.641" x2="1453.129" y2="1080.815" fill="none" stroke="#000" stroke-linecap="round" stroke-miterlimit="10" stroke-width="6"/>
    <path d="M1531.129,1135.859c-1.043,0-60.261-6.783-60.261-6.783" fill="none" stroke="#000" stroke-linecap="round" stroke-miterlimit="10" stroke-width="6"/>
    <line x1="1520.433" y1="1188.293" x2="1439.042" y2="1171.076" fill="none" stroke="#000" stroke-linecap="round" stroke-miterlimit="10" stroke-width="6"/>
    <path d="M1504.52,1239.163c-.783,0-57.913-18.261-57.913-18.261" fill="none" stroke="#000" stroke-linecap="round" stroke-miterlimit="10" stroke-width="6"/>
    <line x1="1090.52" y1="524.12" x2="1110.086" y2="465.033" fill="none" stroke="#000" stroke-linecap="round" stroke-miterlimit="10" stroke-width="6"/>
    <path d="M1038.086,533.902c1.174-2.348,18.391-82.957,18.391-82.957" fill="none" stroke="#000" stroke-linecap="round" stroke-miterlimit="10" stroke-width="6"/>
    <path d="M993.868,502.598c.783-1.957,8.609-61.435,8.609-61.435" fill="none" stroke="#000" stroke-linecap="round" stroke-miterlimit="10" stroke-width="6"/>
    <path d="M943.781,522.554c-.391-1.565,2.739-86.87,2.739-86.87" fill="none" stroke="#000" stroke-linecap="round" stroke-miterlimit="10" stroke-width="6"/>
    <line x1="703.45" y1="546.29" x2="677.991" y2="488.461" fill="none" stroke="#000" stroke-linecap="round" stroke-miterlimit="10" stroke-width="6"/>
    <line x1="670.424" y1="587.567" x2="628.91" y2="512.165" fill="none" stroke="#000" stroke-linecap="round" stroke-miterlimit="10" stroke-width="6"/>
    <line x1="617.08" y1="593.329" x2="581.851" y2="540.714" fill="none" stroke="#000" stroke-linecap="round" stroke-miterlimit="10" stroke-width="6"/>
    <line x1="547.213" y1="584.263" x2="538.429" y2="573.434" fill="none" stroke="#000" stroke-linecap="round" stroke-miterlimit="10" stroke-width="6"/>
    <line x1="592.323" y1="639.878" x2="579.449" y2="624.006" fill="none" stroke="#000" stroke-linecap="round" stroke-miterlimit="10" stroke-width="6"/>
    <line x1="540.68" y1="655.17" x2="497.189" y2="608.657" fill="none" stroke="#000" stroke-linecap="round" stroke-miterlimit="10" stroke-width="6"/>
    <line x1="474.48" y1="727.366" x2="423.738" y2="689.378" fill="none" stroke="#000" stroke-linecap="round" stroke-miterlimit="10" stroke-width="6"/>
    <line x1="467.388" y1="780.194" x2="395.104" y2="736.025" fill="none" stroke="#000" stroke-linecap="round" stroke-miterlimit="10" stroke-width="6"/>
    <line x1="424.07" y1="811.042" x2="368.702" y2="783.327" fill="none" stroke="#000" stroke-linecap="round" stroke-miterlimit="10" stroke-width="6"/>
    <line x1="364.143" y1="838.264" x2="351.992" y2="833.268" fill="none" stroke="#000" stroke-linecap="round" stroke-miterlimit="10" stroke-width="6"/>
    <line x1="429.815" y1="865.265" x2="410.286" y2="857.235" fill="none" stroke="#000" stroke-linecap="round" stroke-miterlimit="10" stroke-width="6"/>
    <line x1="390.439" y1="901.642" x2="330.917" y2="883.056" fill="none" stroke="#000" stroke-linecap="round" stroke-miterlimit="10" stroke-width="6"/>
    <line x1="310.659" y1="988.878" x2="372.162" y2="995.702" fill="none" stroke="#000" stroke-linecap="round" stroke-miterlimit="10" stroke-width="6"/>
    <line x1="308.265" y1="1041.481" x2="390.632" y2="1045.288" fill="none" stroke="#000" stroke-linecap="round" stroke-miterlimit="10" stroke-width="6"/>
    <path d="M309.056,1094.877c1.041.071,60.583-2.652,60.583-2.652" fill="none" stroke="#000" stroke-linecap="round" stroke-miterlimit="10" stroke-width="6"/>
    <line x1="384.125" y1="1138.487" x2="405.175" y2="1135.517" fill="none" stroke="#000" stroke-linecap="round" stroke-miterlimit="10" stroke-width="6"/>
    <line x1="315.755" y1="1148.311" x2="332.131" y2="1146.001" fill="none" stroke="#000" stroke-linecap="round" stroke-miterlimit="10" stroke-width="6"/>
    <path d="M327.766,1200.149c.781.053,59.025-14.264,59.025-14.264" fill="none" stroke="#000" stroke-linecap="round" stroke-miterlimit="10" stroke-width="6"/>
    <line x1="797.056" y1="513.867" x2="781.571" y2="453.582" fill="none" stroke="#000" stroke-linecap="round" stroke-miterlimit="10" stroke-width="6"/>
    <path d="M837.862,456.015c-1.113-7.71-1.845-12.827-1.845-12.827" fill="none" stroke="#000" stroke-linecap="round" stroke-miterlimit="10" stroke-width="6"/>
    <path d="M848.701,527.207c-.297-.712-1.515-8.261-3.087-18.568" fill="none" stroke="#000" stroke-linecap="round" stroke-miterlimit="10" stroke-width="6"/>
    <path d="M894.952,498.994c-.647-2.005-4.394-61.879-4.394-61.879" fill="none" stroke="#000" stroke-linecap="round" stroke-miterlimit="10" stroke-width="6"/>
    <path d="M943.56,522.324c.497-1.535,3.198-86.854,3.198-86.854" fill="none" stroke="#000" stroke-linecap="round" stroke-miterlimit="10" stroke-width="6"/>
    <line x1="455.042" y1="645.033" x2="519.999" y2="702.163" fill="none" stroke="#000" stroke-linecap="round" stroke-miterlimit="10" stroke-width="6"/>
    <line x1="312.999" y1="933.815" x2="396.738" y2="951.424" fill="none" stroke="#000" stroke-linecap="round" stroke-miterlimit="10" stroke-width="6"/>
    <line x1="728.433" y1="466.728" x2="756.086" y2="548.12" fill="none" stroke="#000" stroke-linecap="round" stroke-miterlimit="10" stroke-width="6"/>
    <line x1="338.694" y1="1250.902" x2="416.955" y2="1225.859" fill="none" stroke="#000" stroke-linecap="round" stroke-miterlimit="10" stroke-width="6"/>
    <line x1="359.042" y1="1299.946" x2="413.303" y2="1276.989" fill="none" stroke="#000" stroke-linecap="round" stroke-miterlimit="10" stroke-width="6"/>
    <line x1="382.52" y1="1346.902" x2="454.52" y2="1308.815" fill="none" stroke="#000" stroke-linecap="round" stroke-miterlimit="10" stroke-width="6"/>
    <line x1="410.694" y1="1392.293" x2="461.303" y2="1359.424" fill="none" stroke="#000" stroke-linecap="round" stroke-miterlimit="10" stroke-width="6"/>
    <line x1="496.208" y1="1391.539" x2="508.26" y2="1382.38" fill="none" stroke="#000" stroke-linecap="round" stroke-miterlimit="10" stroke-width="6"/>
    <line x1="443.042" y1="1431.946" x2="455.504" y2="1422.475" fill="none" stroke="#000" stroke-linecap="round" stroke-miterlimit="10" stroke-width="6"/>
    <line x1="477.477" y1="1473.685" x2="521.303" y2="1432.467" fill="none" stroke="#000" stroke-linecap="round" stroke-miterlimit="10" stroke-width="6"/>
    <path d="M516.086,1509.163c1.565-1.565,54.783-60.522,54.783-60.522" fill="none" stroke="#000" stroke-linecap="round" stroke-miterlimit="10" stroke-width="6"/>
    <line x1="557.303" y1="1540.467" x2="592.781" y2="1494.033" fill="none" stroke="#000" stroke-linecap="round" stroke-miterlimit="10" stroke-width="6"/>
    <path d="M601.651,1569.163c1.565-2.087,43.304-67.304,43.304-67.304" fill="none" stroke="#000" stroke-linecap="round" stroke-miterlimit="10" stroke-width="6"/>
    <line x1="648.607" y1="1594.207" x2="674.173" y2="1543.076" fill="none" stroke="#000" stroke-linecap="round" stroke-miterlimit="10" stroke-width="6"/>
    <line x1="721.543" y1="1552.21" x2="819.738" y2="1311.946" fill="none" stroke="#000" stroke-linecap="round" stroke-miterlimit="10" stroke-width="6"/>
    <line x1="697.129" y1="1611.946" x2="701.605" y2="1600.995" fill="none" stroke="#000" stroke-linecap="round" stroke-miterlimit="10" stroke-width="6"/>
    <line x1="746.173" y1="1632.815" x2="763.39" y2="1575.946" fill="none" stroke="#000" stroke-linecap="round" stroke-miterlimit="10" stroke-width="6"/>
    <line x1="796.781" y1="1641.685" x2="812.955" y2="1568.12" fill="none" stroke="#000" stroke-linecap="round" stroke-miterlimit="10" stroke-width="6"/>
    <line x1="848.433" y1="1652.12" x2="854.694" y2="1594.728" fill="none" stroke="#000" stroke-linecap="round" stroke-miterlimit="10" stroke-width="6"/>
    <line x1="900.607" y1="1654.728" x2="902.694" y2="1578.033" fill="none" stroke="#000" stroke-linecap="round" stroke-miterlimit="10" stroke-width="6"/>
    <line x1="952.781" y1="1655.25" x2="950.694" y2="1598.38" fill="none" stroke="#000" stroke-linecap="round" stroke-miterlimit="10" stroke-width="6"/>
    <line x1="996.732" y1="1585.443" x2="995.042" y2="1570.728" fill="none" stroke="#000" stroke-linecap="round" stroke-miterlimit="10" stroke-width="6"/>
    <line x1="1003.912" y1="1647.946" x2="1002.367" y2="1634.498" fill="none" stroke="#000" stroke-linecap="round" stroke-miterlimit="10" stroke-width="6"/>
    <line x1="1057.129" y1="1640.641" x2="1044.607" y2="1584.815" fill="none" stroke="#000" stroke-linecap="round" stroke-miterlimit="10" stroke-width="6"/>
    <line x1="1107.216" y1="1626.554" x2="1082.694" y2="1552.989" fill="none" stroke="#000" stroke-linecap="round" stroke-miterlimit="10" stroke-width="6"/>
    <line x1="1156.781" y1="1608.815" x2="1133.825" y2="1556.641" fill="none" stroke="#000" stroke-linecap="round" stroke-miterlimit="10" stroke-width="6"/>
    <line x1="1203.738" y1="1585.337" x2="1166.694" y2="1518.554" fill="none" stroke="#000" stroke-linecap="round" stroke-miterlimit="10" stroke-width="6"/>
    <line x1="1249.129" y1="1561.859" x2="1217.825" y2="1513.859" fill="none" stroke="#000" stroke-linecap="round" stroke-miterlimit="10" stroke-width="6"/>
    <line x1="1252.859" y1="1480.404" x2="1242.346" y2="1467.424" fill="none" stroke="#000" stroke-linecap="round" stroke-miterlimit="10" stroke-width="6"/>
    <line x1="1293.477" y1="1530.554" x2="1283.474" y2="1518.204" fill="none" stroke="#000" stroke-linecap="round" stroke-miterlimit="10" stroke-width="6"/>
    <line x1="1332.086" y1="1496.641" x2="1292.955" y2="1455.424" fill="none" stroke="#000" stroke-linecap="round" stroke-miterlimit="10" stroke-width="6"/>
    <line x1="1370.173" y1="1460.641" x2="1311.216" y2="1408.467" fill="none" stroke="#000" stroke-linecap="round" stroke-miterlimit="10" stroke-width="6"/>
    <line x1="1404.086" y1="1422.033" x2="1357.651" y2="1387.076" fill="none" stroke="#000" stroke-linecap="round" stroke-miterlimit="10" stroke-width="6"/>
    <line x1="1437.477" y1="1379.25" x2="1367.564" y2="1336.989" fill="none" stroke="#000" stroke-linecap="round" stroke-miterlimit="10" stroke-width="6"/>
    <line x1="1462.52" y1="1333.859" x2="1408.781" y2="1307.25" fill="none" stroke="#000" stroke-linecap="round" stroke-miterlimit="10" stroke-width="6"/>
    <line x1="1422.544" y1="1261.361" x2="1409.303" y2="1256.12" fill="none" stroke="#000" stroke-linecap="round" stroke-miterlimit="10" stroke-width="6"/>
    <line x1="1484.433" y1="1285.859" x2="1470.742" y2="1280.439" fill="none" stroke="#000" stroke-linecap="round" stroke-miterlimit="10" stroke-width="6"/>
    <rect x="872.972" y="437.965" width="90.267" height="90.267" rx="15.665" ry="15.665" transform="translate(610.509 -507.702) rotate(45)" fill="none" stroke="#000" stroke-linecap="round" stroke-miterlimit="10" stroke-width="6"/>
    <path d="M914.987,350.455l-28.412,43.74c-1.597,2.458.167,5.707,3.098,5.707h56.824c2.931,0,4.695-3.249,3.098-5.707l-28.412-43.74c-1.457-2.243-4.74-2.243-6.197,0Z" fill="none" stroke="#000" stroke-linecap="round" stroke-miterlimit="10" stroke-width="6"/>
    <rect x="883.126" y="1568.638" width="90.267" height="90.267" rx="15.665" ry="15.665" transform="translate(1412.99 -183.716) rotate(45)" fill="none" stroke="#000" stroke-linecap="round" stroke-miterlimit="10" stroke-width="6"/>
    <line x1="927.216" y1="1679.772" x2="927.216" y2="1741.337" fill="none" stroke="#000" stroke-linecap="round" stroke-miterlimit="10" stroke-width="6"/>
    <line x1="960.086" y1="1711.598" x2="896.955" y2="1711.598" fill="none" stroke="#000" stroke-linecap="round" stroke-miterlimit="10" stroke-width="6"/>
    <line x1="565.781" y1="1114.989" x2="700.781" y2="776.902" fill="none" stroke="#000" stroke-linecap="round" stroke-miterlimit="10" stroke-width="6"/>
    <path d="M700.344,819.131c.128.047.264-.047.265-.184l.278-43.437c.001-.184-.229-.269-.348-.128l-27.967,33.237c-.088.104-.045.264.083.312" fill="none" stroke="#000" stroke-linecap="round" stroke-miterlimit="10" stroke-width="6"/>
    <line x1="1024.781" y1="816.815" x2="1122.75" y2="575.197" fill="none" stroke="#000" stroke-linecap="round" stroke-miterlimit="10" stroke-width="6"/>
    <path d="M1122.313,617.426c.128.047.264-.047.265-.184l.278-43.437c.001-.184-.229-.269-.348-.128l-27.967,33.237c-.088.104-.045.264.083.312" fill="none" stroke="#000" stroke-linecap="round" stroke-miterlimit="10" stroke-width="6"/>
    <path d="M1149.561,398.365l13.752,70.721c.49,2.519,3.334,3.783,5.533,2.46l61.721-37.163" fill="none" stroke="#000" stroke-linecap="round" stroke-miterlimit="10" stroke-width="6"/>
    <path d="M1214.69,1159.093c9.537-22.371,17.483-40.974,17.483-40.974" fill="none" stroke="#000" stroke-linecap="round" stroke-miterlimit="10" stroke-width="6"/>
    <path d="M1182.477,1235.12c.16-.625,8.864-20.674,18.783-43.435" fill="none" stroke="#000" stroke-linecap="round" stroke-miterlimit="10" stroke-width="6"/>
    <line x1="660.771" y1="957.735" x2="609.999" y2="937.337" fill="none" stroke="#000" stroke-linecap="round" stroke-miterlimit="10" stroke-width="6"/>
    <line x1="808.161" y1="1016.951" x2="749.636" y2="993.438" fill="none" stroke="#000" stroke-linecap="round" stroke-miterlimit="10" stroke-width="6"/>
    <line x1="1090.068" y1="1130.211" x2="1036.597" y2="1108.729" fill="none" stroke="#000" stroke-linecap="round" stroke-miterlimit="10" stroke-width="6"/>
    <line x1="1231.39" y1="1186.989" x2="1173.741" y2="1163.828" fill="none" stroke="#000" stroke-linecap="round" stroke-miterlimit="10" stroke-width="6"/>
    <line x1="923.825" y1="1148.641" x2="923.825" y2="978.815" fill="none" stroke="#000" stroke-linecap="round" stroke-miterlimit="10" stroke-width="6"/>
    <line x1="995.825" y1="1048.467" x2="851.825" y2="1048.467" fill="none" stroke="#000" stroke-linecap="round" stroke-miterlimit="10" stroke-width="6"/>
    <line x1="941.042" y1="1138.467" x2="908.955" y2="1138.467" fill="none" stroke="#000" stroke-linecap="round" stroke-miterlimit="10" stroke-width="6"/>
    <path d="M1072.059,1105.093c9.537-22.371,17.483-40.974,17.483-40.974" fill="none" stroke="#000" stroke-linecap="round" stroke-miterlimit="10" stroke-width="6"/>
    <path d="M1039.846,1181.12c.16-.625,8.864-20.674,18.783-43.435" fill="none" stroke="#000" stroke-linecap="round" stroke-miterlimit="10" stroke-width="6"/>
    <path d="M786.798,986.528c9.537-22.371,17.483-40.974,17.483-40.974" fill="none" stroke="#000" stroke-linecap="round" stroke-miterlimit="10" stroke-width="6"/>
    <path d="M754.586,1062.554c.16-.625,8.864-20.674,18.783-43.435" fill="none" stroke="#000" stroke-linecap="round" stroke-miterlimit="10" stroke-width="6"/>
    <g>
      <rect x="864.09" y="1791.02" width="134.609" height="61.97" fill="none"/>
      <path d="M924.612,1821.684c2.177,2.025,3.539,4.914,3.539,8.114v4.337c0,6.085-4.953,11.038-11.038,11.038h-16.698c-1.809,0-3.274-1.466-3.274-3.274v-36.691c0-1.809,1.466-3.274,3.274-3.274h16.352c3.33,0,6.401,1.656,8.21,4.437,1.045,1.535,1.613,3.431,1.613,5.43v4.12c0,2.39-.794,4.303-1.982,5.765h.005ZM903.694,1808.491v10.235h13.675c.755-.144,2.676-.712,2.676-2.802v-4.12c0-.694-.178-1.297-.521-1.805-.642-.984-1.635-1.518-2.758-1.518h-13.077l.005.009ZM921.601,1829.804c0-2.325-1.761-4.246-4.016-4.507-.174.018-.347.018-.517.018h-13.38v13.315h13.424c2.477,0,4.488-2.018,4.488-4.489v-4.337Z"/>
      <path d="M964.193,1802.44c1.506,1.007,1.909,3.036.907,4.541l-11.676,17.522v17.353c0,1.809-1.466,3.274-3.274,3.274s-3.274-1.466-3.274-3.274v-17.353l-11.68-17.522c-1.002-1.505-.599-3.539.906-4.541,1.509-1.006,3.534-.603,4.541.906l9.507,14.261,9.503-14.261c1.006-1.505,3.031-1.908,4.54-.91v.004Z"/>
    </g>
    <g>
      <rect x="210.479" y="280.084" width="134.609" height="61.97" fill="none"/>
      <path d="M255.784,307.336c0,2.242-.902,4.428-2.473,6.002-1.439,1.436-3.313,2.251-5.33,2.411l7.403,13.614c.863,1.588.273,3.574-1.314,4.438-.494.272-1.032.398-1.557.398-1.162,0-2.286-.62-2.88-1.713l-9.069-16.676h-9.237v15.11c0,1.809-1.466,3.274-3.274,3.274s-3.274-1.466-3.274-3.274v-36.692c0-1.809,1.466-3.274,3.274-3.274h19.252c2.238,0,4.424.902,5.998,2.473,1.605,1.604,2.481,3.738,2.481,6.007v7.902ZM249.234,299.429c0-.542-.19-1.002-.559-1.375-.348-.342-.863-.555-1.371-.555h-15.982v11.758h15.982c.538,0,.998-.19,1.371-.563.351-.348.559-.859.559-1.366v-7.898Z"/>
      <path d="M293.292,294.228v36.692c0,1.444-.946,2.715-2.325,3.136-.316.091-.633.139-.949.139-1.076,0-2.104-.529-2.725-1.457l-18.463-27.692v25.875c0,1.809-1.466,3.274-3.274,3.274s-3.274-1.466-3.274-3.274v-36.692c0-1.444.945-2.715,2.325-3.136,1.37-.416,2.871.117,3.673,1.318l18.463,27.692v-25.875c0-1.809,1.467-3.274,3.275-3.274s3.274,1.466,3.274,3.274Z"/>
      <path d="M330.666,312.488l.131,10.365c0,3.084-1.245,6.042-3.418,8.158-2.056,1.995-4.896,3.14-7.794,3.14h-7.894c-2.472,0-4.9-.828-6.831-2.342l-.707-.538c-2.771-2.095-4.367-5.325-4.367-8.852v-19.733c0-3.47,1.64-6.783,4.381-8.856l.729-.556c1.899-1.487,4.324-2.32,6.796-2.32h8.675c2.189,0,4.332.655,6.193,1.896l2.606,1.739c1.505,1.006,1.908,3.036.906,4.541-1.002,1.509-3.031,1.908-4.541.906l-2.603-1.739c-.78-.521-1.665-.794-2.562-.794h-8.675c-1.032,0-1.995.33-2.797.954l-.772.59c-1.128.846-1.791,2.208-1.791,3.64v19.733c0,1.457.646,2.78,1.778,3.635l.75.572c.828.65,1.796.98,2.828.98h7.894c1.21,0,2.385-.473,3.227-1.288.924-.898,1.436-2.112,1.436-3.418l-.091-7.091h-7.481c-1.809,0-3.274-1.466-3.274-3.274s1.466-3.275,3.274-3.275h10.712c1.792,0,3.253,1.44,3.275,3.231l.008-.004Z"/>
    </g>
    <g>
      <rect x="159.748" y="338.727" width="226.425" height="77.784" fill="none"/>
      <path d="M224.806,362.752v33.812c0,5.751-5.066,10.423-11.298,10.423h-16.578c-6.336,0-11.299-4.579-11.299-10.423v-33.812c0-5.75,5.066-10.423,11.299-10.423h16.578c6.231,0,11.298,4.673,11.298,10.423ZM216.545,362.752c0-1.192-1.362-2.166-3.036-2.166h-16.578c-1.74,0-3.037,1.144-3.037,2.166v33.812c0,1.193,1.362,2.167,3.037,2.167h16.578c1.739,0,3.036-1.144,3.036-2.167v-33.812Z"/>
      <path d="M268.07,398.715c2.282,0,4.131,1.85,4.131,4.131s-1.849,4.131-4.131,4.131h-30.912c-.569,0-1.116-.12-1.608-.328-.033-.011-.055-.044-.088-.061-.476-.213-.902-.509-1.259-.875-.016-.017-.038-.022-.055-.038-.147-.153-.208-.351-.322-.521-.181-.257-.378-.497-.492-.793-.115-.301-.143-.613-.187-.93-.033-.203-.12-.378-.12-.586,0-.021.011-.044.011-.065.006-.34.109-.662.197-.99.055-.191.06-.405.137-.586.071-.169.213-.306.312-.465.181-.301.355-.607.607-.854.017-.017.038-.055.038-.055l23.526-22.049c3.557-3.344,5.499-6.965,5.329-9.937-.114-2.079-1.264-3.9-3.496-5.563-1.504-1.111-3.649-1.702-6.177-1.702-4.875,0-8.688.832-11.479,4.886-1.292,1.888-3.857,2.358-5.745,1.067-1.877-1.291-2.353-3.863-1.062-5.745,5.821-8.464,14.876-8.464,18.285-8.464,4.306,0,8.142,1.148,11.096,3.321,5.318,3.966,6.647,8.567,6.828,11.735.312,5.493-2.5,11.325-7.928,16.431l-15.91,14.914h20.468l.005-.011Z"/>
      <path d="M315.654,377.951c2.539,2.539,3.939,5.909,3.939,9.482v3.884c0,4.969-2.363,9.685-6.319,12.623-2.675,2.024-5.941,3.107-9.41,3.107h-3.447c-3.135,0-12.452-1.74-15.746-3.393l-1.882-.886c-2.062-.975-2.943-3.437-1.97-5.499.974-2.068,3.431-2.938,5.498-1.97l1.97.931c1.828.913,9.712,2.561,12.136,2.561h3.447c1.651,0,3.189-.51,4.453-1.461,1.92-1.434,3.009-3.617,3.009-6.014v-3.884c0-1.368-.541-2.659-1.526-3.645l-.662-.662c-.787-.793-1.876-1.247-2.981-1.247h-8.152c-1.592,0-3.048-.919-3.731-2.363s-.476-3.146.536-4.383l11.884-14.543h-16.402c-2.282,0-4.131-1.849-4.131-4.131s1.849-4.131,4.131-4.131h25.112c1.593,0,3.048.92,3.731,2.364.685,1.438.477,3.146-.536,4.382l-11.895,14.554c3.092.137,6.084,1.456,8.284,3.655l.661.662v.005Z"/>
      <path d="M336.077,405.864v.114c0,2.282-1.849,4.131-4.131,4.131s-4.131-1.849-4.131-4.131,1.85-4.19,4.131-4.19,4.131,1.795,4.131,4.076Z"/>
      <path d="M356.388,398.786c2.161.137,3.885,1.888,3.885,4.081,0,2.282-1.85,4.131-4.131,4.131h-7.715c-2.281,0-4.131-1.849-4.131-4.131,0-2.177,1.696-3.906,3.83-4.07v-37.04c-.673-.312-1.285-.767-1.724-1.434-1.253-1.904-.728-4.471,1.177-5.723l2.407-1.587c.104-.071.229-.077.339-.137.241-.132.487-.225.756-.307.278-.088.541-.147.826-.17.12-.011.224-.071.35-.071.137,0,.252.066.389.077.284.027.558.082.832.17.251.082.481.175.705.295.23.12.438.263.646.433.225.181.411.377.591.596.088.109.208.17.285.29.071.104.076.23.137.34.131.24.225.492.307.76.082.274.142.536.164.815.011.126.071.23.071.355v42.32l.005.006Z"/>
    </g>
    <g>
      <rect x="1481.868" y="267.518" width="134.609" height="61.97" fill="none"/>
      <path d="M1522.105,312.608c1.527-.967,3.548-.529,4.523.998.977,1.526.529,3.548-.997,4.523l-2.516,1.604c-2.073,1.279-4.363,1.943-6.662,1.943h-8.023c-2.732,0-5.404-.906-7.521-2.56-2.979-2.276-4.775-5.924-4.775-9.736v-18.654c0-3.812,1.792-7.46,4.797-9.754,2.095-1.631,4.767-2.537,7.499-2.537h8.023c2.395,0,4.706.677,6.684,1.956l2.498,1.592c1.522.976,1.97,2.997.998,4.523-.976,1.518-2.997,1.969-4.523.998l-2.516-1.605c-.933-.606-2.013-.919-3.141-.919h-8.023c-1.279,0-2.524.416-3.495,1.175-1.419,1.085-2.251,2.789-2.251,4.571v18.654c0,1.782.832,3.487,2.229,4.554.998.772,2.242,1.193,3.522,1.193h8.023c1.084,0,2.182-.326,3.179-.946l2.477-1.578-.009.004Z"/>
      <path d="M1564.645,294.77c0,2.242-.902,4.428-2.473,6.002-1.439,1.436-3.313,2.251-5.33,2.411l7.403,13.614c.863,1.588.273,3.574-1.314,4.438-.494.272-1.032.398-1.557.398-1.162,0-2.286-.62-2.88-1.713l-9.069-16.676h-9.237v15.11c0,1.809-1.466,3.274-3.274,3.274s-3.274-1.466-3.274-3.274v-36.692c0-1.809,1.466-3.274,3.274-3.274h19.252c2.238,0,4.424.902,5.998,2.473,1.605,1.604,2.481,3.738,2.481,6.007v7.902ZM1558.095,286.863c0-.542-.19-1.002-.559-1.375-.348-.342-.863-.555-1.371-.555h-15.982v11.758h15.982c.538,0,.998-.19,1.371-.563.351-.348.559-.859.559-1.366v-7.898Z"/>
      <path d="M1598.939,300.078c2.099,2.104,3.257,4.892,3.257,7.867v1.995c0,3.452-1.652,6.762-4.424,8.856l-.98.702c-1.887,1.388-4.241,2.173-6.592,2.173h-7.243c-2.178,0-4.298-.638-6.133-1.843l-2.619-1.739c-1.51-1.007-1.913-3.036-.915-4.541,1.006-1.51,3.035-1.908,4.54-.915l2.607,1.73c.737.49,1.639.759,2.523.759h7.243c.963,0,1.935-.325,2.741-.924l.95-.681c1.071-.807,1.752-2.169,1.752-3.578v-1.995c0-1.224-.481-2.368-1.345-3.235s-2.013-1.345-3.231-1.345h-8.804c-2.971,0-5.769-1.158-7.868-3.253-2.099-2.107-3.257-4.9-3.257-7.867v-2.689c0-2.971,1.158-5.764,3.257-7.867,2.1-2.1,4.893-3.257,7.868-3.257h8.153c2.208,0,4.337.637,6.154,1.847l2.603,1.739c1.505,1.002,1.908,3.041.906,4.541-1.002,1.501-3.027,1.922-4.541.902l-2.602-1.734c-.737-.49-1.609-.751-2.521-.751h-8.153c-1.224,0-2.377.478-3.235,1.341-.868.867-1.345,2.021-1.345,3.239v2.689c0,1.219.481,2.372,1.345,3.239.858.863,2.012,1.336,3.235,1.336h8.804c2.967,0,5.76,1.158,7.863,3.258h.005Z"/>
    </g>
    <g>
      <rect x="1431.137" y="326.16" width="226.425" height="77.784" fill="none"/>
      <path d="M1516.593,350.299v33.758c0,5.75-5.061,10.423-11.293,10.423h-16.529c-6.227,0-11.293-4.673-11.293-10.423v-33.758c0-5.75,5.062-10.423,11.293-10.423h16.529c6.227,0,11.293,4.673,11.293,10.423ZM1508.338,350.299c0-1.177-1.391-2.167-3.037-2.167h-16.529c-1.738,0-3.035,1.144-3.035,2.167v33.758c0,1.154,1.416,2.167,3.035,2.167h16.529c1.74,0,3.037-1.144,3.037-2.167v-33.758Z"/>
      <path d="M1563.906,350.299v33.758c0,5.75-5.061,10.423-11.291,10.423h-16.529c-6.227,0-11.293-4.673-11.293-10.423v-33.758c0-5.75,5.061-10.423,11.293-10.423h16.529c6.225,0,11.291,4.673,11.291,10.423ZM1555.65,350.299c0-1.177-1.389-2.167-3.035-2.167h-16.529c-1.74,0-3.037,1.144-3.037,2.167v33.758c0,1.154,1.418,2.167,3.037,2.167h16.529c1.738,0,3.035-1.144,3.035-2.167v-33.758Z"/>
      <path d="M1611.22,350.299v33.758c0,5.75-5.061,10.423-11.293,10.423h-16.529c-6.227,0-11.293-4.673-11.293-10.423v-33.758c0-5.75,5.062-10.423,11.293-10.423h16.529c6.227,0,11.293,4.673,11.293,10.423ZM1602.965,350.299c0-1.177-1.391-2.167-3.037-2.167h-16.529c-1.738,0-3.035,1.144-3.035,2.167v33.758c0,1.154,1.416,2.167,3.035,2.167h16.529c1.74,0,3.037-1.144,3.037-2.167v-33.758Z"/>
    </g>
  </g>
</svg>