<?xml version="1.0" encoding="UTF-8"?>
<svg xmlns="http://www.w3.org/2000/svg" width="2565.563" height="2482.239" viewBox="0 0 2565.563 2482.239">
  <g id="b" data-name="HSD_-_Light">
    <path d="M1222.084,253.239l-118.957,4.342-118.956,7.236-192.957,18.266c-24.227,2.293-48.382,5.198-72.437,8.712l-54.714,7.991c-56.35,8.23-95.718,40.523-110.854,100.517l-11.733,57.706-10.435,60.056-29.739,188.851-21.13,193.192-11.739,183.786-2.112,139.904-.236-.256.12,7.959-.12,7.959.236-.256,2.112,139.904,11.739,183.786,21.13,193.192,29.739,188.851,10.435,60.056,11.733,57.706c15.136,59.994,54.504,92.287,110.854,100.517l54.714,7.991c24.055,3.513,48.21,6.418,72.437,8.712l192.957,18.266,118.956,7.236,118.957,4.341h65.739l10.174-.342,10.174.342h65.739l118.957-4.341,118.956-7.236,192.957-18.266c24.227-2.293,48.382-5.198,72.437-8.712l54.714-7.991c56.35-8.23,95.718-40.523,110.854-100.517l11.733-57.706,10.435-60.056,29.739-188.851,21.13-193.192,11.739-183.786,2.111-139.904.236.256-.12-7.959.12-7.959-.236.256-2.111-139.904-11.739-183.786-21.13-193.192-29.739-188.851-10.435-60.056-11.733-57.706c-15.136-59.994-54.504-92.287-110.854-100.517l-54.714-7.991c-24.055-3.513-48.21-6.418-72.437-8.712l-192.957-18.266-118.956-7.236-118.957-4.342h-65.739l-10.174.342-10.174-.342h-65.739Z" fill="none" stroke="#000" stroke-miterlimit="10" stroke-width="9"/>
  </g>
  <g id="c" data-name="NAV_TACAN_Steering_-_Light">
    <path d="M1575.115,730.747l-13.607,34.075c-.536,1.341-1.885,2.171-3.322,2.05-.328-.033-.64-.105-.933-.223-1-.399-1.758-1.271-1.989-2.364l-6.877-32.564-9.596,24.03c-.671,1.679-2.576,2.497-4.256,1.826s-2.497-2.576-1.826-4.256l13.607-34.075c.535-1.341,1.885-2.171,3.322-2.05,1.427.122,2.623,1.174,2.922,2.587l6.876,32.565,9.597-24.031c.671-1.679,2.577-2.496,4.257-1.826,1.68.672,2.496,2.576,1.825,4.256Z"/>
    <path d="M1837.886,1497.809c-.674,1.678-2.58,2.492-4.26,1.818-1.678-.673-2.492-2.579-1.819-4.257l9.124-22.743c.673-1.679,2.58-2.493,4.258-1.82l34.055,13.661c1.678.674,2.493,2.58,1.82,4.259l-9.124,22.743c-.673,1.678-2.58,2.492-4.259,1.818-1.679-.673-2.493-2.579-1.82-4.257l7.904-19.704-10.952-4.394-6.192,15.437c-.674,1.679-2.58,2.493-4.258,1.819-1.68-.673-2.494-2.579-1.82-4.258l6.192-15.437-10.948-4.393-7.904,19.704.004.002Z"/>
    <path d="M1111.167,1790.671c-1.124-2.751-1.115-5.771.034-8.515l.771-1.841c1.333-3.185,4.136-5.599,7.5-6.461l1.176-.269c2.277-.553,4.752-.367,6.92.541l6.682,2.797c2.008.841,3.718,2.248,4.945,4.068l1.744,2.616c1.004,1.511.592,3.54-.91,4.542-1.511,1.004-3.537.588-4.541-.909l-1.737-2.604c-.49-.736-1.219-1.333-2.034-1.675l-6.682-2.797c-.888-.371-1.909-.447-2.885-.207l-1.14.262c-1.3.33-2.453,1.324-2.997,2.623l-.771,1.841c-.473,1.128-.472,2.37-.01,3.504.461,1.134,1.337,2.018,2.462,2.488l8.121,3.399c2.74,1.147,4.873,3.297,6,6.04,1.123,2.755,1.112,5.778-.033,8.515l-1.039,2.48c-1.146,2.74-3.294,4.869-6.043,5.999-2.747,1.126-5.771,1.115-8.515-.034l-7.521-3.148c-2.036-.853-3.754-2.264-4.963-4.082l-1.729-2.608c-1-1.505-.585-3.541.918-4.539,1.504-.997,3.534-.603,4.537.922l1.73,2.605c.49.736,1.194,1.313,2.034,1.665l7.521,3.148c1.128.473,2.377.479,3.501.014,1.137-.465,2.021-1.345,2.492-2.469l1.039-2.48c.471-1.125.472-2.375.01-3.508-.458-1.128-1.34-2.009-2.468-2.481l-8.121-3.399c-2.736-1.146-4.865-3.293-5.995-6.043h-.004Z"/>
    <path d="M784.046,1042.099l28.378,11.384c.806.324,1.45.952,1.79,1.751l3.4,7.948c.716,1.662-.057,3.576-1.71,4.296l-4.929,2.126,2.093,4.942c.351.828.333,1.722.022,2.495-.312.777-.923,1.438-1.752,1.793l-7.952,3.398c-.797.344-1.701.352-2.507.027l-28.378-11.384c-1.679-.673-2.493-2.579-1.819-4.258.673-1.679,2.578-2.493,4.258-1.82l27.117,10.879,3.707-1.583-1.559-3.678-7.266-2.914c-1.678-.674-2.494-2.58-1.82-4.259s2.58-2.493,4.258-1.819l7.266,2.914,3.668-1.58-1.586-3.702-27.117-10.879c-1.68-.673-2.494-2.579-1.82-4.258.673-1.679,2.579-2.493,4.258-1.82Z"/>
    <g>
      <path d="M1243.92,701.002c2.135,1.882,3.411,4.479,3.588,7.305l.193,3.073c.246,3.931-1.39,7.779-4.373,10.3-2.017,1.734-4.546,2.753-7.291,2.926l-2.727.171c-2.479.155-9.939-.758-12.626-1.902l-1.533-.608c-1.68-.667-2.5-2.572-1.832-4.252.668-1.684,2.568-2.494,4.252-1.831l1.605.638c1.491.632,7.81,1.543,9.729,1.423l2.727-.171c1.307-.082,2.498-.561,3.451-1.376,1.448-1.23,2.201-3.011,2.082-4.907l-.193-3.073c-.067-1.082-.561-2.076-1.388-2.807l-.558-.491c-.662-.588-1.546-.894-2.421-.839l-6.45.405c-1.259.079-2.456-.576-3.069-1.684-.613-1.109-.532-2.465.207-3.494l8.681-12.095-12.979.814c-1.805.113-3.359-1.258-3.473-3.063-.114-1.805,1.257-3.36,3.062-3.474l19.868-1.247c1.26-.079,2.457.576,3.07,1.686.612,1.104.533,2.465-.207,3.493l-8.688,12.105c2.453-.045,4.886.849,6.735,2.48l.557.491v.004Z"/>
      <path d="M1281.416,698.649c2.135,1.881,3.41,4.479,3.587,7.305l.193,3.073c.246,3.931-1.39,7.779-4.373,10.3-2.016,1.734-4.546,2.753-7.291,2.926l-2.727.171c-2.479.156-9.938-.758-12.626-1.902l-1.533-.608c-1.681-.668-2.499-2.572-1.832-4.252.669-1.684,2.569-2.495,4.252-1.831l1.605.638c1.491.632,7.811,1.543,9.729,1.423l2.727-.171c1.308-.082,2.498-.561,3.45-1.377,1.449-1.229,2.203-3.011,2.084-4.907l-.193-3.073c-.067-1.082-.562-2.077-1.389-2.807l-.558-.491c-.662-.588-1.546-.894-2.42-.839l-6.45.405c-1.26.079-2.456-.576-3.069-1.685s-.532-2.465.207-3.494l8.679-12.096-12.977.814c-1.805.113-3.359-1.258-3.473-3.063-.114-1.805,1.257-3.36,3.062-3.474l19.868-1.247c1.261-.079,2.457.576,3.07,1.685.612,1.104.533,2.465-.207,3.494l-8.688,12.104c2.452-.045,4.885.849,6.735,2.48l.557.491v.005Z"/>
    </g>
    <g>
      <path d="M964.841,827.611c2.844.133,5.463,1.361,7.37,3.455l2.073,2.277c2.651,2.912,3.783,6.938,3.033,10.771-.488,2.614-1.824,4.992-3.857,6.844l-2.021,1.84c-1.836,1.672-8.227,5.626-11.039,6.415l-1.576.486c-1.729.53-3.559-.443-4.089-2.172-.532-1.732.442-3.553,2.171-4.089l1.651-.506c1.56-.44,7.059-3.683,8.479-4.977l2.021-1.84c.968-.881,1.598-2,1.831-3.233.359-1.865-.167-3.725-1.445-5.13l-2.074-2.277c-.73-.802-1.736-1.27-2.839-1.321l-.741-.034c-.885-.045-1.766.27-2.414.86l-4.778,4.352c-.933.85-2.276,1.087-3.448.606-1.172-.482-1.958-1.59-2.024-2.855l-.797-14.866-9.614,8.754c-1.337,1.218-3.408,1.121-4.625-.216-1.219-1.337-1.121-3.408.215-4.626l14.72-13.403c.934-.85,2.278-1.087,3.448-.606,1.17.479,1.959,1.589,2.025,2.854l.797,14.879c1.885-1.569,4.342-2.394,6.805-2.279l.742.035.002.003Z"/>
      <path d="M986.817,791.304l18.046,19.818c3.069,3.371,2.594,8.813-1.06,12.14l-9.717,8.848c-3.713,3.381-9.065,3.345-12.184-.08l-18.047-19.818c-3.068-3.37-2.594-8.813,1.059-12.139l9.717-8.848c3.652-3.326,9.116-3.292,12.186.079ZM981.975,795.714c-.636-.699-1.954-.543-2.937.351l-9.717,8.848c-1.02.928-1.169,2.291-.623,2.891l18.047,19.818c.637.699,1.955.543,2.936-.351l9.717-8.848c1.02-.929,1.17-2.291.623-2.891l-18.046-19.818Z"/>
    </g>
    <path d="M1802.628,935.827c-.133,2.843-1.361,5.463-3.455,7.37l-2.276,2.072c-2.912,2.652-6.938,3.783-10.771,3.033-2.614-.486-4.992-1.824-6.844-3.857l-1.84-2.021c-1.674-1.837-5.627-8.227-6.416-11.039l-.485-1.575c-.53-1.729.443-3.56,2.172-4.09,1.731-.533,3.553.443,4.089,2.172l.506,1.65c.44,1.559,3.683,7.059,4.977,8.479l1.84,2.021c.881.968,2,1.598,3.232,1.83,1.865.361,3.727-.166,5.131-1.445l2.277-2.072c.801-.73,1.269-1.738,1.32-2.84l.035-.742c.045-.885-.271-1.766-.861-2.413l-4.351-4.778c-.85-.934-1.087-2.276-.606-3.449.482-1.172,1.59-1.957,2.855-2.023l14.865-.797-8.754-9.614c-1.218-1.337-1.121-3.407.216-4.626,1.337-1.217,3.409-1.121,4.626.217l13.403,14.719c.851.934,1.088,2.277.606,3.449-.479,1.168-1.59,1.958-2.854,2.024l-14.879.796c1.569,1.885,2.395,4.342,2.28,6.806l-.035.741-.004.003Z"/>
    <path d="M1907.686,1200.152c1.174,9.382-3.615,16.385-11.917,17.423-8.177,1.022-14.69-4.715-15.845-13.95-1.15-9.192,3.557-15.809,11.991-16.863.198-.025.376,0,.57-.021.089-.019.157-.07.247-.082,4.467-.559,14.064,2.293,20.77,5.37,4.497,2.06,6.425,3.563,8.125,4.885,1.428,1.111,1.752,3.221.642,4.649-1.11,1.428-3.104,1.739-4.528.628l-.136-.106c-1.555-1.213-3.026-2.353-6.833-4.102-1.317-.608-2.643-1.143-3.955-1.638.385,1.188.703,2.438.874,3.807h-.005ZM1894.962,1211.076c6.661-.833,6.576-7.349,6.23-10.111-.492-3.938-2.361-8.469-8.459-7.706-4.765.596-7.002,3.987-6.307,9.553.709,5.668,3.977,8.835,8.535,8.265Z"/>
    <g>
      <path d="M1678.985,1699.397c-1.457.908-3.375.572-4.386-.844-1.051-1.471-.71-3.516.763-4.566l4.977-3.554c1.473-1.052,3.517-.71,4.567.762,1.003,1.405.706,3.302-.596,4.39l17.062,23.897c.578-.108,1.184-.099,1.772.13,1.685.652,2.528,2.549,1.878,4.234l-.824,2.133c-.033.094-.111.155-.155.244-.095.196-.211.369-.345.546-.141.186-.283.345-.456.49-.072.063-.112.149-.192.208-.088.062-.193.072-.286.129-.196.113-.397.203-.614.273-.201.062-.392.109-.592.135-.204.027-.403.032-.615.018-.229-.012-.439-.054-.656-.112-.107-.03-.213-.013-.317-.056-.094-.034-.155-.113-.244-.156-.196-.094-.372-.215-.549-.35-.179-.139-.337-.28-.48-.449-.065-.076-.151-.115-.21-.197l-19.494-27.303-.006-.002Z"/>
      <path d="M1648.606,1721.158c-1.473,1.051-3.518.709-4.568-.763-1.051-1.473-.71-3.517.763-4.567l19.942-14.239c.367-.262.775-.436,1.189-.528.026-.009.055.003.083,0,.405-.083.817-.088,1.216-.016.019.003.035-.004.053,0,.166.03.297.13.447.187.236.083.474.146.684.284.213.143.373.33.549.515.114.116.252.188.347.322.011.015.014.033.024.048.152.221.234.477.328.729.053.149.148.288.182.44.031.143.004.296.014.443.021.277.049.557,0,.83-.003.019.002.054.002.054l-5.023,25.062c-.754,3.795-.338,7.026,1.139,8.865,1.032,1.288,2.613,1.934,4.819,1.979,1.482.024,3.139-.583,4.77-1.747,3.145-2.245,5.222-4.538,5.153-8.438-.036-1.813,1.403-3.299,3.216-3.336,1.806-.031,3.297,1.409,3.331,3.218.143,8.142-5.698,12.312-7.897,13.883-2.779,1.983-5.782,3.009-8.688,2.969-5.258-.11-8.235-2.466-9.812-4.427-2.731-3.4-3.604-8.458-2.452-14.252l3.395-16.95-13.205,9.429.002.009Z"/>
    </g>
    <g>
      <path d="M1420.467,1811.559c-1.716.049-3.202-1.21-3.359-2.942-.164-1.801,1.163-3.394,2.964-3.558l6.09-.555c1.801-.164,3.394,1.162,3.558,2.963.156,1.72-1.058,3.207-2.73,3.489l2.664,29.241c.554.197,1.07.513,1.464,1.008,1.126,1.412.896,3.477-.518,4.603l-1.786,1.425c-.076.064-.176.078-.258.133-.181.121-.368.213-.573.297-.215.09-.418.155-.641.193-.095.018-.172.072-.271.082-.108.01-.203-.035-.312-.033-.227-.002-.446-.025-.669-.074-.205-.047-.393-.104-.579-.184-.19-.078-.364-.175-.54-.294-.191-.126-.352-.269-.509-.429-.077-.079-.178-.119-.247-.208-.062-.077-.076-.176-.132-.258-.121-.181-.212-.372-.297-.578-.084-.21-.15-.413-.188-.632-.018-.099-.073-.176-.082-.276l-3.044-33.408-.005-.005Z"/>
      <path d="M1384.252,1831.752c-2.656-2.576-2.834-5.238-2.972-7.381l-.073-.982c-.363-3.99.575-7.651,2.572-10.055,1.713-2.05,4.178-3.664,6.766-4.432,1.992-.59,12.931-2.132,16.239-2.586.052-.005.104-.01.155-.014,1.731-.158,3.299,1.076,3.54,2.813.246,1.789-1.002,3.44-2.795,3.69-6.641.922-14.172,2.062-15.278,2.381-1.34.4-2.717,1.297-3.592,2.348-.653.783-1.324,2.63-1.084,5.269l.087,1.146c.122,1.813.186,2.317.988,3.098.906.871,1.602.99,3.219.913l16.749-1.526c1.793-.163,3.38,1.146,3.557,2.938l1.629,16.448c.083.872-.177,1.736-.734,2.41-.557.673-1.359,1.095-2.227,1.174l-22.374,2.038c-1.801.164-3.395-1.162-3.559-2.963s1.163-3.395,2.964-3.559l19.087-1.739-.983-9.931-13.653,1.244c-2.727.131-5.493-.115-8.223-2.74l-.005-.004Z"/>
    </g>
    <g>
      <path d="M897.24,1617.43c-1.071-1.459-.757-3.508.7-4.578,1.458-1.07,3.508-.758,4.578.7l14.508,19.748c.267.363.446.77.545,1.182.008.026-.002.057.002.084.088.405.1.815.031,1.216-.002.018.004.034.002.053-.028.166-.126.297-.181.45-.079.235-.141.475-.276.687-.138.215-.324.379-.506.556-.115.116-.186.255-.317.353-.015.01-.033.014-.048.023-.219.154-.475.24-.725.339-.148.054-.287.151-.438.187-.143.033-.297.008-.444.02-.277.025-.555.057-.831.013-.018-.003-.052,0-.052,0l-25.128-4.682c-3.805-.703-7.03-.244-8.848,1.258-1.275,1.049-1.899,2.639-1.914,4.846-.004,1.482.625,3.129,1.812,4.744,2.288,3.115,4.608,5.16,8.508,5.041,1.812-.062,3.317,1.356,3.378,3.17.057,1.804-1.363,3.314-3.172,3.373-8.139.254-12.389-5.531-13.988-7.709-2.021-2.751-3.087-5.74-3.086-8.647.038-5.259,2.354-8.267,4.293-9.87,3.363-2.777,8.408-3.717,14.217-2.646l16.996,3.165-9.607-13.076-.009.002Z"/>
      <path d="M885.815,1601.782c-.927-1.445-.617-3.367.784-4.396,1.458-1.07,3.507-.758,4.577.7l3.621,4.929c1.07,1.457.757,3.506-.701,4.577-1.391,1.022-3.291.749-4.397-.537l-23.663,17.384c.116.576.113,1.182-.107,1.774-.627,1.693-2.514,2.562-4.207,1.934l-2.145-.794c-.094-.031-.156-.109-.246-.15-.197-.094-.372-.207-.551-.339-.187-.138-.349-.277-.496-.448-.062-.072-.15-.111-.209-.191-.064-.086-.076-.19-.133-.283-.117-.195-.21-.396-.283-.611-.065-.199-.113-.39-.142-.59-.031-.203-.038-.403-.026-.615.01-.229.047-.439.104-.658.027-.105.01-.211.051-.316.033-.096.111-.157.152-.246.092-.198.21-.375.342-.554.137-.181.276-.343.444-.487.075-.066.113-.153.194-.213l27.035-19.861.002-.006Z"/>
    </g>
    <g>
      <path d="M781.413,1366.791c-.188-1.799,1.117-3.41,2.915-3.599,1.799-.189,3.41,1.116,3.599,2.915l2.561,24.369c.047.449-.004.89-.126,1.295-.006.027-.03.048-.04.075-.129.394-.326.754-.586,1.064-.012.014-.015.032-.026.046-.108.129-.259.193-.383.297-.188.165-.361.34-.585.454-.228.116-.471.163-.718.224-.157.043-.288.127-.451.145-.018.002-.035-.005-.053-.004-.269.023-.531-.031-.797-.072-.156-.028-.325-.015-.474-.061-.139-.042-.259-.143-.392-.206-.253-.118-.509-.231-.724-.408-.014-.013-.047-.025-.047-.025l-19.33-16.724c-2.93-2.525-5.946-3.757-8.275-3.377-1.629.262-2.97,1.318-4.096,3.217-.752,1.278-1.04,3.018-.83,5.011.403,3.843,1.374,6.779,4.801,8.644,1.596.861,2.179,2.847,1.318,4.441-.863,1.587-2.852,2.175-4.441,1.312-7.155-3.888-7.904-11.026-8.188-13.714-.356-3.396.232-6.515,1.699-9.023,2.688-4.521,6.205-5.949,8.688-6.355,4.305-.7,9.135,1.034,13.609,4.891l13.076,11.309-1.695-16.137-.01-.003Z"/>
      <path d="M760.897,1331.887c.209-1.453,1.375-2.631,2.898-2.791,1.522-.16,2.909.75,3.416,2.128l13.621-1.431c1.799-.189,3.409,1.115,3.598,2.914.189,1.799-1.115,3.409-2.914,3.599l-13.525,1.42,1.801,17.146c.133,1.273-.479,2.506-1.579,3.158-1.1.656-2.479.608-3.531-.113l-21.574-14.828c-.79-.541-1.304-1.403-1.403-2.357l-.367-3.493c-.189-1.799,1.117-3.409,2.915-3.599l16.637-1.747.009-.005ZM749.673,1339.655l12.863,8.841-1.059-10.081-11.805,1.24Z"/>
    </g>
    <line x1="1538.189" y1="780.203" x2="1546.251" y2="759.426" fill="none" stroke="#000" stroke-linecap="round" stroke-miterlimit="10" stroke-width="6"/>
    <line x1="1560.918" y1="726.878" x2="1568.98" y2="706.102" fill="none" stroke="#000" stroke-linecap="round" stroke-miterlimit="10" stroke-width="6"/>
    <line x1="1591.084" y1="780.326" x2="1620.432" y2="724.37" fill="none" stroke="#000" stroke-linecap="round" stroke-miterlimit="10" stroke-width="6"/>
    <line x1="1621.215" y1="823.761" x2="1667.78" y2="751.37" fill="none" stroke="#000" stroke-linecap="round" stroke-miterlimit="10" stroke-width="6"/>
    <line x1="1674.041" y1="833.152" x2="1712.78" y2="783.065" fill="none" stroke="#000" stroke-linecap="round" stroke-miterlimit="10" stroke-width="6"/>
    <line x1="1695.563" y1="881.283" x2="1753.867" y2="818.674" fill="none" stroke="#000" stroke-linecap="round" stroke-miterlimit="10" stroke-width="6"/>
    <line x1="1746.041" y1="900.065" x2="1792.606" y2="856.63" fill="none" stroke="#000" stroke-linecap="round" stroke-miterlimit="10" stroke-width="6"/>
    <path d="M1811.718,910.982c8.722-6.598,14.931-11.308,14.931-11.308" fill="none" stroke="#000" stroke-linecap="round" stroke-miterlimit="10" stroke-width="6"/>
    <path d="M1756.606,952.109c.606-.242,7.551-5.361,16.852-12.313" fill="none" stroke="#000" stroke-linecap="round" stroke-miterlimit="10" stroke-width="6"/>
    <line x1="1803.563" y1="977.543" x2="1856.78" y2="943.109" fill="none" stroke="#000" stroke-linecap="round" stroke-miterlimit="10" stroke-width="6"/>
    <line x1="1807.476" y1="1029.978" x2="1882.606" y2="990.848" fill="none" stroke="#000" stroke-linecap="round" stroke-miterlimit="10" stroke-width="6"/>
    <line x1="1847.389" y1="1064.022" x2="1904.519" y2="1040.152" fill="none" stroke="#000" stroke-linecap="round" stroke-miterlimit="10" stroke-width="6"/>
    <line x1="1842.302" y1="1117.239" x2="1922.128" y2="1090.63" fill="none" stroke="#000" stroke-linecap="round" stroke-miterlimit="10" stroke-width="6"/>
    <line x1="1875.563" y1="1156.37" x2="1936.215" y2="1141.891" fill="none" stroke="#000" stroke-linecap="round" stroke-miterlimit="10" stroke-width="6"/>
    <line x1="1925.307" y1="1197.814" x2="1943.649" y2="1195.109" fill="none" stroke="#000" stroke-linecap="round" stroke-miterlimit="10" stroke-width="6"/>
    <line x1="1858.736" y1="1207.63" x2="1877.898" y2="1204.805" fill="none" stroke="#000" stroke-linecap="round" stroke-miterlimit="10" stroke-width="6"/>
    <line x1="1947.302" y1="1247.935" x2="1885.476" y2="1250.543" fill="none" stroke="#000" stroke-linecap="round" stroke-miterlimit="10" stroke-width="6"/>
    <line x1="1944.954" y1="1300.109" x2="1862.519" y2="1298.283" fill="none" stroke="#000" stroke-linecap="round" stroke-miterlimit="10" stroke-width="6"/>
    <path d="M1940.519,1353.326c-1.043,0-60.261-6.783-60.261-6.783" fill="none" stroke="#000" stroke-linecap="round" stroke-miterlimit="10" stroke-width="6"/>
    <line x1="1929.823" y1="1405.761" x2="1848.432" y2="1388.543" fill="none" stroke="#000" stroke-linecap="round" stroke-miterlimit="10" stroke-width="6"/>
    <path d="M1913.91,1456.63c-.783,0-57.913-18.261-57.913-18.261" fill="none" stroke="#000" stroke-linecap="round" stroke-miterlimit="10" stroke-width="6"/>
    <line x1="1499.91" y1="741.587" x2="1519.476" y2="682.5" fill="none" stroke="#000" stroke-linecap="round" stroke-miterlimit="10" stroke-width="6"/>
    <path d="M1447.476,751.37c1.174-2.348,18.391-82.957,18.391-82.957" fill="none" stroke="#000" stroke-linecap="round" stroke-miterlimit="10" stroke-width="6"/>
    <path d="M1403.258,720.065c.783-1.957,8.609-61.435,8.609-61.435" fill="none" stroke="#000" stroke-linecap="round" stroke-miterlimit="10" stroke-width="6"/>
    <path d="M1353.171,740.022c-.391-1.565,2.739-86.87,2.739-86.87" fill="none" stroke="#000" stroke-linecap="round" stroke-miterlimit="10" stroke-width="6"/>
    <line x1="1112.84" y1="763.758" x2="1087.381" y2="705.928" fill="none" stroke="#000" stroke-linecap="round" stroke-miterlimit="10" stroke-width="6"/>
    <line x1="1079.814" y1="805.034" x2="1038.3" y2="729.632" fill="none" stroke="#000" stroke-linecap="round" stroke-miterlimit="10" stroke-width="6"/>
    <line x1="1026.47" y1="810.796" x2="991.241" y2="758.181" fill="none" stroke="#000" stroke-linecap="round" stroke-miterlimit="10" stroke-width="6"/>
    <line x1="956.603" y1="801.731" x2="947.819" y2="790.902" fill="none" stroke="#000" stroke-linecap="round" stroke-miterlimit="10" stroke-width="6"/>
    <line x1="1001.712" y1="857.345" x2="988.839" y2="841.474" fill="none" stroke="#000" stroke-linecap="round" stroke-miterlimit="10" stroke-width="6"/>
    <line x1="950.07" y1="872.637" x2="906.579" y2="826.125" fill="none" stroke="#000" stroke-linecap="round" stroke-miterlimit="10" stroke-width="6"/>
    <line x1="883.87" y1="944.834" x2="833.128" y2="906.846" fill="none" stroke="#000" stroke-linecap="round" stroke-miterlimit="10" stroke-width="6"/>
    <line x1="876.778" y1="997.661" x2="804.494" y2="953.493" fill="none" stroke="#000" stroke-linecap="round" stroke-miterlimit="10" stroke-width="6"/>
    <line x1="833.459" y1="1028.509" x2="778.092" y2="1000.794" fill="none" stroke="#000" stroke-linecap="round" stroke-miterlimit="10" stroke-width="6"/>
    <line x1="773.533" y1="1055.731" x2="761.382" y2="1050.735" fill="none" stroke="#000" stroke-linecap="round" stroke-miterlimit="10" stroke-width="6"/>
    <line x1="839.205" y1="1082.732" x2="819.676" y2="1074.703" fill="none" stroke="#000" stroke-linecap="round" stroke-miterlimit="10" stroke-width="6"/>
    <line x1="799.829" y1="1119.109" x2="740.307" y2="1100.523" fill="none" stroke="#000" stroke-linecap="round" stroke-miterlimit="10" stroke-width="6"/>
    <line x1="720.049" y1="1206.345" x2="781.552" y2="1213.169" fill="none" stroke="#000" stroke-linecap="round" stroke-miterlimit="10" stroke-width="6"/>
    <line x1="717.655" y1="1258.949" x2="800.022" y2="1262.755" fill="none" stroke="#000" stroke-linecap="round" stroke-miterlimit="10" stroke-width="6"/>
    <path d="M718.446,1312.345c1.041.071,60.583-2.652,60.583-2.652" fill="none" stroke="#000" stroke-linecap="round" stroke-miterlimit="10" stroke-width="6"/>
    <line x1="793.515" y1="1355.954" x2="814.565" y2="1352.985" fill="none" stroke="#000" stroke-linecap="round" stroke-miterlimit="10" stroke-width="6"/>
    <line x1="725.145" y1="1365.779" x2="741.521" y2="1363.469" fill="none" stroke="#000" stroke-linecap="round" stroke-miterlimit="10" stroke-width="6"/>
    <path d="M737.156,1417.616c.781.053,59.025-14.264,59.025-14.264" fill="none" stroke="#000" stroke-linecap="round" stroke-miterlimit="10" stroke-width="6"/>
    <line x1="1206.446" y1="731.334" x2="1190.961" y2="671.049" fill="none" stroke="#000" stroke-linecap="round" stroke-miterlimit="10" stroke-width="6"/>
    <path d="M1247.252,673.482c-1.113-7.71-1.845-12.827-1.845-12.827" fill="none" stroke="#000" stroke-linecap="round" stroke-miterlimit="10" stroke-width="6"/>
    <path d="M1258.091,744.674c-.297-.712-1.515-8.261-3.087-18.568" fill="none" stroke="#000" stroke-linecap="round" stroke-miterlimit="10" stroke-width="6"/>
    <path d="M1304.342,716.462c-.647-2.005-4.394-61.879-4.394-61.879" fill="none" stroke="#000" stroke-linecap="round" stroke-miterlimit="10" stroke-width="6"/>
    <path d="M1352.95,739.791c.497-1.535,3.198-86.854,3.198-86.854" fill="none" stroke="#000" stroke-linecap="round" stroke-miterlimit="10" stroke-width="6"/>
    <line x1="864.432" y1="862.5" x2="929.389" y2="919.63" fill="none" stroke="#000" stroke-linecap="round" stroke-miterlimit="10" stroke-width="6"/>
    <line x1="722.389" y1="1151.283" x2="806.128" y2="1168.891" fill="none" stroke="#000" stroke-linecap="round" stroke-miterlimit="10" stroke-width="6"/>
    <line x1="1137.823" y1="684.196" x2="1165.476" y2="765.587" fill="none" stroke="#000" stroke-linecap="round" stroke-miterlimit="10" stroke-width="6"/>
    <line x1="748.084" y1="1468.37" x2="826.345" y2="1443.326" fill="none" stroke="#000" stroke-linecap="round" stroke-miterlimit="10" stroke-width="6"/>
    <line x1="768.432" y1="1517.413" x2="822.693" y2="1494.457" fill="none" stroke="#000" stroke-linecap="round" stroke-miterlimit="10" stroke-width="6"/>
    <line x1="791.91" y1="1564.37" x2="863.91" y2="1526.283" fill="none" stroke="#000" stroke-linecap="round" stroke-miterlimit="10" stroke-width="6"/>
    <line x1="820.084" y1="1609.761" x2="870.693" y2="1576.891" fill="none" stroke="#000" stroke-linecap="round" stroke-miterlimit="10" stroke-width="6"/>
    <line x1="905.598" y1="1609.007" x2="917.649" y2="1599.848" fill="none" stroke="#000" stroke-linecap="round" stroke-miterlimit="10" stroke-width="6"/>
    <line x1="852.432" y1="1649.413" x2="864.893" y2="1639.942" fill="none" stroke="#000" stroke-linecap="round" stroke-miterlimit="10" stroke-width="6"/>
    <line x1="886.867" y1="1691.152" x2="930.693" y2="1649.935" fill="none" stroke="#000" stroke-linecap="round" stroke-miterlimit="10" stroke-width="6"/>
    <path d="M925.476,1726.63c1.565-1.565,54.783-60.522,54.783-60.522" fill="none" stroke="#000" stroke-linecap="round" stroke-miterlimit="10" stroke-width="6"/>
    <line x1="966.693" y1="1757.935" x2="1002.171" y2="1711.5" fill="none" stroke="#000" stroke-linecap="round" stroke-miterlimit="10" stroke-width="6"/>
    <path d="M1011.041,1786.63c1.565-2.087,43.304-67.304,43.304-67.304" fill="none" stroke="#000" stroke-linecap="round" stroke-miterlimit="10" stroke-width="6"/>
    <line x1="1057.997" y1="1811.674" x2="1083.563" y2="1760.543" fill="none" stroke="#000" stroke-linecap="round" stroke-miterlimit="10" stroke-width="6"/>
    <line x1="1130.933" y1="1769.677" x2="1229.128" y2="1529.413" fill="none" stroke="#000" stroke-linecap="round" stroke-miterlimit="10" stroke-width="6"/>
    <line x1="1106.519" y1="1829.413" x2="1110.995" y2="1818.462" fill="none" stroke="#000" stroke-linecap="round" stroke-miterlimit="10" stroke-width="6"/>
    <line x1="1155.563" y1="1850.283" x2="1172.78" y2="1793.413" fill="none" stroke="#000" stroke-linecap="round" stroke-miterlimit="10" stroke-width="6"/>
    <line x1="1206.171" y1="1859.152" x2="1222.345" y2="1785.587" fill="none" stroke="#000" stroke-linecap="round" stroke-miterlimit="10" stroke-width="6"/>
    <line x1="1257.823" y1="1869.587" x2="1264.084" y2="1812.196" fill="none" stroke="#000" stroke-linecap="round" stroke-miterlimit="10" stroke-width="6"/>
    <line x1="1309.997" y1="1872.196" x2="1312.084" y2="1795.5" fill="none" stroke="#000" stroke-linecap="round" stroke-miterlimit="10" stroke-width="6"/>
    <line x1="1362.171" y1="1872.717" x2="1360.084" y2="1815.848" fill="none" stroke="#000" stroke-linecap="round" stroke-miterlimit="10" stroke-width="6"/>
    <line x1="1406.122" y1="1802.91" x2="1404.432" y2="1788.196" fill="none" stroke="#000" stroke-linecap="round" stroke-miterlimit="10" stroke-width="6"/>
    <line x1="1413.302" y1="1865.413" x2="1411.757" y2="1851.965" fill="none" stroke="#000" stroke-linecap="round" stroke-miterlimit="10" stroke-width="6"/>
    <line x1="1466.519" y1="1858.109" x2="1453.997" y2="1802.283" fill="none" stroke="#000" stroke-linecap="round" stroke-miterlimit="10" stroke-width="6"/>
    <line x1="1516.606" y1="1844.022" x2="1492.084" y2="1770.457" fill="none" stroke="#000" stroke-linecap="round" stroke-miterlimit="10" stroke-width="6"/>
    <line x1="1566.171" y1="1826.283" x2="1543.215" y2="1774.109" fill="none" stroke="#000" stroke-linecap="round" stroke-miterlimit="10" stroke-width="6"/>
    <line x1="1613.128" y1="1802.804" x2="1576.084" y2="1736.022" fill="none" stroke="#000" stroke-linecap="round" stroke-miterlimit="10" stroke-width="6"/>
    <line x1="1658.519" y1="1779.326" x2="1627.215" y2="1731.326" fill="none" stroke="#000" stroke-linecap="round" stroke-miterlimit="10" stroke-width="6"/>
    <line x1="1662.249" y1="1697.872" x2="1651.736" y2="1684.891" fill="none" stroke="#000" stroke-linecap="round" stroke-miterlimit="10" stroke-width="6"/>
    <line x1="1702.867" y1="1748.022" x2="1692.864" y2="1735.672" fill="none" stroke="#000" stroke-linecap="round" stroke-miterlimit="10" stroke-width="6"/>
    <line x1="1741.476" y1="1714.109" x2="1702.345" y2="1672.891" fill="none" stroke="#000" stroke-linecap="round" stroke-miterlimit="10" stroke-width="6"/>
    <line x1="1779.563" y1="1678.109" x2="1720.606" y2="1625.935" fill="none" stroke="#000" stroke-linecap="round" stroke-miterlimit="10" stroke-width="6"/>
    <line x1="1813.476" y1="1639.5" x2="1767.041" y2="1604.543" fill="none" stroke="#000" stroke-linecap="round" stroke-miterlimit="10" stroke-width="6"/>
    <line x1="1846.867" y1="1596.717" x2="1776.954" y2="1554.457" fill="none" stroke="#000" stroke-linecap="round" stroke-miterlimit="10" stroke-width="6"/>
    <line x1="1871.91" y1="1551.326" x2="1818.171" y2="1524.717" fill="none" stroke="#000" stroke-linecap="round" stroke-miterlimit="10" stroke-width="6"/>
    <line x1="1831.934" y1="1478.828" x2="1818.693" y2="1473.587" fill="none" stroke="#000" stroke-linecap="round" stroke-miterlimit="10" stroke-width="6"/>
    <line x1="1893.823" y1="1503.326" x2="1880.132" y2="1497.906" fill="none" stroke="#000" stroke-linecap="round" stroke-miterlimit="10" stroke-width="6"/>
    <rect x="1282.362" y="655.432" width="90.267" height="90.267" rx="15.665" ry="15.665" transform="translate(884.189 -733.49) rotate(45)" fill="none" stroke="#000" stroke-linecap="round" stroke-miterlimit="10" stroke-width="6"/>
    <path d="M1324.377,567.922l-28.412,43.74c-1.597,2.458.167,5.707,3.098,5.707h56.824c2.931,0,4.695-3.249,3.098-5.707l-28.412-43.74c-1.457-2.243-4.74-2.243-6.197,0Z" fill="none" stroke="#000" stroke-linecap="round" stroke-miterlimit="10" stroke-width="6"/>
    <rect x="1292.516" y="1786.106" width="90.267" height="90.267" rx="15.665" ry="15.665" transform="translate(1686.67 -409.503) rotate(45)" fill="none" stroke="#000" stroke-linecap="round" stroke-miterlimit="10" stroke-width="6"/>
    <line x1="1336.606" y1="1897.239" x2="1336.606" y2="1958.804" fill="none" stroke="#000" stroke-linecap="round" stroke-miterlimit="10" stroke-width="6"/>
    <line x1="1369.476" y1="1929.065" x2="1306.345" y2="1929.065" fill="none" stroke="#000" stroke-linecap="round" stroke-miterlimit="10" stroke-width="6"/>
    <line x1="975.171" y1="1332.457" x2="1110.171" y2="994.37" fill="none" stroke="#000" stroke-linecap="round" stroke-miterlimit="10" stroke-width="6"/>
    <path d="M1109.734,1036.598c.128.047.264-.047.265-.184l.278-43.437c.001-.184-.229-.269-.348-.128l-27.967,33.237c-.088.104-.045.264.083.312" fill="none" stroke="#000" stroke-linecap="round" stroke-miterlimit="10" stroke-width="6"/>
    <line x1="1434.171" y1="1034.283" x2="1532.14" y2="792.665" fill="none" stroke="#000" stroke-linecap="round" stroke-miterlimit="10" stroke-width="6"/>
    <path d="M1531.703,834.893c.128.047.264-.047.265-.184l.278-43.437c.001-.184-.229-.269-.348-.128l-27.967,33.237c-.088.104-.045.264.083.312" fill="none" stroke="#000" stroke-linecap="round" stroke-miterlimit="10" stroke-width="6"/>
    <path d="M1558.951,615.833l13.752,70.721c.49,2.519,3.334,3.783,5.533,2.46l61.721-37.163" fill="none" stroke="#000" stroke-linecap="round" stroke-miterlimit="10" stroke-width="6"/>
    <path d="M1624.08,1376.561c9.537-22.371,17.483-40.974,17.483-40.974" fill="none" stroke="#000" stroke-linecap="round" stroke-miterlimit="10" stroke-width="6"/>
    <path d="M1591.867,1452.587c.16-.625,8.864-20.674,18.783-43.435" fill="none" stroke="#000" stroke-linecap="round" stroke-miterlimit="10" stroke-width="6"/>
    <line x1="1070.161" y1="1175.203" x2="1019.389" y2="1154.804" fill="none" stroke="#000" stroke-linecap="round" stroke-miterlimit="10" stroke-width="6"/>
    <line x1="1217.551" y1="1234.419" x2="1159.026" y2="1210.906" fill="none" stroke="#000" stroke-linecap="round" stroke-miterlimit="10" stroke-width="6"/>
    <line x1="1499.458" y1="1347.678" x2="1445.987" y2="1326.196" fill="none" stroke="#000" stroke-linecap="round" stroke-miterlimit="10" stroke-width="6"/>
    <line x1="1640.78" y1="1404.457" x2="1583.131" y2="1381.295" fill="none" stroke="#000" stroke-linecap="round" stroke-miterlimit="10" stroke-width="6"/>
    <line x1="1333.215" y1="1366.109" x2="1333.215" y2="1196.283" fill="none" stroke="#000" stroke-linecap="round" stroke-miterlimit="10" stroke-width="6"/>
    <line x1="1405.215" y1="1265.935" x2="1261.215" y2="1265.935" fill="none" stroke="#000" stroke-linecap="round" stroke-miterlimit="10" stroke-width="6"/>
    <line x1="1350.432" y1="1355.935" x2="1318.345" y2="1355.935" fill="none" stroke="#000" stroke-linecap="round" stroke-miterlimit="10" stroke-width="6"/>
    <path d="M1481.449,1322.561c9.537-22.371,17.483-40.974,17.483-40.974" fill="none" stroke="#000" stroke-linecap="round" stroke-miterlimit="10" stroke-width="6"/>
    <path d="M1449.236,1398.587c.16-.625,8.864-20.674,18.783-43.435" fill="none" stroke="#000" stroke-linecap="round" stroke-miterlimit="10" stroke-width="6"/>
    <path d="M1196.188,1203.996c9.537-22.371,17.483-40.974,17.483-40.974" fill="none" stroke="#000" stroke-linecap="round" stroke-miterlimit="10" stroke-width="6"/>
    <path d="M1163.976,1280.022c.16-.625,8.864-20.674,18.783-43.435" fill="none" stroke="#000" stroke-linecap="round" stroke-miterlimit="10" stroke-width="6"/>
    <g>
      <rect x="1273.48" y="2008.487" width="134.609" height="61.97" fill="none"/>
      <path d="M1334.002,2039.152c2.177,2.025,3.539,4.914,3.539,8.114v4.337c0,6.085-4.953,11.038-11.038,11.038h-16.698c-1.809,0-3.274-1.466-3.274-3.274v-36.691c0-1.809,1.466-3.274,3.274-3.274h16.352c3.33,0,6.401,1.656,8.21,4.437,1.045,1.535,1.613,3.431,1.613,5.43v4.12c0,2.39-.794,4.303-1.982,5.765h.005ZM1313.084,2025.958v10.235h13.675c.755-.144,2.676-.712,2.676-2.802v-4.12c0-.694-.178-1.297-.521-1.805-.642-.984-1.635-1.518-2.758-1.518h-13.077l.005.009ZM1330.991,2047.271c0-2.325-1.761-4.246-4.016-4.507-.174.018-.347.018-.517.018h-13.38v13.315h13.424c2.477,0,4.488-2.018,4.488-4.489v-4.337Z"/>
      <path d="M1373.583,2019.908c1.506,1.007,1.909,3.036.907,4.541l-11.676,17.522v17.353c0,1.809-1.466,3.274-3.274,3.274s-3.274-1.466-3.274-3.274v-17.353l-11.68-17.522c-1.002-1.505-.599-3.539.906-4.541,1.509-1.006,3.534-.603,4.541.906l9.507,14.261,9.503-14.261c1.006-1.505,3.031-1.908,4.54-.91v.004Z"/>
    </g>
    <g>
      <rect x="619.869" y="497.551" width="134.609" height="61.97" fill="none"/>
      <path d="M665.174,524.803c0,2.242-.902,4.428-2.473,6.002-1.439,1.436-3.313,2.251-5.33,2.411l7.403,13.614c.863,1.588.273,3.574-1.314,4.438-.494.272-1.032.398-1.557.398-1.162,0-2.286-.62-2.88-1.713l-9.069-16.676h-9.237v15.11c0,1.809-1.466,3.274-3.274,3.274s-3.274-1.466-3.274-3.274v-36.692c0-1.809,1.466-3.274,3.274-3.274h19.252c2.238,0,4.424.902,5.998,2.473,1.605,1.604,2.481,3.738,2.481,6.007v7.902ZM658.624,516.896c0-.542-.19-1.002-.559-1.375-.348-.342-.863-.555-1.371-.555h-15.982v11.758h15.982c.538,0,.998-.19,1.371-.563.351-.348.559-.859.559-1.366v-7.898Z"/>
      <path d="M702.682,511.696v36.692c0,1.444-.946,2.715-2.325,3.136-.316.091-.633.139-.949.139-1.076,0-2.104-.529-2.725-1.457l-18.463-27.692v25.875c0,1.809-1.466,3.274-3.274,3.274s-3.274-1.466-3.274-3.274v-36.692c0-1.444.945-2.715,2.325-3.136,1.37-.416,2.871.117,3.673,1.318l18.463,27.692v-25.875c0-1.809,1.467-3.274,3.275-3.274s3.274,1.466,3.274,3.274Z"/>
      <path d="M740.056,529.956l.131,10.365c0,3.084-1.245,6.042-3.418,8.158-2.056,1.995-4.896,3.14-7.794,3.14h-7.894c-2.472,0-4.9-.828-6.831-2.342l-.707-.538c-2.771-2.095-4.367-5.325-4.367-8.852v-19.733c0-3.47,1.64-6.783,4.381-8.856l.729-.556c1.899-1.487,4.324-2.32,6.796-2.32h8.675c2.189,0,4.332.655,6.193,1.896l2.606,1.739c1.505,1.006,1.908,3.036.906,4.541-1.002,1.509-3.031,1.908-4.541.906l-2.603-1.739c-.78-.521-1.665-.794-2.562-.794h-8.675c-1.032,0-1.995.33-2.797.954l-.772.59c-1.128.846-1.791,2.208-1.791,3.64v19.733c0,1.457.646,2.78,1.778,3.635l.75.572c.828.65,1.796.98,2.828.98h7.894c1.21,0,2.385-.473,3.227-1.288.924-.898,1.436-2.112,1.436-3.418l-.091-7.091h-7.481c-1.809,0-3.274-1.466-3.274-3.274s1.466-3.275,3.274-3.275h10.712c1.792,0,3.253,1.44,3.275,3.231l.008-.004Z"/>
    </g>
    <g>
      <rect x="569.138" y="556.194" width="226.425" height="77.784" fill="none"/>
      <path d="M634.196,580.22v33.812c0,5.751-5.066,10.423-11.298,10.423h-16.578c-6.336,0-11.299-4.579-11.299-10.423v-33.812c0-5.75,5.066-10.423,11.299-10.423h16.578c6.231,0,11.298,4.673,11.298,10.423ZM625.935,580.22c0-1.192-1.362-2.166-3.036-2.166h-16.578c-1.74,0-3.037,1.144-3.037,2.166v33.812c0,1.193,1.362,2.167,3.037,2.167h16.578c1.739,0,3.036-1.144,3.036-2.167v-33.812Z"/>
      <path d="M677.46,616.183c2.282,0,4.131,1.85,4.131,4.131s-1.849,4.131-4.131,4.131h-30.912c-.569,0-1.116-.12-1.608-.328-.033-.011-.055-.044-.088-.061-.476-.213-.902-.509-1.259-.875-.016-.017-.038-.022-.055-.038-.147-.153-.208-.351-.322-.521-.181-.257-.378-.497-.492-.793-.115-.301-.143-.613-.187-.93-.033-.203-.12-.378-.12-.586,0-.021.011-.044.011-.065.006-.34.109-.662.197-.99.055-.191.06-.405.137-.586.071-.169.213-.306.312-.465.181-.301.355-.607.607-.854.017-.017.038-.055.038-.055l23.526-22.049c3.557-3.344,5.499-6.965,5.329-9.937-.114-2.079-1.264-3.9-3.496-5.563-1.504-1.111-3.649-1.702-6.177-1.702-4.875,0-8.688.832-11.479,4.886-1.292,1.888-3.857,2.358-5.745,1.067-1.877-1.291-2.353-3.863-1.062-5.745,5.821-8.464,14.876-8.464,18.285-8.464,4.306,0,8.142,1.148,11.096,3.321,5.318,3.966,6.647,8.567,6.828,11.735.312,5.493-2.5,11.325-7.928,16.431l-15.91,14.914h20.468l.005-.011Z"/>
      <path d="M725.044,595.419c2.539,2.539,3.939,5.909,3.939,9.482v3.884c0,4.969-2.363,9.685-6.319,12.623-2.675,2.024-5.941,3.107-9.41,3.107h-3.447c-3.135,0-12.452-1.74-15.746-3.393l-1.882-.886c-2.062-.975-2.943-3.437-1.97-5.499.974-2.068,3.431-2.938,5.498-1.97l1.97.931c1.828.913,9.712,2.561,12.136,2.561h3.447c1.651,0,3.189-.51,4.453-1.461,1.92-1.434,3.009-3.617,3.009-6.014v-3.884c0-1.368-.541-2.659-1.526-3.645l-.662-.662c-.787-.793-1.876-1.247-2.981-1.247h-8.152c-1.592,0-3.048-.919-3.731-2.363s-.476-3.146.536-4.383l11.884-14.543h-16.402c-2.282,0-4.131-1.849-4.131-4.131s1.849-4.131,4.131-4.131h25.112c1.593,0,3.048.92,3.731,2.364.685,1.438.477,3.146-.536,4.382l-11.895,14.554c3.092.137,6.084,1.456,8.284,3.655l.661.662v.005Z"/>
      <path d="M745.467,623.331v.114c0,2.282-1.849,4.131-4.131,4.131s-4.131-1.849-4.131-4.131,1.85-4.19,4.131-4.19,4.131,1.795,4.131,4.076Z"/>
      <path d="M765.778,616.254c2.161.137,3.885,1.888,3.885,4.081,0,2.282-1.85,4.131-4.131,4.131h-7.715c-2.281,0-4.131-1.849-4.131-4.131,0-2.177,1.696-3.906,3.83-4.07v-37.04c-.673-.312-1.285-.767-1.724-1.434-1.253-1.904-.728-4.471,1.177-5.723l2.407-1.587c.104-.071.229-.077.339-.137.241-.132.487-.225.756-.307.278-.088.541-.147.826-.17.12-.011.224-.071.35-.071.137,0,.252.066.389.077.284.027.558.082.832.17.251.082.481.175.705.295.23.12.438.263.646.433.225.181.411.377.591.596.088.109.208.17.285.29.071.104.076.23.137.34.131.24.225.492.307.76.082.274.142.536.164.815.011.126.071.23.071.355v42.32l.005.006Z"/>
    </g>
    <g>
      <rect x="1891.258" y="484.985" width="134.609" height="61.97" fill="none"/>
      <path d="M1931.495,530.075c1.527-.967,3.548-.529,4.523.998.977,1.526.529,3.548-.997,4.523l-2.516,1.604c-2.073,1.279-4.363,1.943-6.662,1.943h-8.023c-2.732,0-5.404-.906-7.521-2.56-2.979-2.276-4.775-5.924-4.775-9.736v-18.654c0-3.812,1.792-7.46,4.797-9.754,2.095-1.631,4.767-2.537,7.499-2.537h8.023c2.395,0,4.706.677,6.684,1.956l2.498,1.592c1.522.976,1.97,2.997.998,4.523-.976,1.518-2.997,1.969-4.523.998l-2.516-1.605c-.933-.606-2.013-.919-3.141-.919h-8.023c-1.279,0-2.524.416-3.495,1.175-1.419,1.085-2.251,2.789-2.251,4.571v18.654c0,1.782.832,3.487,2.229,4.554.998.772,2.242,1.193,3.522,1.193h8.023c1.084,0,2.182-.326,3.179-.946l2.477-1.578-.009.004Z"/>
      <path d="M1974.035,512.237c0,2.242-.902,4.428-2.473,6.002-1.439,1.436-3.313,2.251-5.33,2.411l7.403,13.614c.863,1.588.273,3.574-1.314,4.438-.494.272-1.032.398-1.557.398-1.162,0-2.286-.62-2.88-1.713l-9.069-16.676h-9.237v15.11c0,1.809-1.466,3.274-3.274,3.274s-3.274-1.466-3.274-3.274v-36.692c0-1.809,1.466-3.274,3.274-3.274h19.252c2.238,0,4.424.902,5.998,2.473,1.605,1.604,2.481,3.738,2.481,6.007v7.902ZM1967.485,504.33c0-.542-.19-1.002-.559-1.375-.348-.342-.863-.555-1.371-.555h-15.982v11.758h15.982c.538,0,.998-.19,1.371-.563.351-.348.559-.859.559-1.366v-7.898Z"/>
      <path d="M2008.329,517.546c2.099,2.104,3.257,4.892,3.257,7.867v1.995c0,3.452-1.652,6.762-4.424,8.856l-.98.702c-1.887,1.388-4.241,2.173-6.592,2.173h-7.243c-2.178,0-4.298-.638-6.133-1.843l-2.619-1.739c-1.51-1.007-1.913-3.036-.915-4.541,1.006-1.51,3.035-1.908,4.54-.915l2.607,1.73c.737.49,1.639.759,2.523.759h7.243c.963,0,1.935-.325,2.741-.924l.95-.681c1.071-.807,1.752-2.169,1.752-3.578v-1.995c0-1.224-.481-2.368-1.345-3.235s-2.013-1.345-3.231-1.345h-8.804c-2.971,0-5.769-1.158-7.868-3.253-2.099-2.107-3.257-4.9-3.257-7.867v-2.689c0-2.971,1.158-5.764,3.257-7.867,2.1-2.1,4.893-3.257,7.868-3.257h8.153c2.208,0,4.337.637,6.154,1.847l2.603,1.739c1.505,1.002,1.908,3.041.906,4.541-1.002,1.501-3.027,1.922-4.541.902l-2.602-1.734c-.737-.49-1.609-.751-2.521-.751h-8.153c-1.224,0-2.377.478-3.235,1.341-.868.867-1.345,2.021-1.345,3.239v2.689c0,1.219.481,2.372,1.345,3.239.858.863,2.012,1.336,3.235,1.336h8.804c2.967,0,5.76,1.158,7.863,3.258h.005Z"/>
    </g>
    <g>
      <rect x="1840.526" y="543.628" width="226.425" height="77.784" fill="none"/>
      <path d="M1925.983,567.766v33.758c0,5.75-5.061,10.423-11.293,10.423h-16.529c-6.227,0-11.293-4.673-11.293-10.423v-33.758c0-5.75,5.062-10.423,11.293-10.423h16.529c6.227,0,11.293,4.673,11.293,10.423ZM1917.727,567.766c0-1.177-1.391-2.167-3.037-2.167h-16.529c-1.738,0-3.035,1.144-3.035,2.167v33.758c0,1.154,1.416,2.167,3.035,2.167h16.529c1.74,0,3.037-1.144,3.037-2.167v-33.758Z"/>
      <path d="M1973.296,567.766v33.758c0,5.75-5.061,10.423-11.291,10.423h-16.529c-6.227,0-11.293-4.673-11.293-10.423v-33.758c0-5.75,5.061-10.423,11.293-10.423h16.529c6.225,0,11.291,4.673,11.291,10.423ZM1965.04,567.766c0-1.177-1.389-2.167-3.035-2.167h-16.529c-1.74,0-3.037,1.144-3.037,2.167v33.758c0,1.154,1.418,2.167,3.037,2.167h16.529c1.738,0,3.035-1.144,3.035-2.167v-33.758Z"/>
      <path d="M2020.61,567.766v33.758c0,5.75-5.061,10.423-11.293,10.423h-16.529c-6.227,0-11.293-4.673-11.293-10.423v-33.758c0-5.75,5.062-10.423,11.293-10.423h16.529c6.227,0,11.293,4.673,11.293,10.423ZM2012.354,567.766c0-1.177-1.391-2.167-3.037-2.167h-16.529c-1.738,0-3.035,1.144-3.035,2.167v33.758c0,1.154,1.416,2.167,3.035,2.167h16.529c1.74,0,3.037-1.144,3.037-2.167v-33.758Z"/>
    </g>
  </g>
  <g id="d" data-name="NAV_TACAN_Arrows_-_Light">
    <path d="M1612.168,925.02l2.998-19.545,781.15,147.402c1.166,30.739,19.739,59.561,49.927,72.213,41.454,17.374,89.313-2.217,106.686-43.67,17.374-41.454-2.217-89.313-43.671-106.687-41.453-17.373-89.312,2.217-106.686,43.671-2.872,6.853-4.714,13.882-5.633,20.919l-779.723-147.214,2.998-19.545-115.609,9.11,107.562,43.346ZM2413.783,1023.103c14.807-35.329,55.449-51.965,90.778-37.159,35.329,14.807,51.965,55.449,37.159,90.778-14.807,35.329-55.449,51.965-90.778,37.159-35.329-14.807-51.965-55.449-37.159-90.778Z" stroke="#fff" stroke-miterlimit="10" stroke-width="4"/>
    <path d="M1518.931,1469.539l18.093-7.98,411.213,854.74c-36.846,20.023-52.842,65.432-35.624,104.471,18.138,41.125,66.352,59.826,107.477,41.687,41.124-18.138,59.825-66.352,41.687-107.477-17.218-39.039-61.537-57.846-101.168-44.138l-411.212-854.74,18.093-7.98-69.835-92.582,21.278,113.999ZM1959.205,2324.415c35.049-15.458,75.993.423,91.451,35.471,15.458,35.049-.423,75.993-35.471,91.451-35.049,15.458-75.993-.423-91.451-35.471-15.458-35.049.423-75.993,35.471-91.451Z" stroke="#fff" stroke-miterlimit="10" stroke-width="4"/>
    <path d="M776.947,405.177l-18.738-6.317,85.572-221.348c30.481,4.141,62.07-9.194,79.728-36.755,24.248-37.845,13.187-88.362-24.658-112.61-37.845-24.248-88.362-13.187-112.61,24.659-24.248,37.845-13.186,88.361,24.659,112.61,6.257,4.009,12.864,7.032,19.637,9.149l-85.141,219.975-18.738-6.317-10.922,115.452,61.211-98.497ZM817.457,155.181c-32.254-20.666-41.647-63.565-20.982-95.819,20.666-32.254,63.565-41.647,95.819-20.982,32.254,20.666,41.647,63.565,20.982,95.819-20.666,32.254-63.565,41.647-95.819,20.982Z" stroke="#fff" stroke-miterlimit="10" stroke-width="4"/>
    <path d="M1229.403,2153.788l18.197,7.738-70.657,147.761c-39.811-13.178-83.875,6.218-100.571,45.483-17.588,41.363,1.754,89.323,43.116,106.912,41.362,17.588,89.323-1.754,106.911-43.117,16.696-39.265.097-84.457-37.013-103.987l70.657-147.761,18.197,7.738,19.757-114.272-68.595,93.505ZM1178.527,2322.839c35.252,14.99,51.677,55.718,36.687,90.97-14.99,35.252-55.718,51.677-90.97,36.687-35.252-14.99-51.677-55.718-36.687-90.97,14.99-35.252,55.718-51.677,90.97-36.687Z" stroke="#fff" stroke-miterlimit="10" stroke-width="4"/>
    <path d="M886.502,1208.225l-4.485,19.259-711.302-147.038c6.118-41.487-20.584-81.547-62.139-91.225-43.776-10.195-87.684,17.126-97.878,60.901-10.194,43.775,17.126,87.683,60.901,97.878,41.556,9.678,83.209-14.464,96.049-54.385l711.302,147.038-4.485,19.259,115.967-.238-103.93-51.449ZM157.638,1084.343c-8.688,37.308-45.976,60.509-83.283,51.82-37.308-8.688-60.509-45.976-51.82-83.283,8.688-37.308,45.976-60.509,83.283-51.82,37.308,8.688,60.509,45.976,51.82,83.283Z" stroke="#fff" stroke-miterlimit="10" stroke-width="4"/>
    <path d="M1623.391,671.952l113.604,23.292-.566-19.766,659.593,5.706c.045,7.097,1.006,14.299,3.012,21.454,12.131,43.279,57.21,68.62,100.488,56.49,43.279-12.131,68.62-57.21,56.489-100.489-12.131-43.278-57.21-68.619-100.489-56.489-31.517,8.834-53.502,35.147-58.449,65.508l-661.032-5.695-.566-19.766-112.085,29.756ZM2458.802,613.852c36.885-10.338,75.167,11.181,85.505,48.066,10.338,36.885-11.181,75.167-48.066,85.505s-75.167-11.181-85.505-48.066c-10.338-36.885,11.181-75.167,48.066-85.505Z" stroke="#fff" stroke-miterlimit="10" stroke-width="4"/>
    <path d="M2014.252,389.916l-18.738-6.317,69.985-206.04c30.481,4.141,62.07-9.194,79.728-36.755,24.248-37.845,13.187-88.362-24.658-112.61-37.845-24.248-88.362-13.187-112.61,24.659-24.248,37.845-13.186,88.361,24.659,112.61,6.257,4.009,12.864,7.032,19.637,9.149l-69.554,204.667-18.738-6.317-10.922,115.452,61.211-98.497ZM2039.174,155.228c-32.254-20.666-41.647-63.565-20.982-95.819,20.666-32.254,63.565-41.647,95.819-20.982,32.254,20.666,41.647,63.565,20.982,95.819-20.666,32.254-63.565,41.647-95.819,20.982Z" stroke="#fff" stroke-miterlimit="10" stroke-width="4"/>
    <path d="M1319.91,547.5l12.32-115.311-19.621,2.454-29.887-256.4c7.06-.724,14.137-2.369,21.067-5.05,41.92-16.215,62.834-63.511,46.62-105.431-16.215-41.92-63.511-62.834-105.431-46.619-41.92,16.214-62.833,63.511-46.618,105.431,11.808,30.528,40.103,49.895,70.798,51.915l30.035,257.832-19.621,2.454,40.34,108.725ZM1209.694,122.189c-13.819-35.727,3.941-75.891,39.668-89.71,35.727-13.819,75.891,3.941,89.71,39.668,13.819,35.727-3.941,75.891-39.668,89.71-35.727,13.819-75.891-3.941-89.71-39.668Z" stroke="#fff" stroke-miterlimit="10" stroke-width="4"/>
    <path d="M1319.128,1297.239l-114.707,17.052,7.306,18.375L167.135,1767.144c-2.475-6.651-5.845-13.088-10.182-19.122-26.228-36.501-77.262-44.858-113.763-18.63-36.501,26.228-44.858,77.262-18.63,113.763,26.228,36.5,77.262,44.858,113.763,18.629,26.581-19.1,38.217-51.354,32.459-81.572l1045.939-434.982,7.306,18.375,95.1-66.367ZM131.231,1851.914c-31.108,22.353-74.447,15.256-96.8-15.852-22.353-31.108-15.256-74.447,15.852-96.8,31.108-22.353,74.447-15.256,96.8,15.852,22.353,31.108,15.256,74.447-15.852,96.8Z" stroke="#fff" stroke-miterlimit="10" stroke-width="4"/>
    <path d="M2014.662,1538.091l-.294-19.772,383.749-4.66c6.263,30.117,29.371,55.449,61.243,62.903,43.766,10.237,87.7-17.041,97.937-60.807,10.237-43.766-17.041-87.7-60.807-97.937-43.765-10.236-87.699,17.042-97.936,60.808-1.692,7.236-2.339,14.473-2.075,21.564l-382.311,4.608-.294-19.772-112.483,28.212,113.273,24.852ZM2410.388,1481.394c8.724-37.3,46.034-60.464,83.333-51.74,37.3,8.724,60.464,46.034,51.74,83.333-8.724,37.3-46.034,60.464-83.333,51.74-37.3-8.724-60.464-46.034-51.74-83.333Z" stroke="#fff" stroke-miterlimit="10" stroke-width="4"/>
    <path d="M1178.029,1992.743l12.933,14.958-395.4,321.016c-29.946-29.357-78.049-31.337-110.324-3.43-34,29.398-37.744,80.976-8.346,114.976,29.397,33.999,80.976,37.743,114.976,8.345,32.276-27.907,37.263-75.792,12.539-109.663l395.4-321.016,12.933,14.958,68.04-93.909-102.751,53.765ZM791.019,2341.583c25.054,28.977,21.875,72.777-7.101,97.832-28.977,25.054-72.777,21.875-97.832-7.101-25.054-28.977-21.875-72.777,7.101-97.832,28.977-25.054,72.777-21.875,97.832,7.101Z" stroke="#fff" stroke-miterlimit="10" stroke-width="4"/>
  </g>
  <g id="e" data-name="NAV_TACAN_Steering_Numbers">
    <path d="M2097.188,99.499c-3.065,13.293-17.518,27.749-26.773,33.09l-3.193-5.536c8.214-4.74,21.216-18.045,23.73-28.954.42-1.911.729-3.979.963-6.066-.543.476-1.113.933-1.711,1.371-1.688,1.352-4.953,3.218-7.725,4.011-2.787.795-14.647.847-17.979-.4-3.27-1.227-5.944-2.697-7.958-4.375-2.202-1.834-4.062-4.065-5.522-6.622-1.78-3.11-2.02-6.102-2.02-8.617v-2.876c0-2.704.591-5.337,1.856-8.291l.163-.326c1.461-2.56,3.32-4.788,5.522-6.622,2.011-1.675,4.686-3.145,7.956-4.373,2.658-.997,5.742-1.483,9.432-1.483,3.154,0,6.229.662,9.086,1.375l.346.108c3.27,1.228,5.944,2.698,7.955,4.373,2.201,1.834,4.062,4.062,5.522,6.622,1.78,3.11,2.021,6.102,2.021,8.617.021.448.629,14.456-1.672,24.975ZM2092.464,78.366h.08c-.012-2.228-.076-3.646-.076-3.691-.004-2.585-.332-4.11-1.18-5.59-1.084-1.898-2.451-3.542-4.065-4.887-1.406-1.173-3.455-2.288-5.938-3.234-2.246-.556-4.836-1.138-7.354-1.138-2.909,0-5.258.352-7.188,1.074-2.558.962-4.67,2.1-6.104,3.298-1.572,1.308-2.908,2.899-3.977,4.727-.872,2.081-1.266,3.813-1.266,5.6v2.876c0,2.439.33,3.967,1.176,5.446,1.081,1.892,2.449,3.538,4.066,4.884,1.441,1.202,3.551,2.34,6.107,3.298,1.873.668,12.119.732,13.986.24,1.838-.527,4.334-1.937,5.587-2.937,3.832-2.816,6.149-6.604,6.149-9.969l-.004.003Z" fill="#e3831f" stroke="#e3831f" stroke-miterlimit="10"/>
    <path d="M103.183,1102.668v6.392h-20.455v-6.392h7.031v-65.595l-4.996,4.136-4.074-4.925,10.153-8.403h5.31v74.787h7.031Z" fill="#e3831f" stroke="#e3831f" stroke-miterlimit="10"/>
    <path d="M76.559,1829.248h39.517v6.392h-48.262v-6.369l8.402-9.17c4.404-4.906,8.444-9.403,12.28-13.494,1.904-1.905,3.812-4.133,5.657-6.287,1.927-2.246,9.626-10.911,9.626-10.911.873-.879,1.365-1.499,1.694-1.908.195-.246.361-.444.499-.598.937-1.192,1.723-2.701,2.278-4.369.527-1.582.796-2.848.796-5.382,0-2.177-.45-4.334-1.339-6.412-.809-2.145-2.097-3.691-3.797-5.392-1.94-1.598-3.778-2.749-5.574-3.42-5.14-1.927-8.601-1.924-13.734,0-2.352.882-4.123,1.969-5.577,3.423-1.678,1.679-3.026,3.593-3.797,5.393l-5.874-2.519c1.1-2.567,2.883-5.124,5.152-7.394,2.096-2.093,4.663-3.691,7.853-4.887,6.539-2.461,11.669-2.461,18.225,0,3.27,1.228,5.922,3.267,7.635,4.692,2.097,2.08,4.193,4.452,5.421,7.725,1.18,2.739,1.803,5.744,1.803,8.793,0,3.362-.432,5.324-1.125,7.405-.803,2.41-1.984,4.631-3.413,6.418l-.438.521c-.428.537-1.07,1.34-2.036,2.302.007,0-7.526,8.476-9.422,10.688-1.924,2.244-3.912,4.564-5.919,6.571-3.736,3.985-7.744,8.45-12.117,13.318l-4.41,4.874-.003-.003Z" fill="#e3831f" stroke="#e3831f" stroke-miterlimit="10"/>
    <path d="M1168.474,2403.475h8.629v6.393h-8.629v15.98h-6.393v-15.98h-33.239v-6.958l33.025-55.047h6.603v55.609l.004.003ZM1162.078,2359.931l-26.125,43.541h26.125v-43.541Z" fill="#e3831f" stroke="#e3831f" stroke-miterlimit="10"/>
    <path d="M2005.118,2380.383c1.215,2.839,1.856,5.817,1.856,8.614v15.661c0,2.8-.642,5.775-1.856,8.61-1.183,2.765-3.139,5.414-5.363,7.268-1.713,1.429-4.369,3.465-7.636,4.692-3.282,1.23-6.181,1.803-9.115,1.803-3.34,0-7.518-.723-10.391-1.8-3.189-1.198-5.756-2.797-7.85-4.891-2.014-1.658-3.966-4.308-5.152-7.072-.716-1.419-1.103-2.96-1.441-4.318l-.096-.776v-2.877h6.393v2.483c.259,1.029.511,1.938.939,2.797.879,2.042,2.187,3.819,3.663,5.05,1.668,1.649,3.438,2.736,5.788,3.618,2.154.806,5.583,1.394,8.146,1.394,2.174,0,4.293-.432,6.869-1.396,1.793-.675,3.634-1.822,5.788-3.618,1.473-1.23,2.78-3.011,3.582-4.878.876-2.045,1.34-4.151,1.34-6.092v-15.661c0-1.939-.464-4.046-1.34-6.095-.799-1.866-2.105-3.644-3.582-4.874-1.669-1.646-3.439-2.735-5.788-3.614l-.979-.378c-1.786-.699-2.604-1.02-5.891-1.02-4.008,0-7.22.856-10.109,2.698-2.157,1.349-4.065,3.257-5.398,5.389l-.939,1.502h-8.482v-37.075h48.262v6.393h-41.869v22.615c1.464-1.637,3.157-3.068,5.018-4.231,3.884-2.474,8.316-3.682,13.52-3.682,4.273,0,5.906.553,8.218,1.457l.895.346c3.189,1.195,5.756,2.793,7.85,4.887,2.011,1.658,3.967,4.305,5.152,7.069v.003Z" fill="#e3831f" stroke="#e3831f" stroke-miterlimit="10"/>
    <path d="M2497.153,1502.369c1.78,3.113,2.02,6.104,2.02,8.617v2.876c0,2.704-.591,5.338-1.856,8.291l-.163.326c-1.461,2.561-3.32,4.788-5.522,6.622-2.014,1.679-4.688,3.148-7.956,4.373-2.658.997-5.742,1.482-9.432,1.482-3.157,0-6.232-.661-9.086-1.374l-.346-.108c-3.266-1.225-5.944-2.698-7.955-4.373-2.201-1.834-4.059-4.065-5.522-6.622-1.78-3.113-2.021-6.102-2.021-8.617-.021-.443-.626-14.456,1.672-24.971,3.072-13.293,17.521-27.749,26.777-33.09l3.193,5.536c-8.211,4.736-21.213,18.045-23.732,28.953-.418,1.911-.729,3.979-.961,6.066.543-.477,1.115-.934,1.713-1.371,1.688-1.352,4.954-3.219,7.725-4.011,2.784-.8,14.645-.851,17.979.399,3.264,1.224,5.941,2.697,7.955,4.375,2.202,1.835,4.062,4.065,5.523,6.623l-.004-.004ZM2492.788,1513.869v-2.877c0-2.435-.33-3.963-1.177-5.445-1.08-1.893-2.448-3.539-4.065-4.884-1.441-1.202-3.555-2.343-6.107-3.299-1.873-.665-12.117-.729-13.986-.239-1.838.527-4.334,1.937-5.587,2.937-3.835,2.816-6.153,6.606-6.153,9.969h-.079c.013,2.228.077,3.65.077,3.691.002,2.583.332,4.107,1.179,5.591,1.083,1.892,2.452,3.538,4.065,4.884,1.403,1.173,3.455,2.288,5.938,3.234,2.403.598,4.95,1.138,7.354,1.138,2.908,0,5.258-.352,7.188-1.074,2.557-.962,4.67-2.1,6.108-3.298,1.572-1.308,2.908-2.899,3.976-4.728.873-2.081,1.266-3.813,1.266-5.6h.004Z" fill="#e3831f" stroke="#e3831f" stroke-miterlimit="10"/>
    <path d="M2498.095,1015.088v9.042l-32.92,68.074v.866h-6.393v-2.33l32.92-68.074v-1.186h-41.23v-6.393h47.623Z" fill="#e3831f" stroke="#e3831f" stroke-miterlimit="10"/>
    <path d="M2507.47,699.026c0,12.688-11.471,23.012-25.568,23.012s-25.568-10.324-25.568-23.012c0-8.575,5.248-16.057,12.998-20.014-6.28-3.714-10.441-10.112-10.441-17.38,0-11.455,10.323-20.775,23.012-20.775s23.012,9.32,23.012,20.775c0,7.268-4.164,13.667-10.441,17.38,7.75,3.957,12.998,11.439,12.998,20.014ZM2501.078,699.026c0-9.163-8.601-16.62-19.177-16.62s-19.177,7.457-19.177,16.62,8.601,16.62,19.177,16.62,19.177-7.457,19.177-16.62ZM2481.901,676.018c9.163,0,16.619-6.453,16.619-14.383s-7.456-14.382-16.619-14.382-16.619,6.453-16.619,14.382,7.456,14.383,16.619,14.383Z" fill="#e3831f" stroke="#e3831f" stroke-miterlimit="10"/>
    <g>
      <path d="M1255.828,127.581v6.392h-20.455v-6.392h7.031V61.987l-4.995,4.136-4.075-4.925,10.154-8.403h5.309v74.787h7.031Z" fill="#e3831f" stroke="#e3831f" stroke-miterlimit="10"/>
      <path d="M1314.574,66.385c1.477,2.947,2.257,6.315,2.257,9.738v34.838c0,3.423-.78,6.795-2.257,9.742-1.381,2.768-3.471,5.36-6.21,7.709-2.445,2.036-5.072,3.423-7.84,4.146-2.525.92-5.245,1.387-8.304,1.416h-.319c-3.417-.025-6.141-.486-8.793-1.48-2.883-1.083-5.449-2.554-7.636-4.375-2.774-2.375-4.864-4.97-6.248-7.738-1.477-2.947-2.257-6.315-2.257-9.735v-34.838c0-3.42.783-6.789,2.257-9.738,1.384-2.768,3.474-5.363,6.213-7.709,2.445-2.039,5.072-3.423,7.84-4.145,2.611-.953,5.434-1.419,8.624-1.419,3.423,0,6.487.496,9.111,1.48,2.884,1.08,5.45,2.554,7.64,4.375,2.432,2.081,4.359,4.605,5.925,7.735h-.003ZM1273.363,75.804v31.526l36.676-34.774c-.266-1.163-.662-2.279-1.18-3.314-1.191-2.387-2.569-4.203-4.334-5.714-1.598-1.333-3.548-2.442-5.753-3.27-1.876-.704-4.251-1.074-6.868-1.074-2.513,0-4.593.342-6.549,1.074l-.346.108c-1.895.473-3.723,1.438-5.442,2.87-2.056,1.761-3.621,3.685-4.622,5.686-1.035,2.071-1.582,4.449-1.582,6.881ZM1310.441,110.964v-29.977l-36.32,34.438c.229.726.495,1.432.827,2.1,1.001,2,2.567,3.925,4.657,5.715,1.598,1.33,3.545,2.438,5.753,3.27,1.943.729,4.015,1.061,6.699,1.074,2.441-.013,4.478-.354,6.396-1.074l.345-.109c1.896-.473,3.724-1.438,5.443-2.87,2.052-1.761,3.618-3.685,4.618-5.686,1.036-2.068,1.582-4.446,1.582-6.881Z" fill="#e3831f" stroke="#e3831f" stroke-miterlimit="10"/>
    </g>
    <g>
      <path d="M854.7,127.581v6.392h-20.455v-6.392h7.031V61.986l-4.996,4.136-4.074-4.925,10.153-8.403h5.31v74.787h7.031Z" fill="#e3831f" stroke="#e3831f" stroke-miterlimit="10"/>
      <path d="M888.332,127.581v6.392h-20.455v-6.392h7.031V61.986l-4.995,4.136-4.075-4.925,10.153-8.403h5.31v74.787h7.031Z" fill="#e3831f" stroke="#e3831f" stroke-miterlimit="10"/>
    </g>
    <path d="M768.206,2391.167c1.209,2.821,1.8,8.274,1.8,11.029,0,2.947,0,4.894-1.388,10.094-1.224,4.887-3.732,8.176-5.621,10.064-2.113,2.109-6.15,4.804-9.474,5.635-3.136,1.055-8.256,1.055-11.005,1.055-3.246,0-8.875-1.831-11.167-2.812-2.681-1.15-7.716-4.545-10.774-7.262l4.248-4.778c2.676,2.378,7.211,5.376,9.045,6.165,2.109.905,6.775,2.299,8.648,2.299,2.219,0,6.834,0,9.219-.796,2.045-.521,5.084-2.369,6.74-4.024,1.316-1.313,3.074-3.624,3.953-7.144,1.183-4.436,1.183-5.708,1.183-8.492,0-2.838-.648-7.044-1.339-8.651-.787-2.084-1.742-3.669-3.354-5.603-1.402-1.685-2.934-2.89-4.554-3.583-2.011-.863-4.14-1.662-6.092-1.662h-8.63v-6.961l18.992-21.484h-29.22v-6.393h36.116v8.236l-17.859,20.206h.601c3.116,0,6.101,1.1,8.61,2.177,2.554,1.096,4.893,2.901,6.948,5.366,2.081,2.493,3.388,4.682,4.376,7.315l-.004.004Z" fill="#e3831f" stroke="#e3831f" stroke-miterlimit="10"/>
  </g>
</svg>