<?xml version="1.0" encoding="UTF-8"?>
<svg xmlns="http://www.w3.org/2000/svg" width="2565.563" height="2482.239" viewBox="0 0 2565.563 2482.239">
  <g id="b" data-name="HSD_-_Light">
    <path d="M1222.084,253.239l-118.957,4.342-118.956,7.236-192.957,18.266c-24.227,2.293-48.382,5.198-72.437,8.712l-54.714,7.991c-56.35,8.23-95.718,40.523-110.854,100.517l-11.733,57.706-10.435,60.056-29.739,188.851-21.13,193.192-11.739,183.786-2.112,139.904-.236-.256.12,7.959-.12,7.959.236-.256,2.112,139.904,11.739,183.786,21.13,193.192,29.739,188.851,10.435,60.056,11.733,57.706c15.136,59.994,54.504,92.287,110.854,100.517l54.714,7.991c24.055,3.513,48.21,6.418,72.437,8.712l192.957,18.266,118.956,7.236,118.957,4.341h65.739l10.174-.342,10.174.342h65.739l118.957-4.341,118.956-7.236,192.957-18.266c24.227-2.293,48.382-5.198,72.437-8.712l54.714-7.991c56.35-8.23,95.718-40.523,110.854-100.517l11.733-57.706,10.435-60.056,29.739-188.851,21.13-193.192,11.739-183.786,2.111-139.904.236.256-.12-7.959.12-7.959-.236.256-2.111-139.904-11.739-183.786-21.13-193.192-29.739-188.851-10.435-60.056-11.733-57.706c-15.136-59.994-54.504-92.287-110.854-100.517l-54.714-7.991c-24.055-3.513-48.21-6.418-72.437-8.712l-192.957-18.266-118.956-7.236-118.957-4.342h-65.739l-10.174.342-10.174-.342h-65.739Z" fill="none" stroke="#000" stroke-miterlimit="10" stroke-width="9"/>
  </g>
  <g id="c" data-name="ECM_-_Light">
    <circle cx="1335.53" cy="1201.924" r="523.565" fill="none" stroke="#000" stroke-dasharray="60 22" stroke-miterlimit="10" stroke-width="8"/>
    <line x1="1272.954" y1="703.63" x2="1268.649" y2="663.717" fill="none" stroke="#000" stroke-dasharray="60 22" stroke-miterlimit="10" stroke-width="8"/>
    <line x1="1731.68" y1="892.718" x2="1763.532" y2="868.282" fill="none" stroke="#000" stroke-dasharray="60 22" stroke-miterlimit="10" stroke-width="8"/>
    <line x1="1831.766" y1="1130.217" x2="1871.62" y2="1125.392" fill="none" stroke="#000" stroke-dasharray="60 22" stroke-miterlimit="10" stroke-width="8"/>
    <line x1="1640.562" y1="1600.328" x2="1665.259" y2="1631.976" fill="none" stroke="#000" stroke-dasharray="60 22" stroke-miterlimit="10" stroke-width="8"/>
    <line x1="1405.41" y1="1741.761" x2="1401.106" y2="1701.848" fill="none" stroke="#000" stroke-dasharray="60 22" stroke-miterlimit="10" stroke-width="8"/>
    <line x1="900.099" y1="1532.529" x2="931.287" y2="1507.253" fill="none" stroke="#000" stroke-dasharray="60 22" stroke-miterlimit="10" stroke-width="8"/>
    <line x1="794.832" y1="1271.261" x2="834.641" y2="1266.087" fill="none" stroke="#000" stroke-dasharray="60 22" stroke-miterlimit="10" stroke-width="8"/>
    <line x1="1035.698" y1="800.185" x2="1008.949" y2="770.25" fill="none" stroke="#000" stroke-dasharray="60 22" stroke-miterlimit="10" stroke-width="8"/>
    <circle cx="1336.345" cy="1200.587" r="302.238" fill="none" stroke="#000" stroke-dasharray="51 22" stroke-miterlimit="10" stroke-width="8"/>
    <line x1="1334.78" y1="1164.196" x2="1334.78" y2="1230.326" fill="none" stroke="#000" stroke-dasharray="51 22" stroke-miterlimit="10" stroke-width="18"/>
    <line x1="1369.997" y1="1196.674" x2="1301.519" y2="1196.674" fill="none" stroke="#000" stroke-dasharray="51 22" stroke-miterlimit="10" stroke-width="18"/>
    <rect x="1244.258" y="541.239" width="184.696" height="59.478" fill="none" stroke="#000" stroke-miterlimit="10" stroke-width="7"/>
    <circle cx="1677.954" cy="974.413" r="147.522" fill="none" stroke="#000" stroke-miterlimit="10" stroke-width="7"/>
    <g id="d" data-name="threat_land">
      <path id="e" data-name="path47" d="M1666.384,945.954v17.422l-15.759,15.997h15.284v30.965l-16.155,12.988h56.861l-15.284-11.958v-31.915h12.513l-13.859-14.967v-17.977l-11.238-23.357-12.362,22.802Z" fill="none" stroke="#000" stroke-miterlimit="15.1" stroke-width="5"/>
      <g>
        <line x1="1665.909" y1="999.885" x2="1694.418" y2="969.158" fill="none" stroke="#000" stroke-miterlimit="15.1" stroke-width="5"/>
        <line x1="1666.542" y1="949.122" x2="1682.698" y2="931.7" fill="none" stroke="#000" stroke-miterlimit="15.1" stroke-width="5"/>
        <line x1="1660.84" y1="979.374" x2="1689.983" y2="947.855" fill="none" stroke="#000" stroke-miterlimit="15.1" stroke-width="5"/>
        <line x1="1666.542" y1="1023.247" x2="1691.409" y2="996.48" fill="none" stroke="#000" stroke-miterlimit="15.1" stroke-width="5"/>
        <line x1="1688.795" y1="1023.247" x2="1696.319" y2="1015.169" fill="none" stroke="#000" stroke-miterlimit="15.1" stroke-width="5"/>
      </g>
    </g>
    <g id="f" data-name="threat_land">
      <path id="g" data-name="path47" d="M879.947,722.841v17.422l-15.759,15.997h15.284v30.965l-16.155,12.988h56.861l-15.284-11.958v-31.915h12.513l-13.859-14.967v-17.977l-11.238-23.357-12.362,22.802Z" fill="none" stroke="#000" stroke-miterlimit="15.1" stroke-width="5"/>
      <g>
        <line x1="879.472" y1="776.771" x2="907.982" y2="746.044" fill="none" stroke="#000" stroke-miterlimit="15.1" stroke-width="5"/>
        <line x1="880.106" y1="726.009" x2="896.261" y2="708.586" fill="none" stroke="#000" stroke-miterlimit="15.1" stroke-width="5"/>
        <line x1="874.404" y1="756.26" x2="903.547" y2="724.741" fill="none" stroke="#000" stroke-miterlimit="15.1" stroke-width="5"/>
        <line x1="880.106" y1="800.133" x2="904.972" y2="773.366" fill="none" stroke="#000" stroke-miterlimit="15.1" stroke-width="5"/>
        <line x1="902.359" y1="800.133" x2="909.882" y2="792.056" fill="none" stroke="#000" stroke-miterlimit="15.1" stroke-width="5"/>
      </g>
    </g>
    <g id="h" data-name="threat_land">
      <path id="i" data-name="path47" d="M843.32,1598.888v17.422l-15.759,15.997h15.284v30.965l-16.155,12.988h56.861l-15.284-11.958v-31.915h12.513l-13.859-14.967v-17.977l-11.238-23.357-12.362,22.802Z" fill="none" stroke="#000" stroke-miterlimit="15.1" stroke-width="5"/>
      <g>
        <line x1="842.845" y1="1652.818" x2="871.354" y2="1622.091" fill="none" stroke="#000" stroke-miterlimit="15.1" stroke-width="5"/>
        <line x1="843.478" y1="1602.056" x2="859.634" y2="1584.633" fill="none" stroke="#000" stroke-miterlimit="15.1" stroke-width="5"/>
        <line x1="837.777" y1="1632.307" x2="866.92" y2="1600.788" fill="none" stroke="#000" stroke-miterlimit="15.1" stroke-width="5"/>
        <line x1="843.478" y1="1676.18" x2="868.345" y2="1649.413" fill="none" stroke="#000" stroke-miterlimit="15.1" stroke-width="5"/>
        <line x1="865.732" y1="1676.18" x2="873.255" y2="1668.103" fill="none" stroke="#000" stroke-miterlimit="15.1" stroke-width="5"/>
      </g>
    </g>
    <g id="j" data-name="threat_air">
      <path id="k" data-name="path53" d="M1292.659,779.894h62.44l-30.921,50.911-30.921-50.911h-.599Z" fill="none" stroke="#000" stroke-linecap="square" stroke-miterlimit="15.1" stroke-width="6"/>
      <path id="l" data-name="path53-2" d="M1308.381,750.096h32.643l-16.321,28.151-16.321-28.151Z" fill="none" stroke="#000" stroke-linecap="square" stroke-miterlimit="15.1" stroke-width="6"/>
      <g>
        <line x1="1334.016" y1="761.955" x2="1322.007" y2="749.946" fill="none" stroke="#000" stroke-miterlimit="15.1" stroke-width="6"/>
        <line x1="1332.788" y1="817.328" x2="1295.368" y2="779.833" fill="none" stroke="#000" stroke-miterlimit="15.1" stroke-width="6"/>
        <line x1="1343.27" y1="800.632" x2="1322.942" y2="780.305" fill="none" stroke="#000" stroke-miterlimit="15.1" stroke-width="6"/>
      </g>
    </g>
    <g id="m" data-name="threat_air">
      <path id="n" data-name="path53" d="M1117.659,839.566l54.655-30.192-2.448,59.515-51.683-29.612-.459.253h0l-.066.036Z" fill="none" stroke="#000" stroke-linecap="square" stroke-miterlimit="15.1" stroke-width="6"/>
      <path id="o" data-name="path53-2" d="M1117.013,805.881l28.573-15.784-.675,32.533-27.898-16.749Z" fill="none" stroke="#000" stroke-linecap="square" stroke-miterlimit="15.1" stroke-width="6"/>
      <g>
        <line x1="1145.186" y1="803.866" x2="1128.867" y2="799.161" fill="none" stroke="#000" stroke-miterlimit="15.1" stroke-width="6"/>
        <line x1="1170.886" y1="852.928" x2="1120.001" y2="838.202" fill="none" stroke="#000" stroke-miterlimit="15.1" stroke-width="6"/>
        <line x1="1171.988" y1="833.246" x2="1144.365" y2="825.282" fill="none" stroke="#000" stroke-miterlimit="15.1" stroke-width="6"/>
      </g>
    </g>
    <g id="p" data-name="threat_aaa">
      <path id="q" data-name="path50" d="M949.72,991.601l42.966-32.835,3.756,3.756-31.563,24.418" fill="#ccc" stroke="#000" stroke-linecap="square" stroke-miterlimit="15.1" stroke-width="5"/>
      <path d="M1005.207,1020.866c0-18.53-16.589-33.617-37.06-33.617s-37.06,15.024-37.06,33.617" fill="none" stroke="#000" stroke-linecap="round" stroke-linejoin="round" stroke-width="5"/>
      <line x1="931.024" y1="1021.304" x2="1005.207" y2="1021.304" fill="none" stroke="#000" stroke-linecap="square" stroke-miterlimit="15.1" stroke-width="5"/>
      <g>
        <line x1="951.745" y1="1021.304" x2="982.983" y2="990.129" fill="none" stroke="#000" stroke-miterlimit="15.1" stroke-width="5"/>
        <line x1="931.274" y1="1020.115" x2="964.14" y2="987.312" fill="none" stroke="#000" stroke-miterlimit="15.1" stroke-width="5"/>
        <line x1="972.153" y1="1020.866" x2="995.128" y2="997.891" fill="none" stroke="#000" stroke-miterlimit="15.1" stroke-width="5"/>
        <line x1="992.06" y1="1020.866" x2="1003.016" y2="1009.911" fill="none" stroke="#000" stroke-miterlimit="15.1" stroke-width="5"/>
      </g>
    </g>
    <g id="r" data-name="threat_aaa">
      <path id="s" data-name="path50" d="M947.972,1427.756l42.966-32.835,3.756,3.756-31.563,24.418" fill="#ccc" stroke="#000" stroke-linecap="square" stroke-miterlimit="15.1" stroke-width="5"/>
      <path d="M1003.458,1457.021c0-18.53-16.589-33.617-37.06-33.617s-37.06,15.024-37.06,33.617" fill="none" stroke="#000" stroke-linecap="round" stroke-linejoin="round" stroke-width="5"/>
      <line x1="929.275" y1="1457.46" x2="1003.458" y2="1457.46" fill="none" stroke="#000" stroke-linecap="square" stroke-miterlimit="15.1" stroke-width="5"/>
      <g>
        <line x1="949.996" y1="1457.46" x2="981.235" y2="1426.284" fill="none" stroke="#000" stroke-miterlimit="15.1" stroke-width="5"/>
        <line x1="929.526" y1="1456.27" x2="962.392" y2="1423.467" fill="none" stroke="#000" stroke-miterlimit="15.1" stroke-width="5"/>
        <line x1="970.405" y1="1457.021" x2="993.379" y2="1434.047" fill="none" stroke="#000" stroke-miterlimit="15.1" stroke-width="5"/>
        <line x1="990.312" y1="1457.021" x2="1001.267" y2="1446.066" fill="none" stroke="#000" stroke-miterlimit="15.1" stroke-width="5"/>
      </g>
    </g>
    <circle cx="715.639" cy="1104.62" r="203.185" fill="none" stroke="#000" stroke-miterlimit="10" stroke-width="7"/>
    <g id="t" data-name="threat_land">
      <path id="u" data-name="path47" d="M700.058,1068.628v17.422l-15.759,15.997h15.284v30.965l-16.155,12.988h56.861l-15.284-11.958v-31.915h12.513l-13.859-14.967v-17.977l-11.238-23.357-12.362,22.802Z" fill="none" stroke="#000" stroke-miterlimit="15.1" stroke-width="5"/>
      <g>
        <line x1="699.583" y1="1122.559" x2="728.092" y2="1091.832" fill="none" stroke="#000" stroke-miterlimit="15.1" stroke-width="5"/>
        <line x1="700.216" y1="1071.796" x2="716.372" y2="1054.374" fill="none" stroke="#000" stroke-miterlimit="15.1" stroke-width="5"/>
        <line x1="694.514" y1="1102.048" x2="723.657" y2="1070.529" fill="none" stroke="#000" stroke-miterlimit="15.1" stroke-width="5"/>
        <line x1="700.216" y1="1145.921" x2="725.083" y2="1119.153" fill="none" stroke="#000" stroke-miterlimit="15.1" stroke-width="5"/>
        <line x1="722.469" y1="1145.921" x2="729.993" y2="1137.843" fill="none" stroke="#000" stroke-miterlimit="15.1" stroke-width="5"/>
      </g>
    </g>
    <g id="v" data-name="threat_ship">
      <path id="w" data-name="path48" d="M1445.696,1563.636h33.16v-28.076h28.759v28.076h34.721l-29.258,31.718h-67.914v-31.718h.607-.076Z" fill="none" stroke="#000" stroke-miterlimit="15.1" stroke-width="5"/>
      <g>
        <line x1="1486.976" y1="1595.43" x2="1518.916" y2="1563.489" fill="none" stroke="#000" stroke-miterlimit="15.1" stroke-width="5"/>
        <line x1="1479.008" y1="1546.031" x2="1489.48" y2="1535.636" fill="none" stroke="#000" stroke-miterlimit="15.1" stroke-width="5"/>
        <line x1="1445.089" y1="1579.95" x2="1460.569" y2="1564.47" fill="none" stroke="#000" stroke-miterlimit="15.1" stroke-width="5"/>
        <line x1="1457.154" y1="1595.43" x2="1507.618" y2="1544.966" fill="none" stroke="#000" stroke-miterlimit="15.1" stroke-width="5"/>
      </g>
    </g>
    <g>
      <rect x="1861.867" y="1513.63" width="207" height="175.304" fill="none"/>
      <path d="M1896.125,1571.979c0,2.242-.902,4.428-2.473,6.002-1.439,1.436-3.313,2.251-5.33,2.411l7.403,13.614c.863,1.588.273,3.574-1.314,4.438-.494.272-1.032.398-1.557.398-1.162,0-2.286-.62-2.88-1.713l-9.069-16.676h-9.237v15.11c0,1.809-1.466,3.274-3.274,3.274s-3.274-1.466-3.274-3.274v-36.692c0-1.809,1.466-3.274,3.274-3.274h19.252c2.238,0,4.424.902,5.998,2.473,1.604,1.604,2.481,3.738,2.481,6.007v7.902ZM1889.575,1564.072c0-.542-.19-1.002-.56-1.375-.347-.342-.862-.555-1.37-.555h-15.982v11.758h15.982c.538,0,.998-.19,1.37-.563.352-.348.56-.859.56-1.366v-7.898Z"/>
      <path d="M1921.402,1595.564c0,1.809-1.467,3.274-3.275,3.274h-12.23c-1.809,0-3.274-1.466-3.274-3.274s1.466-3.274,3.274-3.274h2.841v-30.144h-2.841c-1.809,0-3.274-1.466-3.274-3.274s1.466-3.274,3.274-3.274h12.23c1.809,0,3.275,1.466,3.275,3.274s-1.467,3.274-3.275,3.274h-2.841v30.144h2.841c1.809,0,3.275,1.466,3.275,3.274Z"/>
      <path d="M1958.917,1558.872v36.692c0,1.444-.946,2.715-2.325,3.136-.316.091-.633.139-.949.139-1.076,0-2.104-.529-2.725-1.457l-18.463-27.692v25.875c0,1.809-1.466,3.274-3.274,3.274s-3.274-1.466-3.274-3.274v-36.692c0-1.444.945-2.715,2.325-3.136,1.37-.416,2.871.117,3.673,1.318l18.463,27.692v-25.875c0-1.809,1.467-3.274,3.275-3.274s3.274,1.466,3.274,3.274Z"/>
      <path d="M1996.291,1577.131l.131,10.365c0,3.084-1.245,6.042-3.418,8.158-2.056,1.995-4.896,3.14-7.794,3.14h-7.894c-2.472,0-4.9-.828-6.831-2.342l-.707-.538c-2.771-2.095-4.367-5.325-4.367-8.852v-19.733c0-3.47,1.64-6.783,4.381-8.856l.729-.556c1.899-1.487,4.324-2.32,6.796-2.32h8.675c2.189,0,4.332.655,6.193,1.896l2.606,1.739c1.505,1.006,1.908,3.036.906,4.541-1.002,1.509-3.031,1.908-4.541.906l-2.603-1.739c-.78-.521-1.665-.794-2.562-.794h-8.675c-1.032,0-1.995.33-2.797.954l-.772.59c-1.128.846-1.791,2.208-1.791,3.64v19.733c0,1.457.646,2.78,1.778,3.635l.75.572c.828.65,1.796.98,2.828.98h7.894c1.21,0,2.385-.473,3.227-1.288.924-.898,1.436-2.112,1.436-3.418l-.091-7.091h-7.481c-1.809,0-3.274-1.466-3.274-3.274s1.466-3.275,3.274-3.275h10.712c1.792,0,3.253,1.44,3.275,3.231l.008-.004Z"/>
      <path d="M1896.128,1617.872v36.692c0,1.444-.946,2.715-2.325,3.136-.316.091-.633.139-.949.139-1.076,0-2.104-.529-2.725-1.457l-18.463-27.692v25.875c0,1.809-1.466,3.274-3.274,3.274s-3.274-1.466-3.274-3.274v-36.692c0-1.444.945-2.715,2.325-3.136,1.37-.416,2.871.117,3.673,1.318l18.463,27.692v-25.875c0-1.809,1.467-3.274,3.275-3.274s3.274,1.466,3.274,3.274Z"/>
      <path d="M1933.628,1622.86v26.76c0,4.558-4.012,8.262-8.951,8.262h-13.103c-4.936,0-8.952-3.704-8.952-8.262v-26.76c0-4.559,4.012-8.263,8.952-8.263h13.103c4.936,0,8.951,3.704,8.951,8.263ZM1927.083,1622.86c0-.933-1.102-1.718-2.406-1.718h-13.103c-1.38,0-2.407.906-2.407,1.718v26.76c0,.915,1.123,1.718,2.407,1.718h13.103c1.379,0,2.406-.907,2.406-1.718v-26.76Z"/>
      <path d="M1971.135,1630.979c0,2.242-.902,4.428-2.473,6.002-1.439,1.436-3.313,2.251-5.33,2.411l7.403,13.614c.863,1.588.273,3.574-1.314,4.438-.494.272-1.032.398-1.557.398-1.162,0-2.286-.62-2.88-1.713l-9.069-16.676h-9.237v15.11c0,1.809-1.466,3.274-3.274,3.274s-3.274-1.466-3.274-3.274v-36.692c0-1.809,1.466-3.274,3.274-3.274h19.252c2.238,0,4.424.902,5.998,2.473,1.604,1.604,2.481,3.738,2.481,6.007v7.902ZM1964.585,1623.072c0-.542-.19-1.002-.56-1.375-.347-.342-.862-.555-1.37-.555h-15.982v11.758h15.982c.538,0,.998-.19,1.37-.563.352-.348.56-.859.56-1.366v-7.898Z"/>
      <path d="M2006.426,1614.753c1.349.438,2.26,1.696,2.26,3.114v36.691c0,1.809-1.466,3.274-3.274,3.274s-3.274-1.466-3.274-3.274v-26.646l-6.354,8.713c-.616.846-1.601,1.345-2.646,1.345s-2.029-.503-2.646-1.349l-6.311-8.684v26.621c0,1.809-1.466,3.274-3.274,3.274s-3.274-1.466-3.274-3.274v-36.691c0-1.418.911-2.672,2.26-3.114,1.349-.438,2.823.043,3.66,1.188l9.585,13.193,9.624-13.193c.833-1.149,2.312-1.627,3.661-1.185l.004-.004Z"/>
    </g>
    <g>
      <circle cx="1333.573" cy="1201.533" r="523.565" fill="none"/>
      <path d="M1553.366,705.741l-13.918,33.942c-.548,1.337-1.905,2.154-3.34,2.02-.327-.036-.639-.112-.932-.231-.995-.409-1.745-1.288-1.967-2.382l-6.575-32.621-9.815,23.937c-.686,1.673-2.599,2.473-4.271,1.787-1.673-.686-2.474-2.599-1.787-4.272l13.917-33.942c.549-1.336,1.905-2.153,3.341-2.02,1.426.135,2.612,1.197,2.898,2.613l6.574,32.621,9.816-23.937c.686-1.672,2.598-2.473,4.27-1.787,1.674.686,2.474,2.599,1.788,4.272Z"/>
      <path d="M1797.427,1410.484c-.704,1.666-2.625,2.446-4.291,1.742-1.665-.704-2.445-2.625-1.741-4.291l9.537-22.573c.704-1.665,2.625-2.444,4.291-1.741l33.8,14.28c1.666.705,2.446,2.625,1.742,4.291l-9.537,22.573c-.704,1.666-2.625,2.445-4.291,1.742-1.666-.705-2.446-2.625-1.742-4.29l8.263-19.558-10.871-4.594-6.475,15.322c-.703,1.666-2.625,2.445-4.289,1.742-1.666-.704-2.446-2.625-1.742-4.291l6.473-15.322-10.866-4.592-8.264,19.557.004.002Z"/>
      <path d="M1114.714,1677.293c-1.092-2.765-1.048-5.784.134-8.515l.792-1.831c1.371-3.167,4.201-5.549,7.576-6.37l1.179-.256c2.282-.525,4.755-.311,6.912.622l6.647,2.876c1.998.864,3.691,2.291,4.896,4.126l1.714,2.637c.986,1.521.55,3.546-.963,4.53-1.522.985-3.544.546-4.53-.963l-1.706-2.623c-.482-.742-1.203-1.348-2.016-1.699l-6.646-2.875c-.884-.382-1.904-.469-2.882-.241l-1.143.249c-1.303.314-2.469,1.294-3.028,2.588l-.792,1.831c-.485,1.122-.498,2.364-.051,3.503.448,1.14,1.312,2.033,2.432,2.517l8.08,3.496c2.727,1.179,4.834,3.353,5.929,6.107,1.09,2.768,1.044,5.791-.135,8.514l-1.066,2.469c-1.18,2.727-3.352,4.83-6.112,5.926-2.76,1.094-5.783,1.048-8.514-.134l-7.483-3.235c-2.026-.877-3.727-2.309-4.913-4.14l-1.699-2.629c-.983-1.518-.544-3.548.972-4.528,1.515-.979,3.54-.562,4.525.976l1.699,2.625c.481.742,1.179,1.327,2.015,1.688l7.483,3.237c1.122.485,2.37.506,3.501.056,1.141-.453,2.037-1.322,2.521-2.44l1.067-2.469c.482-1.117.499-2.368.052-3.506-.445-1.134-1.316-2.025-2.438-2.511l-8.08-3.495c-2.723-1.178-4.827-3.35-5.924-6.11l-.004-.002Z"/>
      <path d="M837.212,983.149l28.321,11.519c.804.327,1.445.958,1.78,1.759l3.361,7.964c.708,1.665-.072,3.575-1.729,4.287l-4.938,2.102,2.069,4.952c.346.829.324,1.723.01,2.495-.315.775-.93,1.434-1.76,1.784l-7.969,3.36c-.798.34-1.702.342-2.507.015l-28.32-11.519c-1.675-.682-2.48-2.591-1.799-4.266.681-1.675,2.591-2.481,4.267-1.8l27.062,11.008,3.713-1.566-1.54-3.684-7.251-2.95c-1.675-.681-2.48-2.591-1.799-4.266s2.591-2.481,4.266-1.799l7.251,2.949,3.675-1.563-1.567-3.709-27.064-11.007c-1.675-.681-2.48-2.591-1.799-4.266.681-1.675,2.592-2.481,4.267-1.799Z"/>
    </g>
    <g>
      <rect x="1242.209" y="538.668" width="184.174" height="55.304" fill="none"/>
      <path d="M1309.121,570.357c2.013,2.012,3.123,4.684,3.123,7.516v3.079c0,3.938-1.874,7.677-5.01,10.006-2.121,1.605-4.71,2.463-7.46,2.463h-2.732c-2.484,0-9.871-1.379-12.481-2.689l-1.492-.703c-1.635-.772-2.333-2.724-1.562-4.359.772-1.639,2.72-2.329,4.358-1.561l1.562.737c1.449.724,7.698,2.03,9.62,2.03h2.732c1.31,0,2.528-.403,3.53-1.158,1.522-1.136,2.386-2.867,2.386-4.767v-3.079c0-1.084-.43-2.108-1.21-2.889l-.525-.525c-.624-.629-1.487-.989-2.363-.989h-6.463c-1.262,0-2.415-.729-2.958-1.874-.542-1.145-.377-2.494.426-3.474l9.42-11.528h-13.003c-1.809,0-3.274-1.466-3.274-3.274s1.466-3.275,3.274-3.275h19.907c1.263,0,2.416.729,2.958,1.874.542,1.141.378,2.494-.425,3.474l-9.429,11.537c2.45.108,4.822,1.153,6.566,2.897l.524.525v.004Z"/>
      <path d="M1346.69,570.357c2.013,2.012,3.123,4.684,3.123,7.516v3.079c0,3.938-1.874,7.677-5.01,10.006-2.12,1.605-4.71,2.463-7.46,2.463h-2.732c-2.484,0-9.871-1.379-12.481-2.689l-1.492-.703c-1.635-.772-2.333-2.724-1.562-4.359.772-1.639,2.72-2.329,4.358-1.561l1.562.737c1.449.724,7.698,2.03,9.62,2.03h2.732c1.31,0,2.528-.403,3.53-1.158,1.522-1.136,2.386-2.867,2.386-4.767v-3.079c0-1.084-.43-2.108-1.21-2.889l-.525-.525c-.624-.629-1.487-.989-2.363-.989h-6.463c-1.262,0-2.415-.729-2.958-1.874-.542-1.145-.377-2.494.426-3.474l9.42-11.528h-13.003c-1.809,0-3.274-1.466-3.274-3.274s1.466-3.275,3.274-3.275h19.907c1.263,0,2.416.729,2.958,1.874.542,1.141.378,2.494-.425,3.474l-9.429,11.537c2.45.108,4.822,1.153,6.566,2.897l.524.525v.004Z"/>
      <path d="M1386.996,551.777c.568,1.067.508,2.359-.16,3.361l-24.505,36.783c-.634.945-1.67,1.457-2.729,1.457-.624,0-1.258-.178-1.812-.551-1.505-1.001-1.913-3.031-.911-4.541l21.113-31.691h-15.31c-1.809,0-3.274-1.466-3.274-3.274s1.466-3.275,3.274-3.275h21.425c1.21,0,2.32.664,2.889,1.727v.004Z"/>
    </g>
    <g>
      <rect x="1721.084" y="940.118" width="47" height="55.846" fill="none"/>
      <path d="M1739.579,967.082c9.455,0,15.809,5.621,15.809,13.987,0,8.24-6.501,13.991-15.809,13.991s-15.245-5.49-15.245-13.991c0-.199.048-.373.052-.568-.008-.091-.052-.165-.052-.256,0-4.502,4.021-13.671,7.906-19.941,2.603-4.207,4.333-5.934,5.855-7.456,1.279-1.279,3.413-1.34,4.692-.061,1.28,1.279,1.341,3.296.062,4.571l-.122.121c-1.396,1.393-2.711,2.711-4.918,6.271-.768,1.232-1.462,2.481-2.116,3.722,1.227-.234,2.507-.395,3.886-.395v.004ZM1748.839,981.065c0-6.714-6.476-7.438-9.26-7.438-3.969,0-8.696,1.292-8.696,7.438,0,4.801,3.088,7.442,8.696,7.442,5.712,0,9.26-2.85,9.26-7.442Z"/>
    </g>
    <g>
      <rect x="893.854" y="1590.834" width="78.625" height="58.947" fill="none"/>
      <path d="M924.883,1604.118c1.809,0,3.274,1.466,3.274,3.274s-1.466,3.274-3.274,3.274h-21.23v11.801h16.633c1.809,0,3.274,1.467,3.274,3.274s-1.466,3.275-3.274,3.275h-16.633v15.071c0,1.809-1.466,3.274-3.274,3.274s-3.274-1.466-3.274-3.274v-36.692c0-1.809,1.466-3.274,3.274-3.274h24.505v-.004Z"/>
      <path d="M962.452,1604.118c1.809,0,3.274,1.466,3.274,3.274s-1.466,3.274-3.274,3.274h-21.23v11.801h16.633c1.809,0,3.274,1.467,3.274,3.274s-1.466,3.275-3.274,3.275h-16.633v15.071c0,1.809-1.466,3.274-3.274,3.274s-3.274-1.466-3.274-3.274v-36.692c0-1.809,1.466-3.274,3.274-3.274h24.505v-.004Z"/>
    </g>
    <g>
      <rect x="934.328" y="717.015" width="78.625" height="58.947" fill="none"/>
      <path d="M965.356,730.299c1.809,0,3.274,1.466,3.274,3.274s-1.466,3.274-3.274,3.274h-21.23v11.801h16.633c1.809,0,3.274,1.467,3.274,3.274s-1.466,3.275-3.274,3.275h-16.633v15.071c0,1.809-1.466,3.274-3.274,3.274s-3.274-1.466-3.274-3.274v-36.692c0-1.809,1.466-3.274,3.274-3.274h24.505v-.004Z"/>
      <path d="M1002.926,730.299c1.809,0,3.274,1.466,3.274,3.274s-1.466,3.274-3.274,3.274h-21.23v11.801h16.633c1.809,0,3.274,1.467,3.274,3.274s-1.466,3.275-3.274,3.275h-16.633v15.071c0,1.809-1.466,3.274-3.274,3.274s-3.274-1.466-3.274-3.274v-36.692c0-1.809,1.466-3.274,3.274-3.274h24.505v-.004Z"/>
    </g>
    <g>
      <rect x="1197.676" y="800.102" width="78.625" height="58.947" fill="none"/>
      <path d="M1228.705,850.072c1.809,0,3.274,1.466,3.274,3.274s-1.466,3.274-3.274,3.274h-24.504c-.451,0-.885-.096-1.275-.261-.026-.008-.044-.034-.069-.047-.378-.17-.716-.403-.998-.694-.013-.013-.03-.018-.043-.03-.117-.121-.165-.277-.256-.412-.144-.204-.3-.395-.391-.629-.091-.238-.112-.485-.147-.737-.025-.16-.096-.299-.096-.464,0-.018.009-.035.009-.052.005-.27.087-.525.156-.785.044-.152.048-.321.108-.465.057-.134.169-.242.247-.368.144-.238.282-.481.481-.677.014-.013.03-.043.03-.043l18.65-17.479c2.818-2.65,4.358-5.521,4.224-7.877-.091-1.647-1.002-3.092-2.771-4.41-1.192-.881-2.893-1.349-4.896-1.349-3.864,0-6.887.659-9.099,3.873-1.023,1.496-3.058,1.869-4.555.846-1.487-1.024-1.864-3.062-.841-4.555,4.614-6.709,11.792-6.709,14.494-6.709,3.414,0,6.454.91,8.796,2.633,4.216,3.144,5.27,6.792,5.413,9.303.247,4.354-1.982,8.978-6.285,13.024l-12.612,11.823h16.226l.004-.009Z"/>
      <path d="M1264.08,852.595c-3.848,3.843-13.371,4.038-15.241,4.038-1.809,0-3.274-1.466-3.274-3.27s1.462-3.279,3.271-3.279c4.021-.004,9.368-.876,10.613-2.121,1.604-1.604,2.58-4.905,3.136-8.57-2.355,1.202-5.209,1.887-8.54,1.887-9.59,0-15.549-5.36-15.549-13.986,0-6.767,4.086-13.992,15.549-13.992,11.177,0,15.306,6.866,15.505,13.479.018.104.069.195.078.3.126,1.917,1.036,18.927-5.547,25.515ZM1263.039,827.289c0-4.939-3.032-7.442-9-7.442-6.055,0-8.999,2.438-8.999,7.442,0,4.936,3.027,7.438,8.999,7.438s9-2.498,9-7.438Z"/>
    </g>
    <g>
      <rect x="1360.07" y="752.354" width="78.625" height="58.947" fill="none"/>
      <path d="M1391.099,802.323c1.809,0,3.274,1.466,3.274,3.274s-1.466,3.274-3.274,3.274h-24.504c-.451,0-.885-.096-1.275-.261-.026-.008-.044-.034-.069-.047-.378-.17-.716-.403-.998-.694-.013-.013-.03-.018-.043-.03-.117-.121-.165-.277-.256-.412-.144-.204-.3-.395-.391-.629-.091-.238-.112-.485-.147-.737-.025-.16-.096-.299-.096-.464,0-.018.009-.035.009-.052.005-.27.087-.525.156-.785.044-.152.048-.321.108-.465.057-.134.169-.242.247-.368.144-.238.282-.481.481-.677.014-.013.03-.043.03-.043l18.65-17.479c2.818-2.65,4.358-5.521,4.224-7.877-.091-1.647-1.002-3.092-2.771-4.41-1.192-.881-2.893-1.349-4.896-1.349-3.864,0-6.887.659-9.099,3.873-1.023,1.496-3.058,1.869-4.555.846-1.487-1.024-1.864-3.062-.841-4.555,4.614-6.709,11.792-6.709,14.494-6.709,3.414,0,6.454.91,8.796,2.633,4.216,3.144,5.27,6.792,5.413,9.303.247,4.354-1.982,8.978-6.285,13.024l-12.612,11.823h16.226l.004-.009Z"/>
      <path d="M1426.474,804.846c-3.848,3.843-13.371,4.038-15.241,4.038-1.809,0-3.274-1.466-3.274-3.27s1.462-3.279,3.271-3.279c4.021-.004,9.368-.876,10.613-2.121,1.604-1.604,2.58-4.905,3.136-8.57-2.355,1.202-5.209,1.887-8.54,1.887-9.59,0-15.549-5.36-15.549-13.986,0-6.767,4.086-13.992,15.549-13.992,11.177,0,15.306,6.866,15.505,13.479.018.104.069.195.078.3.126,1.917,1.036,18.927-5.547,25.515ZM1425.433,779.539c0-4.939-3.032-7.442-9-7.442-6.055,0-8.999,2.438-8.999,7.442,0,4.936,3.027,7.438,8.999,7.438s9-2.498,9-7.438Z"/>
    </g>
    <g>
      <rect x="754.758" y="1062.792" width="47" height="55.846" fill="none"/>
      <path d="M785.938,1094.751c2.012,2.013,3.123,4.685,3.123,7.517v3.079c0,3.938-1.875,7.677-5.01,10.006-2.121,1.604-4.711,2.464-7.461,2.464h-2.732c-2.484,0-9.871-1.38-12.48-2.689l-1.492-.702c-1.635-.772-2.334-2.724-1.562-4.359.773-1.64,2.721-2.329,4.359-1.562l1.561.737c1.449.725,7.699,2.03,9.621,2.03h2.732c1.309,0,2.527-.403,3.529-1.158,1.523-1.137,2.387-2.867,2.387-4.767v-3.079c0-1.084-.43-2.107-1.211-2.889l-.525-.524c-.623-.629-1.486-.989-2.363-.989h-6.463c-1.262,0-2.414-.729-2.957-1.873-.543-1.146-.377-2.494.426-3.475l9.42-11.528h-13.004c-1.809,0-3.273-1.466-3.273-3.274s1.465-3.274,3.273-3.274h19.908c1.262,0,2.416.729,2.957,1.874.543,1.141.379,2.494-.424,3.474l-9.43,11.537c2.451.108,4.822,1.153,6.566,2.897l.525.524v.004Z"/>
    </g>
    <g>
      <rect x="1549.424" y="1534.205" width="78.625" height="58.947" fill="none"/>
      <path d="M1582.867,1585.24c1.223,1.331,1.136,3.404-.2,4.628-.629.576-1.418.858-2.212.858-.885,0-1.765-.355-2.411-1.059l-15.856-17.283h-2.962v15.071c0,1.809-1.467,3.274-3.275,3.274s-3.274-1.466-3.274-3.274v-36.691c0-1.809,1.466-3.274,3.274-3.274s3.275,1.466,3.275,3.274v15.075h2.957l15.856-17.287c1.224-1.341,3.292-1.423,4.628-.2,1.332,1.224,1.423,3.297.2,4.628l-14.799,16.134,14.799,16.13v-.004Z"/>
      <path d="M1619.008,1547.663c1.722.573,2.646,2.425,2.073,4.143l-12.227,36.688c-.446,1.34-1.695,2.242-3.105,2.242s-2.658-.902-3.105-2.238l-12.23-36.691c-.568-1.714.352-3.569,2.069-4.143,1.726-.567,3.569.356,4.142,2.073l9.125,27.372,9.125-27.372c.568-1.717,2.421-2.641,4.138-2.073h-.004Z"/>
    </g>
    <g>
      <rect x="1015.556" y="1396.646" width="78.625" height="58.947" fill="none"/>
      <path d="M1046.584,1446.615c1.809,0,3.274,1.466,3.274,3.274s-1.466,3.274-3.274,3.274h-24.504c-.451,0-.885-.096-1.275-.261-.026-.008-.044-.034-.069-.047-.378-.17-.716-.403-.998-.694-.013-.013-.03-.018-.043-.03-.117-.121-.165-.277-.256-.412-.144-.204-.3-.395-.391-.629-.091-.238-.112-.485-.147-.737-.025-.16-.096-.299-.096-.464,0-.018.009-.035.009-.052.005-.27.087-.525.156-.785.044-.152.048-.321.108-.465.057-.134.169-.242.247-.368.144-.238.282-.481.481-.677.014-.013.03-.043.03-.043l18.65-17.479c2.818-2.65,4.358-5.521,4.224-7.877-.091-1.647-1.002-3.092-2.771-4.41-1.192-.881-2.893-1.349-4.896-1.349-3.864,0-6.887.659-9.099,3.873-1.023,1.496-3.058,1.869-4.555.846-1.487-1.024-1.864-3.062-.841-4.555,4.614-6.709,11.792-6.709,14.494-6.709,3.414,0,6.454.91,8.796,2.633,4.216,3.144,5.27,6.792,5.413,9.303.247,4.354-1.982,8.978-6.285,13.024l-12.612,11.823h16.226l.004-.009Z"/>
      <path d="M1084.153,1446.615c1.809,0,3.274,1.466,3.274,3.274s-1.466,3.274-3.274,3.274h-24.504c-.451,0-.885-.096-1.275-.261-.026-.008-.044-.034-.069-.047-.378-.17-.716-.403-.998-.694-.013-.013-.03-.018-.043-.03-.117-.121-.165-.277-.256-.412-.144-.204-.3-.395-.391-.629-.091-.238-.112-.485-.147-.737-.025-.16-.096-.299-.096-.464,0-.018.009-.035.009-.052.005-.27.087-.525.156-.785.044-.152.048-.321.108-.465.057-.134.169-.242.247-.368.144-.238.282-.481.481-.677.014-.013.03-.043.03-.043l18.65-17.479c2.818-2.65,4.358-5.521,4.224-7.877-.091-1.647-1.002-3.092-2.771-4.41-1.192-.881-2.893-1.349-4.896-1.349-3.864,0-6.887.659-9.099,3.873-1.023,1.496-3.058,1.869-4.555.846-1.487-1.024-1.864-3.062-.841-4.555,4.614-6.709,11.792-6.709,14.494-6.709,3.414,0,6.454.91,8.796,2.633,4.216,3.144,5.27,6.792,5.413,9.303.247,4.354-1.982,8.978-6.285,13.024l-12.612,11.823h16.226l.004-.009Z"/>
    </g>
    <g>
      <rect x="1014.673" y="960.91" width="78.625" height="58.947" fill="none"/>
      <path d="M1045.701,1010.88c1.809,0,3.274,1.466,3.274,3.274s-1.466,3.274-3.274,3.274h-24.504c-.451,0-.885-.096-1.275-.261-.026-.008-.044-.034-.069-.047-.378-.17-.716-.403-.998-.694-.013-.013-.03-.018-.043-.03-.117-.121-.165-.277-.256-.412-.144-.204-.3-.395-.391-.629-.091-.238-.112-.485-.147-.737-.025-.16-.096-.299-.096-.464,0-.018.009-.035.009-.052.005-.27.087-.525.156-.785.044-.152.048-.321.108-.465.057-.134.169-.242.247-.368.144-.238.282-.481.481-.677.014-.013.03-.043.03-.043l18.65-17.479c2.818-2.65,4.358-5.521,4.224-7.877-.091-1.647-1.002-3.092-2.771-4.41-1.192-.881-2.893-1.349-4.896-1.349-3.864,0-6.887.659-9.099,3.873-1.023,1.496-3.058,1.869-4.555.846-1.487-1.024-1.864-3.062-.841-4.555,4.614-6.709,11.792-6.709,14.494-6.709,3.414,0,6.454.91,8.796,2.633,4.216,3.144,5.27,6.792,5.413,9.303.247,4.354-1.982,8.978-6.285,13.024l-12.612,11.823h16.226l.004-.009Z"/>
      <path d="M1083.27,1010.88c1.809,0,3.274,1.466,3.274,3.274s-1.466,3.274-3.274,3.274h-24.504c-.451,0-.885-.096-1.275-.261-.026-.008-.044-.034-.069-.047-.378-.17-.716-.403-.998-.694-.013-.013-.03-.018-.043-.03-.117-.121-.165-.277-.256-.412-.144-.204-.3-.395-.391-.629-.091-.238-.112-.485-.147-.737-.025-.16-.096-.299-.096-.464,0-.018.009-.035.009-.052.005-.27.087-.525.156-.785.044-.152.048-.321.108-.465.057-.134.169-.242.247-.368.144-.238.282-.481.481-.677.014-.013.03-.043.03-.043l18.65-17.479c2.818-2.65,4.358-5.521,4.224-7.877-.091-1.647-1.002-3.092-2.771-4.41-1.192-.881-2.893-1.349-4.896-1.349-3.864,0-6.887.659-9.099,3.873-1.023,1.496-3.058,1.869-4.555.846-1.487-1.024-1.864-3.062-.841-4.555,4.614-6.709,11.792-6.709,14.494-6.709,3.414,0,6.454.91,8.796,2.633,4.216,3.144,5.27,6.792,5.413,9.303.247,4.354-1.982,8.978-6.285,13.024l-12.612,11.823h16.226l.004-.009Z"/>
    </g>
  </g>
  <g id="x" data-name="ECM_Arrows_-_Light">
    <path d="M1942.037,986.064l2.998-19.545,451.28,86.359c1.166,30.739,19.739,59.561,49.927,72.213,41.454,17.374,89.313-2.217,106.686-43.67,17.374-41.454-2.217-89.313-43.671-106.687-41.453-17.373-89.312,2.217-106.686,43.671-2.872,6.853-4.714,13.882-5.633,20.919l-449.853-86.171,2.998-19.545-115.609,9.11,107.562,43.346ZM2413.783,1023.103c14.807-35.329,55.449-51.965,90.778-37.159,35.329,14.807,51.965,55.449,37.159,90.778-14.807,35.329-55.449,51.965-90.778,37.159-35.329-14.807-51.965-55.449-37.159-90.778Z" stroke="#fff" stroke-miterlimit="10" stroke-width="4"/>
    <path d="M1683.189,1759.89l18.093-7.98,246.955,564.389c-36.846,20.023-52.842,65.432-35.624,104.471,18.138,41.125,66.352,59.826,107.477,41.687,41.124-18.138,59.825-66.352,41.687-107.477-17.218-39.039-61.537-57.846-101.168-44.138l-246.955-564.389,18.093-7.98-69.835-92.582,21.278,113.999ZM1959.205,2324.415c35.049-15.458,75.993.423,91.451,35.471,15.458,35.049-.423,75.993-35.471,91.451-35.049,15.458-75.993-.423-91.451-35.471-15.458-35.049.423-75.993,35.471-91.451Z" stroke="#fff" stroke-miterlimit="10" stroke-width="4"/>
    <path d="M936.367,713.493l-10.922-115.452-18.738,6.317-168.546-429.794c6.774-2.117,13.381-5.141,19.637-9.149,37.845-24.248,48.907-74.765,24.659-112.61-24.248-37.845-74.765-48.907-112.61-24.659-37.845,24.248-48.906,74.765-24.658,112.61,17.658,27.56,49.247,40.896,79.728,36.755l168.977,431.167-18.738,6.317,61.211,98.497ZM655.423,134.199c-20.666-32.254-11.272-75.153,20.982-95.819,32.254-20.666,75.153-11.272,95.819,20.982,20.666,32.254,11.272,75.153-20.982,95.819-32.254,20.666-75.153,11.272-95.819-20.982Z" stroke="#fff" stroke-miterlimit="10" stroke-width="4"/>
    <path d="M1404.707,1700.657l18.197,7.738-245.961,600.891c-39.811-13.178-83.875,6.218-100.571,45.483-17.588,41.363,1.754,89.323,43.116,106.912,41.362,17.588,89.323-1.754,106.911-43.117,16.696-39.265.097-84.457-37.013-103.987l245.961-600.891,18.197,7.738,19.757-114.272-68.595,93.505ZM1178.527,2322.839c35.252,14.99,51.677,55.718,36.687,90.97-14.99,35.252-55.718,51.677-90.97,36.687-35.252-14.99-51.677-55.718-36.687-90.97,14.99-35.252,55.718-51.677,90.97-36.687Z" stroke="#fff" stroke-miterlimit="10" stroke-width="4"/>
    <path d="M685.215,1074.196l-115.967-.238,4.485,19.259-406.085,78.7c-12.84-39.921-54.494-64.063-96.049-54.385-43.776,10.195-71.096,54.103-60.901,97.878,10.195,43.776,54.103,71.096,97.878,60.901,41.556-9.678,68.258-49.738,62.139-91.225l406.085-78.7,4.485,19.259,103.93-51.449ZM105.818,1264.472c-37.308,8.688-74.595-14.512-83.283-51.82-8.688-37.308,14.512-74.595,51.82-83.283,37.308-8.688,74.595,14.512,83.283,51.82,8.688,37.308-14.512,74.595-51.82,83.283Z" stroke="#fff" stroke-miterlimit="10" stroke-width="4"/>
    <path d="M1546.994,806.018l-4.222-19.318,859.035-327.902c12.129,28.269,39.814,48.498,72.532,49.463,44.927,1.326,82.557-34.147,83.883-79.074,1.326-44.927-34.147-82.557-79.074-83.883-44.927-1.326-82.557,34.147-83.882,79.074-.219,7.428.587,14.649,2.256,21.546l-857.636,327.565-4.222-19.318-104.623,50.024,115.953,1.822ZM2407.415,424.736c1.13-38.29,33.086-68.413,71.375-67.284,38.29,1.13,68.413,33.086,67.284,71.375-1.13,38.29-33.086,68.413-71.375,67.284-38.29-1.13-68.413-33.086-67.284-71.375Z" stroke="#fff" stroke-miterlimit="10" stroke-width="4"/>
    <path d="M1601.034,601.22l-18.738-6.317,160.767-417.344c30.481,4.141,62.07-9.194,79.728-36.755,24.248-37.845,13.187-88.362-24.658-112.61-37.845-24.248-88.362-13.187-112.61,24.659-24.248,37.845-13.186,88.361,24.659,112.61,6.257,4.009,12.864,7.032,19.637,9.149l-160.337,415.971-18.738-6.317-10.922,115.452,61.211-98.497ZM1716.739,155.228c-32.254-20.666-41.647-63.565-20.982-95.819,20.666-32.254,63.565-41.647,95.819-20.982,32.254,20.666,41.647,63.565,20.982,95.819-20.666,32.254-63.565,41.647-95.819,20.982Z" stroke="#fff" stroke-miterlimit="10" stroke-width="4"/>
    <path d="M1273.345,536.543l12.32-115.311-19.621,2.454-38.105-245.444c7.06-.724,14.137-2.369,21.067-5.05,41.92-16.215,62.834-63.511,46.62-105.431-16.215-41.92-63.511-62.834-105.431-46.619-41.92,16.214-62.833,63.511-46.618,105.431,11.808,30.528,40.103,49.895,70.798,51.915l38.253,246.875-19.621,2.454,40.34,108.725ZM1154.912,122.189c-13.819-35.727,3.941-75.891,39.668-89.71,35.727-13.819,75.891,3.941,89.71,39.668,13.819,35.727-3.941,75.891-39.668,89.71-35.727,13.819-75.891-3.941-89.71-39.668Z" stroke="#fff" stroke-miterlimit="10" stroke-width="4"/>
    <path d="M902.406,1466.111l-114.707,17.052,7.306,18.375-627.869,265.607c-2.475-6.651-5.845-13.088-10.182-19.122-26.228-36.501-77.262-44.858-113.763-18.63-36.501,26.228-44.858,77.262-18.63,113.763,26.228,36.5,77.262,44.858,113.763,18.629,26.581-19.1,38.217-51.354,32.459-81.572l629.217-266.11,7.306,18.375,95.1-66.367ZM131.231,1851.914c-31.108,22.353-74.447,15.256-96.8-15.852-22.353-31.108-15.256-74.447,15.852-96.8,31.108-22.353,74.447-15.256,96.8,15.852,22.353,31.108,15.256,74.447-15.852,96.8Z" stroke="#fff" stroke-miterlimit="10" stroke-width="4"/>
    <path d="M2120.314,1627.308l-.294-19.772,278.097-2.312c6.263,30.117,29.371,55.449,61.243,62.903,43.766,10.237,87.7-17.041,97.937-60.807,10.237-43.766-17.041-87.7-60.807-97.937-43.765-10.236-87.699,17.042-97.936,60.808-1.692,7.236-2.339,14.473-2.075,21.564l-276.659,2.26-.294-19.772-112.483,28.212,113.273,24.852ZM2410.388,1572.959c8.724-37.3,46.034-60.464,83.333-51.74,37.3,8.724,60.464,46.034,51.74,83.333-8.724,37.3-46.034,60.464-83.333,51.74-37.3-8.724-60.464-46.034-51.74-83.333Z" stroke="#fff" stroke-miterlimit="10" stroke-width="4"/>
    <path d="M1321.718,1117.431l-8.581-115.65-18.862,5.937L1003.662,176.158c6.815-1.979,13.482-4.868,19.819-8.75,38.329-23.477,50.411-73.759,26.935-112.087-23.477-38.329-73.759-50.411-112.088-26.934-38.328,23.476-50.411,73.759-26.934,112.087,17.097,27.912,48.408,41.885,78.967,38.362l291.016,832.942-18.862,5.937,59.203,99.717ZM921.758,134.125c-20.008-32.666-9.747-75.366,22.918-95.374,32.666-20.008,75.366-9.747,95.374,22.918,20.008,32.666,9.747,75.366-22.918,95.374-32.666,20.008-75.366,9.747-95.374-22.918Z" stroke="#fff" stroke-miterlimit="10" stroke-width="4"/>
  </g>
  <g id="y" data-name="ECM_Numbers">
    <path d="M1783.354,110.96c0,12.688-11.471,23.012-25.569,23.012s-25.569-10.324-25.569-23.012c0-8.575,5.248-16.057,12.999-20.014-6.28-3.714-10.442-10.112-10.442-17.38,0-11.455,10.324-20.775,23.013-20.775s23.013,9.32,23.013,20.775c0,7.268-4.165,13.667-10.442,17.38,7.751,3.957,12.999,11.439,12.999,20.014ZM1776.962,110.96c0-9.163-8.601-16.62-19.177-16.62s-19.177,7.457-19.177,16.62,8.601,16.62,19.177,16.62,19.177-7.457,19.177-16.62ZM1757.785,87.952c9.163,0,16.62-6.453,16.62-14.383s-7.457-14.382-16.62-14.382-16.62,6.453-16.62,14.382,7.457,14.383,16.62,14.383Z" fill="#e3831f" stroke="#e3831f" stroke-miterlimit="10"/>
    <path d="M103.183,1224.755v6.392h-20.455v-6.392h7.031v-65.595l-4.996,4.136-4.074-4.925,10.153-8.403h5.31v74.787h7.031Z" fill="#e3831f" stroke="#e3831f" stroke-miterlimit="10"/>
    <path d="M76.559,1829.248h39.517v6.392h-48.262v-6.369l8.402-9.17c4.404-4.906,8.444-9.403,12.28-13.494,1.904-1.905,3.812-4.133,5.657-6.287,1.927-2.246,9.626-10.911,9.626-10.911.873-.879,1.365-1.499,1.694-1.908.195-.246.361-.444.499-.598.937-1.192,1.723-2.701,2.278-4.369.527-1.582.796-2.848.796-5.382,0-2.177-.45-4.334-1.339-6.412-.809-2.145-2.097-3.691-3.797-5.392-1.94-1.598-3.778-2.749-5.574-3.42-5.14-1.927-8.601-1.924-13.734,0-2.352.882-4.123,1.969-5.577,3.423-1.678,1.679-3.026,3.593-3.797,5.393l-5.874-2.519c1.1-2.567,2.883-5.124,5.152-7.394,2.096-2.093,4.663-3.691,7.853-4.887,6.539-2.461,11.669-2.461,18.225,0,3.27,1.228,5.922,3.267,7.635,4.692,2.097,2.08,4.193,4.452,5.421,7.725,1.18,2.739,1.803,5.744,1.803,8.793,0,3.362-.432,5.324-1.125,7.405-.803,2.41-1.984,4.631-3.413,6.418l-.438.521c-.428.537-1.07,1.34-2.036,2.302.007,0-7.526,8.476-9.422,10.688-1.924,2.244-3.912,4.564-5.919,6.571-3.736,3.985-7.744,8.45-12.117,13.318l-4.41,4.874-.003-.003Z" fill="#e3831f" stroke="#e3831f" stroke-miterlimit="10"/>
    <path d="M1175.917,2388.831c1.207,2.821,1.799,8.274,1.799,11.03,0,2.946,0,4.893-1.387,10.093-1.225,4.887-3.733,8.176-5.623,10.064-2.112,2.109-6.148,4.804-9.473,5.635-3.136,1.055-8.256,1.055-11.004,1.055-3.248,0-8.876-1.831-11.168-2.812-2.682-1.15-7.715-4.545-10.773-7.262l4.247-4.778c2.675,2.379,7.21,5.377,9.045,6.166,2.11.904,6.776,2.298,8.649,2.298,2.218,0,6.833,0,9.217-.796,2.046-.521,5.086-2.369,6.74-4.023,1.317-1.314,3.075-3.625,3.954-7.145,1.183-4.436,1.183-5.707,1.183-8.492,0-2.838-.648-7.043-1.339-8.651-.786-2.084-1.742-3.669-3.353-5.603-1.403-1.685-2.935-2.89-4.555-3.583-2.01-.862-4.139-1.662-6.092-1.662h-8.63v-6.961l18.991-21.484h-29.219v-6.393h36.116v8.237l-17.86,20.205h.602c3.116,0,6.102,1.1,8.61,2.177,2.554,1.097,4.894,2.901,6.948,5.366,2.08,2.493,3.388,4.682,4.375,7.316l-.002.003Z" fill="#e3831f" stroke="#e3831f" stroke-miterlimit="10"/>
    <path d="M1998.039,2401.139h8.63v6.393h-8.63v15.98h-6.392v-15.98h-33.24v-6.958l33.025-55.047h6.604v55.609l.003.003ZM1991.644,2357.595l-26.125,43.541h26.125v-43.541Z" fill="#e3831f" stroke="#e3831f" stroke-miterlimit="10"/>
    <path d="M2504.485,1580.557c1.215,2.839,1.857,5.817,1.857,8.614v15.661c0,2.8-.643,5.775-1.857,8.61-1.182,2.765-3.138,5.414-5.362,7.268-1.714,1.429-4.369,3.465-7.636,4.692-3.282,1.23-6.182,1.803-9.115,1.803-3.34,0-7.518-.723-10.391-1.8-3.189-1.198-5.756-2.797-7.85-4.891-2.014-1.658-3.967-4.308-5.152-7.072-.716-1.419-1.103-2.96-1.441-4.318l-.096-.776v-2.877h6.393v2.483c.258,1.029.511,1.938.939,2.797.879,2.042,2.186,3.819,3.662,5.05,1.669,1.649,3.439,2.736,5.789,3.618,2.154.806,5.583,1.394,8.146,1.394,2.174,0,4.293-.432,6.869-1.396,1.793-.675,3.633-1.822,5.787-3.618,1.474-1.23,2.781-3.011,3.583-4.878.876-2.045,1.339-4.151,1.339-6.092v-15.661c0-1.939-.463-4.046-1.339-6.095-.799-1.866-2.106-3.644-3.583-4.874-1.668-1.646-3.438-2.735-5.787-3.614l-.979-.378c-1.787-.699-2.605-1.02-5.891-1.02-4.008,0-7.221.856-10.109,2.698-2.157,1.349-4.065,3.257-5.398,5.389l-.939,1.502h-8.482v-37.075h48.262v6.393h-41.869v22.615c1.463-1.637,3.157-3.068,5.018-4.231,3.883-2.474,8.316-3.682,13.52-3.682,4.273,0,5.906.553,8.217,1.457l.896.346c3.189,1.195,5.756,2.793,7.85,4.887,2.011,1.658,3.966,4.305,5.151,7.069v.003Z" fill="#e3831f" stroke="#e3831f" stroke-miterlimit="10"/>
    <path d="M2504.872,1056.427c1.779,3.113,2.02,6.104,2.02,8.616v2.877c0,2.704-.592,5.338-1.857,8.291l-.162.326c-1.461,2.56-3.321,4.787-5.523,6.622-2.014,1.678-4.689,3.148-7.955,4.372-2.66.997-5.744,1.483-9.432,1.483-3.158,0-6.232-.662-9.087-1.375l-.345-.108c-3.268-1.224-5.945-2.697-7.955-4.372-2.203-1.835-4.06-4.065-5.523-6.622-1.78-3.113-2.02-6.102-2.02-8.617-.023-.444-.627-14.456,1.671-24.972,3.071-13.292,17.521-27.749,26.777-33.089l3.192,5.536c-8.211,4.736-21.213,18.046-23.73,28.954-.419,1.911-.729,3.979-.963,6.066.544-.477,1.116-.934,1.714-1.371,1.688-1.353,4.954-3.219,7.726-4.012,2.783-.799,14.645-.85,17.978.399,3.263,1.225,5.941,2.698,7.955,4.376,2.202,1.834,4.062,4.065,5.522,6.622l-.002-.003ZM2500.505,1067.926v-2.876c0-2.436-.328-3.963-1.176-5.446-1.08-1.893-2.448-3.538-4.065-4.884-1.441-1.201-3.554-2.343-6.107-3.298-1.873-.665-12.116-.729-13.986-.24-1.838.527-4.334,1.937-5.587,2.938-3.836,2.815-6.152,6.606-6.152,9.969h-.08c.013,2.228.076,3.649.076,3.691.004,2.582.333,4.107,1.18,5.59,1.084,1.893,2.451,3.538,4.065,4.884,1.403,1.173,3.455,2.288,5.938,3.234,2.403.598,4.951,1.138,7.354,1.138,2.908,0,5.257-.352,7.188-1.073,2.557-.963,4.669-2.101,6.107-3.299,1.572-1.308,2.908-2.898,3.977-4.728.872-2.08,1.266-3.812,1.266-5.6h.002Z" fill="#e3831f" stroke="#e3831f" stroke-miterlimit="10"/>
    <path d="M2505.73,385.729v9.042l-32.92,68.074v.866h-6.393v-2.33l32.921-68.074v-1.186h-41.23v-6.393h47.622Z" fill="#e3831f" stroke="#e3831f" stroke-miterlimit="10"/>
    <path d="M1248.196,99.499c-3.065,13.293-17.518,27.749-26.773,33.09l-3.193-5.536c8.214-4.74,21.216-18.045,23.731-28.954.419-1.911.729-3.979.962-6.066-.543.476-1.112.933-1.71,1.371-1.688,1.352-4.954,3.218-7.725,4.011-2.787.795-14.648.847-17.979-.4-3.27-1.227-5.945-2.697-7.959-4.375-2.202-1.834-4.062-4.065-5.522-6.622-1.78-3.11-2.02-6.102-2.02-8.617v-2.876c0-2.704.591-5.337,1.856-8.291l.163-.326c1.461-2.56,3.32-4.788,5.522-6.622,2.011-1.675,4.686-3.145,7.956-4.373,2.659-.997,5.743-1.483,9.432-1.483,3.154,0,6.229.662,9.086,1.375l.346.108c3.27,1.228,5.944,2.698,7.955,4.373,2.202,1.834,4.062,4.062,5.522,6.622,1.78,3.11,2.021,6.102,2.021,8.617.022.448.63,14.456-1.672,24.975ZM1243.473,78.367h.08c-.013-2.228-.077-3.646-.077-3.691-.003-2.585-.332-4.11-1.18-5.59-1.083-1.898-2.451-3.542-4.065-4.887-1.406-1.173-3.455-2.288-5.938-3.234-2.246-.556-4.835-1.138-7.354-1.138-2.909,0-5.258.352-7.188,1.074-2.557.962-4.67,2.1-6.104,3.298-1.572,1.308-2.908,2.899-3.976,4.727-.873,2.081-1.266,3.813-1.266,5.6v2.876c0,2.439.329,3.967,1.176,5.446,1.08,1.892,2.448,3.538,4.065,4.884,1.441,1.202,3.551,2.34,6.107,3.298,1.873.668,12.12.732,13.986.24,1.838-.527,4.334-1.937,5.587-2.937,3.832-2.816,6.149-6.604,6.149-9.969l-.003.003Z" fill="#e3831f" stroke="#e3831f" stroke-miterlimit="10"/>
    <g>
      <path d="M958.437,127.581v6.392h-20.455v-6.392h7.031V61.986l-4.995,4.136-4.075-4.925,10.154-8.403h5.309v74.787h7.031Z" fill="#e3831f" stroke="#e3831f" stroke-miterlimit="10"/>
      <path d="M1017.184,66.384c1.477,2.947,2.257,6.315,2.257,9.738v34.838c0,3.423-.78,6.795-2.257,9.742-1.381,2.768-3.471,5.36-6.21,7.709-2.445,2.036-5.072,3.423-7.84,4.146-2.525.92-5.245,1.387-8.304,1.416h-.319c-3.417-.025-6.141-.486-8.793-1.48-2.883-1.083-5.449-2.554-7.636-4.375-2.774-2.375-4.864-4.97-6.248-7.738-1.477-2.947-2.257-6.315-2.257-9.735v-34.838c0-3.42.783-6.789,2.257-9.738,1.384-2.768,3.474-5.363,6.213-7.709,2.445-2.039,5.072-3.423,7.84-4.145,2.611-.953,5.434-1.419,8.624-1.419,3.423,0,6.487.496,9.111,1.48,2.884,1.08,5.45,2.554,7.64,4.375,2.432,2.081,4.359,4.605,5.925,7.735h-.003ZM975.973,75.803v31.526l36.676-34.774c-.266-1.163-.662-2.279-1.18-3.314-1.191-2.387-2.569-4.203-4.334-5.714-1.598-1.333-3.548-2.442-5.753-3.27-1.876-.704-4.251-1.074-6.868-1.074-2.513,0-4.593.342-6.549,1.074l-.346.108c-1.895.473-3.723,1.438-5.442,2.87-2.056,1.761-3.621,3.685-4.622,5.686-1.035,2.071-1.582,4.449-1.582,6.881ZM1013.051,110.964v-29.977l-36.32,34.438c.229.726.495,1.432.827,2.1,1.001,2,2.567,3.925,4.657,5.715,1.598,1.33,3.545,2.438,5.753,3.27,1.943.729,4.015,1.061,6.699,1.074,2.441-.013,4.478-.354,6.396-1.074l.345-.109c1.896-.473,3.724-1.438,5.443-2.87,2.052-1.761,3.618-3.685,4.618-5.686,1.036-2.068,1.582-4.446,1.582-6.881Z" fill="#e3831f" stroke="#e3831f" stroke-miterlimit="10"/>
    </g>
    <g>
      <path d="M706.005,127.581v6.392h-20.455v-6.392h7.031V61.987l-4.996,4.136-4.074-4.925,10.153-8.403h5.31v74.787h7.031Z" fill="#e3831f" stroke="#e3831f" stroke-miterlimit="10"/>
      <path d="M739.637,127.581v6.392h-20.455v-6.392h7.031V61.987l-4.995,4.136-4.075-4.925,10.154-8.403h5.309v74.787h7.031Z" fill="#e3831f" stroke="#e3831f" stroke-miterlimit="10"/>
    </g>
  </g>
</svg>