<?xml version="1.0" encoding="UTF-8"?>
<svg id="b" data-name="LRD_-_Light" xmlns="http://www.w3.org/2000/svg" width="2061.538" height="685.565" viewBox="0 0 2061.538 685.565">
  <g>
    <path d="M1003.159,614.764c1.549,1.549,2.406,3.626,2.406,5.842v7.683c0,2.183-.878,4.31-2.406,5.842-1.558,1.554-3.634,2.41-5.842,2.41h-15.559v14.706c0,1.761-1.427,3.188-3.187,3.188s-3.187-1.427-3.187-3.188v-35.71c0-1.76,1.427-3.187,3.187-3.187h18.741c2.183,0,4.31.878,5.842,2.41l.004.004ZM999.192,620.598c0-.528-.182-.976-.54-1.33-.342-.346-.84-.549-1.334-.549h-15.559v11.443h15.559c.523,0,.967-.186,1.33-.549.342-.338.544-.836.544-1.329v-7.687Z"/>
    <path d="M1042.068,615.536v35.71c0,1.761-1.427,3.188-3.188,3.188s-3.187-1.427-3.187-3.188v-14.668h-17.433v14.668c0,1.761-1.427,3.188-3.187,3.188s-3.187-1.427-3.187-3.188v-35.71c0-1.76,1.427-3.187,3.187-3.187s3.187,1.427,3.187,3.187v14.673h17.433v-14.673c0-1.76,1.427-3.187,3.187-3.187s3.188,1.427,3.188,3.187Z"/>
    <path d="M1075.425,648.049c1.76,0,3.187,1.427,3.187,3.188s-1.427,3.187-3.187,3.187h-23.85c-.438,0-.86-.093-1.24-.253-.025-.009-.043-.034-.067-.047-.367-.165-.697-.393-.972-.676-.013-.012-.029-.017-.042-.029-.114-.118-.16-.27-.249-.4-.139-.199-.291-.385-.38-.612-.089-.232-.109-.473-.144-.718-.025-.156-.093-.291-.093-.451,0-.018.009-.034.009-.051.004-.262.084-.511.151-.765.043-.147.047-.312.105-.451.056-.131.165-.236.241-.359.139-.231.274-.468.469-.658.013-.013.029-.042.029-.042l18.15-17.011c2.743-2.579,4.242-5.373,4.111-7.665-.089-1.604-.976-3.01-2.697-4.293-1.161-.857-2.815-1.313-4.766-1.313-3.761,0-6.703.642-8.855,3.77-.996,1.457-2.977,1.819-4.433.823-1.447-.996-1.814-2.979-.818-4.432,4.491-6.53,11.477-6.53,14.106-6.53,3.322,0,6.281.887,8.561,2.562,4.103,3.06,5.128,6.609,5.268,9.054.24,4.238-1.929,8.737-6.116,12.676l-12.274,11.507h15.79l.005-.009Z"/>
  </g>
  <g>
    <path d="M1026.843,23.427c.546-.003,1.091-.005,1.638-.005,9.568,0,19.014.525,28.31,1.547" fill="none" stroke="#000" stroke-miterlimit="10" stroke-width="6"/>
    <path d="M1096.265,32.491c108.496,29.714,188.227,129.017,188.227,246.942,0,141.391-114.62,256.012-256.012,256.012s-256.012-114.62-256.012-256.012c0-123.778,87.842-227.04,204.588-250.846" fill="none" stroke="#000" stroke-dasharray="60.336 40.224" stroke-miterlimit="10" stroke-width="6"/>
    <path d="M996.917,25.348c9.814-1.207,19.8-1.858,29.926-1.921" fill="none" stroke="#000" stroke-miterlimit="10" stroke-width="6"/>
  </g>
  <g id="c" data-name="CompassMarker">
    <path id="d" data-name="path98" d="M1026.843,582c-12.351,0-24.701,0-24.701,0l24.701-42.881,24.701,42.881h-24.701Z" fill="none" stroke="#000" stroke-miterlimit="10" stroke-width="6"/>
  </g>
  <g id="e" data-name="CompassMarker">
    <path id="f" data-name="path98" d="M1191.92,532.629c-9.861,7.436-19.723,14.871-19.723,14.871l-6.093-49.11,45.539,19.367-19.723,14.871Z" fill="none" stroke="#000" stroke-miterlimit="10" stroke-width="6"/>
  </g>
  <g id="g" data-name="CompassMarker">
    <path id="h" data-name="path98" d="M1319.936,193.989l6.427,23.85-47.831-12.693,34.976-35.008s3.214,11.925,6.427,23.85Z" fill="none" stroke="#000" stroke-miterlimit="10" stroke-width="6"/>
  </g>
  <path d="M1028.481,24.452c141.391,0,256.012,114.62,256.012,256.012,0,31.013-5.515,60.738-15.617,88.249l-27.729-13.408" fill="none" stroke="#000" stroke-miterlimit="10" stroke-width="10"/>
</svg>