<?xml version="1.0" encoding="UTF-8"?>
<svg xmlns="http://www.w3.org/2000/svg" width="2393.185" height="2385.391" viewBox="0 0 2393.185 2385.391">
  <g id="d" data-name="PTID_Cut_-_Light">
    <g>
      <rect x="400.281" y="407.394" width="1580" height="1589" fill="none" stroke="#000" stroke-miterlimit="10" stroke-width="3"/>
      <rect x="383.226" y="381.894" width="1610.609" height="1643" rx="37.742" ry="37.742" fill="none" stroke="#000" stroke-miterlimit="10" stroke-width="8"/>
      <g>
        <rect x="232.219" y="579.394" width="94" height="96" fill="none" stroke="#000" stroke-miterlimit="10" stroke-width="8"/>
        <polyline points="235.219 681.394 332.219 681.394 332.219 583.394" fill="none" stroke="#000" stroke-miterlimit="10" stroke-width="12"/>
        <polygon points="315.219 626.894 267.219 612.394 267.219 623.394 241.219 623.394 241.219 631.394 267.219 631.394 267.219 641.394 315.219 626.894"/>
        <rect x="220.719" y="715.894" width="116" height="12" rx="6" ry="6" fill="none" stroke="#000" stroke-miterlimit="10" stroke-width="5"/>
      </g>
      <g>
        <rect x="232.219" y="770.394" width="94" height="96" fill="none" stroke="#000" stroke-miterlimit="10" stroke-width="8"/>
        <polyline points="235.219 872.394 332.219 872.394 332.219 774.394" fill="none" stroke="#000" stroke-miterlimit="10" stroke-width="12"/>
        <polygon points="315.219 817.894 267.219 803.394 267.219 814.394 241.219 814.394 241.219 822.394 267.219 822.394 267.219 832.394 315.219 817.894"/>
        <rect x="220.719" y="906.894" width="116" height="12" rx="6" ry="6" fill="none" stroke="#000" stroke-miterlimit="10" stroke-width="5"/>
      </g>
      <g>
        <rect x="232.219" y="962.394" width="94" height="96" fill="none" stroke="#000" stroke-miterlimit="10" stroke-width="8"/>
        <polyline points="235.219 1064.394 332.219 1064.394 332.219 966.394" fill="none" stroke="#000" stroke-miterlimit="10" stroke-width="12"/>
        <polygon points="315.219 1009.894 267.219 995.394 267.219 1006.394 241.219 1006.394 241.219 1014.394 267.219 1014.394 267.219 1024.394 315.219 1009.894"/>
        <rect x="220.719" y="1098.894" width="116" height="12" rx="6" ry="6" fill="none" stroke="#000" stroke-miterlimit="10" stroke-width="5"/>
      </g>
      <g>
        <rect x="232.219" y="1155.394" width="94" height="96" fill="none" stroke="#000" stroke-miterlimit="10" stroke-width="8"/>
        <polyline points="235.219 1257.394 332.219 1257.394 332.219 1159.394" fill="none" stroke="#000" stroke-miterlimit="10" stroke-width="12"/>
        <polygon points="315.219 1202.894 267.219 1188.394 267.219 1199.394 241.219 1199.394 241.219 1207.394 267.219 1207.394 267.219 1217.394 315.219 1202.894"/>
        <rect x="220.719" y="1291.894" width="116" height="12" rx="6" ry="6" fill="none" stroke="#000" stroke-miterlimit="10" stroke-width="5"/>
      </g>
      <g>
        <rect x="232.219" y="1346.394" width="94" height="96" fill="none" stroke="#000" stroke-miterlimit="10" stroke-width="8"/>
        <polyline points="235.219 1448.394 332.219 1448.394 332.219 1350.394" fill="none" stroke="#000" stroke-miterlimit="10" stroke-width="12"/>
        <polygon points="315.219 1393.894 267.219 1379.394 267.219 1390.394 241.219 1390.394 241.219 1398.394 267.219 1398.394 267.219 1408.394 315.219 1393.894"/>
        <rect x="220.719" y="1482.894" width="116" height="12" rx="6" ry="6" fill="none" stroke="#000" stroke-miterlimit="10" stroke-width="5"/>
      </g>
      <g>
        <rect x="232.219" y="1538.394" width="94" height="96" fill="none" stroke="#000" stroke-miterlimit="10" stroke-width="8"/>
        <polyline points="235.219 1640.394 332.219 1640.394 332.219 1542.394" fill="none" stroke="#000" stroke-miterlimit="10" stroke-width="12"/>
        <polygon points="315.219 1585.894 267.219 1571.394 267.219 1582.394 241.219 1582.394 241.219 1590.394 267.219 1590.394 267.219 1600.394 315.219 1585.894"/>
        <rect x="220.719" y="1674.894" width="116" height="12" rx="6" ry="6" fill="none" stroke="#000" stroke-miterlimit="10" stroke-width="5"/>
      </g>
      <g>
        <rect x="231.751" y="1729.394" width="94" height="96" fill="none" stroke="#000" stroke-miterlimit="10" stroke-width="8"/>
        <polyline points="234.751 1831.394 331.751 1831.394 331.751 1733.394" fill="none" stroke="#000" stroke-miterlimit="10" stroke-width="12"/>
        <polygon points="314.751 1776.894 266.751 1762.394 266.751 1773.394 240.751 1773.394 240.751 1781.394 266.751 1781.394 266.751 1791.394 314.751 1776.894"/>
      </g>
      <g>
        <rect x="2060.716" y="582.858" width="94" height="96" transform="translate(4215.432 1261.716) rotate(-180)" fill="none" stroke="#000" stroke-miterlimit="10" stroke-width="8"/>
        <polyline points="2065.216 684.394 2158.281 684.394 2158.281 586.394" fill="none" stroke="#000" stroke-miterlimit="10" stroke-width="12"/>
        <polygon points="2071.716 630.358 2119.716 615.858 2119.716 626.858 2145.716 626.858 2145.716 634.858 2119.716 634.858 2119.716 644.858 2071.716 630.358"/>
        <rect x="2050.216" y="719.358" width="116" height="12" rx="6" ry="6" transform="translate(4216.432 1450.716) rotate(180)" fill="none" stroke="#000" stroke-miterlimit="10" stroke-width="5"/>
      </g>
      <g>
        <rect x="2060.716" y="773.858" width="94" height="96" transform="translate(4215.432 1643.716) rotate(-180)" fill="none" stroke="#000" stroke-miterlimit="10" stroke-width="8"/>
        <polyline points="2063.281 876.394 2160.281 876.394 2160.281 778.394" fill="none" stroke="#000" stroke-miterlimit="10" stroke-width="12"/>
        <polygon points="2071.716 821.358 2119.716 806.858 2119.716 817.858 2145.716 817.858 2145.716 825.858 2119.716 825.858 2119.716 835.858 2071.716 821.358"/>
        <rect x="2050.216" y="910.358" width="116" height="12" rx="6" ry="6" transform="translate(4216.432 1832.716) rotate(180)" fill="none" stroke="#000" stroke-miterlimit="10" stroke-width="5"/>
      </g>
      <g>
        <rect x="2060.716" y="965.858" width="94" height="96" transform="translate(4215.432 2027.716) rotate(-180)" fill="none" stroke="#000" stroke-miterlimit="10" stroke-width="8"/>
        <polyline points="2060.216 1067.858 2157.216 1067.858 2157.216 969.858" fill="none" stroke="#000" stroke-miterlimit="10" stroke-width="12"/>
        <polygon points="2071.716 1013.358 2119.716 998.858 2119.716 1009.858 2145.716 1009.858 2145.716 1017.858 2119.716 1017.858 2119.716 1027.858 2071.716 1013.358"/>
        <rect x="2050.216" y="1102.358" width="116" height="12" rx="6" ry="6" transform="translate(4216.432 2216.716) rotate(-180)" fill="none" stroke="#000" stroke-miterlimit="10" stroke-width="5"/>
      </g>
      <g>
        <rect x="2060.716" y="1158.858" width="94" height="96" transform="translate(4215.432 2413.716) rotate(-180)" fill="none" stroke="#000" stroke-miterlimit="10" stroke-width="8"/>
        <polyline points="2061.216 1259.858 2158.216 1259.858 2158.216 1161.858" fill="none" stroke="#000" stroke-miterlimit="10" stroke-width="12"/>
        <polygon points="2071.716 1206.358 2119.716 1191.858 2119.716 1202.858 2145.716 1202.858 2145.716 1210.858 2119.716 1210.858 2119.716 1220.858 2071.716 1206.358"/>
        <rect x="2050.216" y="1295.358" width="116" height="12" rx="6" ry="6" transform="translate(4216.432 2602.716) rotate(-180)" fill="none" stroke="#000" stroke-miterlimit="10" stroke-width="5"/>
      </g>
      <g>
        <rect x="2060.716" y="1349.858" width="94" height="96" transform="translate(4215.432 2795.716) rotate(-180)" fill="none" stroke="#000" stroke-miterlimit="10" stroke-width="8"/>
        <polyline points="2062.216 1450.858 2159.216 1450.858 2159.216 1352.858" fill="none" stroke="#000" stroke-miterlimit="10" stroke-width="12"/>
        <polygon points="2071.716 1397.358 2119.716 1382.858 2119.716 1393.858 2145.716 1393.858 2145.716 1401.858 2119.716 1401.858 2119.716 1411.858 2071.716 1397.358"/>
        <rect x="2050.216" y="1486.358" width="116" height="12" rx="6" ry="6" transform="translate(4216.432 2984.716) rotate(-180)" fill="none" stroke="#000" stroke-miterlimit="10" stroke-width="5"/>
      </g>
      <g>
        <rect x="2060.716" y="1541.858" width="94" height="96" transform="translate(4215.432 3179.716) rotate(-180)" fill="none" stroke="#000" stroke-miterlimit="10" stroke-width="8"/>
        <polyline points="2062.216 1641.858 2159.216 1641.858 2159.216 1543.858" fill="none" stroke="#000" stroke-miterlimit="10" stroke-width="12"/>
        <polygon points="2071.716 1589.358 2119.716 1574.858 2119.716 1585.858 2145.716 1585.858 2145.716 1593.858 2119.716 1593.858 2119.716 1603.858 2071.716 1589.358"/>
        <rect x="2050.216" y="1678.358" width="116" height="12" rx="6" ry="6" transform="translate(4216.432 3368.716) rotate(180)" fill="none" stroke="#000" stroke-miterlimit="10" stroke-width="5"/>
      </g>
      <g>
        <rect x="2060.648" y="1729.176" width="94" height="96" transform="translate(4215.296 3554.352) rotate(-180)" fill="none" stroke="#000" stroke-miterlimit="10" stroke-width="8"/>
        <polyline points="2061.148 1831.176 2158.148 1831.176 2158.148 1733.176" fill="none" stroke="#000" stroke-miterlimit="10" stroke-width="12"/>
        <polygon points="2071.648 1776.676 2119.648 1762.176 2119.648 1773.176 2145.648 1773.176 2145.648 1781.176 2119.648 1781.176 2119.648 1791.176 2071.648 1776.676"/>
      </g>
      <g>
        <rect x="611.216" y="2071.448" width="94" height="96" transform="translate(-1461.232 2777.664) rotate(-90)" fill="none" stroke="#000" stroke-miterlimit="10" stroke-width="8"/>
        <polygon points="657.716 2083.449 643.216 2131.448 654.216 2131.448 654.216 2157.448 662.216 2157.448 662.216 2131.448 672.216 2131.448 657.716 2083.449"/>
        <rect x="694.716" y="2113.948" width="116" height="12" rx="6" ry="6" transform="translate(-1367.232 2872.664) rotate(-90)" fill="none" stroke="#000" stroke-miterlimit="10" stroke-width="5"/>
      </g>
      <g>
        <rect x="802.216" y="2071.448" width="94" height="96" transform="translate(-1270.232 2968.664) rotate(-90)" fill="none" stroke="#000" stroke-miterlimit="10" stroke-width="8"/>
        <polygon points="848.716 2083.449 834.216 2131.448 845.216 2131.448 845.216 2157.448 853.216 2157.448 853.216 2131.448 863.216 2131.448 848.716 2083.449"/>
        <rect x="885.716" y="2113.948" width="116" height="12" rx="6" ry="6" transform="translate(-1176.232 3063.664) rotate(-90)" fill="none" stroke="#000" stroke-miterlimit="10" stroke-width="5"/>
      </g>
      <g>
        <rect x="994.216" y="2071.948" width="94" height="96" transform="translate(-1078.732 3161.164) rotate(-90)" fill="none" stroke="#000" stroke-miterlimit="10" stroke-width="8"/>
        <polygon points="1040.716 2083.949 1026.216 2131.948 1037.216 2131.948 1037.216 2157.948 1045.216 2157.948 1045.216 2131.948 1055.216 2131.948 1040.716 2083.949"/>
      </g>
      <g>
        <rect x="1298.216" y="2071.448" width="94" height="96" transform="translate(-774.232 3464.664) rotate(-90)" fill="none" stroke="#000" stroke-miterlimit="10" stroke-width="8"/>
        <polygon points="1344.716 2083.449 1330.216 2131.448 1341.216 2131.448 1341.216 2157.448 1349.216 2157.448 1349.216 2131.448 1359.216 2131.448 1344.716 2083.449"/>
        <rect x="1381.716" y="2113.948" width="116" height="12" rx="6" ry="6" transform="translate(-680.232 3559.664) rotate(-90)" fill="none" stroke="#000" stroke-miterlimit="10" stroke-width="5"/>
      </g>
      <g>
        <rect x="1490.216" y="2071.448" width="94" height="96" transform="translate(-582.232 3656.664) rotate(-90)" fill="none" stroke="#000" stroke-miterlimit="10" stroke-width="8"/>
        <polygon points="1536.716 2083.449 1522.216 2131.448 1533.216 2131.448 1533.216 2157.448 1541.216 2157.448 1541.216 2131.448 1551.216 2131.448 1536.716 2083.449"/>
        <rect x="1573.716" y="2113.948" width="116" height="12" rx="6" ry="6" transform="translate(-488.232 3751.664) rotate(-90)" fill="none" stroke="#000" stroke-miterlimit="10" stroke-width="5"/>
      </g>
      <g>
        <rect x="1681.216" y="2071.948" width="94" height="96" transform="translate(-391.732 3848.164) rotate(-90)" fill="none" stroke="#000" stroke-miterlimit="10" stroke-width="8"/>
        <polygon points="1727.716 2083.949 1713.216 2131.948 1724.216 2131.948 1724.216 2157.948 1732.216 2157.948 1732.216 2131.948 1742.216 2131.948 1727.716 2083.949"/>
      </g>
      <polyline points="614.281 2174.561 711.281 2174.561 711.281 2076.561" fill="none" stroke="#000" stroke-miterlimit="10" stroke-width="12"/>
      <polyline points="805.281 2174.561 902.281 2174.561 902.281 2076.561" fill="none" stroke="#000" stroke-miterlimit="10" stroke-width="12"/>
      <polyline points="996.281 2174.561 1093.281 2174.561 1093.281 2076.561" fill="none" stroke="#000" stroke-miterlimit="10" stroke-width="12"/>
      <polyline points="1304.281 2174.561 1401.281 2174.561 1401.281 2076.561" fill="none" stroke="#000" stroke-miterlimit="10" stroke-width="12"/>
      <polyline points="1493.281 2174.561 1590.281 2174.561 1590.281 2076.561" fill="none" stroke="#000" stroke-miterlimit="10" stroke-width="12"/>
      <polyline points="1686.281 2174.561 1783.281 2174.561 1783.281 2076.561" fill="none" stroke="#000" stroke-miterlimit="10" stroke-width="12"/>
    </g>
  </g>
  <g id="e" data-name="PTID_TAC_PAGE_ATTK__-_Light">
    <g>
      <rect x="429.033" y="524.348" width="37.043" height="152.87" fill="none"/>
      <path d="M457.203,566.157h-3.793v-18.669l-5.795,5.852-5.925-5.852v18.669h-3.794v-24.542h3.794l5.925,5.873,5.795-5.873h3.793v24.542Z"/>
      <path d="M441.588,578.668v6.202l15.644.035v4.025l-15.637-.036v6.202l15.637.035v4.025l-19.334-.036v-4.024h.004v-6.202h-.004v-1.273h-.003v-12.942h.003v-.036h19.334v4.025h-15.644Z"/>
      <path d="M457.202,632.156h-3.79s0,0,0,0h0v-.002l-11.723-17.628v17.63h-3.792v-24.534h3.792l11.723,17.588v-17.589h3.792v24.535Z"/>
      <path d="M457.208,661.024v4.133h-19.313v-.042h0v-24.51h3.792v20.42h11.729v-20.42h3.792v20.42h0Z"/>
    </g>
    <g>
      <rect x="429.098" y="733.565" width="37.043" height="165.392" fill="none"/>
      <path d="M441.752,761.221v16.282h15.519v4.133h-19.311v-24.511h.003v-.037h19.308v4.133h-15.519Z"/>
      <path d="M454.703,814.636h-14.153v-24.513h4.259v20.253h9.894v4.259Z"/>
      <path d="M441.806,827.142v6.199h15.446v14.295h-19.274l.002-4.065h15.445v-6.199h-15.447v-14.261h19.274v4.031h-15.446Z"/>
      <path d="M457.267,880.634h-3.79s0,0,0,0h0v-.002l-11.723-17.628v17.63h-3.792v-24.534h3.792l11.723,17.588v-17.589h3.792v24.535Z"/>
    </g>
    <g>
      <rect x="429.62" y="949.565" width="37.043" height="165.392" fill="none"/>
      <path d="M457.791,976.887h-7.759v20.749h-3.792v-20.749h-7.759v-3.792h19.31v3.792Z"/>
      <path d="M457.81,1006.125v24.511h-3.792v-10.176h-11.744v10.177h-3.792v-24.511h3.792v10.201h11.744v-10.202h3.792Z"/>
      <path d="M455.225,1063.636h-14.153v-24.513h4.259v20.253h9.894v4.259Z"/>
      <path d="M457.818,1084.331c0,6.773-5.466,12.302-12.239,12.302l-7.111.003-.004-24.546h7.09c6.773,0,12.263,5.469,12.263,12.241ZM453.697,1084.343c0-4.335-2.615-8.132-6.95-8.132h-4.44l.065,16.339h4.456c4.335,0,6.869-3.873,6.869-8.207Z"/>
    </g>
    <g>
      <rect x="432.611" y="1594.434" width="80.161" height="165.392" fill="none"/>
      <path d="M455.765,1681.746v-.047h-11.655v6.246h14.478v4.061h-16.618s-1.652,0-1.652,0v-14.294h2.999v-.017h12.449v-6.2h-14.16v-4.005h14.16v-.004h3.792v14.261h-3.792Z"/>
      <path d="M482.307,1692.004l-19.24.002v-24.521l19.24-.002v24.521ZM466.859,1687.944h11.655v-16.451h-11.655v16.451Z"/>
      <path d="M505.057,1692.004l-19.24.002v-24.521l19.24-.002v24.521ZM489.609,1687.944h11.655v-16.451h-11.655v16.451Z"/>
    </g>
    <polygon points="468.295 1564.391 453.557 1589.918 483.033 1589.918 468.295 1564.391" stroke="#000" stroke-miterlimit="10"/>
    <polygon points="468.295 1810.091 453.557 1784.565 483.033 1784.565 468.295 1810.091" stroke="#000" stroke-miterlimit="10"/>
    <g>
      <rect x="604.728" y="1927.304" width="104.217" height="34.435" fill="none"/>
      <path d="M627.797,1959.396l-2.25-7.467h-6.155l-2.254,7.467h-4.366l7.622-24.503h4.139l7.548,24.503h-4.284ZM624.302,1947.797l-1.829-6.07-1.833,6.07h3.662Z"/>
      <path d="M654.902,1938.647h-7.759v20.749h-3.792v-20.749h-7.759v-3.792h19.31v3.792Z"/>
      <path d="M677.722,1938.647h-7.759v20.749h-3.792v-20.749h-7.759v-3.792h19.31v3.792Z"/>
      <path d="M694.94,1959.388l-9.486-9.488v9.497h-4.222v-13.721h0v-.307s0-10.498,0-10.498h4.222v6.357l6.87-6.358h5.971l-11.184,10.722,13.795,13.804-5.967-.008Z"/>
    </g>
    <g>
      <rect x="989.329" y="1927.565" width="104.217" height="34.435" fill="none"/>
      <path d="M1011.162,1949.754h-5.446v9.902h-3.792v-24.553h13.467c3.226,0,5.841,2.615,5.841,5.841v2.969c0,3.176-2.536,5.758-5.693,5.837l5.72,9.907h-4.38s-5.717-9.903-5.717-9.903ZM1005.715,1939.236v6.385h9.735c1.099,0,1.989-.891,1.989-1.989v-2.406c0-1.099-.891-1.989-1.989-1.989h-9.735Z"/>
      <path d="M1026.983,1935.146h3.792v24.512h-3.792v-24.512Z"/>
      <path d="M1055.856,1947.353c0,6.773-5.466,12.302-12.239,12.302l-7.111.003-.004-24.546h7.09c6.773,0,12.263,5.469,12.263,12.241ZM1051.735,1947.364c0-4.335-2.615-8.132-6.95-8.132h-4.44l.065,16.339h4.456c4.335,0,6.869-3.872,6.869-8.207Z"/>
      <path d="M1080.951,1947.353c0,6.773-5.466,12.302-12.239,12.302l-7.111.003-.004-24.546h7.09c6.773,0,12.263,5.469,12.263,12.241ZM1076.83,1947.364c0-4.335-2.615-8.132-6.95-8.132h-4.441l.065,16.339h4.456c4.335,0,6.869-3.872,6.869-8.207Z"/>
    </g>
    <rect x="985.467" y="1930.696" width="107.478" height="36.522" fill="none" stroke="#000" stroke-miterlimit="10" stroke-width="3"/>
    <g>
      <rect x="1293.649" y="1928.608" width="104.217" height="34.435" fill="none"/>
      <path d="M1312.106,1940.212v6.202l15.644.035v4.024l-15.637-.035v6.202l15.637.035v4.024l-19.334-.035v-4.024h.004v-6.202h-.004v-1.273h-.003v-12.942h.003v-.036h19.334v4.025h-15.644Z"/>
      <path d="M1348.433,1948.423l9.596,9.596-2.681,2.682-9.597-9.596-9.597,9.596-2.682-2.682,9.597-9.596-9.597-9.597,2.682-2.682,9.597,9.597,9.597-9.597,2.681,2.682-9.596,9.597Z"/>
      <path d="M1383.091,1941.988v2.969c0,3.226-2.615,5.841-5.842,5.841h-9.675v9.902h-3.792v-24.553h13.467c3.226,0,5.842,2.615,5.842,5.841ZM1379.299,1942.27c0-1.099-.891-1.989-1.989-1.989h-9.735v6.385h9.735c1.099,0,1.989-.891,1.989-1.989v-2.406Z"/>
    </g>
    <g>
      <rect x="1909.785" y="1702.043" width="37.043" height="165.392" fill="none"/>
      <path d="M1935.314,1725.601v20.254c0,2.353-1.907,4.26-4.26,4.26l-3.854-.009c-1.221-.002-3.034-.625-3.857-1.356-.914-.813-1.933-2.536-2.049-3.328-.034-.229.143-.433.373-.433h3.355c.205,0,.393.128.458.322.02.061.052.126.103.193.168.228.442.351.725.351h3.013c.958,0,1.734-.776,1.734-1.734v-18.52h4.26Z"/>
      <path d="M1937.955,1783.114h-3.794v-18.669l-5.795,5.852-5.926-5.852v18.669h-3.794v-24.542h3.794l5.926,5.873,5.795-5.873h3.794v24.542Z"/>
      <path d="M1922.492,1795.62v6.199h15.446v14.295h-19.274l.002-4.065h15.445v-6.198h-15.447v-14.262h19.274v4.031h-15.446Z"/>
      <path d="M1937.954,1849.112h-3.79v.002-.002h-.002v-.002l-11.723-17.628v17.63h-3.793v-24.534h3.793l11.723,17.588v-17.589h3.792v24.535Z"/>
    </g>
    <g>
      <rect x="1908.814" y="1513.173" width="37.043" height="165.392" fill="none"/>
      <path d="M1937.012,1548.939c0,6.772-5.466,12.301-12.239,12.301l-7.11.004-.004-24.547h7.09c6.773,0,12.264,5.469,12.264,12.242ZM1932.891,1548.951c0-4.336-2.615-8.133-6.95-8.133h-4.44l.065,16.34h4.456c4.335,0,6.869-3.873,6.869-8.207Z"/>
      <path d="M1921.369,1573.755v6.202l15.644.035v4.025l-15.637-.036v6.202l15.637.035v4.025l-19.334-.036v-4.024h.004v-6.202h-.004v-1.272h-.003v-12.943h.003v-.035h19.334v4.024h-15.644Z"/>
      <path d="M1921.521,1606.75v6.199h15.446v14.295h-19.274l.002-4.065h15.444v-6.198h-15.446v-14.262h19.274v4.031h-15.446Z"/>
      <path d="M1936.985,1639.494h-7.759v20.75h-3.792v-20.75h-7.759v-3.791h19.31v3.791Z"/>
    </g>
    <g>
      <rect x="1908.814" y="1129.369" width="37.043" height="165.392" fill="none"/>
      <path d="M1932.7,1193.94l-2.25-7.467h-6.154l-2.255,7.467h-4.365l7.621-24.502h4.139l7.549,24.502h-4.284ZM1929.205,1182.34l-1.829-6.07-1.833,6.07h3.662Z" stroke="#000" stroke-miterlimit="10"/>
      <path d="M1934.419,1226.94h-14.153v-24.513h4.259v20.253h9.895v4.259Z" stroke="#000" stroke-miterlimit="10"/>
      <path d="M1936.985,1239.191h-7.759v20.749h-3.792v-20.749h-7.759v-3.792h19.31v3.792Z" stroke="#000" stroke-miterlimit="10"/>
    </g>
    <rect x="1910.64" y="1158.261" width="33.391" height="111.13" fill="none" stroke="#000" stroke-miterlimit="10" stroke-width="3"/>
    <g>
      <rect x="1908.814" y="951.195" width="37.043" height="165.392" fill="none"/>
      <path d="M1936.983,999.265h-3.79s0,0,0,0h0v-.002l-11.724-17.628v17.63h-3.792v-24.534h3.792l11.724,17.588v-17.589h3.792v24.535Z"/>
      <path d="M1932.7,1032.266l-2.25-7.467h-6.154l-2.255,7.467h-4.365l7.621-24.502h4.139l7.549,24.502h-4.284ZM1929.205,1020.667l-1.829-6.07-1.833,6.07h3.662Z"/>
      <path d="M1936.985,1044.517h-7.759v20.749h-3.792v-20.749h-7.759v-3.792h19.31v3.792Z"/>
      <path d="M1931.209,1098.257l-9.486-9.488v9.497h-4.222v-24.525h4.222v6.357l6.87-6.358h5.972l-11.185,10.722,13.796,13.804-5.967-.008Z"/>
    </g>
    <rect x="1910.64" y="964.435" width="33.391" height="143.217" fill="none" stroke="#000" stroke-miterlimit="10" stroke-width="3"/>
    <g>
      <rect x="1908.814" y="766.174" width="37.043" height="111.913" fill="none"/>
      <path d="M1937.011,791.701c0,6.773-5.466,12.302-12.238,12.302l-7.111.003-.004-24.546h7.091c6.772,0,12.263,5.469,12.263,12.241ZM1932.89,791.712c0-4.335-2.615-8.132-6.949-8.132h-4.441l.065,16.339h4.456c4.335,0,6.869-3.873,6.869-8.207Z"/>
      <path d="M1922.447,837.005l-3.284-1.896,13.063-22.627,3.284,1.896-13.063,22.627Z"/>
      <path d="M1934.419,870.005h-14.153v-24.513h4.259v20.253h9.895v4.259Z"/>
    </g>
    <rect x="1910.64" y="766.565" width="33.391" height="111.13" fill="none" stroke="#000" stroke-miterlimit="10" stroke-width="3"/>
    <g>
      <rect x="1908.814" y="585.196" width="37.043" height="111.913" fill="none"/>
      <path d="M1921.521,602.533v6.199h15.446v14.295h-19.274l.002-4.065h15.444v-6.199h-15.446v-14.261h19.274v4.031h-15.446Z"/>
      <path d="M1929.22,647.06v8.967h-3.81v-9.069l-7.77-13.348,3.596-2.059,6.108,10.495,6.108-10.495,3.596,2.059-7.829,13.45Z"/>
      <path d="M1936.983,689.027h-3.793v-18.669l-5.796,5.852-5.925-5.852v18.669h-3.794v-24.542h3.794l5.925,5.873,5.796-5.873h3.793v24.542Z"/>
    </g>
    <rect x="1910.64" y="585.587" width="33.391" height="111.13" fill="none" stroke="#000" stroke-miterlimit="10" stroke-width="3"/>
    <g>
      <rect x="1563.815" y="452.348" width="390.261" height="32.348" fill="none"/>
      <path d="M1586.078,462.313h-8.202v21.934h-4.009v-21.934h-8.201v-4.009h20.412v4.009Z"/>
      <path d="M1594.562,458.303h4.011v19.735l6.126-6.186,6.264,6.186v-19.735h4.01v25.943h-4.01l-6.264-6.208-6.126,6.208h-4.011v-25.943Z"/>
      <path d="M1627.505,462.583v6.553h16.329v15.111h-20.375l.002-4.297h16.326v-6.553h-16.328v-15.075h20.375v4.261h-16.329Z"/>
      <path d="M1672.728,484.247h-4.01v-19.735l-6.127,6.186-6.263-6.186v19.735h-4.011v-25.943h4.011l6.263,6.208,6.127-6.208h4.01v25.943Z"/>
      <path d="M1735.223,484.245h-20.339s0-25.92,0-25.92l20.339-.002v25.922ZM1718.892,479.953h12.321v-17.391h-12.321v17.391Z"/>
      <path d="M1767.166,473.402h0v10.845h-4.008v-15.11h0v-6.568h-15.049v-4.25h16.964v.008h2.093v15.075Z"/>
      <path d="M1780.115,469.297c0-1.369.925-2.331,2.22-2.331s2.146.962,2.184,2.331c0,1.295-.852,2.294-2.221,2.294-1.295,0-2.183-.999-2.183-2.294ZM1780.115,482.359c0-1.369.925-2.331,2.22-2.331s2.146.962,2.184,2.331c0,1.295-.852,2.294-2.221,2.294-1.295,0-2.183-.999-2.183-2.294Z"/>
      <path d="M1817.214,484.245h-20.339s0-25.92,0-25.92l20.339-.002v25.922ZM1800.884,479.953h12.321v-17.391h-12.321v17.391Z"/>
      <path d="M1850.439,484.244h-1.746s-14.584,0-14.584,0v.002h-4.009v-25.923h4.009v.004h12.321v-.006h4.009v25.922ZM1834.109,462.561v6.555h12.321v-6.555h-12.321ZM1834.109,479.952h12.321v-6.603h-12.321v6.603Z"/>
      <path d="M1863.401,469.297c0-1.369.925-2.331,2.22-2.331s2.146.962,2.184,2.331c0,1.295-.852,2.294-2.221,2.294-1.295,0-2.183-.999-2.183-2.294ZM1863.401,482.359c0-1.369.925-2.331,2.22-2.331s2.146.962,2.184,2.331c0,1.295-.852,2.294-2.221,2.294-1.295,0-2.183-.999-2.183-2.294Z"/>
      <path d="M1900.502,473.402h0v10.845h-4.009v-10.865h-16.331v-15.066h4.012v10.803h12.32v-10.792h4.009v15.075Z"/>
      <path d="M1933.726,484.246h-1.746s-17.567,0-17.567,0v-4.292h15.305v-6.603h-14.236v-.007h-2.094v-15.019l20.339-.002v25.922ZM1929.717,469.119v-6.555h-12.321v6.555h12.321Z"/>
    </g>
    <g>
      <rect x="1824.685" y="491.81" width="134.676" height="32.348" fill="none"/>
      <path d="M1846.993,510.701c0,7.16-5.777,13.004-12.938,13.004l-7.517.003-.004-25.948h7.495c7.159,0,12.963,5.781,12.963,12.94ZM1842.637,510.713c0-4.582-2.765-8.596-7.347-8.596h-4.694l.069,17.271h4.711c4.582,0,7.261-4.094,7.261-8.676Z"/>
      <path d="M1859.373,502.05v6.556l16.537.038v4.254l-16.529-.038v6.556l16.529.038v4.254l-20.438-.038v-4.254h.005v-6.556h-.005v-1.346h-.003v-13.682h.003v-.038h20.438v4.254h-16.537Z"/>
      <path d="M1888.412,502.044v6.553h16.328v15.111h-20.375l.002-4.297h16.327v-6.553h-16.329v-15.075h20.375v4.261h-16.328Z"/>
      <path d="M1933.637,501.775h-8.201v21.934h-4.009v-21.934h-8.202v-4.009h20.412v4.009Z"/>
    </g>
    <g>
      <rect x="508.427" y="492.13" width="214.867" height="32.348" fill="none"/>
      <path d="M530.689,502.096h-8.202v21.934h-4.009v-21.934h-8.202v-4.009h20.412v4.009Z"/>
      <path d="M555.254,519.649v-5.461h-7.184v-4.38h11.564l.003,14.221h-20.464v-25.938h20.464v4.261h-16.445v17.298h12.062Z"/>
      <path d="M588.52,502.096h-8.202v21.934h-4.009v-21.934h-8.202v-4.009h20.412v4.009Z"/>
    </g>
    <g>
      <rect x="1531.286" y="811.357" width="341.663" height="32.348" fill="none"/>
      <path d="M1553.556,826.229c0,1.513-.546,2.899-1.449,3.973.903,1.074,1.449,2.459,1.449,3.973v3.552c0,3.41-2.765,5.527-6.175,5.527h-10.235s-4.009.001-4.009.001v-25.927h4.009v.003h10.235c3.41,0,6.175,2.765,6.175,6.175v2.723ZM1537.145,821.701v6.299h10.235c.126,0,.252.005.377.013,1.013-.151,1.789-1.025,1.789-2.08v-2.129c0-1.161-.941-2.103-2.103-2.103h-10.299ZM1549.547,837.43v-2.958c0-1.056-.777-1.929-1.791-2.08-.124.007-.249.012-.375.012h-10.235v6.481h10.299c1.161,0,2.103-.294,2.103-1.455h0Z"/>
      <path d="M1577.915,843.256l-2.378-7.893h-6.506l-2.384,7.893h-4.614l8.057-25.902h4.375l7.979,25.902h-4.528ZM1574.221,830.994l-1.933-6.417-1.938,6.417h3.871Z"/>
      <path d="M1640.928,832.411v-.049h-12.32v6.603h15.305v4.292h-17.567s-1.746,0-1.746,0v-15.11h3.17v-.017h13.159v-6.555h-14.968v-4.233h14.968v-.004h4.009v15.075h-4.009Z"/>
      <path d="M1676.202,843.253h-1.746s-14.584,0-14.584,0v.002h-4.009v-25.923h4.009v.004h12.321v-.006h4.009v25.922ZM1659.872,821.57v6.555h12.321v-6.555h-12.321ZM1659.872,838.961h12.321v-6.603h-12.321v6.603Z"/>
      <path d="M1706.105,832.41h0v10.845h-3.993s-14.97,0-14.97,0v-4.295h14.954v-6.6h-13.159v-4.233h13.16v-6.555h-14.969v-4.233h14.969v-.004h4.009v15.075Z"/>
      <path d="M1720.8,816.367c2.085,0,3.775,1.687,3.775,3.769s-1.69,3.768-3.775,3.768-3.776-1.687-3.776-3.768,1.69-3.769,3.776-3.769ZM1718.853,820.135c0,1.068.873,1.938,1.946,1.938s1.945-.87,1.945-1.938-.872-1.938-1.945-1.938-1.946.87-1.946,1.938Z"/>
      <path d="M1738.958,843.256l-3.472-2.004,13.81-23.919,3.472,2.004-13.81,23.919Z"/>
      <path d="M1784.018,843.254h-20.339s0-25.92,0-25.92l20.339-.002v25.922ZM1767.688,838.962h12.321v-17.391h-12.321v17.391Z"/>
      <path d="M1813.922,832.41h0v10.845h-3.993s-14.97,0-14.97,0v-4.295h14.954v-6.6h-13.159v-4.233h13.16v-6.555h-14.969v-4.233h14.969v-.004h4.009v15.075Z"/>
      <path d="M1843.897,832.411h0v10.845h-4.009v-15.11h0v-6.568h-15.048v-4.25h16.963v.008h2.094v15.075Z"/>
    </g>
    <g>
      <rect x="1703.902" y="850.654" width="169.048" height="32.348" fill="none"/>
      <path d="M1726.211,869.545c0,7.16-5.777,13.004-12.938,13.004l-7.517.003-.004-25.948h7.495c7.159,0,12.963,5.781,12.963,12.94ZM1721.854,869.558c0-4.582-2.765-8.596-7.347-8.596h-4.694l.069,17.271h4.711c4.582,0,7.261-4.094,7.261-8.676Z"/>
      <path d="M1755.098,862.772v3.138c0,3.41-2.765,6.174-6.175,6.175h-10.228v10.468h-4.009v-25.955h14.236c3.41,0,6.175,2.764,6.175,6.175ZM1751.09,863.069c0-1.162-.942-2.103-2.104-2.103h-10.291v6.75h10.291c1.161,0,2.104-.941,2.104-2.103v-2.544Z"/>
      <path d="M1800.756,882.551h-20.338s0-25.92,0-25.92l20.338-.002v25.922ZM1784.427,878.259h12.32v-17.391h-12.32v17.391Z"/>
      <path d="M1829.579,882.55h-1.746s-14.584,0-14.584,0v.002h-4.009v-25.925h4.009v.006h14.969v4.255h-14.969v6.534h13.16v.017h3.17v15.11ZM1813.249,878.258h12.321v-6.603h-12.321v6.603Z"/>
    </g>
    <circle cx="1188.62" cy="1871.543" r="21.848" fill="none" stroke="#000" stroke-miterlimit="10" stroke-width="5"/>
    <line x1="1166.772" y1="1871.543" x2="1210.467" y2="1871.543" stroke="#000" stroke-miterlimit="10" stroke-width="5"/>
    <line x1="1188.62" y1="1893.391" x2="1188.62" y2="1849.696" stroke="#000" stroke-miterlimit="10" stroke-width="5"/>
    <g>
      <rect x="538.161" y="1195.109" width="169.048" height="32.348" fill="none"/>
      <path d="M540.011,1215.389v-4.369h12.318v4.369h-12.318Z"/>
      <path d="M581.143,1227.006h-20.338s0-25.92,0-25.92l20.338-.002v25.922ZM564.814,1222.714h12.321v-17.391h-12.321v17.391Z"/>
      <path d="M589.628,1227.007v-4.261h3.975v4.261h-3.975Z"/>
      <path d="M622.398,1227.006h-20.338s0-25.92,0-25.92l20.338-.002v25.922ZM606.068,1222.714h12.321v-17.391h-12.321v17.391Z"/>
      <path d="M651.221,1227.006h-20.338s0-25.92,0-25.92l20.338-.002v25.922ZM634.891,1222.714h12.321v-17.391h-12.321v17.391Z"/>
    </g>
    <g>
      <rect x="567.508" y="1098.065" width="60.308" height="32.348" fill="none"/>
      <path d="M589.696,1129.963h-1.746s-17.567,0-17.567,0v-4.292h15.305v-6.603h-12.321v.049h-4.009v-15.075h4.009v.004h14.968v4.233h-14.968v6.555h13.16v.017h3.169v15.11Z"/>
      <path d="M598.181,1104.052h4.009v25.912h-4.009v-25.912Z"/>
    </g>
    <g>
      <rect x="581.028" y="1288.631" width="60.308" height="32.348" fill="none"/>
      <path d="M603.216,1320.528h-20.338s0-25.92,0-25.92l20.338-.003v25.923ZM586.887,1316.236h12.321v-17.391h-12.321v17.391Z"/>
    </g>
    <g>
      <rect x="1556.916" y="1512.449" width="60.308" height="32.348" fill="none"/>
      <path d="M1579.185,1527.321c0,1.513-.545,2.898-1.449,3.973.904,1.073,1.449,2.459,1.449,3.973v3.552c0,3.41-2.765,5.527-6.175,5.527h-10.235v.002h-4.009v-25.927h4.009v.003h10.235c3.41,0,6.175,2.765,6.175,6.175v2.723ZM1562.775,1522.792v6.3h10.235c.127,0,.253.005.377.013,1.013-.151,1.79-1.025,1.79-2.08v-2.129c0-1.161-.941-2.104-2.104-2.104h-10.299ZM1575.178,1538.521v-2.958c0-1.056-.778-1.93-1.792-2.08-.124.008-.249.013-.375.013h-10.235v6.481h10.299c1.162,0,2.104-.294,2.104-1.455h0Z"/>
      <path d="M1599.903,1534.869v9.479h-4.026v-9.587l-8.214-14.11,3.801-2.177,6.458,11.095,6.457-11.095,3.801,2.177-8.276,14.219Z"/>
    </g>
    <g>
      <rect x="669.554" y="1447.566" width="80.89" height="32.348" fill="none"/>
      <path d="M690.381,1468.618h0v10.845h-3.993s-14.97,0-14.97,0v-4.295h14.955v-6.601h-13.159v-4.233h13.16v-6.555h-14.968v-4.233h14.968v-.004h4.009v15.075Z"/>
      <path d="M719.196,1479.462l-20.338.002v-25.922l20.338-.002v25.922ZM702.867,1475.17h12.321v-17.391h-12.321v17.391Z"/>
      <path d="M748.019,1479.462l-20.338.002v-25.922l20.338-.002v25.922ZM731.689,1475.17h12.321v-17.391h-12.321v17.391Z"/>
    </g>
    <g>
      <rect x="792.352" y="625.493" width="340.246" height="51.224" fill="none"/>
      <path d="M803.968,656.36h-5.757v10.468h-4.009v-25.955h14.236c3.41,0,6.175,2.764,6.175,6.175v3.138c0,3.357-2.681,6.087-6.019,6.17l6.047,10.473h-4.63s-6.043-10.469-6.043-10.469ZM798.211,645.242v6.75h10.291c1.161,0,2.103-.941,2.103-2.103v-2.544c0-1.162-.942-2.103-2.103-2.103h-10.291Z"/>
      <path d="M838.981,666.829l-2.378-7.893h-6.506l-2.383,7.893h-4.615l8.057-25.902h4.375l7.979,25.902h-4.528ZM835.287,654.567l-1.933-6.417-1.938,6.417h3.871Z"/>
      <path d="M889.168,666.826h-1.746s-14.583,0-14.583,0v.002h-4.009v-25.923h4.009v.004h12.321v-.006h4.009v25.922ZM872.838,645.144v6.555h12.321v-6.555h-12.321ZM872.838,662.535h12.321v-6.603h-12.321v6.603Z"/>
      <path d="M917.991,666.826h-1.746s-14.583,0-14.583,0v.002h-4.009v-25.925h4.009v.006h14.968v4.255h-14.968v6.534h13.16v.017h3.169v15.11ZM901.661,662.535h12.321v-6.603h-12.321v6.603Z"/>
      <path d="M926.476,666.829v-4.261h3.975v4.261h-3.975Z"/>
      <path d="M959.246,666.826h-1.746s-14.583,0-14.583,0v.002h-4.009v-25.925h4.009v.006h14.968v4.255h-14.968v6.534h13.16v.017h3.169v15.11ZM942.916,662.535h12.321v-6.603h-12.321v6.603Z"/>
    </g>
    <g>
      <rect x="1260.554" y="634.931" width="295.259" height="32.348" fill="none"/>
      <path d="M1404.916,666.829h-4.01v-19.735l-6.127,6.186-6.263-6.186v19.735h-4.011v-25.943h4.011l6.263,6.208,6.127-6.208h4.01v25.943Z"/>
      <path d="M1433.821,649.803c0,1.513-.546,2.899-1.449,3.973.903,1.074,1.449,2.459,1.449,3.973v3.552c0,3.41-2.765,5.527-6.175,5.527h-10.235s-4.009.001-4.009.001v-25.927h4.009v.003h10.235c3.41,0,6.175,2.765,6.175,6.175v2.723ZM1417.411,645.274v6.299h10.235c.126,0,.252.005.377.013,1.013-.151,1.789-1.025,1.789-2.08v-2.129c0-1.161-.941-2.103-2.103-2.103h-10.299ZM1429.812,661.003v-2.958c0-1.056-.777-1.929-1.791-2.08-.124.007-.249.012-.375.012h-10.235v6.481h10.299c1.161,0,2.103-.294,2.103-1.455h0Z"/>
      <path d="M1492.297,655.984v-.049h-12.32v6.603h15.305v4.292h-17.567s-1.746,0-1.746,0v-15.11h3.169v-.017h13.16v-6.555h-14.968v-4.233h14.968v-.004h4.009v15.075h-4.009Z"/>
      <path d="M1525.129,666.826h-1.746s-14.583,0-14.583,0v.002h-4.009v-25.925h4.009v.006h14.968v4.255h-14.968v6.534h13.16v.017h3.169v15.11ZM1508.8,662.535h12.32v-6.603h-12.32v6.603Z"/>
      <path d="M1553.952,666.829h-1.746s-17.567,0-17.567,0v-4.292h15.305v-6.603h-14.236v-.007h-2.094v-15.019l20.339-.002v25.922ZM1549.943,651.701v-6.555h-12.321v6.555h12.321Z"/>
    </g>
    <g>
      <rect x="1531.626" y="767.739" width="360.397" height="32.348" fill="none"/>
      <path d="M1553.895,782.612c0,1.513-.546,2.899-1.449,3.973.903,1.074,1.449,2.459,1.449,3.973v3.552c0,3.41-2.765,5.527-6.175,5.527h-10.235s-4.009.001-4.009.001v-25.927h4.009v.003h10.235c3.41,0,6.175,2.765,6.175,6.175v2.723ZM1537.485,778.083v6.299h10.235c.126,0,.252.005.377.013,1.013-.151,1.789-1.025,1.789-2.08v-2.129c0-1.161-.941-2.103-2.103-2.103h-10.299ZM1549.887,793.812v-2.958c0-1.056-.777-1.929-1.791-2.08-.124.007-.249.012-.375.012h-10.235v6.481h10.299c1.161,0,2.103-.294,2.103-1.455h0Z"/>
      <path d="M1582.785,777.705h-8.202v21.934h-4.009v-21.934h-8.201v-4.009h20.412v4.009Z"/>
      <path d="M1641.267,788.793v-.049h-12.32v6.603h15.305v4.292h-17.567s-1.746,0-1.746,0v-15.11h3.169v-.017h13.16v-6.555h-14.968v-4.233h14.968v-.004h4.009v15.075h-4.009Z"/>
      <path d="M1675.26,788.793h0v10.845h-4.008v-15.11h0v-6.568h-15.049v-4.25h16.964v.008h2.093v15.075Z"/>
      <path d="M1705.15,788.792h0v10.845h-3.993s-14.971,0-14.971,0v-4.295h14.955v-6.6h-13.159v-4.233h13.16v-6.555h-14.969v-4.233h14.969v-.004h4.009v15.075Z"/>
      <path d="M1719.845,772.749c2.085,0,3.775,1.687,3.775,3.769s-1.69,3.768-3.775,3.768-3.776-1.687-3.776-3.768,1.69-3.769,3.776-3.769ZM1717.898,776.518c0,1.068.873,1.938,1.946,1.938s1.945-.87,1.945-1.938-.873-1.938-1.945-1.938-1.946.87-1.946,1.938Z"/>
      <path d="M1738.003,799.638l-3.472-2.004,13.81-23.919,3.472,2.004-13.81,23.919Z"/>
      <path d="M1762.725,773.726h4.009v25.912h-4.009v-25.912Z"/>
      <path d="M1793.965,788.793v-.049h-12.32v6.603h15.305v4.292h-17.567s-1.746,0-1.746,0v-15.11h3.169v-.017h13.16v-6.555h-14.968v-4.233h14.968v-.004h4.009v15.075h-4.009Z"/>
      <path d="M1827.878,788.792h0v10.845h-3.993s-14.971,0-14.971,0v-4.295h14.955v-6.6h-13.159v-4.233h13.16v-6.555h-14.969v-4.233h14.969v-.004h4.009v15.075Z"/>
    </g>
    <g>
      <rect x="1441.507" y="1928.608" width="181.21" height="34.435" fill="none"/>
      <path d="M1473.05,1948.396c0,6.773-5.466,12.302-12.238,12.302l-7.111.003-.004-24.546h7.091c6.772,0,12.263,5.469,12.263,12.241ZM1468.929,1948.408c0-4.335-2.615-8.132-6.95-8.132h-4.44l.065,16.339h4.456c4.335,0,6.869-3.872,6.869-8.207Z"/>
      <path d="M1482.485,1940.213v6.202l15.644.035v4.024l-15.637-.035v6.202l15.637.035v4.024l-19.334-.035v-4.024h.004v-6.202h-.004v-1.273h-.003v-12.942h.003v-.036h19.334v4.025h-15.644Z"/>
      <path d="M1507.68,1940.208v6.198h15.446v14.295h-19.274l.002-4.064h15.444v-6.199h-15.446v-14.261h19.274v4.031h-15.446Z"/>
      <path d="M1548.185,1939.952h-7.759v20.749h-3.792v-20.749h-7.759v-3.792h19.31v3.792Z"/>
      <path d="M1586.825,1960.7h-19.239s0-24.521,0-24.521l19.239-.002v24.522ZM1571.378,1956.64h11.655v-16.451h-11.655v16.451Z"/>
      <path d="M1610.527,1950.441h0v10.26h-17.938v-4.062h14.146v-6.244h-12.448v-4.005h12.449v-6.2h-14.16v-4.005h14.16v-.004h3.792v14.261Z"/>
    </g>
    <g>
      <rect x="1410.263" y="1720.957" width="225.553" height="47.087" fill="none"/>
      <path d="M1436.737,1739.675v3.731c0,4.056-3.287,7.344-7.343,7.344h-12.164v12.449h-4.768v-30.867h16.931c4.056,0,7.344,3.287,7.344,7.343ZM1431.971,1740.028c0-1.381-1.12-2.501-2.501-2.501h-12.239v8.027h12.239c1.381,0,2.501-1.12,2.501-2.501v-3.025Z"/>
      <path d="M1471.126,1732.385v30.814h-4.768v-12.794h-14.765v12.794h-4.768v-30.814h4.768v12.825h14.765v-12.825h4.768Z"/>
      <path d="M1485.958,1737.534v20.47h19.51v5.195h-24.277v-30.814h.003v-.046h24.274v5.195h-19.51Z"/>
      <path d="M1539.744,1750.302h0v12.897h-4.768v-12.921h-19.422v-17.918h4.771v12.848h14.652v-12.835h4.768v17.929Z"/>
    </g>
    <g>
      <rect x="792.352" y="673.711" width="340.246" height="51.224" fill="none"/>
      <path d="M809.163,715.047h-14.961v-25.913h4.502v21.41h10.459v4.502Z"/>
      <path d="M838.035,693.114h-8.202v21.934h-4.009v-21.934h-8.202v-4.009h20.412v4.009Z"/>
      <path d="M883.692,715.046h-20.338s0-25.92,0-25.92l20.338-.002v25.922ZM867.363,710.754h12.321v-17.391h-12.321v17.391Z"/>
    </g>
    <g>
      <rect x="1260.554" y="683.149" width="295.259" height="32.348" fill="none"/>
      <path d="M1322.763,715.047l-2.378-7.893h-6.507l-2.383,7.893h-4.615l8.057-25.902h4.375l7.979,25.902h-4.528ZM1319.068,702.786l-1.934-6.417-1.938,6.417h3.871Z"/>
      <path d="M1350.738,715.047h-14.962v-25.913h4.503v21.41h10.459v4.502Z"/>
      <path d="M1403.227,695.362v8.696h8.362v2.22h-8.362v8.77h-2.368v-8.77h-8.363v-2.22h8.363v-8.696h2.368Z" stroke="#000" stroke-miterlimit="10" stroke-width="3"/>
      <path d="M1438.668,704.202h0v10.845h-3.993s-14.97,0-14.97,0v-4.295h14.954v-6.6h-13.158v-4.233h13.159v-6.555h-14.968v-4.233h14.968v-.004h4.009v15.075Z"/>
      <path d="M1467.485,704.203h0v10.845h-4.009v-10.865h-16.331v-15.066h4.012v10.803h12.32v-10.792h4.009v15.075Z"/>
      <path d="M1496.306,715.047h-1.746s-17.567,0-17.567,0v-4.292h15.305v-6.603h-14.236v-.007h-2.093v-15.019l20.338-.002v25.922ZM1492.297,699.919v-6.555h-12.32v6.555h12.32Z"/>
      <path d="M1525.129,715.044h-1.746s-14.584,0-14.584,0v.002h-4.009v-25.923h4.009v.004h12.321v-.006h4.009v25.922ZM1508.799,693.362v6.555h12.321v-6.555h-12.321ZM1508.799,710.753h12.321v-6.603h-12.321v6.603Z"/>
      <path d="M1553.951,715.047h-1.746s-17.567,0-17.567,0v-4.292h15.305v-6.603h-12.32v.049h-4.009v-15.075h4.009v.004h14.968v4.233h-14.968v6.555h13.16v.017h3.169v15.11Z"/>
    </g>
    <g>
      <rect x="1735.422" y="1163.314" width="126.176" height="32.348" fill="none"/>
      <path d="M1747.633,1175.527v8.696h8.362v2.22h-8.362v8.77h-2.368v-8.77h-8.362v-2.22h8.362v-8.696h2.368Z" stroke="#000" stroke-miterlimit="10" stroke-width="2"/>
      <path d="M1764.097,1169.3h4.009v25.912h-4.009v-25.912Z"/>
      <path d="M1796.904,1195.211h-20.339s0-25.92,0-25.92l20.339-.002v25.922ZM1780.574,1190.919h12.321v-17.391h-12.321v17.391Z"/>
      <path d="M1825.726,1195.212h-1.746s-17.567,0-17.567,0v-4.292h15.305v-6.603h-14.236v-.007h-2.093v-15.019l20.338-.002v25.922ZM1821.718,1180.084v-6.555h-12.32v6.555h12.32Z"/>
      <path d="M1853.188,1184.367h0v10.845h-3.993s-14.971,0-14.971,0v-4.295h14.955v-6.6h-13.159v-4.233h13.16v-6.555h-14.969v-4.233h14.969v-.004h4.009v15.075Z"/>
    </g>
    <g>
      <rect x="1752.255" y="1278.587" width="109.344" height="32.348" fill="none"/>
      <path d="M1764.466,1290.801v8.696h8.362v2.22h-8.362v8.77h-2.368v-8.77h-8.362v-2.22h8.362v-8.696h2.368Z" stroke="#000" stroke-miterlimit="10" stroke-width="2"/>
      <path d="M1801.268,1310.486h-19.313v-4.292h15.305v-6.603h-12.321v.05h-4.009v-15.075h4.009v.004h14.969v4.233h-14.969v6.555h13.16v.018h3.17v15.11Z"/>
      <path d="M1830.091,1310.483h-1.746s-14.583,0-14.583,0v.002h-4.009v-25.925h4.009v.006h14.968v4.255h-14.968v6.534h13.16v.017h3.169v15.11ZM1813.762,1306.192h12.32v-6.603h-12.32v6.603Z"/>
      <path d="M1857.632,1299.642h0v10.845h-4.008v-15.11h0v-6.568h-15.049v-4.249h16.964v.008h2.093v15.075Z"/>
    </g>
    <line x1="1260.554" y1="1251.394" x2="1980.281" y2="1251.394" stroke="#000" stroke-miterlimit="10" stroke-width="4"/>
    <line x1="400.281" y1="1251.394" x2="1114.598" y2="1251.394" stroke="#000" stroke-miterlimit="10" stroke-width="4"/>
    <polyline points="1217.164 1177.401 1217.164 1156.009 1259.164 1156.009 1259.164 1177.401" fill="none" stroke="#000" stroke-miterlimit="10" stroke-width="4"/>
    <line x1="1238.164" y1="1174.36" x2="1245.293" y2="1337.087" stroke="#000" stroke-miterlimit="10" stroke-width="4"/>
    <rect x="1235.572" y="1171.768" width="5.185" height="5.185" rx="2.592" ry="2.592" stroke="#000" stroke-miterlimit="10" stroke-width="4"/>
    <g>
      <rect x="1146.729" y="1159.662" width="66.261" height="40.696" fill="none"/>
      <path d="M1184.516,1181.38h0v11.431h-4.209s-15.778,0-15.778,0v-4.527h15.762v-6.956h-13.87v-4.463h13.871v-6.908h-15.777v-4.463h15.777v-.004h4.225v15.89Z" stroke="#000" stroke-miterlimit="10" stroke-width=".75"/>
      <path d="M1211.028,1192.812h-20.357v-4.523h16.131v-6.96h-12.987v.053h-4.225v-15.89h4.225v.004h15.777v4.462h-15.777v6.909h13.872v.019h3.341v15.927Z" stroke="#000" stroke-miterlimit="10" stroke-width=".75"/>
    </g>
    <line x1="958.041" y1="845.002" x2="980.741" y2="867.702" stroke="#000" stroke-miterlimit="10" stroke-width="3"/>
    <line x1="972.753" y1="830.29" x2="995.453" y2="852.99" stroke="#000" stroke-miterlimit="10" stroke-width="3"/>
    <circle cx="977.008" cy="848.598" r="3.903" stroke="#000" stroke-miterlimit="10" stroke-width="2"/>
    <line x1="535.525" y1="978.012" x2="558.224" y2="1000.711" stroke="#000" stroke-miterlimit="10" stroke-width="3"/>
    <line x1="550.237" y1="963.3" x2="572.936" y2="986" stroke="#000" stroke-miterlimit="10" stroke-width="3"/>
    <circle cx="554.496" cy="981.74" r="3.936" stroke="#000" stroke-miterlimit="10" stroke-width="2"/>
    <g>
      <rect x="1005.569" y="827.268" width="80.89" height="32.348" fill="none"/>
      <path d="M1026.476,848.321h0v10.845h-4.008v-15.11h0v-6.569h-15.048v-4.249h16.963v.008h2.093v15.075Z"/>
    </g>
    <g>
      <rect x="579.538" y="963.702" width="28.489" height="32.348" fill="none"/>
      <path d="M601.729,984.756h0v10.845h-4.009v-10.865h-16.331v-15.066h4.012v10.803h12.32v-10.792h4.009v15.075Z"/>
    </g>
    <g>
      <line x1="1493.508" y1="1993.451" x2="1495.441" y2="1987.771" fill="none" stroke="#000" stroke-miterlimit="10" stroke-width="4"/>
      <polyline points="1499.349 1976.285 1645.206 1547.604 1449.751 996.782" fill="none" stroke="#000" stroke-dasharray="12.132 12.132" stroke-miterlimit="10" stroke-width="4"/>
      <polyline points="1447.723 991.065 1445.716 985.41 1439.716 985.385" fill="none" stroke="#000" stroke-miterlimit="10" stroke-width="4"/>
      <line x1="1427.726" y1="985.336" x2="570.427" y2="981.79" fill="none" stroke="#000" stroke-dasharray="11.99 11.99" stroke-miterlimit="10" stroke-width="4"/>
      <polyline points="564.432 981.765 558.432 981.74 561.101 987.114" fill="none" stroke="#000" stroke-miterlimit="10" stroke-width="4"/>
      <line x1="566.447" y1="997.877" x2="1055.647" y2="1982.695" fill="none" stroke="#000" stroke-dasharray="12.018 12.018" stroke-miterlimit="10" stroke-width="4"/>
      <line x1="1058.32" y1="1988.077" x2="1060.989" y2="1993.451" fill="none" stroke="#000" stroke-miterlimit="10" stroke-width="4"/>
    </g>
    <line x1="961.08" y1="832.68" x2="991.803" y2="863.403" stroke="#000" stroke-miterlimit="10" stroke-width="3"/>
    <g>
      <rect x="505.92" y="963.702" width="27.877" height="32.348" fill="none"/>
      <path d="M526.747,984.755h0v10.845h-3.993s-14.97,0-14.97,0v-4.295h14.954v-6.6h-13.159v-4.233h13.16v-6.555h-14.968v-4.233h14.968v-.004h4.009v15.075Z"/>
    </g>
    <line x1="1428.668" y1="977.746" x2="1451.368" y2="1000.446" stroke="#000" stroke-miterlimit="10" stroke-width="3"/>
    <line x1="1443.38" y1="963.034" x2="1466.08" y2="985.734" stroke="#000" stroke-miterlimit="10" stroke-width="3"/>
    <circle cx="1447.64" cy="981.475" r="3.936" stroke="#000" stroke-miterlimit="10" stroke-width="2"/>
    <g>
      <rect x="1472.682" y="963.437" width="28.489" height="32.348" fill="none"/>
      <path d="M1493.51,984.489h0v10.845h-3.993s-14.97,0-14.97,0v-4.295h14.954v-6.6h-13.159v-4.233h13.16v-6.555h-14.969v-4.233h14.969v-.004h4.009v15.075Z"/>
    </g>
    <g>
      <rect x="1408.184" y="963.437" width="27.877" height="32.348" fill="none"/>
      <path d="M1410.034,969.423h4.009v25.912h-4.009v-25.912Z"/>
    </g>
    <line x1="1625.389" y1="1543.876" x2="1648.089" y2="1566.575" stroke="#000" stroke-miterlimit="10" stroke-width="3"/>
    <line x1="1640.101" y1="1529.164" x2="1662.801" y2="1551.863" stroke="#000" stroke-miterlimit="10" stroke-width="3"/>
    <circle cx="1644.36" cy="1547.604" r="3.936" stroke="#000" stroke-miterlimit="10" stroke-width="2"/>
    <g>
      <rect x="1669.403" y="1529.566" width="28.489" height="32.348" fill="none"/>
      <path d="M1687.583,1550.619v-.05h-12.321v6.603h15.305v4.292h-19.313v-15.11h3.17v-.018h13.16v-6.555h-14.969v-4.233h14.969v-.004h4.009v15.075h-4.009Z"/>
    </g>
    <g>
      <rect x="1597.512" y="1529.566" width="27.877" height="32.348" fill="none"/>
      <path d="M1615.692,1550.619v-.049h-12.321v6.603h15.305v4.292h-17.567s-1.746,0-1.746,0v-15.11h3.17v-.017h13.16v-6.556h-14.969v-4.233h14.969v-.004h4.009v15.075h-4.009Z"/>
    </g>
    <g>
      <circle cx="843.894" cy="1885.072" r="15.999" fill="none" stroke="#000" stroke-miterlimit="10" stroke-width="3"/>
      <circle cx="843.894" cy="1885.072" r="2.986" fill="none" stroke="#000" stroke-miterlimit="10" stroke-width="2"/>
      <line x1="827.575" y1="1868.753" x2="860.213" y2="1901.39" fill="none" stroke="#000" stroke-miterlimit="10" stroke-width="3"/>
    </g>
    <g>
      <rect x="793.18" y="1868.113" width="109.101" height="32.348" fill="none"/>
      <path d="M815.369,1900.011h-20.338s0-25.92,0-25.92l20.338-.003v25.923ZM799.039,1895.719h12.321v-17.391h-12.321v17.391Z"/>
      <path d="M894.695,1900.01h-16.33v.002h-4.009v-25.925h4.009v.007h14.968v4.254h-14.968v6.534h13.16v.017h3.169v15.111ZM878.366,1895.718h12.321v-6.603h-12.321v6.603Z"/>
    </g>
    <line x1="956.511" y1="1911.13" x2="843.894" y2="1885.072" stroke="#000" stroke-miterlimit="10" stroke-width="4"/>
    <polyline points="1217.164 1180.009 1238.164 1200.683 1259.164 1180.162" fill="none" stroke="#000" stroke-miterlimit="10" stroke-width="4"/>
    <polyline points="1173.174 1149.295 1173.174 1127.903 1215.174 1127.903 1215.174 1149.295" fill="none" stroke="#000" stroke-miterlimit="10" stroke-width="4"/>
    <line x1="1194.174" y1="1146.254" x2="1201.303" y2="1308.981" stroke="#000" stroke-miterlimit="10" stroke-width="4"/>
    <rect x="1191.582" y="1143.662" width="5.185" height="5.185" rx="2.592" ry="2.592" stroke="#000" stroke-miterlimit="10" stroke-width="4"/>
    <g>
      <rect x="1102.739" y="1131.556" width="66.261" height="40.696" fill="none"/>
      <path d="M1141.969,1153.274h0v11.431h-4.209s-15.778,0-15.778,0v-4.527h15.762v-6.956h-13.87v-4.463h13.871v-6.908h-15.777v-4.463h15.777v-.004h4.225v15.89Z" stroke="#000" stroke-miterlimit="10" stroke-width=".75"/>
      <path d="M1167.045,1153.274h0v11.431h-4.209s-15.778,0-15.778,0v-4.527h15.762v-6.956h-13.87v-4.463h13.871v-6.908h-15.777v-4.463h15.777v-.004h4.225v15.89Z" stroke="#000" stroke-miterlimit="10" stroke-width=".75"/>
    </g>
    <polyline points="1173.174 1151.903 1194.174 1172.577 1215.174 1152.056" fill="none" stroke="#000" stroke-miterlimit="10" stroke-width="4"/>
    <circle cx="1291.207" cy="1201.826" r="13.826" fill="none" stroke="#000" stroke-miterlimit="10" stroke-width="3"/>
  </g>
  <g id="f" data-name="PTID_TAC_PAGE_ATTK_Arrows_-_Light">
    <path d="M1522.215,2074.292l19.747-1.028,3.98,122.31c-41.557,5.619-72.648,42.377-70.43,84.987,2.337,44.886,40.755,79.503,85.642,77.166,44.886-2.337,79.502-40.755,77.166-85.642-2.218-42.61-36.958-75.941-78.874-77.215l-3.98-122.31,19.747-1.028-32.368-111.359-20.63,114.118ZM1553.31,2207.058c38.254-1.991,70.88,27.405,72.872,65.66,1.991,38.254-27.405,70.88-65.66,72.872-38.254,1.991-70.88-27.405-72.872-65.66-1.991-38.254,27.405-70.88,65.66-72.872Z" stroke="#fff" stroke-miterlimit="10" stroke-width="4"/>
    <path d="M636.551,1960.174l-32.368,111.359,19.747,1.028-3.98,122.31c-41.916,1.274-76.656,34.605-78.874,77.215-2.337,44.886,32.28,83.305,77.166,85.642,44.886,2.337,83.305-32.28,85.642-77.166,2.218-42.61-28.873-79.368-70.43-84.987l3.98-122.31,19.747,1.028-20.63-114.118ZM691.745,2279.93c-1.991,38.254-34.617,67.651-72.872,65.66-38.254-1.991-67.651-34.617-65.66-72.872,1.991-38.254,34.617-67.651,72.872-65.66,38.254,1.991,67.651,34.617,65.66,72.872Z" stroke="#fff" stroke-miterlimit="10" stroke-width="4"/>
    <path d="M996.66,1111.193l-3.162,19.52-825.403-136.736c3.277-41.807-26.093-79.955-68.211-86.778-44.369-7.188-86.313,23.06-93.501,67.429-7.188,44.368,23.061,86.312,67.429,93.5,42.119,6.824,82.03-20.1,92.12-60.803l825.403,136.736-3.162,19.52,115.681-8.14-107.194-44.247ZM155.314,998.755c-6.126,37.813-41.746,63.501-79.559,57.375s-63.501-41.746-57.375-79.559c6.126-37.813,41.746-63.501,79.559-57.375s63.501,41.746,57.375,79.559Z" stroke="#fff" stroke-miterlimit="10" stroke-width="4"/>
    <path d="M1305.033,1201.826l115.353-11.921-6.479-18.682,819.594-276.121c16.955,38.355,60.91,57.996,101.222,44.015,42.466-14.728,65.032-61.258,50.304-103.723-14.728-42.466-61.258-65.032-103.724-50.304-40.312,13.981-62.667,56.62-52.233,97.237l-819.594,276.121-6.479-18.682-97.964,62.061ZM2285.285,796.573c36.191-12.552,75.706,6.612,88.257,42.803,12.552,36.191-6.612,75.706-42.803,88.257-36.191,12.552-75.706-6.612-88.257-42.803-12.552-36.191,6.612-75.706,42.803-88.257Z" stroke="#fff" stroke-miterlimit="10" stroke-width="4"/>
    <path d="M1423.346,1773.498l-93.13,69.103,15.104,12.763-320.997,354.691c-34.15-24.338-81.975-18.806-109.513,13.785-29.01,34.332-24.679,85.864,9.652,114.873,34.332,29.01,85.864,24.679,114.874-9.652,27.538-32.591,25.012-80.668-4.684-110.278l320.997-354.691,15.104,12.763,52.594-103.356ZM1030.05,2321.216c-24.723,29.259-68.485,32.937-97.745,8.213-29.259-24.723-32.937-68.485-8.213-97.745,24.723-29.259,68.485-32.937,97.745-8.213,29.259,24.723,32.937,68.485,8.213,97.745Z" stroke="#fff" stroke-miterlimit="10" stroke-width="4"/>
    <path d="M779.463,1886.483l-112.339-24.744.276,19.613-499.216-1.059c.058-7.039-.791-14.196-2.677-21.322-11.406-43.101-55.751-68.886-98.85-57.48-43.101,11.406-68.886,55.751-57.48,98.851,11.406,43.1,55.75,68.885,98.851,57.479,31.387-8.306,53.572-34.086,58.917-64.127l500.643,1.069.276,19.613,111.599-27.893ZM104.944,1946.167c-36.733,9.721-74.39-12.176-84.111-48.909-9.721-36.733,12.176-74.39,48.909-84.111,36.733-9.721,74.39,12.176,84.111,48.909,9.721,36.733-12.176,74.39-48.909,84.111Z" stroke="#fff" stroke-miterlimit="10" stroke-width="4"/>
    <path d="M1985.557,1176.782l-4.221-19.318,248.443-51.828c12.292,40.093,53.611,64.803,95.295,55.696,43.911-9.594,71.83-53.123,62.237-97.035-9.594-43.91-53.123-71.83-97.035-62.236-41.684,9.107-68.933,48.798-63.383,90.365l-248.443,51.828-4.221-19.318-104.625,50.02,115.953,1.827ZM2239.915,1096.502c-8.176-37.423,15.533-74.389,52.956-82.566,37.423-8.176,74.389,15.533,82.566,52.956,8.176,37.423-15.533,74.389-52.956,82.566-37.423,8.176-74.389-15.533-82.566-52.956Z" stroke="#fff" stroke-miterlimit="10" stroke-width="4"/>
    <path d="M1869.604,1288.961l104.625,50.02,4.221-19.318,248.443,51.828c-5.549,41.566,21.699,81.257,63.383,90.365,43.911,9.594,87.441-18.325,97.035-62.236,9.594-43.911-18.325-87.441-62.237-97.035-41.684-9.107-83.003,15.603-95.295,55.696l-248.443-51.828,4.221-19.318-115.953,1.827ZM2322.481,1314.459c37.423,8.176,61.133,45.142,52.956,82.566-8.176,37.423-45.142,61.133-82.566,52.956-37.423-8.176-61.133-45.142-52.956-82.566,8.176-37.423,45.142-61.133,82.566-52.956Z" stroke="#fff" stroke-miterlimit="10" stroke-width="4"/>
  </g>
  <g id="g" data-name="PTID_TAC_PAGE_ATTK_Numbers">
    <path d="M99.682,1021.16v7h-22.401v-7h7.701v-71.834l-5.471,4.529-4.463-5.394,11.12-9.202h5.814v81.901h7.7Z" fill="#ff8500" stroke="#ff8500" stroke-miterlimit="10"/>
    <path d="M70.527,1913h43.276v7h-52.854v-6.976l9.202-10.042c4.823-5.373,9.248-10.298,13.448-14.777,2.086-2.086,4.176-4.526,6.195-6.885,2.11-2.461,10.542-11.95,10.542-11.95.956-.963,1.495-1.642,1.855-2.09.214-.27.396-.486.546-.654,1.025-1.306,1.887-2.957,2.496-4.784.577-1.733.871-3.119.871-5.895,0-2.384-.493-4.746-1.467-7.021-.885-2.349-2.296-4.043-4.158-5.905-2.124-1.75-4.137-3.01-6.104-3.745-5.629-2.11-9.42-2.106-15.041,0-2.576.967-4.515,2.156-6.107,3.749-1.838,1.838-3.314,3.935-4.158,5.904l-6.434-2.758c1.204-2.811,3.157-5.61,5.643-8.096,2.296-2.293,5.106-4.043,8.6-5.352,7.161-2.695,12.779-2.695,19.958,0,3.581,1.344,6.486,3.577,8.362,5.138,2.296,2.279,4.592,4.876,5.937,8.46,1.291,3,1.974,6.29,1.974,9.629,0,3.683-.473,5.832-1.232,8.11-.878,2.639-2.173,5.071-3.737,7.028l-.479.57c-.47.588-1.173,1.467-2.23,2.521.008,0-8.242,9.282-10.318,11.704-2.106,2.457-4.284,4.999-6.482,7.196-4.092,4.365-8.48,9.255-13.269,14.586l-4.831,5.338-.003-.004Z" fill="#ff8500" stroke="#ff8500" stroke-miterlimit="10"/>
    <path d="M639.4,2277.63c1.323,3.091,1.971,9.062,1.971,12.079,0,3.228,0,5.359-1.52,11.054-1.34,5.353-4.088,8.954-6.157,11.022-2.313,2.311-6.734,5.26-10.375,6.17-3.434,1.156-9.041,1.156-12.051,1.156-3.556,0-9.72-2.006-12.229-3.08-2.937-1.261-8.449-4.979-11.799-7.953l4.652-5.232c2.93,2.604,7.896,5.887,9.906,6.752,2.31.99,7.42,2.516,9.471,2.516,2.429,0,7.483,0,10.095-.871,2.24-.57,5.569-2.594,7.382-4.406,1.442-1.439,3.367-3.97,4.33-7.823,1.295-4.858,1.295-6.251,1.295-9.3,0-3.108-.71-7.715-1.467-9.475-.861-2.283-1.908-4.02-3.671-6.137-1.537-1.844-3.213-3.164-4.988-3.924-2.202-.945-4.533-1.82-6.671-1.82h-9.451v-7.623l20.798-23.527h-31.999v-7.001h39.552v9.021l-19.559,22.127h.658c3.413,0,6.682,1.205,9.429,2.385,2.797,1.2,5.359,3.178,7.609,5.877,2.279,2.729,3.71,5.127,4.792,8.012l-.003.003Z" fill="#ff8500" stroke="#ff8500" stroke-miterlimit="10"/>
    <path d="M997.708,2291.109h9.45v7.001h-9.45v17.5h-7v-17.5h-36.402v-7.62l36.167-60.284h7.231v60.9l.003.003ZM990.704,2243.423l-28.61,47.684h28.61v-47.684Z" fill="#ff8500" stroke="#ff8500" stroke-miterlimit="10"/>
    <path d="M1578.67,2269.037c1.33,3.108,2.033,6.371,2.033,9.434v17.15c0,3.066-.703,6.325-2.033,9.43-1.295,3.027-3.438,5.93-5.873,7.96-1.876,1.564-4.785,3.794-8.362,5.138-3.595,1.348-6.77,1.975-9.982,1.975-3.658,0-8.232-.791-11.379-1.971-3.493-1.312-6.304-3.062-8.597-5.355-2.205-1.816-4.344-4.719-5.643-7.746-.784-1.554-1.207-3.241-1.578-4.729l-.105-.851v-3.15h7.001v2.72c.283,1.127.56,2.121,1.028,3.062.963,2.237,2.395,4.183,4.012,5.53,1.827,1.807,3.766,2.996,6.339,3.963,2.359.882,6.114,1.525,8.922,1.525,2.38,0,4.7-.473,7.521-1.529,1.964-.738,3.98-1.995,6.339-3.962,1.614-1.348,3.046-3.298,3.924-5.342.959-2.24,1.467-4.547,1.467-6.671v-17.151c0-2.124-.508-4.431-1.467-6.675-.875-2.044-2.307-3.99-3.924-5.338-1.827-1.803-3.766-2.996-6.339-3.958l-1.07-.413c-1.957-.767-2.854-1.117-6.451-1.117-4.39,0-7.907.938-11.071,2.954-2.362,1.478-4.452,3.567-5.912,5.901l-1.028,1.646h-9.29v-40.603h52.853v7.001h-45.852v24.767c1.603-1.792,3.458-3.36,5.495-4.634,4.253-2.709,9.107-4.032,14.806-4.032,4.68,0,6.468.605,8.999,1.596l.979.378c3.493,1.31,6.305,3.06,8.597,5.353,2.202,1.816,4.344,4.714,5.643,7.742v.003Z" fill="#ff8500" stroke="#ff8500" stroke-miterlimit="10"/>
    <path d="M2332.794,1386.951c1.95,3.409,2.212,6.686,2.212,9.437v3.15c0,2.961-.647,5.846-2.033,9.079l-.179.357c-1.6,2.804-3.637,5.243-6.048,7.252-2.205,1.838-5.135,3.448-8.712,4.789-2.912,1.092-6.29,1.624-10.329,1.624-3.458,0-6.825-.725-9.951-1.506l-.378-.118c-3.577-1.341-6.511-2.955-8.712-4.789-2.412-2.009-4.445-4.452-6.049-7.252-1.949-3.409-2.212-6.682-2.212-9.437-.024-.486-.686-15.831,1.831-27.347,3.363-14.558,19.188-30.389,29.324-36.237l3.497,6.062c-8.992,5.188-23.231,19.763-25.989,31.709-.459,2.093-.798,4.357-1.054,6.643.595-.521,1.222-1.021,1.876-1.501,1.849-1.48,5.426-3.525,8.46-4.393,3.049-.875,16.038-.932,19.688.438,3.574,1.34,6.507,2.954,8.712,4.791,2.412,2.01,4.449,4.452,6.049,7.253l-.004-.004ZM2328.013,1399.545v-3.15c0-2.667-.36-4.34-1.288-5.964-1.183-2.072-2.681-3.875-4.452-5.349-1.578-1.315-3.892-2.565-6.688-3.612-2.052-.728-13.27-.798-15.317-.262-2.013.577-4.746,2.121-6.118,3.216-4.2,3.084-6.737,7.235-6.737,10.918h-.088c.014,2.439.084,3.997.084,4.042.004,2.828.364,4.498,1.292,6.122,1.187,2.072,2.685,3.875,4.452,5.349,1.536,1.284,3.783,2.506,6.503,3.542,2.632.654,5.422,1.246,8.054,1.246,3.186,0,5.758-.385,7.872-1.176,2.801-1.054,5.114-2.3,6.689-3.612,1.722-1.432,3.185-3.175,4.354-5.177.956-2.279,1.387-4.176,1.387-6.133h.003Z" fill="#ff8500" stroke="#ff8500" stroke-miterlimit="10"/>
    <path d="M2333.734,1036.01v9.902l-36.053,74.551v.948h-7v-2.552l36.052-74.55v-1.298h-45.152v-7h52.153Z" fill="#ff8500" stroke="#ff8500" stroke-miterlimit="10"/>
    <path d="M2335.412,881.995c0,13.896-12.562,25.202-28.001,25.202s-28.001-11.306-28.001-25.202c0-9.391,5.746-17.585,14.234-21.918-6.877-4.067-11.435-11.075-11.435-19.034,0-12.544,11.306-22.751,25.201-22.751s25.201,10.207,25.201,22.751c0,7.959-4.561,14.967-11.435,19.034,8.488,4.333,14.234,12.527,14.234,21.918ZM2328.412,881.995c0-10.035-9.419-18.201-21.001-18.201s-21.001,8.166-21.001,18.201,9.419,18.201,21.001,18.201,21.001-8.166,21.001-18.201ZM2307.411,856.797c10.035,0,18.201-7.067,18.201-15.751s-8.166-15.75-18.201-15.75-18.201,7.067-18.201,15.75,8.166,15.751,18.201,15.751Z" fill="#ff8500" stroke="#ff8500" stroke-miterlimit="10"/>
  </g>
  <g id="h" data-name="SCAN_VOLUME_-_Light">
    <circle cx="1188.531" cy="1871.543" r="21.848" fill="none" stroke="#000" stroke-miterlimit="10" stroke-width="5"/>
    <line x1="1166.683" y1="1871.543" x2="1210.378" y2="1871.543" stroke="#000" stroke-miterlimit="10" stroke-width="5"/>
    <line x1="1188.531" y1="1893.391" x2="1188.531" y2="1849.696" stroke="#000" stroke-miterlimit="10" stroke-width="5"/>
    <line x1="739.79" y1="731.272" x2="678.685" y2="576" fill="none" stroke="#000" stroke-miterlimit="10" stroke-width="5"/>
    <line x1="858.946" y1="1034.052" x2="796.13" y2="874.435" fill="none" stroke="#000" stroke-miterlimit="10" stroke-width="5"/>
    <line x1="973.989" y1="1326.383" x2="909.815" y2="1163.314" fill="none" stroke="#000" stroke-miterlimit="10" stroke-width="5"/>
    <line x1="1086.309" y1="1611.793" x2="1022.25" y2="1449.016" fill="none" stroke="#000" stroke-miterlimit="10" stroke-width="5"/>
    <line x1="1188.531" y1="1871.543" x2="1133.12" y2="1730.741" fill="none" stroke="#000" stroke-miterlimit="10" stroke-width="5"/>
    <line x1="1637.271" y1="731.272" x2="1698.376" y2="576" fill="none" stroke="#000" stroke-miterlimit="10" stroke-width="5"/>
    <line x1="1518.116" y1="1034.052" x2="1580.931" y2="874.435" fill="none" stroke="#000" stroke-miterlimit="10" stroke-width="5"/>
    <line x1="1403.072" y1="1326.383" x2="1467.246" y2="1163.314" fill="none" stroke="#000" stroke-miterlimit="10" stroke-width="5"/>
    <line x1="1290.753" y1="1611.793" x2="1354.811" y2="1449.016" fill="none" stroke="#000" stroke-miterlimit="10" stroke-width="5"/>
    <line x1="1188.531" y1="1871.543" x2="1243.942" y2="1730.741" fill="none" stroke="#000" stroke-miterlimit="10" stroke-width="5"/>
  </g>
</svg>