<?xml version="1.0" encoding="UTF-8"?>
<svg xmlns="http://www.w3.org/2000/svg" width="3071.543" height="2965.696" viewBox="0 0 3071.543 2965.696">
  <g id="e" data-name="PTID_-_Light">
    <g>
      <rect x="741.336" y="713.785" width="1580" height="1589" fill="none" stroke="#000" stroke-miterlimit="10" stroke-width="3"/>
      <rect x="724.281" y="688.285" width="1610.609" height="1643" rx="37.742" ry="37.742" fill="none" stroke="#000" stroke-miterlimit="10" stroke-width="8"/>
      <g>
        <rect x="573.273" y="885.785" width="94" height="96" fill="none" stroke="#000" stroke-miterlimit="10" stroke-width="8"/>
        <polyline points="576.273 987.785 673.273 987.785 673.273 889.785" fill="none" stroke="#000" stroke-miterlimit="10" stroke-width="12"/>
        <polygon points="656.273 933.285 608.273 918.785 608.273 929.785 582.273 929.785 582.273 937.785 608.273 937.785 608.273 947.785 656.273 933.285"/>
        <rect x="561.773" y="1022.285" width="116" height="12" rx="6" ry="6" fill="none" stroke="#000" stroke-miterlimit="10" stroke-width="5"/>
      </g>
      <g>
        <rect x="573.273" y="1076.785" width="94" height="96" fill="none" stroke="#000" stroke-miterlimit="10" stroke-width="8"/>
        <polyline points="576.273 1178.785 673.273 1178.785 673.273 1080.785" fill="none" stroke="#000" stroke-miterlimit="10" stroke-width="12"/>
        <polygon points="656.273 1124.285 608.273 1109.785 608.273 1120.785 582.273 1120.785 582.273 1128.785 608.273 1128.785 608.273 1138.785 656.273 1124.285"/>
        <rect x="561.773" y="1213.285" width="116" height="12" rx="6" ry="6" fill="none" stroke="#000" stroke-miterlimit="10" stroke-width="5"/>
      </g>
      <g>
        <rect x="573.273" y="1268.785" width="94" height="96" fill="none" stroke="#000" stroke-miterlimit="10" stroke-width="8"/>
        <polyline points="576.273 1370.785 673.273 1370.785 673.273 1272.785" fill="none" stroke="#000" stroke-miterlimit="10" stroke-width="12"/>
        <polygon points="656.273 1316.285 608.273 1301.785 608.273 1312.785 582.273 1312.785 582.273 1320.785 608.273 1320.785 608.273 1330.785 656.273 1316.285"/>
        <rect x="561.773" y="1405.285" width="116" height="12" rx="6" ry="6" fill="none" stroke="#000" stroke-miterlimit="10" stroke-width="5"/>
      </g>
      <g>
        <rect x="573.273" y="1461.785" width="94" height="96" fill="none" stroke="#000" stroke-miterlimit="10" stroke-width="8"/>
        <polyline points="576.273 1563.785 673.273 1563.785 673.273 1465.785" fill="none" stroke="#000" stroke-miterlimit="10" stroke-width="12"/>
        <polygon points="656.273 1509.285 608.273 1494.785 608.273 1505.785 582.273 1505.785 582.273 1513.785 608.273 1513.785 608.273 1523.785 656.273 1509.285"/>
        <rect x="561.773" y="1598.285" width="116" height="12" rx="6" ry="6" fill="none" stroke="#000" stroke-miterlimit="10" stroke-width="5"/>
      </g>
      <g>
        <rect x="573.273" y="1652.785" width="94" height="96" fill="none" stroke="#000" stroke-miterlimit="10" stroke-width="8"/>
        <polyline points="576.273 1754.785 673.273 1754.785 673.273 1656.785" fill="none" stroke="#000" stroke-miterlimit="10" stroke-width="12"/>
        <polygon points="656.273 1700.285 608.273 1685.785 608.273 1696.785 582.273 1696.785 582.273 1704.785 608.273 1704.785 608.273 1714.785 656.273 1700.285"/>
        <rect x="561.773" y="1789.285" width="116" height="12" rx="6" ry="6" fill="none" stroke="#000" stroke-miterlimit="10" stroke-width="5"/>
      </g>
      <g>
        <rect x="573.273" y="1844.785" width="94" height="96" fill="none" stroke="#000" stroke-miterlimit="10" stroke-width="8"/>
        <polyline points="576.273 1946.785 673.273 1946.785 673.273 1848.785" fill="none" stroke="#000" stroke-miterlimit="10" stroke-width="12"/>
        <polygon points="656.273 1892.285 608.273 1877.785 608.273 1888.785 582.273 1888.785 582.273 1896.785 608.273 1896.785 608.273 1906.785 656.273 1892.285"/>
        <rect x="561.773" y="1981.285" width="116" height="12" rx="6" ry="6" fill="none" stroke="#000" stroke-miterlimit="10" stroke-width="5"/>
      </g>
      <g>
        <rect x="569.773" y="2035.785" width="94" height="96" fill="none" stroke="#000" stroke-miterlimit="10" stroke-width="8"/>
        <polyline points="572.773 2137.785 669.773 2137.785 669.773 2039.785" fill="none" stroke="#000" stroke-miterlimit="10" stroke-width="12"/>
        <polygon points="652.773 2083.285 604.773 2068.785 604.773 2079.785 578.773 2079.785 578.773 2087.785 604.773 2087.785 604.773 2097.785 652.773 2083.285"/>
      </g>
      <g>
        <rect x="2401.77" y="889.249" width="94" height="96" transform="translate(4897.541 1874.498) rotate(-180)" fill="none" stroke="#000" stroke-miterlimit="10" stroke-width="8"/>
        <polyline points="2406.27 990.785 2499.336 990.785 2499.336 892.785" fill="none" stroke="#000" stroke-miterlimit="10" stroke-width="12"/>
        <polygon points="2412.771 936.749 2460.771 922.249 2460.771 933.249 2486.77 933.249 2486.77 941.249 2460.771 941.249 2460.771 951.249 2412.771 936.749"/>
        <rect x="2391.27" y="1025.749" width="116" height="12" rx="6" ry="6" transform="translate(4898.541 2063.498) rotate(180)" fill="none" stroke="#000" stroke-miterlimit="10" stroke-width="5"/>
      </g>
      <g>
        <rect x="2401.77" y="1080.249" width="94" height="96" transform="translate(4897.541 2256.498) rotate(-180)" fill="none" stroke="#000" stroke-miterlimit="10" stroke-width="8"/>
        <polyline points="2404.336 1182.785 2501.336 1182.785 2501.336 1084.785" fill="none" stroke="#000" stroke-miterlimit="10" stroke-width="12"/>
        <polygon points="2412.771 1127.749 2460.771 1113.249 2460.771 1124.249 2486.77 1124.249 2486.77 1132.249 2460.771 1132.249 2460.771 1142.249 2412.771 1127.749"/>
        <rect x="2391.27" y="1216.749" width="116" height="12" rx="6" ry="6" transform="translate(4898.541 2445.498) rotate(180)" fill="none" stroke="#000" stroke-miterlimit="10" stroke-width="5"/>
      </g>
      <g>
        <rect x="2401.77" y="1272.249" width="94" height="96" transform="translate(4897.541 2640.498) rotate(-180)" fill="none" stroke="#000" stroke-miterlimit="10" stroke-width="8"/>
        <polyline points="2401.27 1374.249 2498.27 1374.249 2498.27 1276.249" fill="none" stroke="#000" stroke-miterlimit="10" stroke-width="12"/>
        <polygon points="2412.771 1319.749 2460.771 1305.249 2460.771 1316.249 2486.77 1316.249 2486.77 1324.249 2460.771 1324.249 2460.771 1334.249 2412.771 1319.749"/>
        <rect x="2391.27" y="1408.749" width="116" height="12" rx="6" ry="6" transform="translate(4898.541 2829.498) rotate(-180)" fill="none" stroke="#000" stroke-miterlimit="10" stroke-width="5"/>
      </g>
      <g>
        <rect x="2401.77" y="1465.249" width="94" height="96" transform="translate(4897.541 3026.498) rotate(-180)" fill="none" stroke="#000" stroke-miterlimit="10" stroke-width="8"/>
        <polyline points="2402.27 1566.249 2499.27 1566.249 2499.27 1468.249" fill="none" stroke="#000" stroke-miterlimit="10" stroke-width="12"/>
        <polygon points="2412.771 1512.749 2460.771 1498.249 2460.771 1509.249 2486.77 1509.249 2486.77 1517.249 2460.771 1517.249 2460.771 1527.249 2412.771 1512.749"/>
        <rect x="2391.27" y="1601.749" width="116" height="12" rx="6" ry="6" transform="translate(4898.541 3215.498) rotate(-180)" fill="none" stroke="#000" stroke-miterlimit="10" stroke-width="5"/>
      </g>
      <g>
        <rect x="2401.77" y="1656.249" width="94" height="96" transform="translate(4897.541 3408.498) rotate(-180)" fill="none" stroke="#000" stroke-miterlimit="10" stroke-width="8"/>
        <polyline points="2403.27 1757.249 2500.27 1757.249 2500.27 1659.249" fill="none" stroke="#000" stroke-miterlimit="10" stroke-width="12"/>
        <polygon points="2412.771 1703.749 2460.771 1689.249 2460.771 1700.249 2486.77 1700.249 2486.77 1708.249 2460.771 1708.249 2460.771 1718.249 2412.771 1703.749"/>
        <rect x="2391.27" y="1792.749" width="116" height="12" rx="6" ry="6" transform="translate(4898.541 3597.498) rotate(-180)" fill="none" stroke="#000" stroke-miterlimit="10" stroke-width="5"/>
      </g>
      <g>
        <rect x="2401.77" y="1848.249" width="94" height="96" transform="translate(4897.541 3792.498) rotate(-180)" fill="none" stroke="#000" stroke-miterlimit="10" stroke-width="8"/>
        <polyline points="2403.27 1948.249 2500.27 1948.249 2500.27 1850.249" fill="none" stroke="#000" stroke-miterlimit="10" stroke-width="12"/>
        <polygon points="2412.771 1895.749 2460.771 1881.249 2460.771 1892.249 2486.77 1892.249 2486.77 1900.249 2460.771 1900.249 2460.771 1910.249 2412.771 1895.749"/>
        <rect x="2391.27" y="1984.749" width="116" height="12" rx="6" ry="6" transform="translate(4898.541 3981.498) rotate(180)" fill="none" stroke="#000" stroke-miterlimit="10" stroke-width="5"/>
      </g>
      <g>
        <rect x="2405.27" y="2039.249" width="94" height="96" transform="translate(4904.541 4174.498) rotate(-180)" fill="none" stroke="#000" stroke-miterlimit="10" stroke-width="8"/>
        <polyline points="2405.77 2141.249 2502.77 2141.249 2502.77 2043.249" fill="none" stroke="#000" stroke-miterlimit="10" stroke-width="12"/>
        <polygon points="2416.271 2086.749 2464.271 2072.249 2464.271 2083.249 2490.27 2083.249 2490.27 2091.249 2464.271 2091.249 2464.271 2101.249 2416.271 2086.749"/>
      </g>
      <g>
        <rect x="952.27" y="2377.84" width="94" height="96" transform="translate(-1426.569 3425.11) rotate(-90)" fill="none" stroke="#000" stroke-miterlimit="10" stroke-width="8"/>
        <polygon points="998.77 2389.84 984.27 2437.84 995.271 2437.84 995.271 2463.84 1003.27 2463.84 1003.27 2437.84 1013.27 2437.84 998.77 2389.84"/>
        <rect x="1035.77" y="2420.34" width="116" height="12" rx="6" ry="6" transform="translate(-1332.569 3520.11) rotate(-90)" fill="none" stroke="#000" stroke-miterlimit="10" stroke-width="5"/>
      </g>
      <g>
        <rect x="1143.27" y="2377.84" width="94" height="96" transform="translate(-1235.569 3616.11) rotate(-90)" fill="none" stroke="#000" stroke-miterlimit="10" stroke-width="8"/>
        <polygon points="1189.77 2389.84 1175.27 2437.84 1186.271 2437.84 1186.271 2463.84 1194.27 2463.84 1194.27 2437.84 1204.27 2437.84 1189.77 2389.84"/>
        <rect x="1226.77" y="2420.34" width="116" height="12" rx="6" ry="6" transform="translate(-1141.569 3711.11) rotate(-90)" fill="none" stroke="#000" stroke-miterlimit="10" stroke-width="5"/>
      </g>
      <g>
        <rect x="1335.27" y="2378.34" width="94" height="96" transform="translate(-1044.069 3808.61) rotate(-90)" fill="none" stroke="#000" stroke-miterlimit="10" stroke-width="8"/>
        <polygon points="1381.77 2390.34 1367.27 2438.34 1378.271 2438.34 1378.271 2464.34 1386.27 2464.34 1386.27 2438.34 1396.27 2438.34 1381.77 2390.34"/>
      </g>
      <g>
        <rect x="1639.27" y="2377.84" width="94" height="96" transform="translate(-739.569 4112.11) rotate(-90)" fill="none" stroke="#000" stroke-miterlimit="10" stroke-width="8"/>
        <polygon points="1685.77 2389.84 1671.27 2437.84 1682.271 2437.84 1682.271 2463.84 1690.27 2463.84 1690.27 2437.84 1700.27 2437.84 1685.77 2389.84"/>
        <rect x="1722.77" y="2420.34" width="116" height="12" rx="6" ry="6" transform="translate(-645.569 4207.11) rotate(-90)" fill="none" stroke="#000" stroke-miterlimit="10" stroke-width="5"/>
      </g>
      <g>
        <rect x="1831.27" y="2377.84" width="94" height="96" transform="translate(-547.569 4304.11) rotate(-90)" fill="none" stroke="#000" stroke-miterlimit="10" stroke-width="8"/>
        <polygon points="1877.77 2389.84 1863.27 2437.84 1874.271 2437.84 1874.271 2463.84 1882.27 2463.84 1882.27 2437.84 1892.27 2437.84 1877.77 2389.84"/>
        <rect x="1914.77" y="2420.34" width="116" height="12" rx="6" ry="6" transform="translate(-453.569 4399.11) rotate(-90)" fill="none" stroke="#000" stroke-miterlimit="10" stroke-width="5"/>
      </g>
      <g>
        <rect x="2022.27" y="2378.34" width="94" height="96" transform="translate(-357.069 4495.61) rotate(-90)" fill="none" stroke="#000" stroke-miterlimit="10" stroke-width="8"/>
        <polygon points="2068.77 2390.34 2054.27 2438.34 2065.271 2438.34 2065.271 2464.34 2073.27 2464.34 2073.27 2438.34 2083.27 2438.34 2068.77 2390.34"/>
      </g>
      <polyline points="955.336 2480.952 1052.336 2480.952 1052.336 2382.952" fill="none" stroke="#000" stroke-miterlimit="10" stroke-width="12"/>
      <polyline points="1146.336 2480.952 1243.336 2480.952 1243.336 2382.952" fill="none" stroke="#000" stroke-miterlimit="10" stroke-width="12"/>
      <polyline points="1337.336 2480.952 1434.336 2480.952 1434.336 2382.952" fill="none" stroke="#000" stroke-miterlimit="10" stroke-width="12"/>
      <polyline points="1645.336 2480.952 1742.336 2480.952 1742.336 2382.952" fill="none" stroke="#000" stroke-miterlimit="10" stroke-width="12"/>
      <polyline points="1834.336 2480.952 1931.336 2480.952 1931.336 2382.952" fill="none" stroke="#000" stroke-miterlimit="10" stroke-width="12"/>
      <polyline points="2027.336 2480.952 2124.336 2480.952 2124.336 2382.952" fill="none" stroke="#000" stroke-miterlimit="10" stroke-width="12"/>
    </g>
    <path d="M427.975,438.176h2213.112v1710.62c0,282.905-229.34,512.245-512.245,512.245H940.371c-279.895,0-507.006-226.499-507.762-506.392l-4.634-1716.472Z" fill="none" stroke="#000" stroke-miterlimit="10" stroke-width="14"/>
    <path d="M435.477,799.776h289.58v-71.661c0-21.743,17.626-39.37,39.37-39.37" fill="none" stroke="#000" stroke-miterlimit="10" stroke-width="2"/>
    <path d="M433.227,812.53h303.084v-87.937c0-14.411,11.683-26.094,26.094-26.094h773.627" fill="none" stroke="#000" stroke-miterlimit="10" stroke-width="8"/>
    <path d="M1533.031,689.496h761.852c21.743,0,39.37,17.626,39.37,39.37v71.661s289.58,0,289.58,0v-244.568h-39.728c-33.579,0-60.799-27.221-60.799-60.799v-41.229h-441.122v54.015c0,26.517-21.496,48.013-48.013,48.013h0,4.501c-20.859,0-47.263-13.901-47.263-42.762l-.75-59.266-293.117-1.396c-12.117-.058-21.97,9.749-21.97,21.866v61.662c0,14.303-11.595,25.898-25.898,25.898h-128.644" fill="none" stroke="#000" stroke-miterlimit="10" stroke-width="4"/>
    <path d="M2638.837,812.53h-315.087v-87.937c0-14.411-11.683-26.094-26.094-26.094h-764.625" fill="none" stroke="#000" stroke-miterlimit="10" stroke-width="8"/>
    <path d="M1525.529,551.458h125.709c7.638,0,13.83-6.192,13.83-13.83v-94.2h336.093v69.117c0,14.862,12.048,26.91,26.91,26.91h16.929c14.736,0,26.681-11.946,26.681-26.681v-70.846h463.628v59.739c0,23.355,18.933,42.289,42.289,42.289h59.739" fill="none" stroke="#000" stroke-miterlimit="10" stroke-width="4"/>
    <path d="M1534.531,689.496h-772.355c-21.743,0-39.37,17.626-39.37,39.37v71.661h-289.58v-244.568h39.728c33.579,0,60.799-27.221,60.799-60.799v-41.229h441.122v54.015c0,26.517,21.496,48.013,48.013,48.013h0-4.501c20.859,0,47.263-13.901,47.263-42.762l.75-59.266,293.117-1.396c12.117-.058,21.97,9.749,21.97,21.866v61.662c0,14.303,11.595,25.898,25.898,25.898h128.644" fill="none" stroke="#000" stroke-miterlimit="10" stroke-width="4"/>
    <path d="M1531.53,551.458h-125.709c-7.638,0-13.83-6.192-13.83-13.83v-94.2s-336.093,0-336.093,0v69.117c0,14.862-12.048,26.91-26.91,26.91h-16.929c-14.736,0-26.681-11.946-26.681-26.681v-70.846s-463.628,0-463.628,0v59.739c0,23.355-18.933,42.289-42.289,42.289h-52.237" fill="none" stroke="#000" stroke-miterlimit="10" stroke-width="4"/>
    <circle cx="2578.82" cy="498.943" r="34.51" fill="none" stroke="#000" stroke-miterlimit="10" stroke-width="2"/>
    <polygon points="2575.819 476.437 2583.321 476.437 2583.321 495.942 2601.326 495.942 2601.326 504.945 2583.321 504.945 2583.321 522.95 2575.819 522.95 2575.819 504.945 2556.314 504.945 2556.314 495.942 2574.319 495.942 2574.319 476.437 2575.819 476.437" fill="none" stroke="#000" stroke-miterlimit="10" stroke-width="2"/>
    <circle cx="2578.82" cy="1301.665" r="34.51" fill="none" stroke="#000" stroke-miterlimit="10" stroke-width="2"/>
    <polygon points="2575.819 1279.159 2583.321 1279.159 2583.321 1298.664 2601.326 1298.664 2601.326 1307.667 2583.321 1307.667 2583.321 1325.672 2575.819 1325.672 2575.819 1307.667 2556.314 1307.667 2556.314 1298.664 2574.319 1298.664 2574.319 1279.159 2575.819 1279.159" fill="none" stroke="#000" stroke-miterlimit="10" stroke-width="2"/>
    <circle cx="2578.82" cy="2054.873" r="34.51" fill="none" stroke="#000" stroke-miterlimit="10" stroke-width="2"/>
    <polygon points="2575.819 2032.367 2583.321 2032.367 2583.321 2051.873 2601.326 2051.873 2601.326 2060.875 2583.321 2060.875 2583.321 2078.88 2575.819 2078.88 2575.819 2060.875 2556.314 2060.875 2556.314 2051.873 2574.319 2051.873 2574.319 2032.367 2575.819 2032.367" fill="none" stroke="#000" stroke-miterlimit="10" stroke-width="2"/>
    <circle cx="2188.712" cy="2604.025" r="34.51" fill="none" stroke="#000" stroke-miterlimit="10" stroke-width="2"/>
    <polygon points="2185.711 2581.519 2193.213 2581.519 2193.213 2601.024 2211.218 2601.024 2211.218 2610.027 2193.213 2610.027 2193.213 2628.032 2185.711 2628.032 2185.711 2610.027 2166.206 2610.027 2166.206 2601.024 2184.211 2601.024 2184.211 2581.519 2185.711 2581.519" fill="none" stroke="#000" stroke-miterlimit="10" stroke-width="2"/>
    <circle cx="1530.03" cy="2604.025" r="34.51" fill="none" stroke="#000" stroke-miterlimit="10" stroke-width="2"/>
    <polygon points="1527.029 2581.519 1534.531 2581.519 1534.531 2601.024 1552.536 2601.024 1552.536 2610.027 1534.531 2610.027 1534.531 2628.032 1527.029 2628.032 1527.029 2610.027 1507.524 2610.027 1507.524 2601.024 1525.529 2601.024 1525.529 2581.519 1527.029 2581.519" fill="none" stroke="#000" stroke-miterlimit="10" stroke-width="2"/>
    <circle cx="871.348" cy="2604.025" r="34.51" fill="none" stroke="#000" stroke-miterlimit="10" stroke-width="2"/>
    <polygon points="868.347 2581.519 875.849 2581.519 875.849 2601.024 893.854 2601.024 893.854 2610.027 875.849 2610.027 875.849 2628.032 868.347 2628.032 868.347 2610.027 848.842 2610.027 848.842 2601.024 866.847 2601.024 866.847 2581.519 868.347 2581.519" fill="none" stroke="#000" stroke-miterlimit="10" stroke-width="2"/>
    <circle cx="481.24" cy="2053.373" r="34.51" fill="none" stroke="#000" stroke-miterlimit="10" stroke-width="2"/>
    <polygon points="478.239 2030.867 485.741 2030.867 485.741 2050.372 503.746 2050.372 503.746 2059.375 485.741 2059.375 485.741 2077.38 478.239 2077.38 478.239 2059.375 458.734 2059.375 458.734 2050.372 476.739 2050.372 476.739 2030.867 478.239 2030.867" fill="none" stroke="#000" stroke-miterlimit="10" stroke-width="2"/>
    <circle cx="481.24" cy="1301.665" r="34.51" fill="none" stroke="#000" stroke-miterlimit="10" stroke-width="2"/>
    <polygon points="478.239 1279.159 485.741 1279.159 485.741 1298.664 503.746 1298.664 503.746 1307.667 485.741 1307.667 485.741 1325.672 478.239 1325.672 478.239 1307.667 458.734 1307.667 458.734 1298.664 476.739 1298.664 476.739 1279.159 478.239 1279.159" fill="none" stroke="#000" stroke-miterlimit="10" stroke-width="2"/>
    <circle cx="478.239" cy="498.943" r="34.51" fill="none" stroke="#000" stroke-miterlimit="10" stroke-width="2"/>
    <polygon points="475.238 476.437 482.74 476.437 482.74 495.942 500.745 495.942 500.745 504.945 482.74 504.945 482.74 522.95 475.238 522.95 475.238 504.945 455.733 504.945 455.733 495.942 473.738 495.942 473.738 476.437 475.238 476.437" fill="none" stroke="#000" stroke-miterlimit="10" stroke-width="2"/>
    <circle cx="1019.889" cy="497.443" r="34.51" fill="none" stroke="#000" stroke-miterlimit="10" stroke-width="2"/>
    <polygon points="1016.888 474.936 1024.39 474.936 1024.39 494.442 1042.395 494.442 1042.395 503.444 1024.39 503.444 1024.39 521.449 1016.888 521.449 1016.888 503.444 997.383 503.444 997.383 494.442 1015.388 494.442 1015.388 474.936 1016.888 474.936" fill="none" stroke="#000" stroke-miterlimit="10" stroke-width="2"/>
    <circle cx="1528.53" cy="497.443" r="34.51" fill="none" stroke="#000" stroke-miterlimit="10" stroke-width="2"/>
    <polygon points="1525.529 474.936 1533.031 474.936 1533.031 494.442 1551.036 494.442 1551.036 503.444 1533.031 503.444 1533.031 521.449 1523.797 521.449 1523.797 503.444 1506.023 503.444 1506.023 494.442 1524.028 494.442 1524.028 474.936 1525.529 474.936" fill="none" stroke="#000" stroke-miterlimit="10" stroke-width="2"/>
    <circle cx="2035.67" cy="498.943" r="34.51" fill="none" stroke="#000" stroke-miterlimit="10" stroke-width="2"/>
    <polygon points="2032.669 476.437 2040.171 476.437 2040.171 495.942 2058.176 495.942 2058.176 504.945 2040.171 504.945 2040.171 522.95 2032.669 522.95 2032.669 504.945 2013.164 504.945 2013.164 495.942 2031.169 495.942 2031.169 476.437 2032.669 476.437" fill="none" stroke="#000" stroke-miterlimit="10" stroke-width="2"/>
    <path d="M522.921,1291.42l-.161-.569c-3.531-9.414-10.63-17.057-19.757-21.271l-2.243-1.035c-4.83-2.229-10.087-3.384-15.406-3.384h-53.766l.138,37.264v38.25h53.768c5.321,0,10.578-1.155,15.409-3.385l2.238-1.033c9.129-4.214,16.228-11.857,19.757-21.271l.352-1.398c1.836-7.29,1.722-14.935-.329-22.168Z" fill="none" stroke="#000" stroke-miterlimit="10" stroke-width="4"/>
    <path d="M522.875,2042.009l-.161-.569c-3.531-9.414-10.63-17.057-19.757-21.271l-2.243-1.035c-4.83-2.229-10.087-3.384-15.406-3.384h-53.766l.138,37.264v38.25h53.768c5.321,0,10.578-1.155,15.409-3.385l2.238-1.033c9.129-4.214,16.228-11.857,19.757-21.271l.352-1.398c1.836-7.29,1.722-14.935-.329-22.168Z" fill="none" stroke="#000" stroke-miterlimit="10" stroke-width="4"/>
    <path d="M2535.25,1291.42l.161-.569c3.531-9.414,10.63-17.057,19.757-21.271l2.243-1.035c4.83-2.229,10.087-3.384,15.406-3.384l65.769-1.5-.138,37.264v38.25s-65.771,1.5-65.771,1.5c-5.321,0-10.578-1.155-15.409-3.385l-2.238-1.033c-9.129-4.214-16.228-11.857-19.757-21.271l-.352-1.398c-1.836-7.29-1.722-14.935.329-22.168Z" fill="none" stroke="#000" stroke-miterlimit="10" stroke-width="4"/>
    <path d="M2535.296,2042.009l.161-.569c3.531-9.414,10.63-17.057,19.757-21.271l2.243-1.035c4.83-2.229,10.087-3.384,15.406-3.384h67.27s-.138,37.264-.138,37.264v38.25h-67.271c-5.321,0-10.578-1.155-15.409-3.385l-2.238-1.033c-9.129-4.214-16.228-11.857-19.757-21.271l-.352-1.398c-1.836-7.29-1.722-14.935.329-22.168Z" fill="none" stroke="#000" stroke-miterlimit="10" stroke-width="4"/>
    <path d="M1519.113,2562.177l-.569.161c-9.414,3.531-17.057,10.63-21.271,19.757l-1.035,2.243c-2.229,4.83-3.384,10.087-3.384,15.406v53.766l37.264-.138h38.25v-53.768c0-5.321-1.155-10.578-3.385-15.409l-1.033-2.238c-4.214-9.129-11.857-16.228-21.271-19.757l-1.398-.352c-7.29-1.836-14.935-1.722-22.168.329Z" fill="none" stroke="#000" stroke-miterlimit="10" stroke-width="4"/>
    <path d="M638.783,2566.515h238.609c17.378,0,31.466,14.088,31.466,31.466v66.061" fill="none" stroke="#000" stroke-miterlimit="10" stroke-width="4"/>
    <path d="M2418.276,2566.515h-238.609c-17.378,0-31.466,14.088-31.466,31.466v66.061" fill="none" stroke="#000" stroke-miterlimit="10" stroke-width="4"/>
    <circle cx="617.778" cy="674.492" r="90.025" fill="none" stroke="#000" stroke-miterlimit="10" stroke-width="6"/>
    <polygon points="602.774 582.966 557.761 674.492 589.425 758.845 648.724 758.845 677.794 675.992 635.783 582.966 602.774 582.966" fill="none" stroke="#000" stroke-miterlimit="10" stroke-width="6"/>
    <line x1="617.778" y1="560.46" x2="617.778" y2="654.986" fill="none" stroke="#000" stroke-miterlimit="10" stroke-width="6"/>
    <line x1="536.755" y1="593.469" x2="554.775" y2="611.489" fill="none" stroke="#000" stroke-miterlimit="10" stroke-width="6"/>
    <line x1="506.747" y1="672.991" x2="527.753" y2="672.991" fill="none" stroke="#000" stroke-miterlimit="10" stroke-width="6"/>
    <line x1="541.257" y1="752.513" x2="556.01" y2="737.76" fill="none" stroke="#000" stroke-miterlimit="10" stroke-width="6"/>
    <path d="M728.808,672.991h-20.199" fill="none" stroke="#000" stroke-miterlimit="10" stroke-width="6"/>
    <line x1="695.799" y1="594.97" x2="679.859" y2="610.91" fill="none" stroke="#000" stroke-miterlimit="10" stroke-width="6"/>
    <path d="M2442.336,583.134c49.719,0,90.025,40.306,90.025,90.025s-40.306,90.025-90.025,90.025-90.025-40.306-90.025-90.025" fill="none" stroke="#000" stroke-miterlimit="10" stroke-width="6"/>
    <path d="M2352.311,673.158c0-49.719,40.306-90.025,90.025-90.025" fill="none" stroke="#000" stroke-miterlimit="10" stroke-width="6"/>
    <polygon points="2460.341 581.633 2502.353 674.659 2473.282 757.512 2413.983 757.512 2382.319 673.158 2427.332 581.633 2460.341 581.633" fill="none" stroke="#000" stroke-miterlimit="10" stroke-width="6"/>
    <line x1="2440.836" y1="559.127" x2="2440.836" y2="653.653" fill="none" stroke="#000" stroke-miterlimit="10" stroke-width="6"/>
    <line x1="2361.314" y1="592.136" x2="2379.333" y2="610.155" fill="none" stroke="#000" stroke-miterlimit="10" stroke-width="6"/>
    <line x1="2520.358" y1="593.636" x2="2504.418" y2="609.576" fill="none" stroke="#000" stroke-miterlimit="10" stroke-width="6"/>
    <g>
      <path d="M2530.091,744.358h5.019v26.631h-5.019v-26.631ZM2532.619,766.153h6.393c1.648,0,2.924-.396,3.828-1.19.903-.793,1.355-1.917,1.355-3.37v-7.839c0-1.453-.452-2.576-1.355-3.37-.904-.793-2.18-1.19-3.828-1.19h-6.393v-4.835h6.282c2.223,0,4.118.373,5.688,1.117,1.568.745,2.763,1.832,3.58,3.26.818,1.429,1.228,3.15,1.228,5.165v7.546c0,1.917-.394,3.59-1.182,5.019-.787,1.429-1.969,2.54-3.544,3.333-1.575.794-3.504,1.19-5.787,1.19h-6.265v-4.835Z"/>
      <path d="M2560.741,744.358h3.187l10.184,26.631h-5.403l-6.374-18.188-6.373,18.188h-5.403l10.184-26.631ZM2555.447,761.885h14.012v4.835h-14.012v-4.835Z"/>
      <path d="M2584.283,760.714v10.275h-5.019v-10.275l-7.839-16.356h5.257l5.092,11.465,5.092-11.465h5.256l-7.839,16.356Z"/>
    </g>
    <line x1="2506.172" y1="736.926" x2="2521.032" y2="751.785" fill="none" stroke="#000" stroke-miterlimit="10" stroke-width="6"/>
    <g>
      <path d="M2533.642,567.595h3.187l10.184,26.631h-5.403l-6.374-18.188-6.373,18.188h-5.403l10.184-26.631ZM2528.348,585.123h14.012v4.835h-14.012v-4.835Z"/>
      <path d="M2552.44,593.338c-1.453-.775-2.558-1.905-3.314-3.389-.758-1.483-1.136-3.269-1.136-5.357v-16.997h5.019v17.125c0,1.526.409,2.711,1.227,3.553.818.843,1.973,1.264,3.462,1.264,1.502,0,2.665-.421,3.489-1.264.824-.842,1.236-2.027,1.236-3.553v-17.125h5.019v16.997c0,2.088-.382,3.874-1.145,5.357-.764,1.484-1.875,2.613-3.334,3.389s-3.214,1.163-5.266,1.163-3.804-.388-5.257-1.163Z"/>
      <path d="M2568.785,567.595h19.524v4.835h-19.524v-4.835ZM2576.038,569.775h5.019v24.451h-5.019v-24.451Z"/>
      <path d="M2594.095,593.282c-1.472-.812-2.61-1.959-3.416-3.443-.806-1.483-1.209-3.202-1.209-5.156v-7.546c0-1.954.403-3.672,1.209-5.156.806-1.484,1.944-2.631,3.416-3.443,1.471-.812,3.171-1.218,5.101-1.218s3.629.406,5.101,1.218,2.61,1.959,3.416,3.443c.806,1.483,1.209,3.202,1.209,5.156v7.546c0,1.954-.403,3.672-1.209,5.156-.806,1.484-1.944,2.631-3.416,3.443-1.472.812-3.172,1.218-5.101,1.218s-3.63-.406-5.101-1.218ZM2601.577,588.905c.684-.384,1.212-.931,1.584-1.639.373-.708.559-1.526.559-2.454v-7.803c0-.928-.186-1.746-.559-2.454-.372-.708-.9-1.255-1.584-1.639-.684-.385-1.478-.577-2.381-.577s-1.697.192-2.381.577c-.685.384-1.212.931-1.585,1.639-.372.708-.559,1.526-.559,2.454v7.803c0,.928.187,1.746.559,2.454.373.708.9,1.255,1.585,1.639.684.385,1.477.577,2.381.577s1.697-.192,2.381-.577Z"/>
    </g>
    <g>
      <path d="M2393.839,522.582h6.136l9.908,20.403-.439.477v-20.88h4.799v26.612h-6.173l-9.872-20.092.439-.477v20.568h-4.798v-26.612Z"/>
      <path d="M2424.451,549.213h-5.201v-26.631h5.201v26.631Z"/>
      <path d="M2448.396,534.322v5.202c0,1.978-.399,3.721-1.199,5.229-.8,1.508-1.933,2.674-3.397,3.499-1.466.824-3.163,1.236-5.092,1.236-1.941,0-3.654-.388-5.138-1.163s-2.631-1.871-3.443-3.288-1.218-3.059-1.218-4.927v-7.857c0-1.978.399-3.718,1.199-5.22s1.933-2.665,3.397-3.489c1.466-.824,3.163-1.236,5.092-1.236,1.588,0,3.053.327,4.396.98,1.343.653,2.463,1.578,3.36,2.775s1.505,2.583,1.822,4.158h-5.421c-.184-.562-.485-1.047-.907-1.456-.421-.409-.915-.721-1.483-.934-.567-.214-1.157-.321-1.768-.321-.891,0-1.676.196-2.354.586s-1.202.946-1.575,1.667c-.372.721-.559,1.551-.559,2.491v7.857c0,.831.189,1.563.568,2.198.378.635.916,1.124,1.611,1.465.696.342,1.502.513,2.418.513.903,0,1.694-.186,2.372-.559s1.199-.913,1.565-1.621c.366-.708.55-1.544.55-2.509v-.439h-4.029v-4.835h9.23Z"/>
      <path d="M2452.854,522.582h5.019v26.631h-5.019v-26.631ZM2455.18,533.59h15.514v4.835h-15.514v-4.835ZM2467.433,522.582h5.019v26.631h-5.019v-26.631Z"/>
      <path d="M2475.628,522.582h19.524v4.835h-19.524v-4.835ZM2482.88,524.762h5.019v24.451h-5.019v-24.451Z"/>
    </g>
    <g>
      <path d="M2297.047,593.282c-1.472-.812-2.61-1.959-3.416-3.443-.806-1.483-1.209-3.202-1.209-5.156v-7.546c0-1.954.403-3.672,1.209-5.156.806-1.484,1.944-2.631,3.416-3.443,1.471-.812,3.171-1.218,5.101-1.218s3.629.406,5.101,1.218,2.61,1.959,3.416,3.443c.806,1.483,1.209,3.202,1.209,5.156v7.546c0,1.954-.403,3.672-1.209,5.156-.806,1.484-1.944,2.631-3.416,3.443-1.472.812-3.172,1.218-5.101,1.218s-3.63-.406-5.101-1.218ZM2304.529,588.905c.684-.384,1.212-.931,1.584-1.639.373-.708.559-1.526.559-2.454v-7.803c0-.928-.186-1.746-.559-2.454-.372-.708-.9-1.255-1.584-1.639-.684-.385-1.478-.577-2.381-.577s-1.697.192-2.381.577c-.685.384-1.212.931-1.585,1.639-.372.708-.559,1.526-.559,2.454v7.803c0,.928.187,1.746.559,2.454.373.708.9,1.255,1.585,1.639.684.385,1.477.577,2.381.577s1.697-.192,2.381-.577Z"/>
      <path d="M2316.332,567.595h5.019v26.631h-5.019v-26.631ZM2318.163,567.595h15.66v4.835h-15.66v-4.835ZM2318.163,578.822h13.646v4.835h-13.646v-4.835Z"/>
      <path d="M2337.181,567.595h5.019v26.631h-5.019v-26.631ZM2339.013,567.595h15.659v4.835h-15.659v-4.835ZM2339.013,578.822h13.645v4.835h-13.645v-4.835Z"/>
    </g>
    <g>
      <path d="M549.75,466.508h8.59l13.872,28.565-.615.667v-29.231h6.719v37.257h-8.642l-13.821-28.129.615-.667v28.795h-6.718v-37.257Z"/>
      <path d="M593.418,466.508h4.462l14.257,37.283h-7.564l-8.923-25.462-8.924,25.462h-7.564l14.257-37.283ZM586.007,491.047h19.616v6.77h-19.616v-6.77Z"/>
      <path d="M607.342,466.508h7.23l7.924,24.873,7.923-24.873h7.231l-12.411,37.283h-5.487l-12.41-37.283Z"/>
      <path d="M673.064,466.508h9.257v37.283h-6.385v-28.95l.256,1.641-7.128,23.155h-6.206l-7.128-22.642.256-2.154v28.95h-6.385v-37.283h9.257l7.104,25.129,7.103-25.129Z"/>
      <path d="M692.975,502.47c-2.06-1.137-3.654-2.744-4.782-4.821-1.128-2.077-1.692-4.483-1.692-7.218v-10.564c0-2.735.564-5.141,1.692-7.218s2.723-3.684,4.782-4.821c2.06-1.136,4.44-1.705,7.142-1.705s5.081.569,7.141,1.705c2.061,1.137,3.654,2.744,4.782,4.821,1.129,2.077,1.692,4.483,1.692,7.218v10.564c0,2.735-.563,5.141-1.692,7.218-1.128,2.077-2.722,3.684-4.782,4.821-2.06,1.137-4.44,1.705-7.141,1.705s-5.082-.568-7.142-1.705ZM703.45,496.342c.957-.539,1.696-1.304,2.218-2.295.521-.991.782-2.136.782-3.436v-10.924c0-1.299-.261-2.444-.782-3.436-.521-.991-1.261-1.756-2.218-2.295-.957-.538-2.068-.808-3.333-.808s-2.377.27-3.334.808c-.957.539-1.696,1.304-2.218,2.295-.521.992-.782,2.137-.782,3.436v10.924c0,1.299.261,2.444.782,3.436.521.992,1.261,1.757,2.218,2.295.957.538,2.068.808,3.334.808s2.376-.27,3.333-.808Z"/>
      <path d="M717.4,466.508h7.025v37.283h-7.025v-37.283ZM720.938,497.021h8.949c2.308,0,4.094-.555,5.359-1.667,1.265-1.111,1.897-2.684,1.897-4.718v-10.975c0-2.034-.633-3.607-1.897-4.718-1.266-1.111-3.052-1.667-5.359-1.667h-8.949v-6.77h8.796c3.11,0,5.765.521,7.962,1.564,2.196,1.043,3.867,2.564,5.013,4.564,1.145,2,1.718,4.41,1.718,7.231v10.564c0,2.684-.551,5.026-1.654,7.026-1.103,2-2.756,3.556-4.961,4.667s-4.906,1.667-8.104,1.667h-8.77v-6.77Z"/>
      <path d="M748.093,466.508h7.026v37.283h-7.026v-37.283ZM750.632,466.508h22.437v6.77h-22.437v-6.77ZM750.632,481.893h19.616v6.769h-19.616v-6.769ZM750.632,497.021h22.437v6.77h-22.437v-6.77Z"/>
      <path d="M793.571,503.637c-1.701-.359-3.3-.885-4.795-1.577-1.496-.692-2.834-1.525-4.014-2.5l3.257-5.795c1.436,1.179,3.094,2.09,4.975,2.731,1.88.641,3.812.961,5.795.961,2.29,0,4.068-.389,5.333-1.167,1.266-.778,1.898-1.876,1.898-3.295v-.025c0-.991-.282-1.778-.847-2.359s-1.299-1.009-2.205-1.282-2.068-.521-3.487-.744c-.052-.017-.099-.026-.141-.026-.043,0-.09-.008-.142-.025l-.564-.077c-2.496-.393-4.563-.884-6.205-1.474-1.641-.59-3.034-1.624-4.18-3.103-1.146-1.478-1.718-3.577-1.718-6.295v-.025c0-2.411.538-4.47,1.615-6.18s2.642-3.013,4.692-3.911c2.052-.897,4.53-1.346,7.437-1.346,1.333,0,2.696.154,4.09.461,1.393.308,2.757.752,4.09,1.333,1.333.582,2.599,1.282,3.795,2.103l-2.975,5.949c-1.436-.991-2.936-1.761-4.5-2.308-1.564-.547-3.064-.82-4.5-.82-2.154,0-3.82.355-5,1.064-1.18.71-1.77,1.706-1.77,2.987v.026c0,1.077.308,1.927.923,2.551s1.376,1.082,2.282,1.372,2.18.598,3.82.923c.068.017.137.03.206.039.067.009.136.021.205.039.103.017.2.038.295.064.094.025.191.047.295.064,2.358.461,4.328,1.022,5.91,1.68,1.581.658,2.901,1.718,3.962,3.18,1.06,1.461,1.589,3.458,1.589,5.987v.051c0,2.376-.556,4.41-1.666,6.103-1.111,1.692-2.731,2.983-4.859,3.872-2.128.889-4.688,1.333-7.68,1.333-1.778,0-3.518-.18-5.218-.539Z"/>
      <path d="M815.636,466.508h7.025v37.283h-7.025v-37.283ZM818.174,466.508h22.437v6.77h-22.437v-6.77ZM818.174,481.893h19.616v6.769h-19.616v-6.769ZM818.174,497.021h22.437v6.77h-22.437v-6.77Z"/>
      <path d="M843.766,466.508h7.025v37.283h-7.025v-37.283ZM846.894,497.021h21.847v6.77h-21.847v-6.77Z"/>
    </g>
    <g>
      <path d="M710.346,568.592h3.187l10.184,26.631h-5.403l-6.374-18.188-6.373,18.188h-5.403l10.184-26.631ZM705.052,586.12h14.012v4.835h-14.012v-4.835Z"/>
      <path d="M726.526,568.592h5.019v26.631h-5.019v-26.631ZM728.851,579.6h15.514v4.835h-15.514v-4.835ZM741.105,568.592h5.019v26.631h-5.019v-26.631Z"/>
      <path d="M751.497,568.574h5.019v26.649h-5.019v-26.649ZM753.493,579.674h9.269c.513,0,.964-.128,1.354-.385s.693-.623.907-1.099c.213-.476.326-1.025.339-1.648,0-.623-.107-1.172-.32-1.648-.214-.476-.517-.842-.907-1.099s-.849-.385-1.373-.385h-9.269v-4.835h9.671c1.466,0,2.754.33,3.864.989,1.111.659,1.973,1.591,2.583,2.793.61,1.203.916,2.598.916,4.185s-.306,2.983-.916,4.186-1.475,2.134-2.592,2.793-2.402.989-3.855.989h-9.671v-4.835ZM759.097,583.684l5.367-.842,7.18,12.381h-6.081l-6.466-11.539Z"/>
      <path d="M779.371,595.113c-1.215-.256-2.356-.632-3.425-1.126s-2.024-1.09-2.866-1.786l2.326-4.14c1.025.843,2.209,1.493,3.553,1.951,1.343.458,2.723.687,4.14.687,1.636,0,2.905-.278,3.81-.833.903-.555,1.355-1.34,1.355-2.354v-.018c0-.708-.202-1.27-.604-1.685-.403-.415-.929-.721-1.575-.916-.647-.195-1.478-.372-2.491-.531-.036-.012-.07-.018-.101-.018s-.064-.006-.101-.019l-.403-.055c-1.783-.281-3.26-.632-4.433-1.053-1.172-.421-2.167-1.16-2.985-2.216s-1.227-2.555-1.227-4.497v-.018c0-1.722.385-3.193,1.153-4.414.77-1.221,1.887-2.152,3.352-2.793,1.466-.641,3.236-.962,5.312-.962.953,0,1.927.11,2.922.33.995.22,1.969.538,2.921.953.953.415,1.856.916,2.711,1.502l-2.124,4.249c-1.026-.708-2.098-1.257-3.215-1.648-1.117-.391-2.188-.586-3.215-.586-1.538,0-2.729.253-3.571.76-.842.507-1.264,1.218-1.264,2.134v.018c0,.77.22,1.377.659,1.822.439.446.983.772,1.631.98.646.208,1.557.428,2.729.66.049.012.098.021.146.027.049.006.098.016.146.027.073.012.144.027.211.046.066.018.137.034.211.046,1.685.33,3.092.729,4.222,1.2,1.129.47,2.072,1.227,2.829,2.271s1.136,2.47,1.136,4.277v.037c0,1.697-.396,3.15-1.19,4.359s-1.95,2.131-3.471,2.766c-1.521.635-3.349.953-5.485.953-1.271,0-2.513-.128-3.728-.385Z"/>
    </g>
    <g>
      <path d="M740.609,679.377h-5.202v-26.631h5.202v26.631Z"/>
      <path d="M762.376,652.746h6.612v26.631h-4.561v-20.678l.183,1.172-5.092,16.539h-4.432l-5.092-16.172.183-1.539v20.678h-4.561v-26.631h6.612l5.073,17.949,5.074-17.949Z"/>
      <path d="M778.445,678.488c-1.453-.775-2.558-1.905-3.315-3.389-.757-1.483-1.136-3.269-1.136-5.357v-16.997h5.019v17.125c0,1.526.409,2.711,1.227,3.553.818.843,1.972,1.264,3.462,1.264,1.502,0,2.665-.421,3.489-1.264.824-.842,1.236-2.027,1.236-3.553v-17.125h5.018v16.997c0,2.088-.381,3.874-1.145,5.357-.763,1.484-1.875,2.613-3.333,3.389s-3.214,1.163-5.266,1.163-3.804-.388-5.257-1.163Z"/>
    </g>
    <g>
      <path d="M594.021,549.132h-5.201v-26.631h5.201v26.631Z"/>
      <path d="M599.029,522.501h6.136l9.908,20.403-.439.477v-20.88h4.799v26.612h-6.173l-9.872-20.092.439-.477v20.568h-4.798v-26.612Z"/>
      <path d="M629.449,549.022c-1.216-.256-2.357-.632-3.426-1.126s-2.023-1.09-2.866-1.786l2.326-4.14c1.025.843,2.21,1.493,3.554,1.951,1.343.458,2.723.687,4.139.687,1.637,0,2.906-.278,3.81-.833.903-.555,1.355-1.34,1.355-2.354v-.018c0-.708-.201-1.27-.604-1.685-.402-.415-.928-.721-1.575-.916s-1.478-.372-2.49-.531c-.037-.012-.071-.018-.102-.018s-.063-.006-.101-.019l-.402-.055c-1.783-.281-3.261-.632-4.433-1.053s-2.168-1.16-2.985-2.216c-.818-1.056-1.228-2.555-1.228-4.497v-.018c0-1.722.385-3.193,1.154-4.414.77-1.221,1.887-2.152,3.352-2.793,1.465-.641,3.235-.962,5.312-.962.952,0,1.926.11,2.921.33.995.22,1.97.538,2.922.953s1.855.916,2.711,1.502l-2.125,4.249c-1.025-.708-2.097-1.257-3.214-1.648-1.118-.391-2.189-.586-3.215-.586-1.538,0-2.729.253-3.571.76-.843.507-1.264,1.218-1.264,2.134v.018c0,.77.22,1.377.659,1.822.439.446.982.772,1.63.98.647.208,1.557.428,2.729.66.048.012.097.021.146.027.048.006.098.016.146.027.073.012.143.027.21.046.067.018.138.034.211.046,1.685.33,3.092.729,4.222,1.2,1.129.47,2.072,1.227,2.83,2.271.757,1.044,1.136,2.47,1.136,4.277v.037c0,1.697-.397,3.15-1.191,4.359-.793,1.209-1.95,2.131-3.471,2.766-1.52.635-3.349.953-5.485.953-1.27,0-2.512-.128-3.727-.385Z"/>
    </g>
    <g>
      <path d="M473.454,591.755c-1.441-.775-2.54-1.905-3.297-3.389-.758-1.483-1.136-3.275-1.136-5.375v-7.308c0-2.1.378-3.892,1.136-5.375.757-1.483,1.855-2.616,3.297-3.397,1.44-.781,3.174-1.172,5.201-1.172,1.673,0,3.169.36,4.487,1.081,1.319.721,2.408,1.768,3.27,3.141.86,1.374,1.456,3.031,1.786,4.973h-5.202c-.195-.879-.497-1.63-.906-2.252-.409-.623-.904-1.099-1.483-1.429-.58-.33-1.23-.495-1.951-.495-.94,0-1.74.192-2.399.577-.659.384-1.163.946-1.511,1.685s-.522,1.627-.522,2.665v7.308c0,1.038.175,1.923.522,2.656s.852,1.292,1.511,1.676c.659.385,1.459.577,2.399.577.732,0,1.393-.162,1.979-.485s1.08-.797,1.483-1.419c.402-.623.696-1.38.879-2.271h5.202c-.343,1.942-.943,3.599-1.805,4.973-.86,1.374-1.947,2.42-3.26,3.141-1.312.72-2.806,1.081-4.479,1.081-2.027,0-3.761-.388-5.201-1.163Z"/>
      <path d="M489.542,566.012h5.165l5.659,17.766,5.659-17.766h5.165l-8.864,26.631h-3.92l-8.864-26.631Z"/>
      <path d="M519.788,566.012h3.187l10.184,26.631h-5.403l-6.374-18.188-6.373,18.188h-5.403l10.184-26.631ZM514.494,583.54h14.012v4.835h-14.012v-4.835Z"/>
    </g>
    <g>
      <path d="M451.98,670.355v5.202c0,1.978-.4,3.721-1.2,5.229-.8,1.508-1.932,2.674-3.397,3.499-1.465.824-3.162,1.236-5.092,1.236-1.941,0-3.653-.388-5.137-1.163-1.484-.775-2.632-1.871-3.443-3.288-.812-1.417-1.219-3.059-1.219-4.927v-7.857c0-1.978.4-3.718,1.2-5.22s1.933-2.665,3.397-3.489,3.162-1.236,5.092-1.236c1.587,0,3.053.327,4.396.98,1.343.653,2.464,1.578,3.361,2.775s1.505,2.583,1.822,4.158h-5.422c-.183-.562-.485-1.047-.906-1.456s-.916-.721-1.483-.934c-.568-.214-1.157-.321-1.768-.321-.892,0-1.676.196-2.354.586s-1.203.946-1.575,1.667c-.373.721-.559,1.551-.559,2.491v7.857c0,.831.189,1.563.567,2.198.379.635.916,1.124,1.612,1.465.695.342,1.502.513,2.417.513.904,0,1.694-.186,2.372-.559s1.2-.913,1.566-1.621c.366-.708.549-1.544.549-2.509v-.439h-4.029v-4.835h9.231Z"/>
      <path d="M456.438,658.615h6.136l9.908,20.403-.439.477v-20.88h4.799v26.612h-6.173l-9.872-20.092.439-.477v20.568h-4.798v-26.612Z"/>
      <path d="M482.214,658.615h5.019v26.631h-5.019v-26.631ZM484.742,680.41h6.393c1.648,0,2.924-.396,3.828-1.19.903-.793,1.355-1.917,1.355-3.37v-7.839c0-1.453-.452-2.576-1.355-3.37-.904-.793-2.18-1.19-3.828-1.19h-6.393v-4.835h6.282c2.223,0,4.118.373,5.688,1.117,1.568.745,2.763,1.832,3.58,3.26.818,1.429,1.228,3.15,1.228,5.165v7.546c0,1.917-.394,3.59-1.182,5.019-.787,1.429-1.969,2.54-3.544,3.333-1.575.794-3.504,1.19-5.787,1.19h-6.265v-4.835Z"/>
    </g>
    <g>
      <path d="M466.929,766.825c-1.472-.812-2.61-1.959-3.416-3.443-.806-1.483-1.209-3.202-1.209-5.156v-7.546c0-1.954.403-3.672,1.209-5.156.806-1.484,1.944-2.631,3.416-3.443,1.471-.812,3.171-1.218,5.101-1.218s3.629.406,5.101,1.218,2.61,1.959,3.416,3.443c.806,1.483,1.209,3.202,1.209,5.156v7.546c0,1.954-.403,3.672-1.209,5.156-.806,1.484-1.944,2.631-3.416,3.443-1.472.812-3.172,1.218-5.101,1.218s-3.63-.406-5.101-1.218ZM474.411,762.448c.684-.384,1.212-.931,1.584-1.639.373-.708.559-1.526.559-2.454v-7.803c0-.928-.186-1.746-.559-2.454-.372-.708-.9-1.255-1.584-1.639-.684-.385-1.478-.577-2.381-.577s-1.697.192-2.381.577c-.685.384-1.212.931-1.585,1.639-.372.708-.559,1.526-.559,2.454v7.803c0,.928.187,1.746.559,2.454.373.708.9,1.255,1.585,1.639.684.385,1.477.577,2.381.577s1.697-.192,2.381-.577Z"/>
      <path d="M486.213,741.138h5.019v26.631h-5.019v-26.631ZM488.044,741.138h15.66v4.835h-15.66v-4.835ZM488.044,752.365h13.646v4.835h-13.646v-4.835Z"/>
      <path d="M507.063,741.138h5.019v26.631h-5.019v-26.631ZM508.895,741.138h15.659v4.835h-15.659v-4.835ZM508.895,752.365h13.645v4.835h-13.645v-4.835Z"/>
    </g>
    <polygon points="618.302 576.965 603.822 620.477 632.782 620.477 618.302 576.965" stroke="#000" stroke-miterlimit="10"/>
    <line x1="618.096" y1="608.738" x2="618.096" y2="654.986" stroke="#000" stroke-miterlimit="10" stroke-width="7"/>
    <polygon points="2440.48 576.871 2426 620.383 2454.96 620.383 2440.48 576.871" stroke="#000" stroke-miterlimit="10"/>
    <line x1="2440.274" y1="608.645" x2="2440.274" y2="654.893" stroke="#000" stroke-miterlimit="10" stroke-width="7"/>
    <circle cx="1123.572" cy="618.004" r="25.132" fill="none" stroke="#000" stroke-miterlimit="10" stroke-width="5"/>
    <circle cx="1337.814" cy="617.438" r="25.132" fill="none" stroke="#000" stroke-miterlimit="10" stroke-width="5"/>
    <circle cx="1229.947" cy="585.967" r="66.768" fill="none" stroke="#000" stroke-miterlimit="10" stroke-width="5"/>
    <circle cx="1852.17" cy="588.79" r="67.747" fill="none" stroke="#000" stroke-miterlimit="10" stroke-width="5"/>
    <line x1="1849.485" y1="609.663" x2="1832.056" y2="652.501" stroke="#000" stroke-miterlimit="10" stroke-width="7"/>
    <line x1="1210.376" y1="616.141" x2="1194.474" y2="641.441" stroke="#000" stroke-miterlimit="10" stroke-width="7"/>
    <g>
      <path d="M1818.602,505.109c-1.44-.775-2.54-1.905-3.297-3.389-.757-1.483-1.136-3.275-1.136-5.375v-7.308c0-2.1.379-3.892,1.136-5.375s1.856-2.616,3.297-3.397c1.44-.781,3.175-1.172,5.202-1.172,1.672,0,3.168.36,4.486,1.081,1.319.721,2.408,1.768,3.27,3.141.861,1.374,1.457,3.031,1.786,4.973h-5.202c-.195-.879-.497-1.63-.906-2.252-.409-.623-.904-1.099-1.483-1.429-.58-.33-1.23-.495-1.95-.495-.941,0-1.74.192-2.4.577-.658.384-1.162.946-1.511,1.685-.348.739-.522,1.627-.522,2.665v7.308c0,1.038.175,1.923.522,2.656.349.732.853,1.292,1.511,1.676.66.385,1.459.577,2.4.577.732,0,1.392-.162,1.978-.485s1.081-.797,1.483-1.419c.402-.623.696-1.38.879-2.271h5.202c-.343,1.942-.943,3.599-1.804,4.973-.861,1.374-1.948,2.42-3.261,3.141-1.312.72-2.806,1.081-4.478,1.081-2.027,0-3.762-.388-5.202-1.163Z" stroke="#000" stroke-miterlimit="10"/>
      <path d="M1840.781,505.053c-1.473-.812-2.611-1.959-3.416-3.443-.807-1.483-1.209-3.202-1.209-5.156v-7.546c0-1.954.402-3.672,1.209-5.156.805-1.484,1.943-2.631,3.416-3.443,1.471-.812,3.171-1.218,5.1-1.218s3.63.406,5.102,1.218c1.471.812,2.609,1.959,3.416,3.443.806,1.483,1.209,3.202,1.209,5.156v7.546c0,1.954-.403,3.672-1.209,5.156-.807,1.484-1.945,2.631-3.416,3.443-1.472.812-3.172,1.218-5.102,1.218s-3.629-.406-5.1-1.218ZM1848.262,500.676c.684-.384,1.212-.931,1.584-1.639.372-.708.559-1.526.559-2.454v-7.803c0-.928-.187-1.746-.559-2.454s-.9-1.255-1.584-1.639c-.685-.385-1.478-.577-2.382-.577s-1.697.192-2.381.577c-.684.384-1.211.931-1.584,1.639s-.559,1.526-.559,2.454v7.803c0,.928.186,1.746.559,2.454.373.708.9,1.255,1.584,1.639.684.385,1.478.577,2.381.577s1.697-.192,2.382-.577Z" stroke="#000" stroke-miterlimit="10"/>
      <path d="M1860.064,479.366h6.136l9.909,20.403-.44.477v-20.88h4.799v26.612h-6.173l-9.871-20.092.439-.477v20.568h-4.799v-26.612Z" stroke="#000" stroke-miterlimit="10"/>
      <path d="M1883.643,479.366h19.524v4.835h-19.524v-4.835ZM1890.896,481.546h5.019v24.451h-5.019v-24.451Z" stroke="#000" stroke-miterlimit="10"/>
    </g>
    <g>
      <path d="M1199.165,480.274h5.019v26.631h-5.019v-26.631ZM1201.362,502.07h8.499c1.147,0,2.036-.277,2.665-.833s.943-1.334.943-2.335v-.055c0-.671-.141-1.245-.421-1.722-.281-.476-.693-.839-1.236-1.089-.543-.25-1.194-.375-1.951-.375h-8.499v-4.835h8.499c1.038,0,1.841-.263,2.408-.788.568-.525.852-1.264.852-2.216,0-.854-.284-1.52-.852-1.996-.567-.477-1.371-.714-2.408-.714h-8.499v-4.835h8.663c1.722,0,3.193.284,4.414.852s2.149,1.392,2.784,2.473c.635,1.081.952,2.378.952,3.892,0,1.038-.205,1.957-.613,2.756-.409.8-1.004,1.456-1.786,1.969-.782.513-1.722.861-2.821,1.044,1.172.159,2.176.516,3.013,1.071.836.556,1.472,1.279,1.905,2.17.434.892.65,1.923.65,3.095v.055c0,1.526-.32,2.833-.961,3.919-.641,1.087-1.575,1.914-2.802,2.482s-2.702.852-4.423.852h-8.975v-4.835Z" stroke="#000" stroke-miterlimit="10"/>
      <path d="M1222.89,480.256h5.019v26.649h-5.019v-26.649ZM1224.886,491.355h9.268c.513,0,.964-.128,1.355-.385s.693-.623.907-1.099c.213-.476.327-1.025.339-1.648,0-.623-.107-1.172-.32-1.648-.214-.476-.516-.842-.907-1.099-.391-.256-.849-.385-1.374-.385h-9.268v-4.835h9.671c1.465,0,2.753.33,3.864.989,1.111.659,1.972,1.591,2.583,2.793.611,1.203.916,2.598.916,4.185s-.305,2.983-.916,4.186c-.61,1.203-1.474,2.134-2.591,2.793s-2.403.989-3.855.989h-9.671v-4.835ZM1230.491,495.366l5.367-.842,7.18,12.381h-6.081l-6.466-11.539Z" stroke="#000" stroke-miterlimit="10"/>
      <path d="M1243.191,480.274h19.524v4.835h-19.524v-4.835ZM1250.444,482.454h5.019v24.451h-5.019v-24.451Z" stroke="#000" stroke-miterlimit="10"/>
    </g>
    <circle cx="1231.077" cy="584.599" r="37.884" fill="none" stroke="#000" stroke-miterlimit="10" stroke-width="5"/>
    <line x1="1235.637" y1="583.416" x2="1266.124" y2="601.803" stroke="#000" stroke-miterlimit="10" stroke-width="7"/>
    <g>
      <path d="M999.469,605.54h5.019v26.649h-5.019v-26.649ZM1001.465,616.639h9.268c.513,0,.964-.128,1.355-.385s.693-.623.907-1.099c.213-.476.327-1.025.339-1.648,0-.623-.107-1.172-.32-1.648-.214-.476-.516-.842-.907-1.099-.391-.256-.849-.385-1.374-.385h-9.268v-4.835h9.671c1.465,0,2.753.33,3.864.989,1.111.659,1.972,1.591,2.583,2.793.611,1.203.916,2.598.916,4.185s-.305,2.983-.916,4.186c-.61,1.203-1.474,2.134-2.591,2.793s-2.403.989-3.855.989h-9.671v-4.835ZM1007.069,620.65l5.367-.842,7.18,12.381h-6.081l-6.466-11.539Z" stroke="#000" stroke-miterlimit="10"/>
      <path d="M1027.343,632.079c-1.215-.256-2.357-.632-3.425-1.126s-2.024-1.09-2.866-1.786l2.326-4.14c1.025.843,2.209,1.493,3.553,1.951,1.343.458,2.723.687,4.139.687,1.636,0,2.906-.278,3.81-.833.903-.555,1.355-1.34,1.355-2.354v-.018c0-.708-.202-1.27-.604-1.685s-.928-.721-1.575-.916c-.647-.195-1.478-.372-2.491-.531-.037-.012-.071-.018-.101-.018s-.064-.006-.101-.019l-.403-.055c-1.783-.281-3.26-.632-4.433-1.053-1.172-.421-2.167-1.16-2.985-2.216-.818-1.056-1.227-2.555-1.227-4.497v-.018c0-1.722.385-3.193,1.154-4.414.77-1.221,1.887-2.152,3.352-2.793,1.465-.641,3.236-.962,5.312-.962.953,0,1.926.11,2.921.33.995.22,1.969.538,2.921.953.953.415,1.856.916,2.711,1.502l-2.125,4.249c-1.026-.708-2.097-1.257-3.214-1.648-1.118-.391-2.189-.586-3.215-.586-1.538,0-2.729.253-3.571.76s-1.264,1.218-1.264,2.134v.018c0,.77.22,1.377.659,1.822.439.446.983.772,1.63.98.647.208,1.557.428,2.729.66.048.012.097.021.146.027.048.006.098.016.146.027.073.012.143.027.21.046.067.018.137.034.211.046,1.685.33,3.092.729,4.222,1.2,1.129.47,2.072,1.227,2.83,2.271.757,1.044,1.136,2.47,1.136,4.277v.037c0,1.697-.397,3.15-1.191,4.359-.793,1.209-1.95,2.131-3.471,2.766-1.52.635-3.349.953-5.485.953-1.27,0-2.512-.128-3.727-.385Z" stroke="#000" stroke-miterlimit="10"/>
      <path d="M1041.645,605.558h19.524v4.835h-19.524v-4.835ZM1048.898,607.738h5.019v24.451h-5.019v-24.451Z" stroke="#000" stroke-miterlimit="10"/>
      <path d="M1063.612,605.54h5.019v26.649h-5.019v-26.649ZM1065.608,616.639h9.268c.513,0,.964-.128,1.355-.385s.693-.623.907-1.099c.213-.476.327-1.025.339-1.648,0-.623-.107-1.172-.32-1.648-.214-.476-.516-.842-.907-1.099-.391-.256-.849-.385-1.374-.385h-9.268v-4.835h9.671c1.465,0,2.753.33,3.864.989,1.111.659,1.972,1.591,2.583,2.793.611,1.203.916,2.598.916,4.185s-.305,2.983-.916,4.186c-.61,1.203-1.474,2.134-2.591,2.793s-2.403.989-3.855.989h-9.671v-4.835ZM1071.213,620.65l5.367-.842,7.18,12.381h-6.081l-6.466-11.539Z" stroke="#000" stroke-miterlimit="10"/>
    </g>
    <g>
      <path d="M1381.962,632.08c-1.215-.256-2.357-.632-3.425-1.126s-2.024-1.09-2.866-1.786l2.326-4.14c1.025.843,2.209,1.493,3.553,1.951,1.343.458,2.723.687,4.139.687,1.636,0,2.906-.278,3.81-.833.903-.555,1.355-1.34,1.355-2.354v-.018c0-.708-.202-1.27-.604-1.685s-.928-.721-1.575-.916c-.647-.195-1.478-.372-2.491-.531-.037-.012-.071-.018-.101-.018s-.064-.006-.101-.019l-.403-.055c-1.783-.281-3.26-.632-4.433-1.053-1.172-.421-2.167-1.16-2.985-2.216-.818-1.056-1.227-2.555-1.227-4.497v-.018c0-1.722.385-3.193,1.154-4.414.77-1.221,1.887-2.152,3.352-2.793,1.465-.641,3.236-.962,5.312-.962.953,0,1.926.11,2.921.33.995.22,1.969.538,2.921.953.953.415,1.856.916,2.711,1.502l-2.125,4.249c-1.026-.708-2.097-1.257-3.214-1.648-1.118-.391-2.189-.586-3.215-.586-1.538,0-2.729.253-3.571.76s-1.264,1.218-1.264,2.134v.018c0,.77.22,1.377.659,1.822.439.446.983.772,1.63.98.647.208,1.557.428,2.729.66.048.012.097.021.146.027.048.006.098.016.146.027.073.012.143.027.21.046.067.018.137.034.211.046,1.685.33,3.092.729,4.222,1.2,1.129.47,2.072,1.227,2.83,2.271.757,1.044,1.136,2.47,1.136,4.277v.037c0,1.697-.397,3.15-1.191,4.359-.793,1.209-1.95,2.131-3.471,2.766-1.52.635-3.349.953-5.485.953-1.27,0-2.512-.128-3.727-.385Z" stroke="#000" stroke-miterlimit="10"/>
      <path d="M1396.264,605.559h19.524v4.835h-19.524v-4.835ZM1403.517,607.738h5.019v24.451h-5.019v-24.451Z" stroke="#000" stroke-miterlimit="10"/>
      <path d="M1418.232,605.54h5.019v26.649h-5.019v-26.649ZM1420.228,616.64h9.268c.513,0,.964-.128,1.355-.385s.693-.623.907-1.099c.213-.476.327-1.025.339-1.648,0-.623-.107-1.172-.32-1.648-.214-.476-.516-.842-.907-1.099-.391-.256-.849-.385-1.374-.385h-9.268v-4.835h9.671c1.465,0,2.753.33,3.864.989,1.111.659,1.972,1.591,2.583,2.793.611,1.203.916,2.598.916,4.185s-.305,2.983-.916,4.186c-.61,1.203-1.474,2.134-2.591,2.793s-2.403.989-3.855.989h-9.671v-4.835ZM1425.832,620.651l5.367-.842,7.18,12.381h-6.081l-6.466-11.539Z" stroke="#000" stroke-miterlimit="10"/>
      <path d="M1442.195,605.559h5.019v26.631h-5.019v-26.631ZM1445.217,621.786l10.678-16.228h6.319l-16.355,22.748-.641-6.521ZM1449.649,618.709l4.323-2.729,9.359,16.209h-5.953l-7.729-13.48Z" stroke="#000" stroke-miterlimit="10"/>
    </g>
  </g>
  <g id="f" data-name="PTID_Placeholder_-_Light">
    <g>
      <rect x="813.87" y="1263.522" width="1436.87" height="347.478" fill="none"/>
      <path d="M1248.622,1426.3v8.48c0,9.217-7.472,16.688-16.688,16.688h-27.642v28.292h-10.834v-70.148h10.834s27.641,0,27.641,0c9.217,0,16.688,7.471,16.689,16.688ZM1237.789,1427.103c0-3.139-2.544-5.683-5.683-5.683h-27.813v18.242h27.813c3.139,0,5.683-2.544,5.683-5.683v-6.876Z"/>
      <path d="M1299.093,1479.76h-40.436v-70.033h12.168v57.864h28.268v12.169Z"/>
      <path d="M1351.982,1479.76l-6.427-21.333h-17.584l-6.441,21.333h-12.472l21.774-70.004h11.823l21.566,70.004h-12.239ZM1341.998,1446.621l-5.226-17.344-5.237,17.344h10.462Z"/>
      <path d="M1385.09,1421.435v46.518h44.338v11.807h-55.172v-70.027h.008v-.105h55.164v11.807h-44.338Z"/>
      <path d="M1450.006,1421.223v17.719l44.696.102v11.499l-44.675-.102v17.719l44.675.101v11.499l-55.239-.102v-11.499h.013v-17.719h-.013v-3.636h-.008v-36.978h.008v-.103h55.239v11.499h-44.696Z"/>
      <path d="M1559.877,1409.732v70.027h-10.834v-29.074h-33.554v29.075h-10.834v-70.027h10.834v29.146h33.554v-29.146h10.834Z"/>
      <path d="M1587.061,1409.681h20.765c9.503,0,17.207,7.704,17.206,17.207v35.666c0,9.503-7.703,17.207-17.206,17.207h-20.765c-9.503,0-17.207-7.703-17.207-17.206v-35.667c0-9.503,7.704-17.207,17.207-17.207ZM1592.031,1468.924h10.72c6.322,0,11.447-5.125,11.447-11.448v-25.667c0-6.237-5.057-11.293-11.293-11.293h-10.964c-6.215,0-11.252,5.038-11.252,11.252v25.814c0,6.264,5.077,11.342,11.342,11.342Z"/>
      <path d="M1675.49,1479.76h-40.437v-70.033h12.169v57.864h28.268v12.169Z"/>
      <path d="M1740.746,1444.606c0,19.35-15.616,35.146-34.966,35.146l-20.316.008-.011-70.128h20.257c19.35,0,35.036,15.624,35.036,34.974ZM1728.971,1444.639c0-12.384-7.472-23.232-19.855-23.232h-12.688l.187,46.68h12.732c12.384,0,19.624-11.063,19.624-23.448Z"/>
      <path d="M1761.304,1421.223v17.719l44.695.102v11.499l-44.675-.102v17.719l44.675.101v11.499l-55.239-.102v-11.499h.013v-17.719h-.013v-3.636h-.008v-36.978h.008v-.103h55.239v11.499h-44.695Z"/>
      <path d="M1842.347,1451.466h-15.561v28.292h-10.835v-70.148h10.835s27.641,0,27.641,0c9.217,0,16.688,7.472,16.688,16.688v8.48c0,9.075-7.244,16.453-16.265,16.678l16.342,28.305-12.513-.004-16.333-28.291ZM1826.787,1421.417v18.242h27.813c3.139,0,5.683-2.544,5.683-5.683v-6.876c0-3.139-2.544-5.683-5.683-5.683h-27.813Z"/>
    </g>
  </g>
</svg>