<?xml version="1.0" encoding="UTF-8"?>
<svg xmlns="http://www.w3.org/2000/svg" width="2398.735" height="316.957" viewBox="0 0 2398.735 316.957">
  <g id="a" data-name="FTI_smoler_-_Light">
    <path d="M2036.585,182.24c-.134.321-.277.636-.418.953.142-.316.282-.634.418-.953Z"/>
    <path d="M541.469,258.71c2.894,16.247,17.67,29.167,33.673,28.864,14.143-.267,28.294-.047,42.442-.047,339.339.017,1128.665.08,1183.99-.012,20.9-.035,34.071-11.428,37.149-32.139.77-5.184.674-10.523.678-15.791.038-49.201.016-98.402-.006-147.603-.002-5.701.013-11.406-.201-17.101-.346-9.169-3.465-17.178-9.751-24.076-7.771-8.529-17.289-12.286-28.7-12.268-48.143.076-1128.831.206-1221.319-.115-20.364-.071-36.155,14.355-38.47,32.283-.511,3.959-.531,8-.534,12.003-.047,54.902-.073,109.805-.021,164.707.004,3.768.409,7.581,1.07,11.295ZM549.034,83.526c.004-4.207-.028-8.529.867-12.598,3.316-15.075,16.364-23.724,30.226-23.677,76.86.263,869.546.06,1189.027.082,10.558,0,21.117-.011,31.673.127,16.929.221,29.407,12.656,29.709,29.707.179,10.132.038,20.271.036,30.406-.006,46.244.06,92.487-.126,138.73-.02,4.958-.87,10.128-2.456,14.821-3.619,10.71-15.139,17.861-26.585,17.829-76.65-.216-153.3-.104-229.95-.103-127.328.002-254.656,0-381.984,0v.021c-200.177,0-400.354,0-600.531,0-3.378,0-6.783-.289-10.131.029-13.313,1.267-28.829-9.511-29.658-28.138-.103-2.319-.128-4.644-.129-6.966-.013-53.423-.036-106.846.011-160.269Z"/>
    <path d="M566.163,246.323c.001,1.897-.034,3.824.264,5.685.953,5.938,4.18,8.794,10.288,9.052,4.006.17,8.023.106,12.035.106,200.183.004,400.367.003,600.55.003v-.03c198.494,0,396.988,0,595.483-.001,5.701,0,11.405.078,17.104-.06,7.579-.184,10.626-3.083,11.442-10.648.158-1.465.179-2.95.18-4.426.011-54.48.016-108.96.003-163.441,0-2.532.018-5.087-.298-7.59-.714-5.653-4.931-9.545-10.567-9.894-2.104-.13-4.222-.046-6.334-.046-396.144.011-792.288.023-1188.432.034-9.714,0-19.428-.076-29.14.002-7.268.058-11.361,3.649-12.31,10.859-.384,2.916-.335,5.901-.335,8.854.005,53.847.031,107.693.067,161.54Z" fill="none" stroke="#000" stroke-miterlimit="10" stroke-width="10"/>
  </g>
  <g id="b" data-name="VIEW_SEND_IMAGE_-_Light">
    <g>
      <rect x="351.043" y="83.278" width="1461.897" height="65.016" fill="none"/>
      <path d="M644.019,120.387c1.025,2.03,1.519,4.028,1.519,5.936,0,5.087-1.865,9.264-5.549,12.418-3.44,3.179-7.792,4.819-12.869,4.819h-.472c-4.787,0-9.197-1.702-13.108-5.055-3.055-2.586-3.95-4.869-4.6-6.536-.097-.243-.187-.478-.283-.701l4.34-1.863c.116.269.227.55.342.843.545,1.396,1.11,2.838,3.266,4.661,3.086,2.649,6.369,3.93,10.045,3.93h.473c3.905,0,7.091-1.186,9.73-3.625,2.728-2.338,3.965-5.143,3.965-8.891,0-1.161-.331-2.465-.933-3.667-.517-.848-1.268-1.967-2.267-2.633-1.147-.906-2.621-1.757-4.106-2.392-.963-.413-2.047-.746-3.304-1.131-.697-.215-1.424-.439-2.179-.689l-6.945-1.85c-3.743-1.149-6.441-2.881-8.337-5.317-2.057-2.643-3.098-5.75-3.098-9.242,0-4.318,1.792-8.023,5.322-11.013,3.355-3.099,7.164-4.574,11.917-4.574h.47c4.774.276,8.76,1.913,11.986,4.869,2.451,2.177,3.934,4.781,4.505,7.932l-4.649.841c-.385-2.128-1.315-3.752-3.02-5.269-2.43-2.227-5.438-3.449-8.961-3.657l-.333.005c-3.54,0-6.253,1.046-8.789,3.389-2.534,2.148-3.729,4.571-3.729,7.476,0,2.418.708,4.55,2.102,6.342,1.299,1.67,3.178,2.839,5.915,3.682l6.999,1.865c.857.278,1.547.491,2.208.694,1.332.408,2.585.793,3.783,1.306,1.882.806,3.714,1.87,5.032,2.924,1.611,1.064,2.744,2.715,3.618,4.172l-.005.003Z" stroke="#000" stroke-miterlimit="10" stroke-width="2"/>
      <path d="M660.936,88.745v19.362h17.001v4.723h-17.001v26.21h30.933v4.723h-35.655v-59.74h35.655v4.723h-30.933Z" stroke="#000" stroke-miterlimit="10" stroke-width="2"/>
      <path d="M739.379,86.098v57.665h-4.685l-27.429-48.583v48.543h-4.723v-57.379h5.157l26.956,47.745v-47.991h4.723Z" stroke="#000" stroke-miterlimit="10" stroke-width="2"/>
      <path d="M786.856,105.746v16.293c0,3.232-.55,6.312-1.587,8.904-.984,2.718-2.52,5.152-4.534,7.169-1.523,1.785-3.473,3.188-5.684,4.038-2.177,1.071-4.401,1.612-6.614,1.612h-18.418v-59.977h18.418c2.441,0,4.718.543,6.958,1.665,2.316,1.159,4.177,2.583,5.698,4.354,1.507,1.5,2.874,3.776,4.177,7.037,1.075,2.951,1.584,5.842,1.584,8.904ZM782.134,105.746c0-2.536-.406-4.831-1.275-7.221-1.032-2.576-2.066-4.35-3.23-5.514-1.239-1.436-2.581-2.453-4.345-3.337-1.591-.796-3.131-1.166-4.845-1.166h-13.695v50.531h13.695c1.511,0,3.062-.395,4.612-1.169l.227-.099c1.525-.569,2.831-1.509,3.995-2.867,1.646-1.657,2.81-3.511,3.587-5.646.831-2.08,1.275-4.619,1.275-7.221v-16.293Z" stroke="#000" stroke-miterlimit="10" stroke-width="2"/>
      <path d="M913.828,88.776v50.532h11.57v4.723h-27.863v-4.723h11.57v-50.532h-11.57v-4.723h27.863v4.723h-11.57Z" stroke="#000" stroke-miterlimit="10" stroke-width="2"/>
      <path d="M972.911,86.421v57.38h-4.723v-48.055l-11.126,19.955h-5.136l-11.129-19.955v48.055h-4.722v-57.38h4.928l13.49,24.188,13.49-24.188h4.928Z" stroke="#000" stroke-miterlimit="10" stroke-width="2"/>
      <path d="M1020.395,111.656l-.243,32.106-4.723-.035.134-17.93h-27.289v17.946h-4.723v-32.098l16.182-25.284h4.475l16.187,25.294ZM1015.599,121.073l.062-8.055-13.691-21.391-13.695,21.397v8.048h27.325Z" stroke="#000" stroke-miterlimit="10" stroke-width="2"/>
      <path d="M1051.809,111.655h17.001v17.001c0,1.773,0,4.456-1.54,6.919l-.21.318c-.923,1.394-1.877,2.834-4.083,4.21-1.089.826-3.757,2.108-5.615,2.806-1.964.736-4.243,1.096-6.968,1.096s-5.003-.359-6.968-1.096c-2.416-.907-4.392-1.993-5.877-3.23-2.085-1.561-3.452-3.474-4.657-5.159l-.196-.324c-1.091-2.179-1.667-4.668-1.667-7.194v-25.975c0-2.883.621-5.164,2.012-7.391,1.112-2.25,3.23-4.227,4.715-5.502,1.75-1.457,3.861-2.248,5.901-3.013,1.967-.739,4.248-1.098,6.973-1.098s5.003.358,6.968,1.096c1.825.682,3.766,1.61,5.773,2.755l.246.161c2.425,1.82,4.17,3.771,5.181,5.792l-4.224,2.113c-.666-1.332-1.901-2.689-3.674-4.038-1.719-.973-3.431-1.787-4.958-2.361-1.426-.535-3.162-.795-5.311-.795s-3.887.257-5.311.793c-1.754.659-3.407,1.277-4.515,2.201-1.148.986-2.81,2.521-3.648,4.2-1.018,1.648-1.405,3.11-1.405,5.084v25.975c0,1.735.377,3.433,1.091,4.925,1.067,1.49,2.092,2.893,3.634,4.048,1.157.958,2.718,1.802,4.607,2.51,1.426.536,3.162.796,5.311.796s3.884-.26,5.311-.794c1.799-.675,3.917-1.759,4.607-2.275,1.5-.949,2.023-1.736,2.812-2.929l.179-.271c.784-1.256.784-2.904.784-4.356v-12.278h-12.279v-4.718Z" stroke="#000" stroke-miterlimit="10" stroke-width="2"/>
      <path d="M1084.213,88.745v19.362h17.001v4.723h-17.001v26.21h30.933v4.723h-35.655v-59.74h35.655v4.723h-30.933Z" stroke="#000" stroke-miterlimit="10" stroke-width="2"/>
      <path d="M1217.467,139.244v4.723h-15.112v-4.723h5.194v-48.461l-3.69,3.056-3.011-3.639,7.502-6.208h3.922v55.252h5.195Z" stroke="#000" stroke-miterlimit="10" stroke-width="2"/>
      <path d="M1338.356,94.094c1.089,2.184,1.665,4.673,1.665,7.197v25.737c0,2.526-.576,5.016-1.665,7.195-1.024,2.05-2.568,3.967-4.59,5.697-1.807,1.507-3.747,2.529-5.792,3.062-1.866.681-3.878,1.025-6.135,1.047h-.236c-2.524-.02-4.538-.359-6.496-1.094-2.135-.803-4.03-1.889-5.644-3.232-2.047-1.755-3.592-3.672-4.613-5.717-1.092-2.18-1.668-4.668-1.668-7.195v-25.737c0-2.526.579-5.016,1.668-7.195,1.021-2.05,2.568-3.965,4.59-5.697,1.804-1.505,3.745-2.527,5.79-3.061,1.925-.704,4.012-1.049,6.37-1.049,2.534,0,4.801.369,6.735,1.096,2.13.799,4.025,1.887,5.641,3.23,1.795,1.537,3.219,3.402,4.378,5.715h.002ZM1335.294,127.027v-25.738c0-1.795-.403-3.554-1.166-5.084-.884-1.764-1.898-3.104-3.202-4.222-1.181-.982-2.621-1.802-4.25-2.413-1.387-.52-3.139-.794-5.075-.794-1.857,0-3.397.253-4.838.794l-.257.08c-1.398.35-2.749,1.062-4.017,2.12-1.517,1.299-2.676,2.721-3.415,4.201-.765,1.53-1.169,3.287-1.169,5.084v25.735c0,1.797.406,3.557,1.169,5.084.737,1.479,1.896,2.899,3.438,4.222,1.181.982,2.621,1.802,4.253,2.416,1.436.538,2.965.784,4.949.793,1.806-.009,3.308-.262,4.727-.793l.255-.08c1.398-.35,2.751-1.062,4.021-2.121,1.514-1.299,2.673-2.72,3.412-4.2.763-1.525,1.167-3.285,1.167-5.082l-.003-.002Z" stroke="#000" stroke-miterlimit="10" stroke-width="2"/>
      <path d="M1355.383,91.123v19.362h15.349v4.723h-15.349v28.571h-4.723v-57.379h35.656v4.723h-30.934Z" stroke="#000" stroke-miterlimit="10" stroke-width="2"/>
      <path d="M1506.774,109.744c.897,2.097,1.372,4.298,1.372,6.364v11.57c0,2.068-.475,4.267-1.372,6.361-.873,2.042-2.318,4-3.962,5.369-1.266,1.056-3.228,2.56-5.641,3.467-2.426.908-4.567,1.331-6.735,1.331-2.467,0-5.554-.533-7.676-1.329-2.356-.886-4.253-2.066-5.8-3.612-1.487-1.226-2.93-3.184-3.807-5.226-.528-1.049-.814-2.187-1.064-3.19l-.071-.574v-2.125h4.723v1.835c.191.761.378,1.431.694,2.066.649,1.509,1.615,2.821,2.706,3.73,1.232,1.219,2.541,2.021,4.276,2.673,1.592.595,4.125,1.029,6.019,1.029,1.606,0,3.172-.318,5.075-1.031,1.324-.498,2.685-1.346,4.276-2.673,1.088-.909,2.054-2.225,2.646-3.604.647-1.512.989-3.067.989-4.501v-11.57c0-1.434-.342-2.989-.989-4.503-.59-1.379-1.556-2.691-2.646-3.601-1.233-1.216-2.541-2.021-4.276-2.671l-.723-.278c-1.32-.518-1.925-.754-4.353-.754-2.961,0-5.334.633-7.468,1.993-1.595.997-3.004,2.406-3.988,3.981l-.694,1.109h-6.268v-27.391h35.656v4.723h-30.934v16.708c1.082-1.209,2.333-2.267,3.708-3.126,2.868-1.828,6.144-2.721,9.987-2.721,3.157,0,4.364.409,6.071,1.077l.661.255c2.356.884,4.253,2.064,5.8,3.61,1.485,1.226,2.93,3.181,3.806,5.224v.002Z" stroke="#000" stroke-miterlimit="10" stroke-width="2"/>
      <path d="M1554.028,115.986c.893,2.085,1.329,6.113,1.329,8.148,0,2.178,0,3.615-1.024,7.457-.904,3.61-2.758,6.04-4.153,7.436-1.561,1.559-4.543,3.549-6.999,4.163-2.316.779-6.1.779-8.13.779-2.399,0-6.558-1.353-8.25-2.078-1.981-.85-5.7-3.357-7.96-5.364l3.138-3.53c1.977,1.757,5.327,3.972,6.683,4.555,1.559.668,5.006,1.698,6.39,1.698,1.639,0,5.049,0,6.81-.588,1.512-.386,3.757-1.75,4.98-2.974.973-.97,2.271-2.678,2.921-5.277.873-3.277.873-4.217.873-6.273,0-2.097-.479-5.205-.989-6.393-.58-1.539-1.286-2.711-2.477-4.139-1.037-1.245-2.168-2.135-3.365-2.647-1.485-.638-3.058-1.228-4.5-1.228h-6.376v-5.144l14.031-15.872h-21.587v-4.723h26.683v6.085l-13.195,14.928h.444c2.302,0,4.508.812,6.361,1.608,1.887.81,3.615,2.145,5.133,3.965,1.537,1.842,2.503,3.459,3.232,5.404l-.002.003Z" stroke="#000" stroke-miterlimit="10" stroke-width="2"/>
    </g>
    <g>
      <path d="M616.187,181.488v19.362h17.001v4.723h-17.001v26.21h30.933v4.723h-35.655v-59.74h35.655v4.723h-30.933Z" stroke="#000" stroke-miterlimit="10" stroke-width="2"/>
      <path d="M688.227,210.274c.654,3.257.363,6.066.257,6.857v19.431h-4.723l.034-19.986c.002-.016.385-2.491-.222-5.524-.378-2.796-1.355-4.789-3.018-6.244-1.235-1.079-3.592-1.775-6.002-1.775-2.042,0-4.128.746-5.871,2.102-3.601,3.034-5.463,7.192-5.463,12.302v19.127h-4.723v-19.127c0-.144.019-.277.021-.42l-.255.007s-.238-9.726-.238-12.81c0-1.554-.229-5.001-.229-5.036l4.711-.314c.01.148.241,3.639.241,5.351v.331c.864-1.105,1.849-2.14,2.966-3.082,2.64-2.054,5.751-3.151,8.84-3.151,3.597,0,7.001,1.102,9.109,2.946,2.525,2.21,4.062,5.244,4.565,9.02v-.002Z" stroke="#000" stroke-miterlimit="10" stroke-width="2"/>
      <path d="M733.994,235.826h-4.723v-1.181l-.038-4.444c-3.152,3.878-7.677,6.331-12.711,6.331-9.504,0-17.237-8.688-17.237-19.363s7.733-19.361,17.237-19.361c4.912,0,9.339,2.33,12.482,6.046l-.203-23.263,4.723-.042.472,55.274-.002.003ZM729.037,217.169c0-8.072-5.613-14.64-12.515-14.64s-12.515,6.567-12.515,14.64,5.616,14.641,12.515,14.641,12.515-6.566,12.515-14.641Z" stroke="#000" stroke-miterlimit="10" stroke-width="2"/>
      <path d="M831.486,198.489v16.293c0,3.232-.55,6.312-1.587,8.904-.984,2.718-2.52,5.152-4.534,7.169-1.523,1.785-3.473,3.188-5.684,4.038-2.177,1.071-4.401,1.612-6.614,1.612h-18.418v-59.977h18.418c2.441,0,4.718.543,6.958,1.665,2.316,1.159,4.177,2.583,5.698,4.354,1.507,1.5,2.874,3.776,4.177,7.037,1.075,2.951,1.584,5.842,1.584,8.904ZM826.763,198.489c0-2.536-.406-4.831-1.275-7.221-1.032-2.576-2.066-4.35-3.23-5.514-1.239-1.436-2.581-2.453-4.345-3.337-1.591-.796-3.131-1.166-4.845-1.166h-13.695v50.531h13.695c1.511,0,3.062-.395,4.612-1.169l.227-.099c1.525-.569,2.831-1.509,3.995-2.867,1.646-1.657,2.81-3.511,3.587-5.646.831-2.08,1.275-4.619,1.275-7.221v-16.293Z" stroke="#000" stroke-miterlimit="10" stroke-width="2"/>
      <path d="M874.949,218.105h-28.089c.269,8.593,5.428,13.695,13.922,13.695,4.25,0,7.277-.759,8.784-1.247,1.421-.701,2.189-.965,2.274-.994l.749,2.241.76,2.236c-.087.03-.697.255-1.83.821l-.307.127c-2.104.702-5.62,1.538-10.43,1.538-11.332,0-18.654-7.509-18.654-19.127,0-12.715,6.621-20.307,17.709-20.307,12.422,0,15.112,14.954,15.112,18.654v2.361ZM869.944,213.382c-.78-4.14-3.372-11.57-10.107-11.57-8.753,0-11.868,5.637-12.718,11.57h22.825Z" stroke="#000" stroke-miterlimit="10" stroke-width="2"/>
      <path d="M885.587,236.552v-55.254h4.722v55.254h-4.722Z" stroke="#000" stroke-miterlimit="10" stroke-width="2"/>
      <path d="M1511.92,190.041c.936,2.177,1.372,4.125,1.372,6.125,0,2.075-.475,4.273-1.372,6.363-.788,1.837-2.089,3.743-3.57,5.223-1.364,1.365-3.572,3.187-6.352,4.114-2.583,1.157-5.581,1.301-7.597,1.301h-13.456v23.377h-4.723v-57.616h17.945c2.841,0,5.32.516,7.809,1.621,2.558,1.14,4.643,2.535,6.376,4.267,1.48,1.479,2.781,3.383,3.57,5.226h-.003ZM1507.585,200.667c.647-1.507.99-3.063.99-4.501,0-1.358-.306-2.674-.99-4.265-.545-1.272-1.53-2.708-2.569-3.747-1.336-1.334-2.911-2.381-4.956-3.292-1.887-.839-3.702-1.212-5.889-1.212h-13.223v24.794h13.456c2.553,0,4.366-.3,5.89-.978,1.699-.579,3.299-1.632,4.72-3.053,1.041-1.041,2.026-2.475,2.569-3.747h.002Z" stroke="#000" stroke-miterlimit="10" stroke-width="2"/>
      <path d="M1534.449,200.2c2.571-1.429,5.162-1.429,7.67-1.429v4.723c-2.165,0-3.875,0-5.467.883-1.353.678-2.26,1.854-3.396,3.674-2.463,4.191-4.125,7.818-4.125,11.736v16.765h-4.723v-29.988c0-.973-.279-4.942-.465-7.374l4.708-.361c.04.555.373,4.881.459,6.965.037-.061.07-.127.107-.188,1.299-2.078,2.741-4.158,5.23-5.402v-.002Z" stroke="#000" stroke-miterlimit="10" stroke-width="2"/>
      <path d="M1585.629,218.105h-28.089c.269,8.593,5.428,13.695,13.922,13.695,4.25,0,7.277-.759,8.783-1.247,1.422-.701,2.189-.965,2.274-.994l.749,2.241.76,2.236c-.088.03-.697.255-1.83.821l-.307.127c-2.104.702-5.62,1.538-10.43,1.538-11.332,0-18.654-7.509-18.654-19.127,0-12.715,6.62-20.307,17.709-20.307,12.423,0,15.112,14.954,15.112,18.654v2.361ZM1580.624,213.382c-.78-4.14-3.372-11.57-10.107-11.57-8.753,0-11.867,5.637-12.718,11.57h22.825Z" stroke="#000" stroke-miterlimit="10" stroke-width="2"/>
      <path d="M1626.256,196.148v9.074l-24.348,31.304h-5.641v-40.378h4.722v33.865l20.544-26.411v-7.454h4.723Z" stroke="#000" stroke-miterlimit="10" stroke-width="2"/>
      <path d="M1673.774,178.841v57.665h-4.685l-27.429-48.583v48.543h-4.723v-57.379h5.157l26.956,47.745v-47.991h4.723Z" stroke="#000" stroke-miterlimit="10" stroke-width="2"/>
      <path d="M1717.238,218.105h-28.09c.269,8.593,5.429,13.695,13.922,13.695,4.25,0,7.277-.759,8.784-1.247,1.421-.701,2.188-.965,2.273-.994l.749,2.241.76,2.236c-.087.03-.696.255-1.83.821l-.307.127c-2.104.702-5.619,1.538-10.43,1.538-11.331,0-18.654-7.509-18.654-19.127,0-12.715,6.621-20.307,17.71-20.307,12.422,0,15.112,14.954,15.112,18.654v2.361ZM1712.232,213.382c-.779-4.14-3.372-11.57-10.106-11.57-8.754,0-11.868,5.637-12.719,11.57h22.825Z" stroke="#000" stroke-miterlimit="10" stroke-width="2"/>
      <path d="M1757.862,200.47l-12.11,17.319,12.11,17.32v1.452h-3.372l-.923.645-10.697-15.296-10.696,15.296-.923-.645h-3.375v-1.452l12.113-17.32-12.113-17.319v-1.452h3.375l.923-.646,10.696,15.297,10.697-15.297.923.646h3.372v1.452Z" stroke="#000" stroke-miterlimit="10" stroke-width="2"/>
      <path d="M1780.353,203.721v22.195c0,1.861.435,3.587,1.107,4.393.791.923,2.866,1.511,4.323,1.511,1.422,0,2.94-.555,2.956-.56l.395-.148h1.136v4.245l.123.326c-.023.009-.066.023-.123.045v.105h-.316c-.776.251-2.434.709-4.172.709-2.588,0-6.045-.985-7.932-3.186-2.005-2.408-2.22-6.004-2.22-7.44v-22.195h-7.084v-4.724h7.084v-10.39h4.723v10.39h10.626v4.724h-10.626Z" stroke="#000" stroke-miterlimit="10" stroke-width="2"/>
    </g>
  </g>
</svg>