<?xml version="1.0" encoding="UTF-8"?>
<svg xmlns="http://www.w3.org/2000/svg" width="2398.735" height="316.957" viewBox="0 0 2398.735 316.957">
  <g id="a" data-name="FTI_smoler_-_Light">
    <path d="M2036.585,182.24c-.134.321-.277.636-.418.953.142-.316.282-.634.418-.953Z"/>
    <path d="M541.469,258.71c2.894,16.247,17.67,29.167,33.673,28.864,14.143-.267,28.294-.047,42.442-.047,339.339.017,1128.665.08,1183.99-.012,20.9-.035,34.071-11.428,37.149-32.139.77-5.184.674-10.523.678-15.791.038-49.201.016-98.402-.006-147.603-.002-5.701.013-11.406-.201-17.101-.346-9.169-3.465-17.178-9.751-24.076-7.771-8.529-17.289-12.286-28.7-12.268-48.143.076-1128.831.206-1221.319-.115-20.364-.071-36.155,14.355-38.47,32.283-.511,3.959-.531,8-.534,12.003-.047,54.902-.073,109.805-.021,164.707.004,3.768.409,7.581,1.07,11.295ZM549.034,83.526c.004-4.207-.028-8.529.867-12.598,3.316-15.075,16.364-23.724,30.226-23.677,76.86.263,869.546.06,1189.027.082,10.558,0,21.117-.011,31.673.127,16.929.221,29.407,12.656,29.709,29.707.179,10.132.038,20.271.036,30.406-.006,46.244.06,92.487-.126,138.73-.02,4.958-.87,10.128-2.456,14.821-3.619,10.71-15.139,17.861-26.585,17.829-76.65-.216-153.3-.104-229.95-.103-127.328.002-254.656,0-381.984,0v.021c-200.177,0-400.354,0-600.531,0-3.378,0-6.783-.289-10.131.029-13.313,1.267-28.829-9.511-29.658-28.138-.103-2.319-.128-4.644-.129-6.966-.013-53.423-.036-106.846.011-160.269Z"/>
    <path d="M566.163,246.323c.001,1.897-.034,3.824.264,5.685.953,5.938,4.18,8.794,10.288,9.052,4.006.17,8.023.106,12.035.106,200.183.004,400.367.003,600.55.003v-.03c198.494,0,396.988,0,595.483-.001,5.701,0,11.405.078,17.104-.06,7.579-.184,10.626-3.083,11.442-10.648.158-1.465.179-2.95.18-4.426.011-54.48.016-108.96.003-163.441,0-2.532.018-5.087-.298-7.59-.714-5.653-4.931-9.545-10.567-9.894-2.104-.13-4.222-.046-6.334-.046-396.144.011-792.288.023-1188.432.034-9.714,0-19.428-.076-29.14.002-7.268.058-11.361,3.649-12.31,10.859-.384,2.916-.335,5.901-.335,8.854.005,53.847.031,107.693.067,161.54Z" fill="none" stroke="#000" stroke-miterlimit="10" stroke-width="10"/>
  </g>
  <g id="b" data-name="Send_x2F_Delete_Function_Menu_-_Light">
    <g>
      <rect x="572.087" y="83.278" width="1240.853" height="65.016" fill="none"/>
      <path d="M661.57,120.387c1.025,2.03,1.519,4.028,1.519,5.936,0,5.087-1.865,9.264-5.549,12.418-3.44,3.179-7.792,4.819-12.869,4.819h-.472c-4.787,0-9.197-1.702-13.108-5.055-3.055-2.586-3.95-4.869-4.6-6.536-.097-.243-.187-.478-.283-.701l4.34-1.863c.116.269.227.55.342.843.545,1.396,1.11,2.838,3.266,4.661,3.086,2.649,6.369,3.93,10.045,3.93h.473c3.905,0,7.091-1.186,9.73-3.625,2.728-2.338,3.965-5.143,3.965-8.891,0-1.161-.331-2.465-.933-3.667-.517-.848-1.268-1.967-2.267-2.633-1.147-.906-2.621-1.757-4.106-2.392-.963-.413-2.047-.746-3.304-1.131-.697-.215-1.424-.439-2.179-.689l-6.945-1.85c-3.743-1.149-6.441-2.881-8.337-5.317-2.057-2.643-3.098-5.75-3.098-9.242,0-4.318,1.792-8.023,5.322-11.013,3.355-3.099,7.164-4.574,11.917-4.574h.47c4.774.276,8.76,1.913,11.986,4.869,2.451,2.177,3.934,4.781,4.505,7.932l-4.649.841c-.385-2.128-1.315-3.752-3.02-5.269-2.43-2.227-5.438-3.449-8.961-3.657l-.333.005c-3.54,0-6.253,1.046-8.789,3.389-2.534,2.148-3.729,4.571-3.729,7.476,0,2.418.708,4.55,2.102,6.342,1.299,1.67,3.178,2.839,5.915,3.682l6.999,1.865c.857.278,1.547.491,2.208.694,1.332.408,2.585.793,3.783,1.306,1.882.806,3.714,1.87,5.032,2.924,1.611,1.064,2.744,2.715,3.618,4.172l-.005.003Z" stroke="#000" stroke-miterlimit="10" stroke-width="2"/>
      <path d="M678.487,88.745v19.362h17.001v4.723h-17.001v26.21h30.933v4.723h-35.655v-59.74h35.655v4.723h-30.933Z" stroke="#000" stroke-miterlimit="10" stroke-width="2"/>
      <path d="M756.93,86.098v57.665h-4.685l-27.429-48.583v48.543h-4.723v-57.379h5.157l26.956,47.745v-47.991h4.723Z" stroke="#000" stroke-miterlimit="10" stroke-width="2"/>
      <path d="M804.407,105.746v16.293c0,3.232-.55,6.312-1.587,8.904-.984,2.718-2.52,5.152-4.534,7.169-1.523,1.785-3.473,3.188-5.684,4.038-2.177,1.071-4.401,1.612-6.614,1.612h-18.418v-59.977h18.418c2.441,0,4.718.543,6.958,1.665,2.316,1.159,4.177,2.583,5.698,4.354,1.507,1.5,2.874,3.776,4.177,7.037,1.075,2.951,1.584,5.842,1.584,8.904ZM799.684,105.746c0-2.536-.406-4.831-1.275-7.221-1.032-2.576-2.066-4.35-3.23-5.514-1.239-1.436-2.581-2.453-4.345-3.337-1.591-.796-3.131-1.166-4.845-1.166h-13.695v50.531h13.695c1.511,0,3.062-.395,4.612-1.169l.227-.099c1.525-.569,2.831-1.509,3.995-2.867,1.646-1.657,2.81-3.511,3.587-5.646.831-2.08,1.275-4.619,1.275-7.221v-16.293Z" stroke="#000" stroke-miterlimit="10" stroke-width="2"/>
      <path d="M876.902,111.656l-.243,32.106-4.723-.035.134-17.93h-27.289v17.946h-4.723v-32.098l16.182-25.284h4.475l16.187,25.294ZM872.106,121.073l.062-8.055-13.691-21.391-13.695,21.397v8.048h27.325Z" stroke="#000" stroke-miterlimit="10" stroke-width="2"/>
      <path d="M924.372,86.098v57.665h-4.685l-27.429-48.583v48.543h-4.723v-57.379h5.157l26.956,47.745v-47.991h4.723Z" stroke="#000" stroke-miterlimit="10" stroke-width="2"/>
      <path d="M971.849,105.746v16.293c0,3.232-.55,6.312-1.587,8.904-.984,2.718-2.52,5.152-4.534,7.169-1.523,1.785-3.473,3.188-5.684,4.038-2.177,1.071-4.401,1.612-6.614,1.612h-18.418v-59.977h18.418c2.441,0,4.718.543,6.958,1.665,2.316,1.159,4.177,2.583,5.698,4.354,1.507,1.5,2.874,3.776,4.177,7.037,1.075,2.951,1.584,5.842,1.584,8.904ZM967.127,105.746c0-2.536-.406-4.831-1.275-7.221-1.032-2.576-2.066-4.35-3.23-5.514-1.239-1.436-2.581-2.453-4.345-3.337-1.591-.796-3.131-1.166-4.845-1.166h-13.695v50.531h13.695c1.511,0,3.062-.395,4.612-1.169l.227-.099c1.525-.569,2.831-1.509,3.995-2.867,1.646-1.657,2.81-3.511,3.587-5.646.831-2.08,1.275-4.619,1.275-7.221v-16.293Z" stroke="#000" stroke-miterlimit="10" stroke-width="2"/>
      <path d="M1069.346,105.746v16.293c0,3.232-.55,6.312-1.587,8.904-.984,2.718-2.52,5.152-4.534,7.169-1.523,1.785-3.473,3.188-5.684,4.038-2.177,1.071-4.401,1.612-6.614,1.612h-18.418v-59.977h18.418c2.441,0,4.718.543,6.958,1.665,2.316,1.159,4.177,2.583,5.698,4.354,1.507,1.5,2.874,3.776,4.177,7.037,1.075,2.951,1.584,5.842,1.584,8.904ZM1064.623,105.746c0-2.536-.406-4.831-1.275-7.221-1.032-2.576-2.066-4.35-3.23-5.514-1.239-1.436-2.581-2.453-4.345-3.337-1.591-.796-3.131-1.166-4.845-1.166h-13.695v50.531h13.695c1.511,0,3.062-.395,4.612-1.169l.227-.099c1.525-.569,2.831-1.509,3.995-2.867,1.646-1.657,2.81-3.511,3.587-5.646.831-2.08,1.275-4.619,1.275-7.221v-16.293Z" stroke="#000" stroke-miterlimit="10" stroke-width="2"/>
      <path d="M1084.71,88.745v19.362h17.001v4.723h-17.001v26.21h30.933v4.723h-35.655v-59.74h35.655v4.723h-30.933Z" stroke="#000" stroke-miterlimit="10" stroke-width="2"/>
      <path d="M1162.208,139.308v4.723h-35.892v-57.38h4.723v52.657h31.169Z" stroke="#000" stroke-miterlimit="10" stroke-width="2"/>
      <path d="M1177.615,88.745v19.362h17.001v4.723h-17.001v26.21h30.933v4.723h-35.656v-59.74h35.656v4.723h-30.933Z" stroke="#000" stroke-miterlimit="10" stroke-width="2"/>
      <path d="M1253.696,91.226h-14.875v52.657h-4.723v-52.657h-14.877v-4.723h34.475v4.723Z" stroke="#000" stroke-miterlimit="10" stroke-width="2"/>
      <path d="M1269.043,88.745v19.362h17.002v4.723h-17.002v26.21h30.934v4.723h-35.656v-59.74h35.656v4.723h-30.934Z" stroke="#000" stroke-miterlimit="10" stroke-width="2"/>
      <path d="M1310.649,110.837c0-2.738,2.115-4.958,4.723-4.958s4.723,2.22,4.723,4.958-2.114,4.959-4.723,4.959-4.723-2.22-4.723-4.959ZM1310.649,138.464c0-2.738,2.115-4.958,4.723-4.958s4.723,2.22,4.723,4.958-2.114,4.959-4.723,4.959-4.723-2.22-4.723-4.959Z" stroke="#000" stroke-miterlimit="10" stroke-width="2"/>
      <path d="M1517.871,90.034l-16.294,21.96v31.807h-4.723v-31.815l-16.057-21.959v-1.243h3.009l1.261-.921,14.163,19.371,14.383-19.386,1.259.936h2.999v1.251Z" stroke="#000" stroke-miterlimit="10" stroke-width="2"/>
      <path d="M1533.243,88.745v19.362h17.002v4.723h-17.002v26.21h30.934v4.723h-35.656v-59.74h35.656v4.723h-30.934Z" stroke="#000" stroke-miterlimit="10" stroke-width="2"/>
      <path d="M1610.215,120.387c1.025,2.03,1.519,4.028,1.519,5.936,0,5.087-1.865,9.264-5.549,12.418-3.44,3.179-7.793,4.819-12.869,4.819h-.473c-4.786,0-9.197-1.702-13.107-5.055-3.056-2.586-3.95-4.869-4.6-6.536-.097-.243-.187-.478-.283-.701l4.34-1.863c.116.269.227.55.343.843.545,1.396,1.109,2.838,3.266,4.661,3.086,2.649,6.368,3.93,10.045,3.93h.472c3.906,0,7.091-1.186,9.731-3.625,2.727-2.338,3.964-5.143,3.964-8.891,0-1.161-.33-2.465-.933-3.667-.517-.848-1.268-1.967-2.267-2.633-1.147-.906-2.621-1.757-4.106-2.392-.963-.413-2.047-.746-3.303-1.131-.697-.215-1.424-.439-2.18-.689l-6.944-1.85c-3.743-1.149-6.442-2.881-8.338-5.317-2.057-2.643-3.099-5.75-3.099-9.242,0-4.318,1.793-8.023,5.322-11.013,3.355-3.099,7.165-4.574,11.918-4.574h.47c4.774.276,8.761,1.913,11.986,4.869,2.45,2.177,3.934,4.781,4.505,7.932l-4.649.841c-.385-2.128-1.315-3.752-3.02-5.269-2.431-2.227-5.438-3.449-8.962-3.657l-.333.005c-3.539,0-6.252,1.046-8.788,3.389-2.534,2.148-3.729,4.571-3.729,7.476,0,2.418.708,4.55,2.102,6.342,1.299,1.67,3.178,2.839,5.915,3.682l6.999,1.865c.856.278,1.546.491,2.207.694,1.332.408,2.586.793,3.783,1.306,1.882.806,3.714,1.87,5.032,2.924,1.61,1.064,2.743,2.715,3.617,4.172l-.005.003Z" stroke="#000" stroke-miterlimit="10" stroke-width="2"/>
    </g>
    <g>
      <rect x="590.87" y="171.54" width="1222.023" height="65.016" fill="none"/>
      <path d="M628.39,177.008v19.362h17.001v4.723h-17.001v26.21h30.933v4.723h-35.655v-59.74h35.655v4.723h-30.933Z" stroke="#000" stroke-miterlimit="10" stroke-width="2"/>
      <path d="M700.43,205.793c.654,3.257.363,6.066.257,6.857v19.431h-4.723l.034-19.986c.002-.016.385-2.491-.222-5.524-.378-2.796-1.355-4.789-3.018-6.244-1.235-1.079-3.592-1.775-6.002-1.775-2.042,0-4.128.746-5.871,2.102-3.601,3.034-5.463,7.192-5.463,12.302v19.127h-4.723v-19.127c0-.144.019-.277.021-.42l-.255.007s-.238-9.726-.238-12.81c0-1.554-.229-5.001-.229-5.036l4.711-.314c.01.148.241,3.639.241,5.351v.331c.864-1.105,1.849-2.14,2.966-3.082,2.64-2.054,5.751-3.151,8.84-3.151,3.597,0,7.001,1.102,9.109,2.946,2.525,2.21,4.062,5.244,4.565,9.02v-.002Z" stroke="#000" stroke-miterlimit="10" stroke-width="2"/>
      <path d="M746.196,231.346h-4.723v-1.181l-.038-4.444c-3.152,3.878-7.677,6.331-12.711,6.331-9.504,0-17.237-8.688-17.237-19.363s7.733-19.361,17.237-19.361c4.912,0,9.339,2.33,12.482,6.046l-.203-23.263,4.723-.042.472,55.274-.002.003ZM741.24,212.689c0-8.072-5.613-14.64-12.515-14.64s-12.515,6.567-12.515,14.64,5.616,14.641,12.515,14.641,12.515-6.566,12.515-14.641Z" stroke="#000" stroke-miterlimit="10" stroke-width="2"/>
      <path d="M1045.224,208.665c.699,1.852,1.372,4.08,1.372,7.304,0,3.339-.361,5.735-1.136,7.542-.923,2.468-2.158,4.26-3.735,5.386-1.471,1.394-3.45,2.293-5.754,2.614-1.906.515-3.736.515-5.667.515h-22.904v-28.774l-.472-.473v-30.966h22.43c1.948,0,3.839.288,5.469.829,1.958.557,3.965,1.724,5.41,3.169,1.479,1.478,2.782,3.381,3.57,5.223.699,1.861,1.372,4.09,1.372,7.309,0,3.186-.347,5.596-1.062,7.364-.569,2.111-1.863,4.145-3.497,5.493-.321.313-.666.588-1.016.848.612.42,1.178.848,1.658,1.246,1.646,1.37,3.088,3.327,3.965,5.37v.002ZM1011.649,176.535v22.899h18.656c.688,0,1.379.076,2.069.149.529-.053,1.022-.125,1.436-.263l.453-.102c1.311-.163,2.27-.611,3.11-1.452l.196-.175c.699-.56,1.648-1.737,2.016-3.213l.121-.359c.5-1.164.753-3.074.753-5.679,0-2.458-.496-4.121-1.032-5.549-.505-1.169-1.49-2.604-2.529-3.644-.883-.884-2.179-1.63-3.466-1.998-1.232-.408-2.647-.616-4.073-.616h-17.709ZM1041.078,221.754c.541-1.266.793-3.179.793-5.783,0-2.46-.494-4.118-1.03-5.544-.55-1.28-1.516-2.593-2.607-3.502-1.417-1.181-2.5-1.82-3.622-2.142-.706-.203-1.415-.352-2.123-.456-.937.071-1.9.073-2.895.073h-17.474v22.905h18.182c1.792,0,3.211,0,4.546-.383l.356-.073c1.417-.177,2.574-.681,3.346-1.452l.359-.295c.819-.546,1.528-1.642,2.168-3.352v.003Z" stroke="#000" stroke-miterlimit="10" stroke-width="2"/>
      <path d="M1086.61,230.188h-4.722v-.144c-.257-.481-.439-.973-.555-1.879-2.099,2.035-4.736,3.372-7.794,3.882-.574.065-1.133.099-1.686.099-2.371,0-4.636-.606-7.493-1.938-1.334-.659-4.399-2.179-6.104-5.872-1.546-3.71-.864-7.192-.618-8.175,1.039-5.75,5.45-8.644,7.109-9.731l.246-.16c.64-.484,1.346-.811,1.915-1.072.248-.113.484-.21.685-.345l.461-.24c3.249-1.25,7.447-1.861,12.774-1.854-.326-1.629-1.297-2.986-1.557-3.246l-.172-.193c-1.376-1.723-3.112-2.293-3.764-2.508-1.783-.487-3.615-.478-5.922.032-1.887.378-3.455.914-4.713,1.344l-.72.246c-.392.158-.805.368-1.168.55-.524.264-.978.481-1.428.631l-1.495-4.479c.257-.086.51-.225.81-.373.465-.231.994-.496,1.657-.761l.817-.281c1.391-.475,3.119-1.065,5.264-1.495,1.873-.413,4.814-.875,8.168.038,1.114.364,3.867,1.271,6.108,4.02.944,1.003,2.647,3.559,2.942,6.781l.005,1.867h.005c0,.163.014.501.033.977.115,2.887.179,6.016.065,8.972.01.582.019,1.192.031,1.76.054,2.819.105,5.459.105,7.892,0,2.635.133,3.221.159,3.312.179.303.39.725.517,1.492l.033.862.002-.008ZM1072.892,227.376c2.848-.479,5.164-2.021,6.757-4.571.503-.776,1.188-2.792,1.391-8.045-.043-2.323-.078-4.742-.087-7.278-4.593-.102-8.329.48-11.003,1.465-.328.196-.685.365-1.065.54-.438.204-.821.378-1.166.639l-.383.256c-1.421.931-4.375,2.87-5.086,6.775-.099.422-.667,2.886.329,5.282.973,2.1,2.812,3.011,3.698,3.45,3.209,1.499,4.899,1.674,6.614,1.487h.002Z" stroke="#000" stroke-miterlimit="10" stroke-width="2"/>
      <path d="M1125.139,225.39l1.917,4.316-1.305.578c-1.094,1.66-4.298,1.75-9.807,1.75-11.332,0-18.654-7.602-18.654-19.362,0-12.005,8.066-20.071,20.071-20.071,2.597,0,6.175.446,7.668,1.195.855.427,1.922.854,1.946.864l-1.757,4.382s-1.28-.515-2.302-1.024c-.543-.243-3.077-.696-5.556-.696-9.325,0-15.349,6.023-15.349,15.348,0,9.167,5.209,14.641,13.932,14.641,3.667,0,5.341-.137,6.084-.241.335-.408.775-.677,1.195-.819l1.915-.861v.002Z" stroke="#000" stroke-miterlimit="10" stroke-width="2"/>
      <path d="M1166.051,230.832v1.485h-3.325l-.938.692-14.084-19.132-5.266,5.672v12.531h-4.722v-55.018h4.722v35.544l17.396-18.734.713.664h3.378v1.872l-12.951,13.948,15.077,20.475Z" stroke="#000" stroke-miterlimit="10" stroke-width="2"/>
      <path d="M1237.122,208.65c1.024,2.03,1.518,4.028,1.518,5.936,0,5.087-1.865,9.264-5.549,12.418-3.44,3.179-7.792,4.819-12.869,4.819h-.472c-4.786,0-9.197-1.702-13.107-5.055-3.056-2.586-3.951-4.869-4.6-6.536-.098-.243-.188-.478-.284-.701l4.341-1.863c.115.269.227.55.342.843.546,1.396,1.11,2.838,3.266,4.661,3.086,2.649,6.368,3.93,10.045,3.93h.473c3.905,0,7.091-1.186,9.73-3.625,2.728-2.338,3.965-5.143,3.965-8.891,0-1.161-.331-2.465-.933-3.667-.518-.848-1.269-1.967-2.267-2.633-1.148-.906-2.621-1.757-4.106-2.392-.964-.413-2.048-.746-3.304-1.131-.696-.215-1.424-.439-2.18-.689l-6.944-1.85c-3.742-1.149-6.441-2.881-8.338-5.317-2.057-2.643-3.098-5.75-3.098-9.242,0-4.318,1.792-8.023,5.322-11.013,3.355-3.099,7.164-4.574,11.917-4.574h.471c4.774.276,8.76,1.913,11.985,4.869,2.451,2.177,3.934,4.781,4.506,7.932l-4.649.841c-.385-2.128-1.315-3.752-3.021-5.269-2.43-2.227-5.438-3.449-8.961-3.657l-.333.005c-3.54,0-6.253,1.046-8.789,3.389-2.533,2.148-3.729,4.571-3.729,7.476,0,2.418.709,4.55,2.102,6.342,1.299,1.67,3.179,2.839,5.915,3.682l6.999,1.865c.857.278,1.547.491,2.208.694,1.332.408,2.586.793,3.783,1.306,1.882.806,3.714,1.87,5.031,2.924,1.61,1.064,2.744,2.715,3.618,4.172l-.005.003Z" stroke="#000" stroke-miterlimit="10" stroke-width="2"/>
      <path d="M1282.138,213.624h-28.09c.27,8.593,5.429,13.695,13.922,13.695,4.251,0,7.278-.759,8.784-1.247,1.421-.701,2.188-.965,2.274-.994l.748,2.241.761,2.236c-.088.03-.697.255-1.83.821l-.308.127c-2.104.702-5.619,1.538-10.43,1.538-11.331,0-18.654-7.509-18.654-19.127,0-12.715,6.621-20.307,17.71-20.307,12.423,0,15.112,14.954,15.112,18.654v2.361ZM1277.132,208.902c-.779-4.14-3.371-11.57-10.106-11.57-8.754,0-11.868,5.637-12.718,11.57h22.824Z" stroke="#000" stroke-miterlimit="10" stroke-width="2"/>
      <path d="M1304.583,199.24v22.195c0,1.861.435,3.587,1.107,4.393.791.923,2.866,1.511,4.324,1.511,1.422,0,2.939-.555,2.956-.56l.394-.148h1.136v4.245l.123.326c-.023.009-.066.023-.123.045v.105h-.316c-.776.251-2.434.709-4.172.709-2.588,0-6.045-.985-7.931-3.186-2.005-2.408-2.22-6.004-2.22-7.44v-22.195h-7.085v-4.724h7.085v-10.39h4.722v10.39h10.626v4.724h-10.626Z" stroke="#000" stroke-miterlimit="10" stroke-width="2"/>
      <path d="M1662.857,174.361v57.665h-4.686l-27.429-48.583v48.543h-4.723v-57.379h5.157l26.957,47.745v-47.991h4.723Z" stroke="#000" stroke-miterlimit="10" stroke-width="2"/>
      <path d="M1706.32,213.624h-28.09c.27,8.593,5.429,13.695,13.922,13.695,4.251,0,7.278-.759,8.784-1.247,1.421-.701,2.188-.965,2.274-.994l.748,2.241.761,2.236c-.088.03-.697.255-1.83.821l-.308.127c-2.104.702-5.619,1.538-10.43,1.538-11.331,0-18.654-7.509-18.654-19.127,0-12.715,6.621-20.307,17.71-20.307,12.423,0,15.112,14.954,15.112,18.654v2.361ZM1701.314,208.902c-.779-4.14-3.371-11.57-10.106-11.57-8.753,0-11.868,5.637-12.718,11.57h22.824Z" stroke="#000" stroke-miterlimit="10" stroke-width="2"/>
      <path d="M1746.944,195.989l-12.11,17.319,12.11,17.32v1.452h-3.372l-.923.645-10.697-15.296-10.696,15.296-.923-.645h-3.375v-1.452l12.113-17.32-12.113-17.319v-1.452h3.375l.923-.646,10.696,15.297,10.697-15.297.923.646h3.372v1.452Z" stroke="#000" stroke-miterlimit="10" stroke-width="2"/>
      <path d="M1769.435,199.24v22.195c0,1.861.435,3.587,1.107,4.393.791.923,2.866,1.511,4.324,1.511,1.422,0,2.939-.555,2.956-.56l.394-.148h1.136v4.245l.123.326c-.023.009-.066.023-.123.045v.105h-.316c-.776.251-2.434.709-4.172.709-2.588,0-6.045-.985-7.931-3.186-2.006-2.408-2.221-6.004-2.221-7.44v-22.195h-7.084v-4.724h7.084v-10.39h4.723v10.39h10.626v4.724h-10.626Z" stroke="#000" stroke-miterlimit="10" stroke-width="2"/>
    </g>
  </g>
</svg>