<?xml version="1.0" encoding="UTF-8"?>
<svg id="b" data-name="SHOOT_CUE__-_Light" xmlns="http://www.w3.org/2000/svg" width="2061.538" height="202.972" viewBox="0 0 2061.538 202.972">
  <path id="c" data-name="TargetDesignatorUnknownHooked" d="M1042.684,159.146h-71.481v-71.481h71.481v71.481ZM1042.684,159.146l19.257,19.257M971.203,87.665l-19.257-19.257M1042.684,87.665l19.257-19.257M971.203,159.146l-19.257,19.257" fill="none" stroke="#000" stroke-linecap="square" stroke-miterlimit="15.1" stroke-width="6"/>
  <path d="M1112.754,142.636c1.667.105,2.997,1.456,2.997,3.149,0,1.76-1.427,3.187-3.188,3.187h-5.951c-1.761,0-3.188-1.427-3.188-3.187,0-1.68,1.309-3.014,2.955-3.141v-28.576c-.52-.241-.992-.592-1.33-1.106-.966-1.469-.561-3.448.908-4.415l1.857-1.225c.08-.055.177-.059.262-.105.186-.102.375-.173.582-.236.215-.067.418-.113.638-.131.093-.008.173-.055.27-.055.105,0,.194.051.3.059.22.021.431.064.642.131.194.064.372.136.545.229.177.093.338.203.498.334.173.139.316.291.456.459.067.085.16.131.219.225.056.08.06.177.105.262.102.186.174.379.237.586.062.211.109.414.126.629.009.098.055.178.055.275v32.649l.005.004Z"/>
  <g>
    <path d="M947.006,36.544c2.043,2.047,3.17,4.761,3.17,7.657v1.941c0,3.36-1.608,6.581-4.305,8.62l-.954.684c-1.836,1.351-4.128,2.115-6.416,2.115h-7.049c-2.119,0-4.183-.621-5.968-1.794l-2.55-1.692c-1.469-.979-1.861-2.955-.891-4.419.979-1.469,2.955-1.857,4.419-.891l2.537,1.684c.717.477,1.595.739,2.457.739h7.049c.937,0,1.882-.317,2.667-.899l.924-.663c1.042-.785,1.706-2.11,1.706-3.482v-1.941c0-1.19-.469-2.305-1.309-3.149-.84-.844-1.958-1.309-3.145-1.309h-8.568c-2.892,0-5.614-1.127-7.657-3.166-2.043-2.051-3.17-4.77-3.17-7.657v-2.617c0-2.891,1.127-5.61,3.17-7.657,2.043-2.043,4.762-3.17,7.657-3.17h7.936c2.148,0,4.221.62,5.99,1.798l2.532,1.693c1.465.975,1.857,2.959.882,4.419s-2.946,1.87-4.419.878l-2.533-1.688c-.717-.477-1.566-.73-2.452-.73h-7.936c-1.19,0-2.313.464-3.149,1.305-.844.844-1.309,1.967-1.309,3.153v2.617c0,1.186.469,2.309,1.309,3.153.835.84,1.958,1.3,3.149,1.3h8.568c2.887,0,5.606,1.127,7.653,3.17h.004Z"/>
    <path d="M986.698,18.622v35.71c0,1.76-1.427,3.187-3.187,3.187s-3.187-1.427-3.187-3.187v-14.668h-17.433v14.668c0,1.76-1.427,3.187-3.187,3.187s-3.187-1.427-3.187-3.187V18.622c0-1.76,1.427-3.187,3.187-3.187s3.187,1.427,3.187,3.187v14.672h17.433v-14.672c0-1.76,1.427-3.187,3.187-3.187s3.187,1.427,3.187,3.187Z"/>
    <path d="M1023.195,23.476v26.044c0,4.437-3.904,8.041-8.712,8.041h-12.751c-4.804,0-8.712-3.604-8.712-8.041v-26.044c0-4.436,3.904-8.041,8.712-8.041h12.751c4.804,0,8.712,3.605,8.712,8.041ZM1016.825,23.476c0-.907-1.072-1.671-2.343-1.671h-12.751c-1.342,0-2.343.882-2.343,1.671v26.044c0,.891,1.093,1.671,2.343,1.671h12.751c1.342,0,2.343-.882,2.343-1.671v-26.044Z"/>
    <path d="M1059.696,23.476v26.044c0,4.437-3.904,8.041-8.712,8.041h-12.752c-4.803,0-8.712-3.604-8.712-8.041v-26.044c0-4.436,3.904-8.041,8.712-8.041h12.752c4.804,0,8.712,3.605,8.712,8.041ZM1053.327,23.476c0-.907-1.072-1.671-2.343-1.671h-12.752c-1.342,0-2.343.882-2.343,1.671v26.044c0,.891,1.094,1.671,2.343,1.671h12.752c1.342,0,2.343-.882,2.343-1.671v-26.044Z"/>
    <path d="M1093.018,15.435c1.76,0,3.187,1.427,3.187,3.187s-1.427,3.187-3.187,3.187h-8.717v32.523c0,1.76-1.427,3.187-3.187,3.187s-3.188-1.427-3.188-3.187V21.809h-8.716c-1.761,0-3.188-1.427-3.188-3.187s1.427-3.187,3.188-3.187h23.807Z"/>
  </g>
</svg>