<?xml version="1.0" encoding="UTF-8"?>
<svg xmlns="http://www.w3.org/2000/svg" width="2143.968" height="1541.908" viewBox="0 0 2143.968 1541.908">
  <g id="CDNU_-_Light">
    <path d="M1400.924,1377.088l-1222.305.984c-5.445.004-9.861-4.411-9.856-9.857l.667-725.918c.005-5.432,4.408-9.834,9.84-9.839l1222.305-.984c5.445-.004,9.861,4.411,9.856,9.857l-.667,725.918c-.005,5.432-4.408,9.834-9.84,9.839Z" fill="none" stroke="#000" stroke-miterlimit="10" stroke-width="11"/>
    <polyline points="782.438 1376.207 1328.938 1376.706 1328.938 1127.129 1403.938 1127.129 1403.938 801.052 1328.938 801.052 1328.938 633.466 249.438 633.466 249.438 805.739 171.221 805.739 171.221 1126.63 249.438 1126.63 249.438 1376.207 782.438 1376.207" fill="none" stroke="#000" stroke-miterlimit="10" stroke-width="8"/>
    <rect x="422.438" y="673.466" width="735" height="553" rx="13.681" ry="13.681" fill="none" stroke="#000" stroke-miterlimit="10" stroke-width="5"/>
    <rect x="411.438" y="659.466" width="760" height="580" rx="18.29" ry="18.29" fill="none" stroke="#000" stroke-miterlimit="10" stroke-width="5"/>
    <g>
      <rect x="264.438" y="674.466" width="137" height="81" fill="none" stroke="#000" stroke-miterlimit="10" stroke-width="5"/>
      <polygon points="384.437 714.716 357.07 687.216 357.07 704.216 281.938 704.216 281.938 725.216 357.07 725.216 357.07 742.216 384.437 714.716" stroke="#000" stroke-miterlimit="10"/>
    </g>
    <g>
      <rect x="264.59" y="801.314" width="137" height="81" fill="none" stroke="#000" stroke-miterlimit="10" stroke-width="5"/>
      <polygon points="384.59 841.564 357.223 814.064 357.223 831.064 282.09 831.064 282.09 852.064 357.223 852.064 357.223 869.064 384.59 841.564" stroke="#000" stroke-miterlimit="10"/>
    </g>
    <g>
      <rect x="264.59" y="928.314" width="137" height="81" fill="none" stroke="#000" stroke-miterlimit="10" stroke-width="5"/>
      <polygon points="384.59 968.564 357.223 941.064 357.223 958.064 282.09 958.064 282.09 979.064 357.223 979.064 357.223 996.064 384.59 968.564" stroke="#000" stroke-miterlimit="10"/>
    </g>
    <g>
      <rect x="264.416" y="1052.749" width="137" height="81" fill="none" stroke="#000" stroke-miterlimit="10" stroke-width="5"/>
      <polygon points="384.416 1092.999 357.049 1065.499 357.049 1082.499 281.916 1082.499 281.916 1103.498 357.049 1103.498 357.049 1120.499 384.416 1092.999" stroke="#000" stroke-miterlimit="10"/>
    </g>
    <g>
      <rect x="1179.569" y="674.466" width="137" height="81" transform="translate(2496.137 1429.933) rotate(-180)" fill="none" stroke="#000" stroke-miterlimit="10" stroke-width="5"/>
      <polygon points="1196.569 714.716 1223.936 687.216 1223.936 704.216 1299.069 704.216 1299.069 725.216 1223.936 725.216 1223.936 742.216 1196.569 714.716" stroke="#000" stroke-miterlimit="10"/>
    </g>
    <g>
      <rect x="1179.416" y="801.314" width="137" height="81" transform="translate(2495.833 1683.628) rotate(-180)" fill="none" stroke="#000" stroke-miterlimit="10" stroke-width="5"/>
      <polygon points="1196.417 841.564 1223.784 814.064 1223.784 831.064 1298.917 831.064 1298.917 852.064 1223.784 852.064 1223.784 869.064 1196.417 841.564" stroke="#000" stroke-miterlimit="10"/>
    </g>
    <g>
      <rect x="1179.416" y="928.314" width="137" height="81" transform="translate(2495.833 1937.628) rotate(-180)" fill="none" stroke="#000" stroke-miterlimit="10" stroke-width="5"/>
      <polygon points="1196.417 968.564 1223.784 941.064 1223.784 958.064 1298.917 958.064 1298.917 979.064 1223.784 979.064 1223.784 996.064 1196.417 968.564" stroke="#000" stroke-miterlimit="10"/>
    </g>
    <g>
      <rect x="1179.59" y="1052.749" width="137" height="81" transform="translate(2496.181 2186.498) rotate(-180)" fill="none" stroke="#000" stroke-miterlimit="10" stroke-width="5"/>
      <polygon points="1196.591 1092.999 1223.958 1065.499 1223.958 1082.499 1299.091 1082.499 1299.091 1103.498 1223.958 1103.498 1223.958 1120.499 1196.591 1092.999" stroke="#000" stroke-miterlimit="10"/>
    </g>
    <circle cx="353.438" cy="1209.466" r="30.5" fill="none" stroke="#000" stroke-miterlimit="10" stroke-width="5"/>
    <circle cx="1236.438" cy="1209.466" r="30.5" fill="none" stroke="#000" stroke-miterlimit="10" stroke-width="5"/>
    <rect x="312.938" y="1265.921" width="83" height="91" fill="none" stroke="#000" stroke-miterlimit="10" stroke-width="5"/>
    <rect x="304.938" y="1256.421" width="101" height="110" rx="9.778" ry="9.778" fill="none" stroke="#000" stroke-miterlimit="10" stroke-width="5"/>
    <rect x="436.938" y="1265.921" width="83" height="91" fill="none" stroke="#000" stroke-miterlimit="10" stroke-width="5"/>
    <rect x="428.938" y="1256.421" width="101" height="110" rx="9.778" ry="9.778" fill="none" stroke="#000" stroke-miterlimit="10" stroke-width="5"/>
    <rect x="560.938" y="1265.921" width="83" height="91" fill="none" stroke="#000" stroke-miterlimit="10" stroke-width="5"/>
    <rect x="552.938" y="1256.421" width="101" height="110" rx="9.778" ry="9.778" fill="none" stroke="#000" stroke-miterlimit="10" stroke-width="5"/>
    <rect x="684.938" y="1265.921" width="83" height="91" fill="none" stroke="#000" stroke-miterlimit="10" stroke-width="5"/>
    <rect x="676.938" y="1256.421" width="101" height="110" rx="9.778" ry="9.778" fill="none" stroke="#000" stroke-miterlimit="10" stroke-width="5"/>
    <rect x="806.938" y="1265.921" width="83" height="91" fill="none" stroke="#000" stroke-miterlimit="10" stroke-width="5"/>
    <rect x="798.938" y="1256.421" width="101" height="110" rx="9.778" ry="9.778" fill="none" stroke="#000" stroke-miterlimit="10" stroke-width="5"/>
    <rect x="933.938" y="1265.921" width="83" height="91" fill="none" stroke="#000" stroke-miterlimit="10" stroke-width="5"/>
    <rect x="925.938" y="1256.421" width="101" height="110" rx="9.778" ry="9.778" fill="none" stroke="#000" stroke-miterlimit="10" stroke-width="5"/>
    <rect x="1053.938" y="1265.921" width="83" height="91" fill="none" stroke="#000" stroke-miterlimit="10" stroke-width="5"/>
    <rect x="1045.938" y="1256.421" width="101" height="110" rx="9.778" ry="9.778" fill="none" stroke="#000" stroke-miterlimit="10" stroke-width="5"/>
    <rect x="1178.938" y="1265.921" width="83" height="91" fill="none" stroke="#000" stroke-miterlimit="10" stroke-width="5"/>
    <rect x="1170.938" y="1256.421" width="101" height="110" rx="9.778" ry="9.778" fill="none" stroke="#000" stroke-miterlimit="10" stroke-width="5"/>
    <circle cx="210.438" cy="738.466" r="34.5" fill="none" stroke="#000" stroke-miterlimit="10" stroke-width="3.5"/>
    <circle cx="210.438" cy="738.466" r="27.5" fill="none" stroke="#000" stroke-miterlimit="10" stroke-width="3.5"/>
    <circle cx="210.938" cy="1191.966" r="34.5" fill="none" stroke="#000" stroke-miterlimit="10" stroke-width="3.5"/>
    <circle cx="210.938" cy="1191.966" r="27.5" fill="none" stroke="#000" stroke-miterlimit="10" stroke-width="3.5"/>
    <circle cx="210.938" cy="1310.966" r="34.5" fill="none" stroke="#000" stroke-miterlimit="10" stroke-width="3.5"/>
    <circle cx="210.938" cy="1310.966" r="27.5" fill="none" stroke="#000" stroke-miterlimit="10" stroke-width="3.5"/>
    <circle cx="1369.938" cy="738.466" r="34.5" fill="none" stroke="#000" stroke-miterlimit="10" stroke-width="3.5"/>
    <circle cx="1369.938" cy="738.466" r="27.5" fill="none" stroke="#000" stroke-miterlimit="10" stroke-width="3.5"/>
    <circle cx="1369.438" cy="1191.966" r="34.5" fill="none" stroke="#000" stroke-miterlimit="10" stroke-width="3.5"/>
    <circle cx="1369.438" cy="1191.966" r="27.5" fill="none" stroke="#000" stroke-miterlimit="10" stroke-width="3.5"/>
    <circle cx="1369.438" cy="1310.966" r="34.5" fill="none" stroke="#000" stroke-miterlimit="10" stroke-width="3.5"/>
    <circle cx="1369.438" cy="1310.966" r="27.5" fill="none" stroke="#000" stroke-miterlimit="10" stroke-width="3.5"/>
    <g>
      <rect x="319.261" y="1278.131" width="66.913" height="64.957" fill="none"/>
      <path d="M333.176,1292.501h6.823v36.208h-6.823v-36.208ZM335.666,1292.501h21.292v6.574h-21.292v-6.574ZM335.666,1307.765h18.552v6.574h-18.552v-6.574Z" stroke="#000" stroke-miterlimit="10"/>
      <path d="M372.26,1328.709h-6.823v-28.189l-4.408,1.668v-7.246l5.404-2.44h5.827v36.208Z" stroke="#000" stroke-miterlimit="10"/>
    </g>
    <g>
      <rect x="443.261" y="1278.131" width="66.913" height="64.957" fill="none"/>
      <path d="M452.482,1292.501h6.823v36.208h-6.823v-36.208ZM454.972,1292.501h21.292v6.574h-21.292v-6.574ZM454.972,1307.765h18.552v6.574h-18.552v-6.574Z" stroke="#000" stroke-miterlimit="10"/>
      <path d="M481.281,1322.558l12.426-16.336c.564-.73,1-1.482,1.307-2.254.307-.772.461-1.49.461-2.154v-.05c0-.979-.315-1.734-.946-2.267-.631-.53-1.528-.797-2.689-.797-1.129,0-2.042.37-2.739,1.108-.697.739-1.121,1.789-1.27,3.15v.024h-6.998v-.024c.149-2.258.693-4.2,1.631-5.827s2.204-2.867,3.798-3.723,3.437-1.283,5.528-1.283c2.257,0,4.188.37,5.79,1.108,1.602.739,2.822,1.814,3.66,3.226s1.258,3.112,1.258,5.104v.024c0,1.645-.286,3.275-.859,4.894-.572,1.619-1.374,3.084-2.403,4.396l-8.915,11.256h12.376v6.574h-21.416v-6.15Z" stroke="#000" stroke-miterlimit="10"/>
    </g>
    <g>
      <rect x="567.261" y="1278.131" width="66.913" height="64.957" fill="none"/>
      <path d="M576.17,1292.501h6.823v36.208h-6.823v-36.208ZM578.66,1292.501h21.292v6.574h-21.292v-6.574ZM578.66,1307.765h18.552v6.574h-18.552v-6.574Z" stroke="#000" stroke-miterlimit="10"/>
      <path d="M609.776,1327.886c-1.71-.797-3.072-1.958-4.084-3.486-1.013-1.526-1.569-3.345-1.668-5.453h7.047c.1.747.319,1.382.66,1.905.34.522.776.921,1.308,1.195.531.273,1.146.411,1.843.411,1.295,0,2.295-.361,3.001-1.084.705-.722,1.058-1.738,1.058-3.051v-.846c0-1.378-.287-2.441-.859-3.188-.573-.748-1.391-1.121-2.453-1.121h-3.063v-6.574h3.063c.863,0,1.531-.327,2.005-.983.473-.656.709-1.573.709-2.752v-.622c0-1.112-.261-1.972-.785-2.578-.522-.605-1.257-.908-2.204-.908-.614,0-1.175.157-1.681.473s-.934.771-1.282,1.369-.598,1.32-.747,2.167h-7.022c.199-2.208.792-4.112,1.78-5.715s2.279-2.822,3.873-3.661c1.594-.838,3.37-1.258,5.329-1.258,3.204,0,5.682.818,7.433,2.453,1.751,1.636,2.627,3.956,2.627,6.961v1.096c0,1.677-.423,3.137-1.27,4.383-.847,1.244-2.051,2.175-3.611,2.789,1.743.398,3.092,1.312,4.046,2.738.955,1.429,1.432,3.246,1.432,5.454v1.096c0,2.108-.415,3.909-1.245,5.403-.831,1.494-2.042,2.632-3.636,3.412s-3.511,1.17-5.752,1.17c-2.191,0-4.143-.398-5.852-1.195Z" stroke="#000" stroke-miterlimit="10"/>
    </g>
    <g>
      <rect x="691.261" y="1278.131" width="66.913" height="64.957" fill="none"/>
      <path d="M699.149,1292.501h6.823v36.208h-6.823v-36.208ZM701.639,1292.501h21.292v6.574h-21.292v-6.574ZM701.639,1307.765h18.552v6.574h-18.552v-6.574Z" stroke="#000" stroke-miterlimit="10"/>
      <path d="M727.998,1316.88l11.156-24.355h7.72l-10.857,24.057h16.261v6.574h-24.279v-6.275ZM742.616,1307.418h6.823v21.316h-6.823v-21.316Z" stroke="#000" stroke-miterlimit="10"/>
    </g>
    <g>
      <rect x="813.261" y="1278.131" width="66.913" height="64.957" fill="none"/>
      <path d="M821.772,1292.501h6.823v36.208h-6.823v-36.208ZM824.262,1292.501h21.291v6.574h-21.291v-6.574ZM824.262,1307.765h18.553v6.574h-18.553v-6.574Z" stroke="#000" stroke-miterlimit="10"/>
      <path d="M856.486,1327.799c-1.553-.854-2.798-2.1-3.735-3.735-.938-1.635-1.481-3.573-1.631-5.814v-.025h6.823v.025c.133,1.328.539,2.362,1.221,3.101.68.738,1.568,1.108,2.664,1.108,1.195,0,2.12-.391,2.776-1.171s.983-1.884.983-3.312v-3.039c0-1.427-.295-2.527-.884-3.299-.589-.772-1.415-1.158-2.478-1.158-.979,0-1.814.249-2.503.747s-1.166,1.195-1.432,2.092h-6.375v-20.818h19.448v6.574h-12.625v6.399c.515-.498,1.216-.892,2.104-1.183.888-.29,1.771-.436,2.651-.436,1.876,0,3.482.432,4.819,1.295,1.336.863,2.353,2.125,3.05,3.785s1.047,3.661,1.047,6.001v3.039c0,2.34-.42,4.341-1.258,6.001-.839,1.66-2.055,2.926-3.648,3.798-1.594.871-3.52,1.307-5.777,1.307-1.942,0-3.689-.427-5.242-1.282Z" stroke="#000" stroke-miterlimit="10"/>
    </g>
    <g>
      <rect x="940.261" y="1278.131" width="66.913" height="64.957" fill="none"/>
      <path d="M949.569,1292.501h6.823v36.208h-6.823v-36.208ZM952.059,1292.501h21.291v6.574h-21.291v-6.574ZM952.059,1307.765h18.553v6.574h-18.553v-6.574Z" stroke="#000" stroke-miterlimit="10"/>
      <path d="M983.037,1327.799c-1.585-.854-2.793-2.1-3.623-3.735-.83-1.635-1.245-3.606-1.245-5.914v-.025c0-1.311.162-2.697.485-4.158.324-1.461.784-2.93,1.382-4.408.1-.248.203-.498.312-.746.108-.25.22-.49.337-.723l7.346-15.589h7.72l-8.716,18.054-1.719-.896c.415-.779,1.021-1.386,1.818-1.817s1.727-.647,2.789-.647c1.992,0,3.693.424,5.105,1.27,1.41.848,2.485,2.08,3.225,3.698.738,1.619,1.107,3.565,1.107,5.84v.024c0,2.325-.415,4.317-1.244,5.977-.831,1.661-2.039,2.923-3.624,3.785-1.585.864-3.499,1.295-5.739,1.295-2.226,0-4.131-.427-5.716-1.282ZM991.554,1321.45c.656-.706.984-1.706.984-3.001v-.025c0-1.494-.328-2.643-.984-3.448s-1.59-1.208-2.801-1.208c-1.195,0-2.121.411-2.777,1.232-.656.822-.983,1.972-.983,3.449v.025c0,1.295.327,2.291.983,2.988s1.582,1.045,2.777,1.045c1.211,0,2.145-.352,2.801-1.058Z" stroke="#000" stroke-miterlimit="10"/>
    </g>
    <g>
      <rect x="1060.261" y="1278.131" width="66.913" height="64.957" fill="none"/>
      <path d="M1069.814,1292.501h6.823v36.208h-6.823v-36.208ZM1072.304,1292.501h21.291v6.574h-21.291v-6.574ZM1072.304,1307.765h18.553v6.574h-18.553v-6.574Z" stroke="#000" stroke-miterlimit="10"/>
      <path d="M1118.859,1297.033l-8.119,31.676h-7.396l7.869-29.634h-6.226v5.454h-6.823v-12.028h20.694v4.532Z" stroke="#000" stroke-miterlimit="10"/>
    </g>
    <g>
      <path d="M1199.534,1297.046h4.053v29.852h-2.795v-23.18l.111,1.314-3.121,18.539h-2.719l-3.121-18.129.111-1.725v23.18h-2.797v-29.852h4.055l3.111,20.12,3.111-20.12Z" stroke="#000" stroke-miterlimit="10"/>
      <path d="M1207.894,1297.046h3.078v29.852h-3.078v-29.852ZM1209.007,1297.046h9.826v5.42h-9.826v-5.42ZM1209.007,1309.364h8.59v5.42h-8.59v-5.42ZM1209.007,1321.477h9.826v5.42h-9.826v-5.42Z" stroke="#000" stroke-miterlimit="10"/>
      <path d="M1222.353,1297.046h3.764l6.074,22.871-.27.534v-23.405h2.943v29.831h-3.785l-6.053-22.522.27-.534v23.057h-2.943v-29.831Z" stroke="#000" stroke-miterlimit="10"/>
      <path d="M1241.675,1325.902c-.891-.869-1.568-2.136-2.033-3.799-.463-1.663-.695-3.665-.695-6.005v-19.053h3.076v19.196c0,1.711.252,3.038.754,3.983.5.944,1.209,1.416,2.121,1.416.922,0,1.635-.472,2.141-1.416.504-.945.758-2.272.758-3.983v-19.196h3.076v19.053c0,2.34-.234,4.342-.701,6.005-.469,1.663-1.15,2.93-2.045,3.799s-1.971,1.304-3.229,1.304-2.332-.435-3.223-1.304Z" stroke="#000" stroke-miterlimit="10"/>
    </g>
    <g>
      <rect x="313.782" y="1144.611" width="70.435" height="25.043" fill="none"/>
      <path d="M322.05,1145.777h4.281v22.719h-4.281v-22.719ZM323.925,1164.371h7.25c.979,0,1.737-.236,2.273-.711.536-.474.805-1.138.805-1.992v-.047c0-.572-.12-1.062-.359-1.469-.24-.406-.591-.716-1.055-.93-.464-.213-1.019-.32-1.664-.32h-7.25v-4.125h7.25c.885,0,1.57-.224,2.055-.672.484-.447.727-1.078.727-1.891,0-.729-.242-1.297-.727-1.703s-1.169-.609-2.055-.609h-7.25v-4.125h7.391c1.469,0,2.724.242,3.766.727,1.042.484,1.833,1.188,2.375,2.109.542.922.812,2.029.812,3.32,0,.886-.175,1.67-.523,2.352-.349.683-.857,1.242-1.523,1.68-.667.438-1.469.734-2.406.891,1,.136,1.856.44,2.57.914.713.475,1.255,1.092,1.625,1.852.37.761.555,1.641.555,2.641v.047c0,1.303-.273,2.417-.82,3.344-.547.928-1.344,1.633-2.391,2.117s-2.305.727-3.773.727h-7.656v-4.125Z" stroke="#000" stroke-miterlimit="10"/>
      <path d="M343.698,1145.761h4.281v22.734h-4.281v-22.734ZM345.401,1155.23h7.906c.438,0,.823-.109,1.156-.328.333-.219.591-.531.773-.938.182-.406.278-.875.289-1.406,0-.531-.091-1-.273-1.406-.183-.406-.44-.719-.773-.938-.333-.219-.724-.328-1.172-.328h-7.906v-4.125h8.25c1.25,0,2.349.281,3.297.844.948.562,1.682,1.357,2.203,2.383.521,1.026.781,2.217.781,3.57s-.261,2.545-.781,3.57c-.521,1.026-1.258,1.82-2.211,2.383s-2.05.844-3.289.844h-8.25v-4.125ZM350.182,1158.652l4.578-.719,6.125,10.562h-5.188l-5.516-9.844Z" stroke="#000" stroke-miterlimit="10"/>
      <path d="M362.424,1145.777h16.656v4.125h-16.656v-4.125ZM368.612,1147.636h4.281v20.859h-4.281v-20.859Z" stroke="#000" stroke-miterlimit="10"/>
    </g>
    <g>
      <rect x="1178.434" y="1144.392" width="131" height="25.043" fill="none"/>
      <path d="M1191.155,1167.468c-1.256-.692-2.227-1.672-2.914-2.938s-1.031-2.731-1.031-4.398v-6.438c0-1.666.344-3.133,1.031-4.398s1.658-2.244,2.914-2.938c1.255-.692,2.705-1.039,4.352-1.039s3.096.347,4.352,1.039c1.255.693,2.227,1.672,2.914,2.938s1.031,2.732,1.031,4.398v6.438c0,1.667-.344,3.133-1.031,4.398s-1.659,2.245-2.914,2.938c-1.256.693-2.706,1.039-4.352,1.039s-3.097-.346-4.352-1.039ZM1197.537,1163.734c.583-.328,1.033-.794,1.352-1.398.317-.604.477-1.302.477-2.094v-6.656c0-.791-.159-1.489-.477-2.094-.318-.604-.769-1.07-1.352-1.398-.584-.328-1.261-.492-2.031-.492s-1.448.164-2.031.492c-.584.328-1.034.795-1.352,1.398-.318.604-.477,1.303-.477,2.094v6.656c0,.792.158,1.49.477,2.094.317.604.768,1.07,1.352,1.398.583.328,1.26.492,2.031.492s1.447-.164,2.031-.492Z" stroke="#000" stroke-miterlimit="10"/>
      <path d="M1209.014,1145.554h4.281v22.719h-4.281v-22.719ZM1210.576,1145.554h13.359v4.125h-13.359v-4.125ZM1210.576,1155.132h11.641v4.125h-11.641v-4.125Z" stroke="#000" stroke-miterlimit="10"/>
      <path d="M1228.209,1145.554h4.281v22.719h-4.281v-22.719ZM1229.772,1145.554h13.359v4.125h-13.359v-4.125ZM1229.772,1155.132h11.641v4.125h-11.641v-4.125Z" stroke="#000" stroke-miterlimit="10"/>
      <path d="M1248.185,1172.586h-4.062l10.156-29.719h4.062l-10.156,29.719Z" stroke="#000" stroke-miterlimit="10"/>
      <path d="M1264.919,1167.468c-1.256-.692-2.227-1.672-2.914-2.938s-1.031-2.731-1.031-4.398v-6.438c0-1.666.344-3.133,1.031-4.398s1.658-2.244,2.914-2.938c1.255-.692,2.705-1.039,4.352-1.039s3.096.347,4.352,1.039c1.255.693,2.227,1.672,2.914,2.938s1.031,2.732,1.031,4.398v6.438c0,1.667-.344,3.133-1.031,4.398s-1.659,2.245-2.914,2.938c-1.256.693-2.706,1.039-4.352,1.039s-3.097-.346-4.352-1.039ZM1271.302,1163.734c.583-.328,1.033-.794,1.352-1.398.317-.604.477-1.302.477-2.094v-6.656c0-.791-.159-1.489-.477-2.094-.318-.604-.769-1.07-1.352-1.398-.584-.328-1.261-.492-2.031-.492s-1.448.164-2.031.492c-.584.328-1.034.795-1.352,1.398-.318.604-.477,1.303-.477,2.094v6.656c0,.792.158,1.49.477,2.094.317.604.768,1.07,1.352,1.398.583.328,1.26.492,2.031.492s1.447-.164,2.031-.492Z" stroke="#000" stroke-miterlimit="10"/>
      <path d="M1282.779,1145.554h5.234l8.453,17.406-.375.406v-17.812h4.094v22.703h-5.266l-8.422-17.141.375-.406v17.547h-4.094v-22.703Z" stroke="#000" stroke-miterlimit="10"/>
    </g>
  </g>
  <g id="Scratchpad_-_Light">
    <g>
      <path d="M480.487,1170.426v37.593h12.121v3.515h-15.634v-44.62h15.634v3.513h-12.121Z" stroke="#000" stroke-miterlimit="10" stroke-width="1.5"/>
      <path d="M1101.436,1166.73v44.62h-15.635v-3.514h12.121v-37.593h-12.121v-3.514h15.635Z" stroke="#000" stroke-miterlimit="10" stroke-width="1.5"/>
    </g>
  </g>
  <g id="Hold_Remove__Page_-_Light">
    <g>
      <rect x="425.402" y="768.064" width="725.478" height="38.311" fill="none"/>
      <path d="M767.368,771.074v32.874h-2.822v-14.955h-16.507v14.955h-2.822v-32.874h2.822v15.097h16.507v-15.097h2.822Z" stroke="#000" stroke-miterlimit="10" stroke-width="1.5"/>
      <path d="M794.665,792.085c0,6.536-4.685,11.852-10.441,11.852s-10.44-5.317-10.44-11.852,4.685-11.851,10.44-11.851,10.441,5.316,10.441,11.851ZM791.843,792.085c0-4.979-3.417-9.03-7.619-9.03s-7.618,4.051-7.618,9.03,3.417,9.03,7.618,9.03,7.619-4.051,7.619-9.03Z" stroke="#000" stroke-miterlimit="10" stroke-width="1.5"/>
      <path d="M801.076,803.965v-33.014h2.821v33.014h-2.821Z" stroke="#000" stroke-miterlimit="10" stroke-width="1.5"/>
      <path d="M831.076,803.532h-2.821v-.706l-.022-2.655c-1.884,2.316-4.587,3.782-7.596,3.782-5.678,0-10.299-5.19-10.299-11.569s4.621-11.569,10.299-11.569c2.936,0,5.581,1.393,7.459,3.613l-.122-13.899,2.822-.026.282,33.027h-.002ZM828.115,792.384c0-4.824-3.354-8.747-7.479-8.747s-7.478,3.923-7.478,8.747,3.355,8.748,7.478,8.748,7.479-3.923,7.479-8.748Z" stroke="#000" stroke-miterlimit="10" stroke-width="1.5"/>
    </g>
    <g>
      <rect x="471.065" y="819.97" width="658.684" height="52.826" fill="none"/>
      <path d="M483.25,834.34v30.193h6.913v2.822h-16.648v-2.822h6.914v-30.193h-6.914v-2.822h16.648v2.822h-6.913Z" stroke="#000" stroke-miterlimit="10" stroke-width="1.5"/>
      <path d="M518.603,832.74v34.455h-2.799l-16.389-29.029v29.005h-2.822v-34.285h3.082l16.106,28.528v-28.675h2.822Z" stroke="#000" stroke-miterlimit="10" stroke-width="1.5"/>
      <path d="M547.897,853.237c.417,1.106.82,2.438.82,4.364,0,1.995-.216,3.427-.679,4.506-.552,1.475-1.29,2.545-2.232,3.218-.879.833-2.062,1.37-3.438,1.562-1.139.308-2.232.308-3.386.308h-13.686v-17.193l-.282-.282v-18.502h13.402c1.164,0,2.294.172,3.268.495,1.169.333,2.369,1.03,3.232,1.894.883.883,1.662,2.021,2.133,3.121.418,1.112.82,2.444.82,4.367,0,1.903-.208,3.344-.635,4.401-.34,1.261-1.113,2.476-2.09,3.282-.192.188-.397.351-.606.506.365.251.704.506.99.745.983.818,1.846,1.988,2.369,3.208h0ZM527.835,834.04v13.683h11.147c.411,0,.824.045,1.236.089.316-.031.611-.075.858-.156l.271-.061c.783-.097,1.356-.365,1.858-.868l.117-.104c.417-.334.985-1.038,1.205-1.92l.072-.214c.299-.696.45-1.837.45-3.394,0-1.469-.296-2.462-.617-3.315-.302-.698-.89-1.556-1.511-2.177-.528-.528-1.303-.974-2.071-1.194-.737-.244-1.582-.368-2.434-.368h-10.582ZM545.419,861.058c.323-.756.474-1.899.474-3.456,0-1.47-.295-2.46-.615-3.312-.329-.765-.906-1.549-1.558-2.092-.847-.706-1.494-1.088-2.165-1.28-.422-.122-.845-.21-1.268-.272-.56.042-1.136.044-1.73.044h-10.44v13.686h10.864c1.071,0,1.919,0,2.716-.229l.213-.044c.846-.105,1.538-.406,1.999-.868l.214-.176c.49-.326.913-.98,1.295-2.002h0Z" stroke="#000" stroke-miterlimit="10" stroke-width="1.5"/>
      <path d="M577.159,832.74v34.455h-2.799l-16.389-29.029v29.005h-2.822v-34.285h3.082l16.106,28.528v-28.675h2.822Z" stroke="#000" stroke-miterlimit="10" stroke-width="1.5"/>
      <path d="M605.578,844.48v9.735c0,1.931-.329,3.771-.948,5.32-.588,1.624-1.505,3.079-2.708,4.283-.91,1.067-2.076,1.905-3.396,2.413-1.301.641-2.63.964-3.952.964h-11.005v-35.836h11.005c1.459,0,2.819.325,4.158.995,1.384.693,2.496,1.543,3.404,2.602.9.896,1.717,2.256,2.496,4.205.642,1.764.947,3.491.947,5.32ZM602.757,844.48c0-1.515-.243-2.887-.762-4.314-.617-1.539-1.234-2.599-1.93-3.294-.741-.858-1.542-1.466-2.596-1.994-.951-.475-1.871-.697-2.895-.697h-8.183v30.193h8.183c.903,0,1.83-.236,2.755-.698l.136-.06c.911-.34,1.691-.901,2.387-1.712.983-.991,1.679-2.098,2.143-3.374.497-1.243.762-2.76.762-4.314v-9.735Z" stroke="#000" stroke-miterlimit="10" stroke-width="1.5"/>
      <path d="M644.965,862.351c.856-.646,1.597-1.466,2.266-2.537l2.393,1.496c-.848,1.357-1.84,2.451-3.031,3.345-.995.666-2.23,1.284-3.454,1.744-1.391.464-2.663.655-4.306.655-1.747,0-3.114-.208-4.305-.653-1.225-.408-2.341-.989-3.569-1.866-1.222-.761-2.279-1.933-2.981-3.34-.652-1.301-.996-2.788-.996-4.299v-15.379c0-1.785.574-3.176,1.136-4.299.915-1.474,1.905-2.568,3.097-3.461.992-.665,2.228-1.284,3.454-1.744,1.386-.463,2.658-.653,4.305-.653,1.748,0,3.115.209,4.305.655,1.223.406,2.339.986,3.569,1.865,1.326.996,2.321,2.16,2.981,3.48l-2.524,1.263c-.462-.927-1.176-1.756-2.123-2.466-.978-.698-1.837-1.147-2.845-1.483-.913-.341-1.965-.492-3.363-.492-1.342,0-2.317.143-3.364.492-.983.37-2.009.882-2.767,1.387-.856.645-1.597,1.466-2.267,2.537-.438.89-.773,1.792-.773,2.92v15.377c0,1.075.241,2.125.697,3.036.478.957,1.16,1.716,2.026,2.257,1.077.766,1.934,1.216,2.943,1.552.913.341,1.967.492,3.364.492,1.339,0,2.314-.143,3.364-.492.98-.369,2.007-.882,2.767-1.387l.003-.002Z" stroke="#000" stroke-miterlimit="10" stroke-width="1.5"/>
      <path d="M670.238,852.903l8.149,13.498v.817h-2.112l-.507.306-8.622-14.278c-.062,0-.127.004-.188.004h-7.902v13.968h-2.822v-34.425h10.582c1.628,0,3.239.336,4.666.968,1.531.681,2.777,1.515,3.81,2.549.838.837,1.458,1.923,2.06,2.973l.075.15c.559,1.306.82,2.469.82,3.66,0,1.236-.284,2.55-.82,3.801-.472,1.1-1.251,2.239-2.134,3.122-.816.816-2.135,1.904-3.795,2.458-.417.186-.837.323-1.259.432h0ZM659.056,835.614v14.814h7.902c1.586,0,2.572-.165,3.518-.584,1.016-.346,1.971-.975,2.82-1.824.629-.631,1.205-1.469,1.537-2.24.386-.902.591-1.832.591-2.688,0-.788-.173-1.553-.56-2.476-.52-.908-1.009-1.754-1.566-2.312-.797-.797-1.738-1.422-2.961-1.967-1.066-.473-2.283-.724-3.519-.724h-7.761Z" stroke="#000" stroke-miterlimit="10" stroke-width="1.5"/>
      <path d="M705.932,853.228c.612,1.213.907,2.407.907,3.547,0,3.039-1.115,5.535-3.315,7.419-2.056,1.899-4.656,2.88-7.689,2.88h-.282c-2.86,0-5.495-1.017-7.832-3.021-1.826-1.545-2.361-2.91-2.749-3.906-.058-.145-.111-.285-.169-.419l2.593-1.113c.069.161.135.329.205.504.326.834.663,1.696,1.951,2.785,1.844,1.583,3.805,2.348,6.002,2.348h.282c2.333,0,4.237-.708,5.814-2.166,1.63-1.397,2.369-3.073,2.369-5.312,0-.694-.198-1.473-.557-2.191-.309-.506-.758-1.175-1.354-1.573-.686-.542-1.566-1.049-2.454-1.429-.576-.247-1.223-.446-1.974-.676-.416-.128-.851-.262-1.302-.412l-4.149-1.105c-2.236-.687-3.849-1.721-4.981-3.177-1.229-1.579-1.851-3.436-1.851-5.522,0-2.581,1.071-4.794,3.18-6.581,2.005-1.851,4.28-2.733,7.121-2.733h.281c2.853.165,5.234,1.143,7.162,2.909,1.464,1.301,2.351,2.857,2.692,4.739l-2.778.502c-.23-1.271-.786-2.242-1.805-3.148-1.452-1.331-3.25-2.061-5.354-2.186l-.199.003c-2.115,0-3.736.625-5.251,2.025-1.514,1.284-2.228,2.731-2.228,4.467,0,1.445.423,2.719,1.255,3.79.776.998,1.899,1.696,3.535,2.2l4.182,1.114c.512.167.924.293,1.319.415.795.244,1.545.474,2.26.78,1.125.481,2.219,1.117,3.006,1.747.962.636,1.64,1.623,2.162,2.493h-.003Z" stroke="#000" stroke-miterlimit="10" stroke-width="1.5"/>
      <path d="M732.376,826.24v37.593h12.121v3.514h-15.634v-44.62h15.634v3.513h-12.121Z" stroke="#000" stroke-miterlimit="10" stroke-width="1.5"/>
      <path d="M776.757,846.53c.664,1.551.99,4.548.99,6.062,0,1.62,0,2.69-.763,5.548-.673,2.686-2.052,4.494-3.091,5.532-1.16,1.16-3.379,2.64-5.206,3.097-1.724.58-4.538.58-6.048.58-1.785,0-4.879-1.006-6.139-1.546-1.474-.632-4.24-2.498-5.922-3.991l2.335-2.626c1.47,1.307,3.963,2.955,4.972,3.389,1.159.497,3.725,1.263,4.754,1.263,1.219,0,3.756,0,5.066-.438,1.123-.286,2.794-1.301,3.704-2.211.724-.722,1.69-1.992,2.173-3.926.65-2.438.65-3.137.65-4.667,0-1.56-.357-3.872-.736-4.755-.432-1.146-.957-2.017-1.843-3.08-.771-.926-1.612-1.588-2.503-1.969-1.105-.474-2.275-.913-3.349-.913h-4.743v-3.826l10.438-11.809h-16.06v-3.513h19.851v4.527l-9.816,11.106h.33c1.713,0,3.354.604,4.732,1.196,1.403.603,2.689,1.595,3.819,2.949,1.144,1.37,1.861,2.574,2.404,4.021l-.002.002Z" stroke="#000" stroke-miterlimit="10" stroke-width="1.5"/>
      <path d="M809.681,841.887c.667,1.56,1.021,3.197,1.021,4.734v8.608c0,1.539-.354,3.174-1.021,4.732-.65,1.52-1.726,2.976-2.948,3.995-.941.785-2.401,1.904-4.196,2.579-1.805.676-3.397.991-5.01.991-1.836,0-4.133-.397-5.711-.989-1.754-.659-3.164-1.537-4.314-2.688-1.107-.912-2.181-2.368-2.832-3.887-.395-.78-.606-1.627-.793-2.374l-.053-.427v-1.581h3.514v1.365c.143.565.281,1.064.517,1.537.483,1.122,1.202,2.099,2.013,2.775.918.906,1.891,1.503,3.182,1.988,1.184.443,3.069.766,4.479.766,1.193,0,2.359-.237,3.774-.768.985-.371,1.997-1.001,3.182-1.989.81-.676,1.528-1.655,1.97-2.681.48-1.124.735-2.282.735-3.348v-8.608c0-1.066-.255-2.224-.735-3.35-.439-1.026-1.158-2.003-1.97-2.679-.917-.905-1.89-1.504-3.182-1.987l-.538-.207c-.981-.385-1.432-.561-3.236-.561-2.203,0-3.969.471-5.557,1.482-1.186.742-2.234,1.79-2.967,2.962l-.518.826h-4.662v-20.377h26.526v3.513h-23.013v12.43c.805-.899,1.736-1.686,2.758-2.326,2.135-1.36,4.571-2.023,7.432-2.023,2.348,0,3.246.304,4.516.801l.492.19c1.753.657,3.164,1.535,4.314,2.686,1.105.912,2.18,2.367,2.832,3.886h0Z" stroke="#000" stroke-miterlimit="10" stroke-width="1.5"/>
      <path d="M842.991,830.198c.812,1.62,1.24,3.471,1.24,5.353v19.148c0,1.881-.429,3.735-1.24,5.354-.759,1.521-1.907,2.946-3.413,4.237-1.344,1.119-2.788,1.882-4.31,2.279-1.388.506-2.882.762-4.563.778h-.176c-1.878-.014-3.374-.267-4.832-.813-1.585-.596-2.996-1.404-4.197-2.405-1.524-1.306-2.674-2.732-3.435-4.253-.812-1.62-1.239-3.472-1.239-5.351v-19.148c0-1.879.43-3.731,1.239-5.353.761-1.521,1.91-2.948,3.415-4.237,1.344-1.121,2.788-1.881,4.31-2.278,1.435-.523,2.986-.78,4.739-.78,1.882,0,3.566.272,5.009.813,1.584.594,2.995,1.404,4.198,2.405,1.337,1.144,2.396,2.531,3.257,4.251h-.002ZM820.34,835.376v17.328l20.158-19.113c-.146-.639-.364-1.252-.648-1.822-.655-1.312-1.412-2.31-2.382-3.141-.879-.732-1.95-1.342-3.162-1.797-1.031-.386-2.337-.59-3.775-.59-1.381,0-2.524.188-3.6.59l-.189.06c-1.042.26-2.047.791-2.992,1.577-1.129.968-1.99,2.026-2.54,3.125-.569,1.138-.869,2.445-.869,3.782ZM840.719,854.701v-16.476l-19.963,18.928c.127.399.272.787.455,1.154.55,1.1,1.411,2.157,2.56,3.141.878.731,1.948,1.34,3.162,1.797,1.068.4,2.206.583,3.682.59,1.343-.007,2.461-.195,3.516-.59l.189-.06c1.042-.26,2.047-.791,2.991-1.578,1.128-.968,1.989-2.025,2.539-3.125.569-1.137.869-2.444.869-3.782Z" stroke="#000" stroke-miterlimit="10" stroke-width="1.5"/>
      <path d="M865.947,822.544v44.62h-15.635v-3.514h12.121v-37.593h-12.121v-3.514h15.635Z" stroke="#000" stroke-miterlimit="10" stroke-width="1.5"/>
      <path d="M887.837,833.214c0,4.359-3.547,7.906-7.905,7.906s-7.905-3.547-7.905-7.906,3.547-7.905,7.905-7.905,7.905,3.547,7.905,7.905ZM884.324,833.214c0-2.42-1.971-4.392-4.392-4.392s-4.392,1.971-4.392,4.392,1.971,4.392,4.392,4.392,4.392-1.97,4.392-4.392Z" stroke="#000" stroke-miterlimit="10" stroke-width="1.5"/>
      <path d="M921.33,824.536v42.687h-3.515v-35.75l-8.276,14.845h-3.821l-8.279-14.845v35.75h-3.514v-42.687h3.667l10.036,17.994,10.035-17.994h3.667Z" stroke="#000" stroke-miterlimit="10" stroke-width="1.5"/>
    </g>
    <g>
      <rect x="471.065" y="946.97" width="310.435" height="52.826" fill="none"/>
      <path d="M494.115,958.71h-8.889v31.463h-2.821v-31.463h-8.889v-2.822h20.599v2.822Z" stroke="#000" stroke-miterlimit="10" stroke-width="1.5"/>
      <path d="M522.525,955.83v24.407c0,1.562-.366,3.062-1.033,4.228-.573,1.152-1.496,2.297-2.706,3.334-1.019.851-2.119,1.322-3.185,1.778-1.233.464-2.501.679-3.94.679-1.512,0-2.867-.22-4.024-.654-1.271-.476-2.406-1.126-3.37-1.929-1.026-.882-2.059-1.876-2.757-3.276-.67-1.339-.996-2.701-.996-4.158v-24.408h2.822v24.408c0,1.024.222,1.944.699,2.896.448.899,1.146,1.602,2.054,2.382.706.587,1.566,1.076,2.54,1.442.828.312,1.876.476,3.032.476,1.107,0,2.028-.151,2.89-.474.859-.371,1.727-.742,2.414-1.315.907-.779,1.6-1.627,2.04-2.51.457-.804.698-1.835.698-2.896v-24.408h2.824Z" stroke="#000" stroke-miterlimit="10" stroke-width="1.5"/>
      <path d="M542.936,975.809l8.149,13.498v.817h-2.112l-.507.306-8.622-14.278c-.062,0-.127.004-.188.004h-7.902v13.968h-2.822v-34.425h10.582c1.628,0,3.239.336,4.666.968,1.531.681,2.777,1.515,3.81,2.549.838.837,1.458,1.923,2.06,2.973l.075.15c.559,1.306.82,2.469.82,3.66,0,1.236-.284,2.55-.82,3.801-.472,1.1-1.251,2.239-2.134,3.122-.816.816-2.135,1.904-3.795,2.458-.417.186-.837.323-1.259.432h0ZM531.755,958.52v14.814h7.902c1.586,0,2.572-.165,3.518-.584,1.016-.346,1.971-.975,2.82-1.824.629-.631,1.205-1.469,1.537-2.24.386-.902.591-1.832.591-2.688,0-.788-.173-1.553-.56-2.476-.52-.908-1.009-1.754-1.566-2.312-.797-.797-1.738-1.422-2.961-1.966-1.066-.473-2.283-.725-3.519-.725h-7.761Z" stroke="#000" stroke-miterlimit="10" stroke-width="1.5"/>
      <path d="M579.51,955.646v34.455h-2.799l-16.389-29.029v29.005h-2.822v-34.285h3.082l16.106,28.528v-28.675h2.822Z" stroke="#000" stroke-miterlimit="10" stroke-width="1.5"/>
      <path d="M585.92,970.428c0-1.636,1.264-2.963,2.822-2.963s2.822,1.327,2.822,2.963-1.263,2.963-2.822,2.963-2.822-1.326-2.822-2.963ZM585.92,986.935c0-1.636,1.264-2.963,2.822-2.963s2.822,1.327,2.822,2.963-1.263,2.963-2.822,2.963-2.822-1.326-2.822-2.963Z" stroke="#000" stroke-miterlimit="10" stroke-width="1.5"/>
      <path d="M634.412,987.439v2.822h-21.445v-34.285h2.822v31.463h18.624Z" stroke="#000" stroke-miterlimit="10" stroke-width="1.5"/>
      <path d="M643.669,957.228v11.569h10.158v2.822h-10.158v15.661h18.482v2.822h-21.304v-35.695h21.304v2.822h-18.482Z" stroke="#000" stroke-miterlimit="10" stroke-width="1.5"/>
      <path d="M671.403,958.649v11.569h9.171v2.821h-9.171v17.072h-2.822v-34.284h21.305v2.822h-18.483Z" stroke="#000" stroke-miterlimit="10" stroke-width="1.5"/>
      <path d="M716.914,958.71h-8.889v31.463h-2.821v-31.463h-8.889v-2.822h20.599v2.822Z" stroke="#000" stroke-miterlimit="10" stroke-width="1.5"/>
    </g>
    <g>
      <rect x="471.065" y="1065.629" width="670.423" height="52.826" fill="none"/>
      <path d="M494.96,1110.194v2.821h-21.445v-34.284h2.822v31.463h18.624Z" stroke="#000" stroke-miterlimit="10" stroke-width="1.5"/>
      <path d="M504.218,1079.982v11.569h10.159v2.822h-10.159v15.66h18.483v2.822h-21.305v-35.695h21.305v2.821h-18.483Z" stroke="#000" stroke-miterlimit="10" stroke-width="1.5"/>
      <path d="M551.139,1078.401v34.455h-2.799l-16.389-29.029v29.005h-2.822v-34.284h3.082l16.106,28.528v-28.675h2.822Z" stroke="#000" stroke-miterlimit="10" stroke-width="1.5"/>
      <path d="M569.965,1093.671h10.158v10.158c0,1.06,0,2.662-.92,4.134l-.125.19c-.552.833-1.122,1.693-2.439,2.516-.65.494-2.245,1.261-3.355,1.677-1.174.44-2.536.654-4.164.654s-2.99-.214-4.164-.654c-1.443-.542-2.624-1.191-3.512-1.931-1.246-.933-2.062-2.075-2.782-3.082l-.117-.193c-.652-1.303-.996-2.79-.996-4.3v-15.52c0-1.723.371-3.085,1.202-4.416.665-1.345,1.93-2.525,2.817-3.287,1.045-.87,2.307-1.343,3.526-1.801,1.175-.441,2.538-.655,4.167-.655s2.99.214,4.164.654c1.09.408,2.25.962,3.45,1.646l.146.096c1.449,1.088,2.492,2.254,3.096,3.461l-2.524,1.263c-.398-.796-1.136-1.606-2.195-2.412-1.027-.581-2.05-1.068-2.963-1.411-.852-.32-1.889-.476-3.173-.476s-2.322.154-3.173.475c-1.048.394-2.036.763-2.697,1.314-.686.59-1.679,1.507-2.18,2.51-.608.985-.839,1.858-.839,3.038v15.52c0,1.037.226,2.052.652,2.943.638.89,1.25,1.729,2.171,2.418.691.573,1.624,1.076,2.752,1.5.853.32,1.889.476,3.173.476s2.321-.155,3.173-.475c1.075-.403,2.341-1.051,2.753-1.359.896-.567,1.209-1.037,1.68-1.75l.107-.162c.468-.751.468-1.735.468-2.604v-7.336h-7.336v-2.819Z" stroke="#000" stroke-miterlimit="10" stroke-width="1.5"/>
      <path d="M607.156,1081.464h-8.889v31.463h-2.821v-31.463h-8.889v-2.821h20.599v2.821Z" stroke="#000" stroke-miterlimit="10" stroke-width="1.5"/>
      <path d="M635.706,1079.992v32.874h-2.822v-14.955h-16.507v14.955h-2.822v-32.874h2.822v15.097h16.507v-15.097h2.822Z" stroke="#000" stroke-miterlimit="10" stroke-width="1.5"/>
      <path d="M661.228,1071.901v37.593h12.121v3.514h-15.634v-44.62h15.634v3.514h-12.121Z" stroke="#000" stroke-miterlimit="10" stroke-width="1.5"/>
      <path d="M691.794,1109.494v3.514h-11.243v-3.514h3.865v-36.052l-2.746,2.272-2.24-2.707,5.581-4.618h2.917v41.104h3.865Z" stroke="#000" stroke-miterlimit="10" stroke-width="1.5"/>
      <path d="M723.769,1087.547c.667,1.561,1.021,3.197,1.021,4.734v8.608c0,1.538-.354,3.174-1.021,4.732-.65,1.52-1.725,2.976-2.948,3.994-.941.785-2.401,1.904-4.197,2.579-1.804.676-3.397.99-5.01.99-1.836,0-4.132-.396-5.711-.988-1.753-.659-3.164-1.537-4.314-2.688-1.107-.911-2.18-2.367-2.832-3.887-.394-.78-.606-1.627-.792-2.374l-.053-.427v-1.581h3.513v1.365c.143.565.281,1.064.517,1.537.483,1.122,1.202,2.1,2.013,2.775.917.906,1.89,1.504,3.181,1.988,1.184.443,3.069.767,4.478.767,1.194,0,2.359-.237,3.775-.768.986-.371,1.998-1.002,3.182-1.989.81-.676,1.528-1.654,1.969-2.681.481-1.124.736-2.281.736-3.348v-8.608c0-1.065-.255-2.224-.736-3.35-.439-1.026-1.158-2.003-1.969-2.679-.917-.905-1.89-1.504-3.182-1.987l-.538-.207c-.982-.385-1.432-.561-3.237-.561-2.203,0-3.968.471-5.557,1.482-1.186.742-2.234,1.79-2.967,2.962l-.517.826h-4.662v-20.378h26.526v3.514h-23.013v12.43c.805-.899,1.736-1.686,2.758-2.325,2.134-1.36,4.571-2.024,7.431-2.024,2.349,0,3.246.305,4.517.802l.492.189c1.753.657,3.164,1.535,4.314,2.686,1.105.912,2.18,2.367,2.832,3.887h0Z" stroke="#000" stroke-miterlimit="10" stroke-width="1.5"/>
      <path d="M730.913,1108.914c0-2.037,1.573-3.688,3.513-3.688s3.514,1.651,3.514,3.688-1.573,3.689-3.514,3.689-3.513-1.651-3.513-3.689Z" stroke="#000" stroke-miterlimit="10" stroke-width="1.5"/>
      <path d="M770.195,1075.859c.811,1.619,1.24,3.471,1.24,5.353v19.147c0,1.882-.43,3.735-1.24,5.354-.76,1.521-1.908,2.946-3.414,4.237-1.344,1.119-2.787,1.882-4.309,2.278-1.388.506-2.883.763-4.564.778h-.176c-1.877-.014-3.374-.267-4.832-.813-1.584-.596-2.995-1.403-4.197-2.404-1.524-1.306-2.674-2.732-3.434-4.254-.812-1.619-1.24-3.471-1.24-5.351v-19.147c0-1.88.43-3.731,1.24-5.353.76-1.521,1.909-2.948,3.415-4.237,1.344-1.121,2.788-1.882,4.31-2.278,1.435-.523,2.986-.78,4.738-.78,1.882,0,3.566.272,5.009.813,1.585.594,2.995,1.403,4.198,2.405,1.338,1.144,2.396,2.531,3.258,4.251h-.002ZM747.544,1081.036v17.328l20.157-19.113c-.146-.639-.364-1.252-.647-1.821-.656-1.312-1.413-2.311-2.383-3.141-.879-.732-1.949-1.343-3.162-1.798-1.031-.386-2.336-.59-3.775-.59-1.381,0-2.523.188-3.6.59l-.189.061c-1.041.26-2.047.79-2.991,1.577-1.13.968-1.99,2.025-2.54,3.125-.569,1.139-.869,2.445-.869,3.782ZM767.923,1100.361v-16.476l-19.963,18.928c.126.399.271.787.455,1.154.549,1.1,1.41,2.157,2.559,3.141.879.731,1.949,1.341,3.162,1.798,1.068.4,2.207.583,3.683.59,1.342-.007,2.461-.195,3.515-.59l.189-.06c1.042-.261,2.047-.791,2.992-1.578,1.128-.968,1.988-2.025,2.539-3.125.568-1.137.869-2.443.869-3.782Z" stroke="#000" stroke-miterlimit="10" stroke-width="1.5"/>
      <path d="M793.151,1068.205v44.62h-15.634v-3.514h12.121v-37.593h-12.121v-3.514h15.634Z" stroke="#000" stroke-miterlimit="10" stroke-width="1.5"/>
      <path d="M821.873,1093.34c.485,2.423.27,4.513.19,5.102v14.455h-3.513l.024-14.868c.002-.013.286-1.854-.165-4.11-.281-2.08-1.009-3.563-2.245-4.646-.919-.803-2.672-1.32-4.465-1.32-1.521,0-3.072.555-4.368,1.563-2.679,2.257-4.064,5.351-4.064,9.151v14.229h-3.513v-14.229c0-.106.014-.206.016-.312l-.189.005s-.178-7.236-.178-9.53c0-1.155-.172-3.721-.172-3.747l3.506-.233c.007.11.179,2.707.179,3.98v.246c.644-.822,1.376-1.592,2.206-2.293,1.965-1.527,4.279-2.345,6.578-2.345,2.675,0,5.208.82,6.776,2.192,1.878,1.645,3.021,3.901,3.396,6.71h0Z" stroke="#000" stroke-miterlimit="10" stroke-width="1.5"/>
      <path d="M860.225,1093.339c.37,2.793.191,5.029.185,5.123l.006,14.434h-3.515v-14.58c.008-.161.16-2.114-.159-4.511-.294-2.201-.835-3.7-1.7-4.71-.679-.79-1.939-1.144-2.884-1.144s-2.03.53-2.706,1.319c-2.054,2.349-3.09,5.505-3.09,9.396v14.229h-3.689v-14.58c.009-.161.16-2.114-.159-4.511-.294-2.201-.835-3.7-1.701-4.71-.678-.79-1.939-1.144-2.883-1.144s-2.03.53-2.707,1.319c-2.054,2.347-3.09,5.503-3.09,9.396v14.229h-3.514v-14.229c0-.119.013-.233.013-.352h-.188v-9.368c-.17-1.346-.176-3.708-.176-3.982h3.514c0,.548.018,1.894.088,2.89.225-.301.451-.601.699-.884,1.333-1.557,3.393-2.531,5.361-2.531,1.7,0,4.051.622,5.549,2.369.642.747,1.152,1.626,1.561,2.651.501-.889,1.086-1.722,1.757-2.489,1.335-1.557,3.394-2.531,5.362-2.531,1.701,0,4.052.622,5.55,2.369,1.328,1.552,2.128,3.627,2.516,6.533l.002-.003Z" stroke="#000" stroke-miterlimit="10" stroke-width="1.5"/>
      <path d="M917.559,1095.061l10.146,16.806v1.017h-2.63l-.631.382-10.734-17.777c-.077,0-.158.005-.233.005h-9.84v17.391h-3.514v-42.862h13.176c2.027,0,4.033.418,5.81,1.205,1.905.848,3.457,1.887,4.743,3.174,1.043,1.042,1.815,2.395,2.564,3.701l.093.187c.696,1.627,1.021,3.074,1.021,4.557,0,1.539-.354,3.175-1.021,4.733-.588,1.37-1.559,2.787-2.657,3.887-1.016,1.016-2.658,2.37-4.726,3.061-.519.232-1.042.402-1.567.537h0ZM903.637,1073.534v18.445h9.84c1.974,0,3.202-.205,4.379-.727,1.265-.431,2.454-1.214,3.512-2.271.783-.786,1.5-1.829,1.913-2.79.481-1.122.735-2.28.735-3.347,0-.98-.216-1.934-.697-3.082-.646-1.13-1.256-2.185-1.949-2.878-.993-.992-2.165-1.771-3.688-2.448-1.328-.589-2.843-.902-4.381-.902h-9.664Z" stroke="#000" stroke-miterlimit="10" stroke-width="1.5"/>
      <path d="M937.308,1071.925v14.404h12.648v3.514h-12.648v19.499h23.013v3.514h-26.526v-44.444h26.526v3.514h-23.013Z" stroke="#000" stroke-miterlimit="10" stroke-width="1.5"/>
      <path d="M993.834,1070.197v42.687h-3.515v-35.749l-8.276,14.845h-3.821l-8.279-14.845v35.749h-3.514v-42.687h3.667l10.036,17.993,10.035-17.993h3.667Z" stroke="#000" stroke-miterlimit="10" stroke-width="1.5"/>
      <path d="M1026.085,1075.904c.81,1.625,1.238,3.477,1.238,5.354v19.148c0,1.879-.429,3.73-1.238,5.353-.763,1.524-1.911,2.951-3.415,4.238-1.344,1.121-2.788,1.882-4.309,2.278-1.389.506-2.885.763-4.564.778h-.176c-1.878-.014-3.376-.267-4.832-.813-1.589-.597-2.999-1.405-4.199-2.404-1.522-1.306-2.672-2.731-3.433-4.253-.812-1.622-1.24-3.474-1.24-5.353v-19.148c0-1.879.431-3.73,1.24-5.353.761-1.524,1.912-2.949,3.415-4.238,1.343-1.119,2.786-1.88,4.308-2.277,1.432-.523,2.984-.779,4.739-.779,1.886,0,3.571.273,5.011.814,1.584.594,2.995,1.404,4.196,2.403,1.335,1.144,2.395,2.531,3.257,4.251h.002ZM1023.807,1100.405v-19.148c0-1.335-.301-2.644-.868-3.782-.656-1.312-1.412-2.31-2.382-3.141-.878-.73-1.95-1.34-3.162-1.795-1.031-.387-2.335-.591-3.775-.591-1.382,0-2.527.188-3.599.591l-.191.06c-1.04.26-2.045.79-2.988,1.577-1.128.967-1.99,2.024-2.54,3.125-.569,1.139-.87,2.445-.87,3.782v19.146c0,1.337.303,2.646.87,3.782.548,1.1,1.41,2.157,2.558,3.141.878.73,1.949,1.341,3.163,1.797,1.068.401,2.207.584,3.683.591,1.344-.007,2.461-.195,3.517-.591l.189-.06c1.04-.26,2.047-.79,2.992-1.577,1.126-.967,1.988-2.023,2.538-3.125.567-1.135.868-2.443.868-3.78l-.002-.002Z" stroke="#000" stroke-miterlimit="10" stroke-width="1.5"/>
      <path d="M1065.905,1070.184v9.593l-27.633,33.271h-4.866v-42.863h3.514v38.991l25.472-30.668v-8.323h3.514Z" stroke="#000" stroke-miterlimit="10" stroke-width="1.5"/>
      <path d="M1075.532,1071.925v14.404h12.648v3.514h-12.648v19.499h23.013v3.514h-26.526v-44.444h26.526v3.514h-23.013Z" stroke="#000" stroke-miterlimit="10" stroke-width="1.5"/>
      <path d="M1116.247,1100.017v-5.845h-11.595v-3.514h11.595v-5.575l9.955,7.301-9.955,7.633Z" stroke="#000" stroke-miterlimit="10" stroke-width="1.5"/>
    </g>
    <g>
      <rect x="470.935" y="687.795" width="658.684" height="52.826" fill="none"/>
      <path d="M476.206,698.053v11.569h10.158v2.822h-10.158v15.661h18.482v2.822h-21.305v-35.695h21.305v2.822h-18.482Z" stroke="#000" stroke-miterlimit="10" stroke-width="1.5"/>
      <path d="M523.127,696.471v34.455h-2.799l-16.389-29.029v29.005h-2.822v-34.285h3.082l16.106,28.528v-28.675h2.821Z" stroke="#000" stroke-miterlimit="10" stroke-width="1.5"/>
      <path d="M550.137,699.535h-8.889v31.463h-2.821v-31.463h-8.889v-2.822h20.599v2.822Z" stroke="#000" stroke-miterlimit="10" stroke-width="1.5"/>
      <path d="M570.539,716.634l8.149,13.498v.817h-2.112l-.507.306-8.621-14.278c-.062,0-.127.004-.188.004h-7.902v13.968h-2.821v-34.425h10.581c1.629,0,3.239.336,4.666.968,1.531.681,2.777,1.515,3.81,2.549.838.837,1.459,1.923,2.06,2.973l.075.15c.559,1.306.82,2.469.82,3.66,0,1.236-.284,2.55-.82,3.801-.473,1.1-1.252,2.239-2.135,3.122-.815.816-2.135,1.904-3.795,2.458-.417.186-.837.323-1.259.432h0ZM559.358,699.345v14.814h7.902c1.586,0,2.572-.165,3.518-.584,1.016-.346,1.971-.975,2.82-1.824.629-.631,1.205-1.469,1.537-2.24.386-.902.591-1.832.591-2.688,0-.788-.174-1.553-.561-2.476-.52-.908-1.009-1.754-1.565-2.312-.798-.797-1.738-1.422-2.962-1.966-1.066-.473-2.283-.725-3.519-.725h-7.762Z" stroke="#000" stroke-miterlimit="10" stroke-width="1.5"/>
      <path d="M607.254,698.823l-9.736,13.121v19.004h-2.821v-19.01l-9.594-13.12v-.743h1.798l.753-.55,8.462,11.575,8.595-11.583.752.559h1.792v.748Z" stroke="#000" stroke-miterlimit="10" stroke-width="1.5"/>
      <path d="M638.398,698.071v30.193h6.913v2.822h-16.648v-2.822h6.913v-30.193h-6.913v-2.822h16.648v2.822h-6.913Z" stroke="#000" stroke-miterlimit="10" stroke-width="1.5"/>
      <path d="M672.871,716.959c.612,1.213.907,2.407.907,3.547,0,3.039-1.114,5.535-3.315,7.419-2.056,1.899-4.656,2.88-7.689,2.88h-.282c-2.859,0-5.495-1.017-7.831-3.021-1.826-1.545-2.361-2.91-2.749-3.906-.058-.145-.111-.285-.169-.419l2.593-1.113c.069.161.136.329.205.504.325.834.663,1.696,1.951,2.785,1.844,1.583,3.805,2.348,6.002,2.348h.282c2.333,0,4.236-.708,5.813-2.166,1.63-1.397,2.369-3.073,2.369-5.312,0-.694-.197-1.473-.557-2.191-.31-.506-.758-1.175-1.354-1.573-.687-.542-1.566-1.049-2.454-1.429-.575-.247-1.223-.446-1.974-.676-.416-.128-.851-.262-1.303-.412l-4.149-1.105c-2.235-.687-3.849-1.721-4.981-3.177-1.229-1.579-1.851-3.436-1.851-5.522,0-2.581,1.07-4.794,3.18-6.581,2.005-1.851,4.28-2.733,7.121-2.733h.28c2.853.165,5.234,1.143,7.162,2.909,1.464,1.301,2.351,2.857,2.691,4.739l-2.777.502c-.23-1.271-.786-2.242-1.805-3.148-1.452-1.331-3.25-2.061-5.354-2.186l-.199.003c-2.114,0-3.735.625-5.251,2.025-1.514,1.284-2.228,2.731-2.228,4.467,0,1.444.423,2.719,1.255,3.79.776.998,1.899,1.696,3.535,2.2l4.182,1.114c.512.167.924.293,1.319.415.795.244,1.545.474,2.26.78,1.125.481,2.22,1.117,3.007,1.747.962.636,1.64,1.623,2.161,2.493h-.003Z" stroke="#000" stroke-miterlimit="10" stroke-width="1.5"/>
      <path d="M716.534,703.163c.559,1.301.819,2.465.819,3.66,0,1.24-.283,2.554-.819,3.803-.472,1.097-1.249,2.236-2.134,3.12-.815.816-2.135,1.904-3.795,2.458-1.544.691-3.335.777-4.539.777h-8.04v13.968h-2.822v-34.425h10.723c1.697,0,3.179.308,4.666.968,1.528.681,2.773,1.515,3.81,2.549.885.884,1.662,2.022,2.133,3.123h0ZM713.943,709.512c.387-.9.592-1.83.592-2.689,0-.812-.183-1.597-.592-2.548-.326-.76-.914-1.618-1.535-2.239-.799-.797-1.739-1.422-2.961-1.966-1.128-.501-2.212-.725-3.52-.725h-7.9v14.814h8.04c1.525,0,2.609-.179,3.52-.584,1.016-.346,1.971-.975,2.82-1.824.622-.622,1.21-1.479,1.535-2.239h0Z" stroke="#000" stroke-miterlimit="10" stroke-width="1.5"/>
      <path d="M745.784,711.743l-.146,19.184-2.822-.021.081-10.713h-16.306v10.723h-2.822v-19.178l9.669-15.108h2.674l9.672,15.114ZM742.917,717.369l.037-4.812-8.181-12.781-8.183,12.785v4.809h16.326Z" stroke="#000" stroke-miterlimit="10" stroke-width="1.5"/>
      <path d="M766.192,716.634l8.149,13.498v.817h-2.111l-.507.306-8.622-14.278c-.062,0-.127.004-.188.004h-7.902v13.968h-2.822v-34.425h10.582c1.628,0,3.239.336,4.666.968,1.53.681,2.776,1.515,3.81,2.549.838.837,1.458,1.923,2.06,2.973l.074.15c.56,1.306.82,2.469.82,3.66,0,1.236-.283,2.55-.82,3.801-.472,1.1-1.251,2.239-2.134,3.122-.816.816-2.135,1.904-3.796,2.458-.416.186-.837.323-1.259.432h0ZM755.011,699.345v14.814h7.902c1.586,0,2.571-.165,3.518-.584,1.016-.346,1.971-.975,2.82-1.824.629-.631,1.204-1.469,1.536-2.24.387-.902.591-1.832.591-2.688,0-.788-.173-1.553-.56-2.476-.52-.908-1.009-1.754-1.566-2.312-.797-.797-1.738-1.422-2.961-1.966-1.066-.473-2.283-.725-3.52-.725h-7.761Z" stroke="#000" stroke-miterlimit="10" stroke-width="1.5"/>
      <path d="M802.77,711.743l-.146,19.184-2.822-.021.081-10.713h-16.306v10.723h-2.822v-19.178l9.669-15.108h2.674l9.672,15.114ZM799.904,717.369l.037-4.812-8.181-12.781-8.183,12.785v4.809h16.326Z" stroke="#000" stroke-miterlimit="10" stroke-width="1.5"/>
      <path d="M830.62,728.264v2.822h-21.445v-34.285h2.822v31.463h18.623Z" stroke="#000" stroke-miterlimit="10" stroke-width="1.5"/>
      <path d="M858.501,728.264v2.822h-21.445v-34.285h2.821v31.463h18.624Z" stroke="#000" stroke-miterlimit="10" stroke-width="1.5"/>
      <path d="M867.758,698.053v11.569h10.158v2.822h-10.158v15.661h18.482v2.822h-21.304v-35.695h21.304v2.822h-18.482Z" stroke="#000" stroke-miterlimit="10" stroke-width="1.5"/>
      <path d="M914.116,728.264v2.822h-21.445v-34.285h2.821v31.463h18.624Z" stroke="#000" stroke-miterlimit="10" stroke-width="1.5"/>
    </g>
  </g>
  <g id="Hold_Page_Remove__Arrows_-_Light">
    <path d="M1224.303,1139.298l1.469-12.932,240.472,31.467c-.882,28.689,21.322,53.674,50.93,55.2,27.269,1.406,51.528-18.361,55.7-45.346,4.676-30.248-16.838-58.128-46.96-61.55-27.904-3.17-53.303,15.778-58.666,42.853l-240.472-31.467,1.469-12.932-75.801,8.965,71.858,25.742ZM1474.497,1154.292c2.846-25.052,25.462-43.053,50.514-40.207,25.052,2.846,43.053,25.462,40.207,50.514-2.846,25.052-25.462,43.053-50.514,40.207-25.052-2.846-43.053-25.462-40.207-50.514Z" stroke="#fff" stroke-miterlimit="10" stroke-width="2"/>
    <path d="M1526.379,1185.316v4.607h-14.744v-4.607h5.068v-47.279l-3.601,2.981-2.938-3.55,7.319-6.057h3.826v53.904h5.068Z" fill="#ff8500" stroke="#ff8500" stroke-miterlimit="10"/>
  </g>
  <g id="Layer_45">
    <path d="M1654.502,1.059l67.862,34.943,3.152-12.628,255.668,69.654c-1.232,4.506-1.902,9.241-1.902,14.132,0,29.584,24.068,53.652,53.652,53.652s53.652-24.068,53.652-53.652-24.068-53.652-53.652-53.652c-21.544,0-40.151,12.771-48.68,31.134L1727.671,14.739l3.152-12.628-76.322-1.052ZM2032.933,61.507c25.213,0,45.652,20.439,45.652,45.652s-20.439,45.652-45.652,45.652c-25.213,0-45.652-20.439-45.652-45.652,0-25.213,20.439-45.652,45.652-45.652Z" fill="#ccc" stroke="#0d121e" stroke-miterlimit="10" stroke-width="2"/>
    <path d="M1714.022,70.036c-28.198-8.949-58.419,6.712-67.368,34.909-8.949,28.198,6.712,58.419,34.91,67.368,26.768,8.495,55.346-5.196,65.832-30.728l209.106,66.361-3.937,12.405,76.106,5.829-65.54-39.123-3.937,12.405-209.107-66.361c6.156-26.906-9.297-54.571-36.066-63.066ZM1683.984,164.688c-24.032-7.627-37.331-33.291-29.704-57.323,7.627-24.032,33.291-37.331,57.323-29.704,24.032,7.627,37.331,33.291,29.704,57.323-7.627,24.032-33.291,37.331-57.323,29.704Z" stroke="#fff" stroke-miterlimit="10" stroke-width="2"/>
  </g>
  <g id="Brackets">
    <g>
      <rect x="1644.988" y="268.906" width="196.938" height="52.826" fill="none"/>
      <path d="M1662.745,275.177v37.593h12.121v3.514h-15.635v-44.62h15.635v3.513h-12.121Z" stroke="#000" stroke-miterlimit="10" stroke-width="1.5"/>
      <path d="M1680.347,304.219v-2.822h11.43v2.822h-11.43Z" stroke="#000" stroke-miterlimit="10" stroke-width="1.5"/>
      <path d="M1698.182,304.219v-2.822h11.43v2.822h-11.43Z" stroke="#000" stroke-miterlimit="10" stroke-width="1.5"/>
      <path d="M1716.017,296.459c0-1.636,1.264-2.963,2.822-2.963s2.822,1.327,2.822,2.963-1.264,2.963-2.822,2.963-2.822-1.326-2.822-2.963ZM1716.017,312.966c0-1.636,1.264-2.963,2.822-2.963s2.822,1.327,2.822,2.963-1.264,2.963-2.822,2.963-2.822-1.326-2.822-2.963Z" stroke="#000" stroke-miterlimit="10" stroke-width="1.5"/>
      <path d="M1728.072,304.219v-2.822h11.43v2.822h-11.43Z" stroke="#000" stroke-miterlimit="10" stroke-width="1.5"/>
      <path d="M1745.907,304.219v-2.822h11.43v2.822h-11.43Z" stroke="#000" stroke-miterlimit="10" stroke-width="1.5"/>
      <path d="M1763.742,296.459c0-1.636,1.264-2.963,2.822-2.963s2.822,1.327,2.822,2.963-1.264,2.963-2.822,2.963-2.822-1.326-2.822-2.963ZM1763.742,312.966c0-1.636,1.264-2.963,2.822-2.963s2.822,1.327,2.822,2.963-1.264,2.963-2.822,2.963-2.822-1.326-2.822-2.963Z" stroke="#000" stroke-miterlimit="10" stroke-width="1.5"/>
      <path d="M1775.795,304.219v-2.822h11.43v2.822h-11.43Z" stroke="#000" stroke-miterlimit="10" stroke-width="1.5"/>
      <path d="M1793.63,304.219v-2.822h11.43v2.822h-11.43Z" stroke="#000" stroke-miterlimit="10" stroke-width="1.5"/>
      <path d="M1827.701,271.481v44.62h-15.634v-3.514h12.121v-37.593h-12.121v-3.514h15.634Z" stroke="#000" stroke-miterlimit="10" stroke-width="1.5"/>
    </g>
  </g>
</svg>