<?xml version="1.0" encoding="UTF-8"?>
<svg xmlns="http://www.w3.org/2000/svg" width="1569.543" height="737.902" viewBox="0 0 1569.543 737.902">
  <g id="Highlight_Dedicated_Keys_-_Dark">
    <rect x="583.106" y="420.771" width="83" height="91" rx="1.738" ry="1.738" fill="none" stroke="#ccc" stroke-miterlimit="10" stroke-width="5"/>
    <rect x="574.106" y="411.271" width="101" height="110" rx="5.276" ry="5.276" fill="none" stroke="#ccc" stroke-miterlimit="10" stroke-width="5"/>
    <rect x="707.106" y="420.771" width="83" height="91" rx="1.738" ry="1.738" fill="none" stroke="#ccc" stroke-miterlimit="10" stroke-width="5"/>
    <rect x="698.106" y="411.271" width="101" height="110" rx="5.276" ry="5.276" fill="none" stroke="#ccc" stroke-miterlimit="10" stroke-width="5"/>
    <rect x="828.845" y="420.771" width="83" height="91" rx="1.738" ry="1.738" fill="none" stroke="#ccc" stroke-miterlimit="10" stroke-width="5"/>
    <rect x="819.845" y="411.271" width="101" height="110" rx="5.276" ry="5.276" fill="none" stroke="#ccc" stroke-miterlimit="10" stroke-width="5"/>
    <rect x="956.106" y="420.771" width="83" height="91" rx="1.738" ry="1.738" fill="none" stroke="#ccc" stroke-miterlimit="10" stroke-width="5"/>
    <rect x="947.106" y="411.271" width="101" height="110" rx="5.276" ry="5.276" fill="none" stroke="#ccc" stroke-miterlimit="10" stroke-width="5"/>
    <rect x="1076.106" y="420.771" width="83" height="91" rx="1.738" ry="1.738" fill="none" stroke="#ccc" stroke-miterlimit="10" stroke-width="5"/>
    <rect x="1067.106" y="411.271" width="101" height="110" rx="5.276" ry="5.276" fill="none" stroke="#ccc" stroke-miterlimit="10" stroke-width="5"/>
    <g>
      <rect x="591.15" y="433.793" width="66.913" height="64.957" fill="none"/>
      <path d="M604.702,454.418v22.182h5.079v2.072h-12.231v-2.072h5.079v-22.182h-5.079v-2.073h12.231v2.073h-5.079Z" fill="#ccc" stroke="#ccc" stroke-miterlimit="10" stroke-width="2"/>
      <path d="M630.675,461.867v7.151c0,1.419-.242,2.771-.697,3.909-.432,1.193-1.105,2.262-1.99,3.146-.668.784-1.524,1.399-2.494,1.772-.956.471-1.933.708-2.903.708h-8.085v-26.327h8.085c1.071,0,2.07.238,3.055.73,1.017.509,1.833,1.134,2.501,1.911.661.658,1.261,1.657,1.833,3.089.472,1.296.696,2.564.696,3.909ZM628.602,461.867c0-1.113-.179-2.121-.56-3.17-.453-1.131-.907-1.909-1.418-2.42-.545-.631-1.134-1.077-1.907-1.465-.699-.35-1.375-.513-2.127-.513h-6.012v22.182h6.012c.663,0,1.344-.173,2.024-.513l.099-.044c.67-.249,1.243-.662,1.754-1.258.723-.728,1.233-1.541,1.575-2.479.364-.913.56-2.027.56-3.17v-7.151Z" fill="#ccc" stroke="#ccc" stroke-miterlimit="10" stroke-width="2"/>
      <path d="M651.658,478.078v.493h-1.385l-.541.324-6.165-10.336-6.26,10.342-.543-.33h-1.38v-.496l7.073-11.686-6.762-11.373v-.596h1.56l.367-.219,5.944,9.995,5.849-9.989.364.213h1.567v.592l-6.661,11.377,6.972,11.688Z" fill="#ccc" stroke="#ccc" stroke-miterlimit="10" stroke-width="2"/>
    </g>
    <g>
      <rect x="715.15" y="433.793" width="66.913" height="64.957" fill="none"/>
      <path d="M718.853,457.546v6.849h5.43v1.671h-5.43v10.106h-1.671v-20.297h12.613v1.671h-10.942Z" fill="#ccc" stroke="#ccc" stroke-miterlimit="10" stroke-width="2"/>
      <path d="M746.224,459.729c.331.771.485,1.459.485,2.167,0,.734-.168,1.512-.485,2.251-.279.649-.739,1.324-1.263,1.848-.483.482-1.265,1.127-2.247,1.455-.914.409-1.975.46-2.688.46h-4.76v8.27h-1.671v-20.381h6.348c1.005,0,1.883.182,2.763.573.905.403,1.643.896,2.256,1.509.523.523.983,1.197,1.263,1.849h0ZM744.691,463.488c.229-.532.35-1.083.35-1.592,0-.48-.107-.946-.35-1.509-.193-.45-.542-.958-.909-1.325-.473-.472-1.03-.842-1.753-1.164-.668-.297-1.31-.43-2.084-.43h-4.677v8.771h4.76c.903,0,1.545-.106,2.083-.347.602-.204,1.167-.577,1.67-1.079.368-.369.717-.876.909-1.326h0Z" fill="#ccc" stroke="#ccc" stroke-miterlimit="10" stroke-width="2"/>
      <path d="M763.199,474.59v1.671h-12.696v-20.297h1.671v18.626h11.025Z" fill="#ccc" stroke="#ccc" stroke-miterlimit="10" stroke-width="2"/>
      <path d="M780.034,455.767v20.398h-1.657l-9.702-17.186v17.172h-1.671v-20.298h1.824l9.536,16.89v-16.977h1.67Z" fill="#ccc" stroke="#ccc" stroke-miterlimit="10" stroke-width="2"/>
    </g>
    <g>
      <rect x="836.889" y="434.054" width="66.913" height="64.435" fill="none"/>
      <path d="M850.972,459.729c.331.77.485,1.459.485,2.167,0,.734-.168,1.512-.485,2.251-.278.649-.738,1.324-1.263,1.847-.482.483-1.264,1.127-2.247,1.456-.913.409-1.975.46-2.687.46h-4.761v8.269h-1.671v-20.381h6.349c1.005,0,1.882.182,2.763.573.904.403,1.642.897,2.255,1.509.523.523.984,1.197,1.263,1.849h0ZM849.439,463.488c.229-.533.351-1.083.351-1.592,0-.48-.108-.946-.351-1.508-.193-.45-.541-.958-.909-1.326-.473-.472-1.029-.842-1.753-1.164-.667-.297-1.31-.429-2.083-.429h-4.678v8.771h4.761c.902,0,1.544-.106,2.083-.346.602-.205,1.167-.577,1.67-1.08.368-.369.716-.875.908-1.326h0Z" fill="#ccc" stroke="#ccc" stroke-miterlimit="10" stroke-width="2"/>
      <path d="M863.541,467.704l4.825,7.991v.483h-1.251l-.3.182-5.104-8.453c-.036,0-.075.002-.11.002h-4.679v8.269h-1.671v-20.381h6.265c.964,0,1.918.199,2.763.573.906.403,1.644.897,2.255,1.509.496.496.863,1.139,1.22,1.76l.044.089c.331.773.485,1.462.485,2.167,0,.732-.168,1.51-.485,2.25-.279.651-.741,1.326-1.264,1.848-.482.483-1.264,1.127-2.247,1.456-.246.11-.495.191-.745.255h0ZM856.922,457.469v8.771h4.679c.938,0,1.522-.098,2.082-.346.602-.205,1.167-.577,1.67-1.08.372-.374.713-.87.909-1.327.229-.534.35-1.084.35-1.591,0-.466-.103-.919-.331-1.466-.308-.537-.598-1.038-.927-1.368-.473-.472-1.029-.842-1.754-1.164-.631-.28-1.352-.429-2.083-.429h-4.595Z" fill="#ccc" stroke="#ccc" stroke-miterlimit="10" stroke-width="2"/>
      <path d="M884.6,458.596c.385.772.589,1.653.589,2.546v9.104c0,.894-.204,1.774-.589,2.545-.362.725-.908,1.403-1.624,2.016-.639.533-1.325.895-2.049,1.083-.659.24-1.371.362-2.17.37h-.083c-.894-.007-1.605-.127-2.298-.387-.756-.284-1.426-.668-1.997-1.143-.724-.621-1.271-1.299-1.632-2.022-.386-.771-.59-1.651-.59-2.545v-9.104c0-.894.205-1.774.59-2.545.361-.725.909-1.402,1.624-2.016.638-.532,1.324-.894,2.048-1.083.681-.249,1.419-.371,2.254-.371.896,0,1.698.13,2.382.388.754.282,1.424.667,1.996,1.143.635.543,1.138,1.204,1.548,2.021h0ZM883.517,470.245v-9.104c0-.635-.143-1.257-.413-1.798-.312-.624-.671-1.099-1.133-1.494-.417-.347-.927-.637-1.503-.854-.49-.184-1.11-.281-1.795-.281-.657,0-1.202.089-1.712.281l-.091.028c-.494.124-.973.376-1.421.75-.536.459-.946.962-1.208,1.486-.271.541-.413,1.163-.413,1.798v9.104c0,.636.144,1.258.413,1.798.261.523.671,1.026,1.217,1.494.417.347.927.637,1.504.854.508.19,1.049.277,1.751.281.639-.003,1.17-.093,1.672-.281l.091-.028c.494-.124.973-.376,1.422-.75.535-.459.945-.962,1.207-1.486.27-.54.413-1.162.413-1.797h0Z" fill="#ccc" stroke="#ccc" stroke-miterlimit="10" stroke-width="2"/>
      <path d="M896.329,464.807h6.014v6.014c0,.627,0,1.576-.544,2.447l-.074.113c-.327.493-.664,1.002-1.444,1.489-.386.292-1.329.746-1.986.993-.695.26-1.501.388-2.465.388s-1.771-.127-2.465-.388c-.854-.321-1.554-.705-2.079-1.143-.738-.552-1.222-1.229-1.647-1.825l-.069-.115c-.386-.771-.59-1.651-.59-2.545v-9.188c0-1.02.22-1.827.712-2.615.394-.796,1.143-1.495,1.668-1.946.619-.516,1.365-.795,2.087-1.066.696-.262,1.503-.389,2.467-.389s1.771.127,2.465.388c.646.242,1.333.57,2.043.975l.087.057c.857.644,1.475,1.334,1.832,2.049l-1.494.748c-.235-.471-.673-.951-1.3-1.428-.608-.344-1.214-.632-1.754-.835-.505-.189-1.118-.281-1.879-.281s-1.375.091-1.878.28c-.621.233-1.206.452-1.598.779-.405.349-.994.892-1.29,1.486-.36.583-.497,1.1-.497,1.798v9.188c0,.614.134,1.215.386,1.743.378.527.74,1.023,1.285,1.432.409.339.962.637,1.63.888.505.19,1.118.282,1.879.282s1.374-.092,1.878-.281c.637-.239,1.386-.622,1.63-.805.53-.336.716-.614.995-1.036l.063-.096c.277-.444.277-1.027.277-1.541v-4.344h-4.344v-1.669Z" fill="#ccc" stroke="#ccc" stroke-miterlimit="10" stroke-width="2"/>
    </g>
    <g>
      <rect x="964.15" y="433.793" width="66.913" height="64.957" fill="none"/>
      <path d="M987.325,462.111v6.755c0,1.34-.229,2.616-.658,3.691-.408,1.127-1.044,2.136-1.879,2.972-.632.74-1.44,1.322-2.356,1.675-.903.444-1.825.668-2.742.668h-7.636v-24.865h7.636c1.012,0,1.956.225,2.885.69.96.48,1.731,1.07,2.362,1.805.625.622,1.191,1.565,1.731,2.917.445,1.224.657,2.422.657,3.692ZM985.367,462.111c0-1.052-.168-2.003-.528-2.994-.428-1.068-.856-1.803-1.34-2.286-.514-.595-1.069-1.017-1.801-1.383-.66-.33-1.298-.483-2.009-.483h-5.678v20.949h5.678c.626,0,1.27-.163,1.912-.484l.094-.041c.632-.236,1.174-.626,1.656-1.188.683-.688,1.165-1.456,1.487-2.341.345-.862.528-1.915.528-2.993v-6.755Z" fill="#ccc" stroke="#ccc" stroke-miterlimit="10" stroke-width="2"/>
      <path d="M998.528,455.075v20.95h4.797v1.958h-11.552v-1.958h4.797v-20.95h-4.797v-1.958h11.552v1.958h-4.797Z" fill="#ccc" stroke="#ccc" stroke-miterlimit="10" stroke-width="2"/>
      <path d="M1017.503,467.955l5.654,9.366v.566h-1.465l-.352.213-5.982-9.907c-.043,0-.088.003-.131.003h-5.483v9.691h-1.957v-23.887h7.342c1.13,0,2.248.233,3.237.672,1.062.473,1.927,1.052,2.644,1.769.581.581,1.012,1.335,1.429,2.063l.052.104c.389.906.569,1.713.569,2.539,0,.858-.196,1.77-.569,2.638-.327.764-.868,1.554-1.48,2.166-.566.566-1.481,1.321-2.634,1.706-.289.129-.58.224-.873.299h0ZM1009.745,455.959v10.279h5.483c1.101,0,1.785-.114,2.441-.405.704-.24,1.367-.677,1.956-1.266.437-.438.836-1.02,1.066-1.555.269-.626.41-1.271.41-1.865,0-.546-.12-1.077-.389-1.718-.36-.63-.7-1.217-1.087-1.604-.553-.553-1.206-.987-2.055-1.364-.74-.328-1.584-.503-2.441-.503h-5.386Z" fill="#ccc" stroke="#ccc" stroke-miterlimit="10" stroke-width="2"/>
    </g>
    <g>
      <rect x="1084.15" y="433.793" width="66.913" height="64.957" fill="none"/>
      <path d="M1098.85,455.881v20.298h-1.671v-16.999l-3.936,7.06h-1.816l-3.937-7.06v16.999h-1.671v-20.298h1.743l4.772,8.557,4.771-8.557h1.743Z" fill="#ccc" stroke="#ccc" stroke-miterlimit="10" stroke-width="2"/>
      <path d="M1115.673,464.808l-.086,11.357-1.671-.013.048-6.342h-9.653v6.348h-1.671v-11.354l5.725-8.944h1.583l5.726,8.947ZM1113.977,468.139l.021-2.849-4.843-7.567-4.845,7.569v2.847h9.666Z" fill="#ccc" stroke="#ccc" stroke-miterlimit="10" stroke-width="2"/>
      <path d="M1127.749,467.705l4.825,7.991v.483h-1.251l-.3.182-5.104-8.453c-.036,0-.075.002-.11.002h-4.679v8.27h-1.671v-20.381h6.265c.964,0,1.918.199,2.763.573.906.403,1.644.896,2.255,1.509.496.496.863,1.139,1.22,1.76l.044.089c.331.773.485,1.462.485,2.167,0,.731-.168,1.51-.485,2.25-.279.651-.741,1.326-1.264,1.849-.482.482-1.264,1.127-2.247,1.455-.246.11-.495.191-.745.256h0ZM1121.13,457.468v8.771h4.679c.938,0,1.522-.099,2.082-.347.602-.204,1.167-.577,1.67-1.079.372-.374.713-.87.909-1.327.229-.533.35-1.084.35-1.591,0-.467-.103-.92-.331-1.466-.308-.537-.598-1.038-.927-1.368-.473-.472-1.029-.842-1.754-1.164-.631-.28-1.352-.43-2.083-.43h-4.595Z" fill="#ccc" stroke="#ccc" stroke-miterlimit="10" stroke-width="2"/>
      <path d="M1149.397,475.694v.479h-1.261l-.294.173-6.967-11.843-2.838,3.061v8.442h-1.671v-19.462h1.671v8.562l8.158-8.796.252.234h1.195v.662l-5.581,6.019,7.335,12.47Z" fill="#ccc" stroke="#ccc" stroke-miterlimit="10" stroke-width="2"/>
    </g>
    <rect x="765.208" y="274.652" width="83" height="91" rx="1.738" ry="1.738" fill="none" stroke="#ccc" stroke-miterlimit="10" stroke-width="5"/>
    <rect x="756.208" y="265.152" width="101" height="110" rx="5.276" ry="5.276" fill="none" stroke="#ccc" stroke-miterlimit="10" stroke-width="5"/>
    <rect x="892.584" y="274.652" width="83" height="91" rx="1.738" ry="1.738" fill="none" stroke="#ccc" stroke-miterlimit="10" stroke-width="5"/>
    <rect x="883.584" y="265.152" width="101" height="110" rx="5.276" ry="5.276" fill="none" stroke="#ccc" stroke-miterlimit="10" stroke-width="5"/>
    <g>
      <rect x="770.462" y="288.292" width="72.492" height="64.957" fill="none"/>
      <path d="M781.997,322.203l4.825,7.991v.483h-1.251l-.3.182-5.104-8.453c-.036,0-.075.002-.11.002h-4.679v8.269h-1.671v-20.381h6.265c.964,0,1.918.199,2.763.573.906.403,1.644.897,2.255,1.509.496.496.863,1.139,1.22,1.76l.044.089c.331.773.485,1.462.485,2.167,0,.732-.168,1.51-.485,2.25-.279.651-.741,1.326-1.264,1.848-.482.483-1.264,1.127-2.247,1.456-.246.11-.495.191-.745.255h0ZM775.378,311.967v8.771h4.679c.938,0,1.522-.098,2.082-.346.602-.205,1.167-.577,1.67-1.08.372-.374.713-.87.909-1.327.229-.534.35-1.084.35-1.591,0-.466-.103-.919-.331-1.466-.308-.537-.598-1.038-.927-1.368-.473-.472-1.029-.842-1.754-1.164-.631-.28-1.352-.429-2.083-.429h-4.595Z" fill="#ccc" stroke="#ccc" stroke-miterlimit="10" stroke-width="2"/>
      <path d="M803.645,310.266v20.398h-1.657l-9.702-17.186v17.172h-1.671v-20.297h1.824l9.536,16.889v-16.976h1.67Z" fill="#ccc" stroke="#ccc" stroke-miterlimit="10" stroke-width="2"/>
      <path d="M820.467,319.307l-.086,11.357-1.671-.013.048-6.342h-9.653v6.348h-1.671v-11.354l5.725-8.944h1.583l5.726,8.947ZM818.771,322.638l.021-2.849-4.843-7.567-4.845,7.569v2.847h9.666Z" fill="#ccc" stroke="#ccc" stroke-miterlimit="10" stroke-width="2"/>
      <path d="M839.707,310.375v4.561l-13.14,15.82h-2.313v-20.381h1.671v18.54l12.111-14.583v-3.957h1.671Z" fill="#ccc" stroke="#ccc" stroke-miterlimit="10" stroke-width="2"/>
    </g>
    <g>
      <rect x="900.628" y="288.292" width="66.913" height="64.957" fill="none"/>
      <path d="M915.675,322.398c.363.718.537,1.425.537,2.1,0,1.799-.659,3.276-1.963,4.393-1.217,1.124-2.756,1.705-4.552,1.705h-.167c-1.693,0-3.254-.603-4.637-1.788-1.081-.915-1.397-1.723-1.627-2.312-.034-.086-.066-.169-.101-.248l1.535-.659c.041.096.08.194.121.298.193.494.393,1.005,1.155,1.649,1.092.938,2.253,1.39,3.554,1.39h.167c1.381,0,2.508-.419,3.441-1.282.965-.827,1.403-1.819,1.403-3.145,0-.411-.117-.872-.33-1.297-.184-.3-.449-.696-.802-.932-.406-.321-.928-.621-1.453-.847-.341-.146-.724-.264-1.168-.399-.247-.076-.504-.155-.771-.244l-2.456-.654c-1.324-.406-2.279-1.019-2.95-1.881-.728-.935-1.096-2.034-1.096-3.27,0-1.527.634-2.838,1.883-3.896,1.188-1.096,2.534-1.618,4.216-1.618h.166c1.689.098,3.099.677,4.24,1.723.867.771,1.392,1.691,1.594,2.806l-1.645.298c-.137-.753-.466-1.328-1.068-1.864-.859-.787-1.924-1.22-3.17-1.294l-.118.002c-1.252,0-2.212.37-3.108,1.198-.896.761-1.319,1.617-1.319,2.645,0,.855.251,1.61.743,2.244.46.591,1.125,1.004,2.093,1.302l2.476.66c.304.099.547.174.781.245.471.145.914.281,1.338.462.666.285,1.313.662,1.78,1.034.569.377.971.961,1.279,1.477h-.002Z" fill="#ccc" stroke="#ccc" stroke-miterlimit="10" stroke-width="2"/>
      <path d="M932.209,312.083h-5.262v18.627h-1.671v-18.627h-5.263v-1.671h12.195v1.671Z" fill="#ccc" stroke="#ccc" stroke-miterlimit="10" stroke-width="2"/>
      <path d="M949.026,319.309l-.086,11.357-1.671-.013.048-6.342h-9.653v6.348h-1.671v-11.354l5.725-8.944h1.583l5.726,8.947ZM947.33,322.64l.021-2.849-4.843-7.567-4.845,7.569v2.847h9.666Z" fill="#ccc" stroke="#ccc" stroke-miterlimit="10" stroke-width="2"/>
      <path d="M965.008,312.083h-5.262v18.627h-1.671v-18.627h-5.263v-1.671h12.195v1.671Z" fill="#ccc" stroke="#ccc" stroke-miterlimit="10" stroke-width="2"/>
    </g>
    <rect x="1318.893" y="100.065" width="83" height="91" rx="1.738" ry="1.738" fill="none" stroke="#ccc" stroke-miterlimit="10" stroke-width="5"/>
    <rect x="1309.893" y="90.565" width="101" height="110" rx="16.531" ry="16.531" fill="none" stroke="#ccc" stroke-miterlimit="10" stroke-width="5"/>
    <g>
      <rect x="1326.937" y="111.913" width="66.913" height="64.957" fill="none"/>
      <path d="M1341.883,134.002v20.297h-1.67v-16.999l-3.936,7.059h-1.816l-3.938-7.059v16.999h-1.67v-20.297h1.742l4.773,8.556,4.771-8.556h1.742Z" fill="#ccc" stroke="#ccc" stroke-miterlimit="10" stroke-width="2"/>
      <path d="M1347.344,134.824v6.849h6.014v1.67h-6.014v9.272h10.943v1.67h-12.613v-21.133h12.613v1.671h-10.943Z" fill="#ccc" stroke="#ccc" stroke-miterlimit="10" stroke-width="2"/>
      <path d="M1375.118,133.888v20.398h-1.658l-9.701-17.186v17.172h-1.672v-20.297h1.824l9.537,16.889v-16.976h1.67Z" fill="#ccc" stroke="#ccc" stroke-miterlimit="10" stroke-width="2"/>
      <path d="M1391.938,133.997v14.449c0,.924-.215,1.813-.611,2.503-.338.682-.885,1.36-1.602,1.974-.604.504-1.254.783-1.885,1.053-.73.274-1.48.402-2.334.402-.895,0-1.697-.13-2.381-.388-.754-.282-1.426-.667-1.996-1.142-.607-.522-1.219-1.111-1.633-1.939-.396-.792-.59-1.599-.59-2.461v-14.45h1.672v14.45c0,.606.131,1.151.412,1.714.266.533.68.948,1.217,1.41.418.348.928.637,1.504.854.49.185,1.111.282,1.795.282.656,0,1.199-.089,1.711-.281.508-.219,1.021-.439,1.428-.778.537-.461.947-.963,1.209-1.486.27-.476.414-1.086.414-1.714v-14.45h1.67Z" fill="#ccc" stroke="#ccc" stroke-miterlimit="10" stroke-width="2"/>
    </g>
    <g>
      <path d="M369.916,474.584c.607-.504,1.133-1.144,1.607-1.98l1.696,1.167c-.602,1.059-1.305,1.913-2.148,2.611-.706.52-1.582,1.002-2.449,1.361-.987.362-1.889.511-3.054.511-1.239,0-2.208-.162-3.053-.51-.868-.318-1.66-.772-2.531-1.457-.866-.594-1.616-1.509-2.114-2.606-.462-1.015-.706-2.176-.706-3.355v-12.002c0-1.393.407-2.479.806-3.355.648-1.151,1.351-2.004,2.195-2.701.704-.519,1.58-1.002,2.449-1.361.982-.361,1.886-.51,3.053-.51,1.24,0,2.209.163,3.053.511.867.317,1.659.77,2.531,1.456.94.777,1.646,1.686,2.114,2.716l-1.79.985c-.328-.723-.835-1.371-1.506-1.925-.693-.545-1.303-.895-2.017-1.157-.647-.267-1.395-.384-2.386-.384-.951,0-1.643.111-2.385.384-.697.289-1.425.688-1.962,1.083-.607.503-1.133,1.144-1.608,1.98-.31.694-.548,1.398-.548,2.279v12.001c0,.839.171,1.658.494,2.37.339.747.822,1.339,1.437,1.762.764.598,1.372.949,2.087,1.211.647.267,1.395.384,2.386.384.949,0,1.641-.111,2.385-.384.695-.287,1.424-.688,1.962-1.082l.002-.002Z" fill="#ccc" stroke="#ccc" stroke-miterlimit="10" stroke-width="2"/>
      <path d="M393.117,476.288v2.202h-15.207v-26.757h2.001v24.555h13.206Z" fill="#ccc" stroke="#ccc" stroke-miterlimit="10" stroke-width="2"/>
      <path d="M407.611,467.211l5.778,10.535v.637h-1.497l-.359.239-6.113-11.143c-.045,0-.091.003-.134.003h-5.604v10.901h-2.001v-26.867h7.504c1.154,0,2.297.262,3.309.756,1.085.531,1.969,1.182,2.701,1.989.594.653,1.034,1.501,1.461,2.32l.053.117c.396,1.02.581,1.927.581,2.856,0,.965-.201,1.99-.581,2.967-.335.859-.888,1.748-1.514,2.437-.578.637-1.514,1.485-2.691,1.918-.295.145-.594.252-.893.337h0ZM399.682,453.718v11.562h5.604c1.125,0,1.824-.129,2.494-.456.721-.27,1.397-.761,2-1.423.446-.493.854-1.146,1.09-1.749.274-.704.419-1.429.419-2.098,0-.614-.123-1.212-.397-1.932-.368-.708-.715-1.369-1.11-1.804-.565-.622-1.232-1.11-2.1-1.535-.757-.369-1.619-.565-2.495-.565h-5.504Z" fill="#ccc" stroke="#ccc" stroke-miterlimit="10" stroke-width="2"/>
    </g>
    <rect x="345.152" y="420.771" width="83" height="91" rx="1.738" ry="1.738" fill="none" stroke="#ccc" stroke-miterlimit="10" stroke-width="5"/>
    <rect x="336.152" y="411.271" width="101" height="110" rx="5.276" ry="5.276" fill="none" stroke="#ccc" stroke-miterlimit="10" stroke-width="5"/>
  </g>
  <g id="Highlight_Dedicated_Keys_-_Light">
    <rect x="583.106" y="420.771" width="83" height="91" rx="1.738" ry="1.738" fill="none" stroke="#000" stroke-miterlimit="10" stroke-width="5"/>
    <rect x="574.106" y="411.271" width="101" height="110" rx="5.276" ry="5.276" fill="none" stroke="#000" stroke-miterlimit="10" stroke-width="5"/>
    <rect x="707.106" y="420.771" width="83" height="91" rx="1.738" ry="1.738" fill="none" stroke="#000" stroke-miterlimit="10" stroke-width="5"/>
    <rect x="698.106" y="411.271" width="101" height="110" rx="5.276" ry="5.276" fill="none" stroke="#000" stroke-miterlimit="10" stroke-width="5"/>
    <rect x="828.845" y="420.771" width="83" height="91" rx="1.738" ry="1.738" fill="none" stroke="#000" stroke-miterlimit="10" stroke-width="5"/>
    <rect x="819.845" y="411.271" width="101" height="110" rx="5.276" ry="5.276" fill="none" stroke="#000" stroke-miterlimit="10" stroke-width="5"/>
    <rect x="956.106" y="420.771" width="83" height="91" rx="1.738" ry="1.738" fill="none" stroke="#000" stroke-miterlimit="10" stroke-width="5"/>
    <rect x="947.106" y="411.271" width="101" height="110" rx="5.276" ry="5.276" fill="none" stroke="#000" stroke-miterlimit="10" stroke-width="5"/>
    <rect x="1076.106" y="420.771" width="83" height="91" rx="1.738" ry="1.738" fill="none" stroke="#000" stroke-miterlimit="10" stroke-width="5"/>
    <rect x="1067.106" y="411.271" width="101" height="110" rx="5.276" ry="5.276" fill="none" stroke="#000" stroke-miterlimit="10" stroke-width="5"/>
    <g>
      <rect x="591.15" y="433.793" width="66.913" height="64.957" fill="none"/>
      <path d="M604.702,454.418v22.182h5.079v2.072h-12.231v-2.072h5.079v-22.182h-5.079v-2.073h12.231v2.073h-5.079Z" fill="#ccc" stroke="#000" stroke-miterlimit="10" stroke-width="2"/>
      <path d="M630.675,461.867v7.151c0,1.419-.242,2.771-.697,3.909-.432,1.193-1.105,2.262-1.99,3.146-.668.784-1.524,1.399-2.494,1.772-.956.471-1.933.708-2.903.708h-8.085v-26.327h8.085c1.071,0,2.07.238,3.055.73,1.017.509,1.833,1.134,2.501,1.911.661.658,1.261,1.657,1.833,3.089.472,1.296.696,2.564.696,3.909ZM628.602,461.867c0-1.113-.179-2.121-.56-3.17-.453-1.131-.907-1.909-1.418-2.42-.545-.631-1.134-1.077-1.907-1.465-.699-.35-1.375-.513-2.127-.513h-6.012v22.182h6.012c.663,0,1.344-.173,2.024-.513l.099-.044c.67-.249,1.243-.662,1.754-1.258.723-.728,1.233-1.541,1.575-2.479.364-.913.56-2.027.56-3.17v-7.151Z" fill="#ccc" stroke="#000" stroke-miterlimit="10" stroke-width="2"/>
      <path d="M651.658,478.078v.493h-1.385l-.541.324-6.165-10.336-6.26,10.342-.543-.33h-1.38v-.496l7.073-11.686-6.762-11.373v-.596h1.56l.367-.219,5.944,9.995,5.849-9.989.364.213h1.567v.592l-6.661,11.377,6.972,11.688Z" fill="#ccc" stroke="#000" stroke-miterlimit="10" stroke-width="2"/>
    </g>
    <g>
      <rect x="715.15" y="433.793" width="66.913" height="64.957" fill="none"/>
      <path d="M718.853,457.546v6.849h5.43v1.671h-5.43v10.106h-1.671v-20.297h12.613v1.671h-10.942Z" fill="#ccc" stroke="#000" stroke-miterlimit="10" stroke-width="2"/>
      <path d="M746.224,459.729c.331.771.485,1.459.485,2.167,0,.734-.168,1.512-.485,2.251-.279.649-.739,1.324-1.263,1.848-.483.482-1.265,1.127-2.247,1.455-.914.409-1.975.46-2.688.46h-4.76v8.27h-1.671v-20.381h6.348c1.005,0,1.883.182,2.763.573.905.403,1.643.896,2.256,1.509.523.523.983,1.197,1.263,1.849h0ZM744.691,463.488c.229-.532.35-1.083.35-1.592,0-.48-.107-.946-.35-1.509-.193-.45-.542-.958-.909-1.325-.473-.472-1.03-.842-1.753-1.164-.668-.297-1.31-.43-2.084-.43h-4.677v8.771h4.76c.903,0,1.545-.106,2.083-.347.602-.204,1.167-.577,1.67-1.079.368-.369.717-.876.909-1.326h0Z" fill="#ccc" stroke="#000" stroke-miterlimit="10" stroke-width="2"/>
      <path d="M763.199,474.59v1.671h-12.696v-20.297h1.671v18.626h11.025Z" fill="#ccc" stroke="#000" stroke-miterlimit="10" stroke-width="2"/>
      <path d="M780.034,455.767v20.398h-1.657l-9.702-17.186v17.172h-1.671v-20.298h1.824l9.536,16.89v-16.977h1.67Z" fill="#ccc" stroke="#000" stroke-miterlimit="10" stroke-width="2"/>
    </g>
    <g>
      <rect x="836.889" y="434.054" width="66.913" height="64.435" fill="none"/>
      <path d="M850.972,459.729c.331.77.485,1.459.485,2.167,0,.734-.168,1.512-.485,2.251-.278.649-.738,1.324-1.263,1.847-.482.483-1.264,1.127-2.247,1.456-.913.409-1.975.46-2.687.46h-4.761v8.269h-1.671v-20.381h6.349c1.005,0,1.882.182,2.763.573.904.403,1.642.897,2.255,1.509.523.523.984,1.197,1.263,1.849h0ZM849.439,463.488c.229-.533.351-1.083.351-1.592,0-.48-.108-.946-.351-1.508-.193-.45-.541-.958-.909-1.326-.473-.472-1.029-.842-1.753-1.164-.667-.297-1.31-.429-2.083-.429h-4.678v8.771h4.761c.902,0,1.544-.106,2.083-.346.602-.205,1.167-.577,1.67-1.08.368-.369.716-.875.908-1.326h0Z" fill="#ccc" stroke="#000" stroke-miterlimit="10" stroke-width="2"/>
      <path d="M863.541,467.704l4.825,7.991v.483h-1.251l-.3.182-5.104-8.453c-.036,0-.075.002-.11.002h-4.679v8.269h-1.671v-20.381h6.265c.964,0,1.918.199,2.763.573.906.403,1.644.897,2.255,1.509.496.496.863,1.139,1.22,1.76l.044.089c.331.773.485,1.462.485,2.167,0,.732-.168,1.51-.485,2.25-.279.651-.741,1.326-1.264,1.848-.482.483-1.264,1.127-2.247,1.456-.246.11-.495.191-.745.255h0ZM856.922,457.469v8.771h4.679c.938,0,1.522-.098,2.082-.346.602-.205,1.167-.577,1.67-1.08.372-.374.713-.87.909-1.327.229-.534.35-1.084.35-1.591,0-.466-.103-.919-.331-1.466-.308-.537-.598-1.038-.927-1.368-.473-.472-1.029-.842-1.754-1.164-.631-.28-1.352-.429-2.083-.429h-4.595Z" fill="#ccc" stroke="#000" stroke-miterlimit="10" stroke-width="2"/>
      <path d="M884.6,458.596c.385.772.589,1.653.589,2.546v9.104c0,.894-.204,1.774-.589,2.545-.362.725-.908,1.403-1.624,2.016-.639.533-1.325.895-2.049,1.083-.659.24-1.371.362-2.17.37h-.083c-.894-.007-1.605-.127-2.298-.387-.756-.284-1.426-.668-1.997-1.143-.724-.621-1.271-1.299-1.632-2.022-.386-.771-.59-1.651-.59-2.545v-9.104c0-.894.205-1.774.59-2.545.361-.725.909-1.402,1.624-2.016.638-.532,1.324-.894,2.048-1.083.681-.249,1.419-.371,2.254-.371.896,0,1.698.13,2.382.388.754.282,1.424.667,1.996,1.143.635.543,1.138,1.204,1.548,2.021h0ZM883.517,470.245v-9.104c0-.635-.143-1.257-.413-1.798-.312-.624-.671-1.099-1.133-1.494-.417-.347-.927-.637-1.503-.854-.49-.184-1.11-.281-1.795-.281-.657,0-1.202.089-1.712.281l-.091.028c-.494.124-.973.376-1.421.75-.536.459-.946.962-1.208,1.486-.271.541-.413,1.163-.413,1.798v9.104c0,.636.144,1.258.413,1.798.261.523.671,1.026,1.217,1.494.417.347.927.637,1.504.854.508.19,1.049.277,1.751.281.639-.003,1.17-.093,1.672-.281l.091-.028c.494-.124.973-.376,1.422-.75.535-.459.945-.962,1.207-1.486.27-.54.413-1.162.413-1.797h0Z" fill="#ccc" stroke="#000" stroke-miterlimit="10" stroke-width="2"/>
      <path d="M896.329,464.807h6.014v6.014c0,.627,0,1.576-.544,2.447l-.074.113c-.327.493-.664,1.002-1.444,1.489-.386.292-1.329.746-1.986.993-.695.26-1.501.388-2.465.388s-1.771-.127-2.465-.388c-.854-.321-1.554-.705-2.079-1.143-.738-.552-1.222-1.229-1.647-1.825l-.069-.115c-.386-.771-.59-1.651-.59-2.545v-9.188c0-1.02.22-1.827.712-2.615.394-.796,1.143-1.495,1.668-1.946.619-.516,1.365-.795,2.087-1.066.696-.262,1.503-.389,2.467-.389s1.771.127,2.465.388c.646.242,1.333.57,2.043.975l.087.057c.857.644,1.475,1.334,1.832,2.049l-1.494.748c-.235-.471-.673-.951-1.3-1.428-.608-.344-1.214-.632-1.754-.835-.505-.189-1.118-.281-1.879-.281s-1.375.091-1.878.28c-.621.233-1.206.452-1.598.779-.405.349-.994.892-1.29,1.486-.36.583-.497,1.1-.497,1.798v9.188c0,.614.134,1.215.386,1.743.378.527.74,1.023,1.285,1.432.409.339.962.637,1.63.888.505.19,1.118.282,1.879.282s1.374-.092,1.878-.281c.637-.239,1.386-.622,1.63-.805.53-.336.716-.614.995-1.036l.063-.096c.277-.444.277-1.027.277-1.541v-4.344h-4.344v-1.669Z" fill="#ccc" stroke="#000" stroke-miterlimit="10" stroke-width="2"/>
    </g>
    <g>
      <rect x="964.15" y="433.793" width="66.913" height="64.957" fill="none"/>
      <path d="M987.325,462.111v6.755c0,1.34-.229,2.616-.658,3.691-.408,1.127-1.044,2.136-1.879,2.972-.632.74-1.44,1.322-2.356,1.675-.903.444-1.825.668-2.742.668h-7.636v-24.865h7.636c1.012,0,1.956.225,2.885.69.96.48,1.731,1.07,2.362,1.805.625.622,1.191,1.565,1.731,2.917.445,1.224.657,2.422.657,3.692ZM985.367,462.111c0-1.052-.168-2.003-.528-2.994-.428-1.068-.856-1.803-1.34-2.286-.514-.595-1.069-1.017-1.801-1.383-.66-.33-1.298-.483-2.009-.483h-5.678v20.949h5.678c.626,0,1.27-.163,1.912-.484l.094-.041c.632-.236,1.174-.626,1.656-1.188.683-.688,1.165-1.456,1.487-2.341.345-.862.528-1.915.528-2.993v-6.755Z" fill="#ccc" stroke="#000" stroke-miterlimit="10" stroke-width="2"/>
      <path d="M998.528,455.075v20.95h4.797v1.958h-11.552v-1.958h4.797v-20.95h-4.797v-1.958h11.552v1.958h-4.797Z" fill="#ccc" stroke="#000" stroke-miterlimit="10" stroke-width="2"/>
      <path d="M1017.503,467.955l5.654,9.366v.566h-1.465l-.352.213-5.982-9.907c-.043,0-.088.003-.131.003h-5.483v9.691h-1.957v-23.887h7.342c1.13,0,2.248.233,3.237.672,1.062.473,1.927,1.052,2.644,1.769.581.581,1.012,1.335,1.429,2.063l.052.104c.389.906.569,1.713.569,2.539,0,.858-.196,1.77-.569,2.638-.327.764-.868,1.554-1.48,2.166-.566.566-1.481,1.321-2.634,1.706-.289.129-.58.224-.873.299h0ZM1009.745,455.959v10.279h5.483c1.101,0,1.785-.114,2.441-.405.704-.24,1.367-.677,1.956-1.266.437-.438.836-1.02,1.066-1.555.269-.626.41-1.271.41-1.865,0-.546-.12-1.077-.389-1.718-.36-.63-.7-1.217-1.087-1.604-.553-.553-1.206-.987-2.055-1.364-.74-.328-1.584-.503-2.441-.503h-5.386Z" fill="#ccc" stroke="#000" stroke-miterlimit="10" stroke-width="2"/>
    </g>
    <g>
      <rect x="1084.15" y="433.793" width="66.913" height="64.957" fill="none"/>
      <path d="M1098.85,455.881v20.298h-1.671v-16.999l-3.936,7.06h-1.816l-3.937-7.06v16.999h-1.671v-20.298h1.743l4.772,8.557,4.771-8.557h1.743Z" fill="#ccc" stroke="#000" stroke-miterlimit="10" stroke-width="2"/>
      <path d="M1115.673,464.808l-.086,11.357-1.671-.013.048-6.342h-9.653v6.348h-1.671v-11.354l5.725-8.944h1.583l5.726,8.947ZM1113.977,468.139l.021-2.849-4.843-7.567-4.845,7.569v2.847h9.666Z" fill="#ccc" stroke="#000" stroke-miterlimit="10" stroke-width="2"/>
      <path d="M1127.749,467.705l4.825,7.991v.483h-1.251l-.3.182-5.104-8.453c-.036,0-.075.002-.11.002h-4.679v8.27h-1.671v-20.381h6.265c.964,0,1.918.199,2.763.573.906.403,1.644.896,2.255,1.509.496.496.863,1.139,1.22,1.76l.044.089c.331.773.485,1.462.485,2.167,0,.731-.168,1.51-.485,2.25-.279.651-.741,1.326-1.264,1.849-.482.482-1.264,1.127-2.247,1.455-.246.11-.495.191-.745.256h0ZM1121.13,457.468v8.771h4.679c.938,0,1.522-.099,2.082-.347.602-.204,1.167-.577,1.67-1.079.372-.374.713-.87.909-1.327.229-.533.35-1.084.35-1.591,0-.467-.103-.92-.331-1.466-.308-.537-.598-1.038-.927-1.368-.473-.472-1.029-.842-1.754-1.164-.631-.28-1.352-.43-2.083-.43h-4.595Z" fill="#ccc" stroke="#000" stroke-miterlimit="10" stroke-width="2"/>
      <path d="M1149.397,475.694v.479h-1.261l-.294.173-6.967-11.843-2.838,3.061v8.442h-1.671v-19.462h1.671v8.562l8.158-8.796.252.234h1.195v.662l-5.581,6.019,7.335,12.47Z" fill="#ccc" stroke="#000" stroke-miterlimit="10" stroke-width="2"/>
    </g>
    <rect x="765.208" y="274.652" width="83" height="91" rx="1.738" ry="1.738" fill="none" stroke="#000" stroke-miterlimit="10" stroke-width="5"/>
    <rect x="756.208" y="265.152" width="101" height="110" rx="5.276" ry="5.276" fill="none" stroke="#000" stroke-miterlimit="10" stroke-width="5"/>
    <rect x="892.584" y="274.652" width="83" height="91" rx="1.738" ry="1.738" fill="none" stroke="#000" stroke-miterlimit="10" stroke-width="5"/>
    <rect x="883.584" y="265.152" width="101" height="110" rx="5.276" ry="5.276" fill="none" stroke="#000" stroke-miterlimit="10" stroke-width="5"/>
    <g>
      <rect x="770.462" y="288.292" width="72.492" height="64.957" fill="none"/>
      <path d="M781.997,322.203l4.825,7.991v.483h-1.251l-.3.182-5.104-8.453c-.036,0-.075.002-.11.002h-4.679v8.269h-1.671v-20.381h6.265c.964,0,1.918.199,2.763.573.906.403,1.644.897,2.255,1.509.496.496.863,1.139,1.22,1.76l.044.089c.331.773.485,1.462.485,2.167,0,.732-.168,1.51-.485,2.25-.279.651-.741,1.326-1.264,1.848-.482.483-1.264,1.127-2.247,1.456-.246.11-.495.191-.745.255h0ZM775.378,311.967v8.771h4.679c.938,0,1.522-.098,2.082-.346.602-.205,1.167-.577,1.67-1.08.372-.374.713-.87.909-1.327.229-.534.35-1.084.35-1.591,0-.466-.103-.919-.331-1.466-.308-.537-.598-1.038-.927-1.368-.473-.472-1.029-.842-1.754-1.164-.631-.28-1.352-.429-2.083-.429h-4.595Z" fill="#ccc" stroke="#000" stroke-miterlimit="10" stroke-width="2"/>
      <path d="M803.645,310.266v20.398h-1.657l-9.702-17.186v17.172h-1.671v-20.297h1.824l9.536,16.889v-16.976h1.67Z" fill="#ccc" stroke="#000" stroke-miterlimit="10" stroke-width="2"/>
      <path d="M820.467,319.307l-.086,11.357-1.671-.013.048-6.342h-9.653v6.348h-1.671v-11.354l5.725-8.944h1.583l5.726,8.947ZM818.771,322.638l.021-2.849-4.843-7.567-4.845,7.569v2.847h9.666Z" fill="#ccc" stroke="#000" stroke-miterlimit="10" stroke-width="2"/>
      <path d="M839.707,310.375v4.561l-13.14,15.82h-2.313v-20.381h1.671v18.54l12.111-14.583v-3.957h1.671Z" fill="#ccc" stroke="#000" stroke-miterlimit="10" stroke-width="2"/>
    </g>
    <g>
      <rect x="900.628" y="288.292" width="66.913" height="64.957" fill="none"/>
      <path d="M915.675,322.398c.363.718.537,1.425.537,2.1,0,1.799-.659,3.276-1.963,4.393-1.217,1.124-2.756,1.705-4.552,1.705h-.167c-1.693,0-3.254-.603-4.637-1.788-1.081-.915-1.397-1.723-1.627-2.312-.034-.086-.066-.169-.101-.248l1.535-.659c.041.096.08.194.121.298.193.494.393,1.005,1.155,1.649,1.092.938,2.253,1.39,3.554,1.39h.167c1.381,0,2.508-.419,3.441-1.282.965-.827,1.403-1.819,1.403-3.145,0-.411-.117-.872-.33-1.297-.184-.3-.449-.696-.802-.932-.406-.321-.928-.621-1.453-.847-.341-.146-.724-.264-1.168-.399-.247-.076-.504-.155-.771-.244l-2.456-.654c-1.324-.406-2.279-1.019-2.95-1.881-.728-.935-1.096-2.034-1.096-3.27,0-1.527.634-2.838,1.883-3.896,1.188-1.096,2.534-1.618,4.216-1.618h.166c1.689.098,3.099.677,4.24,1.723.867.771,1.392,1.691,1.594,2.806l-1.645.298c-.137-.753-.466-1.328-1.068-1.864-.859-.787-1.924-1.22-3.17-1.294l-.118.002c-1.252,0-2.212.37-3.108,1.198-.896.761-1.319,1.617-1.319,2.645,0,.855.251,1.61.743,2.244.46.591,1.125,1.004,2.093,1.302l2.476.66c.304.099.547.174.781.245.471.145.914.281,1.338.462.666.285,1.313.662,1.78,1.034.569.377.971.961,1.279,1.477h-.002Z" fill="#ccc" stroke="#000" stroke-miterlimit="10" stroke-width="2"/>
      <path d="M932.209,312.083h-5.262v18.627h-1.671v-18.627h-5.263v-1.671h12.195v1.671Z" fill="#ccc" stroke="#000" stroke-miterlimit="10" stroke-width="2"/>
      <path d="M949.026,319.309l-.086,11.357-1.671-.013.048-6.342h-9.653v6.348h-1.671v-11.354l5.725-8.944h1.583l5.726,8.947ZM947.33,322.64l.021-2.849-4.843-7.567-4.845,7.569v2.847h9.666Z" fill="#ccc" stroke="#000" stroke-miterlimit="10" stroke-width="2"/>
      <path d="M965.008,312.083h-5.262v18.627h-1.671v-18.627h-5.263v-1.671h12.195v1.671Z" fill="#ccc" stroke="#000" stroke-miterlimit="10" stroke-width="2"/>
    </g>
    <rect x="1318.893" y="100.065" width="83" height="91" rx="1.738" ry="1.738" fill="none" stroke="#000" stroke-miterlimit="10" stroke-width="5"/>
    <rect x="1309.893" y="90.565" width="101" height="110" rx="16.531" ry="16.531" fill="none" stroke="#000" stroke-miterlimit="10" stroke-width="5"/>
    <g>
      <rect x="1326.937" y="111.913" width="66.913" height="64.957" fill="none"/>
      <path d="M1341.883,134.002v20.297h-1.67v-16.999l-3.936,7.059h-1.816l-3.938-7.059v16.999h-1.67v-20.297h1.742l4.773,8.556,4.771-8.556h1.742Z" fill="#ccc" stroke="#000" stroke-miterlimit="10" stroke-width="2"/>
      <path d="M1347.344,134.824v6.849h6.014v1.67h-6.014v9.272h10.943v1.67h-12.613v-21.133h12.613v1.671h-10.943Z" fill="#ccc" stroke="#000" stroke-miterlimit="10" stroke-width="2"/>
      <path d="M1375.118,133.888v20.398h-1.658l-9.701-17.186v17.172h-1.672v-20.297h1.824l9.537,16.889v-16.976h1.67Z" fill="#ccc" stroke="#000" stroke-miterlimit="10" stroke-width="2"/>
      <path d="M1391.938,133.997v14.449c0,.924-.215,1.813-.611,2.503-.338.682-.885,1.36-1.602,1.974-.604.504-1.254.783-1.885,1.053-.73.274-1.48.402-2.334.402-.895,0-1.697-.13-2.381-.388-.754-.282-1.426-.667-1.996-1.142-.607-.522-1.219-1.111-1.633-1.939-.396-.792-.59-1.599-.59-2.461v-14.45h1.672v14.45c0,.606.131,1.151.412,1.714.266.533.68.948,1.217,1.41.418.348.928.637,1.504.854.49.185,1.111.282,1.795.282.656,0,1.199-.089,1.711-.281.508-.219,1.021-.439,1.428-.778.537-.461.947-.963,1.209-1.486.27-.476.414-1.086.414-1.714v-14.45h1.67Z" fill="#ccc" stroke="#000" stroke-miterlimit="10" stroke-width="2"/>
    </g>
    <g>
      <path d="M369.916,474.584c.607-.504,1.133-1.144,1.607-1.98l1.696,1.167c-.602,1.059-1.305,1.913-2.148,2.611-.706.52-1.582,1.002-2.449,1.361-.987.362-1.889.511-3.054.511-1.239,0-2.208-.162-3.053-.51-.868-.318-1.66-.772-2.531-1.457-.866-.594-1.616-1.509-2.114-2.606-.462-1.015-.706-2.176-.706-3.355v-12.002c0-1.393.407-2.479.806-3.355.648-1.151,1.351-2.004,2.195-2.701.704-.519,1.58-1.002,2.449-1.361.982-.361,1.886-.51,3.053-.51,1.24,0,2.209.163,3.053.511.867.317,1.659.77,2.531,1.456.94.777,1.646,1.686,2.114,2.716l-1.79.985c-.328-.723-.835-1.371-1.506-1.925-.693-.545-1.303-.895-2.017-1.157-.647-.267-1.395-.384-2.386-.384-.951,0-1.643.111-2.385.384-.697.289-1.425.688-1.962,1.083-.607.503-1.133,1.144-1.608,1.98-.31.694-.548,1.398-.548,2.279v12.001c0,.839.171,1.658.494,2.37.339.747.822,1.339,1.437,1.762.764.598,1.372.949,2.087,1.211.647.267,1.395.384,2.386.384.949,0,1.641-.111,2.385-.384.695-.287,1.424-.688,1.962-1.082l.002-.002Z" fill="#ccc" stroke="#000" stroke-miterlimit="10" stroke-width="2"/>
      <path d="M393.117,476.288v2.202h-15.207v-26.757h2.001v24.555h13.206Z" fill="#ccc" stroke="#000" stroke-miterlimit="10" stroke-width="2"/>
      <path d="M407.611,467.211l5.778,10.535v.637h-1.497l-.359.239-6.113-11.143c-.045,0-.091.003-.134.003h-5.604v10.901h-2.001v-26.867h7.504c1.154,0,2.297.262,3.309.756,1.085.531,1.969,1.182,2.701,1.989.594.653,1.034,1.501,1.461,2.32l.053.117c.396,1.02.581,1.927.581,2.856,0,.965-.201,1.99-.581,2.967-.335.859-.888,1.748-1.514,2.437-.578.637-1.514,1.485-2.691,1.918-.295.145-.594.252-.893.337h0ZM399.682,453.718v11.562h5.604c1.125,0,1.824-.129,2.494-.456.721-.27,1.397-.761,2-1.423.446-.493.854-1.146,1.09-1.749.274-.704.419-1.429.419-2.098,0-.614-.123-1.212-.397-1.932-.368-.708-.715-1.369-1.11-1.804-.565-.622-1.232-1.11-2.1-1.535-.757-.369-1.619-.565-2.495-.565h-5.504Z" fill="#ccc" stroke="#000" stroke-miterlimit="10" stroke-width="2"/>
    </g>
    <rect x="345.152" y="420.771" width="83" height="91" rx="1.738" ry="1.738" fill="none" stroke="#000" stroke-miterlimit="10" stroke-width="5"/>
    <rect x="336.152" y="411.271" width="101" height="110" rx="5.276" ry="5.276" fill="none" stroke="#000" stroke-miterlimit="10" stroke-width="5"/>
  </g>
</svg>