<?xml version="1.0" encoding="UTF-8"?>
<svg xmlns="http://www.w3.org/2000/svg" width="1584.293" height="1072.174" viewBox="0 0 1584.293 1072.174">
  <g id="CDNU_-_Light">
    <path d="M1403.61,903.706l-1222.305.984c-5.445.004-9.861-4.411-9.856-9.857l.667-725.918c.005-5.432,4.408-9.834,9.84-9.839l1222.305-.984c5.445-.004,9.861,4.411,9.856,9.857l-.667,725.918c-.005,5.432-4.408,9.834-9.84,9.839Z" fill="none" stroke="#000" stroke-miterlimit="10" stroke-width="11"/>
    <polyline points="785.123 902.825 1331.623 903.324 1331.623 653.747 1406.623 653.747 1406.623 327.67 1331.623 327.67 1331.623 160.085 252.123 160.085 252.123 332.358 173.906 332.358 173.906 653.248 252.123 653.248 252.123 902.825 785.123 902.825" fill="none" stroke="#000" stroke-miterlimit="10" stroke-width="8"/>
    <rect x="425.123" y="200.085" width="735" height="553" rx="13.681" ry="13.681" fill="none" stroke="#000" stroke-miterlimit="10" stroke-width="5"/>
    <rect x="414.123" y="186.085" width="760" height="580" rx="18.29" ry="18.29" fill="none" stroke="#000" stroke-miterlimit="10" stroke-width="5"/>
    <g>
      <rect x="267.123" y="201.085" width="137" height="81" fill="none" stroke="#000" stroke-miterlimit="10" stroke-width="5"/>
      <polygon points="387.122 241.334 359.756 213.834 359.756 230.834 284.623 230.834 284.623 251.834 359.756 251.834 359.756 268.834 387.122 241.334" stroke="#000" stroke-miterlimit="10"/>
    </g>
    <g>
      <rect x="267.275" y="327.932" width="137" height="81" fill="none" stroke="#000" stroke-miterlimit="10" stroke-width="5"/>
      <polygon points="387.275 368.182 359.908 340.682 359.908 357.682 284.775 357.682 284.775 378.682 359.908 378.682 359.908 395.682 387.275 368.182" stroke="#000" stroke-miterlimit="10"/>
    </g>
    <g>
      <rect x="267.275" y="454.932" width="137" height="81" fill="none" stroke="#000" stroke-miterlimit="10" stroke-width="5"/>
      <polygon points="387.275 495.182 359.908 467.682 359.908 484.682 284.775 484.682 284.775 505.682 359.908 505.682 359.908 522.682 387.275 495.182" stroke="#000" stroke-miterlimit="10"/>
    </g>
    <g>
      <rect x="267.102" y="579.367" width="137" height="81" fill="none" stroke="#000" stroke-miterlimit="10" stroke-width="5"/>
      <polygon points="387.101 619.617 359.734 592.117 359.734 609.117 284.601 609.117 284.601 630.117 359.734 630.117 359.734 647.117 387.101 619.617" stroke="#000" stroke-miterlimit="10"/>
    </g>
    <g>
      <rect x="1182.254" y="201.085" width="137" height="81" transform="translate(2501.507 483.169) rotate(-180)" fill="none" stroke="#000" stroke-miterlimit="10" stroke-width="5"/>
      <polygon points="1199.255 241.334 1226.622 213.834 1226.622 230.834 1301.754 230.834 1301.754 251.834 1226.622 251.834 1226.622 268.834 1199.255 241.334" stroke="#000" stroke-miterlimit="10"/>
    </g>
    <g>
      <rect x="1182.102" y="327.932" width="137" height="81" transform="translate(2501.203 736.865) rotate(-180)" fill="none" stroke="#000" stroke-miterlimit="10" stroke-width="5"/>
      <polygon points="1199.102 368.182 1226.469 340.682 1226.469 357.682 1301.602 357.682 1301.602 378.682 1226.469 378.682 1226.469 395.682 1199.102 368.182" stroke="#000" stroke-miterlimit="10"/>
    </g>
    <g>
      <rect x="1182.102" y="454.932" width="137" height="81" transform="translate(2501.203 990.865) rotate(-180)" fill="none" stroke="#000" stroke-miterlimit="10" stroke-width="5"/>
      <polygon points="1199.102 495.182 1226.469 467.682 1226.469 484.682 1301.602 484.682 1301.602 505.682 1226.469 505.682 1226.469 522.682 1199.102 495.182" stroke="#000" stroke-miterlimit="10"/>
    </g>
    <g>
      <rect x="1182.275" y="579.367" width="137" height="81" transform="translate(2501.551 1239.734) rotate(-180)" fill="none" stroke="#000" stroke-miterlimit="10" stroke-width="5"/>
      <polygon points="1199.276 619.617 1226.643 592.117 1226.643 609.117 1301.776 609.117 1301.776 630.117 1226.643 630.117 1226.643 647.117 1199.276 619.617" stroke="#000" stroke-miterlimit="10"/>
    </g>
    <circle cx="356.123" cy="736.085" r="30.5" fill="none" stroke="#000" stroke-miterlimit="10" stroke-width="5"/>
    <circle cx="1239.123" cy="736.085" r="30.5" fill="none" stroke="#000" stroke-miterlimit="10" stroke-width="5"/>
    <rect x="315.623" y="792.539" width="83" height="91" fill="none" stroke="#000" stroke-miterlimit="10" stroke-width="5"/>
    <rect x="307.623" y="783.039" width="101" height="110" rx="9.778" ry="9.778" fill="none" stroke="#000" stroke-miterlimit="10" stroke-width="5"/>
    <rect x="439.623" y="792.539" width="83" height="91" fill="none" stroke="#000" stroke-miterlimit="10" stroke-width="5"/>
    <rect x="431.623" y="783.039" width="101" height="110" rx="9.778" ry="9.778" fill="none" stroke="#000" stroke-miterlimit="10" stroke-width="5"/>
    <rect x="563.623" y="792.539" width="83" height="91" fill="none" stroke="#000" stroke-miterlimit="10" stroke-width="5"/>
    <rect x="555.623" y="783.039" width="101" height="110" rx="9.778" ry="9.778" fill="none" stroke="#000" stroke-miterlimit="10" stroke-width="5"/>
    <rect x="687.623" y="792.539" width="83" height="91" fill="none" stroke="#000" stroke-miterlimit="10" stroke-width="5"/>
    <rect x="679.623" y="783.039" width="101" height="110" rx="9.778" ry="9.778" fill="none" stroke="#000" stroke-miterlimit="10" stroke-width="5"/>
    <rect x="809.623" y="792.539" width="83" height="91" fill="none" stroke="#000" stroke-miterlimit="10" stroke-width="5"/>
    <rect x="801.623" y="783.039" width="101" height="110" rx="9.778" ry="9.778" fill="none" stroke="#000" stroke-miterlimit="10" stroke-width="5"/>
    <rect x="936.623" y="792.539" width="83" height="91" fill="none" stroke="#000" stroke-miterlimit="10" stroke-width="5"/>
    <rect x="928.623" y="783.039" width="101" height="110" rx="9.778" ry="9.778" fill="none" stroke="#000" stroke-miterlimit="10" stroke-width="5"/>
    <rect x="1056.623" y="792.539" width="83" height="91" fill="none" stroke="#000" stroke-miterlimit="10" stroke-width="5"/>
    <rect x="1048.623" y="783.039" width="101" height="110" rx="9.778" ry="9.778" fill="none" stroke="#000" stroke-miterlimit="10" stroke-width="5"/>
    <rect x="1181.623" y="792.539" width="83" height="91" fill="none" stroke="#000" stroke-miterlimit="10" stroke-width="5"/>
    <rect x="1173.623" y="783.039" width="101" height="110" rx="9.778" ry="9.778" fill="none" stroke="#000" stroke-miterlimit="10" stroke-width="5"/>
    <circle cx="213.123" cy="265.085" r="34.5" fill="none" stroke="#000" stroke-miterlimit="10" stroke-width="3.5"/>
    <circle cx="213.123" cy="265.085" r="27.5" fill="none" stroke="#000" stroke-miterlimit="10" stroke-width="3.5"/>
    <circle cx="213.623" cy="718.585" r="34.5" fill="none" stroke="#000" stroke-miterlimit="10" stroke-width="3.5"/>
    <circle cx="213.623" cy="718.585" r="27.5" fill="none" stroke="#000" stroke-miterlimit="10" stroke-width="3.5"/>
    <circle cx="213.623" cy="837.585" r="34.5" fill="none" stroke="#000" stroke-miterlimit="10" stroke-width="3.5"/>
    <circle cx="213.623" cy="837.585" r="27.5" fill="none" stroke="#000" stroke-miterlimit="10" stroke-width="3.5"/>
    <circle cx="1372.623" cy="265.085" r="34.5" fill="none" stroke="#000" stroke-miterlimit="10" stroke-width="3.5"/>
    <circle cx="1372.623" cy="265.085" r="27.5" fill="none" stroke="#000" stroke-miterlimit="10" stroke-width="3.5"/>
    <circle cx="1372.123" cy="718.585" r="34.5" fill="none" stroke="#000" stroke-miterlimit="10" stroke-width="3.5"/>
    <circle cx="1372.123" cy="718.585" r="27.5" fill="none" stroke="#000" stroke-miterlimit="10" stroke-width="3.5"/>
    <circle cx="1372.123" cy="837.585" r="34.5" fill="none" stroke="#000" stroke-miterlimit="10" stroke-width="3.5"/>
    <circle cx="1372.123" cy="837.585" r="27.5" fill="none" stroke="#000" stroke-miterlimit="10" stroke-width="3.5"/>
    <g>
      <rect x="321.946" y="804.749" width="66.913" height="64.957" fill="none"/>
      <path d="M335.861,819.119h6.823v36.208h-6.823v-36.208ZM338.351,819.119h21.292v6.574h-21.292v-6.574ZM338.351,834.384h18.552v6.574h-18.552v-6.574Z" stroke="#000" stroke-miterlimit="10"/>
      <path d="M374.945,855.327h-6.823v-28.189l-4.408,1.668v-7.246l5.404-2.44h5.827v36.208Z" stroke="#000" stroke-miterlimit="10"/>
    </g>
    <g>
      <rect x="445.946" y="804.749" width="66.913" height="64.957" fill="none"/>
      <path d="M455.167,819.119h6.823v36.208h-6.823v-36.208ZM457.657,819.119h21.292v6.574h-21.292v-6.574ZM457.657,834.384h18.552v6.574h-18.552v-6.574Z" stroke="#000" stroke-miterlimit="10"/>
      <path d="M483.966,849.177l12.426-16.336c.564-.73,1-1.482,1.307-2.254.307-.772.461-1.49.461-2.154v-.05c0-.979-.315-1.734-.946-2.267-.631-.53-1.528-.797-2.689-.797-1.129,0-2.042.37-2.739,1.108-.697.739-1.121,1.789-1.27,3.15v.024h-6.998v-.024c.149-2.258.693-4.2,1.631-5.827s2.204-2.867,3.798-3.723,3.437-1.283,5.528-1.283c2.257,0,4.188.37,5.79,1.108,1.602.739,2.822,1.814,3.66,3.226s1.258,3.112,1.258,5.104v.024c0,1.645-.286,3.275-.859,4.894-.572,1.619-1.374,3.084-2.403,4.396l-8.915,11.256h12.376v6.574h-21.416v-6.15Z" stroke="#000" stroke-miterlimit="10"/>
    </g>
    <g>
      <rect x="569.946" y="804.749" width="66.913" height="64.957" fill="none"/>
      <path d="M578.855,819.119h6.823v36.208h-6.823v-36.208ZM581.346,819.119h21.292v6.574h-21.292v-6.574ZM581.346,834.384h18.552v6.574h-18.552v-6.574Z" stroke="#000" stroke-miterlimit="10"/>
      <path d="M612.461,854.505c-1.71-.797-3.072-1.958-4.084-3.486-1.013-1.526-1.569-3.345-1.668-5.453h7.047c.1.747.319,1.382.66,1.905.34.522.776.921,1.308,1.195.531.273,1.146.411,1.843.411,1.295,0,2.295-.361,3.001-1.084.705-.722,1.058-1.738,1.058-3.051v-.846c0-1.378-.287-2.441-.859-3.188-.573-.748-1.391-1.121-2.453-1.121h-3.063v-6.574h3.063c.863,0,1.531-.327,2.005-.983.473-.656.709-1.573.709-2.752v-.622c0-1.112-.261-1.972-.785-2.578-.522-.605-1.257-.908-2.204-.908-.614,0-1.175.157-1.681.473s-.934.771-1.282,1.369-.598,1.32-.747,2.167h-7.022c.199-2.208.792-4.112,1.78-5.715s2.279-2.822,3.873-3.661c1.594-.838,3.37-1.258,5.329-1.258,3.204,0,5.682.818,7.433,2.453,1.751,1.636,2.627,3.956,2.627,6.961v1.096c0,1.677-.423,3.137-1.27,4.383-.847,1.244-2.051,2.175-3.611,2.789,1.743.398,3.092,1.312,4.046,2.738.955,1.429,1.432,3.246,1.432,5.454v1.096c0,2.108-.415,3.909-1.245,5.403-.831,1.494-2.042,2.632-3.636,3.412s-3.511,1.17-5.752,1.17c-2.191,0-4.143-.398-5.852-1.195Z" stroke="#000" stroke-miterlimit="10"/>
    </g>
    <g>
      <rect x="693.946" y="804.749" width="66.913" height="64.957" fill="none"/>
      <path d="M701.834,819.119h6.823v36.208h-6.823v-36.208ZM704.325,819.119h21.292v6.574h-21.292v-6.574ZM704.325,834.384h18.552v6.574h-18.552v-6.574Z" stroke="#000" stroke-miterlimit="10"/>
      <path d="M730.683,843.499l11.156-24.355h7.72l-10.857,24.057h16.261v6.574h-24.279v-6.275ZM745.301,834.036h6.823v21.316h-6.823v-21.316Z" stroke="#000" stroke-miterlimit="10"/>
    </g>
    <g>
      <rect x="815.946" y="804.749" width="66.913" height="64.957" fill="none"/>
      <path d="M824.457,819.119h6.823v36.208h-6.823v-36.208ZM826.947,819.119h21.291v6.574h-21.291v-6.574ZM826.947,834.384h18.553v6.574h-18.553v-6.574Z" stroke="#000" stroke-miterlimit="10"/>
      <path d="M859.171,854.418c-1.553-.854-2.798-2.1-3.735-3.735-.938-1.635-1.481-3.573-1.631-5.814v-.025h6.823v.025c.133,1.328.539,2.362,1.221,3.101.68.738,1.568,1.108,2.664,1.108,1.195,0,2.12-.391,2.776-1.171s.983-1.884.983-3.312v-3.039c0-1.427-.295-2.527-.884-3.299-.589-.772-1.415-1.158-2.478-1.158-.979,0-1.814.249-2.503.747s-1.166,1.195-1.432,2.092h-6.375v-20.818h19.448v6.574h-12.625v6.399c.515-.498,1.216-.892,2.104-1.183.888-.29,1.771-.436,2.651-.436,1.876,0,3.482.432,4.819,1.295,1.336.863,2.353,2.125,3.05,3.785s1.047,3.661,1.047,6.001v3.039c0,2.34-.42,4.341-1.258,6.001-.839,1.66-2.055,2.926-3.648,3.798-1.594.871-3.52,1.307-5.777,1.307-1.942,0-3.689-.427-5.242-1.282Z" stroke="#000" stroke-miterlimit="10"/>
    </g>
    <g>
      <rect x="942.946" y="804.749" width="66.913" height="64.957" fill="none"/>
      <path d="M952.254,819.119h6.823v36.208h-6.823v-36.208ZM954.744,819.119h21.291v6.574h-21.291v-6.574ZM954.744,834.384h18.553v6.574h-18.553v-6.574Z" stroke="#000" stroke-miterlimit="10"/>
      <path d="M985.723,854.418c-1.585-.854-2.793-2.1-3.623-3.735-.83-1.635-1.245-3.606-1.245-5.914v-.025c0-1.311.162-2.697.485-4.158.324-1.461.784-2.93,1.382-4.408.1-.248.203-.498.312-.746.108-.25.22-.49.337-.723l7.346-15.589h7.72l-8.716,18.054-1.719-.896c.415-.779,1.021-1.386,1.818-1.817s1.727-.647,2.789-.647c1.992,0,3.693.424,5.105,1.27,1.41.848,2.485,2.08,3.225,3.698.738,1.619,1.107,3.565,1.107,5.84v.024c0,2.325-.415,4.317-1.244,5.977-.831,1.661-2.039,2.923-3.624,3.785-1.585.864-3.499,1.295-5.739,1.295-2.226,0-4.131-.427-5.716-1.282ZM994.239,848.068c.656-.706.984-1.706.984-3.001v-.025c0-1.494-.328-2.643-.984-3.448s-1.59-1.208-2.801-1.208c-1.195,0-2.121.411-2.777,1.232-.656.822-.983,1.972-.983,3.449v.025c0,1.295.327,2.291.983,2.988s1.582,1.045,2.777,1.045c1.211,0,2.145-.352,2.801-1.058Z" stroke="#000" stroke-miterlimit="10"/>
    </g>
    <g>
      <rect x="1062.946" y="804.749" width="66.913" height="64.957" fill="none"/>
      <path d="M1072.499,819.119h6.823v36.208h-6.823v-36.208ZM1074.989,819.119h21.291v6.574h-21.291v-6.574ZM1074.989,834.384h18.553v6.574h-18.553v-6.574Z" stroke="#000" stroke-miterlimit="10"/>
      <path d="M1121.544,823.651l-8.119,31.676h-7.396l7.869-29.634h-6.226v5.454h-6.823v-12.028h20.694v4.532Z" stroke="#000" stroke-miterlimit="10"/>
    </g>
    <g>
      <path d="M1202.22,823.664h4.053v29.852h-2.795v-23.18l.111,1.314-3.121,18.539h-2.719l-3.121-18.129.111-1.725v23.18h-2.797v-29.852h4.055l3.111,20.12,3.111-20.12Z" stroke="#000" stroke-miterlimit="10"/>
      <path d="M1210.579,823.664h3.078v29.852h-3.078v-29.852ZM1211.692,823.664h9.826v5.42h-9.826v-5.42ZM1211.692,835.982h8.59v5.42h-8.59v-5.42ZM1211.692,848.095h9.826v5.42h-9.826v-5.42Z" stroke="#000" stroke-miterlimit="10"/>
      <path d="M1225.038,823.664h3.764l6.074,22.871-.27.534v-23.405h2.943v29.831h-3.785l-6.053-22.522.27-.534v23.057h-2.943v-29.831Z" stroke="#000" stroke-miterlimit="10"/>
      <path d="M1244.36,852.52c-.891-.869-1.568-2.136-2.033-3.799-.463-1.663-.695-3.665-.695-6.005v-19.053h3.076v19.196c0,1.711.252,3.038.754,3.983.5.944,1.209,1.416,2.121,1.416.922,0,1.635-.472,2.141-1.416.504-.945.758-2.272.758-3.983v-19.196h3.076v19.053c0,2.34-.234,4.342-.701,6.005-.469,1.663-1.15,2.93-2.045,3.799s-1.971,1.304-3.229,1.304-2.332-.435-3.223-1.304Z" stroke="#000" stroke-miterlimit="10"/>
    </g>
    <g>
      <rect x="316.467" y="671.23" width="70.435" height="25.043" fill="none"/>
      <path d="M324.735,672.395h4.281v22.719h-4.281v-22.719ZM326.61,690.989h7.25c.979,0,1.737-.236,2.273-.711.536-.474.805-1.138.805-1.992v-.047c0-.572-.12-1.062-.359-1.469-.24-.406-.591-.716-1.055-.93-.464-.213-1.019-.32-1.664-.32h-7.25v-4.125h7.25c.885,0,1.57-.224,2.055-.672.484-.447.727-1.078.727-1.891,0-.729-.242-1.297-.727-1.703s-1.169-.609-2.055-.609h-7.25v-4.125h7.391c1.469,0,2.724.242,3.766.727,1.042.484,1.833,1.188,2.375,2.109.542.922.812,2.029.812,3.32,0,.886-.175,1.67-.523,2.352-.349.683-.857,1.242-1.523,1.68-.667.438-1.469.734-2.406.891,1,.136,1.856.44,2.57.914.713.475,1.255,1.092,1.625,1.852.37.761.555,1.641.555,2.641v.047c0,1.303-.273,2.417-.82,3.344-.547.928-1.344,1.633-2.391,2.117s-2.305.727-3.773.727h-7.656v-4.125Z" stroke="#000" stroke-miterlimit="10"/>
      <path d="M346.383,672.38h4.281v22.734h-4.281v-22.734ZM348.086,681.848h7.906c.438,0,.823-.109,1.156-.328.333-.219.591-.531.773-.938.182-.406.278-.875.289-1.406,0-.531-.091-1-.273-1.406-.183-.406-.44-.719-.773-.938-.333-.219-.724-.328-1.172-.328h-7.906v-4.125h8.25c1.25,0,2.349.281,3.297.844.948.562,1.682,1.357,2.203,2.383.521,1.026.781,2.217.781,3.57s-.261,2.545-.781,3.57c-.521,1.026-1.258,1.82-2.211,2.383s-2.05.844-3.289.844h-8.25v-4.125ZM352.868,685.27l4.578-.719,6.125,10.562h-5.188l-5.516-9.844Z" stroke="#000" stroke-miterlimit="10"/>
      <path d="M365.109,672.395h16.656v4.125h-16.656v-4.125ZM371.297,674.255h4.281v20.859h-4.281v-20.859Z" stroke="#000" stroke-miterlimit="10"/>
    </g>
    <g>
      <rect x="1181.12" y="671.01" width="131" height="25.043" fill="none"/>
      <path d="M1193.84,694.087c-1.256-.692-2.227-1.672-2.914-2.938s-1.031-2.731-1.031-4.398v-6.438c0-1.666.344-3.133,1.031-4.398s1.658-2.244,2.914-2.938c1.255-.692,2.705-1.039,4.352-1.039s3.096.347,4.352,1.039c1.255.693,2.227,1.672,2.914,2.938s1.031,2.732,1.031,4.398v6.438c0,1.667-.344,3.133-1.031,4.398s-1.659,2.245-2.914,2.938c-1.256.693-2.706,1.039-4.352,1.039s-3.097-.346-4.352-1.039ZM1200.223,690.352c.583-.328,1.033-.794,1.352-1.398.317-.604.477-1.302.477-2.094v-6.656c0-.791-.159-1.489-.477-2.094-.318-.604-.769-1.07-1.352-1.398-.584-.328-1.261-.492-2.031-.492s-1.448.164-2.031.492c-.584.328-1.034.795-1.352,1.398-.318.604-.477,1.303-.477,2.094v6.656c0,.792.158,1.49.477,2.094.317.604.768,1.07,1.352,1.398.583.328,1.26.492,2.031.492s1.447-.164,2.031-.492Z" stroke="#000" stroke-miterlimit="10"/>
      <path d="M1211.699,672.173h4.281v22.719h-4.281v-22.719ZM1213.262,672.173h13.359v4.125h-13.359v-4.125ZM1213.262,681.751h11.641v4.125h-11.641v-4.125Z" stroke="#000" stroke-miterlimit="10"/>
      <path d="M1230.894,672.173h4.281v22.719h-4.281v-22.719ZM1232.457,672.173h13.359v4.125h-13.359v-4.125ZM1232.457,681.751h11.641v4.125h-11.641v-4.125Z" stroke="#000" stroke-miterlimit="10"/>
      <path d="M1250.87,699.204h-4.062l10.156-29.719h4.062l-10.156,29.719Z" stroke="#000" stroke-miterlimit="10"/>
      <path d="M1267.604,694.087c-1.256-.692-2.227-1.672-2.914-2.938s-1.031-2.731-1.031-4.398v-6.438c0-1.666.344-3.133,1.031-4.398s1.658-2.244,2.914-2.938c1.255-.692,2.705-1.039,4.352-1.039s3.096.347,4.352,1.039c1.255.693,2.227,1.672,2.914,2.938s1.031,2.732,1.031,4.398v6.438c0,1.667-.344,3.133-1.031,4.398s-1.659,2.245-2.914,2.938c-1.256.693-2.706,1.039-4.352,1.039s-3.097-.346-4.352-1.039ZM1273.987,690.352c.583-.328,1.033-.794,1.352-1.398.317-.604.477-1.302.477-2.094v-6.656c0-.791-.159-1.489-.477-2.094-.318-.604-.769-1.07-1.352-1.398-.584-.328-1.261-.492-2.031-.492s-1.448.164-2.031.492c-.584.328-1.034.795-1.352,1.398-.318.604-.477,1.303-.477,2.094v6.656c0,.792.158,1.49.477,2.094.317.604.768,1.07,1.352,1.398.583.328,1.26.492,2.031.492s1.447-.164,2.031-.492Z" stroke="#000" stroke-miterlimit="10"/>
      <path d="M1285.464,672.173h5.234l8.453,17.406-.375.406v-17.812h4.094v22.703h-5.266l-8.422-17.141.375-.406v17.547h-4.094v-22.703Z" stroke="#000" stroke-miterlimit="10"/>
    </g>
  </g>
  <g id="Scratchpad_-_Light">
    <g>
      <path d="M483.172,697.045v37.593h12.121v3.515h-15.634v-44.62h15.634v3.513h-12.121Z" stroke="#000" stroke-miterlimit="10" stroke-width="1.5"/>
      <path d="M1104.121,693.348v44.62h-15.635v-3.514h12.121v-37.593h-12.121v-3.514h15.635Z" stroke="#000" stroke-miterlimit="10" stroke-width="1.5"/>
    </g>
  </g>
  <g id="BDHI_Steering_Page_-_Light">
    <g>
      <rect x="439.184" y="224.561" width="718" height="52.826" fill="none"/>
      <path d="M471.736,233.238v34.455h-2.799l-16.389-29.029v29.005h-2.822v-34.285h3.082l16.106,28.528v-28.675h2.822Z" stroke="#000" stroke-miterlimit="10" stroke-width="1.5"/>
      <path d="M510.635,256.529h3.81v2.822h-3.81v7.055h-2.822v-7.055h-14.673v-3.071l14.579-24.3h2.915v24.548h.001ZM507.811,237.307l-11.533,19.22h11.533v-19.22Z" stroke="#000" stroke-miterlimit="10" stroke-width="1.5"/>
      <path d="M541.889,237.978c.652,1.301.996,2.788.996,4.299v15.378c0,1.511-.344,3-.996,4.3-.61,1.222-1.532,2.366-2.742,3.403-1.079.898-2.239,1.511-3.461,1.83-1.114.407-2.315.612-3.665.625h-.141c-1.508-.011-2.71-.214-3.881-.653-1.273-.479-2.406-1.127-3.371-1.932-1.225-1.048-2.147-2.194-2.758-3.416-.652-1.301-.996-2.788-.996-4.297v-15.378c0-1.51.346-2.997.996-4.299.611-1.222,1.533-2.367,2.743-3.403,1.079-.9,2.239-1.511,3.461-1.83,1.152-.42,2.398-.626,3.807-.626,1.511,0,2.864.219,4.022.653,1.273.477,2.406,1.127,3.372,1.932,1.074.918,1.925,2.033,2.616,3.414h0ZM523.697,242.136v13.917l16.189-15.351c-.117-.514-.292-1.006-.521-1.463-.526-1.054-1.134-1.855-1.913-2.523-.706-.588-1.566-1.078-2.54-1.443-.828-.311-1.876-.474-3.032-.474-1.109,0-2.027.151-2.891.474l-.152.048c-.837.209-1.644.635-2.403,1.267-.907.777-1.599,1.627-2.04,2.51-.457.914-.698,1.964-.698,3.038ZM540.064,257.657v-13.233l-16.033,15.203c.102.32.219.632.366.927.441.883,1.133,1.732,2.056,2.522.705.587,1.564,1.077,2.54,1.443.858.322,1.772.469,2.957.474,1.078-.005,1.977-.156,2.823-.474l.152-.048c.837-.208,1.644-.635,2.403-1.267.906-.777,1.597-1.626,2.039-2.51.457-.913.698-1.962.698-3.038Z" stroke="#000" stroke-miterlimit="10" stroke-width="1.5"/>
      <path d="M576.984,240.401c0,3.5-2.849,6.349-6.349,6.349s-6.349-2.849-6.349-6.349,2.849-6.349,6.349-6.349,6.349,2.849,6.349,6.349ZM574.162,240.401c0-1.944-1.583-3.527-3.527-3.527s-3.527,1.583-3.527,3.527,1.583,3.527,3.527,3.527,3.527-1.583,3.527-3.527Z" stroke="#000" stroke-miterlimit="10" stroke-width="1.5"/>
      <path d="M608.319,264.992v2.822h-9.029v-2.822h3.104v-28.956l-2.206,1.826-1.799-2.174,4.482-3.709h2.344v33.013h3.104Z" stroke="#000" stroke-miterlimit="10" stroke-width="1.5"/>
      <path d="M624.685,264.992v2.822h-9.029v-2.822h3.104v-28.956l-2.206,1.826-1.799-2.174,4.482-3.709h2.344v33.013h3.104Z" stroke="#000" stroke-miterlimit="10" stroke-width="1.5"/>
      <path d="M646.115,264.527c0-1.636,1.264-2.963,2.822-2.963s2.822,1.327,2.822,2.963-1.263,2.963-2.822,2.963-2.822-1.326-2.822-2.963Z" stroke="#000" stroke-miterlimit="10" stroke-width="1.5"/>
      <path d="M683.092,264.992v2.822h-9.029v-2.822h3.104v-28.956l-2.206,1.826-1.799-2.174,4.482-3.709h2.344v33.013h3.104Z" stroke="#000" stroke-miterlimit="10" stroke-width="1.5"/>
      <path d="M710.8,252.596c-1.353,5.868-7.733,12.25-11.819,14.607l-1.41-2.443c3.626-2.093,9.366-7.966,10.476-12.781.185-.844.321-1.757.424-2.678-.24.21-.491.412-.755.605-.745.597-2.187,1.421-3.41,1.771-1.23.352-6.466.374-7.937-.176-1.443-.542-2.624-1.191-3.513-1.932-.972-.81-1.793-1.794-2.438-2.923-.786-1.373-.892-2.693-.892-3.804v-1.27c0-1.194.261-2.356.82-3.66l.072-.144c.645-1.13,1.466-2.114,2.438-2.923.888-.739,2.068-1.389,3.512-1.93,1.174-.44,2.536-.655,4.164-.655,1.393,0,2.75.292,4.011.607l.152.048c1.443.542,2.625,1.191,3.512,1.93.972.81,1.793,1.793,2.438,2.923.786,1.373.892,2.693.892,3.804.01.197.278,6.381-.738,11.024ZM708.714,243.268h.036c-.006-.983-.034-1.61-.034-1.629-.001-1.142-.146-1.814-.521-2.468-.479-.838-1.082-1.563-1.794-2.157-.621-.518-1.525-1.01-2.622-1.428-.992-.246-2.135-.502-3.247-.502-1.284,0-2.321.155-3.173.474-1.129.425-2.062.927-2.695,1.456-.694.577-1.284,1.28-1.755,2.086-.385.919-.559,1.684-.559,2.472v1.27c0,1.077.146,1.751.519,2.404.477.835,1.081,1.562,1.795,2.156.636.531,1.567,1.033,2.696,1.456.827.295,5.35.323,6.174.106.812-.233,1.913-.855,2.466-1.297,1.691-1.243,2.714-2.915,2.714-4.4h-.001Z" stroke="#000" stroke-miterlimit="10" stroke-width="1.5"/>
      <path d="M721.857,265.134h17.444v2.822h-21.304v-2.812l3.709-4.048c1.944-2.166,3.728-4.151,5.421-5.957.841-.841,1.683-1.824,2.497-2.775.851-.992,4.249-4.817,4.249-4.817.386-.388.603-.662.748-.842.086-.109.159-.196.22-.264.414-.526.761-1.192,1.006-1.928.233-.699.352-1.257.352-2.376,0-.961-.198-1.914-.591-2.831-.357-.947-.926-1.629-1.676-2.38-.856-.706-1.668-1.213-2.461-1.51-2.269-.851-3.796-.849-6.062,0-1.039.39-1.82.869-2.462,1.511-.741.741-1.336,1.585-1.676,2.38l-2.593-1.112c.485-1.133,1.273-2.262,2.274-3.263.926-.924,2.059-1.629,3.467-2.157,2.887-1.086,5.151-1.086,8.045,0,1.443.542,2.614,1.442,3.37,2.071.926.918,1.852,1.965,2.393,3.41.521,1.209.796,2.535.796,3.881,0,1.484-.19,2.35-.496,3.269-.354,1.064-.877,2.044-1.507,2.833l-.193.23c-.189.237-.473.591-.899,1.016.003,0-3.322,3.742-4.159,4.718-.849.991-1.727,2.015-2.613,2.901-1.649,1.759-3.419,3.73-5.349,5.879l-1.947,2.151h-.001Z" stroke="#000" stroke-miterlimit="10" stroke-width="1.5"/>
      <path d="M827.714,233.421v34.425h-2.942l-8.13-14.464-7.989,14.464h-2.949v-34.425h2.822v28.818l6.646-12.029h2.927l6.794,12.09v-28.879h2.822Z" stroke="#000" stroke-miterlimit="10" stroke-width="1.5"/>
      <path d="M870.133,237.978c.652,1.301.996,2.788.996,4.299v15.378c0,1.511-.344,3-.996,4.3-.609,1.222-1.532,2.366-2.741,3.403-1.079.898-2.239,1.511-3.461,1.83-1.114.407-2.315.612-3.665.625h-.142c-1.508-.011-2.71-.214-3.881-.653-1.272-.479-2.406-1.127-3.371-1.932-1.225-1.048-2.147-2.194-2.758-3.416-.652-1.301-.996-2.788-.996-4.297v-15.378c0-1.51.346-2.997.996-4.299.61-1.222,1.533-2.367,2.742-3.403,1.08-.9,2.239-1.511,3.461-1.83,1.153-.42,2.398-.626,3.807-.626,1.512,0,2.864.219,4.022.653,1.272.477,2.406,1.127,3.372,1.932,1.074.918,1.925,2.033,2.616,3.414h-.002ZM851.941,242.136v13.917l16.189-15.351c-.117-.514-.292-1.006-.521-1.463-.526-1.054-1.134-1.855-1.913-2.523-.705-.588-1.566-1.078-2.54-1.443-.828-.311-1.876-.474-3.031-.474-1.109,0-2.027.151-2.892.474l-.152.048c-.836.209-1.644.635-2.402,1.267-.907.777-1.599,1.627-2.04,2.51-.457.914-.698,1.964-.698,3.038ZM868.308,257.657v-13.233l-16.033,15.203c.102.32.219.632.365.927.442.883,1.133,1.732,2.056,2.522.706.587,1.565,1.077,2.54,1.443.857.322,1.771.469,2.957.474,1.078-.005,1.977-.156,2.823-.474l.152-.048c.837-.208,1.644-.635,2.402-1.267.906-.777,1.598-1.626,2.039-2.51.457-.913.698-1.962.698-3.038Z" stroke="#000" stroke-miterlimit="10" stroke-width="1.5"/>
      <path d="M895.032,256.529h3.81v2.822h-3.81v7.055h-2.821v-7.055h-14.673v-3.071l14.578-24.3h2.915v24.548h0ZM892.21,237.307l-11.533,19.22h11.533v-19.22Z" stroke="#000" stroke-miterlimit="10" stroke-width="1.5"/>
      <path d="M915.201,264.992v2.822h-9.03v-2.822h3.104v-28.956l-2.205,1.826-1.799-2.174,4.482-3.709h2.343v33.013h3.104Z" stroke="#000" stroke-miterlimit="10" stroke-width="1.5"/>
      <path d="M949.327,240.401c0,3.5-2.849,6.349-6.349,6.349s-6.349-2.849-6.349-6.349,2.849-6.349,6.349-6.349,6.349,2.849,6.349,6.349ZM946.506,240.401c0-1.944-1.583-3.527-3.527-3.527s-3.527,1.583-3.527,3.527,1.583,3.527,3.527,3.527,3.527-1.583,3.527-3.527Z" stroke="#000" stroke-miterlimit="10" stroke-width="1.5"/>
      <path d="M988.227,256.529h3.81v2.822h-3.81v7.055h-2.821v-7.055h-14.673v-3.071l14.578-24.3h2.915v24.548h0ZM985.405,237.307l-11.533,19.22h11.533v-19.22Z" stroke="#000" stroke-miterlimit="10" stroke-width="1.5"/>
      <path d="M1019.483,237.978c.651,1.301.996,2.788.996,4.299v15.378c0,1.511-.345,3-.996,4.3-.609,1.222-1.532,2.366-2.741,3.403-1.08.898-2.239,1.511-3.461,1.83-1.115.407-2.315.612-3.666.625h-.141c-1.509-.011-2.711-.214-3.882-.653-1.272-.479-2.405-1.127-3.37-1.932-1.225-1.048-2.147-2.194-2.759-3.416-.651-1.301-.996-2.788-.996-4.297v-15.378c0-1.51.346-2.997.996-4.299.611-1.222,1.534-2.367,2.743-3.403,1.079-.9,2.239-1.511,3.461-1.83,1.152-.42,2.398-.626,3.807-.626,1.511,0,2.864.219,4.022.653,1.272.477,2.405,1.127,3.372,1.932,1.073.918,1.924,2.033,2.615,3.414h0ZM1001.291,242.136v13.917l16.19-15.351c-.117-.514-.292-1.006-.521-1.463-.526-1.054-1.135-1.855-1.913-2.523-.706-.588-1.566-1.078-2.54-1.443-.828-.311-1.877-.474-3.032-.474-1.108,0-2.027.151-2.891.474l-.152.048c-.837.209-1.644.635-2.402,1.267-.907.777-1.599,1.627-2.041,2.51-.457.914-.698,1.964-.698,3.038ZM1017.659,257.657v-13.233l-16.033,15.203c.102.32.219.632.365.927.441.883,1.133,1.732,2.056,2.522.705.587,1.564,1.077,2.539,1.443.858.322,1.772.469,2.958.474,1.077-.005,1.977-.156,2.822-.474l.153-.048c.836-.208,1.644-.635,2.402-1.267.905-.777,1.597-1.626,2.039-2.51.457-.913.698-1.962.698-3.038Z" stroke="#000" stroke-miterlimit="10" stroke-width="1.5"/>
      <path d="M1041.881,264.527c0-1.636,1.263-2.963,2.821-2.963s2.822,1.327,2.822,2.963-1.264,2.963-2.822,2.963-2.821-1.326-2.821-2.963Z" stroke="#000" stroke-miterlimit="10" stroke-width="1.5"/>
      <path d="M1089.95,231.979v3.992l-14.532,30.05v.382h-2.821v-1.029l14.532-30.05v-.523h-18.2v-2.822h21.021Z" stroke="#000" stroke-miterlimit="10" stroke-width="1.5"/>
      <path d="M1117.393,251.095c.533,1.246.794,3.653.794,4.869,0,1.301,0,2.16-.612,4.456-.54,2.157-1.647,3.609-2.481,4.443-.933.931-2.715,2.12-4.182,2.487-1.385.465-3.645.465-4.858.465-1.433,0-3.918-.808-4.929-1.241-1.185-.508-3.406-2.006-4.757-3.206l1.875-2.109c1.182,1.05,3.184,2.373,3.993,2.722.932.399,2.991,1.014,3.817,1.014.979,0,3.017,0,4.069-.351.903-.23,2.245-1.045,2.976-1.776.581-.58,1.357-1.6,1.745-3.153.522-1.958.522-2.52.522-3.749,0-1.252-.286-3.109-.592-3.819-.347-.92-.769-1.62-1.479-2.474-.619-.743-1.295-1.275-2.011-1.582-.888-.381-1.827-.733-2.689-.733h-3.809v-3.073l8.383-9.484h-12.898v-2.822h15.943v3.636l-7.884,8.92h.265c1.376,0,2.693.485,3.802.96,1.127.484,2.16,1.281,3.067,2.369.918,1.101,1.495,2.067,1.931,3.229h0Z" stroke="#000" stroke-miterlimit="10" stroke-width="1.5"/>
      <path d="M1145.75,252.299c.786,1.374.892,2.695.892,3.804v1.27c0,1.194-.261,2.356-.819,3.66l-.072.144c-.645,1.13-1.466,2.114-2.438,2.923-.889.741-2.069,1.39-3.512,1.93-1.174.44-2.535.655-4.163.655-1.394,0-2.751-.292-4.011-.607l-.152-.048c-1.442-.541-2.625-1.191-3.512-1.93-.973-.81-1.792-1.794-2.438-2.923-.786-1.374-.892-2.693-.892-3.804-.01-.196-.276-6.381.738-11.023,1.355-5.868,7.734-12.25,11.82-14.607l1.409,2.443c-3.625,2.091-9.364,7.966-10.476,12.781-.185.844-.322,1.757-.425,2.678.24-.21.492-.412.756-.605.745-.597,2.188-1.421,3.41-1.771,1.229-.353,6.465-.375,7.937.176,1.44.54,2.623,1.191,3.512,1.932.972.81,1.793,1.794,2.438,2.923h0ZM1143.822,257.375v-1.27c0-1.075-.145-1.75-.519-2.404-.478-.835-1.081-1.562-1.795-2.156-.636-.531-1.568-1.034-2.696-1.456-.826-.293-5.349-.322-6.174-.106-.812.233-1.913.855-2.466,1.296-1.693,1.243-2.717,2.917-2.717,4.401h-.035c.006.983.034,1.611.034,1.629,0,1.14.146,1.813.521,2.468.479.835,1.082,1.562,1.795,2.156.619.518,1.525,1.01,2.621,1.428,1.062.264,2.186.502,3.247.502,1.283,0,2.32-.155,3.173-.474,1.129-.425,2.062-.927,2.696-1.456.693-.577,1.283-1.28,1.755-2.087.385-.918.559-1.683.559-2.472h0Z" stroke="#000" stroke-miterlimit="10" stroke-width="1.5"/>
    </g>
    <g>
      <rect x="536.195" y="284.046" width="508" height="52.826" fill="none"/>
      <path d="M643.692,313.222c.417,1.106.82,2.438.82,4.364,0,1.995-.216,3.427-.679,4.506-.552,1.475-1.29,2.545-2.232,3.218-.879.833-2.062,1.37-3.438,1.562-1.139.308-2.232.308-3.386.308h-13.686v-17.193l-.282-.282v-18.502h13.402c1.164,0,2.294.172,3.268.495,1.169.333,2.369,1.03,3.232,1.894.883.883,1.662,2.021,2.133,3.121.418,1.112.82,2.444.82,4.367,0,1.903-.208,3.344-.635,4.401-.34,1.261-1.113,2.476-2.09,3.282-.192.188-.397.351-.606.506.365.251.704.506.99.745.983.818,1.846,1.988,2.369,3.208h0ZM623.63,294.025v13.683h11.147c.411,0,.824.045,1.236.089.316-.031.611-.075.858-.156l.271-.061c.783-.097,1.356-.365,1.858-.868l.117-.104c.417-.334.985-1.038,1.205-1.92l.072-.214c.299-.696.45-1.837.45-3.394,0-1.469-.296-2.462-.617-3.315-.302-.698-.89-1.556-1.511-2.177-.528-.528-1.303-.974-2.071-1.194-.737-.244-1.582-.368-2.434-.368h-10.582ZM641.214,321.043c.323-.756.474-1.899.474-3.456,0-1.47-.295-2.46-.615-3.312-.329-.765-.906-1.549-1.558-2.092-.847-.706-1.494-1.088-2.165-1.28-.422-.122-.845-.21-1.268-.272-.56.042-1.136.044-1.73.044h-10.44v13.686h10.864c1.071,0,1.919,0,2.716-.229l.213-.044c.846-.105,1.538-.406,1.999-.868l.214-.176c.49-.326.913-.98,1.295-2.002h0Z" stroke="#000" stroke-miterlimit="10" stroke-width="1.5"/>
      <path d="M672.953,304.465v9.735c0,1.931-.329,3.771-.948,5.32-.588,1.624-1.505,3.079-2.708,4.283-.91,1.067-2.076,1.905-3.396,2.413-1.301.641-2.63.964-3.952.964h-11.005v-35.836h11.005c1.459,0,2.819.325,4.158.995,1.384.693,2.496,1.543,3.404,2.602.9.896,1.717,2.256,2.496,4.205.642,1.764.947,3.491.947,5.32ZM670.132,304.465c0-1.515-.243-2.887-.762-4.314-.617-1.539-1.234-2.599-1.93-3.294-.741-.858-1.542-1.466-2.596-1.994-.951-.475-1.871-.697-2.895-.697h-8.183v30.193h8.183c.903,0,1.83-.236,2.755-.698l.136-.06c.911-.34,1.691-.901,2.387-1.712.983-.991,1.679-2.098,2.143-3.374.497-1.243.762-2.76.762-4.314v-9.735Z" stroke="#000" stroke-miterlimit="10" stroke-width="1.5"/>
      <path d="M701.515,294.317v32.874h-2.822v-14.955h-16.507v14.955h-2.822v-32.874h2.822v15.097h16.507v-15.097h2.822Z" stroke="#000" stroke-miterlimit="10" stroke-width="1.5"/>
      <path d="M717.665,294.325v30.193h6.913v2.822h-16.648v-2.822h6.914v-30.193h-6.914v-2.822h16.648v2.822h-6.913Z" stroke="#000" stroke-miterlimit="10" stroke-width="1.5"/>
      <path d="M767.134,313.213c.612,1.213.907,2.407.907,3.547,0,3.039-1.115,5.535-3.315,7.419-2.056,1.899-4.656,2.88-7.689,2.88h-.282c-2.86,0-5.495-1.017-7.832-3.021-1.825-1.545-2.36-2.91-2.748-3.906-.059-.145-.111-.285-.17-.419l2.594-1.113c.069.161.135.329.204.504.326.834.663,1.696,1.951,2.785,1.845,1.583,3.806,2.348,6.002,2.348h.282c2.334,0,4.237-.708,5.814-2.166,1.63-1.397,2.369-3.073,2.369-5.312,0-.694-.198-1.473-.558-2.191-.309-.506-.758-1.175-1.354-1.573-.686-.542-1.566-1.049-2.453-1.429-.576-.247-1.224-.446-1.975-.676-.416-.128-.851-.262-1.302-.412l-4.149-1.105c-2.236-.687-3.849-1.721-4.981-3.177-1.229-1.579-1.852-3.436-1.852-5.522,0-2.581,1.071-4.794,3.181-6.581,2.005-1.851,4.28-2.733,7.12-2.733h.281c2.853.165,5.234,1.143,7.161,2.909,1.465,1.301,2.351,2.857,2.692,4.739l-2.778.502c-.229-1.271-.786-2.242-1.805-3.148-1.451-1.331-3.249-2.061-5.354-2.186l-.198.003c-2.115,0-3.736.625-5.252,2.025-1.514,1.284-2.228,2.731-2.228,4.467,0,1.445.424,2.719,1.256,3.79.776.998,1.899,1.696,3.534,2.2l4.182,1.114c.513.167.925.293,1.319.415.796.244,1.545.474,2.261.78,1.124.481,2.219,1.117,3.006,1.747.963.636,1.64,1.623,2.162,2.493h-.003Z" stroke="#000" stroke-miterlimit="10" stroke-width="1.5"/>
      <path d="M795.07,295.789h-8.889v31.462h-2.821v-31.462h-8.89v-2.822h20.6v2.822Z" stroke="#000" stroke-miterlimit="10" stroke-width="1.5"/>
      <path d="M804.291,294.307v11.569h10.158v2.822h-10.158v15.661h18.482v2.822h-21.304v-35.695h21.304v2.822h-18.482Z" stroke="#000" stroke-miterlimit="10" stroke-width="1.5"/>
      <path d="M832.025,294.307v11.569h10.158v2.822h-10.158v15.661h18.482v2.822h-21.304v-35.695h21.304v2.822h-18.482Z" stroke="#000" stroke-miterlimit="10" stroke-width="1.5"/>
      <path d="M870.94,312.888l8.148,13.498v.817h-2.111l-.507.306-8.622-14.278c-.062,0-.127.004-.188.004h-7.902v13.968h-2.821v-34.425h10.581c1.628,0,3.239.336,4.666.968,1.53.681,2.776,1.515,3.81,2.549.838.837,1.459,1.923,2.06,2.973l.074.15c.56,1.306.82,2.469.82,3.66,0,1.236-.283,2.55-.82,3.801-.472,1.1-1.251,2.239-2.134,3.122-.815.816-2.135,1.904-3.795,2.458-.417.186-.837.323-1.259.432h0ZM859.759,295.599v14.814h7.902c1.586,0,2.572-.165,3.518-.584,1.016-.346,1.971-.975,2.82-1.824.629-.631,1.205-1.469,1.536-2.24.387-.902.591-1.832.591-2.688,0-.788-.173-1.553-.56-2.476-.52-.908-1.009-1.754-1.566-2.312-.797-.797-1.738-1.422-2.961-1.967-1.066-.473-2.283-.724-3.519-.724h-7.762Z" stroke="#000" stroke-miterlimit="10" stroke-width="1.5"/>
      <path d="M895.238,294.325v30.193h6.914v2.822h-16.648v-2.822h6.913v-30.193h-6.913v-2.822h16.648v2.822h-6.914Z" stroke="#000" stroke-miterlimit="10" stroke-width="1.5"/>
      <path d="M930.592,292.725v34.455h-2.8l-16.389-29.029v29.005h-2.821v-34.285h3.081l16.106,28.528v-28.675h2.822Z" stroke="#000" stroke-miterlimit="10" stroke-width="1.5"/>
      <path d="M949.416,307.995h10.159v10.158c0,1.06,0,2.663-.92,4.134l-.126.19c-.552.833-1.122,1.693-2.439,2.516-.65.494-2.245,1.26-3.355,1.676-1.174.44-2.535.655-4.163.655s-2.989-.214-4.163-.655c-1.443-.542-2.625-1.191-3.512-1.93-1.246-.933-2.063-2.075-2.783-3.083l-.116-.193c-.652-1.302-.996-2.79-.996-4.299v-15.52c0-1.723.371-3.085,1.202-4.416.664-1.345,1.93-2.525,2.817-3.288,1.045-.87,2.307-1.343,3.525-1.8,1.176-.442,2.538-.656,4.166-.656s2.99.214,4.164.655c1.091.408,2.25.962,3.449,1.646l.147.096c1.448,1.088,2.491,2.253,3.095,3.461l-2.523,1.263c-.398-.796-1.136-1.607-2.195-2.413-1.027-.581-2.051-1.068-2.963-1.411-.853-.32-1.89-.476-3.174-.476s-2.322.154-3.173.474c-1.048.394-2.036.763-2.697,1.315-.686.59-1.679,1.507-2.18,2.51-.608.985-.84,1.858-.84,3.038v15.52c0,1.037.226,2.051.652,2.943.638.89,1.25,1.729,2.171,2.418.691.573,1.624,1.076,2.753,1.5.852.32,1.889.476,3.173.476s2.321-.155,3.173-.474c1.075-.403,2.341-1.051,2.753-1.36.896-.567,1.209-1.037,1.681-1.75l.106-.163c.469-.75.469-1.735.469-2.603v-7.336h-7.337v-2.819Z" stroke="#000" stroke-miterlimit="10" stroke-width="1.5"/>
    </g>
    <g>
      <rect x="983.927" y="351.693" width="162.259" height="52.826" fill="none"/>
      <path d="M993.449,363.371v11.569h9.171v2.822h-9.171v17.072h-2.821v-34.284h21.304v2.822h-18.482Z" stroke="#000" stroke-miterlimit="10" stroke-width="1.5"/>
      <path d="M1018.361,394.851v-33.014h2.821v33.014h-2.821Z" stroke="#000" stroke-miterlimit="10" stroke-width="1.5"/>
      <path d="M1044.212,372.423h2.599v.667l-.081.229c-.271.76-6.646,18.666-7.214,20.085-.279.693-1.304,3.118-2.852,5.244-1.335,1.837-2.96,3.843-4.883,4.806-1.741.868-2.91,1.31-2.958,1.328l-.993-2.642c.012-.004,1.093-.413,2.688-1.21,1.388-.694,2.793-2.47,3.862-3.941.516-.708.991-1.508,1.408-2.289l-8.167-21.597v-.68h2.529l.202-.077,7.05,18.639c1.301-3.566,4.65-12.95,6.584-18.384l.064-.179c.007-.019.013-.034.018-.051l.143.051h0Z" stroke="#000" stroke-miterlimit="10" stroke-width="1.5"/>
      <path d="M1053.248,382.911v-2.822h11.429v2.822h-11.429Z" stroke="#000" stroke-miterlimit="10" stroke-width="1.5"/>
      <path d="M1091.682,363.433h-8.888v31.462h-2.822v-31.462h-8.889v-2.822h20.599v2.822Z" stroke="#000" stroke-miterlimit="10" stroke-width="1.5"/>
      <path d="M1118.963,382.97c0,6.536-4.685,11.852-10.44,11.852s-10.44-5.317-10.44-11.852,4.684-11.851,10.44-11.851,10.44,5.316,10.44,11.851ZM1116.14,382.97c0-4.979-3.417-9.029-7.618-9.029s-7.619,4.05-7.619,9.029,3.417,9.03,7.619,9.03,7.618-4.051,7.618-9.03Z" stroke="#000" stroke-miterlimit="10" stroke-width="1.5"/>
      <path d="M1139.483,371.765h-4.631l2.331,4.1-2.455,1.394-2.3-4.048-2.3,4.048-2.454-1.394,2.329-4.1h-4.629v-2.822h4.629l-2.329-4.1,2.454-1.394,2.3,4.048,2.3-4.048,2.455,1.394-2.331,4.1h4.631v2.822Z" stroke="#000" stroke-miterlimit="10" stroke-width="1.5"/>
    </g>
    <g>
      <rect x="914.599" y="477.072" width="231.587" height="52.826" fill="none"/>
      <path d="M933.428,488.751v11.569h9.171v2.821h-9.171v17.072h-2.821v-34.284h21.304v2.822h-18.482Z" stroke="#000" stroke-miterlimit="10" stroke-width="1.5"/>
      <path d="M979.67,492.441c.559,1.301.819,2.465.819,3.66,0,1.24-.283,2.554-.819,3.803-.472,1.097-1.248,2.236-2.134,3.12-.814.816-2.135,1.904-3.795,2.458-1.543.691-3.335.777-4.539.777h-8.04v13.968h-2.822v-34.425h10.723c1.697,0,3.179.308,4.666.968,1.528.681,2.773,1.515,3.81,2.549.885.884,1.662,2.022,2.133,3.123h0ZM977.079,498.79c.387-.9.592-1.83.592-2.689,0-.812-.183-1.597-.592-2.548-.325-.76-.914-1.618-1.535-2.239-.798-.797-1.739-1.422-2.961-1.966-1.127-.501-2.212-.725-3.519-.725h-7.901v14.814h8.041c1.525,0,2.608-.179,3.519-.584,1.016-.346,1.971-.975,2.82-1.824.622-.622,1.211-1.479,1.535-2.239h0Z" stroke="#000" stroke-miterlimit="10" stroke-width="1.5"/>
      <path d="M1023.909,485.932v34.425h-2.942l-8.13-14.464-7.989,14.464h-2.948v-34.425h2.821v28.818l6.646-12.029h2.928l6.793,12.09v-28.879h2.822Z" stroke="#000" stroke-miterlimit="10" stroke-width="1.5"/>
      <path d="M1051.649,492.441c.559,1.301.819,2.465.819,3.66,0,1.24-.283,2.554-.819,3.803-.472,1.097-1.248,2.236-2.134,3.12-.814.816-2.135,1.904-3.795,2.458-1.543.691-3.335.777-4.539.777h-8.04v13.968h-2.822v-34.425h10.723c1.697,0,3.179.308,4.666.968,1.528.681,2.773,1.515,3.81,2.549.885.884,1.662,2.022,2.133,3.123h0ZM1049.058,498.79c.387-.9.592-1.83.592-2.689,0-.812-.183-1.597-.592-2.548-.325-.76-.914-1.618-1.535-2.239-.798-.797-1.739-1.422-2.961-1.966-1.127-.501-2.212-.725-3.519-.725h-7.9v14.814h8.04c1.525,0,2.608-.179,3.519-.584,1.016-.346,1.971-.975,2.82-1.824.622-.622,1.211-1.479,1.535-2.239h0Z" stroke="#000" stroke-miterlimit="10" stroke-width="1.5"/>
      <path d="M1075.034,500.813l-.948,6.772h4.268v2.822h-4.663l-1.263,9.029h-2.821l.014-.621,1.172-8.409h-5.044l-1.22,9.029h-2.821l.013-.613,1.131-8.416h-3.966v-2.822h4.346l.91-6.772h-4.127v-2.822h4.507l1.137-8.465h2.822l-.013.755-1.042,7.71h5.097l1.178-8.465h2.822l-.015.762-1.078,7.703h4.054v2.822h-4.448ZM1071.185,507.585l.942-6.772h-5.085l-.914,6.772h5.057Z" stroke="#000" stroke-miterlimit="10" stroke-width="1.5"/>
      <path d="M1102.033,500.813l-.948,6.772h4.268v2.822h-4.663l-1.263,9.029h-2.821l.014-.621,1.172-8.409h-5.044l-1.22,9.029h-2.821l.013-.613,1.132-8.416h-3.967v-2.822h4.346l.91-6.772h-4.127v-2.822h4.507l1.137-8.465h2.822l-.013.755-1.042,7.71h5.097l1.178-8.465h2.822l-.015.762-1.078,7.703h4.054v2.822h-4.448ZM1098.184,507.585l.942-6.772h-5.085l-.914,6.772h5.057Z" stroke="#000" stroke-miterlimit="10" stroke-width="1.5"/>
      <path d="M1122.193,509.892v-4.694h-9.312v-2.822h9.312v-4.478l7.995,5.864-7.995,6.13Z" stroke="#000" stroke-miterlimit="10" stroke-width="1.5"/>
    </g>
    <g>
      <rect x="814.034" y="602.451" width="332.152" height="52.826" fill="none"/>
      <path d="M915.661,617.82c.559,1.301.819,2.465.819,3.659,0,1.24-.283,2.554-.819,3.803-.472,1.098-1.248,2.236-2.134,3.12-.814.816-2.135,1.904-3.795,2.459-1.543.691-3.335.776-4.539.776h-8.04v13.968h-2.822v-34.425h10.723c1.697,0,3.179.308,4.666.968,1.528.681,2.773,1.515,3.81,2.549.885.885,1.662,2.022,2.133,3.123h0ZM913.07,624.169c.387-.9.592-1.83.592-2.689,0-.812-.183-1.597-.592-2.548-.325-.76-.914-1.618-1.535-2.239-.798-.797-1.739-1.422-2.961-1.966-1.127-.502-2.212-.725-3.519-.725h-7.9v14.814h8.04c1.525,0,2.608-.18,3.519-.584,1.016-.346,1.971-.976,2.82-1.824.622-.622,1.211-1.479,1.535-2.239h0Z" stroke="#000" stroke-miterlimit="10" stroke-width="1.5"/>
      <path d="M945.047,612.719v32.873h-2.822v-14.955h-16.507v14.955h-2.821v-32.873h2.821v15.097h16.507v-15.097h2.822Z" stroke="#000" stroke-miterlimit="10" stroke-width="1.5"/>
      <path d="M973.474,611.311v24.407c0,1.562-.365,3.062-1.032,4.228-.573,1.152-1.496,2.298-2.706,3.334-1.019.852-2.12,1.322-3.185,1.778-1.233.464-2.502.679-3.94.679-1.513,0-2.867-.22-4.024-.654-1.271-.477-2.405-1.126-3.37-1.93-1.026-.882-2.059-1.876-2.757-3.275-.671-1.339-.996-2.701-.996-4.158v-24.408h2.821v24.408c0,1.024.222,1.944.698,2.896.449.898,1.146,1.602,2.055,2.382.705.587,1.566,1.076,2.54,1.441.827.312,1.876.476,3.031.476,1.107,0,2.027-.151,2.89-.474.859-.371,1.727-.742,2.414-1.315.907-.778,1.6-1.627,2.04-2.51.457-.805.698-1.836.698-2.896v-24.408h2.823Z" stroke="#000" stroke-miterlimit="10" stroke-width="1.5"/>
      <path d="M1001.891,622.868v9.735c0,1.931-.329,3.771-.948,5.32-.589,1.624-1.506,3.078-2.709,4.283-.91,1.066-2.075,1.904-3.396,2.412-1.301.641-2.63.964-3.951.964h-11.005v-35.836h11.005c1.458,0,2.818.324,4.157.994,1.385.693,2.496,1.544,3.404,2.602.9.896,1.718,2.257,2.496,4.205.643,1.764.947,3.49.947,5.32ZM999.069,622.868c0-1.516-.242-2.887-.762-4.314-.616-1.539-1.234-2.599-1.93-3.295-.741-.857-1.543-1.466-2.597-1.993-.951-.476-1.871-.697-2.895-.697h-8.184v30.193h8.184c.902,0,1.829-.236,2.755-.698l.136-.06c.911-.34,1.691-.901,2.387-1.713.983-.99,1.68-2.098,2.144-3.373.497-1.243.762-2.76.762-4.314v-9.735Z" stroke="#000" stroke-miterlimit="10" stroke-width="1.5"/>
      <path d="M1044.426,631.615c.612,1.214.907,2.407.907,3.548,0,3.039-1.115,5.534-3.316,7.419-2.056,1.899-4.655,2.88-7.689,2.88h-.281c-2.86,0-5.496-1.017-7.832-3.021-1.826-1.545-2.36-2.909-2.749-3.905-.058-.146-.111-.285-.169-.419l2.593-1.113c.069.161.136.329.205.504.326.834.663,1.695,1.951,2.785,1.844,1.583,3.806,2.348,6.002,2.348h.282c2.334,0,4.237-.709,5.814-2.166,1.629-1.396,2.368-3.073,2.368-5.312,0-.694-.197-1.474-.557-2.191-.31-.507-.758-1.176-1.354-1.573-.686-.542-1.566-1.05-2.454-1.43-.575-.246-1.223-.445-1.974-.676-.416-.128-.851-.262-1.302-.411l-4.149-1.105c-2.236-.687-3.85-1.721-4.982-3.177-1.229-1.579-1.851-3.436-1.851-5.522,0-2.58,1.07-4.794,3.18-6.58,2.005-1.852,4.281-2.733,7.121-2.733h.28c2.854.165,5.234,1.144,7.162,2.909,1.465,1.301,2.351,2.857,2.692,4.739l-2.778.503c-.23-1.271-.786-2.242-1.805-3.148-1.452-1.33-3.249-2.061-5.354-2.186l-.199.003c-2.114,0-3.735.625-5.251,2.025-1.514,1.283-2.228,2.731-2.228,4.467,0,1.444.423,2.719,1.256,3.789.775.998,1.898,1.696,3.534,2.2l4.182,1.114c.512.166.924.293,1.319.415.796.244,1.545.474,2.26.78,1.125.48,2.22,1.117,3.007,1.746.962.637,1.64,1.623,2.161,2.493h-.002Z" stroke="#000" stroke-miterlimit="10" stroke-width="1.5"/>
      <path d="M1068.353,623.182h2.599v.667l-.081.229c-.271.761-6.646,18.666-7.214,20.086-.279.692-1.304,3.118-2.852,5.244-1.335,1.837-2.96,3.843-4.883,4.806-1.741.867-2.91,1.31-2.958,1.327l-.993-2.642c.012-.004,1.093-.413,2.688-1.21,1.388-.694,2.793-2.47,3.862-3.94.516-.709.991-1.508,1.408-2.289l-8.167-21.597v-.681h2.529l.202-.076,7.05,18.639c1.301-3.566,4.65-12.95,6.585-18.384l.063-.179c.007-.019.013-.034.018-.051l.143.051h0Z" stroke="#000" stroke-miterlimit="10" stroke-width="1.5"/>
      <path d="M1095.573,629.909c.391,1.946.218,3.624.153,4.098v11.609h-2.821l.021-11.941c0-.01.229-1.488-.133-3.302-.227-1.67-.811-2.861-1.804-3.73-.737-.645-2.146-1.061-3.586-1.061-1.221,0-2.467.446-3.508,1.256-2.151,1.812-3.265,4.298-3.265,7.351v11.428h-2.821v-11.428c0-.086.011-.166.013-.251l-.152.004s-.143-5.812-.143-7.653c0-.929-.138-2.988-.138-3.01l2.814-.188c.006.089.145,2.174.145,3.197v.197c.517-.661,1.104-1.278,1.772-1.842,1.577-1.228,3.437-1.883,5.282-1.883,2.148,0,4.183.658,5.442,1.76,1.509,1.321,2.427,3.134,2.728,5.39h0Z" stroke="#000" stroke-miterlimit="10" stroke-width="1.5"/>
      <path d="M1118.873,641.618l1.146,2.579-.78.346c-.653.992-2.567,1.046-5.859,1.046-6.771,0-11.146-4.542-11.146-11.569,0-7.173,4.819-11.992,11.992-11.992,1.552,0,3.689.267,4.582.714.512.255,1.148.51,1.163.516l-1.05,2.619s-.765-.308-1.376-.613c-.324-.145-1.838-.415-3.319-.415-5.571,0-9.171,3.599-9.171,9.17,0,5.478,3.112,8.748,8.324,8.748,2.191,0,3.191-.082,3.636-.145.2-.243.463-.404.714-.489l1.145-.515h0Z" stroke="#000" stroke-miterlimit="10" stroke-width="1.5"/>
      <path d="M1135.75,635.271v-4.693h-9.312v-2.822h9.312v-4.478l7.995,5.863-7.995,6.13Z" stroke="#000" stroke-miterlimit="10" stroke-width="1.5"/>
    </g>
    <g>
      <rect x="443.099" y="475.548" width="287.128" height="52.826" fill="none"/>
      <path d="M462.665,503.624h-9.312v4.753l-7.803-6.189,7.803-5.92v4.535h9.312v2.821Z" stroke="#000" stroke-miterlimit="10" stroke-width="1.5"/>
      <path d="M489.668,487.288h-8.888v31.462h-2.822v-31.462h-8.889v-2.822h20.599v2.822Z" stroke="#000" stroke-miterlimit="10" stroke-width="1.5"/>
      <path d="M516.667,507.121c0,.807-.075,1.593-.215,2.353-.026.794-.052,1.528-.074,2.203-.076,2.216-.133,3.836-.133,4.897,0,2.133-.523,4.365-.934,5.296-.736,2.421-2.636,3.922-3.657,4.432-2.026,1.25-4.19,1.599-6.026,1.599-1.668,0-3.064-.288-3.846-.447l-.208-.042c-1.214-.242-2.288-.612-3.198-1.1l-.052-.029c-.104-.056-.203-.114-.303-.173l.303-.502v-2.118h.813l.335.202c.703.422,1.597.743,2.655.955l.222.045c1.47.303,4.912,1.009,7.933-.851.576-.295,1.889-1.25,2.347-2.854l.095-.243c.169-.34.698-2.239.698-4.166,0-.305.006-.666.015-1.061-1.848,1.964-4.332,3.177-7.069,3.177-5.679,0-10.299-5.19-10.299-11.569s4.62-11.569,10.299-11.569c2.8,0,5.339,1.266,7.197,3.308.005-1.172.138-3.046.144-3.126l2.814.202c0,.019-.138,1.939-.138,3.003,0,.725.058,3.894.101,6.061.114.69.182,1.396.182,2.123v-.004ZM506.366,515.873c3.534,0,6.497-2.887,7.272-6.747.021-.651.043-1.318.065-2.043,0,0-.016-.769-.037-1.832-.734-3.925-3.728-6.874-7.3-6.874-4.124,0-7.478,3.923-7.478,8.747s3.355,8.748,7.478,8.748h0Z" stroke="#000" stroke-miterlimit="10" stroke-width="1.5"/>
      <path d="M530.12,499.09v13.262c0,1.111.26,2.143.662,2.624.473.552,1.713.903,2.583.903.85,0,1.757-.332,1.767-.334l.235-.089h.679v2.537l.073.195c-.014.005-.039.014-.073.027v.063h-.189c-.464.149-1.454.423-2.492.423-1.547,0-3.612-.588-4.739-1.903-1.198-1.439-1.326-3.587-1.326-4.445v-13.262h-4.232v-2.822h4.232v-6.208h2.821v6.208h6.35v2.822h-6.35Z" stroke="#000" stroke-miterlimit="10" stroke-width="1.5"/>
      <path d="M579.035,504.711c.612,1.213.907,2.407.907,3.547,0,3.039-1.115,5.535-3.316,7.419-2.056,1.899-4.655,2.88-7.688,2.88h-.282c-2.86,0-5.496-1.017-7.832-3.021-1.826-1.545-2.36-2.91-2.749-3.906-.058-.145-.111-.285-.169-.419l2.593-1.113c.069.161.136.329.205.504.326.834.663,1.696,1.951,2.785,1.844,1.583,3.806,2.348,6.002,2.348h.282c2.334,0,4.237-.708,5.814-2.166,1.629-1.397,2.368-3.073,2.368-5.312,0-.694-.197-1.473-.557-2.191-.31-.506-.758-1.175-1.354-1.573-.686-.542-1.566-1.049-2.454-1.429-.575-.247-1.223-.446-1.974-.676-.416-.128-.851-.262-1.302-.412l-4.149-1.105c-2.236-.687-3.85-1.721-4.982-3.177-1.229-1.579-1.851-3.436-1.851-5.522,0-2.581,1.07-4.794,3.18-6.581,2.005-1.851,4.281-2.733,7.121-2.733h.28c2.854.165,5.234,1.143,7.162,2.909,1.465,1.301,2.351,2.857,2.692,4.739l-2.778.502c-.23-1.271-.786-2.242-1.805-3.148-1.452-1.331-3.249-2.061-5.354-2.186l-.199.003c-2.114,0-3.735.625-5.251,2.025-1.514,1.284-2.228,2.731-2.228,4.467,0,1.445.423,2.719,1.256,3.79.775.998,1.898,1.696,3.534,2.2l4.182,1.114c.512.167.924.293,1.319.415.796.244,1.545.474,2.26.78,1.125.481,2.22,1.117,3.007,1.747.962.636,1.64,1.623,2.161,2.493h-.002Z" stroke="#000" stroke-miterlimit="10" stroke-width="1.5"/>
      <path d="M593.427,499.09v13.262c0,1.111.26,2.143.662,2.624.473.552,1.713.903,2.583.903.85,0,1.757-.332,1.767-.334l.235-.089h.679v2.537l.073.195c-.014.005-.039.014-.073.027v.063h-.189c-.464.149-1.454.423-2.492.423-1.547,0-3.612-.588-4.739-1.903-1.198-1.439-1.326-3.587-1.326-4.445v-13.262h-4.232v-2.822h4.232v-6.208h2.821v6.208h6.35v2.822h-6.35Z" stroke="#000" stroke-miterlimit="10" stroke-width="1.5"/>
      <path d="M623.745,517.581h-2.822v-.085c-.153-.288-.263-.582-.331-1.123-1.255,1.216-2.83,2.015-4.657,2.319-.344.039-.678.06-1.008.06-1.416,0-2.77-.363-4.477-1.159-.797-.393-2.629-1.302-3.647-3.508-.924-2.217-.517-4.297-.369-4.884.621-3.436,3.256-5.165,4.248-5.814l.146-.096c.383-.289.805-.484,1.145-.64.147-.068.289-.125.409-.207l.275-.144c1.94-.747,4.449-1.112,7.632-1.108-.194-.974-.774-1.784-.93-1.939l-.103-.116c-.823-1.029-1.859-1.37-2.249-1.499-1.065-.291-2.16-.285-3.538.02-1.128.226-2.064.546-2.816.803l-.431.147c-.234.095-.481.22-.698.329-.312.158-.584.288-.854.377l-.893-2.677c.153-.051.305-.134.483-.223.278-.138.594-.296.99-.454l.488-.168c.831-.284,1.863-.636,3.145-.893,1.119-.247,2.877-.523,4.881.022.666.218,2.311.76,3.649,2.402.564.599,1.582,2.126,1.759,4.052l.003,1.115h.003c0,.098.008.3.02.583.068,1.726.107,3.595.039,5.361.006.348.011.712.019,1.051.032,1.685.063,3.262.063,4.716,0,1.575.079,1.924.094,1.979.107.181.233.433.31.892l.02.515.002-.004ZM615.548,515.901c1.701-.286,3.085-1.208,4.037-2.731.302-.464.71-1.667.831-4.807-.025-1.388-.046-2.833-.052-4.349-2.744-.061-4.977.287-6.574.875-.196.117-.409.219-.637.323-.263.121-.491.226-.697.381l-.229.153c-.849.556-2.614,1.714-3.039,4.048-.059.252-.398,1.724.196,3.156.581,1.254,1.681,1.798,2.209,2.061,1.918.896,2.928,1,3.952.889h.002Z" stroke="#000" stroke-miterlimit="10" stroke-width="1.5"/>
      <path d="M630.178,506.766v-2.822h11.429v2.822h-11.429Z" stroke="#000" stroke-miterlimit="10" stroke-width="1.5"/>
    </g>
    <g>
      <rect x="444.633" y="600.927" width="231.587" height="52.826" fill="none"/>
      <path d="M464.198,629.004h-9.312v4.754l-7.803-6.189,7.803-5.92v4.534h9.312v2.821Z" stroke="#000" stroke-miterlimit="10" stroke-width="1.5"/>
      <path d="M492.048,641.396v2.822h-21.445v-34.285h2.821v31.463h18.624Z" stroke="#000" stroke-miterlimit="10" stroke-width="1.5"/>
      <path d="M519.813,616.296c.559,1.301.819,2.465.819,3.659,0,1.24-.283,2.554-.819,3.803-.472,1.098-1.248,2.236-2.134,3.12-.814.816-2.135,1.904-3.795,2.459-1.543.691-3.335.776-4.539.776h-8.04v13.968h-2.822v-34.425h10.723c1.697,0,3.179.308,4.666.968,1.528.681,2.773,1.515,3.81,2.549.885.885,1.662,2.022,2.133,3.123h0ZM517.223,622.644c.387-.9.592-1.83.592-2.689,0-.812-.183-1.597-.592-2.548-.325-.76-.914-1.618-1.535-2.239-.798-.797-1.739-1.422-2.961-1.966-1.127-.502-2.212-.725-3.519-.725h-7.901v14.814h8.041c1.525,0,2.608-.18,3.519-.584,1.016-.346,1.971-.976,2.82-1.824.622-.622,1.211-1.479,1.535-2.239h0Z" stroke="#000" stroke-miterlimit="10" stroke-width="1.5"/>
      <path d="M563.174,630.091c.612,1.214.907,2.407.907,3.548,0,3.039-1.115,5.534-3.316,7.419-2.056,1.899-4.655,2.88-7.688,2.88h-.282c-2.86,0-5.496-1.017-7.832-3.021-1.826-1.545-2.36-2.909-2.749-3.905-.058-.146-.111-.285-.169-.419l2.593-1.113c.069.161.136.329.205.504.326.834.663,1.695,1.951,2.785,1.844,1.583,3.806,2.348,6.002,2.348h.282c2.334,0,4.237-.709,5.814-2.166,1.629-1.396,2.368-3.073,2.368-5.312,0-.694-.197-1.474-.557-2.191-.31-.507-.758-1.176-1.354-1.573-.686-.542-1.566-1.05-2.454-1.43-.575-.246-1.223-.445-1.974-.676-.416-.128-.851-.262-1.302-.411l-4.149-1.105c-2.236-.687-3.85-1.721-4.982-3.177-1.229-1.579-1.851-3.436-1.851-5.522,0-2.58,1.07-4.794,3.18-6.58,2.005-1.852,4.281-2.733,7.121-2.733h.28c2.854.165,5.234,1.144,7.162,2.909,1.465,1.301,2.351,2.857,2.692,4.739l-2.778.503c-.23-1.271-.786-2.242-1.805-3.148-1.452-1.33-3.249-2.061-5.354-2.186l-.199.003c-2.114,0-3.735.625-5.251,2.025-1.514,1.283-2.228,2.731-2.228,4.467,0,1.444.423,2.719,1.256,3.789.775.998,1.898,1.696,3.534,2.2l4.182,1.114c.512.166.924.293,1.319.415.796.244,1.545.474,2.26.78,1.125.48,2.22,1.117,3.007,1.746.962.637,1.64,1.623,2.161,2.493h-.002Z" stroke="#000" stroke-miterlimit="10" stroke-width="1.5"/>
      <path d="M577.564,624.469v13.262c0,1.111.26,2.144.662,2.624.473.552,1.713.903,2.583.903.85,0,1.757-.332,1.767-.335l.235-.089h.679v2.537l.073.195c-.014.005-.039.014-.073.026v.063h-.189c-.464.149-1.454.423-2.492.423-1.547,0-3.612-.588-4.739-1.903-1.198-1.438-1.326-3.587-1.326-4.445v-13.262h-4.232v-2.822h4.232v-6.208h2.821v6.208h6.35v2.822h-6.35Z" stroke="#000" stroke-miterlimit="10" stroke-width="1.5"/>
      <path d="M607.884,642.961h-2.822v-.086c-.153-.288-.263-.581-.331-1.123-1.255,1.216-2.83,2.015-4.657,2.319-.344.039-.678.06-1.008.06-1.416,0-2.77-.362-4.477-1.159-.797-.393-2.629-1.302-3.647-3.508-.924-2.217-.517-4.298-.369-4.885.621-3.436,3.256-5.164,4.248-5.814l.146-.096c.383-.289.805-.484,1.145-.641.147-.067.289-.125.409-.206l.275-.144c1.94-.747,4.449-1.112,7.632-1.108-.194-.974-.774-1.784-.93-1.939l-.103-.115c-.823-1.029-1.859-1.37-2.249-1.499-1.065-.291-2.16-.285-3.538.021-1.128.226-2.064.545-2.816.802l-.431.147c-.234.095-.481.22-.698.328-.312.158-.584.288-.854.377l-.893-2.677c.153-.051.305-.134.483-.223.278-.138.594-.296.99-.454l.488-.168c.831-.284,1.863-.637,3.145-.894,1.119-.247,2.877-.523,4.881.022.666.218,2.311.76,3.649,2.402.564.599,1.582,2.126,1.759,4.052l.003,1.115h.003c0,.098.008.3.02.584.068,1.725.107,3.595.039,5.36.006.348.011.713.019,1.052.032,1.685.063,3.262.063,4.715,0,1.575.079,1.925.094,1.979.107.181.233.434.31.892l.02.515.002-.004ZM599.686,641.281c1.701-.287,3.085-1.208,4.037-2.732.302-.464.71-1.667.831-4.807-.025-1.388-.046-2.833-.052-4.349-2.744-.061-4.977.287-6.574.875-.196.117-.409.219-.637.323-.263.121-.491.226-.697.381l-.229.153c-.849.557-2.614,1.715-3.039,4.049-.059.252-.398,1.724.196,3.156.581,1.254,1.681,1.798,2.209,2.061,1.918.896,2.928,1,3.952.89h.002Z" stroke="#000" stroke-miterlimit="10" stroke-width="1.5"/>
      <path d="M630.465,624.668l-.948,6.772h4.268v2.821h-4.663l-1.263,9.029h-2.821l.014-.62,1.172-8.409h-5.044l-1.22,9.029h-2.821l.013-.613,1.131-8.416h-3.966v-2.821h4.346l.91-6.772h-4.127v-2.822h4.507l1.137-8.465h2.822l-.013.755-1.042,7.71h5.097l1.178-8.465h2.822l-.015.762-1.078,7.703h4.054v2.822h-4.448ZM626.616,631.44l.942-6.772h-5.085l-.914,6.772h5.057Z" stroke="#000" stroke-miterlimit="10" stroke-width="1.5"/>
    </g>
  </g>
  <g id="BDHI_Steering_Page_Arrows_-_Light">
    <path d="M446.551,229.907l-66.795-36.941-3.526,12.529L110.262,120.746c1.365-4.467,2.176-9.18,2.321-14.069.878-29.571-22.466-54.343-52.037-55.22S6.203,73.922,5.326,103.493c-.878,29.57,22.466,54.342,52.037,55.22,21.535.639,40.512-11.574,49.582-29.676l266.874,85.025-3.526,12.529,76.257,3.316ZM57.6,150.717c-25.202-.748-45.026-21.785-44.278-46.986.748-25.202,21.785-45.026,46.986-44.278,25.202.748,45.026,21.785,44.278,46.986-.748,25.202-21.785,45.026-46.986,44.278Z" stroke="#fff" stroke-miterlimit="10" stroke-width="2"/>
    <path d="M1203.652,662.478l1.469-12.932,263.808,34.905c-.882,28.689,21.322,53.674,50.93,55.2,27.269,1.406,51.528-18.361,55.7-45.346,4.676-30.248-16.838-58.128-46.96-61.55-27.904-3.17-53.303,15.778-58.666,42.853l-263.808-34.905,1.469-12.932-75.801,8.965,71.858,25.742ZM1477.182,680.91c2.846-25.052,25.462-43.053,50.514-40.207,25.052,2.846,43.053,25.462,40.207,50.514-2.846,25.052-25.462,43.053-50.514,40.207-25.052-2.846-43.053-25.462-40.207-50.514Z" stroke="#fff" stroke-miterlimit="10" stroke-width="2"/>
    <path d="M1233.391,380.348l-4.536-12.199,247.652-92.658c10.515,17.302,30.426,27.927,51.837,25.535,29.401-3.286,50.647-29.879,47.361-59.279-3.286-29.401-29.879-50.647-59.28-47.361s-50.647,29.879-47.361,59.279c.543,4.861,1.735,9.492,3.46,13.833l-246.772,92.309-4.536-12.199-63.561,42.264,75.733-9.523ZM1477.016,252.776c-2.8-25.057,15.242-47.64,40.299-50.44s47.64,15.242,50.44,40.299c2.8,25.057-15.242,47.64-40.299,50.44s-47.64-15.242-50.44-40.299Z" stroke="#fff" stroke-miterlimit="10" stroke-width="2"/>
    <path d="M67.699,124.93v4.607h-14.744v-4.607h5.068v-47.279l-3.601,2.981-2.938-3.55,7.319-6.057h3.827v53.905h5.068Z" fill="#ff8500" stroke="#ff8500" stroke-miterlimit="10"/>
    <path d="M1531.877,263.008h6.22v4.607h-6.22v11.519h-4.607v-11.519h-23.959v-5.015l23.805-39.677h4.759v40.083l.003.002ZM1527.266,231.622l-18.83,31.384h18.83v-31.384Z" fill="#ff8500" stroke="#ff8500" stroke-miterlimit="10"/>
    <path d="M1537.257,690.034c1.283,2.244,1.456,4.4,1.456,6.211v2.073c0,1.949-.426,3.848-1.339,5.977l-.117.234c-1.053,1.846-2.394,3.451-3.98,4.773-1.451,1.21-3.38,2.27-5.734,3.151-1.917.719-4.14,1.069-6.798,1.069-2.276,0-4.492-.478-6.55-.991l-.249-.078c-2.354-.882-4.285-1.944-5.733-3.151-1.588-1.322-2.926-2.931-3.981-4.773-1.283-2.244-1.456-4.397-1.456-6.211-.016-.32-.451-10.42,1.205-17.999,2.214-9.581,12.629-20.001,19.301-23.851l2.302,3.99c-5.919,3.414-15.29,13.007-17.105,20.87-.302,1.377-.525,2.867-.693,4.372.392-.344.804-.673,1.234-.988,1.217-.975,3.571-2.32,5.568-2.892,2.007-.575,10.556-.612,12.959.288,2.352.883,4.282,1.944,5.733,3.154,1.587,1.322,2.928,2.93,3.981,4.773l-.003-.003ZM1534.11,698.323v-2.073c0-1.756-.237-2.856-.848-3.926-.779-1.363-1.765-2.55-2.931-3.52-1.039-.866-2.562-1.689-4.402-2.378-1.351-.479-8.733-.525-10.081-.173-1.325.38-3.124,1.396-4.027,2.117-2.765,2.029-4.435,4.762-4.435,7.186h-.058c.01,1.605.056,2.631.056,2.66.002,1.862.239,2.961.85,4.029.781,1.364,1.768,2.551,2.931,3.521,1.012.846,2.49,1.649,4.28,2.331,1.732.431,3.568.82,5.301.82,2.097,0,3.79-.253,5.182-.774,1.843-.693,3.365-1.513,4.402-2.377,1.133-.942,2.096-2.09,2.865-3.407.629-1.5.912-2.748.912-4.036h.003Z" fill="#ff8500" stroke="#ff8500" stroke-miterlimit="10"/>
    <path d="M450.807,636.736l-75.801-8.965,1.469,12.932-263.808,34.905c-5.362-27.075-30.761-46.024-58.666-42.853-30.122,3.422-51.635,31.302-46.96,61.55,4.171,26.985,28.43,46.751,55.7,45.346,29.608-1.526,51.813-26.511,50.93-55.2l263.808-34.905,1.469,12.932,71.858-25.742ZM65.212,731.424c-25.052,2.846-47.668-15.155-50.514-40.207-2.846-25.052,15.155-47.668,40.207-50.514,25.052-2.846,47.668,15.155,50.514,40.207,2.846,25.052-15.155,47.668-40.207,50.514Z" stroke="#fff" stroke-miterlimit="10" stroke-width="2"/>
    <path d="M78.423,688.069c.871,2.034,1.297,5.964,1.297,7.95,0,2.124,0,3.527-1,7.275-.882,3.522-2.69,5.893-4.052,7.254-1.522,1.521-4.432,3.463-6.828,4.062-2.26.761-5.951.761-7.932.761-2.341,0-6.397-1.32-8.049-2.027-1.933-.829-5.561-3.276-7.766-5.234l3.062-3.444c1.928,1.714,5.197,3.875,6.52,4.444,1.521.651,4.884,1.656,6.234,1.656,1.599,0,4.925,0,6.644-.573,1.474-.376,3.665-1.707,4.858-2.9.949-.947,2.216-2.612,2.85-5.149.853-3.197.853-4.114.853-6.121,0-2.045-.468-5.077-.965-6.236-.567-1.502-1.255-2.645-2.417-4.038-1.011-1.214-2.115-2.082-3.283-2.582-1.449-.622-2.983-1.198-4.391-1.198h-6.22v-5.018l13.689-15.485h-21.061v-4.607h26.032v5.937l-12.873,14.564h.433c2.246,0,4.398.792,6.206,1.568,1.841.79,3.527,2.092,5.008,3.868,1.5,1.797,2.442,3.375,3.154,5.273l-.002.002Z" fill="#ff8500" stroke="#ff8500" stroke-miterlimit="10"/>
    <path d="M1215.367,511.813v-13.015h253.618c2.271,27.508,25.369,49.202,53.453,49.202,29.584,0,53.652-24.068,53.652-53.652,0-29.583-24.068-53.652-53.652-53.652-28.084,0-51.181,21.694-53.453,49.202h-253.618s0-13.015,0-13.015l-74.304,17.465,74.304,17.465ZM1476.785,494.348c0-25.213,20.439-45.652,45.652-45.652s45.652,20.439,45.652,45.652c0,25.213-20.439,45.652-45.652,45.652s-45.652-20.439-45.652-45.652Z" stroke="#fff" stroke-miterlimit="10" stroke-width="2"/>
    <path d="M1537,490.229c.876,2.046,1.339,4.193,1.339,6.209v11.288c0,2.018-.463,4.163-1.339,6.206-.853,1.993-2.262,3.902-3.865,5.238-1.235,1.03-3.149,2.498-5.504,3.382-2.366.888-4.455,1.3-6.57,1.3-2.407,0-5.418-.521-7.489-1.297-2.299-.864-4.149-2.016-5.658-3.524-1.451-1.196-2.858-3.105-3.713-5.099-.517-1.022-.795-2.133-1.039-3.112l-.069-.56v-2.073h4.607v1.79c.187.741.368,1.396.677,2.016.634,1.472,1.576,2.753,2.641,3.64,1.202,1.188,2.479,1.972,4.172,2.607,1.553.581,4.024,1.005,5.872,1.005,1.566,0,3.094-.312,4.951-1.007,1.292-.486,2.619-1.313,4.172-2.607,1.062-.888,2.004-2.171,2.582-3.516.632-1.475.966-2.993.966-4.392v-11.288c0-1.398-.334-2.916-.966-4.393-.575-1.346-1.518-2.627-2.582-3.514-1.203-1.187-2.479-1.972-4.172-2.605l-.705-.271c-1.288-.505-1.878-.735-4.246-.735-2.889,0-5.204.617-7.286,1.944-1.556.973-2.931,2.348-3.892,3.885l-.677,1.082h-6.114v-26.723h34.786v4.607h-30.179v16.301c1.055-1.18,2.276-2.212,3.617-3.05,2.799-1.783,5.994-2.654,9.744-2.654,3.08,0,4.258.398,5.923,1.051l.646.249c2.299.861,4.148,2.013,5.657,3.522,1.449,1.195,2.859,3.103,3.714,5.096v.002Z" fill="#ff8500" stroke="#ff8500" stroke-miterlimit="10"/>
    <path d="M440.525,494.348l-74.304-17.465v13.015s-253.618,0-253.618,0c-2.271-27.508-25.369-49.202-53.453-49.202-29.584,0-53.652,24.068-53.652,53.652,0,29.584,24.068,53.652,53.652,53.652,28.084,0,51.181-21.694,53.453-49.202h253.618v13.015s74.304-17.465,74.304-17.465ZM59.149,540c-25.213,0-45.652-20.439-45.652-45.652,0-25.213,20.439-45.652,45.652-45.652s45.652,20.439,45.652,45.652c0,25.213-20.439,45.652-45.652,45.652Z" stroke="#fff" stroke-miterlimit="10" stroke-width="2"/>
    <path d="M49.761,519.24h28.483v4.607h-34.786v-4.591l6.056-6.609c3.175-3.536,6.086-6.778,8.851-9.727,1.373-1.373,2.749-2.979,4.078-4.531,1.389-1.62,6.939-7.865,6.939-7.865.629-.634.983-1.08,1.221-1.375.141-.178.26-.32.359-.431.675-.859,1.242-1.947,1.643-3.149.38-1.141.574-2.053.574-3.88,0-1.568-.325-3.124-.965-4.621-.583-1.546-1.511-2.661-2.737-3.887-1.398-1.151-2.723-1.98-4.018-2.465-3.705-1.389-6.199-1.387-9.899,0-1.695.636-2.972,1.419-4.02,2.468-1.209,1.209-2.182,2.589-2.737,3.886l-4.234-1.814c.792-1.851,2.078-3.693,3.713-5.329,1.511-1.509,3.361-2.661,5.66-3.522,4.713-1.773,8.411-1.773,13.136,0,2.356.885,4.269,2.354,5.503,3.382,1.511,1.5,3.022,3.209,3.907,5.568.85,1.975,1.299,4.14,1.299,6.338,0,2.423-.311,3.838-.811,5.337-.578,1.737-1.431,3.339-2.46,4.626l-.315.376c-.309.387-.772.965-1.468,1.658.005,0-5.425,6.109-6.791,7.704-1.387,1.617-2.82,3.29-4.267,4.736-2.693,2.873-5.582,6.091-8.733,9.6l-3.179,3.514-.002-.003Z" fill="#ff8500" stroke="#ff8500" stroke-miterlimit="10"/>
  </g>
</svg>