<?xml version="1.0" encoding="UTF-8"?>
<svg xmlns="http://www.w3.org/2000/svg" width="2394.938" height="2385.391" viewBox="0 0 2394.938 2385.391">
  <g id="d" data-name="HUD_AG_GUN_-_Light">
    <path id="e" data-name="FPMUncaged" d="M1220.951,1447.826c0,14.545-11.795,26.34-26.34,26.34s-26.34-11.795-26.34-26.34,11.795-26.34,26.34-26.34,26.34,11.795,26.34,26.34ZM1168.27,1447.826h-52.681M1220.951,1447.826h52.681M1194.61,1421.486v-26.34" fill="none" stroke="#000" stroke-linecap="square" stroke-miterlimit="15.1" stroke-width="6"/>
    <path id="f" data-name="PotentialPath" d="M1313.86,1302.294l-29.807,17.21,29.807,17.21" fill="none" stroke="#000" stroke-miterlimit="15.1" stroke-width="6"/>
    <g id="g" data-name="baro_alt_rect">
      <path id="h" data-name="rect7" d="M1646.756,1257.227v71.976h195.363v-71.976h-195.363Z" fill="none" stroke="#000" stroke-miterlimit="15.1" stroke-width="6"/>
    </g>
    <g id="i" data-name="airspeed_rect">
      <path id="j" data-name="rect8" d="M548.827,1255.814v73.628h195.015v-73.628h-195.015Z" fill="none" stroke="#000" stroke-miterlimit="15.1" stroke-width="6"/>
    </g>
    <g id="k" data-name="CompassMarker">
      <path id="l" data-name="path98" d="M1198.318,506.936h24.701l-24.701,49.402-24.701-49.402h24.701Z" fill="none" stroke="#000" stroke-miterlimit="10" stroke-width="6"/>
    </g>
    <rect id="m" data-name="CmdCue" x="1607.444" y="556.338" width="13.339" height="42.98" fill="none" stroke="#000" stroke-miterlimit="10" stroke-width="6"/>
    <line x1="752.741" y1="552.96" x2="752.741" y2="599.318" fill="none" stroke="#000" stroke-miterlimit="10" stroke-width="6"/>
    <line x1="1016.741" y1="552.96" x2="1016.741" y2="599.318" fill="none" stroke="#000" stroke-miterlimit="10" stroke-width="6"/>
    <line x1="1278.132" y1="552.96" x2="1278.132" y2="599.318" fill="none" stroke="#000" stroke-miterlimit="10" stroke-width="6"/>
    <line x1="1539.002" y1="552.96" x2="1539.002" y2="599.318" fill="none" stroke="#000" stroke-miterlimit="10" stroke-width="6"/>
    <line x1="882.132" y1="548.493" x2="882.132" y2="576.139" fill="none" stroke="#000" stroke-miterlimit="10" stroke-width="6"/>
    <line x1="1409.089" y1="552.96" x2="1409.089" y2="576.139" fill="none" stroke="#000" stroke-miterlimit="10" stroke-width="6"/>
    <g>
      <path d="M758.513,606.546v26.086c0,4.436-3.909,8.041-8.716,8.041h-12.79c-4.888,0-8.716-3.533-8.716-8.041v-26.086c0-4.436,3.909-8.041,8.716-8.041h12.79c4.808,0,8.716,3.605,8.716,8.041ZM752.14,606.546c0-.92-1.051-1.671-2.343-1.671h-12.79c-1.342,0-2.342.882-2.342,1.671v26.086c0,.92,1.051,1.671,2.342,1.671h12.79c1.342,0,2.343-.882,2.343-1.671v-26.086Z"/>
      <path d="M774.184,634.346c1.667.105,2.997,1.457,2.997,3.149,0,1.76-1.427,3.187-3.187,3.187h-5.952c-1.76,0-3.187-1.427-3.187-3.187,0-1.68,1.309-3.014,2.955-3.14v-28.577c-.519-.241-.992-.591-1.33-1.106-.966-1.469-.561-3.449.908-4.415l1.857-1.224c.08-.055.177-.059.262-.105.186-.102.375-.173.583-.236.215-.068.417-.114.637-.131.093-.009.173-.055.27-.055.105,0,.194.051.3.059.219.021.431.063.642.131.194.063.372.135.544.228.177.093.338.203.498.333.173.139.316.291.456.46.067.084.16.131.219.224.055.081.059.177.105.262.102.186.173.38.237.587.063.211.109.414.126.629.008.097.055.177.055.274v32.65l.004.004Z"/>
    </g>
    <g>
      <path d="M1013.562,606.562v26.086c0,4.436-3.909,8.041-8.716,8.041h-12.79c-4.888,0-8.716-3.533-8.716-8.041v-26.086c0-4.436,3.909-8.041,8.716-8.041h12.79c4.808,0,8.716,3.605,8.716,8.041ZM1007.189,606.562c0-.92-1.051-1.671-2.343-1.671h-12.79c-1.342,0-2.342.882-2.342,1.671v26.086c0,.92,1.051,1.671,2.342,1.671h12.79c1.342,0,2.343-.882,2.343-1.671v-26.086Z"/>
      <path d="M1046.94,634.307c1.76,0,3.187,1.427,3.187,3.187s-1.427,3.187-3.187,3.187h-23.849c-.439,0-.861-.093-1.241-.253-.025-.009-.042-.034-.067-.046-.367-.165-.697-.393-.971-.676-.013-.012-.029-.017-.042-.029-.114-.118-.161-.27-.249-.401-.139-.199-.292-.384-.38-.612-.089-.232-.11-.473-.144-.717-.025-.156-.093-.292-.093-.452,0-.017.008-.034.008-.051.004-.262.084-.511.152-.764.042-.147.046-.312.105-.452.055-.131.165-.236.241-.359.139-.232.274-.468.469-.658.013-.013.029-.042.029-.042l18.15-17.011c2.744-2.579,4.242-5.373,4.111-7.665-.088-1.604-.975-3.01-2.697-4.293-1.161-.857-2.815-1.313-4.765-1.313-3.761,0-6.703.642-8.856,3.77-.996,1.457-2.976,1.819-4.432.823-1.448-.996-1.815-2.98-.819-4.432,4.491-6.53,11.477-6.53,14.107-6.53,3.322,0,6.281.886,8.56,2.562,4.103,3.06,5.128,6.61,5.268,9.054.24,4.238-1.929,8.737-6.117,12.676l-12.274,11.506h15.791l.004-.008Z"/>
    </g>
    <g>
      <path d="M1268.853,606.562v26.086c0,4.436-3.908,8.041-8.716,8.041h-12.79c-4.888,0-8.717-3.533-8.717-8.041v-26.086c0-4.436,3.909-8.041,8.717-8.041h12.79c4.808,0,8.716,3.605,8.716,8.041ZM1262.48,606.562c0-.92-1.052-1.671-2.343-1.671h-12.79c-1.343,0-2.343.882-2.343,1.671v26.086c0,.92,1.051,1.671,2.343,1.671h12.79c1.342,0,2.343-.882,2.343-1.671v-26.086Z"/>
      <path d="M1302.378,618.288c1.959,1.958,3.039,4.559,3.039,7.315v2.997c0,3.833-1.823,7.471-4.875,9.738-2.064,1.562-4.584,2.397-7.261,2.397h-2.659c-2.418,0-9.606-1.342-12.147-2.617l-1.452-.684c-1.592-.751-2.271-2.651-1.52-4.242.751-1.596,2.646-2.267,4.242-1.52l1.52.717c1.409.705,7.492,1.976,9.362,1.976h2.659c1.274,0,2.461-.393,3.436-1.127,1.481-1.106,2.321-2.79,2.321-4.639v-2.997c0-1.056-.418-2.052-1.178-2.812l-.511-.511c-.607-.612-1.447-.962-2.3-.962h-6.29c-1.228,0-2.351-.709-2.878-1.823-.528-1.115-.367-2.427.413-3.381l9.168-11.219h-12.654c-1.76,0-3.187-1.427-3.187-3.187s1.427-3.187,3.187-3.187h19.375c1.228,0,2.351.709,2.878,1.824.528,1.11.367,2.427-.413,3.381l-9.177,11.228c2.385.105,4.693,1.123,6.391,2.82l.511.511v.004Z"/>
    </g>
    <g>
      <path d="M1536.582,606.562v26.086c0,4.436-3.908,8.041-8.716,8.041h-12.79c-4.888,0-8.717-3.533-8.717-8.041v-26.086c0-4.436,3.909-8.041,8.717-8.041h12.79c4.808,0,8.716,3.605,8.716,8.041ZM1530.209,606.562c0-.92-1.052-1.671-2.343-1.671h-12.79c-1.343,0-2.343.882-2.343,1.671v26.086c0,.92,1.051,1.671,2.343,1.671h12.79c1.342,0,2.343-.882,2.343-1.671v-26.086Z"/>
      <path d="M1569.266,617.997c1.385.35,2.406,1.6,2.406,3.09s-1.021,2.739-2.406,3.09v13.33c0,1.76-1.427,3.187-3.187,3.187s-3.188-1.427-3.188-3.187v-13.237h-16.778c-1.245,0-2.377-.718-2.896-1.849-.523-1.131-.338-2.46.469-3.406l16.546-19.375c.604-.709,1.49-1.119,2.423-1.119h3.419c1.761,0,3.188,1.427,3.188,3.187v16.28l.004.009ZM1562.888,606.342l-9.864,11.553h9.864v-11.553Z"/>
    </g>
    <g>
      <path d="M621.753,1290.914c1.385.351,2.406,1.6,2.406,3.09s-1.021,2.739-2.406,3.09v13.33c0,1.76-1.427,3.187-3.187,3.187s-3.187-1.427-3.187-3.187v-13.237h-16.779c-1.245,0-2.376-.718-2.896-1.849-.523-1.131-.338-2.461.469-3.406l16.546-19.375c.604-.709,1.49-1.119,2.423-1.119h3.419c1.76,0,3.187,1.427,3.187,3.187v16.28l.004.009ZM615.375,1279.26l-9.864,11.552h9.864v-11.552Z"/>
      <path d="M657.639,1291.205c1.958,1.959,3.039,4.56,3.039,7.315v2.997c0,3.833-1.824,7.471-4.875,9.738-2.064,1.562-4.584,2.397-7.26,2.397h-2.659c-2.418,0-9.607-1.343-12.148-2.617l-1.452-.684c-1.591-.752-2.271-2.651-1.52-4.242.751-1.596,2.646-2.268,4.242-1.52l1.52.717c1.41.705,7.492,1.976,9.362,1.976h2.659c1.275,0,2.461-.393,3.436-1.127,1.481-1.105,2.321-2.79,2.321-4.639v-2.997c0-1.056-.418-2.052-1.178-2.812l-.511-.511c-.608-.611-1.448-.962-2.3-.962h-6.29c-1.228,0-2.351-.709-2.878-1.823-.528-1.115-.367-2.428.414-3.382l9.168-11.219h-12.655c-1.76,0-3.187-1.427-3.187-3.187s1.426-3.187,3.187-3.187h19.375c1.229,0,2.352.709,2.879,1.824.528,1.11.367,2.427-.414,3.381l-9.177,11.228c2.385.105,4.694,1.122,6.391,2.819l.511.511v.004Z"/>
      <path d="M694.204,1291.205c1.958,1.959,3.039,4.56,3.039,7.315v2.997c0,3.833-1.824,7.471-4.875,9.738-2.064,1.562-4.584,2.397-7.26,2.397h-2.659c-2.418,0-9.607-1.343-12.148-2.617l-1.452-.684c-1.591-.752-2.271-2.651-1.52-4.242.751-1.596,2.646-2.268,4.242-1.52l1.52.717c1.41.705,7.492,1.976,9.362,1.976h2.659c1.275,0,2.461-.393,3.436-1.127,1.481-1.105,2.321-2.79,2.321-4.639v-2.997c0-1.056-.418-2.052-1.178-2.812l-.511-.511c-.608-.611-1.448-.962-2.3-.962h-6.29c-1.228,0-2.351-.709-2.878-1.823-.528-1.115-.367-2.428.414-3.382l9.168-11.219h-12.655c-1.76,0-3.187-1.427-3.187-3.187s1.426-3.187,3.187-3.187h19.375c1.229,0,2.352.709,2.879,1.824.528,1.11.367,2.427-.414,3.381l-9.177,11.228c2.385.105,4.694,1.122,6.391,2.819l.511.511v.004Z"/>
    </g>
    <g>
      <path d="M603.437,1235.225c1.76,0,3.187,1.427,3.187,3.187s-1.427,3.187-3.187,3.187h-23.849c-.439,0-.861-.093-1.241-.253-.025-.009-.042-.034-.067-.046-.367-.165-.697-.393-.971-.676-.013-.012-.029-.017-.042-.029-.114-.118-.161-.27-.249-.401-.139-.199-.292-.384-.38-.612-.089-.232-.11-.473-.144-.717-.025-.156-.093-.292-.093-.452,0-.017.008-.034.008-.051.004-.262.084-.511.152-.764.042-.147.046-.312.105-.452.055-.131.165-.236.241-.359.139-.232.274-.468.469-.658.013-.013.029-.042.029-.042l18.15-17.011c2.744-2.579,4.242-5.373,4.111-7.665-.088-1.604-.975-3.01-2.697-4.293-1.161-.857-2.815-1.313-4.766-1.313-3.761,0-6.703.642-8.855,3.77-.996,1.457-2.976,1.819-4.432.823-1.448-.996-1.815-2.98-.819-4.432,4.491-6.53,11.477-6.53,14.106-6.53,3.322,0,6.281.886,8.561,2.562,4.103,3.06,5.128,6.61,5.268,9.054.241,4.238-1.929,8.737-6.116,12.676l-12.274,11.506h15.791l.004-.008Z"/>
      <path d="M640.148,1219.206c1.958,1.958,3.039,4.559,3.039,7.315v2.997c0,3.833-1.824,7.471-4.875,9.738-2.064,1.562-4.584,2.397-7.26,2.397h-2.659c-2.418,0-9.607-1.342-12.148-2.617l-1.452-.684c-1.591-.751-2.271-2.651-1.52-4.242.751-1.596,2.646-2.267,4.242-1.52l1.52.717c1.41.705,7.492,1.976,9.362,1.976h2.659c1.275,0,2.461-.393,3.436-1.127,1.481-1.106,2.321-2.79,2.321-4.639v-2.997c0-1.056-.418-2.052-1.178-2.812l-.511-.511c-.608-.612-1.448-.962-2.3-.962h-6.29c-1.228,0-2.351-.709-2.878-1.823-.528-1.115-.367-2.427.414-3.381l9.168-11.219h-12.655c-1.76,0-3.187-1.427-3.187-3.187s1.426-3.187,3.187-3.187h19.375c1.229,0,2.352.709,2.879,1.824.528,1.11.367,2.427-.414,3.381l-9.177,11.228c2.385.105,4.694,1.123,6.391,2.82l.511.511v.004Z"/>
      <path d="M676.566,1235.225c1.76,0,3.187,1.427,3.187,3.187s-1.427,3.187-3.187,3.187h-23.849c-.439,0-.861-.093-1.241-.253-.025-.009-.042-.034-.067-.046-.367-.165-.697-.393-.971-.676-.013-.012-.029-.017-.042-.029-.114-.118-.161-.27-.249-.401-.139-.199-.292-.384-.38-.612-.089-.232-.11-.473-.144-.717-.025-.156-.093-.292-.093-.452,0-.017.008-.034.008-.051.004-.262.084-.511.152-.764.042-.147.046-.312.105-.452.055-.131.165-.236.241-.359.139-.232.274-.468.469-.658.013-.013.029-.042.029-.042l18.15-17.011c2.744-2.579,4.242-5.373,4.111-7.665-.088-1.604-.975-3.01-2.697-4.293-1.161-.857-2.815-1.313-4.766-1.313-3.761,0-6.703.642-8.855,3.77-.996,1.457-2.976,1.819-4.432.823-1.448-.996-1.815-2.98-.819-4.432,4.491-6.53,11.477-6.53,14.106-6.53,3.322,0,6.281.886,8.561,2.562,4.103,3.06,5.128,6.61,5.268,9.054.241,4.238-1.929,8.737-6.116,12.676l-12.274,11.506h15.791l.004-.008Z"/>
      <path d="M716.148,1220.482l.127,10.088c0,3.001-1.211,5.88-3.326,7.939-2.001,1.942-4.766,3.056-7.585,3.056h-7.682c-2.406,0-4.77-.806-6.648-2.279l-.688-.523c-2.697-2.039-4.25-5.183-4.25-8.615v-19.206c0-3.377,1.596-6.602,4.263-8.619l.709-.541c1.849-1.448,4.208-2.258,6.614-2.258h8.442c2.132,0,4.217.637,6.028,1.845l2.537,1.692c1.465.979,1.857,2.955.882,4.419-.975,1.469-2.951,1.857-4.419.882l-2.533-1.692c-.76-.507-1.621-.772-2.495-.772h-8.442c-1.005,0-1.942.321-2.723.928l-.751.574c-1.097.823-1.743,2.148-1.743,3.542v19.206c0,1.418.629,2.706,1.73,3.538l.73.557c.806.633,1.748.954,2.752.954h7.682c1.178,0,2.322-.46,3.141-1.253.899-.874,1.397-2.056,1.397-3.326l-.089-6.901h-7.281c-1.76,0-3.187-1.427-3.187-3.187s1.427-3.187,3.187-3.187h10.426c1.744,0,3.166,1.401,3.187,3.145l.008-.004Z"/>
    </g>
    <g>
      <path d="M1675.228,1307.467c1.667.105,2.997,1.457,2.997,3.148,0,1.761-1.427,3.188-3.188,3.188h-5.951c-1.761,0-3.188-1.427-3.188-3.188,0-1.68,1.309-3.014,2.955-3.14v-28.577c-.52-.241-.992-.591-1.33-1.106-.966-1.469-.561-3.449.908-4.415l1.857-1.224c.08-.055.177-.059.262-.105.186-.102.375-.173.582-.236.215-.068.418-.114.638-.131.093-.009.173-.055.27-.055.105,0,.194.051.3.059.22.021.431.063.642.131.194.063.372.135.545.228.177.093.338.203.498.333.173.139.316.291.456.46.067.084.16.131.219.224.056.081.06.177.105.262.102.186.174.38.237.587.062.211.109.414.126.629.009.097.055.177.055.274v32.65l.005.004Z"/>
      <path d="M1711.597,1307.412c1.761,0,3.188,1.427,3.188,3.188s-1.427,3.186-3.188,3.186h-23.849c-.439,0-.861-.092-1.241-.252-.025-.01-.042-.034-.067-.047-.367-.165-.696-.393-.971-.676-.013-.012-.029-.017-.042-.029-.114-.118-.161-.27-.249-.4-.14-.199-.292-.385-.38-.613-.089-.231-.11-.473-.144-.717-.025-.156-.093-.291-.093-.451,0-.018.008-.035.008-.051.005-.262.085-.512.152-.765.042-.147.046-.312.105-.452.055-.131.165-.236.24-.358.14-.231.274-.468.469-.658.013-.013.029-.042.029-.042l18.15-17.012c2.744-2.578,4.242-5.373,4.111-7.664-.088-1.604-.975-3.01-2.697-4.293-1.16-.857-2.815-1.313-4.766-1.313-3.761,0-6.702.642-8.855,3.77-.996,1.456-2.976,1.819-4.432.823-1.448-.996-1.815-2.98-.819-4.432,4.491-6.53,11.478-6.53,14.106-6.53,3.322,0,6.281.886,8.561,2.562,4.104,3.06,5.129,6.61,5.268,9.054.241,4.238-1.929,8.737-6.116,12.676l-12.274,11.506h15.791l.004-.008Z"/>
      <path d="M1751.348,1279.667v26.087c0,4.436-3.908,8.041-8.716,8.041h-12.79c-4.888,0-8.717-3.533-8.717-8.041v-26.087c0-4.436,3.909-8.041,8.717-8.041h12.79c4.808,0,8.716,3.605,8.716,8.041ZM1744.975,1279.667c0-.92-1.052-1.671-2.343-1.671h-12.79c-1.343,0-2.343.882-2.343,1.671v26.087c0,.92,1.051,1.671,2.343,1.671h12.79c1.342,0,2.343-.882,2.343-1.671v-26.087Z"/>
      <path d="M1784.033,1291.102c1.385.351,2.406,1.6,2.406,3.09s-1.021,2.74-2.406,3.09v13.33c0,1.76-1.427,3.188-3.187,3.188s-3.188-1.428-3.188-3.188v-13.236h-16.778c-1.245,0-2.377-.719-2.896-1.85-.523-1.131-.338-2.461.469-3.406l16.546-19.375c.604-.709,1.49-1.119,2.423-1.119h3.419c1.761,0,3.188,1.427,3.188,3.187v16.281l.004.008ZM1777.655,1279.448l-9.864,11.552h9.864v-11.552Z"/>
      <path d="M1822.959,1279.667v26.087c0,4.436-3.908,8.041-8.716,8.041h-12.79c-4.888,0-8.717-3.533-8.717-8.041v-26.087c0-4.436,3.909-8.041,8.717-8.041h12.79c4.808,0,8.716,3.605,8.716,8.041ZM1816.586,1279.667c0-.92-1.052-1.671-2.343-1.671h-12.79c-1.343,0-2.343.882-2.343,1.671v26.087c0,.92,1.051,1.671,2.343,1.671h12.79c1.342,0,2.343-.882,2.343-1.671v-26.087Z"/>
    </g>
    <g>
      <path d="M625.98,1540.665c1.476.094,2.653,1.289,2.653,2.787,0,1.559-1.263,2.821-2.821,2.821h-5.268c-1.558,0-2.821-1.263-2.821-2.821,0-1.487,1.159-2.668,2.616-2.779v-25.296c-.459-.213-.878-.523-1.177-.979-.855-1.301-.497-3.053.804-3.909l1.644-1.083c.071-.049.157-.053.231-.094.165-.09.333-.153.516-.209.19-.06.37-.101.564-.116.082-.007.153-.048.239-.048.094,0,.172.044.266.052.194.019.381.057.568.116.172.056.329.119.482.201.157.083.299.18.441.296.153.123.28.258.403.407.06.074.142.115.194.197.049.071.052.157.094.232.089.164.153.336.209.52.056.187.097.365.112.557.007.086.048.156.048.242v28.901l.004.004Z"/>
      <path d="M666.014,1540.616c1.558,0,2.821,1.263,2.821,2.821s-1.263,2.821-2.821,2.821h-21.111c-.388,0-.762-.082-1.098-.225-.022-.008-.038-.029-.06-.041-.325-.146-.616-.348-.859-.598-.011-.012-.026-.015-.037-.026-.101-.104-.142-.239-.221-.354-.123-.176-.258-.341-.336-.542-.078-.206-.097-.419-.127-.636-.022-.138-.082-.258-.082-.399,0-.015.007-.03.007-.045.004-.231.075-.452.135-.676.037-.131.041-.277.093-.4.048-.115.146-.209.213-.317.124-.206.243-.415.415-.583.011-.011.026-.037.026-.037l16.067-15.058c2.429-2.283,3.755-4.757,3.639-6.786-.079-1.42-.863-2.664-2.388-3.8-1.027-.758-2.492-1.162-4.218-1.162-3.329,0-5.934.568-7.839,3.337-.881,1.289-2.634,1.61-3.923.729-1.282-.882-1.607-2.638-.725-3.923,3.976-5.78,10.159-5.78,12.487-5.78,2.94,0,5.56.784,7.577,2.268,3.632,2.709,4.54,5.852,4.663,8.015.213,3.752-1.708,7.734-5.414,11.221l-10.865,10.186h13.978l.003-.008Z"/>
      <path d="M687.931,1545.498v.078c0,1.559-1.263,2.821-2.821,2.821s-2.821-1.263-2.821-2.821,1.263-2.861,2.821-2.861,2.821,1.226,2.821,2.783Z"/>
      <path d="M724.703,1526.179c1.226.311,2.13,1.416,2.13,2.735s-.904,2.425-2.13,2.735v11.799c0,1.559-1.263,2.821-2.821,2.821s-2.821-1.263-2.821-2.821v-11.717h-14.853c-1.102,0-2.104-.636-2.563-1.637-.463-1.001-.299-2.179.415-3.016l14.647-17.149c.534-.628,1.319-.99,2.145-.99h3.027c1.558,0,2.821,1.263,2.821,2.82v14.412l.004.007ZM719.057,1515.862l-8.732,10.227h8.732v-10.227Z"/>
    </g>
    <g>
      <path d="M546.659,1555.162c1.162.378,1.947,1.461,1.947,2.683v31.61c0,1.559-1.263,2.821-2.821,2.821s-2.821-1.263-2.821-2.821v-22.956l-5.474,7.506c-.531.729-1.379,1.158-2.279,1.158s-1.749-.434-2.279-1.162l-5.437-7.48v22.935c0,1.559-1.263,2.821-2.821,2.821s-2.821-1.263-2.821-2.821v-31.61c0-1.222.785-2.302,1.947-2.683,1.162-.377,2.433.037,3.154,1.023l8.257,11.366,8.291-11.366c.717-.989,1.992-1.4,3.154-1.02l.003-.004Z"/>
      <path d="M627.339,1562.069v23.091c0,3.927-3.46,7.118-7.716,7.118h-11.321c-4.327,0-7.716-3.128-7.716-7.118v-23.091c0-3.927,3.46-7.118,7.716-7.118h11.321c4.256,0,7.716,3.191,7.716,7.118ZM621.697,1562.069c0-.814-.93-1.479-2.074-1.479h-11.321c-1.188,0-2.074.78-2.074,1.479v23.091c0,.814.931,1.479,2.074,1.479h11.321c1.188,0,2.074-.78,2.074-1.479v-23.091Z"/>
      <path d="M646.435,1591.511v.078c0,1.558-1.263,2.821-2.821,2.821s-2.821-1.264-2.821-2.821,1.263-2.862,2.821-2.862,2.821,1.226,2.821,2.784Z"/>
      <path d="M686.604,1567.752c0,1.633-.609,3.229-1.7,4.521,1.091,1.297,1.7,2.888,1.7,4.521v8.149c0,1.992-.893,3.924-2.451,5.295-1.465,1.296-3.415,2.01-5.489,2.01h-10.836c-2.029,0-4.028-.732-5.485-2.01-1.584-1.397-2.455-3.277-2.455-5.295v-8.149c0-1.633.609-3.228,1.7-4.521-1.095-1.301-1.7-2.896-1.7-4.521v-5.492c0-1.991.893-3.923,2.451-5.295,1.469-1.3,3.419-2.014,5.489-2.014h10.836c2.036,0,4.035.732,5.489,2.011,1.584,1.4,2.451,3.28,2.451,5.294v5.496ZM680.962,1576.787c0-.374-.213-.77-.579-1.095l-.691-.605h-12.898l-.695.609c-.358.321-.571.717-.571,1.091v8.149c0,.385.183.739.542,1.057.43.378,1.087.605,1.756.605h10.835c.684,0,1.327-.217,1.756-.602.344-.299.545-.694.545-1.061v-8.149ZM665.534,1562.26v5.492c0,.374.213.773.583,1.106l.68.594h12.902l.699-.608c.355-.318.568-.718.568-1.092v-5.492c0-.389-.183-.747-.545-1.064-.426-.374-1.083-.602-1.756-.602h-10.836c-.684,0-1.323.22-1.752.602h-.003c-.34.299-.542.694-.542,1.061l.004.004Z"/>
      <path d="M726.793,1562.069v23.091c0,3.927-3.46,7.118-7.716,7.118h-11.321c-4.327,0-7.716-3.128-7.716-7.118v-23.091c0-3.927,3.46-7.118,7.716-7.118h11.321c4.256,0,7.716,3.191,7.716,7.118ZM721.151,1562.069c0-.814-.93-1.479-2.074-1.479h-11.321c-1.188,0-2.074.78-2.074,1.479v23.091c0,.814.931,1.479,2.074,1.479h11.321c1.188,0,2.074-.78,2.074-1.479v-23.091Z"/>
    </g>
    <g>
      <path d="M549.913,1624.716l.112,8.931c0,2.656-1.073,5.205-2.944,7.027-1.771,1.719-4.219,2.705-6.714,2.705h-6.8c-2.13,0-4.222-.713-5.885-2.018l-.609-.463c-2.388-1.805-3.763-4.588-3.763-7.626v-17.001c0-2.988,1.413-5.844,3.774-7.629l.628-.479c1.636-1.281,3.725-2,5.855-2h7.473c1.887,0,3.733.564,5.335,1.633l2.246,1.499c1.297.866,1.644,2.615.781,3.912-.863,1.3-2.612,1.644-3.912.78l-2.242-1.498c-.673-.448-1.435-.684-2.208-.684h-7.473c-.89,0-1.719.284-2.41.822l-.665.508c-.972.729-1.543,1.902-1.543,3.135v17.001c0,1.255.557,2.396,1.532,3.132l.646.492c.713.561,1.547.845,2.436.845h6.8c1.042,0,2.055-.407,2.78-1.11.796-.773,1.237-1.818,1.237-2.943l-.079-6.109h-6.445c-1.558,0-2.821-1.263-2.821-2.82s1.263-2.822,2.821-2.822h9.229c1.543,0,2.802,1.241,2.821,2.784l.007-.004Z"/>
      <path d="M641.374,1637.766c1.558,0,2.821,1.263,2.821,2.82s-1.263,2.822-2.821,2.822h-21.111c-.388,0-.762-.082-1.098-.225-.022-.008-.038-.029-.06-.041-.325-.146-.616-.348-.859-.598-.011-.012-.026-.016-.037-.026-.101-.104-.142-.239-.221-.354-.123-.176-.258-.341-.336-.543-.078-.205-.097-.418-.127-.635-.022-.139-.082-.258-.082-.4,0-.014.007-.029.007-.044.004-.231.075-.452.135-.677.037-.131.041-.276.093-.399.048-.116.146-.21.213-.317.124-.206.243-.415.415-.583.011-.011.026-.038.026-.038l16.067-15.057c2.429-2.283,3.755-4.758,3.639-6.786-.079-1.42-.863-2.664-2.388-3.8-1.027-.758-2.492-1.162-4.218-1.162-3.329,0-5.934.568-7.839,3.337-.881,1.289-2.634,1.61-3.923.729-1.282-.882-1.607-2.638-.725-3.923,3.976-5.781,10.159-5.781,12.487-5.781,2.94,0,5.56.785,7.577,2.269,3.632,2.709,4.54,5.851,4.663,8.015.213,3.752-1.708,7.734-5.414,11.221l-10.865,10.186h13.978l.003-.008Z"/>
      <path d="M663.292,1642.647v.078c0,1.558-1.263,2.821-2.821,2.821s-2.821-1.264-2.821-2.821,1.263-2.862,2.821-2.862,2.821,1.227,2.821,2.784Z"/>
      <path d="M726.793,1613.206v23.091c0,3.928-3.46,7.118-7.716,7.118h-11.321c-4.327,0-7.716-3.128-7.716-7.118v-23.091c0-3.927,3.46-7.118,7.716-7.118h11.321c4.256,0,7.716,3.191,7.716,7.118ZM721.151,1613.206c0-.814-.93-1.479-2.074-1.479h-11.321c-1.188,0-2.074.781-2.074,1.479v23.091c0,.814.931,1.48,2.074,1.48h11.321c1.188,0,2.074-.781,2.074-1.48v-23.091Z"/>
    </g>
    <g>
      <path d="M657.222,1681.926c1.558,0,2.821,1.264,2.821,2.821s-1.263,2.821-2.821,2.821h-21.111c-.388,0-.762-.082-1.098-.225-.022-.008-.038-.029-.06-.041-.325-.146-.616-.348-.859-.598-.011-.012-.026-.015-.037-.025-.101-.105-.142-.24-.221-.355-.123-.176-.258-.34-.336-.542-.078-.206-.097-.419-.127-.636-.022-.138-.082-.258-.082-.399,0-.015.007-.03.007-.044.004-.232.075-.453.135-.677.037-.131.041-.276.093-.399.049-.116.146-.21.213-.318.124-.205.243-.414.415-.582.011-.012.026-.038.026-.038l16.067-15.058c2.429-2.283,3.755-4.757,3.639-6.785-.079-1.42-.863-2.664-2.388-3.801-1.027-.758-2.492-1.162-4.218-1.162-3.329,0-5.934.568-7.839,3.338-.881,1.289-2.634,1.609-3.923.729-1.282-.883-1.607-2.639-.725-3.924,3.976-5.78,10.159-5.78,12.487-5.78,2.94,0,5.56.784,7.577,2.269,3.632,2.709,4.54,5.851,4.663,8.014.213,3.752-1.708,7.734-5.414,11.221l-10.865,10.186h13.978l.003-.008Z"/>
      <path d="M679.139,1686.809v.078c0,1.558-1.263,2.82-2.821,2.82s-2.821-1.263-2.821-2.82,1.263-2.862,2.821-2.862,2.821,1.226,2.821,2.784Z"/>
      <path d="M724.146,1681.975c1.476.094,2.653,1.289,2.653,2.787,0,1.559-1.263,2.821-2.821,2.821h-5.268c-1.558,0-2.821-1.263-2.821-2.821,0-1.486,1.159-2.668,2.616-2.779v-25.296c-.459-.213-.878-.522-1.177-.979-.855-1.3-.497-3.053.804-3.909l1.644-1.083c.071-.048.157-.052.231-.093.165-.09.333-.154.516-.21.19-.06.37-.101.564-.116.082-.007.153-.048.239-.048.094,0,.172.044.266.052.194.02.381.057.568.116.172.056.329.12.482.202.157.082.299.18.441.295.153.123.28.258.403.407.06.075.142.116.194.198.049.07.052.156.094.231.089.165.153.337.209.52.056.187.097.366.112.557.007.086.048.157.048.243v28.9l.004.004Z"/>
    </g>
    <path d="M550.391,1518.77l-13.431,16.416c-1.502,1.836-3.749,2.901-6.122,2.901h0c-2.098,0-4.11-.833-5.593-2.317l-.635-.635c-1.483-1.483-2.317-3.495-2.317-5.593v-.472c0-2.098.833-4.11,2.317-5.593l.635-.635c1.483-1.483,3.495-2.317,5.593-2.317h0c2.372,0,4.619,1.065,6.122,2.901l13.431,16.416" fill="none" stroke="#000" stroke-linecap="round" stroke-linejoin="round" stroke-width="6"/>
    <g>
      <path d="M754.083,1739.672c.984,1.195,1.535,2.713,1.535,4.264v18.518c0,1.391-1.128,2.519-2.519,2.519s-2.519-1.128-2.519-2.519v-11.594h-13.846v11.594c0,1.391-1.127,2.519-2.519,2.519s-2.519-1.128-2.519-2.519v-18.518c0-1.521.523-2.982,1.511-4.233l4.23-5.168c3.013-3.606,9.455-3.587,12.428-.017l4.22,5.154h-.003ZM736.74,1745.818h13.849v-1.886c0-.387-.137-.754-.391-1.061l-4.214-5.147c-1.011-1.212-3.616-1.232-4.657.02l-4.187,5.121c-.357.443-.4.827-.4,1.07v1.883Z"/>
      <path d="M781.963,1759.926c1.391,0,2.519,1.127,2.519,2.519s-1.127,2.519-2.519,2.519h-18.85c-.347,0-.681-.072-.981-.199-.02-.008-.034-.027-.054-.037-.29-.131-.55-.311-.767-.533-.01-.011-.023-.014-.033-.023-.09-.094-.127-.215-.197-.317-.11-.157-.23-.304-.3-.483-.07-.184-.086-.374-.113-.568-.02-.123-.073-.229-.073-.356,0-.013.006-.026.006-.04.003-.207.067-.404.12-.604.034-.117.037-.247.083-.357.043-.104.13-.187.19-.283.11-.184.217-.371.37-.521.01-.011.023-.034.023-.034l14.346-13.445c2.168-2.038,3.353-4.246,3.25-6.059-.07-1.268-.771-2.379-2.132-3.393-.917-.678-2.226-1.037-3.767-1.037-2.973,0-5.298.507-7,2.979-.788,1.151-2.353,1.438-3.503.65-1.145-.787-1.435-2.355-.647-3.502,3.55-5.162,9.071-5.162,11.15-5.162,2.625,0,4.964.701,6.766,2.025,3.243,2.419,4.053,5.225,4.164,7.156.19,3.35-1.525,6.906-4.834,10.02l-9.702,9.094h12.481l.003-.006Z"/>
      <path d="M813.248,1748.273l.1,7.974c0,2.372-.958,4.647-2.629,6.275-1.581,1.535-3.767,2.415-5.995,2.415h-6.072c-1.901,0-3.77-.637-5.254-1.801l-.544-.414c-2.132-1.611-3.36-4.097-3.36-6.809v-15.181c0-2.669,1.261-5.218,3.37-6.813l.561-.426c1.461-1.145,3.327-1.785,5.228-1.785h6.673c1.685,0,3.333.504,4.764,1.457l2.005,1.338c1.158.774,1.468,2.336.698,3.494-.771,1.16-2.333,1.467-3.493.697l-2.002-1.338c-.601-.4-1.281-.611-1.972-.611h-6.673c-.794,0-1.535.254-2.152.734l-.594.453c-.868.65-1.378,1.699-1.378,2.8v15.181c0,1.121.497,2.139,1.368,2.795l.577.441c.638.5,1.381.754,2.175.754h6.072c.931,0,1.835-.364,2.482-.992.71-.689,1.104-1.624,1.104-2.629l-.07-5.454h-5.755c-1.391,0-2.519-1.128-2.519-2.519s1.127-2.52,2.519-2.52h8.241c1.378,0,2.502,1.107,2.519,2.486l.007-.004Z"/>
    </g>
    <g>
      <path d="M755.73,1786.803c.984,1.194,1.535,2.713,1.535,4.264v18.517c0,1.392-1.128,2.52-2.519,2.52s-2.519-1.128-2.519-2.52v-11.594h-13.846v11.594c0,1.392-1.127,2.52-2.519,2.52s-2.519-1.128-2.519-2.52v-18.517c0-1.521.523-2.982,1.511-4.233l4.23-5.168c3.013-3.606,9.455-3.587,12.428-.017l4.22,5.154h-.003ZM738.387,1792.948h13.849v-1.885c0-.387-.137-.754-.391-1.061l-4.214-5.148c-1.011-1.211-3.616-1.231-4.657.021l-4.187,5.121c-.357.443-.4.827-.4,1.07v1.882Z"/>
      <path d="M783.58,1778.839c1.391,0,2.519,1.128,2.519,2.52v24.422c0,3.506-3.089,6.355-6.889,6.355h-10.076c-3.797,0-6.89-2.85-6.89-6.355v-24.422c0-1.392,1.128-2.52,2.519-2.52s2.519,1.128,2.519,2.52v24.422c0,.703.867,1.32,1.855,1.32h10.076c1.064,0,1.855-.697,1.855-1.32v-24.422c0-1.392,1.127-2.52,2.519-2.52h-.006Z"/>
      <path d="M812.427,1778.839c1.392,0,2.519,1.128,2.519,2.52s-1.127,2.519-2.519,2.519h-6.889v25.706c0,1.392-1.128,2.52-2.519,2.52s-2.519-1.128-2.519-2.52v-25.706h-6.89c-1.391,0-2.519-1.128-2.519-2.519s1.127-2.52,2.519-2.52h18.817Z"/>
      <path d="M843.792,1785.195v20.585c0,3.506-3.086,6.355-6.886,6.355h-10.079c-3.797,0-6.886-2.85-6.886-6.355v-20.585c0-3.507,3.086-6.356,6.886-6.356h10.079c3.797,0,6.886,2.85,6.886,6.356ZM838.757,1785.195c0-.718-.847-1.321-1.852-1.321h-10.079c-1.061,0-1.852.697-1.852,1.321v20.585c0,.703.864,1.32,1.852,1.32h10.079c1.061,0,1.852-.697,1.852-1.32v-20.585Z"/>
    </g>
    <g>
      <path d="M493.159,1740.192c1.392,0,2.519,1.128,2.519,2.519s-1.127,2.52-2.519,2.52h-6.889v25.706c0,1.391-1.128,2.519-2.519,2.519s-2.519-1.128-2.519-2.519v-25.706h-6.89c-1.391,0-2.519-1.128-2.519-2.52s1.127-2.519,2.519-2.519h18.817Z"/>
      <path d="M520.651,1766.516c1.174-.744,2.729-.407,3.48.768.75,1.174.407,2.729-.768,3.479l-1.935,1.234c-1.595.984-3.356,1.495-5.125,1.495h-6.172c-2.102,0-4.157-.697-5.785-1.969-2.292-1.752-3.673-4.558-3.673-7.49v-14.35c0-2.933,1.378-5.738,3.69-7.503,1.611-1.255,3.667-1.952,5.769-1.952h6.172c1.842,0,3.62.521,5.142,1.505l1.921,1.225c1.171.751,1.515,2.306.768,3.479-.751,1.168-2.306,1.515-3.48.768l-1.935-1.234c-.717-.467-1.548-.707-2.416-.707h-6.172c-.984,0-1.942.32-2.689.904-1.091.834-1.731,2.145-1.731,3.516v14.35c0,1.371.641,2.683,1.715,3.503.768.595,1.725.918,2.709.918h6.172c.834,0,1.678-.25,2.446-.728l1.905-1.214-.007.003Z"/>
      <path d="M553.376,1742.711v28.226c0,1.11-.728,2.088-1.789,2.412-.244.07-.487.106-.73.106-.828,0-1.618-.407-2.095-1.121l-14.203-21.302v19.904c0,1.391-1.128,2.519-2.519,2.519s-2.519-1.128-2.519-2.519v-28.226c0-1.111.728-2.089,1.789-2.412,1.054-.32,2.208.09,2.826,1.015l14.203,21.302v-19.904c0-1.391,1.128-2.519,2.519-2.519s2.519,1.128,2.519,2.519Z"/>
      <path d="M635.053,1755.748c1.548,1.548,2.402,3.603,2.402,5.781v2.369c0,3.029-1.441,5.905-3.854,7.697-1.631,1.234-3.623,1.895-5.738,1.895h-2.102c-1.912,0-7.593-1.061-9.602-2.068l-1.147-.54c-1.258-.595-1.795-2.096-1.201-3.354.594-1.261,2.092-1.792,3.353-1.201l1.201.567c1.114.557,5.922,1.562,7.4,1.562h2.102c1.007,0,1.945-.311,2.716-.891,1.171-.874,1.835-2.206,1.835-3.667v-2.369c0-.834-.331-1.621-.931-2.222l-.404-.403c-.48-.484-1.144-.761-1.818-.761h-4.971c-.971,0-1.858-.561-2.275-1.441s-.291-1.919.327-2.673l7.247-8.867h-10.002c-1.392,0-2.519-1.128-2.519-2.52s1.127-2.519,2.519-2.519h15.313c.971,0,1.858.561,2.275,1.441.417.877.29,1.918-.327,2.672l-7.253,8.875c1.885.083,3.71.888,5.051,2.229l.403.403v.004Z"/>
      <path d="M664.244,1755.511c1.855,2.159,1.805,4.211,1.762,5.862l-.014.757c0,3.083-.974,5.822-2.672,7.523-1.455,1.451-3.457,2.516-5.492,2.923-1.568.313-10.056.73-12.621.848h-.12c-1.338,0-2.452-1.055-2.516-2.402-.063-1.388,1.008-2.565,2.399-2.633,5.151-.243,11-.59,11.871-.757,1.054-.214,2.172-.804,2.916-1.548.554-.554,1.198-1.922,1.198-3.961l.013-.884c.033-1.397.02-1.788-.541-2.442-.634-.73-1.158-.87-2.402-.924h-12.938c-1.385,0-2.509-1.114-2.519-2.499l-.1-12.715c-.003-.674.257-1.317.731-1.795.474-.477,1.118-.744,1.788-.744h17.282c1.391,0,2.519,1.128,2.519,2.52s-1.128,2.519-2.519,2.519h-14.743l.06,7.677h10.546c2.099.091,4.201.471,6.109,2.673l.003.003Z"/>
      <path d="M676.055,1772.768v.07c0,1.392-1.128,2.52-2.519,2.52s-2.519-1.128-2.519-2.52,1.128-2.556,2.519-2.556,2.519,1.095,2.519,2.485Z"/>
      <path d="M702.436,1768.409c1.391,0,2.519,1.128,2.519,2.519s-1.127,2.52-2.519,2.52h-18.85c-.347,0-.681-.073-.981-.2-.02-.007-.034-.027-.054-.037-.29-.13-.55-.311-.767-.533-.01-.011-.023-.014-.033-.023-.09-.094-.127-.214-.197-.317-.11-.157-.23-.304-.3-.483-.07-.184-.086-.374-.113-.567-.02-.124-.073-.23-.073-.357,0-.013.006-.026.006-.04.003-.206.067-.403.12-.604.034-.117.037-.247.083-.357.043-.103.13-.187.19-.283.11-.184.217-.37.37-.521.01-.01.023-.033.023-.033l14.346-13.445c2.168-2.039,3.353-4.247,3.25-6.059-.07-1.269-.771-2.379-2.132-3.394-.917-.677-2.226-1.037-3.767-1.037-2.973,0-5.298.507-7,2.979-.788,1.15-2.353,1.438-3.503.65-1.145-.787-1.435-2.355-.647-3.503,3.55-5.162,9.071-5.162,11.15-5.162,2.625,0,4.964.701,6.766,2.025,3.243,2.419,4.053,5.225,4.164,7.156.19,3.35-1.525,6.906-4.834,10.02l-9.702,9.095h12.481l.003-.007Z"/>
    </g>
    <g>
      <path d="M431.107,1801.629c1.675,1.558,2.723,3.779,2.723,6.242v3.336c0,4.681-3.81,8.49-8.491,8.49h-12.845c-1.391,0-2.519-1.127-2.519-2.519v-28.226c0-1.391,1.128-2.519,2.519-2.519h12.578c2.562,0,4.924,1.274,6.315,3.413.804,1.182,1.241,2.639,1.241,4.178v3.169c0,1.839-.611,3.31-1.525,4.435h.003ZM415.016,1791.479v7.874h10.519c.581-.111,2.059-.548,2.059-2.156v-3.169c0-.534-.137-.997-.4-1.388-.494-.758-1.258-1.168-2.122-1.168h-10.059l.003.007ZM428.792,1807.874c0-1.788-1.354-3.267-3.089-3.466-.133.013-.267.013-.397.013h-10.292v10.242h10.326c1.905,0,3.453-1.552,3.453-3.452v-3.337Z"/>
      <path d="M461.213,1794.365c.984,1.194,1.535,2.713,1.535,4.264v18.517c0,1.392-1.128,2.519-2.519,2.519s-2.519-1.127-2.519-2.519v-11.594h-13.846v11.594c0,1.392-1.127,2.519-2.519,2.519s-2.519-1.127-2.519-2.519v-18.517c0-1.521.523-2.982,1.511-4.234l4.23-5.168c3.013-3.605,9.455-3.586,12.428-.016l4.22,5.154h-.003ZM443.871,1800.511h13.849v-1.886c0-.387-.137-.754-.391-1.061l-4.214-5.147c-1.011-1.212-3.616-1.231-4.657.021l-4.187,5.121c-.357.443-.4.826-.4,1.07v1.882Z"/>
      <path d="M558.205,1801.957c1.548,1.548,2.402,3.604,2.402,5.781v2.369c0,3.029-1.441,5.906-3.854,7.697-1.631,1.234-3.623,1.895-5.738,1.895h-2.102c-1.912,0-7.593-1.061-9.602-2.068l-1.147-.54c-1.258-.595-1.795-2.095-1.201-3.353.594-1.262,2.092-1.793,3.353-1.201l1.201.566c1.114.557,5.922,1.562,7.4,1.562h2.102c1.007,0,1.945-.31,2.715-.891,1.171-.874,1.835-2.206,1.835-3.667v-2.369c0-.834-.331-1.621-.931-2.221l-.404-.404c-.48-.484-1.144-.761-1.818-.761h-4.971c-.971,0-1.858-.561-2.275-1.441s-.291-1.919.327-2.673l7.247-8.867h-10.002c-1.392,0-2.519-1.128-2.519-2.52s1.127-2.519,2.519-2.519h15.313c.971,0,1.858.561,2.275,1.441.417.878.29,1.919-.327,2.673l-7.253,8.874c1.885.083,3.71.888,5.051,2.229l.403.403v.004Z"/>
      <path d="M587.105,1801.957c1.548,1.548,2.402,3.604,2.402,5.781v2.369c0,3.029-1.441,5.906-3.854,7.697-1.631,1.234-3.623,1.895-5.738,1.895h-2.102c-1.912,0-7.593-1.061-9.602-2.068l-1.147-.54c-1.258-.595-1.795-2.095-1.201-3.353.594-1.262,2.092-1.793,3.353-1.201l1.201.566c1.114.557,5.922,1.562,7.4,1.562h2.102c1.007,0,1.945-.31,2.715-.891,1.171-.874,1.835-2.206,1.835-3.667v-2.369c0-.834-.331-1.621-.931-2.221l-.404-.404c-.48-.484-1.144-.761-1.818-.761h-4.971c-.971,0-1.858-.561-2.275-1.441s-.291-1.919.327-2.673l7.247-8.867h-10.002c-1.392,0-2.519-1.128-2.519-2.52s1.127-2.519,2.519-2.519h15.313c.971,0,1.858.561,2.275,1.441.417.878.29,1.919-.327,2.673l-7.253,8.874c1.885.083,3.71.888,5.051,2.229l.403.403v.004Z"/>
      <path d="M618.374,1797.764c0,1.457-.544,2.883-1.518,4.037.974,1.157,1.518,2.578,1.518,4.037v7.275c0,1.779-.797,3.504-2.189,4.729-1.308,1.157-3.049,1.795-4.901,1.795h-9.675c-1.812,0-3.597-.654-4.898-1.795-1.415-1.248-2.192-2.926-2.192-4.729v-7.275c0-1.459.544-2.883,1.518-4.037-.978-1.162-1.518-2.586-1.518-4.037v-4.904c0-1.779.797-3.504,2.189-4.729,1.311-1.16,3.053-1.798,4.901-1.798h9.675c1.818,0,3.603.653,4.901,1.795,1.415,1.251,2.189,2.929,2.189,4.728v4.908ZM613.336,1805.83c0-.333-.19-.688-.517-.977l-.617-.541h-11.517l-.621.544c-.32.286-.51.641-.51.974v7.277c0,.344.164.66.484.943.383.338.971.541,1.568.541h9.675c.611,0,1.185-.193,1.568-.537.307-.268.487-.621.487-.947v-7.277ZM599.561,1792.859v4.904c0,.334.19.69.521.987l.607.53h11.521l.624-.544c.317-.283.507-.64.507-.974v-4.904c0-.348-.164-.668-.487-.951-.38-.334-.967-.537-1.568-.537h-9.675c-.61,0-1.181.197-1.565.537h-.003c-.304.267-.484.621-.484.947l.003.004Z"/>
      <path d="M646.8,1794.485l-18.817,28.226c-.487.727-1.284,1.121-2.099,1.121-.48,0-.964-.137-1.395-.424-1.158-.774-1.468-2.336-.697-3.494l18.817-28.225c.774-1.154,2.332-1.465,3.493-.697,1.158.771,1.468,2.336.697,3.493Z"/>
      <path d="M673.704,1801.957c1.548,1.548,2.402,3.604,2.402,5.781v2.369c0,3.029-1.441,5.906-3.854,7.697-1.631,1.234-3.623,1.895-5.738,1.895h-2.102c-1.912,0-7.593-1.061-9.602-2.068l-1.147-.54c-1.258-.595-1.795-2.095-1.201-3.353.594-1.262,2.092-1.793,3.353-1.201l1.201.566c1.114.557,5.922,1.562,7.4,1.562h2.102c1.007,0,1.945-.31,2.716-.891,1.171-.874,1.835-2.206,1.835-3.667v-2.369c0-.834-.331-1.621-.931-2.221l-.404-.404c-.48-.484-1.144-.761-1.818-.761h-4.971c-.971,0-1.858-.561-2.275-1.441s-.291-1.919.327-2.673l7.247-8.867h-10.002c-1.392,0-2.519-1.128-2.519-2.52s1.127-2.519,2.519-2.519h15.313c.971,0,1.858.561,2.275,1.441.417.878.29,1.919-.327,2.673l-7.253,8.874c1.885.083,3.71.888,5.051,2.229l.403.403v.004Z"/>
      <path d="M701.94,1801.727c1.094.277,1.901,1.265,1.901,2.442s-.807,2.165-1.901,2.442v10.536c0,1.392-1.128,2.519-2.519,2.519s-2.519-1.127-2.519-2.519v-10.463h-13.262c-.984,0-1.878-.567-2.289-1.462-.414-.894-.267-1.944.37-2.691l13.079-15.314c.477-.561,1.178-.884,1.915-.884h2.702c1.392,0,2.519,1.128,2.519,2.519v12.869l.003.006ZM696.899,1792.516l-7.797,9.131h7.797v-9.131Z"/>
    </g>
    <g>
      <path d="M1743.243,1787.826v23.521c0,.666-.264,1.307-.737,1.777l-4.701,4.705c-.98.986-2.568.984-3.556.01l-2.93-2.91-2.93,2.91c-.49.486-1.134.73-1.774.73s-1.291-.247-1.781-.737l-4.705-4.704c-.474-.471-.737-1.115-.737-1.781v-23.521c0-1.391,1.128-2.52,2.52-2.52s2.519,1.129,2.519,2.52v22.477l2.192,2.191,2.179-2.164v-6.022c0-1.392,1.127-2.519,2.519-2.519s2.519,1.127,2.519,2.519v6.022l2.179,2.164,2.188-2.191v-22.477c0-1.391,1.128-2.52,2.52-2.52s2.519,1.129,2.519,2.52Z"/>
      <path d="M1770.194,1787.215c1.225,1.225,1.902,2.867,1.902,4.618v6.072c0,1.725-.694,3.406-1.902,4.617-1.23,1.228-2.872,1.905-4.617,1.905h-12.298v11.623c0,1.392-1.128,2.52-2.519,2.52s-2.52-1.128-2.52-2.52v-28.225c0-1.391,1.128-2.52,2.52-2.52h14.813c1.725,0,3.406.694,4.617,1.906l.003.002ZM1767.058,1791.826c0-.417-.144-.771-.427-1.051-.271-.273-.664-.434-1.055-.434h-12.298v9.045h12.298c.414,0,.764-.146,1.051-.434.271-.268.431-.661.431-1.051v-6.076Z"/>
    </g>
    <path d="M1727.988,1857.535c1.392,0,2.519,1.128,2.519,2.52s-1.127,2.519-2.519,2.519h-18.82c-.927,0-1.781-.511-2.222-1.328-.438-.821-.387-1.815.127-2.585l6.796-10.196h-1.164c-1.392,0-2.52-1.128-2.52-2.519s1.128-2.52,2.52-2.52h4.521l6.052-9.078h-14.109c-1.391,0-2.519-1.127-2.519-2.519s1.128-2.519,2.519-2.519h18.82c.928,0,1.781.51,2.222,1.327.438.817.388,1.812-.126,2.586l-6.8,10.199h1.164c1.392,0,2.52,1.128,2.52,2.519s-1.128,2.52-2.52,2.52h-4.523l-6.049,9.074h14.112Z"/>
    <g>
      <path d="M1650.542,1873.312c1.392,0,2.519,1.128,2.519,2.52s-1.127,2.519-2.519,2.519h-6.89v25.706c0,1.392-1.128,2.52-2.519,2.52s-2.52-1.128-2.52-2.52v-25.706h-6.89c-1.391,0-2.519-1.128-2.519-2.519s1.128-2.52,2.519-2.52h18.817Z"/>
      <path d="M1679.391,1873.312c1.392,0,2.519,1.128,2.519,2.52s-1.127,2.519-2.519,2.519h-6.89v25.706c0,1.392-1.128,2.52-2.519,2.52s-2.52-1.128-2.52-2.52v-25.706h-6.89c-1.391,0-2.519-1.128-2.519-2.519s1.128-2.52,2.519-2.52h18.817Z"/>
      <path d="M1710.659,1889.878l.1,7.974c0,2.372-.957,4.647-2.629,6.275-1.581,1.535-3.767,2.415-5.995,2.415h-6.072c-1.901,0-3.771-.637-5.255-1.801l-.544-.414c-2.132-1.611-3.359-4.097-3.359-6.81v-15.18c0-2.67,1.261-5.219,3.369-6.813l.561-.427c1.462-1.145,3.327-1.785,5.229-1.785h6.673c1.685,0,3.333.504,4.764,1.458l2.005,1.338c1.158.774,1.469,2.336.698,3.493-.771,1.161-2.333,1.468-3.493.697l-2.002-1.338c-.601-.4-1.281-.61-1.972-.61h-6.673c-.794,0-1.535.254-2.152.734l-.594.453c-.867.65-1.378,1.698-1.378,2.8v15.18c0,1.121.497,2.139,1.368,2.796l.577.44c.638.501,1.381.754,2.175.754h6.072c.931,0,1.835-.363,2.482-.991.711-.69,1.104-1.624,1.104-2.629l-.07-5.454h-5.755c-1.392,0-2.519-1.128-2.519-2.52s1.127-2.519,2.519-2.519h8.24c1.378,0,2.503,1.107,2.52,2.485l.007-.003Z"/>
    </g>
    <g>
      <path d="M1650.473,1945.537c1.392,0,2.52,1.129,2.52,2.52s-1.128,2.52-2.52,2.52h-18.85c-1.392,0-2.52-1.129-2.52-2.52v-28.225c0-1.392,1.128-2.52,2.52-2.52h18.85c1.392,0,2.52,1.128,2.52,2.52s-1.128,2.519-2.52,2.519h-16.331v9.078h12.795c1.392,0,2.519,1.128,2.519,2.519s-1.127,2.52-2.519,2.52h-12.795v9.074h16.331v-.004Z"/>
      <path d="M1679.342,1917.316c1.392,0,2.519,1.127,2.519,2.519s-1.127,2.519-2.519,2.519h-6.89v25.707c0,1.391-1.128,2.519-2.519,2.519s-2.52-1.128-2.52-2.519v-25.707h-6.89c-1.391,0-2.519-1.127-2.519-2.519s1.128-2.519,2.519-2.519h18.817Z"/>
      <path d="M1709.242,1925.279c.984,1.195,1.535,2.713,1.535,4.264v18.518c0,1.391-1.128,2.519-2.52,2.519s-2.519-1.128-2.519-2.519v-11.594h-13.846v11.594c0,1.391-1.128,2.519-2.52,2.519s-2.519-1.128-2.519-2.519v-18.518c0-1.521.523-2.982,1.512-4.233l4.23-5.168c3.013-3.606,9.455-3.587,12.428-.017l4.22,5.154h-.003ZM1691.9,1931.426h13.849v-1.886c0-.387-.137-.754-.391-1.061l-4.214-5.147c-1.011-1.212-3.616-1.232-4.657.02l-4.187,5.121c-.357.443-.4.827-.4,1.07v1.883Z"/>
    </g>
    <g>
      <path d="M1756.213,1879.971v20.618c0,3.507-3.089,6.355-6.889,6.355h-10.109c-3.863,0-6.89-2.792-6.89-6.355v-20.618c0-3.507,3.09-6.355,6.89-6.355h10.109c3.8,0,6.889,2.849,6.889,6.355ZM1751.176,1879.971c0-.728-.831-1.321-1.852-1.321h-10.109c-1.061,0-1.852.697-1.852,1.321v20.618c0,.728.831,1.321,1.852,1.321h10.109c1.061,0,1.852-.697,1.852-1.321v-20.618Z"/>
      <path d="M1785.112,1879.971v20.618c0,3.507-3.089,6.355-6.889,6.355h-10.109c-3.863,0-6.89-2.792-6.89-6.355v-20.618c0-3.507,3.09-6.355,6.89-6.355h10.109c3.8,0,6.889,2.849,6.889,6.355ZM1780.075,1879.971c0-.728-.831-1.321-1.852-1.321h-10.109c-1.061,0-1.852.697-1.852,1.321v20.618c0,.728.831,1.321,1.852,1.321h10.109c1.061,0,1.852-.697,1.852-1.321v-20.618Z"/>
      <path d="M1808.961,1887.445v.033c0,1.392-1.128,2.52-2.519,2.52s-2.52-1.128-2.52-2.52,1.128-2.535,2.52-2.535,2.519,1.111,2.519,2.502ZM1808.961,1900.357v.033c0,1.391-1.128,2.519-2.519,2.519s-2.52-1.128-2.52-2.519,1.128-2.536,2.52-2.536,2.519,1.111,2.519,2.503Z"/>
      <path d="M1851.659,1879.971v20.618c0,3.507-3.089,6.355-6.889,6.355h-10.109c-3.863,0-6.89-2.792-6.89-6.355v-20.618c0-3.507,3.09-6.355,6.89-6.355h10.109c3.8,0,6.889,2.849,6.889,6.355ZM1846.622,1879.971c0-.728-.831-1.321-1.852-1.321h-10.109c-1.061,0-1.852.697-1.852,1.321v20.618c0,.728.831,1.321,1.852,1.321h10.109c1.061,0,1.852-.697,1.852-1.321v-20.618Z"/>
      <path d="M1878.156,1889.239c1.548,1.548,2.402,3.603,2.402,5.781v2.369c0,3.029-1.441,5.905-3.854,7.696-1.632,1.234-3.624,1.896-5.739,1.896h-2.102c-1.912,0-7.594-1.062-9.602-2.068l-1.148-.541c-1.257-.594-1.795-2.095-1.2-3.353.594-1.262,2.092-1.792,3.353-1.201l1.201.567c1.114.557,5.922,1.562,7.399,1.562h2.103c1.008,0,1.945-.311,2.716-.892,1.171-.874,1.835-2.205,1.835-3.666v-2.369c0-.834-.33-1.621-.931-2.222l-.404-.404c-.48-.483-1.145-.761-1.818-.761h-4.971c-.971,0-1.858-.56-2.275-1.44s-.29-1.919.327-2.673l7.246-8.868h-10.002c-1.392,0-2.52-1.127-2.52-2.519s1.128-2.519,2.52-2.519h15.313c.971,0,1.858.561,2.275,1.44.417.878.29,1.919-.327,2.673l-7.253,8.875c1.885.083,3.71.887,5.051,2.229l.404.403v.004Z"/>
      <path d="M1904.408,1887.445v.033c0,1.392-1.128,2.52-2.519,2.52s-2.52-1.128-2.52-2.52,1.128-2.535,2.52-2.535,2.519,1.111,2.519,2.502ZM1904.408,1900.357v.033c0,1.391-1.128,2.519-2.519,2.519s-2.52-1.128-2.52-2.519,1.128-2.536,2.52-2.536,2.519,1.111,2.519,2.503Z"/>
      <path d="M1944.04,1889.009c1.094.276,1.901,1.265,1.901,2.442s-.808,2.165-1.901,2.441v10.536c0,1.392-1.128,2.52-2.519,2.52s-2.52-1.128-2.52-2.52v-10.462h-13.262c-.984,0-1.878-.567-2.289-1.462-.413-.894-.267-1.945.371-2.692l13.078-15.313c.477-.561,1.178-.884,1.915-.884h2.702c1.392,0,2.52,1.127,2.52,2.519v12.868l.003.007ZM1938.999,1879.797l-7.797,9.132h7.797v-9.132Z"/>
      <path d="M1972.287,1901.9c1.392,0,2.52,1.127,2.52,2.519s-1.128,2.519-2.52,2.519h-18.85c-.348,0-.681-.073-.981-.2-.02-.006-.033-.026-.053-.036-.291-.13-.551-.311-.768-.534-.01-.01-.023-.013-.033-.023-.09-.093-.127-.213-.197-.316-.11-.157-.23-.304-.3-.484-.07-.183-.087-.373-.113-.566-.021-.124-.074-.23-.074-.357,0-.014.007-.026.007-.04.004-.207.067-.403.12-.604.033-.117.037-.247.084-.357.043-.104.13-.187.189-.283.11-.184.217-.37.371-.521.01-.01.023-.033.023-.033l14.346-13.445c2.169-2.039,3.353-4.247,3.25-6.06-.07-1.268-.771-2.378-2.133-3.393-.917-.678-2.225-1.037-3.767-1.037-2.973,0-5.298.507-6.999,2.979-.787,1.151-2.353,1.438-3.503.651-1.145-.788-1.435-2.355-.647-3.504,3.55-5.161,9.071-5.161,11.149-5.161,2.626,0,4.965.701,6.767,2.025,3.242,2.419,4.054,5.225,4.163,7.156.19,3.35-1.524,6.906-4.834,10.019l-9.702,9.096h12.481l.003-.007Z"/>
    </g>
    <g>
      <path d="M1755.801,1923.604v20.618c0,3.507-3.089,6.355-6.889,6.355h-10.109c-3.863,0-6.89-2.792-6.89-6.355v-20.618c0-3.507,3.09-6.355,6.89-6.355h10.109c3.8,0,6.889,2.849,6.889,6.355ZM1750.763,1923.604c0-.728-.831-1.321-1.852-1.321h-10.109c-1.061,0-1.852.697-1.852,1.321v20.618c0,.728.831,1.321,1.852,1.321h10.109c1.061,0,1.852-.697,1.852-1.321v-20.618Z"/>
      <path d="M1782.181,1945.533c1.392,0,2.52,1.127,2.52,2.519s-1.128,2.519-2.52,2.519h-18.85c-.348,0-.681-.073-.981-.2-.02-.006-.033-.026-.053-.036-.291-.13-.551-.311-.768-.534-.01-.01-.023-.013-.033-.023-.09-.093-.127-.213-.197-.316-.11-.157-.23-.304-.3-.484-.07-.183-.087-.373-.113-.566-.021-.124-.074-.23-.074-.357,0-.014.007-.026.007-.04.004-.207.067-.403.12-.604.033-.117.037-.247.084-.357.043-.104.13-.187.189-.283.11-.184.217-.37.371-.521.01-.01.022-.033.022-.033l14.347-13.445c2.169-2.039,3.353-4.247,3.25-6.06-.07-1.268-.771-2.378-2.133-3.393-.917-.678-2.225-1.037-3.767-1.037-2.973,0-5.298.507-6.999,2.979-.787,1.151-2.353,1.438-3.503.651-1.145-.788-1.435-2.355-.647-3.504,3.55-5.161,9.071-5.161,11.149-5.161,2.626,0,4.965.701,6.767,2.025,3.243,2.419,4.054,5.225,4.163,7.156.19,3.35-1.524,6.906-4.834,10.019l-9.702,9.096h12.481l.003-.007Z"/>
      <path d="M1808.549,1931.078v.033c0,1.392-1.128,2.52-2.519,2.52s-2.52-1.128-2.52-2.52,1.128-2.535,2.52-2.535,2.519,1.111,2.519,2.502ZM1808.549,1943.99v.033c0,1.391-1.128,2.519-2.519,2.519s-2.52-1.128-2.52-2.519,1.128-2.536,2.52-2.536,2.519,1.111,2.519,2.503Z"/>
      <path d="M1851.248,1923.604v20.618c0,3.507-3.089,6.355-6.889,6.355h-10.109c-3.863,0-6.89-2.792-6.89-6.355v-20.618c0-3.507,3.09-6.355,6.89-6.355h10.109c3.8,0,6.889,2.849,6.889,6.355ZM1846.211,1923.604c0-.728-.831-1.321-1.852-1.321h-10.109c-1.061,0-1.852.697-1.852,1.321v20.618c0,.728.831,1.321,1.852,1.321h10.109c1.061,0,1.852-.697,1.852-1.321v-20.618Z"/>
      <path d="M1867.986,1929.028c7.272,0,12.16,4.323,12.16,10.76,0,6.339-5.001,10.763-12.16,10.763s-11.728-4.224-11.728-10.763c0-.153.037-.287.04-.438-.007-.07-.04-.127-.04-.196,0-3.464,3.093-10.517,6.082-15.341,2.002-3.236,3.333-4.564,4.504-5.735.984-.984,2.626-1.03,3.61-.047.984.984,1.031,2.536.047,3.517l-.094.094c-1.074,1.071-2.085,2.085-3.783,4.824-.591.947-1.124,1.908-1.628,2.862.943-.18,1.928-.304,2.989-.304v.004ZM1875.109,1939.784c0-5.164-4.981-5.722-7.123-5.722-3.053,0-6.689.994-6.689,5.722,0,3.693,2.375,5.726,6.689,5.726,4.394,0,7.123-2.192,7.123-5.726Z"/>
      <path d="M1903.996,1931.078v.033c0,1.392-1.128,2.52-2.519,2.52s-2.52-1.128-2.52-2.52,1.128-2.535,2.52-2.535,2.519,1.111,2.519,2.502ZM1903.996,1943.99v.033c0,1.391-1.128,2.519-2.519,2.519s-2.52-1.128-2.52-2.519,1.128-2.536,2.52-2.536,2.519,1.111,2.519,2.503Z"/>
      <path d="M1946.694,1923.604v20.618c0,3.507-3.089,6.355-6.889,6.355h-10.109c-3.863,0-6.89-2.792-6.89-6.355v-20.618c0-3.507,3.09-6.355,6.89-6.355h10.109c3.8,0,6.889,2.849,6.889,6.355ZM1941.657,1923.604c0-.728-.831-1.321-1.852-1.321h-10.109c-1.061,0-1.852.697-1.852,1.321v20.618c0,.728.831,1.321,1.852,1.321h10.109c1.061,0,1.852-.697,1.852-1.321v-20.618Z"/>
      <path d="M1973.075,1945.533c1.392,0,2.52,1.127,2.52,2.519s-1.128,2.519-2.52,2.519h-18.85c-.348,0-.681-.073-.981-.2-.02-.006-.033-.026-.053-.036-.291-.13-.551-.311-.768-.534-.01-.01-.023-.013-.033-.023-.09-.093-.127-.213-.197-.316-.11-.157-.23-.304-.3-.484-.07-.183-.087-.373-.113-.566-.021-.124-.074-.23-.074-.357,0-.014.007-.026.007-.04.004-.207.067-.403.12-.604.033-.117.037-.247.084-.357.043-.104.13-.187.189-.283.11-.184.217-.37.371-.521.01-.01.023-.033.023-.033l14.346-13.445c2.169-2.039,3.353-4.247,3.25-6.06-.07-1.268-.771-2.378-2.133-3.393-.917-.678-2.225-1.037-3.767-1.037-2.973,0-5.298.507-6.999,2.979-.787,1.151-2.353,1.438-3.503.651-1.145-.788-1.435-2.355-.647-3.504,3.55-5.161,9.071-5.161,11.149-5.161,2.626,0,4.965.701,6.767,2.025,3.242,2.419,4.054,5.225,4.163,7.156.19,3.35-1.524,6.906-4.834,10.019l-9.702,9.096h12.481l.003-.007Z"/>
    </g>
    <g>
      <path d="M1756.886,1836.338v20.618c0,3.507-3.089,6.355-6.889,6.355h-10.109c-3.863,0-6.89-2.792-6.89-6.355v-20.618c0-3.507,3.09-6.355,6.89-6.355h10.109c3.8,0,6.889,2.849,6.889,6.355ZM1751.849,1836.338c0-.728-.831-1.321-1.852-1.321h-10.109c-1.061,0-1.852.697-1.852,1.321v20.618c0,.728.831,1.321,1.852,1.321h10.109c1.061,0,1.852-.697,1.852-1.321v-20.618Z"/>
      <path d="M1783.267,1858.268c1.392,0,2.52,1.127,2.52,2.519s-1.128,2.519-2.52,2.519h-18.85c-.348,0-.681-.073-.981-.2-.02-.006-.033-.026-.053-.036-.291-.13-.551-.311-.768-.534-.01-.01-.023-.013-.033-.023-.09-.093-.127-.213-.197-.316-.11-.157-.23-.304-.3-.484-.07-.183-.087-.373-.113-.566-.021-.124-.074-.23-.074-.357,0-.014.007-.026.007-.04.004-.207.067-.403.12-.604.033-.117.037-.247.084-.357.043-.104.13-.187.189-.283.11-.184.217-.37.371-.521.01-.01.022-.033.022-.033l14.347-13.445c2.169-2.039,3.353-4.247,3.25-6.06-.07-1.268-.771-2.378-2.133-3.393-.917-.678-2.225-1.037-3.767-1.037-2.973,0-5.298.507-6.999,2.979-.787,1.151-2.353,1.438-3.503.651-1.145-.788-1.435-2.355-.647-3.504,3.55-5.161,9.071-5.161,11.149-5.161,2.626,0,4.965.701,6.767,2.025,3.243,2.419,4.054,5.225,4.163,7.156.19,3.35-1.524,6.906-4.834,10.019l-9.702,9.096h12.481l.003-.007Z"/>
      <path d="M1809.635,1843.812v.033c0,1.392-1.128,2.52-2.519,2.52s-2.52-1.128-2.52-2.52,1.128-2.535,2.52-2.535,2.519,1.111,2.519,2.502ZM1809.635,1856.725v.033c0,1.391-1.128,2.519-2.519,2.519s-2.52-1.128-2.52-2.519,1.128-2.536,2.52-2.536,2.519,1.111,2.519,2.503Z"/>
      <path d="M1852.334,1836.338v20.618c0,3.507-3.089,6.355-6.889,6.355h-10.109c-3.863,0-6.89-2.792-6.89-6.355v-20.618c0-3.507,3.09-6.355,6.89-6.355h10.109c3.8,0,6.889,2.849,6.889,6.355ZM1847.297,1836.338c0-.728-.831-1.321-1.852-1.321h-10.109c-1.061,0-1.852.697-1.852,1.321v20.618c0,.728.831,1.321,1.852,1.321h10.109c1.061,0,1.852-.697,1.852-1.321v-20.618Z"/>
      <path d="M1878.714,1858.268c1.392,0,2.52,1.127,2.52,2.519s-1.128,2.519-2.52,2.519h-18.85c-.348,0-.681-.073-.981-.2-.02-.006-.033-.026-.053-.036-.291-.13-.551-.311-.768-.534-.01-.01-.023-.013-.033-.023-.09-.093-.127-.213-.197-.316-.11-.157-.23-.304-.3-.484-.07-.183-.087-.373-.113-.566-.021-.124-.074-.23-.074-.357,0-.014.007-.026.007-.04.004-.207.067-.403.12-.604.033-.117.037-.247.084-.357.043-.104.13-.187.189-.283.11-.184.217-.37.371-.521.01-.01.023-.033.023-.033l14.346-13.445c2.169-2.039,3.353-4.247,3.25-6.06-.07-1.268-.771-2.378-2.133-3.393-.917-.678-2.225-1.037-3.767-1.037-2.973,0-5.298.507-6.999,2.979-.787,1.151-2.353,1.438-3.503.651-1.145-.788-1.435-2.355-.647-3.504,3.55-5.161,9.071-5.161,11.149-5.161,2.626,0,4.965.701,6.767,2.025,3.242,2.419,4.054,5.225,4.163,7.156.19,3.35-1.524,6.906-4.834,10.019l-9.702,9.096h12.481l.003-.007Z"/>
      <path d="M1905.082,1843.812v.033c0,1.392-1.128,2.52-2.519,2.52s-2.52-1.128-2.52-2.52,1.128-2.535,2.52-2.535,2.519,1.111,2.519,2.502ZM1905.082,1856.725v.033c0,1.391-1.128,2.519-2.519,2.519s-2.52-1.128-2.52-2.519,1.128-2.536,2.52-2.536,2.519,1.111,2.519,2.503Z"/>
      <path d="M1931.265,1858.311c1.318.084,2.369,1.151,2.369,2.489,0,1.391-1.128,2.519-2.519,2.519h-4.704c-1.392,0-2.52-1.128-2.52-2.519,0-1.328,1.034-2.383,2.336-2.482v-22.587c-.411-.19-.784-.467-1.052-.874-.764-1.161-.443-2.726.718-3.49l1.468-.967c.063-.044.141-.047.207-.084.146-.08.297-.137.46-.187.171-.054.331-.09.504-.104.074-.007.137-.043.214-.043.083,0,.153.04.237.046.173.018.34.051.507.104.153.051.293.107.431.181.14.073.267.16.394.264.137.109.25.229.36.363.053.066.126.104.173.177.044.063.047.141.084.207.08.146.137.3.187.464.05.167.087.327.101.497.006.076.043.14.043.217v25.807l.003.003Z"/>
      <path d="M1958.323,1860.209c-2.959,2.956-10.285,3.106-11.724,3.106-1.391,0-2.519-1.128-2.519-2.516s1.124-2.522,2.516-2.522c3.093-.003,7.206-.674,8.164-1.632,1.234-1.234,1.984-3.773,2.412-6.592-1.812.924-4.007,1.451-6.569,1.451-7.377,0-11.961-4.124-11.961-10.76,0-5.205,3.143-10.763,11.961-10.763,8.598,0,11.773,5.281,11.927,10.369.014.08.054.149.061.229.097,1.476.797,14.561-4.268,19.628ZM1957.522,1840.741c0-3.8-2.332-5.725-6.923-5.725-4.657,0-6.923,1.875-6.923,5.725,0,3.797,2.329,5.723,6.923,5.723s6.923-1.922,6.923-5.723Z"/>
    </g>
    <g>
      <path d="M1805.416,1800.633c1.094.276,1.901,1.265,1.901,2.442s-.808,2.165-1.901,2.441v10.536c0,1.392-1.128,2.52-2.519,2.52s-2.52-1.128-2.52-2.52v-10.462h-13.262c-.984,0-1.878-.567-2.289-1.462-.413-.894-.267-1.945.371-2.692l13.078-15.313c.477-.561,1.178-.884,1.915-.884h2.702c1.392,0,2.519,1.127,2.519,2.519v12.868l.004.007ZM1800.375,1791.421l-7.797,9.132h7.797v-9.132Z"/>
      <path d="M1875.061,1813.524c1.392,0,2.52,1.127,2.52,2.519s-1.128,2.519-2.52,2.519h-18.85c-.348,0-.681-.073-.981-.2-.02-.006-.033-.026-.053-.036-.291-.13-.551-.311-.768-.534-.01-.01-.023-.013-.033-.023-.09-.093-.127-.213-.197-.316-.11-.157-.23-.304-.3-.484-.07-.183-.087-.373-.113-.566-.021-.124-.074-.23-.074-.357,0-.014.007-.026.007-.04.004-.207.067-.403.12-.604.033-.117.037-.247.084-.357.043-.104.13-.187.189-.283.11-.184.217-.37.371-.521.01-.01.022-.033.022-.033l14.347-13.445c2.169-2.039,3.353-4.247,3.25-6.06-.07-1.268-.771-2.378-2.133-3.393-.917-.678-2.225-1.037-3.767-1.037-2.973,0-5.298.507-6.999,2.979-.787,1.151-2.353,1.438-3.503.651-1.145-.788-1.435-2.355-.647-3.504,3.55-5.161,9.071-5.161,11.149-5.161,2.626,0,4.965.701,6.767,2.025,3.243,2.419,4.054,5.225,4.163,7.156.19,3.35-1.524,6.906-4.834,10.019l-9.702,9.096h12.481l.003-.007Z"/>
      <path d="M1901.319,1797.02c7.272,0,12.16,4.323,12.16,10.76,0,6.339-5.001,10.763-12.16,10.763s-11.728-4.224-11.728-10.763c0-.153.037-.287.04-.438-.007-.07-.04-.127-.04-.196,0-3.464,3.093-10.517,6.082-15.341,2.002-3.236,3.333-4.564,4.504-5.735.984-.984,2.626-1.03,3.61-.047.984.984,1.031,2.536.047,3.517l-.094.094c-1.074,1.071-2.085,2.085-3.783,4.824-.591.947-1.124,1.908-1.628,2.862.943-.18,1.928-.304,2.989-.304v.004ZM1908.442,1807.775c0-5.164-4.981-5.722-7.123-5.722-3.053,0-6.689.994-6.689,5.722,0,3.693,2.375,5.726,6.689,5.726,4.394,0,7.123-2.192,7.123-5.726Z"/>
      <path d="M1930.529,1817.883v.07c0,1.392-1.128,2.519-2.519,2.519s-2.52-1.127-2.52-2.519,1.128-2.556,2.52-2.556,2.519,1.095,2.519,2.485Z"/>
      <path d="M1962.221,1815.466c-2.959,2.956-10.285,3.106-11.724,3.106-1.391,0-2.519-1.128-2.519-2.516s1.124-2.522,2.516-2.522c3.093-.003,7.206-.674,8.164-1.632,1.234-1.234,1.984-3.773,2.412-6.592-1.812.924-4.007,1.451-6.569,1.451-7.377,0-11.961-4.124-11.961-10.76,0-5.205,3.143-10.763,11.961-10.763,8.598,0,11.773,5.281,11.927,10.369.014.08.054.149.061.229.097,1.476.797,14.561-4.268,19.628ZM1961.421,1795.998c0-3.8-2.332-5.725-6.923-5.725-4.657,0-6.923,1.875-6.923,5.725,0,3.797,2.329,5.723,6.923,5.723s6.923-1.922,6.923-5.723Z"/>
    </g>
    <g>
      <path d="M604.172,1357.916c2.347,2.731,2.284,5.327,2.229,7.416l-.017.959c0,3.899-1.232,7.365-3.381,9.518-1.841,1.837-4.373,3.183-6.948,3.698-1.984.396-12.722.924-15.968,1.072h-.152c-1.692,0-3.103-1.334-3.183-3.039-.08-1.756,1.275-3.246,3.035-3.331,6.517-.308,13.917-.747,15.019-.958,1.333-.271,2.748-1.018,3.689-1.958.701-.701,1.515-2.432,1.515-5.011l.017-1.119c.042-1.769.025-2.262-.684-3.089-.802-.925-1.465-1.103-3.04-1.17h-16.369c-1.751,0-3.174-1.409-3.187-3.161l-.127-16.087c-.004-.853.325-1.667.924-2.271.6-.604,1.414-.941,2.263-.941h21.865c1.76,0,3.187,1.427,3.187,3.187s-1.427,3.188-3.187,3.188h-18.652l.076,9.712h13.343c2.655.114,5.314.596,7.729,3.382l.004.004Z"/>
      <path d="M642.966,1346.489v26.087c0,4.436-3.909,8.041-8.716,8.041h-12.79c-4.888,0-8.716-3.533-8.716-8.041v-26.087c0-4.436,3.909-8.041,8.716-8.041h12.79c4.808,0,8.716,3.605,8.716,8.041ZM636.593,1346.489c0-.92-1.051-1.671-2.343-1.671h-12.79c-1.342,0-2.342.882-2.342,1.671v26.087c0,.92,1.051,1.671,2.342,1.671h12.79c1.342,0,2.343-.882,2.343-1.671v-26.087Z"/>
      <path d="M664.145,1353.354c9.202,0,15.386,5.47,15.386,13.612,0,8.021-6.327,13.617-15.386,13.617s-14.837-5.344-14.837-13.617c0-.194.046-.363.051-.553-.008-.089-.051-.16-.051-.249,0-4.382,3.913-13.305,7.695-19.408,2.533-4.095,4.217-5.774,5.699-7.256,1.245-1.245,3.322-1.305,4.567-.06s1.304,3.208.059,4.449l-.118.118c-1.359,1.354-2.638,2.638-4.787,6.104-.747,1.199-1.422,2.414-2.06,3.622,1.194-.229,2.439-.385,3.782-.385v.005ZM673.157,1366.962c0-6.534-6.302-7.239-9.012-7.239-3.862,0-8.463,1.258-8.463,7.239,0,4.673,3.005,7.243,8.463,7.243,5.559,0,9.012-2.773,9.012-7.243Z"/>
      <path d="M712.868,1338.535c1.76,0,3.187,1.427,3.187,3.187s-1.427,3.188-3.187,3.188h-8.716v32.522c0,1.761-1.427,3.188-3.187,3.188s-3.187-1.427-3.187-3.188v-32.522h-8.716c-1.76,0-3.187-1.427-3.187-3.188s1.427-3.187,3.187-3.187h23.807Z"/>
    </g>
    <g>
      <path d="M657.21,1867.821c1.174-.744,2.729-.407,3.48.768.75,1.174.407,2.729-.768,3.479l-1.935,1.234c-1.595.984-3.356,1.495-5.125,1.495h-6.172c-2.102,0-4.157-.697-5.785-1.969-2.292-1.752-3.673-4.558-3.673-7.49v-14.35c0-2.933,1.378-5.738,3.69-7.503,1.611-1.255,3.667-1.952,5.769-1.952h6.172c1.842,0,3.62.521,5.142,1.505l1.921,1.225c1.171.751,1.515,2.306.768,3.479-.751,1.168-2.306,1.515-3.48.768l-1.935-1.234c-.717-.467-1.548-.707-2.416-.707h-6.172c-.984,0-1.942.32-2.689.904-1.091.834-1.731,2.145-1.731,3.516v14.35c0,1.371.641,2.683,1.715,3.503.768.595,1.725.918,2.709.918h6.172c.834,0,1.678-.25,2.446-.728l1.905-1.214-.007.003Z"/>
      <path d="M688.033,1843.406c1.225,1.225,1.902,2.866,1.902,4.617v6.072c0,1.725-.694,3.406-1.902,4.617-1.231,1.229-2.873,1.905-4.618,1.905h-12.297v11.624c0,1.391-1.128,2.519-2.519,2.519s-2.519-1.128-2.519-2.519v-28.226c0-1.391,1.128-2.519,2.519-2.519h14.813c1.725,0,3.406.693,4.617,1.905l.003.003ZM684.897,1848.017c0-.417-.144-.771-.427-1.051-.271-.273-.664-.434-1.055-.434h-12.297v9.045h12.297c.414,0,.764-.146,1.051-.434.27-.268.43-.661.43-1.051v-6.076Z"/>
    </g>
    <g>
      <path d="M783.545,1854.873l.14,11.164c0,3.32-1.341,6.506-3.681,8.785-2.214,2.148-5.274,3.383-8.394,3.383h-8.501c-2.663,0-5.278-.893-7.357-2.523l-.761-.578c-2.985-2.257-4.704-5.736-4.704-9.534v-21.253c0-3.736,1.766-7.306,4.718-9.539l.785-.598c2.046-1.602,4.657-2.498,7.319-2.498h9.342c2.359,0,4.667.705,6.67,2.041l2.808,1.873c1.621,1.084,2.055,3.27.976,4.891-1.079,1.625-3.265,2.055-4.891.977l-2.803-1.874c-.84-.56-1.793-.854-2.76-.854h-9.342c-1.112,0-2.148.355-3.013,1.027l-.832.635c-1.214.912-1.929,2.379-1.929,3.92v21.253c0,1.569.696,2.994,1.915,3.915l.808.615c.893.701,1.934,1.057,3.046,1.057h8.501c1.303,0,2.569-.51,3.476-1.388.995-.967,1.546-2.274,1.546-3.681l-.098-7.637h-8.058c-1.948,0-3.526-1.579-3.526-3.527s1.579-3.526,3.526-3.526h11.538c1.929,0,3.503,1.551,3.527,3.479l.009-.004Z"/>
      <path d="M820.553,1831.682c1.948,0,3.526,1.578,3.526,3.525v34.193c0,4.908-4.325,8.897-9.646,8.897h-14.106c-5.316,0-9.646-3.989-9.646-8.897v-34.193c0-1.947,1.579-3.525,3.527-3.525s3.526,1.578,3.526,3.525v34.193c0,.984,1.215,1.85,2.597,1.85h14.106c1.49,0,2.597-.977,2.597-1.85v-34.193c0-1.947,1.579-3.525,3.527-3.525h-.009Z"/>
      <path d="M864.465,1835.207v39.518c0,1.556-1.019,2.924-2.504,3.377-.341.098-.682.15-1.023.15-1.158,0-2.265-.57-2.933-1.57l-19.885-29.824v27.867c0,1.947-1.579,3.527-3.527,3.527s-3.526-1.58-3.526-3.527v-39.518c0-1.555,1.018-2.924,2.503-3.377,1.476-.448,3.092.127,3.957,1.42l19.885,29.825v-27.868c0-1.947,1.579-3.525,3.526-3.525s3.527,1.578,3.527,3.525Z"/>
      <path d="M887.875,1848.079c10.183,0,17.026,6.054,17.026,15.063,0,8.875-7.001,15.069-17.026,15.069s-16.418-5.913-16.418-15.069c0-.215.051-.401.056-.611-.01-.098-.056-.178-.056-.275,0-4.85,4.33-14.724,8.515-21.479,2.803-4.53,4.667-6.389,6.306-8.029,1.378-1.377,3.676-1.443,5.054-.064,1.378,1.377,1.443,3.549.065,4.923l-.131.131c-1.504,1.499-2.919,2.919-5.297,6.755-.827,1.326-1.574,2.672-2.279,4.008,1.322-.253,2.7-.426,4.185-.426v.005ZM897.847,1863.139c0-7.23-6.974-8.012-9.973-8.012-4.274,0-9.365,1.393-9.365,8.012,0,5.17,3.326,8.016,9.365,8.016,6.152,0,9.973-3.069,9.973-8.016Z"/>
    </g>
    <path d="M1214.08,1749.273c0,1.391-1.128,2.52-2.52,2.52h-18.85c-1.391,0-2.519-1.129-2.519-2.52v-28.225c0-1.392,1.128-2.52,2.519-2.52s2.519,1.128,2.519,2.52v25.705h16.331c1.392,0,2.52,1.129,2.52,2.52Z"/>
    <polygon points="964.795 1040.308 1003.608 973.083 925.982 973.083 964.795 1040.308" fill="none" stroke="#000" stroke-linecap="square" stroke-miterlimit="15.1" stroke-width="6"/>
    <path id="n" data-name="LadderNegative" d="M963.393-2618.323l37.997-1.662h0l-37.997,1.662ZM1028.528-2621.164l37.992-1.662M1126.765-2669.669l-.125,44.788-32.977.88M1425.691-2619.73l-37.997-1.662h0l37.997,1.662ZM1322.564-2624.234l37.992,1.662M1262.32-2671.076l.125,44.788,32.977.88M966.327-2634.567s13.061-1.179,14.87-1.63c1.809-.451,3.673-1.527,4.976-2.95,1.304-1.423,2.179-3.977,2.043-7.074-.081-2.309.206-4.058-1.635-6.003-1.679-1.766-3.33-1.956-5.205-1.967l-15.869.69-.81-15.484,21.036-.907M933.882-2652.713l17.287-.761M1130.008-1198.176l.723-43.778-.723,43.778ZM968.158-1169.649l37.449-6.639-37.449,6.639ZM1032.352-1181.025l37.449-6.639-37.449,6.639ZM1096.547-1192.401l33.293-5.775-33.293,5.775ZM1257.234-1199.578l-.723-43.778.723,43.778ZM1381.636-1177.689l37.449,6.639-37.449-6.639ZM1317.441-1189.066l37.449,6.639-37.449-6.639ZM1257.403-1199.578l33.293,5.775-33.293-5.775ZM934.11-1198.421l17.037-3.01M991.036-1188.349l-22.688,4.004,14.424-19.037c4.553-5.987,5.053-13.099-1.679-16.445-1.722-.853-3.982-1.168-6.682-.69-3.276.576-7.747,1.793-10.067,6.753M996.914-1220.239l4.373,24.774c.451,2.543,3.173,4.189,6.085,3.678l12.148-2.146c2.912-.516,4.906-2.993,4.46-5.536l-4.373-24.774c-.451-2.543-3.173-4.189-6.085-3.678l-12.148,2.146c-2.912.516-4.906,2.993-4.46,5.536ZM1126.265-724.079l.435-45.011-.435,45.011ZM966.007-688.939l37.144-8.16-37.144,8.16ZM1029.685-702.929l37.144-8.16-37.144,8.16ZM1093.358-716.924l32.738-7.655-32.738,7.655ZM1251.823-725.481l-.435-45.011.435,45.011ZM1374.937-698.507l37.144,8.16-37.144-8.16ZM1311.259-712.502l37.144,8.16-37.144-8.16ZM1251.986-725.986l32.738,7.655-32.738-7.655ZM931.829-716.229l16.891-3.749M989.422-708.775l-22.492,4.987,13.582-19.651c4.287-6.177,4.477-13.305-2.396-16.358-1.755-.777-4.031-.994-6.704-.397-3.249.723-7.66,2.13-9.763,7.182M1000.592-711.095s12.702-3.444,14.408-4.205c1.706-.761,3.363-2.146,4.401-3.781,1.038-1.635,1.461-4.308.788-7.345-.484-2.265-.505-4.047-2.662-5.645-1.967-1.456-3.635-1.353-5.487-1.038l-15.565,3.45-3.499-15.158,20.629-4.564M1127.813-294.086l-1.478,43.99,1.478-43.99ZM966.751-207.605l36.737-9.839-36.737,9.839ZM1029.728-224.469l36.737-9.839-36.737,9.839ZM1092.706-241.332l33.629-9.1-33.629,9.1ZM1248.547-251.497l-1.478-43.99,1.478,43.99ZM1371.395-218.846l36.737,9.839-36.737-9.839ZM1308.417-235.71l36.737,9.839-36.737-9.839ZM1248.547-251.834l33.629,9.1-33.629-9.1ZM932.062-232.895l16.711-4.482M966.8-224.73l1.592.288c2.059.418,8.557-.027,10.583-.57l2.477-.663c1.804-.483,3.406-1.543,4.558-3.01h0c1.679-2.14,2.255-4.944,1.548-7.573l-.75-2.798c-.473-1.771-1.635-3.281-3.222-4.2l-.587-.337c-1.423-.82-3.118-1.043-4.705-.619l-5.862,1.57,8.415-18.657-18.081,4.846M993.106-260.016l6.514,24.301c.668,2.494,3.526,3.895,6.384,3.135l11.914-3.195c2.858-.766,4.629-3.406,3.961-5.905l-6.514-24.301c-.668-2.494-3.526-3.895-6.384-3.135l-11.914,3.195c-2.858.766-4.629,3.406-3.961,5.905ZM1127.802,179.833l-.766,45.223.766-45.223ZM969.973,274.728l36.253-11.49-36.253,11.49ZM1032.119,255.029l36.253-11.49-36.253,11.49ZM1094.265,235.329l32.434-10.605-32.434,10.605ZM1248.151,178.431l.766,45.223-.766-45.223ZM1369.721,261.836l36.253,11.49-36.253-11.49ZM1307.581,242.131l36.253,11.49-36.253-11.49ZM1249.248,223.317l32.434,10.605-32.434-10.605ZM933.98,250.737l16.5-5.205M969.006,257.365l1.603.223c2.075.331,8.546-.402,10.551-1.032l2.445-.772c1.782-.56,3.336-1.689,4.422-3.206h0c1.586-2.211,2.037-5.036,1.217-7.633l-.869-2.76c-.554-1.749-1.777-3.211-3.406-4.058l-.598-.31c-1.461-.761-3.162-.907-4.727-.413l-5.791,1.825,7.595-19.004-17.852,5.628M1003.021,249.661s12.354-4.537,13.99-5.444,3.162-2.429,4.058-4.151,1.081-4.417.147-7.383c-.679-2.217-.853-3.988-3.146-5.389-2.086-1.277-3.738-1.032-5.558-.554l-15.201,4.792-4.808-14.799,20.156-6.34M1125.162,685.555l.641-43.827-.641,43.827ZM970.271,741.741l35.732-13.017-35.732,13.017ZM1031.527,719.428l35.732-13.017-35.732,13.017ZM1092.787,697.116l32.374-11.898-32.374,11.898ZM1245.7,684.148l-.641-43.827.641,43.827ZM1364.859,727.322l35.732,13.017-35.732-13.017ZM1303.604,705.01l35.732,13.017-35.732-13.017ZM1245.7,683.816l32.374,11.898-32.374-11.898ZM934.224,717.837l16.26-5.922M988.433,718.885l-11.822-32.472h0l-3.091,1.124-8.627,23.062,20.297-7.389M990.878,685.875l8.606,23.638c.886,2.429,3.852,3.575,6.628,2.564l11.588-4.221c2.776-1.01,4.314-3.797,3.428-6.226l-8.606-23.638c-.886-2.429-3.852-3.575-6.628-2.564l-11.588,4.221c-2.776,1.01-4.314,3.797-3.428,6.226ZM1124.358,1112.826l-.473,44.354.473-44.354ZM971.287,1219.739l35.178-14.451-35.178,14.451ZM1031.592,1194.966l35.178-14.451-35.178,14.451ZM1091.896,1170.197l31.989-13.354-31.989,13.354ZM1243.614,1111.425l.473,44.354-.473-44.354ZM1361.507,1203.887l35.178,14.451-35.178-14.451ZM1301.202,1179.112l35.178,14.451-35.178-14.451ZM1244.087,1155.442l31.989,13.354-31.989-13.354ZM934.181,1199.095l15.983-6.623M988.678,1197.682l-13.229-31.923h0l-3.037,1.26-7.617,23.416,19.955-8.269M1001.353,1192.532s11.909-5.596,13.457-6.644c1.548-1.049,2.939-2.695,3.678-4.487.739-1.793.69-4.493-.5-7.372-.869-2.146-1.201-3.895-3.602-5.096-2.189-1.092-3.814-.701-5.585-.071l-14.728,6.101-6.079-14.321,19.526-8.073M1125.33,1639.106l.473-46.087-.473,46.087ZM975.742,1708.446l34.499-16.005-34.499,16.005ZM1034.879,1681.01l34.499-16.005-34.499,16.005ZM1125.33,1638.77l-31.31,14.799,31.31-14.799ZM1245.059,1591.612l.473,46.087-.473-46.087ZM1360.627,1691.034l34.499,16.005-34.499-16.005ZM1301.485,1663.598l34.499,16.005-34.499-16.005ZM1276.842,1652.167l-31.31-14.799,31.31,14.799ZM937.261,1688.23l15.983-6.628M973.873,1694.261s11.909-5.596,13.457-6.644,2.939-2.695,3.678-4.487c.739-1.793.69-4.493-.5-7.372-.869-2.146-1.201-3.895-3.602-5.096-2.189-1.092-3.814-.701-5.585-.071l-14.728,6.101-6.079-14.321,19.526-8.073M993.643,1653.579l9.632,23.242c.989,2.385,4.004,3.406,6.737,2.271l11.393-4.721c2.733-1.13,4.145-3.982,3.156-6.373l-9.632-23.242c-.989-2.385-4.004-3.406-6.737-2.271l-11.393,4.721c-2.733,1.13-4.145,3.982-3.156,6.373ZM1126.498,2112.873l.934-45.565-.934,45.565ZM980.137,2188.389l33.749-17.526-33.749,17.526ZM1037.997,2158.34l33.749-17.526-33.749,17.526ZM1095.852,2128.296l30.647-15.755-30.647,15.755ZM1248.71,2111.465l-.934-45.565.934,45.565ZM1361.322,2169.456l33.749,17.526-33.749-17.526ZM1337.211,2156.933l-33.749-17.526,33.749,17.526ZM1279.357,2126.889l-30.647-15.755,30.647,15.755ZM941.168,2169.982l15.679-7.318M978.149,2174.535s11.653-6.112,13.158-7.22c1.505-1.108,2.814-2.825,3.477-4.645s.494-4.52-.82-7.34c-.962-2.108-1.369-3.841-3.825-4.933-2.233-.994-3.841-.533-5.585.174l-14.446,6.737-6.699-14.044,19.151-8.921M1008.899,2160.1s11.653-6.112,13.158-7.22,2.814-2.825,3.477-4.645.494-4.52-.82-7.34c-.962-2.108-1.369-3.841-3.825-4.933-2.233-.994-3.841-.533-5.585.174l-14.446,6.737-6.699-14.044,19.151-8.921M1129.41,2589.214l.723-45.549-.723,45.549ZM986.57,2671.532l32.912-19.059-32.912,19.059ZM1042.985,2638.859l32.912-19.059-32.912,19.059ZM1099.399,2606.192l30.179-17.478-30.179,17.478ZM1252.29,2587.812l-.723-45.549.723,45.549ZM1362.224,2651.072l32.912,19.059-32.912-19.059ZM1305.809,2618.399l32.912,19.059-32.912-19.059ZM1252.127,2587.307l30.179,17.478-30.179-17.478ZM960.079,2647.611l-15.348,7.991M991.769,2653.376c6.813-3.547,8.372-9.448,5.802-14.386-3.325-6.384-9.85-6.237-15.114-3.493-5.264,2.744-8.644,7.747-5.319,14.137,2.57,4.939,7.818,7.291,14.631,3.743h0ZM976.601,2622.31c-.619,1.929-1.239,3.836-1.565,8.214-.538,7.177.277,15.582,1.733,18.39M998.348,2615.96l11.621,22.313c1.195,2.293,4.287,3.043,6.911,1.679l10.936-5.693c2.624-1.364,3.781-4.33,2.586-6.623l-11.621-22.313c-1.195-2.293-4.287-3.043-6.911-1.679l-10.936,5.693c-2.624,1.364-3.781,4.33-2.586,6.623ZM1127.965,3017.952l-1.059,46.532,1.059-46.532ZM987.401,3152.209l32.108-20.378-32.108,20.378ZM1042.441,3117.276l32.108-20.378-32.108,20.378ZM1126.737,3064.153l-29.25,18.189,29.25-18.189ZM1250.454,3063.083l-1.059-46.532,1.059,46.532ZM1389.959,3150.807l-32.108-20.378,32.108,20.378ZM1302.811,3095.495l32.108,20.378-32.108-20.378ZM1250.623,3062.746l29.25,18.189-29.25-18.189ZM944.623,3137.285l14.984-8.655M1011.469,3121.366s11.078-7.101,12.479-8.34c1.402-1.239,2.559-3.059,3.059-4.927.5-1.869.098-4.547-1.456-7.242-1.141-2.015-1.701-3.705-4.238-4.58-2.309-.798-3.874-.196-5.547.657l-13.805,7.97-7.899-13.403,18.303-10.556M991.497,3133.047c6.65-3.841,7.954-9.807,5.172-14.625-3.602-6.237-10.11-5.802-15.25-2.83-5.139,2.972-8.301,8.117-4.699,14.353,2.782,4.819,8.133,6.943,14.783,3.102h-.005ZM974.987,3102.678c-.532,1.956-1.07,3.884-1.206,8.274-.228,7.198.956,15.554,2.537,18.292M1126.906,3545.107l.516-46.348-.516,46.348ZM991.052,3639.313l31.163-21.802-31.163,21.802ZM1044.473,3601.94l31.163-21.802-31.163,21.802h0ZM1097.889,3564.567l29.017-19.96-29.017,19.96ZM1250.454,3543.7l-.516-46.348.516,46.348ZM1355.145,3616.109l31.163,21.802-31.163-21.802ZM1301.729,3578.736l31.163,21.802-31.163-21.802ZM1250.454,3543.2l29.017,19.96-29.017-19.96ZM950.175,3624.264l14.593-9.301M987.184,3623.568l1.032-41.246-16.999,10.833M999.902,3580.013l13.517,21.221c1.391,2.179,4.536,2.657,7.03,1.07l10.404-6.628c2.494-1.586,3.39-4.645,1.999-6.824l-13.517-21.221c-1.391-2.179-4.536-2.657-7.03-1.07l-10.404,6.628c-2.494,1.586-3.39,4.645-1.999,6.824ZM1124.233,4012.353l.473-45.826-.473,45.826ZM992.551,4112.839l30.212-23.1-30.212,23.1ZM1044.337,4073.24l30.212-23.106-30.212,23.106ZM1096.123,4033.634l27.604-21.112-27.604,21.112ZM1248.781,4010.952l-.473-45.826.473,45.826ZM1350.256,4088.337l30.212,23.1-30.212-23.1ZM1328.676,4071.838l-30.212-23.106,30.212,23.106ZM1249.286,4011.115l27.604,21.112-27.604-21.112ZM952.93,4100.507l14.169-9.926M1018.265,4078.808s10.415-8.041,11.702-9.399c1.288-1.358,2.282-3.271,2.619-5.178.337-1.907-.299-4.536-2.086-7.084-1.315-1.907-2.016-3.547-4.623-4.194-2.374-.592-3.874.141-5.465,1.141l-13.061,9.143-9.035-12.664,17.314-12.11M989.917,4098.366l-.766-41.252-16.51,11.567M1130.079,4489.966l.598-44.804-.598,44.804ZM1002.901,4597.607l29.098-24.486-29.098,24.486ZM1052.785,4555.633l29.098-24.486-29.098,24.486ZM1102.67,4513.659l27.577-23.692-27.577,23.692ZM1255.968,4488.559l-.598-44.804.598,44.804ZM1354.053,4571.714l29.098,24.486-29.098-24.486ZM1304.169,4529.745l29.098,24.486-29.098-24.486ZM1283.383,4512.252l-27.577-23.692,27.577,23.692ZM959.672,4588.225l13.723-10.534M978.736,4561.006l3.645,4.754c.799,1.043,2.043,1.679,3.45,1.771l2.162.141-.424,2.124c-.277,1.385.016,2.749.82,3.792l5.4,7.036c.793,1.032,2.026,1.668,3.423,1.755h0c1.396.092,2.847-.369,4.026-1.277l9.361-7.188c1.184-.907,1.999-2.189,2.276-3.559h0c.277-1.375-.016-2.727-.81-3.76l-5.4-7.036c-.799-1.043-2.043-1.679-3.45-1.771l-2.162-.141.424-2.124c.277-1.385-.016-2.749-.82-3.792l-3.645-4.754c-.793-1.032-2.026-1.668-3.423-1.755h0c-1.396-.092-2.847.369-4.026,1.277l-9.361,7.188c-1.184.907-1.999,2.189-2.276,3.559h0c-.277,1.375.016,2.727.81,3.76ZM987.993,4567.666l13.055-10.018M1005.71,4539.584l15.321,19.955c1.575,2.048,4.748,2.249,7.095.451l9.785-7.508c2.347-1.799,2.972-4.922,1.396-6.97l-15.321-19.955c-1.575-2.048-4.748-2.249-7.095-.451l-9.785,7.508c-2.347,1.799-2.972,4.922-1.396,6.97ZM1131.92,4962.395l.391-44.576-.391,44.576ZM1009.181,5075.562l28.05-25.687-28.05,25.687ZM1057.268,5031.54l28.05-25.687-28.05,25.687ZM1105.348,4987.512l26.903-25.116-26.903,25.116ZM1258.478,4960.988l-.391-44.576.391,44.576ZM1353.168,5048.474l28.05,25.687-28.05-25.687ZM1305.087,5004.451l28.05,25.687-28.05-25.687ZM1258.142,4960.988l26.903,25.116-26.903-25.116ZM977.111,5057.514l-13.251,11.126M1027.104,5041.422s9.676-8.921,10.839-10.382c1.163-1.462,1.988-3.455,2.157-5.384s-.695-4.493-2.695-6.878c-1.472-1.787-2.314-3.358-4.971-3.776-2.412-.38-3.846.478-5.346,1.614l-12.213,10.246-10.105-11.833,16.19-13.572M981.572,5040.813l3.852,4.585c.848,1.005,2.113,1.586,3.526,1.619l2.168.044-.331,2.141c-.217,1.396.136,2.744.983,3.754l5.705,6.791c.837.999,2.097,1.576,3.493,1.603h0c1.402.027,2.825-.494,3.971-1.45l9.04-7.59c1.141-.956,1.902-2.271,2.119-3.656h0c.212-1.385-.136-2.722-.972-3.722l-5.705-6.791c-.848-1.005-2.113-1.586-3.526-1.619l-2.168-.044.331-2.141c.217-1.396-.136-2.744-.983-3.754l-3.852-4.585c-.837-.999-2.097-1.576-3.493-1.603h0c-1.402-.027-2.825.494-3.971,1.45l-9.04,7.59c-1.141.956-1.902,2.271-2.119,3.656h0c-.212,1.385.136,2.722.972,3.722ZM991.112,5047.066l12.604-10.578M1121.093,5438.53c0,41.708,33.325,75.517,74.43,75.517s74.43-33.809,74.43-75.517-33.325-75.517-74.43-75.517-74.43,33.809-74.43,75.517ZM1189.546,5362.47h11.409v-16.299h-11.409v16.299ZM1147.17,5382.572h96.161-96.161ZM1129.785,5411.909h131.475-131.475ZM1124.352,5439.073h142.341-142.341ZM1129.785,5465.695h131.475-131.475ZM1142.824,5488.512h106.484-106.484Z" fill="none" stroke="#000" stroke-miterlimit="10" stroke-width="6"/>
    <line x1="1107.75" y1="552.96" x2="342.359" y2="552.96" fill="none" stroke="#000" stroke-dasharray="160 160" stroke-linecap="square" stroke-miterlimit="15.1" stroke-width="6"/>
    <line x1="1286.931" y1="552.96" x2="2046.88" y2="552.96" fill="none" stroke="#000" stroke-dasharray="160 160" stroke-linecap="square" stroke-miterlimit="15.1" stroke-width="6"/>
    <line x1="1163.478" y1="552.96" x2="1163.478" y2="576.139" fill="none" stroke="#000" stroke-miterlimit="10" stroke-width="6"/>
    <path id="o" data-name="ManualReticle" d="M1037.29,885.271h105.87M1249.029,885.271h105.87M1196.094,832.336v-105.87M1196.094,938.205v105.87M1195.671,882.889c-1.482,0-2.647,1.165-2.647,2.647s1.165,2.647,2.647,2.647,2.647-1.165,2.647-2.647-1.165-2.647-2.647-2.647Z" fill="none" stroke="#000" stroke-linecap="round" stroke-miterlimit="10" stroke-width="7"/>
    <line x1="1194.978" y1="585.526" x2="1194.978" y2="532.815" fill="none" stroke="#000" stroke-miterlimit="10" stroke-width="6"/>
    <line x1="1221.334" y1="559.17" x2="1168.623" y2="559.17" fill="none" stroke="#000" stroke-miterlimit="10" stroke-width="6"/>
    <rect x="1161.903" y="851.768" width="67.535" height="67.535" transform="translate(-275.964 1104.834) rotate(-45)" fill="none" stroke="#000" stroke-miterlimit="10" stroke-width="6"/>
    <g>
      <path d="M1709.514,1530.946c1.675,1.559,2.723,3.78,2.723,6.242v3.337c0,4.681-3.811,8.49-8.491,8.49h-12.845c-1.392,0-2.52-1.127-2.52-2.519v-28.226c0-1.391,1.128-2.519,2.52-2.519h12.578c2.562,0,4.924,1.274,6.315,3.413.804,1.181,1.241,2.639,1.241,4.177v3.17c0,1.838-.611,3.31-1.525,4.434h.004ZM1693.424,1520.798v7.873h10.519c.581-.11,2.059-.547,2.059-2.155v-3.169c0-.534-.137-.998-.4-1.389-.493-.757-1.258-1.167-2.121-1.167h-10.06l.004.007ZM1707.199,1537.192c0-1.789-1.354-3.267-3.09-3.467-.133.014-.267.014-.396.014h-10.293v10.242h10.326c1.905,0,3.453-1.552,3.453-3.453v-3.336Z"/>
      <path d="M1741.084,1528.32c0,1.726-.693,3.407-1.901,4.618-1.107,1.104-2.549,1.731-4.101,1.854l5.695,10.473c.664,1.222.21,2.749-1.011,3.413-.381.21-.794.308-1.198.308-.894,0-1.758-.478-2.215-1.318l-6.977-12.828h-7.106v11.624c0,1.391-1.128,2.519-2.519,2.519s-2.52-1.128-2.52-2.519v-28.226c0-1.391,1.128-2.519,2.52-2.519h14.81c1.722,0,3.403.693,4.614,1.901,1.234,1.234,1.908,2.876,1.908,4.621v6.078ZM1736.046,1522.238c0-.417-.146-.771-.43-1.058-.268-.264-.664-.427-1.055-.427h-12.294v9.045h12.294c.414,0,.768-.146,1.055-.434.27-.268.43-.661.43-1.051v-6.076Z"/>
      <path d="M1769.837,1532.284l.1,7.974c0,2.372-.957,4.647-2.629,6.275-1.581,1.535-3.767,2.416-5.995,2.416h-6.072c-1.901,0-3.771-.638-5.255-1.802l-.544-.414c-2.132-1.611-3.359-4.097-3.359-6.809v-15.181c0-2.669,1.261-5.218,3.369-6.812l.561-.427c1.462-1.145,3.327-1.785,5.229-1.785h6.673c1.685,0,3.333.504,4.764,1.458l2.005,1.338c1.158.773,1.469,2.335.698,3.493-.771,1.161-2.333,1.468-3.493.697l-2.002-1.338c-.601-.4-1.281-.61-1.972-.61h-6.673c-.794,0-1.535.253-2.152.733l-.594.454c-.867.65-1.378,1.698-1.378,2.799v15.181c0,1.121.497,2.139,1.368,2.796l.577.44c.638.5,1.381.754,2.175.754h6.072c.931,0,1.835-.364,2.482-.991.711-.69,1.104-1.625,1.104-2.629l-.07-5.455h-5.755c-1.392,0-2.519-1.128-2.519-2.519s1.127-2.52,2.519-2.52h8.24c1.378,0,2.503,1.108,2.52,2.486l.007-.004Z"/>
    </g>
    <g>
      <path d="M1712.234,1570.217c0,1.725-.693,3.406-1.901,4.617-1.107,1.104-2.549,1.731-4.101,1.855l5.695,10.473c.664,1.221.211,2.749-1.011,3.413-.38.21-.794.307-1.198.307-.894,0-1.758-.477-2.215-1.317l-6.977-12.828h-7.105v11.623c0,1.392-1.129,2.52-2.52,2.52s-2.52-1.128-2.52-2.52v-28.225c0-1.392,1.129-2.52,2.52-2.52h14.811c1.721,0,3.402.694,4.613,1.902,1.234,1.234,1.908,2.876,1.908,4.62v6.079ZM1707.197,1564.135c0-.417-.146-.771-.431-1.058-.267-.264-.664-.427-1.054-.427h-12.295v9.044h12.295c.413,0,.767-.146,1.054-.434.271-.267.431-.66.431-1.051v-6.075Z"/>
      <path d="M1741.087,1560.135v28.225c0,1.111-.728,2.089-1.788,2.412-.244.07-.487.107-.73.107-.828,0-1.619-.407-2.096-1.121l-14.203-21.303v19.904c0,1.392-1.127,2.52-2.519,2.52s-2.519-1.128-2.519-2.52v-28.225c0-1.111.727-2.089,1.788-2.412,1.054-.32,2.208.09,2.825,1.014l14.203,21.303v-19.904c0-1.392,1.128-2.52,2.52-2.52s2.519,1.128,2.519,2.52Z"/>
      <path d="M1769.837,1574.181l.101,7.974c0,2.372-.958,4.647-2.63,6.275-1.581,1.535-3.767,2.415-5.995,2.415h-6.072c-1.901,0-3.77-.637-5.254-1.801l-.545-.414c-2.131-1.611-3.359-4.097-3.359-6.81v-15.18c0-2.67,1.262-5.219,3.369-6.813l.561-.427c1.462-1.145,3.327-1.785,5.229-1.785h6.673c1.685,0,3.333.504,4.765,1.458l2.004,1.338c1.158.774,1.469,2.336.698,3.493-.771,1.161-2.333,1.468-3.493.697l-2.002-1.338c-.601-.4-1.281-.61-1.972-.61h-6.673c-.794,0-1.535.254-2.152.734l-.594.453c-.867.65-1.377,1.698-1.377,2.8v15.18c0,1.121.496,2.139,1.367,2.796l.577.44c.638.501,1.382.754,2.175.754h6.072c.932,0,1.836-.363,2.482-.991.711-.69,1.104-1.624,1.104-2.629l-.069-5.454h-5.756c-1.391,0-2.519-1.128-2.519-2.52s1.128-2.519,2.519-2.519h8.24c1.379,0,2.503,1.107,2.52,2.485l.007-.003Z"/>
    </g>
    <g>
      <path d="M1709.997,1610.972c.983,1.194,1.534,2.712,1.534,4.264v18.517c0,1.391-1.128,2.519-2.519,2.519s-2.52-1.128-2.52-2.519v-11.594h-13.846v11.594c0,1.391-1.127,2.519-2.519,2.519s-2.519-1.128-2.519-2.519v-18.517c0-1.521.523-2.982,1.511-4.234l4.23-5.168c3.013-3.606,9.455-3.586,12.428-.017l4.221,5.155h-.003ZM1692.654,1617.117h13.85v-1.886c0-.387-.137-.754-.391-1.061l-4.214-5.147c-1.011-1.212-3.616-1.231-4.657.02l-4.188,5.121c-.356.444-.4.827-.4,1.071v1.882Z"/>
      <path d="M1740.395,1633.752c0,1.391-1.128,2.519-2.519,2.519h-18.851c-1.391,0-2.519-1.128-2.519-2.519v-28.226c0-1.391,1.128-2.519,2.519-2.519s2.52,1.128,2.52,2.519v25.706h16.331c1.391,0,2.519,1.128,2.519,2.52Z"/>
      <path d="M1766.744,1603.008c1.392,0,2.52,1.128,2.52,2.519s-1.128,2.52-2.52,2.52h-6.889v25.706c0,1.391-1.128,2.519-2.52,2.519s-2.519-1.128-2.519-2.519v-25.706h-6.89c-1.392,0-2.519-1.128-2.519-2.52s1.127-2.519,2.519-2.519h18.816Z"/>
    </g>
    <g>
      <path d="M1946.753,1532.662c1.094.276,1.901,1.264,1.901,2.441s-.808,2.166-1.901,2.442v10.536c0,1.391-1.128,2.519-2.52,2.519s-2.519-1.128-2.519-2.519v-10.463h-13.262c-.984,0-1.879-.566-2.289-1.461-.413-.895-.267-1.945.37-2.693l13.079-15.312c.477-.561,1.178-.885,1.915-.885h2.702c1.392,0,2.519,1.128,2.519,2.52v12.867l.004.008ZM1941.712,1523.449l-7.798,9.133h7.798v-9.133Z"/>
      <path d="M1958.669,1549.912v.07c0,1.391-1.128,2.519-2.52,2.519s-2.519-1.128-2.519-2.519,1.128-2.557,2.519-2.557,2.52,1.095,2.52,2.486Z"/>
      <path d="M1971.053,1545.596c1.317.084,2.368,1.152,2.368,2.49,0,1.391-1.127,2.518-2.519,2.518h-4.704c-1.392,0-2.52-1.127-2.52-2.518,0-1.328,1.034-2.383,2.336-2.482v-22.588c-.41-.189-.784-.467-1.051-.873-.765-1.162-.444-2.727.717-3.49l1.468-.968c.063-.044.141-.046.207-.083.147-.08.297-.137.461-.188.17-.053.33-.09.504-.104.073-.006.137-.043.213-.043.084,0,.153.04.237.047.173.017.34.05.507.104.153.05.294.106.431.18.14.074.267.16.394.264.137.11.25.23.36.363.054.067.127.104.174.178.043.062.046.14.083.207.08.146.137.3.187.463.051.167.087.327.101.498.007.076.043.14.043.217v25.806l.004.003Z"/>
    </g>
    <g>
      <path d="M1946.255,1587.492c1.317.084,2.368,1.151,2.368,2.489,0,1.392-1.127,2.519-2.519,2.519h-4.704c-1.392,0-2.52-1.127-2.52-2.519,0-1.328,1.034-2.382,2.336-2.482v-22.587c-.41-.189-.784-.467-1.051-.874-.765-1.161-.444-2.726.717-3.489l1.468-.968c.063-.044.141-.047.207-.084.147-.08.297-.137.461-.187.17-.053.33-.09.504-.104.073-.007.137-.043.213-.043.084,0,.153.04.237.047.173.017.34.05.507.104.153.05.294.106.431.18.14.073.267.16.394.264.137.11.25.23.36.363.054.067.127.104.174.177.043.063.046.141.083.207.08.147.137.301.187.464.051.167.087.327.101.497.007.077.043.141.043.217v25.807l.004.003Z"/>
      <path d="M1958.669,1591.808v.07c0,1.392-1.128,2.52-2.519,2.52s-2.52-1.128-2.52-2.52,1.128-2.556,2.52-2.556,2.519,1.095,2.519,2.485Z"/>
      <path d="M1971.053,1587.492c1.318.084,2.369,1.151,2.369,2.489,0,1.392-1.128,2.519-2.52,2.519h-4.704c-1.391,0-2.519-1.127-2.519-2.519,0-1.328,1.034-2.382,2.335-2.482v-22.587c-.41-.189-.783-.467-1.051-.874-.764-1.161-.443-2.726.718-3.489l1.468-.968c.063-.044.14-.047.207-.084.146-.08.297-.137.46-.187.17-.053.33-.09.504-.104.073-.007.137-.043.214-.043.083,0,.153.04.236.047.174.017.341.05.508.104.153.05.293.106.43.18.141.073.268.16.394.264.138.11.251.23.36.363.054.067.127.104.174.177.043.063.047.141.083.207.08.147.138.301.188.464.05.167.087.327.1.497.007.077.044.141.044.217v25.807l.003.003Z"/>
    </g>
    <g>
      <path d="M1931.742,1620.18c1.548,1.548,2.402,3.604,2.402,5.782v2.369c0,3.029-1.441,5.905-3.854,7.696-1.632,1.234-3.623,1.896-5.738,1.896h-2.103c-1.911,0-7.593-1.062-9.603-2.069l-1.146-.54c-1.258-.594-1.795-2.095-1.201-3.353.594-1.262,2.092-1.792,3.353-1.201l1.201.566c1.114.558,5.922,1.562,7.399,1.562h2.103c1.007,0,1.944-.31,2.716-.891,1.171-.874,1.835-2.205,1.835-3.666v-2.369c0-.834-.331-1.621-.931-2.222l-.404-.404c-.48-.483-1.145-.761-1.818-.761h-4.971c-.971,0-1.858-.561-2.275-1.441s-.291-1.918.326-2.672l7.247-8.868h-10.002c-1.392,0-2.519-1.128-2.519-2.519s1.127-2.52,2.519-2.52h15.313c.971,0,1.858.561,2.275,1.441.417.878.29,1.919-.327,2.673l-7.253,8.874c1.885.084,3.71.888,5.051,2.229l.404.404v.003Z"/>
      <path d="M1944.194,1637.2v.07c0,1.391-1.128,2.519-2.519,2.519s-2.52-1.128-2.52-2.519,1.128-2.556,2.52-2.556,2.519,1.094,2.519,2.485Z"/>
      <path d="M1970.982,1619.943c1.854,2.158,1.805,4.21,1.762,5.861l-.014.758c0,3.083-.975,5.821-2.673,7.523-1.454,1.451-3.456,2.516-5.491,2.923-1.568.313-10.057.73-12.621.847h-.121c-1.338,0-2.451-1.054-2.516-2.401-.062-1.389,1.008-2.566,2.399-2.633,5.151-.243,11-.591,11.87-.758,1.055-.213,2.172-.804,2.916-1.548.555-.554,1.198-1.922,1.198-3.96l.013-.884c.033-1.398.021-1.789-.54-2.442-.634-.73-1.157-.871-2.401-.924h-12.939c-1.384,0-2.508-1.115-2.519-2.499l-.101-12.715c-.002-.674.258-1.318.731-1.795.474-.478,1.118-.744,1.788-.744h17.282c1.392,0,2.519,1.128,2.519,2.519s-1.127,2.52-2.519,2.52h-14.743l.061,7.677h10.545c2.1.09,4.201.471,6.109,2.672l.004.004Z"/>
    </g>
    <polygon id="p" data-name="SurfaceTarget" points="1436.511 745.655 1396.037 775.064 1411.499 822.631 1461.524 822.631 1476.985 775.064 1436.511 745.655" fill="none" stroke="#000" stroke-linecap="square" stroke-miterlimit="15.1" stroke-width="6"/>
    <g id="q" data-name="SurfaceTargetWhisker">
      <line id="r" data-name="line120" x1="1436.511" y1="745.655" x2="1436.511" y2="722.013" fill="none" stroke="#000" stroke-linecap="square" stroke-miterlimit="15.1" stroke-width="6"/>
      <line id="s" data-name="line121" x1="1476.465" y1="774.828" x2="1498.972" y2="767.546" fill="none" stroke="#000" stroke-linecap="square" stroke-miterlimit="15.1" stroke-width="6"/>
      <line id="t" data-name="line122" x1="1460.153" y1="822.111" x2="1474.054" y2="841.26" fill="none" stroke="#000" stroke-linecap="square" stroke-miterlimit="15.1" stroke-width="6"/>
      <line id="u" data-name="line123" x1="1412.87" y1="822.111" x2="1398.969" y2="841.26" fill="none" stroke="#000" stroke-linecap="square" stroke-miterlimit="15.1" stroke-width="6"/>
      <line id="v" data-name="line124" x1="1396.557" y1="774.828" x2="1374.098" y2="767.546" fill="none" stroke="#000" stroke-linecap="square" stroke-miterlimit="15.1" stroke-width="6"/>
    </g>
  </g>
  <g id="w" data-name="HUD_AG_GUN_Arrows_-_Light">
    <path d="M1251.258,1874.853l16.871-10.315,204.642,345.177c-33.856,24.745-43.672,71.878-21.415,108.28,23.446,38.347,73.718,50.471,112.066,27.025,38.347-23.445,50.47-73.718,27.024-112.066-22.257-36.403-68.683-49.149-106.139-30.293l-204.642-345.177,16.871-10.315-81.526-82.474,36.249,110.157ZM1484.722,2216.3c32.682-19.982,75.374-9.686,95.356,22.995,19.982,32.682,9.686,75.374-22.995,95.356-32.682,19.982-75.374,9.686-95.356-22.995-19.982-32.682-9.686-75.374,22.995-95.356Z" stroke="#fff" stroke-miterlimit="10" stroke-width="4"/>
    <path d="M1066.235,759.473l-3.162,19.52-893.576-143.479c3.277-41.807-26.093-79.955-68.211-86.778-44.369-7.188-86.313,23.06-93.501,67.429-7.188,44.368,23.061,86.312,67.429,93.5,42.119,6.824,82.03-20.1,92.12-60.803l893.576,143.479-3.162,19.52,115.681-8.14-107.194-44.247ZM156.717,640.292c-6.126,37.813-41.746,63.501-79.559,57.375s-63.501-41.746-57.375-79.559c6.126-37.813,41.746-63.501,79.559-57.375s63.501,41.746,57.375,79.559Z" stroke="#fff" stroke-miterlimit="10" stroke-width="4"/>
    <path d="M1410.508,746.387l-24.989-113.243-17.822,8.566-224.529-455.9c6.463-2.931,12.65-6.742,18.368-11.487,34.588-28.704,39.376-80.195,10.673-114.783-28.704-34.588-80.195-39.376-114.783-10.672-34.588,28.703-39.375,80.195-10.671,114.783,20.903,25.188,53.887,34.552,83.632,26.707l225.124,457.209-17.822,8.566,72.82,90.253ZM1056.107,155.889c-24.463-29.478-20.397-73.205,9.081-97.668,29.478-24.463,73.205-20.397,97.668,9.081,24.463,29.478,20.397,73.205-9.081,97.668-29.478,24.463-73.205,20.397-97.668-9.081Z" stroke="#fff" stroke-miterlimit="10" stroke-width="4"/>
    <path d="M1696.772,459.329l-17.822-8.566,128.883-260.405c29.744,7.845,62.729-1.518,83.632-26.707,28.704-34.588,23.916-86.08-10.671-114.783-34.588-28.704-86.08-23.916-114.783,10.672-28.703,34.588-23.916,86.079,10.673,114.783,5.718,4.745,11.905,8.556,18.368,11.487l-128.287,259.095-17.822-8.566-24.989,113.243,72.82-90.253ZM1784.444,164.97c-29.478-24.463-33.543-68.19-9.081-97.668,24.463-29.478,68.19-33.543,97.668-9.081,29.478,24.463,33.543,68.19,9.081,97.668-24.463,29.478-68.19,33.543-97.668,9.081Z" stroke="#fff" stroke-miterlimit="10" stroke-width="4"/>
    <path d="M432.702,1820.833l-111.628,31.427,9.572,17.303-169.785,93.485c-3.296-6.285-7.454-12.243-12.519-17.681-30.636-32.889-82.317-34.723-115.205-4.088-32.889,30.636-34.723,82.317-4.087,115.206,30.635,32.889,82.316,34.722,115.205,4.087,23.951-22.31,31.412-55.776,21.878-85.023l171.059-94.155,9.572,17.303,85.939-77.865ZM135.97,2051.679c-28.03,26.109-71.918,24.552-98.027-3.478-26.109-28.03-24.552-71.918,3.478-98.027,28.03-26.109,71.918-24.552,98.027,3.478,26.109,28.03,24.552,71.918-3.478,98.027Z" stroke="#fff" stroke-miterlimit="10" stroke-width="4"/>
    <path d="M1992.716,1527.53l108.329-32.718-9.829-16.667,149.871-110.733c3.861,5.955,8.55,11.505,14.094,16.453,33.533,29.929,85.164,26.997,115.092-6.536,29.929-33.533,26.996-85.164-6.537-115.093-33.533-29.928-85.163-26.996-115.092,6.538-21.795,24.42-26.144,58.431-13.957,86.676l-150.187,110.996-9.04-18.62-82.744,79.704ZM2257.711,1276.867c25.507-28.579,69.352-31.069,97.931-5.562,28.579,25.507,31.069,69.352,5.562,97.931-25.507,28.579-69.352,31.069-97.931,5.562-28.579-25.507-31.069-69.352-5.562-97.931Z" stroke="#fff" stroke-miterlimit="10" stroke-width="4"/>
    <path d="M2075.095,1866.163l8.003-18.082,147.063,63.471c-6.908,29.976,3.486,62.65,29.318,82.752,35.472,27.604,86.788,21.203,114.392-14.268,27.604-35.472,21.203-86.788-14.269-114.392-35.471-27.604-86.787-21.202-114.391,14.269-4.564,5.864-8.178,12.168-10.905,18.719l-145.735-62.917,8.003-18.082-113.972-21.423,92.494,69.952ZM2254.803,1887.377c23.526-30.231,67.104-35.667,97.335-12.141,30.231,23.526,35.667,67.104,12.141,97.335-23.526,30.231-67.104,35.667-97.335,12.141-30.231-23.526-35.667-67.104-12.141-97.335Z" stroke="#fff" stroke-miterlimit="10" stroke-width="4"/>
    <path d="M837.765,1898.738l-40.243,108.761,19.623,2.437-34.104,185.114c-41.899-1.725-78.933,29.038-84.19,71.381-5.538,44.605,26.244,85.399,70.848,90.937,44.605,5.538,85.399-26.244,90.937-70.849,5.258-42.342-23.127-81.229-64.177-89.803l34.104-185.114,19.623,2.437-12.422-115.3ZM848.574,2285.021c-4.72,38.014-39.363,65.005-77.377,60.284-38.014-4.72-65.005-39.363-60.284-77.377,4.72-38.014,39.363-65.005,77.377-60.284,38.014,4.72,65.005,39.363,60.284,77.377Z" stroke="#fff" stroke-miterlimit="10" stroke-width="4"/>
    <path d="M609.801,1687.162l-4.576,19.237-437.43-91.026c6.314-41.457-20.198-81.643-61.708-91.517-43.727-10.401-87.764,16.711-98.165,60.438-10.401,43.726,16.712,87.763,60.439,98.164,41.51,9.874,83.277-14.071,96.305-53.931l437.43,91.027-4.576,19.237,115.967.309-103.686-51.939ZM154.701,1619.208c-8.864,37.266-46.261,60.291-83.527,51.426-37.266-8.864-60.291-46.261-51.426-83.527,8.864-37.266,46.261-60.291,83.527-51.426,37.266,8.864,60.291,46.261,51.426,83.527Z" stroke="#fff" stroke-miterlimit="10" stroke-width="4"/>
    <path d="M655.504,1894.814l-70.092,92.388,18.07,8.03-106.088,204.29c-39.593-13.818-83.964,4.866-101.29,43.858-18.252,41.074.315,89.34,41.389,107.592s89.34-.315,107.592-41.389c17.327-38.991,1.457-84.444-35.334-104.569l106.088-204.29,18.07,8.03,21.594-113.939ZM533.978,2304.648c-15.555,35.006-56.543,50.773-91.549,35.218-35.006-15.555-50.773-56.543-35.218-91.549,15.555-35.006,56.543-50.773,91.549-35.218,35.006,15.555,50.773,56.543,35.218,91.549Z" stroke="#fff" stroke-miterlimit="10" stroke-width="4"/>
    <path d="M824.858,1041.228l6.217,18.603-671.5,215.136c-14.968-26.59-44.422-43.596-76.791-41.069-44.449,3.47-77.788,42.454-74.319,86.903,3.47,44.449,42.454,77.788,86.903,74.319,44.448-3.47,77.788-42.454,74.318-86.903-.574-7.349-2.136-14.384-4.516-21.009l670.157-214.655,6.217,18.603,97.862-60.459-114.548,10.532ZM157.667,1309.155c2.957,37.882-25.355,70.988-63.237,73.945-37.882,2.957-70.988-25.355-73.945-63.237s25.355-70.988,63.237-73.945c37.882-2.957,70.988,25.355,73.945,63.237Z" stroke="#fff" stroke-miterlimit="10" stroke-width="4"/>
  </g>
  <g id="x" data-name="HUD_AG_GUN_Numbers">
    <path d="M101.374,653.748v7h-22.401v-7h7.701v-71.834l-5.471,4.529-4.463-5.394,11.12-9.202h5.814v81.901h7.7Z" fill="#ff8500" stroke="#ff8500" stroke-miterlimit="10"/>
    <path d="M72.219,1355.391h43.276v7h-52.853v-6.976l9.202-10.042c4.823-5.373,9.248-10.298,13.448-14.777,2.086-2.086,4.176-4.526,6.195-6.885,2.111-2.461,10.542-11.95,10.542-11.95.956-.963,1.495-1.642,1.855-2.09.213-.27.396-.486.546-.654,1.025-1.306,1.887-2.957,2.496-4.784.578-1.733.872-3.119.872-5.895,0-2.384-.494-4.746-1.467-7.021-.885-2.349-2.296-4.043-4.158-5.905-2.125-1.75-4.137-3.01-6.104-3.745-5.628-2.11-9.419-2.106-15.041,0-2.576.967-4.515,2.156-6.108,3.749-1.837,1.838-3.314,3.935-4.158,5.904l-6.433-2.758c1.204-2.811,3.157-5.61,5.642-8.096,2.296-2.292,5.107-4.042,8.6-5.352,7.161-2.695,12.779-2.695,19.958,0,3.581,1.344,6.486,3.577,8.362,5.138,2.296,2.279,4.592,4.876,5.937,8.46,1.292,3,1.974,6.29,1.974,9.629,0,3.683-.473,5.832-1.232,8.11-.878,2.639-2.173,5.071-3.738,7.028l-.479.57c-.469.588-1.173,1.467-2.23,2.521.007,0-8.243,9.282-10.318,11.704-2.107,2.457-4.284,4.999-6.482,7.196-4.092,4.365-8.481,9.255-13.269,14.586l-4.831,5.338-.003-.004Z" fill="#ff8500" stroke="#ff8500" stroke-miterlimit="10"/>
    <path d="M492.198,2267.314c1.33,3.108,2.034,6.37,2.034,9.433v17.151c0,3.066-.704,6.324-2.034,9.43-1.295,3.027-3.437,5.929-5.873,7.959-1.876,1.564-4.785,3.794-8.362,5.139-3.594,1.348-6.769,1.974-9.982,1.974-3.658,0-8.232-.791-11.379-1.971-3.493-1.312-6.304-3.062-8.597-5.355-2.205-1.816-4.344-4.718-5.642-7.745-.784-1.555-1.208-3.241-1.579-4.729l-.105-.851v-3.149h7v2.72c.283,1.127.56,2.121,1.029,3.062.962,2.236,2.394,4.183,4.011,5.53,1.827,1.806,3.766,2.996,6.339,3.962,2.359.882,6.115,1.526,8.922,1.526,2.38,0,4.701-.473,7.522-1.53,1.964-.738,3.98-1.995,6.339-3.962,1.614-1.348,3.045-3.297,3.924-5.341.959-2.24,1.466-4.547,1.466-6.672v-17.15c0-2.125-.507-4.432-1.466-6.675-.875-2.045-2.307-3.99-3.924-5.338-1.827-1.803-3.766-2.996-6.339-3.959l-1.071-.413c-1.957-.767-2.853-1.116-6.451-1.116-4.389,0-7.907.938-11.071,2.954-2.363,1.477-4.453,3.566-5.912,5.901l-1.029,1.645h-9.29v-40.602h52.853v7h-45.852v24.768c1.603-1.792,3.458-3.36,5.495-4.635,4.253-2.709,9.107-4.032,14.806-4.032,4.68,0,6.468.605,8.999,1.597l.98.378c3.493,1.309,6.304,3.059,8.597,5.352,2.202,1.816,4.344,4.715,5.642,7.742v.004Z" fill="#ff8500" stroke="#ff8500" stroke-miterlimit="10"/>
    <path d="M802.961,2286.173c1.95,3.409,2.212,6.686,2.212,9.437v3.149c0,2.962-.647,5.846-2.033,9.08l-.179.356c-1.6,2.804-3.637,5.244-6.048,7.253-2.205,1.838-5.135,3.447-8.712,4.788-2.912,1.092-6.29,1.624-10.329,1.624-3.458,0-6.825-.725-9.951-1.505l-.378-.119c-3.577-1.341-6.51-2.954-8.712-4.788-2.412-2.009-4.445-4.452-6.048-7.253-1.95-3.409-2.212-6.682-2.212-9.437-.025-.486-.686-15.831,1.831-27.347,3.364-14.557,19.188-30.389,29.324-36.237l3.497,6.062c-8.992,5.188-23.231,19.762-25.989,31.708-.458,2.093-.798,4.357-1.053,6.644.595-.521,1.221-1.022,1.876-1.502,1.848-1.48,5.425-3.524,8.46-4.393,3.049-.875,16.038-.931,19.688.438,3.574,1.341,6.507,2.954,8.712,4.792,2.412,2.009,4.449,4.452,6.048,7.252l-.003-.003ZM798.179,2298.767v-3.15c0-2.667-.36-4.341-1.288-5.965-1.183-2.071-2.681-3.874-4.452-5.348-1.579-1.316-3.892-2.565-6.689-3.612-2.051-.729-13.269-.798-15.317-.263-2.013.577-4.746,2.121-6.118,3.217-4.2,3.084-6.738,7.234-6.738,10.917h-.087c.014,2.439.084,3.997.084,4.043.003,2.828.364,4.497,1.292,6.122,1.187,2.071,2.685,3.874,4.452,5.348,1.537,1.285,3.784,2.506,6.503,3.542,2.632.655,5.422,1.246,8.054,1.246,3.185,0,5.758-.385,7.872-1.176,2.8-1.054,5.114-2.3,6.689-3.612,1.722-1.432,3.185-3.175,4.354-5.177.956-2.278,1.386-4.176,1.386-6.132h.003Z" fill="#ff8500" stroke="#ff8500" stroke-miterlimit="10"/>
    <path d="M1546.984,2229.142v9.901l-36.053,74.551v.948h-7v-2.552l36.052-74.55v-1.299h-45.152v-7h52.153Z" fill="#ff8500" stroke="#ff8500" stroke-miterlimit="10"/>
    <path d="M2338.072,1952.492c0,13.896-12.562,25.201-28.002,25.201s-28.001-11.306-28.001-25.201c0-9.391,5.747-17.585,14.235-21.918-6.878-4.067-11.436-11.075-11.436-19.034,0-12.545,11.306-22.751,25.201-22.751s25.201,10.206,25.201,22.751c0,7.959-4.561,14.967-11.435,19.034,8.488,4.333,14.235,12.527,14.235,21.918ZM2331.071,1952.492c0-10.035-9.419-18.201-21.001-18.201s-21.001,8.166-21.001,18.201,9.419,18.201,21.001,18.201,21.001-8.166,21.001-18.201ZM2310.07,1927.294c10.035,0,18.201-7.066,18.201-15.751s-8.166-15.75-18.201-15.75-18.201,7.066-18.201,15.75,8.166,15.751,18.201,15.751Z" fill="#ff8500" stroke="#ff8500" stroke-miterlimit="10"/>
    <path d="M114.195,1609.074c1.323,3.091,1.971,9.062,1.971,12.079,0,3.228,0,5.358-1.52,11.054-1.34,5.352-4.088,8.953-6.157,11.021-2.313,2.311-6.734,5.261-10.375,6.171-3.434,1.155-9.041,1.155-12.051,1.155-3.556,0-9.72-2.006-12.229-3.08-2.937-1.26-8.449-4.978-11.799-7.952l4.652-5.233c2.93,2.604,7.896,5.888,9.906,6.752,2.31.991,7.42,2.517,9.471,2.517,2.429,0,7.483,0,10.095-.871,2.24-.57,5.569-2.594,7.382-4.407,1.442-1.438,3.367-3.969,4.33-7.822,1.295-4.858,1.295-6.252,1.295-9.3,0-3.108-.71-7.715-1.467-9.476-.861-2.282-1.908-4.019-3.671-6.136-1.537-1.845-3.213-3.164-4.988-3.924-2.202-.945-4.533-1.82-6.671-1.82h-9.451v-7.623l20.798-23.528h-31.999v-7h39.552v9.02l-19.559,22.128h.658c3.413,0,6.682,1.204,9.429,2.384,2.797,1.201,5.359,3.179,7.609,5.877,2.279,2.73,3.71,5.128,4.792,8.012l-.003.004Z" fill="#ff8500" stroke="#ff8500" stroke-miterlimit="10"/>
    <path d="M106.043,2021.816h9.45v7.001h-9.45v17.5h-7v-17.5h-36.402v-7.62l36.167-60.284h7.231v60.9l.003.003ZM99.039,1974.13l-28.61,47.684h28.61v-47.684Z" fill="#ff8500" stroke="#ff8500" stroke-miterlimit="10"/>
    <g>
      <path d="M1810.88,145.251v7h-22.401v-7h7.7v-71.834l-5.471,4.529-4.463-5.394,11.12-9.202h5.814v81.901h7.7Z" fill="#ff8500" stroke="#ff8500" stroke-miterlimit="10"/>
      <path d="M1875.21,78.233c1.616,3.227,2.471,6.917,2.471,10.665v38.152c0,3.749-.854,7.441-2.471,10.669-1.513,3.031-3.802,5.87-6.802,8.442-2.677,2.229-5.555,3.749-8.586,4.54-2.765,1.008-5.743,1.519-9.093,1.551h-.351c-3.741-.028-6.724-.532-9.629-1.621-3.157-1.187-5.968-2.797-8.361-4.792-3.039-2.601-5.328-5.443-6.844-8.474-1.616-3.228-2.471-6.917-2.471-10.662v-38.152c0-3.745.857-7.434,2.471-10.665,1.516-3.031,3.805-5.873,6.805-8.442,2.678-2.233,5.555-3.749,8.586-4.54,2.859-1.043,5.95-1.554,9.443-1.554,3.749,0,7.105.542,9.979,1.621,3.157,1.183,5.968,2.796,8.365,4.792,2.664,2.279,4.774,5.044,6.489,8.471h-.003ZM1830.078,88.548v34.526l40.165-38.082c-.291-1.274-.725-2.496-1.292-3.63-1.306-2.614-2.814-4.603-4.746-6.258-1.75-1.459-3.886-2.674-6.301-3.581-2.055-.77-4.655-1.176-7.521-1.176-2.751,0-5.03.375-7.172,1.176l-.378.119c-2.076.518-4.078,1.575-5.961,3.143-2.251,1.929-3.966,4.036-5.062,6.227-1.134,2.268-1.732,4.872-1.732,7.536ZM1870.683,127.054v-32.828l-39.776,37.714c.252.795.543,1.568.907,2.3,1.096,2.191,2.811,4.298,5.1,6.258,1.75,1.456,3.882,2.671,6.3,3.581,2.129.798,4.396,1.162,7.337,1.176,2.674-.014,4.903-.389,7.004-1.176l.378-.119c2.075-.518,4.078-1.575,5.961-3.143,2.247-1.929,3.962-4.036,5.058-6.227,1.134-2.265,1.732-4.869,1.732-7.536Z" fill="#ff8500" stroke="#ff8500" stroke-miterlimit="10"/>
    </g>
    <path d="M2335.51,1332.765c-3.356,14.558-19.185,30.389-29.321,36.238l-3.496-6.062c8.995-5.191,23.234-19.763,25.988-31.708.459-2.094.799-4.358,1.054-6.644-.595.521-1.218,1.021-1.872,1.501-1.849,1.481-5.426,3.525-8.46,4.394-3.053.871-16.042.927-19.688-.438-3.581-1.345-6.511-2.955-8.716-4.792-2.412-2.01-4.449-4.452-6.049-7.253-1.949-3.405-2.212-6.682-2.212-9.437v-3.149c0-2.962.647-5.846,2.034-9.08l.178-.356c1.6-2.804,3.637-5.244,6.049-7.253,2.201-1.834,5.131-3.444,8.712-4.788,2.912-1.092,6.29-1.624,10.329-1.624,3.454,0,6.821.725,9.951,1.505l.378.119c3.58,1.344,6.51,2.954,8.712,4.788,2.411,2.009,4.448,4.449,6.048,7.253,1.95,3.405,2.213,6.682,2.213,9.437.024.489.689,15.831-1.831,27.35ZM2330.337,1309.622h.087c-.014-2.439-.084-3.994-.084-4.043-.003-2.832-.364-4.501-1.291-6.122-1.187-2.079-2.685-3.878-4.452-5.352-1.54-1.284-3.784-2.506-6.504-3.542-2.461-.609-5.296-1.246-8.054-1.246-3.186,0-5.758.385-7.872,1.176-2.8,1.054-5.113,2.3-6.686,3.612-1.722,1.432-3.185,3.175-4.354,5.177-.956,2.278-1.387,4.176-1.387,6.133v3.149c0,2.671.36,4.344,1.288,5.965,1.184,2.072,2.682,3.875,4.452,5.348,1.579,1.316,3.889,2.562,6.689,3.612,2.051.731,13.272.802,15.316.263,2.013-.577,4.746-2.121,6.118-3.217,4.197-3.083,6.734-7.231,6.734-10.917l-.003.004Z" fill="#ff8500" stroke="#ff8500" stroke-miterlimit="10"/>
    <g>
      <path d="M1101.635,144.951v7h-22.401v-7h7.701v-71.834l-5.471,4.529-4.463-5.394,11.12-9.202h5.814v81.901h7.7Z" fill="#ff8500" stroke="#ff8500" stroke-miterlimit="10"/>
      <path d="M1138.462,144.951v7h-22.401v-7h7.701v-71.834l-5.471,4.529-4.463-5.394,11.12-9.202h5.814v81.901h7.7Z" fill="#ff8500" stroke="#ff8500" stroke-miterlimit="10"/>
    </g>
  </g>
</svg>