<?xml version="1.0" encoding="UTF-8"?>
<svg xmlns="http://www.w3.org/2000/svg" width="1219.842" height="805.304" viewBox="0 0 1219.842 805.304">
  <g id="a" data-name="Panel_EGI_Light">
    <rect x="67.879" y="38.598" width="1092.337" height="564.348" fill="none" stroke="#000" stroke-miterlimit="10" stroke-width="10"/>
    <path d="M164.308,60.73v107.596c0,15.659-12.694,28.354-28.354,28.354h-50.687v254.51h43.053c19.875,0,35.987,16.112,35.987,35.987v93.639h896.317v-108.803c0-12.373,10.031-22.404,22.404-22.404h48.732V193.518h-51.039c-12.846,0-23.259-10.413-23.259-23.259V57.568l-893.156,3.162Z" fill="none" stroke="#000" stroke-miterlimit="10" stroke-width="5"/>
    <circle cx="113.576" cy="149.981" r="30.371" fill="none" stroke="#000" stroke-miterlimit="10" stroke-width="2"/>
    <circle cx="113.576" cy="149.981" r="24.208" fill="none" stroke="#000" stroke-miterlimit="10" stroke-width="2"/>
    <rect x="108.98" y="125.543" width="7.904" height="50.586" transform="translate(-73.58 124.033) rotate(-45)" fill="none" stroke="#000" stroke-miterlimit="10" stroke-width="2"/>
    <circle cx="1103.951" cy="148.83" r="30.371" fill="none" stroke="#000" stroke-miterlimit="10" stroke-width="2"/>
    <circle cx="1103.951" cy="148.83" r="24.208" fill="none" stroke="#000" stroke-miterlimit="10" stroke-width="2"/>
    <rect x="1099.355" y="124.392" width="7.904" height="50.586" transform="translate(217.308 823.997) rotate(-45)" fill="none" stroke="#000" stroke-miterlimit="10" stroke-width="2"/>
    <circle cx="1103.47" cy="496.332" r="30.371" fill="none" stroke="#000" stroke-miterlimit="10" stroke-width="2"/>
    <circle cx="1103.47" cy="496.332" r="24.208" fill="none" stroke="#000" stroke-miterlimit="10" stroke-width="2"/>
    <rect x="1098.874" y="471.894" width="7.904" height="50.586" transform="translate(-28.554 925.438) rotate(-45)" fill="none" stroke="#000" stroke-miterlimit="10" stroke-width="2"/>
    <circle cx="1007.041" cy="520.044" r="30.371" fill="none" stroke="#000" stroke-miterlimit="10" stroke-width="2"/>
    <circle cx="1007.041" cy="520.044" r="24.208" fill="none" stroke="#000" stroke-miterlimit="10" stroke-width="2"/>
    <rect x="1002.445" y="495.606" width="7.904" height="50.586" transform="translate(-73.565 864.198) rotate(-45)" fill="none" stroke="#000" stroke-miterlimit="10" stroke-width="2"/>
    <circle cx="113.542" cy="496.126" r="30.371" fill="none" stroke="#000" stroke-miterlimit="10" stroke-width="2"/>
    <circle cx="113.542" cy="496.126" r="24.208" fill="none" stroke="#000" stroke-miterlimit="10" stroke-width="2"/>
    <rect x="108.945" y="471.688" width="7.904" height="50.586" transform="translate(-318.352 225.393) rotate(-45)" fill="none" stroke="#000" stroke-miterlimit="10" stroke-width="2"/>
    <circle cx="216.294" cy="521.419" r="30.371" fill="none" stroke="#000" stroke-miterlimit="10" stroke-width="2"/>
    <circle cx="216.294" cy="521.419" r="24.208" fill="none" stroke="#000" stroke-miterlimit="10" stroke-width="2"/>
    <rect x="211.698" y="496.981" width="7.904" height="50.586" transform="translate(-306.141 305.458) rotate(-45)" fill="none" stroke="#000" stroke-miterlimit="10" stroke-width="2"/>
    <rect x="864.605" y="299.432" width="132.788" height="126.465" fill="none" stroke="#000" stroke-miterlimit="10" stroke-width="4"/>
    <rect x="875.671" y="312.078" width="109.076" height="101.172" fill="none" stroke="#000" stroke-miterlimit="10" stroke-width="4"/>
    <g>
      <path d="M885.017,358.23h8.332v44.214h-8.332v-44.214ZM888.028,358.23h26.607v8.027h-26.607v-8.027ZM888.028,376.475h23.263v8.027h-23.263v-8.027ZM888.028,394.415h26.607v8.028h-26.607v-8.028Z" fill="#579924"/>
      <path d="M955.61,377.721v8.637c0,3.284-.664,6.178-1.991,8.682-1.328,2.504-3.208,4.439-5.641,5.808s-5.251,2.053-8.454,2.053c-3.224,0-6.066-.644-8.529-1.931s-4.369-3.106-5.717-5.459c-1.349-2.351-2.022-5.078-2.022-8.18v-13.045c0-3.284.664-6.173,1.992-8.667,1.327-2.493,3.208-4.424,5.641-5.793,2.433-1.368,5.25-2.052,8.453-2.052,2.636,0,5.068.542,7.299,1.626,2.229,1.085,4.09,2.621,5.579,4.607,1.49,1.987,2.499,4.287,3.026,6.902h-9.001c-.305-.932-.806-1.737-1.506-2.417-.699-.679-1.521-1.196-2.463-1.551s-1.921-.532-2.935-.532c-1.479,0-2.782.324-3.907.973-1.125.649-1.997,1.571-2.615,2.768s-.928,2.574-.928,4.136v13.045c0,1.379.314,2.596.943,3.649.628,1.054,1.521,1.865,2.676,2.433s2.493.852,4.014.852c1.5,0,2.812-.31,3.938-.928,1.125-.618,1.991-1.516,2.6-2.691.608-1.175.912-2.564.912-4.166v-.729h-6.689v-8.028h15.325Z" fill="#579924"/>
      <path d="M973.78,402.443h-8.637v-44.214h8.637v44.214Z" fill="#579924"/>
    </g>
    <g>
      <rect x="859.071" y="187.561" width="127.257" height="91.321" fill="none"/>
      <path d="M865.153,198.5h18.925v4.687h-18.925v-4.687ZM872.183,200.612h4.864v23.701h-4.864v-23.701Z"/>
      <path d="M893.832,198.5h3.089l9.871,25.813h-5.237l-6.178-17.629-6.179,17.629h-5.236l9.87-25.813ZM888.702,215.489h13.582v4.687h-13.582v-4.687Z"/>
      <path d="M913.459,223.452c-1.397-.751-2.462-1.847-3.196-3.285-.733-1.438-1.101-3.175-1.101-5.21v-7.083c0-2.036.367-3.772,1.101-5.21.734-1.438,1.799-2.536,3.196-3.293,1.396-.757,3.077-1.136,5.042-1.136,1.621,0,3.071.35,4.35,1.047,1.277.699,2.334,1.713,3.169,3.045.834,1.332,1.411,2.938,1.73,4.82h-5.042c-.189-.852-.482-1.58-.879-2.184s-.876-1.065-1.438-1.385c-.562-.319-1.192-.479-1.891-.479-.912,0-1.687.186-2.326.559-.639.373-1.127.917-1.465,1.633-.337.716-.506,1.577-.506,2.583v7.083c0,1.006.169,1.864.506,2.574.338.71.826,1.251,1.465,1.625.64.373,1.414.559,2.326.559.71,0,1.349-.157,1.917-.47s1.048-.772,1.438-1.376c.391-.604.675-1.337.853-2.202h5.042c-.331,1.882-.914,3.489-1.749,4.82-.834,1.332-1.888,2.346-3.16,3.044-1.272.699-2.719,1.047-4.34,1.047-1.965,0-3.646-.375-5.042-1.127Z"/>
      <path d="M939.635,198.5h3.089l9.871,25.813h-5.237l-6.178-17.629-6.179,17.629h-5.236l9.87-25.813ZM934.504,215.489h13.582v4.687h-13.582v-4.687Z"/>
      <path d="M956.919,198.5h5.947l9.604,19.777-.427.461v-20.238h4.651v25.795h-5.982l-9.569-19.476.427-.461v19.937h-4.651v-25.795Z"/>
      <path d="M891.01,267.081c-1.397-.751-2.462-1.846-3.196-3.284-.733-1.438-1.101-3.175-1.101-5.21v-7.084c0-2.036.367-3.772,1.101-5.21.734-1.438,1.799-2.536,3.196-3.293,1.396-.757,3.077-1.136,5.042-1.136,1.621,0,3.071.35,4.35,1.047,1.277.699,2.334,1.713,3.169,3.045.834,1.332,1.411,2.938,1.73,4.82h-5.042c-.189-.852-.482-1.58-.879-2.184s-.876-1.065-1.438-1.385c-.562-.319-1.192-.479-1.891-.479-.912,0-1.687.186-2.326.559-.639.373-1.127.917-1.465,1.633-.337.716-.506,1.577-.506,2.583v7.084c0,1.006.169,1.863.506,2.574.338.71.826,1.251,1.465,1.624.64.373,1.414.56,2.326.56.71,0,1.349-.157,1.917-.471s1.048-.772,1.438-1.376c.391-.604.675-1.337.853-2.201h5.042c-.331,1.882-.914,3.488-1.749,4.819-.834,1.332-1.888,2.347-3.16,3.045s-2.719,1.048-4.34,1.048c-1.965,0-3.646-.376-5.042-1.128Z"/>
      <path d="M926.755,242.129h6.408v25.813h-4.42v-20.043l.178,1.136-4.936,16.031h-4.297l-4.935-15.676.177-1.491v20.043h-4.42v-25.813h6.408l4.918,17.398,4.918-17.398Z"/>
      <path d="M939.972,242.129h4.864v25.813h-4.864v-25.813ZM942.421,263.256h6.196c1.598,0,2.834-.385,3.71-1.154s1.314-1.858,1.314-3.267v-7.598c0-1.409-.438-2.497-1.314-3.267s-2.112-1.154-3.71-1.154h-6.196v-4.687h6.09c2.154,0,3.991.361,5.513,1.083,1.521.722,2.678,1.775,3.471,3.16.792,1.385,1.189,3.054,1.189,5.006v7.315c0,1.857-.382,3.479-1.146,4.864s-1.908,2.462-3.436,3.23c-1.526.77-3.396,1.154-5.609,1.154h-6.072v-4.687Z"/>
    </g>
    <g>
      <rect x="492.486" y="69.754" width="267.786" height="91.321" fill="none"/>
      <path d="M515.795,102.508h5.006l5.485,17.22,5.486-17.22h5.006l-8.592,25.813h-3.799l-8.592-25.813Z"/>
      <path d="M541.19,133.221h-4.616l11.54-33.767h4.616l-11.54,33.767Z"/>
      <path d="M560.213,127.46c-1.409-.751-2.479-1.847-3.213-3.285s-1.101-3.169-1.101-5.193v-16.475h4.864v16.599c0,1.479.396,2.627,1.189,3.444.793.817,1.912,1.225,3.355,1.225,1.456,0,2.583-.408,3.382-1.225.799-.816,1.198-1.964,1.198-3.444v-16.599h4.864v16.475c0,2.024-.37,3.755-1.109,5.193-.74,1.438-1.817,2.533-3.231,3.285s-3.116,1.127-5.104,1.127-3.687-.375-5.095-1.127Z"/>
      <path d="M580.851,102.508h4.865v25.813h-4.865v-25.813ZM583.106,113.177h15.037v4.687h-15.037v-4.687ZM594.983,102.508h4.864v25.813h-4.864v-25.813Z"/>
      <path d="M606.655,102.508h4.865v25.813h-4.865v-25.813ZM608.43,102.508h15.179v4.687h-15.179v-4.687ZM608.43,113.39h13.226v4.687h-13.226v-4.687Z"/>
      <path d="M638.078,123.936l8.859-11.646c.401-.521.713-1.056.932-1.606s.328-1.062.328-1.536v-.036c0-.698-.225-1.237-.675-1.616-.449-.378-1.089-.568-1.917-.568-.805,0-1.456.264-1.953.79-.497.527-.799,1.275-.905,2.246v.018h-4.989v-.018c.106-1.609.494-2.994,1.163-4.154.668-1.16,1.571-2.044,2.708-2.654,1.136-.609,2.45-.915,3.941-.915,1.609,0,2.985.264,4.127.79,1.143.527,2.013,1.293,2.61,2.299s.896,2.219.896,3.639v.018c0,1.171-.204,2.334-.612,3.488s-.979,2.199-1.714,3.133l-6.355,8.024h8.823v4.687h-15.268v-4.385Z"/>
      <path d="M677.188,102.508h3.089l9.87,25.813h-5.237l-6.178-17.629-6.178,17.629h-5.237l9.871-25.813ZM672.057,119.498h13.581v4.687h-13.581v-4.687Z"/>
      <path d="M694.469,102.508h5.947l9.604,19.777-.426.461v-20.238h4.651v25.795h-5.982l-9.569-19.476.426-.461v19.937h-4.651v-25.795Z"/>
      <path d="M718.924,102.508h18.925v4.687h-18.925v-4.687ZM725.954,104.62h4.864v23.701h-4.864v-23.701Z"/>
    </g>
    <g>
      <rect x="639.788" y="152.656" width="166.85" height="91.321" fill="none"/>
      <path d="M694.16,210.362c-1.408-.751-2.479-1.847-3.213-3.285-.734-1.438-1.101-3.169-1.101-5.193v-16.475h4.864v16.599c0,1.479.396,2.627,1.189,3.444.793.817,1.911,1.225,3.355,1.225,1.456,0,2.583-.408,3.382-1.225.799-.816,1.198-1.964,1.198-3.444v-16.599h4.864v16.475c0,2.024-.37,3.755-1.109,5.193-.74,1.438-1.817,2.533-3.231,3.285s-3.115,1.127-5.104,1.127-3.687-.375-5.096-1.127Z"/>
      <path d="M714.797,185.41h4.865v25.813h-4.865v-25.813ZM717.017,196.523h8.255c.58,0,1.092-.133,1.536-.399.443-.266.79-.642,1.038-1.127.249-.485.373-1.041.373-1.668,0-.639-.121-1.205-.364-1.696-.242-.491-.586-.87-1.029-1.136-.444-.266-.962-.399-1.554-.399h-8.255v-4.687h8.131c1.609,0,3.027.328,4.252.985,1.225.657,2.175,1.583,2.85,2.778.674,1.195,1.012,2.58,1.012,4.154s-.338,2.956-1.012,4.145c-.675,1.189-1.625,2.11-2.85,2.761s-2.643.977-4.252.977h-8.131v-4.687Z"/>
      <path d="M738.205,185.392h4.864v25.831h-4.864v-25.831ZM740.14,196.15h8.983c.497,0,.935-.125,1.313-.373s.672-.604.879-1.065c.207-.462.316-.995.329-1.598,0-.604-.104-1.136-.311-1.598-.208-.461-.501-.816-.879-1.065-.379-.249-.823-.373-1.332-.373h-8.983v-4.687h9.374c1.42,0,2.669.32,3.746.959s1.911,1.542,2.503,2.707c.592,1.166.888,2.519.888,4.057s-.296,2.891-.888,4.057c-.592,1.166-1.429,2.068-2.512,2.708s-2.329.958-3.737.958h-9.374v-4.687ZM745.573,200.038l5.202-.816,6.959,12.001h-5.894l-6.268-11.185Z"/>
    </g>
    <g>
      <rect x="594.033" y="252.246" width="267.786" height="91.321" fill="none"/>
      <path d="M692.508,285h4.864v25.813h-4.864v-25.813ZM694.674,306.127h15.126v4.687h-15.126v-4.687Z"/>
      <path d="M723.833,285h3.905l4.936,17.221,3.32-17.221h5.006l-5.947,25.813h-4.58l-4.58-18.037-4.794,18.037h-4.58l-5.947-25.813h5.007l3.319,17.221,4.936-17.221Z"/>
      <path d="M745.324,284.983h4.864v25.831h-4.864v-25.831ZM747.258,295.741h8.983c.497,0,.935-.124,1.313-.373.379-.248.672-.604.879-1.065.207-.461.316-.994.329-1.598,0-.604-.104-1.136-.311-1.598-.208-.462-.501-.816-.879-1.065-.379-.248-.823-.373-1.332-.373h-8.983v-4.687h9.374c1.42,0,2.669.319,3.746.959,1.077.639,1.911,1.542,2.503,2.707.592,1.166.888,2.519.888,4.057s-.296,2.892-.888,4.057c-.592,1.166-1.429,2.068-2.512,2.707-1.083.64-2.329.959-3.737.959h-9.374v-4.687ZM752.691,299.629l5.202-.816,6.959,12.001h-5.894l-6.268-11.185Z"/>
    </g>
    <g>
      <rect x="494.236" y="318.193" width="267.786" height="91.321" fill="none"/>
      <path d="M537.012,375.899c-1.409-.751-2.479-1.846-3.213-3.284-.734-1.438-1.101-3.169-1.101-5.192v-16.476h4.864v16.6c0,1.479.396,2.627,1.189,3.444.793.816,1.912,1.225,3.355,1.225,1.456,0,2.583-.408,3.382-1.225.799-.817,1.198-1.965,1.198-3.444v-16.6h4.864v16.476c0,2.023-.37,3.755-1.109,5.192-.74,1.438-1.817,2.533-3.231,3.284-1.414.752-3.116,1.128-5.104,1.128s-3.687-.376-5.095-1.128Z"/>
      <path d="M557.649,350.946h4.865v25.813h-4.865v-25.813ZM559.904,361.616h15.037v4.687h-15.037v-4.687ZM571.781,350.946h4.864v25.813h-4.864v-25.813Z"/>
      <path d="M583.454,350.946h4.865v25.813h-4.865v-25.813ZM585.229,350.946h15.179v4.688h-15.179v-4.688ZM585.229,361.829h13.226v4.688h-13.226v-4.688Z"/>
      <path d="M633.1,376.76h-4.864v-20.097l-3.143,1.189v-5.166l3.853-1.74h4.154v25.813Z"/>
      <path d="M659.028,350.946h5.007l5.485,17.221,5.485-17.221h5.007l-8.593,25.813h-3.799l-8.593-25.813Z"/>
      <path d="M687.752,375.846c-1.427-.787-2.53-1.899-3.312-3.338-.781-1.438-1.171-3.104-1.171-4.997v-7.314c0-1.894.39-3.56,1.171-4.998.781-1.438,1.885-2.55,3.312-3.337,1.426-.787,3.074-1.181,4.944-1.181s3.518.394,4.944,1.181c1.426.787,2.529,1.899,3.311,3.337.781,1.438,1.172,3.104,1.172,4.998v7.314c0,1.894-.391,3.56-1.172,4.997-.781,1.438-1.885,2.551-3.311,3.338-1.427.787-3.074,1.181-4.944,1.181s-3.519-.394-4.944-1.181ZM695.004,371.603c.663-.373,1.175-.902,1.536-1.589.36-.687.541-1.479.541-2.379v-7.563c0-.898-.181-1.692-.541-2.379-.361-.686-.873-1.216-1.536-1.589-.663-.372-1.433-.559-2.308-.559s-1.646.187-2.309.559c-.662.373-1.175.903-1.535,1.589-.361.687-.542,1.48-.542,2.379v7.563c0,.899.181,1.692.542,2.379.36.687.873,1.216,1.535,1.589.663.373,1.433.56,2.309.56s1.645-.187,2.308-.56Z"/>
      <path d="M708.043,350.946h4.865v25.813h-4.865v-25.813ZM710.209,372.073h15.126v4.687h-15.126v-4.687Z"/>
    </g>
    <g>
      <rect x="186.941" y="317.678" width="267.786" height="91.321" fill="none"/>
      <path d="M245.907,350.431h4.865v25.813h-4.865v-25.813ZM248.836,366.16l10.35-15.729h6.125l-15.854,22.05-.621-6.32ZM253.132,363.178l4.19-2.646,9.072,15.712h-5.77l-7.492-13.066Z"/>
      <path d="M279.806,366.284v9.96h-4.864v-9.96l-7.599-15.854h5.095l4.936,11.114,4.935-11.114h5.095l-7.598,15.854Z"/>
      <path d="M317.62,350.431h6.409v25.813h-4.42v-20.043l.177,1.136-4.936,16.031h-4.296l-4.936-15.676.178-1.491v20.043h-4.421v-25.813h6.409l4.917,17.398,4.917-17.398Z"/>
      <path d="M334.787,375.33c-1.426-.787-2.53-1.899-3.311-3.338-.781-1.438-1.171-3.104-1.171-4.997v-7.314c0-1.894.39-3.56,1.171-4.998.781-1.438,1.885-2.55,3.311-3.337s3.074-1.181,4.944-1.181,3.518.394,4.944,1.181c1.426.787,2.53,1.899,3.311,3.337.781,1.438,1.171,3.104,1.171,4.998v7.314c0,1.894-.391,3.56-1.171,4.997-.781,1.438-1.885,2.551-3.311,3.338-1.426.787-3.074,1.181-4.944,1.181s-3.518-.394-4.944-1.181ZM342.039,371.087c.663-.373,1.174-.902,1.536-1.589.361-.687.542-1.479.542-2.379v-7.563c0-.898-.181-1.692-.542-2.379-.361-.686-.873-1.216-1.536-1.589-.663-.372-1.433-.559-2.308-.559s-1.645.187-2.308.559c-.663.373-1.175.903-1.536,1.589-.361.687-.542,1.48-.542,2.379v7.563c0,.899.181,1.692.542,2.379s.873,1.216,1.536,1.589c.663.373,1.432.56,2.308.56s1.645-.187,2.308-.56Z"/>
      <path d="M355.079,350.431h4.865v25.813h-4.865v-25.813ZM357.529,371.558h6.196c1.598,0,2.834-.385,3.71-1.154.875-.77,1.313-1.858,1.313-3.267v-7.599c0-1.408-.438-2.497-1.313-3.267-.876-.769-2.113-1.153-3.71-1.153h-6.196v-4.688h6.089c2.154,0,3.991.361,5.512,1.083,1.521.723,2.678,1.775,3.471,3.16s1.189,3.054,1.189,5.007v7.314c0,1.857-.381,3.479-1.145,4.864-.763,1.385-1.908,2.462-3.435,3.23-1.527.77-3.397,1.154-5.61,1.154h-6.071v-4.687Z"/>
      <path d="M379.711,350.431h4.865v25.813h-4.865v-25.813ZM381.469,350.431h15.534v4.688h-15.534v-4.688ZM381.469,361.083h13.581v4.687h-13.581v-4.687ZM381.469,371.558h15.534v4.687h-15.534v-4.687Z"/>
    </g>
    <g>
      <rect x="191.698" y="69.491" width="267.786" height="91.321" fill="none"/>
      <path d="M291.687,90.354l5.805-9.924h5.131l-8.54,14.593-6.568,11.22h-5.131l9.303-15.889ZM291.634,95.68l-.497-.834-8.54-14.416h5.131l5.788,9.782.674,1.154,8.824,14.877h-5.131l-6.249-10.563Z"/>
      <path d="M323.58,80.43h6.409v25.813h-4.42v-20.043l.177,1.136-4.936,16.031h-4.296l-4.936-15.676.178-1.491v20.043h-4.421v-25.813h6.409l4.917,17.398,4.917-17.398Z"/>
      <path d="M341.485,106.243h-5.042v-25.813h5.042v25.813Z"/>
      <path d="M347.937,80.412h4.865v25.831h-4.865v-25.831ZM349.872,91.171h8.983c.497,0,.935-.125,1.313-.373s.672-.604.879-1.065c.207-.462.316-.995.329-1.598,0-.604-.104-1.136-.311-1.598-.208-.461-.5-.816-.879-1.065-.379-.249-.823-.373-1.332-.373h-8.983v-4.687h9.374c1.42,0,2.668.32,3.746.959s1.912,1.542,2.503,2.707c.592,1.166.888,2.519.888,4.057s-.296,2.891-.888,4.057c-.592,1.166-1.429,2.068-2.512,2.708s-2.329.958-3.737.958h-9.374v-4.687ZM355.305,95.059l5.202-.816,6.959,12.001h-5.894l-6.267-11.185Z"/>
      <path d="M299.503,149.767c-1.178-.249-2.284-.613-3.32-1.092-1.036-.479-1.961-1.057-2.778-1.731l2.255-4.012c.994.816,2.142,1.447,3.444,1.891s2.639.666,4.012.666c1.586,0,2.817-.269,3.693-.808.875-.539,1.313-1.299,1.313-2.281v-.018c0-.687-.195-1.231-.586-1.633-.39-.402-.899-.698-1.526-.888-.627-.189-1.432-.361-2.415-.515-.036-.011-.068-.018-.098-.018-.03,0-.062-.006-.098-.018l-.391-.053c-1.728-.272-3.16-.613-4.296-1.021s-2.101-1.125-2.894-2.148c-.793-1.024-1.189-2.477-1.189-4.358v-.018c0-1.668.373-3.095,1.118-4.278s1.829-2.086,3.249-2.708c1.42-.621,3.136-.932,5.148-.932.923,0,1.867.106,2.832.32.964.213,1.909.521,2.832.923.923.403,1.799.888,2.627,1.456l-2.059,4.119c-.994-.686-2.033-1.219-3.116-1.598s-2.122-.568-3.116-.568c-1.491,0-2.645.246-3.462.737-.816.491-1.225,1.181-1.225,2.068v.018c0,.746.213,1.334.639,1.767.426.432.953.749,1.58.95.627.202,1.509.415,2.646.639.047.012.094.021.142.027s.095.015.142.026c.071.012.139.027.204.044s.133.033.205.044c1.633.319,2.997.708,4.092,1.163,1.095.456,2.009,1.189,2.743,2.202.733,1.012,1.101,2.394,1.101,4.146v.035c0,1.646-.385,3.054-1.154,4.226-.77,1.171-1.891,2.065-3.364,2.681-1.474.615-3.246.923-5.317.923-1.231,0-2.435-.124-3.613-.373Z"/>
      <path d="M318.161,124.061h4.865v25.813h-4.865v-25.813ZM319.919,124.061h15.534v4.687h-15.534v-4.687ZM319.919,134.712h13.581v4.687h-13.581v-4.687ZM319.919,145.187h15.534v4.687h-15.534v-4.687Z"/>
      <path d="M341.018,124.061h4.865v25.813h-4.865v-25.813ZM343.184,145.187h15.126v4.687h-15.126v-4.687Z"/>
    </g>
    <g>
      <rect x="390.865" y="168.382" width="165.484" height="156.343" fill="none"/>
      <path d="M397.664,208.013c-1.409-.751-2.479-1.847-3.213-3.285s-1.101-3.169-1.101-5.193v-16.475h4.864v16.599c0,1.479.396,2.627,1.189,3.444.793.817,1.912,1.225,3.355,1.225,1.456,0,2.583-.408,3.382-1.225.799-.816,1.198-1.964,1.198-3.444v-16.599h4.864v16.475c0,2.024-.37,3.755-1.109,5.193-.74,1.438-1.817,2.533-3.231,3.285s-3.116,1.127-5.104,1.127-3.687-.375-5.095-1.127Z"/>
      <path d="M418.302,183.061h4.865v25.813h-4.865v-25.813ZM420.557,193.731h15.037v4.687h-15.037v-4.687ZM432.434,183.061h4.864v25.813h-4.864v-25.813Z"/>
      <path d="M444.106,183.061h4.865v25.813h-4.865v-25.813ZM445.882,183.061h15.179v4.687h-15.179v-4.687ZM445.882,193.943h13.226v4.687h-13.226v-4.687Z"/>
      <path d="M482.861,208.874h-4.864v-20.097l-3.143,1.189v-5.166l3.853-1.74h4.154v25.813Z"/>
      <path d="M393.705,233.647h4.865v25.813h-4.865v-25.813ZM395.836,254.773h8.238c1.112,0,1.973-.269,2.583-.808.609-.539.914-1.293.914-2.264v-.053c0-.651-.136-1.207-.408-1.668-.272-.462-.672-.814-1.198-1.057-.527-.242-1.157-.364-1.891-.364h-8.238v-4.687h8.238c1.006,0,1.784-.254,2.334-.763s.826-1.225.826-2.148c0-.828-.275-1.473-.826-1.935-.55-.461-1.329-.692-2.334-.692h-8.238v-4.687h8.397c1.669,0,3.095.275,4.278.825s2.083,1.35,2.699,2.397c.615,1.047.923,2.305.923,3.772,0,1.006-.199,1.897-.595,2.672-.397.775-.974,1.411-1.731,1.908-.758.497-1.669.834-2.734,1.012,1.136.154,2.11.5,2.92,1.039s1.426,1.24,1.847,2.104c.42.864.63,1.864.63,3v.053c0,1.479-.311,2.746-.932,3.799-.622,1.054-1.527,1.855-2.716,2.406-1.189.55-2.619.825-4.288.825h-8.699v-4.687Z"/>
      <path d="M421.72,258.546c-1.426-.787-2.53-1.899-3.311-3.338-.781-1.438-1.171-3.104-1.171-4.998v-7.314c0-1.893.39-3.559,1.171-4.997s1.885-2.551,3.311-3.338,3.074-1.181,4.944-1.181,3.518.394,4.944,1.181c1.426.787,2.53,1.9,3.311,3.338.781,1.438,1.171,3.104,1.171,4.997v7.314c0,1.894-.391,3.56-1.171,4.998-.781,1.438-1.885,2.551-3.311,3.338-1.426.787-3.074,1.181-4.944,1.181s-3.518-.394-4.944-1.181ZM428.972,254.303c.663-.373,1.174-.902,1.536-1.589.361-.687.542-1.479.542-2.379v-7.563c0-.899-.181-1.692-.542-2.379-.361-.687-.873-1.216-1.536-1.589-.663-.373-1.433-.559-2.308-.559s-1.645.186-2.308.559c-.663.373-1.175.902-1.536,1.589s-.542,1.479-.542,2.379v7.563c0,.899.181,1.692.542,2.379s.873,1.216,1.536,1.589c.663.373,1.432.559,2.308.559s1.645-.187,2.308-.559Z"/>
      <path d="M438.816,233.647h18.925v4.687h-18.925v-4.687ZM445.847,235.759h4.864v23.701h-4.864v-23.701Z"/>
      <path d="M461.708,233.647h4.865v25.813h-4.865v-25.813ZM463.963,244.316h15.037v4.687h-15.037v-4.687ZM475.84,233.647h4.864v25.813h-4.864v-25.813Z"/>
      <path d="M391.043,284.233h5.006l5.485,17.221,5.486-17.221h5.006l-8.592,25.813h-3.799l-8.592-25.813Z"/>
      <path d="M416.438,314.945h-4.616l11.54-33.766h4.616l-11.54,33.766Z"/>
      <path d="M435.461,309.185c-1.409-.751-2.479-1.846-3.213-3.284-.734-1.438-1.101-3.169-1.101-5.192v-16.476h4.864v16.6c0,1.479.396,2.627,1.189,3.444.793.816,1.912,1.225,3.355,1.225,1.456,0,2.583-.408,3.382-1.225.799-.817,1.198-1.965,1.198-3.444v-16.6h4.864v16.476c0,2.023-.37,3.755-1.109,5.192-.74,1.438-1.817,2.533-3.231,3.284-1.414.752-3.116,1.128-5.104,1.128s-3.687-.376-5.095-1.128Z"/>
      <path d="M456.099,284.233h4.865v25.813h-4.865v-25.813ZM458.353,294.902h15.037v4.687h-15.037v-4.687ZM470.23,284.233h4.864v25.813h-4.864v-25.813Z"/>
      <path d="M481.902,284.233h4.865v25.813h-4.865v-25.813ZM483.678,284.233h15.179v4.688h-15.179v-4.688ZM483.678,295.115h13.226v4.688h-13.226v-4.688Z"/>
      <path d="M513.326,305.661l8.859-11.646c.402-.521.713-1.057.932-1.606.219-.551.329-1.062.329-1.536v-.035c0-.698-.225-1.236-.675-1.615s-1.089-.568-1.917-.568c-.805,0-1.456.264-1.953.79s-.799,1.275-.905,2.246v.018h-4.989v-.018c.106-1.609.494-2.994,1.163-4.154.668-1.16,1.571-2.045,2.707-2.654s2.45-.914,3.941-.914c1.609,0,2.985.264,4.127.79s2.012,1.293,2.61,2.299.896,2.219.896,3.64v.018c0,1.172-.204,2.334-.612,3.488s-.979,2.198-1.713,3.134l-6.355,8.024h8.823v4.687h-15.268v-4.385Z"/>
    </g>
    <g>
      <rect x="394.026" y="357.935" width="267.786" height="208.653" fill="none"/>
      <path d="M396.867,398.769h4.865v25.813h-4.865v-25.813ZM398.997,419.896h8.238c1.112,0,1.973-.27,2.583-.808.609-.539.914-1.293.914-2.264v-.054c0-.65-.136-1.207-.408-1.669-.272-.461-.672-.813-1.198-1.056-.527-.243-1.157-.364-1.891-.364h-8.238v-4.687h8.238c1.006,0,1.784-.255,2.334-.764s.826-1.225.826-2.148c0-.828-.275-1.474-.826-1.935-.55-.462-1.329-.692-2.334-.692h-8.238v-4.688h8.397c1.669,0,3.095.275,4.278.826,1.184.55,2.083,1.349,2.699,2.396.615,1.047.923,2.305.923,3.772,0,1.006-.199,1.896-.595,2.672-.397.775-.974,1.411-1.731,1.908-.758.497-1.669.835-2.734,1.012,1.136.154,2.11.501,2.92,1.039.811.539,1.426,1.24,1.847,2.104.42.864.63,1.864.63,3v.054c0,1.479-.311,2.746-.932,3.799-.622,1.054-1.527,1.855-2.716,2.406-1.189.55-2.619.825-4.288.825h-8.699v-4.687Z"/>
      <path d="M421.463,398.769h4.865v25.813h-4.865v-25.813ZM423.594,419.896h8.238c1.112,0,1.973-.27,2.583-.808.609-.539.914-1.293.914-2.264v-.054c0-.65-.136-1.207-.408-1.669-.272-.461-.672-.813-1.198-1.056-.527-.243-1.157-.364-1.891-.364h-8.238v-4.687h8.238c1.006,0,1.784-.255,2.334-.764s.826-1.225.826-2.148c0-.828-.275-1.474-.826-1.935-.55-.462-1.329-.692-2.334-.692h-8.238v-4.688h8.397c1.669,0,3.095.275,4.278.826,1.184.55,2.083,1.349,2.699,2.396.615,1.047.923,2.305.923,3.772,0,1.006-.199,1.896-.595,2.672-.397.775-.974,1.411-1.731,1.908-.758.497-1.669.835-2.734,1.012,1.136.154,2.11.501,2.92,1.039.811.539,1.426,1.24,1.847,2.104.42.864.63,1.864.63,3v.054c0,1.479-.311,2.746-.932,3.799-.622,1.054-1.527,1.855-2.716,2.406-1.189.55-2.619.825-4.288.825h-8.699v-4.687Z"/>
      <path d="M404.252,449.355h3.089l9.871,25.813h-5.237l-6.178-17.629-6.178,17.629h-5.237l9.871-25.813ZM399.121,466.345h13.581v4.687h-13.581v-4.687Z"/>
      <path d="M424.073,474.307c-1.409-.751-2.479-1.846-3.213-3.284-.734-1.438-1.101-3.169-1.101-5.192v-16.476h4.864v16.6c0,1.479.396,2.627,1.189,3.444.793.816,1.912,1.225,3.355,1.225,1.456,0,2.583-.408,3.382-1.225.799-.817,1.198-1.965,1.198-3.444v-16.6h4.864v16.476c0,2.023-.37,3.755-1.109,5.192-.74,1.438-1.817,2.533-3.231,3.284-1.414.752-3.116,1.128-5.104,1.128s-3.687-.376-5.095-1.128Z"/>
      <path d="M441.516,449.355h18.925v4.688h-18.925v-4.688ZM448.546,451.468h4.864v23.7h-4.864v-23.7Z"/>
      <path d="M467.647,474.254c-1.426-.787-2.53-1.899-3.311-3.338-.781-1.438-1.171-3.104-1.171-4.997v-7.314c0-1.894.39-3.56,1.171-4.998.781-1.438,1.885-2.55,3.311-3.337s3.074-1.181,4.944-1.181,3.518.394,4.944,1.181c1.426.787,2.53,1.899,3.311,3.337.781,1.438,1.171,3.104,1.171,4.998v7.314c0,1.894-.391,3.56-1.171,4.997-.781,1.438-1.885,2.551-3.311,3.338-1.426.787-3.074,1.181-4.944,1.181s-3.518-.394-4.944-1.181ZM474.9,470.011c.663-.373,1.174-.902,1.536-1.589.361-.687.542-1.479.542-2.379v-7.563c0-.898-.181-1.692-.542-2.379-.361-.686-.873-1.216-1.536-1.589-.663-.372-1.433-.559-2.308-.559s-1.645.187-2.308.559c-.663.373-1.175.903-1.536,1.589-.361.687-.542,1.48-.542,2.379v7.563c0,.899.181,1.692.542,2.379s.873,1.216,1.536,1.589c.663.373,1.432.56,2.308.56s1.645-.187,2.308-.56Z"/>
      <path d="M396.867,499.941h4.865v25.813h-4.865v-25.813ZM399.317,521.067h6.196c1.598,0,2.834-.385,3.71-1.154.875-.77,1.313-1.858,1.313-3.267v-7.599c0-1.408-.438-2.497-1.313-3.267-.876-.769-2.113-1.153-3.71-1.153h-6.196v-4.688h6.089c2.154,0,3.991.361,5.512,1.083,1.521.723,2.678,1.775,3.471,3.16s1.189,3.054,1.189,5.007v7.314c0,1.857-.381,3.479-1.145,4.864-.763,1.385-1.908,2.462-3.435,3.23-1.527.77-3.397,1.154-5.61,1.154h-6.071v-4.687Z"/>
      <path d="M421.499,499.941h4.865v25.813h-4.865v-25.813ZM423.718,511.055h8.255c.58,0,1.092-.134,1.536-.399.444-.267.79-.643,1.039-1.128s.373-1.041.373-1.669c0-.639-.121-1.204-.364-1.695s-.586-.87-1.03-1.136c-.444-.267-.961-.399-1.553-.399h-8.255v-4.688h8.131c1.61,0,3.027.329,4.252.985,1.225.657,2.175,1.583,2.85,2.778.674,1.196,1.012,2.581,1.012,4.154s-.337,2.956-1.012,4.146c-.675,1.189-1.625,2.11-2.85,2.761-1.225.651-2.642.977-4.252.977h-8.131v-4.687Z"/>
    </g>
    <circle cx="325.55" cy="253.588" r="54.538" fill="none" stroke="#000" stroke-miterlimit="10" stroke-width="3"/>
    <circle cx="326.34" cy="252.798" r="42.682" fill="none" stroke="#000" stroke-miterlimit="10" stroke-width="3"/>
    <rect x="294.724" y="157.949" width="63.232" height="60.071" fill="#fff" stroke="#000" stroke-miterlimit="10" stroke-width="3"/>
    <path d="M357.957,218.02h-63.232l9.535,38.139c.523,12.196,10.547,21.931,22.872,21.931,12.659,0,22.922-10.262,22.922-22.922,0-.072-.01-.141-.011-.213l7.915-36.936Z" fill="none" stroke="#000" stroke-miterlimit="10" stroke-width="3"/>
    <circle cx="326.916" cy="472.173" r="54.538" fill="none" stroke="#000" stroke-miterlimit="10" stroke-width="3"/>
    <circle cx="327.707" cy="471.383" r="42.682" fill="none" stroke="#000" stroke-miterlimit="10" stroke-width="3"/>
    <path d="M357.957,426.686l-61.651,1.581,9.32,46.477c.523,12.196,10.547,21.931,22.872,21.931,12.659,0,22.922-10.262,22.922-22.922,0-.072-.01-.141-.011-.213l6.549-46.855Z" fill="none" stroke="#000" stroke-miterlimit="10" stroke-width="3"/>
    <circle cx="327.131" cy="422.734" r="30.826" fill="#fff" stroke="#000" stroke-miterlimit="10" stroke-width="3"/>
    <circle cx="625.379" cy="257.813" r="54.538" fill="none" stroke="#000" stroke-miterlimit="10" stroke-width="3"/>
    <circle cx="626.17" cy="257.023" r="42.682" fill="none" stroke="#000" stroke-miterlimit="10" stroke-width="3"/>
    <path d="M656.42,212.326l-61.651,1.581,9.32,46.477c.523,12.196,10.547,21.931,22.872,21.931,12.659,0,22.922-10.262,22.922-22.922,0-.072-.01-.141-.011-.213l6.549-46.855Z" fill="none" stroke="#000" stroke-miterlimit="10" stroke-width="3"/>
    <circle cx="625.594" cy="208.374" r="30.826" fill="#fff" stroke="#000" stroke-miterlimit="10" stroke-width="3"/>
    <circle cx="624.323" cy="466.997" r="52.957" fill="none" stroke="#000" stroke-miterlimit="10" stroke-width="3"/>
    <line x1="574.527" y1="466.207" x2="610.886" y2="466.207" fill="none" stroke="#000" stroke-miterlimit="10" stroke-width="8"/>
  </g>
  <g id="b" data-name="Arrow_Light">
    <path d="M912.485,766.274h48.062v7.774h-58.697v-7.747l10.219-11.153c5.357-5.967,10.271-11.437,14.936-16.412,2.316-2.316,4.638-5.026,6.881-7.646,2.344-2.732,11.708-13.271,11.708-13.271,1.062-1.069,1.66-1.823,2.061-2.321.237-.299.438-.54.606-.727,1.139-1.45,2.096-3.285,2.771-5.314.642-1.924.968-3.463.968-6.546,0-2.647-.548-5.271-1.628-7.798-.984-2.608-2.551-4.49-4.619-6.558-2.359-1.943-4.594-3.344-6.779-4.159-6.25-2.345-10.461-2.341-16.703,0-2.861,1.072-5.015,2.395-6.783,4.163-2.041,2.041-3.682,4.369-4.619,6.558l-7.145-3.063c1.338-3.121,3.507-6.231,6.267-8.991,2.55-2.546,5.671-4.489,9.552-5.943,7.953-2.993,14.191-2.993,22.164,0,3.978,1.492,7.203,3.973,9.287,5.706,2.551,2.531,5.101,5.415,6.594,9.396,1.434,3.332,2.191,6.986,2.191,10.694,0,4.09-.524,6.477-1.368,9.007-.976,2.931-2.413,5.633-4.151,7.806l-.533.634c-.521.653-1.302,1.629-2.476,2.799.008,0-9.155,10.309-11.46,12.999-2.34,2.729-4.758,5.551-7.199,7.992-4.544,4.848-9.419,10.278-14.736,16.198l-5.365,5.929-.004-.004Z" fill="#e3831f" stroke="#e3831f" stroke-miterlimit="10" stroke-width="3"/>
    <path d="M900.626,546.291l19.772-.264,2.756,96.574c-41.743,4.009-74.232,39.539-73.662,82.202.6,44.943,37.653,81.018,82.596,80.418,44.942-.6,81.018-37.653,80.417-82.596-.57-42.664-33.996-77.313-75.831-80.205l-2.756-96.574,19.772-.264-28.041-112.526-25.024,113.235ZM930.072,654.361c38.303-.512,69.768,30.124,70.28,68.427.512,38.303-30.124,69.768-68.427,70.28-38.303.512-69.768-30.124-70.28-68.427-.512-38.303,30.124-69.768,68.427-70.28Z" stroke="#fff" stroke-miterlimit="10" stroke-width="4"/>
  </g>
</svg>