<?xml version="1.0" encoding="UTF-8"?>
<svg id="b" data-name="NOTCH_FPOLE_-_Light" xmlns="http://www.w3.org/2000/svg" width="2061.538" height="202.972" viewBox="0 0 2061.538 202.972">
  <g id="c" data-name="CompassMarker">
    <path id="d" data-name="path98" d="M1029.72,28.113h24.701l-24.701,49.402-24.701-49.402h24.701Z" fill="none" stroke="#000" stroke-miterlimit="10" stroke-width="6"/>
  </g>
  <rect id="e" data-name="CmdCue" x="601.486" y="79.605" width="13.339" height="42.98" fill="none" stroke="#000" stroke-miterlimit="10" stroke-width="6"/>
  <line x1="804.42" y1="77.515" x2="804.42" y2="123.873" fill="none" stroke="#000" stroke-miterlimit="10" stroke-width="6"/>
  <line x1="1070.913" y1="77.515" x2="1070.913" y2="123.873" fill="none" stroke="#000" stroke-miterlimit="10" stroke-width="6"/>
  <line x1="1337.407" y1="77.515" x2="1337.407" y2="123.873" fill="none" stroke="#000" stroke-miterlimit="10" stroke-width="6"/>
  <line x1="1470.654" y1="77.515" x2="1470.654" y2="105.161" fill="none" stroke="#000" stroke-miterlimit="10" stroke-width="6"/>
  <line x1="1204.16" y1="77.515" x2="1204.16" y2="100.694" fill="none" stroke="#000" stroke-miterlimit="10" stroke-width="6"/>
  <g>
    <path d="M800.017,163.612c1.76,0,3.187,1.427,3.187,3.187s-1.427,3.187-3.187,3.187h-23.849c-.439,0-.861-.093-1.241-.253-.025-.009-.042-.033-.067-.046-.367-.165-.697-.393-.971-.676-.013-.013-.029-.017-.042-.029-.114-.118-.161-.271-.249-.401-.139-.198-.292-.384-.38-.612-.089-.231-.11-.473-.144-.717-.025-.156-.093-.292-.093-.452,0-.017.008-.034.008-.051.004-.262.084-.511.152-.764.042-.147.046-.312.105-.452.055-.131.165-.236.241-.358.139-.232.274-.469.469-.658.013-.013.029-.043.029-.043l18.15-17.011c2.744-2.579,4.242-5.373,4.111-7.665-.088-1.604-.975-3.01-2.697-4.293-1.161-.856-2.815-1.312-4.765-1.312-3.761,0-6.703.642-8.856,3.77-.996,1.456-2.976,1.819-4.432.823-1.448-.996-1.815-2.98-.819-4.433,4.491-6.529,11.477-6.529,14.107-6.529,3.322,0,6.281.886,8.56,2.562,4.103,3.061,5.128,6.61,5.268,9.055.24,4.237-1.929,8.737-6.117,12.676l-12.274,11.506h15.791l.004-.008Z"/>
    <path d="M839.768,135.867v26.086c0,4.437-3.909,8.041-8.716,8.041h-12.79c-4.888,0-8.716-3.533-8.716-8.041v-26.086c0-4.437,3.909-8.041,8.716-8.041h12.79c4.808,0,8.716,3.604,8.716,8.041ZM833.394,135.867c0-.92-1.051-1.672-2.343-1.672h-12.79c-1.342,0-2.342.883-2.342,1.672v26.086c0,.92,1.051,1.672,2.342,1.672h12.79c1.342,0,2.343-.883,2.343-1.672v-26.086Z"/>
  </g>
  <g>
    <path d="M1066.382,163.612c1.76,0,3.188,1.427,3.188,3.187s-1.428,3.187-3.188,3.187h-23.85c-.438,0-.86-.093-1.24-.253-.025-.009-.043-.033-.067-.046-.367-.165-.696-.393-.972-.676-.012-.013-.029-.017-.041-.029-.115-.118-.161-.271-.25-.401-.139-.198-.291-.384-.379-.612-.09-.231-.11-.473-.145-.717-.025-.156-.092-.292-.092-.452,0-.017.008-.034.008-.051.004-.262.084-.511.152-.764.042-.147.046-.312.105-.452.055-.131.164-.236.24-.358.139-.232.274-.469.469-.658.013-.013.029-.043.029-.043l18.15-17.011c2.744-2.579,4.242-5.373,4.111-7.665-.088-1.604-.975-3.01-2.697-4.293-1.16-.856-2.815-1.312-4.766-1.312-3.761,0-6.703.642-8.855,3.77-.996,1.456-2.977,1.819-4.432.823-1.448-.996-1.815-2.98-.819-4.433,4.491-6.529,11.478-6.529,14.106-6.529,3.322,0,6.281.886,8.561,2.562,4.104,3.061,5.129,6.61,5.268,9.055.24,4.237-1.929,8.737-6.116,12.676l-12.274,11.506h15.791l.004-.008Z"/>
    <path d="M1102.946,163.612c1.76,0,3.188,1.427,3.188,3.187s-1.428,3.187-3.188,3.187h-23.85c-.438,0-.86-.093-1.24-.253-.025-.009-.043-.033-.067-.046-.367-.165-.696-.393-.972-.676-.012-.013-.029-.017-.041-.029-.115-.118-.161-.271-.25-.401-.139-.198-.291-.384-.379-.612-.09-.231-.11-.473-.145-.717-.025-.156-.092-.292-.092-.452,0-.017.008-.034.008-.051.004-.262.084-.511.152-.764.042-.147.046-.312.105-.452.055-.131.164-.236.24-.358.139-.232.274-.469.469-.658.013-.013.029-.043.029-.043l18.15-17.011c2.744-2.579,4.242-5.373,4.111-7.665-.088-1.604-.975-3.01-2.697-4.293-1.16-.856-2.815-1.312-4.766-1.312-3.761,0-6.703.642-8.855,3.77-.996,1.456-2.977,1.819-4.432.823-1.448-.996-1.815-2.98-.819-4.433,4.491-6.529,11.478-6.529,14.106-6.529,3.322,0,6.281.886,8.561,2.562,4.104,3.061,5.129,6.61,5.268,9.055.24,4.237-1.929,8.737-6.116,12.676l-12.274,11.506h15.791l.004-.008Z"/>
  </g>
  <g>
    <path d="M1331.801,163.612c1.761,0,3.188,1.427,3.188,3.187s-1.427,3.187-3.188,3.187h-23.849c-.439,0-.861-.093-1.241-.253-.025-.009-.042-.033-.067-.046-.367-.165-.696-.393-.971-.676-.013-.013-.029-.017-.042-.029-.114-.118-.161-.271-.249-.401-.14-.198-.292-.384-.38-.612-.089-.231-.11-.473-.144-.717-.025-.156-.093-.292-.093-.452,0-.017.008-.034.008-.051.005-.262.085-.511.152-.764.042-.147.046-.312.105-.452.055-.131.165-.236.24-.358.14-.232.274-.469.469-.658.013-.013.029-.043.029-.043l18.15-17.011c2.744-2.579,4.242-5.373,4.111-7.665-.088-1.604-.975-3.01-2.697-4.293-1.16-.856-2.815-1.312-4.766-1.312-3.761,0-6.702.642-8.855,3.77-.996,1.456-2.976,1.819-4.432.823-1.448-.996-1.815-2.98-.819-4.433,4.491-6.529,11.478-6.529,14.106-6.529,3.322,0,6.281.886,8.561,2.562,4.104,3.061,5.129,6.61,5.268,9.055.241,4.237-1.929,8.737-6.116,12.676l-12.274,11.506h15.791l.004-.008Z"/>
    <path d="M1367.672,147.302c1.385.351,2.406,1.6,2.406,3.09s-1.021,2.739-2.406,3.09v13.33c0,1.76-1.427,3.187-3.187,3.187s-3.188-1.427-3.188-3.187v-13.237h-16.778c-1.245,0-2.377-.718-2.896-1.849-.523-1.131-.338-2.461.469-3.406l16.546-19.375c.604-.709,1.49-1.118,2.423-1.118h3.419c1.761,0,3.188,1.427,3.188,3.187v16.28l.004.009ZM1361.294,135.648l-9.864,11.553h9.864v-11.553Z"/>
  </g>
  <line x1="937.667" y1="77.515" x2="937.667" y2="100.694" fill="none" stroke="#000" stroke-miterlimit="10" stroke-width="6"/>
  <line x1="671.173" y1="77.515" x2="671.173" y2="100.694" fill="none" stroke="#000" stroke-miterlimit="10" stroke-width="6"/>
  <rect id="f" data-name="CmdCue" x="876.366" y="77.515" width="13.339" height="47.16"/>
  <rect id="g" data-name="CmdCue" x="681.818" y="77.515" width="13.339" height="47.16"/>
  <rect id="h" data-name="CmdCue" x="702.953" y="77.515" width="13.339" height="47.16"/>
</svg>