<?xml version="1.0" encoding="UTF-8"?>
<svg id="b" data-name="Navigation_Data_Readout_-_Light" xmlns="http://www.w3.org/2000/svg" width="2061.538" height="216.432" viewBox="0 0 2061.538 216.432">
  <g>
    <path d="M603.866,72.61c1.392,0,2.519,1.128,2.519,2.519s-1.127,2.519-2.519,2.519h-6.889v25.706c0,1.391-1.128,2.519-2.519,2.519s-2.519-1.128-2.519-2.519v-25.706h-6.89c-1.391,0-2.519-1.128-2.519-2.519s1.127-2.519,2.519-2.519h18.817Z"/>
    <path d="M635.23,75.129v23.521c0,.667-.264,1.308-.737,1.778l-4.701,4.704c-.98.987-2.569.984-3.556.01l-2.93-2.909-2.929,2.909c-.49.487-1.134.731-1.775.731s-1.291-.247-1.781-.737l-4.705-4.704c-.474-.471-.737-1.115-.737-1.782v-23.521c0-1.391,1.128-2.519,2.519-2.519s2.519,1.128,2.519,2.519v22.477l2.192,2.192,2.179-2.165v-6.022c0-1.392,1.127-2.519,2.519-2.519s2.519,1.127,2.519,2.519v6.022l2.179,2.165,2.188-2.192v-22.477c0-1.391,1.128-2.519,2.519-2.519s2.519,1.128,2.519,2.519Z"/>
    <path d="M661.612,89.295c1.615,1.618,2.505,3.763,2.505,6.052v1.535c0,2.656-1.271,5.202-3.403,6.813l-.754.541c-1.451,1.067-3.263,1.671-5.071,1.671h-5.572c-1.675,0-3.306-.49-4.718-1.418l-2.015-1.338c-1.161-.774-1.471-2.335-.704-3.493.774-1.161,2.335-1.468,3.493-.704l2.005,1.331c.567.377,1.261.584,1.942.584h5.571c.741,0,1.488-.25,2.109-.711l.73-.524c.824-.62,1.348-1.668,1.348-2.752v-1.535c0-.94-.37-1.821-1.034-2.489-.664-.667-1.548-1.034-2.485-1.034h-6.773c-2.285,0-4.437-.891-6.052-2.502-1.615-1.621-2.506-3.77-2.506-6.052v-2.069c0-2.285.891-4.434,2.506-6.052,1.615-1.615,3.763-2.506,6.052-2.506h6.272c1.698,0,3.336.491,4.734,1.421l2.001,1.338c1.158.771,1.468,2.339.697,3.493-.771,1.154-2.329,1.478-3.493.694l-2.001-1.334c-.567-.377-1.238-.577-1.938-.577h-6.272c-.94,0-1.828.367-2.489,1.031-.667.667-1.034,1.555-1.034,2.492v2.069c0,.938.37,1.825,1.034,2.492.661.664,1.548,1.027,2.489,1.027h6.773c2.282,0,4.431.891,6.049,2.506h.003Z"/>
    <path d="M691.517,80.573c.984,1.194,1.535,2.712,1.535,4.264v18.517c0,1.391-1.128,2.519-2.519,2.519s-2.519-1.128-2.519-2.519v-11.594h-13.846v11.594c0,1.391-1.127,2.519-2.519,2.519s-2.519-1.128-2.519-2.519v-18.517c0-1.521.523-2.982,1.511-4.234l4.23-5.168c3.013-3.606,9.455-3.586,12.428-.017l4.22,5.155h-.003ZM674.174,86.719h13.849v-1.885c0-.387-.137-.754-.391-1.061l-4.214-5.148c-1.011-1.211-3.616-1.231-4.657.02l-4.187,5.121c-.357.444-.4.827-.4,1.071v1.882Z"/>
  </g>
  <g>
    <path d="M591.579,118.693c1.628,2.005,2.539,4.581,2.539,7.23v10.105c0,2.643-.881,5.145-2.549,7.24-2.255,2.776-5.548,4.357-9.045,4.357h-9.775c-1.391,0-2.519-1.127-2.519-2.519v-28.225c0-1.391,1.128-2.552,2.519-2.552h9.775c3.523,0,6.91,1.631,9.055,4.367v-.003ZM589.08,125.926c0-1.495-.51-2.946-1.438-4.087-1.225-1.562-3.126-2.472-5.118-2.472h-7.256v23.224h7.256c1.945,0,3.86-.924,5.118-2.475.934-1.175,1.438-2.596,1.438-4.084v-10.105Z"/>
    <path d="M620.498,142.551c1.391,0,2.519,1.128,2.519,2.519s-1.128,2.519-2.519,2.519h-18.85c-1.391,0-2.519-1.128-2.519-2.519v-28.225c0-1.391,1.128-2.519,2.519-2.519h18.85c1.391,0,2.519,1.128,2.519,2.519s-1.128,2.519-2.519,2.519h-16.331v9.078h12.794c1.392,0,2.519,1.127,2.519,2.519s-1.127,2.519-2.519,2.519h-12.794v9.075h16.331v-.003Z"/>
    <path d="M649.411,131.014c1.615,1.618,2.505,3.763,2.505,6.052v1.535c0,2.656-1.271,5.202-3.403,6.813l-.754.541c-1.451,1.067-3.263,1.671-5.071,1.671h-5.572c-1.675,0-3.306-.49-4.718-1.418l-2.015-1.338c-1.161-.774-1.471-2.335-.704-3.493.774-1.161,2.335-1.468,3.493-.704l2.005,1.331c.567.377,1.261.584,1.942.584h5.571c.741,0,1.488-.25,2.109-.711l.73-.524c.824-.62,1.348-1.668,1.348-2.752v-1.535c0-.94-.37-1.821-1.034-2.489-.664-.667-1.548-1.034-2.485-1.034h-6.773c-2.285,0-4.437-.891-6.052-2.502-1.615-1.621-2.506-3.77-2.506-6.052v-2.069c0-2.285.891-4.434,2.506-6.052,1.615-1.615,3.763-2.506,6.052-2.506h6.272c1.698,0,3.336.491,4.734,1.421l2.001,1.338c1.158.771,1.468,2.339.697,3.493-.771,1.154-2.329,1.478-3.493.694l-2.001-1.334c-.567-.377-1.238-.577-1.938-.577h-6.272c-.94,0-1.828.367-2.489,1.031-.667.667-1.034,1.555-1.034,2.492v2.069c0,.938.37,1.825,1.034,2.492.661.664,1.548,1.027,2.489,1.027h6.773c2.282,0,4.431.891,6.049,2.506h.003Z"/>
    <path d="M678.265,114.329c1.392,0,2.519,1.128,2.519,2.519s-1.127,2.519-2.519,2.519h-6.889v25.706c0,1.391-1.128,2.519-2.519,2.519s-2.519-1.128-2.519-2.519v-25.706h-6.89c-1.391,0-2.519-1.128-2.519-2.519s1.127-2.519,2.519-2.519h18.817Z"/>
  </g>
  <g>
    <path d="M323.623,68.156c1.392,0,2.519,1.128,2.519,2.519s-1.127,2.519-2.519,2.519h-6.889v25.706c0,1.391-1.128,2.519-2.519,2.519s-2.519-1.128-2.519-2.519v-25.706h-6.89c-1.391,0-2.519-1.128-2.519-2.519s1.127-2.519,2.519-2.519h18.817Z"/>
    <path d="M351.114,94.48c1.174-.744,2.729-.407,3.48.767s.407,2.729-.768,3.48l-1.935,1.234c-1.595.984-3.356,1.495-5.125,1.495h-6.172c-2.102,0-4.157-.697-5.785-1.968-2.292-1.752-3.673-4.558-3.673-7.49v-14.35c0-2.933,1.378-5.738,3.69-7.503,1.611-1.254,3.667-1.952,5.769-1.952h6.172c1.842,0,3.62.521,5.142,1.505l1.921,1.224c1.171.751,1.515,2.306.768,3.48-.751,1.167-2.306,1.515-3.48.768l-1.935-1.235c-.717-.467-1.548-.707-2.416-.707h-6.172c-.984,0-1.942.32-2.689.904-1.091.834-1.731,2.145-1.731,3.516v14.35c0,1.371.641,2.683,1.715,3.503.768.594,1.725.917,2.709.917h6.172c.834,0,1.678-.25,2.446-.727l1.905-1.214-.007.003Z"/>
    <path d="M383.84,70.675v28.225c0,1.111-.728,2.088-1.789,2.412-.244.07-.487.107-.73.107-.828,0-1.618-.407-2.095-1.121l-14.203-21.302v19.904c0,1.391-1.128,2.519-2.519,2.519s-2.519-1.128-2.519-2.519v-28.225c0-1.111.728-2.089,1.789-2.412,1.054-.32,2.208.09,2.826,1.014l14.203,21.302v-19.904c0-1.391,1.128-2.519,2.519-2.519s2.519,1.128,2.519,2.519Z"/>
    <path d="M465.517,83.712c1.548,1.548,2.402,3.603,2.402,5.782v2.369c0,3.029-1.441,5.905-3.854,7.697-1.631,1.234-3.623,1.895-5.738,1.895h-2.102c-1.912,0-7.593-1.061-9.602-2.069l-1.147-.54c-1.258-.594-1.795-2.095-1.201-3.353.594-1.261,2.092-1.792,3.353-1.201l1.201.567c1.114.557,5.922,1.562,7.4,1.562h2.102c1.007,0,1.945-.31,2.716-.891,1.171-.874,1.835-2.206,1.835-3.667v-2.369c0-.834-.331-1.621-.931-2.222l-.404-.404c-.48-.484-1.144-.761-1.818-.761h-4.971c-.971,0-1.858-.561-2.275-1.441s-.291-1.918.327-2.672l7.247-8.868h-10.002c-1.392,0-2.519-1.128-2.519-2.519s1.127-2.519,2.519-2.519h15.313c.971,0,1.858.561,2.275,1.441.417.877.29,1.918-.327,2.672l-7.253,8.875c1.885.083,3.71.888,5.051,2.229l.403.404v.003Z"/>
    <path d="M494.708,83.475c1.855,2.159,1.805,4.21,1.762,5.862l-.014.757c0,3.083-.974,5.822-2.672,7.523-1.455,1.451-3.457,2.516-5.492,2.923-1.568.313-10.056.73-12.621.847h-.12c-1.338,0-2.452-1.054-2.516-2.402-.063-1.388,1.008-2.566,2.399-2.633,5.151-.243,11-.59,11.871-.757,1.054-.213,2.172-.804,2.916-1.548.554-.554,1.198-1.922,1.198-3.96l.013-.884c.033-1.398.02-1.789-.541-2.442-.634-.73-1.158-.871-2.402-.924h-12.938c-1.385,0-2.509-1.115-2.519-2.499l-.1-12.715c-.003-.674.257-1.318.731-1.795.474-.477,1.118-.744,1.788-.744h17.282c1.391,0,2.519,1.128,2.519,2.519s-1.128,2.519-2.519,2.519h-14.743l.06,7.677h10.546c2.099.09,4.201.471,6.109,2.672l.003.003Z"/>
    <path d="M506.519,100.732v.07c0,1.391-1.128,2.519-2.519,2.519s-2.519-1.128-2.519-2.519,1.128-2.556,2.519-2.556,2.519,1.094,2.519,2.485Z"/>
    <path d="M532.9,96.373c1.391,0,2.519,1.128,2.519,2.519s-1.127,2.519-2.519,2.519h-18.85c-.347,0-.681-.073-.981-.2-.02-.007-.034-.027-.054-.037-.29-.13-.55-.311-.767-.534-.01-.01-.023-.014-.033-.023-.09-.094-.127-.214-.197-.317-.11-.157-.23-.304-.3-.484-.07-.184-.086-.374-.113-.567-.02-.124-.073-.23-.073-.357,0-.013.006-.026.006-.04.003-.207.067-.404.12-.604.034-.117.037-.247.083-.357.043-.103.13-.187.19-.283.11-.184.217-.371.37-.521.01-.01.023-.034.023-.034l14.346-13.445c2.168-2.039,3.353-4.247,3.25-6.059-.07-1.268-.771-2.379-2.132-3.393-.917-.677-2.226-1.038-3.767-1.038-2.973,0-5.298.507-7,2.979-.788,1.151-2.353,1.438-3.503.65-1.145-.787-1.435-2.355-.647-3.503,3.55-5.162,9.071-5.162,11.15-5.162,2.625,0,4.964.701,6.766,2.025,3.243,2.419,4.053,5.225,4.164,7.156.19,3.35-1.525,6.906-4.834,10.019l-9.702,9.095h12.481l.003-.007Z"/>
  </g>
  <g>
    <path d="M261.571,129.592c1.675,1.558,2.723,3.78,2.723,6.242v3.336c0,4.681-3.81,8.491-8.491,8.491h-12.845c-1.391,0-2.519-1.127-2.519-2.519v-28.225c0-1.391,1.128-2.519,2.519-2.519h12.578c2.562,0,4.924,1.275,6.315,3.413.804,1.181,1.241,2.639,1.241,4.177v3.169c0,1.838-.611,3.31-1.525,4.434h.003ZM245.48,119.443v7.874h10.519c.581-.11,2.059-.547,2.059-2.155v-3.169c0-.534-.137-.998-.4-1.388-.494-.757-1.258-1.167-2.122-1.167h-10.059l.003.007ZM259.256,135.838c0-1.789-1.354-3.267-3.089-3.466-.133.013-.267.013-.397.013h-10.292v10.242h10.326c1.905,0,3.453-1.551,3.453-3.453v-3.336Z"/>
    <path d="M291.677,122.329c.984,1.194,1.535,2.712,1.535,4.264v18.517c0,1.391-1.128,2.519-2.519,2.519s-2.519-1.128-2.519-2.519v-11.594h-13.846v11.594c0,1.391-1.127,2.519-2.519,2.519s-2.519-1.128-2.519-2.519v-18.517c0-1.521.523-2.982,1.511-4.234l4.23-5.168c3.013-3.606,9.455-3.586,12.428-.017l4.22,5.155h-.003ZM274.335,128.475h13.849v-1.885c0-.387-.137-.754-.391-1.061l-4.214-5.148c-1.011-1.211-3.616-1.231-4.657.02l-4.187,5.121c-.357.444-.4.827-.4,1.071v1.882Z"/>
    <path d="M388.669,129.921c1.548,1.548,2.402,3.603,2.402,5.782v2.369c0,3.029-1.441,5.905-3.854,7.697-1.631,1.234-3.623,1.895-5.738,1.895h-2.102c-1.912,0-7.593-1.061-9.602-2.069l-1.147-.54c-1.258-.594-1.795-2.095-1.201-3.353.594-1.261,2.092-1.792,3.353-1.201l1.201.567c1.114.557,5.922,1.562,7.4,1.562h2.102c1.007,0,1.945-.31,2.715-.891,1.171-.874,1.835-2.206,1.835-3.667v-2.369c0-.834-.331-1.621-.931-2.222l-.404-.404c-.48-.484-1.144-.761-1.818-.761h-4.971c-.971,0-1.858-.561-2.275-1.441s-.291-1.918.327-2.672l7.247-8.868h-10.002c-1.392,0-2.519-1.128-2.519-2.519s1.127-2.519,2.519-2.519h15.313c.971,0,1.858.561,2.275,1.441.417.877.29,1.918-.327,2.672l-7.253,8.875c1.885.083,3.71.888,5.051,2.229l.403.404v.003Z"/>
    <path d="M417.569,129.921c1.548,1.548,2.402,3.603,2.402,5.782v2.369c0,3.029-1.441,5.905-3.854,7.697-1.631,1.234-3.623,1.895-5.738,1.895h-2.102c-1.912,0-7.593-1.061-9.602-2.069l-1.147-.54c-1.258-.594-1.795-2.095-1.201-3.353.594-1.261,2.092-1.792,3.353-1.201l1.201.567c1.114.557,5.922,1.562,7.4,1.562h2.102c1.007,0,1.945-.31,2.715-.891,1.171-.874,1.835-2.206,1.835-3.667v-2.369c0-.834-.331-1.621-.931-2.222l-.404-.404c-.48-.484-1.144-.761-1.818-.761h-4.971c-.971,0-1.858-.561-2.275-1.441s-.291-1.918.327-2.672l7.247-8.868h-10.002c-1.392,0-2.519-1.128-2.519-2.519s1.127-2.519,2.519-2.519h15.313c.971,0,1.858.561,2.275,1.441.417.877.29,1.918-.327,2.672l-7.253,8.875c1.885.083,3.71.888,5.051,2.229l.403.404v.003Z"/>
    <path d="M448.838,125.727c0,1.458-.544,2.883-1.518,4.037.974,1.158,1.518,2.579,1.518,4.037v7.276c0,1.778-.797,3.503-2.189,4.728-1.308,1.158-3.049,1.795-4.901,1.795h-9.675c-1.812,0-3.597-.654-4.898-1.795-1.415-1.248-2.192-2.926-2.192-4.728v-7.276c0-1.458.544-2.883,1.518-4.037-.978-1.161-1.518-2.585-1.518-4.037v-4.904c0-1.778.797-3.503,2.189-4.728,1.311-1.161,3.053-1.798,4.901-1.798h9.675c1.818,0,3.603.654,4.901,1.795,1.415,1.251,2.189,2.929,2.189,4.728v4.908ZM443.8,133.795c0-.333-.19-.688-.517-.978l-.617-.541h-11.517l-.621.544c-.32.287-.51.641-.51.974v7.276c0,.344.164.661.484.944.383.337.971.541,1.568.541h9.675c.611,0,1.185-.194,1.568-.537.307-.267.487-.621.487-.948v-7.276ZM430.025,120.823v4.904c0,.334.19.691.521.988l.607.53h11.521l.624-.544c.317-.283.507-.64.507-.974v-4.904c0-.347-.164-.667-.487-.951-.38-.333-.967-.537-1.568-.537h-9.675c-.61,0-1.181.197-1.565.537h-.003c-.304.267-.484.621-.484.947l.003.003Z"/>
    <path d="M477.263,122.449l-18.817,28.225c-.487.728-1.284,1.121-2.099,1.121-.48,0-.964-.137-1.395-.424-1.158-.774-1.468-2.335-.697-3.493l18.817-28.225c.774-1.154,2.332-1.464,3.493-.697,1.158.771,1.468,2.335.697,3.493Z"/>
    <path d="M504.168,129.921c1.548,1.548,2.402,3.603,2.402,5.782v2.369c0,3.029-1.441,5.905-3.854,7.697-1.631,1.234-3.623,1.895-5.738,1.895h-2.102c-1.912,0-7.593-1.061-9.602-2.069l-1.147-.54c-1.258-.594-1.795-2.095-1.201-3.353.594-1.261,2.092-1.792,3.353-1.201l1.201.567c1.114.557,5.922,1.562,7.4,1.562h2.102c1.007,0,1.945-.31,2.716-.891,1.171-.874,1.835-2.206,1.835-3.667v-2.369c0-.834-.331-1.621-.931-2.222l-.404-.404c-.48-.484-1.144-.761-1.818-.761h-4.971c-.971,0-1.858-.561-2.275-1.441s-.291-1.918.327-2.672l7.247-8.868h-10.002c-1.392,0-2.519-1.128-2.519-2.519s1.127-2.519,2.519-2.519h15.313c.971,0,1.858.561,2.275,1.441.417.877.29,1.918-.327,2.672l-7.253,8.875c1.885.083,3.71.888,5.051,2.229l.403.404v.003Z"/>
    <path d="M532.403,129.691c1.094.277,1.901,1.264,1.901,2.442s-.807,2.166-1.901,2.442v10.536c0,1.391-1.128,2.519-2.519,2.519s-2.519-1.127-2.519-2.519v-10.463h-13.262c-.984,0-1.878-.567-2.289-1.461-.414-.894-.267-1.945.37-2.692l13.079-15.313c.477-.561,1.178-.884,1.915-.884h2.702c1.392,0,2.519,1.128,2.519,2.519v12.868l.003.007ZM527.362,120.479l-7.797,9.132h7.797v-9.132Z"/>
  </g>
</svg>