<?xml version="1.0" encoding="UTF-8"?>
<svg xmlns="http://www.w3.org/2000/svg" width="5357.739" height="3033.391" viewBox="0 0 5357.739 3033.391">
  <g id="Layer_2">
    <path d="M1314.109,1092.977s23.478,29.739,24.261,31.043c.783,1.304,28.957,22.435,28.957,22.435l36.261-3.652,19.826-18.261,9.391-23.739s-7.304-31.826-8.348-33.391c-1.043-1.565-18.522-19.826-18.522-19.826,0,0-28.957-1.565-29.478-.783-.522.783-30.783,22.957-30.783,22.957l-31.043,22.174-.522,1.043Z" fill="#cd3032"/>
  </g>
  <g id="Layer_1">
    <g>
      <path d="M1234.135,399.705c47.755,5.359,94.457,15.43,139.758,30.188,57.284,18.662,110.013,45.767,155.834,87.124,40.191,36.275,204.919,179.849,229.048,210.166,11.263,14.151,11.785,28.579,1.585,39.738-34.887,38.169-51.627,87.149-78.776,129.874-10.94,17.216-18.765,37.253-32.277,53.54-3.878,4.675-9.302,13.692-13.461,11.242-27.849-16.404-39.965,14.168-60.345,18.675-27.13,6-39.946,31.191-62.083,44.356-23.6,14.035-42.817,35.173-54.013,61.684-.85,2.013-24.17,28.718-41.669,60.388-3.386,6.128-6.323,12.74-15.265,11.325l.429.429c1.342-6.841,7.006-17.284-8.441-10.274-26.377,11.97-54.505,10.632-82.132,9.087-27.434-1.534-52.413-9.23-58.315-42.07-1.346-7.489-5.675-11.174-13.749-13.213-21.495-5.428-44.499-7.243-62.447-22.637-4.134-3.546-8.402-1.249-13.005-.721-97.262,11.168-194.66,21.973-292.595,9.931-38.108-4.686-77.088-5.218-113.785-18.647-40.671-14.883-59.199-54.998-49.582-96.458,14.629-63.07,53.116-101.657,110.607-129.232,117.475-56.347,240.058-96.685,366.028-128.04,4.744-1.181,11.166-.421,12.868-11.168-9.45,1.377-18.095,2.373-26.638,3.922-64.849,11.759-126.365,35.043-188.11,56.784-64.423,22.684-126.973,49.953-189.005,79.249-52.24,24.672-87.848,53.692-107.176,110.435-17.119,50.257,9.081,99.899,44.639,121.43,44.34,26.848,90.058,51.101,138.535,68.987,63.54,23.444,98.852,64.106,104.248,134.307,4.805,62.529,3.554,124.731,1.807,187.018-.333,11.872,5.464,27.19-6.921,37.735.036.035.475.452.475.452-1.639-6.005-1.018-11.982-.917-18.162,1.276-77.768,7.46-155.579-5.527-233.153-6.221-37.16-25.086-63.574-57.06-81.861-10.312-5.898-18.232-8.781-19.386,8.343-3.466,51.438-8.285,102.79-11.382,154.247-3.413,56.689,7.732,115.707-28.646,166.744-1.646,2.309-1.788,5.891-2.08,8.933-5.592,58.294-10.815,116.508,48.376,155.2-31.555-5.568-34.986-10.273-55.242-75.813-23.786,15.999-31.041,39.006-37.25,65.441-8.14,34.663-5.641,63.712,21.716,88.206,23.954,21.447,25.734,48.689,20.22,77.931-.242-26.136-6.41-50.786-24.396-69.899-16.902-17.961-28.719-37.381-30.181-64.209-13.502,8.812-25.483,16.71-37.546,24.481-10.642,6.856-15.66,16.806-16.034,29.172-2.774,91.628,17.892,177.086,68.125,254.439,18.545,28.556,41.766,53.29,69.382,73.143,37.331,26.837,78.544,42.166,125.634,37.141,57.845-6.173,114.041-18.161,167.546-42.135,13.335-5.975,27.107-15.2,49.903-13.352-11.33,7.368-16.566,12.155-22.732,14.569-60.457,23.667-121.908,43.722-187.133,49.454-22.326,1.962-44.361,2.074-66.431-3.499-74.612-18.843-119.598-73.665-158.352-133.721-25.559-39.609-31.926-87.747-46.82-132.087-8.037-23.926-5.195-49.268-8.054-74.213-3.642,2.311-5.438,4.59-6.418,7.177-1.616,4.266-2.625,8.756-4.026,13.108-21.401,66.487-9.623,131.234,11.737,194.898,40.516,120.763,110.937,210.235,245.479,232.697,48.685,8.128,95.94,9.931,142.489-10.163,43.454-18.757,83.557-39.816,93.195-92.605,1.695-9.282,6.374-18.501,18.518-21.46-12.255,31.462-17.651,68.408-46.462,88.714-49.736,35.053-104.466,59.127-168.469,51.698-20.719-2.405-41.127-5.518-61.565-9.572-83.851-16.629-139.436-71.488-185.506-138.054-25.159-36.351-40.67-77.691-52.048-120.481-16.891-63.526-25.379-126.94-.941-190.715,1.782-4.65,7.312-10.328.004-17.487-10.537,18.303-26.117,31.867-34.148,51.62-10.462,25.733-19.291,51.811-27.787,78.258-19.078,59.389-7.903,113.812,21,166.442,16.111,29.336,32.843,58.331,49.296,87.479,0,0,.507-.427.507-.427-35.455-30.496-61.301-68.457-80.722-110.271-39.762-85.611-36.035-176.653-9.676-262.037,27.563-89.286,90.202-154.807,185.917-179.208,17.59-4.484,22.678-14.03,19.524-30.146-5.211-26.629-.379-52.768,12.388-75.103,10.376-18.152,15.627-35.499,17.404-55.963,1.57-18.082-5.585-23.065-21.1-24.472-22.214-2.014-44.399-4.545-66.502-7.546-91.976-12.488-177.389,6.759-257.674,52.146-36.09,20.403-66.25,48.257-97.046,75.379l.455.429c-1.511-8.032,3.782-13.341,8.44-18.109,44.374-45.41,97.07-76.785,156.579-99.481,85.407-32.573,171.599-23.231,258.126-11.181,18.908,2.633,23.391-2.168,22.288-19.564-4.16-65.602,4.489-130.557,11.246-195.559,1.322-12.719.312-20.559-13.541-26.839-39.964-18.115-79.86-36.403-118.506-57.49-32.576-17.775-57.005-42.331-73.551-74.629-30.118-58.792-59.768-117.879-84.5-179.192-9.597-23.793-29.131-39.735-45.547-57.103-9.801-10.369-31.688-5.841-46.966-1.62-41.744,11.534-68.949-12.045-94.154-37.873-10.168-10.42-15.845-26.088-8.342-42.889,5.001-11.199,5.194-24.976,11.567-35.053,20.258-32.034,27.342-51.491,30.19-61.695,6.877-24.636,25.637-25.215,45.192-24.814,22.873.47,43.471-1.91,49.121-29.778,1.491-7.352,7.363-12.57,13.423-15.247,30.15-13.322,56.415-34.226,88.806-43.422,21.4-6.076,41.726-15.878,62.658-23.676,10.44-3.889,23.261-8.745,37.344-13.415,38.051-12.619,76.097-25.381,114.628-36.397,95.701-27.361,193.472-37.95,292.781-31.54,35.445,2.288,39.632,5.281,93.09,11.28ZM990.341,857.874c-34.391-18.267-70.567-18.944-106.974-8.813-57.379,15.967-101.655,112.571-31.132,181.662,5.252-7.595,1.578-15.005-1.277-21.473-17.847-40.44-9.295-79.41,24.254-106.775,4.865-3.968,8.144-10.2,17.332-3.954,18.133,12.326,48.508-3.352,48.581-25.269.045-13.543,5.194-11.707,13.81-8.973,15.84,5.026,31.806,9.658,52.043,15.758-7.578-10.007-12.456-16.447-17.373-22.944.92-4.988,16.664,7.57,8.646-6.871-3.563-6.417-10.101-11.704-16.309-16.044-38.792-27.118-127.736-10.936-157.456,28.971-34.937,46.913-39.549,98.116-14.575,150.12,8.825,18.377,20.086,40.201,47.391,40.344.856-7.402-4.347-8.947-7.386-12.149-23.311-24.569-45.286-52.995-43.482-86.724,4.27-79.836,48.874-121.72,131.832-123.774,19.778-.49,40.972,5.893,52.074,26.909ZM1194.426,402.99c-34.45-4.676-31.217-4.344-51.578-5.35-52.399-2.589-104.762-1.925-156.801,4.248-90.048,10.682-176.971,34.232-261.58,66.676-8.247,3.162-18.825,5.204-34.375,12.015-43.443,19.027-88.349,34.582-130.44,56.882-20.616,10.923-22.853,15.399-4.2,30.179,45.647,36.17,71.638,83.262,84.597,139.344,9.565,41.391,24.901,80.686,49.328,116.244,9.5,13.829,15.185,30.278,23.989,48.374-12.765-4.392-13.814-12.99-17.87-19.236-39.075-60.165-56.952-128.991-80.775-195.499-14.004-39.095-41.368-68.595-79.092-93.033,2.166,15.513,13.821,21.225,18.255,31.778,18.882,44.936,17.264,92.037,15.416,138.665-1.283,32.376-16.173,65.661,19.288,90.201,6.249,4.325,9.163,14.15,12.469,21.924,11.434,26.882,21.502,54.377,33.749,80.872,10.089,21.826,22.532,42.564,34.036,63.979,3.338-2.229,4.294-2.528,4.369-2.973.505-3.018.669-6.095,1.226-9.101,9.881-53.351,29.952-100.149,81.651-126.506,6.877-3.506,13.629-7.373,20.786-10.191,13.218-5.204,25.077-13.456,39.173-19.49,48.151-20.611,96.293-41.49,145.51-59.307,71.745-25.973,144.133-50.269,218.935-66.526,7.18-1.561,26.439-4.583,35.267-7.454,42.793-7.374,86.163-5.859,129.254-5.237,66.911.966,134.092-4.278,200.651,7.931,27.217,4.992,54.845,7.749,85.634,11.983,5.868,1.559,123.28,35.414,117.418,26.9-21.913-31.826-91.737-98.234-135.299-129.892-4.964-3.608-9.548-7.789-14.03-12-37.61-35.332-75.383-70.89-118.132-99.659-86.355-58.114-186.527-73.212-286.83-86.741M935.538,805.129c25.86,4.837,43.787,16.127,60.139,30.494,27.863,24.48,31.085,57.79,7.107,83.501,8.174,4.005,16.634,1.304,24.773,1.753,9.488.524,22.663-4.9,25.859,7.817,3.629,14.439,9.646,33.578-3.373,43.938-19.628,15.62-27.154,38.583-42.23,56.573-5.883,7.02-9.925,15.906-5.33,23.463,7.502,12.34,1.469,20.702-8.671,31.11,31.559-2.533,59.106-4.7,86.644-6.968,27.777-2.288,55.547-4.676,88.184-7.431-27.529-22.898-39.299-49.962-53.321-75.204-8.135-14.645-16.59-31.465-17.119-47.562-1.941-59.035,19.853-110.172,69.893-142.094,26.878-17.147,42.746-32.63,34.628-64.991-.129-.515,1.958-1.586,4.33-3.414.427,5.137,1.211,9.462,1.069,13.757-.626,19.035,3.744,29.725,27.396,26.388,42.669-6.02,80.989,3.274,115.292,33.193,16.774,14.631,22.914,33.861,34.503,50.368,21.212,30.213,37.478,63.491,29.361,102.943-1.711,8.319,1.7,14.128,11.141,12.649,8.817-1.381,18.422.912,28.252-5.88-40.927-37.85-48.908-89.337-43.886-138.014,5.336-51.728,48.982-83.398,93.36-110.554-198.085-29.127-383.478,3.914-567.999,84.164ZM1135.397,982.157c1.479,9.42-1.771,15.713.16,23.019,17.154,64.907,85.456,93.17,128.258,88.452,67.226-7.411,114.43-41.523,138.027-105.149,15.652-42.203,4.95-92.783-28.986-122.269-36.564-31.769-77.692-35.747-122.823-24.505-69.323,17.267-115.101,80.855-114.637,140.452ZM888.408,966.126c.202,18.16-16.115,24.7-22.299,37.338-7.054,14.416-4.086,43.736,7.858,49.955,7.996,4.163,17.625,7.176,26.514,7.156,12.147-.028,10.287-13.464,15.042-20.685,6.264-9.513,12.232-11.358,18.653-.397,3.084,5.264,6.73,10.343,8.901,15.975,12.641,32.792,13.504,32.84,43.935,17.232,9.505-4.875,13.16-9.339,8.082-19.399-4.791-9.493-.878-17.954,4.559-25.901,6.525-9.536,13.295-18.915,19.501-28.653,2.765-4.339,8.417-8.608,5.726-14.231-2.873-6.002-9.639-3.662-14.487-2.901-17.852,2.803-25.72-4.825-26.587-22.392-.333-6.74-2.32-13.842-5.308-19.915-6.255-12.712-5.986-21.688,9.717-26.201,5.012-1.441,9.237-5.489,13.959-8.095,10.637-5.871,9.276-11.845-.743-15.845-11.414-4.556-23.621-7.092-35.158-11.383-17.626-6.557-20.887,3.94-15.267,15.584,8.688,17.999.561,23.201-14.361,27.682-8.775,2.635-17.298,6.755-25.226,11.414-12.537,7.367-20.096,7.943-18.932-10.071.341-5.288-.213-11.772-5.888-14.132-6.477-2.693-9.087,4.011-12.661,7.604-4.337,4.361-9.679,8.407-12.238,13.72-7.212,14.972-20.853,32.836-10.105,46.8,8.796,11.427,21.131-10.059,36.812-10.257ZM1560.628,941.207q.325,33.987,29.224,19.751c1.374-.676,2.938-.957,4.335-1.594,10.933-4.984,16.293-10.489,2.029-18.417-3.976-2.21-10.249-4.9-10.714-8.068-3.006-20.492-14.351-12.369-25.524-8.893-17.178,5.344-40.064-9.811-40.503-26.537-.467-17.791,10.394-31.017,23.031-40.09,12.806-9.194,31.76-12.251,43.04.368,12.724,14.234,29.76,18.746,44.258,28.478,20.685,13.885,26.668,10.937,28.841-14.187,2.131-24.65-4.732-30.418-27.514-23.134-2.943.941-6.124,1.404-8.818,2.81-22.531,11.761-39.529-4.306-54.701-14.662-11.305-7.717.375-22.354,4.957-33.401,2.932-7.069,5.373-12.831-6.829-13.426-30.461-1.486-48.555,19.961-69.509,36.099-3.175,2.446-2.958,7.866-.185,10.648,14.132,14.175,5.451,27.024-2.825,38.76-7.979,11.314-10.564,28.055-28.222,30.722-8.574,1.295-8.342,7.991-7.629,14.237,1.261,11.047,5.176,21.851,14.645,27.515,6.371,3.811,9.485-5.89,14.161-9.288,7.749-5.631,10.184-17.525,22.575-19.214,3.986,18.651,2.168,36.945-.135,55.139-1.633,12.902,3.326,20.927,15.709,24.15,13.303,3.464,16.477-5.53,20.768-15.577,5.561-13.021.647-29.477,15.535-42.189ZM841.352,1061.486c-45.927-34-65.614-102.139-46.761-156.724,2.011-5.822,3.729-11.745,5.736-17.568,2.168-6.293,2.342-12.784-3.562-16.474-5.345-3.342-10.009,1.631-14.602,4.248-46.173,26.313-59.339,72.16-70.085,119.21-2.101,9.197,1.011,18.365,5.429,26.774,22.384,42.61,75.651,60.768,123.845,40.534ZM1641.765,787.087c-34.483-61.894-102.884-79.886-158.35-41.954-31.645,21.641-61.996,50.712-64.558,88.701-2.922,43.327.299,90.258,37.73,124.021,5.291,4.772,7.822,12.085,5.523,19.192-2.885,8.918-10.877,6.32-17.66,6.39-5.471.056-12.067-3.891-17.212,5.135,23.553,14.794,44.949,5.729,70.327-1.901-7.561-6.779-12.338-10.546-16.508-14.895-14.202-14.806-33.747-29.298-36.239-48.52-3.547-27.355-11.019-54.551-4.004-84.157,10.174-42.936,40.227-79.269,82.946-88.688,46.277-10.203,84.8,3.372,118.007,36.675ZM1119.537,974.466c-.206-65.013,31.205-107.716,76.243-140.233,47.167-34.054,99.733-31.006,156.636-7.876-44.768-50.177-117.237-59.571-179.968-16.126-55.07,38.139-81.938,119.142-52.911,164.235ZM539.206,768.482c7.817-11.494,10.524-23.089,9.856-35.321-1.759-32.205-2.33-64.598-6.445-96.521-5.797-44.975-18.975-52.774-64.28-44.958-10.505,1.812-12.406,3.782-8.694,14.495,10.118,29.204,15.158,59.843,17.991,90.45,1.674,18.087,7.925,23.099,25.606,22.204,29.409-1.488,33.717,5.509,25.819,33.945-1.126,4.056-5.81,7.83.147,15.706ZM1642.149,811.359c-13.988-32.512-41.075-49.205-73.88-53.429-80.154-10.32-127.076,49.615-120.141,124.472,1.55,16.734,11.163,14.824,20.475,11.317,14.719-5.543,25.868-39.23,19.143-54.633-2.524-5.781-6.312-11.801-.205-16.841,16.002-13.208,31.054-28.704,49.236-37.769,14.231-7.095,36.816-13.749,48.232-1.391,16.222,17.56,39.146,16.573,57.139,28.276ZM1673.97,870.648c15.044-35.922,38.638-58.23,50.342-87.805,5.594-14.136,3.529-23.72-12.772-27.805-15.65-3.922-30.928-9.466-46.692-12.742-7.482-1.555-17.177-6.11-23.005,3.85-4.806,8.214-2.666,16.404,2.36,23.833,10.117,14.955,18.297,32.713,17.322,49.139-1.059,17.827,7.727,30.196,12.445,51.53ZM1428.574,1101.488c.676-22.505-12.204-43.553-27.244-44.52-25.286-1.626-54.147,24.025-54.463,48.406-.255,19.679,14.259,37.293,30.755,37.324,23.785.045,50.358-21.447,50.952-41.21ZM640.674,1811.02c1.631-1.51,3.724-2.742,4.826-4.57,28.655-47.534,64.443-87.352,115.456-112.254,15.851-7.738,29.257-20.089,34.64-38.481,1.284-4.388,4.001-9.198-.504-12.719-3.582-2.8-6.936.811-10.345,2.393-38.146,17.71-71.662,42.057-97.309,75.196-20.789,26.861-41.285,54.676-46.765,90.436ZM1203.934,705.546c3.897,2.888,4.554,3.791,5.134,3.744,11.431-.933,22.833-2.49,34.279-2.919,127.336-4.781,254.555-7.167,380.306,19.486,5.238,1.11,13.285,5.188,15.335-3.917,1.67-7.419-5.436-8.347-10.718-8.762-55.35-4.342-109.388-19.475-165.36-19.133-59.46.363-118.946-1.575-178.383-.48-26.147.482-53.556-2.371-80.592,11.981ZM637.193,1781.761c19.341-35.1,40.604-63.463,65.582-89.49,25.785-26.868,58.098-42.607,89.612-60.143,11.63-6.472,13.319-18.145,19.062-29.466-69.727,8.494-170.123,110.398-174.256,179.099ZM1437.434,1098.511c4.377-3.173,7.652-4.357,8.927-6.651,16.6-29.876,35.725-57.538,64.945-76.702,3.59-2.354,5.713-5.385,2.983-9.525-3.087-4.681-7.58-8.804-13.171-8.084-15.991,2.059-31.856,5.104-47.771,7.757-4.16.694-8.323,2.943-7.542,7.14,5.341,28.694-18.462,54.075-8.372,86.065ZM637.12,1997.343c-13.786-101.332,16.76-185.479,79.146-259.93-89.981,82.21-116.397,168.271-79.146,259.93ZM1355.798,1145.776c-7.897-10.699-20.869-14.357-26.762-25.317-10.535-19.594-24.752-28.993-47.674-21.021-7.427,2.584-19.738-1.712-21.227,8.493-1.478,10.13,2.829,21.144,13.035,27.586,12.623,7.968,26.766,13.711,41.245,11.94,13.717-1.678,27.067-1.83,41.384-1.68ZM1668.73,913.613c-16.073-5.32-30.202-7.141-40.963-16.75-6.916-6.175-16.356-15.267-20.539.183-3.283,12.126-30.9,23.058-3.574,38.963,30.465,17.732,30.083,18.333,53.498-9.984,2.842-3.437,6.081-6.546,11.578-12.412ZM1589.096,880.203c2.972-12.544-5.864-20.136-21.509-20.959-18.202-.957-35.532,16.331-36.747,33.993-1.184,17.202,9.605,21.241,22.67,21.627,21.17.626,35.058-11.838,35.587-34.661ZM485.662,775.686c32.458-.43,47.058-11.153,46.854-36.019-.167-20.331-16.799-11.014-26.04-11.846-16.41-1.477-30.846,18.039-33.035,40.583-1.197,12.327,7.747,5.592,12.221,7.281ZM1014.566,932.009c-4.06,9.58-24.416-15.607-25.273,7.831-.506,13.845-2.132,34.855,24.747,30.121,14.216-2.503,33.866,5.105,35.594-18.372,1.731-23.524-15.67-21.945-35.068-19.58ZM1133.973,936.365c31.604-73.292,88.959-108.529,167.428-113.535-68.574-17.953-153.456,38.65-167.428,113.535ZM1738.104,786.434c6.877-11.99,11.826-20.266,16.422-28.733,4.119-7.59-.648-11.657-6.766-14.334-29.167-12.761-60.03-19.556-91.136-25.404-4.835-.909-9.886-.679-10.35,5.616-.332,4.499,3.563,6.257,7.622,6.985,10.621,1.906,21.308,3.508,31.842,5.815,39.277,8.601,51.931,19.618,52.367,50.056ZM1439.492,1022.02c1.053-14.102-7.976-27.823-22.23-30.5-13.174-2.474-11.175,11.79-16.655,17.931-13.861,15.535,6.373,18.02,10.764,26.373,3.94,7.495,6.029,20.736,17.835,17.35,10.564-3.03,7.478-15.496,8.857-24.35.356-2.286.954-4.535,1.43-6.803ZM478.298,693.633c-6.96-27.437-3.164-57.652-19.718-86.437-22.832,38.268-2.731,62.669,19.718,86.437ZM940.198,1078.438c-1.053-4.704-2.42-10.601-3.683-16.52-1.328-6.219-3.293-13.35-9.743-14.492-7.162-1.268-6.922,7.102-8.938,11.536-4.875,10.724-11.147,13.301-23.602,11.569-16.024-2.227-33.611-7.919-49.063,7.907h95.03ZM439.018,661.619c-8.046,22.282-15.944,44.125-23.808,65.981-.514,1.428-.901,2.929-1.126,4.428-.666,4.442-2.961,10.279,1.745,12.632,7.065,3.533,8.578-3.809,11.075-8.098,9.391-16.128,11.538-34.662,17.053-52.08,2.511-7.931,6.412-16.149-4.94-22.864ZM440.014,631.07c-17.998,11.859-38.323,72.039-32.875,94.12,10.958-31.373,21.917-62.746,32.875-94.12ZM1633.408,836.788c-18.133-12.357-34.355-18.564-53.954-3.709,17.533,15.269,34.318,13.268,53.954,3.709ZM437.374,759.524c8.345-20.188,16.829-40.321,24.834-60.643.857-2.176-.187-6.838-1.899-7.94-3.993-2.57-6.835-.016-8.38,4.254-7.423,20.51-17.815,40.138-14.555,64.328ZM471.221,710.034c-14.663,17.909-18.986,39.592-22.893,61.481,12.814-18.506,19.781-39.24,22.893-61.481ZM555.317,690.415c2.078.044,4.156.087,6.234.131,2.168-22.578-1.36-44.328-12.495-65.04,2.087,21.636,4.174,43.273,6.261,64.909ZM1338.708,1111.534c-5.056-13.283,4.118-23.118,8.302-35.588-32.396,14.903-32.738,16.228-8.302,35.588ZM902.098,919.71c12.975,3.594,20.114-1.957,27.505-4.728,6.434-2.413,19.249-5.193,15.232-12.759-5.496-10.354-13.67,1.134-20.236,4.157-6.688,3.08-12.77,7.475-22.501,13.33ZM1502.729,933.224c-8.606,8.997-12.618,13.203-16.643,17.396-4.322,4.503-5.235,9.139-.549,13.979,2.574,2.658,5.022,6.44,9.331,4.647,5.018-2.088,4.847-7.16,5.264-11.725.534-5.859,1.239-11.702,2.597-24.297Z"/>
      <path d="M1402.47,1158.006c-10.414,23.781-33.073,35.074-53.817,44.087-47.354,20.574-55.625,59.357-56.415,103.543-.116,6.481-2.333,15.043,7.656,16.722,7.728,1.299,13.369-2.702,16.725-9.692,2.671-5.562,5.721-11.024,7.655-16.845,9.067-27.3,15.788-33.346,42.38-28.143,34.777,6.804,69.57,14.707,103.195,25.693,15.148,4.949,28.997,18.019,34.785,34.158,4.093,11.413,7.123,20.139,8.246,30.643,2.04,19.078,2.876,38.641-6.763,56.638-2.924,5.458-.283,9.742,2.297,14.905,11.941,23.9,13.051,47.988,1.308,72.872-45.519,96.455-92.463,192.315-134.742,290.182-16.089,37.242-31.328,75.295-48.563,111.895-13.956,29.637-29.619,58.972-39.438,89.846-10.805,33.978-9.765,71.027-12.7,106.562-5.96,72.156-41.246,127.41-89.309,177.08-8.392,8.673-12.663,15.864-11.579,29.623,5.378,68.28,10.113,136.707,11.601,205.158.777,35.733,7.874,70.816,5.962,106.817-3.322,62.558-29.585,100.042-97.741,106.088-78.417,6.956-157.344,2.964-234.896-10.307-80.354-13.75-152.508-48.878-215.566-100.544-56.764-46.509-102.869-102.846-145.473-162.573-70.966-99.49-122.896-207.871-155.891-325.156-13.34-47.42-18.899-96.77-21.384-145.895-2.721-53.782-3.497-107.817-1.778-161.635,3.193-99.945,24.163-195.09,85.599-277.314,5.267-7.049,8.478-17.166,19.934-17.427,0,0-.454-.429-.454-.429,1.1,9.173-6.655,13.294-11.076,19.278-32.319,43.751-56.334,91.266-67.704,144.904-14.387,67.87-24.355,136.117-18.923,205.719,5.796,74.276,10.256,148.67,35.082,220.121,9.556,27.503,23.689,53.768,26.251,83.528-19.81-29.237-24.859-64.861-42.345-100.53,0,7.857-.582,10.866.084,13.567,24.159,97.911,66.167,188.655,117.436,274.549,41.756,69.957,91.734,134.084,151.186,191.26,61.005,58.67,130.233,101.114,211.575,121.06,85.874,21.057,174.024,23.832,262.182,19.764,25.426-1.173,48.47-9.515,64.336-32.343-16.518,7.989-32.878,14.645-51.608,14.257-53.861-1.115-107.778-.318-161.604-2.226-77.283-2.74-150.449-20.064-217.346-61.626-39.751-24.696-72.928-56.577-105.203-89.255-12.826-12.986-32.623-21.469-36.419-42.593,31.893,28.963,64.604,57.086,95.483,87.094,42.827,41.618,95.216,65.72,151.264,80.441,89.663,23.551,182.172,16.221,273.632,17.958,50.616.962,80.901-51.723,81.002-87.351.274-96.82-10.308-193.04-15.393-289.56-1.056-20.048-11.505-33.677-32.481-40.05-35.577-10.809-71.056-9.214-107.596-7.199-85.643,4.723-165.27-19.892-238.825-61.649-25.646-14.559-52.24-32.269-65.503-61.899,0,0-.507.427-.507.427,7.522-.791,10.675,5.675,14.757,9.701,54.704,53.97,123.012,80.489,196.103,96.826,50.367,11.258,101.621,3.613,152.46,5.076,25.606.737,51.073,3.114,71.517,21.201,10.601,9.379,18.573,3.852,25.621-4.023,43.103-48.162,76.275-99.928,83.945-167.469,5.86-51.601-1.339-106.095,28.124-154.312,15.104-24.717,25.107-52.565,37.26-79.069,31.387-68.448,62.51-137.018,94.088-205.378,19.738-42.729,40.108-85.167,62.619-132.872-57.994,29.147-115.537,30.15-172.074,33.855-22.638,1.483-25.242,11.27-23.429,28.521,7.046,67.048-4.279,131.781-27.384,194.278-33.091,89.506-79.241,171.965-140.576,245.411-6.814,8.159-12.432,19.348-24.713,21.417,20.698-31.916,43.797-61.434,64.997-92.258,58.201-84.618,100.665-176.239,118.682-278.015,9.766-55.166,3.943-110.629,1.625-166.065-3.387-81.011.135-162.008,3.457-242.959.829-20.205,3.464-41.277,20.081-54.826,29.578-24.118,62.925-42.938,95.452-62.816l-.429-.429ZM1321.088,1362.823c14.397-47.492,23.347-59.072,70.13-46.296,28.976,7.913,58.21,14.914,87.46,21.762,5.642,1.321,14.388,9.373,17.253-1.716,2.766-10.704-8.251-11.877-15.163-13.23-37.154-7.269-73.307-18.096-109.336-29.451-8.667-2.732-17.238-.973-24.799,2.757-38.723,19.1-54.156,98.945-23.673,130.24,31.111,31.94,70.449,46,115.268,40.908,21.355-2.426,37.392-15.53,41.691-31.844-3.24,1.785-6.109,2.907-8.441,4.719-32.343,25.139-52.524,21.849-75.92-11.961-8.576-12.394-17.229-24.671-21.597-38.53-13.7.596-7.468,21.495-23.988,18.872,6.115-11.454,13.369-21.937,16.905-32.647,7.43-22.504,20.461-22.797,39.078-17.652,27.439,7.582,55.21,13.977,82.913,20.572,5.442,1.296,13.671,5.61,15.217-3.543,1.586-9.392-7.937-7.216-13.279-8.261-31.089-6.083-61.302-15.32-91.564-24.491-29.901-9.061-38.242-4.582-53.518,22.999-5.036,9.093-3.432,22.922-17.854,28.318-2.354-15.372,7.956-24.015,13.083-34.595,13.935-28.754,19.202-31.823,49.603-26.53,11.353,1.977,22.484,5.294,33.656,8.226,26.053,6.837,52.07,13.812,78.101,20.73.604-2.424,1.208-4.848,1.812-7.272-48.296-10.247-93.944-30.401-143.955-34.19-8.287-.628-14.164,1.987-18.467,10.447-5.676,11.16-13.638,21.159-20.617,31.657ZM1481.418,1458.288c-40.122,21.135-55.235,26.574-88.68,17.818-58.108-15.213-100.517-47.789-93.542-106.566.987-8.32,3.94-16.399,5.836-24.623.86-3.733,1.852-8.69-2.362-10.096-5.369-1.792-8.53,2.551-9.614,7.391-1.17,5.228-2.126,10.635-2.144,15.968-.12,35.433.217,70.869-.004,106.301-.069,11.095,4.627,18.84,13.221,25.293,41.318,31.024,87.595,40.195,137.382,29.165,27.95-6.191,49.295-33.135,47.013-54.818-45.92,54.543-163.512,47.46-189.798-11.431,87.985,49.531,142.716,52.632,182.691,5.598ZM1387.878,1364.986c-10.366-2.813-9.236,7.712-8.116,19.903,1.127,12.271,10.572,19.966,15.45,30.016,17.231,35.502,39.256,39.989,71.561,17.755,6.086-4.189,12.659-4.611,19.473-5.929,12.706-2.458,12.351-13.918,14.191-23.646,1.671-8.832-3.005-13.06-10.639-14.828-31.498-7.295-63.038-14.412-101.92-23.271ZM1496.947,1429.736c-.517,6.154-1.396,9.192-.915,11.997,6.809,39.666-.542,56.715-33.394,76.873-46.682,28.645-104.999,14.253-146.753-9.274-6.984-3.935-11.552-16.125-20.567-11.293-8.065,4.322-2.676,15.415-3.611,23.454-.53,4.563.289,9.275-.165,13.855-1.743,17.595,5.51,24.889,23.428,22.434,46.44-6.362,93.611-7.896,139.133-20.28,44.202-12.026,74.318-67.949,42.843-107.766ZM1483.558,1313.98c-33.176-26.834-133.209-44.137-145.409-26.968,50.298-8.206,93.034,21.488,145.409,26.968Z"/>
      <path d="M957.405,1589.819c.755-28.687,8.036-56.379,12.836-84.476-.036-.031-.475-.448-.511-.483,2.971,29.253,7.268,58.737-12.814,84.537l.489.422Z"/>
      <path d="M956.916,1589.397c-1.783,24.084-20.127,37.916-37.017,52.622,12.503-17.398,25.007-34.795,37.508-52.197-.002-.004-.491-.426-.491-.426Z"/>
      <path d="M562.959,2488.003c-38.594-32.157-62.8-75.31-88.873-116.939-30.674-48.976-59.817-98.827-82.618-152.12-3.034-7.091-7.679-13.52-5.315-21.816,19.608,23.277,25.537,53.564,40.701,79.192,38.558,65.162,74.639,131.874,123.352,190.485,5.188,6.242,12.754,11.61,12.752,21.199Z"/>
      <path d="M932.862,1010.101c-17.572-.646-31.141-16.099-30.03-34.198,1.205-19.636,26.282-42.869,45.4-42.061,15.958.674,29.12,17.214,28.518,35.836-.61,18.889-24.754,41.128-43.887,40.424ZM968.631,967.361c-.351-15.476-8.048-23.467-22.164-23.011-18.776.607-36.741,17.944-36.046,34.336.689,16.236,12.582,20.332,24.947,21.395,13.1,1.125,33.544-20.341,33.263-32.72Z"/>
    </g>
  </g>
</svg>