<?xml version="1.0" encoding="UTF-8"?>
<svg xmlns="http://www.w3.org/2000/svg" width="2393.185" height="2385.391" viewBox="0 0 2393.185 2385.391">
  <g id="d" data-name="PTID_Cut_-_Light">
    <g>
      <rect x="400.281" y="407.394" width="1580" height="1589" fill="none" stroke="#000" stroke-miterlimit="10" stroke-width="3"/>
      <rect x="383.226" y="381.894" width="1610.609" height="1643" rx="37.742" ry="37.742" fill="none" stroke="#000" stroke-miterlimit="10" stroke-width="8"/>
      <g>
        <rect x="232.219" y="579.394" width="94" height="96" fill="none" stroke="#000" stroke-miterlimit="10" stroke-width="8"/>
        <polyline points="235.219 681.394 332.219 681.394 332.219 583.394" fill="none" stroke="#000" stroke-miterlimit="10" stroke-width="12"/>
        <polygon points="315.219 626.894 267.219 612.394 267.219 623.394 241.219 623.394 241.219 631.394 267.219 631.394 267.219 641.394 315.219 626.894"/>
        <rect x="220.719" y="715.894" width="116" height="12" rx="6" ry="6" fill="none" stroke="#000" stroke-miterlimit="10" stroke-width="5"/>
      </g>
      <g>
        <rect x="232.219" y="770.394" width="94" height="96" fill="none" stroke="#000" stroke-miterlimit="10" stroke-width="8"/>
        <polyline points="235.219 872.394 332.219 872.394 332.219 774.394" fill="none" stroke="#000" stroke-miterlimit="10" stroke-width="12"/>
        <polygon points="315.219 817.894 267.219 803.394 267.219 814.394 241.219 814.394 241.219 822.394 267.219 822.394 267.219 832.394 315.219 817.894"/>
        <rect x="220.719" y="906.894" width="116" height="12" rx="6" ry="6" fill="none" stroke="#000" stroke-miterlimit="10" stroke-width="5"/>
      </g>
      <g>
        <rect x="232.219" y="962.394" width="94" height="96" fill="none" stroke="#000" stroke-miterlimit="10" stroke-width="8"/>
        <polyline points="235.219 1064.394 332.219 1064.394 332.219 966.394" fill="none" stroke="#000" stroke-miterlimit="10" stroke-width="12"/>
        <polygon points="315.219 1009.894 267.219 995.394 267.219 1006.394 241.219 1006.394 241.219 1014.394 267.219 1014.394 267.219 1024.394 315.219 1009.894"/>
        <rect x="220.719" y="1098.894" width="116" height="12" rx="6" ry="6" fill="none" stroke="#000" stroke-miterlimit="10" stroke-width="5"/>
      </g>
      <g>
        <rect x="232.219" y="1155.394" width="94" height="96" fill="none" stroke="#000" stroke-miterlimit="10" stroke-width="8"/>
        <polyline points="235.219 1257.394 332.219 1257.394 332.219 1159.394" fill="none" stroke="#000" stroke-miterlimit="10" stroke-width="12"/>
        <polygon points="315.219 1202.894 267.219 1188.394 267.219 1199.394 241.219 1199.394 241.219 1207.394 267.219 1207.394 267.219 1217.394 315.219 1202.894"/>
        <rect x="220.719" y="1291.894" width="116" height="12" rx="6" ry="6" fill="none" stroke="#000" stroke-miterlimit="10" stroke-width="5"/>
      </g>
      <g>
        <rect x="232.219" y="1346.394" width="94" height="96" fill="none" stroke="#000" stroke-miterlimit="10" stroke-width="8"/>
        <polyline points="235.219 1448.394 332.219 1448.394 332.219 1350.394" fill="none" stroke="#000" stroke-miterlimit="10" stroke-width="12"/>
        <polygon points="315.219 1393.894 267.219 1379.394 267.219 1390.394 241.219 1390.394 241.219 1398.394 267.219 1398.394 267.219 1408.394 315.219 1393.894"/>
        <rect x="220.719" y="1482.894" width="116" height="12" rx="6" ry="6" fill="none" stroke="#000" stroke-miterlimit="10" stroke-width="5"/>
      </g>
      <g>
        <rect x="232.219" y="1538.394" width="94" height="96" fill="none" stroke="#000" stroke-miterlimit="10" stroke-width="8"/>
        <polyline points="235.219 1640.394 332.219 1640.394 332.219 1542.394" fill="none" stroke="#000" stroke-miterlimit="10" stroke-width="12"/>
        <polygon points="315.219 1585.894 267.219 1571.394 267.219 1582.394 241.219 1582.394 241.219 1590.394 267.219 1590.394 267.219 1600.394 315.219 1585.894"/>
        <rect x="220.719" y="1674.894" width="116" height="12" rx="6" ry="6" fill="none" stroke="#000" stroke-miterlimit="10" stroke-width="5"/>
      </g>
      <g>
        <rect x="231.751" y="1729.394" width="94" height="96" fill="none" stroke="#000" stroke-miterlimit="10" stroke-width="8"/>
        <polyline points="234.751 1831.394 331.751 1831.394 331.751 1733.394" fill="none" stroke="#000" stroke-miterlimit="10" stroke-width="12"/>
        <polygon points="314.751 1776.894 266.751 1762.394 266.751 1773.394 240.751 1773.394 240.751 1781.394 266.751 1781.394 266.751 1791.394 314.751 1776.894"/>
      </g>
      <g>
        <rect x="2060.716" y="582.858" width="94" height="96" transform="translate(4215.432 1261.716) rotate(-180)" fill="none" stroke="#000" stroke-miterlimit="10" stroke-width="8"/>
        <polyline points="2065.216 684.394 2158.281 684.394 2158.281 586.394" fill="none" stroke="#000" stroke-miterlimit="10" stroke-width="12"/>
        <polygon points="2071.716 630.358 2119.716 615.858 2119.716 626.858 2145.716 626.858 2145.716 634.858 2119.716 634.858 2119.716 644.858 2071.716 630.358"/>
        <rect x="2050.216" y="719.358" width="116" height="12" rx="6" ry="6" transform="translate(4216.432 1450.716) rotate(180)" fill="none" stroke="#000" stroke-miterlimit="10" stroke-width="5"/>
      </g>
      <g>
        <rect x="2060.716" y="773.858" width="94" height="96" transform="translate(4215.432 1643.716) rotate(-180)" fill="none" stroke="#000" stroke-miterlimit="10" stroke-width="8"/>
        <polyline points="2063.281 876.394 2160.281 876.394 2160.281 778.394" fill="none" stroke="#000" stroke-miterlimit="10" stroke-width="12"/>
        <polygon points="2071.716 821.358 2119.716 806.858 2119.716 817.858 2145.716 817.858 2145.716 825.858 2119.716 825.858 2119.716 835.858 2071.716 821.358"/>
        <rect x="2050.216" y="910.358" width="116" height="12" rx="6" ry="6" transform="translate(4216.432 1832.716) rotate(180)" fill="none" stroke="#000" stroke-miterlimit="10" stroke-width="5"/>
      </g>
      <g>
        <rect x="2060.716" y="965.858" width="94" height="96" transform="translate(4215.432 2027.716) rotate(-180)" fill="none" stroke="#000" stroke-miterlimit="10" stroke-width="8"/>
        <polyline points="2060.216 1067.858 2157.216 1067.858 2157.216 969.858" fill="none" stroke="#000" stroke-miterlimit="10" stroke-width="12"/>
        <polygon points="2071.716 1013.358 2119.716 998.858 2119.716 1009.858 2145.716 1009.858 2145.716 1017.858 2119.716 1017.858 2119.716 1027.858 2071.716 1013.358"/>
        <rect x="2050.216" y="1102.358" width="116" height="12" rx="6" ry="6" transform="translate(4216.432 2216.716) rotate(-180)" fill="none" stroke="#000" stroke-miterlimit="10" stroke-width="5"/>
      </g>
      <g>
        <rect x="2060.716" y="1158.858" width="94" height="96" transform="translate(4215.432 2413.716) rotate(-180)" fill="none" stroke="#000" stroke-miterlimit="10" stroke-width="8"/>
        <polyline points="2061.216 1259.858 2158.216 1259.858 2158.216 1161.858" fill="none" stroke="#000" stroke-miterlimit="10" stroke-width="12"/>
        <polygon points="2071.716 1206.358 2119.716 1191.858 2119.716 1202.858 2145.716 1202.858 2145.716 1210.858 2119.716 1210.858 2119.716 1220.858 2071.716 1206.358"/>
        <rect x="2050.216" y="1295.358" width="116" height="12" rx="6" ry="6" transform="translate(4216.432 2602.716) rotate(-180)" fill="none" stroke="#000" stroke-miterlimit="10" stroke-width="5"/>
      </g>
      <g>
        <rect x="2060.716" y="1349.858" width="94" height="96" transform="translate(4215.432 2795.716) rotate(-180)" fill="none" stroke="#000" stroke-miterlimit="10" stroke-width="8"/>
        <polyline points="2062.216 1450.858 2159.216 1450.858 2159.216 1352.858" fill="none" stroke="#000" stroke-miterlimit="10" stroke-width="12"/>
        <polygon points="2071.716 1397.358 2119.716 1382.858 2119.716 1393.858 2145.716 1393.858 2145.716 1401.858 2119.716 1401.858 2119.716 1411.858 2071.716 1397.358"/>
        <rect x="2050.216" y="1486.358" width="116" height="12" rx="6" ry="6" transform="translate(4216.432 2984.716) rotate(-180)" fill="none" stroke="#000" stroke-miterlimit="10" stroke-width="5"/>
      </g>
      <g>
        <rect x="2060.716" y="1541.858" width="94" height="96" transform="translate(4215.432 3179.716) rotate(-180)" fill="none" stroke="#000" stroke-miterlimit="10" stroke-width="8"/>
        <polyline points="2062.216 1641.858 2159.216 1641.858 2159.216 1543.858" fill="none" stroke="#000" stroke-miterlimit="10" stroke-width="12"/>
        <polygon points="2071.716 1589.358 2119.716 1574.858 2119.716 1585.858 2145.716 1585.858 2145.716 1593.858 2119.716 1593.858 2119.716 1603.858 2071.716 1589.358"/>
        <rect x="2050.216" y="1678.358" width="116" height="12" rx="6" ry="6" transform="translate(4216.432 3368.716) rotate(180)" fill="none" stroke="#000" stroke-miterlimit="10" stroke-width="5"/>
      </g>
      <g>
        <rect x="2060.648" y="1729.176" width="94" height="96" transform="translate(4215.296 3554.352) rotate(-180)" fill="none" stroke="#000" stroke-miterlimit="10" stroke-width="8"/>
        <polyline points="2061.148 1831.176 2158.148 1831.176 2158.148 1733.176" fill="none" stroke="#000" stroke-miterlimit="10" stroke-width="12"/>
        <polygon points="2071.648 1776.676 2119.648 1762.176 2119.648 1773.176 2145.648 1773.176 2145.648 1781.176 2119.648 1781.176 2119.648 1791.176 2071.648 1776.676"/>
      </g>
      <g>
        <rect x="611.216" y="2071.448" width="94" height="96" transform="translate(-1461.232 2777.664) rotate(-90)" fill="none" stroke="#000" stroke-miterlimit="10" stroke-width="8"/>
        <polygon points="657.716 2083.449 643.216 2131.448 654.216 2131.448 654.216 2157.448 662.216 2157.448 662.216 2131.448 672.216 2131.448 657.716 2083.449"/>
        <rect x="694.716" y="2113.948" width="116" height="12" rx="6" ry="6" transform="translate(-1367.232 2872.664) rotate(-90)" fill="none" stroke="#000" stroke-miterlimit="10" stroke-width="5"/>
      </g>
      <g>
        <rect x="802.216" y="2071.448" width="94" height="96" transform="translate(-1270.232 2968.664) rotate(-90)" fill="none" stroke="#000" stroke-miterlimit="10" stroke-width="8"/>
        <polygon points="848.716 2083.449 834.216 2131.448 845.216 2131.448 845.216 2157.448 853.216 2157.448 853.216 2131.448 863.216 2131.448 848.716 2083.449"/>
        <rect x="885.716" y="2113.948" width="116" height="12" rx="6" ry="6" transform="translate(-1176.232 3063.664) rotate(-90)" fill="none" stroke="#000" stroke-miterlimit="10" stroke-width="5"/>
      </g>
      <g>
        <rect x="994.216" y="2071.948" width="94" height="96" transform="translate(-1078.732 3161.164) rotate(-90)" fill="none" stroke="#000" stroke-miterlimit="10" stroke-width="8"/>
        <polygon points="1040.716 2083.949 1026.216 2131.948 1037.216 2131.948 1037.216 2157.948 1045.216 2157.948 1045.216 2131.948 1055.216 2131.948 1040.716 2083.949"/>
      </g>
      <g>
        <rect x="1298.216" y="2071.448" width="94" height="96" transform="translate(-774.232 3464.664) rotate(-90)" fill="none" stroke="#000" stroke-miterlimit="10" stroke-width="8"/>
        <polygon points="1344.716 2083.449 1330.216 2131.448 1341.216 2131.448 1341.216 2157.448 1349.216 2157.448 1349.216 2131.448 1359.216 2131.448 1344.716 2083.449"/>
        <rect x="1381.716" y="2113.948" width="116" height="12" rx="6" ry="6" transform="translate(-680.232 3559.664) rotate(-90)" fill="none" stroke="#000" stroke-miterlimit="10" stroke-width="5"/>
      </g>
      <g>
        <rect x="1490.216" y="2071.448" width="94" height="96" transform="translate(-582.232 3656.664) rotate(-90)" fill="none" stroke="#000" stroke-miterlimit="10" stroke-width="8"/>
        <polygon points="1536.716 2083.449 1522.216 2131.448 1533.216 2131.448 1533.216 2157.448 1541.216 2157.448 1541.216 2131.448 1551.216 2131.448 1536.716 2083.449"/>
        <rect x="1573.716" y="2113.948" width="116" height="12" rx="6" ry="6" transform="translate(-488.232 3751.664) rotate(-90)" fill="none" stroke="#000" stroke-miterlimit="10" stroke-width="5"/>
      </g>
      <g>
        <rect x="1681.216" y="2071.948" width="94" height="96" transform="translate(-391.732 3848.164) rotate(-90)" fill="none" stroke="#000" stroke-miterlimit="10" stroke-width="8"/>
        <polygon points="1727.716 2083.949 1713.216 2131.948 1724.216 2131.948 1724.216 2157.948 1732.216 2157.948 1732.216 2131.948 1742.216 2131.948 1727.716 2083.949"/>
      </g>
      <polyline points="614.281 2174.561 711.281 2174.561 711.281 2076.561" fill="none" stroke="#000" stroke-miterlimit="10" stroke-width="12"/>
      <polyline points="805.281 2174.561 902.281 2174.561 902.281 2076.561" fill="none" stroke="#000" stroke-miterlimit="10" stroke-width="12"/>
      <polyline points="996.281 2174.561 1093.281 2174.561 1093.281 2076.561" fill="none" stroke="#000" stroke-miterlimit="10" stroke-width="12"/>
      <polyline points="1304.281 2174.561 1401.281 2174.561 1401.281 2076.561" fill="none" stroke="#000" stroke-miterlimit="10" stroke-width="12"/>
      <polyline points="1493.281 2174.561 1590.281 2174.561 1590.281 2076.561" fill="none" stroke="#000" stroke-miterlimit="10" stroke-width="12"/>
      <polyline points="1686.281 2174.561 1783.281 2174.561 1783.281 2076.561" fill="none" stroke="#000" stroke-miterlimit="10" stroke-width="12"/>
    </g>
  </g>
  <g id="e" data-name="PTID_JMSN_PAGE_-_Light">
    <g>
      <rect x="429.033" y="524.348" width="37.043" height="152.87" fill="none"/>
      <path d="M458.575,568.282h-4.334v-21.33l-6.622,6.686-6.77-6.686v21.33h-4.335v-28.04h4.335l6.77,6.71,6.622-6.71h4.334v28.04Z"/>
      <path d="M440.734,577.873v7.086l17.874.041v4.598l-17.866-.041v7.086l17.866.041v4.599l-22.09-.041v-4.599h.005v-7.086h-.005v-1.454h-.003v-14.788h.003v-.041h22.09v4.599h-17.874Z"/>
      <path d="M458.574,634.28h-4.33v.002-.002h-.003v-.002l-13.394-20.141v20.143h-4.333v-28.031h4.333l13.394,20.095v-20.097h4.333v28.033Z"/>
      <path d="M458.58,662.561v4.722h-22.066v-.048h0v-28.004h4.333v23.331h13.4v-23.331h4.333v23.331h0Z"/>
    </g>
    <g>
      <rect x="1908.814" y="766.174" width="37.043" height="111.913" fill="none"/>
      <path d="M1920.688,782.715v7.083h17.648v16.333h-22.021l.002-4.644h17.646v-7.083h-17.648v-16.293h22.021v4.605h-17.648Z"/>
      <path d="M1938.355,839.13h-4.335v-21.33l-6.621,6.686-6.77-6.686v21.33h-4.335v-28.04h4.335l6.77,6.71,6.621-6.71h4.335v28.04Z"/>
      <path d="M1920.688,848.715v7.083h17.648v16.333h-22.021l.002-4.644h17.646v-7.083h-17.648v-16.293h22.021v4.605h-17.648Z"/>
    </g>
    <g>
      <rect x="1537.207" y="452.348" width="416.87" height="40.696" fill="none"/>
      <path d="M1561.268,465.989h-8.864v23.707h-4.333v-23.707h-8.864v-4.333h22.062v4.333Z"/>
      <path d="M1570.446,461.655h4.335v21.33l6.621-6.686,6.771,6.686v-21.33h4.334v28.04h-4.334l-6.771-6.71-6.621,6.71h-4.335v-28.04Z"/>
      <path d="M1606.059,466.28v7.083h17.648v16.333h-22.022l.002-4.644h17.646v-7.083h-17.648v-16.293h22.022v4.605h-17.648Z"/>
      <path d="M1654.946,489.695h-4.335v-21.33l-6.621,6.686-6.77-6.686v21.33h-4.335v-28.04h4.335l6.77,6.71,6.621-6.71h4.335v28.04Z"/>
      <path d="M1722.507,489.694h-21.982s0-28.015,0-28.015l21.982-.003v28.018ZM1704.857,485.055h13.316v-18.796h-13.316v18.796Z"/>
      <path d="M1736.444,461.689h4.333v28.006h-4.333v-28.006Z"/>
      <path d="M1754.764,473.538c0-1.48,1-2.52,2.399-2.52s2.32,1.04,2.36,2.52c0,1.4-.92,2.479-2.399,2.479-1.4,0-2.36-1.08-2.36-2.479ZM1754.764,487.656c0-1.48,1-2.52,2.399-2.52s2.32,1.04,2.36,2.52c0,1.399-.92,2.479-2.399,2.479-1.4,0-2.36-1.08-2.36-2.479Z"/>
      <path d="M1794.865,489.694h-21.982s0-28.015,0-28.015l21.982-.003v28.018ZM1777.216,485.055h13.316v-18.796h-13.316v18.796Z"/>
      <path d="M1829.313,477.973h0v11.721h-4.316s-16.18,0-16.18,0v-4.642h16.163v-7.134h-14.223v-4.576h14.224v-7.084h-16.178v-4.576h16.178v-.004h4.333v16.294Z"/>
      <path d="M1843.322,473.538c0-1.48,1-2.52,2.399-2.52s2.319,1.04,2.359,2.52c0,1.4-.92,2.479-2.399,2.479-1.399,0-2.359-1.08-2.359-2.479ZM1843.322,487.656c0-1.48,1-2.52,2.399-2.52s2.319,1.04,2.359,2.52c0,1.399-.92,2.479-2.399,2.479-1.399,0-2.359-1.08-2.359-2.479Z"/>
      <path d="M1861.441,461.689h4.333v28.006h-4.333v-28.006Z"/>
      <path d="M1900.278,477.974h0v11.721h-4.333v-16.332h0v-7.1h-16.265v-4.593h18.335v.009h2.263v16.294Z"/>
    </g>
    <g>
      <rect x="1817.38" y="491.81" width="141.98" height="41.147" fill="none"/>
      <path d="M1841.493,515.324c0,7.738-6.245,14.056-13.983,14.056l-8.125.003-.004-28.045h8.101c7.738,0,14.012,6.248,14.012,13.986ZM1836.784,515.337c0-4.953-2.988-9.291-7.94-9.291h-5.073l.074,18.667h5.092c4.952,0,7.848-4.424,7.848-9.377Z"/>
      <path d="M1854.881,505.974v7.086l17.874.041v4.598l-17.866-.041v7.086l17.866.041v4.599l-22.091-.041v-4.599h.005v-7.086h-.005v-1.454h-.003v-14.788h.003v-.041h22.091v4.599h-17.874Z"/>
      <path d="M1886.273,505.968v7.083h17.648v16.333h-22.021l.002-4.644h17.646v-7.083h-17.648v-16.293h22.021v4.605h-17.648Z"/>
      <path d="M1935.162,505.676h-8.865v23.707h-4.332v-23.707h-8.865v-4.333h22.062v4.333Z"/>
    </g>
    <g>
      <path d="M555.779,480.77h8.304c3.8,0,6.881,3.081,6.881,6.881v14.263c0,3.8-3.081,6.881-6.881,6.881h-8.304c-3.8,0-6.881-3.081-6.881-6.881v-14.264c0-3.8,3.081-6.881,6.881-6.881ZM557.767,504.462h4.287c2.528,0,4.578-2.05,4.578-4.578v-10.265c0-2.494-2.022-4.517-4.516-4.517h-4.385c-2.485,0-4.5,2.015-4.5,4.5v10.323c0,2.505,2.031,4.536,4.536,4.536Z"/>
      <path d="M574.457,480.755h4.335v21.33l6.621-6.686,6.77,6.686v-21.33h4.334v28.04h-4.334l-6.77-6.71-6.621,6.71h-4.335v-28.04Z"/>
      <path d="M622.078,508.793h-4.33v.002-.002h-.003v-.002l-13.394-20.141v20.143h-4.333v-28.031h4.333l13.394,20.095v-20.097h4.333v28.033Z"/>
      <path d="M655.263,508.795l-2.571-8.531h-7.032l-2.576,8.531h-4.988l8.708-27.995h4.729l8.624,27.995h-4.894ZM651.27,495.542l-2.09-6.936-2.094,6.936h4.184Z"/>
      <path d="M667.409,508.795l-3.752-2.167,14.926-25.852,3.752,2.167-14.926,25.852Z"/>
      <path d="M690.149,485.471v18.603h17.731v4.722h-22.064v-28.004h.003v-.042h22.061v4.722h-17.731Z"/>
    </g>
    <g>
      <rect x="407.054" y="1217.867" width="82.761" height="165.392" fill="none"/>
      <path d="M443.034,1296.726v2.969c0,3.226-2.615,5.841-5.841,5.841h-9.675v9.902h-3.792v-24.553h13.467c3.226,0,5.841,2.615,5.841,5.841ZM439.242,1297.007c0-1.099-.891-1.989-1.989-1.989h-9.735v6.385h9.735c1.099,0,1.989-.891,1.989-1.989v-2.406Z"/>
      <path d="M465.853,1296.726v2.969c0,3.226-2.615,5.841-5.841,5.841h-9.675v9.902h-3.792v-24.553h13.467c3.226,0,5.841,2.615,5.841,5.841ZM462.061,1297.007c0-1.099-.891-1.989-1.989-1.989h-9.735v6.385h9.735c1.099,0,1.989-.891,1.989-1.989v-2.406Z"/>
      <path d="M469.365,1290.926h3.792v24.512h-3.792v-24.512Z"/>
    </g>
    <polygon points="446.904 1184.889 432.166 1210.415 461.641 1210.415 446.904 1184.889" stroke="#000" stroke-miterlimit="10"/>
    <polygon points="446.904 1430.589 432.166 1405.063 461.641 1405.063 446.904 1430.589" stroke="#000" stroke-miterlimit="10"/>
    <g>
      <rect x="771.2" y="1928.812" width="159.965" height="35.194" fill="none"/>
      <path d="M812.504,1940.79v6.199h15.446v14.295h-19.274l.002-4.064h15.445v-6.199h-15.447v-14.261h19.274v4.03h-15.446Z"/>
      <path d="M850.315,1940.535h-7.759v20.749h-3.792v-20.749h-7.759v-3.792h19.31v3.792Z"/>
      <path d="M868.395,1961.284l-2.25-7.467h-6.155l-2.254,7.467h-4.366l7.622-24.503h4.139l7.548,24.503h-4.284ZM864.9,1949.685l-1.829-6.07-1.833,6.07h3.662Z"/>
      <path d="M893.687,1951.024h0v10.259h-3.777s-14.162,0-14.162,0v-4.063h14.147v-6.243h-12.448v-4.005h12.449v-6.2h-14.16v-4.005h14.16v-.004h3.792v14.261Z"/>
    </g>
    <g>
      <rect x="577.556" y="1928.81" width="159.965" height="35.194" fill="none"/>
      <path d="M611.263,1961.282h-19.312v-.042h0v-24.511h3.792v20.42h11.729v-20.42h3.792v24.553Z"/>
      <path d="M633.623,1942.57v2.968c0,3.227-2.615,5.842-5.841,5.842h-9.675v9.902h-3.792v-24.553h13.467c3.226,0,5.841,2.615,5.841,5.841ZM629.831,1942.852c0-1.099-.891-1.989-1.989-1.989h-9.735v6.385h9.735c1.099,0,1.989-.891,1.989-1.989v-2.406Z"/>
      <path d="M656.033,1948.978c0,6.773-5.466,12.302-12.239,12.302l-7.111.003-.004-24.546h7.09c6.773,0,12.263,5.469,12.263,12.241ZM651.912,1948.989c0-4.335-2.615-8.132-6.95-8.132h-4.441l.065,16.339h4.456c4.335,0,6.869-3.872,6.869-8.207Z"/>
      <path d="M674.103,1961.282l-2.25-7.467h-6.155l-2.254,7.467h-4.366l7.622-24.503h4.139l7.548,24.503h-4.284ZM670.609,1949.683l-1.829-6.07-1.833,6.07h3.662Z"/>
      <path d="M700.754,1940.533h-7.759v20.749h-3.792v-20.749h-7.759v-3.792h19.31v3.792Z"/>
      <path d="M707.502,1940.793v6.202l15.644.036v4.024l-15.637-.035v6.201l15.637.036v4.024l-19.334-.035v-4.025h.004v-6.201h-.004v-1.273h-.003v-12.942h.003v-.036h19.334v4.024h-15.644Z"/>
    </g>
    <g>
      <rect x="1649.451" y="1928.445" width="159.965" height="35.194" fill="none"/>
      <path d="M1702.894,1936.404v20.254c0,2.352-1.907,4.259-4.26,4.259l-3.854-.008c-1.221-.003-3.034-.626-3.857-1.357-.915-.813-1.933-2.536-2.05-3.328-.033-.228.144-.432.374-.432h3.355c.205,0,.393.127.457.322.021.06.053.125.104.193.168.227.442.35.725.35h3.013c.958,0,1.734-.776,1.734-1.734v-18.519h4.26Z"/>
      <path d="M1725.258,1942.205v2.968c0,3.227-2.615,5.842-5.841,5.842h-9.676v9.902h-3.792v-24.553h13.467c3.227,0,5.842,2.615,5.842,5.841ZM1721.466,1942.486c0-1.099-.891-1.989-1.989-1.989h-9.735v6.385h9.735c1.099,0,1.989-.891,1.989-1.989v-2.406Z"/>
      <path d="M1728.313,1936.375h3.794v18.669l5.796-5.852,5.925,5.852v-18.669h3.794v24.542h-3.794l-5.925-5.873-5.796,5.873h-3.794v-24.542Z"/>
      <path d="M1759.917,1951.014h-5.447v9.902h-3.792v-24.553h13.467c3.227,0,5.842,2.615,5.842,5.841v2.968c0,3.177-2.536,5.759-5.693,5.838l5.72,9.907h-4.379s-5.717-9.903-5.717-9.903ZM1754.47,1940.496v6.385h9.735c1.099,0,1.989-.891,1.989-1.989v-2.406c0-1.099-.891-1.989-1.989-1.989h-9.735Z"/>
    </g>
    <rect x="1679.25" y="1928.348" width="100.174" height="39.13" fill="none" stroke="#000" stroke-miterlimit="10" stroke-width="4"/>
    <line x1="597.103" y1="729.614" x2="1715.123" y2="729.614" stroke="#000" stroke-miterlimit="10" stroke-width="4"/>
    <g>
      <path d="M602.509,694.918v6.199h15.446v14.295h-19.274l.002-4.065h15.445v-6.199h-15.447v-14.261h19.274v4.031h-15.446Z"/>
      <path d="M626.244,694.923v6.202l15.644.035v4.025l-15.637-.036v6.202l15.637.035v4.025l-19.334-.036v-4.024h.004v-6.202h-.004v-1.273h-.003v-12.942h.003v-.036h19.334v4.025h-15.644Z"/>
      <path d="M660.609,715.412h-14.153v-24.513h4.259v20.253h9.894v4.259Z"/>
      <path d="M668.873,694.923v6.202l15.644.035v4.025l-15.637-.036v6.202l15.637.035v4.025l-19.334-.036v-4.024h.004v-6.202h-.004v-1.273h-.003v-12.942h.003v-.036h19.334v4.025h-15.644Z"/>
      <path d="M692.877,694.997v16.282h15.519v4.133h-19.311v-24.511h.003v-.037h19.308v4.133h-15.519Z"/>
      <path d="M732.299,694.663h-7.759v20.749h-3.792v-20.749h-7.759v-3.792h19.31v3.792Z"/>
      <path d="M740.588,694.923v6.202l15.644.035v4.025l-15.637-.036v6.202l15.637.035v4.025l-19.334-.036v-4.024h.004v-6.202h-.004v-1.273h-.003v-12.942h.003v-.036h19.334v4.025h-15.644Z"/>
      <path d="M780.153,703.107c0,6.773-5.466,12.302-12.239,12.302l-7.111.003-.004-24.546h7.09c6.773,0,12.263,5.469,12.263,12.241ZM776.032,703.119c0-4.335-2.615-8.132-6.95-8.132h-4.44l.065,16.339h4.456c4.335,0,6.869-3.873,6.869-8.207Z"/>
      <path d="M841.533,694.663h-7.759v20.749h-3.792v-20.749h-7.759v-3.792h19.31v3.792Z"/>
      <path d="M861.152,715.412l-2.25-7.467h-6.155l-2.254,7.467h-4.366l7.622-24.502h4.139l7.548,24.502h-4.284ZM857.658,703.812l-1.829-6.07-1.833,6.07h3.662Z"/>
      <path d="M879.271,705.508h-5.446v9.902h-3.792v-24.553h3.792s9.675,0,9.675,0c3.226,0,5.841,2.615,5.841,5.841v2.968c0,3.176-2.536,5.758-5.693,5.837l5.72,9.907h-4.38s-5.717-9.903-5.717-9.903ZM873.825,694.991v6.385h9.735c1.099,0,1.989-.891,1.989-1.989v-2.407c0-1.098-.891-1.989-1.989-1.989h-9.735Z"/>
      <path d="M909.149,711.268v-5.166h-6.796v-4.143h10.94l.003,13.453h-19.359v-24.538h19.359v4.031h-15.557v16.363h11.41Z"/>
      <path d="M921.571,694.923v6.202l15.644.035v4.025l-15.637-.036v6.202l15.637.035v4.025l-19.334-.036v-4.024h.004v-6.202h-.004v-1.273h-.003v-12.942h.003v-.036h19.334v4.025h-15.644Z"/>
      <path d="M961.092,694.663h-7.759v20.749h-3.792v-20.749h-7.759v-3.792h19.31v3.792Z"/>
      <path d="M965.56,697.843h4.683v4.683h-4.683v-4.683ZM965.56,710.729h4.683v4.683h-4.683v-4.683Z"/>
      <path d="M1031.494,696.7v2.968c0,3.226-2.615,5.841-5.841,5.841h-9.675v9.902h-3.792v-24.553h3.792s9.675,0,9.675,0c3.226,0,5.841,2.615,5.841,5.841ZM1027.702,696.98c0-1.099-.891-1.989-1.989-1.989h-9.735v6.385h9.735c1.099,0,1.989-.891,1.989-1.989v-2.407Z"/>
      <path d="M1055.399,696.7v2.968c0,3.226-2.615,5.841-5.841,5.841h-9.675v9.902h-3.792v-24.553h3.792s9.675,0,9.675,0c3.226,0,5.841,2.615,5.841,5.841ZM1051.607,696.98c0-1.099-.891-1.989-1.989-1.989h-9.735v6.385h9.735c1.099,0,1.989-.891,1.989-1.989v-2.407Z"/>
      <path d="M1059.995,690.899h3.792v24.512h-3.792v-24.512Z"/>
      <path d="M1112.664,699.305c0,1.432-.516,2.742-1.371,3.758.855,1.016,1.371,2.327,1.371,3.758v3.361c0,3.226-2.615,5.229-5.841,5.229h-9.682s-3.792.001-3.792.001v-24.526h3.792v.003h9.682c3.226,0,5.841,2.615,5.841,5.841v2.576ZM1097.141,695.021v5.959h9.682c.12,0,.239.004.357.012.958-.143,1.693-.969,1.693-1.967v-2.014c0-1.099-.891-1.989-1.989-1.989h-9.743ZM1108.872,709.901v-2.799c0-.999-.735-1.825-1.694-1.968-.118.007-.235.012-.355.012h-9.682v6.131h9.743c1.099,0,1.989-.278,1.989-1.376h0Z"/>
      <path d="M1136.567,711.279v4.133h-19.313v-.042h0v-24.51h3.792v20.42h11.729v-20.42h3.792v20.42h0Z"/>
      <path d="M1160.466,715.41h-3.79s0,0,0,0h0v-.002l-11.723-17.628v17.63h-3.792v-24.534h3.792l11.723,17.588v-17.589h3.792v24.535Z"/>
      <path d="M1178.771,715.403l-9.486-9.488v9.497h-4.222v-13.721h0v-.307s0-10.498,0-10.498h4.222v6.357l6.87-6.358h5.971l-11.184,10.722,13.795,13.804-5.967-.008Z"/>
      <path d="M1193.011,694.923v6.202l15.644.035v4.025l-15.637-.036v6.202l15.637.035v4.025l-19.334-.036v-4.024h.004v-6.202h-.004v-1.273h-.003v-12.942h.003v-.036h19.334v4.025h-15.644Z"/>
      <path d="M1222.461,705.508h-5.446v9.902h-3.792v-24.553h3.792s9.675,0,9.675,0c3.227,0,5.842,2.615,5.842,5.841v2.968c0,3.176-2.536,5.758-5.693,5.837l5.72,9.907h-4.38s-5.717-9.903-5.717-9.903ZM1217.015,694.991v6.385h9.735c1.099,0,1.989-.891,1.989-1.989v-2.407c0-1.098-.891-1.989-1.989-1.989h-9.735Z"/>
    </g>
    <g>
      <path d="M602.353,640.27v6.199h15.446v14.295h-19.274l.002-4.065h15.445v-6.199h-15.447v-14.261h19.274v4.031h-15.446Z"/>
      <path d="M641.704,640.014h-7.759v20.749h-3.792v-20.749h-7.759v-3.792h19.31v3.792Z"/>
      <path d="M661.324,660.763l-2.25-7.467h-6.155l-2.254,7.467h-4.366l7.622-24.502h4.139l7.548,24.502h-4.284ZM657.829,649.164l-1.829-6.07-1.833,6.07h3.662Z"/>
      <path d="M670.204,649.772v-4.132h11.653v4.132h-11.653Z"/>
      <path d="M704.396,650.503h0v10.259h-3.777s-14.162,0-14.162,0v-4.063h14.147v-6.244h-12.448v-4.005h12.449v-6.201h-14.16v-4.004h14.16v-.004h3.792v14.261Z"/>
      <path d="M760.492,636.25v20.254c0,2.353-1.907,4.259-4.259,4.259l-3.855-.008c-1.22-.002-3.034-.625-3.857-1.357-.915-.813-1.933-2.536-2.049-3.328-.034-.228.143-.432.373-.432h3.356c.205,0,.393.127.458.322.02.06.052.125.103.193.168.227.442.351.725.351h3.013c.958,0,1.734-.777,1.734-1.734v-18.52h4.259Z"/>
      <path d="M765.087,649.772v-4.132h11.653v4.132h-11.653Z"/>
      <path d="M800.567,660.761h-15.447v.002h-3.792v-24.522h3.792v.004h11.655v-.006h3.792v24.522ZM785.12,640.25v6.201h11.655v-6.201h-11.655ZM785.12,656.701h11.655v-6.246h-11.655v6.246Z"/>
      <path d="M824.404,650.504h0v10.259h-3.792v-10.278h-15.449v-14.252h3.795v10.22h11.655v-10.209h3.792v14.261Z"/>
      <path d="M872.503,636.234h7.268c3.326,0,6.022,2.696,6.022,6.022v12.483c0,3.326-2.696,6.023-6.022,6.023h-7.268c-3.326,0-6.023-2.696-6.023-6.022v-12.484c0-3.326,2.697-6.022,6.023-6.022ZM874.243,656.97h3.752c2.213,0,4.007-1.794,4.007-4.007v-8.984c0-2.183-1.77-3.953-3.953-3.953h-3.837c-2.175,0-3.938,1.763-3.938,3.938v9.036c0,2.192,1.777,3.97,3.97,3.97Z"/>
      <path d="M909.693,660.762h-3.79s0,0,0,0h0v-.002l-11.723-17.628v17.63h-3.792v-24.534h3.792l11.723,17.588v-17.589h3.792v24.535Z"/>
    </g>
    <g>
      <path d="M992.337,870.358h-14.153v-24.513h4.259v20.253h9.895v4.259Z"/>
      <path d="M1011.933,870.358l-2.249-7.467h-6.155l-2.254,7.467h-4.366l7.622-24.502h4.139l7.548,24.502h-4.284ZM1008.438,858.758l-1.829-6.07-1.833,6.07h3.662Z"/>
      <path d="M1040.127,866.225v4.133h-19.313v-24.553h3.792v20.42h11.729v-20.42h3.792v20.42h0Z"/>
      <path d="M1064.025,870.356h-3.79s0,0,0,0h0v-.002l-11.724-17.628v17.63h-3.792v-24.534h3.792l11.724,17.588v-17.589h3.792v24.535Z"/>
      <path d="M1072.415,849.943v16.282h15.519v4.133h-19.312v-24.511h.003v-.037h19.309v4.133h-15.519Z"/>
      <path d="M1111.855,845.847v24.511h-3.792v-10.176h-11.744v10.177h-3.792v-24.511h3.792v10.201h11.744v-10.202h3.792Z"/>
      <path d="M1148.235,851.646v2.968c0,3.226-2.615,5.841-5.842,5.841h-9.675v9.902h-3.792v-24.553h3.792s9.675,0,9.675,0c3.227,0,5.842,2.615,5.842,5.841ZM1144.443,851.927c0-1.099-.891-1.989-1.989-1.989h-9.735v6.385h9.735c1.099,0,1.989-.891,1.989-1.989v-2.407Z"/>
      <path d="M1172.141,849.609h-7.759v20.749h-3.792v-20.749h-7.759v-3.792h19.31v3.792Z"/>
      <path d="M997.491,912.356h-3.79s0,0,0,0h0v-.002l-11.724-17.628v17.63h-3.792v-24.534h3.792l11.724,17.588v-17.589h3.792v24.535Z"/>
      <path d="M1071.309,902.099h0v10.259h-3.792v-10.278h-15.449v-14.252h3.795v10.22h11.655v-10.209h3.792v14.261Z"/>
      <path d="M1075.901,887.846h3.792v24.512h-3.792v-24.512Z"/>
      <path d="M1087.838,886.921c1.973,0,3.572,1.596,3.572,3.564s-1.6,3.565-3.572,3.565-3.572-1.596-3.572-3.565,1.6-3.564,3.572-3.564ZM1085.997,890.486c0,1.011.826,1.834,1.841,1.834s1.841-.823,1.841-1.834-.826-1.833-1.841-1.833-1.841.823-1.841,1.833Z"/>
      <path d="M1113.942,902.098h0v10.259h-3.777s-14.161,0-14.161,0v-4.063h14.146v-6.244h-12.448v-4.005h12.449v-6.201h-14.16v-4.004h14.16v-.004h3.792v14.261Z"/>
      <path d="M1133.977,902.099v-.047h-11.655v6.246h14.478v4.06h-16.617s-1.652,0-1.652,0v-14.294h2.998v-.017h12.449v-6.201h-14.159v-4.005h14.159v-.003h3.792v14.261h-3.792Z"/>
      <path d="M1142.238,907.675h4.683v4.683h-4.683v-4.683Z"/>
      <path d="M1151.38,887.846h3.792v24.512h-3.792v-24.512Z"/>
      <path d="M1178.984,912.355h-15.447v.002h-3.793v-24.522h3.793v.004h11.655v-.006h3.792v24.522ZM1163.537,891.844v6.201h11.655v-6.201h-11.655ZM1163.537,908.295h11.655v-6.246h-11.655v6.246Z"/>
      <path d="M1182.599,887.509h4.683v6.118l-4.683,4.478v-10.596Z"/>
      <path d="M1228.369,887.816h3.794v18.668l5.795-5.852,5.926,5.852v-18.668h3.793v24.542h-3.793l-5.926-5.873-5.795,5.873h-3.794v-24.542Z"/>
      <path d="M1321.491,912.356h-19.239s0-24.52,0-24.52l19.239-.002v24.522ZM1306.044,908.296h11.655v-16.451h-11.655v16.451Z"/>
      <path d="M1345.329,902.099h0v10.259h-3.792v-10.278h-15.449v-14.252h3.795v10.22h11.655v-10.209h3.792v14.261Z"/>
      <path d="M1349.922,887.846h3.792v24.512h-3.792v-24.512Z"/>
      <path d="M1361.858,886.921c1.973,0,3.572,1.596,3.572,3.564s-1.6,3.565-3.572,3.565-3.572-1.596-3.572-3.565,1.6-3.564,3.572-3.564ZM1360.017,890.486c0,1.011.826,1.834,1.841,1.834s1.841-.823,1.841-1.834-.826-1.833-1.841-1.833-1.841.823-1.841,1.833Z"/>
      <path d="M1385.458,902.099v-.047h-11.655v6.246h14.478v4.06h-16.617s-1.652,0-1.652,0v-14.294h2.998v-.017h12.449v-6.201h-14.159v-4.005h14.159v-.003h3.792v14.261h-3.792Z"/>
      <path d="M1413.085,912.357h-1.651s-16.618,0-16.618,0v-4.06h14.478v-6.246h-13.467v-.006h-1.98v-14.208l19.239-.002v24.522ZM1409.293,898.047v-6.201h-11.655v6.201h11.655Z"/>
      <path d="M1417.554,907.675h4.683v4.683h-4.683v-4.683Z"/>
      <path d="M1445.934,912.355h-15.447v.002h-3.792v-24.522h3.792v.004h11.655v-.006h3.792v24.522ZM1430.487,891.844v6.201h11.655v-6.201h-11.655ZM1430.487,908.295h11.655v-6.246h-11.655v6.246Z"/>
      <path d="M1469.77,912.355h-15.448v.002h-3.792v-24.522h3.792v.004h11.655v-.006h3.793v24.522ZM1454.322,891.844v6.201h11.655v-6.201h-11.655ZM1454.322,908.295h11.655v-6.246h-11.655v6.246Z"/>
      <path d="M1473.385,887.509h4.682v6.118l-4.682,4.478v-10.596Z"/>
      <path d="M993.208,954.358l-2.25-7.467h-6.154l-2.255,7.467h-4.365l7.621-24.502h4.139l7.549,24.502h-4.284ZM989.713,942.758l-1.829-6.07-1.833,6.07h3.662Z"/>
      <path d="M1016.241,954.358h-14.153v-24.513h4.26v20.253h9.894v4.259Z"/>
      <path d="M1040.123,933.609h-7.759v20.749h-3.792v-20.749h-7.759v-3.792h19.31v3.792Z"/>
      <path d="M1094.696,929.846h3.792v24.512h-3.792v-24.512Z"/>
      <path d="M1122.301,954.356h-19.24s0-24.52,0-24.52l19.24-.002v24.522ZM1106.853,950.296h11.655v-16.451h-11.655v16.451Z"/>
      <path d="M1146.136,954.356h-19.24s0-24.52,0-24.52l19.24-.002v24.522ZM1130.688,950.296h11.655v-16.451h-11.655v16.451Z"/>
      <path d="M1169.971,954.356h-19.24s0-24.52,0-24.52l19.24-.002v24.522ZM1154.523,950.296h11.655v-16.451h-11.655v16.451Z"/>
      <path d="M1193.805,954.356h-19.239s0-24.52,0-24.52l19.239-.002v24.522ZM1178.357,950.296h11.655v-16.451h-11.655v16.451Z"/>
      <path d="M1214.687,933.943v6.368h15.519v4.133h-15.512v9.914h-3.792v-9.914h-.005v-1.307h-.003v-13.29h.003v-.037h19.309v4.133h-15.519Z"/>
      <path d="M1254.109,933.609h-7.759v20.749h-3.792v-20.749h-7.759v-3.792h19.31v3.792Z"/>
      <path d="M1274.483,954.358l-3.284-1.896,13.063-22.627,3.284,1.896-13.063,22.627Z"/>
      <path d="M1322.575,944.098h0v10.259h-3.777s-14.162,0-14.162,0v-4.063h14.147v-6.244h-12.448v-4.005h12.449v-6.201h-14.16v-4.004h14.16v-.004h3.792v14.261Z"/>
      <path d="M1346.402,954.356h-19.239s0-24.52,0-24.52l19.239-.002v24.522ZM1330.955,950.296h11.655v-16.451h-11.655v16.451Z"/>
      <path d="M1370.239,944.099h0v10.259h-3.792v-10.278h-15.449v-14.252h3.795v10.22h11.655v-10.209h3.792v14.261Z"/>
      <path d="M1394.072,954.355h-15.447v.002h-3.793v-24.522h3.793v.004h11.655v-.006h3.792v24.522ZM1378.625,933.844v6.201h11.655v-6.201h-11.655ZM1378.625,950.295h11.655v-6.246h-11.655v6.246Z"/>
      <path d="M1417.975,954.358h-3.793v-18.669l-5.796,5.852-5.925-5.852v18.669h-3.794v-24.542h3.794l5.925,5.873,5.796-5.873h3.793v24.542Z"/>
      <path d="M993.395,992.214v-5.166h-6.796v-4.143h10.939l.003,13.453h-19.358v-24.538h19.358v4.031h-15.557v16.363h11.41Z"/>
      <path d="M1021.433,975.609h-7.759v20.749h-3.792v-20.749h-7.759v-3.792h19.31v3.792Z"/>
      <path d="M1035.267,986.455h-5.446v9.902h-3.792v-24.553h3.792s9.675,0,9.675,0c3.227,0,5.842,2.615,5.842,5.841v2.968c0,3.176-2.536,5.758-5.693,5.837l5.72,9.907h-4.38s-5.717-9.903-5.717-9.903ZM1029.82,975.937v6.385h9.735c1.099,0,1.989-.891,1.989-1.989v-2.407c0-1.098-.891-1.989-1.989-1.989h-9.735Z"/>
      <path d="M1063.641,996.349l-9.485-9.488v9.497h-4.222v-13.721h0v-.307s0-10.498,0-10.498h4.222v6.357l6.87-6.358h5.971l-11.184,10.722,13.795,13.804-5.967-.008Z"/>
      <path d="M1168.394,996.356h-19.239s0-24.52,0-24.52l19.239-.002v24.522ZM1152.947,992.296h11.655v-16.451h-11.655v16.451Z"/>
      <path d="M1204.793,996.358h-3.794v-18.669l-5.795,5.852-5.926-5.852v18.669h-3.794v-24.542h3.794l5.926,5.873,5.795-5.873h3.794v24.542Z"/>
      <path d="M1212.674,996.358l-3.284-1.896,13.063-22.627,3.284,1.896-13.063,22.627Z"/>
      <path d="M1324.526,996.356h-19.24s0-24.52,0-24.52l19.24-.002v24.522ZM1309.079,992.296h11.655v-16.451h-11.655v16.451Z"/>
      <path d="M1348.431,975.609h-7.759v20.749h-3.792v-20.749h-7.759v-3.792h19.31v3.792Z"/>
      <path d="M993.395,1034.214v-5.166h-6.796v-4.143h10.939l.003,13.453h-19.358v-24.538h19.358v4.031h-15.557v16.363h11.41Z"/>
      <path d="M1005.951,1017.864v6.199h15.446v14.295h-19.274l.002-4.065h15.445v-6.199h-15.447v-14.261h19.274v4.031h-15.446Z"/>
      <path d="M1132.695,1038.357h-1.652s-16.618,0-16.618,0v-4.06h14.479v-6.246h-11.655v.047h-3.793v-14.261h3.793v.003h14.159v4.005h-14.159v6.201h12.448v.017h2.999v14.294Z"/>
      <path d="M1155.317,1028.099h0v10.259h-3.792v-14.294h0v-6.214h-14.235v-4.02h16.047v.007h1.98v14.261Z"/>
      <path d="M1179.142,1028.099h0v10.259h-3.792v-10.278h-15.449v-14.252h3.795v10.22h11.655v-10.209h3.792v14.261Z"/>
      <path d="M1222.432,1038.349l-9.486-9.488v9.497h-4.222v-24.525h4.222v6.357l6.87-6.358h5.972l-11.185,10.722,13.796,13.804-5.967-.008Z"/>
      <path d="M1252.288,1017.609h-7.759v20.749h-3.792v-20.749h-7.759v-3.792h19.31v3.792Z"/>
      <path d="M1260.711,1017.864v6.199h15.446v14.295h-19.274l.002-4.065h15.444v-6.199h-15.446v-14.261h19.274v4.031h-15.446Z"/>
    </g>
    <g>
      <path d="M710.783,1174.688h-5.446v9.902h-3.792v-24.553h3.792s9.675,0,9.675,0c3.226,0,5.841,2.615,5.841,5.841v2.968c0,3.176-2.536,5.759-5.693,5.837l5.72,9.907h-4.38s-5.717-9.903-5.717-9.903ZM705.337,1164.17v6.385h9.735c1.099,0,1.989-.891,1.989-1.989v-2.407c0-1.099-.891-1.989-1.989-1.989h-9.735Z"/>
      <path d="M729.142,1164.103v6.202l15.644.035v4.025l-15.637-.036v6.202l15.637.035v4.025l-19.334-.036v-4.024h.004v-6.202h-.004v-1.273h-.003v-12.942h.003v-.036h19.334v4.025h-15.644Z"/>
      <path d="M753.146,1164.177v6.368h15.519v4.133h-15.511v9.914h-3.792v-9.914h-.004v-1.307h-.003v-13.29h.003v-.037h19.308v4.133h-15.519Z"/>
      <path d="M805.062,1165.879v2.968c0,3.226-2.615,5.841-5.841,5.841h-9.675v9.902h-3.792v-24.553h3.792s9.675,0,9.675,0c3.226,0,5.841,2.615,5.841,5.841ZM801.27,1166.16c0-1.099-.891-1.989-1.989-1.989h-9.735v6.385h9.735c1.099,0,1.989-.891,1.989-1.989v-2.407Z"/>
      <path d="M828.968,1163.842h-7.759v20.749h-3.792v-20.749h-7.759v-3.792h19.31v3.792Z"/>
      <path d="M720.852,1226.59h-3.79s0,0,0,0h0v-.002l-11.723-17.628v17.63h-3.792v-24.534h3.792l11.723,17.588v-17.589h3.792v24.535Z"/>
      <path d="M794.67,1216.332h0v10.259h-3.792v-10.278h-15.449v-14.252h3.795v10.22h11.655v-10.209h3.792v14.261Z"/>
      <path d="M799.262,1202.079h3.792v24.512h-3.792v-24.512Z"/>
      <path d="M823.694,1201.155c1.973,0,3.572,1.596,3.572,3.565s-1.599,3.564-3.572,3.564-3.572-1.596-3.572-3.564,1.6-3.565,3.572-3.565ZM821.853,1204.72c0,1.011.826,1.833,1.841,1.833s1.84-.823,1.84-1.833-.826-1.834-1.84-1.834-1.841.823-1.841,1.834Z"/>
      <path d="M849.798,1216.332h0v10.259h-3.777s-14.162,0-14.162,0v-4.063h14.147v-6.244h-12.448v-4.005h12.449v-6.201h-14.16v-4.005h14.16v-.003h3.792v14.261Z"/>
      <path d="M873.625,1226.59h-19.24s0-24.52,0-24.52l19.24-.002v24.522ZM858.178,1222.53h11.655v-16.451h-11.655v16.451Z"/>
      <path d="M878.221,1226.591v-4.031h3.76v4.031h-3.76Z"/>
      <path d="M886.55,1202.079h3.792v24.512h-3.792v-24.512Z"/>
      <path d="M894.915,1202.079h3.792v24.512h-3.792v-24.512Z"/>
      <path d="M922.519,1226.589h-15.447v.002h-3.792v-24.522h3.792v.004h11.655v-.006h3.792v24.522ZM907.072,1206.077v6.201h11.655v-6.201h-11.655ZM907.072,1222.529h11.655v-6.246h-11.655v6.246Z"/>
      <path d="M927.114,1202.079h3.792v24.512h-3.792v-24.512Z"/>
      <path d="M701.544,1244.05h3.794v18.668l5.795-5.852,5.925,5.852v-18.668h3.793v24.542h-3.793l-5.925-5.873-5.795,5.873h-3.794v-24.542Z"/>
      <path d="M794.667,1268.59h-19.24s0-24.52,0-24.52l19.24-.002v24.522ZM779.22,1264.53h11.655v-16.451h-11.655v16.451Z"/>
      <path d="M818.504,1258.332h0v10.259h-3.792v-10.278h-15.449v-14.252h3.795v10.22h11.655v-10.209h3.792v14.261Z"/>
      <path d="M823.097,1244.079h3.792v24.512h-3.792v-24.512Z"/>
      <path d="M847.529,1243.155c1.973,0,3.572,1.596,3.572,3.565s-1.599,3.564-3.572,3.564-3.572-1.596-3.572-3.564,1.6-3.565,3.572-3.565ZM845.688,1246.72c0,1.011.826,1.833,1.841,1.833s1.84-.823,1.84-1.833-.826-1.834-1.84-1.834-1.841.823-1.841,1.834Z"/>
      <path d="M871.129,1258.332v-.047h-11.655v6.246h14.478v4.06h-16.618s-1.652,0-1.652,0v-14.294h2.999v-.017h12.449v-6.201h-14.16v-4.005h14.16v-.003h3.792v14.261h-3.792Z"/>
      <path d="M898.755,1268.589h-15.447v.002h-3.792v-24.522h3.792v.004h11.655v-.006h3.792v24.522ZM883.308,1248.077v6.201h11.655v-6.201h-11.655ZM883.308,1264.529h11.655v-6.246h-11.655v6.246Z"/>
      <path d="M903.351,1268.591v-4.031h3.76v4.031h-3.76Z"/>
      <path d="M930.922,1258.332h0v10.259h-3.792v-10.278h-15.449v-14.252h3.795v10.22h11.655v-10.209h3.792v14.261Z"/>
      <path d="M954.754,1268.591h-1.652s-16.618,0-16.618,0v-4.06h14.478v-6.246h-11.655v.047h-3.792v-14.261h3.792v.003h14.16v4.005h-14.16v6.201h12.449v.017h2.999v14.294Z"/>
      <path d="M978.589,1268.589h-15.447v.002h-3.792v-24.522h3.792v.004h11.655v-.006h3.792v24.522ZM963.142,1248.077v6.201h11.655v-6.201h-11.655ZM963.142,1264.529h11.655v-6.246h-11.655v6.246Z"/>
      <path d="M1002.424,1268.591h-1.652s-16.618,0-16.618,0v-4.06h14.478v-6.246h-11.655v.047h-3.792v-14.261h3.792v.003h14.16v4.005h-14.16v6.201h12.449v.017h2.999v14.294Z"/>
      <path d="M705.238,1290.103v6.202l15.644.035v4.024l-15.637-.035v6.202l15.637.035v4.024l-19.334-.035v-4.024h.004v-6.202h-.004v-1.273h-.003v-12.942h.003v-.036h19.334v4.025h-15.644Z"/>
      <path d="M739.602,1310.591h-14.153v-24.513h4.259v20.254h9.894v4.259Z"/>
      <path d="M744.174,1286.089h4.284l5.324,17.67,5.335-17.67h4.365l-7.621,24.502h-4.139l-7.548-24.502Z"/>
      <path d="M805.562,1286.079h3.792v24.512h-3.792v-24.512Z"/>
      <path d="M833.167,1310.59h-19.24s0-24.521,0-24.521l19.24-.002v24.522ZM817.72,1306.529h11.655v-16.451h-11.655v16.451Z"/>
      <path d="M857.002,1310.59h-19.24s0-24.521,0-24.521l19.24-.002v24.522ZM841.555,1306.529h11.655v-16.451h-11.655v16.451Z"/>
      <path d="M877.884,1290.177v6.368h15.519v4.133h-15.511v9.913h-3.792v-9.913h-.004v-1.308h-.003v-13.29h.003v-.036h19.308v4.133h-15.519Z"/>
      <path d="M917.306,1289.842h-7.759v20.749h-3.792v-20.749h-7.759v-3.792h19.31v3.792Z"/>
      <path d="M978.693,1310.591h-3.793v-18.669l-5.795,5.853-5.925-5.853v18.669h-3.794v-24.541h3.794l5.925,5.872,5.795-5.872h3.793v24.541Z"/>
      <path d="M987.118,1290.098v6.198h15.446v14.295h-19.274l.002-4.064h15.445v-6.199h-15.447v-14.261h19.274v4.031h-15.446Z"/>
      <path d="M1021.312,1310.591h-14.153v-24.513h4.259v20.254h9.894v4.259Z"/>
      <path d="M982.372,1342.331h0v10.26h-17.939v-4.062h14.147v-6.244h-12.448v-4.005h12.449v-6.2h-14.16v-4.005h14.16v-.004h3.792v14.261Z"/>
      <path d="M1006.2,1352.59h-19.24s0-24.521,0-24.521l19.24-.002v24.522ZM990.752,1348.529h11.655v-16.451h-11.655v16.451Z"/>
      <path d="M1030.103,1352.591h-3.793v-18.669l-5.795,5.853-5.925-5.853v18.669h-3.794v-24.541h3.794l5.925,5.872,5.795-5.872h3.793v24.541Z"/>
    </g>
    <g>
      <path d="M1398.792,1159.003h7.269c3.326,0,6.022,2.696,6.022,6.022v12.483c0,3.326-2.696,6.023-6.022,6.023h-7.269c-3.326,0-6.022-2.696-6.022-6.022v-12.484c0-3.326,2.696-6.022,6.022-6.022ZM1400.531,1179.739h3.753c2.213,0,4.007-1.794,4.007-4.007v-8.984c0-2.183-1.771-3.953-3.953-3.953h-3.838c-2.175,0-3.938,1.763-3.938,3.938v9.036c0,2.192,1.777,3.97,3.97,3.97Z"/>
      <path d="M1419.958,1183.532l-3.284-1.896,13.063-22.627,3.284,1.896-13.063,22.626Z"/>
      <path d="M1441.432,1163.038v6.199h15.446v14.295h-19.274l.002-4.065h15.444v-6.199h-15.446v-14.261h19.274v4.031h-15.446Z"/>
      <path d="M1518.267,1162.783h-7.759v20.749h-3.792v-20.749h-7.759v-3.792h19.31v3.792Z"/>
      <path d="M1528.885,1159.003h7.269c3.326,0,6.022,2.696,6.022,6.022v12.483c0,3.326-2.696,6.023-6.022,6.023h-7.269c-3.326,0-6.022-2.696-6.022-6.022v-12.484c0-3.326,2.696-6.022,6.022-6.022ZM1530.624,1179.739h3.753c2.213,0,4.007-1.794,4.007-4.007v-8.984c0-2.183-1.771-3.953-3.953-3.953h-3.838c-2.175,0-3.938,1.763-3.938,3.938v9.036c0,2.192,1.777,3.97,3.97,3.97Z"/>
      <path d="M1578.57,1162.783h-7.759v20.749h-3.792v-20.749h-7.759v-3.792h19.31v3.792Z"/>
      <path d="M1598.378,1179.388v-5.166h-6.796v-4.143h10.939l.003,13.453h-19.358v-24.538h19.358v4.031h-15.557v16.363h11.41Z"/>
      <path d="M1626.416,1162.783h-7.759v20.749h-3.792v-20.749h-7.759v-3.792h19.31v3.792Z"/>
      <path d="M1402.009,1215.628h-5.447v9.902h-3.792v-24.553h3.792s9.675,0,9.675,0c3.227,0,5.842,2.615,5.842,5.841v2.968c0,3.176-2.536,5.759-5.693,5.837l5.72,9.907h-4.379s-5.717-9.903-5.717-9.903ZM1396.561,1205.111v6.385h9.735c1.099,0,1.989-.891,1.989-1.989v-2.407c0-1.099-.891-1.989-1.989-1.989h-9.735Z"/>
      <path d="M1435.981,1225.53h-3.79s0,0,0,0h0v-.002l-11.724-17.628v17.63h-3.792v-24.534h3.792l11.724,17.588v-17.589h3.792v24.535Z"/>
      <path d="M1455.791,1221.388v-5.166h-6.796v-4.143h10.939l.003,13.453h-19.358v-24.538h19.358v4.031h-15.557v16.363h11.41Z"/>
      <path d="M1571.222,1225.53h-19.24s0-24.52,0-24.52l19.24-.002v24.522ZM1555.773,1221.47h11.655v-16.451h-11.655v16.451Z"/>
      <path d="M1617.092,1205.117v6.368h15.52v4.133h-15.512v9.914h-3.792v-9.914h-.005v-1.307h-.003v-13.29h.003v-.037h19.309v4.133h-15.52Z"/>
      <path d="M1656.515,1204.783h-7.759v20.749h-3.792v-20.749h-7.759v-3.792h19.31v3.792Z"/>
      <path d="M1412.085,1251.425c0,1.432-.516,2.742-1.37,3.758.854,1.016,1.37,2.327,1.37,3.758v3.361c0,3.226-2.614,5.229-5.841,5.229h-9.683s-3.792.001-3.792.001v-24.526h3.792v.003h9.683c3.226,0,5.841,2.615,5.841,5.841v2.576ZM1396.561,1247.141v5.959h9.683c.12,0,.239.004.357.012.957-.143,1.692-.969,1.692-1.967v-2.014c0-1.099-.891-1.989-1.989-1.989h-9.743ZM1408.294,1259.222c0-.998-.736-1.825-1.695-1.967-.117.007-.235.012-.354.012h-9.683v6.131h9.743c1.099,0,1.989-.278,1.989-1.376v-2.799Z"/>
      <path d="M1425.913,1257.628h-5.447v9.902h-3.792v-24.553h3.792s9.675,0,9.675,0c3.227,0,5.842,2.615,5.842,5.841v2.968c0,3.176-2.536,5.759-5.693,5.837l5.72,9.907h-4.379s-5.717-9.903-5.717-9.903ZM1420.466,1247.111v6.385h9.735c1.099,0,1.989-.891,1.989-1.989v-2.407c0-1.099-.891-1.989-1.989-1.989h-9.735Z"/>
      <path d="M1455.791,1263.388v-5.166h-6.796v-4.143h10.939l.003,13.453h-19.358v-24.538h19.358v4.031h-15.557v16.363h11.41Z"/>
      <path d="M1571.222,1267.53h-19.24s0-24.52,0-24.52l19.24-.002v24.522ZM1555.773,1263.47h11.655v-16.451h-11.655v16.451Z"/>
      <path d="M1632.609,1246.783h-7.759v20.749h-3.792v-20.749h-7.759v-3.792h19.31v3.792Z"/>
      <path d="M1396.463,1289.043v6.202l15.645.035v4.024l-15.638-.035v6.202l15.638.035v4.024l-19.335-.035v-4.024h.005v-6.202h-.005v-1.273h-.003v-12.942h.003v-.036h19.335v4.025h-15.645Z"/>
      <path d="M1430.827,1309.531h-14.153v-24.513h4.26v20.254h9.894v4.259Z"/>
      <path d="M1435.399,1285.029h4.284l5.323,17.67,5.335-17.67h4.366l-7.622,24.502h-4.138l-7.549-24.502Z"/>
      <path d="M1566.007,1309.53h-19.24s0-24.521,0-24.521l19.24-.002v24.522ZM1550.559,1305.47h11.655v-16.451h-11.655v16.451Z"/>
      <path d="M1624.371,1289.117v6.368h15.52v4.133h-15.512v9.913h-3.792v-9.913h-.005v-1.308h-.003v-13.29h.003v-.036h19.309v4.133h-15.52Z"/>
      <path d="M1663.794,1288.782h-7.759v20.749h-3.792v-20.749h-7.759v-3.792h19.31v3.792Z"/>
      <path d="M1568.497,1351.53h-19.239s0-24.521,0-24.521l19.239-.002v24.522ZM1553.05,1347.47h11.655v-16.451h-11.655v16.451Z"/>
      <path d="M1642.378,1351.531h-3.794v-18.669l-5.796,5.853-5.925-5.853v18.669h-3.794v-24.541h3.794l5.925,5.872,5.796-5.872h3.794v24.541Z"/>
    </g>
    <g>
      <path d="M850.405,1434.262h-7.759v20.749h-3.792v-20.749h-7.759v-3.792h19.31v3.792Z"/>
      <path d="M858.693,1434.521v6.202l15.644.036v4.024l-15.637-.035v6.201l15.637.036v4.024l-19.334-.035v-4.025h.004v-6.201h-.004v-1.273h-.003v-12.942h.003v-.036h19.334v4.024h-15.644Z"/>
      <path d="M888.143,1445.107h-5.446v9.902h-3.792v-24.553h13.467c3.226,0,5.841,2.615,5.841,5.841v2.968c0,3.177-2.536,5.759-5.693,5.838l5.72,9.907h-4.38s-5.717-9.903-5.717-9.903ZM882.697,1434.59v6.385h9.735c1.099,0,1.989-.891,1.989-1.989v-2.406c0-1.099-.891-1.989-1.989-1.989h-9.735Z"/>
      <path d="M922.118,1455.011h-3.793v-18.669l-5.795,5.852-5.925-5.852v18.669h-3.794v-24.542h3.794l5.925,5.873,5.795-5.873h3.793v24.542Z"/>
      <path d="M983.527,1430.5v24.511h-3.792v-10.177h-11.744v10.177h-3.792v-24.511h3.792v10.201h11.744v-10.201h3.792Z"/>
      <path d="M1007.456,1442.706c0,6.773-5.466,12.302-12.239,12.302l-7.111.003-.004-24.546h7.09c6.773,0,12.263,5.469,12.263,12.241ZM1003.335,1442.718c0-4.335-2.615-8.132-6.95-8.132h-4.441l.065,16.339h4.456c4.335,0,6.869-3.872,6.869-8.207Z"/>
      <path d="M1027.255,1450.867v-5.166h-6.796v-4.144h10.94l.003,13.453h-19.359v-24.537h19.359v4.03h-15.557v16.363h11.41Z"/>
      <path d="M1142.684,1455.01h-19.24s0-24.521,0-24.521l19.24-.002v24.522ZM1127.237,1450.949h11.655v-16.451h-11.655v16.451Z"/>
      <path d="M1166.519,1455.01h-19.24s0-24.521,0-24.521l19.24-.002v24.522ZM1151.072,1450.949h11.655v-16.451h-11.655v16.451Z"/>
      <path d="M1190.354,1455.011h-18.27v-4.061h14.478v-6.245h-13.467v-.007h-1.98v-14.208l19.24-.002v24.522ZM1186.562,1440.7v-6.201h-11.655v6.201h11.655Z"/>
      <path d="M1214.259,1434.262h-7.759v20.749h-3.792v-20.749h-7.759v-3.792h19.31v3.792Z"/>
      <path d="M1521.254,1455.011l-2.249-7.467h-6.155l-2.255,7.467h-4.365l7.622-24.503h4.138l7.549,24.503h-4.284ZM1517.76,1443.411l-1.829-6.07-1.833,6.07h3.662Z"/>
      <path d="M1549.442,1455.009h-3.79v.002-.002h-.002s-11.724-17.63-11.724-17.63v17.63h-3.792v-24.534h3.792l11.724,17.589v-17.59h3.792v24.535Z"/>
      <path d="M1569.251,1450.867v-5.166h-6.796v-4.144h10.939l.003,13.453h-19.358v-24.537h19.358v4.03h-15.557v16.363h11.41Z"/>
      <path d="M1697.176,1455.008h-1.652s-13.796,0-13.796,0v.002h-3.792v-24.524h3.792v.006h14.16v4.024h-14.16v6.181h12.449v.017h2.999v14.294ZM1681.727,1450.948h11.655v-6.246h-11.655v6.246Z"/>
      <path d="M1721.011,1455.011h-18.271v-4.061h14.478v-6.245h-11.655v.047h-3.792v-14.262h3.792v.004h14.16v4.005h-14.16v6.201h12.449v.017h2.999v14.294Z"/>
      <path d="M981.03,1472.508h4.284l5.324,17.671,5.335-17.671h4.365l-7.621,24.503h-4.139l-7.548-24.503Z"/>
      <path d="M1008.628,1476.521v6.202l15.644.036v4.024l-15.637-.035v6.201l15.637.036v4.024l-19.334-.035v-4.025h.004v-6.201h-.004v-1.273h-.003v-12.942h.003v-.036h19.334v4.024h-15.644Z"/>
      <path d="M1042.993,1497.011h-14.153v-24.513h4.259v20.253h9.894v4.26Z"/>
      <path d="M1166.764,1486.752h0v10.259h-3.792v-10.278h-15.449v-14.252h3.795v10.22h11.655v-10.209h3.792v14.261Z"/>
      <path d="M1190.596,1497.011h-18.27v-4.061h14.478v-6.245h-13.467v-.007h-1.98v-14.208l19.24-.002v24.522ZM1186.804,1482.7v-6.201h-11.655v6.201h11.655Z"/>
      <path d="M1214.431,1497.011h-18.27v-4.061h14.478v-6.245h-13.467v-.007h-1.98v-14.208l19.239-.002v24.522ZM1210.639,1482.7v-6.201h-11.655v6.201h11.655Z"/>
      <path d="M1235.312,1476.596v6.368h15.519v4.133h-15.511v9.914h-3.793v-9.914h-.004v-1.307h-.003v-13.29h.003v-.036h19.308v4.132h-15.519Z"/>
      <path d="M1274.734,1476.262h-7.759v20.749h-3.792v-20.749h-7.759v-3.792h19.31v3.792Z"/>
      <path d="M1282.614,1497.011l-3.284-1.896,13.063-22.626,3.284,1.896-13.063,22.627Z"/>
      <path d="M1304.088,1476.517v6.199h15.446v14.295h-19.274l.002-4.064h15.444v-6.199h-15.446v-14.261h19.274v4.03h-15.446Z"/>
      <path d="M1327.822,1476.521v6.202l15.645.036v4.024l-15.637-.035v6.201l15.637.036v4.024l-19.335-.035v-4.025h.005v-6.201h-.005v-1.273h-.003v-12.942h.003v-.036h19.335v4.024h-15.645Z"/>
      <path d="M1351.826,1476.596v16.282h15.519v4.133h-19.311v-24.511h.003v-.036h19.308v4.132h-15.519Z"/>
      <path d="M1528.688,1476.262h-7.759v20.749h-3.792v-20.749h-7.759v-3.792h19.31v3.792Z"/>
      <path d="M1539.306,1472.481h7.269c3.326,0,6.022,2.696,6.022,6.022v12.484c0,3.326-2.696,6.022-6.022,6.022h-7.269c-3.326,0-6.022-2.696-6.022-6.022v-12.484c0-3.326,2.696-6.022,6.022-6.022ZM1541.045,1493.218h3.753c2.213,0,4.007-1.794,4.007-4.007v-8.984c0-2.183-1.771-3.952-3.953-3.952h-3.838c-2.175,0-3.938,1.763-3.938,3.938v9.035c0,2.192,1.777,3.97,3.97,3.97Z"/>
      <path d="M1560.98,1476.596v6.368h15.52v4.133h-15.512v9.914h-3.792v-9.914h-.005v-1.307h-.003v-13.29h.003v-.036h19.309v4.132h-15.52Z"/>
      <path d="M1687.795,1497.01h-19.239s0-24.521,0-24.521l19.239-.002v24.522ZM1672.348,1492.949h11.655v-16.451h-11.655v16.451Z"/>
      <path d="M1692.264,1479.442h4.684v4.683h-4.684v-4.683ZM1692.264,1492.328h4.684v4.683h-4.684v-4.683Z"/>
      <path d="M1719.357,1486.751h0v10.259h-3.777s-14.161,0-14.161,0v-4.063h14.146v-6.243h-12.448v-4.005h12.449v-6.2h-14.16v-4.005h14.16v-.004h3.792v14.261Z"/>
      <path d="M1743.184,1497.008h-1.652s-13.796,0-13.796,0v.002h-3.792v-24.524h3.792v.006h14.16v4.024h-14.16v6.181h12.449v.017h2.999v14.294ZM1727.736,1492.948h11.655v-6.246h-11.655v6.246Z"/>
    </g>
    <g>
      <path d="M877.287,1586.986v20.254c0,2.352-1.907,4.259-4.259,4.259l-3.855-.008c-1.22-.003-3.034-.626-3.857-1.357-.915-.813-1.933-2.536-2.049-3.328-.034-.228.143-.432.373-.432h3.356c.205,0,.393.127.458.322.02.06.052.125.103.192.168.228.442.351.725.351h3.013c.958,0,1.734-.776,1.734-1.734v-18.519h4.259Z"/>
      <path d="M901.19,1592.787v2.968c0,3.227-2.615,5.842-5.841,5.842h-9.675v9.902h-3.792v-24.553h13.467c3.226,0,5.841,2.615,5.841,5.841ZM897.398,1593.068c0-1.099-.891-1.989-1.989-1.989h-9.735v6.385h9.735c1.099,0,1.989-.891,1.989-1.989v-2.406Z"/>
      <path d="M909.579,1591.084v6.368h15.519v4.133h-15.511v9.914h-3.792v-9.914h-.004v-1.307h-.003v-13.29h.003v-.036h19.308v4.132h-15.519Z"/>
      <path d="M986.483,1611.497h-3.79v.002-.002h-.002s-11.723-17.63-11.723-17.63v17.63h-3.792v-24.534h3.792l11.723,17.589v-17.59h3.792v24.535Z"/>
      <path d="M997.103,1586.97h7.268c3.326,0,6.022,2.696,6.022,6.022v12.484c0,3.326-2.696,6.022-6.022,6.022h-7.268c-3.326,0-6.023-2.696-6.023-6.022v-12.484c0-3.326,2.697-6.022,6.023-6.022ZM998.842,1607.706h3.752c2.213,0,4.007-1.794,4.007-4.007v-8.984c0-2.183-1.77-3.952-3.953-3.952h-3.837c-2.175,0-3.938,1.763-3.938,3.938v9.035c0,2.192,1.777,3.97,3.97,3.97Z"/>
      <path d="M1034.292,1611.497h-3.79v.002-.002h-.002s-11.723-17.63-11.723-17.63v17.63h-3.792v-24.534h3.792l11.723,17.589v-17.59h3.792v24.535Z"/>
      <path d="M1042.583,1591.01v6.202l15.644.036v4.024l-15.637-.035v6.201l15.637.036v4.024l-19.334-.035v-4.025h.004v-6.201h-.004v-1.273h-.003v-12.942h.003v-.036h19.334v4.024h-15.644Z"/>
    </g>
    <line x1="979.258" y1="876.821" x2="1190.517" y2="876.821" stroke="#000" stroke-miterlimit="10" stroke-width="4"/>
    <line x1="702.581" y1="1192.042" x2="829.51" y2="1192.042" stroke="#000" stroke-miterlimit="10" stroke-width="4"/>
    <line x1="1391.627" y1="1192.042" x2="1602.016" y2="1192.042" stroke="#000" stroke-miterlimit="10" stroke-width="4"/>
    <line x1="828.735" y1="1460.044" x2="926.974" y2="1460.044" stroke="#000" stroke-miterlimit="10" stroke-width="4"/>
    <line x1="862.641" y1="1620.009" x2="920.02" y2="1620.009" stroke="#000" stroke-miterlimit="10" stroke-width="4"/>
    <g>
      <rect x="958.82" y="1928.558" width="159.965" height="35.194" fill="none"/>
      <path d="M999.476,1940.535v6.199h15.446v14.295h-19.274l.002-4.064h15.445v-6.199h-15.447v-14.261h19.274v4.03h-15.446Z"/>
      <path d="M1037.288,1940.28h-7.759v20.749h-3.792v-20.749h-7.759v-3.792h19.31v3.792Z"/>
      <path d="M1055.367,1961.029l-2.25-7.467h-6.155l-2.254,7.467h-4.366l7.622-24.503h4.139l7.548,24.503h-4.284ZM1051.872,1949.43l-1.829-6.07-1.833,6.07h3.662Z"/>
      <path d="M1081.95,1950.771h0v10.259h-3.792v-10.278h-15.449v-14.252h3.795v10.22h11.655v-10.209h3.792v14.261Z"/>
    </g>
    <g>
      <rect x="1269.876" y="1928.557" width="159.965" height="35.194" fill="none"/>
      <path d="M1310.532,1940.535v6.199h15.446v14.295h-19.274l.002-4.064h15.444v-6.199h-15.446v-14.261h19.274v4.03h-15.446Z"/>
      <path d="M1348.343,1940.28h-7.759v20.749h-3.792v-20.749h-7.759v-3.792h19.31v3.792Z"/>
      <path d="M1366.422,1961.029l-2.249-7.467h-6.155l-2.255,7.467h-4.365l7.622-24.503h4.138l7.549,24.503h-4.284ZM1362.928,1949.43l-1.829-6.07-1.833,6.07h3.662Z"/>
      <path d="M1393.002,1961.029h-18.271v-4.061h14.478v-6.245h-11.655v.047h-3.792v-14.262h3.792v.004h14.16v4.005h-14.16v6.201h12.449v.017h2.999v14.294Z"/>
    </g>
    <g>
      <rect x="1459.604" y="1928.557" width="159.965" height="35.194" fill="none"/>
      <path d="M1500.262,1940.534v6.199h15.446v14.295h-19.274l.002-4.064h15.444v-6.199h-15.446v-14.261h19.274v4.03h-15.446Z"/>
      <path d="M1538.072,1940.279h-7.759v20.749h-3.792v-20.749h-7.759v-3.792h19.31v3.792Z"/>
      <path d="M1556.151,1961.028l-2.249-7.467h-6.155l-2.255,7.467h-4.365l7.622-24.503h4.138l7.549,24.503h-4.284ZM1552.657,1949.429l-1.829-6.07-1.833,6.07h3.662Z"/>
      <path d="M1582.731,1961.025h-1.652s-13.796,0-13.796,0v.002h-3.792v-24.524h3.792v.006h14.16v4.024h-14.16v6.181h12.449v.017h2.999v14.294ZM1567.283,1956.966h11.655v-6.246h-11.655v6.246Z"/>
    </g>
    <rect x="797.641" y="1929.13" width="105.261" height="38.348" fill="none" stroke="#000" stroke-miterlimit="10" stroke-width="4"/>
    <g>
      <rect x="1908.977" y="1156.696" width="37.043" height="133.043" fill="none"/>
      <path d="M1927.015,1179.38h-6.223v11.314h-4.333v-28.053h4.333s11.054,0,11.054,0c3.686,0,6.674,2.988,6.674,6.674v3.391c0,3.629-2.897,6.58-6.505,6.67l6.535,11.319h-5.004s-6.531-11.315-6.531-11.315ZM1920.792,1167.363v7.295h11.122c1.256,0,2.273-1.018,2.273-2.273v-2.75c0-1.255-1.018-2.273-2.273-2.273h-11.122Z"/>
      <path d="M1920.679,1200.286v7.086l17.874.041v4.598l-17.866-.041v7.086l17.866.041v4.599l-22.091-.041v-4.599h.005v-7.086h-.005v-1.454h-.003v-14.788h.003v-.041h22.091v4.599h-17.874Z"/>
      <path d="M1920.792,1233.371v7.276h17.73v4.722h-17.723v11.327h-4.332v-11.327h-.006v-1.493h-.003v-15.184h.003v-.042h22.061v4.722h-17.73Z"/>
      <path d="M1938.519,1268.316v3.392c0,3.686-2.988,6.673-6.674,6.674h-11.054v11.314h-4.333v-28.053h15.387c3.686,0,6.674,2.988,6.674,6.673ZM1934.187,1268.637c0-1.255-1.018-2.273-2.273-2.273h-11.122v7.295h11.122c1.256,0,2.273-1.018,2.273-2.273v-2.75Z"/>
    </g>
    <rect x="1908.946" y="1155.913" width="37.565" height="139.304" fill="none" stroke="#000" stroke-miterlimit="10" stroke-width="4"/>
  </g>
</svg>