<?xml version="1.0" encoding="UTF-8"?>
<svg xmlns="http://www.w3.org/2000/svg" width="752.939" height="824.779" viewBox="0 0 752.939 824.779">
  <g id="Layer_2">
    <polygon points="640.879 233.934 502.358 186.195 378.035 186.195 253.712 186.195 115.19 233.934 66.668 373.238 66.668 621.325 112.842 766.89 249.799 813.064 378.035 813.064 506.271 813.064 643.227 766.89 689.401 621.325 689.401 373.238 640.879 233.934" fill="#fff" stroke="#000" stroke-miterlimit="10" stroke-width="9"/>
    <circle cx="378.086" cy="494.6" r="274.556" stroke="#000" stroke-miterlimit="10"/>
    <circle cx="378.086" cy="494.6" r="302.012" fill="none" stroke="#000" stroke-miterlimit="10" stroke-width="9"/>
    <circle cx="379.608" cy="496.237" r="19.565" fill="none" stroke="#000" stroke-miterlimit="10" stroke-width="4"/>
    <polygon points="379.608 286.729 397.061 232.168 362.155 232.168 379.608 286.729" fill="#fff" stroke="#000" stroke-miterlimit="10" stroke-width="3"/>
    <rect x="472.638" y="620.082" width="10.075" height="65.018" rx="3.13" ry="3.13" transform="translate(-273.885 353.919) rotate(-32.124)" fill="#fff" stroke="#fff" stroke-miterlimit="10" stroke-width=".75"/>
    <path d="M266.806,295.118l-30.73-42.805-1.438.338-1.004,1.083,22.042,47.861c7.109,15.437,7.024,33.228-.232,48.596l17.11,28.033,7.829,2.351-1.758-7.746c-2.401-10.58-.245-21.683,5.941-30.595l3.31-1.926c10.805-.977,21.524,2.632,29.537,9.945l5.867,5.354,1.822-7.968-15.925-28.723c-16.947-1.28-32.459-9.994-42.37-23.8Z" fill="#fff"/>
    <circle cx="379.969" cy="495.995" r="18.787" fill="#fff" stroke="#000" stroke-miterlimit="10" stroke-width="4"/>
    <polygon points="465.747 632.148 427.135 620.03 260.568 349.438 303.334 323.112 469.503 593.057 465.747 632.148" fill="none" stroke="#fff" stroke-miterlimit="10" stroke-width="7"/>
    <path d="M376.585,442.4c7.585,11.996,4.23,27.729-7.492,35.14-11.722,7.412-27.374,3.695-34.958-8.301" fill="none" stroke="#fff" stroke-miterlimit="10" stroke-width="7"/>
    <path d="M426.603,523.316c-7.464-12.071-23.077-15.945-34.872-8.652-11.795,7.293-15.306,22.991-7.842,35.063" fill="none" stroke="#fff" stroke-miterlimit="10" stroke-width="7"/>
    <polygon points="481.524 305.246 431.728 361.952 444.532 368.644 280.773 681.983 286.322 684.882 450.081 371.544 462.621 378.097 481.524 305.246" fill="#fff" stroke="#000" stroke-miterlimit="10" stroke-width="2"/>
    <path d="M530.637,543.023c-8.849-7.382-18.827-13.293-29.552-17.506l-3.829-1.504v-107.217l-22.696-28.174-22.696,28.174v107.217l-3.828,1.504c-10.726,4.214-20.704,10.125-29.554,17.507l-3.01,2.511,32.87,55.565h11.739l2.235-5.344c1.083-2.589,2.645-4.914,4.578-6.869,4.223-4.273,11.108-4.273,15.332,0,1.933,1.955,3.495,4.281,4.578,6.869l2.235,5.344h11.739l32.87-55.565-3.01-2.511Z" fill="none" stroke="#fff" stroke-miterlimit="10" stroke-width="5"/>
    <g>
      <rect x="458.517" y="415.621" width="33.652" height="91.565" fill="none"/>
      <path d="M479.486,449.888h-6.289v-25.979l-4.062,1.537v-6.678l4.979-2.249h5.371v33.368Z" fill="#fff"/>
      <path d="M465.682,500.62l11.451-15.055c.521-.674.922-1.366,1.205-2.077.283-.712.425-1.373.425-1.985v-.046c0-.902-.291-1.599-.872-2.089-.582-.489-1.408-.734-2.479-.734-1.041,0-1.882.341-2.524,1.021-.643.682-1.032,1.649-1.171,2.903v.022h-6.448v-.022c.138-2.08.639-3.87,1.503-5.37.864-1.499,2.031-2.643,3.5-3.431s3.167-1.183,5.095-1.183c2.08,0,3.859.341,5.336,1.021,1.476.682,2.601,1.672,3.373,2.973.772,1.3,1.159,2.868,1.159,4.704v.022c0,1.516-.264,3.019-.792,4.51-.527,1.492-1.266,2.843-2.214,4.051l-8.217,10.373h11.406v6.059h-19.736v-5.668Z" fill="#fff"/>
    </g>
    <g>
      <rect x="457.734" y="539.651" width="33.652" height="34.84" fill="none"/>
      <path d="M468.994,572.952c-1.599-.766-2.834-1.848-3.706-3.248-.872-1.399-1.309-3.025-1.309-4.877v-.551c0-1.667.459-3.235,1.377-4.704s2.143-2.578,3.672-3.327c-1.315-.643-2.371-1.561-3.166-2.754-.796-1.193-1.193-2.464-1.193-3.811v-.871c0-1.744.408-3.278,1.228-4.602.818-1.323,1.974-2.349,3.465-3.075,1.492-.727,3.225-1.091,5.198-1.091s3.706.364,5.198,1.091c1.491.727,2.646,1.752,3.465,3.075s1.228,2.857,1.228,4.602v.871c0,1.377-.405,2.659-1.216,3.845-.812,1.186-1.882,2.092-3.213,2.72,1.545.765,2.784,1.878,3.718,3.339.933,1.461,1.4,3.025,1.4,4.692v.551c0,1.852-.437,3.478-1.309,4.877-.872,1.4-2.107,2.482-3.706,3.248-1.6.765-3.454,1.146-5.565,1.146s-3.967-.382-5.565-1.146ZM476.797,567.524c.65-.345,1.155-.83,1.515-1.457.359-.628.539-1.347.539-2.158v-.32c0-.75-.18-1.408-.539-1.975-.359-.565-.86-1.005-1.503-1.319-.643-.313-1.393-.47-2.249-.47s-1.606.156-2.249.47c-.643.314-1.144.758-1.503,1.331-.36.574-.539,1.236-.539,1.985v.345c0,.811.179,1.525.539,2.146.359.619.864,1.098,1.515,1.435.649.336,1.396.504,2.237.504s1.587-.172,2.237-.516ZM476.453,553.25c.543-.313.964-.758,1.262-1.331.299-.574.448-1.235.448-1.985v-.321c0-.703-.149-1.319-.448-1.848-.298-.527-.719-.937-1.262-1.228-.544-.29-1.175-.437-1.894-.437s-1.351.146-1.894.437c-.543.291-.964.704-1.262,1.239-.299.536-.448,1.155-.448,1.859v.344c0,.734.149,1.385.448,1.951.298.565.719,1.006,1.262,1.319s1.174.47,1.894.47,1.35-.156,1.894-.47Z" fill="#fff"/>
    </g>
    <path d="M521.853,558.341l-21.819,20.785-5.779-3.613,20.627-19.312-4.865-3.042-2.664,4.263-5.332-3.333,5.877-9.399,16.17,10.11-2.214,3.541Z" fill="#fff"/>
    <path d="M447.674,566.257l1.391.102c.051.8-.163,1.544-.643,2.232-.48.69-1.168,1.315-2.061,1.877-1.426.895-2.895,1.34-4.408,1.332-1.513-.008-2.96-.449-4.341-1.326-1.382-.875-2.589-2.137-3.622-3.781l-.012-.021c-1.146-1.827-1.804-3.591-1.969-5.294-.166-1.703.158-3.279.973-4.73.814-1.449,2.096-2.725,3.846-3.823,1.735-1.091,3.438-1.681,5.107-1.771,1.668-.09,3.237.316,4.707,1.217,1.47.902,2.781,2.273,3.937,4.113l.013.02c.594.946,1.099,2.053,1.514,3.317.416,1.266.775,2.688,1.08,4.268.05.222.096.446.139.671.042.229.078.449.106.666l2.549,15.281-5.638,3.539-2.668-17.889ZM445.945,562.532c.133-.924-.146-1.938-.838-3.037l-.012-.021c-.667-1.062-1.438-1.721-2.312-1.977-.873-.255-1.775-.089-2.709.497-.946.594-1.492,1.342-1.638,2.247-.146.904.115,1.888.782,2.95l.012.02c.692,1.102,1.48,1.789,2.367,2.064.885.273,1.801.113,2.747-.48.933-.586,1.466-1.34,1.601-2.264Z" fill="#fff"/>
    <path d="M241.844,392.641c-2.823.49-5.62-.309-8.392-2.397l-14.168-10.674c-2.801-2.11-4.345-4.587-4.633-7.433-.287-2.845.771-5.861,3.172-9.049,2.413-3.203,5.02-5.058,7.82-5.564,2.8-.506,5.609.301,8.424,2.422l14.168,10.675c2.801,2.109,4.345,4.587,4.633,7.432.287,2.846-.771,5.861-3.172,9.049-2.413,3.203-5.031,5.05-7.853,5.54ZM244.901,379.174c-.366-1.195-1.306-2.363-2.821-3.504l-11.168-8.414c-1.514-1.141-2.896-1.723-4.145-1.744-1.25-.021-2.345.591-3.285,1.839-.94,1.249-1.227,2.469-.861,3.665.365,1.194,1.306,2.362,2.82,3.503l11.168,8.414c1.515,1.141,2.896,1.723,4.146,1.745,1.249.021,2.343-.591,3.283-1.84.94-1.248,1.228-2.469.863-3.664Z" fill="#fff"/>
    <g>
      <path d="M207.632,488.651c-1.034,1.852-2.424,3.273-4.169,4.265-1.746.991-3.755,1.438-6.028,1.34l.739-7.958c.813-.038,1.519-.223,2.114-.555.598-.332,1.071-.784,1.421-1.357.349-.572.561-1.252.634-2.04.136-1.462-.147-2.627-.848-3.496-.701-.868-1.755-1.368-3.163-1.499l-.908-.085c-1.478-.138-2.648.08-3.511.652-.861.572-1.348,1.458-1.459,2.658l-.321,3.458-7.055-.655.321-3.458c.091-.975-.191-1.763-.846-2.362-.653-.6-1.612-.958-2.877-1.075l-.669-.062c-1.193-.111-2.143.099-2.849.629-.704.529-1.107,1.329-1.206,2.397-.064.694.046,1.343.331,1.945.286.604.73,1.132,1.335,1.585s1.354.807,2.247,1.06l-.737,7.93c-2.349-.445-4.331-1.306-5.945-2.581-1.615-1.274-2.791-2.854-3.522-4.737-.732-1.884-.996-3.931-.791-6.143.337-3.618,1.475-6.335,3.413-8.149s4.521-2.572,7.745-2.272l1.176.109c1.8.167,3.322.791,4.569,1.871s2.119,2.532,2.614,4.355c.61-1.929,1.73-3.36,3.364-4.296,1.632-.936,3.633-1.293,6.002-1.073l1.176.109c2.263.21,4.151.858,5.668,1.944,1.517,1.087,2.61,2.568,3.279,4.446.67,1.878.887,4.081.651,6.612-.229,2.475-.861,4.638-1.896,6.488Z" fill="#fff"/>
      <path d="M210.462,458.198c-1.033,1.852-2.424,3.273-4.168,4.264-1.746.992-3.756,1.438-6.029,1.341l.74-7.958c.812-.038,1.518-.223,2.113-.555.598-.332,1.071-.785,1.421-1.357.349-.572.561-1.253.634-2.04.136-1.462-.146-2.627-.848-3.496-.701-.868-1.755-1.368-3.163-1.499l-.908-.085c-1.478-.138-2.648.08-3.511.652-.861.572-1.348,1.458-1.459,2.657l-.321,3.459-7.055-.655.321-3.459c.091-.974-.191-1.762-.846-2.361-.652-.6-1.612-.958-2.877-1.076l-.669-.062c-1.193-.111-2.143.099-2.848.629-.705.529-1.107,1.329-1.207,2.397-.064.693.047,1.343.331,1.945.286.604.73,1.132,1.335,1.585s1.354.807,2.247,1.06l-.737,7.929c-2.349-.444-4.33-1.305-5.945-2.58-1.615-1.274-2.79-2.854-3.522-4.737s-.996-3.931-.79-6.144c.336-3.617,1.474-6.334,3.412-8.148,1.939-1.814,4.521-2.572,7.745-2.272l1.176.109c1.8.167,3.322.791,4.569,1.871s2.119,2.532,2.614,4.355c.611-1.929,1.73-3.36,3.364-4.296,1.633-.936,3.633-1.293,6.002-1.073l1.176.109c2.263.21,4.151.858,5.668,1.944,1.517,1.087,2.61,2.568,3.279,4.446.67,1.877.887,4.081.651,6.612-.229,2.475-.861,4.638-1.896,6.488Z" fill="#fff"/>
    </g>
    <g>
      <path d="M224.531,576.948c-.089,2.119-.688,4.015-1.801,5.686-1.111,1.672-2.704,2.976-4.776,3.913l-2.927-7.438c.708-.399,1.255-.882,1.638-1.448.382-.564.602-1.183.655-1.852.054-.668-.064-1.37-.354-2.105-.537-1.367-1.313-2.28-2.331-2.74-1.017-.46-2.183-.431-3.499.087l-.849.334c-1.381.544-2.329,1.265-2.841,2.165-.511.898-.546,1.908-.104,3.029l1.271,3.232-6.593,2.594-1.271-3.232c-.358-.91-.965-1.486-1.819-1.727s-1.871-.129-3.054.336l-.624.246c-1.116.439-1.869,1.055-2.261,1.846-.389.79-.389,1.686.004,2.684.256.648.647,1.178,1.173,1.588.526.409,1.162.68,1.906.812.743.132,1.571.11,2.483-.066l2.915,7.41c-2.297.661-4.454.787-6.471.377s-3.776-1.291-5.279-2.643-2.661-3.061-3.475-5.128c-1.33-3.382-1.537-6.319-.626-8.812.914-2.493,2.876-4.333,5.89-5.519l1.099-.432c1.683-.662,3.323-.792,4.923-.39,1.601.402,3.033,1.306,4.297,2.71-.324-1.997.031-3.779,1.067-5.352,1.035-1.57,2.66-2.791,4.874-3.662l1.099-.433c2.115-.832,4.094-1.104,5.937-.818,1.843.287,3.487,1.117,4.932,2.491s2.631,3.244,3.562,5.609c.91,2.312,1.32,4.528,1.231,6.646Z" fill="#fff"/>
      <path d="M212.418,550.669c-1.058,2.662-3.202,4.628-6.432,5.898l-16.508,6.494c-3.264,1.284-6.182,1.305-8.757.062s-4.594-3.721-6.055-7.436c-1.469-3.731-1.687-6.924-.652-9.576,1.032-2.652,3.188-4.623,6.469-5.914l16.508-6.494c3.264-1.283,6.183-1.305,8.758-.062s4.592,3.722,6.054,7.436c1.468,3.731,1.674,6.929.615,9.591ZM202.537,541.02c-1.209-.312-2.696-.122-4.462.572l-13.011,5.119c-1.765.693-2.982,1.567-3.654,2.621-.673,1.053-.723,2.307-.15,3.762.572,1.454,1.463,2.338,2.673,2.65,1.21.313,2.696.123,4.461-.571l13.011-5.119c1.766-.694,2.984-1.568,3.655-2.622.673-1.053.723-2.307.15-3.761s-1.463-2.338-2.673-2.651Z" fill="#fff"/>
    </g>
    <g>
      <path d="M289.398,651.077l-22.079,4.582c-.995.199-1.893.509-2.69.928-.799.418-1.427.904-1.883,1.456l-.034.041c-.673.813-.916,1.668-.729,2.565.187.896.787,1.767,1.803,2.606.986.815,2.038,1.169,3.154,1.06,1.117-.109,2.209-.676,3.274-1.699l.017-.02,6.115,5.059-.017.02c-1.682,1.768-3.491,2.987-5.429,3.66-1.937.674-3.896.789-5.875.346-1.98-.44-3.885-1.418-5.713-2.93-1.973-1.633-3.405-3.334-4.298-5.105s-1.22-3.547-.983-5.324,1.039-3.493,2.407-5.148l.018-.021c1.129-1.364,2.499-2.512,4.111-3.442,1.612-.93,3.319-1.568,5.12-1.912l15.521-2.904-10.815-8.945,4.516-5.459,18.715,15.479-4.226,5.108Z" fill="#fff"/>
      <path d="M231.151,638.596l28.852-20.437,6.463,5.346-27.23,18.92,5.439,4.5,3.746-4.528,5.962,4.933-8.262,9.986-18.083-14.957,3.113-3.763Z" fill="#fff"/>
    </g>
    <g>
      <path d="M375.973,675.065l-16.303,15.58c-.738.695-1.336,1.434-1.792,2.211-.456.779-.731,1.523-.826,2.232l-.007.054c-.14,1.045.107,1.9.74,2.562.634.662,1.604,1.082,2.909,1.257,1.27.17,2.348-.089,3.237-.771.89-.686,1.516-1.744,1.878-3.176l.004-.026,7.865,1.053-.003.026c-.491,2.39-1.379,4.382-2.667,5.979-1.286,1.597-2.887,2.731-4.8,3.405-1.914.675-4.046.854-6.398.54-2.537-.34-4.654-1.025-6.349-2.056-1.695-1.03-2.913-2.362-3.654-3.995-.74-1.633-.969-3.514-.684-5.643l.003-.025c.235-1.756.79-3.455,1.665-5.098.875-1.644,1.985-3.088,3.33-4.335l11.629-10.682-13.912-1.861.94-7.022,24.072,3.221-.879,6.57Z" fill="#fff"/>
      <path d="M347.17,677.386l-16.021,24.337-8.677-1.161,15.642-24.063-18.278-2.445.939-7.022,27.292,3.651-.897,6.704ZM329.387,685.295l-7.67-1.026,3.047-22.77,7.669,1.026-3.046,22.77Z" fill="#fff"/>
    </g>
    <g>
      <path d="M463.643,654.175l-6.669,21.542c-.308.967-.47,1.901-.49,2.803-.02.901.102,1.687.364,2.353l.02.05c.386.981,1.018,1.608,1.893,1.878.875.271,1.926.166,3.152-.316,1.191-.469,2.009-1.218,2.453-2.249.444-1.03.477-2.26.098-3.687l-.01-.025,7.385-2.905.01.025c.732,2.327.926,4.5.578,6.521-.348,2.021-1.195,3.791-2.539,5.31-1.345,1.52-3.121,2.715-5.328,3.583-2.383.938-4.564,1.367-6.547,1.291s-3.694-.647-5.137-1.713c-1.44-1.067-2.555-2.601-3.341-4.599l-.01-.024c-.648-1.648-.989-3.402-1.024-5.264-.033-1.86.233-3.663.803-5.407l4.967-14.988-13.061,5.139-2.594-6.594,22.6-8.892,2.428,6.169Z" fill="#fff"/>
      <path d="M422.558,663.215l7.2-2.833,11.123,28.271,3.993-3.505,2.858,7.268-4.74,4.69-6.148,2.42-14.286-36.312Z" fill="#fff"/>
    </g>
    <g>
      <path d="M515.3,598.837l4.449-6.33,24.854,17.469,1.402-5.124,6.39,4.491-1.372,6.525-3.8,5.406-31.924-22.438Z" fill="#fff"/>
      <path d="M508.055,610.779c1.862-1.096,3.772-1.611,5.729-1.548,1.957.063,3.82.717,5.592,1.963l.527.37c1.595,1.12,2.771,2.638,3.525,4.55.756,1.912.951,3.889.587,5.934,1.546-.893,3.171-1.338,4.875-1.336,1.705,0,3.201.454,4.489,1.36l.834.586c1.669,1.173,2.848,2.616,3.533,4.33.688,1.714.851,3.566.49,5.557s-1.238,3.979-2.635,5.967-2.971,3.486-4.721,4.5c-1.751,1.013-3.55,1.486-5.395,1.421-1.845-.066-3.603-.686-5.271-1.857l-.834-.587c-1.317-.926-2.257-2.196-2.816-3.81-.561-1.613-.671-3.302-.328-5.063-1.826,1.041-3.768,1.54-5.825,1.498-2.059-.044-3.887-.626-5.481-1.746l-.527-.37c-1.771-1.246-3.018-2.777-3.74-4.598-.722-1.818-.884-3.791-.483-5.914.399-2.125,1.346-4.249,2.84-6.375,1.494-2.125,3.173-3.736,5.036-4.831ZM507.726,622.284c-.131.887-.023,1.721.322,2.505s.907,1.448,1.683,1.993l.308.217c.718.504,1.473.765,2.269.784.797.019,1.572-.19,2.328-.626.753-.437,1.434-1.086,2.04-1.948s.986-1.723,1.143-2.58c.153-.858.085-1.661-.21-2.408-.295-.748-.801-1.374-1.518-1.878l-.33-.232c-.775-.545-1.588-.845-2.435-.899-.847-.056-1.662.132-2.444.56-.782.429-1.471,1.066-2.066,1.914-.595.847-.958,1.713-1.089,2.6ZM521.625,631.536c-.083.758.044,1.48.382,2.166s.864,1.281,1.581,1.785l.308.217c.674.473,1.369.736,2.085.791s1.405-.094,2.068-.444c.661-.353,1.248-.89,1.757-1.613s.815-1.458.923-2.199c.105-.743.008-1.444-.293-2.104-.302-.66-.789-1.227-1.462-1.7l-.33-.231c-.702-.494-1.43-.781-2.182-.861-.755-.08-1.472.047-2.157.383-.683.336-1.28.866-1.789,1.59-.509.725-.805,1.465-.891,2.223Z" fill="#fff"/>
    </g>
    <g>
      <path d="M550.561,518.431l1.026-7.67,30.111,4.029-1.119-5.193,7.74,1.035,1.794,6.424-.877,6.549-38.676-5.174Z" fill="#fff"/>
      <path d="M549.639,532.71c1.146-1.623,2.664-2.845,4.552-3.665,1.888-.821,4.04-1.155,6.456-1.003l.027.004-1.026,7.67-.027-.004c-1.438-.041-2.604.269-3.495.929-.891.659-1.419,1.604-1.584,2.837-.18,1.344.098,2.439.832,3.288s1.864,1.375,3.391,1.579l3.245.434c1.524.204,2.743.03,3.657-.521.913-.553,1.449-1.426,1.609-2.62.147-1.101.007-2.074-.421-2.92-.429-.846-1.102-1.481-2.02-1.908l.958-7.166,22.237,2.976-2.925,21.861-7.022-.939,1.899-14.191-6.835-.915c.453.649.769,1.494.946,2.534.177,1.04.199,2.055.066,3.043-.282,2.109-.985,3.853-2.107,5.231-1.124,1.379-2.624,2.342-4.503,2.888-1.877.547-4.067.652-6.567.318l-3.245-.434c-2.501-.335-4.574-1.093-6.222-2.271-1.647-1.18-2.816-2.729-3.507-4.644-.691-1.916-.867-4.144-.528-6.681.293-2.184,1.012-4.087,2.158-5.709Z" fill="#fff"/>
    </g>
    <g>
      <path d="M537.315,433.242l-2.833-7.2,28.271-11.123-3.505-3.993,7.268-2.859,4.69,4.74,2.42,6.149-36.312,14.286Z" fill="#fff"/>
      <path d="M546.254,437.858l21.542,6.668c.967.308,1.901.471,2.803.491.901.019,1.687-.103,2.353-.364l.05-.02c.981-.387,1.608-1.018,1.878-1.893.271-.875.166-1.927-.316-3.152-.469-1.191-1.218-2.01-2.249-2.454-1.03-.444-2.26-.477-3.687-.097l-.025.01-2.905-7.385.025-.01c2.327-.733,4.5-.926,6.521-.578,2.021.348,3.791,1.194,5.31,2.539,1.52,1.344,2.714,3.121,3.583,5.328.938,2.383,1.367,4.564,1.291,6.547s-.647,3.694-1.713,5.136c-1.067,1.44-2.601,2.556-4.599,3.341l-.024.01c-1.648.648-3.402.99-5.264,1.024-1.86.034-3.663-.233-5.407-.802l-14.988-4.967,5.139,13.061-6.594,2.594-8.892-22.601,6.169-2.427Z" fill="#fff"/>
    </g>
    <path d="M503.618,350.692l.45,1.626c-.887.334-1.819.346-2.797.038-.979-.311-1.968-.879-2.969-1.707-1.596-1.32-2.697-2.846-3.304-4.579-.606-1.733-.694-3.541-.261-5.422.434-1.882,1.373-3.699,2.822-5.45l.018-.021c1.607-1.944,3.344-3.305,5.21-4.084,1.865-.777,3.788-.953,5.767-.524,1.978.429,3.946,1.454,5.904,3.074,1.944,1.608,3.307,3.35,4.088,5.227.78,1.877.958,3.812.532,5.804-.428,1.993-1.45,3.968-3.069,5.925l-.017.021c-.833,1.007-1.883,1.967-3.151,2.88-1.269.912-2.736,1.817-4.405,2.711-.232.133-.469.263-.707.39-.24.127-.477.244-.713.351l-16.314,8.204-6.311-5.22,19.227-9.243ZM507.145,347.427c1.103-.168,2.14-.837,3.108-2.009l.017-.021c.936-1.13,1.37-2.239,1.306-3.327-.066-1.087-.621-2.064-1.665-2.928-1.06-.876-2.133-1.241-3.219-1.094-1.086.146-2.097.784-3.031,1.915l-.018.021c-.97,1.172-1.43,2.312-1.382,3.42.049,1.108.603,2.101,1.661,2.977,1.045.864,2.119,1.212,3.223,1.046Z" fill="#fff"/>
    <path d="M403.557,325.686c-1.587-1.25-2.671-2.831-3.254-4.742-.583-1.912-.634-4.087-.154-6.527l.005-.026c.273-1.388.742-2.817,1.407-4.291s1.483-2.927,2.456-4.358c.162-.241.33-.481.502-.721.172-.24.347-.471.524-.69l11.42-14.873,8.589,1.691-13.457,17.18-1.725-1.324c.624-.734,1.424-1.242,2.4-1.523.977-.282,2.057-.308,3.238-.075,2.217.437,4.022,1.259,5.416,2.463,1.395,1.203,2.333,2.744,2.818,4.616.484,1.873.491,4.013.018,6.418l-.006.026c-.483,2.458-1.36,4.473-2.63,6.047-1.269,1.572-2.876,2.643-4.819,3.208s-4.162.603-6.656.111c-2.476-.487-4.506-1.356-6.092-2.608ZM414.356,320.838c.875-.602,1.449-1.588,1.719-2.957l.005-.026c.312-1.58.186-2.867-.376-3.862-.562-.995-1.518-1.625-2.865-1.891-1.33-.262-2.446-.03-3.347.695-.901.726-1.505,1.868-1.813,3.431l-.004.026c-.271,1.369-.113,2.495.472,3.376.584.88,1.542,1.452,2.872,1.714,1.348.266,2.461.097,3.338-.506Z" fill="#fff"/>
    <path d="M320.363,335.973c-2.066.478-4.053.402-5.96-.226-1.906-.628-3.586-1.816-5.04-3.566l6.393-4.796c.573.576,1.185.975,1.831,1.193.646.22,1.3.267,1.959.141.659-.125,1.305-.425,1.938-.899,1.174-.882,1.848-1.874,2.021-2.977.173-1.103-.165-2.219-1.014-3.351l-.547-.729c-.891-1.188-1.839-1.909-2.842-2.164-1.002-.253-1.985-.018-2.949.705l-2.778,2.085-4.252-5.668,2.778-2.085c.783-.588,1.178-1.324,1.183-2.212s-.374-1.839-1.136-2.855l-.403-.536c-.72-.96-1.512-1.521-2.378-1.688-.866-.166-1.729.072-2.587.717-.558.418-.964.937-1.22,1.551-.255.617-.348,1.302-.277,2.055.07.752.312,1.544.724,2.376l-6.37,4.779c-1.247-2.039-1.94-4.086-2.081-6.139s.241-3.984,1.146-5.791c.903-1.807,2.243-3.378,4.021-4.712,2.906-2.181,5.684-3.16,8.329-2.943,2.646.217,4.941,1.621,6.885,4.212l.709.944c1.085,1.445,1.646,2.993,1.683,4.643s-.453,3.271-1.472,4.862c1.839-.843,3.652-.975,5.442-.394,1.789.582,3.398,1.823,4.826,3.727l.708.944c1.364,1.817,2.152,3.654,2.366,5.507.213,1.854-.15,3.657-1.092,5.415-.94,1.758-2.429,3.398-4.461,4.924-1.988,1.491-4.016,2.477-6.082,2.952Z" fill="#fff"/>
  </g>
  <g id="Layer_5">
    <circle cx="140.484" cy="259.817" r="23.478" fill="#fff" stroke="#000" stroke-miterlimit="10" stroke-width="6"/>
    <polygon points="156.495 256.761 143.54 256.761 143.54 243.806 137.428 243.806 137.428 256.761 124.473 256.761 124.473 262.873 137.428 262.873 137.428 275.828 143.54 275.828 143.54 262.873 156.495 262.873 156.495 256.761" fill="#fff" stroke="#000" stroke-miterlimit="10" stroke-width="3"/>
    <circle cx="141.602" cy="732.193" r="23.478" fill="#fff" stroke="#000" stroke-miterlimit="10" stroke-width="6"/>
    <polygon points="157.613 729.137 144.658 729.137 144.658 716.182 138.546 716.182 138.546 729.137 125.591 729.137 125.591 735.249 138.546 735.249 138.546 748.204 144.658 748.204 144.658 735.249 157.613 735.249 157.613 729.137" fill="#fff" stroke="#000" stroke-miterlimit="10" stroke-width="3"/>
    <circle cx="618.268" cy="732.193" r="23.478" fill="#fff" stroke="#000" stroke-miterlimit="10" stroke-width="6"/>
    <polygon points="634.279 729.137 621.324 729.137 621.324 716.182 615.212 716.182 615.212 729.137 602.257 729.137 602.257 735.249 615.212 735.249 615.212 748.204 621.324 748.204 621.324 735.249 634.279 735.249 634.279 729.137" fill="#fff" stroke="#000" stroke-miterlimit="10" stroke-width="3"/>
    <circle cx="618.234" cy="260.097" r="23.478" fill="#fff" stroke="#000" stroke-miterlimit="10" stroke-width="6"/>
    <polygon points="627.841 246.93 618.379 255.778 609.531 246.316 605.067 250.49 613.915 259.952 604.452 268.801 608.627 273.265 618.089 264.416 626.938 273.879 631.402 269.705 622.553 260.242 632.016 251.394 627.841 246.93" fill="#fff" stroke="#000" stroke-miterlimit="10" stroke-width="3"/>
  </g>
  <g id="Layer_3">
    <rect x="376.402" y="711.773" width="7.133" height="46.924" rx="3.13" ry="3.13" fill="#fff" stroke="#fff" stroke-miterlimit="10" stroke-width=".75"/>
    <rect x="418.106" y="708.43" width="7.133" height="46.924" rx="3.13" ry="3.13" transform="translate(-92.618 61.833) rotate(-7.559)" fill="#fff" stroke="#fff" stroke-miterlimit="10" stroke-width=".75"/>
    <rect x="460.013" y="697.348" width="7.133" height="46.924" rx="3.13" ry="3.13" transform="translate(-231.71 219.766) rotate(-21.476)" fill="#fff" stroke="#fff" stroke-miterlimit="10" stroke-width=".75"/>
    <rect x="496.713" y="680.029" width="7.133" height="46.924" rx="3.13" ry="3.13" transform="translate(-284.72 344.39) rotate(-30)" fill="#fff" stroke="#fff" stroke-miterlimit="10" stroke-width=".75"/>
    <rect x="532.206" y="655.886" width="7.133" height="46.924" rx="3.13" ry="3.13" transform="translate(-316.11 528.143) rotate(-41.674)" fill="#fff" stroke="#fff" stroke-miterlimit="10" stroke-width=".75"/>
    <rect x="561.181" y="625.555" width="7.133" height="46.924" rx="3.13" ry="3.13" transform="translate(-295.311 670.517) rotate(-50.404)" fill="#fff" stroke="#fff" stroke-miterlimit="10" stroke-width=".75"/>
    <rect x="585.319" y="591.917" width="7.133" height="46.924" rx="3.13" ry="3.13" transform="translate(-238.49 817.68) rotate(-60)" fill="#fff" stroke="#fff" stroke-miterlimit="10" stroke-width=".75"/>
    <rect x="602.928" y="554.759" width="7.133" height="46.924" rx="3.13" ry="3.13" transform="translate(-150.968 936.585) rotate(-68.952)" fill="#fff" stroke="#fff" stroke-miterlimit="10" stroke-width=".75"/>
    <rect x="614.667" y="514.279" width="7.133" height="46.924" rx="3.13" ry="3.13" transform="translate(3.253 1079.198) rotate(-82.379)" fill="#fff" stroke="#fff" stroke-miterlimit="10" stroke-width=".75"/>
    <rect x="617.993" y="473.475" width="7.133" height="46.924" rx="3.13" ry="3.13" transform="translate(124.624 1118.497) rotate(-90)" fill="#fff" stroke="#fff" stroke-miterlimit="10" stroke-width=".75"/>
    <rect x="398.6" y="728.152" width="7.133" height="30.593" rx="3.13" ry="3.13" transform="translate(-94.308 59.368) rotate(-7.559)" fill="#fff" stroke="#fff" stroke-miterlimit="10" stroke-width=".75"/>
    <rect x="441.73" y="719.939" width="7.133" height="30.593" rx="3.13" ry="3.13" transform="translate(-187.343 153.319) rotate(-16.19)" fill="#fff" stroke="#fff" stroke-miterlimit="10" stroke-width=".75"/>
    <rect x="482.991" y="705.514" width="7.133" height="30.593" rx="3.13" ry="3.13" transform="translate(-267.778 288.047) rotate(-26.137)" fill="#fff" stroke="#fff" stroke-miterlimit="10" stroke-width=".75"/>
    <rect x="519.731" y="683.831" width="7.133" height="30.593" rx="3.13" ry="3.13" transform="translate(-279.455 355.314) rotate(-30)" fill="#fff" stroke="#fff" stroke-miterlimit="10" stroke-width=".75"/>
    <rect x="553.315" y="655.515" width="7.133" height="30.593" rx="3.13" ry="3.13" transform="translate(-308.04 561.195) rotate(-43.079)" fill="#fff" stroke="#fff" stroke-miterlimit="10" stroke-width=".75"/>
    <rect x="581.113" y="622.488" width="7.133" height="30.593" rx="3.13" ry="3.13" transform="translate(-279.428 681.803) rotate(-50.404)" fill="#fff" stroke="#fff" stroke-miterlimit="10" stroke-width=".75"/>
    <rect x="602.928" y="585.118" width="7.133" height="30.593" rx="3.13" ry="3.13" transform="translate(-193.859 896.669) rotate(-65.024)" fill="#fff" stroke="#fff" stroke-miterlimit="10" stroke-width=".75"/>
    <rect x="617.993" y="545.126" width="7.133" height="30.593" rx="3.13" ry="3.13" transform="translate(-94.283 993.986) rotate(-73.241)" fill="#fff" stroke="#fff" stroke-miterlimit="10" stroke-width=".75"/>
    <rect x="624.776" y="502.357" width="7.133" height="30.593" rx="3.13" ry="3.13" transform="translate(54.764 1095.397) rotate(-84.69)" fill="#fff" stroke="#fff" stroke-miterlimit="10" stroke-width=".75"/>
    <rect x="614.701" y="473.759" width="7.133" height="46.924" rx="3.13" ry="3.13" transform="translate(121.047 1115.488) rotate(-90)" fill="#fff" stroke="#fff" stroke-miterlimit="10" stroke-width=".75"/>
    <rect x="611.358" y="432.055" width="7.133" height="46.924" rx="3.13" ry="3.13" transform="translate(244.262 1125.022) rotate(-97.559)" fill="#fff" stroke="#fff" stroke-miterlimit="10" stroke-width=".75"/>
    <rect x="600.276" y="390.148" width="7.133" height="46.924" rx="3.13" ry="3.13" transform="translate(440.022 1126.957) rotate(-111.476)" fill="#fff" stroke="#fff" stroke-miterlimit="10" stroke-width=".75"/>
    <rect x="582.957" y="353.448" width="7.133" height="46.924" rx="3.13" ry="3.13" transform="translate(553.372 1073.308) rotate(-120)" fill="#fff" stroke="#fff" stroke-miterlimit="10" stroke-width=".75"/>
    <rect x="558.814" y="317.955" width="7.133" height="46.924" rx="3.13" ry="3.13" transform="translate(681.282 988.488) rotate(-131.674)" fill="#fff" stroke="#fff" stroke-miterlimit="10" stroke-width=".75"/>
    <rect x="528.483" y="288.98" width="7.133" height="46.924" rx="3.13" ry="3.13" transform="translate(742.88 892.312) rotate(-140.404)" fill="#fff" stroke="#fff" stroke-miterlimit="10" stroke-width=".75"/>
    <rect x="494.845" y="264.841" width="7.133" height="46.924" rx="3.13" ry="3.13" transform="translate(785.896 787.187) rotate(-150)" fill="#fff" stroke="#fff" stroke-miterlimit="10" stroke-width=".75"/>
    <rect x="457.687" y="247.233" width="7.133" height="46.924" rx="3.13" ry="3.13" transform="translate(794.514 688.987) rotate(-158.952)" fill="#fff" stroke="#fff" stroke-miterlimit="10" stroke-width=".75"/>
    <rect x="417.207" y="235.494" width="7.133" height="46.924" rx="3.13" ry="3.13" transform="translate(803.487 571.427) rotate(-172.379)" fill="#fff" stroke="#fff" stroke-miterlimit="10" stroke-width=".75"/>
    <rect x="376.402" y="232.168" width="7.133" height="46.924" rx="3.13" ry="3.13" transform="translate(759.938 511.259) rotate(-180)" fill="#fff" stroke="#fff" stroke-miterlimit="10" stroke-width=".75"/>
    <rect x="622.915" y="459.726" width="7.133" height="30.593" rx="3.13" ry="3.13" transform="translate(238.003 1158.55) rotate(-97.559)" fill="#fff" stroke="#fff" stroke-miterlimit="10" stroke-width=".75"/>
    <rect x="614.701" y="416.596" width="7.133" height="30.593" rx="3.13" ry="3.13" transform="translate(375.893 1146.064) rotate(-106.19)" fill="#fff" stroke="#fff" stroke-miterlimit="10" stroke-width=".75"/>
    <rect x="600.276" y="375.336" width="7.133" height="30.593" rx="3.13" ry="3.13" transform="translate(519.162 1104.809) rotate(-116.137)" fill="#fff" stroke="#fff" stroke-miterlimit="10" stroke-width=".75"/>
    <rect x="578.594" y="338.596" width="7.133" height="30.593" rx="3.13" ry="3.13" transform="translate(566.761 1035.004) rotate(-120)" fill="#fff" stroke="#fff" stroke-miterlimit="10" stroke-width=".75"/>
    <rect x="550.278" y="305.011" width="7.133" height="30.593" rx="3.13" ry="3.13" transform="translate(698.166 943.615) rotate(-133.079)" fill="#fff" stroke="#fff" stroke-miterlimit="10" stroke-width=".75"/>
    <rect x="517.25" y="277.213" width="7.133" height="30.593" rx="3.13" ry="3.13" transform="translate(735.695 849.86) rotate(-140.404)" fill="#fff" stroke="#fff" stroke-miterlimit="10" stroke-width=".75"/>
    <rect x="479.881" y="255.398" width="7.133" height="30.593" rx="3.13" ry="3.13" transform="translate(807.384 720.208) rotate(-155.024)" fill="#fff" stroke="#fff" stroke-miterlimit="10" stroke-width=".75"/>
    <rect x="439.888" y="240.333" width="7.133" height="30.593" rx="3.13" ry="3.13" transform="translate(794.365 628.27) rotate(-163.241)" fill="#fff" stroke="#fff" stroke-miterlimit="10" stroke-width=".75"/>
    <rect x="397.12" y="233.55" width="7.133" height="30.593" rx="3.13" ry="3.13" transform="translate(776.626 533.705) rotate(-174.69)" fill="#fff" stroke="#fff" stroke-miterlimit="10" stroke-width=".75"/>
    <rect x="376.402" y="232.168" width="7.133" height="46.924" rx="3.13" ry="3.13" transform="translate(759.938 511.259) rotate(-180)" fill="#fff" stroke="#fff" stroke-miterlimit="10" stroke-width=".75"/>
    <rect x="334.699" y="235.511" width="7.133" height="46.924" rx="3.13" ry="3.13" transform="translate(707.659 471.195) rotate(172.441)" fill="#fff" stroke="#fff" stroke-miterlimit="10" stroke-width=".75"/>
    <rect x="292.792" y="246.592" width="7.133" height="46.924" rx="3.13" ry="3.13" transform="translate(671.012 412.859) rotate(158.524)" fill="#fff" stroke="#fff" stroke-miterlimit="10" stroke-width=".75"/>
    <rect x="256.092" y="263.912" width="7.133" height="46.924" rx="3.13" ry="3.13" transform="translate(628.216 406.418) rotate(150)" fill="#fff" stroke="#fff" stroke-miterlimit="10" stroke-width=".75"/>
    <rect x="220.599" y="288.055" width="7.133" height="46.924" rx="3.13" ry="3.13" transform="translate(598.729 395.156) rotate(138.326)" fill="#fff" stroke="#fff" stroke-miterlimit="10" stroke-width=".75"/>
    <rect x="191.624" y="318.385" width="7.133" height="46.924" rx="3.13" ry="3.13" transform="translate(583.013 409.327) rotate(129.596)" fill="#fff" stroke="#fff" stroke-miterlimit="10" stroke-width=".75"/>
    <rect x="167.485" y="352.024" width="7.133" height="46.924" rx="3.13" ry="3.13" transform="translate(581.759 415.094) rotate(120)" fill="#fff" stroke="#fff" stroke-miterlimit="10" stroke-width=".75"/>
    <rect x="149.877" y="389.182" width="7.133" height="46.924" rx="3.13" ry="3.13" transform="translate(593.665 417.637) rotate(111.048)" fill="#fff" stroke="#fff" stroke-miterlimit="10" stroke-width=".75"/>
    <rect x="138.138" y="429.662" width="7.133" height="46.924" rx="3.13" ry="3.13" transform="translate(609.619 372.765) rotate(97.621)" fill="#fff" stroke="#fff" stroke-miterlimit="10" stroke-width=".75"/>
    <rect x="134.812" y="470.466" width="7.133" height="46.924" rx="3.13" ry="3.13" transform="translate(632.307 355.55) rotate(90)" fill="#fff" stroke="#fff" stroke-miterlimit="10" stroke-width=".75"/>
    <rect x="354.205" y="232.12" width="7.133" height="30.593" rx="3.13" ry="3.13" transform="translate(744.982 445.616) rotate(172.441)" fill="#fff" stroke="#fff" stroke-miterlimit="10" stroke-width=".75"/>
    <rect x="311.075" y="240.333" width="7.133" height="30.593" rx="3.13" ry="3.13" transform="translate(688.081 413.391) rotate(163.81)" fill="#fff" stroke="#fff" stroke-miterlimit="10" stroke-width=".75"/>
    <rect x="269.814" y="254.758" width="7.133" height="30.593" rx="3.13" ry="3.13" transform="translate(637.771 392.064) rotate(153.863)" fill="#fff" stroke="#fff" stroke-miterlimit="10" stroke-width=".75"/>
    <rect x="233.074" y="276.44" width="7.133" height="30.593" rx="3.13" ry="3.13" transform="translate(587.446 426.068) rotate(150)" fill="#fff" stroke="#fff" stroke-miterlimit="10" stroke-width=".75"/>
    <rect x="199.49" y="304.757" width="7.133" height="30.593" rx="3.13" ry="3.13" transform="translate(569.97 415.136) rotate(136.921)" fill="#fff" stroke="#fff" stroke-miterlimit="10" stroke-width=".75"/>
    <rect x="171.692" y="337.784" width="7.133" height="30.593" rx="3.13" ry="3.13" transform="translate(559.032 443.08) rotate(129.596)" fill="#fff" stroke="#fff" stroke-miterlimit="10" stroke-width=".75"/>
    <rect x="149.877" y="375.154" width="7.133" height="30.593" rx="3.13" ry="3.13" transform="translate(572.17 416.222) rotate(114.976)" fill="#fff" stroke="#fff" stroke-miterlimit="10" stroke-width=".75"/>
    <rect x="134.812" y="415.146" width="7.133" height="30.593" rx="3.13" ry="3.13" transform="translate(590.439 422.058) rotate(106.759)" fill="#fff" stroke="#fff" stroke-miterlimit="10" stroke-width=".75"/>
    <rect x="128.029" y="457.914" width="7.133" height="30.593" rx="3.13" ry="3.13" transform="translate(614.954 385.97) rotate(95.31)" fill="#fff" stroke="#fff" stroke-miterlimit="10" stroke-width=".75"/>
    <rect x="134.812" y="470.466" width="7.133" height="46.924" rx="3.13" ry="3.13" transform="translate(632.306 355.55) rotate(90)" fill="#fff" stroke="#fff" stroke-miterlimit="10" stroke-width=".75"/>
    <rect x="138.155" y="512.17" width="7.133" height="46.924" rx="3.13" ry="3.13" transform="translate(654.055 324.678) rotate(82.441)" fill="#fff" stroke="#fff" stroke-miterlimit="10" stroke-width=".75"/>
    <rect x="149.236" y="554.076" width="7.133" height="46.924" rx="3.13" ry="3.13" transform="translate(634.301 223.901) rotate(68.524)" fill="#fff" stroke="#fff" stroke-miterlimit="10" stroke-width=".75"/>
    <rect x="166.556" y="590.777" width="7.133" height="46.924" rx="3.13" ry="3.13" transform="translate(617.008 159.789) rotate(60)" fill="#fff" stroke="#fff" stroke-miterlimit="10" stroke-width=".75"/>
    <rect x="190.699" y="626.27" width="7.133" height="46.924" rx="3.13" ry="3.13" transform="translate(550.413 72.628) rotate(48.326)" fill="#fff" stroke="#fff" stroke-miterlimit="10" stroke-width=".75"/>
    <rect x="221.029" y="655.244" width="7.133" height="46.924" rx="3.13" ry="3.13" transform="translate(484.124 12.575) rotate(39.596)" fill="#fff" stroke="#fff" stroke-miterlimit="10" stroke-width=".75"/>
    <rect x="254.668" y="679.383" width="7.133" height="46.924" rx="3.13" ry="3.13" transform="translate(386.019 -34.954) rotate(30)" fill="#fff" stroke="#fff" stroke-miterlimit="10" stroke-width=".75"/>
    <rect x="291.826" y="696.992" width="7.133" height="46.924" rx="3.13" ry="3.13" transform="translate(278.456 -58.021) rotate(21.048)" fill="#fff" stroke="#fff" stroke-miterlimit="10" stroke-width=".75"/>
    <rect x="332.306" y="708.731" width="7.133" height="46.924" rx="3.13" ry="3.13" transform="translate(100.071 -38.076) rotate(7.621)" fill="#fff" stroke="#fff" stroke-miterlimit="10" stroke-width=".75"/>
    <rect x="126.598" y="500.829" width="7.133" height="30.593" rx="3.13" ry="3.13" transform="translate(624.682 319.194) rotate(82.441)" fill="#fff" stroke="#fff" stroke-miterlimit="10" stroke-width=".75"/>
    <rect x="134.812" y="543.959" width="7.133" height="30.593" rx="3.13" ry="3.13" transform="translate(636.871 270.43) rotate(73.81)" fill="#fff" stroke="#fff" stroke-miterlimit="10" stroke-width=".75"/>
    <rect x="149.236" y="585.22" width="7.133" height="30.593" rx="3.13" ry="3.13" transform="translate(624.599 198.798) rotate(63.863)" fill="#fff" stroke="#fff" stroke-miterlimit="10" stroke-width=".75"/>
    <rect x="170.919" y="621.96" width="7.133" height="30.593" rx="3.13" ry="3.13" transform="translate(639.123 167.519) rotate(60)" fill="#fff" stroke="#fff" stroke-miterlimit="10" stroke-width=".75"/>
    <rect x="199.235" y="655.544" width="7.133" height="30.593" rx="3.13" ry="3.13" transform="translate(554.279 64.524) rotate(46.921)" fill="#fff" stroke="#fff" stroke-miterlimit="10" stroke-width=".75"/>
    <rect x="232.263" y="683.342" width="7.133" height="30.593" rx="3.13" ry="3.13" transform="translate(499.406 9.989) rotate(39.596)" fill="#fff" stroke="#fff" stroke-miterlimit="10" stroke-width=".75"/>
    <rect x="269.632" y="705.157" width="7.133" height="30.593" rx="3.13" ry="3.13" transform="translate(329.757 -47.981) rotate(24.976)" fill="#fff" stroke="#fff" stroke-miterlimit="10" stroke-width=".75"/>
    <rect x="309.625" y="720.223" width="7.133" height="30.593" rx="3.13" ry="3.13" transform="translate(225.387 -59.067) rotate(16.759)" fill="#fff" stroke="#fff" stroke-miterlimit="10" stroke-width=".75"/>
    <rect x="352.393" y="727.005" width="7.133" height="30.593" rx="3.13" ry="3.13" transform="translate(70.219 -29.755) rotate(5.31)" fill="#fff" stroke="#fff" stroke-miterlimit="10" stroke-width=".75"/>
  </g>
</svg>