<?xml version="1.0" encoding="UTF-8"?>
<svg id="a" data-name="Layer_1" xmlns="http://www.w3.org/2000/svg" width="1080" height="1080" viewBox="0 0 1080 1080">
  <polygon points="210.918 213.682 730.869 213.682 878.691 866.746 199.151 866.746 210.918 213.682" fill="#8a8a8a" stroke="#000" stroke-miterlimit="10" stroke-width="5"/>
  <path d="M828.315,799.087h0c-6.853,0-11.83,6.516-10.027,13.128l9.658,35.411H246.954v-28.935c0-10.421-8.448-18.868-18.868-18.868h-17.903l3.677-237.545h15.671c12.466,0,22.571-10.105,22.571-22.571v-1.338c0-11.572-9.381-20.952-20.952-20.952h-17.29l5.883-235.338h19.72c9.012,0,16.319-7.304,16.324-16.316l.023-46.931c8.159,0,421.372,0,421.372,0l10.612,52.472c1.527,7.552,8.165,12.981,15.869,12.981h36.765l13.238,63.247h-54.445c-23.28,0-42.152,18.872-42.152,42.152v5.883c0,25.866,20.969,46.835,46.835,46.835h71.089l16.915,77.956h-16.075c-12.243,0-22.168,9.925-22.168,22.168v.255c0,12.799,10.375,23.174,23.174,23.174h26.1l51.48,233.132h-26.106Z" fill="#494949" stroke="#000" stroke-miterlimit="10" stroke-width="5"/>
  <g>
    <circle cx="235.671" cy="261.75" r="10.784" fill="#4a4a4a" stroke="#000" stroke-miterlimit="10" stroke-width="2"/>
    <polygon points="234.734 254.717 237.078 254.717 237.078 260.812 242.704 260.812 242.704 263.625 237.078 263.625 237.078 269.252 234.193 269.252 234.193 263.625 228.638 263.625 228.638 260.812 234.265 260.812 234.265 254.717 234.734 254.717" fill="none" stroke="#000" stroke-miterlimit="10" stroke-width="2"/>
  </g>
  <g>
    <circle cx="447.916" cy="331.693" r="20.706" fill="#aaa" stroke="#000" stroke-miterlimit="10" stroke-width="3"/>
    <circle cx="448.216" cy="331.993" r="16.204" fill="#aaa" stroke="#000" stroke-miterlimit="10" stroke-width="3"/>
    <path d="M459.701,348.963l-23.406-.6,3.538-17.645c.198-4.63,4.004-8.326,8.683-8.326,4.806,0,8.702,3.896,8.702,8.702,0,.027-.004.054-.004.081l2.486,17.789Z" fill="#aaa" stroke="#000" stroke-miterlimit="10" stroke-width="3"/>
    <circle cx="447.997" cy="350.463" r="11.703" fill="#aaa" stroke="#000" stroke-miterlimit="10" stroke-width="3"/>
  </g>
  <g>
    <circle cx="568.125" cy="331.693" r="20.706" fill="#aaa" stroke="#000" stroke-miterlimit="10" stroke-width="3"/>
    <circle cx="568.425" cy="331.993" r="16.204" fill="#aaa" stroke="#000" stroke-miterlimit="10" stroke-width="3"/>
    <path d="M579.909,348.963l-23.406-.6,3.538-17.645c.198-4.63,4.004-8.326,8.683-8.326,4.806,0,8.702,3.896,8.702,8.702,0,.027-.004.054-.004.081l2.486,17.789Z" fill="#aaa" stroke="#000" stroke-miterlimit="10" stroke-width="3"/>
    <circle cx="568.206" cy="350.463" r="11.703" fill="#aaa" stroke="#000" stroke-miterlimit="10" stroke-width="3"/>
  </g>
  <g>
    <circle cx="446.977" cy="451.667" r="20.706" fill="#aaa" stroke="#000" stroke-miterlimit="10" stroke-width="3"/>
    <circle cx="447.277" cy="451.967" r="16.204" fill="#aaa" stroke="#000" stroke-miterlimit="10" stroke-width="3"/>
    <path d="M458.762,468.937l-23.406-.6,3.538-17.645c.198-4.63,4.004-8.326,8.683-8.326,4.806,0,8.702,3.896,8.702,8.702,0,.027-.004.054-.004.081l2.486,17.789Z" fill="#aaa" stroke="#000" stroke-miterlimit="10" stroke-width="3"/>
    <circle cx="447.058" cy="470.437" r="11.703" fill="#aaa" stroke="#000" stroke-miterlimit="10" stroke-width="3"/>
  </g>
  <g>
    <circle cx="567.185" cy="451.667" r="20.706" fill="#aaa" stroke="#000" stroke-miterlimit="10" stroke-width="3"/>
    <circle cx="567.486" cy="451.967" r="16.204" fill="#aaa" stroke="#000" stroke-miterlimit="10" stroke-width="3"/>
    <path d="M578.97,468.937l-23.406-.6,3.538-17.645c.198-4.63,4.004-8.326,8.683-8.326,4.806,0,8.702,3.896,8.702,8.702,0,.027-.004.054-.004.081l2.486,17.789Z" fill="#aaa" stroke="#000" stroke-miterlimit="10" stroke-width="3"/>
    <circle cx="567.267" cy="470.437" r="11.703" fill="#aaa" stroke="#000" stroke-miterlimit="10" stroke-width="3"/>
  </g>
  <g>
    <circle cx="559.672" cy="567.18" r="20.706" fill="#aaa" stroke="#000" stroke-miterlimit="10" stroke-width="3"/>
    <circle cx="559.973" cy="567.48" r="16.204" fill="#aaa" stroke="#000" stroke-miterlimit="10" stroke-width="3"/>
    <path d="M571.457,584.45l-23.406-.6,3.538-17.645c.198-4.63,4.004-8.326,8.683-8.326,4.806,0,8.702,3.896,8.702,8.702,0,.027-.004.054-.004.081l2.486,17.789Z" fill="#aaa" stroke="#000" stroke-miterlimit="10" stroke-width="3"/>
    <circle cx="559.754" cy="585.95" r="11.703" fill="#aaa" stroke="#000" stroke-miterlimit="10" stroke-width="3"/>
  </g>
  <g>
    <circle cx="438.681" cy="584.875" r="20.706" fill="#aaa" stroke="#000" stroke-miterlimit="10" stroke-width="3"/>
    <circle cx="438.981" cy="584.575" r="16.204" fill="#aaa" stroke="#000" stroke-miterlimit="10" stroke-width="3"/>
    <rect x="426.978" y="548.565" width="24.007" height="22.806" fill="#aaa" stroke="#000" stroke-miterlimit="10" stroke-width="3"/>
    <path d="M450.985,571.371h-24.007l3.62,14.48c.198,4.63,4.004,8.326,8.683,8.326,4.806,0,8.702-3.896,8.702-8.702,0-.027-.004-.054-.004-.081l3.005-14.023Z" fill="#aaa" stroke="#000" stroke-miterlimit="10" stroke-width="3"/>
  </g>
  <g>
    <circle cx="438.681" cy="691.146" r="20.706" fill="#aaa" stroke="#000" stroke-miterlimit="10" stroke-width="3"/>
    <circle cx="438.981" cy="691.446" r="16.204" fill="#aaa" stroke="#000" stroke-miterlimit="10" stroke-width="3"/>
    <path d="M450.466,708.415l-23.406-.6,3.538-17.645c.198-4.63,4.004-8.326,8.683-8.326,4.806,0,8.702,3.896,8.702,8.702,0,.027-.004.054-.004.081l2.486,17.789Z" fill="#aaa" stroke="#000" stroke-miterlimit="10" stroke-width="3"/>
    <circle cx="438.763" cy="709.915" r="11.703" fill="#aaa" stroke="#000" stroke-miterlimit="10" stroke-width="3"/>
  </g>
  <g>
    <circle cx="558.89" cy="691.146" r="20.706" fill="#aaa" stroke="#000" stroke-miterlimit="10" stroke-width="3"/>
    <circle cx="559.19" cy="691.446" r="16.204" fill="#aaa" stroke="#000" stroke-miterlimit="10" stroke-width="3"/>
    <path d="M570.675,708.415l-23.406-.6,3.538-17.645c.198-4.63,4.004-8.326,8.683-8.326,4.806,0,8.702,3.896,8.702,8.702,0,.027-.004.054-.004.081l2.486,17.789Z" fill="#aaa" stroke="#000" stroke-miterlimit="10" stroke-width="3"/>
    <circle cx="558.971" cy="709.915" r="11.703" fill="#aaa" stroke="#000" stroke-miterlimit="10" stroke-width="3"/>
  </g>
  <g>
    <circle cx="319.098" cy="689.893" r="20.706" fill="#aaa" stroke="#000" stroke-miterlimit="10" stroke-width="3"/>
    <circle cx="319.399" cy="690.193" r="16.204" fill="#aaa" stroke="#000" stroke-miterlimit="10" stroke-width="3"/>
    <path d="M330.883,707.163l-23.406-.6,3.538-17.645c.198-4.63,4.004-8.326,8.683-8.326,4.806,0,8.702,3.896,8.702,8.702,0,.027-.004.054-.004.081l2.486,17.789Z" fill="#aaa" stroke="#000" stroke-miterlimit="10" stroke-width="3"/>
    <circle cx="319.18" cy="708.663" r="11.703" fill="#aaa" stroke="#000" stroke-miterlimit="10" stroke-width="3"/>
  </g>
  <g>
    <circle cx="228.264" cy="540.668" r="10.784" fill="#4a4a4a" stroke="#000" stroke-miterlimit="10" stroke-width="2"/>
    <polygon points="227.326 533.635 229.67 533.635 229.67 539.731 235.297 539.731 235.297 542.544 229.67 542.544 229.67 548.17 226.785 548.17 226.785 542.544 221.231 542.544 221.231 539.731 226.857 539.731 226.857 533.635 227.326 533.635" fill="none" stroke="#000" stroke-miterlimit="10" stroke-width="2"/>
  </g>
  <g>
    <circle cx="223.933" cy="819.786" r="10.784" fill="#4a4a4a" stroke="#000" stroke-miterlimit="10" stroke-width="2"/>
    <polygon points="222.996 812.753 225.34 812.753 225.34 818.848 230.966 818.848 230.966 821.661 225.34 821.661 225.34 827.288 222.455 827.288 222.455 821.661 216.9 821.661 216.9 818.848 222.527 818.848 222.527 812.753 222.996 812.753" fill="none" stroke="#000" stroke-miterlimit="10" stroke-width="2"/>
  </g>
  <g>
    <circle cx="842.664" cy="821.847" r="10.784" fill="#4a4a4a" stroke="#000" stroke-miterlimit="10" stroke-width="2"/>
    <polygon points="841.726 814.814 844.07 814.814 844.07 820.909 849.697 820.909 849.697 823.722 844.07 823.722 844.07 829.348 841.185 829.348 841.185 823.722 835.631 823.722 835.631 820.909 841.257 820.909 841.257 814.814 841.726 814.814" fill="none" stroke="#000" stroke-miterlimit="10" stroke-width="2"/>
  </g>
  <g>
    <circle cx="777.133" cy="544.594" r="10.784" fill="#4a4a4a" stroke="#000" stroke-miterlimit="10" stroke-width="2"/>
    <polygon points="776.196 537.562 778.54 537.562 778.54 543.657 784.166 543.657 784.166 546.47 778.54 546.47 778.54 552.096 775.655 552.096 775.655 546.47 770.1 546.47 770.1 543.657 775.727 543.657 775.727 537.562 776.196 537.562" fill="none" stroke="#000" stroke-miterlimit="10" stroke-width="2"/>
  </g>
  <g>
    <circle cx="709.516" cy="264.629" r="10.784" fill="#4a4a4a" stroke="#000" stroke-miterlimit="10" stroke-width="2"/>
    <polygon points="708.578 257.596 710.922 257.596 710.922 263.692 716.549 263.692 716.549 266.505 710.922 266.505 710.922 272.131 708.037 272.131 708.037 266.505 702.483 266.505 702.483 263.692 708.109 263.692 708.109 257.596 708.578 257.596" fill="none" stroke="#000" stroke-miterlimit="10" stroke-width="2"/>
  </g>
  <circle cx="699.81" cy="793.778" r="22.747" fill="#5b5b5b" stroke="#000" stroke-miterlimit="10" stroke-width="3"/>
  <circle cx="699.81" cy="793.555" r="17.84" fill="#cfcfcf" stroke="#000" stroke-miterlimit="10" stroke-width="3"/>
  <rect x="697.58" y="770.586" width="5.575" height="16.725" rx=".12" ry=".12" fill="#cfcfcf" stroke="#000" stroke-miterlimit="10" stroke-width="3"/>
  <rect x="304.865" y="495.212" width="48.835" height="49.461" rx="6.616" ry="6.616" fill="#bfbfbf" stroke="#000" stroke-miterlimit="10" stroke-width="5"/>
  <g>
    <circle cx="269.038" cy="824.951" r="17.348" fill="none" stroke="#000" stroke-miterlimit="10" stroke-width="2"/>
    <circle cx="269.038" cy="824.951" r="13.828" fill="#525252" stroke="#000" stroke-miterlimit="10" stroke-width="2"/>
    <rect x="266.78" y="810.992" width="4.515" height="28.895" transform="translate(-504.874 432.004) rotate(-45)" fill="#525252" stroke="#000" stroke-miterlimit="10" stroke-width="2"/>
  </g>
  <g>
    <circle cx="794.142" cy="823.986" r="17.348" fill="none" stroke="#000" stroke-miterlimit="10" stroke-width="2"/>
    <circle cx="794.142" cy="823.986" r="13.828" fill="#525252" stroke="#000" stroke-miterlimit="10" stroke-width="2"/>
    <rect x="791.885" y="810.027" width="4.515" height="28.895" transform="translate(-350.392 803.026) rotate(-45)" fill="#525252" stroke="#000" stroke-miterlimit="10" stroke-width="2"/>
  </g>
  <g>
    <circle cx="679.881" cy="508.908" r="17.348" fill="none" stroke="#000" stroke-miterlimit="10" stroke-width="2"/>
    <circle cx="679.881" cy="508.908" r="13.828" fill="#525252" stroke="#000" stroke-miterlimit="10" stroke-width="2"/>
    <rect x="677.624" y="494.948" width="4.515" height="28.895" transform="translate(-161.065 629.947) rotate(-45)" fill="#525252" stroke="#000" stroke-miterlimit="10" stroke-width="2"/>
  </g>
  <g>
    <circle cx="659.22" cy="245.012" r="17.348" fill="none" stroke="#000" stroke-miterlimit="10" stroke-width="2"/>
    <circle cx="659.22" cy="245.012" r="13.828" fill="#525252" stroke="#000" stroke-miterlimit="10" stroke-width="2"/>
    <rect x="656.963" y="231.053" width="4.515" height="28.895" transform="translate(19.486 538.044) rotate(-45)" fill="#525252" stroke="#000" stroke-miterlimit="10" stroke-width="2"/>
  </g>
  <g>
    <circle cx="278.872" cy="244.073" r="17.348" fill="none" stroke="#000" stroke-miterlimit="10" stroke-width="2"/>
    <circle cx="278.872" cy="244.073" r="13.828" fill="#525252" stroke="#000" stroke-miterlimit="10" stroke-width="2"/>
    <rect x="276.615" y="230.114" width="4.515" height="28.895" transform="translate(-91.251 268.823) rotate(-45)" fill="#525252" stroke="#000" stroke-miterlimit="10" stroke-width="2"/>
  </g>
  <rect x="305.101" y="306.273" width="48.835" height="49.461" rx="6.616" ry="6.616" fill="#bfbfbf" stroke="#000" stroke-miterlimit="10" stroke-width="5"/>
  <rect x="304.379" y="434.121" width="48.835" height="49.461" rx="6.616" ry="6.616" transform="translate(-228.155 366.889) rotate(-45)" fill="#bfbfbf" stroke="#000" stroke-miterlimit="10" stroke-width="5"/>
  <rect x="304.865" y="370.308" width="48.835" height="49.461" rx="6.616" ry="6.616" fill="#bfbfbf" stroke="#000" stroke-miterlimit="10" stroke-width="5"/>
  <rect x="302.559" y="787.243" width="48.835" height="49.461" rx="6.616" ry="6.616" fill="#bfbfbf" stroke="#000" stroke-miterlimit="10" stroke-width="5"/>
  <path d="M350.279,789.632c1.958,1.325,3.251,3.567,3.251,6.096v34.748c0,4.046-3.31,7.357-7.357,7.357h-34.122c-2.396,0-4.534-1.161-5.879-2.947" fill="none" stroke="#000" stroke-miterlimit="10" stroke-width="5"/>
  <rect x="304.865" y="557.195" width="48.835" height="49.461" rx="6.616" ry="6.616" fill="#bfbfbf" stroke="#000" stroke-miterlimit="10" stroke-width="5"/>
  <path d="M352.585,559.583c1.958,1.325,3.251,3.567,3.251,6.096v34.748c0,4.046-3.31,7.357-7.357,7.357h-34.122c-2.396,0-4.534-1.161-5.879-2.947" fill="none" stroke="#000" stroke-miterlimit="10" stroke-width="5"/>
  <g>
    <circle cx="328.521" cy="331.308" r="17.843" fill="#aaa" stroke="#000" stroke-miterlimit="10" stroke-width="3"/>
    <circle cx="328.521" cy="331.308" r="13.947" fill="#282828" stroke="#000" stroke-miterlimit="10" stroke-width="3"/>
    <ellipse cx="321.24" cy="326.18" rx="5.64" ry="2.871" transform="translate(-129.767 404.802) rotate(-55.326)" fill="#8a8a8a"/>
  </g>
  <g>
    <circle cx="328.521" cy="394.281" r="17.843" fill="#aaa" stroke="#000" stroke-miterlimit="10" stroke-width="3"/>
    <circle cx="328.521" cy="394.281" r="13.947" fill="#282828" stroke="#000" stroke-miterlimit="10" stroke-width="3"/>
    <ellipse cx="321.24" cy="389.154" rx="5.64" ry="2.871" transform="translate(-181.557 431.95) rotate(-55.326)" fill="#8a8a8a"/>
  </g>
  <g>
    <circle cx="328.521" cy="457.203" r="17.843" fill="#aaa" stroke="#000" stroke-miterlimit="10" stroke-width="3"/>
    <circle cx="328.521" cy="457.203" r="13.947" fill="#282828" stroke="#000" stroke-miterlimit="10" stroke-width="3"/>
    <ellipse cx="321.24" cy="452.076" rx="5.64" ry="2.871" transform="translate(-233.304 459.075) rotate(-55.326)" fill="#8a8a8a"/>
  </g>
  <g>
    <circle cx="328.521" cy="520.751" r="17.843" fill="#aaa" stroke="#000" stroke-miterlimit="10" stroke-width="3"/>
    <circle cx="328.521" cy="520.751" r="13.947" fill="#282828" stroke="#000" stroke-miterlimit="10" stroke-width="3"/>
    <ellipse cx="321.24" cy="515.624" rx="5.64" ry="2.871" transform="translate(-285.565 486.47) rotate(-55.326)" fill="#8a8a8a"/>
  </g>
  <g>
    <circle cx="328.521" cy="580.855" r="17.843" fill="#aaa" stroke="#000" stroke-miterlimit="10" stroke-width="3"/>
    <circle cx="328.521" cy="580.855" r="13.947" fill="#282828" stroke="#000" stroke-miterlimit="10" stroke-width="3"/>
    <ellipse cx="321.24" cy="575.728" rx="5.64" ry="2.871" transform="translate(-334.995 512.38) rotate(-55.326)" fill="#8a8a8a"/>
  </g>
  <path d="M352.948,309.136c1.958,1.325,3.251,3.567,3.251,6.096v34.748c0,4.046-3.31,7.357-7.357,7.357h-34.122c-2.396,0-4.534-1.161-5.879-2.947" fill="none" stroke="#000" stroke-miterlimit="10" stroke-width="5"/>
  <path d="M352.585,498.539c1.958,1.325,3.251,3.567,3.251,6.096v34.748c0,4.046-3.31,7.357-7.357,7.357h-34.122c-2.396,0-4.534-1.161-5.879-2.947" fill="none" stroke="#000" stroke-miterlimit="10" stroke-width="5"/>
  <path d="M329.807,427.572c2.322-.447,4.821.224,6.609,2.012l24.57,24.57c2.861,2.861,2.861,7.543,0,10.404l-24.128,24.128c-1.694,1.694-4.026,2.385-6.241,2.073" fill="none" stroke="#000" stroke-miterlimit="10" stroke-width="5"/>
  <path d="M352.585,373.165c1.958,1.325,3.251,3.567,3.251,6.096v34.748c0,4.046-3.31,7.357-7.357,7.357h-34.122c-2.396,0-4.534-1.161-5.879-2.947" fill="none" stroke="#000" stroke-miterlimit="10" stroke-width="5"/>
  <rect x="433.932" y="785.156" width="48.835" height="49.461" rx="6.616" ry="6.616" fill="#bfbfbf" stroke="#000" stroke-miterlimit="10" stroke-width="5"/>
  <path d="M481.779,788.02c1.958,1.325,3.251,3.567,3.251,6.096v34.748c0,4.046-3.31,7.357-7.357,7.357h-34.122c-2.396,0-4.534-1.161-5.879-2.947" fill="none" stroke="#000" stroke-miterlimit="10" stroke-width="5"/>
  <rect x="368.397" y="788.164" width="48.835" height="49.461" rx="6.616" ry="6.616" transform="translate(-459.75 515.853) rotate(-45)" fill="#bfbfbf" stroke="#000" stroke-miterlimit="10" stroke-width="5"/>
  <path d="M393.493,780.618c2.322-.447,4.821.224,6.609,2.012l24.57,24.57c2.861,2.861,2.861,7.543,0,10.404l-24.128,24.128c-1.694,1.694-4.026,2.385-6.241,2.073" fill="none" stroke="#000" stroke-miterlimit="10" stroke-width="5"/>
  <rect x="500.9" y="787.243" width="48.835" height="49.461" rx="6.616" ry="6.616" fill="#bfbfbf" stroke="#000" stroke-miterlimit="10" stroke-width="4"/>
  <path d="M548.62,789.632c1.958,1.325,3.251,3.567,3.251,6.096v34.748c0,4.046-3.31,7.357-7.357,7.357h-34.122c-2.396,0-4.534-1.161-5.879-2.947" fill="none" stroke="#000" stroke-miterlimit="10" stroke-width="5"/>
  <rect x="566.17" y="787.243" width="48.835" height="49.461" rx="6.616" ry="6.616" fill="#bfbfbf" stroke="#000" stroke-miterlimit="10" stroke-width="5"/>
  <path d="M613.89,789.632c1.958,1.325,3.251,3.567,3.251,6.096v34.748c0,4.046-3.31,7.357-7.357,7.357h-34.122c-2.396,0-4.534-1.161-5.879-2.947" fill="none" stroke="#000" stroke-miterlimit="10" stroke-width="7"/>
  <g>
    <circle cx="327.133" cy="811.391" r="17.843" fill="#aaa" stroke="#000" stroke-miterlimit="10" stroke-width="3"/>
    <circle cx="327.133" cy="811.391" r="13.947" fill="#282828" stroke="#000" stroke-miterlimit="10" stroke-width="3"/>
    <ellipse cx="319.852" cy="806.264" rx="5.64" ry="2.871" transform="translate(-525.186 610.621) rotate(-55.326)" fill="#8a8a8a"/>
  </g>
  <g>
    <circle cx="394.125" cy="811.391" r="17.843" fill="#aaa" stroke="#000" stroke-miterlimit="10" stroke-width="3"/>
    <circle cx="394.125" cy="811.391" r="13.947" fill="#282828" stroke="#000" stroke-miterlimit="10" stroke-width="3"/>
    <ellipse cx="386.844" cy="806.264" rx="5.64" ry="2.871" transform="translate(-496.307 665.715) rotate(-55.326)" fill="#8a8a8a"/>
  </g>
  <g>
    <circle cx="525.603" cy="811.391" r="17.843" fill="#aaa" stroke="#000" stroke-miterlimit="10" stroke-width="3"/>
    <circle cx="525.603" cy="811.391" r="13.947" fill="#282828" stroke="#000" stroke-miterlimit="10" stroke-width="3"/>
    <ellipse cx="518.322" cy="806.264" rx="5.64" ry="2.871" transform="translate(-439.628 773.843) rotate(-55.326)" fill="#8a8a8a"/>
  </g>
  <g>
    <circle cx="457.985" cy="811.861" r="17.843" fill="#aaa" stroke="#000" stroke-miterlimit="10" stroke-width="3"/>
    <circle cx="457.985" cy="811.861" r="13.947" fill="#282828" stroke="#000" stroke-miterlimit="10" stroke-width="3"/>
    <ellipse cx="450.704" cy="806.733" rx="5.64" ry="2.871" transform="translate(-469.163 718.437) rotate(-55.326)" fill="#8a8a8a"/>
  </g>
  <g>
    <circle cx="590.716" cy="811.391" r="17.843" fill="#aaa" stroke="#000" stroke-miterlimit="10" stroke-width="3"/>
    <circle cx="590.716" cy="811.391" r="13.947" fill="#282828" stroke="#000" stroke-miterlimit="10" stroke-width="3"/>
    <ellipse cx="583.435" cy="806.264" rx="5.64" ry="2.871" transform="translate(-411.558 827.392) rotate(-55.326)" fill="#8a8a8a"/>
  </g>
  <polyline points="442.353 283.881 448.927 275.116 470.84 275.116" fill="none" stroke="#fff" stroke-miterlimit="10" stroke-width="4"/>
  <polyline points="442.353 402.422 448.927 393.657 470.84 393.657" fill="none" stroke="#fff" stroke-miterlimit="10" stroke-width="5"/>
  <polyline points="442.353 519.501 448.927 510.735 470.84 510.735" fill="none" stroke="#fff" stroke-miterlimit="10" stroke-width="5"/>
  <polyline points="572.892 283.881 566.318 275.116 544.405 275.116" fill="none" stroke="#fff" stroke-miterlimit="10" stroke-width="4"/>
  <polyline points="572.892 402.422 566.318 393.657 544.405 393.657" fill="none" stroke="#fff" stroke-miterlimit="10" stroke-width="5"/>
  <polyline points="572.892 519.501 566.318 510.735 544.405 510.735" fill="none" stroke="#fff" stroke-miterlimit="10" stroke-width="5"/>
  <polyline points="301.777 759.448 308.351 750.683 405.394 750.683" fill="none" stroke="#fff" stroke-miterlimit="10" stroke-width="5"/>
  <polyline points="617.794 759.448 611.22 750.683 512.455 750.683" fill="none" stroke="#fff" stroke-miterlimit="10" stroke-width="5"/>
  <polyline points="311.638 645.29 318.211 636.525 401.638 636.525" fill="none" stroke="#fff" stroke-miterlimit="10" stroke-width="5"/>
  <polyline points="563.794 645.29 557.22 636.525 475.046 636.525" fill="none" stroke="#fff" stroke-miterlimit="10" stroke-width="5"/>
  <g>
    <rect x="296.873" y="764.991" width="56.322" height="14.253" fill="none"/>
    <path d="M306.675,768h6.038v1.495h-6.038v-1.495ZM308.918,768.674h1.552v7.562h-1.552v-7.562Z" fill="#fff"/>
    <path d="M315.826,768h.985l3.149,8.235h-1.671l-1.971-5.624-1.971,5.624h-1.671l3.149-8.235ZM314.188,773.42h4.333v1.496h-4.333v-1.496Z" fill="#fff"/>
    <path d="M322.087,775.961c-.445-.24-.785-.589-1.02-1.048-.234-.459-.351-1.014-.351-1.663v-2.26c0-.649.117-1.203.351-1.662.234-.459.574-.81,1.02-1.051.446-.241.982-.362,1.609-.362.517,0,.979.111,1.388.334.408.223.745.547,1.011.972s.45.938.552,1.537h-1.608c-.061-.271-.154-.504-.28-.696-.127-.192-.28-.34-.459-.441-.179-.103-.38-.153-.603-.153-.291,0-.538.06-.742.179s-.36.292-.467.521-.162.504-.162.824v2.26c0,.321.054.595.162.821s.263.399.467.519.451.179.742.179c.227,0,.43-.05.611-.15.182-.1.334-.246.459-.438.125-.193.215-.427.272-.703h1.608c-.105.601-.292,1.113-.558,1.538-.267.425-.603.749-1.008.972-.406.223-.868.334-1.385.334-.627,0-1.163-.12-1.609-.359Z" fill="#fff"/>
    <path d="M330.439,768h.985l3.149,8.235h-1.671l-1.971-5.624-1.971,5.624h-1.671l3.149-8.235ZM328.802,773.42h4.333v1.496h-4.333v-1.496Z" fill="#fff"/>
    <path d="M335.953,768h1.897l3.064,6.31-.136.147v-6.457h1.484v8.229h-1.909l-3.053-6.213.136-.147v6.36h-1.484v-8.229Z" fill="#fff"/>
  </g>
  <g>
    <rect x="364.398" y="764.991" width="56.322" height="14.253" fill="none"/>
    <path d="M379.347,768h1.552v8.235h-1.552v-8.235ZM380.128,774.74h1.977c.51,0,.904-.123,1.184-.368.279-.246.419-.593.419-1.042v-2.425c0-.449-.14-.797-.419-1.042-.28-.245-.674-.368-1.184-.368h-1.977v-1.495h1.943c.687,0,1.273.115,1.758.346.485.229.854.566,1.107,1.008s.379.975.379,1.598v2.333c0,.593-.122,1.11-.365,1.552-.244.442-.609.786-1.096,1.031-.487.245-1.084.368-1.79.368h-1.937v-1.495Z" fill="#fff"/>
    <path d="M387.205,768h1.552v8.235h-1.552v-8.235ZM387.766,768h4.956v1.495h-4.956v-1.495ZM387.766,771.398h4.333v1.495h-4.333v-1.495ZM387.766,774.74h4.956v1.495h-4.956v-1.495Z" fill="#fff"/>
    <path d="M395.934,776.201c-.376-.079-.729-.195-1.06-.349-.33-.152-.625-.337-.886-.552l.719-1.28c.317.261.684.462,1.099.604.415.142.842.212,1.28.212.506,0,.899-.086,1.178-.257.279-.172.419-.415.419-.729v-.006c0-.219-.062-.393-.187-.521-.125-.129-.287-.223-.487-.283s-.457-.115-.771-.164c-.011-.004-.021-.006-.031-.006-.01,0-.02-.002-.031-.006l-.125-.017c-.552-.087-1.008-.195-1.371-.326-.362-.13-.67-.358-.923-.686-.253-.326-.38-.79-.38-1.391v-.005c0-.533.119-.988.357-1.365.238-.378.583-.666,1.037-.864s1-.297,1.643-.297c.294,0,.596.034.903.102.308.068.609.166.903.295.295.128.574.283.838.464l-.657,1.314c-.317-.219-.649-.389-.994-.51-.346-.121-.677-.182-.994-.182-.476,0-.844.079-1.104.235-.261.157-.391.377-.391.66v.006c0,.237.068.426.204.563.136.138.304.238.504.303.2.064.481.132.844.204.015.004.03.007.045.008.015.002.03.005.045.009.022.004.044.009.065.015.021.006.042.01.065.014.521.103.957.226,1.306.371s.641.38.875.702c.234.323.352.764.352,1.323v.011c0,.525-.123.975-.368,1.349-.246.373-.604.658-1.074.854-.47.196-1.036.295-1.696.295-.393,0-.777-.04-1.152-.119Z" fill="#fff"/>
    <path d="M400.867,768h6.038v1.495h-6.038v-1.495ZM403.11,768.674h1.552v7.562h-1.552v-7.562Z" fill="#fff"/>
  </g>
  <g>
    <rect x="426.948" y="764.991" width="56.322" height="14.253" fill="none"/>
    <path d="M432.442,768h.985l3.149,8.235h-1.671l-1.971-5.624-1.971,5.624h-1.671l3.149-8.235ZM430.805,773.42h4.333v1.496h-4.333v-1.496Z" fill="#fff"/>
    <path d="M440.828,768h1.246l1.575,5.494,1.059-5.494h1.597l-1.897,8.235h-1.461l-1.461-5.755-1.529,5.755h-1.461l-1.897-8.235h1.597l1.059,5.494,1.575-5.494Z" fill="#fff"/>
    <path d="M447.684,768h1.552v8.235h-1.552v-8.235ZM448.375,774.74h4.826v1.495h-4.826v-1.495Z" fill="#fff"/>
    <path d="M455.089,777.799h-1.473l3.682-10.773h1.473l-3.682,10.773Z" fill="#fff"/>
    <path d="M459.442,768h1.552v8.235h-1.552v-8.235ZM460.15,771.546h2.634c.185,0,.348-.043.49-.128s.252-.205.332-.359c.079-.155.119-.332.119-.532,0-.204-.039-.385-.116-.541-.078-.157-.187-.277-.329-.363-.142-.084-.307-.127-.496-.127h-2.634v-1.495h2.594c.513,0,.966.104,1.356.314.391.209.694.505.909.886.215.382.323.823.323,1.326s-.107.942-.323,1.322c-.215.379-.519.673-.909.881-.391.207-.843.312-1.356.312h-2.594v-1.495Z" fill="#fff"/>
    <path d="M468.111,775.961c-.445-.24-.785-.589-1.02-1.048-.234-.459-.351-1.014-.351-1.663v-2.26c0-.649.117-1.203.351-1.662.234-.459.574-.81,1.02-1.051.446-.241.982-.362,1.609-.362.517,0,.979.111,1.388.334.408.223.745.547,1.011.972s.45.938.552,1.537h-1.608c-.061-.271-.154-.504-.28-.696-.127-.192-.28-.34-.459-.441-.179-.103-.38-.153-.603-.153-.291,0-.538.06-.742.179s-.36.292-.467.521-.162.504-.162.824v2.26c0,.321.054.595.162.821s.263.399.467.519.451.179.742.179c.227,0,.43-.05.611-.15.182-.1.334-.246.459-.438.125-.193.215-.427.272-.703h1.608c-.105.601-.292,1.113-.558,1.538-.267.425-.603.749-1.008.972-.406.223-.868.334-1.385.334-.627,0-1.163-.12-1.609-.359Z" fill="#fff"/>
    <path d="M474.333,768h1.552v8.235h-1.552v-8.235ZM475.115,774.74h1.977c.51,0,.904-.123,1.184-.368.279-.246.419-.593.419-1.042v-2.425c0-.449-.14-.797-.419-1.042-.28-.245-.674-.368-1.184-.368h-1.977v-1.495h1.943c.687,0,1.273.115,1.758.346.485.229.854.566,1.107,1.008s.379.975.379,1.598v2.333c0,.593-.122,1.11-.365,1.552-.244.442-.609.786-1.096,1.031-.487.245-1.084.368-1.79.368h-1.937v-1.495Z" fill="#fff"/>
  </g>
  <g>
    <rect x="492.897" y="764.991" width="56.322" height="14.253" fill="none"/>
    <path d="M510.269,768h1.597l1.75,5.494,1.75-5.494h1.597l-2.741,8.235h-1.212l-2.741-8.235Z" fill="#fff"/>
    <path d="M518.342,768h1.552v8.235h-1.552v-8.235ZM518.903,768h4.956v1.495h-4.956v-1.495ZM518.903,771.398h4.333v1.495h-4.333v-1.495ZM518.903,774.74h4.956v1.495h-4.956v-1.495Z" fill="#fff"/>
    <path d="M526.835,775.961c-.445-.24-.785-.589-1.02-1.048-.234-.459-.351-1.014-.351-1.663v-2.26c0-.649.117-1.203.351-1.662.234-.459.574-.81,1.02-1.051.446-.241.982-.362,1.609-.362.517,0,.979.111,1.388.334.408.223.745.547,1.011.972s.45.938.552,1.537h-1.608c-.061-.271-.154-.504-.28-.696-.127-.192-.28-.34-.459-.441-.179-.103-.38-.153-.603-.153-.291,0-.538.06-.742.179s-.36.292-.467.521-.162.504-.162.824v2.26c0,.321.054.595.162.821s.263.399.467.519.451.179.742.179c.227,0,.43-.05.611-.15.182-.1.334-.246.459-.438.125-.193.215-.427.272-.703h1.608c-.105.601-.292,1.113-.558,1.538-.267.425-.603.749-1.008.972-.406.223-.868.334-1.385.334-.627,0-1.163-.12-1.609-.359Z" fill="#fff"/>
  </g>
  <g>
    <rect x="561.615" y="764.991" width="56.322" height="14.253" fill="none"/>
    <path d="M583.227,768h2.045v8.235h-1.41v-6.395l.057.362-1.575,5.114h-1.37l-1.575-5.001.057-.476v6.395h-1.41v-8.235h2.045l1.568,5.551,1.569-5.551Z" fill="#fff"/>
    <path d="M589.687,768h.985l3.149,8.235h-1.671l-1.972-5.624-1.971,5.624h-1.671l3.149-8.235ZM588.05,773.42h4.333v1.496h-4.333v-1.496Z" fill="#fff"/>
    <path d="M595.2,768h1.897l3.064,6.31-.136.147v-6.457h1.483v8.229h-1.908l-3.054-6.213.137-.147v6.36h-1.484v-8.229Z" fill="#fff"/>
  </g>
  <g>
    <rect x="664.014" y="730.393" width="68.231" height="14.253" fill="none"/>
    <path d="M668.617,733.402h6.038v1.495h-6.038v-1.495ZM670.86,734.076h1.552v7.562h-1.552v-7.562Z" fill="#fff"/>
    <path d="M675.921,733.402h1.552v8.235h-1.552v-8.235ZM676.481,733.402h4.956v1.495h-4.956v-1.495ZM676.481,736.801h4.333v1.495h-4.333v-1.495ZM676.481,740.143h4.956v1.495h-4.956v-1.495Z" fill="#fff"/>
    <path d="M684.648,741.604c-.375-.079-.729-.195-1.059-.349-.331-.152-.626-.337-.887-.552l.72-1.28c.316.261.683.462,1.099.604.415.142.842.212,1.28.212.506,0,.898-.086,1.178-.257.279-.172.419-.415.419-.729v-.006c0-.219-.062-.393-.187-.521-.125-.129-.287-.223-.487-.283s-.457-.115-.771-.164c-.011-.004-.021-.006-.031-.006-.009,0-.02-.002-.031-.006l-.124-.017c-.552-.087-1.009-.195-1.371-.326-.362-.13-.67-.358-.923-.686-.253-.326-.38-.79-.38-1.391v-.005c0-.533.119-.988.357-1.365.237-.378.583-.666,1.036-.864s1.001-.297,1.643-.297c.295,0,.596.034.903.102.308.068.609.166.903.295.295.128.574.283.839.464l-.657,1.314c-.317-.219-.648-.389-.994-.51s-.677-.182-.994-.182c-.476,0-.844.079-1.104.235-.261.157-.391.377-.391.66v.006c0,.237.067.426.204.563.136.138.304.238.504.303s.481.132.844.204c.015.004.03.007.045.008.016.002.03.005.046.009.022.004.044.009.064.015.021.006.043.01.065.014.521.103.956.226,1.306.371s.641.38.875.702c.234.323.352.764.352,1.323v.011c0,.525-.123.975-.368,1.349-.246.373-.604.658-1.073.854-.471.196-1.036.295-1.696.295-.394,0-.777-.04-1.153-.119Z" fill="#fff"/>
    <path d="M689.583,733.402h6.038v1.495h-6.038v-1.495ZM691.826,734.076h1.552v7.562h-1.552v-7.562Z" fill="#fff"/>
    <path d="M701.57,741.604c-.375-.079-.729-.195-1.059-.349-.331-.152-.626-.337-.887-.552l.72-1.28c.316.261.683.462,1.099.604.415.142.842.212,1.28.212.506,0,.898-.086,1.178-.257.279-.172.419-.415.419-.729v-.006c0-.219-.062-.393-.187-.521-.125-.129-.287-.223-.487-.283s-.457-.115-.771-.164c-.011-.004-.021-.006-.031-.006-.009,0-.02-.002-.031-.006l-.124-.017c-.552-.087-1.009-.195-1.371-.326-.362-.13-.67-.358-.923-.686-.253-.326-.38-.79-.38-1.391v-.005c0-.533.119-.988.357-1.365.237-.378.583-.666,1.036-.864s1.001-.297,1.643-.297c.295,0,.596.034.903.102.308.068.609.166.903.295.295.128.574.283.839.464l-.657,1.314c-.317-.219-.648-.389-.994-.51s-.677-.182-.994-.182c-.476,0-.844.079-1.104.235-.261.157-.391.377-.391.66v.006c0,.237.067.426.204.563.136.138.304.238.504.303s.481.132.844.204c.015.004.03.007.045.008.016.002.03.005.046.009.022.004.044.009.064.015.021.006.043.01.065.014.521.103.956.226,1.306.371s.641.38.875.702c.234.323.352.764.352,1.323v.011c0,.525-.123.975-.368,1.349-.246.373-.604.658-1.073.854-.471.196-1.036.295-1.696.295-.394,0-.777-.04-1.153-.119Z" fill="#fff"/>
    <path d="M706.504,733.402h6.038v1.495h-6.038v-1.495ZM708.747,734.076h1.552v7.562h-1.552v-7.562Z" fill="#fff"/>
    <path d="M713.809,733.402h1.552v8.235h-1.552v-8.235ZM714.369,733.402h4.956v1.495h-4.956v-1.495ZM714.369,736.801h4.333v1.495h-4.333v-1.495ZM714.369,740.143h4.956v1.495h-4.956v-1.495Z" fill="#fff"/>
    <path d="M721.101,733.402h1.552v8.235h-1.552v-8.235ZM721.809,736.948h2.634c.185,0,.349-.043.49-.128s.252-.205.331-.359c.079-.155.119-.332.119-.532,0-.204-.039-.385-.116-.541-.077-.157-.188-.277-.328-.363-.143-.084-.308-.127-.496-.127h-2.634v-1.495h2.594c.514,0,.966.104,1.356.314.392.209.694.505.909.886.216.382.323.823.323,1.326s-.107.942-.323,1.322c-.215.379-.518.673-.909.881-.391.207-.843.312-1.356.312h-2.594v-1.495Z" fill="#fff"/>
  </g>
  <g>
    <g>
      <rect x="231.897" y="709.671" width="56.322" height="14.253" fill="none"/>
      <path d="M269.208,720.624c-.455-.251-.807-.605-1.056-1.064-.25-.459-.374-.99-.374-1.595v-2.333c0-.604.125-1.136.374-1.595.249-.459.601-.813,1.056-1.065.455-.251.981-.376,1.578-.376s1.122.125,1.577.376c.455.252.807.606,1.057,1.065.249.459.374.99.374,1.595v2.333c0,.604-.125,1.136-.374,1.595-.25.459-.602.813-1.057,1.064s-.981.377-1.577.377-1.123-.126-1.578-.377ZM271.522,719.271c.211-.119.375-.288.49-.507s.173-.472.173-.759v-2.413c0-.287-.058-.54-.173-.759s-.278-.388-.49-.507c-.212-.119-.457-.179-.736-.179s-.525.06-.736.179c-.212.119-.375.288-.49.507s-.173.472-.173.759v2.413c0,.287.058.54.173.759s.278.388.49.507c.211.119.457.179.736.179s.524-.06.736-.179Z" fill="#fff"/>
      <path d="M275.682,712.681h1.552v8.235h-1.552v-8.235ZM276.249,712.681h4.843v1.495h-4.843v-1.495ZM276.249,716.152h4.22v1.495h-4.22v-1.495Z" fill="#fff"/>
      <path d="M282.641,712.681h1.552v8.235h-1.552v-8.235ZM283.207,712.681h4.843v1.495h-4.843v-1.495ZM283.207,716.152h4.22v1.495h-4.22v-1.495Z" fill="#fff"/>
    </g>
    <g>
      <rect x="231.897" y="681.06" width="56.322" height="14.253" fill="none"/>
      <path d="M274.53,692.013c-.455-.251-.807-.605-1.056-1.064-.25-.459-.374-.99-.374-1.595v-2.333c0-.604.125-1.136.374-1.595.249-.459.601-.813,1.056-1.065.455-.251.981-.376,1.578-.376s1.122.125,1.577.376c.455.252.807.606,1.057,1.065.249.459.374.99.374,1.595v2.333c0,.604-.125,1.136-.374,1.595-.25.459-.602.813-1.057,1.064s-.981.377-1.577.377-1.123-.126-1.578-.377ZM276.844,690.659c.211-.119.375-.288.49-.507s.173-.472.173-.759v-2.413c0-.287-.058-.54-.173-.759s-.278-.388-.49-.507c-.212-.119-.457-.179-.736-.179s-.525.06-.736.179c-.212.119-.375.288-.49.507s-.173.472-.173.759v2.413c0,.287.058.54.173.759s.278.388.49.507c.211.119.457.179.736.179s.524-.06.736-.179Z" fill="#fff"/>
      <path d="M281.003,684.069h1.897l3.064,6.31-.136.147v-6.457h1.484v8.229h-1.909l-3.053-6.213.136-.147v6.36h-1.484v-8.229Z" fill="#fff"/>
    </g>
  </g>
  <g>
    <g>
      <rect x="344.817" y="709.671" width="56.322" height="14.253" fill="none"/>
      <path d="M382.128,720.624c-.455-.251-.807-.605-1.056-1.064-.25-.459-.374-.99-.374-1.595v-2.333c0-.604.125-1.136.374-1.595.249-.459.601-.813,1.056-1.065.455-.251.981-.376,1.578-.376s1.122.125,1.577.376c.455.252.807.606,1.057,1.065.249.459.374.99.374,1.595v2.333c0,.604-.125,1.136-.374,1.595-.25.459-.602.813-1.057,1.064s-.981.377-1.577.377-1.123-.126-1.578-.377ZM384.442,719.271c.211-.119.375-.288.49-.507s.173-.472.173-.759v-2.413c0-.287-.058-.54-.173-.759s-.278-.388-.49-.507c-.212-.119-.457-.179-.736-.179s-.525.06-.736.179c-.212.119-.375.288-.49.507s-.173.472-.173.759v2.413c0,.287.058.54.173.759s.278.388.49.507c.211.119.457.179.736.179s.524-.06.736-.179Z" fill="#fff"/>
      <path d="M388.602,712.681h1.552v8.235h-1.552v-8.235ZM389.168,712.681h4.843v1.495h-4.843v-1.495ZM389.168,716.152h4.22v1.495h-4.22v-1.495Z" fill="#fff"/>
      <path d="M395.561,712.681h1.552v8.235h-1.552v-8.235ZM396.127,712.681h4.843v1.495h-4.843v-1.495ZM396.127,716.152h4.22v1.495h-4.22v-1.495Z" fill="#fff"/>
    </g>
    <g>
      <rect x="344.817" y="681.06" width="56.322" height="14.253" fill="none"/>
      <path d="M387.45,692.013c-.455-.251-.807-.605-1.056-1.064-.25-.459-.374-.99-.374-1.595v-2.333c0-.604.125-1.136.374-1.595.249-.459.601-.813,1.056-1.065.455-.251.981-.376,1.578-.376s1.122.125,1.577.376c.455.252.807.606,1.057,1.065.249.459.374.99.374,1.595v2.333c0,.604-.125,1.136-.374,1.595-.25.459-.602.813-1.057,1.064s-.981.377-1.577.377-1.123-.126-1.578-.377ZM389.764,690.659c.211-.119.375-.288.49-.507s.173-.472.173-.759v-2.413c0-.287-.058-.54-.173-.759s-.278-.388-.49-.507c-.212-.119-.457-.179-.736-.179s-.525.06-.736.179c-.212.119-.375.288-.49.507s-.173.472-.173.759v2.413c0,.287.058.54.173.759s.278.388.49.507c.211.119.457.179.736.179s.524-.06.736-.179Z" fill="#fff"/>
      <path d="M393.923,684.069h1.897l3.064,6.31-.136.147v-6.457h1.484v8.229h-1.909l-3.053-6.213.136-.147v6.36h-1.484v-8.229Z" fill="#fff"/>
    </g>
  </g>
  <g>
    <g>
      <rect x="469.095" y="709.671" width="56.322" height="14.253" fill="none"/>
      <path d="M506.407,720.624c-.455-.251-.807-.605-1.056-1.064-.25-.459-.374-.99-.374-1.595v-2.333c0-.604.125-1.136.374-1.595.249-.459.601-.813,1.056-1.065.455-.251.981-.376,1.578-.376s1.122.125,1.577.376c.455.252.807.606,1.057,1.065.249.459.374.99.374,1.595v2.333c0,.604-.125,1.136-.374,1.595-.25.459-.602.813-1.057,1.064s-.981.377-1.577.377-1.123-.126-1.578-.377ZM508.721,719.271c.211-.119.375-.288.49-.507s.173-.472.173-.759v-2.413c0-.287-.058-.54-.173-.759s-.278-.388-.49-.507c-.212-.119-.457-.179-.736-.179s-.525.06-.736.179c-.212.119-.375.288-.49.507s-.173.472-.173.759v2.413c0,.287.058.54.173.759s.278.388.49.507c.211.119.457.179.736.179s.524-.06.736-.179Z" fill="#fff"/>
      <path d="M512.88,712.681h1.552v8.235h-1.552v-8.235ZM513.447,712.681h4.843v1.495h-4.843v-1.495ZM513.447,716.152h4.22v1.495h-4.22v-1.495Z" fill="#fff"/>
      <path d="M519.839,712.681h1.552v8.235h-1.552v-8.235ZM520.405,712.681h4.843v1.495h-4.843v-1.495ZM520.405,716.152h4.22v1.495h-4.22v-1.495Z" fill="#fff"/>
    </g>
    <g>
      <rect x="469.095" y="681.06" width="56.322" height="14.253" fill="none"/>
      <path d="M511.728,692.013c-.455-.251-.807-.605-1.056-1.064-.25-.459-.374-.99-.374-1.595v-2.333c0-.604.125-1.136.374-1.595.249-.459.601-.813,1.056-1.065.455-.251.981-.376,1.578-.376s1.122.125,1.577.376c.455.252.807.606,1.057,1.065.249.459.374.99.374,1.595v2.333c0,.604-.125,1.136-.374,1.595-.25.459-.602.813-1.057,1.064s-.981.377-1.577.377-1.123-.126-1.578-.377ZM514.042,690.659c.211-.119.375-.288.49-.507s.173-.472.173-.759v-2.413c0-.287-.058-.54-.173-.759s-.278-.388-.49-.507c-.212-.119-.457-.179-.736-.179s-.525.06-.736.179c-.212.119-.375.288-.49.507s-.173.472-.173.759v2.413c0,.287.058.54.173.759s.278.388.49.507c.211.119.457.179.736.179s.524-.06.736-.179Z" fill="#fff"/>
      <path d="M518.202,684.069h1.897l3.064,6.31-.136.147v-6.457h1.484v8.229h-1.909l-3.053-6.213.136-.147v6.36h-1.484v-8.229Z" fill="#fff"/>
    </g>
  </g>
  <g>
    <rect x="415.06" y="221.311" width="101.667" height="34.671" fill="none"/>
    <path d="M425.423,232.257h2.408v12.779h-2.408v-12.779ZM426.636,242.716h3.067c.791,0,1.403-.19,1.837-.571s.65-.92.65-1.617v-3.762c0-.697-.217-1.236-.65-1.617s-1.046-.571-1.837-.571h-3.067v-2.32h3.015c1.066,0,1.976.179,2.729.536s1.326.879,1.718,1.564.589,1.512.589,2.479v3.621c0,.92-.189,1.723-.567,2.408s-.945,1.219-1.701,1.6-1.682.571-2.777.571h-3.006v-2.32Z" fill="#fff"/>
    <path d="M439.938,245.036h-2.496v-12.779h2.496v12.779Z" fill="#fff"/>
    <path d="M445.361,244.983c-.583-.123-1.131-.303-1.644-.541s-.971-.523-1.375-.857l1.116-1.986c.492.404,1.061.716,1.705.936s1.307.33,1.986.33c.785,0,1.395-.133,1.828-.4s.65-.643.65-1.129v-.009c0-.34-.097-.609-.29-.809s-.445-.346-.756-.439-.709-.179-1.195-.255c-.018-.006-.034-.009-.048-.009s-.031-.003-.048-.009l-.193-.026c-.855-.135-1.564-.303-2.127-.505s-1.04-.557-1.433-1.063-.589-1.226-.589-2.158v-.009c0-.826.185-1.532.554-2.118s.905-1.033,1.608-1.34,1.553-.461,2.549-.461c.457,0,.924.053,1.402.158s.945.258,1.402.457.891.439,1.301.721l-1.02,2.039c-.492-.34-1.006-.604-1.542-.791s-1.05-.281-1.542-.281c-.738,0-1.31.122-1.714.365s-.606.584-.606,1.024v.009c0,.369.105.661.316.875s.472.371.782.47.747.205,1.31.316c.023.006.047.01.07.013s.047.007.07.013c.035.006.069.013.101.022s.066.016.101.022c.809.158,1.484.35,2.026.576s.995.589,1.358,1.09.545,1.185.545,2.052v.018c0,.814-.19,1.512-.571,2.092s-.936,1.022-1.666,1.327-1.607.457-2.632.457c-.609,0-1.206-.062-1.789-.185Z" fill="#fff"/>
    <path d="M454.598,232.257h2.408v12.779h-2.408v-12.779ZM455.696,237.759h4.087c.287,0,.541-.066.76-.198s.391-.318.514-.558.185-.516.185-.826c0-.316-.06-.596-.18-.839s-.29-.431-.51-.562-.476-.198-.769-.198h-4.087v-2.32h4.025c.797,0,1.499.163,2.105.488s1.077.784,1.411,1.375.501,1.277.501,2.057-.167,1.463-.501,2.052-.804,1.044-1.411,1.367-1.308.483-2.105.483h-4.025v-2.32Z" fill="#fff"/>
    <path d="M466.186,232.257h2.408v12.779h-2.408v-12.779ZM467.258,242.716h7.488v2.32h-7.488v-2.32Z" fill="#fff"/>
    <path d="M480.895,232.257h1.529l4.887,12.779h-2.593l-3.059-8.728-3.059,8.728h-2.593l4.887-12.779ZM478.354,240.668h6.724v2.32h-6.724v-2.32Z" fill="#fff"/>
    <path d="M492.984,240.105v4.931h-2.408v-4.931l-3.762-7.849h2.522l2.443,5.502,2.443-5.502h2.522l-3.762,7.849Z" fill="#fff"/>
    <path d="M500.322,244.983c-.583-.123-1.131-.303-1.644-.541s-.971-.523-1.375-.857l1.116-1.986c.492.404,1.061.716,1.705.936s1.307.33,1.986.33c.785,0,1.395-.133,1.828-.4s.65-.643.65-1.129v-.009c0-.34-.097-.609-.29-.809s-.445-.346-.756-.439-.709-.179-1.195-.255c-.018-.006-.034-.009-.048-.009s-.031-.003-.048-.009l-.193-.026c-.855-.135-1.564-.303-2.127-.505s-1.04-.557-1.433-1.063-.589-1.226-.589-2.158v-.009c0-.826.185-1.532.554-2.118s.905-1.033,1.608-1.34,1.553-.461,2.549-.461c.457,0,.924.053,1.402.158s.945.258,1.402.457.891.439,1.301.721l-1.02,2.039c-.492-.34-1.006-.604-1.542-.791s-1.05-.281-1.542-.281c-.738,0-1.31.122-1.714.365s-.606.584-.606,1.024v.009c0,.369.105.661.316.875s.472.371.782.47.747.205,1.31.316c.023.006.047.01.07.013s.047.007.07.013c.035.006.069.013.101.022s.066.016.101.022c.809.158,1.484.35,2.026.576s.995.589,1.358,1.09.545,1.185.545,2.052v.018c0,.814-.19,1.512-.571,2.092s-.936,1.022-1.666,1.327-1.607.457-2.632.457c-.609,0-1.206-.062-1.789-.185Z" fill="#fff"/>
  </g>
  <g>
    <rect x="456.641" y="257.39" width="101.667" height="34.671" fill="none"/>
    <path d="M490.5,268.335h2.408v12.779h-2.408v-12.779ZM491.616,273.618h7.444v2.32h-7.444v-2.32ZM497.496,268.335h2.408v12.779h-2.408v-12.779Z" fill="#fff"/>
    <path d="M505.234,280.688c-.697-.372-1.228-.914-1.591-1.626s-.545-1.569-.545-2.571v-8.156h2.408v8.218c0,.732.196,1.301.589,1.705s.946.606,1.661.606c.721,0,1.279-.202,1.674-.606s.593-.973.593-1.705v-8.218h2.408v8.156c0,1.002-.183,1.859-.549,2.571s-.899,1.254-1.6,1.626-1.542.558-2.527.558-1.825-.186-2.522-.558Z" fill="#fff"/>
    <path d="M515.452,268.335h2.408v12.779h-2.408v-12.779ZM516.665,278.794h3.067c.791,0,1.403-.19,1.837-.571s.65-.92.65-1.617v-3.762c0-.697-.217-1.236-.65-1.617s-1.046-.571-1.837-.571h-3.067v-2.32h3.015c1.066,0,1.976.179,2.729.536s1.326.879,1.718,1.564.589,1.512.589,2.479v3.621c0,.92-.189,1.723-.567,2.408s-.945,1.219-1.701,1.6-1.682.571-2.777.571h-3.006v-2.32Z" fill="#fff"/>
  </g>
  <g>
    <rect x="455.361" y="375.251" width="101.667" height="34.671" fill="none"/>
    <path d="M490.874,386.196h3.173v12.779h-2.188v-9.923l.088.562-2.443,7.937h-2.127l-2.443-7.761.088-.738v9.923h-2.188v-12.779h3.173l2.435,8.613,2.435-8.613Z" fill="#fff"/>
    <path d="M499.373,398.523c-.706-.39-1.252-.94-1.639-1.652s-.58-1.537-.58-2.474v-3.621c0-.938.193-1.762.58-2.474s.933-1.263,1.639-1.652,1.522-.584,2.448-.584,1.742.195,2.448.584,1.252.94,1.639,1.652.58,1.537.58,2.474v3.621c0,.938-.193,1.762-.58,2.474s-.933,1.263-1.639,1.652-1.522.584-2.448.584-1.742-.195-2.448-.584ZM502.963,396.422c.328-.185.582-.447.76-.787s.268-.732.268-1.178v-3.744c0-.445-.089-.838-.268-1.178s-.432-.602-.76-.787-.709-.277-1.143-.277-.814.092-1.143.277-.582.447-.76.787-.268.732-.268,1.178v3.744c0,.445.089.838.268,1.178s.432.602.76.787.709.277,1.143.277.814-.092,1.143-.277Z" fill="#fff"/>
    <path d="M509.418,386.196h2.408v12.779h-2.408v-12.779ZM510.631,396.655h3.067c.791,0,1.403-.19,1.837-.571s.65-.92.65-1.617v-3.762c0-.697-.217-1.236-.65-1.617s-1.046-.571-1.837-.571h-3.067v-2.32h3.015c1.066,0,1.976.179,2.729.536s1.326.879,1.718,1.564.589,1.512.589,2.479v3.621c0,.92-.189,1.723-.567,2.408s-.945,1.219-1.701,1.6-1.682.571-2.777.571h-3.006v-2.32Z" fill="#fff"/>
    <path d="M521.613,386.196h2.408v12.779h-2.408v-12.779ZM522.483,386.196h7.69v2.32h-7.69v-2.32ZM522.483,391.47h6.724v2.32h-6.724v-2.32ZM522.483,396.655h7.69v2.32h-7.69v-2.32Z" fill="#fff"/>
  </g>
  <g>
    <rect x="455.361" y="494.051" width="101.667" height="34.671" fill="none"/>
    <path d="M489.575,504.997h2.408v12.779h-2.408v-12.779ZM490.691,510.279h7.444v2.32h-7.444v-2.32ZM496.571,504.997h2.408v12.779h-2.408v-12.779Z" fill="#fff"/>
    <path d="M504.578,517.723c-.583-.123-1.131-.303-1.644-.541s-.971-.523-1.375-.857l1.116-1.986c.492.404,1.061.716,1.705.936s1.307.33,1.986.33c.785,0,1.395-.133,1.828-.4s.65-.643.65-1.129v-.009c0-.34-.097-.609-.29-.809s-.445-.346-.756-.439-.709-.179-1.195-.255c-.018-.006-.034-.009-.048-.009s-.031-.003-.048-.009l-.193-.026c-.855-.135-1.564-.303-2.127-.505s-1.04-.557-1.433-1.063-.589-1.226-.589-2.158v-.009c0-.826.185-1.532.554-2.118s.905-1.033,1.608-1.34,1.553-.461,2.549-.461c.457,0,.924.053,1.402.158s.945.258,1.402.457.891.439,1.301.721l-1.02,2.039c-.492-.34-1.006-.604-1.542-.791s-1.05-.281-1.542-.281c-.738,0-1.31.122-1.714.365s-.606.584-.606,1.024v.009c0,.369.105.661.316.875s.472.371.782.47.747.205,1.31.316c.023.006.047.01.07.013s.047.007.07.013c.035.006.069.013.101.022s.066.016.101.022c.809.158,1.484.35,2.026.576s.995.589,1.358,1.09.545,1.185.545,2.052v.018c0,.814-.19,1.512-.571,2.092s-.936,1.022-1.666,1.327-1.607.457-2.632.457c-.609,0-1.206-.062-1.789-.185Z" fill="#fff"/>
    <path d="M513.815,504.997h2.408v12.779h-2.408v-12.779ZM515.028,515.456h3.067c.791,0,1.403-.19,1.837-.571s.65-.92.65-1.617v-3.762c0-.697-.217-1.236-.65-1.617s-1.046-.571-1.837-.571h-3.067v-2.32h3.015c1.066,0,1.976.179,2.729.536s1.326.879,1.718,1.564.589,1.512.589,2.479v3.621c0,.92-.189,1.723-.567,2.408s-.945,1.219-1.701,1.6-1.682.571-2.777.571h-3.006v-2.32Z" fill="#fff"/>
  </g>
  <g>
    <rect x="388.51" y="619.197" width="101.667" height="34.671" fill="none"/>
    <path d="M409.4,630.143h2.408v12.779h-2.408v-12.779ZM410.499,635.645h4.087c.287,0,.541-.066.76-.197.22-.133.391-.318.514-.559s.185-.516.185-.826c0-.316-.06-.596-.18-.84-.12-.242-.29-.43-.51-.562-.22-.131-.476-.197-.769-.197h-4.087v-2.32h4.025c.797,0,1.499.162,2.105.488.606.324,1.077.783,1.411,1.375s.501,1.277.501,2.057-.167,1.463-.501,2.053c-.334.588-.804,1.044-1.411,1.366s-1.308.483-2.105.483h-4.025v-2.32Z" fill="#fff"/>
    <path d="M422.944,642.469c-.706-.389-1.252-.939-1.639-1.652-.387-.711-.58-1.536-.58-2.474v-3.621c0-.938.193-1.763.58-2.474.387-.713.933-1.263,1.639-1.652s1.522-.585,2.448-.585,1.742.195,2.448.585,1.252.939,1.639,1.652c.387.711.58,1.536.58,2.474v3.621c0,.938-.193,1.763-.58,2.474-.387.713-.933,1.264-1.639,1.652-.706.391-1.522.585-2.448.585s-1.742-.194-2.448-.585ZM426.535,640.369c.328-.186.582-.447.76-.787s.268-.732.268-1.178v-3.744c0-.445-.089-.838-.268-1.178s-.432-.602-.76-.787c-.328-.184-.709-.276-1.143-.276s-.814.093-1.143.276c-.328.186-.582.447-.76.787s-.268.732-.268,1.178v3.744c0,.445.089.838.268,1.178s.432.602.76.787c.328.184.709.276,1.143.276s.814-.093,1.143-.276Z" fill="#fff"/>
    <path d="M438.413,630.143h1.934l2.443,8.525,1.644-8.525h2.479l-2.944,12.779h-2.268l-2.268-8.93-2.373,8.93h-2.268l-2.944-12.779h2.479l1.644,8.525,2.443-8.525Z" fill="#fff"/>
    <path d="M449.052,630.143h2.408v12.779h-2.408v-12.779ZM449.922,630.143h7.69v2.32h-7.69v-2.32ZM449.922,635.416h6.724v2.32h-6.724v-2.32ZM449.922,640.602h7.69v2.32h-7.69v-2.32Z" fill="#fff"/>
    <path d="M460.368,630.134h2.408v12.788h-2.408v-12.788ZM461.326,635.46h4.447c.246,0,.463-.062.65-.185s.333-.299.435-.527.157-.492.163-.791c0-.299-.051-.562-.154-.791s-.248-.404-.435-.527-.407-.185-.659-.185h-4.447v-2.32h4.641c.703,0,1.321.158,1.854.475s.946.764,1.239,1.341.439,1.246.439,2.008-.146,1.432-.439,2.008c-.293.578-.708,1.024-1.244,1.341s-1.153.475-1.85.475h-4.641v-2.32ZM464.015,637.385l2.575-.404,3.445,5.941h-2.918l-3.103-5.537Z" fill="#fff"/>
  </g>
  <g>
    <rect x="396.665" y="396.172" width="101.667" height="34.671" fill="none"/>
    <path d="M433.406,407.118h2.479l2.716,8.525,2.716-8.525h2.479l-4.254,12.779h-1.881l-4.254-12.779Z" fill="#fff"/>
    <path d="M445.935,407.118h2.408v12.779h-2.408v-12.779ZM447.147,417.577h3.067c.791,0,1.403-.19,1.837-.571s.65-.92.65-1.617v-3.762c0-.697-.217-1.236-.65-1.617s-1.046-.571-1.837-.571h-3.067v-2.32h3.015c1.066,0,1.976.179,2.729.536s1.326.879,1.718,1.564.589,1.512.589,2.479v3.621c0,.92-.189,1.723-.567,2.408s-.945,1.219-1.701,1.6-1.682.571-2.777.571h-3.006v-2.32Z" fill="#fff"/>
    <path d="M460.45,419.897h-2.496v-12.779h2.496v12.779Z" fill="#fff"/>
  </g>
  <g>
    <rect x="515.668" y="396.172" width="101.667" height="34.671" fill="none"/>
    <path d="M549.525,407.118h2.408v12.779h-2.408v-12.779ZM550.642,412.4h7.444v2.32h-7.444v-2.32ZM556.521,407.118h2.408v12.779h-2.408v-12.779Z" fill="#fff"/>
    <path d="M564.26,419.471c-.697-.372-1.228-.914-1.591-1.626s-.545-1.569-.545-2.571v-8.156h2.408v8.218c0,.732.196,1.301.589,1.705s.946.606,1.661.606c.721,0,1.279-.202,1.674-.606.396-.404.594-.973.594-1.705v-8.218h2.408v8.156c0,1.002-.184,1.859-.549,2.571-.367.712-.9,1.254-1.6,1.626-.701.372-1.543.558-2.527.558s-1.825-.186-2.522-.558Z" fill="#fff"/>
    <path d="M574.478,407.118h2.408v12.779h-2.408v-12.779ZM575.69,417.577h3.067c.791,0,1.403-.19,1.837-.571s.65-.92.65-1.617v-3.762c0-.697-.217-1.236-.65-1.617s-1.046-.571-1.837-.571h-3.067v-2.32h3.015c1.066,0,1.976.179,2.729.536.752.357,1.325.879,1.718,1.564s.589,1.512.589,2.479v3.621c0,.92-.189,1.723-.566,2.408-.379.686-.945,1.219-1.701,1.6s-1.682.571-2.777.571h-3.006v-2.32Z" fill="#fff"/>
  </g>
  <g>
    <rect x="388.011" y="639.554" width="101.667" height="34.671" fill="none"/>
    <path d="M421.869,650.5h2.408v12.779h-2.408v-12.779ZM422.985,655.782h7.444v2.32h-7.444v-2.32ZM428.865,650.5h2.408v12.779h-2.408v-12.779Z" fill="#fff"/>
    <path d="M436.604,662.854c-.697-.372-1.228-.914-1.591-1.627-.363-.711-.545-1.568-.545-2.57v-8.156h2.408v8.218c0,.732.196,1.301.589,1.705s.946.606,1.661.606c.721,0,1.279-.202,1.674-.606s.593-.973.593-1.705v-8.218h2.408v8.156c0,1.002-.183,1.859-.549,2.57-.366.713-.899,1.255-1.6,1.627s-1.542.558-2.527.558-1.825-.186-2.522-.558Z" fill="#fff"/>
    <path d="M446.821,650.5h2.408v12.779h-2.408v-12.779ZM448.034,660.959h3.067c.791,0,1.403-.19,1.837-.571s.65-.92.65-1.617v-3.762c0-.697-.217-1.236-.65-1.617s-1.046-.571-1.837-.571h-3.067v-2.32h3.015c1.066,0,1.976.179,2.729.536s1.326.879,1.718,1.564.589,1.512.589,2.479v3.621c0,.92-.189,1.723-.567,2.408s-.945,1.219-1.701,1.6-1.682.571-2.777.571h-3.006v-2.32Z" fill="#fff"/>
  </g>
  <g>
    <rect x="509.598" y="639.554" width="101.667" height="34.671" fill="none"/>
    <path d="M521.418,650.5h2.408v12.779h-2.408v-12.779ZM522.534,655.782h7.444v2.32h-7.444v-2.32ZM528.414,650.5h2.408v12.779h-2.408v-12.779Z" fill="#fff"/>
    <path d="M536.421,663.227c-.583-.123-1.131-.303-1.644-.541-.513-.236-.971-.522-1.375-.856l1.116-1.986c.492.404,1.061.716,1.705.937.645.219,1.307.329,1.986.329.785,0,1.395-.133,1.828-.399s.65-.644.65-1.13v-.009c0-.34-.097-.609-.29-.809s-.445-.346-.756-.439-.709-.179-1.195-.255c-.018-.006-.034-.009-.048-.009s-.031-.003-.048-.009l-.193-.026c-.855-.135-1.564-.303-2.127-.506-.562-.201-1.04-.556-1.433-1.062s-.589-1.227-.589-2.158v-.009c0-.826.185-1.532.554-2.118s.905-1.033,1.608-1.34c.703-.309,1.553-.462,2.549-.462.457,0,.924.053,1.402.158s.945.258,1.402.457.891.439,1.301.721l-1.02,2.039c-.492-.34-1.007-.604-1.543-.791s-1.05-.281-1.542-.281c-.738,0-1.31.122-1.714.364-.404.244-.606.585-.606,1.024v.009c0,.369.105.661.316.875s.472.37.782.47.747.205,1.31.316c.023.006.047.011.07.013.023.004.047.008.07.014.035.006.069.014.101.021.032.01.066.017.101.022.809.158,1.484.351,2.026.575.542.227.994.59,1.357,1.09.363.502.545,1.186.545,2.053v.018c0,.814-.189,1.512-.57,2.092s-.937,1.022-1.666,1.327-1.607.457-2.632.457c-.609,0-1.206-.062-1.789-.185Z" fill="#fff"/>
    <path d="M545.658,650.5h2.408v12.779h-2.408v-12.779ZM546.871,660.959h3.067c.791,0,1.403-.19,1.837-.571s.65-.92.65-1.617v-3.762c0-.697-.217-1.236-.65-1.617s-1.046-.571-1.837-.571h-3.067v-2.32h3.015c1.066,0,1.976.179,2.729.536.752.357,1.325.879,1.718,1.564s.589,1.512.589,2.479v3.621c0,.92-.189,1.723-.566,2.408-.379.686-.945,1.219-1.701,1.6s-1.682.571-2.777.571h-3.006v-2.32Z" fill="#fff"/>
    <path d="M558.644,665.705h-2.285l5.713-16.717h2.285l-5.713,16.717Z" fill="#fff"/>
    <path d="M565.398,650.5h2.408v12.779h-2.408v-12.779ZM566.269,650.5h7.69v2.32h-7.69v-2.32ZM566.269,655.773h6.724v2.32h-6.724v-2.32ZM566.269,660.959h7.69v2.32h-7.69v-2.32Z" fill="#fff"/>
    <path d="M578.577,662.854c-.691-.372-1.219-.914-1.582-1.627-.363-.711-.545-1.571-.545-2.579v-3.507c0-1.008.182-1.867.545-2.58.363-.711.891-1.255,1.582-1.63s1.523-.562,2.496-.562c.803,0,1.521.173,2.153.519s1.155.848,1.569,1.508c.412.658.698,1.454.856,2.386h-2.496c-.094-.422-.239-.782-.435-1.081-.197-.299-.435-.527-.713-.686s-.59-.237-.936-.237c-.451,0-.835.093-1.151.276-.316.186-.558.455-.726.809-.166.355-.25.781-.25,1.279v3.507c0,.498.084.923.25,1.274.168.352.409.619.726.805.316.184.7.276,1.151.276.352,0,.668-.077.949-.233.281-.154.519-.382.712-.681s.334-.662.422-1.09h2.496c-.164.932-.452,1.728-.866,2.386-.412.66-.935,1.162-1.564,1.508s-1.346.519-2.148.519c-.973,0-1.805-.186-2.496-.558Z" fill="#fff"/>
    <path d="M596.273,650.5h3.173v12.779h-2.188v-9.923l.088.562-2.443,7.937h-2.127l-2.443-7.761.088-.738v9.923h-2.188v-12.779h3.173l2.435,8.613,2.435-8.613Z" fill="#fff"/>
  </g>
  <g>
    <rect x="268.474" y="639.554" width="101.667" height="34.671" fill="none"/>
    <path d="M309.013,650.5h2.408v12.779h-2.408v-12.779ZM310.226,660.959h3.067c.791,0,1.403-.19,1.837-.571s.65-.92.65-1.617v-3.762c0-.697-.217-1.236-.65-1.617s-1.046-.571-1.837-.571h-3.067v-2.32h3.015c1.066,0,1.976.179,2.729.536s1.326.879,1.718,1.564.589,1.512.589,2.479v3.621c0,.92-.189,1.723-.567,2.408s-.945,1.219-1.701,1.6-1.682.571-2.777.571h-3.006v-2.32Z" fill="#fff"/>
    <path d="M321.208,650.5h2.408v12.779h-2.408v-12.779ZM322.307,656.002h4.087c.287,0,.541-.066.76-.197.22-.133.391-.318.514-.559s.185-.516.185-.826c0-.316-.06-.596-.18-.84-.12-.242-.29-.43-.51-.562-.22-.131-.476-.197-.769-.197h-4.087v-2.32h4.025c.797,0,1.499.162,2.105.488.606.324,1.077.783,1.411,1.375s.501,1.277.501,2.057-.167,1.463-.501,2.053c-.334.588-.804,1.044-1.411,1.366s-1.308.483-2.105.483h-4.025v-2.32Z" fill="#fff"/>
  </g>
  <g>
    <rect x="396.665" y="515.371" width="101.667" height="34.671" fill="none"/>
    <path d="M432.177,526.317h3.173v12.779h-2.188v-9.923l.088.562-2.443,7.937h-2.127l-2.443-7.761.088-.738v9.923h-2.188v-12.779h3.173l2.435,8.613,2.435-8.613Z" fill="#fff"/>
    <path d="M440.676,538.644c-.706-.39-1.252-.94-1.639-1.652s-.58-1.537-.58-2.474v-3.621c0-.938.193-1.762.58-2.474s.933-1.263,1.639-1.652,1.522-.584,2.448-.584,1.742.195,2.448.584,1.252.94,1.639,1.652.58,1.537.58,2.474v3.621c0,.938-.193,1.762-.58,2.474s-.933,1.263-1.639,1.652-1.522.584-2.448.584-1.742-.195-2.448-.584ZM444.267,536.543c.328-.185.582-.447.76-.787s.268-.732.268-1.178v-3.744c0-.445-.089-.838-.268-1.178s-.432-.602-.76-.787-.709-.277-1.143-.277-.814.092-1.143.277-.582.447-.76.787-.268.732-.268,1.178v3.744c0,.445.089.838.268,1.178s.432.602.76.787.709.277,1.143.277.814-.092,1.143-.277Z" fill="#fff"/>
    <path d="M450.722,526.317h2.408v12.779h-2.408v-12.779ZM451.935,536.776h3.067c.791,0,1.403-.19,1.837-.571s.65-.92.65-1.617v-3.762c0-.697-.217-1.236-.65-1.617s-1.046-.571-1.837-.571h-3.067v-2.32h3.015c1.066,0,1.976.179,2.729.536s1.326.879,1.718,1.564.589,1.512.589,2.479v3.621c0,.92-.189,1.723-.567,2.408s-.945,1.219-1.701,1.6-1.682.571-2.777.571h-3.006v-2.32Z" fill="#fff"/>
    <path d="M462.917,526.317h2.408v12.779h-2.408v-12.779ZM463.787,526.317h7.69v2.32h-7.69v-2.32ZM463.787,531.59h6.724v2.32h-6.724v-2.32ZM463.787,536.776h7.69v2.32h-7.69v-2.32Z" fill="#fff"/>
  </g>
  <g>
    <rect x="515.668" y="515.371" width="101.667" height="34.671" fill="none"/>
    <path d="M549.478,526.317h2.408v12.779h-2.408v-12.779ZM550.348,526.317h7.69v2.32h-7.69v-2.32ZM550.348,531.59h6.724v2.32h-6.724v-2.32ZM550.348,536.776h7.69v2.32h-7.69v-2.32Z" fill="#fff"/>
    <path d="M562.656,538.67c-.691-.372-1.219-.914-1.582-1.626s-.545-1.572-.545-2.58v-3.507c0-1.008.182-1.868.545-2.58s.891-1.255,1.582-1.63,1.523-.562,2.496-.562c.803,0,1.521.173,2.153.519s1.155.848,1.569,1.507c.412.659.698,1.455.856,2.386h-2.496c-.094-.422-.239-.782-.435-1.081-.197-.299-.435-.527-.713-.686s-.59-.237-.936-.237c-.451,0-.835.092-1.151.277s-.558.454-.726.809c-.166.354-.25.781-.25,1.279v3.507c0,.498.084.923.25,1.274.168.352.409.62.726.804s.7.277,1.151.277c.352,0,.668-.078.949-.233s.519-.382.712-.681.334-.662.422-1.09h2.496c-.164.932-.452,1.727-.866,2.386-.412.659-.935,1.162-1.564,1.507s-1.346.519-2.148.519c-.973,0-1.805-.186-2.496-.558Z" fill="#fff"/>
    <path d="M580.354,526.317h3.173v12.779h-2.188v-9.923l.088.562-2.443,7.937h-2.127l-2.443-7.761.088-.738v9.923h-2.188v-12.779h3.173l2.435,8.613,2.435-8.613Z" fill="#fff"/>
  </g>
  <g>
    <rect x="397.268" y="278.285" width="101.667" height="34.671" fill="none"/>
    <path d="M414.583,289.231h2.408v12.779h-2.408v-12.779ZM415.462,289.231h7.515v2.32h-7.515v-2.32ZM415.462,294.619h6.548v2.32h-6.548v-2.32Z" fill="#fff"/>
    <path d="M427.16,301.558c-.706-.39-1.252-.94-1.639-1.652s-.58-1.537-.58-2.474v-3.621c0-.938.193-1.762.58-2.474s.933-1.263,1.639-1.652,1.522-.584,2.448-.584,1.742.195,2.448.584,1.252.94,1.639,1.652.58,1.537.58,2.474v3.621c0,.938-.193,1.762-.58,2.474s-.933,1.263-1.639,1.652-1.522.584-2.448.584-1.742-.195-2.448-.584ZM430.75,299.457c.328-.185.582-.447.76-.787s.268-.732.268-1.178v-3.744c0-.445-.089-.838-.268-1.178s-.432-.602-.76-.787-.709-.277-1.143-.277-.814.092-1.143.277-.582.447-.76.787-.268.732-.268,1.178v3.744c0,.445.089.838.268,1.178s.432.602.76.787.709.277,1.143.277.814-.092,1.143-.277Z" fill="#fff"/>
    <path d="M437.206,289.222h2.408v12.788h-2.408v-12.788ZM438.164,294.548h4.447c.246,0,.463-.062.65-.185s.333-.299.435-.527.157-.492.163-.791c0-.299-.051-.562-.154-.791s-.248-.404-.435-.527-.407-.185-.659-.185h-4.447v-2.32h4.641c.703,0,1.321.158,1.854.475s.946.763,1.239,1.34.439,1.247.439,2.008-.146,1.431-.439,2.008-.708,1.024-1.244,1.34-1.153.475-1.85.475h-4.641v-2.32ZM440.854,296.473l2.575-.404,3.445,5.941h-2.918l-3.103-5.537Z" fill="#fff"/>
    <path d="M457.539,289.231h3.173v12.779h-2.188v-9.923l.088.562-2.443,7.937h-2.127l-2.443-7.761.088-.738v9.923h-2.188v-12.779h3.173l2.435,8.613,2.435-8.613Z" fill="#fff"/>
    <path d="M467.563,289.231h1.529l4.887,12.779h-2.593l-3.059-8.728-3.059,8.728h-2.593l4.887-12.779ZM465.023,297.642h6.724v2.32h-6.724v-2.32Z" fill="#fff"/>
    <path d="M474.01,289.231h9.369v2.32h-9.369v-2.32ZM477.49,290.277h2.408v11.733h-2.408v-11.733Z" fill="#fff"/>
  </g>
  <g>
    <rect x="516.271" y="278.285" width="101.667" height="34.671" fill="none"/>
    <path d="M556.554,289.231h1.529l4.887,12.779h-2.593l-3.059-8.728-3.059,8.728h-2.593l4.887-12.779ZM554.014,297.642h6.724v2.32h-6.724v-2.32Z" fill="#fff"/>
    <path d="M565.109,289.231h2.408v12.779h-2.408v-12.779ZM566.182,299.69h7.488v2.32h-7.488v-2.32Z" fill="#fff"/>
    <path d="M573.701,289.231h9.369v2.32h-9.369v-2.32ZM577.182,290.277h2.408v11.733h-2.408v-11.733Z" fill="#fff"/>
  </g>
  <g>
    <rect x="280.034" y="269.287" width="101.667" height="34.671" fill="none"/>
    <path d="M315.546,280.233h3.173v12.779h-2.188v-9.923l.088.562-2.443,7.937h-2.127l-2.443-7.761.088-.738v9.923h-2.188v-12.779h3.173l2.435,8.613,2.435-8.613Z" fill="#fff"/>
    <path d="M324.045,292.56c-.706-.39-1.252-.94-1.639-1.652s-.58-1.537-.58-2.474v-3.621c0-.938.193-1.762.58-2.474s.933-1.263,1.639-1.652,1.522-.584,2.448-.584,1.742.195,2.448.584,1.252.94,1.639,1.652.58,1.537.58,2.474v3.621c0,.938-.193,1.762-.58,2.474s-.933,1.263-1.639,1.652-1.522.584-2.448.584-1.742-.195-2.448-.584ZM327.636,290.459c.328-.185.582-.447.76-.787s.268-.732.268-1.178v-3.744c0-.445-.089-.838-.268-1.178s-.432-.602-.76-.787-.709-.277-1.143-.277-.814.092-1.143.277-.582.447-.76.787-.268.732-.268,1.178v3.744c0,.445.089.838.268,1.178s.432.602.76.787.709.277,1.143.277.814-.092,1.143-.277Z" fill="#fff"/>
    <path d="M334.091,280.233h2.408v12.779h-2.408v-12.779ZM335.304,290.692h3.067c.791,0,1.403-.19,1.837-.571s.65-.92.65-1.617v-3.762c0-.697-.217-1.236-.65-1.617s-1.046-.571-1.837-.571h-3.067v-2.32h3.015c1.066,0,1.976.179,2.729.536s1.326.879,1.718,1.564.589,1.512.589,2.479v3.621c0,.92-.189,1.723-.567,2.408s-.945,1.219-1.701,1.6-1.682.571-2.777.571h-3.006v-2.32Z" fill="#fff"/>
    <path d="M346.286,280.233h2.408v12.779h-2.408v-12.779ZM347.156,280.233h7.69v2.32h-7.69v-2.32ZM347.156,285.506h6.724v2.32h-6.724v-2.32ZM347.156,290.692h7.69v2.32h-7.69v-2.32Z" fill="#fff"/>
  </g>
  <g>
    <rect x="355.607" y="319.083" width="56.322" height="14.253" fill="none"/>
    <path d="M384.559,322.092h.985l3.149,8.235h-1.671l-1.971-5.625-1.971,5.625h-1.671l3.149-8.235ZM382.921,327.512h4.333v1.495h-4.333v-1.495Z" fill="#fff"/>
    <path d="M390.072,322.092h1.897l3.064,6.31-.136.147v-6.457h1.484v8.229h-1.909l-3.053-6.213.136-.147v6.36h-1.484v-8.229Z" fill="#fff"/>
    <path d="M398.554,322.092h1.552v8.235h-1.552v-8.235ZM399.245,328.832h4.826v1.495h-4.826v-1.495Z" fill="#fff"/>
    <path d="M411.193,325.722v1.609c0,.611-.124,1.15-.371,1.617-.248.467-.598.827-1.051,1.082s-.978.382-1.575.382c-.601,0-1.13-.12-1.589-.36-.458-.24-.813-.579-1.065-1.017-.251-.438-.376-.946-.376-1.523v-2.43c0-.611.124-1.149.371-1.614.247-.464.598-.824,1.051-1.079s.978-.382,1.574-.382c.491,0,.944.101,1.359.303.416.202.762.488,1.04.858s.465.798.563,1.286h-1.676c-.057-.174-.15-.324-.281-.45-.13-.126-.283-.223-.458-.289-.176-.066-.358-.099-.547-.099-.275,0-.518.061-.728.181-.209.121-.372.293-.487.516s-.173.479-.173.77v2.43c0,.257.059.483.176.68s.283.347.499.453c.215.105.464.159.748.159.279,0,.524-.058.733-.173s.371-.282.484-.501c.113-.219.17-.478.17-.776v-.136h-1.246v-1.496h2.854Z" fill="#fff"/>
  </g>
  <g>
    <rect x="355.607" y="349.827" width="56.322" height="14.253" fill="none"/>
    <path d="M384.411,352.836h1.552v8.235h-1.552v-8.235ZM385.193,359.576h1.977c.51,0,.904-.123,1.184-.368.279-.246.419-.593.419-1.042v-2.424c0-.449-.14-.796-.419-1.042-.28-.246-.674-.368-1.184-.368h-1.977v-1.495h1.943c.687,0,1.273.115,1.758.345.485.23.854.566,1.107,1.008s.379.974.379,1.597v2.333c0,.593-.122,1.11-.365,1.552s-.609.785-1.096,1.031c-.487.246-1.084.368-1.79.368h-1.937v-1.495Z" fill="#fff"/>
    <path d="M398.013,356.466v1.609c0,.611-.124,1.15-.371,1.617-.248.467-.598.827-1.051,1.082s-.978.382-1.575.382c-.601,0-1.13-.12-1.589-.36-.458-.24-.813-.579-1.065-1.017-.251-.438-.376-.946-.376-1.523v-2.43c0-.611.124-1.149.371-1.614.247-.464.598-.824,1.051-1.079s.978-.382,1.574-.382c.491,0,.944.101,1.359.303.416.202.762.488,1.04.858s.465.798.563,1.286h-1.676c-.057-.174-.15-.324-.281-.45-.13-.126-.283-.223-.458-.289-.176-.066-.358-.099-.547-.099-.275,0-.518.061-.728.181-.209.121-.372.293-.487.516s-.173.479-.173.77v2.43c0,.257.059.483.176.68s.283.347.499.453c.215.105.464.159.748.159.279,0,.524-.058.733-.173s.371-.282.484-.501c.113-.219.17-.478.17-.776v-.136h-1.246v-1.496h2.854Z" fill="#fff"/>
    <path d="M398.882,352.836h6.038v1.495h-6.038v-1.495ZM401.125,353.51h1.552v7.562h-1.552v-7.562Z" fill="#fff"/>
    <path d="M406.186,352.836h1.552v8.235h-1.552v-8.235ZM406.877,359.576h4.826v1.495h-4.826v-1.495Z" fill="#fff"/>
  </g>
  <g>
    <rect x="355.607" y="437.765" width="56.322" height="14.253" fill="none"/>
    <path d="M378.568,440.774h1.597l1.75,5.494,1.75-5.494h1.597l-2.741,8.235h-1.212l-2.741-8.235Z" fill="#fff"/>
    <path d="M388.137,449.01h-1.608v-8.235h1.608v8.235Z" fill="#fff"/>
    <path d="M390.196,440.774h1.552v8.235h-1.552v-8.235ZM390.978,447.515h1.977c.51,0,.904-.123,1.184-.368.279-.246.419-.593.419-1.042v-2.424c0-.449-.14-.796-.419-1.042-.28-.246-.674-.368-1.184-.368h-1.977v-1.495h1.943c.687,0,1.273.115,1.758.345.485.23.854.566,1.107,1.008s.379.974.379,1.597v2.333c0,.593-.122,1.11-.365,1.552s-.609.785-1.096,1.031c-.487.246-1.084.368-1.79.368h-1.937v-1.495Z" fill="#fff"/>
    <path d="M398.055,440.774h1.552v8.235h-1.552v-8.235ZM398.615,440.774h4.956v1.495h-4.956v-1.495ZM398.615,444.173h4.333v1.495h-4.333v-1.495ZM398.615,447.515h4.956v1.495h-4.956v-1.495Z" fill="#fff"/>
    <path d="M406.607,448.718c-.455-.251-.807-.606-1.056-1.065-.25-.459-.374-.99-.374-1.595v-2.333c0-.604.125-1.136.374-1.594.249-.459.601-.814,1.056-1.065s.981-.376,1.578-.376,1.122.125,1.577.376.807.606,1.057,1.065c.249.458.374.99.374,1.594v2.333c0,.604-.125,1.136-.374,1.595-.25.458-.602.813-1.057,1.065-.455.251-.981.376-1.577.376s-1.123-.125-1.578-.376ZM408.921,447.364c.211-.119.375-.288.49-.507.115-.219.173-.472.173-.759v-2.413c0-.287-.058-.54-.173-.759-.115-.219-.278-.388-.49-.507-.212-.119-.457-.178-.736-.178s-.525.06-.736.178c-.212.119-.375.288-.49.507-.115.219-.173.472-.173.759v2.413c0,.287.058.54.173.759.115.219.278.388.49.507.211.119.457.179.736.179s.524-.06.736-.179Z" fill="#fff"/>
  </g>
  <g>
    <rect x="355.607" y="466.303" width="56.322" height="14.253" fill="none"/>
    <path d="M393.708,469.312h1.597l1.75,5.494,1.75-5.494h1.597l-2.741,8.235h-1.212l-2.741-8.235Z" fill="#fff"/>
    <path d="M401.782,469.312h1.552v8.235h-1.552v-8.235ZM402.563,476.052h1.977c.51,0,.904-.123,1.184-.368.279-.246.419-.593.419-1.042v-2.424c0-.449-.14-.796-.419-1.042-.28-.246-.674-.368-1.184-.368h-1.977v-1.495h1.943c.687,0,1.273.115,1.758.345.485.23.854.566,1.107,1.008s.379.974.379,1.597v2.333c0,.593-.122,1.11-.365,1.552s-.609.785-1.096,1.031c-.487.246-1.084.368-1.79.368h-1.937v-1.495Z" fill="#fff"/>
    <path d="M411.136,477.547h-1.608v-8.235h1.608v8.235Z" fill="#fff"/>
  </g>
  <g>
    <rect x="355.607" y="548.923" width="56.322" height="14.253" fill="none"/>
    <path d="M390.298,551.932h1.897l3.064,6.31-.136.147v-6.457h1.484v8.229h-1.909l-3.053-6.213.136-.147v6.36h-1.484v-8.229Z" fill="#fff"/>
    <path d="M401.023,551.932h.985l3.149,8.235h-1.671l-1.971-5.624-1.971,5.624h-1.671l3.149-8.235ZM399.386,557.352h4.333v1.496h-4.333v-1.496Z" fill="#fff"/>
    <path d="M405.178,551.932h1.597l1.75,5.494,1.75-5.494h1.597l-2.741,8.235h-1.212l-2.741-8.235Z" fill="#fff"/>
  </g>
  <g>
    <rect x="355.607" y="580.896" width="56.322" height="14.253" fill="none"/>
    <path d="M394.365,583.905h6.038v1.495h-6.038v-1.495ZM396.608,584.579h1.552v7.562h-1.552v-7.562Z" fill="#fff"/>
    <path d="M403.164,592.141h-1.608v-8.235h1.608v8.235Z" fill="#fff"/>
    <path d="M405.223,583.905h1.552v8.235h-1.552v-8.235ZM406.005,590.646h1.977c.51,0,.904-.123,1.184-.368.279-.246.419-.593.419-1.042v-2.425c0-.449-.14-.797-.419-1.042-.28-.245-.674-.368-1.184-.368h-1.977v-1.495h1.943c.687,0,1.273.115,1.758.346.485.229.854.566,1.107,1.008s.379.975.379,1.598v2.333c0,.593-.122,1.11-.365,1.552-.244.442-.609.786-1.096,1.031-.487.245-1.084.368-1.79.368h-1.937v-1.495Z" fill="#fff"/>
  </g>
  <g>
    <rect x="355.607" y="612.314" width="56.322" height="14.253" fill="none"/>
    <path d="M389.081,615.323h1.552v8.235h-1.552v-8.235ZM389.641,615.323h4.956v1.495h-4.956v-1.495ZM389.641,618.722h4.333v1.495h-4.333v-1.495ZM389.641,622.063h4.956v1.495h-4.956v-1.495Z" fill="#fff"/>
    <path d="M397.573,623.284c-.445-.24-.785-.589-1.02-1.048-.234-.459-.351-1.014-.351-1.663v-2.26c0-.649.117-1.203.351-1.662.234-.459.574-.81,1.02-1.051.446-.241.982-.362,1.609-.362.517,0,.979.111,1.388.334.408.223.745.547,1.011.972s.45.938.552,1.537h-1.608c-.061-.271-.154-.504-.28-.696-.127-.192-.28-.34-.459-.441-.179-.103-.38-.153-.603-.153-.291,0-.538.06-.742.179s-.36.292-.467.521-.162.504-.162.824v2.26c0,.321.054.595.162.821s.263.399.467.519.451.179.742.179c.227,0,.43-.05.611-.15.182-.1.334-.246.459-.438.125-.193.215-.427.272-.703h1.608c-.105.601-.292,1.113-.558,1.538-.267.425-.603.749-1.008.972-.406.223-.868.334-1.385.334-.627,0-1.163-.12-1.609-.359Z" fill="#fff"/>
    <path d="M408.978,615.323h2.045v8.235h-1.411v-6.395l.057.362-1.575,5.114h-1.371l-1.575-5.001.057-.476v6.395h-1.41v-8.235h2.045l1.569,5.551,1.569-5.551Z" fill="#fff"/>
  </g>
  <g>
    <rect x="481.522" y="318.585" width="56.322" height="11.627" fill="none"/>
    <path d="M508.021,320.281h1.552v8.235h-1.552v-8.235ZM508.701,327.021h2.628c.355,0,.63-.086.824-.258s.292-.413.292-.722v-.017c0-.208-.043-.385-.13-.532-.087-.147-.214-.26-.382-.337-.168-.077-.369-.116-.604-.116h-2.628v-1.496h2.628c.321,0,.569-.081.745-.244.175-.162.263-.391.263-.685,0-.264-.088-.47-.263-.618-.176-.147-.424-.221-.745-.221h-2.628v-1.495h2.679c.532,0,.987.087,1.365.263.378.176.665.431.861.765.196.334.294.735.294,1.204,0,.321-.063.605-.19.853-.126.247-.311.45-.552.609s-.532.266-.872.323c.362.049.673.16.932.332s.455.396.589.671c.134.276.201.595.201.958v.017c0,.472-.099.876-.297,1.212s-.487.592-.867.768c-.379.175-.835.263-1.368.263h-2.775v-1.495Z" fill="#fff"/>
    <path d="M518.055,320.281h.985l3.149,8.235h-1.671l-1.971-5.625-1.971,5.625h-1.671l3.149-8.235ZM516.417,325.701h4.333v1.495h-4.333v-1.495Z" fill="#fff"/>
    <path d="M523.569,320.275h1.552v8.241h-1.552v-8.241ZM524.186,323.708h2.866c.159,0,.298-.04.419-.119.121-.079.214-.192.281-.34.066-.147.101-.317.104-.51,0-.192-.033-.362-.099-.51s-.16-.261-.28-.34c-.121-.079-.263-.119-.425-.119h-2.866v-1.495h2.991c.453,0,.852.102,1.195.306.343.204.61.492.798.864.189.372.283.804.283,1.294s-.094.922-.283,1.294c-.188.372-.456.66-.801.864-.346.204-.743.306-1.192.306h-2.991v-1.495ZM525.919,324.948l1.66-.261,2.22,3.829h-1.88l-2-3.568Z" fill="#fff"/>
    <path d="M532.523,328.225c-.455-.251-.807-.606-1.056-1.065-.25-.459-.374-.99-.374-1.595v-2.333c0-.604.125-1.136.374-1.594.249-.459.601-.814,1.056-1.065s.981-.376,1.578-.376,1.122.125,1.577.376.807.606,1.057,1.065c.249.458.374.99.374,1.594v2.333c0,.604-.125,1.136-.374,1.595-.25.458-.602.813-1.057,1.065-.455.251-.981.376-1.577.376s-1.123-.125-1.578-.376ZM534.837,326.871c.211-.119.375-.288.49-.507.115-.219.173-.472.173-.759v-2.413c0-.287-.058-.54-.173-.759-.115-.219-.278-.388-.49-.507-.212-.119-.457-.178-.736-.178s-.525.06-.736.178c-.212.119-.375.288-.49.507-.115.219-.173.472-.173.759v2.413c0,.287.058.54.173.759.115.219.278.388.49.507.211.119.457.179.736.179s.524-.06.736-.179Z" fill="#fff"/>
  </g>
  <g>
    <rect x="481.522" y="349.33" width="56.322" height="14.253" fill="none"/>
    <path d="M515.41,352.333h1.552v8.241h-1.552v-8.241ZM516.027,355.766h2.866c.159,0,.298-.04.419-.119.121-.079.214-.192.281-.34.066-.147.101-.317.104-.51,0-.192-.033-.362-.099-.51s-.16-.261-.28-.34c-.121-.079-.263-.119-.425-.119h-2.866v-1.495h2.991c.453,0,.852.102,1.195.306.343.204.61.492.798.864.189.372.283.804.283,1.294s-.094.922-.283,1.294c-.188.372-.456.66-.801.864-.346.204-.743.306-1.192.306h-2.991v-1.495ZM517.76,357.006l1.66-.261,2.22,3.829h-1.88l-2-3.568Z" fill="#fff"/>
    <path d="M523.331,352.339h1.552v8.235h-1.552v-8.235ZM524.112,359.079h1.977c.51,0,.904-.123,1.184-.368.279-.246.419-.593.419-1.042v-2.424c0-.449-.14-.796-.419-1.042-.28-.246-.674-.368-1.184-.368h-1.977v-1.495h1.943c.687,0,1.273.115,1.758.345.485.23.854.566,1.107,1.008s.379.974.379,1.597v2.333c0,.593-.122,1.11-.365,1.552s-.609.785-1.096,1.031c-.487.246-1.084.368-1.79.368h-1.937v-1.495Z" fill="#fff"/>
    <path d="M531.189,352.333h1.552v8.241h-1.552v-8.241ZM531.807,355.766h2.866c.159,0,.298-.04.419-.119.121-.079.214-.192.281-.34.066-.147.101-.317.104-.51,0-.192-.033-.362-.099-.51s-.16-.261-.28-.34c-.121-.079-.263-.119-.425-.119h-2.866v-1.495h2.991c.453,0,.852.102,1.195.306.343.204.61.492.798.864.189.372.283.804.283,1.294s-.094.922-.283,1.294c-.188.372-.456.66-.801.864-.346.204-.743.306-1.192.306h-2.991v-1.495ZM533.54,357.006l1.66-.261,2.22,3.829h-1.88l-2-3.568Z" fill="#fff"/>
  </g>
  <g>
    <rect x="481.522" y="437.268" width="56.322" height="14.253" fill="none"/>
    <path d="M517.924,440.276h1.552v8.235h-1.552v-8.235ZM518.706,447.017h1.977c.51,0,.904-.123,1.184-.368.279-.246.419-.593.419-1.042v-2.424c0-.449-.14-.796-.419-1.042-.28-.246-.674-.368-1.184-.368h-1.977v-1.495h1.943c.687,0,1.273.115,1.758.345.485.23.854.566,1.107,1.008s.379.974.379,1.597v2.333c0,.593-.122,1.11-.365,1.552s-.609.785-1.096,1.031c-.487.246-1.084.368-1.79.368h-1.937v-1.495Z" fill="#fff"/>
    <path d="M527.912,440.276h.985l3.149,8.235h-1.671l-1.971-5.625-1.971,5.625h-1.671l3.149-8.235ZM526.275,445.697h4.333v1.495h-4.333v-1.495Z" fill="#fff"/>
    <path d="M535.703,445.334v3.178h-1.552v-3.178l-2.424-5.058h1.625l1.575,3.545,1.575-3.545h1.625l-2.424,5.058Z" fill="#fff"/>
  </g>
  <g>
    <rect x="481.522" y="465.805" width="56.322" height="14.253" fill="none"/>
    <path d="M504.698,468.813h1.897l3.064,6.31-.136.147v-6.457h1.484v8.229h-1.909l-3.053-6.213.136-.147v6.36h-1.484v-8.229Z" fill="#fff"/>
    <path d="M514.675,477.049h-1.608v-8.235h1.608v8.235Z" fill="#fff"/>
    <path d="M522.59,472.444v1.609c0,.611-.124,1.15-.371,1.617-.248.467-.598.827-1.051,1.082s-.978.382-1.575.382c-.601,0-1.13-.12-1.589-.36-.458-.24-.813-.579-1.065-1.017-.251-.438-.376-.946-.376-1.523v-2.43c0-.611.124-1.149.371-1.614.247-.464.598-.824,1.051-1.079s.978-.382,1.574-.382c.491,0,.944.101,1.359.303.416.202.762.488,1.04.858s.465.798.563,1.286h-1.676c-.057-.174-.15-.324-.281-.45-.13-.126-.283-.223-.458-.289-.176-.066-.358-.099-.547-.099-.275,0-.518.061-.728.181-.209.121-.372.293-.487.516s-.173.479-.173.77v2.43c0,.257.059.483.176.68s.283.347.499.453c.215.105.464.159.748.159.279,0,.524-.058.733-.173s.371-.282.484-.501c.113-.219.17-.478.17-.776v-.136h-1.246v-1.496h2.854Z" fill="#fff"/>
    <path d="M524.479,468.813h1.552v8.235h-1.552v-8.235ZM525.198,472.217h4.797v1.496h-4.797v-1.496ZM528.988,468.813h1.552v8.235h-1.552v-8.235Z" fill="#fff"/>
    <path d="M532.032,468.813h6.038v1.495h-6.038v-1.495ZM534.275,469.487h1.552v7.562h-1.552v-7.562Z" fill="#fff"/>
  </g>
  <g>
    <rect x="469.736" y="562.193" width="56.322" height="14.253" fill="none"/>
    <path d="M494.223,573.146c-.455-.251-.807-.605-1.056-1.064-.25-.459-.374-.99-.374-1.595v-2.333c0-.604.125-1.136.374-1.595.249-.459.601-.813,1.056-1.065.455-.251.981-.376,1.578-.376s1.122.125,1.577.376c.455.252.807.606,1.057,1.065.249.459.374.99.374,1.595v2.333c0,.604-.125,1.136-.374,1.595-.25.459-.602.813-1.057,1.064s-.981.377-1.577.377-1.123-.126-1.578-.377ZM496.537,571.792c.211-.119.375-.288.49-.507s.173-.472.173-.759v-2.413c0-.287-.058-.54-.173-.759s-.278-.388-.49-.507c-.212-.119-.457-.179-.736-.179s-.525.06-.736.179c-.212.119-.375.288-.49.507s-.173.472-.173.759v2.413c0,.287.058.54.173.759s.278.388.49.507c.211.119.457.179.736.179s.524-.06.736-.179Z" fill="#fff"/>
    <path d="M500.697,565.196h1.552v8.241h-1.552v-8.241ZM501.314,568.629h2.866c.159,0,.298-.04.419-.119.121-.079.214-.192.281-.34.066-.147.101-.317.104-.51,0-.192-.033-.362-.099-.51s-.16-.261-.28-.34c-.121-.079-.263-.119-.425-.119h-2.866v-1.495h2.991c.453,0,.852.102,1.195.306.343.204.61.492.798.864.189.372.283.803.283,1.294s-.094.922-.283,1.294c-.188.372-.456.66-.801.864s-.743.306-1.192.306h-2.991v-1.495ZM503.047,569.869l1.66-.261,2.22,3.829h-1.88l-2-3.568Z" fill="#fff"/>
    <path d="M510.113,573.438h-1.608v-8.235h1.608v8.235Z" fill="#fff"/>
    <path d="M512.172,565.202h1.552v8.235h-1.552v-8.235ZM512.954,571.942h1.977c.51,0,.904-.123,1.184-.368.279-.246.419-.593.419-1.042v-2.425c0-.449-.14-.797-.419-1.042-.28-.245-.674-.368-1.184-.368h-1.977v-1.495h1.943c.687,0,1.273.115,1.758.346.485.229.854.566,1.107,1.008s.379.975.379,1.598v2.333c0,.593-.122,1.11-.365,1.552-.244.442-.609.786-1.096,1.031-.487.245-1.084.368-1.79.368h-1.937v-1.495Z" fill="#fff"/>
    <path d="M520.031,565.202h1.552v8.235h-1.552v-8.235ZM520.591,565.202h4.956v1.495h-4.956v-1.495ZM520.591,568.601h4.333v1.495h-4.333v-1.495ZM520.591,571.942h4.956v1.495h-4.956v-1.495Z" fill="#fff"/>
  </g>
  <g>
    <rect x="471.661" y="593.077" width="56.322" height="14.253" fill="none"/>
    <path d="M508.972,604.029c-.455-.251-.807-.605-1.056-1.064-.25-.459-.374-.99-.374-1.595v-2.333c0-.604.125-1.136.374-1.595.249-.459.601-.813,1.056-1.065.455-.251.981-.376,1.578-.376s1.122.125,1.577.376c.455.252.807.606,1.057,1.065.249.459.374.99.374,1.595v2.333c0,.604-.125,1.136-.374,1.595-.25.459-.602.813-1.057,1.064s-.981.377-1.577.377-1.123-.126-1.578-.377ZM511.286,602.676c.211-.119.375-.288.49-.507s.173-.472.173-.759v-2.413c0-.287-.058-.54-.173-.759s-.278-.388-.49-.507c-.212-.119-.457-.179-.736-.179s-.525.06-.736.179c-.212.119-.375.288-.49.507s-.173.472-.173.759v2.413c0,.287.058.54.173.759s.278.388.49.507c.211.119.457.179.736.179s.524-.06.736-.179Z" fill="#fff"/>
    <path d="M515.446,596.086h1.552v8.235h-1.552v-8.235ZM516.012,596.086h4.843v1.495h-4.843v-1.495ZM516.012,599.558h4.22v1.495h-4.22v-1.495Z" fill="#fff"/>
    <path d="M522.404,596.086h1.552v8.235h-1.552v-8.235ZM522.971,596.086h4.843v1.495h-4.843v-1.495ZM522.971,599.558h4.22v1.495h-4.22v-1.495Z" fill="#fff"/>
  </g>
  <g>
    <rect x="215.944" y="319.196" width="101.667" height="34.671" fill="none"/>
    <path d="M252.248,330.142h9.369v2.32h-9.369v-2.32ZM255.728,331.188h2.408v11.733h-2.408v-11.733Z" fill="#fff"/>
    <path d="M261.955,340.513h2.408v2.408h-2.408v-2.408Z" fill="#fff"/>
    <path d="M268.591,342.469c-.706-.39-1.252-.94-1.639-1.652s-.58-1.537-.58-2.474v-3.621c0-.938.193-1.762.58-2.474s.933-1.263,1.639-1.652,1.522-.584,2.448-.584,1.742.195,2.448.584,1.252.94,1.639,1.652.58,1.537.58,2.474v3.621c0,.938-.193,1.762-.58,2.474s-.933,1.263-1.639,1.652-1.522.584-2.448.584-1.742-.195-2.448-.584ZM272.181,340.368c.328-.185.582-.447.76-.787s.268-.732.268-1.178v-3.744c0-.445-.089-.838-.268-1.178s-.432-.602-.76-.787-.709-.277-1.143-.277-.814.092-1.143.277-.582.447-.76.787-.268.732-.268,1.178v3.744c0,.445.089.838.268,1.178s.432.602.76.787.709.277,1.143.277.814-.092,1.143-.277Z" fill="#fff"/>
    <path d="M277.713,340.513h2.408v2.408h-2.408v-2.408Z" fill="#fff"/>
  </g>
  <g>
    <rect x="215.944" y="379.085" width="101.667" height="34.671" fill="none"/>
    <path d="M238.361,402.384c-.691-.372-1.219-.914-1.582-1.626s-.545-1.572-.545-2.58v-3.507c0-1.008.182-1.868.545-2.58s.891-1.255,1.582-1.63,1.523-.562,2.496-.562c.803,0,1.521.173,2.153.519s1.156.848,1.569,1.507.699,1.455.857,2.386h-2.496c-.094-.422-.239-.782-.435-1.081s-.434-.527-.712-.686-.59-.237-.936-.237c-.451,0-.835.092-1.151.277s-.558.454-.725.809-.25.781-.25,1.279v3.507c0,.498.083.923.25,1.274s.409.62.725.804.7.277,1.151.277c.352,0,.668-.078.949-.233s.519-.382.712-.681.334-.662.422-1.09h2.496c-.164.932-.453,1.727-.866,2.386s-.935,1.162-1.564,1.507-1.346.519-2.149.519c-.973,0-1.805-.186-2.496-.558Z" fill="#fff"/>
    <path d="M248.016,390.022h2.408v12.788h-2.408v-12.788ZM248.974,395.349h4.447c.246,0,.463-.062.65-.185s.333-.299.435-.527.157-.492.163-.791c0-.299-.051-.562-.154-.791s-.248-.404-.435-.527-.407-.185-.659-.185h-4.447v-2.32h4.641c.703,0,1.321.158,1.854.475s.946.763,1.239,1.34.439,1.247.439,2.008-.146,1.431-.439,2.008-.708,1.024-1.244,1.34-1.153.475-1.85.475h-4.641v-2.32ZM251.663,397.273l2.575-.404,3.445,5.941h-2.918l-3.103-5.537Z" fill="#fff"/>
    <path d="M261.916,402.384c-.697-.372-1.228-.914-1.591-1.626s-.545-1.569-.545-2.571v-8.156h2.408v8.218c0,.732.196,1.301.589,1.705s.946.606,1.661.606c.721,0,1.279-.202,1.674-.606s.593-.973.593-1.705v-8.218h2.408v8.156c0,1.002-.183,1.859-.549,2.571s-.899,1.254-1.6,1.626-1.542.558-2.527.558-1.825-.186-2.522-.558Z" fill="#fff"/>
    <path d="M274.453,402.811h-2.496v-12.779h2.496v12.779Z" fill="#fff"/>
    <path d="M279.875,402.758c-.583-.123-1.131-.303-1.644-.541s-.971-.523-1.375-.857l1.116-1.986c.492.404,1.061.716,1.705.936s1.307.33,1.986.33c.785,0,1.395-.133,1.828-.4s.65-.643.65-1.129v-.009c0-.34-.097-.609-.29-.809s-.445-.346-.756-.439-.709-.179-1.195-.255c-.018-.006-.034-.009-.048-.009s-.031-.003-.048-.009l-.193-.026c-.855-.135-1.564-.303-2.127-.505s-1.04-.557-1.433-1.063-.589-1.226-.589-2.158v-.009c0-.826.185-1.532.554-2.118s.905-1.033,1.608-1.34,1.553-.461,2.549-.461c.457,0,.924.053,1.402.158s.945.258,1.402.457.891.439,1.301.721l-1.02,2.039c-.492-.34-1.006-.604-1.542-.791s-1.05-.281-1.542-.281c-.738,0-1.31.122-1.714.365s-.606.584-.606,1.024v.009c0,.369.105.661.316.875s.472.371.782.47.747.205,1.31.316c.023.006.047.01.07.013s.047.007.07.013c.035.006.069.013.101.022s.066.016.101.022c.809.158,1.484.35,2.026.576s.995.589,1.358,1.09.545,1.185.545,2.052v.018c0,.814-.19,1.512-.571,2.092s-.936,1.022-1.666,1.327-1.607.457-2.632.457c-.609,0-1.206-.062-1.789-.185Z" fill="#fff"/>
    <path d="M289.113,390.031h2.408v12.779h-2.408v-12.779ZM289.983,390.031h7.69v2.32h-7.69v-2.32ZM289.983,395.305h6.724v2.32h-6.724v-2.32ZM289.983,400.49h7.69v2.32h-7.69v-2.32Z" fill="#fff"/>
  </g>
  <g>
    <rect x="215.944" y="441.068" width="101.667" height="34.671" fill="none"/>
    <path d="M256.222,452.014h1.529l4.887,12.779h-2.593l-3.059-8.728-3.059,8.728h-2.593l4.887-12.779ZM253.682,460.425h6.724v2.32h-6.724v-2.32Z" fill="#fff"/>
    <path d="M265.394,467.219h-2.285l5.713-16.717h2.285l-5.713,16.717Z" fill="#fff"/>
    <path d="M275.804,452.014h1.529l4.887,12.779h-2.593l-3.059-8.728-3.059,8.728h-2.593l4.887-12.779ZM273.264,460.425h6.724v2.32h-6.724v-2.32Z" fill="#fff"/>
  </g>
  <g>
    <rect x="215.944" y="505.169" width="101.667" height="34.671" fill="none"/>
    <path d="M255.879,516.115h1.529l4.887,12.779h-2.593l-3.059-8.728-3.059,8.728h-2.593l4.887-12.779ZM253.339,524.526h6.724v2.32h-6.724v-2.32Z" fill="#fff"/>
    <path d="M265.051,531.32h-2.285l5.713-16.717h2.285l-5.713,16.717Z" fill="#fff"/>
    <path d="M281.596,521.749v2.496c0,.949-.192,1.786-.576,2.509s-.927,1.283-1.63,1.679-1.518.593-2.443.593c-.932,0-1.753-.186-2.465-.558s-1.263-.898-1.652-1.578-.584-1.468-.584-2.364v-3.771c0-.949.192-1.784.576-2.505s.927-1.279,1.63-1.674,1.518-.593,2.443-.593c.762,0,1.465.157,2.109.47s1.182.757,1.613,1.332.722,1.239.875,1.995h-2.602c-.088-.27-.233-.502-.435-.699s-.439-.346-.712-.448-.555-.154-.848-.154c-.428,0-.804.094-1.129.281s-.577.454-.756.8-.268.744-.268,1.195v3.771c0,.398.091.75.272,1.055s.439.539.773.703.721.246,1.16.246c.434,0,.813-.089,1.138-.268s.576-.438.751-.778.264-.741.264-1.204v-.211h-1.934v-2.32h4.43Z" fill="#fff"/>
  </g>
  <g>
    <rect x="215.944" y="561.204" width="101.667" height="34.671" fill="none"/>
    <path d="M250.918,572.148h2.408v12.779h-2.408v-12.779ZM251.99,582.607h7.488v2.32h-7.488v-2.32Z" fill="#fff"/>
    <path d="M261.794,572.148h2.408v12.779h-2.408v-12.779ZM263.007,582.607h3.067c.791,0,1.403-.19,1.837-.571s.65-.92.65-1.617v-3.762c0-.697-.217-1.236-.65-1.617s-1.046-.571-1.837-.571h-3.067v-2.32h3.015c1.066,0,1.976.179,2.729.536s1.326.879,1.718,1.564.589,1.512.589,2.479v3.621c0,.92-.189,1.723-.567,2.408s-.945,1.219-1.701,1.6-1.682.571-2.777.571h-3.006v-2.32Z" fill="#fff"/>
    <path d="M282.901,577.782v2.496c0,.949-.192,1.786-.576,2.509-.384.725-.927,1.283-1.63,1.68-.703.395-1.518.593-2.443.593-.932,0-1.753-.186-2.465-.558s-1.263-.898-1.652-1.578-.584-1.468-.584-2.364v-3.771c0-.949.192-1.784.576-2.505s.927-1.278,1.63-1.675c.703-.395,1.518-.593,2.443-.593.762,0,1.465.157,2.109.47.645.314,1.182.758,1.613,1.332s.722,1.239.875,1.995h-2.602c-.088-.27-.233-.502-.435-.698s-.439-.346-.712-.449c-.272-.102-.555-.153-.848-.153-.428,0-.804.094-1.129.281s-.577.454-.756.8-.268.744-.268,1.195v3.771c0,.398.091.75.272,1.055s.439.539.773.703.721.246,1.16.246c.434,0,.813-.089,1.138-.269.325-.178.576-.438.751-.777s.264-.741.264-1.204v-.211h-1.934v-2.32h4.43Z" fill="#fff"/>
  </g>
  <g>
    <rect x="406.369" y="732.277" width="101.667" height="34.671" fill="none"/>
    <path d="M411.113,755.949c-.583-.123-1.131-.303-1.644-.541-.513-.236-.971-.522-1.375-.856l1.116-1.986c.492.404,1.061.716,1.705.937.645.219,1.307.329,1.986.329.785,0,1.395-.133,1.828-.399s.65-.644.65-1.13v-.009c0-.34-.097-.609-.29-.809s-.445-.346-.756-.439-.709-.179-1.195-.255c-.018-.006-.034-.009-.048-.009s-.031-.003-.048-.009l-.193-.026c-.855-.135-1.564-.303-2.127-.506-.562-.201-1.04-.556-1.433-1.062s-.589-1.227-.589-2.158v-.009c0-.826.185-1.532.554-2.118s.905-1.033,1.608-1.34c.703-.309,1.553-.462,2.549-.462.457,0,.924.053,1.402.158s.945.258,1.402.457.891.439,1.301.721l-1.02,2.039c-.492-.34-1.006-.604-1.542-.791s-1.05-.281-1.542-.281c-.738,0-1.31.122-1.714.364-.404.244-.606.585-.606,1.024v.009c0,.369.105.661.316.875s.472.37.782.47.747.205,1.31.316c.023.006.047.011.07.013.023.004.047.008.07.014.035.006.069.014.101.021.032.01.066.017.101.022.809.158,1.484.351,2.026.575.542.227.995.59,1.358,1.09.363.502.545,1.186.545,2.053v.018c0,.814-.19,1.512-.571,2.092s-.936,1.022-1.666,1.327-1.607.457-2.632.457c-.609,0-1.206-.062-1.789-.185Z" fill="#fff"/>
    <path d="M418.769,743.223h9.369v2.32h-9.369v-2.32ZM422.249,744.269h2.408v11.733h-2.408v-11.733Z" fill="#fff"/>
    <path d="M430.102,743.223h2.408v12.779h-2.408v-12.779ZM430.972,743.223h7.69v2.32h-7.69v-2.32ZM430.972,748.496h6.724v2.32h-6.724v-2.32ZM430.972,753.682h7.69v2.32h-7.69v-2.32Z" fill="#fff"/>
    <path d="M441.417,743.223h2.408v12.779h-2.408v-12.779ZM442.288,743.223h7.69v2.32h-7.69v-2.32ZM442.288,748.496h6.724v2.32h-6.724v-2.32ZM442.288,753.682h7.69v2.32h-7.69v-2.32Z" fill="#fff"/>
    <path d="M452.733,743.214h2.408v12.788h-2.408v-12.788ZM453.691,748.54h4.447c.246,0,.463-.062.65-.185s.333-.299.435-.527.157-.492.163-.791c0-.299-.051-.562-.154-.791s-.248-.404-.435-.527-.407-.185-.659-.185h-4.447v-2.32h4.641c.703,0,1.321.158,1.854.475s.946.764,1.239,1.341.439,1.246.439,2.008-.146,1.432-.439,2.008c-.293.578-.708,1.024-1.244,1.341s-1.153.475-1.85.475h-4.641v-2.32ZM456.381,750.465l2.575-.404,3.445,5.941h-2.918l-3.103-5.537Z" fill="#fff"/>
    <path d="M472.28,755.576c-.691-.372-1.219-.914-1.582-1.627-.363-.711-.545-1.571-.545-2.579v-3.507c0-1.008.182-1.867.545-2.58.363-.711.891-1.255,1.582-1.63s1.523-.562,2.496-.562c.803,0,1.521.173,2.153.519s1.156.848,1.569,1.508c.413.658.699,1.454.857,2.386h-2.496c-.094-.422-.239-.782-.435-1.081s-.434-.527-.712-.686-.59-.237-.936-.237c-.451,0-.835.093-1.151.276-.316.186-.558.455-.725.809-.167.355-.25.781-.25,1.279v3.507c0,.498.083.923.25,1.274s.409.619.725.805c.316.184.7.276,1.151.276.352,0,.668-.077.949-.233.281-.154.519-.382.712-.681s.334-.662.422-1.09h2.496c-.164.932-.453,1.728-.866,2.386-.413.66-.935,1.162-1.564,1.508s-1.346.519-2.149.519c-.973,0-1.805-.186-2.496-.558Z" fill="#fff"/>
    <path d="M489.977,743.223h3.173v12.779h-2.188v-9.923l.088.562-2.443,7.937h-2.127l-2.443-7.761.088-.738v9.923h-2.188v-12.779h3.173l2.435,8.613,2.435-8.613Z" fill="#fff"/>
    <path d="M496.52,743.223h2.408v12.779h-2.408v-12.779ZM497.733,753.682h3.067c.791,0,1.403-.19,1.837-.571s.65-.92.65-1.617v-3.762c0-.697-.217-1.236-.65-1.617s-1.046-.571-1.837-.571h-3.067v-2.32h3.015c1.066,0,1.976.179,2.729.536s1.326.879,1.718,1.564.589,1.512.589,2.479v3.621c0,.92-.189,1.723-.567,2.408s-.945,1.219-1.701,1.6-1.682.571-2.777.571h-3.006v-2.32Z" fill="#fff"/>
  </g>
  <path d="M673.203,756.734l6.236-2.988c5.787-2.773,12.121-4.212,18.538-4.212h0c6.962,0,13.82,1.694,19.981,4.937l2.515,1.324" fill="none" stroke="#fff" stroke-miterlimit="10" stroke-width="6"/>
  <polygon points="743.575 772.108 723.87 748.765 715.849 759.285 743.575 772.108" fill="#fff"/>
</svg>