<?xml version="1.0" encoding="UTF-8"?>
<svg id="a" data-name="Layer_2" xmlns="http://www.w3.org/2000/svg" width="767.024" height="517.905" viewBox="0 0 767.024 517.905">
  <polygon points="181.81 385.048 315.381 115.048 616.81 115.048 486.095 385.048 181.81 385.048" fill="#fff" stroke="#000" stroke-miterlimit="10" stroke-width="8"/>
  <g>
    <rect x="338.952" y="116.635" width="180" height="74.286" fill="none"/>
    <path d="M375.231,124.556h15.928v3.944h-15.928v-3.944ZM381.148,126.334h4.094v19.947h-4.094v-19.947Z"/>
    <path d="M398.42,124.556h2.6l8.308,21.725h-4.408l-5.2-14.837-5.2,14.837h-4.408l8.308-21.725ZM394.102,138.855h11.43v3.944h-11.43v-3.944Z"/>
    <path d="M412.017,124.541h4.094v21.74h-4.094v-21.74ZM413.645,133.596h7.561c.418,0,.787-.105,1.105-.314s.565-.508.74-.896.267-.837.276-1.345c0-.508-.087-.956-.261-1.345-.174-.389-.421-.688-.74-.896s-.692-.314-1.121-.314h-7.561v-3.944h7.889c1.195,0,2.246.269,3.153.807.906.538,1.609,1.298,2.107,2.279s.747,2.119.747,3.414-.249,2.433-.747,3.414c-.498.981-1.203,1.741-2.114,2.279-.912.538-1.96.807-3.146.807h-7.889v-3.944ZM418.217,136.868l4.378-.688,5.857,10.101h-4.96l-5.274-9.413Z"/>
    <path d="M446.815,134.133v4.244c0,1.613-.326,3.036-.979,4.266-.652,1.23-1.576,2.181-2.771,2.854-1.195.672-2.58,1.008-4.154,1.008-1.583,0-2.98-.316-4.19-.949-1.21-.632-2.146-1.526-2.81-2.682-.662-1.155-.993-2.495-.993-4.019v-6.41c0-1.613.326-3.033.979-4.258.652-1.225,1.576-2.174,2.771-2.846s2.58-1.008,4.154-1.008c1.295,0,2.49.267,3.586.799s2.01,1.288,2.741,2.264c.732.976,1.228,2.106,1.487,3.392h-4.423c-.149-.458-.396-.854-.74-1.188-.343-.333-.747-.587-1.21-.762-.463-.174-.943-.261-1.441-.261-.728,0-1.367.16-1.92.478-.553.319-.981.772-1.285,1.36s-.456,1.265-.456,2.032v6.41c0,.677.154,1.275.463,1.793.31.518.748.917,1.315,1.195s1.226.418,1.972.418c.737,0,1.383-.152,1.936-.456.553-.304.979-.744,1.277-1.322.299-.578.448-1.26.448-2.047v-.358h-3.287v-3.945h7.53Z"/>
    <path d="M450.849,124.556h4.094v21.725h-4.094v-21.725ZM452.328,124.556h13.073v3.944h-13.073v-3.944ZM452.328,133.521h11.43v3.944h-11.43v-3.944ZM452.328,142.336h13.073v3.944h-13.073v-3.944Z"/>
    <path d="M466.746,124.556h15.928v3.944h-15.928v-3.944ZM472.663,126.334h4.094v19.947h-4.094v-19.947Z"/>
    <path d="M352.101,161.276h4.094v21.725h-4.094v-21.725ZM354.163,179.056h5.214c1.345,0,2.386-.324,3.123-.971.737-.647,1.105-1.564,1.105-2.75v-6.395c0-1.185-.369-2.102-1.105-2.749-.737-.647-1.778-.971-3.123-.971h-5.214v-3.944h5.125c1.812,0,3.359.304,4.639.911,1.28.608,2.253,1.494,2.921,2.66s1.001,2.57,1.001,4.213v6.156c0,1.564-.321,2.929-.963,4.094-.643,1.166-1.606,2.072-2.891,2.719-1.285.647-2.859.971-4.722.971h-5.11v-3.944Z"/>
    <path d="M371.883,161.276h4.094v21.725h-4.094v-21.725ZM373.362,161.276h13.074v3.944h-13.074v-3.944ZM373.362,170.241h11.43v3.944h-11.43v-3.944ZM373.362,179.056h13.074v3.944h-13.074v-3.944Z"/>
    <path d="M393.959,182.911c-.991-.209-1.922-.515-2.794-.919-.872-.403-1.651-.889-2.338-1.457l1.897-3.377c.837.688,1.803,1.218,2.899,1.591,1.095.374,2.221.561,3.376.561,1.335,0,2.371-.227,3.108-.68.737-.454,1.105-1.093,1.105-1.92v-.015c0-.578-.164-1.036-.493-1.375-.329-.339-.757-.588-1.285-.747-.528-.159-1.206-.304-2.032-.434-.03-.01-.057-.015-.082-.015s-.052-.005-.082-.015l-.329-.045c-1.455-.229-2.66-.515-3.616-.859-.956-.344-1.768-.946-2.435-1.808-.667-.861-1.001-2.084-1.001-3.668v-.015c0-1.404.314-2.604.941-3.601s1.539-1.756,2.734-2.279,2.64-.784,4.333-.784c.777,0,1.571.089,2.383.269.812.18,1.606.438,2.383.777.777.338,1.514.747,2.211,1.225l-1.733,3.466c-.837-.578-1.711-1.026-2.623-1.345-.911-.319-1.785-.478-2.622-.478-1.255,0-2.226.207-2.914.62-.688.413-1.031.994-1.031,1.741v.015c0,.627.179,1.123.538,1.487.359.364.802.63,1.33.799.528.169,1.27.349,2.226.538.04.01.08.017.12.022.04.005.08.013.12.022.06.01.117.022.171.038s.112.027.172.037c1.375.269,2.523.596,3.444.979.921.383,1.69,1.001,2.308,1.853s.927,2.015.927,3.489v.03c0,1.385-.324,2.57-.971,3.556-.648.986-1.591,1.738-2.832,2.256s-2.732.777-4.475.777c-1.036,0-2.049-.104-3.041-.314Z"/>
    <path d="M412.658,183h-4.243v-21.725h4.243v21.725Z"/>
    <path d="M432.59,170.853v4.244c0,1.613-.326,3.036-.979,4.266-.652,1.23-1.576,2.181-2.771,2.854-1.195.672-2.58,1.008-4.154,1.008-1.584,0-2.981-.316-4.191-.949-1.21-.632-2.147-1.526-2.809-2.682-.663-1.155-.994-2.495-.994-4.019v-6.41c0-1.613.326-3.033.979-4.258.652-1.225,1.577-2.174,2.772-2.846s2.58-1.008,4.153-1.008c1.295,0,2.491.267,3.586.799s2.01,1.288,2.741,2.264c.732.976,1.228,2.106,1.487,3.392h-4.423c-.149-.458-.396-.854-.74-1.188-.343-.333-.747-.587-1.21-.762-.463-.174-.944-.261-1.442-.261-.727,0-1.367.16-1.92.478-.553.319-.981.772-1.285,1.36-.304.588-.456,1.265-.456,2.032v6.41c0,.677.154,1.275.463,1.793.309.518.747.917,1.315,1.195s1.225.418,1.972.418c.737,0,1.382-.152,1.935-.456.553-.304.979-.744,1.277-1.322.299-.578.448-1.26.448-2.047v-.358h-3.287v-3.945h7.53Z"/>
    <path d="M436.624,161.276h5.006l8.083,16.645-.358.389v-17.033h3.914v21.709h-5.035l-8.054-16.391.359-.388v16.779h-3.915v-21.709Z"/>
    <path d="M463.967,161.276h2.6l8.308,21.725h-4.408l-5.199-14.837-5.199,14.837h-4.408l8.308-21.725ZM459.649,175.575h11.431v3.944h-11.431v-3.944Z"/>
    <path d="M473.978,161.276h15.928v3.944h-15.928v-3.944ZM479.895,163.054h4.094v19.947h-4.094v-19.947Z"/>
    <path d="M492.296,161.276h4.094v21.725h-4.094v-21.725ZM493.776,161.276h13.073v3.944h-13.073v-3.944ZM493.776,170.241h11.43v3.944h-11.43v-3.944ZM493.776,179.056h13.073v3.944h-13.073v-3.944Z"/>
  </g>
  <circle cx="396.947" cy="220.907" r="15.046"/>
  <circle cx="396.947" cy="296.107" r="15.046"/>
  <circle cx="440.28" cy="258.507" r="15.046"/>
  <path d="M438.578,280.102c-4.097-4.097-6.399-9.654-6.399-15.447v-12.295c0-5.794,2.302-11.351,6.399-15.447l3.286-3.286c5.284-5.284,5.284-13.851,0-19.135h0c-5.284-5.284-13.851-5.284-19.135,0l-6.349,6.35c-4.165,4.165-9.814,6.505-15.704,6.505h-9.907c-5.505,0-10.785-2.187-14.678-6.08l-6.481-6.481c-5.381-5.381-14.106-5.381-19.487,0-2.781,2.781-4.343,6.553-4.343,10.486v66.473c0,3.933,1.562,7.705,4.343,10.486,5.381,5.381,14.106,5.381,19.487,0l6.481-6.481c3.893-3.893,9.173-6.08,14.678-6.08h9.907c5.89,0,11.539,2.34,15.704,6.505l6.349,6.35c5.284,5.284,13.851,5.284,19.135,0h0c5.284-5.284,5.284-13.851,0-19.135l-3.286-3.286Z" fill="#fff" stroke="#000" stroke-miterlimit="10" stroke-width="6"/>
  <line x1="416.214" y1="255.285" x2="383.785" y2="255.285" stroke="#000" stroke-miterlimit="10" stroke-width="5"/>
  <line x1="392.736" y1="239.32" x2="392.736" y2="271.25" stroke="#000" stroke-miterlimit="10" stroke-width="5"/>
  <polygon points="425.234 255.017 412.973 250.048 412.973 259.986 425.234 255.017"/>
  <polygon points="392.736 233.19 387.767 245.45 397.705 245.45 392.736 233.19"/>
  <polygon points="392.736 277.38 397.705 265.12 387.767 265.12 392.736 277.38"/>
  <g>
    <rect x="427.606" y="197.994" width="81.947" height="29.274" fill="none"/>
    <path d="M454.901,222.769c-1.186-.632-2.087-1.554-2.704-2.764-.618-1.21-.927-2.667-.927-4.371v-13.865h4.094v13.97c0,1.245.334,2.211,1.001,2.898.668.688,1.608,1.031,2.824,1.031,1.226,0,2.174-.343,2.847-1.031.672-.688,1.008-1.653,1.008-2.898v-13.97h4.095v13.865c0,1.704-.312,3.16-.935,4.371-.622,1.21-1.529,2.132-2.719,2.764-1.19.633-2.622.949-4.296.949s-3.103-.316-4.288-.949Z"/>
    <path d="M471.321,201.769h4.094v21.725h-4.094v-21.725ZM473.189,211.122h6.948c.488,0,.919-.112,1.292-.336.374-.224.665-.541.875-.949.209-.409.313-.876.313-1.405,0-.538-.103-1.013-.307-1.427-.204-.413-.493-.732-.866-.957-.374-.224-.81-.336-1.308-.336h-6.948v-3.944h6.844c1.354,0,2.548.276,3.578.829,1.031.553,1.83,1.333,2.398,2.338.567,1.006.852,2.171.852,3.496s-.284,2.488-.852,3.489c-.568,1.001-1.367,1.776-2.398,2.324-1.03.548-2.224.822-3.578.822h-6.844v-3.945Z"/>
  </g>
  <g>
    <rect x="427.606" y="296.517" width="81.947" height="29.274" fill="none"/>
    <path d="M450.365,300.292h4.094v21.725h-4.094v-21.725ZM452.427,318.072h5.215c1.345,0,2.386-.324,3.123-.972s1.105-1.563,1.105-2.749v-6.395c0-1.186-.368-2.102-1.105-2.749s-1.778-.972-3.123-.972h-5.215v-3.944h5.125c1.813,0,3.359.304,4.64.911,1.279.607,2.254,1.494,2.921,2.659.667,1.166,1.001,2.57,1.001,4.214v6.156c0,1.563-.321,2.929-.964,4.094s-1.605,2.072-2.891,2.72-2.859.971-4.722.971h-5.11v-3.944Z"/>
    <path d="M470.148,300.292h5.006l8.083,16.645-.358.389v-17.033h3.914v21.71h-5.035l-8.054-16.391.359-.389v16.779h-3.915v-21.71Z"/>
  </g>
  <g>
    <rect x="445.819" y="245.349" width="81.947" height="29.274" fill="none"/>
    <path d="M460.728,249.124h4.094v21.725h-4.094v-21.725ZM462.789,266.904h5.215c1.345,0,2.386-.324,3.123-.971s1.105-1.564,1.105-2.75v-6.395c0-1.185-.368-2.102-1.105-2.749s-1.778-.971-3.123-.971h-5.215v-3.944h5.125c1.813,0,3.359.304,4.64.911,1.279.608,2.254,1.494,2.921,2.66s1.001,2.57,1.001,4.213v6.156c0,1.564-.321,2.929-.964,4.094s-1.605,2.072-2.891,2.719-2.859.971-4.722.971h-5.11v-3.944Z"/>
    <path d="M480.51,249.124h4.094v21.725h-4.094v-21.725ZM481.989,249.124h13.073v3.944h-13.073v-3.944ZM481.989,258.089h11.43v3.944h-11.43v-3.944ZM481.989,266.904h13.073v3.944h-13.073v-3.944Z"/>
    <path d="M502.586,270.759c-.992-.209-1.923-.515-2.795-.919-.871-.403-1.65-.889-2.338-1.457l1.897-3.377c.837.688,1.803,1.218,2.898,1.591s2.222.561,3.377.561c1.335,0,2.371-.227,3.107-.68.737-.454,1.106-1.093,1.106-1.92v-.015c0-.578-.165-1.036-.493-1.375-.329-.339-.757-.588-1.285-.747s-1.205-.304-2.032-.434c-.029-.01-.058-.015-.082-.015-.025,0-.052-.005-.082-.015l-.329-.045c-1.454-.229-2.659-.515-3.615-.859-.957-.344-1.769-.946-2.436-1.808-.668-.861-1.001-2.084-1.001-3.668v-.015c0-1.404.313-2.604.941-3.601.627-.996,1.538-1.756,2.733-2.279s2.64-.784,4.334-.784c.776,0,1.57.089,2.383.269.812.18,1.606.438,2.383.777.777.338,1.515.747,2.212,1.225l-1.733,3.466c-.837-.578-1.711-1.026-2.622-1.345-.912-.319-1.786-.478-2.622-.478-1.256,0-2.227.207-2.914.62-.688.413-1.031.994-1.031,1.741v.015c0,.627.18,1.123.538,1.487s.802.63,1.33.799c.527.169,1.27.349,2.226.538.04.01.08.017.12.022.04.005.079.013.119.022.06.01.117.022.172.038s.112.027.172.037c1.375.269,2.522.596,3.444.979.921.383,1.69,1.001,2.309,1.853.617.852.926,2.015.926,3.489v.03c0,1.385-.323,2.57-.971,3.556-.647.986-1.592,1.738-2.832,2.256-1.239.518-2.731.777-4.475.777-1.036,0-2.05-.104-3.04-.314Z"/>
  </g>
</svg>