<?xml version="1.0" encoding="UTF-8"?>
<svg xmlns="http://www.w3.org/2000/svg" width="2398.735" height="1166.926" viewBox="0 0 2398.735 1166.926">
  <g id="a" data-name="FTI_smol_-_Dark">
    <path d="M2036.585,521.11c-.134.321-.277.636-.418.953.142-.316.282-.634.418-.953Z" fill="#ccc"/>
    <path d="M541.469,597.579c2.894,16.247,17.67,29.167,33.673,28.864,14.143-.267,28.294-.047,42.442-.047,339.339.017,1128.665.08,1183.99-.012,20.9-.035,34.071-11.428,37.149-32.139.77-5.184.674-10.523.678-15.791.038-49.201.016-98.402-.006-147.603-.002-5.701.013-11.406-.201-17.101-.346-9.169-3.465-17.178-9.751-24.076-7.771-8.529-17.289-12.286-28.7-12.268-48.143.076-1128.831.206-1221.319-.115-20.364-.071-36.155,14.355-38.47,32.283-.511,3.959-.531,8-.534,12.003-.047,54.902-.073,109.805-.021,164.707.004,3.768.409,7.581,1.07,11.295ZM549.034,422.395c.004-4.207-.028-8.529.867-12.598,3.316-15.075,16.364-23.724,30.226-23.677,76.86.263,869.546.06,1189.027.082,10.558,0,21.117-.011,31.673.127,16.929.221,29.407,12.656,29.709,29.707.179,10.132.038,20.271.036,30.406-.006,46.244.06,92.487-.126,138.73-.02,4.958-.87,10.128-2.456,14.821-3.619,10.71-15.139,17.861-26.585,17.829-76.65-.216-153.3-.104-229.95-.103-127.328.002-254.656,0-381.984,0v.021c-200.177,0-400.354,0-600.531,0-3.378,0-6.783-.289-10.131.029-13.313,1.267-28.829-9.511-29.658-28.138-.103-2.319-.128-4.644-.129-6.966-.013-53.423-.036-106.846.011-160.269Z" fill="#ccc"/>
    <path d="M1785.146,686.49c-1.257-.29-2.083-2.455-3.335-4.07l-.804-1.656c-.951-1.585-2.198-2.718-2.029-3.568.428-2.156-.285-3.626-1.591-5.148-20.185-23.521-45.474-33.319-75.881-26.349-36.239,8.307-61.204,42.513-55.3,84.761,2.197,15.724,9.519,29.134,20.017,40.931,22.506,25.288,58.78,33.037,88.321,18.328,36.035-17.942,51.494-60.624,34.687-98.904-.829-1.889-1.474-3.724-4.086-4.325ZM1718.389,784.353c-35.25-.345-65.084-31.295-64.051-65.795-1.173-34.762,28.859-65.639,63.8-65.973,35.191-.336,64.952,29.956,65.289,64.749.383,39.554-32.882,67.333-65.038,67.019Z" fill="#ccc"/>
    <path d="M1121.551,654.13c-24.244-14.476-49.651-14.717-74.014-.89-24.701,14.019-36.596,36.414-37.03,64.841.23,4.256.006,8.544.758,12.654,4.84,26.454,19.574,45.984,43.126,58.394,27.242,14.354,64.21,8.921,85.484-14.435,19.422-21.323,25.468-45.492,18.178-73.128-5.504-20.864-18.309-36.573-36.503-47.437ZM1081.478,784.295c-33.95-1.309-63.624-31.806-62.266-68.338,1.267-34.059,30.569-65.239,68.503-63.245,30.696,1.613,61.666,29.878,60.458,65.978.76,36.437-31.157,66.976-66.695,65.605Z" fill="#ccc"/>
    <path d="M1322.972,648.991c-24.058-9.667-47.896-7.47-69.203,7.73-23.305,16.625-32.877,40.005-31.278,68.584,1.844,32.964,33.237,72.206,78.998,71.766,7.802-.513,16.926-1.767,25.638-5.413,33.949-14.209,53.271-51.795,43.125-89.208-6.872-25.343-22.956-43.686-47.281-53.46ZM1299.164,784.157c-37.586,2.01-67.787-28.525-68.367-65.305.516-37.739,30.209-64.355,60.674-66.087,40.964-2.328,67.682,31.855,68.811,62.088,1.433,38.387-27.677,67.516-61.118,69.304Z" fill="#ccc"/>
    <path d="M872.932,643.544c-21.546-.033-40.205,7.497-54.751,23.532-13.126,14.469-19.678,31.768-19.447,53.189.087,1.864.007,5.479.458,9.027,4.222,33.203,35.653,63.882,67.423,67.213,34.615,3.63,67.318-15.572,78.751-50.214,17.131-51.904-24.511-102.674-72.434-102.747ZM936.892,718.466c-.868,38.618-30.901,65.79-65.062,65.758-35.302-.033-64.578-30.251-64.489-66.127.086-34.586,29.387-66.758,65.177-65.148,35.211.101,65.176,29.906,64.375,65.517Z" fill="#ccc"/>
    <path d="M1559.707,665.894c-19.61-19.73-43.156-26.201-69.615-20.188-42.645,9.69-65.71,54.622-52.895,95.744,4.405,14.135,12.625,25.599,23.426,35.466,20.959,19.147,45.316,24.972,72.199,16.591,32.167-10.029,51.678-38.21,51.815-71.994-.694-5.429-1.067-10.922-2.144-16.273-3.149-15.644-11.63-28.121-22.786-39.345ZM1509.678,784.24c-37.33,1.144-66.55-29.93-67.171-64.168-.675-37.203,29.423-67.859,63.846-67.236,34.884-1.667,65.502,29.578,65.675,64.883.186,37.947-30.976,65.56-62.351,66.522Z" fill="#ccc"/>
    <path d="M711.618,664.606c-20.153-19.84-51.595-26.426-78.046-16.2-29.655,11.464-47.641,41.712-47.134,69.754.573,5.018.879,10.083,1.767,15.045,3.053,17.063,11.896,30.784,24.321,42.65,19.83,18.938,43.132,25.034,69.461,18.833,35.455-8.35,60.95-43.9,54.316-85.482-2.836-17.774-11.95-32.063-24.685-44.6ZM660.599,784.124c-36.159.604-65.187-30.785-65.177-65.476.011-36.821,31.178-67.46,67.249-66.019,28.925,1.155,62.175,25.334,62.243,65.245.072,42.567-34.231,66.627-64.315,66.25Z" fill="#ccc"/>
    <path d="M566.163,585.193c.001,1.897-.034,3.824.264,5.685.953,5.938,4.18,8.794,10.288,9.052,4.006.17,8.023.106,12.035.106,200.183.004,400.367.003,600.55.003v-.03c198.494,0,396.988,0,595.483-.001,5.701,0,11.405.078,17.104-.06,7.579-.184,10.626-3.083,11.442-10.648.158-1.465.179-2.95.18-4.426.011-54.48.016-108.96.003-163.441,0-2.532.018-5.087-.298-7.59-.714-5.653-4.931-9.545-10.567-9.894-2.104-.13-4.222-.046-6.334-.046-396.144.011-792.288.023-1188.432.034-9.714,0-19.428-.076-29.14.002-7.268.058-11.361,3.649-12.31,10.859-.384,2.916-.335,5.901-.335,8.854.005,53.847.031,107.693.067,161.54Z" fill="none" stroke="#ccc" stroke-miterlimit="10" stroke-width="10"/>
    <path d="M1718.505,662.74c-34.411,1.543-54.129,27.25-54.143,55.429-.014,29.403,20.445,55.661,54.958,55.567,31.078-.085,54.222-23.951,53.731-56.036-.506-33.132-25.133-54.254-54.546-54.96ZM1718.274,766.985c-28.519-.289-46.839-23.37-47.484-48.726,1.28-28.266,22.26-48.79,48.456-48.485,26.2.305,47.573,20.96,47.23,48.791-.353,28.648-21.368,48.693-48.202,48.421Z" fill="#ccc"/>
    <path d="M1083.389,663.016c-33.63.484-53.277,25.887-54.022,55.386.526,29.848,21.14,55.374,54.613,55.26,33.6-.114,54.491-25.456,54.237-55.552-.267-31.634-23.109-55.551-54.828-55.095ZM1084.057,766.96c-28.358.17-47.818-21.682-47.998-48.649-.171-25.724,19.509-47.565,47.548-48.801,24.858.906,47.954,18.86,47.991,48.33.037,28.947-20.364,48.957-47.542,49.12Z" fill="#ccc"/>
    <path d="M1295.652,662.955c-29.332-.028-53.951,21.986-54.39,55.728.411,30.676,23.178,55.214,54.341,55.119,30.898-.094,54.75-23.376,54.323-55.7-.456-34.488-25.4-55.119-54.273-55.147ZM1296.327,767.033c-27.401.29-48.105-20.718-48.461-48.229-.337-26.064,19.007-47.607,47.047-49.155,23.567-.079,48.052,17.938,48.478,48.324.372,26.56-20.245,48.777-47.064,49.06Z" fill="#ccc"/>
    <path d="M873.476,662.951c-26.553-.908-54.604,17.297-55.801,54.282-.971,30.012,20.554,55.703,53.523,56.568,27.889.732,53.769-19.858,55.206-54.249.115-29.936-20.464-55.492-52.928-56.602ZM871.73,767.066c-28.799-.062-47.992-25.149-47.564-49.273.828-27.293,23.098-49.505,49.394-48.03,28.131,1.579,46.67,23.597,46.181,49.234-.521,27.298-20.792,48.127-48.011,48.068Z" fill="#ccc"/>
    <path d="M1540.873,674.924c-17.538-13.945-37.052-16.075-57.026-6.617-28.354,13.426-37.844,46.701-26.038,73.288,13.142,29.596,48.047,41.113,76.075,25.053,18.474-10.585,27.025-27.088,27.561-45.621-.071-20.222-6.634-35.02-20.573-46.104ZM1506.79,767.059c-26.811-.215-47.455-22.063-47.366-50.019.068-21.582,19.021-47.446,48.165-47.395,25.557.045,47.485,22.718,47.244,48.83.381,24.358-19.119,48.817-48.043,48.584Z" fill="#ccc"/>
    <path d="M660.784,662.905c-36.62-.09-56.268,31.16-54.494,54.568-2.022,27.434,20.071,56.346,53.991,56.361,29.817.014,54.219-23.555,54.244-56.43.018-24.998-20.446-54.418-53.741-54.499ZM659.753,766.995c-27.881.039-47.999-24.799-47.079-48.114-1.299-22.586,18.426-49.417,48.023-49.25,25.32.142,47.294,22.665,47.291,48.295-.002,25.017-18.484,49.028-48.235,49.069Z" fill="#ccc"/>
    <path d="M1718.966,678.08c-21.612-.2-39.528,17.95-39.624,40.143.307,21.253,14.403,39.728,39.202,40.281,22.164.494,39.432-17.343,39.681-39.876.243-22.003-17.517-40.347-39.258-40.548ZM1718.603,751.842c-17.282.109-32.67-15.623-32.72-33.063-.052-17.899,15.247-33.807,32.738-33.667,19.625.157,32.747,16.398,32.941,32.737.222,18.647-14.408,33.876-32.959,33.993Z" fill="#ccc"/>
    <path d="M1083.706,678.146c-21.351.239-38.875,17.193-39.277,39.807-.065,20.685,13.99,40.518,39.555,40.44,25.284-.077,39.064-19.317,39.258-40.091.206-21.977-17.69-40.401-39.536-40.156ZM1083.99,751.756c-18.583-.125-32.315-13.866-32.929-33.291-.543-17.176,15.218-33.287,32.319-33.509,16.946-.219,33.902,15.812,33.383,32.587-.66,21.327-15.454,34.33-32.772,34.213Z" fill="#ccc"/>
    <path d="M1295.648,678.199c-21.565-.507-39.27,17.954-39.249,40.261-.727,17.483,12.754,39.792,39.293,40.129,21.9.279,40.016-18.171,39.295-40.827-.794-24.93-18.609-39.076-39.339-39.563ZM1295.273,751.907c-17.739-.317-32.958-16.554-32.52-34.696.416-17.227,16.498-32.774,33.603-32.146,16.838.618,31.763,13.826,32.102,33.549.306,17.764-15.977,33.601-33.186,33.293Z" fill="#ccc"/>
    <path d="M873.481,678.245c-22.095-.12-40.134,13.873-40.78,39.28-.611,24.038,15.974,40.363,38.378,40.903,24.476.59,39.829-18.406,40.283-39.773.551-21.097-16.977-40.296-37.88-40.41ZM872.29,751.709c-20.22-.193-32.349-14.914-33.012-33.193-.654-18.04,15.126-33.539,32.741-33.476,16.798.06,33.232,15.77,32.863,32.294-.405,18.124-12.777,34.564-32.592,34.375Z" fill="#ccc"/>
    <path d="M1507.711,678.203c-25.678.105-40.741,21.224-39.459,40.443-.409,23.926,17.729,39.677,38.7,39.874,22.186.208,40.044-17.778,39.361-41.369-.628-21.689-17.524-39.034-38.601-38.948ZM1507.061,751.792c-18.09-.139-33.056-15.876-32.438-33.73.054-17.951,14.747-32.963,32.364-33.067,17.492-.103,32.808,15.245,32.907,32.688.108,19.168-15.244,34.243-32.833,34.109Z" fill="#ccc"/>
    <path d="M660.124,678.239c-23.337-.101-40.062,19.505-38.707,39.741-1.435,20.93,14.495,40.182,38.541,40.553,23.228.357,39.754-19.381,39.471-40.686-.246-18.493-14.098-39.499-39.305-39.608ZM660.215,751.873c-17.787-.218-32.587-15.296-32.396-33.004-.901-17.036,13.445-33.915,32.695-33.931,16.866-.014,32.439,15.758,32.346,32.621-.104,18.829-15.042,34.53-32.646,34.314Z" fill="#ccc"/>
  </g>
  <g id="b" data-name="BOOT_Menu_-_Dark">
    <g>
      <rect x="566.431" y="422.147" width="1246.51" height="65.016" fill="none"/>
      <path d="M632.835,469.995c1.434-1.082,2.673-2.454,3.792-4.246l4.005,2.503c-1.419,2.271-3.079,4.102-5.072,5.599-1.665,1.115-3.733,2.149-5.78,2.919-2.328.776-4.456,1.096-7.207,1.096-2.923,0-5.211-.348-7.205-1.094-2.049-.683-3.917-1.655-5.974-3.124-2.045-1.272-3.813-3.234-4.989-5.589-1.091-2.177-1.667-4.666-1.667-7.194v-25.738c0-2.987.961-5.315,1.901-7.195,1.53-2.468,3.188-4.297,5.183-5.792,1.66-1.112,3.729-2.148,5.78-2.919,2.319-.774,4.449-1.093,7.204-1.093,2.926,0,5.214.35,7.205,1.096,2.047.68,3.915,1.65,5.974,3.121,2.219,1.667,3.884,3.615,4.989,5.825l-4.225,2.114c-.774-1.552-1.969-2.94-3.554-4.128-1.636-1.169-3.074-1.92-4.76-2.481-1.528-.571-3.289-.824-5.629-.824-2.246,0-3.877.238-5.629.824-1.646.618-3.362,1.476-4.63,2.321-1.433,1.079-2.673,2.453-3.794,4.245-.732,1.49-1.294,2.999-1.294,4.888v25.736c0,1.799.404,3.556,1.167,5.081.8,1.601,1.941,2.871,3.391,3.778,1.802,1.282,3.237,2.035,4.926,2.597,1.528.572,3.292.824,5.629.824,2.241,0,3.873-.238,5.629-.824,1.641-.616,3.36-1.476,4.63-2.32l.004-.005Z" fill="#ccc" stroke="#ccc" stroke-miterlimit="10" stroke-width="2"/>
      <path d="M686.975,454.727c1.025,2.03,1.519,4.028,1.519,5.936,0,5.087-1.866,9.264-5.549,12.418-3.44,3.179-7.792,4.819-12.869,4.819h-.472c-4.787,0-9.197-1.702-13.108-5.055-3.055-2.586-3.95-4.869-4.6-6.536-.097-.243-.187-.478-.283-.701l4.34-1.863c.116.269.227.55.342.843.545,1.396,1.11,2.838,3.266,4.661,3.086,2.649,6.369,3.93,10.045,3.93h.473c3.905,0,7.091-1.186,9.73-3.625,2.728-2.338,3.965-5.143,3.965-8.891,0-1.161-.331-2.465-.933-3.667-.517-.848-1.268-1.967-2.267-2.633-1.147-.906-2.621-1.757-4.106-2.392-.964-.413-2.047-.746-3.304-1.131-.696-.215-1.424-.439-2.179-.689l-6.945-1.85c-3.743-1.149-6.441-2.881-8.338-5.317-2.057-2.643-3.098-5.75-3.098-9.242,0-4.318,1.792-8.023,5.322-11.013,3.355-3.099,7.164-4.574,11.917-4.574h.47c4.774.276,8.76,1.913,11.986,4.869,2.451,2.177,3.934,4.781,4.505,7.932l-4.649.841c-.385-2.128-1.315-3.752-3.02-5.269-2.43-2.227-5.438-3.449-8.961-3.657l-.333.005c-3.54,0-6.253,1.046-8.789,3.389-2.534,2.148-3.729,4.571-3.729,7.476,0,2.418.708,4.55,2.102,6.342,1.298,1.67,3.178,2.839,5.915,3.682l6.999,1.865c.857.278,1.547.491,2.208.694,1.332.408,2.585.793,3.783,1.306,1.882.806,3.714,1.87,5.032,2.924,1.61,1.064,2.744,2.715,3.618,4.172l-.005.003Z" fill="#ccc" stroke="#ccc" stroke-miterlimit="10" stroke-width="2"/>
      <path d="M699.169,445.177c0-2.738,2.114-4.958,4.723-4.958s4.723,2.22,4.723,4.958-2.115,4.959-4.723,4.959-4.723-2.22-4.723-4.959ZM699.169,472.804c0-2.738,2.114-4.958,4.723-4.958s4.723,2.22,4.723,4.958-2.115,4.959-4.723,4.959-4.723-2.22-4.723-4.959Z" fill="#ccc" stroke="#ccc" stroke-miterlimit="10" stroke-width="2"/>
      <path d="M755.151,473.648v4.723h-35.892v-57.38h4.723v52.657h31.169Z" fill="#ccc" stroke="#ccc" stroke-miterlimit="10" stroke-width="2"/>
      <path d="M801.009,428.434c1.088,2.184,1.665,4.673,1.665,7.197v25.737c0,2.526-.576,5.016-1.665,7.195-1.025,2.05-2.569,3.967-4.59,5.697-1.807,1.507-3.748,2.529-5.792,3.062-1.865.681-3.877,1.025-6.135,1.047h-.236c-2.524-.02-4.539-.359-6.496-1.094-2.134-.803-4.031-1.889-5.644-3.232-2.047-1.755-3.591-3.672-4.614-5.717-1.091-2.18-1.667-4.668-1.667-7.195v-25.737c0-2.526.579-5.016,1.667-7.195,1.022-2.05,2.569-3.965,4.59-5.697,1.804-1.505,3.745-2.527,5.79-3.061,1.924-.704,4.012-1.049,6.371-1.049,2.534,0,4.8.369,6.734,1.096,2.13.799,4.026,1.887,5.641,3.23,1.794,1.537,3.218,3.402,4.378,5.715h.002ZM797.946,461.367v-25.738c0-1.795-.404-3.554-1.167-5.084-.883-1.764-1.899-3.104-3.202-4.222-1.181-.982-2.621-1.802-4.25-2.413-1.386-.52-3.138-.794-5.074-.794-1.858,0-3.398.253-4.838.794l-.257.08c-1.398.35-2.749,1.062-4.017,2.12-1.516,1.299-2.675,2.721-3.414,4.201-.765,1.53-1.169,3.287-1.169,5.084v25.735c0,1.797.406,3.557,1.169,5.084.736,1.479,1.896,2.899,3.438,4.222,1.181.982,2.621,1.802,4.252,2.416,1.436.538,2.966.784,4.949.793,1.807-.009,3.308-.262,4.728-.793l.255-.08c1.398-.35,2.751-1.062,4.021-2.121,1.514-1.299,2.673-2.72,3.412-4.2.763-1.525,1.167-3.285,1.167-5.082l-.002-.002Z" fill="#ccc" stroke="#ccc" stroke-miterlimit="10" stroke-width="2"/>
      <path d="M843.409,469.995c1.434-1.082,2.673-2.454,3.792-4.246l4.005,2.503c-1.419,2.271-3.079,4.102-5.072,5.599-1.665,1.115-3.733,2.149-5.78,2.919-2.328.776-4.456,1.096-7.207,1.096-2.923,0-5.211-.348-7.205-1.094-2.049-.683-3.917-1.655-5.974-3.124-2.045-1.272-3.813-3.234-4.989-5.589-1.091-2.177-1.667-4.666-1.667-7.194v-25.738c0-2.987.961-5.315,1.901-7.195,1.53-2.468,3.188-4.297,5.183-5.792,1.66-1.112,3.729-2.148,5.78-2.919,2.319-.774,4.449-1.093,7.204-1.093,2.926,0,5.214.35,7.205,1.096,2.047.68,3.915,1.65,5.974,3.121,2.219,1.667,3.884,3.615,4.989,5.825l-4.225,2.114c-.774-1.552-1.969-2.94-3.554-4.128-1.636-1.169-3.074-1.92-4.76-2.481-1.528-.571-3.289-.824-5.629-.824-2.246,0-3.877.238-5.629.824-1.646.618-3.363,1.476-4.631,2.321-1.433,1.079-2.673,2.453-3.794,4.245-.732,1.49-1.294,2.999-1.294,4.888v25.736c0,1.799.404,3.556,1.167,5.081.8,1.601,1.941,2.871,3.391,3.778,1.802,1.282,3.237,2.035,4.926,2.597,1.528.572,3.292.824,5.629.824,2.241,0,3.873-.238,5.629-.824,1.641-.616,3.36-1.476,4.63-2.32l.004-.005Z" fill="#ccc" stroke="#ccc" stroke-miterlimit="10" stroke-width="2"/>
      <path d="M1055.924,420.746v12.895l-37.143,44.721h-6.541v-57.615h4.722v52.41l34.239-41.224v-11.187h4.723Z" fill="#ccc" stroke="#ccc" stroke-miterlimit="10" stroke-width="2"/>
      <path d="M1103.678,424.375l-16.293,21.96v31.807h-4.722v-31.815l-16.057-21.959v-1.243h3.008l1.261-.921,14.163,19.371,14.383-19.386,1.259.936h2.999v1.251Z" fill="#ccc" stroke="#ccc" stroke-miterlimit="10" stroke-width="2"/>
      <path d="M1130.947,473.585v4.723h-15.112v-4.723h5.195v-48.461l-3.69,3.056-3.011-3.639,7.502-6.208h3.922v55.252h5.195Z" fill="#ccc" stroke="#ccc" stroke-miterlimit="10" stroke-width="2"/>
      <path d="M1158.253,473.585v4.723h-15.112v-4.723h5.195v-48.461l-3.69,3.056-3.011-3.639,7.502-6.208h3.922v55.252h5.195Z" fill="#ccc" stroke="#ccc" stroke-miterlimit="10" stroke-width="2"/>
      <path d="M1429.391,454.727c1.025,2.03,1.519,4.028,1.519,5.936,0,5.087-1.865,9.264-5.549,12.418-3.44,3.179-7.793,4.819-12.869,4.819h-.473c-4.786,0-9.197-1.702-13.107-5.055-3.056-2.586-3.95-4.869-4.6-6.536-.097-.243-.187-.478-.283-.701l4.34-1.863c.116.269.227.55.343.843.545,1.396,1.109,2.838,3.266,4.661,3.086,2.649,6.368,3.93,10.045,3.93h.472c3.906,0,7.091-1.186,9.731-3.625,2.727-2.338,3.964-5.143,3.964-8.891,0-1.161-.33-2.465-.933-3.667-.517-.848-1.268-1.967-2.267-2.633-1.147-.906-2.621-1.757-4.106-2.392-.963-.413-2.047-.746-3.303-1.131-.697-.215-1.424-.439-2.18-.689l-6.944-1.85c-3.743-1.149-6.442-2.881-8.338-5.317-2.057-2.643-3.099-5.75-3.099-9.242,0-4.318,1.793-8.023,5.322-11.013,3.355-3.099,7.165-4.574,11.918-4.574h.47c4.774.276,8.761,1.913,11.986,4.869,2.45,2.177,3.934,4.781,4.505,7.932l-4.649.841c-.385-2.128-1.315-3.752-3.02-5.269-2.431-2.227-5.438-3.449-8.962-3.657l-.333.005c-3.539,0-6.252,1.046-8.788,3.389-2.534,2.148-3.729,4.571-3.729,7.476,0,2.418.708,4.55,2.102,6.342,1.299,1.67,3.178,2.839,5.915,3.682l6.999,1.865c.856.278,1.546.491,2.207.694,1.332.408,2.586.793,3.783,1.306,1.882.806,3.714,1.87,5.032,2.924,1.61,1.064,2.743,2.715,3.617,4.172l-.005.003Z" fill="#ccc" stroke="#ccc" stroke-miterlimit="10" stroke-width="2"/>
      <path d="M1478.422,420.438v57.665h-4.686l-27.429-48.583v48.543h-4.723v-57.379h5.157l26.957,47.745v-47.991h4.723Z" fill="#ccc" stroke="#ccc" stroke-miterlimit="10" stroke-width="2"/>
      <path d="M1525.899,440.087v16.293c0,3.232-.551,6.312-1.587,8.904-.985,2.718-2.52,5.152-4.534,7.169-1.522,1.785-3.474,3.188-5.684,4.038-2.177,1.071-4.401,1.612-6.613,1.612h-18.419v-59.977h18.419c2.441,0,4.718.543,6.958,1.665,2.316,1.159,4.178,2.583,5.698,4.354,1.506,1.5,2.873,3.776,4.177,7.037,1.074,2.951,1.585,5.842,1.585,8.904ZM1521.177,440.087c0-2.536-.406-4.831-1.275-7.221-1.032-2.576-2.066-4.35-3.23-5.514-1.239-1.436-2.581-2.453-4.345-3.337-1.592-.796-3.131-1.166-4.845-1.166h-13.696v50.531h13.696c1.511,0,3.062-.395,4.611-1.169l.227-.099c1.525-.569,2.831-1.509,3.995-2.867,1.646-1.657,2.81-3.511,3.587-5.646.831-2.08,1.275-4.619,1.275-7.221v-16.293Z" fill="#ccc" stroke="#ccc" stroke-miterlimit="10" stroke-width="2"/>
      <path d="M1680.263,420.746v12.895l-37.143,44.721h-6.541v-57.615h4.723v52.41l34.239-41.224v-11.187h4.722Z" fill="#ccc" stroke="#ccc" stroke-miterlimit="10" stroke-width="2"/>
      <path d="M1728.017,424.375l-16.294,21.96v31.807h-4.723v-31.815l-16.057-21.959v-1.243h3.009l1.261-.921,14.163,19.371,14.383-19.386,1.259.936h2.999v1.251Z" fill="#ccc" stroke="#ccc" stroke-miterlimit="10" stroke-width="2"/>
      <path d="M1755.286,473.585v4.723h-15.112v-4.723h5.195v-48.461l-3.691,3.056-3.011-3.639,7.502-6.208h3.923v55.252h5.194Z" fill="#ccc" stroke="#ccc" stroke-miterlimit="10" stroke-width="2"/>
      <path d="M1772.434,473.821h29.195v4.722h-35.655v-4.706l6.207-6.774c3.254-3.624,6.239-6.946,9.072-9.969,1.407-1.407,2.817-3.054,4.18-4.645,1.424-1.66,7.112-8.062,7.112-8.062.645-.649,1.008-1.107,1.251-1.41.145-.182.268-.328.369-.441.691-.881,1.272-1.995,1.684-3.228.39-1.169.588-2.104.588-3.977,0-1.608-.333-3.202-.989-4.737-.598-1.584-1.55-2.727-2.806-3.983-1.434-1.181-2.791-2.03-4.118-2.526-3.797-1.424-6.354-1.422-10.146,0-1.737.651-3.046,1.455-4.12,2.529-1.24,1.239-2.236,2.654-2.806,3.983l-4.34-1.861c.812-1.896,2.13-3.784,3.807-5.461,1.549-1.547,3.445-2.728,5.802-3.61,4.831-1.818,8.621-1.818,13.464,0,2.416.906,4.375,2.413,5.641,3.466,1.55,1.537,3.099,3.289,4.005,5.707.872,2.024,1.332,4.244,1.332,6.496,0,2.484-.318,3.935-.831,5.472-.593,1.78-1.467,3.421-2.521,4.741l-.324.385c-.316.396-.791.989-1.504,1.7.005,0-5.561,6.262-6.961,7.896-1.422,1.657-2.891,3.371-4.373,4.854-2.761,2.944-5.722,6.243-8.952,9.84l-3.258,3.601-.003-.002Z" fill="#ccc" stroke="#ccc" stroke-miterlimit="10" stroke-width="2"/>
    </g>
    <g>
      <rect x="566.383" y="508.062" width="1246.51" height="65.016" fill="none"/>
      <path d="M639.465,518.878c1.088,2.184,1.665,4.673,1.665,7.197v25.737c0,2.526-.576,5.016-1.665,7.195-1.025,2.05-2.569,3.967-4.59,5.697-1.807,1.507-3.748,2.529-5.792,3.062-1.865.681-3.877,1.025-6.135,1.047h-.236c-2.524-.02-4.539-.359-6.496-1.094-2.134-.803-4.031-1.889-5.644-3.232-2.047-1.755-3.591-3.672-4.614-5.717-1.091-2.18-1.667-4.668-1.667-7.195v-25.737c0-2.526.579-5.016,1.667-7.195,1.022-2.05,2.569-3.965,4.59-5.697,1.804-1.505,3.745-2.527,5.79-3.061,1.924-.704,4.012-1.049,6.371-1.049,2.534,0,4.8.369,6.734,1.096,2.13.799,4.026,1.887,5.641,3.23,1.794,1.537,3.218,3.402,4.378,5.715h.002ZM636.402,551.81v-25.738c0-1.795-.404-3.554-1.167-5.084-.883-1.764-1.899-3.104-3.202-4.222-1.181-.982-2.621-1.802-4.25-2.413-1.386-.52-3.138-.794-5.074-.794-1.858,0-3.398.253-4.838.794l-.257.08c-1.398.35-2.749,1.062-4.017,2.12-1.516,1.299-2.675,2.721-3.414,4.201-.765,1.53-1.169,3.287-1.169,5.084v25.735c0,1.797.406,3.557,1.169,5.084.736,1.479,1.896,2.899,3.438,4.222,1.181.982,2.621,1.802,4.252,2.416,1.436.538,2.966.784,4.949.793,1.807-.009,3.308-.262,4.728-.793l.255-.08c1.398-.35,2.751-1.062,4.021-2.121,1.514-1.299,2.673-2.72,3.412-4.2.763-1.525,1.167-3.285,1.167-5.082l-.002-.002Z" fill="#ccc" stroke="#ccc" stroke-miterlimit="10" stroke-width="2"/>
      <path d="M680.104,567.353v1.485h-3.325l-.938.692-14.084-19.132-5.266,5.672v12.531h-4.722v-55.018h4.722v35.544l17.396-18.734.713.664h3.378v1.872l-12.951,13.948,15.077,20.475Z" fill="#ccc" stroke="#ccc" stroke-miterlimit="10" stroke-width="2"/>
      <path d="M1220.718,513.529v19.362h17.002v4.723h-17.002v26.21h30.934v4.723h-35.656v-59.74h35.656v4.723h-30.934Z" fill="#ccc" stroke="#ccc" stroke-miterlimit="10" stroke-width="2"/>
      <path d="M1292.31,532.51l-12.11,17.319,12.11,17.32v1.452h-3.372l-.923.645-10.697-15.296-10.696,15.296-.923-.645h-3.375v-1.452l12.113-17.32-12.113-17.319v-1.452h3.375l.923-.646,10.696,15.297,10.697-15.297.923.646h3.372v1.452Z" fill="#ccc" stroke="#ccc" stroke-miterlimit="10" stroke-width="2"/>
      <path d="M1314.803,535.761v22.195c0,1.861.435,3.587,1.107,4.393.791.923,2.866,1.511,4.324,1.511,1.422,0,2.939-.555,2.956-.56l.394-.148h1.136v4.245l.123.326c-.023.009-.066.023-.123.045v.105h-.316c-.776.251-2.434.709-4.172.709-2.588,0-6.045-.985-7.931-3.186-2.006-2.408-2.221-6.004-2.221-7.44v-22.195h-7.084v-4.724h7.084v-10.39h4.723v10.39h10.626v4.724h-10.626Z" fill="#ccc" stroke="#ccc" stroke-miterlimit="10" stroke-width="2"/>
      <path d="M1523.018,510.881v57.665h-4.686l-27.429-48.583v48.543h-4.723v-57.379h5.157l26.957,47.745v-47.991h4.723Z" fill="#ccc" stroke="#ccc" stroke-miterlimit="10" stroke-width="2"/>
      <path d="M1533.659,520.432c0-2.738,2.114-4.959,4.723-4.959s4.723,2.221,4.723,4.959-2.114,4.959-4.723,4.959-4.723-2.221-4.723-4.959ZM1536.021,568.602v-37.544h4.723v37.544h-4.723Z" fill="#ccc" stroke="#ccc" stroke-miterlimit="10" stroke-width="2"/>
      <path d="M1565.556,535.761v22.195c0,1.861.435,3.587,1.107,4.393.791.923,2.866,1.511,4.324,1.511,1.422,0,2.939-.555,2.956-.56l.394-.148h1.136v4.245l.123.326c-.023.009-.066.023-.123.045v.105h-.316c-.776.251-2.434.709-4.172.709-2.588,0-6.045-.985-7.931-3.186-2.005-2.408-2.22-6.004-2.22-7.44v-22.195h-7.085v-4.724h7.085v-10.39h4.722v10.39h10.626v4.724h-10.626Z" fill="#ccc" stroke="#ccc" stroke-miterlimit="10" stroke-width="2"/>
      <path d="M1619.698,550.145h-28.09c.27,8.593,5.429,13.695,13.922,13.695,4.251,0,7.278-.759,8.784-1.247,1.421-.701,2.188-.965,2.274-.994l.748,2.241.761,2.236c-.088.03-.697.255-1.83.821l-.308.127c-2.104.702-5.619,1.538-10.43,1.538-11.331,0-18.654-7.509-18.654-19.127,0-12.715,6.621-20.307,17.71-20.307,12.423,0,15.112,14.954,15.112,18.654v2.361ZM1614.692,545.423c-.779-4.14-3.371-11.57-10.106-11.57-8.754,0-11.868,5.637-12.718,11.57h22.824Z" fill="#ccc" stroke="#ccc" stroke-miterlimit="10" stroke-width="2"/>
      <path d="M1692.182,530.53v16.293c0,3.232-.551,6.312-1.587,8.904-.985,2.718-2.52,5.152-4.534,7.169-1.522,1.785-3.474,3.188-5.684,4.038-2.177,1.071-4.401,1.612-6.614,1.612h-18.418v-59.977h18.418c2.442,0,4.719.543,6.959,1.665,2.316,1.159,4.178,2.583,5.698,4.354,1.506,1.5,2.873,3.776,4.177,7.037,1.074,2.951,1.585,5.842,1.585,8.904ZM1687.46,530.53c0-2.536-.406-4.831-1.275-7.221-1.032-2.576-2.066-4.35-3.23-5.514-1.239-1.436-2.581-2.453-4.345-3.337-1.592-.796-3.131-1.166-4.846-1.166h-13.695v50.531h13.695c1.512,0,3.063-.395,4.612-1.169l.227-.099c1.525-.569,2.831-1.509,3.995-2.867,1.646-1.657,2.81-3.511,3.587-5.646.831-2.08,1.275-4.619,1.275-7.221v-16.293Z" fill="#ccc" stroke="#ccc" stroke-miterlimit="10" stroke-width="2"/>
      <path d="M1732.159,566.709h-4.722v-.144c-.258-.481-.44-.973-.556-1.879-2.1,2.035-4.736,3.372-7.794,3.882-.574.065-1.134.099-1.687.099-2.37,0-4.635-.606-7.492-1.938-1.334-.659-4.399-2.179-6.104-5.872-1.547-3.71-.864-7.192-.619-8.175,1.039-5.75,5.45-8.644,7.11-9.731l.245-.16c.64-.484,1.346-.811,1.915-1.072.248-.113.484-.21.685-.345l.461-.24c3.249-1.25,7.447-1.861,12.774-1.854-.326-1.629-1.297-2.986-1.557-3.246l-.172-.193c-1.377-1.723-3.112-2.293-3.764-2.508-1.783-.487-3.615-.478-5.923.032-1.887.378-3.454.914-4.713,1.344l-.72.246c-.393.158-.806.368-1.169.55-.524.264-.978.481-1.429.631l-1.494-4.479c.257-.086.51-.225.81-.373.465-.231.994-.496,1.657-.761l.816-.281c1.392-.475,3.12-1.065,5.264-1.495,1.873-.413,4.814-.875,8.169.038,1.114.364,3.867,1.271,6.107,4.02.945,1.003,2.647,3.559,2.942,6.781l.005,1.867h.005c0,.163.015.501.033.977.115,2.887.18,6.016.065,8.972.01.582.019,1.192.031,1.76.054,2.819.105,5.459.105,7.892,0,2.635.133,3.221.158,3.312.18.303.391.725.518,1.492l.033.862.002-.008ZM1718.44,563.897c2.849-.479,5.164-2.021,6.758-4.571.504-.776,1.188-2.792,1.391-8.045-.042-2.323-.078-4.742-.087-7.278-4.593-.102-8.328.48-11.004,1.465-.327.196-.685.365-1.064.54-.439.204-.822.378-1.166.639l-.383.256c-1.422.931-4.376,2.87-5.087,6.775-.099.422-.668,2.886.329,5.282.973,2.1,2.812,3.011,3.697,3.45,3.209,1.499,4.899,1.674,6.614,1.487h.002Z" fill="#ccc" stroke="#ccc" stroke-miterlimit="10" stroke-width="2"/>
      <path d="M1770.606,531.055h4.35v1.117l-.137.385c-.454,1.272-11.124,31.24-12.073,33.615-.468,1.159-2.183,5.219-4.772,8.776-2.233,3.075-4.954,6.433-8.172,8.043-2.914,1.452-4.87,2.191-4.95,2.222l-1.662-4.42c.019-.007,1.828-.691,4.499-2.025,2.323-1.162,4.675-4.135,6.465-6.596.861-1.186,1.658-2.523,2.356-3.83l-13.67-36.146v-1.138h4.234l.338-.128,11.799,31.194c2.177-5.969,7.782-21.673,11.021-30.767l.106-.3c.011-.031.021-.058.03-.085l.238.085v-.003Z" fill="#ccc" stroke="#ccc" stroke-miterlimit="10" stroke-width="2"/>
    </g>
  </g>
  <g id="c" data-name="Arrows_BOOT_Menu_-_Dark">
    <path d="M931.528,291.15l-12.391,15.41-216.694-173.009c14.397-27.184,12.772-61.434-7.01-87.512-27.163-35.811-78.396-42.846-114.206-15.683-35.811,27.163-42.846,78.396-15.683,114.207,27.163,35.81,78.396,42.845,114.206,15.682,5.92-4.491,11.037-9.65,15.359-15.278l215.554,172.131-12.391,15.41,104.606,50.061-71.351-91.42ZM672.405,150.561c-30.52,23.15-74.027,17.176-97.177-13.344-23.15-30.52-17.176-74.027,13.344-97.177,30.52-23.15,74.027-17.176,97.177,13.344,23.15,30.52,17.176,74.027-13.344,97.177Z" fill="#ccc" stroke="#161923" stroke-miterlimit="10" stroke-width="4"/>
    <path d="M1718.635,382.569l104.606-50.061-12.391-15.41,215.554-172.131c4.323,5.628,9.439,10.787,15.359,15.278,35.811,27.163,87.044,20.128,114.206-15.682,27.163-35.811,20.128-87.044-15.683-114.207-35.81-27.163-87.043-20.127-114.206,15.683-19.781,26.078-21.407,60.328-7.01,87.512l-216.694,173.009-12.391-15.41-71.351,91.42ZM2035.765,53.384c23.15-30.52,66.658-36.494,97.177-13.344,30.52,23.15,36.494,66.658,13.344,97.177-23.15,30.52-66.658,36.494-97.177,13.344-30.52-23.15-36.494-66.658-13.344-97.177Z" fill="#ccc" stroke="#161923" stroke-miterlimit="10" stroke-width="4"/>
  </g>
  <g id="d" data-name="Numbers_Boot_Menu">
    <path d="M642.787,134.676v7h-22.401v-7h7.701V62.842l-5.471,4.529-4.463-5.394,11.12-9.202h5.814v81.901h7.7Z" fill="#e3831f" stroke="#e3831f" stroke-miterlimit="10"/>
    <path d="M2076.159,135.055h43.081v6.969h-52.614v-6.944l9.161-9.997c4.801-5.349,9.205-10.251,13.387-14.711,2.076-2.077,4.156-4.505,6.167-6.854,2.102-2.45,10.495-11.896,10.495-11.896.951-.958,1.488-1.634,1.847-2.08.213-.268.394-.484.544-.651,1.021-1.3,1.878-2.944,2.484-4.763.574-1.725.867-3.104.867-5.868,0-2.373-.491-4.725-1.46-6.99-.882-2.338-2.286-4.024-4.14-5.878-2.114-1.742-4.118-2.997-6.076-3.729-5.604-2.101-9.377-2.098-14.973,0-2.564.962-4.495,2.146-6.08,3.732-1.829,1.829-3.3,3.917-4.14,5.878l-6.404-2.746c1.199-2.798,3.143-5.585,5.617-8.06,2.285-2.282,5.083-4.024,8.561-5.327,7.129-2.683,12.722-2.683,19.868,0,3.564,1.338,6.456,3.561,8.324,5.115,2.286,2.269,4.571,4.854,5.909,8.422,1.286,2.986,1.966,6.261,1.966,9.585,0,3.666-.471,5.805-1.227,8.073-.875,2.627-2.164,5.049-3.722,6.997l-.478.568c-.467.585-1.167,1.46-2.22,2.509.008,0-8.205,9.241-10.271,11.652-2.098,2.446-4.265,4.976-6.453,7.164-4.073,4.345-8.442,9.212-13.209,14.519l-4.809,5.314-.004-.004Z" fill="#e3831f" stroke="#e38300" stroke-miterlimit="10"/>
  </g>
</svg>