<?xml version="1.0" encoding="UTF-8"?>
<svg xmlns="http://www.w3.org/2000/svg" width="1584.293" height="1072.174" viewBox="0 0 1584.293 1072.174">
  <g id="CDNU_-_Dark">
    <path d="M1403.61,903.706l-1222.305.984c-5.445.004-9.861-4.411-9.856-9.857l.667-725.918c.005-5.432,4.408-9.834,9.84-9.839l1222.305-.984c5.445-.004,9.861,4.411,9.856,9.857l-.667,725.918c-.005,5.432-4.408,9.834-9.84,9.839Z" fill="none" stroke="#ccc" stroke-miterlimit="10" stroke-width="11"/>
    <polyline points="785.123 902.825 1331.623 903.324 1331.623 653.747 1406.623 653.747 1406.623 327.67 1331.623 327.67 1331.623 160.085 252.123 160.085 252.123 332.358 173.906 332.358 173.906 653.248 252.123 653.248 252.123 902.825 785.123 902.825" fill="none" stroke="#ccc" stroke-miterlimit="10" stroke-width="8"/>
    <rect x="425.123" y="200.085" width="735" height="553" rx="13.681" ry="13.681" fill="none" stroke="#ccc" stroke-miterlimit="10" stroke-width="5"/>
    <rect x="414.123" y="186.085" width="760" height="580" rx="18.29" ry="18.29" fill="none" stroke="#ccc" stroke-miterlimit="10" stroke-width="5"/>
    <g>
      <rect x="267.123" y="201.085" width="137" height="81" fill="none" stroke="#ccc" stroke-miterlimit="10" stroke-width="5"/>
      <polygon points="387.122 241.334 359.756 213.834 359.756 230.834 284.623 230.834 284.623 251.834 359.756 251.834 359.756 268.834 387.122 241.334" fill="#ccc"/>
    </g>
    <g>
      <rect x="267.275" y="327.932" width="137" height="81" fill="none" stroke="#ccc" stroke-miterlimit="10" stroke-width="5"/>
      <polygon points="387.275 368.182 359.908 340.682 359.908 357.682 284.775 357.682 284.775 378.682 359.908 378.682 359.908 395.682 387.275 368.182" fill="#ccc"/>
    </g>
    <g>
      <rect x="267.275" y="454.932" width="137" height="81" fill="none" stroke="#ccc" stroke-miterlimit="10" stroke-width="5"/>
      <polygon points="387.275 495.182 359.908 467.682 359.908 484.682 284.775 484.682 284.775 505.682 359.908 505.682 359.908 522.682 387.275 495.182" fill="#ccc"/>
    </g>
    <g>
      <rect x="267.102" y="579.367" width="137" height="81" fill="none" stroke="#ccc" stroke-miterlimit="10" stroke-width="5"/>
      <polygon points="387.101 619.617 359.734 592.117 359.734 609.117 284.601 609.117 284.601 630.117 359.734 630.117 359.734 647.117 387.101 619.617" fill="#ccc"/>
    </g>
    <g>
      <rect x="1182.254" y="201.085" width="137" height="81" transform="translate(2501.507 483.169) rotate(-180)" fill="none" stroke="#ccc" stroke-miterlimit="10" stroke-width="5"/>
      <polygon points="1199.255 241.334 1226.622 213.834 1226.622 230.834 1301.754 230.834 1301.754 251.834 1226.622 251.834 1226.622 268.834 1199.255 241.334" fill="#ccc"/>
    </g>
    <g>
      <rect x="1182.102" y="327.932" width="137" height="81" transform="translate(2501.203 736.865) rotate(-180)" fill="none" stroke="#ccc" stroke-miterlimit="10" stroke-width="5"/>
      <polygon points="1199.102 368.182 1226.469 340.682 1226.469 357.682 1301.602 357.682 1301.602 378.682 1226.469 378.682 1226.469 395.682 1199.102 368.182" fill="#ccc"/>
    </g>
    <g>
      <rect x="1182.102" y="454.932" width="137" height="81" transform="translate(2501.203 990.865) rotate(-180)" fill="none" stroke="#ccc" stroke-miterlimit="10" stroke-width="5"/>
      <polygon points="1199.102 495.182 1226.469 467.682 1226.469 484.682 1301.602 484.682 1301.602 505.682 1226.469 505.682 1226.469 522.682 1199.102 495.182" fill="#ccc"/>
    </g>
    <g>
      <rect x="1182.275" y="579.367" width="137" height="81" transform="translate(2501.551 1239.734) rotate(-180)" fill="none" stroke="#ccc" stroke-miterlimit="10" stroke-width="5"/>
      <polygon points="1199.276 619.617 1226.643 592.117 1226.643 609.117 1301.776 609.117 1301.776 630.117 1226.643 630.117 1226.643 647.117 1199.276 619.617" fill="#ccc"/>
    </g>
    <circle cx="356.123" cy="736.085" r="30.5" fill="none" stroke="#ccc" stroke-miterlimit="10" stroke-width="5"/>
    <circle cx="1239.123" cy="736.085" r="30.5" fill="none" stroke="#ccc" stroke-miterlimit="10" stroke-width="5"/>
    <rect x="315.623" y="792.539" width="83" height="91" fill="none" stroke="#ccc" stroke-miterlimit="10" stroke-width="5"/>
    <rect x="307.623" y="783.039" width="101" height="110" rx="9.778" ry="9.778" fill="none" stroke="#ccc" stroke-miterlimit="10" stroke-width="5"/>
    <rect x="439.623" y="792.539" width="83" height="91" fill="none" stroke="#ccc" stroke-miterlimit="10" stroke-width="5"/>
    <rect x="431.623" y="783.039" width="101" height="110" rx="9.778" ry="9.778" fill="none" stroke="#ccc" stroke-miterlimit="10" stroke-width="5"/>
    <rect x="563.623" y="792.539" width="83" height="91" fill="none" stroke="#ccc" stroke-miterlimit="10" stroke-width="5"/>
    <rect x="555.623" y="783.039" width="101" height="110" rx="9.778" ry="9.778" fill="none" stroke="#ccc" stroke-miterlimit="10" stroke-width="5"/>
    <rect x="687.623" y="792.539" width="83" height="91" fill="none" stroke="#ccc" stroke-miterlimit="10" stroke-width="5"/>
    <rect x="679.623" y="783.039" width="101" height="110" rx="9.778" ry="9.778" fill="none" stroke="#ccc" stroke-miterlimit="10" stroke-width="5"/>
    <rect x="809.623" y="792.539" width="83" height="91" fill="none" stroke="#ccc" stroke-miterlimit="10" stroke-width="5"/>
    <rect x="801.623" y="783.039" width="101" height="110" rx="9.778" ry="9.778" fill="none" stroke="#ccc" stroke-miterlimit="10" stroke-width="5"/>
    <rect x="936.623" y="792.539" width="83" height="91" fill="none" stroke="#ccc" stroke-miterlimit="10" stroke-width="5"/>
    <rect x="928.623" y="783.039" width="101" height="110" rx="9.778" ry="9.778" fill="none" stroke="#ccc" stroke-miterlimit="10" stroke-width="5"/>
    <rect x="1056.623" y="792.539" width="83" height="91" fill="none" stroke="#ccc" stroke-miterlimit="10" stroke-width="5"/>
    <rect x="1048.623" y="783.039" width="101" height="110" rx="9.778" ry="9.778" fill="none" stroke="#ccc" stroke-miterlimit="10" stroke-width="5"/>
    <rect x="1181.623" y="792.539" width="83" height="91" fill="none" stroke="#ccc" stroke-miterlimit="10" stroke-width="5"/>
    <rect x="1173.623" y="783.039" width="101" height="110" rx="9.778" ry="9.778" fill="none" stroke="#ccc" stroke-miterlimit="10" stroke-width="5"/>
    <circle cx="213.123" cy="265.085" r="34.5" fill="none" stroke="#ccc" stroke-miterlimit="10" stroke-width="3.5"/>
    <circle cx="213.123" cy="265.085" r="27.5" fill="none" stroke="#ccc" stroke-miterlimit="10" stroke-width="3.5"/>
    <circle cx="213.623" cy="718.585" r="34.5" fill="none" stroke="#ccc" stroke-miterlimit="10" stroke-width="3.5"/>
    <circle cx="213.623" cy="718.585" r="27.5" fill="none" stroke="#ccc" stroke-miterlimit="10" stroke-width="3.5"/>
    <circle cx="213.623" cy="837.585" r="34.5" fill="none" stroke="#ccc" stroke-miterlimit="10" stroke-width="3.5"/>
    <circle cx="213.623" cy="837.585" r="27.5" fill="none" stroke="#ccc" stroke-miterlimit="10" stroke-width="3.5"/>
    <circle cx="1372.623" cy="265.085" r="34.5" fill="none" stroke="#ccc" stroke-miterlimit="10" stroke-width="3.5"/>
    <circle cx="1372.623" cy="265.085" r="27.5" fill="none" stroke="#ccc" stroke-miterlimit="10" stroke-width="3.5"/>
    <circle cx="1372.123" cy="718.585" r="34.5" fill="none" stroke="#ccc" stroke-miterlimit="10" stroke-width="3.5"/>
    <circle cx="1372.123" cy="718.585" r="27.5" fill="none" stroke="#ccc" stroke-miterlimit="10" stroke-width="3.5"/>
    <circle cx="1372.123" cy="837.585" r="34.5" fill="none" stroke="#ccc" stroke-miterlimit="10" stroke-width="3.5"/>
    <circle cx="1372.123" cy="837.585" r="27.5" fill="none" stroke="#ccc" stroke-miterlimit="10" stroke-width="3.5"/>
    <g>
      <rect x="321.412" y="805.635" width="66.913" height="64.957" fill="none"/>
      <path d="M335.327,820.004h6.823v36.208h-6.823v-36.208ZM337.817,820.004h21.292v6.574h-21.292v-6.574ZM337.817,835.268h18.552v6.574h-18.552v-6.574Z" fill="#ccc" stroke="#ccc" stroke-miterlimit="10"/>
      <path d="M374.411,856.212h-6.823v-28.189l-4.408,1.668v-7.246l5.404-2.44h5.827v36.208Z" fill="#ccc" stroke="#ccc" stroke-miterlimit="10"/>
    </g>
    <g>
      <rect x="445.412" y="805.635" width="66.913" height="64.957" fill="none"/>
      <path d="M454.633,820.004h6.823v36.208h-6.823v-36.208ZM457.123,820.004h21.292v6.574h-21.292v-6.574ZM457.123,835.268h18.552v6.574h-18.552v-6.574Z" fill="#ccc" stroke="#ccc" stroke-miterlimit="10"/>
      <path d="M483.432,850.061l12.426-16.336c.564-.73,1-1.482,1.307-2.254.307-.772.461-1.49.461-2.154v-.05c0-.979-.315-1.734-.946-2.267-.631-.53-1.528-.797-2.689-.797-1.129,0-2.042.37-2.739,1.108-.697.739-1.121,1.789-1.27,3.15v.024h-6.998v-.024c.149-2.258.693-4.2,1.631-5.827s2.204-2.867,3.798-3.723,3.437-1.283,5.528-1.283c2.257,0,4.188.37,5.79,1.108,1.602.739,2.822,1.814,3.66,3.226s1.258,3.112,1.258,5.104v.024c0,1.645-.286,3.275-.859,4.894-.572,1.619-1.374,3.084-2.403,4.396l-8.915,11.256h12.376v6.574h-21.416v-6.15Z" fill="#ccc" stroke="#ccc" stroke-miterlimit="10"/>
    </g>
    <g>
      <rect x="569.412" y="805.635" width="66.913" height="64.957" fill="none"/>
      <path d="M578.321,820.004h6.823v36.208h-6.823v-36.208ZM580.811,820.004h21.292v6.574h-21.292v-6.574ZM580.811,835.268h18.552v6.574h-18.552v-6.574Z" fill="#ccc" stroke="#ccc" stroke-miterlimit="10"/>
      <path d="M611.927,855.389c-1.71-.797-3.072-1.958-4.084-3.486-1.013-1.526-1.569-3.345-1.668-5.453h7.047c.1.747.319,1.382.66,1.905.34.522.776.921,1.308,1.195.531.273,1.146.411,1.843.411,1.295,0,2.295-.361,3.001-1.084.705-.722,1.058-1.738,1.058-3.051v-.846c0-1.378-.287-2.441-.859-3.188-.573-.748-1.391-1.121-2.453-1.121h-3.063v-6.574h3.063c.863,0,1.531-.327,2.005-.983.473-.656.709-1.573.709-2.752v-.622c0-1.112-.261-1.972-.785-2.578-.522-.605-1.257-.908-2.204-.908-.614,0-1.175.157-1.681.473s-.934.771-1.282,1.369-.598,1.32-.747,2.167h-7.022c.199-2.208.792-4.112,1.78-5.715s2.279-2.822,3.873-3.661c1.594-.838,3.37-1.258,5.329-1.258,3.204,0,5.682.818,7.433,2.453,1.751,1.636,2.627,3.956,2.627,6.961v1.096c0,1.677-.423,3.137-1.27,4.383-.847,1.244-2.051,2.175-3.611,2.789,1.743.398,3.092,1.312,4.046,2.738.955,1.429,1.432,3.246,1.432,5.454v1.096c0,2.108-.415,3.909-1.245,5.403-.831,1.494-2.042,2.632-3.636,3.412s-3.511,1.17-5.752,1.17c-2.191,0-4.143-.398-5.852-1.195Z" fill="#ccc" stroke="#ccc" stroke-miterlimit="10"/>
    </g>
    <g>
      <rect x="693.412" y="805.635" width="66.913" height="64.957" fill="none"/>
      <path d="M701.3,820.004h6.823v36.208h-6.823v-36.208ZM703.79,820.004h21.292v6.574h-21.292v-6.574ZM703.79,835.268h18.552v6.574h-18.552v-6.574Z" fill="#ccc" stroke="#ccc" stroke-miterlimit="10"/>
      <path d="M730.149,844.384l11.156-24.355h7.72l-10.857,24.057h16.262v6.574h-24.28v-6.275ZM744.767,834.921h6.823v21.316h-6.823v-21.316Z" fill="#ccc" stroke="#ccc" stroke-miterlimit="10"/>
    </g>
    <g>
      <rect x="815.412" y="805.635" width="66.913" height="64.957" fill="none"/>
      <path d="M823.924,820.004h6.823v36.208h-6.823v-36.208ZM826.414,820.004h21.291v6.574h-21.291v-6.574ZM826.414,835.268h18.553v6.574h-18.553v-6.574Z" fill="#ccc" stroke="#ccc" stroke-miterlimit="10"/>
      <path d="M858.638,855.302c-1.553-.854-2.798-2.1-3.735-3.735-.938-1.635-1.481-3.573-1.631-5.814v-.025h6.823v.025c.133,1.328.539,2.362,1.221,3.101.68.738,1.568,1.108,2.664,1.108,1.195,0,2.12-.391,2.776-1.171s.983-1.884.983-3.312v-3.039c0-1.427-.295-2.527-.884-3.299-.589-.772-1.415-1.158-2.478-1.158-.979,0-1.814.249-2.503.747s-1.166,1.195-1.432,2.092h-6.375v-20.818h19.448v6.574h-12.625v6.399c.515-.498,1.216-.892,2.104-1.183.888-.29,1.771-.436,2.651-.436,1.876,0,3.482.432,4.819,1.295,1.336.863,2.353,2.125,3.05,3.785s1.047,3.661,1.047,6.001v3.039c0,2.34-.42,4.341-1.258,6.001-.839,1.66-2.055,2.926-3.648,3.798-1.594.871-3.52,1.307-5.777,1.307-1.942,0-3.689-.427-5.242-1.282Z" fill="#ccc" stroke="#ccc" stroke-miterlimit="10"/>
    </g>
    <g>
      <rect x="942.412" y="805.635" width="66.913" height="64.957" fill="none"/>
      <path d="M951.721,820.004h6.823v36.208h-6.823v-36.208ZM954.211,820.004h21.291v6.574h-21.291v-6.574ZM954.211,835.268h18.553v6.574h-18.553v-6.574Z" fill="#ccc" stroke="#ccc" stroke-miterlimit="10"/>
      <path d="M985.189,855.302c-1.585-.854-2.793-2.1-3.623-3.735-.83-1.635-1.245-3.606-1.245-5.914v-.025c0-1.311.162-2.697.485-4.158.324-1.461.784-2.93,1.382-4.408.1-.248.203-.498.312-.746.108-.25.22-.49.337-.723l7.346-15.589h7.72l-8.716,18.054-1.719-.896c.415-.779,1.021-1.386,1.818-1.817s1.727-.647,2.789-.647c1.992,0,3.693.424,5.105,1.27,1.41.848,2.485,2.08,3.225,3.698.738,1.619,1.107,3.565,1.107,5.84v.024c0,2.325-.415,4.317-1.244,5.977-.831,1.661-2.039,2.923-3.624,3.785-1.585.864-3.499,1.295-5.739,1.295-2.226,0-4.131-.427-5.716-1.282ZM993.706,848.953c.656-.706.984-1.706.984-3.001v-.025c0-1.494-.328-2.643-.984-3.448s-1.59-1.208-2.801-1.208c-1.195,0-2.121.411-2.777,1.232-.656.822-.983,1.972-.983,3.449v.025c0,1.295.327,2.291.983,2.988s1.582,1.045,2.777,1.045c1.211,0,2.145-.352,2.801-1.058Z" fill="#ccc" stroke="#ccc" stroke-miterlimit="10"/>
    </g>
    <g>
      <rect x="1062.412" y="805.635" width="66.913" height="64.957" fill="none"/>
      <path d="M1071.966,820.004h6.823v36.208h-6.823v-36.208ZM1074.456,820.004h21.291v6.574h-21.291v-6.574ZM1074.456,835.268h18.553v6.574h-18.553v-6.574Z" fill="#ccc" stroke="#ccc" stroke-miterlimit="10"/>
      <path d="M1121.011,824.536l-8.119,31.676h-7.396l7.869-29.634h-6.226v5.454h-6.823v-12.028h20.694v4.532Z" fill="#ccc" stroke="#ccc" stroke-miterlimit="10"/>
    </g>
    <g>
      <path d="M1201.685,824.549h4.054v29.853h-2.796v-23.18l.112,1.313-3.122,18.54h-2.718l-3.122-18.129.112-1.725v23.18h-2.797v-29.853h4.055l3.11,20.12,3.111-20.12Z" fill="#ccc" stroke="#ccc" stroke-miterlimit="10"/>
      <path d="M1210.046,824.549h3.077v29.853h-3.077v-29.853ZM1211.158,824.549h9.826v5.42h-9.826v-5.42ZM1211.158,836.867h8.591v5.421h-8.591v-5.421ZM1211.158,848.98h9.826v5.421h-9.826v-5.421Z" fill="#ccc" stroke="#ccc" stroke-miterlimit="10"/>
      <path d="M1224.505,824.549h3.763l6.075,22.872-.27.533v-23.405h2.942v29.832h-3.784l-6.054-22.522.27-.534v23.057h-2.942v-29.832Z" fill="#ccc" stroke="#ccc" stroke-miterlimit="10"/>
      <path d="M1243.827,853.405c-.892-.869-1.569-2.135-2.033-3.798s-.696-3.665-.696-6.006v-19.053h3.077v19.196c0,1.712.251,3.039.753,3.983.501.944,1.209,1.417,2.122,1.417.921,0,1.634-.473,2.14-1.417.505-.944.758-2.271.758-3.983v-19.196h3.077v19.053c0,2.341-.234,4.343-.702,6.006s-1.149,2.929-2.044,3.798-1.971,1.304-3.229,1.304-2.332-.435-3.223-1.304Z" fill="#ccc" stroke="#ccc" stroke-miterlimit="10"/>
    </g>
    <g>
      <rect x="315.934" y="672.115" width="70.435" height="25.043" fill="none"/>
      <path d="M324.201,673.28h4.281v22.719h-4.281v-22.719ZM326.076,691.874h7.25c.979,0,1.737-.236,2.273-.711.536-.474.805-1.138.805-1.992v-.047c0-.572-.12-1.062-.359-1.469-.24-.406-.591-.716-1.055-.93-.464-.213-1.019-.32-1.664-.32h-7.25v-4.125h7.25c.885,0,1.57-.224,2.055-.672.484-.447.727-1.078.727-1.891,0-.729-.242-1.297-.727-1.703s-1.169-.609-2.055-.609h-7.25v-4.125h7.391c1.469,0,2.724.242,3.766.727,1.042.484,1.833,1.188,2.375,2.109.542.922.812,2.029.812,3.32,0,.886-.175,1.67-.523,2.352-.349.683-.857,1.242-1.523,1.68-.667.438-1.469.734-2.406.891,1,.136,1.856.44,2.57.914.713.475,1.255,1.092,1.625,1.852.37.761.555,1.641.555,2.641v.047c0,1.303-.273,2.417-.82,3.344-.547.928-1.344,1.633-2.391,2.117s-2.305.727-3.773.727h-7.656v-4.125Z" fill="#ccc" stroke="#ccc" stroke-miterlimit="10"/>
      <path d="M345.849,673.264h4.281v22.734h-4.281v-22.734ZM347.552,682.733h7.906c.438,0,.823-.109,1.156-.328.333-.219.591-.531.773-.938.182-.406.278-.875.289-1.406,0-.531-.091-1-.273-1.406-.183-.406-.44-.719-.773-.938-.333-.219-.724-.328-1.172-.328h-7.906v-4.125h8.25c1.25,0,2.349.281,3.297.844.948.562,1.682,1.357,2.203,2.383.521,1.026.781,2.217.781,3.57s-.261,2.545-.781,3.57c-.521,1.026-1.258,1.82-2.211,2.383s-2.05.844-3.289.844h-8.25v-4.125ZM352.333,686.155l4.578-.719,6.125,10.562h-5.188l-5.516-9.844Z" fill="#ccc" stroke="#ccc" stroke-miterlimit="10"/>
      <path d="M364.575,673.28h16.656v4.125h-16.656v-4.125ZM370.763,675.139h4.281v20.859h-4.281v-20.859Z" fill="#ccc" stroke="#ccc" stroke-miterlimit="10"/>
    </g>
    <g>
      <rect x="1180.586" y="671.895" width="131" height="25.043" fill="none"/>
      <path d="M1193.307,694.971c-1.256-.692-2.227-1.672-2.914-2.938s-1.031-2.731-1.031-4.398v-6.438c0-1.666.344-3.133,1.031-4.398s1.658-2.244,2.914-2.938c1.255-.692,2.705-1.039,4.352-1.039s3.096.347,4.352,1.039c1.255.693,2.227,1.672,2.914,2.938s1.031,2.732,1.031,4.398v6.438c0,1.667-.344,3.133-1.031,4.398s-1.659,2.245-2.914,2.938c-1.256.693-2.706,1.039-4.352,1.039s-3.097-.346-4.352-1.039ZM1199.689,691.237c.583-.328,1.033-.794,1.352-1.398.317-.604.477-1.302.477-2.094v-6.656c0-.791-.159-1.489-.477-2.094-.318-.604-.769-1.07-1.352-1.398-.584-.328-1.261-.492-2.031-.492s-1.448.164-2.031.492c-.584.328-1.034.795-1.352,1.398-.318.604-.477,1.303-.477,2.094v6.656c0,.792.158,1.49.477,2.094.317.604.768,1.07,1.352,1.398.583.328,1.26.492,2.031.492s1.447-.164,2.031-.492Z" fill="#ccc" stroke="#ccc" stroke-miterlimit="10"/>
      <path d="M1211.166,673.057h4.281v22.719h-4.281v-22.719ZM1212.728,673.057h13.359v4.125h-13.359v-4.125ZM1212.728,682.635h11.641v4.125h-11.641v-4.125Z" fill="#ccc" stroke="#ccc" stroke-miterlimit="10"/>
      <path d="M1230.361,673.057h4.281v22.719h-4.281v-22.719ZM1231.924,673.057h13.359v4.125h-13.359v-4.125ZM1231.924,682.635h11.641v4.125h-11.641v-4.125Z" fill="#ccc" stroke="#ccc" stroke-miterlimit="10"/>
      <path d="M1250.337,700.089h-4.062l10.156-29.719h4.062l-10.156,29.719Z" fill="#ccc" stroke="#ccc" stroke-miterlimit="10"/>
      <path d="M1267.071,694.971c-1.256-.692-2.227-1.672-2.914-2.938s-1.031-2.731-1.031-4.398v-6.438c0-1.666.344-3.133,1.031-4.398s1.658-2.244,2.914-2.938c1.255-.692,2.705-1.039,4.352-1.039s3.096.347,4.352,1.039c1.255.693,2.227,1.672,2.914,2.938s1.031,2.732,1.031,4.398v6.438c0,1.667-.344,3.133-1.031,4.398s-1.659,2.245-2.914,2.938c-1.256.693-2.706,1.039-4.352,1.039s-3.097-.346-4.352-1.039ZM1273.454,691.237c.583-.328,1.033-.794,1.352-1.398.317-.604.477-1.302.477-2.094v-6.656c0-.791-.159-1.489-.477-2.094-.318-.604-.769-1.07-1.352-1.398-.584-.328-1.261-.492-2.031-.492s-1.448.164-2.031.492c-.584.328-1.034.795-1.352,1.398-.318.604-.477,1.303-.477,2.094v6.656c0,.792.158,1.49.477,2.094.317.604.768,1.07,1.352,1.398.583.328,1.26.492,2.031.492s1.447-.164,2.031-.492Z" fill="#ccc" stroke="#ccc" stroke-miterlimit="10"/>
      <path d="M1284.931,673.057h5.234l8.453,17.406-.375.406v-17.812h4.094v22.703h-5.266l-8.422-17.141.375-.406v17.547h-4.094v-22.703Z" fill="#ccc" stroke="#ccc" stroke-miterlimit="10"/>
    </g>
  </g>
  <g id="Scratchpad_-_Dark">
    <g>
      <path d="M483.164,697.036v37.593h12.121v3.515h-15.634v-44.62h15.634v3.513h-12.121Z" fill="#ccc" stroke="#ccc" stroke-miterlimit="10" stroke-width="1.5"/>
      <path d="M1104.113,693.34v44.62h-15.635v-3.514h12.121v-37.593h-12.121v-3.514h15.635Z" fill="#ccc" stroke="#ccc" stroke-miterlimit="10" stroke-width="1.5"/>
    </g>
  </g>
  <g id="RNAV_INAV_Page_-_Dark">
    <g>
      <rect x="425.739" y="209.018" width="732.522" height="52.826" fill="none"/>
      <path d="M474.101,217.694v34.455h-2.799l-16.389-29.029v29.005h-2.822v-34.285h3.082l16.106,28.528v-28.675h2.822Z" fill="#ccc" stroke="#ccc" stroke-miterlimit="10" stroke-width="1.5"/>
      <path d="M495.782,249.449v2.822h-9.029v-2.822h3.104v-28.956l-2.206,1.826-1.799-2.174,4.482-3.709h2.344v33.013h3.104Z" fill="#ccc" stroke="#ccc" stroke-miterlimit="10" stroke-width="1.5"/>
      <path d="M528.327,231.823c.536,1.253.819,2.568.819,3.802v6.914c0,1.236-.283,2.549-.819,3.801-.522,1.22-1.386,2.39-2.368,3.208-.756.63-1.929,1.529-3.371,2.071-1.449.543-2.729.796-4.024.796-1.474,0-3.318-.319-4.587-.794-1.408-.529-2.541-1.234-3.465-2.159-.889-.732-1.751-1.902-2.274-3.122-.316-.626-.487-1.307-.636-1.906l-.042-.343v-1.27h2.822v1.096c.114.454.226.855.415,1.234.388.901.965,1.686,1.617,2.229.736.728,1.518,1.208,2.555,1.597.951.355,2.465.615,3.596.615.959,0,1.895-.19,3.032-.617.792-.297,1.604-.804,2.555-1.597.65-.543,1.227-1.329,1.582-2.153.386-.903.591-1.833.591-2.689v-6.914c0-.856-.205-1.786-.591-2.69-.353-.824-.93-1.608-1.582-2.151-.737-.727-1.518-1.208-2.555-1.596l-.432-.167c-.789-.309-1.15-.45-2.601-.45-1.769,0-3.187.378-4.462,1.191-.953.595-1.795,1.438-2.383,2.378l-.415.663h-3.745v-16.366h21.305v2.822h-18.483v9.983c.646-.722,1.394-1.354,2.215-1.868,1.714-1.092,3.671-1.625,5.968-1.625,1.886,0,2.607.244,3.627.643l.395.152c1.408.528,2.541,1.233,3.465,2.158.887.732,1.751,1.9,2.274,3.121h0Z" fill="#ccc" stroke="#ccc" stroke-miterlimit="10" stroke-width="1.5"/>
      <path d="M553.625,224.857c0,3.5-2.849,6.349-6.349,6.349s-6.349-2.849-6.349-6.349,2.849-6.349,6.349-6.349,6.349,2.849,6.349,6.349ZM550.804,224.857c0-1.944-1.583-3.527-3.527-3.527s-3.527,1.583-3.527,3.527,1.583,3.527,3.527,3.527,3.527-1.583,3.527-3.527Z" fill="#ccc" stroke="#ccc" stroke-miterlimit="10" stroke-width="1.5"/>
      <path d="M586.394,222.435c.652,1.301.996,2.788.996,4.299v15.378c0,1.511-.344,3-.996,4.3-.61,1.222-1.532,2.366-2.742,3.403-1.079.898-2.239,1.511-3.461,1.83-1.114.406-2.315.612-3.666.625h-.141c-1.508-.011-2.71-.214-3.881-.653-1.273-.479-2.406-1.127-3.371-1.932-1.225-1.048-2.147-2.194-2.758-3.416-.652-1.301-.996-2.788-.996-4.297v-15.378c0-1.51.346-2.997.996-4.299.611-1.222,1.534-2.367,2.743-3.403,1.079-.9,2.239-1.511,3.461-1.83,1.152-.42,2.398-.626,3.807-.626,1.511,0,2.864.219,4.022.653,1.273.477,2.406,1.127,3.372,1.932,1.074.918,1.925,2.033,2.616,3.414h0ZM568.202,226.593v13.917l16.19-15.351c-.117-.514-.292-1.006-.521-1.463-.526-1.054-1.134-1.855-1.913-2.523-.706-.588-1.566-1.078-2.54-1.443-.828-.311-1.876-.474-3.032-.474-1.109,0-2.027.151-2.891.474l-.152.048c-.837.209-1.644.635-2.403,1.267-.907.777-1.599,1.627-2.04,2.51-.457.914-.699,1.964-.699,3.038ZM584.57,242.114v-13.233l-16.034,15.203c.102.32.219.632.366.927.441.883,1.133,1.732,2.056,2.522.705.587,1.564,1.077,2.54,1.443.858.322,1.772.469,2.957.474,1.078-.005,1.977-.156,2.823-.474l.152-.048c.837-.208,1.644-.635,2.403-1.267.906-.777,1.597-1.626,2.039-2.51.457-.913.699-1.962.699-3.038Z" fill="#ccc" stroke="#ccc" stroke-miterlimit="10" stroke-width="1.5"/>
      <path d="M620.161,216.436v3.992l-14.532,30.05v.382h-2.822v-1.029l14.532-30.05v-.523h-18.201v-2.822h21.022Z" fill="#ccc" stroke="#ccc" stroke-miterlimit="10" stroke-width="1.5"/>
      <path d="M631.92,248.983c0-1.636,1.264-2.963,2.822-2.963s2.822,1.327,2.822,2.963-1.263,2.963-2.822,2.963-2.822-1.326-2.822-2.963Z" fill="#ccc" stroke="#ccc" stroke-miterlimit="10" stroke-width="1.5"/>
      <path d="M671.889,242.113c0,5.601-5.063,10.158-11.287,10.158s-11.287-4.557-11.287-10.158c0-3.785,2.317-7.088,5.738-8.835-2.772-1.64-4.609-4.464-4.609-7.672,0-5.057,4.557-9.171,10.158-9.171s10.158,4.114,10.158,9.171c0,3.208-1.838,6.033-4.609,7.672,3.422,1.747,5.738,5.05,5.738,8.835ZM669.067,242.113c0-4.045-3.797-7.336-8.465-7.336s-8.465,3.292-8.465,7.336,3.797,7.336,8.465,7.336,8.465-3.292,8.465-7.336ZM660.601,231.956c4.045,0,7.336-2.849,7.336-6.349s-3.292-6.349-7.336-6.349-7.336,2.849-7.336,6.349,3.292,6.349,7.336,6.349Z" fill="#ccc" stroke="#ccc" stroke-miterlimit="10" stroke-width="1.5"/>
      <path d="M704.43,231.823c.536,1.253.819,2.568.819,3.802v6.914c0,1.236-.283,2.549-.819,3.801-.522,1.22-1.386,2.39-2.368,3.208-.756.63-1.929,1.529-3.371,2.071-1.449.543-2.729.796-4.024.796-1.474,0-3.318-.319-4.587-.794-1.408-.529-2.541-1.234-3.465-2.159-.889-.732-1.751-1.902-2.274-3.122-.316-.626-.487-1.307-.636-1.906l-.042-.343v-1.27h2.822v1.096c.114.454.226.855.415,1.234.388.901.965,1.686,1.617,2.229.736.728,1.518,1.208,2.555,1.597.951.355,2.465.615,3.596.615.959,0,1.895-.19,3.032-.617.792-.297,1.604-.804,2.555-1.597.65-.543,1.227-1.329,1.582-2.153.386-.903.591-1.833.591-2.689v-6.914c0-.856-.205-1.786-.591-2.69-.353-.824-.93-1.608-1.582-2.151-.737-.727-1.519-1.208-2.555-1.596l-.432-.167c-.789-.309-1.15-.45-2.601-.45-1.769,0-3.187.378-4.462,1.191-.953.595-1.795,1.438-2.383,2.378l-.415.663h-3.745v-16.366h21.304v2.822h-18.482v9.983c.646-.722,1.394-1.354,2.215-1.868,1.714-1.092,3.671-1.625,5.968-1.625,1.886,0,2.607.244,3.627.643l.395.152c1.408.528,2.541,1.233,3.465,2.158.887.732,1.751,1.9,2.274,3.121h0Z" fill="#ccc" stroke="#ccc" stroke-miterlimit="10" stroke-width="1.5"/>
      <path d="M737.799,231.823c.536,1.253.819,2.568.819,3.802v6.914c0,1.236-.283,2.549-.819,3.801-.522,1.22-1.386,2.39-2.368,3.208-.756.63-1.929,1.529-3.371,2.071-1.449.543-2.729.796-4.024.796-1.474,0-3.318-.319-4.587-.794-1.408-.529-2.541-1.234-3.465-2.159-.889-.732-1.751-1.902-2.274-3.122-.316-.626-.487-1.307-.636-1.906l-.042-.343v-1.27h2.822v1.096c.114.454.226.855.415,1.234.388.901.965,1.686,1.617,2.229.736.728,1.518,1.208,2.555,1.597.951.355,2.465.615,3.596.615.959,0,1.895-.19,3.032-.617.792-.297,1.604-.804,2.555-1.597.651-.543,1.227-1.329,1.582-2.153.387-.903.591-1.833.591-2.689v-6.914c0-.856-.204-1.786-.591-2.69-.353-.824-.93-1.608-1.582-2.151-.737-.727-1.518-1.208-2.555-1.596l-.432-.167c-.789-.309-1.15-.45-2.601-.45-1.769,0-3.187.378-4.462,1.191-.953.595-1.795,1.438-2.383,2.378l-.415.663h-3.745v-16.366h21.305v2.822h-18.483v9.983c.646-.722,1.394-1.354,2.215-1.868,1.714-1.092,3.671-1.625,5.968-1.625,1.886,0,2.607.244,3.627.643l.395.152c1.408.528,2.541,1.233,3.466,2.158.887.732,1.751,1.9,2.274,3.121h0Z" fill="#ccc" stroke="#ccc" stroke-miterlimit="10" stroke-width="1.5"/>
      <path d="M814.225,219.276v11.569h10.158v2.822h-10.158v15.661h18.482v2.822h-21.305v-35.695h21.305v2.822h-18.482Z" fill="#ccc" stroke="#ccc" stroke-miterlimit="10" stroke-width="1.5"/>
      <path d="M854.407,249.449v2.822h-9.029v-2.822h3.104v-28.956l-2.206,1.826-1.799-2.174,4.482-3.709h2.344v33.013h3.104Z" fill="#ccc" stroke="#ccc" stroke-miterlimit="10" stroke-width="1.5"/>
      <path d="M883.679,240.985h3.81v2.822h-3.81v7.055h-2.821v-7.055h-14.673v-3.071l14.578-24.3h2.915v24.548h0ZM880.855,221.763l-11.532,19.22h11.532v-19.22Z" fill="#ccc" stroke="#ccc" stroke-miterlimit="10" stroke-width="1.5"/>
      <path d="M916.753,240.985h3.81v2.822h-3.81v7.055h-2.821v-7.055h-14.673v-3.071l14.578-24.3h2.915v24.548h0ZM913.93,221.763l-11.532,19.22h11.532v-19.22Z" fill="#ccc" stroke="#ccc" stroke-miterlimit="10" stroke-width="1.5"/>
      <path d="M945.03,224.857c0,3.5-2.849,6.349-6.349,6.349s-6.349-2.849-6.349-6.349,2.849-6.349,6.349-6.349,6.349,2.849,6.349,6.349ZM942.209,224.857c0-1.944-1.583-3.527-3.527-3.527s-3.527,1.583-3.527,3.527,1.583,3.527,3.527,3.527,3.527-1.583,3.527-3.527Z" fill="#ccc" stroke="#ccc" stroke-miterlimit="10" stroke-width="1.5"/>
      <path d="M977.8,222.435c.651,1.301.996,2.788.996,4.299v15.378c0,1.511-.345,3-.996,4.3-.609,1.222-1.532,2.366-2.741,3.403-1.08.898-2.239,1.511-3.461,1.83-1.115.406-2.315.612-3.666.625h-.141c-1.509-.011-2.711-.214-3.882-.653-1.272-.479-2.405-1.127-3.37-1.932-1.225-1.048-2.147-2.194-2.759-3.416-.651-1.301-.996-2.788-.996-4.297v-15.378c0-1.51.346-2.997.996-4.299.611-1.222,1.534-2.367,2.743-3.403,1.079-.9,2.239-1.511,3.461-1.83,1.152-.42,2.398-.626,3.807-.626,1.511,0,2.864.219,4.022.653,1.272.477,2.405,1.127,3.372,1.932,1.073.918,1.924,2.033,2.615,3.414h0ZM959.607,226.593v13.917l16.19-15.351c-.117-.514-.292-1.006-.521-1.463-.526-1.054-1.135-1.855-1.913-2.523-.706-.588-1.566-1.078-2.54-1.443-.828-.311-1.877-.474-3.032-.474-1.108,0-2.027.151-2.891.474l-.152.048c-.837.209-1.644.635-2.403,1.267-.906.777-1.598,1.627-2.04,2.51-.457.914-.698,1.964-.698,3.038ZM975.975,242.114v-13.233l-16.033,15.203c.102.32.219.632.365.927.441.883,1.133,1.732,2.056,2.522.705.587,1.564,1.077,2.539,1.443.858.322,1.772.469,2.958.474,1.077-.005,1.977-.156,2.823-.474l.152-.048c.836-.208,1.644-.635,2.402-1.267.905-.777,1.597-1.626,2.039-2.51.457-.913.698-1.962.698-3.038Z" fill="#ccc" stroke="#ccc" stroke-miterlimit="10" stroke-width="1.5"/>
      <path d="M1011.816,237.053c-1.353,5.868-7.733,12.25-11.819,14.607l-1.409-2.443c3.626-2.092,9.365-7.966,10.476-12.781.186-.844.322-1.757.425-2.678-.239.21-.491.412-.755.605-.745.597-2.187,1.421-3.41,1.771-1.23.352-6.466.374-7.936-.176-1.443-.542-2.625-1.191-3.514-1.932-.972-.81-1.793-1.794-2.438-2.923-.786-1.373-.892-2.693-.892-3.804v-1.27c0-1.194.261-2.356.819-3.66l.072-.144c.645-1.13,1.466-2.114,2.438-2.923.888-.739,2.068-1.388,3.512-1.93,1.174-.44,2.535-.655,4.164-.655,1.393,0,2.749.292,4.011.607l.152.048c1.443.542,2.624,1.191,3.512,1.93.972.81,1.793,1.793,2.438,2.923.785,1.373.892,2.693.892,3.804.01.197.277,6.381-.738,11.024ZM1009.731,227.724h.035c-.006-.983-.034-1.61-.034-1.629,0-1.142-.146-1.814-.521-2.468-.479-.838-1.082-1.563-1.795-2.157-.62-.518-1.524-1.01-2.621-1.428-.992-.246-2.135-.502-3.246-.502-1.284,0-2.321.155-3.174.474-1.128.425-2.061.927-2.694,1.456-.694.577-1.284,1.28-1.755,2.086-.386.919-.559,1.684-.559,2.472v1.27c0,1.077.145,1.751.519,2.404.478.835,1.081,1.562,1.795,2.156.637.531,1.567,1.033,2.696,1.456.826.295,5.35.323,6.174.106.812-.233,1.913-.855,2.466-1.297,1.692-1.243,2.715-2.915,2.715-4.4h0Z" fill="#ccc" stroke="#ccc" stroke-miterlimit="10" stroke-width="1.5"/>
      <path d="M1024.354,248.983c0-1.636,1.263-2.963,2.821-2.963s2.822,1.327,2.822,2.963-1.264,2.963-2.822,2.963-2.821-1.326-2.821-2.963Z" fill="#ccc" stroke="#ccc" stroke-miterlimit="10" stroke-width="1.5"/>
      <path d="M1064.323,242.113c0,5.601-5.064,10.158-11.287,10.158s-11.287-4.557-11.287-10.158c0-3.785,2.316-7.088,5.737-8.835-2.772-1.64-4.609-4.464-4.609-7.672,0-5.057,4.558-9.171,10.159-9.171s10.158,4.114,10.158,9.171c0,3.208-1.839,6.033-4.609,7.672,3.421,1.747,5.738,5.05,5.738,8.835ZM1061.501,242.113c0-4.045-3.797-7.336-8.465-7.336s-8.466,3.292-8.466,7.336,3.797,7.336,8.466,7.336,8.465-3.292,8.465-7.336ZM1053.036,231.956c4.045,0,7.336-2.849,7.336-6.349s-3.291-6.349-7.336-6.349-7.337,2.849-7.337,6.349,3.291,6.349,7.337,6.349Z" fill="#ccc" stroke="#ccc" stroke-miterlimit="10" stroke-width="1.5"/>
      <path d="M1097.369,237.053c-1.353,5.868-7.733,12.25-11.819,14.607l-1.409-2.443c3.626-2.092,9.365-7.966,10.476-12.781.186-.844.322-1.757.425-2.678-.239.21-.491.412-.755.605-.745.597-2.187,1.421-3.41,1.771-1.23.352-6.466.374-7.936-.176-1.443-.542-2.625-1.191-3.514-1.932-.972-.81-1.793-1.794-2.438-2.923-.786-1.373-.892-2.693-.892-3.804v-1.27c0-1.194.261-2.356.819-3.66l.072-.144c.645-1.13,1.466-2.114,2.438-2.923.888-.739,2.068-1.388,3.512-1.93,1.174-.44,2.535-.655,4.164-.655,1.393,0,2.749.292,4.011.607l.152.048c1.443.542,2.624,1.191,3.512,1.93.972.81,1.793,1.793,2.438,2.923.785,1.373.892,2.693.892,3.804.01.197.277,6.381-.738,11.024ZM1095.284,227.724h.035c-.006-.983-.034-1.61-.034-1.629,0-1.142-.146-1.814-.521-2.468-.479-.838-1.082-1.563-1.795-2.157-.62-.518-1.524-1.01-2.621-1.428-.992-.246-2.135-.502-3.246-.502-1.284,0-2.321.155-3.174.474-1.128.425-2.061.927-2.694,1.456-.694.577-1.284,1.28-1.755,2.086-.386.919-.559,1.684-.559,2.472v1.27c0,1.077.145,1.751.519,2.404.478.835,1.081,1.562,1.795,2.156.637.531,1.567,1.033,2.696,1.456.826.295,5.35.323,6.174.106.812-.233,1.913-.855,2.466-1.297,1.692-1.243,2.715-2.915,2.715-4.4h0Z" fill="#ccc" stroke="#ccc" stroke-miterlimit="10" stroke-width="1.5"/>
      <path d="M1130.923,222.435c.651,1.301.996,2.788.996,4.299v15.378c0,1.511-.345,3-.996,4.3-.609,1.222-1.532,2.366-2.741,3.403-1.08.898-2.239,1.511-3.461,1.83-1.115.406-2.315.612-3.666.625h-.141c-1.509-.011-2.711-.214-3.882-.653-1.272-.479-2.405-1.127-3.37-1.932-1.225-1.048-2.147-2.194-2.759-3.416-.651-1.301-.996-2.788-.996-4.297v-15.378c0-1.51.346-2.997.996-4.299.611-1.222,1.534-2.367,2.743-3.403,1.079-.9,2.239-1.511,3.461-1.83,1.152-.42,2.398-.626,3.807-.626,1.511,0,2.864.219,4.022.653,1.272.477,2.405,1.127,3.372,1.932,1.073.918,1.924,2.033,2.615,3.414h0ZM1112.73,226.593v13.917l16.19-15.351c-.117-.514-.292-1.006-.521-1.463-.526-1.054-1.135-1.855-1.913-2.523-.706-.588-1.566-1.078-2.54-1.443-.828-.311-1.877-.474-3.032-.474-1.108,0-2.027.151-2.891.474l-.152.048c-.837.209-1.644.635-2.403,1.267-.906.777-1.598,1.627-2.04,2.51-.457.914-.698,1.964-.698,3.038ZM1129.099,242.114v-13.233l-16.033,15.203c.102.32.219.632.365.927.441.883,1.133,1.732,2.056,2.522.705.587,1.564,1.077,2.539,1.443.858.322,1.772.469,2.958.474,1.077-.005,1.977-.156,2.823-.474l.152-.048c.836-.208,1.644-.635,2.402-1.267.905-.777,1.597-1.626,2.039-2.51.457-.913.698-1.962.698-3.038Z" fill="#ccc" stroke="#ccc" stroke-miterlimit="10" stroke-width="1.5"/>
    </g>
    <g>
      <rect x="427.696" y="403.016" width="727.435" height="52.826" fill="none"/>
      <path d="M459.138,426.964l-.146,19.184-2.822-.021.081-10.713h-16.306v10.723h-2.822v-19.178l9.669-15.108h2.673l9.672,15.114ZM456.272,432.59l.037-4.812-8.18-12.781-8.183,12.785v4.809h16.327Z" fill="#ccc" stroke="#ccc" stroke-miterlimit="10" stroke-width="1.5"/>
      <path d="M475.279,413.292v30.193h6.913v2.822h-16.648v-2.822h6.914v-30.193h-6.914v-2.822h16.648v2.822h-6.913Z" fill="#ccc" stroke="#ccc" stroke-miterlimit="10" stroke-width="1.5"/>
      <path d="M510.632,423.432v9.735c0,1.931-.329,3.771-.948,5.32-.588,1.624-1.505,3.079-2.708,4.283-.91,1.067-2.076,1.905-3.396,2.413-1.301.641-2.63.964-3.952.964h-11.005v-35.836h11.005c1.459,0,2.819.325,4.158.995,1.384.693,2.496,1.543,3.404,2.602.9.896,1.717,2.256,2.496,4.205.642,1.764.947,3.491.947,5.32ZM507.81,423.432c0-1.515-.243-2.887-.762-4.314-.617-1.539-1.234-2.599-1.93-3.294-.741-.858-1.542-1.466-2.596-1.994-.951-.475-1.871-.697-2.895-.697h-8.183v30.193h8.183c.903,0,1.83-.236,2.755-.698l.136-.06c.911-.34,1.691-.901,2.387-1.712.983-.991,1.679-2.098,2.143-3.374.497-1.243.762-2.76.762-4.314v-9.735Z" fill="#ccc" stroke="#ccc" stroke-miterlimit="10" stroke-width="1.5"/>
      <path d="M519.864,413.274v11.569h10.159v2.822h-10.159v15.661h18.483v2.822h-21.305v-35.695h21.305v2.822h-18.483Z" fill="#ccc" stroke="#ccc" stroke-miterlimit="10" stroke-width="1.5"/>
      <path d="M566.786,423.432v9.735c0,1.931-.329,3.771-.948,5.32-.588,1.624-1.505,3.079-2.708,4.283-.91,1.067-2.076,1.905-3.396,2.413-1.301.641-2.63.964-3.952.964h-11.005v-35.836h11.005c1.459,0,2.819.325,4.158.995,1.384.693,2.496,1.543,3.404,2.602.9.896,1.717,2.256,2.496,4.205.642,1.764.947,3.491.947,5.32ZM563.964,423.432c0-1.515-.243-2.887-.762-4.314-.617-1.539-1.234-2.599-1.93-3.294-.741-.858-1.542-1.466-2.596-1.994-.951-.475-1.871-.697-2.895-.697h-8.183v30.193h8.183c.903,0,1.83-.236,2.755-.698l.136-.06c.911-.34,1.691-.901,2.387-1.712.983-.991,1.679-2.098,2.143-3.374.497-1.243.762-2.76.762-4.314v-9.735Z" fill="#ccc" stroke="#ccc" stroke-miterlimit="10" stroke-width="1.5"/>
      <path d="M760.136,411.885v34.284h-2.822v-28.712l-6.647,11.923h-3.068l-6.65-11.923v28.712h-2.821v-34.284h2.944l8.061,14.452,8.061-14.452h2.944Z" fill="#ccc" stroke="#ccc" stroke-miterlimit="10" stroke-width="1.5"/>
      <path d="M787.562,416.469c.65,1.305.995,2.792.995,4.3v15.379c0,1.509-.345,2.997-.995,4.299-.612,1.225-1.535,2.37-2.743,3.404-1.079.9-2.239,1.511-3.461,1.83-1.114.406-2.316.612-3.665.625h-.142c-1.508-.011-2.711-.214-3.881-.653-1.275-.479-2.408-1.129-3.372-1.932-1.224-1.048-2.146-2.194-2.757-3.416-.652-1.302-.996-2.79-.996-4.299v-15.379c0-1.51.346-2.997.996-4.299.61-1.225,1.535-2.369,2.742-3.404,1.078-.899,2.238-1.51,3.46-1.829,1.149-.42,2.397-.626,3.807-.626,1.514,0,2.868.22,4.023.655,1.272.477,2.406,1.127,3.371,1.93,1.072.918,1.923,2.033,2.616,3.415h0ZM785.732,436.147v-15.379c0-1.072-.241-2.123-.697-3.038-.527-1.054-1.134-1.855-1.913-2.522-.705-.587-1.566-1.077-2.539-1.442-.828-.311-1.875-.474-3.032-.474-1.11,0-2.03.151-2.891.474l-.154.048c-.835.209-1.643.635-2.399,1.267-.906.776-1.599,1.625-2.041,2.51-.457.915-.698,1.964-.698,3.038v15.377c0,1.074.243,2.125.698,3.038.44.883,1.134,1.732,2.055,2.522.705.587,1.566,1.077,2.541,1.443.857.322,1.772.468,2.957.474,1.079-.006,1.977-.157,2.825-.474l.152-.048c.835-.209,1.644-.635,2.402-1.267.904-.776,1.597-1.625,2.039-2.51.455-.912.696-1.963.696-3.036h0Z" fill="#ccc" stroke="#ccc" stroke-miterlimit="10" stroke-width="1.5"/>
      <path d="M816.975,423.432v9.735c0,1.931-.329,3.771-.948,5.32-.589,1.624-1.506,3.079-2.709,4.283-.91,1.067-2.075,1.905-3.396,2.413-1.301.641-2.63.964-3.951.964h-11.005v-35.836h11.005c1.458,0,2.818.325,4.157.995,1.385.693,2.496,1.543,3.404,2.602.9.896,1.718,2.256,2.496,4.205.643,1.764.947,3.491.947,5.32ZM814.153,423.432c0-1.515-.242-2.887-.762-4.314-.616-1.539-1.234-2.599-1.93-3.294-.741-.858-1.543-1.466-2.597-1.994-.951-.475-1.871-.697-2.895-.697h-8.184v30.193h8.184c.902,0,1.829-.236,2.755-.698l.136-.06c.911-.34,1.691-.901,2.387-1.712.983-.991,1.68-2.098,2.144-3.374.497-1.243.762-2.76.762-4.314v-9.735Z" fill="#ccc" stroke="#ccc" stroke-miterlimit="10" stroke-width="1.5"/>
      <path d="M826.207,413.274v11.569h10.158v2.822h-10.158v15.661h18.482v2.822h-21.304v-35.695h21.304v2.822h-18.482Z" fill="#ccc" stroke="#ccc" stroke-miterlimit="10" stroke-width="1.5"/>
      <path d="M1038.062,426.964l-.146,19.184-2.821-.021.08-10.713h-16.306v10.723h-2.821v-19.178l9.668-15.108h2.674l9.672,15.114ZM1035.197,432.59l.036-4.812-8.18-12.781-8.184,12.785v4.809h16.327Z" fill="#ccc" stroke="#ccc" stroke-miterlimit="10" stroke-width="1.5"/>
      <path d="M1054.203,413.292v30.193h6.914v2.822h-16.648v-2.822h6.913v-30.193h-6.913v-2.822h16.648v2.822h-6.914Z" fill="#ccc" stroke="#ccc" stroke-miterlimit="10" stroke-width="1.5"/>
      <path d="M1089.557,423.432v9.735c0,1.931-.329,3.771-.948,5.32-.589,1.624-1.506,3.079-2.709,4.283-.91,1.067-2.075,1.905-3.396,2.413-1.301.641-2.63.964-3.951.964h-11.005v-35.836h11.005c1.458,0,2.818.325,4.157.995,1.385.693,2.496,1.543,3.404,2.602.9.896,1.718,2.256,2.496,4.205.643,1.764.947,3.491.947,5.32ZM1086.734,423.432c0-1.515-.242-2.887-.762-4.314-.616-1.539-1.234-2.599-1.93-3.294-.741-.858-1.543-1.466-2.597-1.994-.951-.475-1.871-.697-2.895-.697h-8.184v30.193h8.184c.902,0,1.829-.236,2.755-.698l.136-.06c.911-.34,1.691-.901,2.387-1.712.983-.991,1.68-2.098,2.144-3.374.497-1.243.762-2.76.762-4.314v-9.735Z" fill="#ccc" stroke="#ccc" stroke-miterlimit="10" stroke-width="1.5"/>
      <path d="M1098.788,413.274v11.569h10.158v2.822h-10.158v15.661h18.482v2.822h-21.304v-35.695h21.304v2.822h-18.482Z" fill="#ccc" stroke="#ccc" stroke-miterlimit="10" stroke-width="1.5"/>
      <path d="M1145.71,423.432v9.735c0,1.931-.329,3.771-.948,5.32-.589,1.624-1.506,3.079-2.709,4.283-.91,1.067-2.075,1.905-3.396,2.413-1.301.641-2.63.964-3.951.964h-11.005v-35.836h11.005c1.458,0,2.818.325,4.157.995,1.385.693,2.496,1.543,3.404,2.602.9.896,1.718,2.256,2.496,4.205.643,1.764.947,3.491.947,5.32ZM1142.888,423.432c0-1.515-.242-2.887-.762-4.314-.616-1.539-1.234-2.599-1.93-3.294-.741-.858-1.543-1.466-2.597-1.994-.951-.475-1.871-.697-2.895-.697h-8.184v30.193h8.184c.902,0,1.829-.236,2.755-.698l.136-.06c.911-.34,1.691-.901,2.387-1.712.983-.991,1.68-2.098,2.144-3.374.497-1.243.762-2.76.762-4.314v-9.735Z" fill="#ccc" stroke="#ccc" stroke-miterlimit="10" stroke-width="1.5"/>
    </g>
    <g>
      <rect x="436.176" y="588.635" width="192.156" height="52.826" fill="none"/>
      <path d="M455.741,616.712h-9.312v4.753l-7.804-6.188,7.804-5.921v4.535h9.312v2.821Z" fill="#ccc" stroke="#ccc" stroke-miterlimit="10" stroke-width="1.5"/>
      <path d="M464.967,600.314v11.568h9.171v2.822h-9.171v17.071h-2.822v-34.284h21.305v2.822h-18.483Z" fill="#ccc" stroke="#ccc" stroke-miterlimit="10" stroke-width="1.5"/>
      <path d="M503.881,617.474l8.149,13.498v.816h-2.112l-.507.307-8.622-14.278c-.062,0-.127.004-.188.004h-7.902v13.968h-2.822v-34.426h10.582c1.628,0,3.239.336,4.666.969,1.531.681,2.777,1.515,3.81,2.549.838.837,1.458,1.923,2.06,2.973l.075.15c.559,1.306.82,2.469.82,3.659,0,1.236-.284,2.55-.82,3.801-.472,1.101-1.251,2.239-2.134,3.122-.816.816-2.135,1.903-3.795,2.458-.417.187-.837.323-1.259.432h0ZM492.7,600.185v14.814h7.902c1.586,0,2.572-.165,3.518-.584,1.016-.347,1.971-.976,2.82-1.824.629-.631,1.205-1.469,1.537-2.241.386-.901.591-1.831.591-2.688,0-.787-.173-1.554-.56-2.476-.52-.907-1.009-1.754-1.566-2.312-.797-.797-1.738-1.422-2.961-1.967-1.066-.473-2.283-.724-3.519-.724h-7.761Z" fill="#ccc" stroke="#ccc" stroke-miterlimit="10" stroke-width="1.5"/>
      <path d="M521.266,598.892v11.569h10.159v2.822h-10.159v15.661h18.483v2.821h-21.305v-35.695h21.305v2.821h-18.483Z" fill="#ccc" stroke="#ccc" stroke-miterlimit="10" stroke-width="1.5"/>
      <path d="M549,598.892v11.569h10.159v2.822h-10.159v15.661h18.483v2.821h-21.305v-35.695h21.305v2.821h-18.483Z" fill="#ccc" stroke="#ccc" stroke-miterlimit="10" stroke-width="1.5"/>
      <path d="M594.652,629.104v2.821h-20.317v-2.749l15.973-30.124h-16.396v-2.822h19.329v3.313l-15.673,29.561h17.084Z" fill="#ccc" stroke="#ccc" stroke-miterlimit="10" stroke-width="1.5"/>
      <path d="M603.879,598.892v11.569h10.159v2.822h-10.159v15.661h18.483v2.821h-21.305v-35.695h21.305v2.821h-18.483Z" fill="#ccc" stroke="#ccc" stroke-miterlimit="10" stroke-width="1.5"/>
    </g>
    <g>
      <rect x="427.437" y="277.977" width="178.303" height="52.826" fill="none"/>
      <path d="M447.751,310.723v12.416h-2.822v-12.416h-9.19l10.592-10.592,10.8,10.592h-9.38Z" fill="#ccc" stroke="#ccc" stroke-miterlimit="10" stroke-width="1.5"/>
      <path d="M473.306,288.254v30.193h6.913v2.822h-16.648v-2.822h6.914v-30.193h-6.914v-2.822h16.648v2.822h-6.913Z" fill="#ccc" stroke="#ccc" stroke-miterlimit="10" stroke-width="1.5"/>
      <path d="M508.659,286.654v34.455h-2.799l-16.389-29.029v29.005h-2.822v-34.285h3.082l16.106,28.528v-28.675h2.822Z" fill="#ccc" stroke="#ccc" stroke-miterlimit="10" stroke-width="1.5"/>
      <path d="M537.083,301.925l-.146,19.184-2.822-.021.081-10.713h-16.306v10.723h-2.822v-19.178l9.669-15.108h2.673l9.672,15.114ZM534.217,307.552l.037-4.812-8.18-12.781-8.183,12.785v4.809h16.327Z" fill="#ccc" stroke="#ccc" stroke-miterlimit="10" stroke-width="1.5"/>
      <path d="M569.59,286.837v7.705l-22.193,26.721h-3.908v-34.425h2.822v31.315l20.458-24.631v-6.684h2.822Z" fill="#ccc" stroke="#ccc" stroke-miterlimit="10" stroke-width="1.5"/>
      <path d="M588.036,310.723v12.416h-2.822v-12.416h-9.19l10.592-10.592,10.8,10.592h-9.38Z" fill="#ccc" stroke="#ccc" stroke-miterlimit="10" stroke-width="1.5"/>
    </g>
    <g>
      <rect x="897.652" y="588.635" width="250.365" height="52.826" fill="none"/>
      <path d="M981.725,597.495v24.407c0,1.561-.366,3.062-1.033,4.228-.573,1.151-1.496,2.298-2.706,3.334-1.019.851-2.119,1.322-3.185,1.778-1.233.464-2.501.678-3.94.678-1.513,0-2.867-.219-4.024-.654-1.271-.476-2.405-1.125-3.37-1.929-1.026-.882-2.059-1.876-2.757-3.276-.671-1.338-.996-2.7-.996-4.157v-24.408h2.821v24.408c0,1.024.222,1.944.699,2.896.448.899,1.146,1.602,2.054,2.383.705.586,1.566,1.076,2.54,1.441.828.312,1.876.476,3.031.476,1.107,0,2.028-.151,2.89-.474.859-.371,1.728-.742,2.414-1.315.907-.778,1.601-1.627,2.04-2.511.457-.804.698-1.835.698-2.896v-24.408h2.824Z" fill="#ccc" stroke="#ccc" stroke-miterlimit="10" stroke-width="1.5"/>
      <path d="M1009.464,604.004c.559,1.301.82,2.465.82,3.659,0,1.24-.284,2.554-.82,3.803-.471,1.097-1.248,2.235-2.133,3.12-.815.816-2.135,1.904-3.796,2.459-1.543.691-3.335.776-4.539.776h-8.04v13.968h-2.822v-34.426h10.723c1.697,0,3.18.309,4.666.969,1.528.681,2.774,1.515,3.81,2.549.885.885,1.662,2.021,2.134,3.123h-.002ZM1006.874,610.352c.386-.9.591-1.83.591-2.689,0-.812-.182-1.597-.591-2.548-.326-.76-.915-1.618-1.535-2.239-.799-.797-1.739-1.423-2.962-1.966-1.127-.502-2.212-.725-3.519-.725h-7.9v14.814h8.04c1.525,0,2.609-.18,3.519-.584,1.016-.346,1.972-.976,2.82-1.824.622-.623,1.211-1.479,1.535-2.239h.002Z" fill="#ccc" stroke="#ccc" stroke-miterlimit="10" stroke-width="1.5"/>
      <path d="M1038.71,609.051v9.736c0,1.931-.329,3.771-.948,5.32-.588,1.623-1.506,3.078-2.709,4.283-.91,1.066-2.075,1.904-3.396,2.412-1.301.641-2.63.964-3.952.964h-11.005v-35.837h11.005c1.459,0,2.818.325,4.158.995,1.384.692,2.495,1.544,3.404,2.602.899.896,1.717,2.257,2.495,4.204.643,1.764.947,3.491.947,5.32ZM1035.888,609.051c0-1.515-.242-2.887-.762-4.314-.616-1.539-1.234-2.598-1.93-3.294-.741-.858-1.542-1.466-2.597-1.993-.95-.476-1.87-.697-2.895-.697h-8.184v30.193h8.184c.902,0,1.83-.236,2.755-.699l.136-.059c.911-.34,1.691-.902,2.388-1.713.983-.99,1.679-2.098,2.143-3.373.497-1.244.762-2.76.762-4.314v-9.736Z" fill="#ccc" stroke="#ccc" stroke-miterlimit="10" stroke-width="1.5"/>
      <path d="M1067.134,612.583l-.146,19.184-2.821-.021.08-10.713h-16.306v10.723h-2.821v-19.179l9.669-15.108h2.673l9.672,15.114ZM1064.268,618.209l.036-4.812-8.18-12.781-8.184,12.785v4.809h16.327Z" fill="#ccc" stroke="#ccc" stroke-miterlimit="10" stroke-width="1.5"/>
      <path d="M1094.14,600.375h-8.889v31.463h-2.821v-31.463h-8.89v-2.821h20.6v2.821Z" fill="#ccc" stroke="#ccc" stroke-miterlimit="10" stroke-width="1.5"/>
      <path d="M1103.36,598.892v11.57h10.158v2.821h-10.158v15.661h18.482v2.821h-21.305v-35.695h21.305v2.821h-18.482Z" fill="#ccc" stroke="#ccc" stroke-miterlimit="10" stroke-width="1.5"/>
      <path d="M1137.583,621.455v-4.693h-9.312v-2.822h9.312v-4.479l7.996,5.864-7.996,6.13Z" fill="#ccc" stroke="#ccc" stroke-miterlimit="10" stroke-width="1.5"/>
    </g>
    <g>
      <rect x="432.323" y="675.965" width="48.49" height="58.293" fill="none"/>
      <path d="M462.381,725.812v-7.091h-11.934v7.18l-11.787-9.349,11.787-8.942v6.85h11.934v-6.764l12.076,8.856-12.076,9.26Z" fill="#ccc" stroke="#ccc" stroke-miterlimit="10"/>
    </g>
    <g>
      <rect x="972.329" y="277.977" width="178.303" height="52.826" fill="none"/>
      <path d="M1019.722,306.817l8.149,13.498v.817h-2.112l-.507.306-8.621-14.278c-.062,0-.127.004-.188.004h-7.902v13.968h-2.821v-34.425h10.581c1.629,0,3.239.336,4.666.968,1.531.681,2.777,1.515,3.81,2.549.838.837,1.459,1.923,2.06,2.973l.075.15c.559,1.306.82,2.469.82,3.66,0,1.236-.284,2.55-.82,3.801-.473,1.1-1.252,2.239-2.135,3.122-.815.816-2.135,1.904-3.795,2.458-.417.186-.837.323-1.259.432h0ZM1008.54,289.527v14.814h7.902c1.586,0,2.572-.165,3.518-.584,1.016-.346,1.971-.975,2.82-1.824.629-.631,1.205-1.469,1.537-2.24.386-.902.591-1.832.591-2.688,0-.788-.174-1.553-.561-2.476-.52-.908-1.009-1.754-1.565-2.312-.798-.797-1.738-1.422-2.962-1.966-1.066-.473-2.283-.725-3.519-.725h-7.762Z" fill="#ccc" stroke="#ccc" stroke-miterlimit="10" stroke-width="1.5"/>
      <path d="M1056.295,286.654v34.455h-2.8l-16.389-29.029v29.005h-2.821v-34.285h3.081l16.106,28.528v-28.675h2.822Z" fill="#ccc" stroke="#ccc" stroke-miterlimit="10" stroke-width="1.5"/>
      <path d="M1084.719,301.925l-.146,19.184-2.821-.021.08-10.713h-16.306v10.723h-2.821v-19.178l9.669-15.108h2.673l9.672,15.114ZM1081.853,307.552l.036-4.812-8.18-12.781-8.184,12.785v4.809h16.327Z" fill="#ccc" stroke="#ccc" stroke-miterlimit="10" stroke-width="1.5"/>
      <path d="M1117.225,286.837v7.705l-22.192,26.721h-3.908v-34.425h2.821v31.315l20.458-24.631v-6.684h2.821Z" fill="#ccc" stroke="#ccc" stroke-miterlimit="10" stroke-width="1.5"/>
    </g>
    <g>
      <rect x="435.863" y="466.778" width="192.156" height="52.826" fill="none"/>
      <path d="M438.313,490.236c0-1.637,1.264-2.963,2.822-2.963s2.822,1.326,2.822,2.963-1.263,2.963-2.822,2.963-2.822-1.327-2.822-2.963ZM438.313,506.743c0-1.636,1.264-2.963,2.822-2.963s2.822,1.327,2.822,2.963-1.263,2.963-2.822,2.963-2.822-1.326-2.822-2.963Z" fill="#ccc" stroke="#ccc" stroke-miterlimit="10" stroke-width="1.5"/>
      <path d="M472.376,487.194v9.734c0,1.932-.329,3.771-.948,5.32-.588,1.624-1.505,3.079-2.708,4.284-.91,1.066-2.076,1.904-3.396,2.412-1.301.641-2.63.964-3.952.964h-11.005v-35.837h11.005c1.459,0,2.819.325,4.158.995,1.384.692,2.496,1.544,3.404,2.602.9.896,1.717,2.256,2.496,4.204.642,1.764.947,3.491.947,5.321ZM469.555,487.194c0-1.516-.243-2.887-.762-4.314-.617-1.54-1.234-2.6-1.93-3.295-.741-.857-1.542-1.466-2.596-1.993-.951-.476-1.871-.697-2.895-.697h-8.183v30.193h8.183c.903,0,1.83-.236,2.755-.699l.136-.059c.911-.34,1.691-.902,2.387-1.713.983-.99,1.679-2.099,2.143-3.374.497-1.242.762-2.76.762-4.314v-9.734Z" fill="#ccc" stroke="#ccc" stroke-miterlimit="10" stroke-width="1.5"/>
      <path d="M500.797,475.647v34.284h-2.822v-28.713l-6.648,11.924h-3.068l-6.65-11.924v28.713h-2.822v-34.284h2.945l8.06,14.452,8.061-14.452h2.945Z" fill="#ccc" stroke="#ccc" stroke-miterlimit="10" stroke-width="1.5"/>
      <path d="M529.217,475.647v34.284h-2.822v-28.713l-6.648,11.924h-3.068l-6.65-11.924v28.713h-2.822v-34.284h2.945l8.06,14.452,8.061-14.452h2.945Z" fill="#ccc" stroke="#ccc" stroke-miterlimit="10" stroke-width="1.5"/>
    </g>
    <g>
      <rect x="941.087" y="466.778" width="206.618" height="52.826" fill="none"/>
      <path d="M949.287,477.036v11.569h10.158v2.822h-10.158v15.661h18.482v2.822h-21.304v-35.695h21.304v2.822h-18.482Z" fill="#ccc" stroke="#ccc" stroke-miterlimit="10" stroke-width="1.5"/>
      <path d="M996.209,475.455v34.455h-2.8l-16.389-29.029v29.005h-2.821v-34.285h3.081l16.106,28.528v-28.675h2.822Z" fill="#ccc" stroke="#ccc" stroke-miterlimit="10" stroke-width="1.5"/>
      <path d="M1015.035,490.725h10.158v10.158c0,1.06,0,2.663-.92,4.134l-.126.19c-.552.833-1.121,1.693-2.439,2.516-.65.494-2.244,1.26-3.354,1.676-1.174.44-2.536.655-4.164.655s-2.989-.214-4.163-.655c-1.443-.542-2.624-1.191-3.512-1.93-1.246-.933-2.062-2.075-2.782-3.083l-.117-.193c-.652-1.302-.996-2.79-.996-4.299v-15.52c0-1.723.371-3.085,1.202-4.416.664-1.345,1.93-2.525,2.817-3.288,1.045-.87,2.307-1.343,3.525-1.8,1.176-.442,2.538-.656,4.167-.656s2.989.214,4.163.655c1.091.408,2.25.962,3.45,1.646l.146.096c1.449,1.088,2.491,2.253,3.096,3.461l-2.524,1.263c-.398-.796-1.136-1.607-2.195-2.413-1.027-.581-2.05-1.068-2.963-1.411-.853-.32-1.89-.476-3.173-.476s-2.322.154-3.174.474c-1.048.394-2.035.763-2.697,1.315-.686.59-1.679,1.507-2.18,2.51-.608.985-.84,1.858-.84,3.038v15.52c0,1.037.226,2.051.652,2.943.638.89,1.25,1.729,2.171,2.418.691.573,1.624,1.076,2.753,1.5.853.32,1.889.476,3.173.476s2.321-.155,3.173-.474c1.075-.403,2.341-1.051,2.753-1.36.896-.567,1.209-1.037,1.681-1.75l.107-.163c.468-.75.468-1.735.468-2.603v-7.336h-7.336v-2.819Z" fill="#ccc" stroke="#ccc" stroke-miterlimit="10" stroke-width="1.5"/>
      <path d="M1053.071,507.248v2.822h-21.445v-34.285h2.822v31.463h18.623Z" fill="#ccc" stroke="#ccc" stroke-miterlimit="10" stroke-width="1.5"/>
      <path d="M1069.242,477.055v30.193h6.913v2.822h-16.648v-2.822h6.914v-30.193h-6.914v-2.822h16.648v2.822h-6.913Z" fill="#ccc" stroke="#ccc" stroke-miterlimit="10" stroke-width="1.5"/>
      <path d="M1103.717,495.942c.612,1.213.907,2.407.907,3.547,0,3.039-1.115,5.535-3.315,7.419-2.056,1.899-4.656,2.88-7.689,2.88h-.282c-2.86,0-5.495-1.017-7.832-3.021-1.825-1.545-2.36-2.91-2.748-3.906-.059-.145-.111-.285-.17-.419l2.594-1.113c.069.161.135.329.204.504.326.834.663,1.696,1.951,2.785,1.845,1.583,3.806,2.348,6.002,2.348h.282c2.334,0,4.237-.708,5.814-2.166,1.63-1.397,2.369-3.073,2.369-5.312,0-.694-.198-1.473-.558-2.191-.309-.506-.758-1.175-1.354-1.573-.686-.542-1.566-1.049-2.453-1.429-.576-.247-1.224-.446-1.975-.676-.416-.128-.851-.262-1.302-.412l-4.149-1.105c-2.236-.687-3.849-1.721-4.981-3.177-1.229-1.579-1.852-3.436-1.852-5.522,0-2.581,1.071-4.794,3.181-6.581,2.005-1.851,4.28-2.733,7.12-2.733h.281c2.853.165,5.234,1.143,7.161,2.909,1.465,1.301,2.351,2.857,2.692,4.739l-2.778.502c-.229-1.271-.786-2.242-1.805-3.148-1.451-1.331-3.249-2.061-5.354-2.186l-.198.003c-2.115,0-3.736.625-5.252,2.025-1.514,1.284-2.228,2.731-2.228,4.467,0,1.445.424,2.719,1.256,3.79.776.998,1.899,1.696,3.534,2.2l4.182,1.114c.513.167.925.293,1.319.415.796.244,1.545.474,2.261.78,1.124.481,2.219,1.117,3.006,1.747.963.636,1.64,1.623,2.162,2.493h-.003Z" fill="#ccc" stroke="#ccc" stroke-miterlimit="10" stroke-width="1.5"/>
      <path d="M1133.205,477.046v32.874h-2.822v-14.955h-16.508v14.955h-2.821v-32.874h2.821v15.097h16.508v-15.097h2.822Z" fill="#ccc" stroke="#ccc" stroke-miterlimit="10" stroke-width="1.5"/>
      <path d="M1139.62,490.237c0-1.636,1.264-2.963,2.821-2.963s2.822,1.327,2.822,2.963-1.264,2.963-2.822,2.963-2.821-1.326-2.821-2.963ZM1139.62,506.744c0-1.636,1.264-2.963,2.821-2.963s2.822,1.327,2.822,2.963-1.264,2.963-2.822,2.963-2.821-1.326-2.821-2.963Z" fill="#ccc" stroke="#ccc" stroke-miterlimit="10" stroke-width="1.5"/>
    </g>
  </g>
  <g id="RNAV_INAV_Page_Arrows_-_Dark">
    <path d="M446.551,229.907l-66.795-36.941-3.526,12.529L110.262,120.746c1.365-4.467,2.176-9.18,2.321-14.069.878-29.571-22.466-54.343-52.037-55.22S6.203,73.922,5.326,103.493c-.878,29.57,22.466,54.342,52.037,55.22,21.535.639,40.512-11.574,49.582-29.676l266.874,85.025-3.526,12.529,76.257,3.316ZM57.6,150.717c-25.202-.748-45.026-21.785-44.278-46.986.748-25.202,21.785-45.026,46.986-44.278,25.202.748,45.026,21.785,44.278,46.986-.748,25.202-21.785,45.026-46.986,44.278Z" fill="#ccc" stroke="#0d121e" stroke-miterlimit="10" stroke-width="2"/>
    <path d="M1203.652,662.478l1.469-12.932,263.808,34.905c-.882,28.689,21.322,53.674,50.93,55.2,27.269,1.406,51.528-18.361,55.7-45.346,4.676-30.248-16.838-58.128-46.96-61.55-27.904-3.17-53.303,15.778-58.666,42.853l-263.808-34.905,1.469-12.932-75.801,8.965,71.858,25.742ZM1477.182,680.91c2.846-25.052,25.462-43.053,50.514-40.207,25.052,2.846,43.053,25.462,40.207,50.514-2.846,25.052-25.462,43.053-50.514,40.207-25.052-2.846-43.053-25.462-40.207-50.514Z" fill="#ccc" stroke="#0d121e" stroke-miterlimit="10" stroke-width="2"/>
    <path d="M1233.391,380.348l-4.536-12.199,247.652-92.658c10.515,17.302,30.426,27.927,51.837,25.535,29.401-3.286,50.647-29.879,47.361-59.279-3.286-29.401-29.879-50.647-59.28-47.361s-50.647,29.879-47.361,59.279c.543,4.861,1.735,9.492,3.46,13.833l-246.772,92.309-4.536-12.199-63.561,42.264,75.733-9.523ZM1477.016,252.776c-2.8-25.057,15.242-47.64,40.299-50.44s47.64,15.242,50.44,40.299c2.8,25.057-15.242,47.64-40.299,50.44s-47.64-15.242-50.44-40.299Z" fill="#ccc" stroke="#0d121e" stroke-miterlimit="10" stroke-width="2"/>
    <path d="M424.251,389.871l-63.561-42.264-4.536,12.199-246.772-92.309c1.725-4.341,2.917-8.972,3.46-13.833,3.286-29.401-17.96-55.994-47.361-59.279-29.401-3.286-55.994,17.96-59.28,47.361-3.286,29.4,17.96,55.993,47.361,59.279,21.411,2.393,41.321-8.232,51.837-25.535l247.652,92.658-4.536,12.199,75.733,9.523ZM54.453,293.075c-25.057-2.8-43.1-25.383-40.299-50.44s25.383-43.1,50.44-40.299,43.1,25.383,40.299,50.44c-2.8,25.057-25.383,43.1-50.44,40.299Z" fill="#ccc" stroke="#0d121e" stroke-miterlimit="10" stroke-width="2"/>
    <path d="M358.265,643.845l4.146,12.337-256.219,93.535c-9.96-17.628-29.523-28.88-50.999-27.168-29.49,2.35-51.571,28.255-49.221,57.745,2.35,29.49,28.255,51.571,57.745,49.221,29.49-2.35,51.57-28.255,49.22-57.745-.389-4.876-1.433-9.542-3.019-13.936l255.328-93.214,4.146,12.337,64.871-40.223-75.997,7.112ZM104.962,772.405c2.003,25.133-16.748,47.132-41.881,49.135-25.133,2.003-47.132-16.748-49.135-41.881-2.003-25.133,16.748-47.132,41.881-49.135s47.132,16.748,49.135,41.881Z" fill="#ccc" stroke="#0d121e" stroke-miterlimit="10" stroke-width="2"/>
    <path d="M361.49,508.116l3.152,12.628-256.581,69.903c-8.529-18.363-27.136-31.134-48.68-31.134-29.584,0-53.652,24.068-53.652,53.652s24.068,53.652,53.652,53.652,53.652-24.068,53.652-53.652c0-4.891-.67-9.626-1.902-14.132l255.668-69.654,3.152,12.628,67.862-34.943-76.322,1.052ZM105.033,613.165c0,25.213-20.439,45.652-45.652,45.652s-45.652-20.439-45.652-45.652c0-25.213,20.439-45.652,45.652-45.652s45.652,20.439,45.652,45.652Z" fill="#ccc" stroke="#0d121e" stroke-miterlimit="10" stroke-width="2"/>
    <path d="M1214.865,497.354l-3.509-12.533,260.969-75.4c9.604,25.877,37.695,40.54,64.739,32.969,28.488-7.976,45.176-37.642,37.2-66.131-7.976-28.488-37.642-45.176-66.131-37.2-27.044,7.572-43.437,34.69-38.208,61.792l-260.969,75.4-3.509-12.533-66.844,36.852,76.262-3.215ZM1478.637,403.032c-6.798-24.279,7.374-49.472,31.653-56.27s49.472,7.374,56.27,31.653c6.798,24.279-7.374,49.472-31.653,56.27s-49.472-7.374-56.27-31.653Z" fill="#ccc" stroke="#0d121e" stroke-miterlimit="10" stroke-width="2"/>
    <path d="M67.699,124.93v4.607h-14.744v-4.607h5.068v-47.279l-3.601,2.981-2.938-3.55,7.319-6.057h3.827v53.905h5.068Z" fill="#ff8500" stroke="#ff8500" stroke-miterlimit="10"/>
    <path d="M1539.459,399.082c1.283,2.244,1.456,4.4,1.456,6.211v2.073c0,1.949-.427,3.847-1.339,5.976l-.117.235c-1.053,1.845-2.394,3.451-3.981,4.773-1.451,1.209-3.379,2.269-5.733,3.151-1.917.719-4.14,1.069-6.799,1.069-2.275,0-4.492-.477-6.549-.991l-.249-.078c-2.354-.882-4.285-1.944-5.734-3.151-1.587-1.323-2.926-2.931-3.98-4.773-1.283-2.244-1.456-4.398-1.456-6.211-.017-.32-.451-10.42,1.205-17.999,2.214-9.581,12.629-20.001,19.301-23.851l2.301,3.99c-5.918,3.414-15.29,13.007-17.105,20.87-.302,1.377-.524,2.868-.693,4.372.392-.343.805-.672,1.235-.988,1.216-.974,3.57-2.32,5.568-2.891,2.006-.576,10.556-.613,12.958.288,2.353.882,4.282,1.944,5.734,3.154,1.587,1.322,2.928,2.93,3.98,4.773l-.002-.002ZM1536.311,407.37v-2.073c0-1.755-.237-2.856-.848-3.925-.778-1.364-1.765-2.55-2.931-3.52-1.038-.866-2.562-1.689-4.402-2.377-1.35-.479-8.733-.525-10.081-.173-1.324.38-3.123,1.396-4.026,2.117-2.765,2.029-4.435,4.762-4.435,7.185h-.058c.009,1.606.055,2.631.055,2.661.003,1.862.24,2.96.851,4.029.78,1.364,1.767,2.55,2.93,3.52,1.012.846,2.491,1.649,4.281,2.332,1.731.431,3.568.82,5.301.82,2.096,0,3.789-.253,5.181-.774,1.843-.693,3.366-1.513,4.402-2.377,1.134-.942,2.097-2.089,2.866-3.407.629-1.5.912-2.748.912-4.036h.002Z" fill="#ff8500" stroke="#ff8500" stroke-miterlimit="10"/>
    <path d="M1536.979,248.048c.875,2.045,1.338,4.193,1.338,6.208v11.288c0,2.018-.463,4.163-1.338,6.207-.853,1.993-2.263,3.902-3.866,5.238-1.234,1.03-3.149,2.498-5.503,3.382-2.366.887-4.456,1.299-6.57,1.299-2.408,0-5.419-.521-7.489-1.297-2.3-.864-4.149-2.016-5.658-3.524-1.451-1.196-2.859-3.105-3.714-5.098-.516-1.023-.795-2.133-1.039-3.113l-.069-.56v-2.073h4.607v1.79c.187.742.369,1.396.678,2.016.634,1.472,1.575,2.753,2.64,3.64,1.203,1.189,2.479,1.972,4.173,2.608,1.553.581,4.024,1.004,5.872,1.004,1.566,0,3.094-.311,4.95-1.006,1.293-.486,2.619-1.313,4.172-2.608,1.062-.887,2.005-2.17,2.583-3.516.631-1.475.965-2.993.965-4.391v-11.288c0-1.398-.334-2.917-.965-4.393-.576-1.346-1.519-2.626-2.583-3.513-1.202-1.187-2.479-1.972-4.172-2.605l-.705-.272c-1.287-.504-1.877-.735-4.245-.735-2.89,0-5.204.617-7.287,1.944-1.555.972-2.931,2.348-3.891,3.884l-.678,1.083h-6.114v-26.723h34.786v4.607h-30.179v16.301c1.056-1.18,2.276-2.212,3.617-3.05,2.799-1.783,5.994-2.654,9.745-2.654,3.08,0,4.257.398,5.923,1.05l.645.249c2.3.861,4.149,2.013,5.658,3.522,1.449,1.195,2.858,3.103,3.714,5.096v.002Z" fill="#ff8500" stroke="#ff8500" stroke-miterlimit="10"/>
    <path d="M1537.876,656.856v6.517l-23.729,49.067v.624h-4.607v-1.679l23.729-49.067v-.854h-29.719v-4.607h34.326Z" fill="#ff8500" stroke="#ff8500" stroke-miterlimit="10"/>
    <path d="M75.29,613.306c.871,2.034,1.297,5.965,1.297,7.95,0,2.124,0,3.527-1,7.275-.882,3.522-2.69,5.894-4.052,7.255-1.522,1.521-4.432,3.462-6.828,4.062-2.26.76-5.951.76-7.932.76-2.341,0-6.397-1.32-8.049-2.027-1.933-.829-5.561-3.275-7.766-5.233l3.062-3.444c1.928,1.714,5.197,3.875,6.52,4.443,1.521.652,4.884,1.657,6.234,1.657,1.599,0,4.925,0,6.644-.574,1.474-.375,3.665-1.707,4.858-2.9.949-.946,2.216-2.612,2.85-5.148.853-3.198.853-4.114.853-6.121,0-2.046-.468-5.077-.965-6.236-.567-1.502-1.255-2.645-2.417-4.038-1.011-1.215-2.115-2.083-3.283-2.583-1.449-.622-2.983-1.198-4.391-1.198h-6.22v-5.017l13.689-15.486h-21.061v-4.607h26.032v5.936l-12.873,14.564h.433c2.246,0,4.398.793,6.206,1.569,1.841.79,3.527,2.092,5.008,3.867,1.5,1.797,2.442,3.375,3.154,5.273l-.002.002Z" fill="#ff8500" stroke="#ff8500" stroke-miterlimit="10"/>
    <path d="M69.925,784.856h6.22v4.607h-6.22v11.519h-4.607v-11.519h-23.959v-5.016l23.805-39.677h4.759v40.082l.002.003ZM65.315,753.469l-18.831,31.384h18.831v-31.384Z" fill="#ff8500" stroke="#ff8500" stroke-miterlimit="10"/>
    <path d="M48.064,275.078h28.483v4.607h-34.786v-4.591l6.056-6.609c3.175-3.536,6.086-6.778,8.851-9.727,1.373-1.373,2.749-2.979,4.078-4.531,1.389-1.62,6.939-7.865,6.939-7.865.629-.634.983-1.081,1.221-1.375.141-.177.26-.32.359-.431.675-.859,1.242-1.947,1.643-3.149.38-1.14.574-2.053.574-3.879,0-1.569-.325-3.124-.965-4.621-.583-1.546-1.511-2.661-2.737-3.887-1.398-1.152-2.723-1.981-4.018-2.465-3.705-1.389-6.199-1.387-9.899,0-1.695.636-2.972,1.419-4.02,2.467-1.209,1.209-2.182,2.589-2.737,3.886l-4.234-1.815c.792-1.85,2.078-3.693,3.713-5.329,1.511-1.509,3.361-2.661,5.66-3.522,4.713-1.774,8.411-1.774,13.136,0,2.356.885,4.269,2.354,5.503,3.382,1.511,1.5,3.022,3.209,3.907,5.568.85,1.975,1.299,4.14,1.299,6.338,0,2.423-.311,3.838-.811,5.337-.578,1.737-1.431,3.338-2.46,4.626l-.315.375c-.309.387-.772.965-1.468,1.659.005,0-5.425,6.109-6.791,7.704-1.387,1.617-2.82,3.29-4.267,4.737-2.693,2.873-5.582,6.091-8.733,9.6l-3.179,3.513-.002-.002Z" fill="#ff8500" stroke="#ff8500" stroke-miterlimit="10"/>
  </g>
</svg>