<?xml version="1.0" encoding="UTF-8"?>
<svg xmlns="http://www.w3.org/2000/svg" width="1299.913" height="803.739" viewBox="0 0 1299.913 803.739">
  <g id="Layer_12">
    <path d="M1267.11,770.141l-1222.305.984c-5.445.004-9.861-4.411-9.856-9.857l.667-725.918c.005-5.432,4.408-9.834,9.84-9.839l1222.305-.984c5.445-.004,9.861,4.411,9.856,9.857l-.667,725.918c-.005,5.432-4.408,9.834-9.84,9.839Z" fill="none" stroke="#ccc" stroke-miterlimit="10" stroke-width="11"/>
    <polyline points="648.623 769.26 1195.123 769.759 1195.123 520.182 1270.123 520.182 1270.123 194.105 1195.123 194.105 1195.123 26.519 115.623 26.519 115.623 198.792 37.406 198.792 37.406 519.683 115.623 519.683 115.623 769.26 648.623 769.26" fill="none" stroke="#ccc" stroke-miterlimit="10" stroke-width="8"/>
    <rect x="288.623" y="66.519" width="735" height="553" rx="13.681" ry="13.681" fill="none" stroke="#ccc" stroke-miterlimit="10" stroke-width="5"/>
    <rect x="277.623" y="52.519" width="760" height="580" rx="18.29" ry="18.29" fill="none" stroke="#ccc" stroke-miterlimit="10" stroke-width="5"/>
    <g>
      <rect x="130.623" y="67.519" width="137" height="81" fill="none" stroke="#ccc" stroke-miterlimit="10" stroke-width="5"/>
      <polygon points="250.622 107.769 223.256 80.269 223.256 97.269 148.123 97.269 148.123 118.269 223.256 118.269 223.256 135.269 250.622 107.769" fill="#ccc"/>
    </g>
    <g>
      <rect x="130.775" y="194.367" width="137" height="81" fill="none" stroke="#ccc" stroke-miterlimit="10" stroke-width="5"/>
      <polygon points="250.775 234.617 223.408 207.117 223.408 224.117 148.275 224.117 148.275 245.117 223.408 245.117 223.408 262.117 250.775 234.617" fill="#ccc"/>
    </g>
    <g>
      <rect x="130.775" y="321.367" width="137" height="81" fill="none" stroke="#ccc" stroke-miterlimit="10" stroke-width="5"/>
      <polygon points="250.775 361.617 223.408 334.117 223.408 351.117 148.275 351.117 148.275 372.117 223.408 372.117 223.408 389.117 250.775 361.617" fill="#ccc"/>
    </g>
    <g>
      <rect x="130.602" y="445.802" width="137" height="81" fill="none" stroke="#ccc" stroke-miterlimit="10" stroke-width="5"/>
      <polygon points="250.601 486.052 223.234 458.552 223.234 475.552 148.101 475.552 148.101 496.552 223.234 496.552 223.234 513.552 250.601 486.052" fill="#ccc"/>
    </g>
    <g>
      <rect x="1045.754" y="67.519" width="137" height="81" transform="translate(2228.507 216.039) rotate(-180)" fill="none" stroke="#ccc" stroke-miterlimit="10" stroke-width="5"/>
      <polygon points="1062.755 107.769 1090.122 80.269 1090.122 97.269 1165.254 97.269 1165.254 118.269 1090.122 118.269 1090.122 135.269 1062.755 107.769" fill="#ccc"/>
    </g>
    <g>
      <rect x="1045.602" y="194.367" width="137" height="81" transform="translate(2228.203 469.734) rotate(-180)" fill="none" stroke="#ccc" stroke-miterlimit="10" stroke-width="5"/>
      <polygon points="1062.602 234.617 1089.969 207.117 1089.969 224.117 1165.102 224.117 1165.102 245.117 1089.969 245.117 1089.969 262.117 1062.602 234.617" fill="#ccc"/>
    </g>
    <g>
      <rect x="1045.602" y="321.367" width="137" height="81" transform="translate(2228.203 723.734) rotate(-180)" fill="none" stroke="#ccc" stroke-miterlimit="10" stroke-width="5"/>
      <polygon points="1062.602 361.617 1089.969 334.117 1089.969 351.117 1165.102 351.117 1165.102 372.117 1089.969 372.117 1089.969 389.117 1062.602 361.617" fill="#ccc"/>
    </g>
    <g>
      <rect x="1045.775" y="445.802" width="137" height="81" transform="translate(2228.551 972.604) rotate(-180)" fill="none" stroke="#ccc" stroke-miterlimit="10" stroke-width="5"/>
      <polygon points="1062.776 486.052 1090.143 458.552 1090.143 475.552 1165.276 475.552 1165.276 496.552 1090.143 496.552 1090.143 513.552 1062.776 486.052" fill="#ccc"/>
    </g>
    <circle cx="219.623" cy="602.519" r="30.5" fill="none" stroke="#ccc" stroke-miterlimit="10" stroke-width="5"/>
    <circle cx="1102.623" cy="602.519" r="30.5" fill="none" stroke="#ccc" stroke-miterlimit="10" stroke-width="5"/>
    <rect x="179.123" y="658.974" width="83" height="91" fill="none" stroke="#ccc" stroke-miterlimit="10" stroke-width="5"/>
    <rect x="171.123" y="649.474" width="101" height="110" rx="9.778" ry="9.778" fill="none" stroke="#ccc" stroke-miterlimit="10" stroke-width="5"/>
    <rect x="303.123" y="658.974" width="83" height="91" fill="none" stroke="#ccc" stroke-miterlimit="10" stroke-width="5"/>
    <rect x="295.123" y="649.474" width="101" height="110" rx="9.778" ry="9.778" fill="none" stroke="#ccc" stroke-miterlimit="10" stroke-width="5"/>
    <rect x="427.123" y="658.974" width="83" height="91" fill="none" stroke="#ccc" stroke-miterlimit="10" stroke-width="5"/>
    <rect x="419.123" y="649.474" width="101" height="110" rx="9.778" ry="9.778" fill="none" stroke="#ccc" stroke-miterlimit="10" stroke-width="5"/>
    <rect x="551.123" y="658.974" width="83" height="91" fill="none" stroke="#ccc" stroke-miterlimit="10" stroke-width="5"/>
    <rect x="543.123" y="649.474" width="101" height="110" rx="9.778" ry="9.778" fill="none" stroke="#ccc" stroke-miterlimit="10" stroke-width="5"/>
    <rect x="673.123" y="658.974" width="83" height="91" fill="none" stroke="#ccc" stroke-miterlimit="10" stroke-width="5"/>
    <rect x="665.123" y="649.474" width="101" height="110" rx="9.778" ry="9.778" fill="none" stroke="#ccc" stroke-miterlimit="10" stroke-width="5"/>
    <rect x="800.123" y="658.974" width="83" height="91" fill="none" stroke="#ccc" stroke-miterlimit="10" stroke-width="5"/>
    <rect x="792.123" y="649.474" width="101" height="110" rx="9.778" ry="9.778" fill="none" stroke="#ccc" stroke-miterlimit="10" stroke-width="5"/>
    <rect x="920.123" y="658.974" width="83" height="91" fill="none" stroke="#ccc" stroke-miterlimit="10" stroke-width="5"/>
    <rect x="912.123" y="649.474" width="101" height="110" rx="9.778" ry="9.778" fill="none" stroke="#ccc" stroke-miterlimit="10" stroke-width="5"/>
    <rect x="1045.123" y="658.974" width="83" height="91" fill="none" stroke="#ccc" stroke-miterlimit="10" stroke-width="5"/>
    <rect x="1037.123" y="649.474" width="101" height="110" rx="9.778" ry="9.778" fill="none" stroke="#ccc" stroke-miterlimit="10" stroke-width="5"/>
    <circle cx="76.623" cy="131.519" r="34.5" fill="none" stroke="#ccc" stroke-miterlimit="10" stroke-width="3.5"/>
    <circle cx="76.623" cy="131.519" r="27.5" fill="none" stroke="#ccc" stroke-miterlimit="10" stroke-width="3.5"/>
    <circle cx="77.123" cy="585.019" r="34.5" fill="none" stroke="#ccc" stroke-miterlimit="10" stroke-width="3.5"/>
    <circle cx="77.123" cy="585.019" r="27.5" fill="none" stroke="#ccc" stroke-miterlimit="10" stroke-width="3.5"/>
    <circle cx="77.123" cy="704.019" r="34.5" fill="none" stroke="#ccc" stroke-miterlimit="10" stroke-width="3.5"/>
    <circle cx="77.123" cy="704.019" r="27.5" fill="none" stroke="#ccc" stroke-miterlimit="10" stroke-width="3.5"/>
    <circle cx="1236.123" cy="131.519" r="34.5" fill="none" stroke="#ccc" stroke-miterlimit="10" stroke-width="3.5"/>
    <circle cx="1236.123" cy="131.519" r="27.5" fill="none" stroke="#ccc" stroke-miterlimit="10" stroke-width="3.5"/>
    <circle cx="1235.623" cy="585.019" r="34.5" fill="none" stroke="#ccc" stroke-miterlimit="10" stroke-width="3.5"/>
    <circle cx="1235.623" cy="585.019" r="27.5" fill="none" stroke="#ccc" stroke-miterlimit="10" stroke-width="3.5"/>
    <circle cx="1235.623" cy="704.019" r="34.5" fill="none" stroke="#ccc" stroke-miterlimit="10" stroke-width="3.5"/>
    <circle cx="1235.623" cy="704.019" r="27.5" fill="none" stroke="#ccc" stroke-miterlimit="10" stroke-width="3.5"/>
    <g>
      <rect x="184.912" y="672.07" width="66.913" height="64.957" fill="none"/>
      <path d="M198.826,686.439h6.823v36.208h-6.823v-36.208ZM201.317,686.439h21.292v6.574h-21.292v-6.574ZM201.317,701.704h18.553v6.574h-18.553v-6.574Z" fill="#ccc" stroke="#ccc" stroke-miterlimit="10"/>
      <path d="M237.91,722.647h-6.823v-28.189l-4.407,1.668v-7.246l5.403-2.44h5.827v36.208Z" fill="#ccc" stroke="#ccc" stroke-miterlimit="10"/>
    </g>
    <g>
      <rect x="308.912" y="672.07" width="66.913" height="64.957" fill="none"/>
      <path d="M318.133,686.439h6.823v36.208h-6.823v-36.208ZM320.623,686.439h21.291v6.574h-21.291v-6.574ZM320.623,701.704h18.552v6.574h-18.552v-6.574Z" fill="#ccc" stroke="#ccc" stroke-miterlimit="10"/>
      <path d="M346.932,716.497l12.427-16.336c.563-.73,1-1.482,1.307-2.254.308-.772.461-1.49.461-2.154v-.05c0-.979-.315-1.734-.946-2.267-.631-.53-1.527-.797-2.689-.797-1.129,0-2.042.37-2.739,1.108-.697.739-1.12,1.789-1.27,3.15v.024h-6.998v-.024c.149-2.258.693-4.2,1.631-5.827.938-1.627,2.204-2.867,3.798-3.723s3.437-1.283,5.528-1.283c2.258,0,4.188.37,5.79,1.108,1.602.739,2.822,1.814,3.66,3.226.839,1.411,1.258,3.112,1.258,5.104v.024c0,1.645-.286,3.275-.859,4.894-.572,1.619-1.373,3.084-2.402,4.396l-8.915,11.256h12.376v6.574h-21.416v-6.15Z" fill="#ccc" stroke="#ccc" stroke-miterlimit="10"/>
    </g>
    <g>
      <rect x="432.912" y="672.07" width="66.913" height="64.957" fill="none"/>
      <path d="M441.821,686.439h6.823v36.208h-6.823v-36.208ZM444.312,686.439h21.291v6.574h-21.291v-6.574ZM444.312,701.704h18.552v6.574h-18.552v-6.574Z" fill="#ccc" stroke="#ccc" stroke-miterlimit="10"/>
      <path d="M475.427,721.825c-1.71-.797-3.072-1.958-4.084-3.486-1.013-1.526-1.569-3.345-1.669-5.453h7.048c.1.747.319,1.382.659,1.905.341.522.776.921,1.308,1.195.531.273,1.146.411,1.843.411,1.295,0,2.295-.361,3.001-1.084.705-.722,1.059-1.738,1.059-3.051v-.846c0-1.378-.287-2.441-.859-3.188-.573-.748-1.391-1.121-2.453-1.121h-3.062v-6.574h3.062c.863,0,1.531-.327,2.005-.983.473-.656.71-1.573.71-2.752v-.622c0-1.112-.262-1.972-.785-2.578-.522-.605-1.257-.908-2.203-.908-.614,0-1.175.157-1.682.473-.506.315-.934.771-1.282,1.369s-.598,1.32-.747,2.167h-7.022c.199-2.208.793-4.112,1.78-5.715.988-1.603,2.279-2.822,3.873-3.661,1.594-.838,3.37-1.258,5.329-1.258,3.203,0,5.682.818,7.433,2.453,1.752,1.636,2.628,3.956,2.628,6.961v1.096c0,1.677-.424,3.137-1.271,4.383-.847,1.244-2.051,2.175-3.61,2.789,1.743.398,3.092,1.312,4.046,2.738.955,1.429,1.433,3.246,1.433,5.454v1.096c0,2.108-.415,3.909-1.245,5.403-.831,1.494-2.042,2.632-3.636,3.412s-3.512,1.17-5.753,1.17c-2.191,0-4.143-.398-5.852-1.195Z" fill="#ccc" stroke="#ccc" stroke-miterlimit="10"/>
    </g>
    <g>
      <rect x="556.912" y="672.07" width="66.913" height="64.957" fill="none"/>
      <path d="M564.8,686.439h6.823v36.208h-6.823v-36.208ZM567.29,686.439h21.292v6.574h-21.292v-6.574ZM567.29,701.704h18.553v6.574h-18.553v-6.574Z" fill="#ccc" stroke="#ccc" stroke-miterlimit="10"/>
      <path d="M593.65,710.819l11.156-24.355h7.72l-10.857,24.057h16.261v6.574h-24.279v-6.275ZM608.267,701.356h6.823v21.316h-6.823v-21.316Z" fill="#ccc" stroke="#ccc" stroke-miterlimit="10"/>
    </g>
    <g>
      <rect x="678.912" y="672.07" width="66.913" height="64.957" fill="none"/>
      <path d="M687.423,686.439h6.823v36.208h-6.823v-36.208ZM689.913,686.439h21.291v6.574h-21.291v-6.574ZM689.913,701.704h18.553v6.574h-18.553v-6.574Z" fill="#ccc" stroke="#ccc" stroke-miterlimit="10"/>
      <path d="M722.137,721.738c-1.553-.854-2.798-2.1-3.735-3.735-.938-1.635-1.481-3.573-1.631-5.814v-.025h6.823v.025c.133,1.328.539,2.362,1.221,3.101.68.738,1.568,1.108,2.664,1.108,1.195,0,2.12-.391,2.776-1.171s.983-1.884.983-3.312v-3.039c0-1.427-.295-2.527-.884-3.299-.589-.772-1.415-1.158-2.478-1.158-.979,0-1.814.249-2.503.747s-1.166,1.195-1.432,2.092h-6.375v-20.818h19.448v6.574h-12.625v6.399c.515-.498,1.216-.892,2.104-1.183.888-.29,1.771-.436,2.651-.436,1.876,0,3.482.432,4.819,1.295,1.336.863,2.353,2.125,3.05,3.785s1.047,3.661,1.047,6.001v3.039c0,2.34-.42,4.341-1.258,6.001-.839,1.66-2.055,2.926-3.648,3.798-1.594.871-3.52,1.307-5.777,1.307-1.942,0-3.689-.427-5.242-1.282Z" fill="#ccc" stroke="#ccc" stroke-miterlimit="10"/>
    </g>
    <g>
      <rect x="805.912" y="672.07" width="66.913" height="64.957" fill="none"/>
      <path d="M815.22,686.439h6.823v36.208h-6.823v-36.208ZM817.71,686.439h21.291v6.574h-21.291v-6.574ZM817.71,701.704h18.553v6.574h-18.553v-6.574Z" fill="#ccc" stroke="#ccc" stroke-miterlimit="10"/>
      <path d="M848.689,721.738c-1.585-.854-2.793-2.1-3.623-3.735-.83-1.635-1.245-3.606-1.245-5.914v-.025c0-1.311.162-2.697.485-4.158.324-1.461.784-2.93,1.382-4.408.1-.248.203-.498.312-.746.108-.25.22-.49.337-.723l7.346-15.589h7.72l-8.716,18.054-1.719-.896c.415-.779,1.021-1.386,1.818-1.817s1.727-.647,2.789-.647c1.992,0,3.693.424,5.105,1.27,1.41.848,2.485,2.08,3.225,3.698.738,1.619,1.107,3.565,1.107,5.84v.024c0,2.325-.415,4.317-1.244,5.977-.831,1.661-2.039,2.923-3.624,3.785-1.585.864-3.499,1.295-5.739,1.295-2.226,0-4.131-.427-5.716-1.282ZM857.205,715.388c.656-.706.984-1.706.984-3.001v-.025c0-1.494-.328-2.643-.984-3.448s-1.59-1.208-2.801-1.208c-1.195,0-2.121.411-2.777,1.232-.656.822-.983,1.972-.983,3.449v.025c0,1.295.327,2.291.983,2.988s1.582,1.045,2.777,1.045c1.211,0,2.145-.352,2.801-1.058Z" fill="#ccc" stroke="#ccc" stroke-miterlimit="10"/>
    </g>
    <g>
      <rect x="925.912" y="672.07" width="66.913" height="64.957" fill="none"/>
      <path d="M935.465,686.439h6.823v36.208h-6.823v-36.208ZM937.955,686.439h21.291v6.574h-21.291v-6.574ZM937.955,701.704h18.553v6.574h-18.553v-6.574Z" fill="#ccc" stroke="#ccc" stroke-miterlimit="10"/>
      <path d="M984.51,690.971l-8.119,31.676h-7.396l7.869-29.634h-6.226v5.454h-6.823v-12.028h20.694v4.532Z" fill="#ccc" stroke="#ccc" stroke-miterlimit="10"/>
    </g>
    <g>
      <path d="M1065.185,690.984h4.055v29.852h-2.797v-23.18l.113,1.314-3.123,18.54h-2.717l-3.123-18.129.113-1.725v23.18h-2.797v-29.852h4.055l3.11,20.12,3.11-20.12Z" fill="#ccc" stroke="#ccc" stroke-miterlimit="10"/>
      <path d="M1073.546,690.984h3.077v29.852h-3.077v-29.852ZM1074.657,690.984h9.827v5.42h-9.827v-5.42ZM1074.657,703.302h8.592v5.42h-8.592v-5.42ZM1074.657,715.415h9.827v5.42h-9.827v-5.42Z" fill="#ccc" stroke="#ccc" stroke-miterlimit="10"/>
      <path d="M1088.005,690.984h3.762l6.076,22.872-.27.534v-23.405h2.942v29.832h-3.784l-6.054-22.522.27-.534v23.057h-2.942v-29.832Z" fill="#ccc" stroke="#ccc" stroke-miterlimit="10"/>
      <path d="M1107.326,719.84c-.891-.869-1.568-2.135-2.032-3.798s-.696-3.665-.696-6.005v-19.053h3.077v19.196c0,1.711.251,3.039.753,3.983.501.944,1.209,1.417,2.122,1.417.921,0,1.634-.472,2.14-1.417.505-.945.758-2.272.758-3.983v-19.196h3.077v19.053c0,2.34-.234,4.342-.702,6.005s-1.149,2.929-2.044,3.798-1.971,1.304-3.229,1.304-2.332-.435-3.224-1.304Z" fill="#ccc" stroke="#ccc" stroke-miterlimit="10"/>
    </g>
    <g>
      <rect x="179.434" y="538.55" width="70.435" height="25.043" fill="none"/>
      <path d="M187.7,539.715h4.281v22.719h-4.281v-22.719ZM189.575,558.309h7.25c.979,0,1.737-.236,2.273-.711.536-.474.805-1.138.805-1.992v-.047c0-.572-.12-1.062-.359-1.469s-.591-.716-1.055-.93c-.464-.213-1.019-.32-1.664-.32h-7.25v-4.125h7.25c.886,0,1.57-.224,2.055-.672.484-.447.727-1.078.727-1.891,0-.729-.242-1.297-.727-1.703s-1.169-.609-2.055-.609h-7.25v-4.125h7.391c1.469,0,2.724.242,3.766.727s1.833,1.188,2.375,2.109.812,2.029.812,3.32c0,.886-.175,1.67-.523,2.352-.349.683-.856,1.242-1.523,1.68s-1.469.734-2.406.891c1,.136,1.856.44,2.57.914.714.475,1.255,1.092,1.625,1.852.37.761.555,1.641.555,2.641v.047c0,1.303-.273,2.417-.82,3.344-.547.928-1.344,1.633-2.391,2.117s-2.305.727-3.773.727h-7.656v-4.125Z" fill="#ccc" stroke="#ccc" stroke-miterlimit="10"/>
      <path d="M209.349,539.7h4.281v22.734h-4.281v-22.734ZM211.052,549.169h7.906c.438,0,.823-.109,1.156-.328s.591-.531.773-.938.278-.875.289-1.406c0-.531-.091-1-.273-1.406s-.44-.719-.773-.938-.724-.328-1.172-.328h-7.906v-4.125h8.25c1.25,0,2.349.281,3.297.844s1.683,1.357,2.203,2.383c.521,1.026.781,2.217.781,3.57s-.261,2.545-.781,3.57c-.521,1.026-1.258,1.82-2.211,2.383s-2.05.844-3.289.844h-8.25v-4.125ZM215.833,552.59l4.578-.719,6.125,10.562h-5.188l-5.516-9.844Z" fill="#ccc" stroke="#ccc" stroke-miterlimit="10"/>
      <path d="M228.075,539.715h16.656v4.125h-16.656v-4.125ZM234.263,541.575h4.281v20.859h-4.281v-20.859Z" fill="#ccc" stroke="#ccc" stroke-miterlimit="10"/>
    </g>
    <g>
      <rect x="1044.086" y="538.33" width="131" height="25.043" fill="none"/>
      <path d="M1056.806,561.407c-1.256-.692-2.227-1.672-2.914-2.938s-1.031-2.731-1.031-4.398v-6.438c0-1.666.344-3.133,1.031-4.398s1.658-2.244,2.914-2.938c1.255-.692,2.705-1.039,4.352-1.039s3.096.347,4.352,1.039c1.255.693,2.227,1.672,2.914,2.938s1.031,2.732,1.031,4.398v6.438c0,1.667-.344,3.133-1.031,4.398s-1.659,2.245-2.914,2.938c-1.256.693-2.706,1.039-4.352,1.039s-3.097-.346-4.352-1.039ZM1063.189,557.673c.583-.328,1.033-.794,1.352-1.398.317-.604.477-1.302.477-2.094v-6.656c0-.791-.159-1.489-.477-2.094-.318-.604-.769-1.07-1.352-1.398-.584-.328-1.261-.492-2.031-.492s-1.448.164-2.031.492c-.584.328-1.034.795-1.352,1.398-.318.604-.477,1.303-.477,2.094v6.656c0,.792.158,1.49.477,2.094.317.604.768,1.07,1.352,1.398.583.328,1.26.492,2.031.492s1.447-.164,2.031-.492Z" fill="#ccc" stroke="#ccc" stroke-miterlimit="10"/>
      <path d="M1074.665,539.493h4.281v22.719h-4.281v-22.719ZM1076.228,539.493h13.359v4.125h-13.359v-4.125ZM1076.228,549.071h11.641v4.125h-11.641v-4.125Z" fill="#ccc" stroke="#ccc" stroke-miterlimit="10"/>
      <path d="M1093.861,539.493h4.281v22.719h-4.281v-22.719ZM1095.423,539.493h13.359v4.125h-13.359v-4.125ZM1095.423,549.071h11.641v4.125h-11.641v-4.125Z" fill="#ccc" stroke="#ccc" stroke-miterlimit="10"/>
      <path d="M1113.836,566.524h-4.062l10.156-29.719h4.062l-10.156,29.719Z" fill="#ccc" stroke="#ccc" stroke-miterlimit="10"/>
      <path d="M1130.57,561.407c-1.256-.692-2.227-1.672-2.914-2.938s-1.031-2.731-1.031-4.398v-6.438c0-1.666.344-3.133,1.031-4.398s1.658-2.244,2.914-2.938c1.255-.692,2.705-1.039,4.352-1.039s3.096.347,4.352,1.039c1.255.693,2.227,1.672,2.914,2.938s1.031,2.732,1.031,4.398v6.438c0,1.667-.344,3.133-1.031,4.398s-1.659,2.245-2.914,2.938c-1.256.693-2.706,1.039-4.352,1.039s-3.097-.346-4.352-1.039ZM1136.953,557.673c.583-.328,1.033-.794,1.352-1.398.317-.604.477-1.302.477-2.094v-6.656c0-.791-.159-1.489-.477-2.094-.318-.604-.769-1.07-1.352-1.398-.584-.328-1.261-.492-2.031-.492s-1.448.164-2.031.492c-.584.328-1.034.795-1.352,1.398-.318.604-.477,1.303-.477,2.094v6.656c0,.792.158,1.49.477,2.094.317.604.768,1.07,1.352,1.398.583.328,1.26.492,2.031.492s1.447-.164,2.031-.492Z" fill="#ccc" stroke="#ccc" stroke-miterlimit="10"/>
      <path d="M1148.43,539.493h5.234l8.453,17.406-.375.406v-17.812h4.094v22.703h-5.266l-8.422-17.141.375-.406v17.547h-4.094v-22.703Z" fill="#ccc" stroke="#ccc" stroke-miterlimit="10"/>
    </g>
  </g>
  <g id="Layer_13">
    <g>
      <rect x="724.168" y="157.165" width="184.322" height="38.311" fill="none"/>
      <path d="M774.571,178.747l8.148,13.498v.817h-2.111l-.507.306-8.622-14.278c-.062,0-.127.004-.188.004h-7.902v13.968h-2.821v-34.425h10.581c1.628,0,3.239.336,4.666.968,1.53.681,2.776,1.515,3.81,2.549.838.837,1.459,1.923,2.06,2.973l.074.15c.56,1.306.82,2.469.82,3.66,0,1.236-.283,2.55-.82,3.801-.472,1.1-1.251,2.239-2.134,3.122-.815.816-2.135,1.904-3.795,2.458-.417.186-.837.323-1.259.432h0ZM763.39,161.457v14.814h7.902c1.586,0,2.572-.165,3.518-.584,1.016-.346,1.971-.975,2.82-1.824.629-.631,1.205-1.469,1.536-2.24.387-.902.591-1.832.591-2.688,0-.788-.173-1.553-.56-2.476-.52-.908-1.009-1.754-1.566-2.312-.797-.797-1.738-1.422-2.961-1.966-1.066-.473-2.283-.725-3.519-.725h-7.762Z" fill="#ccc" stroke="#ccc" stroke-miterlimit="10" stroke-width="1.5"/>
      <path d="M811.144,158.584v34.455h-2.8l-16.389-29.029v29.005h-2.821v-34.285h3.081l16.106,28.528v-28.675h2.822Z" fill="#ccc" stroke="#ccc" stroke-miterlimit="10" stroke-width="1.5"/>
      <path d="M839.568,173.855l-.146,19.184-2.821-.021.08-10.713h-16.306v10.723h-2.821v-19.178l9.668-15.108h2.674l9.672,15.114ZM836.702,179.482l.036-4.812-8.18-12.781-8.184,12.785v4.809h16.327Z" fill="#ccc" stroke="#ccc" stroke-miterlimit="10" stroke-width="1.5"/>
      <path d="M872.073,158.767v7.705l-22.193,26.721h-3.907v-34.425h2.821v31.315l20.458-24.631v-6.684h2.821Z" fill="#ccc" stroke="#ccc" stroke-miterlimit="10" stroke-width="1.5"/>
    </g>
    <g>
      <rect x="290.524" y="273.682" width="729.47" height="52.826" fill="none"/>
      <path d="M322.985,297.63l-.146,19.184-2.822-.021.081-10.713h-16.306v10.723h-2.822v-19.178l9.669-15.108h2.674l9.672,15.114ZM320.118,303.256l.037-4.812-8.181-12.781-8.183,12.786v4.808h16.326Z" fill="#ccc" stroke="#ccc" stroke-miterlimit="10" stroke-width="1.5"/>
      <path d="M339.125,283.958v30.193h6.913v2.822h-16.648v-2.822h6.914v-30.193h-6.914v-2.822h16.648v2.822h-6.913Z" fill="#ccc" stroke="#ccc" stroke-miterlimit="10" stroke-width="1.5"/>
      <path d="M374.479,294.098v9.735c0,1.931-.329,3.771-.948,5.32-.588,1.624-1.506,3.079-2.709,4.283-.91,1.067-2.075,1.905-3.396,2.413-1.301.641-2.63.964-3.952.964h-11.005v-35.836h11.005c1.459,0,2.818.325,4.158.995,1.384.693,2.495,1.543,3.404,2.602.899.896,1.717,2.256,2.495,4.205.643,1.764.947,3.491.947,5.32ZM371.656,294.098c0-1.515-.242-2.887-.762-4.314-.616-1.539-1.234-2.599-1.93-3.294-.741-.858-1.542-1.466-2.597-1.994-.95-.475-1.87-.697-2.895-.697h-8.184v30.193h8.184c.902,0,1.83-.236,2.755-.698l.136-.06c.911-.34,1.691-.901,2.388-1.712.983-.991,1.679-2.098,2.143-3.374.497-1.243.762-2.76.762-4.314v-9.735Z" fill="#ccc" stroke="#ccc" stroke-miterlimit="10" stroke-width="1.5"/>
      <path d="M383.71,283.94v11.569h10.159v2.822h-10.159v15.661h18.483v2.822h-21.305v-35.695h21.305v2.822h-18.483Z" fill="#ccc" stroke="#ccc" stroke-miterlimit="10" stroke-width="1.5"/>
      <path d="M430.632,294.098v9.735c0,1.931-.329,3.771-.948,5.32-.588,1.624-1.506,3.079-2.709,4.283-.91,1.067-2.075,1.905-3.396,2.413-1.301.641-2.63.964-3.952.964h-11.005v-35.836h11.005c1.459,0,2.818.325,4.158.995,1.384.693,2.495,1.543,3.404,2.602.899.896,1.717,2.256,2.495,4.205.643,1.764.947,3.491.947,5.32ZM427.81,294.098c0-1.515-.242-2.887-.762-4.314-.616-1.539-1.234-2.599-1.93-3.294-.741-.858-1.542-1.466-2.597-1.994-.95-.475-1.87-.697-2.895-.697h-8.184v30.193h8.184c.902,0,1.83-.236,2.755-.698l.136-.06c.911-.34,1.691-.901,2.388-1.712.983-.991,1.679-2.098,2.143-3.374.497-1.243.762-2.76.762-4.314v-9.735Z" fill="#ccc" stroke="#ccc" stroke-miterlimit="10" stroke-width="1.5"/>
      <path d="M638.976,282.551v34.284h-2.822v-28.712l-6.648,11.923h-3.068l-6.649-11.923v28.712h-2.822v-34.284h2.945l8.06,14.452,8.061-14.452h2.945Z" fill="#ccc" stroke="#ccc" stroke-miterlimit="10" stroke-width="1.5"/>
      <path d="M666.403,287.135c.65,1.305.994,2.792.994,4.3v15.379c0,1.509-.344,2.997-.994,4.299-.613,1.225-1.535,2.37-2.743,3.404-1.079.9-2.239,1.511-3.461,1.83-1.114.406-2.316.612-3.665.625h-.142c-1.508-.011-2.712-.214-3.881-.653-1.275-.479-2.409-1.128-3.372-1.932-1.224-1.048-2.146-2.194-2.757-3.416-.652-1.302-.996-2.79-.996-4.299v-15.379c0-1.51.346-2.997.996-4.299.61-1.225,1.534-2.369,2.742-3.404,1.078-.899,2.238-1.51,3.46-1.829,1.149-.42,2.396-.626,3.807-.626,1.514,0,2.868.22,4.023.655,1.272.477,2.405,1.127,3.371,1.93,1.072.918,1.923,2.033,2.615,3.415h.002ZM664.572,306.813v-15.379c0-1.072-.241-2.123-.697-3.038-.527-1.054-1.135-1.855-1.913-2.522-.705-.587-1.566-1.077-2.54-1.442-.828-.311-1.875-.474-3.031-.474-1.11,0-2.03.151-2.892.474l-.153.048c-.835.209-1.643.635-2.4,1.267-.905.776-1.599,1.625-2.04,2.51-.457.915-.698,1.964-.698,3.038v15.377c0,1.074.243,2.125.698,3.038.44.883,1.133,1.732,2.055,2.522.705.587,1.565,1.077,2.541,1.443.857.322,1.771.469,2.957.474,1.079-.005,1.977-.157,2.824-.474l.152-.048c.836-.209,1.644-.635,2.403-1.267.904-.776,1.597-1.625,2.038-2.51.456-.912.697-1.962.697-3.036h0Z" fill="#ccc" stroke="#ccc" stroke-miterlimit="10" stroke-width="1.5"/>
      <path d="M695.816,294.098v9.735c0,1.931-.329,3.771-.948,5.32-.589,1.624-1.506,3.079-2.709,4.283-.91,1.067-2.075,1.905-3.396,2.413-1.301.641-2.63.964-3.951.964h-11.005v-35.836h11.005c1.458,0,2.818.325,4.157.995,1.385.693,2.496,1.543,3.404,2.602.9.896,1.718,2.256,2.496,4.205.643,1.764.947,3.491.947,5.32ZM692.993,294.098c0-1.515-.242-2.887-.762-4.314-.616-1.539-1.234-2.599-1.93-3.294-.741-.858-1.543-1.466-2.597-1.994-.951-.475-1.871-.697-2.895-.697h-8.184v30.193h8.184c.902,0,1.829-.236,2.755-.698l.136-.06c.911-.34,1.691-.901,2.387-1.712.983-.991,1.68-2.098,2.144-3.374.497-1.243.762-2.76.762-4.314v-9.735Z" fill="#ccc" stroke="#ccc" stroke-miterlimit="10" stroke-width="1.5"/>
      <path d="M705.046,283.94v11.569h10.158v2.822h-10.158v15.661h18.482v2.822h-21.304v-35.695h21.304v2.822h-18.482Z" fill="#ccc" stroke="#ccc" stroke-miterlimit="10" stroke-width="1.5"/>
      <path d="M901.908,297.63l-.146,19.184-2.821-.021.08-10.713h-16.306v10.723h-2.821v-19.178l9.668-15.108h2.674l9.672,15.114ZM899.043,303.256l.036-4.812-8.18-12.781-8.184,12.786v4.808h16.327Z" fill="#ccc" stroke="#ccc" stroke-miterlimit="10" stroke-width="1.5"/>
      <path d="M918.049,283.958v30.193h6.914v2.822h-16.648v-2.822h6.913v-30.193h-6.913v-2.822h16.648v2.822h-6.914Z" fill="#ccc" stroke="#ccc" stroke-miterlimit="10" stroke-width="1.5"/>
      <path d="M953.403,294.098v9.735c0,1.931-.329,3.771-.948,5.32-.589,1.624-1.506,3.079-2.709,4.283-.91,1.067-2.075,1.905-3.396,2.413-1.301.641-2.63.964-3.951.964h-11.005v-35.836h11.005c1.458,0,2.818.325,4.157.995,1.385.693,2.496,1.543,3.404,2.602.9.896,1.718,2.256,2.496,4.205.643,1.764.947,3.491.947,5.32ZM950.58,294.098c0-1.515-.242-2.887-.762-4.314-.616-1.539-1.234-2.599-1.93-3.294-.741-.858-1.543-1.466-2.597-1.994-.951-.475-1.871-.697-2.895-.697h-8.184v30.193h8.184c.902,0,1.829-.236,2.755-.698l.136-.06c.911-.34,1.691-.901,2.387-1.712.983-.991,1.68-2.098,2.144-3.374.497-1.243.762-2.76.762-4.314v-9.735Z" fill="#ccc" stroke="#ccc" stroke-miterlimit="10" stroke-width="1.5"/>
      <path d="M962.634,283.94v11.569h10.158v2.822h-10.158v15.661h18.482v2.822h-21.304v-35.695h21.304v2.822h-18.482Z" fill="#ccc" stroke="#ccc" stroke-miterlimit="10" stroke-width="1.5"/>
      <path d="M1009.556,294.098v9.735c0,1.931-.329,3.771-.948,5.32-.589,1.624-1.506,3.079-2.709,4.283-.91,1.067-2.075,1.905-3.396,2.413-1.301.641-2.63.964-3.951.964h-11.005v-35.836h11.005c1.458,0,2.818.325,4.157.995,1.385.693,2.496,1.543,3.404,2.602.9.896,1.718,2.256,2.496,4.205.643,1.764.947,3.491.947,5.32ZM1006.734,294.098c0-1.515-.242-2.887-.762-4.314-.616-1.539-1.234-2.599-1.93-3.294-.741-.858-1.543-1.466-2.597-1.994-.951-.475-1.871-.697-2.895-.697h-8.184v30.193h8.184c.902,0,1.829-.236,2.755-.698l.136-.06c.911-.34,1.691-.901,2.387-1.712.983-.991,1.68-2.098,2.144-3.374.497-1.243.762-2.76.762-4.314v-9.735Z" fill="#ccc" stroke="#ccc" stroke-miterlimit="10" stroke-width="1.5"/>
    </g>
    <g>
      <rect x="303.093" y="466.073" width="224.641" height="52.826" fill="none"/>
      <path d="M332.754,498.892v-4.694h-9.312v-2.821h9.312v-4.479l7.996,5.864-7.996,6.13Z" fill="#ccc" stroke="#ccc" stroke-miterlimit="10" stroke-width="1.5"/>
      <path d="M349.98,477.752v11.568h9.171v2.822h-9.171v17.071h-2.822v-34.284h21.305v2.822h-18.482Z" fill="#ccc" stroke="#ccc" stroke-miterlimit="10" stroke-width="1.5"/>
      <path d="M388.894,494.912l8.149,13.498v.816h-2.111l-.507.307-8.622-14.278c-.062,0-.127.004-.188.004h-7.902v13.968h-2.822v-34.426h10.582c1.628,0,3.239.336,4.666.969,1.53.681,2.776,1.515,3.81,2.549.838.837,1.458,1.923,2.06,2.973l.074.15c.56,1.306.82,2.469.82,3.659,0,1.236-.283,2.55-.82,3.801-.472,1.101-1.251,2.239-2.134,3.122-.816.816-2.135,1.903-3.796,2.458-.416.187-.837.323-1.259.432h0ZM377.713,477.623v14.814h7.902c1.586,0,2.571-.165,3.518-.584,1.016-.347,1.971-.976,2.82-1.824.629-.631,1.204-1.469,1.536-2.241.387-.901.591-1.831.591-2.688,0-.787-.173-1.554-.56-2.476-.52-.907-1.009-1.754-1.566-2.312-.797-.797-1.738-1.422-2.961-1.967-1.066-.473-2.283-.724-3.52-.724h-7.761Z" fill="#ccc" stroke="#ccc" stroke-miterlimit="10" stroke-width="1.5"/>
      <path d="M406.279,476.33v11.569h10.158v2.822h-10.158v15.661h18.482v2.821h-21.305v-35.695h21.305v2.821h-18.482Z" fill="#ccc" stroke="#ccc" stroke-miterlimit="10" stroke-width="1.5"/>
      <path d="M434.013,476.33v11.569h10.158v2.822h-10.158v15.661h18.482v2.821h-21.305v-35.695h21.305v2.821h-18.482Z" fill="#ccc" stroke="#ccc" stroke-miterlimit="10" stroke-width="1.5"/>
      <path d="M479.664,506.542v2.821h-20.316v-2.749l15.973-30.124h-16.396v-2.822h19.329v3.313l-15.673,29.561h17.084Z" fill="#ccc" stroke="#ccc" stroke-miterlimit="10" stroke-width="1.5"/>
      <path d="M488.892,476.33v11.569h10.158v2.822h-10.158v15.661h18.482v2.821h-21.305v-35.695h21.305v2.821h-18.482Z" fill="#ccc" stroke="#ccc" stroke-miterlimit="10" stroke-width="1.5"/>
    </g>
    <g>
      <rect x="392.962" y="150.609" width="178.597" height="52.826" fill="none"/>
      <path d="M413.424,183.355v12.416h-2.821v-12.416h-9.19l10.592-10.592,10.8,10.592h-9.38Z" fill="#ccc" stroke="#ccc" stroke-miterlimit="10" stroke-width="1.5"/>
      <path d="M438.979,160.886v30.193h6.913v2.822h-16.648v-2.822h6.914v-30.193h-6.914v-2.822h16.648v2.822h-6.913Z" fill="#ccc" stroke="#ccc" stroke-miterlimit="10" stroke-width="1.5"/>
      <path d="M474.332,159.286v34.455h-2.799l-16.39-29.029v29.005h-2.821v-34.285h3.081l16.106,28.528v-28.675h2.822Z" fill="#ccc" stroke="#ccc" stroke-miterlimit="10" stroke-width="1.5"/>
      <path d="M502.756,174.557l-.146,19.184-2.821-.021.08-10.713h-16.306v10.723h-2.821v-19.178l9.669-15.108h2.673l9.672,15.114ZM499.891,180.184l.036-4.812-8.18-12.781-8.184,12.785v4.809h16.327Z" fill="#ccc" stroke="#ccc" stroke-miterlimit="10" stroke-width="1.5"/>
      <path d="M535.263,159.469v7.705l-22.192,26.721h-3.908v-34.425h2.821v31.315l20.458-24.631v-6.684h2.821Z" fill="#ccc" stroke="#ccc" stroke-miterlimit="10" stroke-width="1.5"/>
      <path d="M553.71,183.355v12.416h-2.822v-12.416h-9.19l10.592-10.592,10.801,10.592h-9.38Z" fill="#ccc" stroke="#ccc" stroke-miterlimit="10" stroke-width="1.5"/>
    </g>
    <g>
      <rect x="893.212" y="220.422" width="134.915" height="52.826" fill="none"/>
      <path d="M936.938,229.292v34.284h-2.822v-28.712l-6.647,11.923h-3.068l-6.65-11.923v28.712h-2.821v-34.284h2.944l8.061,14.452,8.061-14.452h2.944Z" fill="#ccc" stroke="#ccc" stroke-miterlimit="10" stroke-width="1.5"/>
      <path d="M965.361,244.37l-.146,19.184-2.821-.021.08-10.713h-16.306v10.723h-2.821v-19.178l9.669-15.108h2.673l9.672,15.114ZM962.496,249.996l.036-4.812-8.18-12.781-8.184,12.785v4.809h16.327Z" fill="#ccc" stroke="#ccc" stroke-miterlimit="10" stroke-width="1.5"/>
      <path d="M984.184,244.368h10.158v10.158c0,1.06,0,2.662-.92,4.134l-.126.19c-.552.833-1.121,1.693-2.439,2.516-.65.494-2.244,1.26-3.354,1.676-1.174.44-2.536.655-4.164.655s-2.989-.214-4.163-.655c-1.443-.542-2.624-1.191-3.512-1.93-1.246-.933-2.062-2.075-2.782-3.083l-.117-.193c-.652-1.302-.996-2.79-.996-4.299v-15.52c0-1.723.371-3.085,1.202-4.416.664-1.345,1.93-2.525,2.817-3.287,1.045-.871,2.307-1.343,3.525-1.801,1.176-.441,2.538-.656,4.167-.656s2.989.214,4.163.655c1.091.408,2.25.962,3.45,1.646l.146.096c1.449,1.088,2.491,2.253,3.096,3.461l-2.524,1.263c-.398-.796-1.136-1.607-2.195-2.413-1.027-.581-2.05-1.068-2.963-1.411-.853-.32-1.89-.476-3.173-.476s-2.322.154-3.174.474c-1.048.394-2.035.763-2.697,1.315-.686.59-1.679,1.507-2.18,2.51-.608.985-.84,1.858-.84,3.038v15.52c0,1.037.226,2.051.652,2.943.638.89,1.25,1.729,2.171,2.418.691.573,1.624,1.076,2.753,1.5.853.32,1.889.476,3.173.476s2.321-.155,3.173-.474c1.075-.403,2.341-1.051,2.753-1.36.896-.567,1.209-1.037,1.681-1.75l.107-.163c.468-.75.468-1.735.468-2.603v-7.336h-7.336v-2.819Z" fill="#ccc" stroke="#ccc" stroke-miterlimit="10" stroke-width="1.5"/>
      <path d="M1000.775,243.88c0-1.636,1.264-2.963,2.822-2.963s2.821,1.327,2.821,2.963-1.263,2.963-2.821,2.963-2.822-1.326-2.822-2.963ZM1000.775,260.387c0-1.636,1.264-2.963,2.822-2.963s2.821,1.327,2.821,2.963-1.263,2.963-2.821,2.963-2.822-1.326-2.822-2.963Z" fill="#ccc" stroke="#ccc" stroke-miterlimit="10" stroke-width="1.5"/>
    </g>
    <g>
      <rect x="803.212" y="465.845" width="222.288" height="39.989" fill="none"/>
      <path d="M843.44,468.287v24.407c0,1.562-.365,3.062-1.033,4.228-.572,1.152-1.495,2.297-2.706,3.334-1.019.851-2.119,1.322-3.185,1.778-1.232.464-2.501.679-3.94.679-1.512,0-2.867-.22-4.023-.655-1.271-.476-2.406-1.125-3.37-1.929-1.026-.882-2.06-1.876-2.758-3.276-.67-1.339-.996-2.701-.996-4.158v-24.408h2.822v24.408c0,1.024.222,1.944.698,2.896.448.899,1.146,1.602,2.054,2.382.706.587,1.566,1.076,2.54,1.442.828.312,1.876.476,3.032.476,1.107,0,2.027-.151,2.89-.474.859-.371,1.727-.742,2.414-1.315.907-.779,1.6-1.627,2.04-2.51.457-.804.698-1.835.698-2.896v-24.408h2.823Z" fill="#ccc" stroke="#ccc" stroke-miterlimit="10" stroke-width="1.5"/>
      <path d="M871.179,474.796c.559,1.301.819,2.464.819,3.66,0,1.24-.283,2.554-.819,3.803-.472,1.097-1.249,2.236-2.134,3.12-.815.816-2.135,1.904-3.795,2.458-1.544.691-3.335.777-4.539.777h-8.04v13.968h-2.822v-34.425h10.723c1.697,0,3.179.308,4.666.968,1.528.681,2.773,1.515,3.81,2.549.885.885,1.662,2.021,2.133,3.123h0ZM868.588,481.145c.387-.9.592-1.83.592-2.689,0-.812-.183-1.597-.592-2.548-.326-.76-.914-1.618-1.535-2.239-.799-.797-1.739-1.422-2.961-1.967-1.128-.501-2.212-.724-3.52-.724h-7.9v14.814h8.04c1.525,0,2.609-.179,3.52-.584,1.016-.346,1.971-.975,2.82-1.824.622-.622,1.21-1.479,1.535-2.239h0Z" fill="#ccc" stroke="#ccc" stroke-miterlimit="10" stroke-width="1.5"/>
      <path d="M900.424,479.843v9.735c0,1.931-.328,3.771-.947,5.32-.589,1.624-1.506,3.079-2.709,4.283-.91,1.067-2.076,1.905-3.396,2.413-1.301.641-2.63.964-3.952.964h-11.005v-35.836h11.005c1.459,0,2.819.325,4.158.995,1.384.693,2.496,1.543,3.404,2.602.9.896,1.717,2.256,2.496,4.205.642,1.764.946,3.491.946,5.32ZM897.603,479.843c0-1.515-.243-2.887-.762-4.314-.617-1.539-1.234-2.599-1.931-3.294-.74-.858-1.542-1.466-2.596-1.994-.951-.475-1.871-.697-2.896-.697h-8.183v30.193h8.183c.903,0,1.83-.236,2.756-.698l.136-.06c.911-.34,1.691-.901,2.387-1.712.983-.991,1.679-2.098,2.144-3.374.496-1.243.762-2.76.762-4.314v-9.735Z" fill="#ccc" stroke="#ccc" stroke-miterlimit="10" stroke-width="1.5"/>
      <path d="M928.849,483.375l-.146,19.184-2.822-.021.081-10.713h-16.306v10.723h-2.822v-19.178l9.669-15.108h2.674l9.672,15.114ZM925.983,489.002l.037-4.812-8.181-12.781-8.183,12.786v4.808h16.326Z" fill="#ccc" stroke="#ccc" stroke-miterlimit="10" stroke-width="1.5"/>
      <path d="M955.854,471.168h-8.889v31.462h-2.821v-31.462h-8.889v-2.822h20.599v2.822Z" fill="#ccc" stroke="#ccc" stroke-miterlimit="10" stroke-width="1.5"/>
      <path d="M965.074,469.685v11.569h10.159v2.822h-10.159v15.661h18.483v2.822h-21.305v-35.695h21.305v2.822h-18.483Z" fill="#ccc" stroke="#ccc" stroke-miterlimit="10" stroke-width="1.5"/>
      <path d="M999.298,492.247v-4.694h-9.312v-2.822h9.312v-4.479l7.995,5.864-7.995,6.13Z" fill="#ccc" stroke="#ccc" stroke-miterlimit="10" stroke-width="1.5"/>
    </g>
    <g>
      <rect x="303.306" y="541.617" width="48.49" height="58.293" fill="none"/>
      <path d="M333.363,591.464v-7.09h-11.934v7.18l-11.787-9.349,11.787-8.942v6.849h11.934v-6.764l12.076,8.856-12.076,9.26Z" fill="#ccc" stroke="#ccc" stroke-miterlimit="10"/>
    </g>
    <g id="symbol-rightbracket">
      <polyline id="polyline168" points="975.194 556.859 989.647 556.859 989.647 599.668 975.194 599.668" fill="none" stroke="#ccc" stroke-miterlimit="10" stroke-width="3"/>
    </g>
    <g id="symbol-leftbracket">
      <polyline id="polyline169" points="373.647 557.671 359.194 557.671 359.194 600.48 373.647 600.48" fill="none" stroke="#ccc" stroke-miterlimit="10" stroke-width="3"/>
    </g>
    <g>
      <rect x="332.123" y="87.176" width="671.395" height="52.826" fill="none"/>
      <path d="M400.564,95.853v34.455h-2.799l-16.389-29.029v29.005h-2.822v-34.285h3.082l16.106,28.528v-28.675h2.821Z" fill="#ccc" stroke="#ccc" stroke-miterlimit="10" stroke-width="1.5"/>
      <path d="M439.463,119.144h3.81v2.822h-3.81v7.055h-2.822v-7.055h-14.673v-3.071l14.578-24.3h2.915v24.548h.002ZM436.64,99.922l-11.533,19.22h11.533v-19.22Z" fill="#ccc" stroke="#ccc" stroke-miterlimit="10" stroke-width="1.5"/>
      <path d="M453.562,127.749h17.444v2.822h-21.304v-2.812l3.709-4.048c1.944-2.166,3.728-4.151,5.421-5.957.841-.841,1.683-1.824,2.497-2.775.851-.992,4.249-4.817,4.249-4.817.386-.388.603-.662.748-.842.086-.109.159-.196.22-.264.414-.526.761-1.192,1.006-1.928.233-.699.352-1.257.352-2.376,0-.961-.198-1.914-.591-2.831-.357-.947-.926-1.629-1.676-2.38-.856-.706-1.668-1.213-2.461-1.51-2.269-.851-3.797-.849-6.062,0-1.039.389-1.82.869-2.462,1.511-.741.741-1.336,1.585-1.677,2.38l-2.593-1.112c.485-1.133,1.272-2.262,2.274-3.263.926-.924,2.059-1.629,3.467-2.157,2.887-1.086,5.15-1.086,8.045,0,1.443.542,2.614,1.442,3.37,2.071.926.918,1.852,1.965,2.393,3.41.521,1.209.796,2.535.796,3.881,0,1.484-.19,2.35-.496,3.269-.354,1.064-.877,2.044-1.507,2.833l-.193.23c-.189.237-.473.591-.899,1.016.003,0-3.322,3.742-4.159,4.718-.849.991-1.727,2.015-2.612,2.901-1.649,1.759-3.419,3.73-5.349,5.879l-1.947,2.151h-.002Z" fill="#ccc" stroke="#ccc" stroke-miterlimit="10" stroke-width="1.5"/>
      <path d="M490.132,103.016c0,3.5-2.849,6.349-6.349,6.349s-6.349-2.849-6.349-6.349,2.849-6.349,6.349-6.349,6.349,2.849,6.349,6.349ZM487.311,103.016c0-1.944-1.583-3.527-3.527-3.527s-3.527,1.583-3.527,3.527,1.583,3.527,3.527,3.527,3.527-1.583,3.527-3.527Z" fill="#ccc" stroke="#ccc" stroke-miterlimit="10" stroke-width="1.5"/>
      <path d="M517.57,113.711c.533,1.246.794,3.653.794,4.869,0,1.301,0,2.16-.612,4.456-.54,2.157-1.647,3.609-2.481,4.443-.933.931-2.715,2.12-4.182,2.487-1.385.465-3.645.465-4.858.465-1.434,0-3.918-.808-4.93-1.242-1.184-.508-3.405-2.006-4.756-3.205l1.875-2.109c1.181,1.05,3.183,2.373,3.993,2.722.931.399,2.991,1.014,3.817,1.014.979,0,3.017,0,4.069-.351.903-.23,2.244-1.045,2.976-1.776.581-.58,1.357-1.6,1.745-3.153.522-1.958.522-2.52.522-3.749,0-1.252-.287-3.109-.592-3.819-.347-.92-.769-1.62-1.479-2.474-.62-.743-1.296-1.275-2.011-1.582-.888-.381-1.827-.733-2.689-.733h-3.81v-3.073l8.384-9.484h-12.898v-2.822h15.943v3.636l-7.884,8.92h.265c1.376,0,2.693.485,3.801.961,1.128.484,2.16,1.281,3.067,2.369.919,1.101,1.496,2.067,1.932,3.229h0Z" fill="#ccc" stroke="#ccc" stroke-miterlimit="10" stroke-width="1.5"/>
      <path d="M545.535,109.982c.536,1.253.819,2.568.819,3.802v6.914c0,1.236-.283,2.549-.819,3.801-.522,1.22-1.386,2.39-2.368,3.208-.756.63-1.929,1.529-3.37,2.071-1.449.543-2.729.796-4.024.796-1.474,0-3.318-.319-4.587-.794-1.407-.529-2.54-1.234-3.465-2.159-.889-.732-1.751-1.902-2.274-3.122-.315-.626-.486-1.307-.636-1.906l-.043-.343v-1.27h2.822v1.096c.114.454.226.855.415,1.234.388.901.965,1.686,1.616,2.229.736.728,1.519,1.208,2.556,1.597.95.355,2.465.615,3.596.615.96,0,1.896-.19,3.032-.617.792-.297,1.604-.804,2.556-1.597.65-.543,1.227-1.329,1.581-2.153.387-.903.591-1.833.591-2.689v-6.914c0-.856-.204-1.786-.591-2.69-.353-.824-.93-1.608-1.581-2.151-.737-.727-1.519-1.208-2.556-1.596l-.432-.167c-.789-.309-1.149-.45-2.601-.45-1.769,0-3.187.378-4.462,1.191-.953.595-1.795,1.438-2.384,2.378l-.414.663h-3.745v-16.366h21.305v2.822h-18.482v9.983c.646-.722,1.394-1.354,2.215-1.868,1.714-1.092,3.671-1.625,5.968-1.625,1.887,0,2.607.244,3.628.643l.395.152c1.408.528,2.541,1.233,3.466,2.158.887.732,1.751,1.9,2.274,3.121h0Z" fill="#ccc" stroke="#ccc" stroke-miterlimit="10" stroke-width="1.5"/>
      <path d="M552.795,127.142c0-1.636,1.264-2.963,2.822-2.963s2.821,1.327,2.821,2.963-1.263,2.963-2.821,2.963-2.822-1.326-2.822-2.963Z" fill="#ccc" stroke="#ccc" stroke-miterlimit="10" stroke-width="1.5"/>
      <path d="M582.344,119.144h3.81v2.822h-3.81v7.055h-2.821v-7.055h-14.674v-3.071l14.579-24.3h2.915v24.548h0ZM579.521,99.922l-11.532,19.22h11.532v-19.22Z" fill="#ccc" stroke="#ccc" stroke-miterlimit="10" stroke-width="1.5"/>
      <path d="M749.535,96.036v34.425h-2.942l-8.13-14.464-7.989,14.464h-2.948v-34.425h2.821v28.818l6.646-12.029h2.928l6.793,12.09v-28.879h2.822Z" fill="#ccc" stroke="#ccc" stroke-miterlimit="10" stroke-width="1.5"/>
      <path d="M780.868,127.608v2.822h-9.03v-2.822h3.104v-28.956l-2.205,1.826-1.799-2.174,4.482-3.709h2.343v33.013h3.104Z" fill="#ccc" stroke="#ccc" stroke-miterlimit="10" stroke-width="1.5"/>
      <path d="M808.32,100.593c.651,1.301.996,2.788.996,4.299v15.378c0,1.511-.345,3-.996,4.3-.609,1.222-1.532,2.366-2.741,3.403-1.08.898-2.239,1.511-3.461,1.83-1.115.406-2.315.612-3.666.625h-.141c-1.509-.011-2.711-.214-3.882-.653-1.272-.479-2.405-1.127-3.37-1.932-1.225-1.048-2.147-2.194-2.759-3.416-.651-1.301-.996-2.788-.996-4.297v-15.378c0-1.51.346-2.997.996-4.299.611-1.222,1.534-2.367,2.743-3.403,1.079-.9,2.239-1.511,3.461-1.83,1.152-.42,2.398-.626,3.807-.626,1.511,0,2.864.219,4.022.653,1.272.477,2.405,1.127,3.372,1.932,1.073.918,1.924,2.033,2.615,3.414h0ZM790.128,104.752v13.917l16.19-15.351c-.117-.514-.292-1.006-.521-1.463-.526-1.054-1.135-1.855-1.913-2.523-.706-.588-1.566-1.078-2.54-1.443-.828-.311-1.877-.474-3.032-.474-1.108,0-2.027.151-2.891.474l-.152.048c-.837.209-1.644.635-2.403,1.267-.906.777-1.598,1.627-2.04,2.51-.457.914-.698,1.964-.698,3.038ZM806.496,120.273v-13.233l-16.033,15.203c.102.32.219.632.365.927.441.883,1.133,1.732,2.056,2.522.705.587,1.564,1.077,2.539,1.443.858.322,1.772.469,2.958.474,1.077-.005,1.977-.156,2.823-.474l.152-.048c.836-.208,1.644-.635,2.402-1.267.905-.777,1.597-1.626,2.039-2.51.457-.913.698-1.962.698-3.038Z" fill="#ccc" stroke="#ccc" stroke-miterlimit="10" stroke-width="1.5"/>
      <path d="M838.298,120.271c0,5.601-5.064,10.158-11.287,10.158s-11.287-4.557-11.287-10.158c0-3.785,2.316-7.088,5.737-8.835-2.772-1.64-4.609-4.464-4.609-7.672,0-5.057,4.558-9.171,10.159-9.171s10.158,4.114,10.158,9.171c0,3.208-1.839,6.033-4.609,7.672,3.421,1.747,5.738,5.05,5.738,8.835ZM835.476,120.271c0-4.045-3.797-7.336-8.465-7.336s-8.466,3.292-8.466,7.336,3.797,7.336,8.466,7.336,8.465-3.292,8.465-7.336ZM827.011,110.114c4.045,0,7.336-2.849,7.336-6.349s-3.291-6.349-7.336-6.349-7.337,2.849-7.337,6.349,3.291,6.349,7.337,6.349Z" fill="#ccc" stroke="#ccc" stroke-miterlimit="10" stroke-width="1.5"/>
      <path d="M857.429,103.016c0,3.5-2.849,6.349-6.349,6.349s-6.349-2.849-6.349-6.349,2.849-6.349,6.349-6.349,6.349,2.849,6.349,6.349ZM854.608,103.016c0-1.944-1.583-3.527-3.527-3.527s-3.527,1.583-3.527,3.527,1.583,3.527,3.527,3.527,3.527-1.583,3.527-3.527Z" fill="#ccc" stroke="#ccc" stroke-miterlimit="10" stroke-width="1.5"/>
      <path d="M888.764,127.608v2.822h-9.03v-2.822h3.104v-28.956l-2.205,1.826-1.799-2.174,4.482-3.709h2.343v33.013h3.104Z" fill="#ccc" stroke="#ccc" stroke-miterlimit="10" stroke-width="1.5"/>
      <path d="M915.967,109.982c.536,1.253.819,2.568.819,3.802v6.914c0,1.236-.283,2.549-.819,3.801-.522,1.22-1.386,2.39-2.367,3.208-.757.63-1.929,1.529-3.371,2.071-1.449.543-2.729.796-4.023.796-1.475,0-3.318-.319-4.587-.794-1.408-.529-2.541-1.234-3.466-2.159-.889-.732-1.75-1.902-2.273-3.122-.316-.626-.487-1.307-.637-1.906l-.042-.343v-1.27h2.821v1.096c.114.454.226.855.415,1.234.388.901.965,1.686,1.617,2.229.736.728,1.518,1.208,2.555,1.597.951.355,2.465.615,3.597.615.959,0,1.895-.19,3.031-.617.792-.297,1.604-.804,2.556-1.597.65-.543,1.228-1.329,1.581-2.153.387-.903.592-1.833.592-2.689v-6.914c0-.856-.205-1.786-.592-2.69-.353-.824-.93-1.608-1.581-2.151-.736-.727-1.519-1.208-2.556-1.596l-.432-.167c-.788-.309-1.149-.45-2.6-.45-1.77,0-3.188.378-4.463,1.191-.952.595-1.795,1.438-2.383,2.378l-.415.663h-3.744v-16.366h21.304v2.822h-18.482v9.983c.646-.722,1.394-1.354,2.215-1.868,1.715-1.092,3.672-1.625,5.969-1.625,1.886,0,2.606.244,3.627.643l.396.152c1.407.528,2.541,1.233,3.465,2.158.888.732,1.751,1.9,2.274,3.121h0Z" fill="#ccc" stroke="#ccc" stroke-miterlimit="10" stroke-width="1.5"/>
      <path d="M923.227,127.142c0-1.636,1.263-2.963,2.821-2.963s2.822,1.327,2.822,2.963-1.264,2.963-2.822,2.963-2.821-1.326-2.821-2.963Z" fill="#ccc" stroke="#ccc" stroke-miterlimit="10" stroke-width="1.5"/>
      <path d="M956.307,113.711c.533,1.246.794,3.653.794,4.869,0,1.301,0,2.16-.612,4.456-.54,2.157-1.647,3.609-2.481,4.443-.933.931-2.715,2.12-4.182,2.487-1.385.465-3.645.465-4.857.465-1.434,0-3.919-.808-4.93-1.242-1.185-.508-3.406-2.006-4.757-3.205l1.875-2.109c1.182,1.05,3.184,2.373,3.993,2.722.932.399,2.991,1.014,3.817,1.014.979,0,3.017,0,4.069-.351.903-.23,2.245-1.045,2.976-1.776.581-.58,1.357-1.6,1.745-3.153.522-1.958.522-2.52.522-3.749,0-1.252-.286-3.109-.592-3.819-.347-.92-.769-1.62-1.479-2.474-.619-.743-1.295-1.275-2.011-1.582-.888-.381-1.827-.733-2.689-.733h-3.809v-3.073l8.383-9.484h-12.898v-2.822h15.943v3.636l-7.884,8.92h.265c1.376,0,2.694.485,3.802.961,1.127.484,2.16,1.281,3.066,2.369.919,1.101,1.496,2.067,1.932,3.229h0Z" fill="#ccc" stroke="#ccc" stroke-miterlimit="10" stroke-width="1.5"/>
    </g>
    <g>
      <rect x="796.951" y="330.916" width="230.954" height="52.826" fill="none"/>
      <path d="M815.855,341.174v11.569h10.158v2.822h-10.158v15.661h18.482v2.822h-21.305v-35.695h21.305v2.822h-18.482Z" fill="#ccc" stroke="#ccc" stroke-miterlimit="10" stroke-width="1.5"/>
      <path d="M862.776,339.592v34.455h-2.799l-16.389-29.029v29.005h-2.822v-34.285h3.082l16.106,28.528v-28.675h2.821Z" fill="#ccc" stroke="#ccc" stroke-miterlimit="10" stroke-width="1.5"/>
      <path d="M881.602,354.862h10.158v10.158c0,1.06,0,2.663-.92,4.134l-.125.19c-.552.833-1.122,1.693-2.439,2.516-.65.494-2.245,1.26-3.355,1.676-1.174.44-2.535.655-4.163.655s-2.99-.214-4.164-.655c-1.443-.542-2.624-1.191-3.512-1.93-1.245-.933-2.062-2.075-2.782-3.083l-.117-.193c-.651-1.302-.996-2.79-.996-4.299v-15.52c0-1.723.371-3.085,1.202-4.416.665-1.345,1.931-2.525,2.817-3.288,1.046-.87,2.308-1.343,3.526-1.8,1.175-.442,2.538-.656,4.166-.656s2.99.214,4.164.655c1.09.408,2.25.962,3.449,1.646l.146.096c1.449,1.088,2.492,2.253,3.096,3.461l-2.524,1.263c-.397-.796-1.136-1.607-2.195-2.413-1.026-.581-2.05-1.068-2.963-1.411-.852-.32-1.889-.476-3.173-.476s-2.322.154-3.173.474c-1.049.394-2.036.763-2.697,1.315-.687.59-1.68,1.507-2.181,2.51-.607.985-.839,1.858-.839,3.038v15.52c0,1.037.226,2.051.651,2.943.638.89,1.25,1.729,2.172,2.418.691.573,1.624,1.076,2.752,1.5.853.32,1.89.476,3.174.476s2.32-.155,3.173-.474c1.075-.403,2.341-1.051,2.753-1.36.896-.567,1.209-1.037,1.68-1.75l.107-.163c.469-.75.469-1.735.469-2.603v-7.336h-7.337v-2.819Z" fill="#ccc" stroke="#ccc" stroke-miterlimit="10" stroke-width="1.5"/>
      <path d="M919.639,371.385v2.822h-21.445v-34.285h2.821v31.463h18.624Z" fill="#ccc" stroke="#ccc" stroke-miterlimit="10" stroke-width="1.5"/>
      <path d="M935.81,341.193v30.193h6.913v2.822h-16.648v-2.822h6.913v-30.193h-6.913v-2.822h16.648v2.822h-6.913Z" fill="#ccc" stroke="#ccc" stroke-miterlimit="10" stroke-width="1.5"/>
      <path d="M970.283,360.08c.612,1.213.907,2.407.907,3.547,0,3.039-1.114,5.535-3.315,7.419-2.056,1.899-4.656,2.88-7.689,2.88h-.282c-2.859,0-5.495-1.017-7.831-3.021-1.826-1.545-2.361-2.91-2.749-3.906-.058-.145-.111-.285-.169-.419l2.593-1.113c.069.161.136.329.205.504.325.834.663,1.696,1.951,2.785,1.844,1.583,3.805,2.348,6.002,2.348h.282c2.333,0,4.236-.708,5.813-2.166,1.63-1.397,2.369-3.073,2.369-5.312,0-.694-.197-1.473-.557-2.191-.31-.506-.758-1.175-1.354-1.573-.687-.542-1.566-1.049-2.454-1.429-.575-.247-1.223-.446-1.974-.676-.416-.128-.851-.262-1.303-.412l-4.149-1.105c-2.235-.687-3.849-1.721-4.981-3.177-1.229-1.579-1.851-3.436-1.851-5.522,0-2.581,1.07-4.794,3.18-6.581,2.005-1.851,4.28-2.733,7.121-2.733h.28c2.853.165,5.234,1.143,7.162,2.909,1.464,1.301,2.351,2.857,2.691,4.739l-2.777.502c-.23-1.271-.786-2.242-1.805-3.148-1.452-1.331-3.25-2.061-5.354-2.186l-.199.003c-2.114,0-3.735.625-5.251,2.025-1.514,1.284-2.228,2.731-2.228,4.467,0,1.445.423,2.719,1.255,3.79.776.998,1.899,1.696,3.535,2.2l4.182,1.114c.512.167.924.293,1.319.415.795.244,1.545.474,2.26.78,1.125.481,2.22,1.117,3.007,1.747.962.636,1.64,1.623,2.161,2.493h-.003Z" fill="#ccc" stroke="#ccc" stroke-miterlimit="10" stroke-width="1.5"/>
      <path d="M999.772,341.184v32.874h-2.822v-14.955h-16.507v14.955h-2.822v-32.874h2.822v15.097h16.507v-15.097h2.822Z" fill="#ccc" stroke="#ccc" stroke-miterlimit="10" stroke-width="1.5"/>
      <path d="M1006.187,354.374c0-1.636,1.264-2.963,2.822-2.963s2.821,1.327,2.821,2.963-1.263,2.963-2.821,2.963-2.822-1.326-2.822-2.963ZM1006.187,370.881c0-1.636,1.264-2.963,2.822-2.963s2.821,1.327,2.821,2.963-1.263,2.963-2.821,2.963-2.822-1.326-2.822-2.963Z" fill="#ccc" stroke="#ccc" stroke-miterlimit="10" stroke-width="1.5"/>
    </g>
    <g>
      <rect x="289.417" y="330.683" width="128.751" height="52.826" fill="none"/>
      <path d="M308.346,354.142c0-1.636,1.264-2.963,2.821-2.963s2.822,1.327,2.822,2.963-1.264,2.963-2.822,2.963-2.821-1.326-2.821-2.963ZM308.346,370.649c0-1.636,1.264-2.963,2.821-2.963s2.822,1.327,2.822,2.963-1.264,2.963-2.822,2.963-2.821-1.326-2.821-2.963Z" fill="#ccc" stroke="#ccc" stroke-miterlimit="10" stroke-width="1.5"/>
      <path d="M342.409,351.1v9.735c0,1.931-.329,3.771-.948,5.32-.588,1.624-1.506,3.079-2.709,4.283-.91,1.067-2.075,1.905-3.396,2.413-1.301.641-2.63.964-3.952.964h-11.005v-35.836h11.005c1.459,0,2.818.325,4.158.995,1.384.693,2.495,1.543,3.404,2.602.899.896,1.717,2.256,2.495,4.205.643,1.764.947,3.491.947,5.32ZM339.587,351.1c0-1.515-.242-2.887-.762-4.314-.616-1.539-1.234-2.599-1.93-3.294-.741-.858-1.542-1.466-2.597-1.994-.95-.475-1.87-.697-2.895-.697h-8.184v30.193h8.184c.902,0,1.83-.236,2.755-.698l.136-.06c.911-.34,1.691-.901,2.388-1.712.983-.991,1.679-2.098,2.143-3.374.497-1.243.762-2.76.762-4.314v-9.735Z" fill="#ccc" stroke="#ccc" stroke-miterlimit="10" stroke-width="1.5"/>
      <path d="M370.829,339.553v34.284h-2.822v-28.712l-6.647,11.923h-3.068l-6.65-11.923v28.712h-2.821v-34.284h2.944l8.061,14.452,8.061-14.452h2.944Z" fill="#ccc" stroke="#ccc" stroke-miterlimit="10" stroke-width="1.5"/>
      <path d="M399.249,339.553v34.284h-2.822v-28.712l-6.647,11.923h-3.068l-6.65-11.923v28.712h-2.821v-34.284h2.944l8.061,14.452,8.061-14.452h2.944Z" fill="#ccc" stroke="#ccc" stroke-miterlimit="10" stroke-width="1.5"/>
    </g>
  </g>
</svg>