<?xml version="1.0" encoding="UTF-8"?>
<svg xmlns="http://www.w3.org/2000/svg" width="1584.293" height="1072.174" viewBox="0 0 1584.293 1072.174">
  <g id="a" data-name="CDNU_-_Dark">
    <path d="M1403.61,903.706l-1222.305.984c-5.445.004-9.861-4.411-9.856-9.857l.667-725.918c.005-5.432,4.408-9.834,9.84-9.839l1222.305-.984c5.445-.004,9.861,4.411,9.856,9.857l-.667,725.918c-.005,5.432-4.408,9.834-9.84,9.839Z" fill="none" stroke="#ccc" stroke-miterlimit="10" stroke-width="11"/>
    <polyline points="785.123 902.825 1331.623 903.324 1331.623 653.747 1406.623 653.747 1406.623 327.67 1331.623 327.67 1331.623 160.085 252.123 160.085 252.123 332.358 173.906 332.358 173.906 653.248 252.123 653.248 252.123 902.825 785.123 902.825" fill="none" stroke="#ccc" stroke-miterlimit="10" stroke-width="8"/>
    <rect x="425.123" y="200.085" width="735" height="553" rx="13.681" ry="13.681" fill="none" stroke="#ccc" stroke-miterlimit="10" stroke-width="5"/>
    <rect x="414.123" y="186.085" width="760" height="580" rx="18.29" ry="18.29" fill="none" stroke="#ccc" stroke-miterlimit="10" stroke-width="5"/>
    <g>
      <rect x="267.123" y="201.085" width="137" height="81" fill="none" stroke="#ccc" stroke-miterlimit="10" stroke-width="5"/>
      <polygon points="387.122 241.334 359.756 213.834 359.756 230.834 284.623 230.834 284.623 251.834 359.756 251.834 359.756 268.834 387.122 241.334" fill="#ccc"/>
    </g>
    <g>
      <rect x="267.275" y="327.932" width="137" height="81" fill="none" stroke="#ccc" stroke-miterlimit="10" stroke-width="5"/>
      <polygon points="387.275 368.182 359.908 340.682 359.908 357.682 284.775 357.682 284.775 378.682 359.908 378.682 359.908 395.682 387.275 368.182" fill="#ccc"/>
    </g>
    <g>
      <rect x="267.275" y="454.932" width="137" height="81" fill="none" stroke="#ccc" stroke-miterlimit="10" stroke-width="5"/>
      <polygon points="387.275 495.182 359.908 467.682 359.908 484.682 284.775 484.682 284.775 505.682 359.908 505.682 359.908 522.682 387.275 495.182" fill="#ccc"/>
    </g>
    <g>
      <rect x="267.102" y="579.367" width="137" height="81" fill="none" stroke="#ccc" stroke-miterlimit="10" stroke-width="5"/>
      <polygon points="387.101 619.617 359.734 592.117 359.734 609.117 284.601 609.117 284.601 630.117 359.734 630.117 359.734 647.117 387.101 619.617" fill="#ccc"/>
    </g>
    <g>
      <rect x="1182.254" y="201.085" width="137" height="81" transform="translate(2501.507 483.169) rotate(-180)" fill="none" stroke="#ccc" stroke-miterlimit="10" stroke-width="5"/>
      <polygon points="1199.255 241.334 1226.622 213.834 1226.622 230.834 1301.754 230.834 1301.754 251.834 1226.622 251.834 1226.622 268.834 1199.255 241.334" fill="#ccc"/>
    </g>
    <g>
      <rect x="1182.102" y="327.932" width="137" height="81" transform="translate(2501.203 736.865) rotate(-180)" fill="none" stroke="#ccc" stroke-miterlimit="10" stroke-width="5"/>
      <polygon points="1199.102 368.182 1226.469 340.682 1226.469 357.682 1301.602 357.682 1301.602 378.682 1226.469 378.682 1226.469 395.682 1199.102 368.182" fill="#ccc"/>
    </g>
    <g>
      <rect x="1182.102" y="454.932" width="137" height="81" transform="translate(2501.203 990.865) rotate(-180)" fill="none" stroke="#ccc" stroke-miterlimit="10" stroke-width="5"/>
      <polygon points="1199.102 495.182 1226.469 467.682 1226.469 484.682 1301.602 484.682 1301.602 505.682 1226.469 505.682 1226.469 522.682 1199.102 495.182" fill="#ccc"/>
    </g>
    <g>
      <rect x="1182.275" y="579.367" width="137" height="81" transform="translate(2501.551 1239.734) rotate(-180)" fill="none" stroke="#ccc" stroke-miterlimit="10" stroke-width="5"/>
      <polygon points="1199.276 619.617 1226.643 592.117 1226.643 609.117 1301.776 609.117 1301.776 630.117 1226.643 630.117 1226.643 647.117 1199.276 619.617" fill="#ccc"/>
    </g>
    <circle cx="356.123" cy="736.085" r="30.5" fill="none" stroke="#ccc" stroke-miterlimit="10" stroke-width="5"/>
    <circle cx="1239.123" cy="736.085" r="30.5" fill="none" stroke="#ccc" stroke-miterlimit="10" stroke-width="5"/>
    <rect x="315.623" y="792.539" width="83" height="91" fill="none" stroke="#ccc" stroke-miterlimit="10" stroke-width="5"/>
    <rect x="307.623" y="783.039" width="101" height="110" rx="9.778" ry="9.778" fill="none" stroke="#ccc" stroke-miterlimit="10" stroke-width="5"/>
    <rect x="439.623" y="792.539" width="83" height="91" fill="none" stroke="#ccc" stroke-miterlimit="10" stroke-width="5"/>
    <rect x="431.623" y="783.039" width="101" height="110" rx="9.778" ry="9.778" fill="none" stroke="#ccc" stroke-miterlimit="10" stroke-width="5"/>
    <rect x="563.623" y="792.539" width="83" height="91" fill="none" stroke="#ccc" stroke-miterlimit="10" stroke-width="5"/>
    <rect x="555.623" y="783.039" width="101" height="110" rx="9.778" ry="9.778" fill="none" stroke="#ccc" stroke-miterlimit="10" stroke-width="5"/>
    <rect x="687.623" y="792.539" width="83" height="91" fill="none" stroke="#ccc" stroke-miterlimit="10" stroke-width="5"/>
    <rect x="679.623" y="783.039" width="101" height="110" rx="9.778" ry="9.778" fill="none" stroke="#ccc" stroke-miterlimit="10" stroke-width="5"/>
    <rect x="809.623" y="792.539" width="83" height="91" fill="none" stroke="#ccc" stroke-miterlimit="10" stroke-width="5"/>
    <rect x="801.623" y="783.039" width="101" height="110" rx="9.778" ry="9.778" fill="none" stroke="#ccc" stroke-miterlimit="10" stroke-width="5"/>
    <rect x="936.623" y="792.539" width="83" height="91" fill="none" stroke="#ccc" stroke-miterlimit="10" stroke-width="5"/>
    <rect x="928.623" y="783.039" width="101" height="110" rx="9.778" ry="9.778" fill="none" stroke="#ccc" stroke-miterlimit="10" stroke-width="5"/>
    <rect x="1056.623" y="792.539" width="83" height="91" fill="none" stroke="#ccc" stroke-miterlimit="10" stroke-width="5"/>
    <rect x="1048.623" y="783.039" width="101" height="110" rx="9.778" ry="9.778" fill="none" stroke="#ccc" stroke-miterlimit="10" stroke-width="5"/>
    <rect x="1181.623" y="792.539" width="83" height="91" fill="none" stroke="#ccc" stroke-miterlimit="10" stroke-width="5"/>
    <rect x="1173.623" y="783.039" width="101" height="110" rx="9.778" ry="9.778" fill="none" stroke="#ccc" stroke-miterlimit="10" stroke-width="5"/>
    <circle cx="213.123" cy="265.085" r="34.5" fill="none" stroke="#ccc" stroke-miterlimit="10" stroke-width="3.5"/>
    <circle cx="213.123" cy="265.085" r="27.5" fill="none" stroke="#ccc" stroke-miterlimit="10" stroke-width="3.5"/>
    <circle cx="213.623" cy="718.585" r="34.5" fill="none" stroke="#ccc" stroke-miterlimit="10" stroke-width="3.5"/>
    <circle cx="213.623" cy="718.585" r="27.5" fill="none" stroke="#ccc" stroke-miterlimit="10" stroke-width="3.5"/>
    <circle cx="213.623" cy="837.585" r="34.5" fill="none" stroke="#ccc" stroke-miterlimit="10" stroke-width="3.5"/>
    <circle cx="213.623" cy="837.585" r="27.5" fill="none" stroke="#ccc" stroke-miterlimit="10" stroke-width="3.5"/>
    <circle cx="1372.623" cy="265.085" r="34.5" fill="none" stroke="#ccc" stroke-miterlimit="10" stroke-width="3.5"/>
    <circle cx="1372.623" cy="265.085" r="27.5" fill="none" stroke="#ccc" stroke-miterlimit="10" stroke-width="3.5"/>
    <circle cx="1372.123" cy="718.585" r="34.5" fill="none" stroke="#ccc" stroke-miterlimit="10" stroke-width="3.5"/>
    <circle cx="1372.123" cy="718.585" r="27.5" fill="none" stroke="#ccc" stroke-miterlimit="10" stroke-width="3.5"/>
    <circle cx="1372.123" cy="837.585" r="34.5" fill="none" stroke="#ccc" stroke-miterlimit="10" stroke-width="3.5"/>
    <circle cx="1372.123" cy="837.585" r="27.5" fill="none" stroke="#ccc" stroke-miterlimit="10" stroke-width="3.5"/>
    <g>
      <rect x="321.412" y="805.635" width="66.913" height="64.957" fill="none"/>
      <path d="M335.327,820.004h6.823v36.208h-6.823v-36.208ZM337.817,820.004h21.292v6.574h-21.292v-6.574ZM337.817,835.268h18.552v6.574h-18.552v-6.574Z" fill="#ccc" stroke="#ccc" stroke-miterlimit="10"/>
      <path d="M374.411,856.212h-6.823v-28.189l-4.408,1.668v-7.246l5.404-2.44h5.827v36.208Z" fill="#ccc" stroke="#ccc" stroke-miterlimit="10"/>
    </g>
    <g>
      <rect x="445.412" y="805.635" width="66.913" height="64.957" fill="none"/>
      <path d="M454.633,820.004h6.823v36.208h-6.823v-36.208ZM457.123,820.004h21.292v6.574h-21.292v-6.574ZM457.123,835.268h18.552v6.574h-18.552v-6.574Z" fill="#ccc" stroke="#ccc" stroke-miterlimit="10"/>
      <path d="M483.432,850.061l12.426-16.336c.564-.73,1-1.482,1.307-2.254.307-.772.461-1.49.461-2.154v-.05c0-.979-.315-1.734-.946-2.267-.631-.53-1.528-.797-2.689-.797-1.129,0-2.042.37-2.739,1.108-.697.739-1.121,1.789-1.27,3.15v.024h-6.998v-.024c.149-2.258.693-4.2,1.631-5.827s2.204-2.867,3.798-3.723,3.437-1.283,5.528-1.283c2.257,0,4.188.37,5.79,1.108,1.602.739,2.822,1.814,3.66,3.226s1.258,3.112,1.258,5.104v.024c0,1.645-.286,3.275-.859,4.894-.572,1.619-1.374,3.084-2.403,4.396l-8.915,11.256h12.376v6.574h-21.416v-6.15Z" fill="#ccc" stroke="#ccc" stroke-miterlimit="10"/>
    </g>
    <g>
      <rect x="569.412" y="805.635" width="66.913" height="64.957" fill="none"/>
      <path d="M578.321,820.004h6.823v36.208h-6.823v-36.208ZM580.811,820.004h21.292v6.574h-21.292v-6.574ZM580.811,835.268h18.552v6.574h-18.552v-6.574Z" fill="#ccc" stroke="#ccc" stroke-miterlimit="10"/>
      <path d="M611.927,855.389c-1.71-.797-3.072-1.958-4.084-3.486-1.013-1.526-1.569-3.345-1.668-5.453h7.047c.1.747.319,1.382.66,1.905.34.522.776.921,1.308,1.195.531.273,1.146.411,1.843.411,1.295,0,2.295-.361,3.001-1.084.705-.722,1.058-1.738,1.058-3.051v-.846c0-1.378-.287-2.441-.859-3.188-.573-.748-1.391-1.121-2.453-1.121h-3.063v-6.574h3.063c.863,0,1.531-.327,2.005-.983.473-.656.709-1.573.709-2.752v-.622c0-1.112-.261-1.972-.785-2.578-.522-.605-1.257-.908-2.204-.908-.614,0-1.175.157-1.681.473s-.934.771-1.282,1.369-.598,1.32-.747,2.167h-7.022c.199-2.208.792-4.112,1.78-5.715s2.279-2.822,3.873-3.661c1.594-.838,3.37-1.258,5.329-1.258,3.204,0,5.682.818,7.433,2.453,1.751,1.636,2.627,3.956,2.627,6.961v1.096c0,1.677-.423,3.137-1.27,4.383-.847,1.244-2.051,2.175-3.611,2.789,1.743.398,3.092,1.312,4.046,2.738.955,1.429,1.432,3.246,1.432,5.454v1.096c0,2.108-.415,3.909-1.245,5.403-.831,1.494-2.042,2.632-3.636,3.412s-3.511,1.17-5.752,1.17c-2.191,0-4.143-.398-5.852-1.195Z" fill="#ccc" stroke="#ccc" stroke-miterlimit="10"/>
    </g>
    <g>
      <rect x="693.412" y="805.635" width="66.913" height="64.957" fill="none"/>
      <path d="M701.3,820.004h6.823v36.208h-6.823v-36.208ZM703.79,820.004h21.292v6.574h-21.292v-6.574ZM703.79,835.268h18.552v6.574h-18.552v-6.574Z" fill="#ccc" stroke="#ccc" stroke-miterlimit="10"/>
      <path d="M730.149,844.384l11.156-24.355h7.72l-10.857,24.057h16.262v6.574h-24.28v-6.275ZM744.767,834.921h6.823v21.316h-6.823v-21.316Z" fill="#ccc" stroke="#ccc" stroke-miterlimit="10"/>
    </g>
    <g>
      <rect x="815.412" y="805.635" width="66.913" height="64.957" fill="none"/>
      <path d="M823.924,820.004h6.823v36.208h-6.823v-36.208ZM826.414,820.004h21.291v6.574h-21.291v-6.574ZM826.414,835.268h18.553v6.574h-18.553v-6.574Z" fill="#ccc" stroke="#ccc" stroke-miterlimit="10"/>
      <path d="M858.638,855.302c-1.553-.854-2.798-2.1-3.735-3.735-.938-1.635-1.481-3.573-1.631-5.814v-.025h6.823v.025c.133,1.328.539,2.362,1.221,3.101.68.738,1.568,1.108,2.664,1.108,1.195,0,2.12-.391,2.776-1.171s.983-1.884.983-3.312v-3.039c0-1.427-.295-2.527-.884-3.299-.589-.772-1.415-1.158-2.478-1.158-.979,0-1.814.249-2.503.747s-1.166,1.195-1.432,2.092h-6.375v-20.818h19.448v6.574h-12.625v6.399c.515-.498,1.216-.892,2.104-1.183.888-.29,1.771-.436,2.651-.436,1.876,0,3.482.432,4.819,1.295,1.336.863,2.353,2.125,3.05,3.785s1.047,3.661,1.047,6.001v3.039c0,2.34-.42,4.341-1.258,6.001-.839,1.66-2.055,2.926-3.648,3.798-1.594.871-3.52,1.307-5.777,1.307-1.942,0-3.689-.427-5.242-1.282Z" fill="#ccc" stroke="#ccc" stroke-miterlimit="10"/>
    </g>
    <g>
      <rect x="942.412" y="805.635" width="66.913" height="64.957" fill="none"/>
      <path d="M951.721,820.004h6.823v36.208h-6.823v-36.208ZM954.211,820.004h21.291v6.574h-21.291v-6.574ZM954.211,835.268h18.553v6.574h-18.553v-6.574Z" fill="#ccc" stroke="#ccc" stroke-miterlimit="10"/>
      <path d="M985.189,855.302c-1.585-.854-2.793-2.1-3.623-3.735-.83-1.635-1.245-3.606-1.245-5.914v-.025c0-1.311.162-2.697.485-4.158.324-1.461.784-2.93,1.382-4.408.1-.248.203-.498.312-.746.108-.25.22-.49.337-.723l7.346-15.589h7.72l-8.716,18.054-1.719-.896c.415-.779,1.021-1.386,1.818-1.817s1.727-.647,2.789-.647c1.992,0,3.693.424,5.105,1.27,1.41.848,2.485,2.08,3.225,3.698.738,1.619,1.107,3.565,1.107,5.84v.024c0,2.325-.415,4.317-1.244,5.977-.831,1.661-2.039,2.923-3.624,3.785-1.585.864-3.499,1.295-5.739,1.295-2.226,0-4.131-.427-5.716-1.282ZM993.706,848.953c.656-.706.984-1.706.984-3.001v-.025c0-1.494-.328-2.643-.984-3.448s-1.59-1.208-2.801-1.208c-1.195,0-2.121.411-2.777,1.232-.656.822-.983,1.972-.983,3.449v.025c0,1.295.327,2.291.983,2.988s1.582,1.045,2.777,1.045c1.211,0,2.145-.352,2.801-1.058Z" fill="#ccc" stroke="#ccc" stroke-miterlimit="10"/>
    </g>
    <g>
      <rect x="1062.412" y="805.635" width="66.913" height="64.957" fill="none"/>
      <path d="M1071.966,820.004h6.823v36.208h-6.823v-36.208ZM1074.456,820.004h21.291v6.574h-21.291v-6.574ZM1074.456,835.268h18.553v6.574h-18.553v-6.574Z" fill="#ccc" stroke="#ccc" stroke-miterlimit="10"/>
      <path d="M1121.011,824.536l-8.119,31.676h-7.396l7.869-29.634h-6.226v5.454h-6.823v-12.028h20.694v4.532Z" fill="#ccc" stroke="#ccc" stroke-miterlimit="10"/>
    </g>
    <g>
      <path d="M1201.685,824.549h4.054v29.853h-2.796v-23.18l.112,1.313-3.122,18.54h-2.718l-3.122-18.129.112-1.725v23.18h-2.797v-29.853h4.055l3.11,20.12,3.111-20.12Z" fill="#ccc" stroke="#ccc" stroke-miterlimit="10"/>
      <path d="M1210.046,824.549h3.077v29.853h-3.077v-29.853ZM1211.158,824.549h9.826v5.42h-9.826v-5.42ZM1211.158,836.867h8.591v5.421h-8.591v-5.421ZM1211.158,848.98h9.826v5.421h-9.826v-5.421Z" fill="#ccc" stroke="#ccc" stroke-miterlimit="10"/>
      <path d="M1224.505,824.549h3.763l6.075,22.872-.27.533v-23.405h2.942v29.832h-3.784l-6.054-22.522.27-.534v23.057h-2.942v-29.832Z" fill="#ccc" stroke="#ccc" stroke-miterlimit="10"/>
      <path d="M1243.827,853.405c-.892-.869-1.569-2.135-2.033-3.798s-.696-3.665-.696-6.006v-19.053h3.077v19.196c0,1.712.251,3.039.753,3.983.501.944,1.209,1.417,2.122,1.417.921,0,1.634-.473,2.14-1.417.505-.944.758-2.271.758-3.983v-19.196h3.077v19.053c0,2.341-.234,4.343-.702,6.006s-1.149,2.929-2.044,3.798-1.971,1.304-3.229,1.304-2.332-.435-3.223-1.304Z" fill="#ccc" stroke="#ccc" stroke-miterlimit="10"/>
    </g>
    <g>
      <rect x="315.934" y="672.115" width="70.435" height="25.043" fill="none"/>
      <path d="M324.201,673.28h4.281v22.719h-4.281v-22.719ZM326.076,691.874h7.25c.979,0,1.737-.236,2.273-.711.536-.474.805-1.138.805-1.992v-.047c0-.572-.12-1.062-.359-1.469-.24-.406-.591-.716-1.055-.93-.464-.213-1.019-.32-1.664-.32h-7.25v-4.125h7.25c.885,0,1.57-.224,2.055-.672.484-.447.727-1.078.727-1.891,0-.729-.242-1.297-.727-1.703s-1.169-.609-2.055-.609h-7.25v-4.125h7.391c1.469,0,2.724.242,3.766.727,1.042.484,1.833,1.188,2.375,2.109.542.922.812,2.029.812,3.32,0,.886-.175,1.67-.523,2.352-.349.683-.857,1.242-1.523,1.68-.667.438-1.469.734-2.406.891,1,.136,1.856.44,2.57.914.713.475,1.255,1.092,1.625,1.852.37.761.555,1.641.555,2.641v.047c0,1.303-.273,2.417-.82,3.344-.547.928-1.344,1.633-2.391,2.117s-2.305.727-3.773.727h-7.656v-4.125Z" fill="#ccc" stroke="#ccc" stroke-miterlimit="10"/>
      <path d="M345.849,673.264h4.281v22.734h-4.281v-22.734ZM347.552,682.733h7.906c.438,0,.823-.109,1.156-.328.333-.219.591-.531.773-.938.182-.406.278-.875.289-1.406,0-.531-.091-1-.273-1.406-.183-.406-.44-.719-.773-.938-.333-.219-.724-.328-1.172-.328h-7.906v-4.125h8.25c1.25,0,2.349.281,3.297.844.948.562,1.682,1.357,2.203,2.383.521,1.026.781,2.217.781,3.57s-.261,2.545-.781,3.57c-.521,1.026-1.258,1.82-2.211,2.383s-2.05.844-3.289.844h-8.25v-4.125ZM352.333,686.155l4.578-.719,6.125,10.562h-5.188l-5.516-9.844Z" fill="#ccc" stroke="#ccc" stroke-miterlimit="10"/>
      <path d="M364.575,673.28h16.656v4.125h-16.656v-4.125ZM370.763,675.139h4.281v20.859h-4.281v-20.859Z" fill="#ccc" stroke="#ccc" stroke-miterlimit="10"/>
    </g>
    <g>
      <rect x="1180.586" y="671.895" width="131" height="25.043" fill="none"/>
      <path d="M1193.307,694.971c-1.256-.692-2.227-1.672-2.914-2.938s-1.031-2.731-1.031-4.398v-6.438c0-1.666.344-3.133,1.031-4.398s1.658-2.244,2.914-2.938c1.255-.692,2.705-1.039,4.352-1.039s3.096.347,4.352,1.039c1.255.693,2.227,1.672,2.914,2.938s1.031,2.732,1.031,4.398v6.438c0,1.667-.344,3.133-1.031,4.398s-1.659,2.245-2.914,2.938c-1.256.693-2.706,1.039-4.352,1.039s-3.097-.346-4.352-1.039ZM1199.689,691.237c.583-.328,1.033-.794,1.352-1.398.317-.604.477-1.302.477-2.094v-6.656c0-.791-.159-1.489-.477-2.094-.318-.604-.769-1.07-1.352-1.398-.584-.328-1.261-.492-2.031-.492s-1.448.164-2.031.492c-.584.328-1.034.795-1.352,1.398-.318.604-.477,1.303-.477,2.094v6.656c0,.792.158,1.49.477,2.094.317.604.768,1.07,1.352,1.398.583.328,1.26.492,2.031.492s1.447-.164,2.031-.492Z" fill="#ccc" stroke="#ccc" stroke-miterlimit="10"/>
      <path d="M1211.166,673.057h4.281v22.719h-4.281v-22.719ZM1212.728,673.057h13.359v4.125h-13.359v-4.125ZM1212.728,682.635h11.641v4.125h-11.641v-4.125Z" fill="#ccc" stroke="#ccc" stroke-miterlimit="10"/>
      <path d="M1230.361,673.057h4.281v22.719h-4.281v-22.719ZM1231.924,673.057h13.359v4.125h-13.359v-4.125ZM1231.924,682.635h11.641v4.125h-11.641v-4.125Z" fill="#ccc" stroke="#ccc" stroke-miterlimit="10"/>
      <path d="M1250.337,700.089h-4.062l10.156-29.719h4.062l-10.156,29.719Z" fill="#ccc" stroke="#ccc" stroke-miterlimit="10"/>
      <path d="M1267.071,694.971c-1.256-.692-2.227-1.672-2.914-2.938s-1.031-2.731-1.031-4.398v-6.438c0-1.666.344-3.133,1.031-4.398s1.658-2.244,2.914-2.938c1.255-.692,2.705-1.039,4.352-1.039s3.096.347,4.352,1.039c1.255.693,2.227,1.672,2.914,2.938s1.031,2.732,1.031,4.398v6.438c0,1.667-.344,3.133-1.031,4.398s-1.659,2.245-2.914,2.938c-1.256.693-2.706,1.039-4.352,1.039s-3.097-.346-4.352-1.039ZM1273.454,691.237c.583-.328,1.033-.794,1.352-1.398.317-.604.477-1.302.477-2.094v-6.656c0-.791-.159-1.489-.477-2.094-.318-.604-.769-1.07-1.352-1.398-.584-.328-1.261-.492-2.031-.492s-1.448.164-2.031.492c-.584.328-1.034.795-1.352,1.398-.318.604-.477,1.303-.477,2.094v6.656c0,.792.158,1.49.477,2.094.317.604.768,1.07,1.352,1.398.583.328,1.26.492,2.031.492s1.447-.164,2.031-.492Z" fill="#ccc" stroke="#ccc" stroke-miterlimit="10"/>
      <path d="M1284.931,673.057h5.234l8.453,17.406-.375.406v-17.812h4.094v22.703h-5.266l-8.422-17.141.375-.406v17.547h-4.094v-22.703Z" fill="#ccc" stroke="#ccc" stroke-miterlimit="10"/>
    </g>
  </g>
  <g id="b" data-name="Scratchpad_-_Dark">
    <g>
      <path d="M483.164,697.036v37.593h12.121v3.515h-15.634v-44.62h15.634v3.513h-12.121Z" fill="#ccc" stroke="#ccc" stroke-miterlimit="10" stroke-width="1.5"/>
      <path d="M1104.113,693.34v44.62h-15.635v-3.514h12.121v-37.593h-12.121v-3.514h15.635Z" fill="#ccc" stroke="#ccc" stroke-miterlimit="10" stroke-width="1.5"/>
    </g>
  </g>
  <g id="c" data-name="CV_Manual_Page_-_Dark">
    <g>
      <rect x="560.029" y="304.635" width="508" height="38.311" fill="none"/>
      <path d="M711.84,335.663c.856-.646,1.597-1.466,2.266-2.537l2.393,1.496c-.848,1.357-1.84,2.451-3.031,3.345-.995.666-2.23,1.284-3.454,1.744-1.391.464-2.663.655-4.306.655-1.747,0-3.114-.208-4.305-.653-1.225-.408-2.341-.989-3.569-1.866-1.222-.761-2.279-1.933-2.981-3.34-.652-1.301-.996-2.788-.996-4.299v-15.379c0-1.785.574-3.176,1.136-4.299.915-1.474,1.905-2.568,3.097-3.461.992-.665,2.228-1.284,3.454-1.744,1.386-.463,2.658-.653,4.305-.653,1.748,0,3.115.209,4.305.655,1.223.406,2.339.986,3.569,1.865,1.326.996,2.321,2.16,2.981,3.48l-2.524,1.263c-.462-.927-1.176-1.756-2.123-2.466-.978-.698-1.837-1.147-2.845-1.483-.913-.341-1.965-.492-3.363-.492-1.342,0-2.317.143-3.364.492-.983.37-2.009.882-2.767,1.387-.856.645-1.597,1.466-2.267,2.537-.438.89-.773,1.792-.773,2.92v15.377c0,1.075.241,2.125.697,3.036.478.957,1.16,1.716,2.026,2.257,1.077.766,1.934,1.216,2.943,1.552.913.341,1.967.492,3.364.492,1.339,0,2.314-.143,3.364-.492.98-.369,2.007-.882,2.767-1.387l.003-.003Z" fill="#ccc" stroke="#ccc" stroke-miterlimit="10" stroke-width="1.5"/>
      <path d="M749.211,306.237v7.705l-22.193,26.721h-3.908v-34.425h2.822v31.315l20.458-24.631v-6.684h2.821Z" fill="#ccc" stroke="#ccc" stroke-miterlimit="10" stroke-width="1.5"/>
      <path d="M792.649,306.247v34.284h-2.822v-28.712l-6.647,11.923h-3.068l-6.65-11.923v28.712h-2.821v-34.284h2.944l8.061,14.452,8.061-14.452h2.944Z" fill="#ccc" stroke="#ccc" stroke-miterlimit="10" stroke-width="1.5"/>
      <path d="M821.073,321.325l-.145,19.184-2.822-.021.08-10.713h-16.306v10.723h-2.821v-19.178l9.669-15.108h2.673l9.672,15.114ZM818.208,326.951l.037-4.812-8.181-12.781-8.184,12.785v4.809h16.327Z" fill="#ccc" stroke="#ccc" stroke-miterlimit="10" stroke-width="1.5"/>
      <path d="M849.489,306.053v34.455h-2.8l-16.389-29.029v29.005h-2.821v-34.285h3.081l16.106,28.528v-28.675h2.822Z" fill="#ccc" stroke="#ccc" stroke-miterlimit="10" stroke-width="1.5"/>
      <path d="M877.91,306.237v24.407c0,1.562-.365,3.062-1.032,4.228-.573,1.152-1.496,2.297-2.706,3.334-1.019.851-2.12,1.322-3.185,1.778-1.233.464-2.502.679-3.94.679-1.513,0-2.867-.22-4.024-.654-1.271-.476-2.405-1.126-3.37-1.929-1.026-.882-2.059-1.876-2.757-3.276-.671-1.339-.996-2.701-.996-4.158v-24.408h2.821v24.408c0,1.024.222,1.944.698,2.896.449.899,1.146,1.602,2.055,2.382.705.587,1.566,1.076,2.54,1.442.827.312,1.876.476,3.031.476,1.107,0,2.027-.151,2.89-.474.859-.371,1.727-.742,2.414-1.315.907-.779,1.6-1.627,2.04-2.51.457-.804.698-1.835.698-2.896v-24.408h2.823Z" fill="#ccc" stroke="#ccc" stroke-miterlimit="10" stroke-width="1.5"/>
      <path d="M906.332,321.325l-.146,19.184-2.821-.021.08-10.713h-16.306v10.723h-2.821v-19.178l9.668-15.108h2.674l9.672,15.114ZM903.467,326.951l.036-4.812-8.18-12.781-8.184,12.785v4.809h16.327Z" fill="#ccc" stroke="#ccc" stroke-miterlimit="10" stroke-width="1.5"/>
      <path d="M934.183,337.846v2.822h-21.445v-34.285h2.821v31.463h18.624Z" fill="#ccc" stroke="#ccc" stroke-miterlimit="10" stroke-width="1.5"/>
    </g>
    <g>
      <rect x="433.071" y="676.108" width="48.49" height="58.293" fill="none"/>
      <path d="M459.62,722.7h6.765l-8.859,12.077-9.257-12.077h7.09v-11.934h-7.18l9.347-11.789,8.944,11.789h-6.85v11.934Z" fill="#ccc" stroke="#ccc" stroke-miterlimit="10"/>
    </g>
    <g>
      <rect x="442.637" y="356.772" width="254.155" height="52.826" fill="none"/>
      <path d="M454.398,389.592v-4.694h-9.312v-2.822h9.312v-4.478l7.996,5.864-7.996,6.13Z" fill="#ccc" stroke="#ccc" stroke-miterlimit="10" stroke-width="1.5"/>
    </g>
    <g>
      <rect x="449.325" y="490.837" width="354.693" height="52.826" fill="none"/>
      <path d="M469.758,529.123c.856-.646,1.597-1.466,2.266-2.537l2.393,1.496c-.848,1.357-1.84,2.451-3.031,3.345-.995.666-2.23,1.284-3.454,1.744-1.391.464-2.663.655-4.306.655-1.747,0-3.114-.208-4.305-.653-1.225-.408-2.341-.989-3.569-1.866-1.222-.761-2.279-1.933-2.981-3.34-.652-1.301-.996-2.788-.996-4.299v-15.379c0-1.785.574-3.176,1.136-4.299.915-1.474,1.905-2.568,3.097-3.461.992-.665,2.228-1.284,3.454-1.744,1.386-.463,2.658-.653,4.305-.653,1.748,0,3.115.209,4.305.655,1.223.406,2.339.986,3.569,1.865,1.326.996,2.321,2.16,2.981,3.48l-2.524,1.263c-.462-.927-1.176-1.756-2.123-2.466-.978-.698-1.837-1.147-2.844-1.483-.913-.341-1.966-.492-3.364-.492-1.342,0-2.317.143-3.364.492-.983.37-2.009.882-2.767,1.387-.856.645-1.597,1.466-2.267,2.537-.438.89-.773,1.792-.773,2.92v15.377c0,1.075.241,2.125.697,3.036.478.957,1.16,1.716,2.026,2.257,1.077.766,1.935,1.216,2.943,1.552.913.341,1.967.492,3.364.492,1.339,0,2.314-.143,3.364-.492.98-.369,2.007-.882,2.767-1.387l.003-.002Z" fill="#ccc" stroke="#ccc" stroke-miterlimit="10" stroke-width="1.5"/>
      <path d="M507.129,499.697v7.705l-22.193,26.721h-3.908v-34.425h2.822v31.315l20.458-24.631v-6.684h2.821Z" fill="#ccc" stroke="#ccc" stroke-miterlimit="10" stroke-width="1.5"/>
      <path d="M534.694,520c.612,1.213.907,2.407.907,3.547,0,3.039-1.115,5.535-3.315,7.419-2.056,1.899-4.656,2.88-7.689,2.88h-.282c-2.86,0-5.495-1.017-7.832-3.021-1.826-1.545-2.361-2.91-2.749-3.906-.058-.145-.111-.285-.169-.419l2.593-1.113c.069.161.135.329.205.504.326.834.663,1.696,1.951,2.785,1.844,1.583,3.805,2.348,6.002,2.348h.282c2.333,0,4.237-.708,5.814-2.166,1.63-1.397,2.369-3.073,2.369-5.312,0-.694-.198-1.473-.557-2.191-.309-.506-.758-1.175-1.354-1.573-.686-.542-1.566-1.049-2.454-1.429-.576-.247-1.223-.446-1.974-.676-.416-.128-.851-.262-1.302-.412l-4.149-1.105c-2.236-.687-3.849-1.721-4.981-3.177-1.229-1.579-1.851-3.436-1.851-5.522,0-2.581,1.071-4.794,3.18-6.581,2.005-1.851,4.28-2.733,7.121-2.733h.281c2.853.165,5.234,1.143,7.162,2.909,1.464,1.301,2.351,2.857,2.692,4.739l-2.778.502c-.23-1.271-.786-2.242-1.805-3.148-1.452-1.331-3.25-2.061-5.354-2.186l-.199.003c-2.115,0-3.736.625-5.251,2.025-1.514,1.284-2.228,2.731-2.228,4.467,0,1.445.423,2.719,1.255,3.79.776.998,1.899,1.696,3.535,2.2l4.182,1.114c.512.167.924.293,1.319.415.795.244,1.545.474,2.26.78,1.125.481,2.219,1.117,3.006,1.747.962.636,1.64,1.623,2.162,2.493h-.003Z" fill="#ccc" stroke="#ccc" stroke-miterlimit="10" stroke-width="1.5"/>
      <path d="M563.362,506.205c.559,1.301.82,2.464.82,3.66,0,1.24-.284,2.554-.82,3.803-.471,1.097-1.249,2.236-2.133,3.12-.815.816-2.135,1.904-3.795,2.458-1.543.691-3.335.777-4.539.777h-8.04v13.968h-2.822v-34.425h10.723c1.697,0,3.179.308,4.666.968,1.528.681,2.774,1.515,3.81,2.549.885.885,1.662,2.021,2.133,3.123h-.001ZM560.772,512.554c.386-.9.591-1.83.591-2.689,0-.812-.182-1.597-.591-2.548-.326-.76-.915-1.618-1.535-2.239-.799-.797-1.739-1.422-2.961-1.967-1.127-.501-2.212-.724-3.519-.724h-7.9v14.814h8.04c1.525,0,2.609-.179,3.519-.584,1.016-.346,1.971-.975,2.82-1.824.622-.622,1.21-1.479,1.535-2.239h.001Z" fill="#ccc" stroke="#ccc" stroke-miterlimit="10" stroke-width="1.5"/>
      <path d="M592.608,511.253v9.735c0,1.931-.329,3.771-.948,5.32-.588,1.624-1.506,3.079-2.709,4.283-.91,1.067-2.076,1.905-3.396,2.413-1.301.641-2.63.964-3.952.964h-11.005v-35.836h11.005c1.459,0,2.819.325,4.158.995,1.384.693,2.496,1.543,3.404,2.602.9.896,1.717,2.256,2.496,4.205.642,1.764.947,3.491.947,5.32ZM589.786,511.253c0-1.515-.243-2.887-.762-4.314-.617-1.539-1.234-2.599-1.93-3.294-.741-.858-1.542-1.466-2.596-1.994-.951-.475-1.871-.697-2.895-.697h-8.183v30.193h8.183c.903,0,1.83-.236,2.755-.698l.136-.06c.911-.34,1.691-.901,2.387-1.712.983-.991,1.679-2.098,2.143-3.374.497-1.243.762-2.76.762-4.314v-9.735Z" fill="#ccc" stroke="#ccc" stroke-miterlimit="10" stroke-width="1.5"/>
      <path d="M720.904,533.255v.887h-1.986l-.561.414-8.416-11.431-3.146,3.389v7.487h-2.822v-32.873h2.822v21.238l10.394-11.194.426.397h2.019v1.119l-7.738,8.334,9.008,12.234Z" fill="#ccc" stroke="#ccc" stroke-miterlimit="10" stroke-width="1.5"/>
      <path d="M734.4,514.379v13.262c0,1.111.26,2.143.661,2.624.474.552,1.713.903,2.584.903.85,0,1.757-.332,1.767-.334l.235-.089h.679v2.537l.073.195c-.014.005-.039.014-.073.027v.063h-.189c-.464.149-1.454.423-2.493.423-1.546,0-3.611-.588-4.738-1.903-1.198-1.439-1.326-3.587-1.326-4.445v-13.262h-4.233v-2.822h4.233v-6.208h2.821v6.208h6.349v2.822h-6.349Z" fill="#ccc" stroke="#ccc" stroke-miterlimit="10" stroke-width="1.5"/>
      <path d="M754.981,520.36c5.587,2.128,6.748,5.046,6.748,7.124,0,3.737-3.421,6.349-8.322,6.349-2.388,0-5.833-1.503-6.217-1.675l1.146-2.578c1.293.576,3.708,1.431,5.071,1.431,3.29,0,5.501-1.418,5.501-3.527,0-2.156-2.651-3.62-4.876-4.467-3.673-1.223-5.563-3.335-5.563-6.257,0-3.857,2.88-6.349,7.337-6.349,3.039,0,3.847.379,4.91.998.21.124.441.259.752.4l-1.169,2.568c-.412-.188-.721-.366-1.001-.529-.66-.384-1.06-.615-3.493-.615-1.687,0-4.516.458-4.516,3.527,0,1.104.419,2.51,3.691,3.6h0Z" fill="#ccc" stroke="#ccc" stroke-miterlimit="10" stroke-width="1.5"/>
    </g>
    <polyline id="d" data-name="polyline168" points="1097.286 361.375 1111.739 361.375 1111.739 404.183 1097.286 404.183" fill="none" stroke="#ccc" stroke-miterlimit="10" stroke-width="4"/>
    <polyline id="e" data-name="polyline169" points="495.739 362.186 481.286 362.186 481.286 404.995 495.739 404.995" fill="none" stroke="#ccc" stroke-miterlimit="10" stroke-width="4"/>
    <g>
      <rect x="495.739" y="364.435" width="601.547" height="38.311" fill="none"/>
      <path d="M499.887,388.885v-3.11h12.597v3.11h-12.597Z" fill="#ccc" stroke="#ccc" stroke-miterlimit="10" stroke-width="1.5"/>
      <path d="M534.411,388.885v-3.11h12.597v3.11h-12.597Z" fill="#ccc" stroke="#ccc" stroke-miterlimit="10" stroke-width="1.5"/>
      <path d="M570.59,388.885v-3.11h12.597v3.11h-12.597Z" fill="#ccc" stroke="#ccc" stroke-miterlimit="10" stroke-width="1.5"/>
      <path d="M620.764,371.935c0,3.858-3.14,6.998-6.998,6.998s-6.997-3.14-6.997-6.998,3.14-6.998,6.997-6.998,6.998,3.14,6.998,6.998ZM617.654,371.935c0-2.143-1.745-3.888-3.888-3.888s-3.887,1.745-3.887,3.888,1.745,3.888,3.887,3.888,3.888-1.745,3.888-3.888Z" fill="#ccc" stroke="#ccc" stroke-miterlimit="10" stroke-width="1.5"/>
      <path d="M644.352,388.885v-3.11h12.597v3.11h-12.597Z" fill="#ccc" stroke="#ccc" stroke-miterlimit="10" stroke-width="1.5"/>
      <path d="M680.531,388.885v-3.11h12.597v3.11h-12.597Z" fill="#ccc" stroke="#ccc" stroke-miterlimit="10" stroke-width="1.5"/>
      <path d="M716.71,398.526c0-1.803,1.392-3.266,3.11-3.266s3.11,1.462,3.11,3.266-1.392,3.266-3.11,3.266-3.11-1.462-3.11-3.266Z" fill="#ccc" stroke="#ccc" stroke-miterlimit="10" stroke-width="1.5"/>
      <path d="M746.517,388.885v-3.11h12.598v3.11h-12.598Z" fill="#ccc" stroke="#ccc" stroke-miterlimit="10" stroke-width="1.5"/>
      <path d="M832.267,388.885v-3.11h12.597v3.11h-12.597Z" fill="#ccc" stroke="#ccc" stroke-miterlimit="10" stroke-width="1.5"/>
      <path d="M868.447,388.885v-3.11h12.597v3.11h-12.597Z" fill="#ccc" stroke="#ccc" stroke-miterlimit="10" stroke-width="1.5"/>
      <path d="M904.626,388.885v-3.11h12.597v3.11h-12.597Z" fill="#ccc" stroke="#ccc" stroke-miterlimit="10" stroke-width="1.5"/>
      <path d="M940.805,388.885v-3.11h12.597v3.11h-12.597Z" fill="#ccc" stroke="#ccc" stroke-miterlimit="10" stroke-width="1.5"/>
      <path d="M990.979,371.935c0,3.858-3.14,6.998-6.998,6.998s-6.997-3.14-6.997-6.998,3.14-6.998,6.997-6.998,6.998,3.14,6.998,6.998ZM987.869,371.935c0-2.143-1.745-3.888-3.888-3.888s-3.888,1.745-3.888,3.888,1.745,3.888,3.888,3.888,3.888-1.745,3.888-3.888Z" fill="#ccc" stroke="#ccc" stroke-miterlimit="10" stroke-width="1.5"/>
      <path d="M1014.567,388.885v-3.11h12.597v3.11h-12.597Z" fill="#ccc" stroke="#ccc" stroke-miterlimit="10" stroke-width="1.5"/>
      <path d="M1050.746,398.526c0-1.803,1.393-3.266,3.109-3.266s3.11,1.462,3.11,3.266-1.393,3.266-3.11,3.266-3.109-1.462-3.109-3.266Z" fill="#ccc" stroke="#ccc" stroke-miterlimit="10" stroke-width="1.5"/>
      <path d="M1080.554,388.885v-3.11h12.597v3.11h-12.597Z" fill="#ccc" stroke="#ccc" stroke-miterlimit="10" stroke-width="1.5"/>
    </g>
    <g>
      <polyline points="986.276 609.964 1130.174 609.964 1130.174 648.275 986.276 648.275" fill="none"/>
      <path d="M1021.587,631.546l8.149,13.498v.816h-2.112l-.507.307-8.621-14.278c-.062,0-.127.004-.188.004h-7.902v13.968h-2.821v-34.425h10.581c1.629,0,3.239.336,4.666.968,1.531.681,2.777,1.515,3.81,2.549.838.837,1.459,1.924,2.06,2.973l.075.15c.559,1.306.82,2.469.82,3.659,0,1.236-.284,2.55-.82,3.802-.473,1.1-1.252,2.238-2.135,3.121-.815.816-2.135,1.904-3.795,2.459-.417.186-.837.322-1.259.432v-.002ZM1010.405,614.257v14.814h7.902c1.586,0,2.572-.165,3.518-.584,1.016-.346,1.971-.976,2.82-1.824.629-.631,1.205-1.469,1.537-2.24.386-.902.591-1.832.591-2.688,0-.787-.174-1.553-.561-2.476-.52-.907-1.009-1.754-1.565-2.312-.798-.797-1.738-1.422-2.962-1.966-1.066-.474-2.283-.725-3.519-.725h-7.762Z" fill="#ccc" stroke="#ccc" stroke-miterlimit="10" stroke-width="1.5"/>
      <path d="M1056.75,614.447h-8.889v31.463h-2.821v-31.463h-8.89v-2.822h20.6v2.822Z" fill="#ccc" stroke="#ccc" stroke-miterlimit="10" stroke-width="1.5"/>
      <path d="M1085.158,611.383v34.455h-2.799l-16.389-29.028v29.005h-2.822v-34.285h3.082l16.106,28.528v-28.675h2.821Z" fill="#ccc" stroke="#ccc" stroke-miterlimit="10" stroke-width="1.5"/>
      <path d="M1100.88,635.526v-4.693h-9.312v-2.822h9.312v-4.478l7.995,5.863-7.995,6.13Z" fill="#ccc" stroke="#ccc" stroke-miterlimit="10" stroke-width="1.5"/>
    </g>
    <polyline id="f" data-name="polyline168" points="668.254 495.44 682.707 495.44 682.707 538.248 668.254 538.248" fill="none" stroke="#ccc" stroke-miterlimit="10" stroke-width="4"/>
    <polyline id="g" data-name="polyline169" points="613.692 496.251 599.24 496.251 599.24 539.06 613.692 539.06" fill="none" stroke="#ccc" stroke-miterlimit="10" stroke-width="4"/>
    <g>
      <rect x="599.24" y="230.835" width="130.884" height="38.311" fill="none"/>
      <path d="M607.536,231.448v33.888h10.927v3.167h-14.094v-40.223h14.094v3.167h-10.927Z" fill="#ccc" stroke="#ccc" stroke-miterlimit="10" stroke-width="1.5"/>
      <path d="M646.37,238.653c.652,1.301.996,2.788.996,4.299v15.378c0,1.511-.344,3-.996,4.3-.61,1.222-1.532,2.366-2.742,3.403-1.079.898-2.239,1.511-3.461,1.83-1.114.406-2.315.612-3.665.625h-.141c-1.508-.011-2.71-.214-3.881-.653-1.273-.479-2.406-1.127-3.371-1.932-1.225-1.048-2.147-2.194-2.758-3.416-.652-1.301-.996-2.788-.996-4.297v-15.378c0-1.51.346-2.997.996-4.299.611-1.222,1.533-2.367,2.743-3.403,1.079-.9,2.239-1.511,3.461-1.83,1.152-.42,2.398-.626,3.807-.626,1.511,0,2.864.219,4.022.653,1.273.477,2.406,1.127,3.372,1.932,1.074.918,1.925,2.033,2.616,3.414h0ZM628.178,242.811v13.917l16.189-15.351c-.117-.514-.292-1.006-.521-1.463-.526-1.054-1.134-1.855-1.913-2.523-.706-.588-1.566-1.078-2.54-1.443-.828-.311-1.876-.474-3.032-.474-1.109,0-2.027.151-2.891.474l-.152.048c-.837.209-1.644.635-2.403,1.267-.907.777-1.599,1.627-2.04,2.51-.457.914-.698,1.964-.698,3.038ZM644.545,258.332v-13.233l-16.033,15.203c.102.32.219.632.366.927.441.883,1.133,1.732,2.056,2.522.705.587,1.564,1.077,2.54,1.443.858.322,1.772.469,2.957.474,1.078-.005,1.977-.156,2.823-.474l.152-.048c.837-.208,1.644-.635,2.403-1.267.906-.777,1.597-1.626,2.039-2.51.457-.913.698-1.962.698-3.038Z" fill="#ccc" stroke="#ccc" stroke-miterlimit="10" stroke-width="1.5"/>
      <path d="M674.789,238.653c.652,1.301.996,2.788.996,4.299v15.378c0,1.511-.344,3-.996,4.3-.609,1.222-1.532,2.366-2.741,3.403-1.079.898-2.239,1.511-3.461,1.83-1.114.406-2.315.612-3.665.625h-.141c-1.508-.011-2.71-.214-3.881-.653-1.273-.479-2.406-1.127-3.371-1.932-1.225-1.048-2.147-2.194-2.758-3.416-.652-1.301-.996-2.788-.996-4.297v-15.378c0-1.51.346-2.997.996-4.299.611-1.222,1.533-2.367,2.743-3.403,1.079-.9,2.239-1.511,3.461-1.83,1.152-.42,2.398-.626,3.807-.626,1.511,0,2.864.219,4.022.653,1.273.477,2.406,1.127,3.372,1.932,1.074.918,1.925,2.033,2.616,3.414h-.002ZM656.598,242.811v13.917l16.189-15.351c-.117-.514-.292-1.006-.521-1.463-.526-1.054-1.134-1.855-1.913-2.523-.706-.588-1.566-1.078-2.54-1.443-.828-.311-1.876-.474-3.032-.474-1.109,0-2.027.151-2.891.474l-.152.048c-.837.209-1.644.635-2.403,1.267-.907.777-1.599,1.627-2.04,2.51-.457.914-.698,1.964-.698,3.038ZM672.965,258.332v-13.233l-16.033,15.203c.102.32.219.632.366.927.441.883,1.133,1.732,2.056,2.522.705.587,1.564,1.077,2.54,1.443.858.322,1.772.469,2.957.474,1.078-.005,1.977-.156,2.823-.474l.152-.048c.837-.208,1.644-.635,2.403-1.267.906-.777,1.597-1.626,2.039-2.51.457-.913.698-1.962.698-3.038Z" fill="#ccc" stroke="#ccc" stroke-miterlimit="10" stroke-width="1.5"/>
      <path d="M703.209,238.653c.651,1.301.996,2.788.996,4.299v15.378c0,1.511-.345,3-.996,4.3-.609,1.222-1.532,2.366-2.741,3.403-1.08.898-2.239,1.511-3.461,1.83-1.115.406-2.315.612-3.666.625h-.141c-1.509-.011-2.711-.214-3.882-.653-1.272-.479-2.405-1.127-3.37-1.932-1.225-1.048-2.147-2.194-2.759-3.416-.651-1.301-.996-2.788-.996-4.297v-15.378c0-1.51.346-2.997.996-4.299.611-1.222,1.534-2.367,2.743-3.403,1.079-.9,2.239-1.511,3.461-1.83,1.152-.42,2.398-.626,3.807-.626,1.511,0,2.864.219,4.022.653,1.272.477,2.405,1.127,3.372,1.932,1.073.918,1.924,2.033,2.615,3.414h0ZM685.017,242.811v13.917l16.19-15.351c-.117-.514-.292-1.006-.521-1.463-.526-1.054-1.135-1.855-1.913-2.523-.706-.588-1.566-1.078-2.54-1.443-.828-.311-1.877-.474-3.032-.474-1.108,0-2.027.151-2.891.474l-.152.048c-.837.209-1.644.635-2.403,1.267-.906.777-1.598,1.627-2.04,2.51-.457.914-.698,1.964-.698,3.038ZM701.385,258.332v-13.233l-16.033,15.203c.102.32.219.632.365.927.441.883,1.133,1.732,2.056,2.522.705.587,1.564,1.077,2.539,1.443.858.322,1.772.469,2.958.474,1.077-.005,1.977-.156,2.823-.474l.152-.048c.836-.208,1.644-.635,2.402-1.267.905-.777,1.597-1.626,2.039-2.51.457-.913.698-1.962.698-3.038Z" fill="#ccc" stroke="#ccc" stroke-miterlimit="10" stroke-width="1.5"/>
      <path d="M725.005,228.116v40.223h-14.093v-3.168h10.926v-33.888h-10.926v-3.167h14.093Z" fill="#ccc" stroke="#ccc" stroke-miterlimit="10" stroke-width="1.5"/>
    </g>
    <g>
      <rect x="599.24" y="498.5" width="87.582" height="38.311" fill="none"/>
      <path d="M638.836,504.659c.652,1.301.996,2.788.996,4.299v15.378c0,1.511-.344,3-.996,4.3-.61,1.222-1.532,2.366-2.742,3.403-1.079.898-2.239,1.511-3.461,1.83-1.114.407-2.315.612-3.666.625h-.141c-1.508-.011-2.71-.214-3.881-.653-1.273-.479-2.406-1.127-3.371-1.932-1.225-1.048-2.147-2.194-2.758-3.416-.652-1.301-.996-2.788-.996-4.297v-15.378c0-1.51.346-2.997.996-4.299.611-1.222,1.534-2.367,2.743-3.403,1.079-.9,2.239-1.511,3.461-1.83,1.152-.42,2.398-.626,3.807-.626,1.511,0,2.864.219,4.022.653,1.273.477,2.406,1.127,3.372,1.932,1.074.918,1.925,2.033,2.616,3.414h0ZM620.644,508.818v13.917l16.19-15.351c-.117-.514-.292-1.006-.521-1.463-.526-1.054-1.134-1.855-1.913-2.523-.706-.588-1.566-1.078-2.54-1.443-.828-.311-1.876-.474-3.032-.474-1.109,0-2.027.151-2.891.474l-.152.048c-.837.209-1.644.635-2.403,1.267-.907.777-1.599,1.627-2.04,2.51-.457.914-.699,1.964-.699,3.038ZM637.012,524.339v-13.233l-16.034,15.203c.102.32.219.632.366.927.441.883,1.133,1.732,2.056,2.522.705.587,1.564,1.077,2.54,1.443.858.322,1.772.469,2.957.474,1.078-.005,1.977-.156,2.823-.474l.152-.048c.837-.208,1.644-.635,2.403-1.267.906-.777,1.597-1.626,2.039-2.51.457-.913.699-1.962.699-3.038Z" fill="#ccc" stroke="#ccc" stroke-miterlimit="10" stroke-width="1.5"/>
      <path d="M667.256,504.659c.652,1.301.996,2.788.996,4.299v15.378c0,1.511-.344,3-.996,4.3-.61,1.222-1.532,2.366-2.742,3.403-1.079.898-2.239,1.511-3.461,1.83-1.114.407-2.315.612-3.666.625h-.141c-1.508-.011-2.71-.214-3.881-.653-1.273-.479-2.406-1.127-3.371-1.932-1.225-1.048-2.147-2.194-2.758-3.416-.652-1.301-.996-2.788-.996-4.297v-15.378c0-1.51.346-2.997.996-4.299.611-1.222,1.534-2.367,2.743-3.403,1.079-.9,2.239-1.511,3.461-1.83,1.152-.42,2.398-.626,3.807-.626,1.511,0,2.864.219,4.022.653,1.273.477,2.406,1.127,3.372,1.932,1.074.918,1.925,2.033,2.616,3.414h0ZM649.064,508.818v13.917l16.19-15.351c-.117-.514-.292-1.006-.521-1.463-.526-1.054-1.134-1.855-1.913-2.523-.706-.588-1.566-1.078-2.54-1.443-.828-.311-1.876-.474-3.032-.474-1.109,0-2.027.151-2.891.474l-.152.048c-.837.209-1.644.635-2.403,1.267-.907.777-1.599,1.627-2.04,2.51-.457.914-.699,1.964-.699,3.038ZM665.432,524.339v-13.233l-16.034,15.203c.102.32.219.632.366.927.441.883,1.133,1.732,2.056,2.522.705.587,1.564,1.077,2.54,1.443.858.322,1.772.469,2.957.474,1.078-.005,1.977-.156,2.823-.474l.152-.048c.837-.208,1.644-.635,2.403-1.267.906-.777,1.597-1.626,2.039-2.51.457-.913.699-1.962.699-3.038Z" fill="#ccc" stroke="#ccc" stroke-miterlimit="10" stroke-width="1.5"/>
    </g>
    <g>
      <rect x="449.325" y="222.706" width="354.693" height="52.826" fill="none"/>
      <path d="M469.758,260.993c.856-.646,1.597-1.466,2.266-2.537l2.393,1.496c-.848,1.357-1.84,2.451-3.031,3.345-.995.666-2.23,1.284-3.454,1.744-1.391.464-2.663.655-4.306.655-1.747,0-3.114-.208-4.305-.653-1.225-.408-2.341-.989-3.569-1.866-1.222-.761-2.279-1.933-2.981-3.34-.652-1.301-.996-2.788-.996-4.299v-15.379c0-1.785.574-3.176,1.136-4.299.915-1.474,1.905-2.568,3.097-3.461.992-.665,2.228-1.284,3.454-1.744,1.386-.463,2.658-.653,4.305-.653,1.748,0,3.115.209,4.305.655,1.223.406,2.339.986,3.569,1.865,1.326.996,2.321,2.16,2.981,3.48l-2.524,1.263c-.462-.927-1.176-1.756-2.123-2.466-.978-.698-1.837-1.147-2.844-1.483-.913-.341-1.966-.492-3.364-.492-1.342,0-2.317.143-3.364.492-.983.37-2.009.882-2.767,1.387-.856.645-1.597,1.466-2.267,2.537-.438.89-.773,1.792-.773,2.92v15.377c0,1.075.241,2.125.697,3.036.478.957,1.16,1.716,2.026,2.257,1.077.766,1.935,1.216,2.943,1.552.913.341,1.967.492,3.364.492,1.339,0,2.314-.143,3.364-.492.98-.369,2.007-.882,2.767-1.387l.003-.002Z" fill="#ccc" stroke="#ccc" stroke-miterlimit="10" stroke-width="1.5"/>
      <path d="M507.129,231.566v7.705l-22.193,26.721h-3.908v-34.425h2.822v31.315l20.458-24.631v-6.684h2.821Z" fill="#ccc" stroke="#ccc" stroke-miterlimit="10" stroke-width="1.5"/>
      <path d="M535.715,232.974v32.874h-2.822v-14.955h-16.507v14.955h-2.822v-32.874h2.822v15.097h16.507v-15.097h2.822Z" fill="#ccc" stroke="#ccc" stroke-miterlimit="10" stroke-width="1.5"/>
      <path d="M564.14,243.122v9.735c0,1.931-.329,3.771-.948,5.32-.588,1.624-1.505,3.079-2.708,4.283-.91,1.067-2.076,1.905-3.396,2.413-1.301.641-2.63.964-3.952.964h-11.005v-35.836h11.005c1.459,0,2.819.325,4.158.995,1.384.693,2.496,1.543,3.404,2.602.9.896,1.717,2.256,2.496,4.205.642,1.764.947,3.491.947,5.32ZM561.318,243.122c0-1.515-.243-2.887-.762-4.314-.617-1.539-1.234-2.599-1.93-3.294-.741-.858-1.542-1.466-2.596-1.994-.951-.475-1.871-.697-2.895-.697h-8.183v30.193h8.183c.903,0,1.83-.236,2.755-.698l.136-.06c.911-.34,1.691-.901,2.387-1.712.983-.991,1.679-2.098,2.143-3.374.497-1.243.762-2.76.762-4.314v-9.735Z" fill="#ccc" stroke="#ccc" stroke-miterlimit="10" stroke-width="1.5"/>
      <path d="M582.966,246.653h10.158v10.158c0,1.06,0,2.663-.92,4.134l-.125.19c-.552.833-1.122,1.693-2.439,2.516-.65.494-2.245,1.26-3.355,1.676-1.174.44-2.536.655-4.164.655s-2.99-.214-4.164-.655c-1.443-.542-2.624-1.191-3.512-1.93-1.246-.933-2.062-2.075-2.782-3.083l-.117-.193c-.652-1.302-.996-2.79-.996-4.299v-15.52c0-1.723.371-3.085,1.202-4.416.665-1.345,1.93-2.525,2.817-3.288,1.045-.87,2.307-1.343,3.526-1.8,1.175-.442,2.538-.656,4.167-.656s2.99.214,4.164.655c1.09.408,2.25.962,3.45,1.646l.146.096c1.449,1.088,2.492,2.253,3.096,3.461l-2.524,1.263c-.398-.796-1.136-1.607-2.195-2.413-1.027-.581-2.05-1.068-2.963-1.411-.852-.32-1.889-.476-3.173-.476s-2.322.154-3.173.474c-1.048.394-2.036.763-2.697,1.315-.686.59-1.679,1.507-2.18,2.51-.608.985-.839,1.858-.839,3.038v15.52c0,1.037.226,2.051.652,2.943.638.89,1.25,1.729,2.171,2.418.691.573,1.624,1.076,2.752,1.5.853.32,1.889.476,3.173.476s2.321-.155,3.173-.474c1.075-.403,2.341-1.051,2.753-1.36.896-.567,1.209-1.037,1.68-1.75l.107-.163c.468-.75.468-1.735.468-2.603v-7.336h-7.336v-2.819Z" fill="#ccc" stroke="#ccc" stroke-miterlimit="10" stroke-width="1.5"/>
      <path d="M747.197,238.546c0,3.5-2.849,6.349-6.349,6.349s-6.35-2.849-6.35-6.349,2.849-6.349,6.35-6.349,6.349,2.849,6.349,6.349ZM744.375,238.546c0-1.944-1.583-3.527-3.526-3.527s-3.527,1.583-3.527,3.527,1.583,3.527,3.527,3.527,3.526-1.583,3.526-3.527Z" fill="#ccc" stroke="#ccc" stroke-miterlimit="10" stroke-width="1.5"/>
      <path d="M774.209,234.447h-8.889v31.462h-2.821v-31.462h-8.89v-2.822h20.6v2.822Z" fill="#ccc" stroke="#ccc" stroke-miterlimit="10" stroke-width="1.5"/>
    </g>
  </g>
  <g id="h" data-name="CV_Manual_Page_Arrows_-_Dark">
    <path d="M440.853,386.554l-74.304-17.465v13.015H112.931c-2.271-27.508-25.369-49.202-53.453-49.202-29.584,0-53.652,24.068-53.652,53.652s24.068,53.652,53.652,53.652c28.084,0,51.181-21.694,53.453-49.202h253.618v13.015l74.304-17.465ZM59.478,432.206c-25.213,0-45.652-20.439-45.652-45.652s20.439-45.652,45.652-45.652,45.652,20.439,45.652,45.652-20.439,45.652-45.652,45.652Z" fill="#ccc" stroke="#0d121e" stroke-miterlimit="10" stroke-width="2"/>
    <path d="M438.179,249.73l-67.862-34.943-3.152,12.628-255.668-69.654c1.232-4.506,1.902-9.241,1.902-14.132,0-29.584-24.068-53.652-53.652-53.652S6.096,114.046,6.096,143.63s24.068,53.652,53.652,53.652c21.544,0,40.151-12.771,48.68-31.134l256.581,69.903-3.152,12.628,76.322,1.052ZM59.748,189.282c-25.213,0-45.652-20.439-45.652-45.652,0-25.213,20.439-45.652,45.652-45.652s45.652,20.439,45.652,45.652c0,25.213-20.439,45.652-45.652,45.652Z" fill="#ccc" stroke="#0d121e" stroke-miterlimit="10" stroke-width="2"/>
    <path d="M361.599,514.82l3.152,12.628-256.581,69.903c-8.529-18.363-27.136-31.134-48.68-31.134-29.584,0-53.652,24.068-53.652,53.652s24.068,53.652,53.652,53.652,53.652-24.068,53.652-53.652c0-4.891-.67-9.626-1.902-14.132l255.668-69.654,3.152,12.628,67.862-34.943-76.322,1.052ZM105.142,619.869c0,25.213-20.439,45.652-45.652,45.652s-45.652-20.439-45.652-45.652,20.439-45.652,45.652-45.652,45.652,20.439,45.652,45.652Z" fill="#ccc" stroke="#0d121e" stroke-miterlimit="10" stroke-width="2"/>
    <path d="M1113.87,642.981l61.574,45.108,5.085-11.981,290.061,126.131c-1.079,4.236-1.656,8.671-1.656,13.239,0,29.583,24.068,53.652,53.652,53.652,29.584,0,53.652-24.068,53.652-53.652,0-29.584-24.068-53.652-53.652-53.652-21.875,0-40.721,13.166-49.065,31.984l-289.515-125.894,5.085-11.981-75.222-12.954ZM1476.934,815.478c0-25.213,20.439-45.652,45.652-45.652,25.213,0,45.652,20.439,45.652,45.652,0,25.213-20.439,45.652-45.652,45.652-25.213,0-45.652-20.439-45.652-45.652Z" fill="#ccc" stroke="#0d121e" stroke-miterlimit="10" stroke-width="2"/>
    <path d="M68.277,167.171v4.607h-14.744v-4.607h5.068v-47.279l-3.601,2.981-2.938-3.55,7.319-6.057h3.827v53.905h5.068Z" fill="#ff8500" stroke="#ff8500" stroke-miterlimit="10"/>
    <path d="M46.599,412.817h28.483v4.607h-34.786v-4.591l6.056-6.609c3.175-3.536,6.086-6.778,8.851-9.727,1.373-1.373,2.749-2.979,4.078-4.531,1.389-1.62,6.939-7.865,6.939-7.865.629-.634.983-1.081,1.221-1.375.141-.177.26-.32.359-.431.675-.859,1.242-1.947,1.643-3.149.38-1.14.574-2.053.574-3.879,0-1.569-.325-3.124-.965-4.621-.583-1.546-1.511-2.661-2.737-3.887-1.398-1.152-2.723-1.981-4.018-2.465-3.705-1.389-6.199-1.387-9.899,0-1.695.636-2.972,1.419-4.02,2.467-1.209,1.209-2.182,2.589-2.737,3.886l-4.234-1.815c.792-1.85,2.078-3.693,3.713-5.329,1.511-1.509,3.361-2.661,5.66-3.522,4.713-1.774,8.411-1.774,13.136,0,2.356.885,4.269,2.354,5.503,3.382,1.511,1.5,3.022,3.209,3.907,5.568.85,1.975,1.299,4.14,1.299,6.338,0,2.423-.311,3.838-.811,5.337-.578,1.737-1.431,3.338-2.46,4.626l-.315.375c-.309.387-.772.965-1.468,1.659.005,0-5.425,6.109-6.791,7.704-1.387,1.617-2.82,3.29-4.267,4.737-2.693,2.873-5.582,6.091-8.733,9.6l-3.179,3.513-.002-.002Z" fill="#ff8500" stroke="#ff8500" stroke-miterlimit="10"/>
    <path d="M74.226,621.743c.871,2.034,1.297,5.964,1.297,7.95,0,2.124,0,3.527-1,7.275-.882,3.522-2.69,5.893-4.052,7.254-1.522,1.521-4.432,3.463-6.828,4.062-2.26.761-5.951.761-7.932.761-2.341,0-6.397-1.32-8.049-2.027-1.933-.829-5.561-3.276-7.766-5.234l3.062-3.444c1.928,1.714,5.197,3.875,6.52,4.444,1.521.651,4.884,1.656,6.234,1.656,1.599,0,4.925,0,6.644-.573,1.474-.376,3.665-1.707,4.858-2.9.949-.947,2.216-2.612,2.85-5.149.853-3.197.853-4.114.853-6.121,0-2.045-.468-5.077-.965-6.236-.567-1.502-1.255-2.645-2.417-4.038-1.011-1.214-2.115-2.082-3.283-2.582-1.449-.622-2.983-1.198-4.391-1.198h-6.22v-5.018l13.689-15.485h-21.061v-4.607h26.032v5.937l-12.873,14.564h.433c2.246,0,4.398.792,6.206,1.568,1.841.79,3.527,2.092,5.008,3.868,1.5,1.797,2.442,3.375,3.154,5.273l-.002.002Z" fill="#ff8500" stroke="#ff8500" stroke-miterlimit="10"/>
    <path d="M1533.703,825.424h6.22v4.607h-6.22v11.519h-4.607v-11.519h-23.959v-5.016l23.805-39.677h4.76v40.082l.002.003ZM1529.094,794.037l-18.831,31.384h18.831v-31.384Z" fill="#ff8500" stroke="#ff8500" stroke-miterlimit="10"/>
  </g>
</svg>