<?xml version="1.0" encoding="UTF-8"?>
<svg xmlns="http://www.w3.org/2000/svg" width="1573.826" height="129.913" viewBox="0 0 1573.826 129.913">
  <g id="BUTTON_-_Dark">
    <rect x="779.587" y="20.5" width="83" height="91" rx="1.738" ry="1.738" fill="none" stroke="#ccc" stroke-miterlimit="10" stroke-width="5"/>
    <rect x="770.587" y="11" width="101" height="110" rx="5.276" ry="5.276" fill="none" stroke="#ccc" stroke-miterlimit="10" stroke-width="5"/>
  </g>
  <g id="F3_-_Dark">
    <g>
      <path d="M805.76,57.967v8.027h5.784v1.958h-5.784v11.845h-1.779v-23.789h13.436v1.958h-11.656Z" fill="#ccc" stroke="#ccc" stroke-miterlimit="10" stroke-width="2"/>
      <path d="M834.725,68.274c.336.864.501,2.534.501,3.378,0,.902,0,1.499-.386,3.091-.341,1.497-1.04,2.504-1.565,3.083-.588.646-1.712,1.471-2.638,1.726-.872.323-2.298.323-3.063.323-.903,0-2.471-.561-3.108-.861-.747-.353-2.148-1.392-3-2.224l1.183-1.464c.745.729,2.008,1.646,2.519,1.889.587.277,1.886.704,2.407.704.618,0,1.902,0,2.566-.244.569-.16,1.416-.726,1.877-1.232.366-.402.855-1.11,1.101-2.188.329-1.359.329-1.749.329-2.601,0-.87-.181-2.158-.373-2.65-.219-.638-.485-1.124-.934-1.716-.391-.516-.816-.885-1.268-1.098-.56-.264-1.152-.509-1.696-.509h-2.402v-2.132l5.287-6.581h-8.134v-1.958h10.054v2.523l-4.972,6.189h.167c.868,0,1.699.337,2.397.667.711.336,1.362.889,1.935,1.644.579.764.942,1.435,1.218,2.241h0Z" fill="#ccc" stroke="#ccc" stroke-miterlimit="10" stroke-width="2"/>
    </g>
  </g>
</svg>