<?xml version="1.0" encoding="UTF-8"?>
<svg xmlns="http://www.w3.org/2000/svg" width="1584.293" height="1072.174" viewBox="0 0 1584.293 1072.174">
  <g id="CDNU_-_Dark">
    <path d="M1403.61,903.706l-1222.305.984c-5.445.004-9.861-4.411-9.856-9.857l.667-725.918c.005-5.432,4.408-9.834,9.84-9.839l1222.305-.984c5.445-.004,9.861,4.411,9.856,9.857l-.667,725.918c-.005,5.432-4.408,9.834-9.84,9.839Z" fill="none" stroke="#ccc" stroke-miterlimit="10" stroke-width="11"/>
    <polyline points="785.123 902.825 1331.623 903.324 1331.623 653.747 1406.623 653.747 1406.623 327.67 1331.623 327.67 1331.623 160.085 252.123 160.085 252.123 332.358 173.906 332.358 173.906 653.248 252.123 653.248 252.123 902.825 785.123 902.825" fill="none" stroke="#ccc" stroke-miterlimit="10" stroke-width="8"/>
    <rect x="425.123" y="200.085" width="735" height="553" rx="13.681" ry="13.681" fill="none" stroke="#ccc" stroke-miterlimit="10" stroke-width="5"/>
    <rect x="414.123" y="186.085" width="760" height="580" rx="18.29" ry="18.29" fill="none" stroke="#ccc" stroke-miterlimit="10" stroke-width="5"/>
    <g>
      <rect x="267.123" y="201.085" width="137" height="81" fill="none" stroke="#ccc" stroke-miterlimit="10" stroke-width="5"/>
      <polygon points="387.122 241.334 359.756 213.834 359.756 230.834 284.623 230.834 284.623 251.834 359.756 251.834 359.756 268.834 387.122 241.334" fill="#ccc"/>
    </g>
    <g>
      <rect x="267.275" y="327.932" width="137" height="81" fill="none" stroke="#ccc" stroke-miterlimit="10" stroke-width="5"/>
      <polygon points="387.275 368.182 359.908 340.682 359.908 357.682 284.775 357.682 284.775 378.682 359.908 378.682 359.908 395.682 387.275 368.182" fill="#ccc"/>
    </g>
    <g>
      <rect x="267.275" y="454.932" width="137" height="81" fill="none" stroke="#ccc" stroke-miterlimit="10" stroke-width="5"/>
      <polygon points="387.275 495.182 359.908 467.682 359.908 484.682 284.775 484.682 284.775 505.682 359.908 505.682 359.908 522.682 387.275 495.182" fill="#ccc"/>
    </g>
    <g>
      <rect x="267.102" y="579.367" width="137" height="81" fill="none" stroke="#ccc" stroke-miterlimit="10" stroke-width="5"/>
      <polygon points="387.101 619.617 359.734 592.117 359.734 609.117 284.601 609.117 284.601 630.117 359.734 630.117 359.734 647.117 387.101 619.617" fill="#ccc"/>
    </g>
    <g>
      <rect x="1182.254" y="201.085" width="137" height="81" transform="translate(2501.507 483.169) rotate(-180)" fill="none" stroke="#ccc" stroke-miterlimit="10" stroke-width="5"/>
      <polygon points="1199.255 241.334 1226.622 213.834 1226.622 230.834 1301.754 230.834 1301.754 251.834 1226.622 251.834 1226.622 268.834 1199.255 241.334" fill="#ccc"/>
    </g>
    <g>
      <rect x="1182.102" y="327.932" width="137" height="81" transform="translate(2501.203 736.865) rotate(-180)" fill="none" stroke="#ccc" stroke-miterlimit="10" stroke-width="5"/>
      <polygon points="1199.102 368.182 1226.469 340.682 1226.469 357.682 1301.602 357.682 1301.602 378.682 1226.469 378.682 1226.469 395.682 1199.102 368.182" fill="#ccc"/>
    </g>
    <g>
      <rect x="1182.102" y="454.932" width="137" height="81" transform="translate(2501.203 990.865) rotate(-180)" fill="none" stroke="#ccc" stroke-miterlimit="10" stroke-width="5"/>
      <polygon points="1199.102 495.182 1226.469 467.682 1226.469 484.682 1301.602 484.682 1301.602 505.682 1226.469 505.682 1226.469 522.682 1199.102 495.182" fill="#ccc"/>
    </g>
    <g>
      <rect x="1182.275" y="579.367" width="137" height="81" transform="translate(2501.551 1239.734) rotate(-180)" fill="none" stroke="#ccc" stroke-miterlimit="10" stroke-width="5"/>
      <polygon points="1199.276 619.617 1226.643 592.117 1226.643 609.117 1301.776 609.117 1301.776 630.117 1226.643 630.117 1226.643 647.117 1199.276 619.617" fill="#ccc"/>
    </g>
    <circle cx="356.123" cy="736.085" r="30.5" fill="none" stroke="#ccc" stroke-miterlimit="10" stroke-width="5"/>
    <circle cx="1239.123" cy="736.085" r="30.5" fill="none" stroke="#ccc" stroke-miterlimit="10" stroke-width="5"/>
    <rect x="315.623" y="792.539" width="83" height="91" fill="none" stroke="#ccc" stroke-miterlimit="10" stroke-width="5"/>
    <rect x="307.623" y="783.039" width="101" height="110" rx="9.778" ry="9.778" fill="none" stroke="#ccc" stroke-miterlimit="10" stroke-width="5"/>
    <rect x="439.623" y="792.539" width="83" height="91" fill="none" stroke="#ccc" stroke-miterlimit="10" stroke-width="5"/>
    <rect x="431.623" y="783.039" width="101" height="110" rx="9.778" ry="9.778" fill="none" stroke="#ccc" stroke-miterlimit="10" stroke-width="5"/>
    <rect x="563.623" y="792.539" width="83" height="91" fill="none" stroke="#ccc" stroke-miterlimit="10" stroke-width="5"/>
    <rect x="555.623" y="783.039" width="101" height="110" rx="9.778" ry="9.778" fill="none" stroke="#ccc" stroke-miterlimit="10" stroke-width="5"/>
    <rect x="687.623" y="792.539" width="83" height="91" fill="none" stroke="#ccc" stroke-miterlimit="10" stroke-width="5"/>
    <rect x="679.623" y="783.039" width="101" height="110" rx="9.778" ry="9.778" fill="none" stroke="#ccc" stroke-miterlimit="10" stroke-width="5"/>
    <rect x="809.623" y="792.539" width="83" height="91" fill="none" stroke="#ccc" stroke-miterlimit="10" stroke-width="5"/>
    <rect x="801.623" y="783.039" width="101" height="110" rx="9.778" ry="9.778" fill="none" stroke="#ccc" stroke-miterlimit="10" stroke-width="5"/>
    <rect x="936.623" y="792.539" width="83" height="91" fill="none" stroke="#ccc" stroke-miterlimit="10" stroke-width="5"/>
    <rect x="928.623" y="783.039" width="101" height="110" rx="9.778" ry="9.778" fill="none" stroke="#ccc" stroke-miterlimit="10" stroke-width="5"/>
    <rect x="1056.623" y="792.539" width="83" height="91" fill="none" stroke="#ccc" stroke-miterlimit="10" stroke-width="5"/>
    <rect x="1048.623" y="783.039" width="101" height="110" rx="9.778" ry="9.778" fill="none" stroke="#ccc" stroke-miterlimit="10" stroke-width="5"/>
    <rect x="1181.623" y="792.539" width="83" height="91" fill="none" stroke="#ccc" stroke-miterlimit="10" stroke-width="5"/>
    <rect x="1173.623" y="783.039" width="101" height="110" rx="9.778" ry="9.778" fill="none" stroke="#ccc" stroke-miterlimit="10" stroke-width="5"/>
    <circle cx="213.123" cy="265.085" r="34.5" fill="none" stroke="#ccc" stroke-miterlimit="10" stroke-width="3.5"/>
    <circle cx="213.123" cy="265.085" r="27.5" fill="none" stroke="#ccc" stroke-miterlimit="10" stroke-width="3.5"/>
    <circle cx="213.623" cy="718.585" r="34.5" fill="none" stroke="#ccc" stroke-miterlimit="10" stroke-width="3.5"/>
    <circle cx="213.623" cy="718.585" r="27.5" fill="none" stroke="#ccc" stroke-miterlimit="10" stroke-width="3.5"/>
    <circle cx="213.623" cy="837.585" r="34.5" fill="none" stroke="#ccc" stroke-miterlimit="10" stroke-width="3.5"/>
    <circle cx="213.623" cy="837.585" r="27.5" fill="none" stroke="#ccc" stroke-miterlimit="10" stroke-width="3.5"/>
    <circle cx="1372.623" cy="265.085" r="34.5" fill="none" stroke="#ccc" stroke-miterlimit="10" stroke-width="3.5"/>
    <circle cx="1372.623" cy="265.085" r="27.5" fill="none" stroke="#ccc" stroke-miterlimit="10" stroke-width="3.5"/>
    <circle cx="1372.123" cy="718.585" r="34.5" fill="none" stroke="#ccc" stroke-miterlimit="10" stroke-width="3.5"/>
    <circle cx="1372.123" cy="718.585" r="27.5" fill="none" stroke="#ccc" stroke-miterlimit="10" stroke-width="3.5"/>
    <circle cx="1372.123" cy="837.585" r="34.5" fill="none" stroke="#ccc" stroke-miterlimit="10" stroke-width="3.5"/>
    <circle cx="1372.123" cy="837.585" r="27.5" fill="none" stroke="#ccc" stroke-miterlimit="10" stroke-width="3.5"/>
    <g>
      <rect x="321.412" y="805.635" width="66.913" height="64.957" fill="none"/>
      <path d="M335.327,820.004h6.823v36.208h-6.823v-36.208ZM337.817,820.004h21.292v6.574h-21.292v-6.574ZM337.817,835.268h18.552v6.574h-18.552v-6.574Z" fill="#ccc" stroke="#ccc" stroke-miterlimit="10"/>
      <path d="M374.411,856.212h-6.823v-28.189l-4.408,1.668v-7.246l5.404-2.44h5.827v36.208Z" fill="#ccc" stroke="#ccc" stroke-miterlimit="10"/>
    </g>
    <g>
      <rect x="445.412" y="805.635" width="66.913" height="64.957" fill="none"/>
      <path d="M454.633,820.004h6.823v36.208h-6.823v-36.208ZM457.123,820.004h21.292v6.574h-21.292v-6.574ZM457.123,835.268h18.552v6.574h-18.552v-6.574Z" fill="#ccc" stroke="#ccc" stroke-miterlimit="10"/>
      <path d="M483.432,850.061l12.426-16.336c.564-.73,1-1.482,1.307-2.254.307-.772.461-1.49.461-2.154v-.05c0-.979-.315-1.734-.946-2.267-.631-.53-1.528-.797-2.689-.797-1.129,0-2.042.37-2.739,1.108-.697.739-1.121,1.789-1.27,3.15v.024h-6.998v-.024c.149-2.258.693-4.2,1.631-5.827s2.204-2.867,3.798-3.723,3.437-1.283,5.528-1.283c2.257,0,4.188.37,5.79,1.108,1.602.739,2.822,1.814,3.66,3.226s1.258,3.112,1.258,5.104v.024c0,1.645-.286,3.275-.859,4.894-.572,1.619-1.374,3.084-2.403,4.396l-8.915,11.256h12.376v6.574h-21.416v-6.15Z" fill="#ccc" stroke="#ccc" stroke-miterlimit="10"/>
    </g>
    <g>
      <rect x="569.412" y="805.635" width="66.913" height="64.957" fill="none"/>
      <path d="M578.321,820.004h6.823v36.208h-6.823v-36.208ZM580.811,820.004h21.292v6.574h-21.292v-6.574ZM580.811,835.268h18.552v6.574h-18.552v-6.574Z" fill="#ccc" stroke="#ccc" stroke-miterlimit="10"/>
      <path d="M611.927,855.389c-1.71-.797-3.072-1.958-4.084-3.486-1.013-1.526-1.569-3.345-1.668-5.453h7.047c.1.747.319,1.382.66,1.905.34.522.776.921,1.308,1.195.531.273,1.146.411,1.843.411,1.295,0,2.295-.361,3.001-1.084.705-.722,1.058-1.738,1.058-3.051v-.846c0-1.378-.287-2.441-.859-3.188-.573-.748-1.391-1.121-2.453-1.121h-3.063v-6.574h3.063c.863,0,1.531-.327,2.005-.983.473-.656.709-1.573.709-2.752v-.622c0-1.112-.261-1.972-.785-2.578-.522-.605-1.257-.908-2.204-.908-.614,0-1.175.157-1.681.473s-.934.771-1.282,1.369-.598,1.32-.747,2.167h-7.022c.199-2.208.792-4.112,1.78-5.715s2.279-2.822,3.873-3.661c1.594-.838,3.37-1.258,5.329-1.258,3.204,0,5.682.818,7.433,2.453,1.751,1.636,2.627,3.956,2.627,6.961v1.096c0,1.677-.423,3.137-1.27,4.383-.847,1.244-2.051,2.175-3.611,2.789,1.743.398,3.092,1.312,4.046,2.738.955,1.429,1.432,3.246,1.432,5.454v1.096c0,2.108-.415,3.909-1.245,5.403-.831,1.494-2.042,2.632-3.636,3.412s-3.511,1.17-5.752,1.17c-2.191,0-4.143-.398-5.852-1.195Z" fill="#ccc" stroke="#ccc" stroke-miterlimit="10"/>
    </g>
    <g>
      <rect x="693.412" y="805.635" width="66.913" height="64.957" fill="none"/>
      <path d="M701.3,820.004h6.823v36.208h-6.823v-36.208ZM703.79,820.004h21.292v6.574h-21.292v-6.574ZM703.79,835.268h18.552v6.574h-18.552v-6.574Z" fill="#ccc" stroke="#ccc" stroke-miterlimit="10"/>
      <path d="M730.149,844.384l11.156-24.355h7.72l-10.857,24.057h16.262v6.574h-24.28v-6.275ZM744.767,834.921h6.823v21.316h-6.823v-21.316Z" fill="#ccc" stroke="#ccc" stroke-miterlimit="10"/>
    </g>
    <g>
      <rect x="815.412" y="805.635" width="66.913" height="64.957" fill="none"/>
      <path d="M823.924,820.004h6.823v36.208h-6.823v-36.208ZM826.414,820.004h21.291v6.574h-21.291v-6.574ZM826.414,835.268h18.553v6.574h-18.553v-6.574Z" fill="#ccc" stroke="#ccc" stroke-miterlimit="10"/>
      <path d="M858.638,855.302c-1.553-.854-2.798-2.1-3.735-3.735-.938-1.635-1.481-3.573-1.631-5.814v-.025h6.823v.025c.133,1.328.539,2.362,1.221,3.101.68.738,1.568,1.108,2.664,1.108,1.195,0,2.12-.391,2.776-1.171s.983-1.884.983-3.312v-3.039c0-1.427-.295-2.527-.884-3.299-.589-.772-1.415-1.158-2.478-1.158-.979,0-1.814.249-2.503.747s-1.166,1.195-1.432,2.092h-6.375v-20.818h19.448v6.574h-12.625v6.399c.515-.498,1.216-.892,2.104-1.183.888-.29,1.771-.436,2.651-.436,1.876,0,3.482.432,4.819,1.295,1.336.863,2.353,2.125,3.05,3.785s1.047,3.661,1.047,6.001v3.039c0,2.34-.42,4.341-1.258,6.001-.839,1.66-2.055,2.926-3.648,3.798-1.594.871-3.52,1.307-5.777,1.307-1.942,0-3.689-.427-5.242-1.282Z" fill="#ccc" stroke="#ccc" stroke-miterlimit="10"/>
    </g>
    <g>
      <rect x="942.412" y="805.635" width="66.913" height="64.957" fill="none"/>
      <path d="M951.721,820.004h6.823v36.208h-6.823v-36.208ZM954.211,820.004h21.291v6.574h-21.291v-6.574ZM954.211,835.268h18.553v6.574h-18.553v-6.574Z" fill="#ccc" stroke="#ccc" stroke-miterlimit="10"/>
      <path d="M985.189,855.302c-1.585-.854-2.793-2.1-3.623-3.735-.83-1.635-1.245-3.606-1.245-5.914v-.025c0-1.311.162-2.697.485-4.158.324-1.461.784-2.93,1.382-4.408.1-.248.203-.498.312-.746.108-.25.22-.49.337-.723l7.346-15.589h7.72l-8.716,18.054-1.719-.896c.415-.779,1.021-1.386,1.818-1.817s1.727-.647,2.789-.647c1.992,0,3.693.424,5.105,1.27,1.41.848,2.485,2.08,3.225,3.698.738,1.619,1.107,3.565,1.107,5.84v.024c0,2.325-.415,4.317-1.244,5.977-.831,1.661-2.039,2.923-3.624,3.785-1.585.864-3.499,1.295-5.739,1.295-2.226,0-4.131-.427-5.716-1.282ZM993.706,848.953c.656-.706.984-1.706.984-3.001v-.025c0-1.494-.328-2.643-.984-3.448s-1.59-1.208-2.801-1.208c-1.195,0-2.121.411-2.777,1.232-.656.822-.983,1.972-.983,3.449v.025c0,1.295.327,2.291.983,2.988s1.582,1.045,2.777,1.045c1.211,0,2.145-.352,2.801-1.058Z" fill="#ccc" stroke="#ccc" stroke-miterlimit="10"/>
    </g>
    <g>
      <rect x="1062.412" y="805.635" width="66.913" height="64.957" fill="none"/>
      <path d="M1071.966,820.004h6.823v36.208h-6.823v-36.208ZM1074.456,820.004h21.291v6.574h-21.291v-6.574ZM1074.456,835.268h18.553v6.574h-18.553v-6.574Z" fill="#ccc" stroke="#ccc" stroke-miterlimit="10"/>
      <path d="M1121.011,824.536l-8.119,31.676h-7.396l7.869-29.634h-6.226v5.454h-6.823v-12.028h20.694v4.532Z" fill="#ccc" stroke="#ccc" stroke-miterlimit="10"/>
    </g>
    <g>
      <path d="M1201.685,824.549h4.054v29.853h-2.796v-23.18l.112,1.313-3.122,18.54h-2.718l-3.122-18.129.112-1.725v23.18h-2.797v-29.853h4.055l3.11,20.12,3.111-20.12Z" fill="#ccc" stroke="#ccc" stroke-miterlimit="10"/>
      <path d="M1210.046,824.549h3.077v29.853h-3.077v-29.853ZM1211.158,824.549h9.826v5.42h-9.826v-5.42ZM1211.158,836.867h8.591v5.421h-8.591v-5.421ZM1211.158,848.98h9.826v5.421h-9.826v-5.421Z" fill="#ccc" stroke="#ccc" stroke-miterlimit="10"/>
      <path d="M1224.505,824.549h3.763l6.075,22.872-.27.533v-23.405h2.942v29.832h-3.784l-6.054-22.522.27-.534v23.057h-2.942v-29.832Z" fill="#ccc" stroke="#ccc" stroke-miterlimit="10"/>
      <path d="M1243.827,853.405c-.892-.869-1.569-2.135-2.033-3.798s-.696-3.665-.696-6.006v-19.053h3.077v19.196c0,1.712.251,3.039.753,3.983.501.944,1.209,1.417,2.122,1.417.921,0,1.634-.473,2.14-1.417.505-.944.758-2.271.758-3.983v-19.196h3.077v19.053c0,2.341-.234,4.343-.702,6.006s-1.149,2.929-2.044,3.798-1.971,1.304-3.229,1.304-2.332-.435-3.223-1.304Z" fill="#ccc" stroke="#ccc" stroke-miterlimit="10"/>
    </g>
    <g>
      <rect x="315.934" y="672.115" width="70.435" height="25.043" fill="none"/>
      <path d="M324.201,673.28h4.281v22.719h-4.281v-22.719ZM326.076,691.874h7.25c.979,0,1.737-.236,2.273-.711.536-.474.805-1.138.805-1.992v-.047c0-.572-.12-1.062-.359-1.469-.24-.406-.591-.716-1.055-.93-.464-.213-1.019-.32-1.664-.32h-7.25v-4.125h7.25c.885,0,1.57-.224,2.055-.672.484-.447.727-1.078.727-1.891,0-.729-.242-1.297-.727-1.703s-1.169-.609-2.055-.609h-7.25v-4.125h7.391c1.469,0,2.724.242,3.766.727,1.042.484,1.833,1.188,2.375,2.109.542.922.812,2.029.812,3.32,0,.886-.175,1.67-.523,2.352-.349.683-.857,1.242-1.523,1.68-.667.438-1.469.734-2.406.891,1,.136,1.856.44,2.57.914.713.475,1.255,1.092,1.625,1.852.37.761.555,1.641.555,2.641v.047c0,1.303-.273,2.417-.82,3.344-.547.928-1.344,1.633-2.391,2.117s-2.305.727-3.773.727h-7.656v-4.125Z" fill="#ccc" stroke="#ccc" stroke-miterlimit="10"/>
      <path d="M345.849,673.264h4.281v22.734h-4.281v-22.734ZM347.552,682.733h7.906c.438,0,.823-.109,1.156-.328.333-.219.591-.531.773-.938.182-.406.278-.875.289-1.406,0-.531-.091-1-.273-1.406-.183-.406-.44-.719-.773-.938-.333-.219-.724-.328-1.172-.328h-7.906v-4.125h8.25c1.25,0,2.349.281,3.297.844.948.562,1.682,1.357,2.203,2.383.521,1.026.781,2.217.781,3.57s-.261,2.545-.781,3.57c-.521,1.026-1.258,1.82-2.211,2.383s-2.05.844-3.289.844h-8.25v-4.125ZM352.333,686.155l4.578-.719,6.125,10.562h-5.188l-5.516-9.844Z" fill="#ccc" stroke="#ccc" stroke-miterlimit="10"/>
      <path d="M364.575,673.28h16.656v4.125h-16.656v-4.125ZM370.763,675.139h4.281v20.859h-4.281v-20.859Z" fill="#ccc" stroke="#ccc" stroke-miterlimit="10"/>
    </g>
    <g>
      <rect x="1180.586" y="671.895" width="131" height="25.043" fill="none"/>
      <path d="M1193.307,694.971c-1.256-.692-2.227-1.672-2.914-2.938s-1.031-2.731-1.031-4.398v-6.438c0-1.666.344-3.133,1.031-4.398s1.658-2.244,2.914-2.938c1.255-.692,2.705-1.039,4.352-1.039s3.096.347,4.352,1.039c1.255.693,2.227,1.672,2.914,2.938s1.031,2.732,1.031,4.398v6.438c0,1.667-.344,3.133-1.031,4.398s-1.659,2.245-2.914,2.938c-1.256.693-2.706,1.039-4.352,1.039s-3.097-.346-4.352-1.039ZM1199.689,691.237c.583-.328,1.033-.794,1.352-1.398.317-.604.477-1.302.477-2.094v-6.656c0-.791-.159-1.489-.477-2.094-.318-.604-.769-1.07-1.352-1.398-.584-.328-1.261-.492-2.031-.492s-1.448.164-2.031.492c-.584.328-1.034.795-1.352,1.398-.318.604-.477,1.303-.477,2.094v6.656c0,.792.158,1.49.477,2.094.317.604.768,1.07,1.352,1.398.583.328,1.26.492,2.031.492s1.447-.164,2.031-.492Z" fill="#ccc" stroke="#ccc" stroke-miterlimit="10"/>
      <path d="M1211.166,673.057h4.281v22.719h-4.281v-22.719ZM1212.728,673.057h13.359v4.125h-13.359v-4.125ZM1212.728,682.635h11.641v4.125h-11.641v-4.125Z" fill="#ccc" stroke="#ccc" stroke-miterlimit="10"/>
      <path d="M1230.361,673.057h4.281v22.719h-4.281v-22.719ZM1231.924,673.057h13.359v4.125h-13.359v-4.125ZM1231.924,682.635h11.641v4.125h-11.641v-4.125Z" fill="#ccc" stroke="#ccc" stroke-miterlimit="10"/>
      <path d="M1250.337,700.089h-4.062l10.156-29.719h4.062l-10.156,29.719Z" fill="#ccc" stroke="#ccc" stroke-miterlimit="10"/>
      <path d="M1267.071,694.971c-1.256-.692-2.227-1.672-2.914-2.938s-1.031-2.731-1.031-4.398v-6.438c0-1.666.344-3.133,1.031-4.398s1.658-2.244,2.914-2.938c1.255-.692,2.705-1.039,4.352-1.039s3.096.347,4.352,1.039c1.255.693,2.227,1.672,2.914,2.938s1.031,2.732,1.031,4.398v6.438c0,1.667-.344,3.133-1.031,4.398s-1.659,2.245-2.914,2.938c-1.256.693-2.706,1.039-4.352,1.039s-3.097-.346-4.352-1.039ZM1273.454,691.237c.583-.328,1.033-.794,1.352-1.398.317-.604.477-1.302.477-2.094v-6.656c0-.791-.159-1.489-.477-2.094-.318-.604-.769-1.07-1.352-1.398-.584-.328-1.261-.492-2.031-.492s-1.448.164-2.031.492c-.584.328-1.034.795-1.352,1.398-.318.604-.477,1.303-.477,2.094v6.656c0,.792.158,1.49.477,2.094.317.604.768,1.07,1.352,1.398.583.328,1.26.492,2.031.492s1.447-.164,2.031-.492Z" fill="#ccc" stroke="#ccc" stroke-miterlimit="10"/>
      <path d="M1284.931,673.057h5.234l8.453,17.406-.375.406v-17.812h4.094v22.703h-5.266l-8.422-17.141.375-.406v17.547h-4.094v-22.703Z" fill="#ccc" stroke="#ccc" stroke-miterlimit="10"/>
    </g>
  </g>
  <g id="Scratchpad_-_Dark">
    <g>
      <path d="M483.164,697.036v37.593h12.121v3.515h-15.634v-44.62h15.634v3.513h-12.121Z" fill="#ccc" stroke="#ccc" stroke-miterlimit="10" stroke-width="1.5"/>
      <path d="M1104.113,693.34v44.62h-15.635v-3.514h12.121v-37.593h-12.121v-3.514h15.635Z" fill="#ccc" stroke="#ccc" stroke-miterlimit="10" stroke-width="1.5"/>
    </g>
  </g>
  <g id="Flt_Pln_Page_ALPHA_WP_Insert_-_Dark">
    <g>
      <rect x="415.083" y="221.379" width="148.621" height="52.826" fill="none"/>
      <path d="M467.442,259.665c.856-.646,1.597-1.466,2.266-2.537l2.393,1.496c-.848,1.357-1.84,2.451-3.031,3.345-.995.666-2.23,1.284-3.454,1.744-1.391.464-2.663.655-4.306.655-1.747,0-3.114-.208-4.305-.653-1.225-.408-2.341-.989-3.569-1.866-1.222-.761-2.279-1.933-2.981-3.34-.652-1.301-.996-2.788-.996-4.299v-15.379c0-1.785.574-3.176,1.136-4.299.915-1.474,1.905-2.568,3.097-3.461.992-.665,2.228-1.284,3.454-1.744,1.386-.463,2.658-.653,4.305-.653,1.748,0,3.115.209,4.305.655,1.223.406,2.339.986,3.569,1.865,1.326.996,2.321,2.16,2.981,3.48l-2.524,1.263c-.462-.927-1.176-1.756-2.123-2.466-.978-.698-1.837-1.147-2.844-1.483-.913-.341-1.966-.492-3.364-.492-1.342,0-2.317.143-3.364.492-.983.37-2.009.882-2.767,1.387-.856.645-1.597,1.466-2.267,2.537-.438.89-.773,1.792-.773,2.92v15.377c0,1.075.241,2.125.697,3.036.478.957,1.16,1.716,2.026,2.257,1.077.766,1.935,1.216,2.943,1.552.913.341,1.967.492,3.364.492,1.339,0,2.314-.143,3.364-.492.98-.369,2.007-.882,2.767-1.387l.003-.003Z" fill="#ccc" stroke="#ccc" stroke-miterlimit="10" stroke-width="1.5"/>
      <path d="M492.715,250.218l8.149,13.498v.817h-2.112l-.507.306-8.622-14.278c-.062,0-.127.004-.188.004h-7.902v13.968h-2.822v-34.425h10.582c1.628,0,3.239.336,4.666.968,1.531.681,2.777,1.515,3.81,2.549.838.837,1.458,1.923,2.06,2.973l.075.15c.559,1.306.82,2.469.82,3.66,0,1.236-.284,2.55-.82,3.801-.472,1.1-1.251,2.239-2.134,3.122-.816.816-2.135,1.904-3.795,2.458-.417.186-.837.323-1.259.432h0ZM481.534,232.929v14.814h7.902c1.586,0,2.572-.165,3.518-.584,1.016-.346,1.971-.975,2.82-1.824.629-.631,1.205-1.469,1.537-2.24.386-.902.591-1.832.591-2.688,0-.788-.173-1.553-.56-2.476-.52-.908-1.009-1.754-1.566-2.312-.797-.797-1.738-1.422-2.961-1.966-1.066-.473-2.283-.725-3.519-.725h-7.761Z" fill="#ccc" stroke="#ccc" stroke-miterlimit="10" stroke-width="1.5"/>
      <path d="M528.409,250.543c.612,1.213.907,2.407.907,3.547,0,3.039-1.115,5.535-3.315,7.419-2.056,1.899-4.656,2.88-7.689,2.88h-.282c-2.86,0-5.495-1.017-7.832-3.021-1.826-1.545-2.361-2.91-2.749-3.906-.058-.145-.111-.285-.169-.419l2.593-1.113c.069.161.135.329.205.504.326.834.663,1.696,1.951,2.785,1.844,1.583,3.805,2.348,6.002,2.348h.282c2.333,0,4.237-.708,5.814-2.166,1.63-1.397,2.369-3.073,2.369-5.312,0-.694-.198-1.473-.557-2.191-.309-.506-.758-1.175-1.354-1.573-.686-.542-1.566-1.049-2.454-1.429-.576-.247-1.223-.446-1.974-.676-.416-.128-.851-.262-1.302-.412l-4.149-1.105c-2.236-.687-3.849-1.721-4.981-3.177-1.229-1.579-1.851-3.436-1.851-5.522,0-2.581,1.071-4.794,3.18-6.581,2.005-1.851,4.28-2.733,7.121-2.733h.281c2.853.165,5.234,1.143,7.162,2.909,1.464,1.301,2.351,2.857,2.692,4.739l-2.778.502c-.23-1.271-.786-2.242-1.805-3.148-1.452-1.331-3.25-2.061-5.354-2.186l-.199.003c-2.115,0-3.736.625-5.251,2.025-1.514,1.284-2.228,2.731-2.228,4.467,0,1.444.423,2.719,1.255,3.79.776.998,1.899,1.696,3.535,2.2l4.182,1.114c.512.167.924.293,1.319.415.795.244,1.545.474,2.26.78,1.125.481,2.219,1.117,3.006,1.747.962.636,1.64,1.623,2.162,2.493h-.003Z" fill="#ccc" stroke="#ccc" stroke-miterlimit="10" stroke-width="1.5"/>
    </g>
    <g>
      <rect x="527.151" y="303.541" width="508" height="38.311" fill="none"/>
      <path d="M641.507,307.962v11.569h9.171v2.821h-9.171v17.072h-2.822v-34.284h21.305v2.822h-18.483Z" fill="#ccc" stroke="#ccc" stroke-miterlimit="10" stroke-width="1.5"/>
      <path d="M666.419,339.442v-33.014h2.822v33.014h-2.822Z" fill="#ccc" stroke="#ccc" stroke-miterlimit="10" stroke-width="1.5"/>
      <path d="M682.734,319.825v13.262c0,1.111.26,2.143.661,2.624.473.552,1.713.903,2.583.903.85,0,1.757-.332,1.767-.334l.236-.089h.678v2.537l.074.195c-.014.005-.04.014-.074.027v.063h-.189c-.464.149-1.454.423-2.493.423-1.546,0-3.612-.588-4.739-1.903-1.198-1.439-1.326-3.587-1.326-4.445v-13.262h-4.233v-2.822h4.233v-6.208h2.822v6.208h6.349v2.822h-6.349Z" fill="#ccc" stroke="#ccc" stroke-miterlimit="10" stroke-width="1.5"/>
      <path d="M731.849,311.652c.559,1.301.82,2.465.82,3.66,0,1.24-.284,2.554-.82,3.803-.471,1.097-1.249,2.236-2.133,3.12-.815.816-2.135,1.904-3.795,2.458-1.543.691-3.335.777-4.539.777h-8.04v13.968h-2.822v-34.425h10.723c1.697,0,3.179.308,4.666.968,1.528.681,2.774,1.515,3.81,2.549.885.884,1.662,2.022,2.133,3.123h-.001ZM729.258,318.001c.386-.9.591-1.83.591-2.689,0-.812-.182-1.597-.591-2.548-.326-.76-.915-1.618-1.535-2.239-.799-.797-1.739-1.422-2.961-1.966-1.127-.501-2.212-.725-3.519-.725h-7.9v14.814h8.04c1.525,0,2.609-.179,3.519-.584,1.016-.346,1.971-.975,2.82-1.824.622-.622,1.21-1.479,1.535-2.239h.001Z" fill="#ccc" stroke="#ccc" stroke-miterlimit="10" stroke-width="1.5"/>
      <path d="M739.085,339.442v-33.014h2.821v33.014h-2.821Z" fill="#ccc" stroke="#ccc" stroke-miterlimit="10" stroke-width="1.5"/>
      <path d="M766.529,323.741c.391,1.946.217,3.624.153,4.097v11.61h-2.821l.02-11.942c.002-.01.23-1.488-.133-3.301-.226-1.67-.81-2.861-1.803-3.73-.738-.645-2.146-1.061-3.587-1.061-1.22,0-2.466.446-3.507,1.255-2.151,1.813-3.265,4.298-3.265,7.351v11.428h-2.822v-11.428c0-.086.012-.166.013-.251l-.152.004s-.143-5.811-.143-7.653c0-.929-.137-2.988-.137-3.01l2.814-.188c.006.089.145,2.174.145,3.197v.197c.517-.661,1.104-1.278,1.771-1.841,1.577-1.228,3.437-1.883,5.282-1.883,2.149,0,4.184.658,5.443,1.76,1.509,1.321,2.427,3.134,2.728,5.39h0Z" fill="#ccc" stroke="#ccc" stroke-miterlimit="10" stroke-width="1.5"/>
      <path d="M810.195,320.231l-.146,19.184-2.821-.021.08-10.713h-16.306v10.723h-2.821v-19.178l9.668-15.108h2.674l9.672,15.114ZM807.33,325.858l.036-4.812-8.18-12.781-8.184,12.785v4.809h16.327Z" fill="#ccc" stroke="#ccc" stroke-miterlimit="10" stroke-width="1.5"/>
      <path d="M838.047,336.753v2.822h-21.445v-34.285h2.821v31.463h18.624Z" fill="#ccc" stroke="#ccc" stroke-miterlimit="10" stroke-width="1.5"/>
      <path d="M865.812,311.652c.559,1.301.819,2.465.819,3.66,0,1.24-.283,2.554-.819,3.803-.472,1.097-1.248,2.236-2.134,3.12-.814.816-2.135,1.904-3.795,2.458-1.543.691-3.335.777-4.539.777h-8.04v13.968h-2.822v-34.425h10.723c1.697,0,3.179.308,4.666.968,1.528.681,2.773,1.515,3.81,2.549.885.884,1.662,2.022,2.133,3.123h0ZM863.222,318.001c.387-.9.592-1.83.592-2.689,0-.812-.183-1.597-.592-2.548-.325-.76-.914-1.618-1.535-2.239-.798-.797-1.739-1.422-2.961-1.966-1.127-.501-2.212-.725-3.519-.725h-7.9v14.814h8.04c1.525,0,2.608-.179,3.519-.584,1.016-.346,1.971-.975,2.82-1.824.622-.622,1.211-1.479,1.535-2.239h0Z" fill="#ccc" stroke="#ccc" stroke-miterlimit="10" stroke-width="1.5"/>
      <path d="M895.198,306.551v32.874h-2.822v-14.955h-16.507v14.955h-2.821v-32.874h2.821v15.097h16.507v-15.097h2.822Z" fill="#ccc" stroke="#ccc" stroke-miterlimit="10" stroke-width="1.5"/>
      <path d="M923.627,320.231l-.146,19.184-2.821-.021.08-10.713h-16.306v10.723h-2.821v-19.178l9.668-15.108h2.674l9.672,15.114ZM920.762,325.858l.036-4.812-8.18-12.781-8.184,12.785v4.809h16.327Z" fill="#ccc" stroke="#ccc" stroke-miterlimit="10" stroke-width="1.5"/>
    </g>
    <g>
      <rect x="444.741" y="356.673" width="396.815" height="52.826" fill="none"/>
      <path d="M461.299,376.746h-4.63l2.331,4.1-2.455,1.394-2.299-4.048-2.3,4.048-2.455-1.394,2.33-4.1h-4.629v-2.822h4.629l-2.33-4.1,2.455-1.394,2.3,4.048,2.299-4.048,2.455,1.394-2.331,4.1h4.63v2.822Z" fill="#ccc" stroke="#ccc" stroke-miterlimit="10" stroke-width="1.5"/>
      <path d="M470.542,366.931v11.569h10.158v2.822h-10.158v15.661h18.482v2.822h-21.304v-35.695h21.304v2.822h-18.482Z" fill="#ccc" stroke="#ccc" stroke-miterlimit="10" stroke-width="1.5"/>
      <path d="M513.638,384.131c.39,1.946.217,3.624.153,4.097v11.61h-2.822l.02-11.942c.001-.01.23-1.488-.133-3.301-.226-1.67-.81-2.861-1.803-3.73-.738-.645-2.146-1.061-3.587-1.061-1.22,0-2.466.446-3.507,1.255-2.151,1.813-3.265,4.298-3.265,7.351v11.428h-2.822v-11.428c0-.086.011-.166.013-.251l-.152.004s-.143-5.811-.143-7.653c0-.929-.137-2.988-.137-3.009l2.815-.188c.006.089.144,2.174.144,3.197v.197c.517-.661,1.105-1.278,1.772-1.841,1.577-1.228,3.437-1.883,5.282-1.883,2.149,0,4.184.659,5.443,1.76,1.508,1.321,2.427,3.134,2.728,5.39h0Z" fill="#ccc" stroke="#ccc" stroke-miterlimit="10" stroke-width="1.5"/>
      <path d="M541.035,399.399h-2.822v-.706l-.022-2.655c-1.883,2.316-4.587,3.782-7.595,3.782-5.678,0-10.299-5.19-10.299-11.569s4.621-11.569,10.299-11.569c2.935,0,5.581,1.393,7.458,3.613l-.122-13.899,2.822-.026.282,33.027h-.001ZM538.074,388.251c0-4.824-3.354-8.747-7.478-8.747s-7.478,3.923-7.478,8.747,3.355,8.748,7.478,8.748,7.478-3.923,7.478-8.748Z" fill="#ccc" stroke="#ccc" stroke-miterlimit="10" stroke-width="1.5"/>
      <path d="M583.317,387.951c0,6.536-4.684,11.852-10.441,11.852s-10.44-5.317-10.44-11.852,4.684-11.851,10.44-11.851,10.441,5.316,10.441,11.851ZM580.495,387.951c0-4.979-3.417-9.029-7.619-9.029s-7.619,4.05-7.619,9.029,3.417,9.03,7.619,9.03,7.619-4.051,7.619-9.03Z" fill="#ccc" stroke="#ccc" stroke-miterlimit="10" stroke-width="1.5"/>
      <path d="M603.257,366.601l1.411.423-.812,2.702-1.411-.423c-.567-.109-1.481-.292-2.582-.032-.08.043-.17.091-.271.144-.571.296-1.527.794-2.233,1.765-.321.483-1.142,1.853-1.142,3.121v3.245h6.208v2.822h-6.208v19.47h-2.822v-19.47h-3.668v-2.822h3.668v-3.245c0-1.966,1.031-3.808,1.647-4.732,1.127-1.553,2.505-2.27,3.244-2.655.107-.056.197-.1.257-.138l.406-.183c1.821-.497,3.306-.198,4.104-.037l.2.046h0Z" fill="#ccc" stroke="#ccc" stroke-miterlimit="10" stroke-width="1.5"/>
      <path d="M628.907,368.352v11.569h9.171v2.822h-9.171v17.072h-2.822v-34.284h21.305v2.822h-18.483Z" fill="#ccc" stroke="#ccc" stroke-miterlimit="10" stroke-width="1.5"/>
      <path d="M653.819,399.832v-33.014h2.822v33.014h-2.822Z" fill="#ccc" stroke="#ccc" stroke-miterlimit="10" stroke-width="1.5"/>
      <path d="M670.134,380.216v13.262c0,1.111.259,2.143.661,2.624.473.552,1.713.903,2.583.903.85,0,1.757-.332,1.767-.334l.235-.089h.679v2.537l.074.195c-.014.005-.04.014-.074.027v.063h-.189c-.464.149-1.454.423-2.493.423-1.546,0-3.612-.588-4.739-1.903-1.198-1.439-1.326-3.587-1.326-4.445v-13.262h-4.233v-2.822h4.233v-6.208h2.822v6.208h6.349v2.822h-6.349Z" fill="#ccc" stroke="#ccc" stroke-miterlimit="10" stroke-width="1.5"/>
      <path d="M719.248,372.042c.559,1.301.82,2.464.82,3.66,0,1.24-.284,2.554-.82,3.803-.471,1.097-1.249,2.236-2.133,3.12-.815.816-2.135,1.904-3.795,2.458-1.543.691-3.335.777-4.539.777h-8.04v13.968h-2.822v-34.425h10.723c1.697,0,3.179.308,4.666.968,1.528.681,2.774,1.515,3.81,2.549.885.885,1.662,2.021,2.133,3.123h-.001ZM716.658,378.391c.386-.9.591-1.83.591-2.689,0-.812-.182-1.597-.591-2.548-.326-.76-.915-1.618-1.535-2.239-.799-.797-1.739-1.422-2.961-1.967-1.127-.501-2.212-.724-3.519-.724h-7.9v14.814h8.04c1.525,0,2.609-.179,3.519-.584,1.016-.346,1.971-.975,2.82-1.824.622-.622,1.21-1.479,1.535-2.239h.001Z" fill="#ccc" stroke="#ccc" stroke-miterlimit="10" stroke-width="1.5"/>
      <path d="M726.484,399.832v-33.014h2.822v33.014h-2.822Z" fill="#ccc" stroke="#ccc" stroke-miterlimit="10" stroke-width="1.5"/>
      <path d="M753.93,384.131c.391,1.946.217,3.624.153,4.097v11.61h-2.821l.02-11.942c.002-.01.23-1.488-.133-3.301-.226-1.67-.81-2.861-1.803-3.73-.738-.645-2.146-1.061-3.587-1.061-1.22,0-2.466.446-3.507,1.255-2.151,1.813-3.265,4.298-3.265,7.351v11.428h-2.822v-11.428c0-.086.012-.166.013-.251l-.152.004s-.143-5.811-.143-7.653c0-.929-.137-2.988-.137-3.009l2.814-.188c.006.089.145,2.174.145,3.197v.197c.517-.661,1.104-1.278,1.771-1.841,1.577-1.228,3.437-1.883,5.282-1.883,2.149,0,4.184.659,5.443,1.76,1.509,1.321,2.427,3.134,2.728,5.39h0Z" fill="#ccc" stroke="#ccc" stroke-miterlimit="10" stroke-width="1.5"/>
    </g>
    <g>
      <rect x="429.753" y="603.058" width="192.156" height="52.826" fill="none"/>
      <path d="M437.951,626.516c0-1.637,1.264-2.963,2.822-2.963s2.822,1.326,2.822,2.963-1.263,2.963-2.822,2.963-2.822-1.327-2.822-2.963ZM437.951,643.023c0-1.636,1.264-2.963,2.822-2.963s2.822,1.327,2.822,2.963-1.263,2.963-2.822,2.963-2.822-1.326-2.822-2.963Z" fill="#ccc" stroke="#ccc" stroke-miterlimit="10" stroke-width="1.5"/>
      <path d="M452.827,613.315v11.569h10.159v2.822h-10.159v15.661h18.483v2.821h-21.305v-35.695h21.305v2.821h-18.483Z" fill="#ccc" stroke="#ccc" stroke-miterlimit="10" stroke-width="1.5"/>
      <path d="M499.89,645.541v.671h-1.886l-.736.44-8.392-14.068-8.52,14.077-.74-.449h-1.878v-.676l9.628-15.906-9.205-15.48v-.811h2.124l.5-.298,8.091,13.604,7.962-13.597.496.29h2.133v.806l-9.067,15.485,9.49,15.911Z" fill="#ccc" stroke="#ccc" stroke-miterlimit="10" stroke-width="1.5"/>
      <path d="M527.635,618.427c.559,1.301.82,2.464.82,3.659,0,1.24-.284,2.554-.82,3.803-.471,1.098-1.249,2.236-2.133,3.12-.815.816-2.135,1.903-3.795,2.458-1.543.691-3.335.777-4.539.777h-8.04v13.968h-2.822v-34.426h10.723c1.697,0,3.179.308,4.666.969,1.528.681,2.774,1.515,3.81,2.549.885.885,1.662,2.021,2.133,3.123h-.001ZM525.045,624.775c.386-.9.591-1.83.591-2.689,0-.812-.182-1.598-.591-2.548-.326-.761-.915-1.618-1.535-2.239-.799-.797-1.739-1.422-2.961-1.967-1.127-.501-2.212-.724-3.519-.724h-7.9v14.814h8.04c1.525,0,2.609-.18,3.519-.584,1.016-.347,1.971-.976,2.82-1.824.622-.622,1.21-1.479,1.535-2.239h.001Z" fill="#ccc" stroke="#ccc" stroke-miterlimit="10" stroke-width="1.5"/>
      <path d="M556.885,627.006l-.146,19.184-2.822-.021.081-10.713h-16.306v10.723h-2.822v-19.178l9.669-15.107h2.673l9.672,15.113ZM554.019,632.632l.037-4.812-8.18-12.781-8.183,12.786v4.808h16.327Z" fill="#ccc" stroke="#ccc" stroke-miterlimit="10" stroke-width="1.5"/>
      <path d="M585.301,611.734v34.455h-2.799l-16.389-29.029v29.005h-2.822v-34.284h3.082l16.106,28.528v-28.675h2.822Z" fill="#ccc" stroke="#ccc" stroke-miterlimit="10" stroke-width="1.5"/>
      <path d="M613.72,623.474v9.734c0,1.932-.329,3.771-.948,5.32-.588,1.624-1.506,3.079-2.709,4.284-.91,1.066-2.076,1.904-3.396,2.412-1.301.641-2.63.964-3.952.964h-11.005v-35.837h11.005c1.459,0,2.819.325,4.158.995,1.384.692,2.496,1.544,3.404,2.602.9.896,1.717,2.256,2.496,4.204.642,1.764.947,3.491.947,5.321ZM610.898,623.474c0-1.516-.243-2.887-.762-4.314-.617-1.54-1.234-2.6-1.93-3.295-.741-.857-1.542-1.466-2.596-1.993-.951-.476-1.871-.697-2.895-.697h-8.183v30.193h8.183c.903,0,1.83-.236,2.755-.699l.136-.059c.911-.34,1.691-.902,2.387-1.713.983-.99,1.679-2.099,2.143-3.374.497-1.242.762-2.76.762-4.314v-9.734Z" fill="#ccc" stroke="#ccc" stroke-miterlimit="10" stroke-width="1.5"/>
    </g>
    <g>
      <rect x="432.753" y="296.985" width="153.149" height="52.826" fill="none"/>
      <path d="M482.53,332.553l-10.8,10.591-10.592-10.591h9.19v-12.416h2.822v12.416h9.38Z" fill="#ccc" stroke="#ccc" stroke-miterlimit="10" stroke-width="1.5"/>
      <path d="M496.024,320.528v13.262c0,1.111.26,2.143.661,2.624.473.552,1.713.903,2.583.903.85,0,1.757-.332,1.767-.334l.236-.089h.678v2.537l.074.195c-.014.005-.04.014-.074.027v.063h-.189c-.464.149-1.454.423-2.493.423-1.546,0-3.612-.588-4.739-1.903-1.198-1.439-1.326-3.587-1.326-4.445v-13.262h-4.233v-2.822h4.233v-6.208h2.822v6.208h6.349v2.822h-6.349Z" fill="#ccc" stroke="#ccc" stroke-miterlimit="10" stroke-width="1.5"/>
      <path d="M529.696,328.263c0,6.536-4.684,11.852-10.441,11.852s-10.44-5.317-10.44-11.852,4.684-11.851,10.44-11.851,10.441,5.316,10.441,11.851ZM526.874,328.263c0-4.979-3.417-9.03-7.619-9.03s-7.619,4.051-7.619,9.03,3.417,9.03,7.619,9.03,7.619-4.051,7.619-9.03Z" fill="#ccc" stroke="#ccc" stroke-miterlimit="10" stroke-width="1.5"/>
      <path d="M557.499,332.553l-10.8,10.591-10.592-10.591h9.19v-12.416h2.822v12.416h9.38Z" fill="#ccc" stroke="#ccc" stroke-miterlimit="10" stroke-width="1.5"/>
    </g>
    <g>
      <rect x="634.12" y="221.839" width="94.876" height="52.826" fill="none"/>
      <path d="M673.701,237.678c0,3.5-2.849,6.349-6.349,6.349s-6.349-2.849-6.349-6.349,2.849-6.349,6.349-6.349,6.349,2.849,6.349,6.349ZM670.879,237.678c0-1.944-1.583-3.527-3.527-3.527s-3.527,1.583-3.527,3.527,1.583,3.527,3.527,3.527,3.527-1.583,3.527-3.527Z" fill="#ccc" stroke="#ccc" stroke-miterlimit="10" stroke-width="1.5"/>
      <path d="M702.123,230.708v34.284h-2.822v-28.712l-6.648,11.923h-3.068l-6.65-11.923v28.712h-2.822v-34.284h2.945l8.06,14.452,8.061-14.452h2.945Z" fill="#ccc" stroke="#ccc" stroke-miterlimit="10" stroke-width="1.5"/>
    </g>
    <g>
      <rect x="549.489" y="222.846" width="102.212" height="52.826" fill="none"/>
      <path d="M558.69,229.117v37.593h12.121v3.514h-15.634v-44.62h15.634v3.513h-12.121Z" fill="#ccc" stroke="#ccc" stroke-miterlimit="10" stroke-width="1.5"/>
      <path d="M576.291,258.159v-2.822h11.43v2.822h-11.43Z" fill="#ccc" stroke="#ccc" stroke-miterlimit="10" stroke-width="1.5"/>
      <path d="M594.127,258.159v-2.822h11.43v2.822h-11.43Z" fill="#ccc" stroke="#ccc" stroke-miterlimit="10" stroke-width="1.5"/>
      <path d="M611.962,258.159v-2.822h11.43v2.822h-11.43Z" fill="#ccc" stroke="#ccc" stroke-miterlimit="10" stroke-width="1.5"/>
      <path d="M646.033,225.421v44.62h-15.634v-3.514h12.121v-37.593h-12.121v-3.514h15.634Z" fill="#ccc" stroke="#ccc" stroke-miterlimit="10" stroke-width="1.5"/>
    </g>
    <g>
      <rect x="845.865" y="213.205" width="148.621" height="52.826" fill="none"/>
      <path d="M903.084,233.622v9.735c0,1.931-.328,3.771-.947,5.32-.589,1.624-1.506,3.079-2.709,4.283-.91,1.067-2.076,1.905-3.396,2.413-1.301.641-2.63.964-3.952.964h-11.005v-35.836h11.005c1.459,0,2.819.325,4.158.995,1.384.693,2.496,1.543,3.404,2.602.9.896,1.717,2.256,2.496,4.205.642,1.764.946,3.491.946,5.32ZM900.263,233.622c0-1.515-.243-2.887-.762-4.314-.617-1.539-1.234-2.599-1.931-3.294-.74-.858-1.542-1.466-2.596-1.994-.951-.475-1.871-.697-2.896-.697h-8.183v30.193h8.183c.903,0,1.83-.236,2.756-.698l.136-.06c.911-.34,1.691-.901,2.387-1.712.983-.991,1.679-2.098,2.144-3.374.496-1.243.762-2.76.762-4.314v-9.735Z" fill="#ccc" stroke="#ccc" stroke-miterlimit="10" stroke-width="1.5"/>
      <path d="M912.316,223.464v11.569h10.158v2.822h-10.158v15.661h18.482v2.822h-21.305v-35.695h21.305v2.822h-18.482Z" fill="#ccc" stroke="#ccc" stroke-miterlimit="10" stroke-width="1.5"/>
      <path d="M958.358,242.369c.612,1.213.907,2.407.907,3.547,0,3.039-1.114,5.535-3.315,7.419-2.056,1.899-4.656,2.88-7.689,2.88h-.282c-2.859,0-5.495-1.017-7.831-3.021-1.826-1.545-2.361-2.91-2.749-3.906-.058-.145-.111-.285-.169-.419l2.593-1.113c.069.161.136.329.205.504.325.834.663,1.696,1.951,2.785,1.844,1.583,3.805,2.348,6.002,2.348h.282c2.333,0,4.236-.708,5.813-2.166,1.63-1.397,2.369-3.073,2.369-5.312,0-.694-.197-1.473-.557-2.191-.31-.506-.758-1.175-1.354-1.573-.687-.542-1.566-1.049-2.454-1.429-.575-.247-1.223-.446-1.974-.676-.416-.128-.851-.262-1.303-.412l-4.149-1.105c-2.235-.687-3.849-1.721-4.981-3.177-1.229-1.579-1.851-3.436-1.851-5.522,0-2.581,1.07-4.794,3.18-6.581,2.005-1.851,4.28-2.733,7.121-2.733h.28c2.853.165,5.234,1.143,7.162,2.909,1.464,1.301,2.351,2.857,2.691,4.739l-2.777.502c-.23-1.271-.786-2.242-1.805-3.148-1.452-1.331-3.25-2.061-5.354-2.186l-.199.003c-2.114,0-3.735.625-5.251,2.025-1.514,1.284-2.228,2.731-2.228,4.467,0,1.444.423,2.719,1.255,3.79.776.998,1.899,1.696,3.535,2.2l4.182,1.114c.512.167.924.293,1.319.415.795.244,1.545.474,2.26.78,1.125.481,2.22,1.117,3.007,1.747.962.636,1.64,1.623,2.161,2.493h-.003Z" fill="#ccc" stroke="#ccc" stroke-miterlimit="10" stroke-width="1.5"/>
    </g>
    <g>
      <rect x="1077.451" y="210.84" width="94.876" height="52.826" fill="none"/>
      <path d="M1125.215,226.679c0,3.5-2.849,6.349-6.349,6.349s-6.35-2.849-6.35-6.349,2.85-6.349,6.35-6.349,6.349,2.849,6.349,6.349ZM1122.393,226.679c0-1.944-1.584-3.527-3.527-3.527s-3.527,1.583-3.527,3.527,1.583,3.527,3.527,3.527,3.527-1.583,3.527-3.527Z" fill="#ccc" stroke="#ccc" stroke-miterlimit="10" stroke-width="1.5"/>
      <path d="M1131.627,234.298c0-1.636,1.264-2.963,2.821-2.963s2.822,1.327,2.822,2.963-1.264,2.963-2.822,2.963-2.821-1.326-2.821-2.963ZM1131.627,250.805c0-1.636,1.264-2.963,2.821-2.963s2.822,1.327,2.822,2.963-1.264,2.963-2.822,2.963-2.821-1.326-2.821-2.963Z" fill="#ccc" stroke="#ccc" stroke-miterlimit="10" stroke-width="1.5"/>
    </g>
    <g>
      <rect x="980.272" y="214.673" width="121.209" height="52.826" fill="none"/>
      <path d="M991.375,220.944v37.593h12.121v3.514h-15.634v-44.62h15.634v3.513h-12.121Z" fill="#ccc" stroke="#ccc" stroke-miterlimit="10" stroke-width="1.5"/>
      <path d="M1030.003,245.302c.533,1.246.794,3.653.794,4.869,0,1.301,0,2.16-.612,4.456-.54,2.157-1.647,3.609-2.481,4.443-.933.931-2.715,2.12-4.182,2.487-1.385.465-3.645.465-4.858.465-1.434,0-3.918-.808-4.93-1.241-1.184-.508-3.405-2.006-4.756-3.206l1.875-2.109c1.181,1.05,3.183,2.373,3.993,2.722.931.399,2.991,1.014,3.817,1.014.979,0,3.017,0,4.069-.351.903-.23,2.244-1.045,2.976-1.776.581-.58,1.357-1.6,1.745-3.153.522-1.958.522-2.52.522-3.749,0-1.252-.287-3.109-.592-3.819-.347-.92-.769-1.62-1.479-2.474-.62-.743-1.296-1.275-2.011-1.582-.888-.381-1.827-.733-2.689-.733h-3.81v-3.073l8.384-9.484h-12.898v-2.822h15.943v3.636l-7.884,8.92h.265c1.376,0,2.693.485,3.801.96,1.128.484,2.16,1.281,3.067,2.369.919,1.101,1.496,2.067,1.932,3.229h0Z" fill="#ccc" stroke="#ccc" stroke-miterlimit="10" stroke-width="1.5"/>
      <path d="M1037.201,258.733c0-1.636,1.264-2.963,2.821-2.963s2.822,1.327,2.822,2.963-1.264,2.963-2.822,2.963-2.821-1.326-2.821-2.963Z" fill="#ccc" stroke="#ccc" stroke-miterlimit="10" stroke-width="1.5"/>
      <path d="M1070.27,232.185c.652,1.301.996,2.788.996,4.299v15.378c0,1.511-.344,3-.996,4.3-.609,1.222-1.532,2.366-2.741,3.403-1.079.898-2.239,1.511-3.461,1.83-1.114.407-2.315.612-3.665.625h-.142c-1.508-.011-2.71-.214-3.881-.653-1.273-.479-2.406-1.127-3.371-1.932-1.225-1.048-2.147-2.194-2.758-3.416-.652-1.301-.996-2.788-.996-4.297v-15.378c0-1.51.346-2.997.996-4.299.61-1.222,1.533-2.367,2.742-3.403,1.079-.9,2.239-1.511,3.461-1.83,1.152-.42,2.398-.626,3.807-.626,1.511,0,2.864.219,4.022.653,1.272.477,2.405,1.127,3.372,1.932,1.073.918,1.925,2.033,2.615,3.414h0ZM1052.079,236.343v13.917l16.189-15.351c-.117-.514-.292-1.006-.521-1.463-.526-1.054-1.135-1.855-1.913-2.523-.706-.588-1.566-1.078-2.54-1.443-.828-.311-1.876-.474-3.032-.474-1.108,0-2.027.151-2.891.474l-.152.048c-.837.209-1.644.635-2.402,1.267-.907.777-1.599,1.627-2.04,2.51-.457.914-.698,1.964-.698,3.038ZM1068.446,251.864v-13.233l-16.033,15.203c.102.32.219.632.365.927.441.883,1.133,1.732,2.056,2.522.705.587,1.564,1.077,2.54,1.443.857.322,1.771.469,2.957.474,1.078-.005,1.977-.156,2.823-.474l.152-.048c.837-.208,1.644-.635,2.402-1.267.906-.777,1.598-1.626,2.039-2.51.457-.913.698-1.962.698-3.038Z" fill="#ccc" stroke="#ccc" stroke-miterlimit="10" stroke-width="1.5"/>
      <path d="M1093.909,217.248v44.62h-15.634v-3.514h12.121v-37.593h-12.121v-3.514h15.634Z" fill="#ccc" stroke="#ccc" stroke-miterlimit="10" stroke-width="1.5"/>
    </g>
    <g>
      <rect x="1087.696" y="344.858" width="79.64" height="52.826" fill="none"/>
      <path d="M1131.799,356.598h-8.889v31.463h-2.821v-31.463h-8.889v-2.822h20.599v2.822Z" fill="#ccc" stroke="#ccc" stroke-miterlimit="10" stroke-width="1.5"/>
      <path d="M1138.198,368.316c0-1.636,1.264-2.963,2.821-2.963s2.822,1.327,2.822,2.963-1.264,2.963-2.822,2.963-2.821-1.326-2.821-2.963ZM1138.198,384.823c0-1.636,1.264-2.963,2.821-2.963s2.822,1.327,2.822,2.963-1.264,2.963-2.822,2.963-2.821-1.326-2.821-2.963Z" fill="#ccc" stroke="#ccc" stroke-miterlimit="10" stroke-width="1.5"/>
    </g>
    <g>
      <rect x="633.899" y="471.479" width="94.876" height="52.826" fill="none"/>
      <path d="M677.471,481.406l1.411.423-.812,2.702-1.411-.423c-.567-.109-1.481-.292-2.582-.032-.08.043-.17.091-.271.144-.571.296-1.527.794-2.233,1.765-.321.483-1.142,1.853-1.142,3.121v3.245h6.208v2.822h-6.208v19.47h-2.822v-19.47h-3.668v-2.822h3.668v-3.245c0-1.966,1.031-3.808,1.647-4.732,1.127-1.553,2.505-2.27,3.244-2.655.107-.056.197-.1.257-.138l.406-.183c1.821-.497,3.306-.198,4.104-.037l.2.046h0Z" fill="#ccc" stroke="#ccc" stroke-miterlimit="10" stroke-width="1.5"/>
      <path d="M692.361,495.021v13.262c0,1.111.26,2.143.661,2.624.473.552,1.713.903,2.583.903.85,0,1.757-.332,1.767-.334l.236-.089h.678v2.537l.074.195c-.014.005-.04.014-.074.027v.063h-.189c-.464.149-1.454.423-2.493.423-1.546,0-3.612-.588-4.739-1.903-1.198-1.439-1.326-3.587-1.326-4.445v-13.262h-4.233v-2.822h4.233v-6.208h2.822v6.208h6.349v2.822h-6.349Z" fill="#ccc" stroke="#ccc" stroke-miterlimit="10" stroke-width="1.5"/>
    </g>
    <g>
      <rect x="489.393" y="472.487" width="154.751" height="52.826" fill="none"/>
      <path d="M498.11,478.758v37.593h12.121v3.514h-15.634v-44.62h15.634v3.513h-12.121Z" fill="#ccc" stroke="#ccc" stroke-miterlimit="10" stroke-width="1.5"/>
      <path d="M515.711,507.8v-2.822h11.43v2.822h-11.43Z" fill="#ccc" stroke="#ccc" stroke-miterlimit="10" stroke-width="1.5"/>
      <path d="M533.547,507.8v-2.822h11.43v2.822h-11.43Z" fill="#ccc" stroke="#ccc" stroke-miterlimit="10" stroke-width="1.5"/>
      <path d="M551.382,507.8v-2.822h11.43v2.822h-11.43Z" fill="#ccc" stroke="#ccc" stroke-miterlimit="10" stroke-width="1.5"/>
      <path d="M569.218,507.8v-2.822h11.43v2.822h-11.43Z" fill="#ccc" stroke="#ccc" stroke-miterlimit="10" stroke-width="1.5"/>
      <path d="M587.053,507.8v-2.822h11.43v2.822h-11.43Z" fill="#ccc" stroke="#ccc" stroke-miterlimit="10" stroke-width="1.5"/>
      <path d="M604.889,507.8v-2.822h11.43v2.822h-11.43Z" fill="#ccc" stroke="#ccc" stroke-miterlimit="10" stroke-width="1.5"/>
      <path d="M638.958,475.061v44.62h-15.634v-3.514h12.121v-37.593h-12.121v-3.514h15.634Z" fill="#ccc" stroke="#ccc" stroke-miterlimit="10" stroke-width="1.5"/>
    </g>
    <g>
      <rect x="934.363" y="472.99" width="196.938" height="52.826" fill="none"/>
      <path d="M952.12,479.261v37.593h12.121v3.514h-15.635v-44.62h15.635v3.513h-12.121Z" fill="#ccc" stroke="#ccc" stroke-miterlimit="10" stroke-width="1.5"/>
      <path d="M969.722,508.303v-2.822h11.43v2.822h-11.43Z" fill="#ccc" stroke="#ccc" stroke-miterlimit="10" stroke-width="1.5"/>
      <path d="M987.557,508.303v-2.822h11.43v2.822h-11.43Z" fill="#ccc" stroke="#ccc" stroke-miterlimit="10" stroke-width="1.5"/>
      <path d="M1005.392,500.543c0-1.636,1.264-2.963,2.821-2.963s2.822,1.327,2.822,2.963-1.264,2.963-2.822,2.963-2.821-1.326-2.821-2.963ZM1005.392,517.051c0-1.636,1.264-2.963,2.821-2.963s2.822,1.327,2.822,2.963-1.264,2.963-2.822,2.963-2.821-1.326-2.821-2.963Z" fill="#ccc" stroke="#ccc" stroke-miterlimit="10" stroke-width="1.5"/>
      <path d="M1017.446,508.303v-2.822h11.43v2.822h-11.43Z" fill="#ccc" stroke="#ccc" stroke-miterlimit="10" stroke-width="1.5"/>
      <path d="M1035.281,508.303v-2.822h11.43v2.822h-11.43Z" fill="#ccc" stroke="#ccc" stroke-miterlimit="10" stroke-width="1.5"/>
      <path d="M1053.117,500.543c0-1.636,1.264-2.963,2.821-2.963s2.822,1.327,2.822,2.963-1.264,2.963-2.822,2.963-2.821-1.326-2.821-2.963ZM1053.117,517.051c0-1.636,1.264-2.963,2.821-2.963s2.822,1.327,2.822,2.963-1.264,2.963-2.822,2.963-2.821-1.326-2.821-2.963Z" fill="#ccc" stroke="#ccc" stroke-miterlimit="10" stroke-width="1.5"/>
      <path d="M1065.17,508.303v-2.822h11.43v2.822h-11.43Z" fill="#ccc" stroke="#ccc" stroke-miterlimit="10" stroke-width="1.5"/>
      <path d="M1083.006,508.303v-2.822h11.43v2.822h-11.43Z" fill="#ccc" stroke="#ccc" stroke-miterlimit="10" stroke-width="1.5"/>
      <path d="M1117.076,475.565v44.62h-15.635v-3.514h12.121v-37.593h-12.121v-3.514h15.635Z" fill="#ccc" stroke="#ccc" stroke-miterlimit="10" stroke-width="1.5"/>
    </g>
    <g>
      <rect x="833.636" y="463.487" width="94.876" height="52.826" fill="none"/>
      <path d="M896.74,492.855c.859,4.809-.408,10.624-5.161,12.842-1.434.636-2.484.581-2.926.559-1.338-.004-2.249-.753-2.901-1.405-.448-.391-.775-.797-1.02-1.182-.582.674-1.277,1.257-2.054,1.706-1.787,1.036-3.847,1.277-5.797.674-2.25-.691-3.928-2.554-4.488-4.982-.506-2.024-.048-4.412,1.207-6.204,2.764-4.392,8.931-6.637,13.993-5.054l1.257.392-2.334,9.802c.089.323.195.783.225,1.219l.017.057c.119.417.264.937.922,1.512.455.452.729.639.905.639l.215.007c.308.015.816.042,1.609-.311,3.856-1.799,4.054-6.976,3.559-9.749-.472-2.359-1.192-3.979-2.331-5.221-1.139-1.361-2.909-2.428-5.166-3.133-8.104-2.434-15.433,2.984-17.57,9.399-.397.941-.654,1.931-.784,2.973-.294,2.489-.045,4.664.737,6.456,1.255,3.009,4.068,5.573,7.353,6.71,3.424,1.181,7.573.89,11.38-.803l1.146,2.579c-2.653,1.18-5.399,1.775-8.053,1.775-1.862,0-3.682-.293-5.396-.884-4.084-1.415-7.458-4.506-9.025-8.27-.978-2.235-1.298-4.901-.945-7.904.162-1.311.491-2.563.949-3.636,2.889-8.677,12.343-13.698,21.032-11.095,2.832.886,5.002,2.221,6.464,3.976,1.908,2.081,2.617,4.738,2.979,6.552l.003.002ZM884.832,494.897l.64-2.685c-.421-.06-.847-.089-1.275-.089-3.226,0-6.579,1.652-8.246,4.297-.812,1.163-1.124,2.741-.812,3.984.338,1.46,1.297,2.552,2.574,2.944,1.526.47,2.776.031,3.555-.419,1.198-.692,2.122-1.92,2.414-3.201l1.119-4.925.031.093h0Z" fill="#ccc" stroke="#ccc" stroke-miterlimit="10" stroke-width="1.5"/>
    </g>
    <g>
      <rect x="693.903" y="603.561" width="219.402" height="52.826" fill="none"/>
      <path d="M704.909,609.833v37.593h12.121v3.514h-15.634v-44.62h15.634v3.514h-12.121Z" fill="#ccc" stroke="#ccc" stroke-miterlimit="10" stroke-width="1.5"/>
      <path d="M743.526,621.11c.65,1.305.995,2.792.995,4.3v15.379c0,1.51-.345,2.997-.995,4.299-.612,1.225-1.535,2.37-2.742,3.404-1.08.9-2.239,1.512-3.461,1.83-1.115.406-2.317.612-3.666.625h-.141c-1.508-.011-2.711-.214-3.881-.653-1.275-.479-2.408-1.128-3.372-1.932-1.223-1.048-2.146-2.193-2.757-3.415-.652-1.303-.996-2.79-.996-4.299v-15.379c0-1.51.346-2.997.996-4.299.611-1.225,1.535-2.369,2.743-3.404,1.078-.899,2.238-1.51,3.459-1.829,1.15-.42,2.397-.626,3.807-.626,1.514,0,2.869.22,4.024.654,1.272.477,2.405,1.127,3.37,1.93,1.072.919,1.923,2.033,2.616,3.415h0ZM741.696,640.788v-15.379c0-1.072-.241-2.123-.696-3.038-.528-1.054-1.135-1.854-1.913-2.522-.706-.587-1.566-1.076-2.54-1.441-.828-.311-1.875-.475-3.032-.475-1.11,0-2.03.151-2.891.475l-.154.048c-.835.209-1.643.635-2.4,1.267-.906.776-1.599,1.625-2.041,2.51-.457.915-.698,1.964-.698,3.038v15.377c0,1.074.243,2.125.698,3.038.44.883,1.133,1.732,2.055,2.522.705.587,1.566,1.076,2.541,1.443.857.321,1.772.469,2.957.474,1.079-.005,1.977-.156,2.824-.474l.152-.048c.835-.209,1.644-.635,2.403-1.268.904-.775,1.597-1.625,2.038-2.51.456-.911.697-1.962.697-3.036h-.002Z" fill="#ccc" stroke="#ccc" stroke-miterlimit="10" stroke-width="1.5"/>
      <path d="M753.752,619.335v11.569h9.171v2.821h-9.171v17.072h-2.822v-34.284h21.305v2.821h-18.482Z" fill="#ccc" stroke="#ccc" stroke-miterlimit="10" stroke-width="1.5"/>
      <path d="M781.485,619.335v11.569h9.171v2.821h-9.171v17.072h-2.822v-34.284h21.305v2.821h-18.482Z" fill="#ccc" stroke="#ccc" stroke-miterlimit="10" stroke-width="1.5"/>
      <path d="M827.527,636.82c.612,1.213.907,2.407.907,3.547,0,3.039-1.114,5.535-3.315,7.42-2.056,1.899-4.656,2.88-7.689,2.88h-.282c-2.859,0-5.495-1.018-7.831-3.021-1.826-1.545-2.361-2.91-2.749-3.906-.058-.145-.111-.284-.169-.419l2.593-1.113c.069.161.136.329.205.504.325.834.663,1.696,1.951,2.785,1.844,1.583,3.805,2.348,6.002,2.348h.282c2.333,0,4.236-.708,5.813-2.165,1.63-1.397,2.369-3.073,2.369-5.312,0-.694-.197-1.473-.557-2.191-.31-.506-.758-1.175-1.354-1.573-.687-.541-1.566-1.049-2.454-1.429-.575-.247-1.223-.446-1.974-.676-.416-.129-.851-.263-1.303-.412l-4.149-1.104c-2.235-.688-3.849-1.722-4.981-3.178-1.229-1.578-1.851-3.436-1.851-5.521,0-2.581,1.07-4.795,3.18-6.581,2.005-1.851,4.28-2.732,7.121-2.732h.28c2.853.165,5.234,1.143,7.162,2.909,1.464,1.301,2.351,2.856,2.691,4.739l-2.777.502c-.23-1.271-.786-2.242-1.805-3.147-1.452-1.331-3.25-2.062-5.354-2.186l-.199.003c-2.114,0-3.735.625-5.251,2.024-1.514,1.284-2.228,2.731-2.228,4.467,0,1.445.423,2.719,1.255,3.79.776.997,1.899,1.695,3.535,2.199l4.182,1.114c.512.167.924.294,1.319.415.795.244,1.545.475,2.26.78,1.125.481,2.22,1.117,3.007,1.747.962.636,1.64,1.622,2.161,2.493h-.003Z" fill="#ccc" stroke="#ccc" stroke-miterlimit="10" stroke-width="1.5"/>
      <path d="M837.686,617.914v11.569h10.158v2.822h-10.158v15.66h18.482v2.822h-21.304v-35.695h21.304v2.821h-18.482Z" fill="#ccc" stroke="#ccc" stroke-miterlimit="10" stroke-width="1.5"/>
      <path d="M883.198,619.396h-8.889v31.463h-2.821v-31.463h-8.89v-2.821h20.6v2.821Z" fill="#ccc" stroke="#ccc" stroke-miterlimit="10" stroke-width="1.5"/>
      <path d="M905.831,606.136v44.62h-15.634v-3.514h12.121v-37.593h-12.121v-3.514h15.634Z" fill="#ccc" stroke="#ccc" stroke-miterlimit="10" stroke-width="1.5"/>
    </g>
    <g>
      <rect x="1009.119" y="590.282" width="155.59" height="52.826" fill="none"/>
      <path d="M1049.982,614.229l-.146,19.184-2.822-.021.081-10.713h-16.306v10.723h-2.822v-19.179l9.669-15.107h2.674l9.672,15.113ZM1047.116,619.856l.037-4.812-8.181-12.781-8.183,12.785v4.809h16.326Z" fill="#ccc" stroke="#ccc" stroke-miterlimit="10" stroke-width="1.5"/>
      <path d="M1078.399,599.141v24.407c0,1.562-.365,3.062-1.033,4.228-.572,1.152-1.495,2.298-2.706,3.334-1.019.852-2.119,1.322-3.185,1.778-1.232.464-2.501.679-3.94.679-1.512,0-2.867-.22-4.023-.655-1.271-.476-2.406-1.125-3.37-1.929-1.026-.882-2.06-1.876-2.758-3.275-.67-1.339-.996-2.701-.996-4.158v-24.408h2.822v24.408c0,1.024.222,1.944.698,2.896.448.898,1.146,1.602,2.054,2.382.706.587,1.566,1.076,2.54,1.441.828.312,1.876.476,3.032.476,1.107,0,2.027-.151,2.89-.474.859-.371,1.727-.742,2.414-1.315.907-.778,1.6-1.627,2.04-2.51.457-.805.698-1.836.698-2.896v-24.408h2.823Z" fill="#ccc" stroke="#ccc" stroke-miterlimit="10" stroke-width="1.5"/>
      <path d="M1105.407,602.022h-8.889v31.462h-2.821v-31.462h-8.889v-2.822h20.599v2.822Z" fill="#ccc" stroke="#ccc" stroke-miterlimit="10" stroke-width="1.5"/>
      <path d="M1132.823,603.735c.65,1.306.994,2.792.994,4.301v15.379c0,1.509-.344,2.996-.994,4.299-.612,1.225-1.535,2.37-2.743,3.404-1.079.9-2.239,1.511-3.461,1.83-1.114.406-2.316.612-3.665.625h-.142c-1.508-.012-2.711-.215-3.881-.653-1.275-.479-2.408-1.129-3.372-1.932-1.224-1.049-2.146-2.194-2.757-3.416-.652-1.302-.996-2.789-.996-4.299v-15.379c0-1.51.346-2.996.996-4.299.61-1.225,1.535-2.369,2.742-3.404,1.078-.898,2.238-1.51,3.46-1.828,1.149-.421,2.397-.627,3.807-.627,1.514,0,2.868.221,4.023.655,1.272.477,2.406,1.127,3.371,1.93,1.072.918,1.923,2.033,2.615,3.414h.002ZM1130.993,623.413v-15.379c0-1.072-.241-2.123-.697-3.037-.527-1.054-1.134-1.855-1.913-2.522-.705-.587-1.566-1.077-2.539-1.442-.828-.311-1.875-.474-3.032-.474-1.11,0-2.03.15-2.891.474l-.154.048c-.835.209-1.643.635-2.399,1.268-.906.775-1.599,1.625-2.041,2.51-.457.914-.698,1.964-.698,3.037v15.378c0,1.073.243,2.124.698,3.037.44.884,1.134,1.732,2.055,2.522.705.587,1.566,1.077,2.541,1.443.857.322,1.772.469,2.957.475,1.079-.006,1.977-.157,2.825-.475l.152-.048c.835-.209,1.644-.635,2.402-1.267.904-.776,1.597-1.626,2.039-2.51.455-.912.696-1.963.696-3.036v-.002Z" fill="#ccc" stroke="#ccc" stroke-miterlimit="10" stroke-width="1.5"/>
      <path d="M1140.226,613.74c0-1.637,1.264-2.963,2.821-2.963s2.822,1.326,2.822,2.963-1.264,2.963-2.822,2.963-2.821-1.326-2.821-2.963ZM1140.226,630.247c0-1.636,1.264-2.963,2.821-2.963s2.822,1.327,2.822,2.963-1.264,2.963-2.822,2.963-2.821-1.326-2.821-2.963Z" fill="#ccc" stroke="#ccc" stroke-miterlimit="10" stroke-width="1.5"/>
    </g>
    <g>
      <rect x="437.64" y="675.014" width="48.49" height="58.293" fill="none"/>
      <path d="M464.188,721.606h6.765l-8.859,12.077-9.257-12.077h7.09v-11.934h-7.18l9.347-11.789,8.944,11.789h-6.85v11.934Z" fill="#ccc" stroke="#ccc" stroke-miterlimit="10"/>
    </g>
    <g>
      <rect x="504.643" y="690.969" width="584.609" height="52.826" fill="none"/>
      <path d="M529.102,699.645v34.455h-2.799l-16.389-29.028v29.005h-2.822v-34.285h3.082l16.106,28.528v-28.675h2.822Z" fill="#ccc" stroke="#ccc" stroke-miterlimit="10" stroke-width="1.5"/>
      <path d="M553.008,722.936h3.809v2.822h-3.809v7.055h-2.822v-7.055h-14.673v-3.071l14.579-24.3h2.915v24.548h.001ZM550.184,703.715l-11.533,19.221h11.533v-19.221Z" fill="#ccc" stroke="#ccc" stroke-miterlimit="10" stroke-width="1.5"/>
      <path d="M584.272,717.504c.533,1.245.794,3.652.794,4.869,0,1.301,0,2.159-.612,4.455-.541,2.157-1.648,3.609-2.482,4.443-.933.931-2.714,2.12-4.182,2.487-1.384.465-3.645.465-4.858.465-1.434,0-3.918-.808-4.93-1.241-1.184-.508-3.406-2.006-4.756-3.205l1.875-2.109c1.181,1.05,3.183,2.373,3.993,2.722.931.398,2.991,1.014,3.818,1.014.979,0,3.017,0,4.069-.351.903-.23,2.245-1.046,2.976-1.776.582-.58,1.357-1.601,1.745-3.153.522-1.959.522-2.521.522-3.749,0-1.253-.287-3.109-.591-3.819-.347-.92-.769-1.62-1.48-2.474-.62-.743-1.295-1.275-2.011-1.581-.887-.381-1.827-.733-2.689-.733h-3.81v-3.073l8.384-9.484h-12.898v-2.821h15.943v3.636l-7.884,8.92h.265c1.375,0,2.693.485,3.801.96,1.127.484,2.16,1.281,3.067,2.369.918,1.101,1.496,2.067,1.932,3.229v.002Z" fill="#ccc" stroke="#ccc" stroke-miterlimit="10" stroke-width="1.5"/>
      <path d="M612.237,713.774c.536,1.253.819,2.568.819,3.803v6.913c0,1.236-.283,2.55-.819,3.801-.522,1.221-1.386,2.391-2.368,3.209-.756.63-1.929,1.529-3.371,2.07-1.449.544-2.729.796-4.024.796-1.474,0-3.318-.318-4.587-.794-1.408-.529-2.541-1.234-3.465-2.159-.889-.731-1.751-1.901-2.274-3.122-.316-.626-.487-1.307-.636-1.906l-.042-.343v-1.27h2.822v1.097c.114.454.226.854.415,1.234.388.901.965,1.686,1.617,2.229.736.729,1.518,1.208,2.555,1.598.951.355,2.465.615,3.596.615.959,0,1.895-.19,3.032-.617.792-.297,1.604-.804,2.555-1.597.65-.543,1.227-1.329,1.582-2.153.386-.902.591-1.832.591-2.688v-6.914c0-.856-.205-1.786-.591-2.69-.353-.823-.93-1.608-1.582-2.151-.737-.727-1.518-1.208-2.555-1.596l-.432-.166c-.789-.31-1.15-.45-2.601-.45-1.769,0-3.187.378-4.462,1.19-.953.596-1.795,1.438-2.383,2.379l-.415.663h-3.745v-16.366h21.305v2.821h-18.483v9.983c.646-.722,1.394-1.354,2.215-1.867,1.714-1.093,3.671-1.626,5.968-1.626,1.886,0,2.607.244,3.627.644l.395.152c1.408.527,2.541,1.233,3.465,2.157.887.732,1.751,1.9,2.274,3.121h0Z" fill="#ccc" stroke="#ccc" stroke-miterlimit="10" stroke-width="1.5"/>
      <path d="M642.072,724.064c0,5.601-5.063,10.158-11.287,10.158s-11.287-4.558-11.287-10.158c0-3.785,2.317-7.089,5.738-8.835-2.772-1.64-4.609-4.464-4.609-7.673,0-5.057,4.557-9.171,10.158-9.171s10.158,4.114,10.158,9.171c0,3.209-1.838,6.033-4.609,7.673,3.422,1.746,5.738,5.05,5.738,8.835ZM639.25,724.064c0-4.045-3.797-7.337-8.465-7.337s-8.465,3.292-8.465,7.337,3.797,7.336,8.465,7.336,8.465-3.291,8.465-7.336ZM630.785,713.907c4.045,0,7.336-2.849,7.336-6.349s-3.292-6.35-7.336-6.35-7.336,2.849-7.336,6.35,3.292,6.349,7.336,6.349Z" fill="#ccc" stroke="#ccc" stroke-miterlimit="10" stroke-width="1.5"/>
      <path d="M648.505,730.934c0-1.636,1.264-2.963,2.822-2.963s2.822,1.327,2.822,2.963-1.263,2.963-2.822,2.963-2.822-1.326-2.822-2.963Z" fill="#ccc" stroke="#ccc" stroke-miterlimit="10" stroke-width="1.5"/>
      <path d="M664.419,731.542h17.444v2.821h-21.304v-2.812l3.709-4.048c1.944-2.166,3.728-4.15,5.421-5.957.841-.841,1.683-1.824,2.497-2.774.851-.992,4.25-4.817,4.25-4.817.385-.388.603-.661.748-.842.086-.109.16-.196.22-.265.414-.525.761-1.191,1.006-1.928.233-.699.352-1.258.352-2.376,0-.961-.199-1.914-.591-2.831-.357-.946-.925-1.629-1.676-2.38-.856-.705-1.668-1.213-2.461-1.51-2.269-.851-3.796-.849-6.062,0-1.039.39-1.82.869-2.462,1.512-.741.74-1.336,1.585-1.676,2.38l-2.593-1.112c.485-1.133,1.273-2.262,2.274-3.263.926-.925,2.059-1.63,3.467-2.157,2.887-1.087,5.151-1.087,8.045,0,1.443.541,2.614,1.441,3.371,2.071.925.918,1.851,1.965,2.393,3.41.521,1.209.796,2.535.796,3.881,0,1.484-.19,2.351-.497,3.269-.354,1.064-.876,2.045-1.507,2.834l-.193.229c-.189.237-.473.591-.899,1.016.003,0-3.322,3.742-4.159,4.718-.849.991-1.727,2.016-2.613,2.901-1.649,1.759-3.419,3.73-5.349,5.879l-1.947,2.151h-.001Z" fill="#ccc" stroke="#ccc" stroke-miterlimit="10" stroke-width="1.5"/>
      <path d="M709.058,713.774c.536,1.253.819,2.568.819,3.803v6.913c0,1.236-.283,2.55-.819,3.801-.522,1.221-1.386,2.391-2.368,3.209-.756.63-1.929,1.529-3.371,2.07-1.449.544-2.729.796-4.024.796-1.474,0-3.318-.318-4.587-.794-1.408-.529-2.541-1.234-3.465-2.159-.889-.731-1.751-1.901-2.274-3.122-.316-.626-.487-1.307-.636-1.906l-.042-.343v-1.27h2.822v1.097c.114.454.226.854.415,1.234.388.901.965,1.686,1.617,2.229.736.729,1.518,1.208,2.555,1.598.951.355,2.465.615,3.596.615.959,0,1.895-.19,3.032-.617.792-.297,1.604-.804,2.555-1.597.65-.543,1.227-1.329,1.582-2.153.386-.902.591-1.832.591-2.688v-6.914c0-.856-.205-1.786-.591-2.69-.353-.823-.93-1.608-1.582-2.151-.737-.727-1.518-1.208-2.555-1.596l-.432-.166c-.789-.31-1.15-.45-2.601-.45-1.769,0-3.187.378-4.462,1.19-.953.596-1.795,1.438-2.383,2.379l-.415.663h-3.745v-16.366h21.305v2.821h-18.483v9.983c.646-.722,1.394-1.354,2.215-1.867,1.714-1.093,3.671-1.626,5.968-1.626,1.886,0,2.607.244,3.627.644l.395.152c1.408.527,2.541,1.233,3.465,2.157.887.732,1.751,1.9,2.274,3.121h0Z" fill="#ccc" stroke="#ccc" stroke-miterlimit="10" stroke-width="1.5"/>
      <path d="M737.341,698.387v3.991l-14.532,30.051v.382h-2.822v-1.028l14.532-30.051v-.523h-18.201v-2.821h21.022Z" fill="#ccc" stroke="#ccc" stroke-miterlimit="10" stroke-width="1.5"/>
      <path d="M765.768,699.829v34.426h-2.942l-8.13-14.465-7.989,14.465h-2.949v-34.426h2.822v28.818l6.646-12.029h2.927l6.794,12.09v-28.879h2.822Z" fill="#ccc" stroke="#ccc" stroke-miterlimit="10" stroke-width="1.5"/>
      <path d="M782.107,731.4v2.822h-9.029v-2.822h3.104v-28.955l-2.206,1.825-1.799-2.174,4.482-3.709h2.344v33.013h3.104Z" fill="#ccc" stroke="#ccc" stroke-miterlimit="10" stroke-width="1.5"/>
      <path d="M809.559,704.386c.652,1.301.996,2.788.996,4.299v15.379c0,1.511-.344,2.999-.996,4.3-.609,1.222-1.532,2.366-2.741,3.403-1.079.898-2.239,1.511-3.461,1.83-1.114.406-2.315.612-3.666.625h-.141c-1.508-.012-2.71-.215-3.881-.653-1.273-.479-2.406-1.127-3.371-1.932-1.225-1.048-2.147-2.193-2.758-3.416-.652-1.301-.996-2.787-.996-4.297v-15.379c0-1.51.346-2.997.996-4.299.61-1.222,1.533-2.367,2.742-3.403,1.079-.9,2.239-1.511,3.461-1.83,1.152-.42,2.398-.626,3.807-.626,1.511,0,2.864.219,4.022.653,1.272.477,2.405,1.127,3.372,1.932,1.073.918,1.925,2.032,2.615,3.414h0ZM791.367,708.545v13.917l16.19-15.351c-.117-.514-.292-1.006-.521-1.463-.526-1.055-1.135-1.855-1.913-2.523-.706-.588-1.566-1.077-2.54-1.443-.828-.311-1.876-.474-3.032-.474-1.108,0-2.027.15-2.891.474l-.152.048c-.837.209-1.644.636-2.402,1.268-.907.777-1.599,1.627-2.04,2.51-.457.914-.699,1.964-.699,3.038ZM807.735,724.065v-13.232l-16.033,15.202c.102.32.219.632.365.927.441.884,1.133,1.732,2.056,2.522.705.587,1.564,1.077,2.54,1.443.857.322,1.771.469,2.957.475,1.078-.006,1.977-.156,2.823-.475l.152-.048c.837-.208,1.644-.635,2.402-1.267.906-.777,1.598-1.627,2.039-2.51.457-.913.698-1.963.698-3.038Z" fill="#ccc" stroke="#ccc" stroke-miterlimit="10" stroke-width="1.5"/>
      <path d="M837.986,698.387v3.991l-14.532,30.051v.382h-2.822v-1.028l14.532-30.051v-.523h-18.2v-2.821h21.022Z" fill="#ccc" stroke="#ccc" stroke-miterlimit="10" stroke-width="1.5"/>
      <path d="M865.419,704.386c.651,1.301.996,2.788.996,4.299v15.379c0,1.511-.345,2.999-.996,4.3-.609,1.222-1.532,2.366-2.741,3.403-1.08.898-2.239,1.511-3.461,1.83-1.115.406-2.315.612-3.666.625h-.141c-1.509-.012-2.71-.215-3.881-.653-1.273-.479-2.406-1.127-3.371-1.932-1.225-1.048-2.147-2.193-2.758-3.416-.652-1.301-.996-2.787-.996-4.297v-15.379c0-1.51.346-2.997.996-4.299.61-1.222,1.533-2.367,2.742-3.403,1.079-.9,2.239-1.511,3.461-1.83,1.152-.42,2.398-.626,3.807-.626,1.511,0,2.864.219,4.022.653,1.272.477,2.405,1.127,3.372,1.932,1.073.918,1.924,2.032,2.615,3.414h0ZM847.226,708.545v13.917l16.19-15.351c-.117-.514-.292-1.006-.521-1.463-.526-1.055-1.135-1.855-1.913-2.523-.706-.588-1.566-1.077-2.54-1.443-.828-.311-1.877-.474-3.032-.474-1.108,0-2.027.15-2.891.474l-.152.048c-.837.209-1.644.636-2.402,1.268-.907.777-1.599,1.627-2.04,2.51-.457.914-.699,1.964-.699,3.038ZM863.595,724.065v-13.232l-16.033,15.202c.102.32.219.632.365.927.441.884,1.133,1.732,2.056,2.522.705.587,1.564,1.077,2.54,1.443.857.322,1.771.469,2.957.475,1.077-.006,1.977-.156,2.822-.475l.153-.048c.836-.208,1.644-.635,2.402-1.267.905-.777,1.597-1.627,2.039-2.51.457-.913.698-1.963.698-3.038Z" fill="#ccc" stroke="#ccc" stroke-miterlimit="10" stroke-width="1.5"/>
      <path d="M893.839,704.386c.651,1.301.996,2.788.996,4.299v15.379c0,1.511-.345,2.999-.996,4.3-.609,1.222-1.532,2.366-2.741,3.403-1.08.898-2.239,1.511-3.461,1.83-1.115.406-2.315.612-3.666.625h-.141c-1.509-.012-2.711-.215-3.882-.653-1.272-.479-2.405-1.127-3.37-1.932-1.225-1.048-2.147-2.193-2.759-3.416-.651-1.301-.996-2.787-.996-4.297v-15.379c0-1.51.346-2.997.996-4.299.611-1.222,1.534-2.367,2.743-3.403,1.079-.9,2.239-1.511,3.461-1.83,1.152-.42,2.398-.626,3.807-.626,1.511,0,2.864.219,4.022.653,1.272.477,2.405,1.127,3.372,1.932,1.073.918,1.924,2.032,2.615,3.414h0ZM875.646,708.545v13.917l16.19-15.351c-.117-.514-.292-1.006-.521-1.463-.526-1.055-1.135-1.855-1.913-2.523-.706-.588-1.566-1.077-2.54-1.443-.828-.311-1.877-.474-3.032-.474-1.108,0-2.027.15-2.891.474l-.152.048c-.837.209-1.644.636-2.402,1.268-.907.777-1.599,1.627-2.041,2.51-.457.914-.698,1.964-.698,3.038ZM892.015,724.065v-13.232l-16.033,15.202c.102.32.219.632.365.927.441.884,1.133,1.732,2.056,2.522.705.587,1.564,1.077,2.539,1.443.858.322,1.772.469,2.958.475,1.077-.006,1.977-.156,2.822-.475l.153-.048c.836-.208,1.644-.635,2.402-1.267.905-.777,1.597-1.627,2.039-2.51.457-.913.698-1.963.698-3.038Z" fill="#ccc" stroke="#ccc" stroke-miterlimit="10" stroke-width="1.5"/>
      <path d="M901.243,730.934c0-1.636,1.263-2.963,2.821-2.963s2.822,1.327,2.822,2.963-1.264,2.963-2.822,2.963-2.821-1.326-2.821-2.963Z" fill="#ccc" stroke="#ccc" stroke-miterlimit="10" stroke-width="1.5"/>
      <path d="M934.322,717.504c.533,1.245.794,3.652.794,4.869,0,1.301,0,2.159-.612,4.455-.54,2.157-1.647,3.609-2.481,4.443-.933.931-2.715,2.12-4.182,2.487-1.385.465-3.645.465-4.857.465-1.434,0-3.919-.808-4.93-1.241-1.185-.508-3.406-2.006-4.757-3.205l1.875-2.109c1.182,1.05,3.184,2.373,3.993,2.722.932.398,2.991,1.014,3.817,1.014.979,0,3.017,0,4.069-.351.903-.23,2.245-1.046,2.976-1.776.581-.58,1.357-1.601,1.745-3.153.522-1.959.522-2.521.522-3.749,0-1.253-.286-3.109-.592-3.819-.347-.92-.769-1.62-1.479-2.474-.619-.743-1.295-1.275-2.011-1.581-.888-.381-1.827-.733-2.689-.733h-3.809v-3.073l8.383-9.484h-12.898v-2.821h15.943v3.636l-7.884,8.92h.265c1.376,0,2.694.485,3.802.96,1.127.484,2.16,1.281,3.066,2.369.919,1.101,1.496,2.067,1.932,3.229v.002Z" fill="#ccc" stroke="#ccc" stroke-miterlimit="10" stroke-width="1.5"/>
      <path d="M959.015,722.936h3.81v2.822h-3.81v7.055h-2.821v-7.055h-14.673v-3.071l14.578-24.3h2.915v24.548h0ZM956.192,703.715l-11.532,19.221h11.532v-19.221Z" fill="#ccc" stroke="#ccc" stroke-miterlimit="10" stroke-width="1.5"/>
      <path d="M990.276,698.387v3.991l-14.532,30.051v.382h-2.821v-1.028l14.532-30.051v-.523h-18.2v-2.821h21.021Z" fill="#ccc" stroke="#ccc" stroke-miterlimit="10" stroke-width="1.5"/>
    </g>
  </g>
  <g id="Flt_Pln_Page_ALPHA_WP_Insert_Arrows_-_Dark">
    <path d="M47.924,302.04h28.483v4.607h-34.786v-4.591l6.056-6.609c3.175-3.536,6.086-6.778,8.851-9.727,1.373-1.373,2.749-2.979,4.078-4.531,1.389-1.62,6.939-7.865,6.939-7.865.629-.634.983-1.081,1.221-1.375.141-.177.26-.32.359-.431.675-.859,1.242-1.947,1.643-3.149.38-1.14.574-2.053.574-3.879,0-1.569-.325-3.124-.965-4.621-.583-1.546-1.511-2.661-2.737-3.887-1.398-1.152-2.723-1.981-4.018-2.465-3.705-1.389-6.199-1.387-9.899,0-1.695.636-2.972,1.419-4.02,2.467-1.209,1.209-2.182,2.589-2.737,3.886l-4.234-1.815c.792-1.85,2.078-3.693,3.713-5.329,1.511-1.509,3.361-2.661,5.66-3.522,4.713-1.774,8.411-1.774,13.136,0,2.356.885,4.269,2.354,5.503,3.382,1.511,1.5,3.022,3.209,3.907,5.568.85,1.975,1.299,4.14,1.299,6.338,0,2.423-.311,3.838-.811,5.337-.578,1.737-1.431,3.338-2.46,4.626l-.315.375c-.309.387-.772.965-1.468,1.659.005,0-5.425,6.109-6.791,7.704-1.387,1.617-2.82,3.29-4.267,4.737-2.693,2.873-5.582,6.091-8.733,9.6l-3.179,3.513-.002-.002Z" fill="#ff8500" stroke="#ff8500" stroke-miterlimit="10"/>
    <path d="M438.179,384.369l-67.862-34.943-3.152,12.628-255.668-69.654c1.232-4.506,1.902-9.241,1.902-14.132,0-29.584-24.068-53.652-53.652-53.652s-53.652,24.068-53.652,53.652,24.068,53.652,53.652,53.652c21.544,0,40.151-12.771,48.68-31.134l256.581,69.903-3.152,12.628,76.322,1.052ZM59.748,323.92c-25.213,0-45.652-20.439-45.652-45.652,0-25.213,20.439-45.652,45.652-45.652s45.652,20.439,45.652,45.652c0,25.213-20.439,45.652-45.652,45.652Z" fill="#ccc" stroke="#0d121e" stroke-miterlimit="10" stroke-width="2"/>
    <path d="M493.621,727.826l-66.496,37.476,8.815,9.576-239.373,198.231c-12.858-10.959-30.666-15.723-48.232-11.194-28.647,7.385-45.945,36.7-38.56,65.347,7.385,28.647,36.7,45.945,65.347,38.56,28.647-7.385,45.945-36.7,38.56-65.347-2.063-8.001-5.839-15.114-10.83-21.054l239.116-197.995,8.815,9.576,42.838-63.175ZM205.935,1002.471c6.294,24.415-8.395,49.309-32.81,55.603-24.415,6.294-49.309-8.396-55.603-32.81-6.294-24.415,8.396-49.309,32.81-55.603,24.415-6.294,49.309,8.395,55.603,32.81Z" fill="#ccc" stroke="#0d121e" stroke-miterlimit="10" stroke-width="2"/>
    <path d="M171.347,1039.456v4.607h-14.744v-4.607h5.068v-47.279l-3.601,2.981-2.938-3.55,7.319-6.057h3.827v53.904h5.068Z" fill="#ff8500" stroke="#ff8500" stroke-miterlimit="10"/>
  </g>
</svg>