<?xml version="1.0" encoding="UTF-8"?>
<svg id="b" data-name="HUD_DGTL_Cruise_DEST_-_Dark" xmlns="http://www.w3.org/2000/svg" width="1762.435" height="1768.443" viewBox="0 0 1762.435 1768.443">
  <path d="M1659.843,232.365c-76.815-76.815-183.061-183.061-183.061-183.061H281.739L27,304.043v1425.43h1710.391V309.913s-34.057-34.057-77.548-77.548Z" fill="none" stroke="#ccc" stroke-miterlimit="10" stroke-width="13"/>
  <path id="c" data-name="LadderNegative" d="M667.705,1017.292l37.997-1.662h0l-37.997,1.662ZM732.839,1014.45l37.992-1.662M831.076,965.946l-.125,44.788-32.977.88M1130.002,1015.885l-37.997-1.662h0l37.997,1.662ZM1026.876,1011.381l37.992,1.662M966.631,964.539l.125,44.788,32.977.88M670.638,1001.047s13.061-1.179,14.87-1.63,3.673-1.527,4.976-2.95,2.179-3.977,2.043-7.074c-.081-2.309.206-4.058-1.635-6.003-1.679-1.766-3.33-1.956-5.205-1.967l-15.869.69-.81-15.484,21.036-.907M638.193,982.902l17.287-.761M667.237,1499.647l37.883-3.319h0l-37.883,3.319ZM732.182,1493.964l37.889-3.319h0l-37.889,3.319ZM797.126,1488.282l32.505-3.124,1.032-43.658M1125.302,1498.245l-37.883-3.319h0l37.883,3.319ZM1060.358,1492.557l-37.889-3.319h0l37.889,3.319ZM961.877,1440.098l1.032,43.658,32.505,3.124M644.696,1468.533l-17.238,1.51M669.03,1451.311l2.961,33.792M667.341,1452.658l1.69-1.347M669.155,1485.755l5.737-.505M692.038,1453.761l2.195,25.062c.228,2.575,2.798,4.45,5.743,4.194l12.284-1.076c2.945-.261,5.15-2.553,4.922-5.129l-2.195-25.062c-.228-2.575-2.798-4.45-5.743-4.194l-12.284,1.076c-2.945.261-5.15,2.553-4.922,5.129ZM834.319,2437.438l.723-43.778-.723,43.778ZM672.469,2465.966l37.449-6.639-37.449,6.639ZM736.664,2454.589l37.449-6.639-37.449,6.639ZM800.858,2443.213l33.293-5.775-33.293,5.775ZM961.546,2436.036l-.723-43.778.723,43.778ZM1085.947,2457.925l37.449,6.639-37.449-6.639ZM1021.752,2446.549l37.449,6.639-37.449-6.639ZM961.714,2436.036l33.293,5.775-33.293-5.775ZM638.422,2437.194l17.037-3.01M695.347,2447.266l-22.688,4.004,14.424-19.037c4.553-5.987,5.053-13.099-1.679-16.445-1.722-.853-3.982-1.168-6.682-.69-3.276.576-7.747,1.793-10.067,6.753M701.225,2415.375l4.373,24.774c.451,2.543,3.173,4.189,6.085,3.678l12.148-2.146c2.912-.516,4.906-2.993,4.46-5.536l-4.373-24.774c-.451-2.543-3.173-4.189-6.085-3.678l-12.148,2.146c-2.912.516-4.906,2.993-4.46,5.536ZM830.576,2911.535l.435-45.011-.435,45.011ZM670.318,2946.675l37.144-8.16-37.144,8.16ZM733.996,2932.686l37.144-8.16-37.144,8.16ZM797.669,2918.691l32.738-7.655-32.738,7.655ZM956.134,2910.134l-.435-45.011.435,45.011ZM1079.248,2937.108l37.144,8.16-37.144-8.16ZM1015.57,2923.113l37.144,8.16-37.144-8.16ZM956.297,2909.629l32.738,7.655-32.738-7.655ZM636.14,2919.386l16.891-3.749M693.733,2926.84l-22.492,4.987,13.582-19.651c4.287-6.177,4.477-13.305-2.396-16.358-1.755-.777-4.031-.994-6.704-.397-3.249.723-7.66,2.13-9.763,7.182M704.903,2924.52s12.702-3.444,14.408-4.205c1.706-.761,3.363-2.146,4.401-3.781s1.461-4.308.788-7.345c-.484-2.265-.505-4.047-2.662-5.645-1.967-1.456-3.635-1.353-5.487-1.038l-15.565,3.45-3.499-15.158,20.629-4.564M832.124,3341.529l-1.478,43.99,1.478-43.99ZM671.062,3428.009l36.737-9.839-36.737,9.839ZM734.04,3411.146l36.737-9.839-36.737,9.839ZM797.017,3394.282l33.629-9.1-33.629,9.1ZM952.858,3384.117l-1.478-43.99,1.478,43.99ZM1075.706,3416.769l36.737,9.839-36.737-9.839ZM1012.728,3399.905l36.737,9.839-36.737-9.839ZM952.858,3383.78l33.629,9.1-33.629-9.1ZM636.373,3402.719l16.711-4.482M671.111,3410.885l1.592.288c2.059.418,8.557-.027,10.583-.57l2.477-.663c1.804-.483,3.406-1.543,4.558-3.01h0c1.679-2.14,2.255-4.944,1.548-7.573l-.75-2.798c-.473-1.771-1.635-3.281-3.222-4.2l-.587-.337c-1.423-.82-3.118-1.043-4.705-.619l-5.862,1.57,8.415-18.657-18.081,4.846M697.417,3375.598l6.514,24.301c.668,2.494,3.526,3.895,6.384,3.135l11.914-3.195c2.858-.766,4.629-3.406,3.961-5.905l-6.514-24.301c-.668-2.494-3.526-3.895-6.384-3.135l-11.914,3.195c-2.858.766-4.629,3.406-3.961,5.905ZM832.113,3815.447l-.766,45.223.766-45.223ZM674.284,3910.343l36.253-11.49-36.253,11.49ZM736.43,3890.643l36.253-11.49-36.253,11.49ZM798.576,3870.944l32.434-10.605-32.434,10.605ZM952.462,3814.046l.766,45.223-.766-45.223ZM1074.033,3897.451l36.253,11.49-36.253-11.49ZM1011.892,3877.746l36.253,11.49-36.253-11.49ZM953.559,3858.932l32.434,10.605-32.434-10.605ZM638.291,3886.351l16.5-5.205M673.317,3892.979l1.603.223c2.075.331,8.546-.402,10.551-1.032l2.445-.772c1.782-.56,3.336-1.689,4.422-3.206h0c1.586-2.211,2.037-5.036,1.217-7.633l-.869-2.76c-.554-1.749-1.777-3.211-3.406-4.058l-.598-.31c-1.461-.761-3.162-.907-4.727-.413l-5.791,1.825,7.595-19.004-17.852,5.628M707.332,3885.276s12.354-4.537,13.99-5.444,3.162-2.429,4.058-4.151,1.081-4.417.147-7.383c-.679-2.217-.853-3.988-3.146-5.389-2.086-1.277-3.738-1.032-5.558-.554l-15.201,4.792-4.808-14.799,20.156-6.34M829.473,4321.169l.641-43.827-.641,43.827ZM674.583,4377.356l35.732-13.017-35.732,13.017ZM735.838,4355.043l35.732-13.017-35.732,13.017ZM797.099,4332.73l32.374-11.898-32.374,11.898ZM950.012,4319.762l-.641-43.827.641,43.827ZM1069.17,4362.937l35.732,13.017-35.732-13.017ZM1007.915,4340.624l35.732,13.017-35.732-13.017ZM950.012,4319.431l32.374,11.898-32.374-11.898ZM638.536,4353.451l16.26-5.922M692.745,4354.5l-11.822-32.472h0l-3.091,1.124-8.627,23.062,20.297-7.389M695.189,4321.49l8.606,23.638c.886,2.429,3.852,3.575,6.628,2.564l11.588-4.221c2.776-1.01,4.314-3.797,3.428-6.226l-8.606-23.638c-.886-2.429-3.852-3.575-6.628-2.564l-11.588,4.221c-2.776,1.01-4.314,3.797-3.428,6.226ZM828.669,4748.441l-.473,44.354.473-44.354ZM675.599,4855.354l35.178-14.451-35.178,14.451ZM735.903,4830.58l35.178-14.451-35.178,14.451ZM796.208,4805.812l31.989-13.354-31.989,13.354ZM947.925,4747.039l.473,44.354-.473-44.354ZM1065.818,4839.501l35.178,14.451-35.178-14.451ZM1005.514,4814.727l35.178,14.451-35.178-14.451ZM948.398,4791.056l31.989,13.354-31.989-13.354ZM638.492,4834.709l15.983-6.623M692.989,4833.297l-13.229-31.923h0l-3.037,1.26-7.617,23.416,19.955-8.269M705.664,4828.146s11.909-5.596,13.457-6.644c1.548-1.049,2.939-2.695,3.678-4.487s.69-4.493-.5-7.372c-.869-2.146-1.201-3.895-3.602-5.096-2.189-1.092-3.814-.701-5.585-.071l-14.728,6.101-6.079-14.321,19.526-8.073M829.642,5274.721l.473-46.087-.473,46.087ZM680.053,5344.06l34.499-16.005-34.499,16.005ZM739.19,5316.624l34.499-16.005-34.499,16.005ZM829.642,5274.384l-31.31,14.799,31.31-14.799ZM949.371,5227.227l.473,46.087-.473-46.087ZM1064.938,5326.648l34.499,16.005-34.499-16.005ZM1005.796,5299.212l34.499,16.005-34.499-16.005ZM981.153,5287.782l-31.31-14.799,31.31,14.799ZM641.573,5323.845l15.983-6.628M678.185,5329.875s11.909-5.596,13.457-6.644c1.548-1.049,2.939-2.695,3.678-4.487s.69-4.493-.5-7.372c-.869-2.146-1.201-3.895-3.602-5.096-2.189-1.092-3.814-.701-5.585-.071l-14.728,6.101-6.079-14.321,19.526-8.073M697.955,5289.194l9.632,23.242c.989,2.385,4.004,3.406,6.737,2.271l11.393-4.721c2.733-1.13,4.145-3.982,3.156-6.373l-9.632-23.242c-.989-2.385-4.004-3.406-6.737-2.271l-11.393,4.721c-2.733,1.13-4.145,3.982-3.156,6.373ZM830.81,5748.487l.934-45.565-.934,45.565ZM684.449,5824.003l33.749-17.526-33.749,17.526ZM742.308,5793.954l33.749-17.526-33.749,17.526ZM800.163,5763.911l30.647-15.755-30.647,15.755ZM953.021,5747.08l-.934-45.565.934,45.565ZM1065.633,5805.07l33.749,17.526-33.749-17.526ZM1041.523,5792.547l-33.749-17.526,33.749,17.526ZM983.668,5762.504l-30.647-15.755,30.647,15.755ZM645.479,5805.597l15.679-7.318M682.46,5810.15s11.653-6.112,13.158-7.22c1.505-1.108,2.814-2.825,3.477-4.645s.494-4.52-.82-7.34c-.962-2.108-1.369-3.841-3.825-4.933-2.233-.994-3.841-.533-5.585.174l-14.446,6.737-6.699-14.044,19.151-8.921M713.21,5795.715s11.653-6.112,13.158-7.22,2.814-2.825,3.477-4.645.494-4.52-.82-7.34c-.962-2.108-1.369-3.841-3.825-4.933-2.233-.994-3.841-.533-5.585.174l-14.446,6.737-6.699-14.044,19.151-8.921M833.722,6224.829l.723-45.549-.723,45.549ZM690.881,6307.147l32.912-19.059-32.912,19.059ZM747.296,6274.474l32.912-19.059-32.912,19.059ZM803.71,6241.806l30.179-17.478-30.179,17.478ZM956.602,6223.427l-.723-45.549.723,45.549ZM1066.535,6286.687l32.912,19.059-32.912-19.059ZM1010.121,6254.014l32.912,19.059-32.912-19.059ZM956.439,6222.921l30.179,17.478-30.179-17.478ZM664.391,6283.226l-15.348,7.991M696.08,6288.99c6.813-3.547,8.372-9.448,5.802-14.386-3.325-6.384-9.85-6.237-15.114-3.493s-8.644,7.747-5.319,14.137c2.57,4.939,7.818,7.291,14.631,3.743h0ZM680.912,6257.925c-.619,1.929-1.239,3.836-1.565,8.214-.538,7.177.277,15.582,1.733,18.39M702.66,6251.574l11.621,22.313c1.195,2.293,4.287,3.043,6.911,1.679l10.936-5.693c2.624-1.364,3.781-4.33,2.586-6.623l-11.621-22.313c-1.195-2.293-4.287-3.043-6.911-1.679l-10.936,5.693c-2.624,1.364-3.781,4.33-2.586,6.623ZM832.276,6653.567l-1.059,46.532,1.059-46.532ZM691.712,6787.823l32.108-20.378-32.108,20.378ZM746.753,6752.89l32.108-20.378-32.108,20.378ZM831.049,6699.768l-29.25,18.189,29.25-18.189ZM954.765,6698.697l-1.059-46.532,1.059,46.532ZM1094.27,6786.422l-32.108-20.378,32.108,20.378ZM1007.122,6731.11l32.108,20.378-32.108-20.378ZM954.934,6698.36l29.25,18.189-29.25-18.189ZM648.934,6772.9l14.984-8.655M715.78,6756.981s11.078-7.101,12.479-8.34,2.559-3.059,3.059-4.927.098-4.547-1.456-7.242c-1.141-2.015-1.701-3.705-4.238-4.58-2.309-.798-3.874-.196-5.547.657l-13.805,7.97-7.899-13.403,18.303-10.556M695.809,6768.662c6.65-3.841,7.954-9.807,5.172-14.625-3.602-6.237-10.11-5.802-15.25-2.83-5.139,2.972-8.301,8.117-4.699,14.353,2.782,4.819,8.133,6.943,14.783,3.102h-.005ZM679.298,6738.292c-.532,1.956-1.07,3.884-1.206,8.274-.228,7.198.956,15.554,2.537,18.292M831.217,7180.721l.516-46.348-.516,46.348ZM695.363,7274.927l31.163-21.802-31.163,21.802ZM748.784,7237.555l31.163-21.802-31.163,21.802h0ZM802.2,7200.182l29.017-19.96-29.017,19.96ZM954.765,7179.315l-.516-46.348.516,46.348ZM1059.456,7251.724l31.163,21.802-31.163-21.802ZM1006.041,7214.351l31.163,21.802-31.163-21.802ZM954.765,7178.815l29.017,19.96-29.017-19.96ZM654.486,7259.878l14.593-9.301M691.495,7259.182l1.032-41.246-16.999,10.833M704.213,7215.628l13.517,21.221c1.391,2.179,4.536,2.657,7.03,1.07l10.404-6.628c2.494-1.586,3.39-4.645,1.999-6.824l-13.517-21.221c-1.391-2.179-4.536-2.657-7.03-1.07l-10.404,6.628c-2.494,1.586-3.39,4.645-1.999,6.824ZM828.544,7647.968l.473-45.826-.473,45.826ZM696.863,7748.454l30.212-23.1-30.212,23.1ZM748.649,7708.854l30.212-23.106-30.212,23.106ZM800.434,7669.248l27.604-21.112-27.604,21.112ZM953.092,7646.567l-.473-45.826.473,45.826ZM1054.567,7723.952l30.212,23.1-30.212-23.1ZM1032.988,7707.452l-30.212-23.106,30.212,23.106ZM953.597,7646.729l27.604,21.112-27.604-21.112ZM657.241,7736.122l14.169-9.926M722.576,7714.423s10.415-8.041,11.702-9.399,2.282-3.271,2.619-5.178-.299-4.536-2.086-7.084c-1.315-1.907-2.016-3.547-4.623-4.194-2.374-.592-3.874.141-5.465,1.141l-13.061,9.143-9.035-12.664,17.314-12.11M694.228,7733.981l-.766-41.252-16.51,11.567M834.39,8125.58l.598-44.804-.598,44.804ZM707.212,8233.221l29.098-24.486-29.098,24.486ZM757.097,8191.247l29.098-24.486-29.098,24.486ZM806.981,8149.274l27.577-23.692-27.577,23.692ZM960.28,8124.174l-.598-44.804.598,44.804ZM1058.364,8207.328l29.098,24.486-29.098-24.486ZM1008.48,8165.36l29.098,24.486-29.098-24.486ZM987.694,8147.866l-27.577-23.692,27.577,23.692ZM663.983,8223.839l13.723-10.534M683.047,8196.621l3.645,4.754c.799,1.043,2.043,1.679,3.45,1.771l2.162.141-.424,2.124c-.277,1.385.016,2.749.82,3.792l5.4,7.036c.793,1.032,2.026,1.668,3.423,1.755h0c1.396.092,2.847-.369,4.026-1.277l9.361-7.188c1.184-.907,1.999-2.189,2.276-3.559h0c.277-1.375-.016-2.727-.81-3.76l-5.4-7.036c-.799-1.043-2.043-1.679-3.45-1.771l-2.162-.141.424-2.124c.277-1.385-.016-2.749-.82-3.792l-3.645-4.754c-.793-1.032-2.026-1.668-3.423-1.755h0c-1.396-.092-2.847.369-4.026,1.277l-9.361,7.188c-1.184.907-1.999,2.189-2.276,3.559h0c-.277,1.375.016,2.727.81,3.76ZM692.305,8203.281l13.055-10.018M710.021,8175.199l15.321,19.955c1.575,2.048,4.748,2.249,7.095.451l9.785-7.508c2.347-1.799,2.972-4.922,1.396-6.97l-15.321-19.955c-1.575-2.048-4.748-2.249-7.095-.451l-9.785,7.508c-2.347,1.799-2.972,4.922-1.396,6.97ZM836.232,8598.01l.391-44.576-.391,44.576ZM713.493,8711.177l28.05-25.687-28.05,25.687ZM761.579,8667.154l28.05-25.687-28.05,25.687ZM809.659,8623.126l26.903-25.116-26.903,25.116ZM962.79,8596.603l-.391-44.576.391,44.576ZM1057.479,8684.088l28.05,25.687-28.05-25.687ZM1009.398,8640.066l28.05,25.687-28.05-25.687ZM962.453,8596.603l26.903,25.116-26.903-25.116ZM681.423,8693.129l-13.251,11.126M731.416,8677.036s9.676-8.921,10.839-10.382c1.163-1.462,1.988-3.455,2.157-5.384s-.695-4.493-2.695-6.878c-1.472-1.787-2.314-3.358-4.971-3.776-2.412-.38-3.846.478-5.346,1.614l-12.213,10.246-10.105-11.833,16.19-13.572M685.883,8676.428l3.852,4.585c.848,1.005,2.113,1.586,3.526,1.619l2.168.044-.331,2.141c-.217,1.396.136,2.744.983,3.754l5.705,6.791c.837.999,2.097,1.576,3.493,1.603h0c1.402.027,2.825-.494,3.971-1.45l9.04-7.59c1.141-.956,1.902-2.271,2.119-3.656h0c.212-1.385-.136-2.722-.972-3.722l-5.705-6.791c-.848-1.005-2.113-1.586-3.526-1.619l-2.168-.044.331-2.141c.217-1.396-.136-2.744-.983-3.754l-3.852-4.585c-.837-.999-2.097-1.576-3.493-1.603h0c-1.402-.027-2.825.494-3.971,1.45l-9.04,7.59c-1.141.956-1.902,2.271-2.119,3.656h0c-.212,1.385.136,2.722.972,3.722ZM695.423,8682.681l12.604-10.578M825.404,9074.145c0,41.708,33.325,75.517,74.43,75.517s74.43-33.809,74.43-75.517-33.325-75.517-74.43-75.517-74.43,33.809-74.43,75.517ZM893.858,8998.085h11.409v-16.299h-11.409v16.299ZM851.482,9018.186h96.161-96.161ZM834.096,9047.524h131.475-131.475ZM828.664,9074.688h142.341-142.341ZM834.096,9101.309h131.475-131.475ZM847.135,9124.127h106.484-106.484Z" fill="none" stroke="#ccc" stroke-miterlimit="10" stroke-width="6"/>
  <path id="d" data-name="LadderPositive" d="M814.684-6827.917l51.865,28.502-5.14,23.362-16.821,4.672-30.371-56.537h.467ZM895.051-6802.218l5.14,29.437,8.41,1.869,28.969-57.004-42.052,25.699s-.467,0-.467,0ZM934.767-6706.432l-12.616-26.166-22.428,2.803.935,7.943,34.109,15.419ZM854.4-6729.327l-23.83-5.607-14.017,29.904,38.314-24.297s-.467,0-.467,0ZM748.335-6752.227l113.074,22.428,17.288,282.685,20.559-283.152,122.886-17.755-121.017-22.428-19.157-102.795-18.223,98.589-115.41,22.895v-.467ZM1106.495-6324.933v-17.288h-144.847M798.111-6343.156h-144.847v17.288M1105.733-5917.324v-17.288h-144.847M797.349-5935.547h-144.847v17.288M1106.112-5511.075v-17.288h-144.847M797.728-5529.298h-144.847v17.288M1105.35-5103.466v-17.288h-144.847M796.966-5121.689h-144.847v17.288M1106.303-4695.176v-17.288h-144.847M797.919-4713.398h-144.847v17.288M1105.542-4287.567v-17.288h-144.847M797.158-4305.79h-144.847v17.288M1105.925-3881.318v-17.288h-144.847M797.541-3899.541h-144.847v17.288M1105.163-3473.709v-17.288h-144.847M796.779-3491.932h-144.847v17.288M1105.528-3065.217v-17.288h-144.847M797.144-3083.44h-144.847v17.288M1104.766-2657.609v-17.288h-144.847M796.382-2675.831h-144.847v17.288M1105.149-2251.36v-17.288h-144.847M796.765-2269.582h-144.847v17.288M1104.383-1843.751v-17.288h-144.847M795.999-1861.973h-144.847v17.288M1105.336-1435.464v-17.288h-144.847M796.952-1453.687h-144.847v17.288M1104.574-1027.851v-17.288h-144.847M796.191-1046.074h-144.847v17.288M1104.958-621.602v-17.288h-144.847M796.574-639.824h-144.847v17.288M1105.5,198.853v-17.288h-144.847M797.116,180.631h-144.847v17.288" fill="none" stroke="#ccc" stroke-linecap="square" stroke-miterlimit="15.1" stroke-width="6"/>
  <path id="e" data-name="FPMUncaged" d="M908.471,612.991c0,14.545-11.795,26.34-26.34,26.34s-26.34-11.795-26.34-26.34,11.795-26.34,26.34-26.34,26.34,11.795,26.34,26.34ZM855.79,612.991h-52.681M908.471,612.991h52.681M882.13,586.651v-26.34" fill="none" stroke="#ccc" stroke-linecap="square" stroke-miterlimit="15.1" stroke-width="6"/>
  <line x1="792.391" y1="644.389" x2="27" y2="644.389" fill="none" stroke="#ccc" stroke-linecap="square" stroke-miterlimit="15.1" stroke-width="6"/>
  <line x1="971.573" y1="644.389" x2="1731.522" y2="644.389" fill="none" stroke="#ccc" stroke-linecap="square" stroke-miterlimit="15.1" stroke-width="6"/>
  <path id="f" data-name="PotentialPath" d="M1001.38,552.231l-29.807,17.21,29.807,17.21" fill="none" stroke="#ccc" stroke-miterlimit="15.1" stroke-width="6"/>
  <g id="g" data-name="baro_alt_rect">
    <path id="h" data-name="rect7" d="M1334.073,960.667v71.976h195.363v-71.976h-195.363Z" fill="none" stroke="#ccc" stroke-miterlimit="15.1" stroke-width="6"/>
  </g>
  <g id="i" data-name="airspeed_rect">
    <path id="j" data-name="rect8" d="M236.144,959.253v73.628h195.015v-73.628h-195.015Z" fill="none" stroke="#ccc" stroke-miterlimit="15.1" stroke-width="6"/>
  </g>
  <g id="k" data-name="CompassMarker">
    <path id="l" data-name="path98" d="M885.634,196.043h24.701l-24.701,49.402-24.701-49.402h24.701Z" fill="none" stroke="#ccc" stroke-miterlimit="10" stroke-width="6"/>
  </g>
  <rect id="m" data-name="CmdCue" x="871.555" y="253.291" width="13.339" height="42.98" fill="none" stroke="#ccc" stroke-miterlimit="10" stroke-width="6"/>
  <line x1="502.435" y1="249.913" x2="502.435" y2="296.271" fill="none" stroke="#ccc" stroke-miterlimit="10" stroke-width="6"/>
  <line x1="766.435" y1="249.913" x2="766.435" y2="296.271" fill="none" stroke="#ccc" stroke-miterlimit="10" stroke-width="6"/>
  <line x1="1027.826" y1="249.913" x2="1027.826" y2="296.271" fill="none" stroke="#ccc" stroke-miterlimit="10" stroke-width="6"/>
  <line x1="1288.696" y1="249.913" x2="1288.696" y2="296.271" fill="none" stroke="#ccc" stroke-miterlimit="10" stroke-width="6"/>
  <line x1="631.826" y1="245.446" x2="631.826" y2="273.092" fill="none" stroke="#ccc" stroke-miterlimit="10" stroke-width="6"/>
  <line x1="1158.783" y1="249.913" x2="1158.783" y2="273.092" fill="none" stroke="#ccc" stroke-miterlimit="10" stroke-width="6"/>
  <path d="M223.659,1222.21l-13.431,16.416c-1.502,1.836-3.749,2.901-6.122,2.901h0c-2.098,0-4.11-.833-5.593-2.317l-.635-.635c-1.483-1.483-2.317-3.495-2.317-5.593v-.472c0-2.098.833-4.11,2.317-5.593l.635-.635c1.483-1.483,3.495-2.317,5.593-2.317h0c2.372,0,4.619,1.065,6.122,2.901l13.431,16.416" fill="none" stroke="#ccc" stroke-linecap="round" stroke-linejoin="round" stroke-width="6"/>
  <path id="n" data-name="BankMarker" d="M873.754,1395.911c4.177-7.757,8.215-15.255,8.215-15.255l17.326,32.177h-34.652s4.636-8.61,9.112-16.922Z" fill="none" stroke="#ccc" stroke-miterlimit="15.1" stroke-width="6"/>
  <path id="o" data-name="BankMarkerSideSlip" d="M864.246,1435.505h-8.217l8.217-15.099h34.999l8.217,15.099h-43.217Z" fill="none" stroke="#ccc" stroke-miterlimit="15.1" stroke-width="6"/>
  <rect id="p" data-name="CmdCue" x="876.837" y="1339.021" width="10.707" height="34.501" fill="none" stroke="#ccc" stroke-miterlimit="10" stroke-width="6"/>
  <line x1="1072.169" y1="1326.315" x2="1055.339" y2="1296.764" fill="none" stroke="#ccc" stroke-miterlimit="15.1" stroke-width="6"/>
  <line x1="1012.951" y1="1354.75" x2="992.051" y2="1298.84" fill="none" stroke="#ccc" stroke-miterlimit="15.1" stroke-width="6"/>
  <line x1="949.728" y1="1371.387" x2="942.699" y2="1338.113" fill="none" stroke="#ccc" stroke-miterlimit="15.1" stroke-width="6"/>
  <line x1="691.369" y1="1326.315" x2="708.2" y2="1296.764" fill="none" stroke="#ccc" stroke-miterlimit="15.1" stroke-width="6"/>
  <line x1="750.587" y1="1354.75" x2="771.487" y2="1298.84" fill="none" stroke="#ccc" stroke-miterlimit="15.1" stroke-width="6"/>
  <line x1="813.81" y1="1371.387" x2="820.839" y2="1338.113" fill="none" stroke="#ccc" stroke-miterlimit="15.1" stroke-width="6"/>
  <g>
    <path d="M499.256,303.499v26.086c0,4.436-3.909,8.041-8.716,8.041h-12.79c-4.888,0-8.716-3.533-8.716-8.041v-26.086c0-4.436,3.909-8.041,8.716-8.041h12.79c4.808,0,8.716,3.605,8.716,8.041ZM492.882,303.499c0-.92-1.051-1.671-2.343-1.671h-12.79c-1.342,0-2.342.882-2.342,1.671v26.086c0,.92,1.051,1.671,2.342,1.671h12.79c1.342,0,2.343-.882,2.343-1.671v-26.086Z" fill="#ccc"/>
    <path d="M532.634,331.244c1.76,0,3.187,1.427,3.187,3.187s-1.427,3.187-3.187,3.187h-23.849c-.439,0-.861-.093-1.241-.253-.025-.009-.042-.034-.067-.046-.367-.165-.697-.393-.971-.676-.013-.012-.029-.017-.042-.029-.114-.118-.161-.27-.249-.401-.139-.199-.292-.384-.38-.612-.089-.232-.11-.473-.144-.717-.025-.156-.093-.292-.093-.452,0-.017.008-.034.008-.051.004-.262.084-.511.152-.764.042-.147.046-.312.105-.452.055-.131.165-.236.241-.359.139-.232.274-.468.469-.658.013-.013.029-.042.029-.042l18.15-17.011c2.744-2.579,4.242-5.373,4.111-7.665-.088-1.604-.975-3.01-2.697-4.293-1.161-.857-2.815-1.313-4.765-1.313-3.761,0-6.703.642-8.856,3.77-.996,1.457-2.976,1.819-4.432.823-1.448-.996-1.815-2.98-.819-4.432,4.491-6.53,11.477-6.53,14.107-6.53,3.322,0,6.281.886,8.56,2.562,4.103,3.06,5.128,6.61,5.268,9.054.24,4.238-1.929,8.737-6.117,12.676l-12.274,11.506h15.791l.004-.008Z" fill="#ccc"/>
  </g>
  <g>
    <path d="M764.015,303.499v26.086c0,4.436-3.909,8.041-8.716,8.041h-12.79c-4.888,0-8.716-3.533-8.716-8.041v-26.086c0-4.436,3.909-8.041,8.716-8.041h12.79c4.808,0,8.716,3.605,8.716,8.041ZM757.642,303.499c0-.92-1.051-1.671-2.343-1.671h-12.79c-1.342,0-2.342.882-2.342,1.671v26.086c0,.92,1.051,1.671,2.342,1.671h12.79c1.342,0,2.343-.882,2.343-1.671v-26.086Z" fill="#ccc"/>
    <path d="M796.699,314.934c1.385.35,2.406,1.6,2.406,3.09s-1.021,2.739-2.406,3.09v13.33c0,1.76-1.427,3.187-3.187,3.187s-3.187-1.427-3.187-3.187v-13.237h-16.779c-1.245,0-2.376-.718-2.896-1.849-.523-1.131-.338-2.46.469-3.406l16.546-19.375c.604-.709,1.49-1.119,2.423-1.119h3.419c1.76,0,3.187,1.427,3.187,3.187v16.28l.004.009ZM790.321,303.28l-9.864,11.553h9.864v-11.553Z" fill="#ccc"/>
  </g>
  <g>
    <path d="M1024.648,303.497v26.086c0,4.436-3.909,8.041-8.717,8.041h-12.79c-4.888,0-8.716-3.533-8.716-8.041v-26.086c0-4.436,3.908-8.041,8.716-8.041h12.79c4.808,0,8.717,3.605,8.717,8.041ZM1018.274,303.497c0-.92-1.051-1.671-2.343-1.671h-12.79c-1.342,0-2.342.882-2.342,1.671v26.086c0,.92,1.051,1.671,2.342,1.671h12.79c1.343,0,2.343-.882,2.343-1.671v-26.086Z" fill="#ccc"/>
    <path d="M1045.826,310.361c9.202,0,15.386,5.47,15.386,13.613,0,8.02-6.327,13.617-15.386,13.617s-14.837-5.344-14.837-13.617c0-.194.046-.363.051-.553-.009-.088-.051-.16-.051-.249,0-4.381,3.913-13.305,7.694-19.408,2.533-4.094,4.217-5.774,5.699-7.256,1.245-1.245,3.321-1.305,4.566-.059,1.245,1.245,1.305,3.208.06,4.449l-.118.118c-1.359,1.355-2.639,2.638-4.787,6.104-.747,1.199-1.422,2.415-2.06,3.622,1.194-.228,2.439-.384,3.782-.384v.004ZM1054.838,323.969c0-6.534-6.302-7.239-9.012-7.239-3.862,0-8.463,1.258-8.463,7.239,0,4.673,3.005,7.243,8.463,7.243,5.559,0,9.012-2.773,9.012-7.243Z" fill="#ccc"/>
  </g>
  <g>
    <path d="M1285.549,303.501v26.086c0,4.436-3.909,8.041-8.717,8.041h-12.79c-4.888,0-8.716-3.533-8.716-8.041v-26.086c0-4.436,3.908-8.041,8.716-8.041h12.79c4.808,0,8.717,3.605,8.717,8.041ZM1279.175,303.501c0-.92-1.051-1.671-2.343-1.671h-12.79c-1.342,0-2.342.882-2.342,1.671v26.086c0,.92,1.051,1.671,2.342,1.671h12.79c1.343,0,2.343-.882,2.343-1.671v-26.086Z" fill="#ccc"/>
    <path d="M1322.071,309.921c0,1.845-.688,3.647-1.921,5.107,1.232,1.465,1.921,3.263,1.921,5.107v9.206c0,2.25-1.009,4.432-2.77,5.981-1.654,1.464-3.858,2.271-6.2,2.271h-12.241c-2.292,0-4.551-.828-6.196-2.271-1.79-1.579-2.773-3.702-2.773-5.981v-9.206c0-1.845.688-3.647,1.92-5.107-1.236-1.469-1.92-3.271-1.92-5.107v-6.205c0-2.25,1.009-4.432,2.769-5.981,1.659-1.469,3.862-2.275,6.201-2.275h12.241c2.3,0,4.559.828,6.2,2.271,1.79,1.583,2.77,3.706,2.77,5.981v6.209ZM1315.697,320.128c0-.422-.241-.87-.654-1.237l-.781-.684h-14.57l-.785.688c-.405.363-.646.81-.646,1.232v9.206c0,.435.207.835.612,1.194.485.426,1.229.684,1.983.684h12.241c.772,0,1.499-.245,1.984-.68.388-.338.616-.785.616-1.199v-9.206ZM1298.269,303.716v6.205c0,.422.24.874.658,1.25l.769.671h14.575l.789-.688c.401-.359.642-.811.642-1.232v-6.205c0-.439-.207-.844-.616-1.203-.481-.422-1.224-.679-1.983-.679h-12.241c-.772,0-1.494.249-1.979.679h-.005c-.384.338-.611.785-.611,1.199l.004.004Z" fill="#ccc"/>
  </g>
  <g>
    <path d="M309.15,994.888c1.959,1.959,3.04,4.56,3.04,7.315v2.997c0,3.833-1.824,7.471-4.875,9.738-2.064,1.562-4.584,2.397-7.26,2.397h-2.659c-2.418,0-9.607-1.343-12.148-2.617l-1.452-.684c-1.591-.752-2.271-2.651-1.52-4.242.751-1.596,2.646-2.268,4.242-1.52l1.52.717c1.41.705,7.492,1.976,9.362,1.976h2.659c1.275,0,2.461-.393,3.436-1.127,1.481-1.105,2.321-2.79,2.321-4.639v-2.997c0-1.056-.418-2.052-1.178-2.812l-.511-.511c-.608-.611-1.448-.962-2.3-.962h-6.29c-1.228,0-2.351-.709-2.878-1.823-.528-1.115-.367-2.428.414-3.382l9.168-11.219h-12.655c-1.76,0-3.187-1.427-3.187-3.188s1.427-3.187,3.187-3.187h19.375c1.228,0,2.351.709,2.878,1.823.528,1.11.367,2.427-.414,3.381l-9.177,11.229c2.385.105,4.694,1.122,6.391,2.819l.511.511v.004Z" fill="#ccc"/>
    <path d="M348.378,976.805c.553,1.039.494,2.297-.156,3.271l-23.849,35.799c-.616.92-1.625,1.418-2.655,1.418-.608,0-1.224-.173-1.764-.536-1.465-.975-1.862-2.95-.887-4.419l20.548-30.843h-14.9c-1.76,0-3.187-1.427-3.187-3.188s1.427-3.187,3.187-3.187h20.852c1.178,0,2.258.646,2.811,1.68v.004Z" fill="#ccc"/>
    <path d="M384.942,976.805c.553,1.039.494,2.297-.156,3.271l-23.849,35.799c-.616.92-1.625,1.418-2.655,1.418-.608,0-1.224-.173-1.764-.536-1.465-.975-1.862-2.95-.887-4.419l20.548-30.843h-14.9c-1.76,0-3.187-1.427-3.187-3.188s1.427-3.187,3.187-3.187h20.852c1.178,0,2.258.646,2.811,1.68v.004Z" fill="#ccc"/>
  </g>
  <g>
    <path d="M293.007,924.802c2.347,2.73,2.284,5.326,2.229,7.416l-.017.958c0,3.899-1.232,7.366-3.381,9.519-1.841,1.836-4.373,3.182-6.948,3.697-1.984.396-12.722.924-15.968,1.072h-.152c-1.692,0-3.103-1.334-3.183-3.039-.08-1.756,1.275-3.246,3.035-3.33,6.517-.309,13.917-.748,15.019-.959,1.333-.27,2.748-1.018,3.689-1.958.701-.7,1.515-2.432,1.515-5.011l.017-1.119c.042-1.768.025-2.262-.684-3.089-.802-.925-1.465-1.103-3.04-1.169h-16.369c-1.751,0-3.174-1.41-3.187-3.162l-.127-16.086c-.004-.854.325-1.668.924-2.271.6-.604,1.414-.941,2.263-.941h21.865c1.76,0,3.187,1.427,3.187,3.188s-1.427,3.187-3.187,3.187h-18.652l.076,9.712h13.343c2.655.115,5.314.596,7.729,3.382l.004.005Z" fill="#ccc"/>
    <path d="M327.921,924.809c1.385.35,2.406,1.6,2.406,3.09s-1.021,2.739-2.406,3.09v13.33c0,1.76-1.427,3.187-3.187,3.187s-3.187-1.427-3.187-3.187v-13.237h-16.779c-1.245,0-2.376-.718-2.896-1.849-.523-1.131-.338-2.461.469-3.406l16.546-19.375c.604-.709,1.49-1.119,2.423-1.119h3.419c1.76,0,3.187,1.428,3.187,3.188v16.28l.004.009ZM321.543,913.155l-9.864,11.553h9.864v-11.553Z" fill="#ccc"/>
    <path d="M362.967,924.809c1.385.35,2.406,1.6,2.406,3.09s-1.021,2.739-2.406,3.09v13.33c0,1.76-1.427,3.187-3.187,3.187s-3.187-1.427-3.187-3.187v-13.237h-16.779c-1.245,0-2.376-.718-2.896-1.849-.523-1.131-.338-2.461.469-3.406l16.546-19.375c.604-.709,1.49-1.119,2.423-1.119h3.419c1.76,0,3.187,1.428,3.187,3.188v16.28l.004.009ZM356.589,913.155l-9.864,11.553h9.864v-11.553Z" fill="#ccc"/>
    <path d="M401.725,926.378l.127,10.088c0,3.001-1.211,5.88-3.326,7.939-2.001,1.941-4.766,3.057-7.585,3.057h-7.682c-2.406,0-4.77-.807-6.648-2.279l-.688-.523c-2.697-2.039-4.25-5.184-4.25-8.615v-19.206c0-3.377,1.596-6.602,4.263-8.619l.709-.54c1.849-1.448,4.208-2.259,6.614-2.259h8.442c2.132,0,4.217.638,6.028,1.845l2.537,1.692c1.465.979,1.857,2.955.882,4.419-.975,1.47-2.951,1.857-4.419.883l-2.533-1.692c-.76-.507-1.621-.772-2.495-.772h-8.442c-1.005,0-1.942.32-2.723.928l-.751.574c-1.097.824-1.743,2.148-1.743,3.542v19.206c0,1.418.629,2.705,1.73,3.537l.73.557c.806.633,1.748.954,2.752.954h7.683c1.177,0,2.321-.46,3.14-1.253.899-.874,1.397-2.057,1.397-3.326l-.089-6.902h-7.281c-1.76,0-3.187-1.426-3.187-3.187s1.427-3.187,3.187-3.187h10.426c1.744,0,3.166,1.4,3.187,3.145l.008-.004Z" fill="#ccc"/>
  </g>
  <g>
    <path d="M1371.016,1010.907c1.76,0,3.187,1.428,3.187,3.188s-1.427,3.187-3.187,3.187h-23.85c-.438,0-.86-.093-1.24-.253-.025-.009-.043-.033-.067-.047-.367-.164-.697-.393-.972-.676-.013-.012-.029-.016-.042-.029-.114-.117-.16-.27-.249-.4-.139-.199-.291-.385-.38-.612-.089-.231-.109-.473-.144-.718-.025-.156-.093-.291-.093-.451,0-.018.009-.034.009-.051.004-.262.084-.511.151-.764.043-.148.047-.312.105-.452.056-.131.165-.236.241-.358.139-.232.274-.469.469-.658.013-.014.029-.043.029-.043l18.15-17.011c2.743-2.579,4.242-5.373,4.111-7.665-.089-1.604-.976-3.01-2.697-4.293-1.161-.857-2.815-1.312-4.766-1.312-3.761,0-6.703.641-8.855,3.77-.996,1.456-2.977,1.818-4.433.822-1.447-.996-1.814-2.979-.818-4.432,4.491-6.529,11.477-6.529,14.106-6.529,3.322,0,6.281.886,8.561,2.562,4.103,3.06,5.128,6.61,5.268,9.054.24,4.238-1.929,8.738-6.116,12.676l-12.274,11.507h15.79l.005-.009Z" fill="#ccc"/>
    <path d="M1408.095,994.589c2.347,2.731,2.283,5.327,2.229,7.416l-.017.959c0,3.9-1.232,7.365-3.381,9.518-1.841,1.837-4.373,3.184-6.948,3.698-1.984.397-12.723.925-15.969,1.072h-.151c-1.692,0-3.103-1.334-3.183-3.039-.08-1.756,1.274-3.246,3.035-3.331,6.517-.308,13.916-.746,15.019-.957,1.333-.271,2.747-1.018,3.688-1.959.701-.701,1.516-2.432,1.516-5.011l.017-1.118c.042-1.77.025-2.263-.684-3.09-.802-.925-1.465-1.102-3.039-1.17h-16.369c-1.752,0-3.175-1.409-3.187-3.161l-.127-16.087c-.004-.852.325-1.667.924-2.271.6-.604,1.414-.94,2.263-.94h21.865c1.76,0,3.187,1.426,3.187,3.186s-1.427,3.188-3.187,3.188h-18.652l.075,9.713h13.343c2.655.113,5.314.595,7.729,3.381l.005.004Z" fill="#ccc"/>
    <path d="M1446.847,989.583c0,1.845-.688,3.646-1.921,5.107,1.232,1.465,1.921,3.263,1.921,5.107v9.206c0,2.25-1.009,4.433-2.77,5.981-1.654,1.465-3.858,2.271-6.2,2.271h-12.241c-2.292,0-4.551-.828-6.196-2.271-1.79-1.578-2.773-3.702-2.773-5.981v-9.206c0-1.845.688-3.646,1.92-5.107-1.236-1.469-1.92-3.271-1.92-5.107v-6.205c0-2.25,1.009-4.432,2.769-5.98,1.659-1.47,3.862-2.275,6.201-2.275h12.241c2.3,0,4.559.827,6.2,2.271,1.79,1.583,2.77,3.706,2.77,5.981v6.209ZM1440.473,999.79c0-.423-.241-.87-.654-1.237l-.781-.685h-14.57l-.785.689c-.405.362-.646.81-.646,1.232v9.205c0,.436.207.836.612,1.195.485.426,1.229.684,1.983.684h12.241c.772,0,1.499-.245,1.984-.68.388-.338.616-.785.616-1.199v-9.205ZM1423.044,983.378v6.205c0,.422.24.873.658,1.25l.769.67h14.575l.789-.688c.401-.359.642-.811.642-1.232v-6.205c0-.439-.207-.844-.616-1.203-.481-.422-1.224-.68-1.983-.68h-12.241c-.772,0-1.494.25-1.979.68h-.005c-.384.338-.611.785-.611,1.199l.004.004Z" fill="#ccc"/>
    <path d="M1480.719,994.589c2.347,2.731,2.283,5.327,2.229,7.416l-.017.959c0,3.9-1.232,7.365-3.381,9.518-1.841,1.837-4.373,3.184-6.948,3.698-1.984.397-12.723.925-15.969,1.072h-.151c-1.692,0-3.103-1.334-3.183-3.039-.08-1.756,1.274-3.246,3.035-3.331,6.517-.308,13.916-.746,15.019-.957,1.333-.271,2.747-1.018,3.688-1.959.701-.701,1.516-2.432,1.516-5.011l.017-1.118c.042-1.77.025-2.263-.684-3.09-.802-.925-1.465-1.102-3.039-1.17h-16.369c-1.752,0-3.175-1.409-3.187-3.161l-.127-16.087c-.004-.852.325-1.667.924-2.271.6-.604,1.414-.94,2.263-.94h21.865c1.76,0,3.187,1.426,3.187,3.186s-1.427,3.188-3.187,3.188h-18.652l.075,9.713h13.343c2.655.113,5.314.595,7.729,3.381l.005.004Z" fill="#ccc"/>
    <path d="M1519.513,983.163v26.086c0,4.436-3.909,8.041-8.717,8.041h-12.79c-4.888,0-8.716-3.533-8.716-8.041v-26.086c0-4.437,3.908-8.041,8.716-8.041h12.79c4.808,0,8.717,3.604,8.717,8.041ZM1513.139,983.163c0-.92-1.051-1.672-2.343-1.672h-12.79c-1.342,0-2.342.883-2.342,1.672v26.086c0,.92,1.051,1.672,2.342,1.672h12.79c1.343,0,2.343-.883,2.343-1.672v-26.086Z" fill="#ccc"/>
  </g>
  <g>
    <path d="M333.925,1233.622c2.078,2.418,2.021,4.716,1.973,6.565l-.015.848c0,3.452-1.091,6.521-2.993,8.426-1.629,1.625-3.871,2.817-6.15,3.273-1.756.351-11.262.818-14.135.948h-.135c-1.498,0-2.746-1.181-2.817-2.689-.071-1.555,1.128-2.874,2.687-2.948,5.769-.272,12.319-.661,13.294-.849,1.181-.239,2.433-.9,3.266-1.733.62-.62,1.341-2.152,1.341-4.436l.015-.99c.037-1.565.022-2.002-.605-2.734-.71-.818-1.296-.976-2.69-1.035h-14.49c-1.55,0-2.81-1.248-2.821-2.799l-.112-14.239c-.003-.755.288-1.476.818-2.011.531-.534,1.252-.833,2.003-.833h19.354c1.558,0,2.821,1.263,2.821,2.821s-1.263,2.821-2.821,2.821h-16.511l.067,8.598h11.811c2.35.101,4.704.526,6.841,2.992l.003.004Z" fill="#ccc"/>
    <path d="M354.995,1252.949v.078c0,1.558-1.263,2.821-2.821,2.821s-2.821-1.264-2.821-2.821,1.263-2.862,2.821-2.862,2.821,1.226,2.821,2.784Z" fill="#ccc"/>
    <path d="M391.767,1233.63c1.226.31,2.13,1.416,2.13,2.734s-.904,2.426-2.13,2.735v11.8c0,1.558-1.263,2.821-2.821,2.821s-2.821-1.264-2.821-2.821v-11.718h-14.853c-1.102,0-2.104-.635-2.563-1.637-.463-1.001-.299-2.178.415-3.015l14.647-17.15c.534-.628,1.319-.99,2.145-.99h3.027c1.558,0,2.821,1.263,2.821,2.821v14.411l.004.008ZM386.121,1223.313l-8.732,10.227h8.732v-10.227Z" fill="#ccc"/>
  </g>
  <g>
    <path d="M217.905,1263.848c1.162.377,1.947,1.461,1.947,2.683v31.61c0,1.558-1.263,2.82-2.821,2.82s-2.821-1.263-2.821-2.82v-22.957l-5.474,7.507c-.531.729-1.379,1.158-2.279,1.158s-1.749-.434-2.279-1.162l-5.437-7.48v22.935c0,1.558-1.263,2.82-2.821,2.82s-2.821-1.263-2.821-2.82v-31.61c0-1.222.785-2.302,1.947-2.683,1.162-.378,2.433.037,3.154,1.023l8.257,11.366,8.291-11.366c.717-.99,1.992-1.401,3.154-1.021l.003-.003Z" fill="#ccc"/>
    <path d="M298.585,1270.755v23.092c0,3.927-3.46,7.117-7.716,7.117h-11.321c-4.327,0-7.716-3.127-7.716-7.117v-23.092c0-3.927,3.46-7.117,7.716-7.117h11.321c4.256,0,7.716,3.19,7.716,7.117ZM292.943,1270.755c0-.814-.93-1.479-2.074-1.479h-11.321c-1.188,0-2.074.781-2.074,1.479v23.092c0,.814.931,1.479,2.074,1.479h11.321c1.188,0,2.074-.781,2.074-1.479v-23.092Z" fill="#ccc"/>
    <path d="M317.681,1300.196v.078c0,1.559-1.263,2.821-2.821,2.821s-2.821-1.263-2.821-2.821,1.263-2.861,2.821-2.861,2.821,1.226,2.821,2.783Z" fill="#ccc"/>
    <path d="M353.176,1297.489c-3.314,3.311-11.52,3.479-13.13,3.479-1.558,0-2.821-1.263-2.821-2.817s1.259-2.824,2.817-2.824c3.464-.004,8.071-.755,9.143-1.827,1.382-1.383,2.223-4.227,2.702-7.384-2.029,1.035-4.488,1.626-7.357,1.626-8.262,0-13.396-4.618-13.396-12.05,0-5.829,3.52-12.054,13.396-12.054,9.628,0,13.186,5.914,13.357,11.612.015.09.06.168.067.258.108,1.651.893,16.306-4.779,21.981ZM352.279,1275.687c0-4.256-2.612-6.412-7.753-6.412-5.216,0-7.753,2.1-7.753,6.412,0,4.252,2.608,6.408,7.753,6.408s7.753-2.152,7.753-6.408Z" fill="#ccc"/>
    <path d="M398.263,1270.755v23.092c0,3.927-3.46,7.117-7.716,7.117h-11.321c-4.327,0-7.716-3.127-7.716-7.117v-23.092c0-3.927,3.46-7.117,7.716-7.117h11.321c4.256,0,7.716,3.19,7.716,7.117ZM392.621,1270.755c0-.814-.93-1.479-2.074-1.479h-11.321c-1.188,0-2.074.781-2.074,1.479v23.092c0,.814.931,1.479,2.074,1.479h11.321c1.188,0,2.074-.781,2.074-1.479v-23.092Z" fill="#ccc"/>
  </g>
  <g>
    <path d="M218.911,1328.155l.112,8.931c0,2.656-1.073,5.205-2.944,7.028-1.771,1.719-4.219,2.705-6.714,2.705h-6.8c-2.13,0-4.222-.714-5.885-2.018l-.609-.464c-2.388-1.805-3.763-4.588-3.763-7.626v-17.001c0-2.988,1.413-5.844,3.774-7.629l.628-.479c1.636-1.281,3.725-1.999,5.855-1.999h7.473c1.887,0,3.733.564,5.335,1.633l2.246,1.498c1.297.867,1.644,2.615.781,3.912-.863,1.301-2.612,1.645-3.912.781l-2.242-1.499c-.673-.448-1.435-.684-2.208-.684h-7.473c-.89,0-1.719.284-2.41.822l-.665.508c-.972.729-1.543,1.902-1.543,3.135v17.001c0,1.256.557,2.396,1.532,3.132l.646.493c.713.56,1.547.844,2.436.844h6.8c1.042,0,2.055-.407,2.78-1.109.796-.773,1.237-1.819,1.237-2.944l-.079-6.109h-6.445c-1.558,0-2.821-1.263-2.821-2.82s1.263-2.821,2.821-2.821h9.229c1.543,0,2.802,1.24,2.821,2.783l.007-.004Z" fill="#ccc"/>
    <path d="M310.153,1341.254c1.476.094,2.653,1.289,2.653,2.787,0,1.559-1.263,2.821-2.821,2.821h-5.268c-1.558,0-2.821-1.263-2.821-2.821,0-1.487,1.159-2.668,2.616-2.779v-25.296c-.459-.213-.878-.523-1.177-.979-.855-1.301-.497-3.053.804-3.909l1.644-1.083c.071-.049.157-.053.231-.094.165-.09.333-.153.516-.209.19-.06.37-.101.564-.116.082-.007.153-.048.239-.048.094,0,.172.044.266.052.194.019.381.057.568.116.172.056.329.119.482.201.157.083.299.18.441.296.153.123.28.258.403.407.06.074.142.115.194.197.049.071.052.157.094.232.089.164.153.336.209.52.056.187.097.365.112.557.007.086.048.156.048.242v28.901l.004.004Z" fill="#ccc"/>
    <path d="M331.898,1346.087v.078c0,1.559-1.263,2.821-2.821,2.821s-2.821-1.263-2.821-2.821,1.263-2.861,2.821-2.861,2.821,1.226,2.821,2.783Z" fill="#ccc"/>
    <path d="M395.399,1316.645v23.092c0,3.927-3.46,7.117-7.716,7.117h-11.321c-4.327,0-7.716-3.127-7.716-7.117v-23.092c0-3.927,3.46-7.117,7.716-7.117h11.321c4.256,0,7.716,3.19,7.716,7.117ZM389.757,1316.645c0-.814-.93-1.479-2.074-1.479h-11.321c-1.188,0-2.074.781-2.074,1.479v23.092c0,.814.931,1.479,2.074,1.479h11.321c1.188,0,2.074-.781,2.074-1.479v-23.092Z" fill="#ccc"/>
  </g>
  <g>
    <path d="M300.517,1366.882c8.146,0,13.619,4.843,13.619,12.05,0,7.1-5.601,12.054-13.619,12.054s-13.134-4.73-13.134-12.054c0-.172.042-.321.045-.489-.007-.078-.045-.142-.045-.221,0-3.878,3.464-11.777,6.812-17.18,2.242-3.624,3.733-5.111,5.044-6.423,1.102-1.103,2.94-1.154,4.043-.053,1.102,1.103,1.154,2.84.052,3.938l-.105.104c-1.203,1.199-2.335,2.335-4.237,5.403-.662,1.061-1.259,2.137-1.824,3.205,1.058-.201,2.16-.34,3.348-.34v.004ZM308.494,1378.928c0-5.783-5.578-6.407-7.977-6.407-3.419,0-7.492,1.113-7.492,6.407,0,4.137,2.661,6.412,7.492,6.412,4.921,0,7.977-2.455,7.977-6.412Z" fill="#ccc"/>
    <path d="M333.233,1390.248v.078c0,1.558-1.263,2.821-2.821,2.821s-2.821-1.264-2.821-2.821,1.263-2.862,2.821-2.862,2.821,1.226,2.821,2.784Z" fill="#ccc"/>
    <path d="M392.023,1387.541c-3.314,3.31-11.52,3.479-13.13,3.479-1.558,0-2.821-1.264-2.821-2.817s1.259-2.825,2.817-2.825c3.464-.004,8.071-.755,9.143-1.827,1.382-1.382,2.223-4.226,2.702-7.383-2.029,1.035-4.488,1.625-7.357,1.625-8.262,0-13.396-4.618-13.396-12.05,0-5.829,3.52-12.054,13.396-12.054,9.628,0,13.186,5.915,13.357,11.613.015.089.06.168.067.258.108,1.651.893,16.306-4.779,21.981ZM391.126,1365.738c0-4.256-2.612-6.411-7.753-6.411-5.216,0-7.753,2.1-7.753,6.411,0,4.252,2.608,6.408,7.753,6.408s7.753-2.152,7.753-6.408Z" fill="#ccc"/>
  </g>
  <g>
    <path d="M446.11,1443.631c1.392,0,2.519,1.128,2.519,2.52s-1.127,2.519-2.519,2.519h-6.889v25.706c0,1.392-1.128,2.52-2.519,2.52s-2.519-1.128-2.519-2.52v-25.706h-6.89c-1.391,0-2.519-1.128-2.519-2.519s1.127-2.52,2.519-2.52h18.817Z" fill="#ccc"/>
    <path d="M477.474,1446.15v23.521c0,.667-.264,1.308-.737,1.778l-4.701,4.704c-.98.987-2.569.984-3.556.01l-2.93-2.909-2.929,2.909c-.49.487-1.134.731-1.775.731s-1.291-.247-1.781-.737l-4.705-4.704c-.474-.471-.737-1.115-.737-1.782v-23.521c0-1.392,1.128-2.52,2.519-2.52s2.519,1.128,2.519,2.52v22.477l2.192,2.191,2.179-2.165v-6.021c0-1.392,1.127-2.52,2.519-2.52s2.519,1.128,2.519,2.52v6.021l2.179,2.165,2.188-2.191v-22.477c0-1.392,1.128-2.52,2.519-2.52s2.519,1.128,2.519,2.52Z" fill="#ccc"/>
    <path d="M503.856,1460.316c1.615,1.618,2.505,3.763,2.505,6.052v1.534c0,2.656-1.271,5.202-3.403,6.813l-.754.54c-1.451,1.067-3.263,1.672-5.071,1.672h-5.572c-1.675,0-3.306-.49-4.718-1.418l-2.015-1.338c-1.161-.774-1.471-2.336-.704-3.493.774-1.161,2.335-1.468,3.493-.704l2.005,1.331c.567.377,1.261.584,1.942.584h5.571c.741,0,1.488-.25,2.109-.711l.73-.523c.824-.62,1.348-1.668,1.348-2.753v-1.534c0-.94-.37-1.821-1.034-2.489-.664-.667-1.548-1.034-2.485-1.034h-6.773c-2.285,0-4.437-.891-6.052-2.502-1.615-1.621-2.506-3.771-2.506-6.052v-2.069c0-2.285.891-4.434,2.506-6.052,1.615-1.614,3.763-2.506,6.052-2.506h6.272c1.698,0,3.336.491,4.734,1.422l2.001,1.338c1.158.771,1.468,2.339.697,3.493-.771,1.154-2.329,1.478-3.493.693l-2.001-1.334c-.567-.377-1.238-.577-1.938-.577h-6.272c-.94,0-1.828.367-2.489,1.03-.667.668-1.034,1.555-1.034,2.492v2.069c0,.938.37,1.824,1.034,2.492.661.664,1.548,1.027,2.489,1.027h6.773c2.282,0,4.431.891,6.049,2.506h.003Z" fill="#ccc"/>
    <path d="M533.761,1451.595c.984,1.194,1.535,2.713,1.535,4.264v18.517c0,1.392-1.128,2.52-2.519,2.52s-2.519-1.128-2.519-2.52v-11.594h-13.846v11.594c0,1.392-1.127,2.52-2.519,2.52s-2.519-1.128-2.519-2.52v-18.517c0-1.521.523-2.982,1.511-4.233l4.23-5.168c3.013-3.606,9.455-3.587,12.428-.017l4.22,5.154h-.003ZM516.419,1457.74h13.849v-1.885c0-.387-.137-.754-.391-1.061l-4.214-5.148c-1.011-1.211-3.616-1.231-4.657.021l-4.187,5.121c-.357.443-.4.827-.4,1.07v1.882Z" fill="#ccc"/>
  </g>
  <g>
    <path d="M445.823,1489.747c1.628,2.006,2.539,4.581,2.539,7.23v10.105c0,2.643-.881,5.145-2.549,7.239-2.255,2.776-5.548,4.357-9.045,4.357h-9.775c-1.391,0-2.519-1.128-2.519-2.519v-28.226c0-1.392,1.128-2.552,2.519-2.552h9.775c3.523,0,6.91,1.631,9.055,4.367v-.004ZM443.324,1496.98c0-1.495-.51-2.946-1.438-4.087-1.225-1.562-3.126-2.473-5.118-2.473h-7.256v23.225h7.256c1.945,0,3.86-.924,5.118-2.476.934-1.175,1.438-2.596,1.438-4.084v-10.105Z" fill="#ccc"/>
    <path d="M474.742,1513.604c1.391,0,2.519,1.129,2.519,2.52s-1.128,2.52-2.519,2.52h-18.85c-1.391,0-2.519-1.129-2.519-2.52v-28.225c0-1.392,1.128-2.52,2.519-2.52h18.85c1.391,0,2.519,1.128,2.519,2.52s-1.128,2.519-2.519,2.519h-16.331v9.078h12.794c1.392,0,2.519,1.128,2.519,2.519s-1.127,2.52-2.519,2.52h-12.794v9.074h16.331v-.004Z" fill="#ccc"/>
    <path d="M503.655,1502.068c1.615,1.618,2.505,3.763,2.505,6.052v1.535c0,2.655-1.271,5.201-3.403,6.812l-.754.541c-1.451,1.066-3.263,1.671-5.071,1.671h-5.572c-1.675,0-3.306-.49-4.718-1.418l-2.015-1.338c-1.161-.774-1.471-2.335-.704-3.493.774-1.161,2.335-1.468,3.493-.703l2.005,1.33c.567.377,1.261.584,1.942.584h5.571c.741,0,1.488-.25,2.109-.711l.73-.523c.824-.62,1.348-1.668,1.348-2.752v-1.535c0-.94-.37-1.821-1.034-2.488-.664-.668-1.548-1.035-2.485-1.035h-6.773c-2.285,0-4.437-.891-6.052-2.502-1.615-1.621-2.506-3.77-2.506-6.052v-2.069c0-2.285.891-4.434,2.506-6.051,1.615-1.615,3.763-2.506,6.052-2.506h6.272c1.698,0,3.336.49,4.734,1.421l2.001,1.338c1.158.771,1.468,2.339.697,3.493-.771,1.154-2.329,1.479-3.493.693l-2.001-1.334c-.567-.377-1.238-.577-1.938-.577h-6.272c-.94,0-1.828.367-2.489,1.03-.667.668-1.034,1.555-1.034,2.492v2.069c0,.938.37,1.825,1.034,2.492.661.664,1.548,1.027,2.489,1.027h6.773c2.282,0,4.431.892,6.049,2.506h.003Z" fill="#ccc"/>
    <path d="M532.509,1485.384c1.392,0,2.519,1.127,2.519,2.519s-1.127,2.519-2.519,2.519h-6.889v25.707c0,1.391-1.128,2.519-2.519,2.519s-2.519-1.128-2.519-2.519v-25.707h-6.89c-1.391,0-2.519-1.127-2.519-2.519s1.127-2.519,2.519-2.519h18.817Z" fill="#ccc"/>
  </g>
  <g>
    <path d="M180.476,1443.632c1.392,0,2.519,1.128,2.519,2.519s-1.127,2.52-2.519,2.52h-6.889v25.706c0,1.391-1.128,2.519-2.519,2.519s-2.519-1.128-2.519-2.519v-25.706h-6.89c-1.391,0-2.519-1.128-2.519-2.52s1.127-2.519,2.519-2.519h18.817Z" fill="#ccc"/>
    <path d="M207.967,1469.955c1.174-.744,2.729-.407,3.48.768.75,1.174.407,2.729-.768,3.479l-1.935,1.234c-1.595.984-3.356,1.495-5.125,1.495h-6.172c-2.102,0-4.157-.697-5.785-1.969-2.292-1.752-3.673-4.558-3.673-7.49v-14.35c0-2.933,1.378-5.738,3.69-7.503,1.611-1.255,3.667-1.952,5.769-1.952h6.172c1.842,0,3.62.521,5.142,1.505l1.921,1.225c1.171.751,1.515,2.306.768,3.479-.751,1.168-2.306,1.515-3.48.768l-1.935-1.234c-.717-.467-1.548-.707-2.416-.707h-6.172c-.984,0-1.942.32-2.689.904-1.091.834-1.731,2.145-1.731,3.516v14.35c0,1.371.641,2.683,1.715,3.503.768.595,1.725.918,2.709.918h6.172c.834,0,1.678-.25,2.446-.728l1.905-1.214-.007.003Z" fill="#ccc"/>
    <path d="M240.693,1446.15v28.226c0,1.11-.728,2.088-1.789,2.412-.244.07-.487.106-.73.106-.828,0-1.618-.407-2.095-1.121l-14.203-21.302v19.904c0,1.391-1.128,2.519-2.519,2.519s-2.519-1.128-2.519-2.519v-28.226c0-1.111.728-2.089,1.789-2.412,1.054-.32,2.208.09,2.826,1.015l14.203,21.302v-19.904c0-1.391,1.128-2.519,2.519-2.519s2.519,1.128,2.519,2.519Z" fill="#ccc"/>
    <path d="M322.37,1459.187c1.548,1.548,2.402,3.603,2.402,5.781v2.369c0,3.029-1.441,5.905-3.854,7.697-1.631,1.234-3.623,1.895-5.738,1.895h-2.102c-1.912,0-7.593-1.061-9.602-2.068l-1.147-.54c-1.258-.595-1.795-2.096-1.201-3.354.594-1.261,2.092-1.792,3.353-1.201l1.201.567c1.114.557,5.922,1.562,7.4,1.562h2.102c1.007,0,1.945-.311,2.716-.891,1.171-.874,1.835-2.206,1.835-3.667v-2.369c0-.834-.331-1.621-.931-2.222l-.404-.403c-.48-.484-1.144-.761-1.818-.761h-4.971c-.971,0-1.858-.561-2.275-1.441s-.291-1.919.327-2.673l7.247-8.867h-10.002c-1.392,0-2.519-1.128-2.519-2.52s1.127-2.519,2.519-2.519h15.313c.971,0,1.858.561,2.275,1.441.417.877.29,1.918-.327,2.672l-7.253,8.875c1.885.083,3.71.888,5.051,2.229l.403.403v.004Z" fill="#ccc"/>
    <path d="M351.561,1458.95c1.855,2.159,1.805,4.211,1.762,5.862l-.014.757c0,3.083-.974,5.822-2.672,7.523-1.455,1.451-3.457,2.516-5.492,2.923-1.568.313-10.056.73-12.621.848h-.12c-1.338,0-2.452-1.055-2.516-2.402-.063-1.388,1.008-2.565,2.399-2.633,5.151-.243,11-.59,11.871-.757,1.054-.214,2.172-.804,2.916-1.548.554-.554,1.198-1.922,1.198-3.961l.013-.884c.033-1.397.02-1.788-.541-2.442-.634-.73-1.158-.87-2.402-.924h-12.938c-1.385,0-2.509-1.114-2.519-2.499l-.1-12.715c-.003-.674.257-1.317.731-1.795.474-.477,1.118-.744,1.788-.744h17.282c1.391,0,2.519,1.128,2.519,2.52s-1.128,2.519-2.519,2.519h-14.743l.06,7.677h10.546c2.099.091,4.201.471,6.109,2.673l.003.003Z" fill="#ccc"/>
    <path d="M363.372,1476.207v.07c0,1.392-1.128,2.52-2.519,2.52s-2.519-1.128-2.519-2.52,1.128-2.556,2.519-2.556,2.519,1.095,2.519,2.485Z" fill="#ccc"/>
    <path d="M389.753,1471.848c1.391,0,2.519,1.128,2.519,2.519s-1.127,2.52-2.519,2.52h-18.85c-.347,0-.681-.073-.981-.2-.02-.007-.034-.027-.054-.037-.29-.13-.55-.311-.767-.533-.01-.011-.023-.014-.033-.023-.09-.094-.127-.214-.197-.317-.11-.157-.23-.304-.3-.483-.07-.184-.086-.374-.113-.567-.02-.124-.073-.23-.073-.357,0-.013.006-.026.006-.04.003-.206.067-.403.12-.604.034-.117.037-.247.083-.357.043-.103.13-.187.19-.283.11-.184.217-.37.37-.521.01-.01.023-.033.023-.033l14.346-13.445c2.168-2.039,3.353-4.247,3.25-6.059-.07-1.269-.771-2.379-2.132-3.394-.917-.677-2.226-1.037-3.767-1.037-2.973,0-5.298.507-7,2.979-.788,1.15-2.353,1.438-3.503.65-1.145-.787-1.435-2.355-.647-3.503,3.55-5.162,9.071-5.162,11.15-5.162,2.625,0,4.964.701,6.766,2.025,3.243,2.419,4.053,5.225,4.164,7.156.19,3.35-1.525,6.906-4.834,10.02l-9.702,9.095h12.481l.003-.007Z" fill="#ccc"/>
  </g>
  <g>
    <path d="M1398.449,1491.265v23.521c0,.667-.264,1.308-.737,1.778l-4.701,4.704c-.98.987-2.569.984-3.557.01l-2.93-2.909-2.929,2.909c-.49.487-1.135.731-1.775.731s-1.291-.247-1.781-.737l-4.704-4.704c-.474-.471-.737-1.115-.737-1.782v-23.521c0-1.392,1.128-2.52,2.519-2.52s2.52,1.128,2.52,2.52v22.477l2.191,2.191,2.179-2.165v-6.021c0-1.392,1.128-2.52,2.519-2.52s2.52,1.128,2.52,2.52v6.021l2.179,2.165,2.188-2.191v-22.477c0-1.392,1.128-2.52,2.519-2.52s2.52,1.128,2.52,2.52Z" fill="#ccc"/>
    <path d="M1425.401,1490.654c1.225,1.225,1.901,2.866,1.901,4.618v6.072c0,1.725-.694,3.406-1.901,4.617-1.231,1.228-2.873,1.905-4.618,1.905h-12.297v11.623c0,1.392-1.128,2.52-2.52,2.52s-2.519-1.128-2.519-2.52v-28.225c0-1.392,1.128-2.52,2.519-2.52h14.813c1.725,0,3.406.694,4.617,1.905l.004.003ZM1422.264,1495.265c0-.417-.144-.771-.427-1.051-.271-.273-.664-.434-1.055-.434h-12.297v9.044h12.297c.414,0,.765-.146,1.052-.434.27-.267.43-.66.43-1.051v-6.075Z" fill="#ccc"/>
  </g>
  <path d="M1395.56,1560.974c1.391,0,2.519,1.128,2.519,2.52s-1.128,2.519-2.519,2.519h-18.82c-.928,0-1.782-.511-2.223-1.328-.437-.82-.387-1.814.127-2.585l6.796-10.196h-1.164c-1.391,0-2.519-1.128-2.519-2.519s1.128-2.52,2.519-2.52h4.521l6.053-9.077h-14.109c-1.392,0-2.52-1.128-2.52-2.52s1.128-2.519,2.52-2.519h18.82c.927,0,1.781.51,2.222,1.327.437.818.387,1.812-.127,2.586l-6.799,10.199h1.164c1.391,0,2.519,1.128,2.519,2.519s-1.128,2.52-2.519,2.52h-4.524l-6.049,9.074h14.113Z" fill="#ccc"/>
  <g>
    <path d="M1337.858,1576.753c1.392,0,2.52,1.128,2.52,2.519s-1.128,2.52-2.52,2.52h-6.889v25.706c0,1.391-1.128,2.519-2.52,2.519s-2.519-1.128-2.519-2.519v-25.706h-6.89c-1.392,0-2.519-1.128-2.519-2.52s1.127-2.519,2.519-2.519h18.816Z" fill="#ccc"/>
    <path d="M1366.707,1576.753c1.392,0,2.52,1.128,2.52,2.519s-1.128,2.52-2.52,2.52h-6.889v25.706c0,1.391-1.128,2.519-2.52,2.519s-2.519-1.128-2.519-2.519v-25.706h-6.89c-1.392,0-2.519-1.128-2.519-2.52s1.127-2.519,2.519-2.519h18.816Z" fill="#ccc"/>
    <path d="M1397.975,1593.317l.101,7.974c0,2.372-.958,4.647-2.63,6.275-1.581,1.535-3.767,2.416-5.995,2.416h-6.072c-1.901,0-3.77-.638-5.254-1.802l-.544-.414c-2.132-1.611-3.36-4.097-3.36-6.809v-15.181c0-2.669,1.262-5.218,3.37-6.812l.561-.427c1.461-1.145,3.326-1.785,5.228-1.785h6.673c1.685,0,3.333.504,4.765,1.458l2.005,1.338c1.157.773,1.468,2.335.697,3.493-.771,1.161-2.332,1.468-3.493.697l-2.002-1.338c-.601-.4-1.281-.61-1.972-.61h-6.673c-.794,0-1.534.253-2.151.733l-.594.454c-.868.65-1.378,1.698-1.378,2.799v15.181c0,1.121.497,2.139,1.367,2.796l.577.44c.638.5,1.382.754,2.176.754h6.072c.931,0,1.835-.364,2.482-.991.71-.69,1.104-1.625,1.104-2.629l-.069-5.455h-5.756c-1.391,0-2.519-1.128-2.519-2.519s1.128-2.52,2.519-2.52h8.241c1.378,0,2.502,1.108,2.519,2.486l.007-.004Z" fill="#ccc"/>
  </g>
  <g>
    <path d="M1337.79,1648.977c1.392,0,2.52,1.128,2.52,2.519s-1.128,2.52-2.52,2.52h-18.85c-1.392,0-2.52-1.128-2.52-2.52v-28.225c0-1.392,1.128-2.52,2.52-2.52h18.85c1.392,0,2.52,1.128,2.52,2.52s-1.128,2.519-2.52,2.519h-16.331v9.078h12.795c1.392,0,2.519,1.128,2.519,2.519s-1.127,2.52-2.519,2.52h-12.795v9.074h16.331v-.003Z" fill="#ccc"/>
    <path d="M1366.658,1620.756c1.392,0,2.519,1.128,2.519,2.519s-1.127,2.52-2.519,2.52h-6.89v25.706c0,1.391-1.128,2.519-2.519,2.519s-2.52-1.128-2.52-2.519v-25.706h-6.89c-1.391,0-2.519-1.128-2.519-2.52s1.128-2.519,2.519-2.519h18.817Z" fill="#ccc"/>
    <path d="M1396.559,1628.72c.984,1.194,1.535,2.712,1.535,4.264v18.517c0,1.391-1.128,2.519-2.52,2.519s-2.519-1.128-2.519-2.519v-11.594h-13.846v11.594c0,1.391-1.128,2.519-2.52,2.519s-2.519-1.128-2.519-2.519v-18.517c0-1.521.523-2.982,1.512-4.234l4.23-5.168c3.013-3.606,9.455-3.586,12.428-.017l4.22,5.155h-.003ZM1379.217,1634.865h13.849v-1.886c0-.387-.137-.754-.391-1.061l-4.214-5.147c-1.011-1.212-3.616-1.231-4.657.02l-4.187,5.121c-.357.444-.4.827-.4,1.071v1.882Z" fill="#ccc"/>
  </g>
  <g>
    <path d="M1443.529,1583.41v20.618c0,3.507-3.089,6.355-6.889,6.355h-10.109c-3.863,0-6.89-2.792-6.89-6.355v-20.618c0-3.507,3.09-6.355,6.89-6.355h10.109c3.8,0,6.889,2.849,6.889,6.355ZM1438.492,1583.41c0-.728-.831-1.321-1.852-1.321h-10.109c-1.061,0-1.852.697-1.852,1.321v20.618c0,.728.831,1.321,1.852,1.321h10.109c1.061,0,1.852-.697,1.852-1.321v-20.618Z" fill="#ccc"/>
    <path d="M1472.429,1583.41v20.618c0,3.507-3.089,6.355-6.889,6.355h-10.109c-3.863,0-6.89-2.792-6.89-6.355v-20.618c0-3.507,3.09-6.355,6.89-6.355h10.109c3.8,0,6.889,2.849,6.889,6.355ZM1467.392,1583.41c0-.728-.831-1.321-1.852-1.321h-10.109c-1.061,0-1.852.697-1.852,1.321v20.618c0,.728.831,1.321,1.852,1.321h10.109c1.061,0,1.852-.697,1.852-1.321v-20.618Z" fill="#ccc"/>
    <path d="M1496.277,1590.885v.033c0,1.392-1.128,2.52-2.519,2.52s-2.52-1.128-2.52-2.52,1.128-2.535,2.52-2.535,2.519,1.111,2.519,2.502ZM1496.277,1603.797v.033c0,1.391-1.128,2.519-2.519,2.519s-2.52-1.128-2.52-2.519,1.128-2.536,2.52-2.536,2.519,1.111,2.519,2.503Z" fill="#ccc"/>
    <path d="M1538.976,1583.41v20.618c0,3.507-3.089,6.355-6.889,6.355h-10.109c-3.863,0-6.89-2.792-6.89-6.355v-20.618c0-3.507,3.09-6.355,6.89-6.355h10.109c3.8,0,6.889,2.849,6.889,6.355ZM1533.939,1583.41c0-.728-.831-1.321-1.852-1.321h-10.109c-1.061,0-1.852.697-1.852,1.321v20.618c0,.728.831,1.321,1.852,1.321h10.109c1.061,0,1.852-.697,1.852-1.321v-20.618Z" fill="#ccc"/>
    <path d="M1565.473,1592.678c1.548,1.548,2.402,3.603,2.402,5.781v2.369c0,3.029-1.441,5.905-3.854,7.696-1.632,1.234-3.624,1.896-5.739,1.896h-2.102c-1.912,0-7.594-1.062-9.602-2.068l-1.148-.541c-1.257-.594-1.795-2.095-1.2-3.353.594-1.262,2.092-1.792,3.353-1.201l1.201.567c1.114.557,5.922,1.562,7.399,1.562h2.103c1.008,0,1.945-.311,2.716-.892,1.171-.874,1.835-2.205,1.835-3.666v-2.369c0-.834-.33-1.621-.931-2.222l-.404-.404c-.48-.483-1.145-.761-1.818-.761h-4.971c-.971,0-1.858-.56-2.275-1.44s-.29-1.919.327-2.673l7.246-8.868h-10.002c-1.392,0-2.52-1.127-2.52-2.519s1.128-2.519,2.52-2.519h15.313c.971,0,1.858.561,2.275,1.44.417.878.29,1.919-.327,2.673l-7.253,8.875c1.885.083,3.71.887,5.051,2.229l.404.403v.004Z" fill="#ccc"/>
    <path d="M1591.725,1590.885v.033c0,1.392-1.128,2.52-2.519,2.52s-2.52-1.128-2.52-2.52,1.128-2.535,2.52-2.535,2.519,1.111,2.519,2.502ZM1591.725,1603.797v.033c0,1.391-1.128,2.519-2.519,2.519s-2.52-1.128-2.52-2.519,1.128-2.536,2.52-2.536,2.519,1.111,2.519,2.503Z" fill="#ccc"/>
    <path d="M1631.357,1592.448c1.094.276,1.901,1.265,1.901,2.442s-.808,2.165-1.901,2.441v10.536c0,1.392-1.128,2.52-2.519,2.52s-2.52-1.128-2.52-2.52v-10.462h-13.262c-.984,0-1.878-.567-2.289-1.462-.413-.894-.267-1.945.371-2.692l13.078-15.313c.477-.561,1.178-.884,1.915-.884h2.702c1.392,0,2.52,1.127,2.52,2.519v12.868l.003.007ZM1626.316,1583.236l-7.797,9.132h7.797v-9.132Z" fill="#ccc"/>
    <path d="M1659.604,1605.34c1.392,0,2.52,1.127,2.52,2.519s-1.128,2.519-2.52,2.519h-18.85c-.348,0-.681-.073-.981-.2-.02-.006-.033-.026-.053-.036-.291-.13-.551-.311-.768-.534-.01-.01-.023-.013-.033-.023-.09-.093-.127-.213-.197-.316-.11-.157-.23-.304-.3-.484-.07-.183-.087-.373-.113-.566-.021-.124-.074-.23-.074-.357,0-.014.007-.026.007-.04.004-.207.067-.403.12-.604.033-.117.037-.247.084-.357.043-.104.13-.187.189-.283.11-.184.217-.37.371-.521.01-.01.023-.033.023-.033l14.346-13.445c2.169-2.039,3.353-4.247,3.25-6.06-.07-1.268-.771-2.378-2.133-3.393-.917-.678-2.225-1.037-3.767-1.037-2.973,0-5.298.507-6.999,2.979-.787,1.151-2.353,1.438-3.503.651-1.145-.788-1.435-2.355-.647-3.504,3.55-5.161,9.071-5.161,11.149-5.161,2.626,0,4.965.701,6.767,2.025,3.242,2.419,4.054,5.225,4.163,7.156.19,3.35-1.524,6.906-4.834,10.019l-9.702,9.096h12.481l.003-.007Z" fill="#ccc"/>
  </g>
  <g>
    <path d="M1443.117,1627.043v20.618c0,3.507-3.089,6.355-6.889,6.355h-10.109c-3.863,0-6.89-2.792-6.89-6.355v-20.618c0-3.507,3.09-6.355,6.89-6.355h10.109c3.8,0,6.889,2.849,6.889,6.355ZM1438.08,1627.043c0-.728-.831-1.321-1.852-1.321h-10.109c-1.061,0-1.852.697-1.852,1.321v20.618c0,.728.831,1.321,1.852,1.321h10.109c1.061,0,1.852-.697,1.852-1.321v-20.618Z" fill="#ccc"/>
    <path d="M1469.498,1648.972c1.392,0,2.52,1.127,2.52,2.519s-1.128,2.519-2.52,2.519h-18.85c-.348,0-.681-.073-.981-.2-.02-.006-.033-.026-.053-.036-.291-.13-.551-.311-.768-.534-.01-.01-.023-.013-.033-.023-.09-.093-.127-.213-.197-.316-.11-.157-.23-.304-.3-.484-.07-.183-.087-.373-.113-.566-.021-.124-.074-.23-.074-.357,0-.014.007-.026.007-.04.004-.207.067-.403.12-.604.033-.117.037-.247.084-.357.043-.104.13-.187.189-.283.11-.184.217-.37.371-.521.01-.01.022-.033.022-.033l14.347-13.445c2.169-2.039,3.353-4.247,3.25-6.06-.07-1.268-.771-2.378-2.133-3.393-.917-.678-2.225-1.037-3.767-1.037-2.973,0-5.298.507-6.999,2.979-.787,1.151-2.353,1.438-3.503.651-1.145-.788-1.435-2.355-.647-3.504,3.55-5.161,9.071-5.161,11.149-5.161,2.626,0,4.965.701,6.767,2.025,3.243,2.419,4.054,5.225,4.163,7.156.19,3.35-1.524,6.906-4.834,10.019l-9.702,9.096h12.481l.003-.007Z" fill="#ccc"/>
    <path d="M1495.865,1634.517v.033c0,1.392-1.128,2.52-2.519,2.52s-2.52-1.128-2.52-2.52,1.128-2.535,2.52-2.535,2.519,1.111,2.519,2.502ZM1495.865,1647.429v.033c0,1.391-1.128,2.519-2.519,2.519s-2.52-1.128-2.52-2.519,1.128-2.536,2.52-2.536,2.519,1.111,2.519,2.503Z" fill="#ccc"/>
    <path d="M1538.565,1627.043v20.618c0,3.507-3.089,6.355-6.889,6.355h-10.109c-3.863,0-6.89-2.792-6.89-6.355v-20.618c0-3.507,3.09-6.355,6.89-6.355h10.109c3.8,0,6.889,2.849,6.889,6.355ZM1533.527,1627.043c0-.728-.831-1.321-1.852-1.321h-10.109c-1.061,0-1.852.697-1.852,1.321v20.618c0,.728.831,1.321,1.852,1.321h10.109c1.061,0,1.852-.697,1.852-1.321v-20.618Z" fill="#ccc"/>
    <path d="M1555.303,1632.468c7.272,0,12.16,4.323,12.16,10.76,0,6.339-5.001,10.763-12.16,10.763s-11.728-4.224-11.728-10.763c0-.153.037-.287.04-.438-.007-.07-.04-.127-.04-.196,0-3.464,3.093-10.517,6.082-15.341,2.002-3.236,3.333-4.564,4.504-5.735.984-.984,2.626-1.03,3.61-.047.984.984,1.031,2.536.047,3.517l-.094.094c-1.074,1.071-2.085,2.085-3.783,4.824-.591.947-1.124,1.908-1.628,2.862.943-.18,1.928-.304,2.989-.304v.004ZM1562.426,1643.223c0-5.164-4.981-5.722-7.123-5.722-3.053,0-6.689.994-6.689,5.722,0,3.693,2.375,5.726,6.689,5.726,4.394,0,7.123-2.192,7.123-5.726Z" fill="#ccc"/>
    <path d="M1591.313,1634.517v.033c0,1.392-1.128,2.52-2.519,2.52s-2.52-1.128-2.52-2.52,1.128-2.535,2.52-2.535,2.519,1.111,2.519,2.502ZM1591.313,1647.429v.033c0,1.391-1.128,2.519-2.519,2.519s-2.52-1.128-2.52-2.519,1.128-2.536,2.52-2.536,2.519,1.111,2.519,2.503Z" fill="#ccc"/>
    <path d="M1634.011,1627.043v20.618c0,3.507-3.089,6.355-6.889,6.355h-10.109c-3.863,0-6.89-2.792-6.89-6.355v-20.618c0-3.507,3.09-6.355,6.89-6.355h10.109c3.8,0,6.889,2.849,6.889,6.355ZM1628.974,1627.043c0-.728-.831-1.321-1.852-1.321h-10.109c-1.061,0-1.852.697-1.852,1.321v20.618c0,.728.831,1.321,1.852,1.321h10.109c1.061,0,1.852-.697,1.852-1.321v-20.618Z" fill="#ccc"/>
    <path d="M1660.392,1648.972c1.392,0,2.52,1.127,2.52,2.519s-1.128,2.519-2.52,2.519h-18.85c-.348,0-.681-.073-.981-.2-.02-.006-.033-.026-.053-.036-.291-.13-.551-.311-.768-.534-.01-.01-.023-.013-.033-.023-.09-.093-.127-.213-.197-.316-.11-.157-.23-.304-.3-.484-.07-.183-.087-.373-.113-.566-.021-.124-.074-.23-.074-.357,0-.014.007-.026.007-.04.004-.207.067-.403.12-.604.033-.117.037-.247.084-.357.043-.104.13-.187.189-.283.11-.184.217-.37.371-.521.01-.01.023-.033.023-.033l14.346-13.445c2.169-2.039,3.353-4.247,3.25-6.06-.07-1.268-.771-2.378-2.133-3.393-.917-.678-2.225-1.037-3.767-1.037-2.973,0-5.298.507-6.999,2.979-.787,1.151-2.353,1.438-3.503.651-1.145-.788-1.435-2.355-.647-3.504,3.55-5.161,9.071-5.161,11.149-5.161,2.626,0,4.965.701,6.767,2.025,3.242,2.419,4.054,5.225,4.163,7.156.19,3.35-1.524,6.906-4.834,10.019l-9.702,9.096h12.481l.003-.007Z" fill="#ccc"/>
  </g>
  <g>
    <path d="M1444.203,1539.778v20.618c0,3.507-3.089,6.355-6.889,6.355h-10.109c-3.863,0-6.89-2.792-6.89-6.355v-20.618c0-3.507,3.09-6.355,6.89-6.355h10.109c3.8,0,6.889,2.849,6.889,6.355ZM1439.166,1539.778c0-.728-.831-1.321-1.852-1.321h-10.109c-1.061,0-1.852.697-1.852,1.321v20.618c0,.728.831,1.321,1.852,1.321h10.109c1.061,0,1.852-.697,1.852-1.321v-20.618Z" fill="#ccc"/>
    <path d="M1470.584,1561.708c1.392,0,2.52,1.127,2.52,2.519s-1.128,2.519-2.52,2.519h-18.85c-.348,0-.681-.073-.981-.2-.02-.006-.033-.026-.053-.036-.291-.13-.551-.311-.768-.534-.01-.01-.023-.013-.033-.023-.09-.093-.127-.213-.197-.316-.11-.157-.23-.304-.3-.484-.07-.183-.087-.373-.113-.566-.021-.124-.074-.23-.074-.357,0-.014.007-.026.007-.04.004-.207.067-.403.12-.604.033-.117.037-.247.084-.357.043-.104.13-.187.189-.283.11-.184.217-.37.371-.521.01-.01.022-.033.022-.033l14.347-13.445c2.169-2.039,3.353-4.247,3.25-6.06-.07-1.268-.771-2.378-2.133-3.393-.917-.678-2.225-1.037-3.767-1.037-2.973,0-5.298.507-6.999,2.979-.787,1.151-2.353,1.438-3.503.651-1.145-.788-1.435-2.355-.647-3.504,3.55-5.161,9.071-5.161,11.149-5.161,2.626,0,4.965.701,6.767,2.025,3.243,2.419,4.054,5.225,4.163,7.156.19,3.35-1.524,6.906-4.834,10.019l-9.702,9.096h12.481l.003-.007Z" fill="#ccc"/>
    <path d="M1496.951,1547.253v.033c0,1.392-1.128,2.52-2.519,2.52s-2.52-1.128-2.52-2.52,1.128-2.535,2.52-2.535,2.519,1.111,2.519,2.502ZM1496.951,1560.165v.033c0,1.391-1.128,2.519-2.519,2.519s-2.52-1.128-2.52-2.519,1.128-2.536,2.52-2.536,2.519,1.111,2.519,2.503Z" fill="#ccc"/>
    <path d="M1539.651,1539.778v20.618c0,3.507-3.089,6.355-6.889,6.355h-10.109c-3.863,0-6.89-2.792-6.89-6.355v-20.618c0-3.507,3.09-6.355,6.89-6.355h10.109c3.8,0,6.889,2.849,6.889,6.355ZM1534.613,1539.778c0-.728-.831-1.321-1.852-1.321h-10.109c-1.061,0-1.852.697-1.852,1.321v20.618c0,.728.831,1.321,1.852,1.321h10.109c1.061,0,1.852-.697,1.852-1.321v-20.618Z" fill="#ccc"/>
    <path d="M1566.03,1561.708c1.392,0,2.52,1.127,2.52,2.519s-1.128,2.519-2.52,2.519h-18.85c-.348,0-.681-.073-.981-.2-.02-.006-.033-.026-.053-.036-.291-.13-.551-.311-.768-.534-.01-.01-.023-.013-.033-.023-.09-.093-.127-.213-.197-.316-.11-.157-.23-.304-.3-.484-.07-.183-.087-.373-.113-.566-.021-.124-.074-.23-.074-.357,0-.014.007-.026.007-.04.004-.207.067-.403.12-.604.033-.117.037-.247.084-.357.043-.104.13-.187.189-.283.11-.184.217-.37.371-.521.01-.01.023-.033.023-.033l14.346-13.445c2.169-2.039,3.353-4.247,3.25-6.06-.07-1.268-.771-2.378-2.133-3.393-.917-.678-2.225-1.037-3.767-1.037-2.973,0-5.298.507-6.999,2.979-.787,1.151-2.353,1.438-3.503.651-1.145-.788-1.435-2.355-.647-3.504,3.55-5.161,9.071-5.161,11.149-5.161,2.626,0,4.965.701,6.767,2.025,3.242,2.419,4.054,5.225,4.163,7.156.19,3.35-1.524,6.906-4.834,10.019l-9.702,9.096h12.481l.003-.007Z" fill="#ccc"/>
    <path d="M1592.399,1547.253v.033c0,1.392-1.128,2.52-2.519,2.52s-2.52-1.128-2.52-2.52,1.128-2.535,2.52-2.535,2.519,1.111,2.519,2.502ZM1592.399,1560.165v.033c0,1.391-1.128,2.519-2.519,2.519s-2.52-1.128-2.52-2.519,1.128-2.536,2.52-2.536,2.519,1.111,2.519,2.503Z" fill="#ccc"/>
    <path d="M1618.582,1561.751c1.318.084,2.369,1.151,2.369,2.489,0,1.391-1.128,2.519-2.519,2.519h-4.704c-1.392,0-2.52-1.128-2.52-2.519,0-1.328,1.034-2.383,2.336-2.482v-22.587c-.411-.19-.784-.467-1.052-.874-.764-1.161-.443-2.726.718-3.49l1.468-.967c.063-.044.141-.047.207-.084.146-.08.297-.137.46-.187.171-.054.331-.09.504-.104.074-.007.137-.043.214-.043.083,0,.153.04.237.046.173.018.34.051.507.104.153.051.293.107.431.181.14.073.267.16.394.264.137.109.25.229.36.363.053.066.126.104.173.177.044.063.047.141.084.207.08.146.137.3.187.464.05.167.087.327.101.497.006.076.043.14.043.217v25.807l.003.003Z" fill="#ccc"/>
    <path d="M1645.64,1563.649c-2.959,2.956-10.285,3.106-11.724,3.106-1.391,0-2.519-1.128-2.519-2.516s1.124-2.522,2.516-2.522c3.093-.003,7.206-.674,8.164-1.632,1.234-1.234,1.984-3.773,2.412-6.592-1.812.924-4.007,1.451-6.569,1.451-7.377,0-11.961-4.124-11.961-10.76,0-5.205,3.143-10.763,11.961-10.763,8.598,0,11.773,5.281,11.927,10.369.014.08.054.149.061.229.097,1.476.797,14.561-4.268,19.628ZM1644.839,1544.181c0-3.8-2.332-5.725-6.923-5.725-4.657,0-6.923,1.875-6.923,5.725,0,3.797,2.329,5.723,6.923,5.723s6.923-1.922,6.923-5.723Z" fill="#ccc"/>
  </g>
  <g>
    <path d="M1501.355,1504.065c1.854,2.158,1.805,4.21,1.762,5.862l-.014.757c0,3.083-.974,5.822-2.672,7.523-1.455,1.451-3.457,2.516-5.492,2.923-1.567.313-10.056.73-12.621.848h-.12c-1.338,0-2.452-1.055-2.516-2.402-.063-1.388,1.008-2.565,2.398-2.633,5.151-.243,11-.59,11.871-.757,1.055-.214,2.172-.805,2.916-1.549.554-.554,1.197-1.921,1.197-3.96l.014-.884c.033-1.398.021-1.788-.54-2.442-.635-.73-1.158-.871-2.402-.924h-12.938c-1.385,0-2.509-1.114-2.519-2.499l-.101-12.715c-.003-.674.257-1.317.73-1.795.475-.477,1.118-.744,1.789-.744h17.281c1.392,0,2.52,1.128,2.52,2.52s-1.128,2.519-2.52,2.519h-14.743l.061,7.677h10.546c2.099.09,4.2.471,6.109,2.673l.003.003Z" fill="#ccc"/>
    <path d="M1571.012,1504.303c1.548,1.548,2.402,3.603,2.402,5.781v2.369c0,3.029-1.441,5.905-3.854,7.696-1.632,1.234-3.624,1.896-5.739,1.896h-2.102c-1.912,0-7.594-1.062-9.602-2.068l-1.148-.541c-1.257-.594-1.795-2.095-1.2-3.353.594-1.262,2.092-1.792,3.353-1.201l1.201.567c1.114.557,5.922,1.562,7.399,1.562h2.103c1.008,0,1.945-.311,2.716-.892,1.171-.874,1.835-2.205,1.835-3.666v-2.369c0-.834-.33-1.621-.931-2.222l-.404-.404c-.48-.483-1.145-.76-1.818-.76h-4.971c-.971,0-1.858-.561-2.275-1.441s-.29-1.919.327-2.673l7.246-8.868h-10.002c-1.392,0-2.52-1.127-2.52-2.519s1.128-2.519,2.52-2.519h15.313c.971,0,1.858.561,2.275,1.44.417.878.29,1.919-.327,2.673l-7.253,8.875c1.885.083,3.71.887,5.051,2.229l.404.403v.004Z" fill="#ccc"/>
    <path d="M1606.911,1504.303c1.548,1.548,2.401,3.603,2.401,5.781v2.369c0,3.029-1.44,5.905-3.853,7.696-1.632,1.234-3.624,1.896-5.739,1.896h-2.102c-1.912,0-7.594-1.062-9.602-2.068l-1.148-.541c-1.258-.594-1.795-2.095-1.2-3.353.594-1.262,2.092-1.792,3.353-1.201l1.201.567c1.114.557,5.922,1.562,7.399,1.562h2.103c1.008,0,1.945-.311,2.716-.892,1.171-.874,1.835-2.205,1.835-3.666v-2.369c0-.834-.33-1.621-.931-2.222l-.404-.404c-.48-.483-1.145-.76-1.818-.76h-4.971c-.971,0-1.858-.561-2.275-1.441s-.29-1.919.327-2.673l7.246-8.868h-10.002c-1.392,0-2.52-1.127-2.52-2.519s1.128-2.519,2.52-2.519h15.313c.971,0,1.858.561,2.275,1.44.417.878.29,1.919-.327,2.673l-7.253,8.875c1.885.083,3.71.887,5.051,2.229l.404.403v.004Z" fill="#ccc"/>
    <path d="M1626.363,1521.322v.07c0,1.392-1.128,2.519-2.519,2.519s-2.52-1.127-2.52-2.519,1.128-2.556,2.52-2.556,2.519,1.095,2.519,2.485Z" fill="#ccc"/>
    <path d="M1650.103,1500.459c7.272,0,12.16,4.323,12.16,10.76,0,6.339-5.001,10.763-12.16,10.763s-11.728-4.224-11.728-10.763c0-.153.037-.287.04-.438-.007-.07-.04-.127-.04-.196,0-3.464,3.093-10.517,6.082-15.341,2.002-3.236,3.333-4.564,4.504-5.735.984-.984,2.626-1.03,3.61-.047.984.984,1.031,2.536.047,3.517l-.094.094c-1.074,1.071-2.085,2.085-3.783,4.824-.591.947-1.124,1.908-1.628,2.862.943-.18,1.928-.304,2.989-.304v.004ZM1657.226,1511.215c0-5.164-4.981-5.722-7.123-5.722-3.053,0-6.689.994-6.689,5.722,0,3.693,2.375,5.726,6.689,5.726,4.394,0,7.123-2.192,7.123-5.726Z" fill="#ccc"/>
  </g>
  <path d="M692.543,210.876c2.347,2.731,2.284,5.327,2.229,7.416l-.017.958c0,3.9-1.232,7.366-3.381,9.518-1.841,1.836-4.373,3.183-6.948,3.698-1.984.397-12.722.924-15.968,1.072h-.152c-1.692,0-3.103-1.334-3.183-3.039-.08-1.756,1.275-3.246,3.035-3.331,6.517-.308,13.917-.747,15.019-.958,1.333-.271,2.748-1.018,3.689-1.958.701-.701,1.515-2.432,1.515-5.011l.017-1.119c.042-1.769.025-2.262-.684-3.089-.802-.925-1.465-1.102-3.04-1.169h-16.369c-1.751,0-3.174-1.41-3.187-3.162l-.127-16.086c-.004-.853.325-1.667.924-2.271.6-.604,1.414-.941,2.263-.941h21.865c1.76,0,3.187,1.426,3.187,3.187s-1.427,3.187-3.187,3.187h-18.652l.076,9.712h13.343c2.655.114,5.314.595,7.729,3.381l.004.004Z" fill="#ccc"/>
  <g>
    <path d="M445.069,1593.636c1.391,0,2.519,1.127,2.519,2.519s-1.127,2.519-2.519,2.519h-18.85c-.347,0-.681-.072-.981-.199-.02-.008-.034-.027-.054-.037-.29-.131-.55-.311-.767-.533-.01-.011-.023-.014-.033-.023-.09-.094-.127-.215-.197-.317-.11-.157-.23-.304-.3-.483-.07-.184-.086-.374-.113-.568-.02-.123-.073-.229-.073-.356,0-.013.006-.026.006-.04.003-.207.067-.404.12-.604.034-.117.037-.247.083-.357.043-.104.13-.187.19-.283.11-.184.217-.371.37-.521.01-.011.023-.034.023-.034l14.346-13.445c2.168-2.038,3.353-4.246,3.25-6.059-.07-1.268-.771-2.379-2.132-3.393-.917-.678-2.226-1.037-3.767-1.037-2.973,0-5.298.507-7,2.979-.788,1.151-2.353,1.438-3.503.65-1.145-.787-1.435-2.355-.647-3.502,3.55-5.162,9.071-5.162,11.15-5.162,2.625,0,4.964.701,6.766,2.025,3.243,2.419,4.053,5.225,4.164,7.156.19,3.35-1.525,6.906-4.834,10.02l-9.702,9.094h12.481l.003-.006Z" fill="#ccc"/>
    <path d="M474.375,1580.737c1.855,2.158,1.805,4.211,1.762,5.861l-.014.758c0,3.083-.974,5.822-2.672,7.523-1.455,1.451-3.457,2.516-5.492,2.923-1.568.313-10.056.73-12.621.847h-.12c-1.338,0-2.452-1.054-2.516-2.401-.063-1.388,1.008-2.565,2.399-2.633,5.151-.243,11-.591,11.871-.757,1.054-.214,2.172-.805,2.916-1.549.554-.553,1.198-1.922,1.198-3.96l.013-.884c.033-1.398.02-1.789-.541-2.442-.634-.73-1.158-.87-2.402-.924h-12.938c-1.384,0-2.509-1.114-2.519-2.499l-.1-12.715c-.003-.674.257-1.318.731-1.795s1.118-.744,1.788-.744h17.282c1.391,0,2.519,1.128,2.519,2.52s-1.128,2.519-2.519,2.519h-14.743l.06,7.677h10.546c2.099.09,4.201.471,6.109,2.672l.003.004Z" fill="#ccc"/>
    <path d="M505.037,1571.706v20.618c0,3.507-3.089,6.356-6.89,6.356h-10.109c-3.863,0-6.89-2.793-6.89-6.356v-20.618c0-3.507,3.089-6.355,6.89-6.355h10.109c3.8,0,6.89,2.849,6.89,6.355ZM499.999,1571.706c0-.728-.831-1.321-1.852-1.321h-10.109c-1.061,0-1.852.697-1.852,1.321v20.618c0,.728.831,1.321,1.852,1.321h10.109c1.061,0,1.852-.697,1.852-1.321v-20.618Z" fill="#ccc"/>
    <path d="M533.936,1571.706v20.618c0,3.507-3.089,6.356-6.89,6.356h-10.109c-3.863,0-6.89-2.793-6.89-6.356v-20.618c0-3.507,3.089-6.355,6.89-6.355h10.109c3.8,0,6.89,2.849,6.89,6.355ZM528.898,1571.706c0-.728-.831-1.321-1.852-1.321h-10.109c-1.061,0-1.852.697-1.852,1.321v20.618c0,.728.831,1.321,1.852,1.321h10.109c1.061,0,1.852-.697,1.852-1.321v-20.618Z" fill="#ccc"/>
    <path d="M562.836,1571.706v20.618c0,3.507-3.089,6.356-6.89,6.356h-10.109c-3.863,0-6.89-2.793-6.89-6.356v-20.618c0-3.507,3.089-6.355,6.89-6.355h10.109c3.8,0,6.89,2.849,6.89,6.355ZM557.797,1571.706c0-.728-.831-1.321-1.852-1.321h-10.109c-1.061,0-1.852.697-1.852,1.321v20.618c0,.728.831,1.321,1.852,1.321h10.109c1.061,0,1.852-.697,1.852-1.321v-20.618Z" fill="#ccc"/>
  </g>
  <g>
    <path d="M322.713,1571.706v20.618c0,3.507-3.089,6.356-6.89,6.356h-10.109c-3.863,0-6.89-2.793-6.89-6.356v-20.618c0-3.507,3.089-6.355,6.89-6.355h10.109c3.8,0,6.89,2.849,6.89,6.355ZM317.675,1571.706c0-.728-.831-1.321-1.852-1.321h-10.109c-1.061,0-1.852.697-1.852,1.321v20.618c0,.728.831,1.321,1.852,1.321h10.109c1.061,0,1.852-.697,1.852-1.321v-20.618Z" fill="#ccc"/>
    <path d="M332.762,1597.994v.07c0,1.392-1.128,2.519-2.519,2.519s-2.519-1.127-2.519-2.519,1.128-2.556,2.519-2.556,2.519,1.094,2.519,2.485Z" fill="#ccc"/>
    <path d="M361.629,1576.78c0,1.458-.544,2.883-1.518,4.037.974,1.158,1.518,2.579,1.518,4.037v7.276c0,1.778-.797,3.503-2.189,4.728-1.308,1.158-3.049,1.795-4.901,1.795h-9.675c-1.812,0-3.597-.654-4.898-1.795-1.415-1.248-2.192-2.926-2.192-4.728v-7.276c0-1.458.544-2.883,1.518-4.037-.978-1.161-1.518-2.586-1.518-4.037v-4.904c0-1.778.797-3.503,2.189-4.728,1.311-1.161,3.053-1.798,4.901-1.798h9.675c1.818,0,3.603.653,4.901,1.795,1.415,1.251,2.189,2.929,2.189,4.727v4.908ZM356.59,1584.847c0-.333-.19-.688-.517-.978l-.617-.541h-11.517l-.621.545c-.32.286-.51.641-.51.974v7.276c0,.344.164.66.484.944.383.337.971.54,1.568.54h9.675c.611,0,1.185-.193,1.568-.537.307-.267.487-.62.487-.947v-7.276ZM342.815,1571.876v4.904c0,.334.19.691.521.988l.607.529h11.521l.624-.543c.317-.283.507-.641.507-.975v-4.904c0-.347-.164-.667-.487-.951-.38-.333-.967-.537-1.568-.537h-9.675c-.61,0-1.181.197-1.565.537h-.003c-.304.268-.484.621-.484.947l.003.004Z" fill="#ccc"/>
    <path d="M388.4,1580.737c1.855,2.158,1.805,4.211,1.762,5.861l-.014.758c0,3.083-.974,5.822-2.672,7.523-1.455,1.451-3.457,2.516-5.492,2.923-1.568.313-10.056.73-12.621.847h-.12c-1.338,0-2.452-1.054-2.516-2.401-.063-1.388,1.008-2.565,2.399-2.633,5.151-.243,11-.591,11.871-.757,1.054-.214,2.172-.805,2.916-1.549.554-.553,1.198-1.922,1.198-3.96l.013-.884c.033-1.398.02-1.789-.541-2.442-.634-.73-1.158-.87-2.402-.924h-12.938c-1.384,0-2.509-1.114-2.519-2.499l-.1-12.715c-.003-.674.257-1.318.731-1.795s1.118-.744,1.788-.744h17.282c1.391,0,2.519,1.128,2.519,2.52s-1.128,2.519-2.519,2.519h-14.743l.06,7.677h10.546c2.099.09,4.201.471,6.109,2.672l.003.004Z" fill="#ccc"/>
  </g>
</svg>