<?xml version="1.0" encoding="UTF-8"?>
<svg xmlns="http://www.w3.org/2000/svg" width="781.157" height="755.163" viewBox="0 0 781.157 755.163">
  <g id="a" data-name="Panel_EGI_Dark">
    <rect x="2.5" y="2.5" width="776.157" height="400.996" fill="none" stroke="#ccc" stroke-miterlimit="10" stroke-width="5"/>
    <path d="M71.017,18.225v76.452c0,11.127-9.02,20.147-20.147,20.147H14.856v180.841h30.591c14.122,0,25.57,11.448,25.57,25.57v66.535h636.875v-77.31c0-8.792,7.127-15.919,15.919-15.919h34.627V112.577h-36.266c-9.127,0-16.527-7.399-16.527-16.527V15.979l-634.629,2.246Z" fill="none" stroke="#ccc" stroke-miterlimit="10" stroke-width="5"/>
    <circle cx="34.97" cy="81.642" r="21.58" fill="none" stroke="#ccc" stroke-miterlimit="10" stroke-width="2"/>
    <circle cx="34.97" cy="81.642" r="17.201" fill="none" stroke="#ccc" stroke-miterlimit="10" stroke-width="2"/>
    <rect x="31.704" y="64.278" width="5.616" height="35.944" transform="translate(-48.051 48.494) rotate(-45)" fill="none" stroke="#ccc" stroke-miterlimit="10" stroke-width="2"/>
    <circle cx="738.678" cy="80.824" r="21.58" fill="none" stroke="#ccc" stroke-miterlimit="10" stroke-width="2"/>
    <circle cx="738.678" cy="80.824" r="17.201" fill="none" stroke="#ccc" stroke-miterlimit="10" stroke-width="2"/>
    <rect x="735.412" y="63.46" width="5.616" height="35.944" transform="translate(158.639 545.851) rotate(-45)" fill="none" stroke="#ccc" stroke-miterlimit="10" stroke-width="2"/>
    <circle cx="738.336" cy="327.741" r="21.58" fill="none" stroke="#ccc" stroke-miterlimit="10" stroke-width="2"/>
    <circle cx="738.336" cy="327.741" r="17.201" fill="none" stroke="#ccc" stroke-miterlimit="10" stroke-width="2"/>
    <rect x="735.07" y="310.377" width="5.616" height="35.944" transform="translate(-16.058 617.93) rotate(-45)" fill="none" stroke="#ccc" stroke-miterlimit="10" stroke-width="2"/>
    <circle cx="669.819" cy="344.59" r="21.58" fill="none" stroke="#ccc" stroke-miterlimit="10" stroke-width="2"/>
    <circle cx="669.819" cy="344.59" r="17.201" fill="none" stroke="#ccc" stroke-miterlimit="10" stroke-width="2"/>
    <rect x="666.553" y="327.225" width="5.616" height="35.944" transform="translate(-48.04 574.416) rotate(-45)" fill="none" stroke="#ccc" stroke-miterlimit="10" stroke-width="2"/>
    <circle cx="34.946" cy="327.595" r="21.58" fill="none" stroke="#ccc" stroke-miterlimit="10" stroke-width="2"/>
    <circle cx="34.946" cy="327.595" r="17.201" fill="none" stroke="#ccc" stroke-miterlimit="10" stroke-width="2"/>
    <rect x="31.68" y="310.23" width="5.616" height="35.944" transform="translate(-221.973 120.515) rotate(-45)" fill="none" stroke="#ccc" stroke-miterlimit="10" stroke-width="2"/>
    <circle cx="107.956" cy="345.567" r="21.58" fill="none" stroke="#ccc" stroke-miterlimit="10" stroke-width="2"/>
    <circle cx="107.956" cy="345.567" r="17.201" fill="none" stroke="#ccc" stroke-miterlimit="10" stroke-width="2"/>
    <rect x="104.69" y="328.202" width="5.616" height="35.944" transform="translate(-213.296 177.405) rotate(-45)" fill="none" stroke="#ccc" stroke-miterlimit="10" stroke-width="2"/>
    <rect x="568.612" y="187.834" width="94.352" height="89.859" fill="none" stroke="#ccc" stroke-miterlimit="10" stroke-width="4"/>
    <rect x="576.474" y="196.82" width="77.503" height="71.887" fill="none" stroke="#ccc" stroke-miterlimit="10" stroke-width="4"/>
    <g>
      <path d="M585.07,229.614h5.92v31.416h-5.92v-31.416ZM587.209,229.614h18.906v5.704h-18.906v-5.704ZM587.209,242.577h16.529v5.704h-16.529v-5.704ZM587.209,255.325h18.906v5.704h-18.906v-5.704Z" fill="#579924"/>
      <path d="M635.231,243.463v6.137c0,2.333-.473,4.39-1.416,6.168-.943,1.779-2.279,3.155-4.008,4.127-1.729.973-3.73,1.459-6.007,1.459-2.29,0-4.311-.457-6.061-1.372s-3.104-2.207-4.062-3.879c-.958-1.671-1.438-3.608-1.438-5.812v-9.27c0-2.334.472-4.387,1.416-6.158.942-1.771,2.279-3.144,4.008-4.116,1.729-.972,3.73-1.458,6.007-1.458,1.872,0,3.601.386,5.186,1.156,1.584.771,2.906,1.861,3.965,3.273,1.059,1.411,1.774,3.046,2.149,4.904h-6.396c-.216-.662-.572-1.235-1.069-1.718s-1.08-.85-1.75-1.102-1.365-.379-2.085-.379c-1.052,0-1.978.231-2.776.691-.8.462-1.42,1.117-1.858,1.967-.439.85-.659,1.829-.659,2.938v9.27c0,.979.223,1.844.67,2.593.446.749,1.08,1.325,1.901,1.729s1.771.604,2.852.604c1.066,0,1.999-.219,2.799-.659.799-.438,1.415-1.076,1.847-1.912.433-.835.648-1.821.648-2.96v-.519h-4.753v-5.704h10.89Z" fill="#579924"/>
      <path d="M648.14,261.03h-6.136v-31.416h6.136v31.416Z" fill="#579924"/>
    </g>
    <g>
      <rect x="564.679" y="108.345" width="90.422" height="64.888" fill="none"/>
      <path d="M568.999,116.117h13.447v3.33h-13.447v-3.33ZM573.995,117.617h3.456v16.84h-3.456v-16.84Z" fill="#ccc"/>
      <path d="M589.377,116.117h2.195l7.014,18.341h-3.722l-4.39-12.526-4.39,12.526h-3.722l7.014-18.341ZM585.731,128.188h9.65v3.331h-9.65v-3.331Z" fill="#ccc"/>
      <path d="M603.322,133.846c-.992-.534-1.749-1.312-2.271-2.333-.521-1.022-.782-2.256-.782-3.703v-5.033c0-1.446.261-2.681.782-3.702.521-1.022,1.278-1.802,2.271-2.34s2.187-.808,3.583-.808c1.151,0,2.182.248,3.09.744.908.497,1.659,1.217,2.252,2.164s1.003,2.088,1.23,3.425h-3.583c-.135-.605-.343-1.123-.624-1.552-.282-.429-.623-.757-1.022-.984s-.847-.34-1.343-.34c-.648,0-1.198.132-1.652.397-.454.265-.802.652-1.041,1.16-.24.509-.359,1.121-.359,1.835v5.033c0,.715.119,1.325.359,1.829.239.505.587.89,1.041,1.154.454.265,1.004.397,1.652.397.504,0,.958-.111,1.362-.334.403-.223.744-.549,1.021-.978s.479-.95.605-1.564h3.583c-.236,1.337-.65,2.479-1.243,3.425-.593.946-1.341,1.667-2.245,2.163-.904.497-1.933.745-3.084.745-1.396,0-2.591-.267-3.583-.801Z" fill="#ccc"/>
      <path d="M621.922,116.117h2.195l7.014,18.341h-3.722l-4.39-12.526-4.39,12.526h-3.722l7.014-18.341ZM618.276,128.188h9.65v3.331h-9.65v-3.331Z" fill="#ccc"/>
      <path d="M634.202,116.117h4.226l6.824,14.052-.303.328v-14.38h3.306v18.329h-4.252l-6.799-13.838.303-.328v14.166h-3.305v-18.329Z" fill="#ccc"/>
      <path d="M587.372,164.847c-.992-.534-1.749-1.312-2.271-2.333-.521-1.022-.782-2.256-.782-3.703v-5.033c0-1.446.261-2.681.782-3.702.521-1.022,1.278-1.802,2.271-2.34s2.187-.808,3.583-.808c1.151,0,2.182.248,3.09.744.908.497,1.659,1.217,2.252,2.164s1.003,2.088,1.23,3.425h-3.583c-.135-.605-.343-1.123-.624-1.552-.282-.429-.623-.757-1.022-.984s-.847-.34-1.343-.34c-.648,0-1.198.132-1.652.397-.454.265-.802.652-1.041,1.16-.24.509-.359,1.121-.359,1.835v5.033c0,.715.119,1.325.359,1.829.239.505.587.89,1.041,1.154.454.265,1.004.397,1.652.397.504,0,.958-.111,1.362-.334.403-.223.744-.549,1.021-.978s.479-.95.605-1.564h3.583c-.236,1.337-.65,2.479-1.243,3.425-.593.946-1.341,1.667-2.245,2.163-.904.497-1.933.745-3.084.745-1.396,0-2.591-.267-3.583-.801Z" fill="#ccc"/>
      <path d="M612.772,147.118h4.554v18.341h-3.141v-14.242l.126.807-3.507,11.391h-3.053l-3.507-11.139.126-1.06v14.242h-3.141v-18.341h4.554l3.494,12.362,3.494-12.362Z" fill="#ccc"/>
      <path d="M622.163,147.118h3.456v18.341h-3.456v-18.341ZM623.903,162.129h4.402c1.136,0,2.015-.273,2.637-.82.622-.546.934-1.32.934-2.321v-5.399c0-1.001-.312-1.774-.934-2.321-.622-.546-1.501-.82-2.637-.82h-4.402v-3.33h4.327c1.53,0,2.836.256,3.917.77,1.08.513,1.902,1.261,2.466,2.245s.846,2.17.846,3.557v5.197c0,1.32-.271,2.473-.814,3.457-.542.984-1.355,1.749-2.44,2.296s-2.414.82-3.986.82h-4.314v-3.33Z" fill="#ccc"/>
    </g>
    <g>
      <rect x="304.203" y="24.637" width="190.274" height="64.888" fill="none"/>
      <path d="M320.766,47.91h3.558l3.897,12.236,3.898-12.236h3.557l-6.105,18.341h-2.699l-6.105-18.341Z" fill="#ccc"/>
      <path d="M338.811,69.733h-3.28l8.2-23.993h3.279l-8.199,23.993Z" fill="#ccc"/>
      <path d="M352.326,65.64c-1.001-.534-1.762-1.312-2.283-2.333-.521-1.022-.782-2.252-.782-3.69v-11.706h3.457v11.794c0,1.051.281,1.867.845,2.447.563.58,1.358.87,2.385.87,1.034,0,1.835-.29,2.402-.87.568-.581.852-1.396.852-2.447v-11.794h3.457v11.706c0,1.438-.264,2.668-.789,3.69-.525,1.021-1.291,1.8-2.296,2.333-1.005.534-2.214.801-3.626.801s-2.62-.267-3.621-.801Z" fill="#ccc"/>
      <path d="M366.991,47.91h3.456v18.341h-3.456v-18.341ZM368.593,55.492h10.685v3.331h-10.685v-3.331ZM377.032,47.91h3.456v18.341h-3.456v-18.341Z" fill="#ccc"/>
      <path d="M385.326,47.91h3.456v18.341h-3.456v-18.341ZM386.587,47.91h10.786v3.33h-10.786v-3.33ZM386.587,55.643h9.398v3.331h-9.398v-3.331Z" fill="#ccc"/>
      <path d="M407.653,63.136l6.295-8.275c.285-.37.506-.75.662-1.142.155-.391.233-.754.233-1.091v-.025c0-.496-.16-.878-.479-1.148-.319-.269-.773-.404-1.362-.404-.572,0-1.034.188-1.388.562-.354.375-.567.906-.644,1.596v.013h-3.544v-.013c.075-1.144.351-2.127.826-2.952.475-.824,1.116-1.453,1.924-1.886.807-.433,1.74-.65,2.8-.65,1.144,0,2.121.188,2.933.562s1.43.919,1.854,1.633c.425.715.638,1.577.638,2.586v.013c0,.833-.146,1.659-.436,2.479s-.696,1.562-1.218,2.227l-4.516,5.702h6.27v3.33h-10.849v-3.116Z" fill="#ccc"/>
      <path d="M435.441,47.91h2.195l7.014,18.341h-3.722l-4.39-12.526-4.39,12.526h-3.722l7.014-18.341ZM431.796,59.982h9.65v3.331h-9.65v-3.331Z" fill="#ccc"/>
      <path d="M447.722,47.91h4.226l6.824,14.052-.303.328v-14.38h3.306v18.329h-4.252l-6.799-13.838.303-.328v14.166h-3.305v-18.329Z" fill="#ccc"/>
      <path d="M465.097,47.91h13.447v3.33h-13.447v-3.33ZM470.093,49.411h3.456v16.84h-3.456v-16.84Z" fill="#ccc"/>
    </g>
    <g>
      <rect x="408.868" y="83.543" width="118.555" height="64.888" fill="none"/>
      <path d="M447.502,124.546c-1.001-.534-1.762-1.312-2.283-2.333-.521-1.022-.782-2.252-.782-3.69v-11.706h3.457v11.794c0,1.051.281,1.867.845,2.447.563.58,1.358.87,2.385.87,1.034,0,1.835-.29,2.402-.87.568-.581.852-1.396.852-2.447v-11.794h3.457v11.706c0,1.438-.264,2.668-.789,3.69-.525,1.021-1.291,1.8-2.296,2.333-1.005.534-2.214.801-3.626.801s-2.62-.267-3.621-.801Z" fill="#ccc"/>
      <path d="M462.167,106.816h3.456v18.341h-3.456v-18.341ZM463.743,114.713h5.866c.412,0,.775-.095,1.091-.284.315-.189.562-.456.738-.801.177-.345.265-.74.265-1.186,0-.454-.086-.855-.259-1.205-.172-.349-.416-.618-.731-.808-.315-.189-.684-.284-1.104-.284h-5.866v-3.33h5.777c1.145,0,2.151.233,3.021.7.87.466,1.546,1.125,2.024,1.974.479.849.72,1.833.72,2.952s-.24,2.1-.72,2.945c-.479.845-1.154,1.499-2.024,1.961-.87.463-1.877.694-3.021.694h-5.777v-3.33Z" fill="#ccc"/>
      <path d="M478.798,106.804h3.456v18.354h-3.456v-18.354ZM480.173,114.448h6.383c.354,0,.664-.088.934-.265.269-.177.477-.429.624-.757s.225-.707.233-1.135c0-.429-.073-.808-.221-1.135-.147-.328-.355-.581-.624-.757-.27-.177-.585-.265-.946-.265h-6.383v-3.33h6.66c1.009,0,1.896.227,2.662.681.765.454,1.357,1.096,1.778,1.924.42.828.631,1.789.631,2.882s-.211,2.054-.631,2.882c-.421.829-1.016,1.47-1.785,1.924s-1.654.681-2.655.681h-6.66v-3.33ZM484.032,117.21l3.696-.58,4.945,8.527h-4.188l-4.453-7.947Z" fill="#ccc"/>
    </g>
    <g>
      <rect x="376.357" y="154.307" width="190.274" height="64.888" fill="none"/>
      <path d="M446.328,177.579h3.456v18.341h-3.456v-18.341ZM447.867,192.591h10.747v3.33h-10.747v-3.33Z" fill="#ccc"/>
      <path d="M468.586,177.579h2.775l3.507,12.236,2.359-12.236h3.557l-4.226,18.341h-3.255l-3.254-12.816-3.406,12.816h-3.255l-4.226-18.341h3.558l2.358,12.236,3.507-12.236Z" fill="#ccc"/>
      <path d="M483.856,177.567h3.456v18.354h-3.456v-18.354ZM485.231,185.211h6.383c.354,0,.664-.088.934-.265.269-.177.477-.429.624-.757s.225-.707.233-1.135c0-.429-.073-.808-.221-1.135-.147-.328-.355-.581-.624-.757-.27-.177-.585-.265-.946-.265h-6.383v-3.33h6.66c1.009,0,1.896.227,2.662.681.765.454,1.357,1.096,1.778,1.924.42.828.631,1.789.631,2.882s-.211,2.054-.631,2.882c-.421.829-1.016,1.47-1.785,1.924s-1.654.681-2.655.681h-6.66v-3.33ZM489.09,187.973l3.696-.58,4.945,8.527h-4.188l-4.453-7.947Z" fill="#ccc"/>
    </g>
    <g>
      <rect x="305.447" y="201.165" width="190.274" height="64.888" fill="none"/>
      <path d="M335.841,242.167c-1.001-.533-1.762-1.312-2.283-2.333-.521-1.022-.782-2.252-.782-3.69v-11.706h3.457v11.795c0,1.051.281,1.866.845,2.447.563.58,1.358.87,2.385.87,1.034,0,1.835-.29,2.402-.87.568-.581.852-1.396.852-2.447v-11.795h3.457v11.706c0,1.438-.264,2.668-.789,3.69-.525,1.021-1.291,1.8-2.296,2.333-1.005.534-2.214.802-3.626.802s-2.62-.268-3.621-.802Z" fill="#ccc"/>
      <path d="M350.506,224.438h3.456v18.342h-3.456v-18.342ZM352.107,232.019h10.685v3.331h-10.685v-3.331ZM360.547,224.438h3.456v18.342h-3.456v-18.342Z" fill="#ccc"/>
      <path d="M368.841,224.438h3.456v18.342h-3.456v-18.342ZM370.102,224.438h10.786v3.33h-10.786v-3.33ZM370.102,232.17h9.398v3.331h-9.398v-3.331Z" fill="#ccc"/>
      <path d="M404.115,242.78h-3.456v-14.28l-2.233.846v-3.671l2.737-1.236h2.952v18.342Z" fill="#ccc"/>
      <path d="M422.538,224.438h3.558l3.897,12.236,3.898-12.236h3.557l-6.105,18.342h-2.699l-6.105-18.342Z" fill="#ccc"/>
      <path d="M442.947,242.13c-1.014-.56-1.798-1.351-2.353-2.372-.556-1.021-.833-2.205-.833-3.551v-5.197c0-1.346.277-2.529.833-3.551.555-1.022,1.339-1.812,2.353-2.372,1.013-.559,2.185-.839,3.513-.839s2.5.28,3.514.839c1.013.56,1.797,1.35,2.353,2.372.555,1.021.832,2.205.832,3.551v5.197c0,1.346-.277,2.529-.832,3.551-.556,1.021-1.34,1.812-2.353,2.372-1.014.559-2.185.839-3.514.839s-2.5-.28-3.513-.839ZM448.101,239.115c.471-.265.834-.641,1.091-1.129.256-.487.385-1.051.385-1.69v-5.373c0-.64-.129-1.203-.385-1.69-.257-.488-.62-.864-1.091-1.129-.472-.266-1.019-.397-1.641-.397s-1.169.132-1.64.397c-.471.265-.835.641-1.091,1.129-.257.487-.385,1.051-.385,1.69v5.373c0,.64.128,1.203.385,1.69.256.488.62.864,1.091,1.129.471.266,1.018.397,1.64.397s1.169-.132,1.641-.397Z" fill="#ccc"/>
      <path d="M457.366,224.438h3.456v18.342h-3.456v-18.342ZM458.905,239.45h10.747v3.33h-10.747v-3.33Z" fill="#ccc"/>
    </g>
    <g>
      <rect x="87.099" y="200.799" width="190.274" height="64.888" fill="none"/>
      <path d="M128.998,224.073h3.456v18.341h-3.456v-18.341ZM131.079,235.248l7.354-11.176h4.352l-11.265,15.667-.441-4.491ZM134.131,233.129l2.977-1.879,6.446,11.163h-4.1l-5.323-9.284Z" fill="#ccc"/>
      <path d="M153.084,235.337v7.076h-3.457v-7.076l-5.399-11.265h3.621l3.507,7.896,3.507-7.896h3.62l-5.399,11.265Z" fill="#ccc"/>
      <path d="M179.953,224.073h4.554v18.341h-3.141v-14.241l.126.807-3.507,11.392h-3.053l-3.507-11.139.126-1.06v14.241h-3.141v-18.341h4.554l3.494,12.361,3.494-12.361Z" fill="#ccc"/>
      <path d="M192.151,241.764c-1.014-.56-1.798-1.35-2.353-2.371-.555-1.022-.833-2.206-.833-3.552v-5.197c0-1.345.278-2.528.833-3.551.555-1.021,1.339-1.812,2.353-2.371,1.013-.56,2.184-.839,3.513-.839s2.5.279,3.513.839c1.014.56,1.798,1.35,2.353,2.371.555,1.022.833,2.206.833,3.551v5.197c0,1.346-.278,2.529-.833,3.552-.555,1.021-1.339,1.812-2.353,2.371-1.013.56-2.184.839-3.513.839s-2.5-.279-3.513-.839ZM197.304,238.749c.471-.265.834-.642,1.091-1.129.256-.488.385-1.052.385-1.69v-5.374c0-.639-.128-1.202-.385-1.69-.257-.487-.621-.864-1.091-1.129-.471-.265-1.018-.397-1.64-.397s-1.169.133-1.64.397c-.471.265-.834.642-1.091,1.129-.256.488-.385,1.052-.385,1.69v5.374c0,.639.128,1.202.385,1.69.257.487.62.864,1.091,1.129.471.265,1.018.397,1.64.397s1.168-.133,1.64-.397Z" fill="#ccc"/>
      <path d="M206.569,224.073h3.456v18.341h-3.456v-18.341ZM208.31,239.083h4.402c1.135,0,2.014-.273,2.636-.82.623-.546.934-1.319.934-2.32v-5.399c0-1.001-.311-1.774-.934-2.321-.622-.546-1.501-.819-2.636-.819h-4.402v-3.33h4.327c1.53,0,2.836.256,3.917.77,1.081.513,1.903,1.261,2.466,2.245.563.983.845,2.17.845,3.557v5.197c0,1.32-.271,2.473-.813,3.457-.542.983-1.356,1.749-2.441,2.296-1.085.547-2.414.819-3.986.819h-4.314v-3.33Z" fill="#ccc"/>
      <path d="M224.071,224.073h3.456v18.341h-3.456v-18.341ZM225.32,224.073h11.038v3.33h-11.038v-3.33ZM225.32,231.641h9.65v3.33h-9.65v-3.33ZM225.32,239.083h11.038v3.33h-11.038v-3.33Z" fill="#ccc"/>
    </g>
    <g>
      <rect x="90.48" y="24.451" width="190.274" height="64.888" fill="none"/>
      <path d="M161.527,39.274l4.125-7.051h3.646l-6.067,10.369-4.667,7.972h-3.646l6.61-11.29ZM161.489,43.059l-.354-.593-6.067-10.243h3.646l4.112,6.95.479.82,6.27,10.571h-3.646l-4.44-7.505Z" fill="#ccc"/>
      <path d="M184.189,32.223h4.554v18.341h-3.141v-14.242l.126.807-3.507,11.391h-3.053l-3.507-11.139.126-1.06v14.242h-3.141v-18.341h4.554l3.494,12.362,3.494-12.362Z" fill="#ccc"/>
      <path d="M196.911,50.564h-3.583v-18.341h3.583v18.341Z" fill="#ccc"/>
      <path d="M201.497,32.21h3.456v18.354h-3.456v-18.354ZM202.871,39.855h6.383c.353,0,.664-.088.933-.265s.478-.429.625-.757.225-.707.233-1.135c0-.429-.074-.808-.221-1.135-.147-.328-.355-.581-.625-.757-.269-.177-.584-.265-.946-.265h-6.383v-3.33h6.661c1.009,0,1.896.227,2.662.681s1.358,1.096,1.779,1.924c.42.828.631,1.789.631,2.882s-.21,2.054-.631,2.882c-.421.829-1.016,1.47-1.785,1.924s-1.655.681-2.655.681h-6.661v-3.33ZM206.731,42.617l3.696-.58,4.945,8.527h-4.188l-4.453-7.947Z" fill="#ccc"/>
      <path d="M167.081,81.49c-.837-.177-1.624-.435-2.359-.776-.736-.34-1.394-.75-1.975-1.23l1.602-2.851c.707.58,1.522,1.028,2.447,1.343s1.875.473,2.851.473c1.127,0,2.001-.191,2.624-.574.623-.382.934-.923.934-1.621v-.013c0-.488-.139-.875-.416-1.161-.278-.286-.639-.496-1.085-.631-.446-.134-1.018-.256-1.716-.366-.025-.008-.048-.013-.069-.013s-.044-.004-.069-.012l-.277-.038c-1.228-.193-2.246-.435-3.053-.725-.807-.291-1.493-.799-2.056-1.526-.563-.728-.845-1.76-.845-3.097v-.013c0-1.186.265-2.199.795-3.04.53-.841,1.299-1.482,2.308-1.923,1.009-.442,2.229-.663,3.658-.663.656,0,1.327.076,2.012.227.685.151,1.356.37,2.012.656.656.286,1.278.63,1.867,1.034l-1.463,2.927c-.707-.488-1.444-.866-2.214-1.135s-1.507-.404-2.214-.404c-1.06,0-1.879.174-2.459.523-.581.349-.871.839-.871,1.47v.012c0,.53.151.949.454,1.255.303.307.677.532,1.123.675.446.143,1.072.294,1.88.454.033.009.067.015.101.019s.067.011.101.019c.05.008.099.019.145.031s.095.023.145.032c1.161.227,2.13.502,2.908.826s1.427.845,1.949,1.564c.521.719.782,1.701.782,2.945v.025c0,1.169-.273,2.169-.82,3.002-.547.833-1.343,1.468-2.391,1.905-1.047.438-2.306.656-3.778.656-.875,0-1.73-.088-2.567-.265Z" fill="#ccc"/>
      <path d="M180.338,63.224h3.456v18.341h-3.456v-18.341ZM181.586,63.224h11.038v3.33h-11.038v-3.33ZM181.586,70.793h9.65v3.331h-9.65v-3.331ZM181.586,78.236h11.038v3.33h-11.038v-3.33Z" fill="#ccc"/>
      <path d="M196.579,63.224h3.456v18.341h-3.456v-18.341ZM198.117,78.236h10.748v3.33h-10.748v-3.33Z" fill="#ccc"/>
    </g>
    <g>
      <rect x="231.997" y="94.717" width="117.584" height="111.089" fill="none"/>
      <path d="M236.828,122.877c-1.001-.534-1.762-1.312-2.283-2.333-.522-1.022-.782-2.252-.782-3.69v-11.706h3.456v11.794c0,1.051.282,1.867.845,2.447.563.58,1.358.87,2.384.87,1.035,0,1.835-.29,2.403-.87.567-.581.851-1.396.851-2.447v-11.794h3.457v11.706c0,1.438-.263,2.668-.789,3.69-.525,1.021-1.291,1.8-2.296,2.333-1.005.534-2.213.801-3.626.801s-2.62-.267-3.62-.801Z" fill="#ccc"/>
      <path d="M251.492,105.147h3.456v18.341h-3.456v-18.341ZM253.094,112.728h10.685v3.331h-10.685v-3.331ZM261.533,105.147h3.456v18.341h-3.456v-18.341Z" fill="#ccc"/>
      <path d="M269.827,105.147h3.456v18.341h-3.456v-18.341ZM271.088,105.147h10.785v3.33h-10.785v-3.33ZM271.088,112.88h9.398v3.331h-9.398v-3.331Z" fill="#ccc"/>
      <path d="M297.364,123.489h-3.457v-14.28l-2.233.845v-3.671l2.737-1.236h2.952v18.341Z" fill="#ccc"/>
      <path d="M234.015,141.091h3.456v18.341h-3.456v-18.341ZM235.529,156.102h5.853c.791,0,1.402-.191,1.835-.574.433-.382.649-.918.649-1.608v-.038c0-.462-.097-.858-.29-1.186-.193-.328-.478-.578-.852-.75s-.822-.258-1.343-.258h-5.853v-3.331h5.853c.715,0,1.268-.181,1.659-.542.391-.361.586-.87.586-1.526,0-.589-.195-1.047-.586-1.375-.391-.328-.944-.492-1.659-.492h-5.853v-3.33h5.966c1.186,0,2.199.195,3.04.586s1.48.958,1.917,1.703c.438.744.656,1.638.656,2.68,0,.715-.141,1.348-.423,1.899s-.692,1.002-1.23,1.356c-.538.353-1.186.593-1.942.719.807.109,1.499.355,2.075.738.576.383,1.013.881,1.312,1.495.299.614.448,1.325.448,2.132v.038c0,1.051-.221,1.951-.663,2.699s-1.085,1.318-1.93,1.709c-.845.391-1.861.586-3.046.586h-6.181v-3.33Z" fill="#ccc"/>
      <path d="M253.92,158.783c-1.014-.56-1.798-1.35-2.353-2.372-.555-1.022-.833-2.206-.833-3.551v-5.197c0-1.345.278-2.529.833-3.551.555-1.022,1.339-1.812,2.353-2.372,1.013-.559,2.184-.839,3.513-.839s2.5.28,3.513.839c1.014.56,1.798,1.35,2.353,2.372.555,1.022.833,2.206.833,3.551v5.197c0,1.346-.278,2.529-.833,3.551-.555,1.021-1.339,1.812-2.353,2.372-1.013.559-2.184.839-3.513.839s-2.5-.28-3.513-.839ZM259.073,155.768c.471-.265.834-.641,1.091-1.129.256-.488.385-1.051.385-1.69v-5.374c0-.639-.128-1.203-.385-1.69-.257-.488-.621-.864-1.091-1.129-.471-.265-1.018-.397-1.64-.397s-1.169.132-1.64.397c-.471.265-.834.641-1.091,1.129-.256.488-.385,1.051-.385,1.69v5.374c0,.639.128,1.203.385,1.69.257.488.62.864,1.091,1.129.471.265,1.018.397,1.64.397s1.168-.132,1.64-.397Z" fill="#ccc"/>
      <path d="M266.068,141.091h13.447v3.33h-13.447v-3.33ZM271.063,142.592h3.457v16.84h-3.457v-16.84Z" fill="#ccc"/>
      <path d="M282.335,141.091h3.456v18.341h-3.456v-18.341ZM283.936,148.672h10.685v3.331h-10.685v-3.331ZM292.376,141.091h3.456v18.341h-3.456v-18.341Z" fill="#ccc"/>
      <path d="M232.123,177.034h3.558l3.898,12.236,3.897-12.236h3.558l-6.105,18.341h-2.7l-6.105-18.341Z" fill="#ccc"/>
      <path d="M250.168,198.857h-3.28l8.199-23.993h3.28l-8.199,23.993Z" fill="#ccc"/>
      <path d="M263.684,194.764c-1.001-.534-1.762-1.312-2.283-2.333-.522-1.022-.782-2.252-.782-3.69v-11.706h3.456v11.794c0,1.051.282,1.867.845,2.447.563.58,1.358.87,2.384.87,1.035,0,1.835-.29,2.403-.87.567-.581.851-1.396.851-2.447v-11.794h3.457v11.706c0,1.438-.263,2.668-.789,3.69-.525,1.021-1.291,1.8-2.296,2.333-1.005.534-2.213.801-3.626.801s-2.62-.267-3.62-.801Z" fill="#ccc"/>
      <path d="M278.349,177.034h3.456v18.341h-3.456v-18.341ZM279.95,184.616h10.685v3.331h-10.685v-3.331ZM288.39,177.034h3.456v18.341h-3.456v-18.341Z" fill="#ccc"/>
      <path d="M296.684,177.034h3.456v18.341h-3.456v-18.341ZM297.945,177.034h10.785v3.33h-10.785v-3.33ZM297.945,184.767h9.398v3.331h-9.398v-3.331Z" fill="#ccc"/>
      <path d="M319.011,192.26l6.295-8.275c.285-.37.506-.75.662-1.142.155-.391.233-.754.233-1.091v-.025c0-.496-.16-.878-.479-1.148-.319-.269-.773-.404-1.362-.404-.572,0-1.034.188-1.388.562-.354.375-.567.906-.644,1.596v.013h-3.544v-.013c.075-1.144.351-2.127.826-2.952.475-.824,1.116-1.453,1.924-1.886.807-.433,1.74-.65,2.8-.65,1.144,0,2.121.188,2.933.562s1.43.919,1.854,1.633c.425.715.638,1.577.638,2.586v.013c0,.833-.146,1.659-.436,2.479s-.696,1.562-1.218,2.227l-4.516,5.702h6.27v3.33h-10.849v-3.116Z" fill="#ccc"/>
    </g>
    <g>
      <rect x="234.243" y="229.404" width="190.274" height="148.258" fill="none"/>
      <path d="M236.261,258.418h3.456v18.342h-3.456v-18.342ZM237.775,273.43h5.853c.791,0,1.402-.191,1.835-.574.433-.383.649-.919.649-1.608v-.038c0-.462-.097-.857-.29-1.186s-.478-.578-.852-.75c-.374-.173-.822-.259-1.343-.259h-5.853v-3.33h5.853c.715,0,1.268-.181,1.659-.543.391-.361.586-.87.586-1.526,0-.588-.195-1.047-.586-1.375s-.944-.491-1.659-.491h-5.853v-3.331h5.966c1.186,0,2.199.196,3.04.587s1.48.959,1.917,1.703c.438.744.656,1.638.656,2.681,0,.715-.141,1.348-.423,1.898s-.692,1.003-1.23,1.355c-.538.354-1.186.593-1.942.72.807.109,1.499.355,2.075.737.576.383,1.013.882,1.312,1.495.299.614.448,1.324.448,2.132v.038c0,1.051-.221,1.951-.663,2.699-.441.749-1.085,1.318-1.93,1.709-.845.392-1.861.587-3.046.587h-6.181v-3.33Z" fill="#ccc"/>
      <path d="M253.738,258.418h3.456v18.342h-3.456v-18.342ZM255.252,273.43h5.853c.791,0,1.402-.191,1.835-.574.433-.383.649-.919.649-1.608v-.038c0-.462-.097-.857-.29-1.186s-.478-.578-.852-.75c-.374-.173-.822-.259-1.343-.259h-5.853v-3.33h5.853c.715,0,1.268-.181,1.659-.543.391-.361.586-.87.586-1.526,0-.588-.195-1.047-.586-1.375s-.944-.491-1.659-.491h-5.853v-3.331h5.966c1.186,0,2.199.196,3.04.587s1.48.959,1.917,1.703c.438.744.656,1.638.656,2.681,0,.715-.141,1.348-.423,1.898s-.692,1.003-1.23,1.355c-.538.354-1.186.593-1.942.72.807.109,1.499.355,2.075.737.576.383,1.013.882,1.312,1.495.299.614.448,1.324.448,2.132v.038c0,1.051-.221,1.951-.663,2.699-.441.749-1.085,1.318-1.93,1.709-.845.392-1.861.587-3.046.587h-6.181v-3.33Z" fill="#ccc"/>
      <path d="M241.509,294.362h2.195l7.014,18.342h-3.721l-4.39-12.526-4.39,12.526h-3.721l7.014-18.342ZM237.863,306.434h9.65v3.33h-9.65v-3.33Z" fill="#ccc"/>
      <path d="M255.592,312.092c-1.001-.534-1.762-1.312-2.283-2.334-.522-1.021-.782-2.252-.782-3.689v-11.707h3.456v11.795c0,1.052.282,1.867.845,2.447s1.358.87,2.384.87c1.035,0,1.835-.29,2.403-.87.567-.58.851-1.396.851-2.447v-11.795h3.457v11.707c0,1.438-.263,2.668-.789,3.689-.525,1.021-1.291,1.8-2.296,2.334-1.005.533-2.213.801-3.626.801s-2.62-.268-3.62-.801Z" fill="#ccc"/>
      <path d="M267.986,294.362h13.447v3.331h-13.447v-3.331ZM272.981,295.864h3.457v16.84h-3.457v-16.84Z" fill="#ccc"/>
      <path d="M286.555,312.054c-1.014-.56-1.798-1.35-2.353-2.372-.555-1.021-.833-2.205-.833-3.551v-5.197c0-1.345.278-2.529.833-3.551.555-1.021,1.339-1.812,2.353-2.371,1.013-.56,2.184-.839,3.513-.839s2.5.279,3.513.839c1.014.559,1.798,1.35,2.353,2.371.555,1.021.833,2.206.833,3.551v5.197c0,1.346-.278,2.529-.833,3.551-.555,1.022-1.339,1.812-2.353,2.372-1.013.56-2.184.839-3.513.839s-2.5-.279-3.513-.839ZM291.708,309.039c.471-.266.834-.642,1.091-1.13.256-.487.385-1.051.385-1.689v-5.374c0-.64-.128-1.203-.385-1.69-.257-.487-.621-.864-1.091-1.129-.471-.265-1.018-.397-1.64-.397s-1.169.133-1.64.397c-.471.265-.834.642-1.091,1.129-.256.487-.385,1.051-.385,1.69v5.374c0,.639.128,1.202.385,1.689.257.488.62.864,1.091,1.13.471.265,1.018.396,1.64.396s1.168-.132,1.64-.396Z" fill="#ccc"/>
      <path d="M236.261,330.305h3.456v18.342h-3.456v-18.342ZM238.002,345.317h4.402c1.135,0,2.014-.273,2.636-.82.623-.546.934-1.32.934-2.321v-5.398c0-1.001-.311-1.774-.934-2.321-.622-.547-1.501-.819-2.636-.819h-4.402v-3.331h4.327c1.53,0,2.836.257,3.917.77,1.081.514,1.903,1.262,2.466,2.246.563.983.845,2.169.845,3.557v5.197c0,1.32-.271,2.473-.813,3.456-.542.984-1.356,1.75-2.441,2.296-1.085.547-2.414.82-3.986.82h-4.314v-3.33Z" fill="#ccc"/>
      <path d="M253.763,330.305h3.456v18.342h-3.456v-18.342ZM255.34,338.202h5.866c.412,0,.776-.095,1.091-.284.315-.189.561-.456.738-.801s.265-.74.265-1.187c0-.454-.086-.855-.258-1.204s-.417-.618-.732-.808-.683-.283-1.104-.283h-5.866v-3.331h5.777c1.144,0,2.151.233,3.021.7.871.467,1.545,1.125,2.025,1.975.479.85.719,1.833.719,2.951s-.24,2.101-.719,2.946c-.479.845-1.154,1.499-2.025,1.961-.87.463-1.877.694-3.021.694h-5.777v-3.33Z" fill="#ccc"/>
    </g>
    <circle cx="185.588" cy="155.26" r="38.752" fill="none" stroke="#ccc" stroke-miterlimit="10" stroke-width="3"/>
    <circle cx="186.149" cy="154.699" r="30.327" fill="none" stroke="#ccc" stroke-miterlimit="10" stroke-width="3"/>
    <rect x="163.685" y="87.304" width="44.929" height="42.683" fill="#ccc" stroke="#ccc" stroke-miterlimit="10"/>
    <path d="M208.614,129.987h-44.929l6.775,27.1c.371,8.666,7.494,15.583,16.251,15.583,8.995,0,16.287-7.292,16.287-16.287,0-.051-.007-.1-.008-.151l5.624-26.245Z" fill="none" stroke="#ccc" stroke-miterlimit="10" stroke-width="3"/>
    <circle cx="186.558" cy="310.575" r="38.752" fill="none" stroke="#ccc" stroke-miterlimit="10" stroke-width="3"/>
    <circle cx="187.12" cy="310.014" r="30.327" fill="none" stroke="#ccc" stroke-miterlimit="10" stroke-width="3"/>
    <path d="M208.614,278.255l-43.806,1.123,6.622,33.024c.371,8.666,7.494,15.583,16.251,15.583,8.995,0,16.287-7.292,16.287-16.287,0-.051-.007-.1-.008-.151l4.653-33.292Z" fill="none" stroke="#ccc" stroke-miterlimit="10" stroke-width="3"/>
    <circle cx="186.711" cy="275.447" r="21.903" fill="#ccc" stroke="#ccc" stroke-miterlimit="10"/>
    <circle cx="398.63" cy="158.262" r="38.752" fill="none" stroke="#ccc" stroke-miterlimit="10" stroke-width="3"/>
    <circle cx="399.192" cy="157.701" r="30.327" fill="none" stroke="#ccc" stroke-miterlimit="10" stroke-width="3"/>
    <path d="M420.686,125.942l-43.806,1.123,6.622,33.024c.371,8.666,7.494,15.583,16.251,15.583,8.995,0,16.287-7.292,16.287-16.287,0-.051-.007-.1-.008-.151l4.653-33.292Z" fill="none" stroke="#ccc" stroke-miterlimit="10" stroke-width="3"/>
    <circle cx="398.783" cy="123.134" r="21.903" fill="#ccc" stroke="#ccc" stroke-miterlimit="10"/>
    <circle cx="397.879" cy="306.897" r="37.628" fill="none" stroke="#ccc" stroke-miterlimit="10" stroke-width="3"/>
    <line x1="362.498" y1="306.336" x2="388.332" y2="306.336" fill="none" stroke="#ccc" stroke-miterlimit="10" stroke-width="8"/>
  </g>
  <g id="b" data-name="Arrow_Dark">
    <path d="M597.024,714.208h48.062v7.774h-58.698v-7.747l10.22-11.153c5.356-5.967,10.271-11.437,14.935-16.412,2.317-2.316,4.638-5.026,6.881-7.646,2.344-2.732,11.708-13.271,11.708-13.271,1.062-1.069,1.66-1.823,2.061-2.321.237-.299.439-.54.606-.727,1.139-1.45,2.096-3.285,2.771-5.314.642-1.924.968-3.463.968-6.546,0-2.647-.548-5.271-1.628-7.798-.983-2.608-2.551-4.49-4.618-6.558-2.36-1.943-4.595-3.344-6.779-4.159-6.251-2.345-10.461-2.341-16.704,0-2.861,1.072-5.015,2.395-6.783,4.163-2.041,2.041-3.682,4.369-4.618,6.558l-7.145-3.063c1.337-3.121,3.506-6.231,6.266-8.991,2.551-2.546,5.672-4.489,9.552-5.943,7.953-2.993,14.192-2.993,22.165,0,3.977,1.492,7.203,3.973,9.287,5.706,2.55,2.531,5.1,5.415,6.593,9.396,1.434,3.332,2.192,6.986,2.192,10.694,0,4.09-.525,6.477-1.369,9.007-.976,2.931-2.413,5.633-4.151,7.806l-.532.634c-.521.653-1.303,1.629-2.477,2.799.008,0-9.154,10.309-11.46,12.999-2.34,2.729-4.758,5.551-7.199,7.992-4.544,4.848-9.419,10.278-14.736,16.198l-5.364,5.929-.004-.004Z" fill="#e3831f" stroke="#e3831f" stroke-miterlimit="10" stroke-width="3"/>
    <path d="M585.165,402.17l19.772-.264,2.756,188.629c-41.743,4.009-74.232,39.539-73.662,82.202.6,44.943,37.653,81.018,82.596,80.418,44.942-.6,81.018-37.653,80.417-82.596-.57-42.664-33.996-77.313-75.831-80.205l-2.756-188.629,19.772-.264-28.041-112.526-25.024,113.235ZM614.611,602.296c38.303-.512,69.768,30.124,70.28,68.427.512,38.303-30.124,69.768-68.427,70.28-38.303.512-69.768-30.124-70.28-68.427-.512-38.303,30.124-69.768,68.427-70.28Z" fill="#ccc" stroke="#161923" stroke-miterlimit="10" stroke-width="4"/>
  </g>
</svg>