<?xml version="1.0" encoding="UTF-8"?>
<svg xmlns="http://www.w3.org/2000/svg" width="2398.735" height="316.957" viewBox="0 0 2398.735 316.957">
  <g id="a" data-name="FTI_smoler_-_Dark">
    <path d="M2036.585,182.24c-.134.321-.277.636-.418.953.142-.316.282-.634.418-.953Z" fill="#ccc"/>
    <path d="M541.469,258.71c2.894,16.247,17.67,29.167,33.673,28.864,14.143-.267,28.294-.047,42.442-.047,339.339.017,1128.665.08,1183.99-.012,20.9-.035,34.071-11.428,37.149-32.139.77-5.184.674-10.523.678-15.791.038-49.201.016-98.402-.006-147.603-.002-5.701.013-11.406-.201-17.101-.346-9.169-3.465-17.178-9.751-24.076-7.771-8.529-17.289-12.286-28.7-12.268-48.143.076-1128.831.206-1221.319-.115-20.364-.071-36.155,14.355-38.47,32.283-.511,3.959-.531,8-.534,12.003-.047,54.902-.073,109.805-.021,164.707.004,3.768.409,7.581,1.07,11.295ZM549.034,83.526c.004-4.207-.028-8.529.867-12.598,3.316-15.075,16.364-23.724,30.226-23.677,76.86.263,869.546.06,1189.027.082,10.558,0,21.117-.011,31.673.127,16.929.221,29.407,12.656,29.709,29.707.179,10.132.038,20.271.036,30.406-.006,46.244.06,92.487-.126,138.73-.02,4.958-.87,10.128-2.456,14.821-3.619,10.71-15.139,17.861-26.585,17.829-76.65-.216-153.3-.104-229.95-.103-127.328.002-254.656,0-381.984,0v.021c-200.177,0-400.354,0-600.531,0-3.378,0-6.783-.289-10.131.029-13.313,1.267-28.829-9.511-29.658-28.138-.103-2.319-.128-4.644-.129-6.966-.013-53.423-.036-106.846.011-160.269Z" fill="#ccc"/>
    <path d="M566.163,246.323c.001,1.897-.034,3.824.264,5.685.953,5.938,4.18,8.794,10.288,9.052,4.006.17,8.023.106,12.035.106,200.183.004,400.367.003,600.55.003v-.03c198.494,0,396.988,0,595.483-.001,5.701,0,11.405.078,17.104-.06,7.579-.184,10.626-3.083,11.442-10.648.158-1.465.179-2.95.18-4.426.011-54.48.016-108.96.003-163.441,0-2.532.018-5.087-.298-7.59-.714-5.653-4.931-9.545-10.567-9.894-2.104-.13-4.222-.046-6.334-.046-396.144.011-792.288.023-1188.432.034-9.714,0-19.428-.076-29.14.002-7.268.058-11.361,3.649-12.31,10.859-.384,2.916-.335,5.901-.335,8.854.005,53.847.031,107.693.067,161.54Z" fill="none" stroke="#ccc" stroke-miterlimit="10" stroke-width="10"/>
  </g>
  <g id="b" data-name="Hold_Menu_-_Dark">
    <g>
      <rect x="360.435" y="83.278" width="1453.084" height="65.016" fill="none"/>
      <path d="M625.169,88.762v55.018h-4.723v-25.029h-27.627v25.029h-4.722v-55.018h4.722v25.266h27.627v-25.266h4.723Z" fill="#ccc" stroke="#ccc" stroke-miterlimit="10" stroke-width="2"/>
      <path d="M670.994,94.094c1.088,2.184,1.665,4.673,1.665,7.197v25.737c0,2.526-.576,5.016-1.665,7.195-1.025,2.05-2.569,3.967-4.59,5.697-1.807,1.507-3.748,2.529-5.792,3.062-1.865.681-3.877,1.025-6.135,1.047h-.236c-2.524-.02-4.539-.359-6.496-1.094-2.134-.803-4.031-1.889-5.644-3.232-2.047-1.755-3.591-3.672-4.614-5.717-1.091-2.18-1.667-4.668-1.667-7.195v-25.737c0-2.526.579-5.016,1.667-7.195,1.022-2.05,2.569-3.965,4.59-5.697,1.804-1.505,3.745-2.527,5.79-3.061,1.924-.704,4.012-1.049,6.371-1.049,2.534,0,4.8.369,6.734,1.096,2.13.799,4.026,1.887,5.641,3.23,1.794,1.537,3.218,3.402,4.378,5.715h.002ZM667.931,127.027v-25.738c0-1.795-.403-3.554-1.166-5.084-.883-1.764-1.899-3.104-3.202-4.222-1.181-.982-2.621-1.802-4.25-2.413-1.386-.52-3.138-.794-5.074-.794-1.858,0-3.398.253-4.838.794l-.257.08c-1.398.35-2.749,1.062-4.017,2.12-1.516,1.299-2.675,2.721-3.415,4.201-.765,1.53-1.168,3.287-1.168,5.084v25.735c0,1.797.406,3.557,1.168,5.084.737,1.479,1.896,2.899,3.438,4.222,1.181.982,2.621,1.802,4.252,2.416,1.436.538,2.966.784,4.949.793,1.807-.009,3.308-.262,4.728-.793l.255-.08c1.398-.35,2.751-1.062,4.021-2.121,1.514-1.299,2.673-2.72,3.412-4.2.763-1.525,1.167-3.285,1.167-5.082l-.002-.002Z" fill="#ccc" stroke="#ccc" stroke-miterlimit="10" stroke-width="2"/>
      <path d="M719.189,139.308v4.723h-35.892v-57.38h4.723v52.657h31.169Z" fill="#ccc" stroke="#ccc" stroke-miterlimit="10" stroke-width="2"/>
      <path d="M766.709,105.746v16.293c0,3.232-.55,6.312-1.587,8.904-.984,2.718-2.52,5.152-4.534,7.169-1.523,1.785-3.473,3.188-5.684,4.038-2.177,1.071-4.401,1.612-6.614,1.612h-18.418v-59.977h18.418c2.441,0,4.718.543,6.958,1.665,2.316,1.159,4.177,2.583,5.698,4.354,1.507,1.5,2.874,3.776,4.177,7.037,1.075,2.951,1.584,5.842,1.584,8.904ZM761.986,105.746c0-2.536-.406-4.831-1.275-7.221-1.032-2.576-2.066-4.35-3.23-5.514-1.239-1.436-2.581-2.453-4.345-3.337-1.591-.796-3.131-1.166-4.845-1.166h-13.695v50.531h13.695c1.511,0,3.062-.395,4.612-1.169l.227-.099c1.525-.569,2.831-1.509,3.995-2.867,1.646-1.657,2.81-3.511,3.587-5.646.831-2.08,1.275-4.619,1.275-7.221v-16.293Z" fill="#ccc" stroke="#ccc" stroke-miterlimit="10" stroke-width="2"/>
      <path d="M818.653,88.776v50.532h11.57v4.723h-27.863v-4.723h11.57v-50.532h-11.57v-4.723h27.863v4.723h-11.57Z" fill="#ccc" stroke="#ccc" stroke-miterlimit="10" stroke-width="2"/>
      <path d="M877.735,86.421v57.38h-4.723v-48.055l-11.126,19.955h-5.136l-11.129-19.955v48.055h-4.722v-57.38h4.928l13.49,24.188,13.49-24.188h4.928Z" fill="#ccc" stroke="#ccc" stroke-miterlimit="10" stroke-width="2"/>
      <path d="M925.22,111.656l-.243,32.106-4.723-.035.134-17.93h-27.289v17.946h-4.723v-32.098l16.182-25.284h4.475l16.187,25.294ZM920.424,121.073l.062-8.055-13.691-21.391-13.695,21.397v8.048h27.325Z" fill="#ccc" stroke="#ccc" stroke-miterlimit="10" stroke-width="2"/>
      <path d="M956.634,111.655h17.001v17.001c0,1.773,0,4.456-1.54,6.919l-.21.318c-.923,1.394-1.877,2.834-4.083,4.21-1.089.826-3.757,2.108-5.615,2.806-1.965.736-4.243,1.096-6.968,1.096s-5.003-.359-6.968-1.096c-2.416-.907-4.392-1.993-5.877-3.23-2.085-1.561-3.452-3.474-4.657-5.159l-.196-.324c-1.091-2.179-1.667-4.668-1.667-7.194v-25.975c0-2.883.621-5.164,2.012-7.391,1.112-2.25,3.23-4.227,4.715-5.502,1.75-1.457,3.861-2.248,5.901-3.013,1.967-.739,4.248-1.098,6.973-1.098s5.003.358,6.968,1.096c1.825.682,3.766,1.61,5.773,2.755l.246.161c2.425,1.82,4.17,3.771,5.181,5.792l-4.224,2.113c-.666-1.332-1.901-2.689-3.674-4.038-1.719-.973-3.431-1.787-4.958-2.361-1.426-.535-3.162-.795-5.311-.795s-3.887.257-5.311.793c-1.754.659-3.407,1.277-4.515,2.201-1.148.986-2.81,2.521-3.648,4.2-1.018,1.648-1.405,3.11-1.405,5.084v25.975c0,1.735.377,3.433,1.091,4.925,1.067,1.49,2.092,2.893,3.634,4.048,1.157.958,2.718,1.802,4.607,2.51,1.426.536,3.162.796,5.311.796s3.884-.26,5.311-.794c1.799-.675,3.917-1.759,4.607-2.275,1.5-.949,2.023-1.736,2.812-2.929l.179-.271c.784-1.256.784-2.904.784-4.356v-12.278h-12.279v-4.718Z" fill="#ccc" stroke="#ccc" stroke-miterlimit="10" stroke-width="2"/>
      <path d="M989.038,88.745v19.362h17.001v4.723h-17.001v26.21h30.933v4.723h-35.655v-59.74h35.655v4.723h-30.933Z" fill="#ccc" stroke="#ccc" stroke-miterlimit="10" stroke-width="2"/>
      <path d="M1172.309,139.244v4.723h-15.112v-4.723h5.195v-48.461l-3.69,3.056-3.011-3.639,7.502-6.208h3.922v55.252h5.195Z" fill="#ccc" stroke="#ccc" stroke-miterlimit="10" stroke-width="2"/>
      <path d="M1343.218,94.094c1.089,2.184,1.665,4.673,1.665,7.197v25.737c0,2.526-.576,5.016-1.665,7.195-1.024,2.05-2.568,3.967-4.59,5.697-1.807,1.507-3.747,2.529-5.792,3.062-1.866.681-3.878,1.025-6.135,1.047h-.236c-2.524-.02-4.538-.359-6.496-1.094-2.135-.803-4.03-1.889-5.644-3.232-2.047-1.755-3.592-3.672-4.613-5.717-1.092-2.18-1.668-4.668-1.668-7.195v-25.737c0-2.526.579-5.016,1.668-7.195,1.021-2.05,2.568-3.965,4.59-5.697,1.804-1.505,3.745-2.527,5.79-3.061,1.925-.704,4.012-1.049,6.37-1.049,2.534,0,4.801.369,6.735,1.096,2.13.799,4.025,1.887,5.641,3.23,1.795,1.537,3.219,3.402,4.378,5.715h.002ZM1340.155,127.027v-25.738c0-1.795-.403-3.554-1.166-5.084-.884-1.764-1.898-3.104-3.202-4.222-1.181-.982-2.621-1.802-4.25-2.413-1.387-.52-3.139-.794-5.075-.794-1.857,0-3.397.253-4.838.794l-.257.08c-1.398.35-2.749,1.062-4.017,2.12-1.517,1.299-2.676,2.721-3.415,4.201-.765,1.53-1.169,3.287-1.169,5.084v25.735c0,1.797.406,3.557,1.169,5.084.737,1.479,1.896,2.899,3.438,4.222,1.181.982,2.621,1.802,4.253,2.416,1.436.538,2.965.784,4.949.793,1.806-.009,3.308-.262,4.727-.793l.255-.08c1.398-.35,2.751-1.062,4.021-2.121,1.514-1.299,2.673-2.72,3.412-4.2.763-1.525,1.167-3.285,1.167-5.082l-.003-.002Z" fill="#ccc" stroke="#ccc" stroke-miterlimit="10" stroke-width="2"/>
      <path d="M1360.244,91.123v19.362h15.349v4.723h-15.349v28.571h-4.723v-57.379h35.656v4.723h-30.934Z" fill="#ccc" stroke="#ccc" stroke-miterlimit="10" stroke-width="2"/>
      <path d="M1537.079,115.986c.893,2.085,1.329,6.113,1.329,8.148,0,2.178,0,3.615-1.024,7.457-.904,3.61-2.758,6.04-4.153,7.436-1.561,1.559-4.543,3.549-6.999,4.163-2.316.779-6.1.779-8.13.779-2.399,0-6.558-1.353-8.25-2.078-1.981-.85-5.7-3.357-7.96-5.364l3.138-3.53c1.977,1.757,5.327,3.972,6.683,4.555,1.559.668,5.006,1.698,6.39,1.698,1.639,0,5.049,0,6.81-.588,1.512-.386,3.757-1.75,4.98-2.974.973-.97,2.271-2.678,2.921-5.277.873-3.277.873-4.217.873-6.273,0-2.097-.479-5.205-.989-6.393-.58-1.539-1.286-2.711-2.477-4.139-1.037-1.245-2.168-2.135-3.365-2.647-1.485-.638-3.058-1.228-4.5-1.228h-6.376v-5.144l14.031-15.872h-21.587v-4.723h26.683v6.085l-13.195,14.928h.444c2.302,0,4.508.812,6.361,1.608,1.887.81,3.615,2.145,5.133,3.965,1.537,1.842,2.503,3.459,3.232,5.404l-.002.003Z" fill="#ccc" stroke="#ccc" stroke-miterlimit="10" stroke-width="2"/>
      <path d="M1584.212,94.032c1.091,2.177,1.667,4.666,1.667,7.195v25.737c0,2.529-.576,5.021-1.667,7.197-1.02,2.045-2.564,3.96-4.588,5.695-1.807,1.505-3.747,2.529-5.792,3.063-1.865.68-3.875,1.024-6.135,1.046h-.236c-2.524-.02-4.536-.359-6.496-1.094-2.13-.801-4.025-1.887-5.641-3.232-2.05-1.755-3.594-3.672-4.616-5.717-1.091-2.177-1.667-4.666-1.667-7.192v-25.738c0-2.526.578-5.015,1.667-7.194,1.022-2.045,2.566-3.963,4.59-5.695,1.807-1.507,3.748-2.529,5.792-3.062,1.93-.704,4.015-1.049,6.371-1.049,2.529,0,4.794.366,6.732,1.093,2.13.799,4.025,1.887,5.644,3.233,1.797,1.537,3.221,3.402,4.378,5.714h-.003ZM1553.765,100.991v23.292l27.096-25.691c-.196-.859-.488-1.684-.871-2.448-.881-1.764-1.898-3.105-3.202-4.223-1.181-.984-2.621-1.804-4.25-2.415-1.387-.52-3.141-.794-5.074-.794-1.856,0-3.394.253-4.839.794l-.255.08c-1.4.35-2.751,1.062-4.021,2.12-1.519,1.302-2.675,2.723-3.414,4.201-.766,1.53-1.169,3.287-1.169,5.084ZM1581.159,126.968v-22.146l-26.834,25.442c.17.536.366,1.059.611,1.552.739,1.479,1.896,2.899,3.44,4.222,1.181.982,2.619,1.802,4.251,2.416,1.436.538,2.966.784,4.949.793,1.804-.009,3.308-.262,4.725-.793l.255-.08c1.4-.35,2.751-1.063,4.021-2.121,1.516-1.301,2.673-2.723,3.412-4.2.765-1.528,1.169-3.285,1.169-5.084Z" fill="#ccc" stroke="#ccc" stroke-miterlimit="10" stroke-width="2"/>
    </g>
    <g>
      <rect x="549.017" y="171.54" width="1263.876" height="73.053" fill="none"/>
      <path d="M593.237,181.028v19.362h17.001v4.723h-17.001v26.21h30.933v4.723h-35.655v-59.74h35.655v4.723h-30.933Z" fill="#ccc" stroke="#ccc" stroke-miterlimit="10" stroke-width="2"/>
      <path d="M665.277,209.813c.654,3.257.363,6.066.257,6.857v19.431h-4.723l.034-19.986c.002-.016.385-2.491-.222-5.524-.378-2.796-1.355-4.789-3.018-6.244-1.235-1.079-3.592-1.775-6.002-1.775-2.042,0-4.128.746-5.871,2.102-3.601,3.034-5.463,7.192-5.463,12.302v19.127h-4.723v-19.127c0-.144.019-.277.021-.42l-.255.007s-.238-9.726-.238-12.81c0-1.554-.229-5.001-.229-5.036l4.711-.314c.01.148.241,3.639.241,5.351v.331c.864-1.105,1.849-2.14,2.966-3.082,2.639-2.054,5.751-3.151,8.84-3.151,3.597,0,7.001,1.102,9.109,2.946,2.525,2.21,4.062,5.244,4.565,9.02v-.002Z" fill="#ccc" stroke="#ccc" stroke-miterlimit="10" stroke-width="2"/>
      <path d="M711.043,235.365h-4.723v-1.181l-.038-4.444c-3.152,3.878-7.677,6.331-12.711,6.331-9.504,0-17.237-8.688-17.237-19.363s7.733-19.361,17.237-19.361c4.912,0,9.339,2.33,12.482,6.046l-.203-23.263,4.722-.042.473,55.274-.002.003ZM706.087,216.708c0-8.072-5.613-14.64-12.515-14.64s-12.515,6.567-12.515,14.64,5.616,14.641,12.515,14.641,12.515-6.566,12.515-14.641Z" fill="#ccc" stroke="#ccc" stroke-miterlimit="10" stroke-width="2"/>
      <path d="M883.563,198.029v16.293c0,3.232-.55,6.312-1.587,8.904-.984,2.718-2.52,5.152-4.534,7.169-1.523,1.785-3.473,3.188-5.684,4.038-2.177,1.071-4.401,1.612-6.614,1.612h-18.418v-59.977h18.418c2.441,0,4.718.543,6.958,1.665,2.316,1.159,4.177,2.583,5.698,4.354,1.507,1.5,2.874,3.776,4.177,7.037,1.075,2.951,1.584,5.842,1.584,8.904ZM878.841,198.029c0-2.536-.406-4.831-1.275-7.221-1.032-2.576-2.066-4.35-3.23-5.514-1.239-1.436-2.581-2.453-4.345-3.337-1.591-.796-3.131-1.166-4.845-1.166h-13.695v50.531h13.695c1.511,0,3.062-.395,4.612-1.169l.227-.099c1.525-.569,2.831-1.509,3.995-2.867,1.646-1.657,2.81-3.511,3.587-5.646.831-2.08,1.275-4.619,1.275-7.221v-16.293Z" fill="#ccc" stroke="#ccc" stroke-miterlimit="10" stroke-width="2"/>
      <path d="M927.027,217.644h-28.089c.269,8.593,5.428,13.695,13.922,13.695,4.25,0,7.277-.759,8.784-1.247,1.421-.701,2.189-.965,2.274-.994l.749,2.241.76,2.236c-.087.03-.697.255-1.83.821l-.307.127c-2.104.702-5.62,1.538-10.43,1.538-11.332,0-18.654-7.509-18.654-19.127,0-12.715,6.621-20.307,17.709-20.307,12.422,0,15.112,14.954,15.112,18.654v2.361ZM922.021,212.921c-.78-4.14-3.372-11.57-10.107-11.57-8.753,0-11.868,5.637-12.718,11.57h22.825Z" fill="#ccc" stroke="#ccc" stroke-miterlimit="10" stroke-width="2"/>
      <path d="M937.665,236.091v-55.254h4.722v55.254h-4.722Z" fill="#ccc" stroke="#ccc" stroke-miterlimit="10" stroke-width="2"/>
      <path d="M1064.944,178.703v57.38h-4.723v-48.055l-11.126,19.955h-5.136l-11.129-19.955v48.055h-4.722v-57.38h4.928l13.49,24.188,13.49-24.188h4.928Z" fill="#ccc" stroke="#ccc" stroke-miterlimit="10" stroke-width="2"/>
      <path d="M1104.921,234.207h-4.722v-.144c-.257-.481-.439-.973-.555-1.879-2.099,2.035-4.736,3.372-7.794,3.882-.574.065-1.133.099-1.686.099-2.371,0-4.636-.606-7.493-1.938-1.334-.659-4.399-2.179-6.104-5.872-1.546-3.71-.864-7.192-.618-8.175,1.039-5.75,5.45-8.644,7.109-9.731l.246-.16c.64-.484,1.346-.811,1.915-1.072.248-.113.484-.21.685-.345l.461-.24c3.249-1.25,7.447-1.861,12.774-1.854-.326-1.629-1.297-2.986-1.557-3.246l-.172-.193c-1.376-1.723-3.112-2.293-3.764-2.508-1.783-.487-3.615-.478-5.922.032-1.887.378-3.455.914-4.713,1.344l-.72.246c-.392.158-.805.368-1.168.55-.524.264-.978.481-1.428.631l-1.495-4.479c.257-.086.51-.225.81-.373.465-.231.994-.496,1.657-.761l.817-.281c1.391-.475,3.119-1.065,5.264-1.495,1.873-.413,4.814-.875,8.168.038,1.114.364,3.867,1.271,6.108,4.02.944,1.003,2.647,3.559,2.942,6.781l.005,1.867h.005c0,.163.014.501.033.977.115,2.887.179,6.016.065,8.972.01.582.019,1.192.031,1.76.054,2.819.105,5.459.105,7.892,0,2.635.133,3.221.159,3.312.179.303.39.725.517,1.492l.033.862.002-.008ZM1091.203,231.396c2.848-.479,5.164-2.021,6.757-4.571.503-.776,1.188-2.792,1.391-8.045-.043-2.323-.078-4.742-.087-7.278-4.593-.102-8.329.48-11.003,1.465-.328.196-.685.365-1.065.54-.438.204-.821.378-1.166.639l-.383.256c-1.421.931-4.375,2.87-5.086,6.775-.099.422-.667,2.886.329,5.282.973,2.1,2.812,3.011,3.698,3.45,3.209,1.499,4.899,1.674,6.614,1.487h.002Z" fill="#ccc" stroke="#ccc" stroke-miterlimit="10" stroke-width="2"/>
      <path d="M1126.105,199.739c2.572-1.429,5.162-1.429,7.67-1.429v4.723c-2.165,0-3.875,0-5.466.883-1.353.678-2.26,1.854-3.396,3.674-2.463,4.191-4.125,7.818-4.125,11.736v16.765h-4.723v-29.988c0-.973-.279-4.942-.465-7.375l4.708-.36c.04.555.373,4.881.458,6.965.038-.061.07-.127.108-.188,1.299-2.078,2.741-4.158,5.23-5.402v-.002Z" fill="#ccc" stroke="#ccc" stroke-miterlimit="10" stroke-width="2"/>
      <path d="M1172.799,234.852v1.485h-3.325l-.938.692-14.084-19.132-5.266,5.672v12.531h-4.722v-55.018h4.722v35.544l17.396-18.734.713.664h3.378v1.872l-12.951,13.948,15.077,20.475Z" fill="#ccc" stroke="#ccc" stroke-miterlimit="10" stroke-width="2"/>
      <path d="M1494.301,189.58c.935,2.177,1.372,4.125,1.372,6.125,0,2.075-.475,4.273-1.372,6.363-.789,1.837-2.089,3.743-3.57,5.223-1.364,1.365-3.572,3.187-6.352,4.114-2.583,1.157-5.582,1.301-7.597,1.301h-13.456v23.377h-4.724v-57.615h17.946c2.841,0,5.32.515,7.809,1.62,2.558,1.14,4.643,2.535,6.376,4.267,1.48,1.479,2.781,3.383,3.57,5.226h-.003ZM1489.966,200.206c.646-1.507.989-3.063.989-4.501,0-1.358-.305-2.674-.989-4.265-.546-1.272-1.53-2.708-2.569-3.747-1.337-1.334-2.911-2.381-4.956-3.292-1.887-.839-3.702-1.212-5.89-1.212h-13.223v24.794h13.457c2.553,0,4.366-.3,5.889-.978,1.7-.579,3.299-1.632,4.721-3.053,1.041-1.041,2.025-2.475,2.568-3.747h.003Z" fill="#ccc" stroke="#ccc" stroke-miterlimit="10" stroke-width="2"/>
      <path d="M1516.83,199.739c2.571-1.429,5.162-1.429,7.669-1.429v4.723c-2.165,0-3.874,0-5.466.883-1.354.678-2.26,1.854-3.396,3.674-2.463,4.191-4.126,7.818-4.126,11.736v16.765h-4.722v-29.988c0-.973-.279-4.942-.466-7.375l4.709-.36c.04.555.373,4.881.458,6.965.038-.061.071-.127.108-.188,1.299-2.078,2.741-4.158,5.23-5.402v-.002Z" fill="#ccc" stroke="#ccc" stroke-miterlimit="10" stroke-width="2"/>
      <path d="M1568.01,217.644h-28.09c.27,8.593,5.429,13.695,13.922,13.695,4.251,0,7.278-.759,8.784-1.247,1.421-.701,2.188-.965,2.274-.994l.748,2.241.761,2.236c-.088.03-.697.255-1.83.821l-.308.127c-2.104.702-5.619,1.538-10.43,1.538-11.331,0-18.654-7.509-18.654-19.127,0-12.715,6.621-20.307,17.71-20.307,12.423,0,15.112,14.954,15.112,18.654v2.361ZM1563.004,212.921c-.779-4.14-3.371-11.57-10.106-11.57-8.753,0-11.868,5.637-12.718,11.57h22.824Z" fill="#ccc" stroke="#ccc" stroke-miterlimit="10" stroke-width="2"/>
      <path d="M1608.637,195.687v9.074l-24.348,31.304h-5.642v-40.378h4.723v33.865l20.544-26.411v-7.454h4.723Z" fill="#ccc" stroke="#ccc" stroke-miterlimit="10" stroke-width="2"/>
      <path d="M1656.155,178.38v57.665h-4.686l-27.429-48.583v48.543h-4.723v-57.379h5.157l26.957,47.745v-47.991h4.723Z" fill="#ccc" stroke="#ccc" stroke-miterlimit="10" stroke-width="2"/>
      <path d="M1699.618,217.644h-28.09c.27,8.593,5.429,13.695,13.922,13.695,4.251,0,7.278-.759,8.784-1.247,1.421-.701,2.188-.965,2.274-.994l.748,2.241.761,2.236c-.088.03-.697.255-1.83.821l-.308.127c-2.104.702-5.619,1.538-10.43,1.538-11.331,0-18.654-7.509-18.654-19.127,0-12.715,6.621-20.307,17.71-20.307,12.423,0,15.112,14.954,15.112,18.654v2.361ZM1694.612,212.921c-.779-4.14-3.371-11.57-10.106-11.57-8.754,0-11.868,5.637-12.718,11.57h22.824Z" fill="#ccc" stroke="#ccc" stroke-miterlimit="10" stroke-width="2"/>
      <path d="M1740.242,200.009l-12.11,17.319,12.11,17.32v1.452h-3.372l-.923.645-10.697-15.296-10.696,15.296-.923-.645h-3.375v-1.452l12.113-17.32-12.113-17.319v-1.452h3.375l.923-.646,10.696,15.297,10.697-15.297.923.646h3.372v1.452Z" fill="#ccc" stroke="#ccc" stroke-miterlimit="10" stroke-width="2"/>
      <path d="M1762.733,203.26v22.195c0,1.861.435,3.587,1.107,4.393.791.923,2.866,1.511,4.324,1.511,1.422,0,2.939-.555,2.956-.56l.394-.148h1.136v4.245l.123.326c-.023.009-.066.023-.123.045v.105h-.316c-.776.251-2.434.709-4.172.709-2.588,0-6.045-.985-7.931-3.186-2.005-2.408-2.22-6.004-2.22-7.44v-22.195h-7.085v-4.724h7.085v-10.39h4.722v10.39h10.626v4.724h-10.626Z" fill="#ccc" stroke="#ccc" stroke-miterlimit="10" stroke-width="2"/>
    </g>
  </g>
</svg>