<?xml version="1.0" encoding="UTF-8"?>
<svg id="b" data-name="Heading_Scale_-_Dark" xmlns="http://www.w3.org/2000/svg" width="2061.538" height="216.432" viewBox="0 0 2061.538 216.432">
  <g id="c" data-name="CompassMarker">
    <path id="d" data-name="path98" d="M1027.46,41.862h24.701l-24.701,49.402-24.701-49.402h24.701Z" fill="none" stroke="#ccc" stroke-miterlimit="10" stroke-width="6"/>
  </g>
  <rect id="e" data-name="CmdCue" x="1013.381" y="99.11" width="13.339" height="42.98" fill="none" stroke="#ccc" stroke-miterlimit="10" stroke-width="6"/>
  <line x1="644.261" y1="95.732" x2="644.261" y2="142.09" fill="none" stroke="#ccc" stroke-miterlimit="10" stroke-width="6"/>
  <line x1="908.261" y1="95.732" x2="908.261" y2="142.09" fill="none" stroke="#ccc" stroke-miterlimit="10" stroke-width="6"/>
  <line x1="1169.652" y1="95.732" x2="1169.652" y2="142.09" fill="none" stroke="#ccc" stroke-miterlimit="10" stroke-width="6"/>
  <line x1="1430.522" y1="95.732" x2="1430.522" y2="142.09" fill="none" stroke="#ccc" stroke-miterlimit="10" stroke-width="6"/>
  <line x1="773.652" y1="91.265" x2="773.652" y2="118.911" fill="none" stroke="#ccc" stroke-miterlimit="10" stroke-width="6"/>
  <line x1="1300.609" y1="95.732" x2="1300.609" y2="118.911" fill="none" stroke="#ccc" stroke-miterlimit="10" stroke-width="6"/>
  <g>
    <path d="M641.082,149.318v26.086c0,4.436-3.909,8.041-8.716,8.041h-12.79c-4.888,0-8.716-3.533-8.716-8.041v-26.086c0-4.436,3.909-8.041,8.716-8.041h12.79c4.808,0,8.716,3.605,8.716,8.041ZM634.709,149.318c0-.92-1.051-1.671-2.343-1.671h-12.79c-1.342,0-2.342.882-2.342,1.671v26.086c0,.92,1.051,1.671,2.342,1.671h12.79c1.342,0,2.343-.882,2.343-1.671v-26.086Z" fill="#ccc"/>
    <path d="M674.46,177.063c1.76,0,3.187,1.427,3.187,3.187s-1.427,3.187-3.187,3.187h-23.849c-.439,0-.861-.093-1.241-.253-.025-.009-.042-.034-.067-.046-.367-.165-.697-.393-.971-.676-.013-.012-.029-.017-.042-.029-.114-.118-.161-.27-.249-.401-.139-.199-.292-.384-.38-.612-.089-.232-.11-.473-.144-.717-.025-.156-.093-.292-.093-.452,0-.017.008-.034.008-.051.004-.262.084-.511.152-.764.042-.147.046-.312.105-.452.055-.131.165-.236.241-.359.139-.232.274-.468.469-.658.013-.013.029-.042.029-.042l18.15-17.011c2.744-2.579,4.242-5.373,4.111-7.665-.088-1.604-.975-3.01-2.697-4.293-1.161-.857-2.815-1.313-4.765-1.313-3.761,0-6.703.642-8.856,3.77-.996,1.457-2.976,1.819-4.432.823-1.448-.996-1.815-2.98-.819-4.432,4.491-6.53,11.477-6.53,14.107-6.53,3.322,0,6.281.886,8.56,2.562,4.103,3.06,5.128,6.61,5.268,9.054.24,4.238-1.929,8.737-6.117,12.676l-12.274,11.506h15.791l.004-.008Z" fill="#ccc"/>
  </g>
  <g>
    <path d="M905.841,149.318v26.086c0,4.436-3.909,8.041-8.716,8.041h-12.79c-4.888,0-8.716-3.533-8.716-8.041v-26.086c0-4.436,3.909-8.041,8.716-8.041h12.79c4.808,0,8.716,3.605,8.716,8.041ZM899.468,149.318c0-.92-1.051-1.671-2.343-1.671h-12.79c-1.342,0-2.342.882-2.342,1.671v26.086c0,.92,1.051,1.671,2.342,1.671h12.79c1.342,0,2.343-.882,2.343-1.671v-26.086Z" fill="#ccc"/>
    <path d="M938.526,160.753c1.385.35,2.406,1.6,2.406,3.09s-1.021,2.739-2.406,3.09v13.33c0,1.76-1.427,3.187-3.187,3.187s-3.187-1.427-3.187-3.187v-13.237h-16.779c-1.245,0-2.376-.718-2.896-1.849-.523-1.131-.338-2.46.469-3.406l16.546-19.375c.604-.709,1.49-1.119,2.423-1.119h3.419c1.76,0,3.187,1.427,3.187,3.187v16.28l.004.009ZM932.148,149.098l-9.864,11.553h9.864v-11.553Z" fill="#ccc"/>
  </g>
  <g>
    <path d="M1166.473,149.316v26.086c0,4.436-3.908,8.041-8.716,8.041h-12.79c-4.888,0-8.717-3.533-8.717-8.041v-26.086c0-4.436,3.909-8.041,8.717-8.041h12.79c4.808,0,8.716,3.605,8.716,8.041ZM1160.1,149.316c0-.92-1.052-1.671-2.343-1.671h-12.79c-1.343,0-2.343.882-2.343,1.671v26.086c0,.92,1.051,1.671,2.343,1.671h12.79c1.342,0,2.343-.882,2.343-1.671v-26.086Z" fill="#ccc"/>
    <path d="M1187.652,156.18c9.202,0,15.386,5.47,15.386,13.613,0,8.02-6.327,13.617-15.386,13.617s-14.837-5.344-14.837-13.617c0-.194.047-.363.051-.553-.008-.088-.051-.16-.051-.249,0-4.381,3.913-13.305,7.695-19.408,2.532-4.094,4.217-5.774,5.698-7.256,1.245-1.245,3.322-1.305,4.567-.059,1.245,1.245,1.305,3.208.059,4.449l-.118.118c-1.358,1.355-2.638,2.638-4.786,6.104-.747,1.199-1.423,2.415-2.06,3.622,1.194-.228,2.439-.384,3.781-.384v.004ZM1196.664,169.788c0-6.534-6.303-7.239-9.013-7.239-3.862,0-8.463,1.258-8.463,7.239,0,4.673,3.006,7.243,8.463,7.243,5.56,0,9.013-2.773,9.013-7.243Z" fill="#ccc"/>
  </g>
  <g>
    <path d="M1427.374,149.32v26.086c0,4.436-3.908,8.041-8.716,8.041h-12.79c-4.888,0-8.717-3.533-8.717-8.041v-26.086c0-4.436,3.909-8.041,8.717-8.041h12.79c4.808,0,8.716,3.605,8.716,8.041ZM1421.001,149.32c0-.92-1.052-1.671-2.343-1.671h-12.79c-1.343,0-2.343.882-2.343,1.671v26.086c0,.92,1.051,1.671,2.343,1.671h12.79c1.342,0,2.343-.882,2.343-1.671v-26.086Z" fill="#ccc"/>
    <path d="M1463.897,155.74c0,1.845-.688,3.647-1.921,5.107,1.233,1.465,1.921,3.263,1.921,5.107v9.206c0,2.25-1.009,4.432-2.769,5.981-1.655,1.464-3.858,2.271-6.201,2.271h-12.241c-2.292,0-4.55-.828-6.196-2.271-1.79-1.579-2.773-3.702-2.773-5.981v-9.206c0-1.845.688-3.647,1.921-5.107-1.236-1.469-1.921-3.271-1.921-5.107v-6.205c0-2.25,1.009-4.432,2.77-5.981,1.658-1.469,3.862-2.275,6.2-2.275h12.241c2.301,0,4.559.828,6.201,2.271,1.789,1.583,2.769,3.706,2.769,5.981v6.209ZM1457.523,165.947c0-.422-.24-.87-.654-1.237l-.78-.684h-14.571l-.785.688c-.405.363-.646.81-.646,1.232v9.206c0,.435.207.835.611,1.194.486.426,1.229.684,1.984.684h12.241c.772,0,1.498-.245,1.983-.68.389-.338.616-.785.616-1.199v-9.206ZM1440.094,149.535v6.205c0,.422.241.874.659,1.25l.768.671h14.575l.79-.688c.4-.359.642-.811.642-1.232v-6.205c0-.439-.207-.844-.616-1.203-.481-.422-1.225-.679-1.984-.679h-12.241c-.772,0-1.494.249-1.979.679h-.004c-.385.338-.612.785-.612,1.199l.004.004Z" fill="#ccc"/>
  </g>
</svg>