<?xml version="1.0" encoding="UTF-8"?>
<svg xmlns="http://www.w3.org/2000/svg" width="2559.13" height="2460" viewBox="0 0 2559.13 2460">
  <g id="b" data-name="HUD_Placeholder_-_Dark">
    <path d="M2061.887,571.278c-76.815-76.815-183.061-183.061-183.061-183.061H683.783l-254.739,254.739v1425.43s1710.391,0,1710.391,0V648.826l-77.548-77.548Z" fill="none" stroke="#ccc" stroke-miterlimit="10" stroke-width="20"/>
  </g>
  <g id="c" data-name="HUD_Placeholder_-_Dark">
    <g>
      <rect x="820.614" y="1005.696" width="929.739" height="438.261" fill="none"/>
      <path d="M1016.745,1203.741c2.449,2.449,3.803,5.732,3.803,9.235v12.145c0,3.449-1.388,6.812-3.803,9.234-2.462,2.456-5.745,3.811-9.235,3.811h-24.595v23.247c0,2.782-2.255,5.038-5.038,5.038s-5.038-2.256-5.038-5.038v-56.45c0-2.783,2.255-5.038,5.038-5.038h29.626c3.45,0,6.813,1.388,9.235,3.81l.007.007ZM1010.473,1212.963c0-.834-.287-1.542-.854-2.102-.541-.547-1.328-.868-2.108-.868h-24.595v18.089h24.595c.827,0,1.528-.293,2.102-.867.541-.534.861-1.321.861-2.102v-12.151Z" fill="#ccc"/>
      <path d="M1078.315,1261.413c0,2.782-2.255,5.038-5.038,5.038h-37.7c-2.782,0-5.038-2.256-5.038-5.038v-56.45c0-2.783,2.255-5.038,5.038-5.038s5.038,2.255,5.038,5.038v51.412h32.662c2.783,0,5.038,2.256,5.038,5.038Z" fill="#ccc"/>
      <path d="M1133.114,1215.852c1.969,2.389,3.069,5.425,3.069,8.527v37.033c0,2.782-2.255,5.038-5.038,5.038s-5.038-2.256-5.038-5.038v-23.188h-27.691v23.188c0,2.782-2.255,5.038-5.038,5.038s-5.038-2.256-5.038-5.038v-37.033c0-3.042,1.048-5.965,3.023-8.467l8.461-10.336c6.025-7.213,18.91-7.173,24.855-.034l8.441,10.31h-.007ZM1098.43,1228.143h27.698v-3.77c0-.774-.273-1.508-.78-2.122l-8.428-10.296c-2.022-2.422-7.233-2.462-9.315.04l-8.374,10.243c-.714.887-.801,1.655-.801,2.142v3.764Z" fill="#ccc"/>
      <path d="M1186.096,1252.572c2.349-1.488,5.458-.814,6.959,1.534s.814,5.458-1.535,6.96l-3.87,2.469c-3.189,1.969-6.713,2.989-10.249,2.989h-12.345c-4.204,0-8.314-1.395-11.57-3.937-4.584-3.504-7.347-9.115-7.347-14.98v-28.699c0-5.865,2.756-11.477,7.38-15.007,3.223-2.509,7.333-3.904,11.537-3.904h12.345c3.683,0,7.24,1.041,10.282,3.01l3.843,2.449c2.342,1.501,3.03,4.611,1.535,6.959-1.501,2.335-4.611,3.029-6.96,1.535l-3.87-2.469c-1.435-.934-3.096-1.415-4.831-1.415h-12.345c-1.968,0-3.883.641-5.378,1.808-2.182,1.668-3.463,4.291-3.463,7.033v28.699c0,2.742,1.281,5.365,3.43,7.006,1.535,1.188,3.45,1.835,5.418,1.835h12.344c1.668,0,3.356-.5,4.891-1.454l3.81-2.429-.013.007Z" fill="#ccc"/>
      <path d="M1246.574,1256.368c2.783,0,5.038,2.256,5.038,5.038s-2.255,5.038-5.038,5.038h-37.7c-2.782,0-5.038-2.256-5.038-5.038v-56.45c0-2.783,2.255-5.038,5.038-5.038h37.7c2.783,0,5.038,2.255,5.038,5.038s-2.255,5.038-5.038,5.038h-32.662v18.157h25.589c2.782,0,5.038,2.255,5.038,5.037s-2.255,5.038-5.038,5.038h-25.589v18.149h32.662v-.007Z" fill="#ccc"/>
      <path d="M1309.345,1204.963v56.45c0,2.782-2.256,5.038-5.038,5.038s-5.038-2.256-5.038-5.038v-23.188h-27.558v23.188c0,2.782-2.255,5.038-5.038,5.038s-5.038-2.256-5.038-5.038v-56.45c0-2.783,2.255-5.038,5.038-5.038s5.038,2.255,5.038,5.038v23.193h27.558v-23.193c0-2.783,2.256-5.038,5.038-5.038s5.038,2.255,5.038,5.038Z" fill="#ccc"/>
      <path d="M1367.038,1212.636v41.17c0,7.013-6.173,12.711-13.772,12.711h-20.158c-7.594,0-13.772-5.698-13.772-12.711v-41.17c0-7.013,6.173-12.711,13.772-12.711h20.158c7.594,0,13.772,5.698,13.772,12.711ZM1356.968,1212.636c0-1.435-1.694-2.643-3.703-2.643h-20.158c-2.122,0-3.703,1.395-3.703,2.643v41.17c0,1.407,1.729,2.642,3.703,2.642h20.158c2.122,0,3.703-1.395,3.703-2.642v-41.17Z" fill="#ccc"/>
      <path d="M1424.81,1261.413c0,2.782-2.256,5.038-5.038,5.038h-37.7c-2.782,0-5.038-2.256-5.038-5.038v-56.45c0-2.783,2.256-5.038,5.038-5.038s5.038,2.255,5.038,5.038v51.412h32.662c2.782,0,5.038,2.256,5.038,5.038Z" fill="#ccc"/>
      <path d="M1477.531,1208.653c3.257,4.01,5.078,9.161,5.078,14.459v20.211c0,5.285-1.762,10.29-5.098,14.479-4.511,5.552-11.097,8.715-18.09,8.715h-19.551c-2.782,0-5.038-2.255-5.038-5.038v-56.45c0-2.782,2.256-5.104,5.038-5.104h19.551c7.046,0,13.819,3.263,18.109,8.734v-.006ZM1472.533,1223.119c0-2.99-1.021-5.892-2.875-8.174-2.449-3.123-6.253-4.944-10.236-4.944h-14.513v46.448h14.513c3.891,0,7.721-1.848,10.236-4.95,1.868-2.35,2.875-5.191,2.875-8.168v-20.211Z" fill="#ccc"/>
      <path d="M1535.37,1256.368c2.782,0,5.038,2.256,5.038,5.038s-2.256,5.038-5.038,5.038h-37.7c-2.782,0-5.038-2.256-5.038-5.038v-56.45c0-2.783,2.256-5.038,5.038-5.038h37.7c2.782,0,5.038,2.255,5.038,5.038s-2.256,5.038-5.038,5.038h-32.662v18.157h25.589c2.783,0,5.038,2.255,5.038,5.037s-2.255,5.038-5.038,5.038h-25.589v18.149h32.662v-.007Z" fill="#ccc"/>
      <path d="M1598.135,1225.127c0,3.45-1.388,6.813-3.804,9.235-2.215,2.209-5.098,3.463-8.2,3.71l11.39,20.945c1.328,2.442.421,5.498-2.021,6.826-.761.42-1.588.614-2.396.614-1.788,0-3.517-.954-4.431-2.636l-13.952-25.656h-14.213v23.247c0,2.782-2.256,5.038-5.038,5.038s-5.038-2.256-5.038-5.038v-56.45c0-2.783,2.256-5.038,5.038-5.038h29.62c3.443,0,6.806,1.388,9.229,3.803,2.469,2.469,3.816,5.752,3.816,9.242v12.157ZM1588.059,1212.963c0-.834-.293-1.542-.86-2.115-.534-.527-1.328-.854-2.108-.854h-24.589v18.089h24.589c.827,0,1.534-.293,2.108-.867.54-.534.86-1.321.86-2.102v-12.151Z" fill="#ccc"/>
    </g>
  </g>
</svg>