<?xml version="1.0" encoding="UTF-8"?>
<svg xmlns="http://www.w3.org/2000/svg" width="1320.196" height="1198.109" viewBox="0 0 1320.196 1198.109">
  <g id="f" data-name="PTID_-_Dark">
    <g>
      <rect x="-1010.99" y="-1055.367" width="1580" height="1589" fill="none" stroke="#ccc" stroke-miterlimit="10" stroke-width="3"/>
      <rect x="-1028.045" y="-1080.867" width="1610.609" height="1643" rx="37.742" ry="37.742" fill="none" stroke="#ccc" stroke-miterlimit="10" stroke-width="8"/>
      <rect x="638.944" y="23.597" width="116" height="12" rx="6" ry="6" transform="translate(1393.889 59.194) rotate(-180)" fill="none" stroke="#ccc" stroke-miterlimit="10" stroke-width="5"/>
      <g>
        <rect x="649.444" y="79.097" width="94" height="96" transform="translate(1392.889 254.194) rotate(-180)" fill="none" stroke="#ccc" stroke-miterlimit="10" stroke-width="8"/>
        <polyline points="650.944 179.097 747.944 179.097 747.944 81.097" fill="none" stroke="#ccc" stroke-miterlimit="10" stroke-width="12"/>
        <polygon points="660.445 126.597 708.444 112.097 708.444 123.097 734.444 123.097 734.444 131.097 708.444 131.097 708.444 141.097 660.445 126.597" fill="#ccc"/>
        <rect x="638.944" y="215.597" width="116" height="12" rx="6" ry="6" transform="translate(1393.889 443.194) rotate(180)" fill="none" stroke="#ccc" stroke-miterlimit="10" stroke-width="5"/>
      </g>
      <g>
        <rect x="652.944" y="270.097" width="94" height="96" transform="translate(1399.889 636.194) rotate(-180)" fill="none" stroke="#ccc" stroke-miterlimit="10" stroke-width="8"/>
        <polyline points="653.444 372.097 750.444 372.097 750.444 274.097" fill="none" stroke="#ccc" stroke-miterlimit="10" stroke-width="12"/>
        <polygon points="663.945 317.597 711.944 303.097 711.944 314.097 737.944 314.097 737.944 322.097 711.944 322.097 711.944 332.097 663.945 317.597" fill="#ccc"/>
      </g>
      <rect x="-29.556" y="651.187" width="116" height="12" rx="6" ry="6" transform="translate(-628.743 685.632) rotate(-90)" fill="none" stroke="#ccc" stroke-miterlimit="10" stroke-width="5"/>
      <g>
        <rect x="78.944" y="608.687" width="94" height="96" transform="translate(-530.743 782.632) rotate(-90)" fill="none" stroke="#ccc" stroke-miterlimit="10" stroke-width="8"/>
        <polygon points="125.444 620.688 110.944 668.688 121.944 668.688 121.944 694.687 129.944 694.687 129.944 668.688 139.944 668.688 125.444 620.688" fill="#ccc"/>
        <rect x="162.444" y="651.187" width="116" height="12" rx="6" ry="6" transform="translate(-436.743 877.632) rotate(-90)" fill="none" stroke="#ccc" stroke-miterlimit="10" stroke-width="5"/>
      </g>
      <g>
        <rect x="269.944" y="609.187" width="94" height="96" transform="translate(-340.243 974.132) rotate(-90)" fill="none" stroke="#ccc" stroke-miterlimit="10" stroke-width="8"/>
        <polygon points="316.444 621.188 301.944 669.188 312.944 669.188 312.944 695.187 320.944 695.187 320.944 669.188 330.944 669.188 316.444 621.188" fill="#ccc"/>
      </g>
      <polyline points="82.01 711.8 179.01 711.8 179.01 613.8" fill="none" stroke="#ccc" stroke-miterlimit="10" stroke-width="12"/>
      <polyline points="275.01 711.8 372.01 711.8 372.01 613.8" fill="none" stroke="#ccc" stroke-miterlimit="10" stroke-width="12"/>
    </g>
    <path d="M-1324.351-1330.976H888.761V379.644c0,282.905-229.34,512.245-512.245,512.245H-811.955c-279.895,0-507.006-226.499-507.762-506.392l-4.634-1716.472Z" fill="none" stroke="#ccc" stroke-miterlimit="10" stroke-width="14"/>
    <circle cx="826.494" cy="285.721" r="34.51" fill="none" stroke="#ccc" stroke-miterlimit="10" stroke-width="2"/>
    <polygon points="823.493 263.215 830.995 263.215 830.995 282.72 849 282.72 849 291.723 830.995 291.723 830.995 309.728 823.493 309.728 823.493 291.723 803.988 291.723 803.988 282.72 821.993 282.72 821.993 263.215 823.493 263.215" fill="none" stroke="#ccc" stroke-miterlimit="10" stroke-width="2"/>
    <circle cx="436.386" cy="834.873" r="34.51" fill="none" stroke="#ccc" stroke-miterlimit="10" stroke-width="2"/>
    <polygon points="433.385 812.367 440.887 812.367 440.887 831.872 458.892 831.872 458.892 840.875 440.887 840.875 440.887 858.88 433.385 858.88 433.385 840.875 413.88 840.875 413.88 831.872 431.885 831.872 431.885 812.367 433.385 812.367" fill="none" stroke="#ccc" stroke-miterlimit="10" stroke-width="2"/>
    <path d="M782.97,272.857l.161-.569c3.531-9.414,10.63-17.057,19.757-21.271l2.243-1.035c4.83-2.229,10.087-3.384,15.406-3.384h67.27s-.138,37.264-.138,37.264v38.25h-67.271c-5.321,0-10.578-1.155-15.409-3.385l-2.238-1.033c-9.129-4.214-16.228-11.857-19.757-21.271l-.352-1.398c-1.836-7.29-1.722-14.935.329-22.168Z" fill="none" stroke="#ccc" stroke-miterlimit="10" stroke-width="4"/>
    <path d="M665.95,797.363h-238.609c-17.378,0-31.466,14.088-31.466,31.466v66.061" fill="none" stroke="#ccc" stroke-miterlimit="10" stroke-width="4"/>
  </g>
  <g id="g" data-name="Cutout_Box_-_Dark">
    <rect x="8.543" y="8.543" width="917.217" height="932.87" fill="none" stroke="#ccc" stroke-miterlimit="10" stroke-width="17"/>
  </g>
  <g id="h" data-name="PTID_TAC_PAGE_NAV_DEST_-_Dark">
    <g>
      <rect x="498.513" y="239.282" width="37.043" height="165.392" fill="none"/>
      <path d="M524.043,262.84v20.254c0,2.353-1.907,4.26-4.26,4.26l-3.854-.009c-1.221-.002-3.034-.625-3.857-1.356-.914-.813-1.933-2.536-2.049-3.328-.034-.229.143-.433.373-.433h3.355c.205,0,.393.128.458.322.02.061.052.126.103.193.168.228.442.351.725.351h3.013c.958,0,1.734-.776,1.734-1.734v-18.52h4.26Z" fill="#ccc"/>
      <path d="M526.683,320.353h-3.794v-18.669l-5.795,5.852-5.926-5.852v18.669h-3.794v-24.542h3.794l5.926,5.873,5.795-5.873h3.794v24.542Z" fill="#ccc"/>
      <path d="M511.22,332.859v6.199h15.446v14.295h-19.274l.002-4.065h15.445v-6.198h-15.447v-14.262h19.274v4.031h-15.446Z" fill="#ccc"/>
      <path d="M526.682,386.351h-3.79v.002-.002h-.002v-.002l-11.723-17.628v17.63h-3.793v-24.534h3.793l11.723,17.588v-17.589h3.792v24.535Z" fill="#ccc"/>
    </g>
    <g>
      <rect x="497.542" y="50.412" width="37.043" height="165.392" fill="none"/>
      <path d="M525.74,86.179c0,6.772-5.466,12.301-12.239,12.301l-7.11.004-.004-24.547h7.09c6.773,0,12.264,5.469,12.264,12.242ZM521.619,86.19c0-4.336-2.615-8.133-6.95-8.133h-4.44l.065,16.34h4.456c4.335,0,6.869-3.873,6.869-8.207Z" fill="#ccc"/>
      <path d="M510.097,110.994v6.202l15.644.035v4.025l-15.637-.036v6.202l15.637.035v4.025l-19.334-.036v-4.024h.004v-6.202h-.004v-1.272h-.003v-12.943h.003v-.035h19.334v4.024h-15.644Z" fill="#ccc"/>
      <path d="M510.25,143.989v6.199h15.446v14.295h-19.274l.002-4.065h15.444v-6.198h-15.446v-14.262h19.274v4.031h-15.446Z" fill="#ccc"/>
      <path d="M525.714,176.733h-7.759v20.75h-3.792v-20.75h-7.759v-3.791h19.31v3.791Z" fill="#ccc"/>
    </g>
    <g>
      <rect x="145.645" y="49.688" width="60.308" height="32.348" fill="none"/>
      <path d="M167.914,64.56c0,1.513-.545,2.898-1.449,3.973.904,1.073,1.449,2.459,1.449,3.973v3.552c0,3.41-2.765,5.527-6.175,5.527h-10.235v.002h-4.009v-25.927h4.009v.003h10.235c3.41,0,6.175,2.765,6.175,6.175v2.723ZM151.504,60.031v6.3h10.235c.127,0,.253.005.377.013,1.013-.151,1.79-1.025,1.79-2.08v-2.129c0-1.161-.941-2.104-2.104-2.104h-10.299ZM163.906,75.761v-2.958c0-1.056-.778-1.93-1.792-2.08-.124.008-.249.013-.375.013h-10.235v6.481h10.299c1.162,0,2.104-.294,2.104-1.455h0Z" fill="#ccc"/>
      <path d="M188.631,72.108v9.479h-4.026v-9.587l-8.214-14.11,3.801-2.177,6.458,11.095,6.457-11.095,3.801,2.177-8.276,14.219Z" fill="#ccc"/>
    </g>
  </g>
  <g id="i" data-name="PTID_TAC_PAGE_LP_Steer_-_Dark">
    <g>
      <rect x="32.933" y="465.782" width="181.21" height="34.435" fill="none"/>
      <path d="M99.421,497.875h-14.153v-24.513h4.259v20.253h9.895v4.26Z" fill="#ccc"/>
      <path d="M124.456,479.163v2.968c0,3.227-2.615,5.841-5.841,5.842h-9.675v9.902h-3.793v-24.554h3.793s9.675,0,9.675,0c3.226,0,5.841,2.615,5.841,5.842ZM120.664,479.443c0-1.099-.891-1.989-1.989-1.989h-9.734v6.386h9.734c1.099,0,1.989-.891,1.989-1.989v-2.407Z" fill="#ccc"/>
      <path d="M161.809,487.615h0v10.259h-3.777s-14.162,0-14.162,0v-4.063h14.147v-6.243h-12.448v-4.005h12.449v-6.201h-14.16v-4.005h14.16v-.003h3.792v14.261Z" fill="#ccc"/>
    </g>
    <path d="M437.49,1107.469c1.33,3.108,2.033,6.37,2.033,9.433v17.151c0,3.066-.703,6.324-2.033,9.43-1.295,3.027-3.438,5.929-5.873,7.959-1.876,1.564-4.785,3.794-8.362,5.139-3.595,1.348-6.769,1.974-9.982,1.974-3.657,0-8.232-.791-11.379-1.971-3.493-1.312-6.304-3.062-8.597-5.355-2.205-1.816-4.344-4.718-5.643-7.745-.783-1.555-1.207-3.241-1.578-4.729l-.105-.851v-3.149h7.001v2.72c.283,1.127.56,2.121,1.028,3.062.963,2.236,2.395,4.183,4.012,5.53,1.827,1.806,3.766,2.996,6.339,3.962,2.359.882,6.114,1.526,8.922,1.526,2.38,0,4.7-.473,7.522-1.53,1.963-.738,3.979-1.995,6.338-3.962,1.614-1.348,3.046-3.297,3.924-5.341.959-2.24,1.467-4.547,1.467-6.672v-17.15c0-2.125-.508-4.432-1.467-6.675-.875-2.045-2.307-3.99-3.924-5.338-1.826-1.803-3.766-2.996-6.338-3.959l-1.071-.413c-1.957-.767-2.853-1.116-6.451-1.116-4.39,0-7.907.938-11.071,2.954-2.362,1.477-4.452,3.566-5.912,5.901l-1.028,1.645h-9.29v-40.602h52.854v7h-45.853v24.768c1.603-1.792,3.458-3.36,5.495-4.635,4.253-2.709,9.107-4.032,14.806-4.032,4.68,0,6.468.605,8.999,1.597l.98.378c3.492,1.309,6.304,3.059,8.596,5.352,2.202,1.816,4.344,4.715,5.643,7.742v.004Z" fill="#ff8500" stroke="#ff8500" stroke-miterlimit="10"/>
  </g>
  <g id="j" data-name="PTID_TAC_PAGE_NAV_LP_x2F_TGT_x2F_AUTO_x2F_OFLY_x2F_MAN_Arrows_-_Dark">
    <path d="M173.3,628.629l18.093-7.98,188.064,418.222c-36.846,20.023-52.842,65.432-35.624,104.471,18.138,41.125,66.352,59.826,107.477,41.687,41.124-18.138,59.825-66.352,41.687-107.477-17.218-39.039-61.537-57.846-101.168-44.138l-188.064-418.222,18.093-7.98-69.835-92.582,21.278,113.999ZM390.425,1046.987c35.049-15.458,75.993.423,91.451,35.471,15.458,35.049-.423,75.993-35.471,91.451-35.049,15.458-75.993-.423-91.451-35.471-15.458-35.049.423-75.993,35.471-91.451Z" fill="#ccc" stroke="#0d121e" stroke-miterlimit="10" stroke-width="4"/>
  </g>
</svg>