<?xml version="1.0" encoding="UTF-8"?>
<svg xmlns="http://www.w3.org/2000/svg" width="2398.735" height="316.957" viewBox="0 0 2398.735 316.957">
  <g id="a" data-name="FTI_smoler_-_Dark">
    <path d="M2036.585,182.24c-.134.321-.277.636-.418.953.142-.316.282-.634.418-.953Z" fill="#ccc"/>
    <path d="M541.469,258.71c2.894,16.247,17.67,29.167,33.673,28.864,14.143-.267,28.294-.047,42.442-.047,339.339.017,1128.665.08,1183.99-.012,20.9-.035,34.071-11.428,37.149-32.139.77-5.184.674-10.523.678-15.791.038-49.201.016-98.402-.006-147.603-.002-5.701.013-11.406-.201-17.101-.346-9.169-3.465-17.178-9.751-24.076-7.771-8.529-17.289-12.286-28.7-12.268-48.143.076-1128.831.206-1221.319-.115-20.364-.071-36.155,14.355-38.47,32.283-.511,3.959-.531,8-.534,12.003-.047,54.902-.073,109.805-.021,164.707.004,3.768.409,7.581,1.07,11.295ZM549.034,83.526c.004-4.207-.028-8.529.867-12.598,3.316-15.075,16.364-23.724,30.226-23.677,76.86.263,869.546.06,1189.027.082,10.558,0,21.117-.011,31.673.127,16.929.221,29.407,12.656,29.709,29.707.179,10.132.038,20.271.036,30.406-.006,46.244.06,92.487-.126,138.73-.02,4.958-.87,10.128-2.456,14.821-3.619,10.71-15.139,17.861-26.585,17.829-76.65-.216-153.3-.104-229.95-.103-127.328.002-254.656,0-381.984,0v.021c-200.177,0-400.354,0-600.531,0-3.378,0-6.783-.289-10.131.029-13.313,1.267-28.829-9.511-29.658-28.138-.103-2.319-.128-4.644-.129-6.966-.013-53.423-.036-106.846.011-160.269Z" fill="#ccc"/>
    <path d="M566.163,246.323c.001,1.897-.034,3.824.264,5.685.953,5.938,4.18,8.794,10.288,9.052,4.006.17,8.023.106,12.035.106,200.183.004,400.367.003,600.55.003v-.03c198.494,0,396.988,0,595.483-.001,5.701,0,11.405.078,17.104-.06,7.579-.184,10.626-3.083,11.442-10.648.158-1.465.179-2.95.18-4.426.011-54.48.016-108.96.003-163.441,0-2.532.018-5.087-.298-7.59-.714-5.653-4.931-9.545-10.567-9.894-2.104-.13-4.222-.046-6.334-.046-396.144.011-792.288.023-1188.432.034-9.714,0-19.428-.076-29.14.002-7.268.058-11.361,3.649-12.31,10.859-.384,2.916-.335,5.901-.335,8.854.005,53.847.031,107.693.067,161.54Z" fill="none" stroke="#ccc" stroke-miterlimit="10" stroke-width="10"/>
  </g>
  <g id="b" data-name="VTR_Control_Stby_-_Dark">
    <g>
      <rect x="557.652" y="83.278" width="1255.288" height="65.016" fill="none"/>
      <path d="M646.382,120.387c1.025,2.03,1.519,4.028,1.519,5.936,0,5.087-1.866,9.264-5.549,12.418-3.44,3.179-7.792,4.819-12.869,4.819h-.472c-4.787,0-9.197-1.702-13.108-5.055-3.055-2.586-3.95-4.869-4.6-6.536-.097-.243-.187-.478-.283-.701l4.34-1.863c.116.269.227.55.342.843.545,1.396,1.11,2.838,3.266,4.661,3.086,2.649,6.369,3.93,10.045,3.93h.473c3.905,0,7.091-1.186,9.73-3.625,2.728-2.338,3.965-5.143,3.965-8.891,0-1.161-.331-2.465-.933-3.667-.517-.848-1.268-1.967-2.267-2.633-1.147-.906-2.621-1.757-4.106-2.392-.964-.413-2.047-.746-3.304-1.131-.696-.215-1.424-.439-2.179-.689l-6.945-1.85c-3.743-1.149-6.441-2.881-8.338-5.317-2.057-2.643-3.098-5.75-3.098-9.242,0-4.318,1.792-8.023,5.322-11.013,3.355-3.099,7.164-4.574,11.917-4.574h.47c4.774.276,8.76,1.913,11.986,4.869,2.451,2.177,3.934,4.781,4.505,7.932l-4.649.841c-.385-2.128-1.315-3.752-3.02-5.269-2.43-2.227-5.438-3.449-8.961-3.657l-.333.005c-3.54,0-6.253,1.046-8.789,3.389-2.534,2.148-3.729,4.571-3.729,7.476,0,2.418.708,4.55,2.102,6.342,1.298,1.67,3.178,2.839,5.915,3.682l6.999,1.865c.857.278,1.547.491,2.208.694,1.332.408,2.585.793,3.783,1.306,1.882.806,3.714,1.87,5.032,2.924,1.61,1.064,2.744,2.715,3.618,4.172l-.005.003Z" fill="#ccc" stroke="#ccc" stroke-miterlimit="10" stroke-width="2"/>
      <path d="M693.052,91.226h-14.876v52.657h-4.722v-52.657h-14.876v-4.723h34.475v4.723Z" fill="#ccc" stroke="#ccc" stroke-miterlimit="10" stroke-width="2"/>
      <path d="M740.519,111.656l-.243,32.106-4.723-.035.134-17.93h-27.289v17.946h-4.723v-32.098l16.182-25.284h4.475l16.187,25.294ZM735.723,121.073l.062-8.055-13.691-21.391-13.695,21.397v8.048h27.325Z" fill="#ccc" stroke="#ccc" stroke-miterlimit="10" stroke-width="2"/>
      <path d="M787.989,86.098v57.665h-4.685l-27.429-48.583v48.543h-4.723v-57.379h5.157l26.956,47.745v-47.991h4.723Z" fill="#ccc" stroke="#ccc" stroke-miterlimit="10" stroke-width="2"/>
      <path d="M835.467,105.746v16.293c0,3.232-.55,6.312-1.587,8.904-.984,2.718-2.52,5.152-4.534,7.169-1.523,1.785-3.473,3.188-5.684,4.038-2.177,1.071-4.401,1.612-6.614,1.612h-18.418v-59.977h18.418c2.441,0,4.718.543,6.958,1.665,2.316,1.159,4.177,2.583,5.698,4.354,1.507,1.5,2.874,3.776,4.177,7.037,1.075,2.951,1.584,5.842,1.584,8.904ZM830.744,105.746c0-2.536-.406-4.831-1.275-7.221-1.032-2.576-2.066-4.35-3.23-5.514-1.239-1.436-2.581-2.453-4.345-3.337-1.591-.796-3.131-1.166-4.845-1.166h-13.695v50.531h13.695c1.511,0,3.062-.395,4.612-1.169l.227-.099c1.525-.569,2.831-1.509,3.995-2.867,1.646-1.657,2.81-3.511,3.587-5.646.831-2.08,1.275-4.619,1.275-7.221v-16.293Z" fill="#ccc" stroke="#ccc" stroke-miterlimit="10" stroke-width="2"/>
      <path d="M884.406,120.403c.699,1.852,1.372,4.08,1.372,7.304,0,3.339-.361,5.735-1.136,7.542-.923,2.468-2.158,4.26-3.735,5.386-1.471,1.394-3.45,2.293-5.754,2.614-1.906.515-3.736.515-5.667.515h-22.904v-28.774l-.472-.473v-30.966h22.43c1.948,0,3.839.288,5.469.829,1.958.557,3.965,1.724,5.41,3.169,1.479,1.478,2.782,3.381,3.57,5.223.699,1.861,1.372,4.09,1.372,7.309,0,3.186-.347,5.596-1.062,7.364-.569,2.111-1.863,4.145-3.497,5.493-.321.313-.666.588-1.016.848.612.42,1.178.848,1.658,1.246,1.646,1.37,3.088,3.327,3.965,5.37v.002ZM850.831,88.273v22.899h18.656c.688,0,1.379.076,2.069.149.529-.053,1.022-.125,1.436-.263l.453-.102c1.311-.163,2.27-.611,3.11-1.452l.196-.175c.699-.56,1.648-1.737,2.016-3.213l.121-.359c.5-1.164.753-3.074.753-5.679,0-2.458-.496-4.121-1.032-5.549-.505-1.169-1.49-2.604-2.529-3.644-.883-.884-2.179-1.63-3.466-1.998-1.232-.408-2.647-.616-4.073-.616h-17.709ZM880.26,133.491c.541-1.266.793-3.179.793-5.783,0-2.46-.494-4.118-1.03-5.544-.55-1.28-1.516-2.593-2.607-3.502-1.417-1.181-2.5-1.82-3.622-2.142-.706-.203-1.415-.352-2.123-.456-.937.071-1.9.073-2.895.073h-17.474v22.905h18.182c1.792,0,3.211,0,4.546-.383l.356-.073c1.417-.177,2.574-.681,3.346-1.452l.359-.295c.819-.546,1.528-1.642,2.168-3.352v.003Z" fill="#ccc" stroke="#ccc" stroke-miterlimit="10" stroke-width="2"/>
      <path d="M933.529,90.034l-16.293,21.96v31.807h-4.722v-31.815l-16.057-21.959v-1.243h3.008l1.261-.921,14.163,19.371,14.383-19.386,1.259.936h2.999v1.251Z" fill="#ccc" stroke="#ccc" stroke-miterlimit="10" stroke-width="2"/>
      <path d="M1434.492,124.061h-17.71v18.418h-4.723v-18.418h-17.71v-4.723h17.71v-18.418h4.723v18.418h17.71v4.723Z" fill="#ccc" stroke="#ccc" stroke-miterlimit="10" stroke-width="2"/>
      <path d="M1480.362,94.032c1.091,2.177,1.667,4.666,1.667,7.195v25.737c0,2.529-.576,5.021-1.667,7.197-1.02,2.045-2.564,3.96-4.588,5.695-1.807,1.505-3.747,2.529-5.792,3.063-1.865.68-3.875,1.024-6.135,1.046h-.236c-2.524-.02-4.536-.359-6.496-1.094-2.13-.801-4.025-1.887-5.641-3.232-2.05-1.755-3.594-3.672-4.616-5.717-1.091-2.177-1.667-4.666-1.667-7.192v-25.738c0-2.526.578-5.015,1.667-7.194,1.022-2.045,2.566-3.963,4.59-5.695,1.807-1.507,3.748-2.529,5.792-3.062,1.93-.704,4.015-1.049,6.371-1.049,2.529,0,4.794.366,6.732,1.093,2.13.799,4.025,1.887,5.644,3.233,1.797,1.537,3.221,3.402,4.378,5.714h-.003ZM1449.916,100.991v23.292l27.096-25.691c-.196-.859-.488-1.684-.871-2.448-.881-1.764-1.898-3.105-3.202-4.223-1.181-.984-2.621-1.804-4.25-2.415-1.387-.52-3.141-.794-5.074-.794-1.856,0-3.394.253-4.839.794l-.255.08c-1.4.35-2.751,1.062-4.021,2.12-1.519,1.302-2.675,2.723-3.414,4.201-.766,1.53-1.169,3.287-1.169,5.084ZM1477.309,126.968v-22.146l-26.834,25.442c.17.536.366,1.059.611,1.552.739,1.479,1.896,2.899,3.44,4.222,1.181.982,2.619,1.802,4.251,2.416,1.436.538,2.966.784,4.949.793,1.804-.009,3.308-.262,4.725-.793l.255-.08c1.4-.35,2.751-1.063,4.021-2.121,1.516-1.301,2.673-2.723,3.412-4.2.765-1.528,1.169-3.285,1.169-5.084Z" fill="#ccc" stroke="#ccc" stroke-miterlimit="10" stroke-width="2"/>
      <path d="M1527.84,94.032c1.091,2.177,1.667,4.666,1.667,7.195v25.737c0,2.529-.576,5.021-1.667,7.197-1.02,2.045-2.564,3.96-4.588,5.695-1.807,1.505-3.747,2.529-5.792,3.063-1.865.68-3.875,1.024-6.135,1.046h-.236c-2.524-.02-4.536-.359-6.496-1.094-2.13-.801-4.025-1.887-5.641-3.232-2.05-1.755-3.594-3.672-4.616-5.717-1.091-2.177-1.667-4.666-1.667-7.192v-25.738c0-2.526.578-5.015,1.667-7.194,1.022-2.045,2.566-3.963,4.59-5.695,1.807-1.507,3.748-2.529,5.792-3.062,1.93-.704,4.015-1.049,6.371-1.049,2.529,0,4.794.366,6.732,1.093,2.13.799,4.025,1.887,5.644,3.233,1.797,1.537,3.221,3.402,4.378,5.714h-.003ZM1497.393,100.991v23.292l27.096-25.691c-.196-.859-.488-1.684-.871-2.448-.881-1.764-1.898-3.105-3.202-4.223-1.181-.984-2.621-1.804-4.25-2.415-1.387-.52-3.141-.794-5.074-.794-1.856,0-3.394.253-4.839.794l-.255.08c-1.4.35-2.751,1.062-4.021,2.12-1.519,1.302-2.675,2.723-3.414,4.201-.766,1.53-1.169,3.287-1.169,5.084ZM1524.787,126.968v-22.146l-26.834,25.442c.17.536.366,1.059.611,1.552.739,1.479,1.896,2.899,3.44,4.222,1.181.982,2.619,1.802,4.251,2.416,1.436.538,2.966.784,4.949.793,1.804-.009,3.308-.262,4.725-.793l.255-.08c1.4-.35,2.751-1.063,4.021-2.121,1.516-1.301,2.673-2.723,3.412-4.2.765-1.528,1.169-3.285,1.169-5.084Z" fill="#ccc" stroke="#ccc" stroke-miterlimit="10" stroke-width="2"/>
      <path d="M1540.144,110.837c0-2.738,2.115-4.958,4.723-4.958s4.723,2.22,4.723,4.958-2.114,4.959-4.723,4.959-4.723-2.22-4.723-4.959ZM1540.144,138.464c0-2.738,2.115-4.958,4.723-4.958s4.723,2.22,4.723,4.958-2.114,4.959-4.723,4.959-4.723-2.22-4.723-4.959Z" fill="#ccc" stroke="#ccc" stroke-miterlimit="10" stroke-width="2"/>
      <path d="M1595.407,94.032c1.091,2.177,1.667,4.666,1.667,7.195v25.737c0,2.529-.576,5.021-1.667,7.197-1.02,2.045-2.564,3.96-4.588,5.695-1.807,1.505-3.747,2.529-5.792,3.063-1.865.68-3.875,1.024-6.135,1.046h-.236c-2.524-.02-4.536-.359-6.496-1.094-2.13-.801-4.025-1.887-5.641-3.232-2.05-1.755-3.594-3.672-4.616-5.717-1.091-2.177-1.667-4.666-1.667-7.192v-25.738c0-2.526.578-5.015,1.667-7.194,1.022-2.045,2.566-3.963,4.59-5.695,1.807-1.507,3.748-2.529,5.792-3.062,1.93-.704,4.015-1.049,6.371-1.049,2.529,0,4.794.366,6.732,1.093,2.13.799,4.025,1.887,5.644,3.233,1.797,1.537,3.221,3.402,4.378,5.714h-.003ZM1564.961,100.991v23.292l27.096-25.691c-.196-.859-.488-1.684-.871-2.448-.881-1.764-1.898-3.105-3.202-4.223-1.181-.984-2.621-1.804-4.25-2.415-1.387-.52-3.141-.794-5.074-.794-1.856,0-3.394.253-4.839.794l-.255.08c-1.4.35-2.751,1.062-4.021,2.12-1.519,1.302-2.675,2.723-3.414,4.201-.766,1.53-1.169,3.287-1.169,5.084ZM1592.354,126.968v-22.146l-26.834,25.442c.17.536.366,1.059.611,1.552.739,1.479,1.896,2.899,3.44,4.222,1.181.982,2.619,1.802,4.251,2.416,1.436.538,2.966.784,4.949.793,1.804-.009,3.308-.262,4.725-.793l.255-.08c1.4-.35,2.751-1.063,4.021-2.121,1.516-1.301,2.673-2.723,3.412-4.2.765-1.528,1.169-3.285,1.169-5.084Z" fill="#ccc" stroke="#ccc" stroke-miterlimit="10" stroke-width="2"/>
      <path d="M1642.885,94.032c1.091,2.177,1.667,4.666,1.667,7.195v25.737c0,2.529-.576,5.021-1.667,7.197-1.02,2.045-2.564,3.96-4.588,5.695-1.807,1.505-3.747,2.529-5.792,3.063-1.865.68-3.875,1.024-6.135,1.046h-.236c-2.524-.02-4.536-.359-6.496-1.094-2.13-.801-4.025-1.887-5.641-3.232-2.05-1.755-3.594-3.672-4.616-5.717-1.091-2.177-1.667-4.666-1.667-7.192v-25.738c0-2.526.578-5.015,1.667-7.194,1.022-2.045,2.566-3.963,4.59-5.695,1.807-1.507,3.748-2.529,5.792-3.062,1.93-.704,4.015-1.049,6.371-1.049,2.529,0,4.794.366,6.732,1.093,2.13.799,4.025,1.887,5.644,3.233,1.797,1.537,3.221,3.402,4.378,5.714h-.003ZM1612.438,100.991v23.292l27.096-25.691c-.196-.859-.488-1.684-.871-2.448-.881-1.764-1.898-3.105-3.202-4.223-1.181-.984-2.621-1.804-4.25-2.415-1.387-.52-3.141-.794-5.074-.794-1.856,0-3.394.253-4.839.794l-.255.08c-1.4.35-2.751,1.062-4.021,2.12-1.519,1.302-2.675,2.723-3.414,4.201-.766,1.53-1.169,3.287-1.169,5.084ZM1639.832,126.968v-22.146l-26.834,25.442c.17.536.366,1.059.611,1.552.739,1.479,1.896,2.899,3.44,4.222,1.181.982,2.619,1.802,4.251,2.416,1.436.538,2.966.784,4.949.793,1.804-.009,3.308-.262,4.725-.793l.255-.08c1.4-.35,2.751-1.063,4.021-2.121,1.516-1.301,2.673-2.723,3.412-4.2.765-1.528,1.169-3.285,1.169-5.084Z" fill="#ccc" stroke="#ccc" stroke-miterlimit="10" stroke-width="2"/>
      <path d="M1655.189,110.837c0-2.738,2.115-4.958,4.723-4.958s4.723,2.22,4.723,4.958-2.114,4.959-4.723,4.959-4.723-2.22-4.723-4.959ZM1655.189,138.464c0-2.738,2.115-4.958,4.723-4.958s4.723,2.22,4.723,4.958-2.114,4.959-4.723,4.959-4.723-2.22-4.723-4.959Z" fill="#ccc" stroke="#ccc" stroke-miterlimit="10" stroke-width="2"/>
      <path d="M1710.452,94.032c1.091,2.177,1.667,4.666,1.667,7.195v25.737c0,2.529-.576,5.021-1.667,7.197-1.02,2.045-2.564,3.96-4.588,5.695-1.807,1.505-3.747,2.529-5.792,3.063-1.865.68-3.875,1.024-6.135,1.046h-.236c-2.524-.02-4.536-.359-6.496-1.094-2.13-.801-4.025-1.887-5.641-3.232-2.05-1.755-3.594-3.672-4.616-5.717-1.091-2.177-1.667-4.666-1.667-7.192v-25.738c0-2.526.578-5.015,1.667-7.194,1.022-2.045,2.566-3.963,4.59-5.695,1.807-1.507,3.748-2.529,5.792-3.062,1.93-.704,4.015-1.049,6.371-1.049,2.529,0,4.794.366,6.732,1.093,2.13.799,4.025,1.887,5.644,3.233,1.797,1.537,3.221,3.402,4.378,5.714h-.003ZM1680.006,100.991v23.292l27.096-25.691c-.196-.859-.488-1.684-.871-2.448-.881-1.764-1.898-3.105-3.202-4.223-1.181-.984-2.621-1.804-4.25-2.415-1.387-.52-3.141-.794-5.074-.794-1.856,0-3.394.253-4.839.794l-.255.08c-1.4.35-2.751,1.062-4.021,2.12-1.519,1.302-2.675,2.723-3.414,4.201-.766,1.53-1.169,3.287-1.169,5.084ZM1707.399,126.968v-22.146l-26.834,25.442c.17.536.366,1.059.611,1.552.739,1.479,1.896,2.899,3.44,4.222,1.181.982,2.619,1.802,4.251,2.416,1.436.538,2.966.784,4.949.793,1.804-.009,3.308-.262,4.725-.793l.255-.08c1.4-.35,2.751-1.063,4.021-2.121,1.516-1.301,2.673-2.723,3.412-4.2.765-1.528,1.169-3.285,1.169-5.084Z" fill="#ccc" stroke="#ccc" stroke-miterlimit="10" stroke-width="2"/>
      <path d="M1757.93,94.032c1.091,2.177,1.667,4.666,1.667,7.195v25.737c0,2.529-.576,5.021-1.667,7.197-1.02,2.045-2.564,3.96-4.588,5.695-1.807,1.505-3.747,2.529-5.792,3.063-1.865.68-3.875,1.024-6.135,1.046h-.236c-2.524-.02-4.536-.359-6.496-1.094-2.13-.801-4.025-1.887-5.641-3.232-2.05-1.755-3.594-3.672-4.616-5.717-1.091-2.177-1.667-4.666-1.667-7.192v-25.738c0-2.526.578-5.015,1.667-7.194,1.022-2.045,2.566-3.963,4.59-5.695,1.807-1.507,3.748-2.529,5.792-3.062,1.93-.704,4.015-1.049,6.371-1.049,2.529,0,4.794.366,6.732,1.093,2.13.799,4.025,1.887,5.644,3.233,1.797,1.537,3.221,3.402,4.378,5.714h-.003ZM1727.483,100.991v23.292l27.096-25.691c-.196-.859-.488-1.684-.871-2.448-.881-1.764-1.898-3.105-3.202-4.223-1.181-.984-2.621-1.804-4.25-2.415-1.387-.52-3.141-.794-5.074-.794-1.856,0-3.394.253-4.839.794l-.255.08c-1.4.35-2.751,1.062-4.021,2.12-1.519,1.302-2.675,2.723-3.414,4.201-.766,1.53-1.169,3.287-1.169,5.084ZM1754.877,126.968v-22.146l-26.834,25.442c.17.536.366,1.059.611,1.552.739,1.479,1.896,2.899,3.44,4.222,1.181.982,2.619,1.802,4.251,2.416,1.436.538,2.966.784,4.949.793,1.804-.009,3.308-.262,4.725-.793l.255-.08c1.4-.35,2.751-1.063,4.021-2.121,1.516-1.301,2.673-2.723,3.412-4.2.765-1.528,1.169-3.285,1.169-5.084Z" fill="#ccc" stroke="#ccc" stroke-miterlimit="10" stroke-width="2"/>
    </g>
    <g>
      <path d="M613.589,181.488v19.362h17.001v4.723h-17.001v26.21h30.933v4.723h-35.655v-59.74h35.655v4.723h-30.933Z" fill="#ccc" stroke="#ccc" stroke-miterlimit="10" stroke-width="2"/>
      <path d="M685.629,210.274c.654,3.257.363,6.066.257,6.857v19.431h-4.723l.034-19.986c.002-.016.385-2.491-.222-5.524-.378-2.796-1.355-4.789-3.018-6.244-1.235-1.079-3.592-1.775-6.002-1.775-2.042,0-4.128.746-5.871,2.102-3.601,3.034-5.463,7.192-5.463,12.302v19.127h-4.723v-19.127c0-.144.019-.277.021-.42l-.255.007s-.238-9.726-.238-12.81c0-1.554-.229-5.001-.229-5.036l4.711-.314c.01.148.241,3.639.241,5.351v.331c.864-1.105,1.849-2.14,2.966-3.082,2.64-2.054,5.751-3.151,8.84-3.151,3.597,0,7.001,1.102,9.109,2.946,2.525,2.21,4.062,5.244,4.565,9.02v-.002Z" fill="#ccc" stroke="#ccc" stroke-miterlimit="10" stroke-width="2"/>
      <path d="M731.396,235.826h-4.723v-1.181l-.038-4.444c-3.152,3.878-7.677,6.331-12.711,6.331-9.504,0-17.237-8.688-17.237-19.363s7.733-19.361,17.237-19.361c4.912,0,9.339,2.33,12.482,6.046l-.203-23.263,4.723-.042.472,55.274-.002.003ZM726.44,217.169c0-8.072-5.613-14.64-12.515-14.64s-12.515,6.567-12.515,14.64,5.616,14.641,12.515,14.641,12.515-6.566,12.515-14.641Z" fill="#ccc" stroke="#ccc" stroke-miterlimit="10" stroke-width="2"/>
      <path d="M1240.649,212.586l13.639,22.591v1.367h-3.534l-.849.512-14.43-23.896c-.104,0-.212.007-.313.007h-13.227v23.377h-4.722v-57.616h17.709c2.726,0,5.422.563,7.81,1.621,2.562,1.14,4.646,2.535,6.375,4.267,1.402,1.4,2.441,3.218,3.447,4.975l.125.251c.936,2.187,1.373,4.132,1.373,6.125,0,2.068-.476,4.267-1.373,6.361-.79,1.842-2.095,3.747-3.572,5.225-1.365,1.365-3.572,3.187-6.352,4.114-.697.312-1.4.54-2.106.723v-.003ZM1221.935,183.651v24.794h13.227c2.653,0,4.304-.276,5.887-.978,1.7-.579,3.298-1.632,4.72-3.053,1.053-1.057,2.017-2.458,2.571-3.75.647-1.509.989-3.065.989-4.498,0-1.318-.29-2.6-.938-4.144-.869-1.519-1.688-2.936-2.62-3.868-1.335-1.334-2.91-2.381-4.956-3.292-1.785-.791-3.821-1.212-5.89-1.212h-12.99Z" fill="#ccc" stroke="#ccc" stroke-miterlimit="10" stroke-width="2"/>
      <path d="M1297.758,218.105h-28.089c.269,8.593,5.428,13.695,13.922,13.695,4.25,0,7.277-.759,8.783-1.247,1.422-.701,2.189-.965,2.274-.994l.749,2.241.76,2.236c-.088.03-.697.255-1.83.821l-.307.127c-2.104.702-5.62,1.538-10.43,1.538-11.332,0-18.654-7.509-18.654-19.127,0-12.715,6.62-20.307,17.709-20.307,12.423,0,15.112,14.954,15.112,18.654v2.361ZM1292.753,213.382c-.78-4.14-3.372-11.57-10.107-11.57-8.753,0-11.867,5.637-12.718,11.57h22.825Z" fill="#ccc" stroke="#ccc" stroke-miterlimit="10" stroke-width="2"/>
      <path d="M1336.245,229.87l1.917,4.316-1.305.578c-1.095,1.66-4.298,1.75-9.807,1.75-11.332,0-18.654-7.602-18.654-19.362,0-12.005,8.066-20.07,20.071-20.07,2.597,0,6.175.445,7.668,1.194.855.427,1.923.854,1.946.864l-1.757,4.382s-1.279-.515-2.302-1.024c-.543-.243-3.077-.696-5.556-.696-9.325,0-15.35,6.023-15.35,15.348,0,9.167,5.21,14.641,13.933,14.641,3.667,0,5.341-.137,6.084-.241.336-.408.775-.678,1.195-.819l1.915-.861v.002Z" fill="#ccc" stroke="#ccc" stroke-miterlimit="10" stroke-width="2"/>
    </g>
  </g>
</svg>