<?xml version="1.0" encoding="UTF-8"?>
<svg xmlns="http://www.w3.org/2000/svg" width="2559.13" height="2365.76" viewBox="0 0 2559.13 2365.76">
  <g id="b" data-name="HUD_DGTL_RWS_GUN_LCOS_-_Dark">
    <path d="M2061.887,520.838c-76.815-76.815-183.061-183.061-183.061-183.061H683.783l-254.739,254.739v1425.43h1710.391V598.386s-34.057-34.057-77.548-77.548Z" fill="none" stroke="#ccc" stroke-miterlimit="10" stroke-width="13"/>
    <g id="c" data-name="baro_alt_rect">
      <path id="d" data-name="rect7" d="M1736.116,1249.139v71.976h195.363v-71.976h-195.363Z" fill="none" stroke="#ccc" stroke-miterlimit="15.1" stroke-width="6"/>
    </g>
    <g id="e" data-name="airspeed_rect">
      <path id="f" data-name="rect8" d="M638.187,1247.726v73.628h195.015v-73.628h-195.015Z" fill="none" stroke="#ccc" stroke-miterlimit="15.1" stroke-width="6"/>
    </g>
    <g id="g" data-name="CompassMarker">
      <path id="h" data-name="path98" d="M1287.678,484.516h24.701l-24.701,49.402-24.701-49.402h24.701Z" fill="none" stroke="#ccc" stroke-miterlimit="10" stroke-width="6"/>
    </g>
    <rect id="i" data-name="CmdCue" x="859.87" y="541.764" width="13.339" height="42.98" fill="none" stroke="#ccc" stroke-miterlimit="10" stroke-width="6"/>
    <line x1="818.783" y1="538.386" x2="818.783" y2="584.744" fill="none" stroke="#ccc" stroke-miterlimit="10" stroke-width="6"/>
    <line x1="1082.783" y1="538.386" x2="1082.783" y2="584.744" fill="none" stroke="#ccc" stroke-miterlimit="10" stroke-width="6"/>
    <line x1="1344.174" y1="538.386" x2="1344.174" y2="584.744" fill="none" stroke="#ccc" stroke-miterlimit="10" stroke-width="6"/>
    <line x1="1605.043" y1="538.386" x2="1605.043" y2="584.744" fill="none" stroke="#ccc" stroke-miterlimit="10" stroke-width="6"/>
    <line x1="948.174" y1="534.663" x2="948.174" y2="562.309" fill="none" stroke="#ccc" stroke-miterlimit="10" stroke-width="6"/>
    <line x1="1475.13" y1="536.897" x2="1475.13" y2="560.076" fill="none" stroke="#ccc" stroke-miterlimit="10" stroke-width="6"/>
    <path id="j" data-name="TargetDesignatorUnknownHooked" d="M1080.427,1171.437v-71.481h71.481v71.481h-71.481Z" fill="none" stroke="#ccc" stroke-linecap="square" stroke-miterlimit="15.1" stroke-width="6"/>
    <line x1="1280.802" y1="523.345" x2="1280.802" y2="562.309" stroke="#ccc" stroke-linecap="round" stroke-miterlimit="10" stroke-width="6"/>
    <line x1="1302.913" y1="542.827" x2="1259.986" y2="542.827" stroke="#ccc" stroke-linecap="round" stroke-miterlimit="10" stroke-width="6"/>
    <path id="k" data-name="LadderNegative" d="M940.407,1564.111l37.993-1.763h0l-37.993,1.763ZM1005.534,1561.098l37.987-1.763M1103.642,1512.335l-.007,44.789-32.975.967M1402.699,1561.485l-38.002-1.562h0l38.002,1.562ZM1299.561,1557.253l37.996,1.562M1239.193,1510.57l.243,44.788,32.98.793M943.298,1547.859s13.057-1.213,14.865-1.669,3.669-1.536,4.969-2.963,2.168-3.983,2.024-7.079c-.088-2.309.196-4.059-1.651-5.999-1.683-1.761-3.336-1.947-5.21-1.953l-15.868.732-.85-15.481,21.033-.963M910.805,1529.799l17.285-.806M1110.764,2983.813l.607-43.78-.607,43.78ZM948.99,3012.768l37.431-6.738-37.431,6.738ZM1013.154,3001.222l37.431-6.738-37.431,6.738ZM1077.319,2989.676l33.277-5.863-33.277,5.863ZM1237.986,2982.076l-.838-43.776.838,43.776ZM1362.445,3003.637l37.466,6.54-37.466-6.54ZM1298.221,2992.43l37.466,6.54-37.466-6.54ZM1238.155,2982.076l33.308,5.687-33.308-5.687ZM914.867,2984.085l17.029-3.055M971.818,2994.007l-22.677,4.064,14.374-19.075c4.537-5.999,5.018-13.112-1.722-16.441-1.724-.848-3.985-1.158-6.684-.672-3.274.584-7.742,1.813-10.049,6.78M977.613,2962.101l4.439,24.762c.458,2.541,3.184,4.18,6.094,3.662l12.142-2.178c2.911-.524,4.898-3.006,4.446-5.548l-4.439-24.762c-.458-2.541-3.184-4.18-6.094-3.662l-12.142,2.178c-2.911.524-4.898,3.006-4.446,5.548ZM1108.271,3457.919l.316-45.012-.316,45.012ZM948.106,3493.481l37.123-8.258-37.123,8.258ZM1011.747,3479.323l37.123-8.258-37.123,8.258ZM1075.383,3465.161l32.718-7.741-32.718,7.741ZM1233.825,3456.186l-.553-45.01.553,45.01ZM1357.009,3482.836l37.166,8.062-37.166-8.062ZM1293.294,3469.008l37.166,8.062-37.166-8.062ZM1233.987,3455.68l32.758,7.569-32.758-7.569ZM913.856,3466.282l16.881-3.793M971.469,3473.584l-22.479,5.047,13.53-19.686c4.27-6.188,4.442-13.317-2.439-16.352-1.757-.772-4.034-.984-6.705-.379-3.247.731-7.655,2.15-9.744,7.208M982.633,3471.234s12.693-3.478,14.397-4.243,3.357-2.155,4.391-3.793c1.033-1.638,1.45-4.312.768-7.347-.49-2.264-.516-4.046-2.677-5.638-1.971-1.451-3.638-1.343-5.49-1.023l-15.556,3.491-3.539-15.148,20.616-4.618M1110.952,3887.907l-1.362,43.993,1.362-43.993ZM950.119,3974.811l36.711-9.936-36.711,9.936ZM1013.052,3957.782l36.711-9.936-36.711,9.936ZM1075.984,3940.752l33.605-9.189-33.605,9.189ZM1231.798,3930.176l-1.594-43.986,1.594,43.986ZM1354.731,3962.504l36.763,9.742-36.763-9.742ZM1291.71,3945.806l36.763,9.742-36.763-9.742ZM1231.797,3929.839l33.653,9.011-33.653-9.011ZM915.363,3949.613l16.7-4.526M950.122,3957.687l1.593.284c2.06.413,8.557-.05,10.582-.598l2.476-.669c1.802-.488,3.402-1.552,4.55-3.022h0c1.673-2.145,2.242-4.95,1.528-7.577l-.757-2.796c-.477-1.77-1.644-3.277-3.233-4.191l-.588-.335c-1.426-.817-3.121-1.035-4.706-.607l-5.858,1.586,8.366-18.679-18.068,4.894M976.335,3922.331l6.578,24.284c.675,2.492,3.536,3.886,6.392,3.118l11.906-3.226c2.856-.774,4.62-3.419,3.945-5.916l-6.578-24.284c-.675-2.492-3.536-3.886-6.392-3.118l-11.906,3.226c-2.856.774-4.62,3.419-3.945,5.916ZM1112.191,4361.823l-.647,45.225.647-45.225ZM954.612,4457.135l36.223-11.586-36.223,11.586ZM1016.706,4437.271l36.223-11.586-36.223,11.586ZM1078.8,4417.408l32.406-10.691-32.406,10.691ZM1232.535,4360.104l.885,45.221-.885-45.221ZM1354.325,4443.189l36.284,11.395-36.284-11.395ZM1292.133,4423.648l36.284,11.395-36.284-11.395ZM1233.751,4404.988l32.462,10.52-32.462-10.52ZM918.556,4433.238l16.486-5.248M953.599,4439.774l1.603.219c2.076.326,8.545-.424,10.548-1.06l2.443-.778c1.781-.564,3.331-1.698,4.414-3.217h0c1.581-2.215,2.024-5.042,1.197-7.636l-.877-2.758c-.559-1.748-1.785-3.206-3.417-4.049l-.598-.308c-1.463-.757-3.164-.899-4.728-.4l-5.787,1.841,7.545-19.024-17.837,5.676M987.593,4431.98s12.342-4.569,13.975-5.481,3.156-2.437,4.047-4.161,1.07-4.42.127-7.384c-.685-2.215-.863-3.985-3.16-5.381-2.09-1.271-3.741-1.022-5.559-.539l-15.188,4.832-4.847-14.786,20.139-6.393M1110.883,4867.55l.526-43.828-.526,43.828ZM956.141,4924.145l35.697-13.111-35.697,13.111ZM1017.338,4901.671l35.697-13.111-35.697,13.111ZM1078.539,4879.197l32.343-11.983-32.343,11.983ZM1231.418,4865.826l-.757-43.825.757,43.825ZM1350.69,4908.686l35.766,12.923-35.766-12.923ZM1289.376,4886.535l35.766,12.923-35.766-12.923ZM1231.417,4865.494l32.406,11.813-32.406-11.813ZM920.032,4900.336l16.245-5.965M974.243,4901.241l-11.907-32.441h0l-3.088,1.133-8.567,23.085,20.278-7.442M976.601,4868.225l8.668,23.616c.892,2.426,3.861,3.565,6.635,2.547l11.577-4.252c2.774-1.018,4.304-3.809,3.412-6.235l-8.668-23.616c-.892-2.426-3.861-3.565-6.635-2.547l-11.577,4.252c-2.774,1.018-4.304,3.809-3.412,6.235ZM1111.205,5294.823l-.356,44.355.356-44.355ZM958.417,5402.139l35.14-14.544-35.14,14.544ZM1018.656,5377.206l35.14-14.544-35.14,14.544ZM1078.895,5352.279l31.953-13.438-31.953,13.438ZM1230.458,5293.107l.59,44.352-.59-44.352ZM1348.594,5385.258l35.216,14.358-35.216-14.358ZM1288.224,5360.643l35.216,14.358-35.216-14.358ZM1231.046,5337.122l32.024,13.27-32.024-13.27ZM921.257,5381.592l15.966-6.665M975.75,5380.036l-13.313-31.888h0l-3.034,1.268-7.555,23.436,19.933-8.321M988.411,5374.852s11.894-5.627,13.44-6.68c1.546-1.053,2.932-2.702,3.666-4.497s.678-4.495-.519-7.371c-.875-2.144-1.211-3.892-3.615-5.086-2.192-1.086-3.816-.691-5.585-.056l-14.712,6.14-6.117-14.305,19.504-8.125M1113.565,5821.098l.351-46.088-.351,46.088ZM964.16,5890.832l34.456-16.096-34.456,16.096ZM1023.224,5863.24l34.456-16.096-34.456,16.096ZM1113.564,5820.762l-31.27,14.882,31.27-14.882ZM1233.169,5773.289l.594,46.085-.594-46.085ZM1348.998,5872.405l34.541,15.914-34.541-15.914ZM1289.784,5845.125l34.541,15.914-34.541-15.914ZM1265.11,5833.76l-31.348-14.716,31.348,14.716ZM925.626,5870.718l15.966-6.67M962.254,5876.652s11.894-5.627,13.44-6.68,2.932-2.702,3.666-4.497c.734-1.795.678-4.495-.519-7.371-.875-2.144-1.211-3.892-3.615-5.086-2.192-1.086-3.816-.691-5.585-.056l-14.712,6.14-6.117-14.305,19.504-8.125M981.917,5835.919l9.694,23.216c.995,2.383,4.013,3.396,6.743,2.253l11.38-4.751c2.73-1.137,4.135-3.993,3.14-6.381l-9.694-23.216c-.995-2.383-4.013-3.396-6.743-2.253l-11.38,4.751c-2.73,1.137-4.135,3.993-3.14,6.381ZM1115.982,6294.86l.814-45.568-.814,45.568ZM969.821,6370.762l33.703-17.615-33.703,17.615ZM1027.601,6340.56l33.703-17.615-33.703,17.615ZM1085.376,6310.364l30.605-15.836-30.605,15.836ZM1238.19,6293.13l-1.055-45.563,1.055,45.563ZM1350.954,6350.824l33.795,17.437-33.795-17.437ZM1326.81,6338.365l-33.795-17.437,33.795,17.437ZM1268.877,6308.473l-30.688-15.675,30.688,15.675ZM930.802,6352.458l15.66-7.359M967.796,6356.913s11.637-6.143,13.139-7.255,2.807-2.833,3.465-4.654.482-4.521-.84-7.338c-.967-2.105-1.379-3.837-3.838-4.923-2.235-.988-3.842-.522-5.584.188l-14.428,6.775-6.736-14.026,19.127-8.971M998.507,6342.397s11.637-6.143,13.139-7.255c1.502-1.112,2.807-2.833,3.465-4.654.658-1.822.482-4.521-.84-7.338-.967-2.105-1.379-3.837-3.838-4.923-2.235-.988-3.842-.522-5.584.188l-14.428,6.775-6.736-14.026,19.127-8.971M1120.149,6771.192l.602-45.551-.602,45.551ZM977.526,6853.887l32.862-19.145-32.862,19.145ZM1033.855,6821.065l32.862-19.145-32.862,19.145ZM1090.183,6788.249l30.133-17.557-30.133,17.557ZM1243.025,6769.466l-.843-45.547.843,45.547ZM1353.125,6832.436l32.962,18.972-32.962-18.972ZM1296.625,6799.912l32.962,18.972-32.962-18.972ZM1242.861,6768.961l30.225,17.398-30.225-17.398ZM950.973,6830.035l-15.327,8.032M982.678,6835.716c6.803-3.565,8.347-9.47,5.764-14.401-3.342-6.375-9.866-6.211-15.123-3.453s-8.623,7.77-5.281,14.151c2.583,4.932,7.837,7.27,14.64,3.704h0ZM967.427,6804.691c-.614,1.93-1.229,3.839-1.543,8.218-.519,7.178.318,15.581,1.782,18.386M989.158,6798.283l11.68,22.282c1.201,2.289,4.295,3.031,6.915,1.66l10.921-5.722c2.62-1.37,3.77-4.34,2.569-6.629l-11.68-22.282c-1.201-2.289-4.295-3.031-6.915-1.66l-10.921,5.722c-2.62,1.37-3.77,4.34-2.569,6.629ZM1119.834,7199.932l-.937,46.535.937-46.535ZM979.625,7334.559l32.054-20.463-32.054,20.463ZM1034.573,7299.481l32.054-20.463-32.054,20.463ZM1118.728,7246.136l-29.202,18.266,29.202-18.266ZM1242.442,7244.74l-1.182-46.529,1.182,46.529ZM1382.177,7332.097l-32.162-20.294,32.162,20.294ZM1294.884,7277.015l32.162,20.294-32.162-20.294ZM1242.609,7244.403l29.298,18.112-29.298-18.112ZM936.807,7319.748l14.961-8.694M1003.611,7303.653s11.059-7.13,12.457-8.372c1.398-1.243,2.551-3.065,3.046-4.936.495-1.87.086-4.548-1.475-7.238-1.146-2.012-1.71-3.701-4.25-4.569-2.311-.792-3.874-.185-5.545.672l-13.784,8.007-7.935-13.382,18.275-10.604M983.671,7315.387c6.64-3.859,7.928-9.828,5.133-14.639-3.618-6.227-10.126-5.776-15.257-2.79-5.132,2.985-8.28,8.139-4.662,14.366,2.794,4.811,8.151,6.921,14.791,3.063h-.005ZM967.08,7285.061c-.527,1.957-1.06,3.887-1.184,8.277-.209,7.199.997,15.552,2.585,18.285M1120.164,7727.088l.394-46.349-.394,46.349ZM984.559,7821.652l31.105-21.884-31.105,21.884ZM1037.882,7784.138l31.105-21.884-31.105,21.884h0ZM1091.199,7746.625l28.964-20.036-28.964,20.036ZM1243.709,7725.356l-.638-46.346.638,46.346ZM1348.59,7797.488l31.22,21.719-31.22-21.719ZM1295.076,7760.257l31.22,21.719-31.22-21.719ZM1243.707,7724.856l29.069,19.883-29.069-19.883ZM943.643,7806.71l14.568-9.34M980.65,7805.917l.924-41.249-16.971,10.878M993.253,7762.329l13.573,21.185c1.397,2.175,4.543,2.645,7.033,1.052l10.386-6.655c2.489-1.593,3.378-4.654,1.981-6.829l-13.573-21.185c-1.397-2.175-4.543-2.645-7.033-1.052l-10.386,6.655c-2.489,1.593-3.378,4.654-1.981,6.829ZM1118.723,8194.34l.352-45.827-.352,45.827ZM987.307,8295.173l30.151-23.18-30.151,23.18ZM1038.988,8255.437l30.151-23.186-30.151,23.186ZM1090.67,8215.695l27.549-21.185-27.549,21.185ZM1243.267,8192.611l-.593-45.825.593,45.825ZM1344.945,8269.728l30.273,23.02-30.273-23.02ZM1323.323,8253.285l-30.273-23.026,30.273,23.026ZM1243.773,8192.772l27.66,21.039-27.66-21.039ZM947.653,8282.945l14.143-9.963M1012.931,8261.074s10.394-8.068,11.678-9.43,2.273-3.277,2.605-5.184-.311-4.535-2.105-7.079c-1.32-1.903-2.025-3.542-4.634-4.182-2.376-.586-3.873.151-5.462,1.155l-13.036,9.178-9.068-12.64,17.282-12.155M984.634,8280.707l-.875-41.25-16.48,11.61M1125.828,8671.936l.48-44.806-.48,44.806ZM998.934,8779.911l29.034-24.562-29.034,24.562ZM1048.708,8737.806l29.034-24.562-29.034,24.562ZM1098.482,8695.701l27.515-23.765-27.515,23.765ZM1251.713,8670.197l-.716-44.803.716,44.803ZM1350.017,8753.093l29.163,24.409-29.163-24.409ZM1300.022,8711.256l29.163,24.409-29.163-24.409ZM1279.19,8693.817l-27.64-23.62,27.64,23.62ZM955.681,8770.643l13.696-10.57M974.673,8743.374l3.658,4.744c.801,1.041,2.047,1.673,3.454,1.762l2.163.136-.418,2.125c-.273,1.386.024,2.749.83,3.79l5.419,7.022c.796,1.03,2.031,1.663,3.427,1.746h0c1.397.089,2.846-.377,4.022-1.287l9.342-7.212c1.182-.91,1.993-2.194,2.267-3.565h0c.273-1.376-.024-2.727-.819-3.757l-5.419-7.022c-.801-1.041-2.047-1.673-3.454-1.762l-2.163-.136.418-2.125c.273-1.386-.024-2.749-.83-3.79l-3.658-4.744c-.796-1.03-2.031-1.663-3.427-1.746h0c-1.397-.089-2.846.377-4.022,1.287l-9.342,7.212c-1.182.91-1.993,2.194-2.267,3.565h0c-.273,1.376.024,2.727.819,3.757ZM983.948,8750.01l13.029-10.053M1001.59,8721.882l15.373,19.914c1.581,2.044,4.754,2.236,7.096.432l9.765-7.534c2.342-1.805,2.959-4.93,1.378-6.974l-15.373-19.914c-1.581-2.044-4.754-2.236-7.096-.432l-9.765,7.534c-2.342,1.805-2.959,4.93-1.378,6.974ZM1128.915,9144.359l.274-44.577-.274,44.577ZM1006.474,9257.848l27.982-25.76-27.982,25.76ZM1054.444,9213.699l27.982-25.76-27.982,25.76ZM1102.409,9169.545l26.837-25.187-26.837,25.187ZM1255.469,9142.618l-.509-44.575.509,44.575ZM1350.388,9229.853l28.117,25.613-28.117-25.613ZM1302.192,9185.958l28.117,25.613-28.117-25.613ZM1255.132,9142.619l26.97,25.045-26.97-25.045ZM974.357,9239.885l-13.221,11.161M1024.307,9223.661s9.652-8.946,10.811-10.411c1.159-1.465,1.979-3.46,2.143-5.389.163-1.929-.707-4.491-2.713-6.871-1.477-1.783-2.323-3.352-4.981-3.762-2.413-.374-3.845.488-5.342,1.628l-12.186,10.278-10.136-11.806,16.154-13.614M978.773,9223.172l3.864,4.575c.85,1.003,2.118,1.581,3.53,1.61l2.168.038-.326,2.142c-.214,1.397.143,2.743.993,3.752l5.722,6.776c.839.997,2.101,1.57,3.498,1.594h0c1.402.023,2.824-.502,3.968-1.461l9.02-7.613c1.138-.959,1.896-2.276,2.109-3.662h0c.208-1.386-.143-2.721-.982-3.719l-5.722-6.776c-.85-1.003-2.118-1.581-3.53-1.61l-2.168-.038.326-2.142c.214-1.397-.143-2.743-.993-3.752l-3.864-4.575c-.839-.997-2.101-1.57-3.498-1.594h0c-1.402-.023-2.824.502-3.968,1.461l-9.02,7.613c-1.138.959-1.896,2.276-2.109,3.662h0c-.208,1.386.143,2.721.982,3.719ZM988.33,9229.4l12.576-10.611M1119.342,9620.52c.11,41.708,33.524,75.429,74.629,75.32,41.105-.108,74.341-34.005,74.231-75.713-.11-41.708-33.524-75.429-74.629-75.32-41.105.108-74.341,34.005-74.231,75.713ZM1187.595,9544.28l11.409-.03-.043-16.298-11.409.03.043,16.298ZM1145.272,9564.493l96.161-.253-96.161.253ZM1127.964,9593.876l131.474-.347-131.474.347ZM1122.603,9621.055l142.34-.375-142.34.375ZM1128.106,9647.662l131.474-.347-131.474.347ZM1141.205,9670.445l106.483-.281-106.483.281Z" fill="none" stroke="#ccc" stroke-miterlimit="10" stroke-width="6"/>
    <path id="l" data-name="LadderPositive" d="M1066.707-6281.458l51.94,28.365-5.078,23.376-16.809,4.717-30.52-56.457h.467ZM1147.141-6255.971l5.217,29.423,8.415,1.847,28.819-57.08-41.984,25.809s-.467.001-.467.001ZM1187.11-6160.29l-12.685-26.133-22.42,2.863.955,7.941,34.15,15.329ZM1106.683-6182.973l-23.844-5.544-13.939,29.941,38.25-24.398s-.467.001-.467.001ZM1000.558-6205.593l113.133,22.13,18.033,282.639,19.812-283.206,122.839-18.079-121.076-22.109-19.428-102.744-17.963,98.637-115.35,23.199v-.467ZM1359.843-5779.245l-.046-17.288-144.846.382M1051.412-5796.655l-144.846.382.046,17.288M1360.155-5371.636l-.046-17.288-144.846.382M1051.725-5389.046l-144.846.382.046,17.288M1361.605-4965.389l-.046-17.288-144.846.382M1053.174-4982.799l-144.846.382.046,17.288M1361.917-4557.78l-.046-17.288-144.846.382M1053.487-4575.19l-144.846.382.046,17.288M1363.947-4149.493l-.046-17.288-144.846.382M1055.516-4166.902l-144.846.382.046,17.288M1364.26-3741.883l-.046-17.288-144.846.382M1055.829-3759.293l-144.846.382.046,17.288M1365.714-3335.637l-.046-17.288-144.846.382M1057.283-3353.047l-144.846.382.046,17.288M1366.026-2928.027l-.046-17.288-144.846.382M1057.596-2945.437l-144.846.382.046,17.288M1367.468-2519.538l-.046-17.288-144.846.382M1059.037-2536.948l-144.846.382.046,17.288M1367.78-2111.929l-.046-17.288-144.846.382M1059.349-2129.338l-144.846.382.046,17.288M1369.234-1705.682l-.046-17.288-144.846.382M1060.803-1723.092l-144.846.382.046,17.288M1369.542-1298.073l-.046-17.288-144.846.382M1061.111-1315.482l-144.846.382.046,17.288M1371.572-889.79l-.046-17.288-144.846.382M1063.141-907.2l-144.846.382.046,17.288M1376.043,744.521l-.046-17.288-144.846.382M1067.612,727.112l-144.846.382.046,17.288" fill="none" stroke="#ccc" stroke-linecap="square" stroke-miterlimit="15.1" stroke-width="6"/>
    <path id="m" data-name="FPMUncaged" d="M1168.408,1322.872c-.008,14.545-11.81,26.334-26.355,26.326s-26.334-11.81-26.326-26.355c.008-14.545,11.81-26.334,26.355-26.326s26.334,11.81,26.326,26.355ZM1115.727,1322.843l-52.681-.029M1168.408,1322.872l52.681.029M1142.082,1296.517l.014-26.34" fill="none" stroke="#ccc" stroke-linecap="square" stroke-miterlimit="15.1" stroke-width="6"/>
    <path id="n" data-name="PotentialPath" d="M1257.874,1372.872l-29.817,17.193,29.798,17.226" fill="none" stroke="#ccc" stroke-miterlimit="15.1" stroke-width="6"/>
    <line x1="1212.552" y1="534.663" x2="1212.552" y2="562.309" fill="none" stroke="#ccc" stroke-miterlimit="10" stroke-width="6"/>
    <path id="o" data-name="DirectorReticle" d="M1457.469,1231.474c0,66.226-53.677,119.903-119.903,119.903s-119.903-53.677-119.903-119.903,53.677-119.903,119.903-119.903,119.903,53.677,119.903,119.903ZM1337.566,1217.16c-7.92,0-14.314,6.394-14.314,14.314s6.394,14.314,14.314,14.314,14.314-6.394,14.314-14.314-6.394-14.314-14.314-14.314ZM1337.566,1351.377v18.37M1217.663,1231.474h-18.322M1337.566,1111.571v-18.322M1397.541,1127.603l9.161-15.888M1441.438,1171.499l15.889-9.161M1457.469,1231.474h18.322M1441.438,1291.402l15.889,9.161M1406.702,1351.187l-9.161-15.888" fill="none" stroke="#ccc" stroke-miterlimit="10" stroke-width="6"/>
    <g>
      <path d="M815.604,591.972v26.086c0,4.436-3.909,8.041-8.716,8.041h-12.79c-4.888,0-8.716-3.533-8.716-8.041v-26.086c0-4.436,3.909-8.041,8.716-8.041h12.79c4.808,0,8.716,3.605,8.716,8.041ZM809.23,591.972c0-.92-1.051-1.671-2.343-1.671h-12.79c-1.342,0-2.342.882-2.342,1.671v26.086c0,.92,1.051,1.671,2.342,1.671h12.79c1.342,0,2.343-.882,2.343-1.671v-26.086Z" fill="#ccc"/>
      <path d="M852.168,591.972v26.086c0,4.436-3.909,8.041-8.716,8.041h-12.79c-4.888,0-8.716-3.533-8.716-8.041v-26.086c0-4.436,3.909-8.041,8.716-8.041h12.79c4.808,0,8.716,3.605,8.716,8.041ZM845.795,591.972c0-.92-1.051-1.671-2.343-1.671h-12.79c-1.342,0-2.342.882-2.342,1.671v26.086c0,.92,1.051,1.671,2.342,1.671h12.79c1.342,0,2.343-.882,2.343-1.671v-26.086Z" fill="#ccc"/>
    </g>
    <g>
      <path d="M1079.604,591.972v26.086c0,4.436-3.909,8.041-8.717,8.041h-12.79c-4.888,0-8.716-3.533-8.716-8.041v-26.086c0-4.436,3.908-8.041,8.716-8.041h12.79c4.808,0,8.717,3.605,8.717,8.041ZM1073.23,591.972c0-.92-1.051-1.671-2.343-1.671h-12.79c-1.342,0-2.342.882-2.342,1.671v26.086c0,.92,1.051,1.671,2.342,1.671h12.79c1.343,0,2.343-.882,2.343-1.671v-26.086Z" fill="#ccc"/>
      <path d="M1112.982,619.717c1.76,0,3.187,1.427,3.187,3.187s-1.427,3.187-3.187,3.187h-23.85c-.438,0-.86-.093-1.24-.253-.025-.009-.043-.034-.067-.046-.367-.165-.697-.393-.972-.676-.013-.012-.029-.017-.042-.029-.114-.118-.16-.27-.249-.401-.139-.199-.291-.384-.38-.612-.089-.232-.109-.473-.144-.717-.025-.156-.093-.292-.093-.452,0-.017.009-.034.009-.051.004-.262.084-.511.151-.764.043-.147.047-.312.105-.452.056-.131.165-.236.241-.359.139-.232.274-.468.469-.658.013-.013.029-.042.029-.042l18.15-17.011c2.743-2.579,4.242-5.373,4.111-7.665-.089-1.604-.976-3.01-2.697-4.293-1.161-.857-2.815-1.313-4.766-1.313-3.761,0-6.703.642-8.855,3.77-.996,1.457-2.977,1.819-4.433.823-1.447-.996-1.814-2.98-.818-4.432,4.491-6.53,11.477-6.53,14.106-6.53,3.322,0,6.281.886,8.561,2.562,4.103,3.06,5.128,6.61,5.268,9.054.24,4.238-1.929,8.737-6.116,12.676l-12.274,11.506h15.79l.005-.008Z" fill="#ccc"/>
    </g>
    <g>
      <path d="M1341.755,591.97v26.086c0,4.436-3.909,8.041-8.717,8.041h-12.79c-4.888,0-8.716-3.533-8.716-8.041v-26.086c0-4.436,3.908-8.041,8.716-8.041h12.79c4.808,0,8.717,3.605,8.717,8.041ZM1335.381,591.97c0-.92-1.051-1.671-2.343-1.671h-12.79c-1.342,0-2.342.882-2.342,1.671v26.086c0,.92,1.051,1.671,2.342,1.671h12.79c1.343,0,2.343-.882,2.343-1.671v-26.086Z" fill="#ccc"/>
      <path d="M1374.438,603.405c1.385.35,2.406,1.6,2.406,3.09s-1.021,2.739-2.406,3.09v13.33c0,1.76-1.427,3.187-3.187,3.187s-3.187-1.427-3.187-3.187v-13.237h-16.779c-1.245,0-2.376-.718-2.896-1.849-.523-1.131-.338-2.46.469-3.406l16.547-19.375c.604-.709,1.489-1.119,2.423-1.119h3.419c1.76,0,3.187,1.427,3.187,3.187v16.28l.004.009ZM1368.06,591.75l-9.864,11.553h9.864v-11.553Z" fill="#ccc"/>
    </g>
    <g>
      <path d="M1601.865,591.974v26.086c0,4.436-3.908,8.041-8.716,8.041h-12.79c-4.888,0-8.717-3.533-8.717-8.041v-26.086c0-4.436,3.909-8.041,8.717-8.041h12.79c4.808,0,8.716,3.605,8.716,8.041ZM1595.492,591.974c0-.92-1.052-1.671-2.343-1.671h-12.79c-1.343,0-2.343.882-2.343,1.671v26.086c0,.92,1.051,1.671,2.343,1.671h12.79c1.342,0,2.343-.882,2.343-1.671v-26.086Z" fill="#ccc"/>
      <path d="M1623.044,598.837c9.202,0,15.386,5.47,15.386,13.613,0,8.02-6.327,13.617-15.386,13.617s-14.837-5.344-14.837-13.617c0-.194.047-.363.051-.553-.008-.088-.051-.16-.051-.249,0-4.381,3.913-13.305,7.695-19.408,2.532-4.094,4.217-5.774,5.698-7.256,1.245-1.245,3.322-1.305,4.567-.059,1.245,1.245,1.305,3.208.059,4.449l-.118.118c-1.358,1.355-2.638,2.638-4.786,6.104-.747,1.199-1.423,2.415-2.06,3.622,1.194-.228,2.439-.384,3.781-.384v.004ZM1632.056,612.446c0-6.534-6.303-7.239-9.013-7.239-3.862,0-8.463,1.258-8.463,7.239,0,4.673,3.006,7.243,8.463,7.243,5.56,0,9.013-2.773,9.013-7.243Z" fill="#ccc"/>
    </g>
    <path id="p" data-name="TCSDesignator" d="M1217.281,966.808c0,4.187-3.402,7.588-7.588,7.588s-7.588-3.402-7.588-7.588,3.402-7.588,7.588-7.588,7.588,3.402,7.588,7.588ZM1284.216,959.219c-4.187,0-7.588,3.402-7.588,7.588s3.402,7.588,7.588,7.588,7.588-3.402,7.588-7.588-3.402-7.588-7.588-7.588ZM1209.692,1033.743c-4.187,0-7.588,3.402-7.588,7.588s3.402,7.588,7.588,7.588,7.588-3.402,7.588-7.588-3.402-7.588-7.588-7.588h0ZM1284.216,1033.743c-4.187,0-7.588,3.402-7.588,7.588s3.402,7.588,7.588,7.588,7.588-3.402,7.588-7.588-3.402-7.588-7.588-7.588h0Z" fill="none" stroke="#ccc" stroke-miterlimit="15.1" stroke-width="5"/>
    <g>
      <path d="M711.415,1283.361c1.958,1.959,3.039,4.56,3.039,7.315v2.997c0,3.833-1.824,7.471-4.875,9.738-2.064,1.562-4.584,2.397-7.26,2.397h-2.659c-2.418,0-9.607-1.343-12.148-2.617l-1.452-.684c-1.591-.752-2.271-2.651-1.52-4.242.751-1.596,2.646-2.268,4.242-1.52l1.52.717c1.41.705,7.492,1.976,9.362,1.976h2.659c1.275,0,2.461-.393,3.436-1.127,1.481-1.105,2.321-2.79,2.321-4.639v-2.997c0-1.056-.418-2.052-1.178-2.812l-.511-.511c-.608-.611-1.448-.962-2.3-.962h-6.29c-1.228,0-2.351-.709-2.878-1.823-.528-1.115-.367-2.428.414-3.382l9.168-11.219h-12.655c-1.76,0-3.187-1.427-3.187-3.188s1.426-3.187,3.187-3.187h19.375c1.229,0,2.352.709,2.879,1.823.528,1.11.367,2.427-.414,3.381l-9.177,11.229c2.385.105,4.694,1.122,6.391,2.819l.511.511v.004Z" fill="#ccc"/>
      <path d="M751.02,1271.636v26.086c0,4.437-3.909,8.041-8.716,8.041h-12.79c-4.888,0-8.716-3.533-8.716-8.041v-26.086c0-4.437,3.909-8.041,8.716-8.041h12.79c4.808,0,8.716,3.604,8.716,8.041ZM744.646,1271.636c0-.92-1.051-1.672-2.343-1.672h-12.79c-1.342,0-2.342.883-2.342,1.672v26.086c0,.92,1.051,1.672,2.342,1.672h12.79c1.342,0,2.343-.883,2.343-1.672v-26.086Z" fill="#ccc"/>
      <path d="M784.912,1283.062c2.347,2.73,2.284,5.326,2.229,7.416l-.017.958c0,3.9-1.232,7.366-3.381,9.519-1.841,1.836-4.373,3.183-6.948,3.697-1.984.397-12.722.925-15.968,1.072h-.152c-1.692,0-3.103-1.334-3.183-3.039-.08-1.756,1.275-3.246,3.035-3.33,6.517-.309,13.917-.747,15.019-.958,1.333-.271,2.748-1.018,3.689-1.959.701-.7,1.515-2.432,1.515-5.011l.017-1.118c.042-1.769.025-2.263-.684-3.09-.802-.925-1.465-1.102-3.04-1.169h-16.369c-1.751,0-3.174-1.41-3.187-3.162l-.127-16.086c-.004-.853.325-1.668.924-2.271.6-.604,1.414-.94,2.263-.94h21.865c1.76,0,3.187,1.426,3.187,3.187s-1.427,3.187-3.187,3.187h-18.652l.076,9.713h13.343c2.655.114,5.314.595,7.729,3.381l.004.005Z" fill="#ccc"/>
    </g>
    <g>
      <path d="M710.846,1213.573c1.958,1.959,3.039,4.559,3.039,7.315v2.997c0,3.832-1.824,7.471-4.875,9.738-2.064,1.561-4.584,2.396-7.26,2.396h-2.659c-2.418,0-9.607-1.342-12.148-2.617l-1.452-.684c-1.591-.751-2.271-2.65-1.52-4.242.751-1.596,2.646-2.267,4.242-1.52l1.52.718c1.41.705,7.492,1.976,9.362,1.976h2.659c1.275,0,2.461-.393,3.436-1.127,1.481-1.105,2.321-2.79,2.321-4.639v-2.997c0-1.056-.418-2.052-1.178-2.812l-.511-.511c-.608-.612-1.448-.962-2.3-.962h-6.29c-1.228,0-2.351-.709-2.878-1.824-.528-1.114-.367-2.427.414-3.381l9.168-11.219h-12.655c-1.76,0-3.187-1.428-3.187-3.188s1.426-3.188,3.187-3.188h19.375c1.229,0,2.352.71,2.879,1.824.528,1.109.367,2.427-.414,3.381l-9.177,11.229c2.385.105,4.694,1.122,6.391,2.819l.511.511v.004Z" fill="#ccc"/>
      <path d="M729.556,1229.647c1.667.105,2.997,1.456,2.997,3.148,0,1.76-1.427,3.188-3.187,3.188h-5.952c-1.76,0-3.187-1.428-3.187-3.188,0-1.68,1.309-3.014,2.955-3.141v-28.576c-.519-.24-.992-.591-1.33-1.105-.966-1.469-.561-3.449.908-4.416l1.857-1.224c.08-.056.177-.06.262-.105.186-.102.375-.173.583-.236.215-.067.417-.114.637-.131.093-.009.173-.056.27-.056.105,0,.194.051.3.06.219.021.431.063.642.131.194.063.372.136.544.228.177.094.338.203.498.334.173.139.317.291.456.46.067.085.16.131.219.224.055.08.059.178.105.262.102.186.173.38.237.587.063.211.109.413.126.629.008.097.055.177.055.274v32.65l.004.004Z" fill="#ccc"/>
      <path d="M748.218,1229.647c1.667.105,2.997,1.456,2.997,3.148,0,1.76-1.427,3.188-3.187,3.188h-5.952c-1.76,0-3.187-1.428-3.187-3.188,0-1.68,1.309-3.014,2.955-3.141v-28.576c-.519-.24-.992-.591-1.33-1.105-.966-1.469-.561-3.449.908-4.416l1.857-1.224c.08-.056.177-.06.262-.105.186-.102.375-.173.583-.236.215-.067.417-.114.637-.131.093-.009.173-.056.27-.056.105,0,.194.051.3.06.219.021.431.063.642.131.194.063.372.136.544.228.177.094.338.203.498.334.173.139.317.291.456.46.067.085.16.131.219.224.055.08.059.178.105.262.102.186.173.38.237.587.063.211.109.413.126.629.008.097.055.177.055.274v32.65l.004.004Z" fill="#ccc"/>
      <path d="M787.606,1214.851l.127,10.088c0,3.001-1.211,5.88-3.326,7.939-2.001,1.941-4.766,3.057-7.585,3.057h-7.682c-2.406,0-4.77-.807-6.648-2.279l-.688-.523c-2.697-2.039-4.25-5.184-4.25-8.615v-19.206c0-3.377,1.596-6.602,4.263-8.619l.709-.54c1.849-1.448,4.208-2.259,6.614-2.259h8.442c2.132,0,4.217.638,6.028,1.845l2.537,1.692c1.465.979,1.857,2.955.882,4.419-.975,1.47-2.951,1.857-4.419.883l-2.533-1.692c-.76-.507-1.621-.772-2.495-.772h-8.442c-1.005,0-1.942.32-2.723.928l-.751.574c-1.097.824-1.743,2.148-1.743,3.542v19.206c0,1.418.629,2.705,1.73,3.537l.73.557c.806.633,1.748.954,2.752.954h7.682c1.178,0,2.322-.46,3.141-1.253.899-.874,1.397-2.057,1.397-3.326l-.089-6.902h-7.281c-1.76,0-3.187-1.426-3.187-3.187s1.427-3.187,3.187-3.187h10.426c1.744,0,3.166,1.4,3.187,3.145l.008-.004Z" fill="#ccc"/>
    </g>
    <g>
      <path d="M1764.589,1299.435c1.667.105,2.997,1.457,2.997,3.149,0,1.761-1.427,3.187-3.188,3.187h-5.951c-1.761,0-3.188-1.426-3.188-3.187,0-1.68,1.309-3.014,2.955-3.14v-28.577c-.52-.241-.992-.591-1.33-1.106-.966-1.469-.561-3.448.908-4.414l1.857-1.225c.08-.055.177-.059.262-.105.186-.102.375-.174.582-.236.215-.068.418-.114.638-.131.093-.009.173-.055.27-.055.105,0,.194.051.3.059.22.021.431.063.642.131.194.063.372.135.545.229.177.092.338.202.498.333.173.14.316.291.456.46.067.084.16.131.219.224.056.081.06.177.105.262.102.187.174.38.237.587.062.211.109.414.126.629.009.098.055.178.055.274v32.649l.005.004Z" fill="#ccc"/>
      <path d="M1800.958,1299.38c1.761,0,3.188,1.428,3.188,3.188s-1.427,3.187-3.188,3.187h-23.849c-.439,0-.861-.093-1.241-.253-.025-.009-.042-.033-.067-.047-.367-.164-.696-.393-.971-.676-.013-.012-.029-.016-.042-.029-.114-.117-.161-.27-.249-.4-.14-.199-.292-.385-.38-.612-.089-.231-.11-.473-.144-.718-.025-.156-.093-.291-.093-.451,0-.018.008-.034.008-.051.005-.262.085-.511.152-.764.042-.148.046-.312.105-.452.055-.131.165-.236.24-.358.14-.232.274-.469.469-.658.013-.014.029-.043.029-.043l18.15-17.011c2.744-2.579,4.242-5.373,4.111-7.665-.088-1.604-.975-3.01-2.697-4.293-1.16-.857-2.815-1.312-4.766-1.312-3.761,0-6.702.641-8.855,3.77-.996,1.456-2.976,1.818-4.432.822-1.448-.996-1.815-2.979-.819-4.432,4.491-6.529,11.478-6.529,14.106-6.529,3.322,0,6.281.886,8.561,2.562,4.104,3.06,5.129,6.61,5.268,9.054.241,4.238-1.929,8.738-6.116,12.676l-12.274,11.507h15.791l.004-.009Z" fill="#ccc"/>
      <path d="M1836.829,1283.07c1.385.351,2.406,1.6,2.406,3.09s-1.021,2.739-2.406,3.09v13.33c0,1.76-1.427,3.187-3.187,3.187s-3.188-1.427-3.188-3.187v-13.237h-16.778c-1.245,0-2.377-.718-2.896-1.85-.523-1.131-.338-2.46.469-3.406l16.546-19.374c.604-.709,1.49-1.118,2.423-1.118h3.419c1.761,0,3.188,1.426,3.188,3.187v16.28l.004.009ZM1830.451,1271.416l-9.864,11.553h9.864v-11.553Z" fill="#ccc"/>
      <path d="M1875.755,1271.636v26.086c0,4.436-3.908,8.041-8.716,8.041h-12.79c-4.888,0-8.717-3.533-8.717-8.041v-26.086c0-4.437,3.909-8.041,8.717-8.041h12.79c4.808,0,8.716,3.604,8.716,8.041ZM1869.381,1271.636c0-.92-1.052-1.672-2.343-1.672h-12.79c-1.343,0-2.343.883-2.343,1.672v26.086c0,.92,1.051,1.672,2.343,1.672h12.79c1.342,0,2.343-.883,2.343-1.672v-26.086Z" fill="#ccc"/>
      <path d="M1909.279,1283.361c1.959,1.958,3.039,4.56,3.039,7.315v2.996c0,3.834-1.823,7.472-4.875,9.738-2.064,1.562-4.584,2.398-7.261,2.398h-2.659c-2.418,0-9.606-1.343-12.147-2.617l-1.452-.684c-1.592-.752-2.271-2.651-1.52-4.242.751-1.596,2.646-2.268,4.242-1.52l1.52.717c1.409.705,7.492,1.976,9.362,1.976h2.659c1.274,0,2.461-.393,3.436-1.127,1.481-1.106,2.321-2.79,2.321-4.64v-2.996c0-1.056-.418-2.052-1.178-2.812l-.511-.511c-.607-.611-1.447-.963-2.3-.963h-6.29c-1.228,0-2.351-.709-2.878-1.822-.528-1.115-.367-2.428.413-3.382l9.168-11.22h-12.654c-1.761,0-3.187-1.426-3.187-3.187s1.426-3.187,3.187-3.187h19.374c1.229,0,2.352.709,2.879,1.823.528,1.11.367,2.427-.413,3.381l-9.177,11.228c2.385.105,4.693,1.123,6.391,2.82l.511.511v.004Z" fill="#ccc"/>
    </g>
    <g>
      <path d="M715.387,1536.589c1.476.093,2.653,1.289,2.653,2.787,0,1.558-1.263,2.82-2.821,2.82h-5.268c-1.558,0-2.821-1.263-2.821-2.82,0-1.487,1.159-2.668,2.616-2.78v-25.296c-.459-.213-.878-.522-1.177-.979-.855-1.3-.497-3.053.804-3.908l1.644-1.084c.071-.048.157-.052.231-.093.165-.09.333-.153.516-.21.19-.06.37-.101.564-.115.082-.008.153-.049.239-.049.094,0,.172.045.266.053.194.019.381.056.568.115.172.057.329.12.482.202.157.082.299.18.441.295.153.123.28.258.403.407.06.075.142.116.194.198.049.071.052.157.094.231.089.165.153.337.209.52.056.187.097.366.112.557.007.086.048.157.048.243v28.901l.004.004Z" fill="#ccc"/>
      <path d="M739.747,1536.589c1.476.093,2.653,1.289,2.653,2.787,0,1.558-1.263,2.82-2.821,2.82h-5.268c-1.558,0-2.821-1.263-2.821-2.82,0-1.487,1.159-2.668,2.616-2.78v-25.296c-.459-.213-.878-.522-1.177-.979-.855-1.3-.497-3.053.804-3.908l1.644-1.084c.071-.048.157-.052.231-.093.165-.09.333-.153.516-.21.19-.06.37-.101.564-.115.082-.008.153-.049.239-.049.094,0,.172.045.266.053.194.019.381.056.568.115.172.057.329.12.482.202.157.082.299.18.441.295.153.123.28.258.403.407.06.075.142.116.194.198.049.071.052.157.094.231.089.165.153.337.209.52.056.187.097.366.112.557.007.086.048.157.048.243v28.901l.004.004Z" fill="#ccc"/>
      <path d="M761.491,1541.422v.078c0,1.558-1.263,2.821-2.821,2.821s-2.821-1.264-2.821-2.821,1.263-2.862,2.821-2.862,2.821,1.226,2.821,2.784Z" fill="#ccc"/>
      <path d="M798.262,1522.102c1.226.31,2.13,1.416,2.13,2.734s-.904,2.426-2.13,2.735v11.8c0,1.558-1.263,2.821-2.821,2.821s-2.821-1.264-2.821-2.821v-11.718h-14.853c-1.102,0-2.104-.635-2.563-1.637-.463-1.001-.299-2.178.415-3.015l14.647-17.15c.534-.628,1.319-.99,2.145-.99h3.027c1.558,0,2.821,1.263,2.821,2.821v14.411l.004.008ZM792.616,1511.786l-8.732,10.227h8.732v-10.227Z" fill="#ccc"/>
    </g>
    <g>
      <path d="M621.507,1552.321c1.162.377,1.947,1.461,1.947,2.683v31.61c0,1.558-1.263,2.82-2.821,2.82s-2.821-1.263-2.821-2.82v-22.957l-5.474,7.507c-.531.729-1.379,1.158-2.279,1.158s-1.749-.434-2.279-1.162l-5.437-7.48v22.935c0,1.558-1.263,2.82-2.821,2.82s-2.821-1.263-2.821-2.82v-31.61c0-1.222.785-2.302,1.947-2.683,1.162-.378,2.433.037,3.154,1.023l8.257,11.366,8.291-11.366c.717-.99,1.992-1.401,3.154-1.021l.003-.003Z" fill="#ccc"/>
      <path d="M702.187,1559.227v23.092c0,3.927-3.46,7.117-7.716,7.117h-11.321c-4.327,0-7.716-3.127-7.716-7.117v-23.092c0-3.927,3.46-7.117,7.716-7.117h11.321c4.256,0,7.716,3.19,7.716,7.117ZM696.545,1559.227c0-.814-.93-1.479-2.074-1.479h-11.321c-1.188,0-2.074.781-2.074,1.479v23.092c0,.814.931,1.479,2.074,1.479h11.321c1.188,0,2.074-.781,2.074-1.479v-23.092Z" fill="#ccc"/>
      <path d="M721.284,1588.669v.078c0,1.559-1.263,2.821-2.821,2.821s-2.821-1.263-2.821-2.821,1.263-2.861,2.821-2.861,2.821,1.226,2.821,2.783Z" fill="#ccc"/>
      <path d="M758.055,1569.35c1.226.311,2.13,1.416,2.13,2.735s-.904,2.425-2.13,2.735v11.799c0,1.559-1.263,2.821-2.821,2.821s-2.821-1.263-2.821-2.821v-11.717h-14.853c-1.102,0-2.104-.636-2.563-1.637-.463-1.001-.299-2.179.415-3.016l14.647-17.149c.534-.628,1.319-.99,2.145-.99h3.027c1.558,0,2.821,1.263,2.821,2.82v14.412l.004.007ZM752.409,1559.033l-8.732,10.227h8.732v-10.227Z" fill="#ccc"/>
      <path d="M800.019,1553.601c.489.919.437,2.033-.138,2.896l-21.111,31.689c-.545.814-1.438,1.255-2.35,1.255-.538,0-1.084-.153-1.562-.475-1.296-.863-1.648-2.611-.785-3.912l18.189-27.302h-13.189c-1.558,0-2.821-1.263-2.821-2.821s1.263-2.82,2.821-2.82h18.458c1.042,0,1.999.571,2.488,1.486v.004Z" fill="#ccc"/>
    </g>
    <g>
      <path d="M622.965,1616.628l.112,8.931c0,2.656-1.073,5.205-2.944,7.028-1.771,1.719-4.219,2.705-6.714,2.705h-6.8c-2.13,0-4.222-.714-5.885-2.018l-.609-.464c-2.388-1.805-3.763-4.588-3.763-7.626v-17.001c0-2.988,1.413-5.844,3.774-7.629l.628-.479c1.636-1.281,3.725-1.999,5.855-1.999h7.473c1.887,0,3.733.564,5.335,1.633l2.246,1.498c1.297.867,1.644,2.615.781,3.912-.863,1.301-2.612,1.645-3.912.781l-2.242-1.499c-.673-.448-1.435-.684-2.208-.684h-7.473c-.89,0-1.719.284-2.41.822l-.665.508c-.972.729-1.543,1.902-1.543,3.135v17.001c0,1.256.557,2.396,1.532,3.132l.646.493c.713.56,1.547.844,2.436.844h6.8c1.042,0,2.055-.407,2.78-1.109.796-.773,1.237-1.819,1.237-2.944l-.079-6.109h-6.445c-1.558,0-2.821-1.263-2.821-2.82s1.263-2.821,2.821-2.821h9.229c1.543,0,2.802,1.24,2.821,2.783l.007-.004Z" fill="#ccc"/>
      <path d="M714.426,1629.678c1.558,0,2.821,1.263,2.821,2.821s-1.263,2.821-2.821,2.821h-21.111c-.388,0-.762-.082-1.098-.225-.022-.008-.038-.029-.06-.041-.325-.146-.616-.348-.859-.598-.011-.012-.026-.015-.037-.026-.101-.104-.142-.239-.221-.354-.123-.176-.258-.341-.336-.542-.078-.206-.097-.419-.127-.636-.022-.138-.082-.258-.082-.399,0-.015.007-.03.007-.045.004-.231.075-.452.135-.676.037-.131.041-.277.093-.4.048-.115.146-.209.213-.317.124-.206.243-.415.415-.583.011-.011.026-.037.026-.037l16.067-15.058c2.429-2.283,3.755-4.757,3.639-6.786-.079-1.42-.863-2.664-2.388-3.8-1.027-.758-2.492-1.162-4.218-1.162-3.329,0-5.934.568-7.839,3.337-.881,1.289-2.634,1.61-3.923.729-1.282-.882-1.607-2.638-.725-3.923,3.976-5.78,10.159-5.78,12.487-5.78,2.94,0,5.56.784,7.577,2.268,3.632,2.709,4.54,5.852,4.663,8.015.213,3.752-1.708,7.734-5.414,11.221l-10.865,10.186h13.978l.003-.008Z" fill="#ccc"/>
      <path d="M728.504,1634.56v.078c0,1.559-1.263,2.821-2.821,2.821s-2.821-1.263-2.821-2.821,1.263-2.861,2.821-2.861,2.821,1.226,2.821,2.783Z" fill="#ccc"/>
      <path d="M778.386,1611.194c8.146,0,13.619,4.842,13.619,12.05,0,7.099-5.601,12.054-13.619,12.054s-13.134-4.73-13.134-12.054c0-.172.042-.321.045-.489-.007-.079-.045-.143-.045-.221,0-3.879,3.464-11.777,6.812-17.181,2.242-3.624,3.733-5.111,5.044-6.423,1.102-1.102,2.94-1.154,4.043-.052,1.102,1.102,1.154,2.84.052,3.938l-.105.105c-1.203,1.199-2.335,2.335-4.237,5.402-.662,1.062-1.259,2.138-1.824,3.206,1.058-.202,2.16-.34,3.348-.34v.004ZM786.363,1623.24c0-5.784-5.578-6.408-7.977-6.408-3.419,0-7.492,1.113-7.492,6.408,0,4.136,2.661,6.411,7.492,6.411,4.921,0,7.977-2.454,7.977-6.411Z" fill="#ccc"/>
    </g>
    <g>
      <path d="M696.043,1655.354c8.146,0,13.619,4.843,13.619,12.05,0,7.1-5.601,12.054-13.619,12.054s-13.134-4.73-13.134-12.054c0-.172.042-.321.045-.489-.007-.078-.045-.142-.045-.221,0-3.878,3.464-11.777,6.812-17.18,2.242-3.624,3.733-5.111,5.044-6.423,1.102-1.103,2.94-1.154,4.042-.053,1.103,1.103,1.155,2.84.053,3.938l-.105.104c-1.203,1.199-2.335,2.335-4.237,5.403-.662,1.061-1.259,2.137-1.823,3.205,1.057-.201,2.159-.34,3.348-.34v.004ZM704.02,1667.4c0-5.783-5.578-6.407-7.977-6.407-3.419,0-7.492,1.113-7.492,6.407,0,4.137,2.661,6.412,7.492,6.412,4.921,0,7.977-2.455,7.977-6.412Z" fill="#ccc"/>
      <path d="M728.759,1678.721v.078c0,1.558-1.263,2.821-2.821,2.821s-2.821-1.264-2.821-2.821,1.263-2.862,2.821-2.862,2.821,1.226,2.821,2.784Z" fill="#ccc"/>
      <path d="M789.44,1673.839c1.558,0,2.821,1.263,2.821,2.82s-1.263,2.821-2.821,2.821h-21.111c-.388,0-.762-.082-1.098-.224-.022-.008-.038-.03-.06-.041-.325-.146-.616-.348-.859-.599-.011-.011-.026-.015-.037-.025-.101-.105-.142-.239-.221-.355-.123-.176-.258-.34-.336-.542-.078-.205-.097-.418-.127-.635-.022-.139-.082-.258-.082-.4,0-.015.007-.029.007-.044.004-.232.075-.452.135-.677.037-.131.041-.276.093-.399.049-.116.146-.21.213-.318.124-.205.243-.414.415-.582.011-.012.026-.038.026-.038l16.067-15.058c2.429-2.283,3.755-4.757,3.639-6.785-.079-1.42-.863-2.664-2.388-3.8-1.027-.759-2.492-1.162-4.218-1.162-3.329,0-5.934.567-7.839,3.337-.881,1.289-2.634,1.61-3.923.729-1.282-.882-1.607-2.639-.725-3.924,3.976-5.78,10.159-5.78,12.487-5.78,2.94,0,5.56.785,7.577,2.269,3.632,2.709,4.54,5.851,4.663,8.015.213,3.751-1.708,7.734-5.414,11.22l-10.865,10.186h13.978l.003-.007Z" fill="#ccc"/>
    </g>
    <path d="M625.703,1510.682l-13.431,16.416c-1.502,1.836-3.749,2.901-6.122,2.901h0c-2.098,0-4.11-.833-5.593-2.317l-.635-.635c-1.483-1.483-2.317-3.495-2.317-5.593v-.472c0-2.098.833-4.11,2.317-5.593l.635-.635c1.483-1.483,3.495-2.317,5.593-2.317h0c2.372,0,4.619,1.065,6.122,2.901l13.431,16.416" fill="none" stroke="#ccc" stroke-linecap="round" stroke-linejoin="round" stroke-width="6"/>
    <g>
      <path d="M892.771,1749.159c0,1.725-.694,3.406-1.902,4.617-1.107,1.104-2.549,1.731-4.1,1.855l5.695,10.473c.664,1.221.21,2.749-1.011,3.413-.38.21-.794.307-1.198.307-.894,0-1.758-.477-2.215-1.317l-6.976-12.828h-7.106v11.623c0,1.392-1.128,2.52-2.519,2.52s-2.519-1.128-2.519-2.52v-28.225c0-1.392,1.128-2.52,2.519-2.52h14.81c1.722,0,3.403.694,4.614,1.902,1.234,1.234,1.908,2.876,1.908,4.62v6.079ZM887.733,1743.077c0-.417-.146-.771-.43-1.058-.267-.264-.664-.427-1.054-.427h-12.294v9.044h12.294c.414,0,.767-.146,1.054-.434.27-.267.43-.66.43-1.051v-6.075Z" fill="#ccc"/>
      <path d="M921.619,1739.077v23.521c0,.667-.264,1.308-.737,1.778l-4.701,4.704c-.98.987-2.569.984-3.556.01l-2.93-2.909-2.929,2.909c-.49.487-1.134.731-1.775.731s-1.291-.247-1.781-.737l-4.705-4.704c-.474-.471-.737-1.115-.737-1.782v-23.521c0-1.392,1.128-2.52,2.519-2.52s2.519,1.128,2.519,2.52v22.477l2.192,2.191,2.179-2.165v-6.021c0-1.392,1.127-2.52,2.519-2.52s2.519,1.128,2.519,2.52v6.021l2.179,2.165,2.188-2.191v-22.477c0-1.392,1.128-2.52,2.519-2.52s2.519,1.128,2.519,2.52Z" fill="#ccc"/>
      <path d="M948.001,1753.243c1.615,1.618,2.505,3.763,2.505,6.052v1.534c0,2.656-1.271,5.202-3.403,6.813l-.754.54c-1.451,1.067-3.263,1.672-5.071,1.672h-5.571c-1.675,0-3.307-.49-4.718-1.418l-2.015-1.338c-1.161-.774-1.471-2.336-.704-3.493.774-1.161,2.335-1.468,3.493-.704l2.005,1.331c.567.377,1.261.584,1.942.584h5.571c.741,0,1.488-.25,2.109-.711l.73-.523c.824-.62,1.348-1.668,1.348-2.753v-1.534c0-.94-.37-1.821-1.034-2.489-.664-.667-1.548-1.034-2.485-1.034h-6.773c-2.285,0-4.437-.891-6.052-2.502-1.615-1.621-2.506-3.771-2.506-6.052v-2.069c0-2.285.891-4.434,2.506-6.052,1.615-1.614,3.763-2.506,6.052-2.506h6.272c1.698,0,3.336.491,4.734,1.422l2.001,1.338c1.158.771,1.468,2.339.697,3.493-.771,1.154-2.329,1.478-3.493.693l-2.001-1.334c-.567-.377-1.238-.577-1.938-.577h-6.272c-.94,0-1.828.367-2.489,1.03-.667.668-1.034,1.555-1.034,2.492v2.069c0,.938.37,1.824,1.034,2.492.661.664,1.548,1.027,2.489,1.027h6.773c2.282,0,4.431.891,6.049,2.506h.003Z" fill="#ccc"/>
    </g>
    <g>
      <path d="M850.475,1782.641c1.628,2.006,2.539,4.581,2.539,7.23v10.105c0,2.643-.881,5.145-2.549,7.239-2.255,2.776-5.548,4.357-9.045,4.357h-9.775c-1.391,0-2.519-1.127-2.519-2.519v-28.226c0-1.391,1.128-2.552,2.519-2.552h9.775c3.523,0,6.91,1.631,9.055,4.367v-.004ZM847.976,1789.874c0-1.494-.51-2.946-1.438-4.087-1.225-1.562-3.126-2.472-5.118-2.472h-7.256v23.224h7.256c1.945,0,3.86-.924,5.118-2.476.934-1.175,1.438-2.596,1.438-4.084v-10.105Z" fill="#ccc"/>
      <path d="M879.395,1806.499c1.391,0,2.519,1.128,2.519,2.519s-1.128,2.52-2.519,2.52h-18.85c-1.391,0-2.519-1.128-2.519-2.52v-28.225c0-1.392,1.128-2.52,2.519-2.52h18.85c1.391,0,2.519,1.128,2.519,2.52s-1.128,2.519-2.519,2.519h-16.331v9.078h12.794c1.392,0,2.519,1.128,2.519,2.519s-1.127,2.52-2.519,2.52h-12.794v9.074h16.331v-.003Z" fill="#ccc"/>
      <path d="M908.308,1794.962c1.615,1.618,2.505,3.764,2.505,6.052v1.535c0,2.655-1.271,5.201-3.403,6.812l-.754.541c-1.451,1.067-3.263,1.671-5.071,1.671h-5.572c-1.675,0-3.306-.49-4.718-1.418l-2.015-1.338c-1.161-.773-1.471-2.335-.704-3.493.774-1.161,2.335-1.468,3.493-.703l2.005,1.331c.567.377,1.261.584,1.942.584h5.571c.741,0,1.488-.251,2.109-.711l.73-.524c.824-.62,1.348-1.668,1.348-2.752v-1.535c0-.94-.37-1.821-1.034-2.488-.664-.667-1.548-1.034-2.485-1.034h-6.773c-2.285,0-4.437-.891-6.052-2.503-1.615-1.621-2.506-3.77-2.506-6.052v-2.068c0-2.285.891-4.434,2.506-6.052,1.615-1.615,3.763-2.506,6.052-2.506h6.272c1.698,0,3.336.49,4.734,1.421l2.001,1.338c1.158.771,1.468,2.339.697,3.493-.771,1.154-2.329,1.479-3.493.694l-2.001-1.335c-.567-.377-1.238-.577-1.938-.577h-6.272c-.94,0-1.828.367-2.489,1.031-.667.667-1.034,1.555-1.034,2.492v2.068c0,.938.37,1.825,1.034,2.492.661.664,1.548,1.027,2.489,1.027h6.773c2.282,0,4.431.892,6.049,2.506h.003Z" fill="#ccc"/>
      <path d="M937.162,1778.277c1.392,0,2.519,1.128,2.519,2.519s-1.127,2.52-2.519,2.52h-6.889v25.706c0,1.391-1.128,2.519-2.519,2.519s-2.519-1.128-2.519-2.519v-25.706h-6.89c-1.391,0-2.519-1.128-2.519-2.52s1.127-2.519,2.519-2.519h18.817Z" fill="#ccc"/>
    </g>
    <g>
      <path d="M582.519,1732.104c1.392,0,2.519,1.128,2.519,2.519s-1.127,2.52-2.519,2.52h-6.889v25.706c0,1.391-1.128,2.519-2.519,2.519s-2.519-1.128-2.519-2.519v-25.706h-6.89c-1.391,0-2.519-1.128-2.519-2.52s1.127-2.519,2.519-2.519h18.817Z" fill="#ccc"/>
      <path d="M610.011,1758.428c1.174-.744,2.729-.407,3.48.768.75,1.174.407,2.729-.768,3.479l-1.935,1.234c-1.595.984-3.356,1.495-5.125,1.495h-6.172c-2.102,0-4.157-.697-5.785-1.969-2.292-1.752-3.673-4.558-3.673-7.49v-14.35c0-2.933,1.378-5.738,3.69-7.503,1.611-1.255,3.667-1.952,5.769-1.952h6.172c1.842,0,3.62.521,5.142,1.505l1.921,1.225c1.171.751,1.515,2.306.768,3.479-.751,1.168-2.306,1.515-3.48.768l-1.935-1.234c-.717-.467-1.548-.707-2.416-.707h-6.172c-.984,0-1.942.32-2.689.904-1.091.834-1.731,2.145-1.731,3.516v14.35c0,1.371.641,2.683,1.715,3.503.768.595,1.725.918,2.709.918h6.172c.834,0,1.678-.25,2.446-.728l1.905-1.214-.007.003Z" fill="#ccc"/>
      <path d="M642.736,1734.623v28.226c0,1.11-.728,2.088-1.789,2.412-.244.07-.487.106-.73.106-.828,0-1.618-.407-2.095-1.121l-14.203-21.302v19.904c0,1.391-1.128,2.519-2.519,2.519s-2.519-1.128-2.519-2.519v-28.226c0-1.111.728-2.089,1.789-2.412,1.054-.32,2.208.09,2.826,1.015l14.203,21.302v-19.904c0-1.391,1.128-2.519,2.519-2.519s2.519,1.128,2.519,2.519Z" fill="#ccc"/>
      <path d="M724.413,1747.66c1.548,1.548,2.402,3.603,2.402,5.781v2.369c0,3.029-1.441,5.905-3.854,7.697-1.631,1.234-3.623,1.895-5.738,1.895h-2.102c-1.912,0-7.593-1.061-9.602-2.068l-1.147-.54c-1.258-.595-1.795-2.096-1.201-3.354.594-1.261,2.092-1.792,3.353-1.201l1.201.567c1.114.557,5.922,1.562,7.4,1.562h2.102c1.007,0,1.945-.311,2.716-.891,1.171-.874,1.835-2.206,1.835-3.667v-2.369c0-.834-.331-1.621-.931-2.222l-.404-.403c-.48-.484-1.144-.761-1.818-.761h-4.971c-.971,0-1.858-.561-2.275-1.441s-.291-1.919.327-2.673l7.247-8.867h-10.002c-1.392,0-2.519-1.128-2.519-2.52s1.127-2.519,2.519-2.519h15.313c.971,0,1.858.561,2.275,1.441.417.877.29,1.918-.327,2.672l-7.253,8.875c1.885.083,3.71.888,5.051,2.229l.403.403v.004Z" fill="#ccc"/>
      <path d="M753.604,1747.423c1.855,2.159,1.805,4.211,1.762,5.862l-.014.757c0,3.083-.974,5.822-2.672,7.523-1.455,1.451-3.457,2.516-5.492,2.923-1.568.313-10.056.73-12.621.848h-.12c-1.338,0-2.452-1.055-2.516-2.402-.063-1.388,1.008-2.565,2.399-2.633,5.151-.243,11-.59,11.871-.757,1.054-.214,2.172-.804,2.916-1.548.554-.554,1.198-1.922,1.198-3.961l.013-.884c.033-1.397.02-1.788-.541-2.442-.634-.73-1.158-.87-2.402-.924h-12.938c-1.385,0-2.509-1.114-2.519-2.499l-.1-12.715c-.003-.674.257-1.317.731-1.795.474-.477,1.118-.744,1.788-.744h17.282c1.391,0,2.519,1.128,2.519,2.52s-1.128,2.519-2.519,2.519h-14.743l.06,7.677h10.546c2.099.091,4.201.471,6.109,2.673l.003.003Z" fill="#ccc"/>
      <path d="M765.416,1764.68v.07c0,1.392-1.128,2.52-2.519,2.52s-2.519-1.128-2.519-2.52,1.128-2.556,2.519-2.556,2.519,1.095,2.519,2.485Z" fill="#ccc"/>
      <path d="M791.797,1760.321c1.391,0,2.519,1.128,2.519,2.519s-1.127,2.52-2.519,2.52h-18.85c-.347,0-.681-.073-.981-.2-.02-.007-.034-.027-.054-.037-.29-.13-.55-.311-.767-.533-.01-.011-.023-.014-.033-.023-.09-.094-.127-.214-.197-.317-.11-.157-.23-.304-.3-.483-.07-.184-.086-.374-.113-.567-.02-.124-.073-.23-.073-.357,0-.013.006-.026.006-.04.003-.206.067-.403.12-.604.034-.117.037-.247.083-.357.043-.103.13-.187.19-.283.11-.184.217-.37.37-.521.01-.01.023-.033.023-.033l14.346-13.445c2.168-2.039,3.353-4.247,3.25-6.059-.07-1.269-.771-2.379-2.132-3.394-.917-.677-2.226-1.037-3.767-1.037-2.973,0-5.298.507-7,2.979-.788,1.15-2.353,1.438-3.503.65-1.145-.787-1.435-2.355-.647-3.503,3.55-5.162,9.071-5.162,11.15-5.162,2.625,0,4.964.701,6.766,2.025,3.243,2.419,4.053,5.225,4.164,7.156.19,3.35-1.525,6.906-4.834,10.02l-9.702,9.095h12.481l.003-.007Z" fill="#ccc"/>
    </g>
    <g>
      <path d="M520.467,1793.541c1.675,1.558,2.723,3.779,2.723,6.242v3.336c0,4.681-3.81,8.491-8.491,8.491h-12.845c-1.391,0-2.519-1.128-2.519-2.52v-28.225c0-1.392,1.128-2.52,2.519-2.52h12.578c2.562,0,4.924,1.275,6.315,3.413.804,1.182,1.241,2.64,1.241,4.178v3.169c0,1.839-.611,3.31-1.525,4.435h.003ZM504.377,1783.392v7.874h10.519c.581-.11,2.059-.548,2.059-2.155v-3.17c0-.533-.137-.997-.4-1.388-.494-.758-1.258-1.168-2.122-1.168h-10.059l.003.007ZM518.152,1799.786c0-1.788-1.354-3.267-3.089-3.466-.133.013-.267.013-.397.013h-10.292v10.242h10.326c1.905,0,3.453-1.551,3.453-3.452v-3.337Z" fill="#ccc"/>
      <path d="M550.573,1786.277c.984,1.194,1.535,2.713,1.535,4.264v18.517c0,1.392-1.128,2.52-2.519,2.52s-2.519-1.128-2.519-2.52v-11.594h-13.846v11.594c0,1.392-1.127,2.52-2.519,2.52s-2.519-1.128-2.519-2.52v-18.517c0-1.521.523-2.982,1.511-4.233l4.23-5.168c3.013-3.606,9.455-3.587,12.428-.017l4.22,5.154h-.003ZM533.231,1792.423h13.849v-1.885c0-.387-.137-.754-.391-1.061l-4.214-5.148c-1.011-1.211-3.616-1.231-4.657.021l-4.187,5.121c-.357.443-.4.827-.4,1.07v1.882Z" fill="#ccc"/>
      <path d="M647.566,1793.869c1.548,1.548,2.402,3.604,2.402,5.782v2.369c0,3.029-1.441,5.905-3.854,7.696-1.631,1.234-3.623,1.896-5.738,1.896h-2.102c-1.912,0-7.593-1.062-9.602-2.069l-1.147-.54c-1.258-.594-1.795-2.095-1.201-3.353.594-1.262,2.092-1.792,3.353-1.201l1.201.566c1.114.558,5.922,1.562,7.4,1.562h2.102c1.007,0,1.945-.31,2.715-.891,1.171-.874,1.835-2.205,1.835-3.666v-2.369c0-.834-.331-1.621-.931-2.222l-.404-.404c-.48-.483-1.144-.761-1.818-.761h-4.971c-.971,0-1.858-.561-2.275-1.441s-.291-1.918.327-2.672l7.247-8.868h-10.002c-1.392,0-2.519-1.128-2.519-2.519s1.127-2.52,2.519-2.52h15.313c.971,0,1.858.561,2.275,1.441.417.878.29,1.919-.327,2.673l-7.253,8.874c1.885.084,3.71.888,5.051,2.229l.403.404v.003Z" fill="#ccc"/>
      <path d="M676.465,1793.869c1.548,1.548,2.402,3.604,2.402,5.782v2.369c0,3.029-1.441,5.905-3.854,7.696-1.631,1.234-3.623,1.896-5.738,1.896h-2.102c-1.912,0-7.593-1.062-9.602-2.069l-1.147-.54c-1.258-.594-1.795-2.095-1.201-3.353.594-1.262,2.092-1.792,3.353-1.201l1.201.566c1.114.558,5.922,1.562,7.4,1.562h2.102c1.007,0,1.945-.31,2.715-.891,1.171-.874,1.835-2.205,1.835-3.666v-2.369c0-.834-.331-1.621-.931-2.222l-.404-.404c-.48-.483-1.144-.761-1.818-.761h-4.971c-.971,0-1.858-.561-2.275-1.441s-.291-1.918.327-2.672l7.247-8.868h-10.002c-1.392,0-2.519-1.128-2.519-2.519s1.127-2.52,2.519-2.52h15.313c.971,0,1.858.561,2.275,1.441.417.878.29,1.919-.327,2.673l-7.253,8.874c1.885.084,3.71.888,5.051,2.229l.403.404v.003Z" fill="#ccc"/>
      <path d="M707.735,1789.676c0,1.458-.544,2.883-1.518,4.037.974,1.157,1.518,2.579,1.518,4.037v7.276c0,1.778-.797,3.503-2.189,4.728-1.308,1.157-3.049,1.795-4.901,1.795h-9.675c-1.812,0-3.597-.654-4.898-1.795-1.415-1.248-2.192-2.926-2.192-4.728v-7.276c0-1.458.544-2.883,1.518-4.037-.978-1.161-1.518-2.586-1.518-4.037v-4.904c0-1.778.797-3.503,2.189-4.728,1.311-1.161,3.053-1.799,4.901-1.799h9.675c1.818,0,3.603.654,4.901,1.795,1.415,1.252,2.189,2.93,2.189,4.728v4.908ZM702.696,1797.743c0-.334-.19-.688-.517-.978l-.617-.541h-11.517l-.621.544c-.32.287-.51.641-.51.975v7.276c0,.344.164.66.484.944.383.337.971.54,1.568.54h9.675c.611,0,1.185-.193,1.568-.537.307-.267.487-.62.487-.947v-7.276ZM688.921,1784.771v4.904c0,.334.19.69.521.987l.607.53h11.521l.624-.544c.317-.283.507-.64.507-.974v-4.904c0-.347-.164-.667-.487-.951-.38-.333-.967-.537-1.568-.537h-9.675c-.61,0-1.181.197-1.565.537h-.003c-.304.267-.484.621-.484.947l.003.004Z" fill="#ccc"/>
      <path d="M736.16,1786.397l-18.817,28.226c-.487.728-1.284,1.121-2.099,1.121-.48,0-.964-.137-1.395-.424-1.158-.774-1.468-2.336-.697-3.493l18.817-28.226c.774-1.154,2.332-1.464,3.493-.697,1.158.771,1.468,2.336.697,3.493Z" fill="#ccc"/>
      <path d="M763.064,1793.869c1.548,1.548,2.402,3.604,2.402,5.782v2.369c0,3.029-1.441,5.905-3.854,7.696-1.631,1.234-3.623,1.896-5.738,1.896h-2.102c-1.912,0-7.593-1.062-9.602-2.069l-1.147-.54c-1.258-.594-1.795-2.095-1.201-3.353.594-1.262,2.092-1.792,3.353-1.201l1.201.566c1.114.558,5.922,1.562,7.4,1.562h2.102c1.007,0,1.945-.31,2.716-.891,1.171-.874,1.835-2.205,1.835-3.666v-2.369c0-.834-.331-1.621-.931-2.222l-.404-.404c-.48-.483-1.144-.761-1.818-.761h-4.971c-.971,0-1.858-.561-2.275-1.441s-.291-1.918.327-2.672l7.247-8.868h-10.002c-1.392,0-2.519-1.128-2.519-2.519s1.127-2.52,2.519-2.52h15.313c.971,0,1.858.561,2.275,1.441.417.878.29,1.919-.327,2.673l-7.253,8.874c1.885.084,3.71.888,5.051,2.229l.403.404v.003Z" fill="#ccc"/>
      <path d="M791.3,1793.64c1.094.276,1.901,1.264,1.901,2.441s-.807,2.166-1.901,2.442v10.536c0,1.392-1.128,2.519-2.519,2.519s-2.519-1.127-2.519-2.519v-10.463h-13.262c-.984,0-1.878-.566-2.289-1.461-.414-.895-.267-1.945.37-2.692l13.079-15.313c.477-.561,1.178-.885,1.915-.885h2.702c1.392,0,2.519,1.128,2.519,2.52v12.868l.003.007ZM786.259,1784.428l-7.797,9.132h7.797v-9.132Z" fill="#ccc"/>
    </g>
    <g>
      <path d="M1798.541,1517.187c1.675,1.559,2.723,3.78,2.723,6.242v3.337c0,4.681-3.81,8.49-8.491,8.49h-12.845c-1.391,0-2.519-1.127-2.519-2.519v-28.226c0-1.391,1.128-2.519,2.519-2.519h12.578c2.562,0,4.925,1.274,6.315,3.413.805,1.181,1.241,2.639,1.241,4.177v3.17c0,1.838-.61,3.31-1.524,4.434h.003ZM1782.45,1507.039v7.873h10.52c.58-.11,2.059-.547,2.059-2.155v-3.169c0-.534-.137-.998-.4-1.389-.494-.757-1.258-1.167-2.122-1.167h-10.059l.003.007ZM1796.225,1523.434c0-1.789-1.354-3.267-3.089-3.467-.134.014-.268.014-.397.014h-10.292v10.242h10.325c1.905,0,3.453-1.552,3.453-3.453v-3.336Z" fill="#ccc"/>
      <path d="M1830.111,1514.561c0,1.726-.694,3.407-1.902,4.618-1.107,1.104-2.549,1.731-4.1,1.854l5.694,10.473c.664,1.222.211,2.749-1.011,3.413-.38.21-.794.308-1.197.308-.895,0-1.759-.478-2.216-1.318l-6.976-12.828h-7.106v11.624c0,1.391-1.128,2.519-2.52,2.519s-2.519-1.128-2.519-2.519v-28.226c0-1.391,1.128-2.519,2.519-2.519h14.811c1.722,0,3.402.693,4.614,1.901,1.234,1.234,1.908,2.876,1.908,4.621v6.078ZM1825.073,1508.479c0-.417-.146-.771-.431-1.058-.267-.264-.664-.427-1.054-.427h-12.295v9.045h12.295c.413,0,.767-.146,1.054-.434.271-.268.431-.661.431-1.051v-6.076Z" fill="#ccc"/>
      <path d="M1858.863,1518.525l.101,7.974c0,2.372-.958,4.647-2.63,6.275-1.581,1.535-3.767,2.416-5.995,2.416h-6.072c-1.901,0-3.77-.638-5.254-1.802l-.544-.414c-2.132-1.611-3.36-4.097-3.36-6.809v-15.181c0-2.669,1.262-5.218,3.37-6.812l.561-.427c1.461-1.145,3.326-1.785,5.228-1.785h6.673c1.685,0,3.333.504,4.765,1.458l2.005,1.338c1.157.773,1.468,2.335.697,3.493-.771,1.161-2.332,1.468-3.493.697l-2.002-1.338c-.601-.4-1.281-.61-1.972-.61h-6.673c-.794,0-1.534.253-2.151.733l-.594.454c-.868.65-1.378,1.698-1.378,2.799v15.181c0,1.121.497,2.139,1.367,2.796l.577.44c.638.5,1.382.754,2.176.754h6.072c.931,0,1.835-.364,2.482-.991.71-.69,1.104-1.625,1.104-2.629l-.069-5.455h-5.756c-1.391,0-2.519-1.128-2.519-2.519s1.128-2.52,2.519-2.52h8.241c1.378,0,2.502,1.108,2.519,2.486l.007-.004Z" fill="#ccc"/>
    </g>
    <g>
      <path d="M1799.536,1637.823c1.325.44,2.035,1.865,1.595,3.187l-9.404,28.222c-.344,1.031-1.305,1.725-2.389,1.725s-2.046-.693-2.39-1.722l-9.408-28.225c-.437-1.318.271-2.746,1.592-3.187,1.328-.438,2.746.273,3.186,1.595l7.021,21.056,7.02-21.056c.437-1.321,1.861-2.032,3.183-1.595h-.004Z" fill="#ccc"/>
      <path d="M1826.238,1664.017c1.175-.744,2.729-.407,3.48.768.75,1.174.407,2.729-.768,3.479l-1.936,1.234c-1.595.984-3.355,1.495-5.124,1.495h-6.172c-2.103,0-4.157-.697-5.785-1.969-2.292-1.752-3.674-4.558-3.674-7.49v-14.35c0-2.933,1.378-5.738,3.69-7.503,1.611-1.255,3.666-1.952,5.769-1.952h6.172c1.842,0,3.62.521,5.142,1.505l1.921,1.225c1.172.751,1.515,2.306.768,3.479-.751,1.168-2.306,1.515-3.479.768l-1.936-1.234c-.717-.467-1.548-.707-2.415-.707h-6.172c-.984,0-1.942.32-2.689.904-1.091.834-1.731,2.145-1.731,3.516v14.35c0,1.371.641,2.683,1.715,3.503.768.595,1.725.918,2.709.918h6.172c.834,0,1.679-.25,2.446-.728l1.904-1.214-.007.003Z" fill="#ccc"/>
    </g>
    <g>
      <path d="M1801.261,1560.822c0,1.726-.694,3.407-1.902,4.618-1.107,1.104-2.549,1.731-4.1,1.854l5.694,10.473c.664,1.222.211,2.749-1.011,3.413-.38.21-.794.308-1.197.308-.895,0-1.759-.478-2.216-1.318l-6.976-12.828h-7.106v11.624c0,1.391-1.128,2.519-2.52,2.519s-2.519-1.128-2.519-2.519v-28.226c0-1.391,1.128-2.519,2.519-2.519h14.811c1.722,0,3.402.693,4.614,1.901,1.234,1.234,1.908,2.876,1.908,4.621v6.078ZM1796.223,1554.74c0-.417-.146-.771-.431-1.058-.267-.264-.664-.427-1.054-.427h-12.295v9.045h12.295c.413,0,.767-.146,1.054-.434.271-.268.431-.661.431-1.051v-6.076Z" fill="#ccc"/>
      <path d="M1830.113,1550.74v28.226c0,1.11-.728,2.088-1.788,2.412-.244.07-.487.106-.73.106-.828,0-1.618-.407-2.096-1.121l-14.202-21.302v19.904c0,1.391-1.128,2.519-2.52,2.519s-2.519-1.128-2.519-2.519v-28.226c0-1.111.728-2.089,1.788-2.412,1.055-.32,2.209.09,2.826,1.015l14.202,21.302v-19.904c0-1.391,1.128-2.519,2.52-2.519s2.519,1.128,2.519,2.519Z" fill="#ccc"/>
      <path d="M1858.863,1564.786l.101,7.974c0,2.372-.958,4.647-2.63,6.275-1.581,1.535-3.767,2.416-5.995,2.416h-6.072c-1.901,0-3.77-.638-5.254-1.802l-.544-.414c-2.132-1.611-3.36-4.097-3.36-6.809v-15.181c0-2.669,1.262-5.218,3.37-6.812l.561-.427c1.461-1.145,3.326-1.785,5.228-1.785h6.673c1.685,0,3.333.504,4.765,1.458l2.005,1.338c1.157.773,1.468,2.335.697,3.493-.771,1.161-2.332,1.468-3.493.697l-2.002-1.338c-.601-.4-1.281-.61-1.972-.61h-6.673c-.794,0-1.534.253-2.151.733l-.594.454c-.868.65-1.378,1.698-1.378,2.799v15.181c0,1.121.497,2.139,1.367,2.796l.577.44c.638.5,1.382.754,2.176.754h6.072c.931,0,1.835-.364,2.482-.991.71-.69,1.104-1.625,1.104-2.629l-.069-5.455h-5.756c-1.391,0-2.519-1.128-2.519-2.519s1.128-2.52,2.519-2.52h8.241c1.378,0,2.502,1.108,2.519,2.486l.007-.004Z" fill="#ccc"/>
    </g>
    <g>
      <path d="M1799.798,1598.794c.984,1.193,1.535,2.712,1.535,4.264v18.516c0,1.392-1.128,2.52-2.52,2.52s-2.519-1.128-2.519-2.52v-11.594h-13.846v11.594c0,1.392-1.128,2.52-2.52,2.52s-2.519-1.128-2.519-2.52v-18.516c0-1.521.523-2.982,1.512-4.234l4.23-5.168c3.013-3.606,9.455-3.586,12.428-.017l4.22,5.155h-.003ZM1782.456,1604.938h13.849v-1.885c0-.387-.137-.754-.391-1.061l-4.214-5.148c-1.011-1.211-3.616-1.23-4.657.021l-4.187,5.121c-.357.444-.4.827-.4,1.071v1.881Z" fill="#ccc"/>
      <path d="M1830.197,1621.573c0,1.392-1.128,2.52-2.52,2.52h-18.85c-1.392,0-2.52-1.128-2.52-2.52v-28.225c0-1.391,1.128-2.52,2.52-2.52s2.519,1.129,2.519,2.52v25.706h16.331c1.392,0,2.52,1.128,2.52,2.519Z" fill="#ccc"/>
      <path d="M1856.546,1590.829c1.392,0,2.519,1.129,2.519,2.52s-1.127,2.52-2.519,2.52h-6.89v25.705c0,1.392-1.128,2.52-2.519,2.52s-2.52-1.128-2.52-2.52v-25.705h-6.89c-1.391,0-2.519-1.129-2.519-2.52s1.128-2.52,2.519-2.52h18.817Z" fill="#ccc"/>
    </g>
    <g>
      <path d="M1799.536,1684.567c1.324.44,2.035,1.865,1.595,3.187l-9.405,28.222c-.344,1.031-1.305,1.725-2.389,1.725s-2.045-.693-2.389-1.722l-9.408-28.225c-.438-1.318.27-2.746,1.591-3.187,1.328-.438,2.746.273,3.187,1.595l7.02,21.056,7.02-21.056c.438-1.321,1.861-2.032,3.183-1.595h-.003Z" fill="#ccc"/>
      <path d="M1830.111,1697.038c0,1.726-.694,3.407-1.902,4.618-1.107,1.104-2.549,1.731-4.1,1.854l5.694,10.473c.664,1.222.211,2.749-1.011,3.413-.38.21-.794.308-1.197.308-.895,0-1.759-.478-2.216-1.318l-6.976-12.828h-7.106v11.624c0,1.391-1.128,2.519-2.52,2.519s-2.519-1.128-2.519-2.519v-28.226c0-1.391,1.128-2.519,2.519-2.519h14.811c1.722,0,3.402.693,4.614,1.901,1.234,1.234,1.908,2.876,1.908,4.621v6.078ZM1825.073,1690.956c0-.417-.146-.771-.431-1.058-.267-.264-.664-.427-1.054-.427h-12.295v9.045h12.295c.413,0,.767-.146,1.054-.434.271-.268.431-.661.431-1.051v-6.076Z" fill="#ccc"/>
    </g>
    <g>
      <path d="M1800.493,1779.738v23.521c0,.667-.264,1.308-.737,1.778l-4.701,4.704c-.98.987-2.569.984-3.557.01l-2.93-2.909-2.929,2.909c-.49.487-1.135.731-1.775.731s-1.291-.247-1.781-.737l-4.704-4.704c-.474-.471-.737-1.115-.737-1.782v-23.521c0-1.392,1.128-2.52,2.519-2.52s2.52,1.128,2.52,2.52v22.477l2.191,2.191,2.179-2.165v-6.021c0-1.392,1.128-2.52,2.519-2.52s2.52,1.128,2.52,2.52v6.021l2.179,2.165,2.188-2.191v-22.477c0-1.392,1.128-2.52,2.519-2.52s2.52,1.128,2.52,2.52Z" fill="#ccc"/>
      <path d="M1827.444,1779.127c1.225,1.225,1.901,2.866,1.901,4.618v6.072c0,1.725-.694,3.406-1.901,4.617-1.231,1.228-2.873,1.905-4.618,1.905h-12.297v11.623c0,1.392-1.128,2.52-2.52,2.52s-2.519-1.128-2.519-2.52v-28.225c0-1.392,1.128-2.52,2.519-2.52h14.813c1.725,0,3.406.694,4.617,1.905l.004.003ZM1824.307,1783.738c0-.417-.144-.771-.427-1.051-.271-.273-.664-.434-1.055-.434h-12.297v9.044h12.297c.414,0,.765-.146,1.052-.434.27-.267.43-.66.43-1.051v-6.075Z" fill="#ccc"/>
    </g>
    <path d="M1797.603,1849.447c1.391,0,2.519,1.128,2.519,2.52s-1.128,2.519-2.519,2.519h-18.82c-.928,0-1.782-.511-2.223-1.328-.437-.82-.387-1.814.127-2.585l6.796-10.196h-1.164c-1.391,0-2.519-1.128-2.519-2.519s1.128-2.52,2.519-2.52h4.521l6.053-9.077h-14.109c-1.392,0-2.52-1.128-2.52-2.52s1.128-2.519,2.52-2.519h18.82c.927,0,1.781.51,2.222,1.327.437.818.387,1.812-.127,2.586l-6.799,10.199h1.164c1.391,0,2.519,1.128,2.519,2.519s-1.128,2.52-2.519,2.52h-4.524l-6.049,9.074h14.113Z" fill="#ccc"/>
    <g>
      <path d="M1739.901,1865.226c1.392,0,2.52,1.128,2.52,2.519s-1.128,2.52-2.52,2.52h-6.889v25.706c0,1.391-1.128,2.519-2.52,2.519s-2.519-1.128-2.519-2.519v-25.706h-6.89c-1.392,0-2.519-1.128-2.519-2.52s1.127-2.519,2.519-2.519h18.816Z" fill="#ccc"/>
      <path d="M1768.751,1865.226c1.392,0,2.52,1.128,2.52,2.519s-1.128,2.52-2.52,2.52h-6.889v25.706c0,1.391-1.128,2.519-2.52,2.519s-2.519-1.128-2.519-2.519v-25.706h-6.89c-1.392,0-2.519-1.128-2.519-2.52s1.127-2.519,2.519-2.519h18.816Z" fill="#ccc"/>
      <path d="M1800.018,1881.79l.101,7.974c0,2.372-.958,4.647-2.63,6.275-1.581,1.535-3.767,2.416-5.995,2.416h-6.072c-1.901,0-3.77-.638-5.254-1.802l-.544-.414c-2.132-1.611-3.36-4.097-3.36-6.809v-15.181c0-2.669,1.262-5.218,3.37-6.812l.561-.427c1.461-1.145,3.326-1.785,5.228-1.785h6.673c1.685,0,3.333.504,4.765,1.458l2.005,1.338c1.157.773,1.468,2.335.697,3.493-.771,1.161-2.332,1.468-3.493.697l-2.002-1.338c-.601-.4-1.281-.61-1.972-.61h-6.673c-.794,0-1.534.253-2.151.733l-.594.454c-.868.65-1.378,1.698-1.378,2.799v15.181c0,1.121.497,2.139,1.367,2.796l.577.44c.638.5,1.382.754,2.176.754h6.072c.931,0,1.835-.364,2.482-.991.71-.69,1.104-1.625,1.104-2.629l-.069-5.455h-5.756c-1.391,0-2.519-1.128-2.519-2.519s1.128-2.52,2.519-2.52h8.241c1.378,0,2.502,1.108,2.519,2.486l.007-.004Z" fill="#ccc"/>
    </g>
    <g>
      <path d="M1739.834,1937.45c1.392,0,2.52,1.128,2.52,2.519s-1.128,2.52-2.52,2.52h-18.85c-1.392,0-2.52-1.128-2.52-2.52v-28.225c0-1.392,1.128-2.52,2.52-2.52h18.85c1.392,0,2.52,1.128,2.52,2.52s-1.128,2.519-2.52,2.519h-16.331v9.078h12.795c1.392,0,2.519,1.128,2.519,2.519s-1.127,2.52-2.519,2.52h-12.795v9.074h16.331v-.003Z" fill="#ccc"/>
      <path d="M1768.702,1909.228c1.392,0,2.519,1.128,2.519,2.519s-1.127,2.52-2.519,2.52h-6.89v25.706c0,1.391-1.128,2.519-2.519,2.519s-2.52-1.128-2.52-2.519v-25.706h-6.89c-1.391,0-2.519-1.128-2.519-2.52s1.128-2.519,2.519-2.519h18.817Z" fill="#ccc"/>
      <path d="M1798.602,1917.192c.984,1.194,1.535,2.712,1.535,4.264v18.517c0,1.391-1.128,2.519-2.52,2.519s-2.519-1.128-2.519-2.519v-11.594h-13.846v11.594c0,1.391-1.128,2.519-2.52,2.519s-2.519-1.128-2.519-2.519v-18.517c0-1.521.523-2.982,1.512-4.234l4.23-5.168c3.013-3.606,9.455-3.586,12.428-.017l4.22,5.155h-.003ZM1781.26,1923.338h13.849v-1.886c0-.387-.137-.754-.391-1.061l-4.214-5.147c-1.011-1.212-3.616-1.231-4.657.02l-4.187,5.121c-.357.444-.4.827-.4,1.071v1.882Z" fill="#ccc"/>
    </g>
    <g>
      <path d="M1845.573,1871.883v20.618c0,3.507-3.089,6.355-6.889,6.355h-10.109c-3.863,0-6.89-2.792-6.89-6.355v-20.618c0-3.507,3.09-6.355,6.89-6.355h10.109c3.8,0,6.889,2.849,6.889,6.355ZM1840.536,1871.883c0-.728-.831-1.321-1.852-1.321h-10.109c-1.061,0-1.852.697-1.852,1.321v20.618c0,.728.831,1.321,1.852,1.321h10.109c1.061,0,1.852-.697,1.852-1.321v-20.618Z" fill="#ccc"/>
      <path d="M1874.472,1871.883v20.618c0,3.507-3.089,6.355-6.889,6.355h-10.109c-3.863,0-6.89-2.792-6.89-6.355v-20.618c0-3.507,3.09-6.355,6.89-6.355h10.109c3.8,0,6.889,2.849,6.889,6.355ZM1869.435,1871.883c0-.728-.831-1.321-1.852-1.321h-10.109c-1.061,0-1.852.697-1.852,1.321v20.618c0,.728.831,1.321,1.852,1.321h10.109c1.061,0,1.852-.697,1.852-1.321v-20.618Z" fill="#ccc"/>
      <path d="M1898.321,1879.357v.033c0,1.392-1.128,2.52-2.519,2.52s-2.52-1.128-2.52-2.52,1.128-2.535,2.52-2.535,2.519,1.111,2.519,2.502ZM1898.321,1892.269v.033c0,1.391-1.128,2.519-2.519,2.519s-2.52-1.128-2.52-2.519,1.128-2.536,2.52-2.536,2.519,1.111,2.519,2.503Z" fill="#ccc"/>
      <path d="M1941.019,1871.883v20.618c0,3.507-3.089,6.355-6.889,6.355h-10.109c-3.863,0-6.89-2.792-6.89-6.355v-20.618c0-3.507,3.09-6.355,6.89-6.355h10.109c3.8,0,6.889,2.849,6.889,6.355ZM1935.982,1871.883c0-.728-.831-1.321-1.852-1.321h-10.109c-1.061,0-1.852.697-1.852,1.321v20.618c0,.728.831,1.321,1.852,1.321h10.109c1.061,0,1.852-.697,1.852-1.321v-20.618Z" fill="#ccc"/>
      <path d="M1967.516,1881.151c1.548,1.548,2.402,3.603,2.402,5.781v2.369c0,3.029-1.441,5.905-3.854,7.696-1.632,1.234-3.624,1.896-5.739,1.896h-2.102c-1.912,0-7.594-1.062-9.602-2.068l-1.148-.541c-1.257-.594-1.795-2.095-1.2-3.353.594-1.262,2.092-1.792,3.353-1.201l1.201.567c1.114.557,5.922,1.562,7.399,1.562h2.103c1.008,0,1.945-.311,2.716-.892,1.171-.874,1.835-2.205,1.835-3.666v-2.369c0-.834-.33-1.621-.931-2.222l-.404-.404c-.48-.483-1.145-.761-1.818-.761h-4.971c-.971,0-1.858-.56-2.275-1.44s-.29-1.919.327-2.673l7.246-8.868h-10.002c-1.392,0-2.52-1.127-2.52-2.519s1.128-2.519,2.52-2.519h15.313c.971,0,1.858.561,2.275,1.44.417.878.29,1.919-.327,2.673l-7.253,8.875c1.885.083,3.71.887,5.051,2.229l.404.403v.004Z" fill="#ccc"/>
      <path d="M1993.768,1879.357v.033c0,1.392-1.128,2.52-2.519,2.52s-2.52-1.128-2.52-2.52,1.128-2.535,2.52-2.535,2.519,1.111,2.519,2.502ZM1993.768,1892.269v.033c0,1.391-1.128,2.519-2.519,2.519s-2.52-1.128-2.52-2.519,1.128-2.536,2.52-2.536,2.519,1.111,2.519,2.503Z" fill="#ccc"/>
      <path d="M2033.4,1880.921c1.094.276,1.901,1.265,1.901,2.442s-.808,2.165-1.901,2.441v10.536c0,1.392-1.128,2.52-2.519,2.52s-2.52-1.128-2.52-2.52v-10.462h-13.262c-.984,0-1.878-.567-2.289-1.462-.413-.894-.267-1.945.371-2.692l13.078-15.313c.477-.561,1.178-.884,1.915-.884h2.702c1.392,0,2.52,1.127,2.52,2.519v12.868l.003.007ZM2028.359,1871.709l-7.797,9.132h7.797v-9.132Z" fill="#ccc"/>
      <path d="M2061.647,1893.812c1.392,0,2.52,1.127,2.52,2.519s-1.128,2.519-2.52,2.519h-18.85c-.348,0-.681-.073-.981-.2-.02-.006-.033-.026-.053-.036-.291-.13-.551-.311-.768-.534-.01-.01-.023-.013-.033-.023-.09-.093-.127-.213-.197-.316-.11-.157-.23-.304-.3-.484-.07-.183-.087-.373-.113-.566-.021-.124-.074-.23-.074-.357,0-.014.007-.026.007-.04.004-.207.067-.403.12-.604.033-.117.037-.247.084-.357.043-.104.13-.187.189-.283.11-.184.217-.37.371-.521.01-.01.023-.033.023-.033l14.346-13.445c2.169-2.039,3.353-4.247,3.25-6.06-.07-1.268-.771-2.378-2.133-3.393-.917-.678-2.225-1.037-3.767-1.037-2.973,0-5.298.507-6.999,2.979-.787,1.151-2.353,1.438-3.503.651-1.145-.788-1.435-2.355-.647-3.504,3.55-5.161,9.071-5.161,11.149-5.161,2.626,0,4.965.701,6.767,2.025,3.242,2.419,4.054,5.225,4.163,7.156.19,3.35-1.524,6.906-4.834,10.019l-9.702,9.096h12.481l.003-.007Z" fill="#ccc"/>
    </g>
    <g>
      <path d="M1845.161,1915.516v20.618c0,3.507-3.089,6.355-6.889,6.355h-10.109c-3.863,0-6.89-2.792-6.89-6.355v-20.618c0-3.507,3.09-6.355,6.89-6.355h10.109c3.8,0,6.889,2.849,6.889,6.355ZM1840.124,1915.516c0-.728-.831-1.321-1.852-1.321h-10.109c-1.061,0-1.852.697-1.852,1.321v20.618c0,.728.831,1.321,1.852,1.321h10.109c1.061,0,1.852-.697,1.852-1.321v-20.618Z" fill="#ccc"/>
      <path d="M1871.542,1937.445c1.392,0,2.52,1.127,2.52,2.519s-1.128,2.519-2.52,2.519h-18.85c-.348,0-.681-.073-.981-.2-.02-.006-.033-.026-.053-.036-.291-.13-.551-.311-.768-.534-.01-.01-.023-.013-.033-.023-.09-.093-.127-.213-.197-.316-.11-.157-.23-.304-.3-.484-.07-.183-.087-.373-.113-.566-.021-.124-.074-.23-.074-.357,0-.014.007-.026.007-.04.004-.207.067-.403.12-.604.033-.117.037-.247.084-.357.043-.104.13-.187.189-.283.11-.184.217-.37.371-.521.01-.01.022-.033.022-.033l14.347-13.445c2.169-2.039,3.353-4.247,3.25-6.06-.07-1.268-.771-2.378-2.133-3.393-.917-.678-2.225-1.037-3.767-1.037-2.973,0-5.298.507-6.999,2.979-.787,1.151-2.353,1.438-3.503.651-1.145-.788-1.435-2.355-.647-3.504,3.55-5.161,9.071-5.161,11.149-5.161,2.626,0,4.965.701,6.767,2.025,3.243,2.419,4.054,5.225,4.163,7.156.19,3.35-1.524,6.906-4.834,10.019l-9.702,9.096h12.481l.003-.007Z" fill="#ccc"/>
      <path d="M1897.909,1922.99v.033c0,1.392-1.128,2.52-2.519,2.52s-2.52-1.128-2.52-2.52,1.128-2.535,2.52-2.535,2.519,1.111,2.519,2.502ZM1897.909,1935.902v.033c0,1.391-1.128,2.519-2.519,2.519s-2.52-1.128-2.52-2.519,1.128-2.536,2.52-2.536,2.519,1.111,2.519,2.503Z" fill="#ccc"/>
      <path d="M1940.608,1915.516v20.618c0,3.507-3.089,6.355-6.889,6.355h-10.109c-3.863,0-6.89-2.792-6.89-6.355v-20.618c0-3.507,3.09-6.355,6.89-6.355h10.109c3.8,0,6.889,2.849,6.889,6.355ZM1935.571,1915.516c0-.728-.831-1.321-1.852-1.321h-10.109c-1.061,0-1.852.697-1.852,1.321v20.618c0,.728.831,1.321,1.852,1.321h10.109c1.061,0,1.852-.697,1.852-1.321v-20.618Z" fill="#ccc"/>
      <path d="M1957.346,1920.94c7.272,0,12.16,4.323,12.16,10.76,0,6.339-5.001,10.763-12.16,10.763s-11.728-4.224-11.728-10.763c0-.153.037-.287.04-.438-.007-.07-.04-.127-.04-.196,0-3.464,3.093-10.517,6.082-15.341,2.002-3.236,3.333-4.564,4.504-5.735.984-.984,2.626-1.03,3.61-.047.984.984,1.031,2.536.047,3.517l-.094.094c-1.074,1.071-2.085,2.085-3.783,4.824-.591.947-1.124,1.908-1.628,2.862.943-.18,1.928-.304,2.989-.304v.004ZM1964.469,1931.696c0-5.164-4.981-5.722-7.123-5.722-3.053,0-6.689.994-6.689,5.722,0,3.693,2.375,5.726,6.689,5.726,4.394,0,7.123-2.192,7.123-5.726Z" fill="#ccc"/>
      <path d="M1993.356,1922.99v.033c0,1.392-1.128,2.52-2.519,2.52s-2.52-1.128-2.52-2.52,1.128-2.535,2.52-2.535,2.519,1.111,2.519,2.502ZM1993.356,1935.902v.033c0,1.391-1.128,2.519-2.519,2.519s-2.52-1.128-2.52-2.519,1.128-2.536,2.52-2.536,2.519,1.111,2.519,2.503Z" fill="#ccc"/>
      <path d="M2036.054,1915.516v20.618c0,3.507-3.089,6.355-6.889,6.355h-10.109c-3.863,0-6.89-2.792-6.89-6.355v-20.618c0-3.507,3.09-6.355,6.89-6.355h10.109c3.8,0,6.889,2.849,6.889,6.355ZM2031.017,1915.516c0-.728-.831-1.321-1.852-1.321h-10.109c-1.061,0-1.852.697-1.852,1.321v20.618c0,.728.831,1.321,1.852,1.321h10.109c1.061,0,1.852-.697,1.852-1.321v-20.618Z" fill="#ccc"/>
      <path d="M2062.435,1937.445c1.392,0,2.52,1.127,2.52,2.519s-1.128,2.519-2.52,2.519h-18.85c-.348,0-.681-.073-.981-.2-.02-.006-.033-.026-.053-.036-.291-.13-.551-.311-.768-.534-.01-.01-.023-.013-.033-.023-.09-.093-.127-.213-.197-.316-.11-.157-.23-.304-.3-.484-.07-.183-.087-.373-.113-.566-.021-.124-.074-.23-.074-.357,0-.014.007-.026.007-.04.004-.207.067-.403.12-.604.033-.117.037-.247.084-.357.043-.104.13-.187.189-.283.11-.184.217-.37.371-.521.01-.01.023-.033.023-.033l14.346-13.445c2.169-2.039,3.353-4.247,3.25-6.06-.07-1.268-.771-2.378-2.133-3.393-.917-.678-2.225-1.037-3.767-1.037-2.973,0-5.298.507-6.999,2.979-.787,1.151-2.353,1.438-3.503.651-1.145-.788-1.435-2.355-.647-3.504,3.55-5.161,9.071-5.161,11.149-5.161,2.626,0,4.965.701,6.767,2.025,3.242,2.419,4.054,5.225,4.163,7.156.19,3.35-1.524,6.906-4.834,10.019l-9.702,9.096h12.481l.003-.007Z" fill="#ccc"/>
    </g>
    <g>
      <path d="M1846.247,1828.251v20.618c0,3.507-3.089,6.355-6.889,6.355h-10.109c-3.863,0-6.89-2.792-6.89-6.355v-20.618c0-3.507,3.09-6.355,6.89-6.355h10.109c3.8,0,6.889,2.849,6.889,6.355ZM1841.21,1828.251c0-.728-.831-1.321-1.852-1.321h-10.109c-1.061,0-1.852.697-1.852,1.321v20.618c0,.728.831,1.321,1.852,1.321h10.109c1.061,0,1.852-.697,1.852-1.321v-20.618Z" fill="#ccc"/>
      <path d="M1872.628,1850.181c1.392,0,2.52,1.127,2.52,2.519s-1.128,2.519-2.52,2.519h-18.85c-.348,0-.681-.073-.981-.2-.02-.006-.033-.026-.053-.036-.291-.13-.551-.311-.768-.534-.01-.01-.023-.013-.033-.023-.09-.093-.127-.213-.197-.316-.11-.157-.23-.304-.3-.484-.07-.183-.087-.373-.113-.566-.021-.124-.074-.23-.074-.357,0-.014.007-.026.007-.04.004-.207.067-.403.12-.604.033-.117.037-.247.084-.357.043-.104.13-.187.189-.283.11-.184.217-.37.371-.521.01-.01.022-.033.022-.033l14.347-13.445c2.169-2.039,3.353-4.247,3.25-6.06-.07-1.268-.771-2.378-2.133-3.393-.917-.678-2.225-1.037-3.767-1.037-2.973,0-5.298.507-6.999,2.979-.787,1.151-2.353,1.438-3.503.651-1.145-.788-1.435-2.355-.647-3.504,3.55-5.161,9.071-5.161,11.149-5.161,2.626,0,4.965.701,6.767,2.025,3.243,2.419,4.054,5.225,4.163,7.156.19,3.35-1.524,6.906-4.834,10.019l-9.702,9.096h12.481l.003-.007Z" fill="#ccc"/>
      <path d="M1898.995,1835.726v.033c0,1.392-1.128,2.52-2.519,2.52s-2.52-1.128-2.52-2.52,1.128-2.535,2.52-2.535,2.519,1.111,2.519,2.502ZM1898.995,1848.638v.033c0,1.391-1.128,2.519-2.519,2.519s-2.52-1.128-2.52-2.519,1.128-2.536,2.52-2.536,2.519,1.111,2.519,2.503Z" fill="#ccc"/>
      <path d="M1941.694,1828.251v20.618c0,3.507-3.089,6.355-6.889,6.355h-10.109c-3.863,0-6.89-2.792-6.89-6.355v-20.618c0-3.507,3.09-6.355,6.89-6.355h10.109c3.8,0,6.889,2.849,6.889,6.355ZM1936.657,1828.251c0-.728-.831-1.321-1.852-1.321h-10.109c-1.061,0-1.852.697-1.852,1.321v20.618c0,.728.831,1.321,1.852,1.321h10.109c1.061,0,1.852-.697,1.852-1.321v-20.618Z" fill="#ccc"/>
      <path d="M1968.074,1850.181c1.392,0,2.52,1.127,2.52,2.519s-1.128,2.519-2.52,2.519h-18.85c-.348,0-.681-.073-.981-.2-.02-.006-.033-.026-.053-.036-.291-.13-.551-.311-.768-.534-.01-.01-.023-.013-.033-.023-.09-.093-.127-.213-.197-.316-.11-.157-.23-.304-.3-.484-.07-.183-.087-.373-.113-.566-.021-.124-.074-.23-.074-.357,0-.014.007-.026.007-.04.004-.207.067-.403.12-.604.033-.117.037-.247.084-.357.043-.104.13-.187.189-.283.11-.184.217-.37.371-.521.01-.01.023-.033.023-.033l14.346-13.445c2.169-2.039,3.353-4.247,3.25-6.06-.07-1.268-.771-2.378-2.133-3.393-.917-.678-2.225-1.037-3.767-1.037-2.973,0-5.298.507-6.999,2.979-.787,1.151-2.353,1.438-3.503.651-1.145-.788-1.435-2.355-.647-3.504,3.55-5.161,9.071-5.161,11.149-5.161,2.626,0,4.965.701,6.767,2.025,3.242,2.419,4.054,5.225,4.163,7.156.19,3.35-1.524,6.906-4.834,10.019l-9.702,9.096h12.481l.003-.007Z" fill="#ccc"/>
      <path d="M1994.442,1835.726v.033c0,1.392-1.128,2.52-2.519,2.52s-2.52-1.128-2.52-2.52,1.128-2.535,2.52-2.535,2.519,1.111,2.519,2.502ZM1994.442,1848.638v.033c0,1.391-1.128,2.519-2.519,2.519s-2.52-1.128-2.52-2.519,1.128-2.536,2.52-2.536,2.519,1.111,2.519,2.503Z" fill="#ccc"/>
      <path d="M2020.626,1850.224c1.318.084,2.369,1.151,2.369,2.489,0,1.391-1.128,2.519-2.519,2.519h-4.704c-1.392,0-2.52-1.128-2.52-2.519,0-1.328,1.034-2.383,2.336-2.482v-22.587c-.411-.19-.784-.467-1.052-.874-.764-1.161-.443-2.726.718-3.49l1.468-.967c.063-.044.141-.047.207-.084.146-.08.297-.137.46-.187.171-.054.331-.09.504-.104.074-.007.137-.043.214-.043.083,0,.153.04.237.046.173.018.34.051.507.104.153.051.293.107.431.181.14.073.267.16.394.264.137.109.25.229.36.363.053.066.126.104.173.177.044.063.047.141.084.207.08.146.137.3.187.464.05.167.087.327.101.497.006.076.043.14.043.217v25.807l.003.003Z" fill="#ccc"/>
      <path d="M2047.683,1852.122c-2.959,2.956-10.285,3.106-11.724,3.106-1.391,0-2.519-1.128-2.519-2.516s1.124-2.522,2.516-2.522c3.093-.003,7.206-.674,8.164-1.632,1.234-1.234,1.984-3.773,2.412-6.592-1.812.924-4.007,1.451-6.569,1.451-7.377,0-11.961-4.124-11.961-10.76,0-5.205,3.143-10.763,11.961-10.763,8.598,0,11.773,5.281,11.927,10.369.014.08.054.149.061.229.097,1.476.797,14.561-4.268,19.628ZM2046.882,1832.654c0-3.8-2.332-5.725-6.923-5.725-4.657,0-6.923,1.875-6.923,5.725,0,3.797,2.329,5.723,6.923,5.723s6.923-1.922,6.923-5.723Z" fill="#ccc"/>
    </g>
    <g>
      <path d="M1888.644,1792.545c1.094.276,1.901,1.265,1.901,2.442s-.808,2.165-1.901,2.441v10.536c0,1.392-1.128,2.52-2.519,2.52s-2.52-1.128-2.52-2.52v-10.462h-13.262c-.984,0-1.878-.567-2.289-1.462-.413-.894-.267-1.945.371-2.692l13.078-15.313c.477-.561,1.178-.884,1.915-.884h2.702c1.392,0,2.52,1.127,2.52,2.519v12.868l.003.007ZM1883.603,1783.333l-7.797,9.132h7.797v-9.132Z" fill="#ccc"/>
      <path d="M1916.891,1805.436c1.392,0,2.52,1.127,2.52,2.519s-1.128,2.519-2.52,2.519h-18.85c-.348,0-.681-.073-.981-.2-.02-.006-.033-.026-.053-.036-.291-.13-.551-.311-.768-.534-.01-.01-.023-.013-.033-.023-.09-.093-.127-.213-.197-.316-.11-.157-.23-.304-.3-.484-.07-.183-.087-.373-.113-.566-.021-.124-.074-.23-.074-.357,0-.014.007-.026.007-.04.004-.207.067-.403.12-.604.033-.117.037-.247.084-.357.043-.104.13-.187.189-.283.11-.184.217-.37.371-.521.01-.01.023-.033.023-.033l14.346-13.445c2.169-2.039,3.353-4.247,3.25-6.06-.07-1.268-.771-2.378-2.133-3.393-.917-.678-2.225-1.037-3.767-1.037-2.973,0-5.298.507-6.999,2.979-.787,1.151-2.353,1.438-3.503.651-1.145-.788-1.435-2.355-.647-3.504,3.55-5.161,9.071-5.161,11.149-5.161,2.626,0,4.965.701,6.767,2.025,3.242,2.419,4.054,5.225,4.163,7.156.19,3.35-1.524,6.906-4.834,10.019l-9.702,9.096h12.481l.003-.007Z" fill="#ccc"/>
      <path d="M1973.506,1792.775c1.548,1.548,2.401,3.603,2.401,5.781v2.369c0,3.029-1.44,5.905-3.853,7.696-1.632,1.234-3.624,1.896-5.739,1.896h-2.102c-1.912,0-7.594-1.062-9.602-2.068l-1.148-.541c-1.258-.594-1.795-2.095-1.2-3.353.594-1.262,2.092-1.792,3.353-1.201l1.201.567c1.114.557,5.922,1.562,7.399,1.562h2.103c1.008,0,1.945-.311,2.716-.892,1.171-.874,1.835-2.205,1.835-3.666v-2.369c0-.834-.33-1.621-.931-2.222l-.404-.404c-.48-.483-1.145-.76-1.818-.76h-4.971c-.971,0-1.858-.561-2.275-1.441s-.29-1.919.327-2.673l7.246-8.868h-10.002c-1.392,0-2.52-1.127-2.52-2.519s1.128-2.519,2.52-2.519h15.313c.971,0,1.858.561,2.275,1.44.417.878.29,1.919-.327,2.673l-7.253,8.875c1.885.083,3.71.887,5.051,2.229l.404.403v.004Z" fill="#ccc"/>
      <path d="M2009.405,1792.775c1.548,1.548,2.402,3.603,2.402,5.781v2.369c0,3.029-1.441,5.905-3.854,7.696-1.632,1.234-3.624,1.896-5.739,1.896h-2.102c-1.912,0-7.594-1.062-9.602-2.068l-1.148-.541c-1.257-.594-1.795-2.095-1.2-3.353.594-1.262,2.092-1.792,3.353-1.201l1.201.567c1.114.557,5.922,1.562,7.399,1.562h2.103c1.008,0,1.945-.311,2.716-.892,1.171-.874,1.835-2.205,1.835-3.666v-2.369c0-.834-.33-1.621-.931-2.222l-.404-.404c-.48-.483-1.145-.76-1.818-.76h-4.971c-.971,0-1.858-.561-2.275-1.441s-.29-1.919.327-2.673l7.246-8.868h-10.002c-1.392,0-2.52-1.127-2.52-2.519s1.128-2.519,2.52-2.519h15.313c.971,0,1.858.561,2.275,1.44.417.878.29,1.919-.327,2.673l-7.253,8.875c1.885.083,3.71.887,5.051,2.229l.404.403v.004Z" fill="#ccc"/>
      <path d="M2028.857,1809.795v.07c0,1.392-1.128,2.519-2.519,2.519s-2.52-1.127-2.52-2.519,1.128-2.556,2.52-2.556,2.519,1.095,2.519,2.485Z" fill="#ccc"/>
      <path d="M2052.595,1788.932c7.272,0,12.16,4.323,12.16,10.76,0,6.339-5.001,10.763-12.16,10.763s-11.728-4.224-11.728-10.763c0-.153.037-.287.04-.438-.007-.07-.04-.127-.04-.196,0-3.464,3.093-10.517,6.082-15.341,2.002-3.236,3.333-4.564,4.504-5.735.984-.984,2.626-1.03,3.61-.047.984.984,1.031,2.536.047,3.517l-.094.094c-1.074,1.071-2.085,2.085-3.783,4.824-.591.947-1.124,1.908-1.628,2.862.943-.18,1.928-.304,2.989-.304v.004ZM2059.718,1799.687c0-5.164-4.981-5.722-7.123-5.722-3.053,0-6.689.994-6.689,5.722,0,3.693,2.375,5.726,6.689,5.726,4.394,0,7.123-2.192,7.123-5.726Z" fill="#ccc"/>
    </g>
    <g>
      <path d="M1798.542,1746.173c1.675,1.559,2.723,3.78,2.723,6.242v3.337c0,4.681-3.811,8.491-8.491,8.491h-12.845c-1.392,0-2.52-1.128-2.52-2.52v-28.225c0-1.392,1.128-2.52,2.52-2.52h12.578c2.562,0,4.924,1.275,6.315,3.413.804,1.181,1.241,2.64,1.241,4.177v3.17c0,1.838-.611,3.31-1.525,4.434h.004ZM1782.451,1736.024v7.873h10.519c.581-.109,2.059-.547,2.059-2.154v-3.17c0-.533-.137-.998-.4-1.389-.493-.757-1.258-1.167-2.121-1.167h-10.06l.004.007ZM1796.226,1752.419c0-1.789-1.354-3.267-3.09-3.467-.133.014-.267.014-.396.014h-10.293v10.242h10.326c1.905,0,3.453-1.551,3.453-3.453v-3.336Z" fill="#ccc"/>
      <path d="M1827.596,1730.946c1.392,0,2.519,1.128,2.519,2.52s-1.127,2.519-2.519,2.519h-6.89v25.706c0,1.391-1.128,2.52-2.519,2.52s-2.52-1.129-2.52-2.52v-25.706h-6.89c-1.391,0-2.519-1.128-2.519-2.519s1.128-2.52,2.519-2.52h18.817Z" fill="#ccc"/>
    </g>
    <path d="M963.103,757.704c2.354,2.725,2.298,5.32,2.249,7.41l-.015.958c.01,3.9-1.213,7.369-3.356,9.527-1.836,1.841-4.364,3.194-6.938,3.716-1.982.402-12.72.958-15.965,1.114-.051,0-.102,0-.152,0-1.692.004-3.106-1.326-3.19-3.031-.085-1.755,1.266-3.249,3.026-3.338,6.516-.325,13.915-.784,15.016-.998,1.333-.274,2.745-1.025,3.684-1.968.699-.703,1.509-2.436,1.502-5.015l.014-1.119c.038-1.769.02-2.262-.692-3.087-.804-.923-1.467-1.098-3.042-1.162l-16.369.043c-1.751.005-3.178-1.401-3.195-3.153l-.169-16.086c-.006-.853.321-1.668.918-2.273.598-.605,1.412-.945,2.26-.947l21.865-.058c1.76-.004,3.191,1.418,3.195,3.178.005,1.76-1.418,3.191-3.178,3.195l-18.652.049.101,9.712,13.343-.035c2.655.107,5.316.582,7.737,3.361l.004.004Z" fill="#ccc"/>
    <path d="M1301.69,1740.807c0,1.851-1.5,3.351-3.351,3.351h-25.056c-1.85,0-3.35-1.5-3.35-3.351v-37.583c0-1.851,1.5-3.351,3.35-3.351s3.351,1.5,3.351,3.351v34.232h21.706c1.851,0,3.351,1.5,3.351,3.351Z" fill="#ccc"/>
    <line x1="1063.046" y1="1177.862" x2="429.043" y2="1177.862" fill="none" stroke="#ccc" stroke-linecap="square" stroke-miterlimit="15.1" stroke-width="6"/>
    <line x1="2139.435" y1="1177.862" x2="1217.663" y2="1177.862" fill="none" stroke="#ccc" stroke-linecap="square" stroke-miterlimit="15.1" stroke-width="6"/>
    <g>
      <path d="M1280.923,1629.258l.127,10.089c0,3.001-1.211,5.88-3.326,7.939-2.001,1.941-4.766,3.056-7.585,3.056h-7.682c-2.406,0-4.77-.806-6.648-2.279l-.688-.523c-2.697-2.038-4.25-5.183-4.25-8.615v-19.205c0-3.377,1.596-6.602,4.263-8.619l.709-.541c1.849-1.447,4.208-2.258,6.614-2.258h8.442c2.132,0,4.217.637,6.028,1.845l2.537,1.692c1.465.979,1.857,2.955.882,4.419-.975,1.47-2.951,1.857-4.419.883l-2.533-1.692c-.76-.507-1.621-.772-2.495-.772h-8.442c-1.005,0-1.942.32-2.723.928l-.751.574c-1.097.823-1.743,2.148-1.743,3.542v19.205c0,1.419.629,2.706,1.73,3.538l.73.557c.806.633,1.748.954,2.752.954h7.683c1.177,0,2.321-.46,3.14-1.254.899-.873,1.397-2.056,1.397-3.326l-.089-6.901h-7.281c-1.76,0-3.187-1.427-3.187-3.187s1.427-3.188,3.187-3.188h10.426c1.744,0,3.166,1.401,3.187,3.146l.008-.005Z" fill="#ccc"/>
      <path d="M1314.407,1644c1.76,0,3.187,1.427,3.187,3.188s-1.427,3.187-3.187,3.187h-23.849c-.439,0-.861-.093-1.241-.253-.025-.009-.042-.034-.067-.047-.367-.165-.697-.393-.971-.676-.013-.012-.029-.017-.042-.029-.114-.118-.161-.27-.249-.4-.139-.199-.292-.385-.38-.612-.089-.232-.11-.473-.144-.718-.025-.156-.093-.291-.093-.451,0-.018.008-.034.008-.051.004-.262.084-.511.152-.765.042-.147.046-.312.105-.451.055-.131.165-.236.241-.359.139-.231.274-.468.469-.658.013-.013.029-.042.029-.042l18.151-17.011c2.743-2.579,4.242-5.373,4.111-7.665-.089-1.604-.976-3.01-2.697-4.293-1.161-.857-2.815-1.313-4.766-1.313-3.761,0-6.703.642-8.855,3.77-.996,1.457-2.977,1.819-4.433.823-1.448-.996-1.815-2.979-.819-4.432,4.492-6.53,11.477-6.53,14.107-6.53,3.322,0,6.281.887,8.561,2.562,4.103,3.06,5.128,6.609,5.268,9.054.24,4.238-1.929,8.737-6.116,12.676l-12.274,11.507h15.79l.005-.009Z" fill="#ccc"/>
    </g>
  </g>
  <g id="q" data-name="HUD_DGTL_RWS_GUN_LCOS_Arrows_-_Dark">
    <path d="M1466.63,1153.629l110.592-34.899-10.108-16.996,765.118-500.632c24.329,34.156,71.338,44.547,108.01,22.737,38.631-22.975,51.368-73.096,28.393-111.727-22.975-38.631-73.096-51.368-111.727-28.393-36.672,21.81-49.985,68.077-31.588,105.761l-765.118,500.631-10.108-16.996-83.464,80.512ZM2363.122,494.166c32.924-19.581,75.487-8.764,95.067,24.159,19.581,32.924,8.764,75.487-24.159,95.067-32.924,19.581-75.487,8.764-95.067-24.159-19.581-32.924-8.764-75.487,24.159-95.067Z" fill="#ccc" stroke="#161923" stroke-miterlimit="10" stroke-width="4"/>
    <path d="M1264.22,948.802l-15.795-112.054-17.972,7.17L961.512,175.468c6.474-2.907,12.675-6.693,18.412-11.417,34.698-28.571,39.682-80.044,11.112-114.741-28.571-34.698-80.044-39.682-114.742-11.111-34.697,28.57-39.682,80.043-11.111,114.741,20.806,25.268,53.755,34.758,83.529,27.027l269.152,668.802-19.782,6.091,66.137,93.942ZM874.566,145.214c-24.35-29.571-20.117-73.283,9.455-97.632,29.571-24.35,73.283-20.117,97.632,9.455,24.35,29.571,20.117,73.283-9.455,97.632-29.571,24.35-73.283,20.117-97.632-9.455Z" fill="#ccc" stroke="#161923" stroke-miterlimit="10" stroke-width="4"/>
    <path d="M947.522,1778.248l-40.243,108.761,19.623,2.437-54.724,296.311c-41.899-1.725-78.933,29.038-84.19,71.381-5.538,44.605,26.244,85.399,70.848,90.937,44.605,5.538,85.399-26.244,90.937-70.849,5.258-42.342-23.127-81.229-64.177-89.803l54.724-296.311,19.623,2.437-12.422-115.3ZM937.711,2275.728c-4.72,38.014-39.363,65.005-77.377,60.284s-65.005-39.363-60.284-77.377c4.72-38.014,39.363-65.005,77.377-60.284,38.014,4.72,65.005,39.363,60.284,77.377Z" fill="#ccc" stroke="#161923" stroke-miterlimit="10" stroke-width="4"/>
    <path d="M934.322,1161.22l2.32,19.477-682.499,95.468c-9.271-29.071-34.67-51.69-66.88-55.773-44.23-5.606-84.776,25.817-90.382,70.046-5.606,44.23,25.817,84.776,70.047,90.382,44.23,5.606,84.775-25.817,90.381-70.047.927-7.312.822-14.519-.166-21.489l681.085-95.269,2.32,19.477,108.08-39.382-114.307-12.89ZM245.349,1309.257c-4.778,37.695-39.209,64.38-76.905,59.602-37.695-4.778-64.38-39.209-59.602-76.905,4.778-37.695,39.209-64.38,76.905-59.602,37.695,4.778,64.38,39.209,59.602,76.905Z" fill="#ccc" stroke="#161923" stroke-miterlimit="10" stroke-width="4"/>
  </g>
  <g id="r" data-name="HUD_DGTL_RWS_GUN_LCOS_Numbers">
    <path d="M942.998,143.028v7h-22.401v-7h7.701v-71.834l-5.471,4.529-4.463-5.394,11.12-9.202h5.814v81.901h7.7Z" fill="#e3831f" stroke="#e3831f" stroke-miterlimit="10"/>
    <path d="M160.526,1344.839h43.276v7h-52.853v-6.976l9.202-10.042c4.823-5.373,9.248-10.298,13.448-14.778,2.086-2.086,4.176-4.525,6.195-6.885,2.111-2.461,10.542-11.949,10.542-11.949.956-.963,1.495-1.642,1.855-2.09.213-.27.396-.486.546-.654,1.025-1.306,1.887-2.958,2.496-4.785.578-1.732.872-3.118.872-5.895,0-2.384-.494-4.746-1.467-7.021-.885-2.349-2.296-4.042-4.158-5.904-2.125-1.75-4.137-3.011-6.104-3.745-5.628-2.111-9.419-2.107-15.041,0-2.576.966-4.515,2.156-6.108,3.748-1.837,1.838-3.314,3.935-4.158,5.905l-6.433-2.758c1.204-2.811,3.157-5.611,5.642-8.097,2.296-2.292,5.107-4.042,8.6-5.352,7.161-2.695,12.779-2.695,19.958,0,3.581,1.344,6.486,3.577,8.362,5.139,2.296,2.278,4.592,4.876,5.937,8.46,1.292,2.999,1.974,6.29,1.974,9.629,0,3.682-.473,5.831-1.232,8.109-.878,2.64-2.173,5.072-3.738,7.028l-.479.571c-.469.588-1.173,1.466-2.23,2.52.007,0-8.243,9.283-10.318,11.705-2.107,2.457-4.284,4.998-6.482,7.196-4.092,4.364-8.481,9.255-13.269,14.585l-4.831,5.338-.003-.003Z" fill="#e3831f" stroke="#e3831f" stroke-miterlimit="10"/>
    <path d="M893.999,2267.819c1.323,3.091,1.971,9.062,1.971,12.079,0,3.228,0,5.359-1.52,11.054-1.34,5.353-4.088,8.954-6.157,11.022-2.313,2.311-6.734,5.261-10.375,6.171-3.434,1.155-9.041,1.155-12.051,1.155-3.556,0-9.72-2.006-12.229-3.08-2.937-1.261-8.449-4.978-11.799-7.953l4.652-5.232c2.93,2.604,7.896,5.888,9.906,6.752,2.31.99,7.42,2.517,9.471,2.517,2.429,0,7.483,0,10.095-.872,2.24-.57,5.569-2.593,7.382-4.406,1.442-1.438,3.367-3.97,4.33-7.823,1.295-4.858,1.295-6.251,1.295-9.3,0-3.108-.71-7.715-1.467-9.475-.861-2.282-1.908-4.019-3.671-6.136-1.537-1.845-3.213-3.165-4.988-3.924-2.202-.945-4.533-1.82-6.671-1.82h-9.451v-7.623l20.798-23.528h-31.999v-7.001h39.552v9.021l-19.559,22.128h.658c3.413,0,6.682,1.204,9.429,2.384,2.797,1.2,5.359,3.178,7.609,5.877,2.279,2.729,3.71,5.127,4.792,8.012l-.003.003Z" fill="#e3831f" stroke="#e3831f" stroke-miterlimit="10"/>
    <path d="M2415.548,576.951h9.45v7h-9.45v17.5h-7v-17.5h-36.402v-7.62l36.168-60.284h7.231v60.9l.003.003ZM2408.544,529.265l-28.61,47.683h28.61v-47.683Z" fill="#e3831f" stroke="#e3831f" stroke-miterlimit="10"/>
  </g>
</svg>