<?xml version="1.0" encoding="UTF-8"?>
<svg xmlns="http://www.w3.org/2000/svg" width="1573.826" height="129.913" viewBox="0 0 1573.826 129.913">
  <g id="BUTTON_-_Dark">
    <rect x="779.587" y="20.5" width="83" height="91" rx="1.738" ry="1.738" fill="none" stroke="#ccc" stroke-miterlimit="10" stroke-width="5"/>
    <rect x="770.587" y="11" width="101" height="110" rx="5.276" ry="5.276" fill="none" stroke="#ccc" stroke-miterlimit="10" stroke-width="5"/>
  </g>
  <g id="FPLN_-_Dark">
    <g>
      <path d="M787.905,57.967v8.027h5.784v1.958h-5.784v11.845h-1.779v-23.789h13.436v1.958h-11.656Z" fill="#ccc" stroke="#ccc" stroke-miterlimit="10" stroke-width="2"/>
      <path d="M817.062,60.527c.352.902.517,1.71.517,2.539,0,.86-.179,1.772-.517,2.639-.298.761-.787,1.551-1.346,2.165-.514.566-1.346,1.321-2.394,1.706-.973.479-2.104.539-2.862.539h-5.07v9.692h-1.78v-23.887h6.763c1.07,0,2.005.213,2.942.672.964.473,1.749,1.051,2.402,1.769.559.613,1.048,1.402,1.346,2.167h0ZM815.428,64.932c.244-.625.373-1.27.373-1.866,0-.563-.115-1.108-.373-1.768-.205-.527-.576-1.123-.968-1.553-.504-.553-1.098-.987-1.868-1.365-.711-.348-1.395-.502-2.219-.502h-4.982v10.279h5.07c.962,0,1.646-.125,2.219-.405.641-.24,1.243-.677,1.779-1.266.393-.432.764-1.026.968-1.554h0Z" fill="#ccc" stroke="#ccc" stroke-miterlimit="10" stroke-width="2"/>
      <path d="M835.144,77.943v1.958h-13.524v-23.789h1.779v21.831h11.745Z" fill="#ccc" stroke="#ccc" stroke-miterlimit="10" stroke-width="2"/>
      <path d="M853.079,55.883v23.907h-1.766l-10.336-20.142v20.125h-1.779v-23.789h1.943l10.157,19.795v-19.896h1.78Z" fill="#ccc" stroke="#ccc" stroke-miterlimit="10" stroke-width="2"/>
    </g>
  </g>
</svg>