<?xml version="1.0" encoding="UTF-8"?>
<svg xmlns="http://www.w3.org/2000/svg" width="1584.293" height="1072.174" viewBox="0 0 1584.293 1072.174">
  <g id="CDNU_-_Dark">
    <path d="M1403.61,903.706l-1222.305.984c-5.445.004-9.861-4.411-9.856-9.857l.667-725.918c.005-5.432,4.408-9.834,9.84-9.839l1222.305-.984c5.445-.004,9.861,4.411,9.856,9.857l-.667,725.918c-.005,5.432-4.408,9.834-9.84,9.839Z" fill="none" stroke="#ccc" stroke-miterlimit="10" stroke-width="11"/>
    <polyline points="785.123 902.825 1331.623 903.324 1331.623 653.747 1406.623 653.747 1406.623 327.67 1331.623 327.67 1331.623 160.085 252.123 160.085 252.123 332.358 173.906 332.358 173.906 653.248 252.123 653.248 252.123 902.825 785.123 902.825" fill="none" stroke="#ccc" stroke-miterlimit="10" stroke-width="8"/>
    <rect x="425.123" y="200.085" width="735" height="553" rx="13.681" ry="13.681" fill="none" stroke="#ccc" stroke-miterlimit="10" stroke-width="5"/>
    <rect x="414.123" y="186.085" width="760" height="580" rx="18.29" ry="18.29" fill="none" stroke="#ccc" stroke-miterlimit="10" stroke-width="5"/>
    <g>
      <rect x="267.123" y="201.085" width="137" height="81" fill="none" stroke="#ccc" stroke-miterlimit="10" stroke-width="5"/>
      <polygon points="387.122 241.334 359.756 213.834 359.756 230.834 284.623 230.834 284.623 251.834 359.756 251.834 359.756 268.834 387.122 241.334" fill="#ccc"/>
    </g>
    <g>
      <rect x="267.275" y="327.932" width="137" height="81" fill="none" stroke="#ccc" stroke-miterlimit="10" stroke-width="5"/>
      <polygon points="387.275 368.182 359.908 340.682 359.908 357.682 284.775 357.682 284.775 378.682 359.908 378.682 359.908 395.682 387.275 368.182" fill="#ccc"/>
    </g>
    <g>
      <rect x="267.275" y="454.932" width="137" height="81" fill="none" stroke="#ccc" stroke-miterlimit="10" stroke-width="5"/>
      <polygon points="387.275 495.182 359.908 467.682 359.908 484.682 284.775 484.682 284.775 505.682 359.908 505.682 359.908 522.682 387.275 495.182" fill="#ccc"/>
    </g>
    <g>
      <rect x="267.102" y="579.367" width="137" height="81" fill="none" stroke="#ccc" stroke-miterlimit="10" stroke-width="5"/>
      <polygon points="387.101 619.617 359.734 592.117 359.734 609.117 284.601 609.117 284.601 630.117 359.734 630.117 359.734 647.117 387.101 619.617" fill="#ccc"/>
    </g>
    <g>
      <rect x="1182.254" y="201.085" width="137" height="81" transform="translate(2501.507 483.169) rotate(-180)" fill="none" stroke="#ccc" stroke-miterlimit="10" stroke-width="5"/>
      <polygon points="1199.255 241.334 1226.622 213.834 1226.622 230.834 1301.754 230.834 1301.754 251.834 1226.622 251.834 1226.622 268.834 1199.255 241.334" fill="#ccc"/>
    </g>
    <g>
      <rect x="1182.102" y="327.932" width="137" height="81" transform="translate(2501.203 736.865) rotate(-180)" fill="none" stroke="#ccc" stroke-miterlimit="10" stroke-width="5"/>
      <polygon points="1199.102 368.182 1226.469 340.682 1226.469 357.682 1301.602 357.682 1301.602 378.682 1226.469 378.682 1226.469 395.682 1199.102 368.182" fill="#ccc"/>
    </g>
    <g>
      <rect x="1182.102" y="454.932" width="137" height="81" transform="translate(2501.203 990.865) rotate(-180)" fill="none" stroke="#ccc" stroke-miterlimit="10" stroke-width="5"/>
      <polygon points="1199.102 495.182 1226.469 467.682 1226.469 484.682 1301.602 484.682 1301.602 505.682 1226.469 505.682 1226.469 522.682 1199.102 495.182" fill="#ccc"/>
    </g>
    <g>
      <rect x="1182.275" y="579.367" width="137" height="81" transform="translate(2501.551 1239.734) rotate(-180)" fill="none" stroke="#ccc" stroke-miterlimit="10" stroke-width="5"/>
      <polygon points="1199.276 619.617 1226.643 592.117 1226.643 609.117 1301.776 609.117 1301.776 630.117 1226.643 630.117 1226.643 647.117 1199.276 619.617" fill="#ccc"/>
    </g>
    <circle cx="356.123" cy="736.085" r="30.5" fill="none" stroke="#ccc" stroke-miterlimit="10" stroke-width="5"/>
    <circle cx="1239.123" cy="736.085" r="30.5" fill="none" stroke="#ccc" stroke-miterlimit="10" stroke-width="5"/>
    <rect x="315.623" y="792.539" width="83" height="91" fill="none" stroke="#ccc" stroke-miterlimit="10" stroke-width="5"/>
    <rect x="307.623" y="783.039" width="101" height="110" rx="9.778" ry="9.778" fill="none" stroke="#ccc" stroke-miterlimit="10" stroke-width="5"/>
    <rect x="439.623" y="792.539" width="83" height="91" fill="none" stroke="#ccc" stroke-miterlimit="10" stroke-width="5"/>
    <rect x="431.623" y="783.039" width="101" height="110" rx="9.778" ry="9.778" fill="none" stroke="#ccc" stroke-miterlimit="10" stroke-width="5"/>
    <rect x="563.623" y="792.539" width="83" height="91" fill="none" stroke="#ccc" stroke-miterlimit="10" stroke-width="5"/>
    <rect x="555.623" y="783.039" width="101" height="110" rx="9.778" ry="9.778" fill="none" stroke="#ccc" stroke-miterlimit="10" stroke-width="5"/>
    <rect x="687.623" y="792.539" width="83" height="91" fill="none" stroke="#ccc" stroke-miterlimit="10" stroke-width="5"/>
    <rect x="679.623" y="783.039" width="101" height="110" rx="9.778" ry="9.778" fill="none" stroke="#ccc" stroke-miterlimit="10" stroke-width="5"/>
    <rect x="809.623" y="792.539" width="83" height="91" fill="none" stroke="#ccc" stroke-miterlimit="10" stroke-width="5"/>
    <rect x="801.623" y="783.039" width="101" height="110" rx="9.778" ry="9.778" fill="none" stroke="#ccc" stroke-miterlimit="10" stroke-width="5"/>
    <rect x="936.623" y="792.539" width="83" height="91" fill="none" stroke="#ccc" stroke-miterlimit="10" stroke-width="5"/>
    <rect x="928.623" y="783.039" width="101" height="110" rx="9.778" ry="9.778" fill="none" stroke="#ccc" stroke-miterlimit="10" stroke-width="5"/>
    <rect x="1056.623" y="792.539" width="83" height="91" fill="none" stroke="#ccc" stroke-miterlimit="10" stroke-width="5"/>
    <rect x="1048.623" y="783.039" width="101" height="110" rx="9.778" ry="9.778" fill="none" stroke="#ccc" stroke-miterlimit="10" stroke-width="5"/>
    <rect x="1181.623" y="792.539" width="83" height="91" fill="none" stroke="#ccc" stroke-miterlimit="10" stroke-width="5"/>
    <rect x="1173.623" y="783.039" width="101" height="110" rx="9.778" ry="9.778" fill="none" stroke="#ccc" stroke-miterlimit="10" stroke-width="5"/>
    <circle cx="213.123" cy="265.085" r="34.5" fill="none" stroke="#ccc" stroke-miterlimit="10" stroke-width="3.5"/>
    <circle cx="213.123" cy="265.085" r="27.5" fill="none" stroke="#ccc" stroke-miterlimit="10" stroke-width="3.5"/>
    <circle cx="213.623" cy="718.585" r="34.5" fill="none" stroke="#ccc" stroke-miterlimit="10" stroke-width="3.5"/>
    <circle cx="213.623" cy="718.585" r="27.5" fill="none" stroke="#ccc" stroke-miterlimit="10" stroke-width="3.5"/>
    <circle cx="213.623" cy="837.585" r="34.5" fill="none" stroke="#ccc" stroke-miterlimit="10" stroke-width="3.5"/>
    <circle cx="213.623" cy="837.585" r="27.5" fill="none" stroke="#ccc" stroke-miterlimit="10" stroke-width="3.5"/>
    <circle cx="1372.623" cy="265.085" r="34.5" fill="none" stroke="#ccc" stroke-miterlimit="10" stroke-width="3.5"/>
    <circle cx="1372.623" cy="265.085" r="27.5" fill="none" stroke="#ccc" stroke-miterlimit="10" stroke-width="3.5"/>
    <circle cx="1372.123" cy="718.585" r="34.5" fill="none" stroke="#ccc" stroke-miterlimit="10" stroke-width="3.5"/>
    <circle cx="1372.123" cy="718.585" r="27.5" fill="none" stroke="#ccc" stroke-miterlimit="10" stroke-width="3.5"/>
    <circle cx="1372.123" cy="837.585" r="34.5" fill="none" stroke="#ccc" stroke-miterlimit="10" stroke-width="3.5"/>
    <circle cx="1372.123" cy="837.585" r="27.5" fill="none" stroke="#ccc" stroke-miterlimit="10" stroke-width="3.5"/>
    <g>
      <rect x="321.412" y="805.635" width="66.913" height="64.957" fill="none"/>
      <path d="M335.327,820.004h6.823v36.208h-6.823v-36.208ZM337.817,820.004h21.292v6.574h-21.292v-6.574ZM337.817,835.268h18.552v6.574h-18.552v-6.574Z" fill="#ccc" stroke="#ccc" stroke-miterlimit="10"/>
      <path d="M374.411,856.212h-6.823v-28.189l-4.408,1.668v-7.246l5.404-2.44h5.827v36.208Z" fill="#ccc" stroke="#ccc" stroke-miterlimit="10"/>
    </g>
    <g>
      <rect x="445.412" y="805.635" width="66.913" height="64.957" fill="none"/>
      <path d="M454.633,820.004h6.823v36.208h-6.823v-36.208ZM457.123,820.004h21.292v6.574h-21.292v-6.574ZM457.123,835.268h18.552v6.574h-18.552v-6.574Z" fill="#ccc" stroke="#ccc" stroke-miterlimit="10"/>
      <path d="M483.432,850.061l12.426-16.336c.564-.73,1-1.482,1.307-2.254.307-.772.461-1.49.461-2.154v-.05c0-.979-.315-1.734-.946-2.267-.631-.53-1.528-.797-2.689-.797-1.129,0-2.042.37-2.739,1.108-.697.739-1.121,1.789-1.27,3.15v.024h-6.998v-.024c.149-2.258.693-4.2,1.631-5.827s2.204-2.867,3.798-3.723,3.437-1.283,5.528-1.283c2.257,0,4.188.37,5.79,1.108,1.602.739,2.822,1.814,3.66,3.226s1.258,3.112,1.258,5.104v.024c0,1.645-.286,3.275-.859,4.894-.572,1.619-1.374,3.084-2.403,4.396l-8.915,11.256h12.376v6.574h-21.416v-6.15Z" fill="#ccc" stroke="#ccc" stroke-miterlimit="10"/>
    </g>
    <g>
      <rect x="569.412" y="805.635" width="66.913" height="64.957" fill="none"/>
      <path d="M578.321,820.004h6.823v36.208h-6.823v-36.208ZM580.811,820.004h21.292v6.574h-21.292v-6.574ZM580.811,835.268h18.552v6.574h-18.552v-6.574Z" fill="#ccc" stroke="#ccc" stroke-miterlimit="10"/>
      <path d="M611.927,855.389c-1.71-.797-3.072-1.958-4.084-3.486-1.013-1.526-1.569-3.345-1.668-5.453h7.047c.1.747.319,1.382.66,1.905.34.522.776.921,1.308,1.195.531.273,1.146.411,1.843.411,1.295,0,2.295-.361,3.001-1.084.705-.722,1.058-1.738,1.058-3.051v-.846c0-1.378-.287-2.441-.859-3.188-.573-.748-1.391-1.121-2.453-1.121h-3.063v-6.574h3.063c.863,0,1.531-.327,2.005-.983.473-.656.709-1.573.709-2.752v-.622c0-1.112-.261-1.972-.785-2.578-.522-.605-1.257-.908-2.204-.908-.614,0-1.175.157-1.681.473s-.934.771-1.282,1.369-.598,1.32-.747,2.167h-7.022c.199-2.208.792-4.112,1.78-5.715s2.279-2.822,3.873-3.661c1.594-.838,3.37-1.258,5.329-1.258,3.204,0,5.682.818,7.433,2.453,1.751,1.636,2.627,3.956,2.627,6.961v1.096c0,1.677-.423,3.137-1.27,4.383-.847,1.244-2.051,2.175-3.611,2.789,1.743.398,3.092,1.312,4.046,2.738.955,1.429,1.432,3.246,1.432,5.454v1.096c0,2.108-.415,3.909-1.245,5.403-.831,1.494-2.042,2.632-3.636,3.412s-3.511,1.17-5.752,1.17c-2.191,0-4.143-.398-5.852-1.195Z" fill="#ccc" stroke="#ccc" stroke-miterlimit="10"/>
    </g>
    <g>
      <rect x="693.412" y="805.635" width="66.913" height="64.957" fill="none"/>
      <path d="M701.3,820.004h6.823v36.208h-6.823v-36.208ZM703.79,820.004h21.292v6.574h-21.292v-6.574ZM703.79,835.268h18.552v6.574h-18.552v-6.574Z" fill="#ccc" stroke="#ccc" stroke-miterlimit="10"/>
      <path d="M730.149,844.384l11.156-24.355h7.72l-10.857,24.057h16.262v6.574h-24.28v-6.275ZM744.767,834.921h6.823v21.316h-6.823v-21.316Z" fill="#ccc" stroke="#ccc" stroke-miterlimit="10"/>
    </g>
    <g>
      <rect x="815.412" y="805.635" width="66.913" height="64.957" fill="none"/>
      <path d="M823.924,820.004h6.823v36.208h-6.823v-36.208ZM826.414,820.004h21.291v6.574h-21.291v-6.574ZM826.414,835.268h18.553v6.574h-18.553v-6.574Z" fill="#ccc" stroke="#ccc" stroke-miterlimit="10"/>
      <path d="M858.638,855.302c-1.553-.854-2.798-2.1-3.735-3.735-.938-1.635-1.481-3.573-1.631-5.814v-.025h6.823v.025c.133,1.328.539,2.362,1.221,3.101.68.738,1.568,1.108,2.664,1.108,1.195,0,2.12-.391,2.776-1.171s.983-1.884.983-3.312v-3.039c0-1.427-.295-2.527-.884-3.299-.589-.772-1.415-1.158-2.478-1.158-.979,0-1.814.249-2.503.747s-1.166,1.195-1.432,2.092h-6.375v-20.818h19.448v6.574h-12.625v6.399c.515-.498,1.216-.892,2.104-1.183.888-.29,1.771-.436,2.651-.436,1.876,0,3.482.432,4.819,1.295,1.336.863,2.353,2.125,3.05,3.785s1.047,3.661,1.047,6.001v3.039c0,2.34-.42,4.341-1.258,6.001-.839,1.66-2.055,2.926-3.648,3.798-1.594.871-3.52,1.307-5.777,1.307-1.942,0-3.689-.427-5.242-1.282Z" fill="#ccc" stroke="#ccc" stroke-miterlimit="10"/>
    </g>
    <g>
      <rect x="942.412" y="805.635" width="66.913" height="64.957" fill="none"/>
      <path d="M951.721,820.004h6.823v36.208h-6.823v-36.208ZM954.211,820.004h21.291v6.574h-21.291v-6.574ZM954.211,835.268h18.553v6.574h-18.553v-6.574Z" fill="#ccc" stroke="#ccc" stroke-miterlimit="10"/>
      <path d="M985.189,855.302c-1.585-.854-2.793-2.1-3.623-3.735-.83-1.635-1.245-3.606-1.245-5.914v-.025c0-1.311.162-2.697.485-4.158.324-1.461.784-2.93,1.382-4.408.1-.248.203-.498.312-.746.108-.25.22-.49.337-.723l7.346-15.589h7.72l-8.716,18.054-1.719-.896c.415-.779,1.021-1.386,1.818-1.817s1.727-.647,2.789-.647c1.992,0,3.693.424,5.105,1.27,1.41.848,2.485,2.08,3.225,3.698.738,1.619,1.107,3.565,1.107,5.84v.024c0,2.325-.415,4.317-1.244,5.977-.831,1.661-2.039,2.923-3.624,3.785-1.585.864-3.499,1.295-5.739,1.295-2.226,0-4.131-.427-5.716-1.282ZM993.706,848.953c.656-.706.984-1.706.984-3.001v-.025c0-1.494-.328-2.643-.984-3.448s-1.59-1.208-2.801-1.208c-1.195,0-2.121.411-2.777,1.232-.656.822-.983,1.972-.983,3.449v.025c0,1.295.327,2.291.983,2.988s1.582,1.045,2.777,1.045c1.211,0,2.145-.352,2.801-1.058Z" fill="#ccc" stroke="#ccc" stroke-miterlimit="10"/>
    </g>
    <g>
      <rect x="1062.412" y="805.635" width="66.913" height="64.957" fill="none"/>
      <path d="M1071.966,820.004h6.823v36.208h-6.823v-36.208ZM1074.456,820.004h21.291v6.574h-21.291v-6.574ZM1074.456,835.268h18.553v6.574h-18.553v-6.574Z" fill="#ccc" stroke="#ccc" stroke-miterlimit="10"/>
      <path d="M1121.011,824.536l-8.119,31.676h-7.396l7.869-29.634h-6.226v5.454h-6.823v-12.028h20.694v4.532Z" fill="#ccc" stroke="#ccc" stroke-miterlimit="10"/>
    </g>
    <g>
      <path d="M1201.685,824.549h4.054v29.853h-2.796v-23.18l.112,1.313-3.122,18.54h-2.718l-3.122-18.129.112-1.725v23.18h-2.797v-29.853h4.055l3.11,20.12,3.111-20.12Z" fill="#ccc" stroke="#ccc" stroke-miterlimit="10"/>
      <path d="M1210.046,824.549h3.077v29.853h-3.077v-29.853ZM1211.158,824.549h9.826v5.42h-9.826v-5.42ZM1211.158,836.867h8.591v5.421h-8.591v-5.421ZM1211.158,848.98h9.826v5.421h-9.826v-5.421Z" fill="#ccc" stroke="#ccc" stroke-miterlimit="10"/>
      <path d="M1224.505,824.549h3.763l6.075,22.872-.27.533v-23.405h2.942v29.832h-3.784l-6.054-22.522.27-.534v23.057h-2.942v-29.832Z" fill="#ccc" stroke="#ccc" stroke-miterlimit="10"/>
      <path d="M1243.827,853.405c-.892-.869-1.569-2.135-2.033-3.798s-.696-3.665-.696-6.006v-19.053h3.077v19.196c0,1.712.251,3.039.753,3.983.501.944,1.209,1.417,2.122,1.417.921,0,1.634-.473,2.14-1.417.505-.944.758-2.271.758-3.983v-19.196h3.077v19.053c0,2.341-.234,4.343-.702,6.006s-1.149,2.929-2.044,3.798-1.971,1.304-3.229,1.304-2.332-.435-3.223-1.304Z" fill="#ccc" stroke="#ccc" stroke-miterlimit="10"/>
    </g>
    <g>
      <rect x="315.934" y="672.115" width="70.435" height="25.043" fill="none"/>
      <path d="M324.201,673.28h4.281v22.719h-4.281v-22.719ZM326.076,691.874h7.25c.979,0,1.737-.236,2.273-.711.536-.474.805-1.138.805-1.992v-.047c0-.572-.12-1.062-.359-1.469-.24-.406-.591-.716-1.055-.93-.464-.213-1.019-.32-1.664-.32h-7.25v-4.125h7.25c.885,0,1.57-.224,2.055-.672.484-.447.727-1.078.727-1.891,0-.729-.242-1.297-.727-1.703s-1.169-.609-2.055-.609h-7.25v-4.125h7.391c1.469,0,2.724.242,3.766.727,1.042.484,1.833,1.188,2.375,2.109.542.922.812,2.029.812,3.32,0,.886-.175,1.67-.523,2.352-.349.683-.857,1.242-1.523,1.68-.667.438-1.469.734-2.406.891,1,.136,1.856.44,2.57.914.713.475,1.255,1.092,1.625,1.852.37.761.555,1.641.555,2.641v.047c0,1.303-.273,2.417-.82,3.344-.547.928-1.344,1.633-2.391,2.117s-2.305.727-3.773.727h-7.656v-4.125Z" fill="#ccc" stroke="#ccc" stroke-miterlimit="10"/>
      <path d="M345.849,673.264h4.281v22.734h-4.281v-22.734ZM347.552,682.733h7.906c.438,0,.823-.109,1.156-.328.333-.219.591-.531.773-.938.182-.406.278-.875.289-1.406,0-.531-.091-1-.273-1.406-.183-.406-.44-.719-.773-.938-.333-.219-.724-.328-1.172-.328h-7.906v-4.125h8.25c1.25,0,2.349.281,3.297.844.948.562,1.682,1.357,2.203,2.383.521,1.026.781,2.217.781,3.57s-.261,2.545-.781,3.57c-.521,1.026-1.258,1.82-2.211,2.383s-2.05.844-3.289.844h-8.25v-4.125ZM352.333,686.155l4.578-.719,6.125,10.562h-5.188l-5.516-9.844Z" fill="#ccc" stroke="#ccc" stroke-miterlimit="10"/>
      <path d="M364.575,673.28h16.656v4.125h-16.656v-4.125ZM370.763,675.139h4.281v20.859h-4.281v-20.859Z" fill="#ccc" stroke="#ccc" stroke-miterlimit="10"/>
    </g>
    <g>
      <rect x="1180.586" y="671.895" width="131" height="25.043" fill="none"/>
      <path d="M1193.307,694.971c-1.256-.692-2.227-1.672-2.914-2.938s-1.031-2.731-1.031-4.398v-6.438c0-1.666.344-3.133,1.031-4.398s1.658-2.244,2.914-2.938c1.255-.692,2.705-1.039,4.352-1.039s3.096.347,4.352,1.039c1.255.693,2.227,1.672,2.914,2.938s1.031,2.732,1.031,4.398v6.438c0,1.667-.344,3.133-1.031,4.398s-1.659,2.245-2.914,2.938c-1.256.693-2.706,1.039-4.352,1.039s-3.097-.346-4.352-1.039ZM1199.689,691.237c.583-.328,1.033-.794,1.352-1.398.317-.604.477-1.302.477-2.094v-6.656c0-.791-.159-1.489-.477-2.094-.318-.604-.769-1.07-1.352-1.398-.584-.328-1.261-.492-2.031-.492s-1.448.164-2.031.492c-.584.328-1.034.795-1.352,1.398-.318.604-.477,1.303-.477,2.094v6.656c0,.792.158,1.49.477,2.094.317.604.768,1.07,1.352,1.398.583.328,1.26.492,2.031.492s1.447-.164,2.031-.492Z" fill="#ccc" stroke="#ccc" stroke-miterlimit="10"/>
      <path d="M1211.166,673.057h4.281v22.719h-4.281v-22.719ZM1212.728,673.057h13.359v4.125h-13.359v-4.125ZM1212.728,682.635h11.641v4.125h-11.641v-4.125Z" fill="#ccc" stroke="#ccc" stroke-miterlimit="10"/>
      <path d="M1230.361,673.057h4.281v22.719h-4.281v-22.719ZM1231.924,673.057h13.359v4.125h-13.359v-4.125ZM1231.924,682.635h11.641v4.125h-11.641v-4.125Z" fill="#ccc" stroke="#ccc" stroke-miterlimit="10"/>
      <path d="M1250.337,700.089h-4.062l10.156-29.719h4.062l-10.156,29.719Z" fill="#ccc" stroke="#ccc" stroke-miterlimit="10"/>
      <path d="M1267.071,694.971c-1.256-.692-2.227-1.672-2.914-2.938s-1.031-2.731-1.031-4.398v-6.438c0-1.666.344-3.133,1.031-4.398s1.658-2.244,2.914-2.938c1.255-.692,2.705-1.039,4.352-1.039s3.096.347,4.352,1.039c1.255.693,2.227,1.672,2.914,2.938s1.031,2.732,1.031,4.398v6.438c0,1.667-.344,3.133-1.031,4.398s-1.659,2.245-2.914,2.938c-1.256.693-2.706,1.039-4.352,1.039s-3.097-.346-4.352-1.039ZM1273.454,691.237c.583-.328,1.033-.794,1.352-1.398.317-.604.477-1.302.477-2.094v-6.656c0-.791-.159-1.489-.477-2.094-.318-.604-.769-1.07-1.352-1.398-.584-.328-1.261-.492-2.031-.492s-1.448.164-2.031.492c-.584.328-1.034.795-1.352,1.398-.318.604-.477,1.303-.477,2.094v6.656c0,.792.158,1.49.477,2.094.317.604.768,1.07,1.352,1.398.583.328,1.26.492,2.031.492s1.447-.164,2.031-.492Z" fill="#ccc" stroke="#ccc" stroke-miterlimit="10"/>
      <path d="M1284.931,673.057h5.234l8.453,17.406-.375.406v-17.812h4.094v22.703h-5.266l-8.422-17.141.375-.406v17.547h-4.094v-22.703Z" fill="#ccc" stroke="#ccc" stroke-miterlimit="10"/>
    </g>
  </g>
  <g id="Scratchpad_-_Dark">
    <g>
      <path d="M483.164,697.036v37.593h12.121v3.515h-15.634v-44.62h15.634v3.513h-12.121Z" fill="#ccc" stroke="#ccc" stroke-miterlimit="10" stroke-width="1.5"/>
      <path d="M1104.113,693.34v44.62h-15.635v-3.514h12.121v-37.593h-12.121v-3.514h15.635Z" fill="#ccc" stroke="#ccc" stroke-miterlimit="10" stroke-width="1.5"/>
    </g>
  </g>
  <g id="RNAV_INS_Page_-_Dark">
    <g>
      <rect x="425.739" y="209.018" width="732.522" height="52.826" fill="none"/>
      <path d="M474.101,217.694v34.455h-2.799l-16.389-29.029v29.005h-2.822v-34.285h3.082l16.106,28.528v-28.675h2.822Z" fill="#ccc" stroke="#ccc" stroke-miterlimit="10" stroke-width="1.5"/>
      <path d="M495.782,249.449v2.822h-9.029v-2.822h3.104v-28.956l-2.206,1.826-1.799-2.174,4.482-3.709h2.344v33.013h3.104Z" fill="#ccc" stroke="#ccc" stroke-miterlimit="10" stroke-width="1.5"/>
      <path d="M528.327,231.823c.536,1.253.819,2.568.819,3.802v6.914c0,1.236-.283,2.549-.819,3.801-.522,1.22-1.386,2.39-2.368,3.208-.756.63-1.929,1.529-3.371,2.071-1.449.543-2.729.796-4.024.796-1.474,0-3.318-.319-4.587-.794-1.408-.529-2.541-1.234-3.465-2.159-.889-.732-1.751-1.902-2.274-3.122-.316-.626-.487-1.307-.636-1.906l-.042-.343v-1.27h2.822v1.096c.114.454.226.855.415,1.234.388.901.965,1.686,1.617,2.229.736.728,1.518,1.208,2.555,1.597.951.355,2.465.615,3.596.615.959,0,1.895-.19,3.032-.617.792-.297,1.604-.804,2.555-1.597.65-.543,1.227-1.329,1.582-2.153.386-.903.591-1.833.591-2.689v-6.914c0-.856-.205-1.786-.591-2.69-.353-.824-.93-1.608-1.582-2.151-.737-.727-1.518-1.208-2.555-1.596l-.432-.167c-.789-.309-1.15-.45-2.601-.45-1.769,0-3.187.378-4.462,1.191-.953.595-1.795,1.438-2.383,2.378l-.415.663h-3.745v-16.366h21.305v2.822h-18.483v9.983c.646-.722,1.394-1.354,2.215-1.868,1.714-1.092,3.671-1.625,5.968-1.625,1.886,0,2.607.244,3.627.643l.395.152c1.408.528,2.541,1.233,3.465,2.158.887.732,1.751,1.9,2.274,3.121h0Z" fill="#ccc" stroke="#ccc" stroke-miterlimit="10" stroke-width="1.5"/>
      <path d="M553.625,224.857c0,3.5-2.849,6.349-6.349,6.349s-6.349-2.849-6.349-6.349,2.849-6.349,6.349-6.349,6.349,2.849,6.349,6.349ZM550.804,224.857c0-1.944-1.583-3.527-3.527-3.527s-3.527,1.583-3.527,3.527,1.583,3.527,3.527,3.527,3.527-1.583,3.527-3.527Z" fill="#ccc" stroke="#ccc" stroke-miterlimit="10" stroke-width="1.5"/>
      <path d="M586.394,222.435c.652,1.301.996,2.788.996,4.299v15.378c0,1.511-.344,3-.996,4.3-.61,1.222-1.532,2.366-2.742,3.403-1.079.898-2.239,1.511-3.461,1.83-1.114.406-2.315.612-3.666.625h-.141c-1.508-.011-2.71-.214-3.881-.653-1.273-.479-2.406-1.127-3.371-1.932-1.225-1.048-2.147-2.194-2.758-3.416-.652-1.301-.996-2.788-.996-4.297v-15.378c0-1.51.346-2.997.996-4.299.611-1.222,1.534-2.367,2.743-3.403,1.079-.9,2.239-1.511,3.461-1.83,1.152-.42,2.398-.626,3.807-.626,1.511,0,2.864.219,4.022.653,1.273.477,2.406,1.127,3.372,1.932,1.074.918,1.925,2.033,2.616,3.414h0ZM568.202,226.593v13.917l16.19-15.351c-.117-.514-.292-1.006-.521-1.463-.526-1.054-1.134-1.855-1.913-2.523-.706-.588-1.566-1.078-2.54-1.443-.828-.311-1.876-.474-3.032-.474-1.109,0-2.027.151-2.891.474l-.152.048c-.837.209-1.644.635-2.403,1.267-.907.777-1.599,1.627-2.04,2.51-.457.914-.699,1.964-.699,3.038ZM584.57,242.114v-13.233l-16.034,15.203c.102.32.219.632.366.927.441.883,1.133,1.732,2.056,2.522.705.587,1.564,1.077,2.54,1.443.858.322,1.772.469,2.957.474,1.078-.005,1.977-.156,2.823-.474l.152-.048c.837-.208,1.644-.635,2.403-1.267.906-.777,1.597-1.626,2.039-2.51.457-.913.699-1.962.699-3.038Z" fill="#ccc" stroke="#ccc" stroke-miterlimit="10" stroke-width="1.5"/>
      <path d="M620.161,216.436v3.992l-14.532,30.05v.382h-2.822v-1.029l14.532-30.05v-.523h-18.201v-2.822h21.022Z" fill="#ccc" stroke="#ccc" stroke-miterlimit="10" stroke-width="1.5"/>
      <path d="M631.92,248.983c0-1.636,1.264-2.963,2.822-2.963s2.822,1.327,2.822,2.963-1.263,2.963-2.822,2.963-2.822-1.326-2.822-2.963Z" fill="#ccc" stroke="#ccc" stroke-miterlimit="10" stroke-width="1.5"/>
      <path d="M671.889,242.113c0,5.601-5.063,10.158-11.287,10.158s-11.287-4.557-11.287-10.158c0-3.785,2.317-7.088,5.738-8.835-2.772-1.64-4.609-4.464-4.609-7.672,0-5.057,4.557-9.171,10.158-9.171s10.158,4.114,10.158,9.171c0,3.208-1.838,6.033-4.609,7.672,3.422,1.747,5.738,5.05,5.738,8.835ZM669.067,242.113c0-4.045-3.797-7.336-8.465-7.336s-8.465,3.292-8.465,7.336,3.797,7.336,8.465,7.336,8.465-3.292,8.465-7.336ZM660.601,231.956c4.045,0,7.336-2.849,7.336-6.349s-3.292-6.349-7.336-6.349-7.336,2.849-7.336,6.349,3.292,6.349,7.336,6.349Z" fill="#ccc" stroke="#ccc" stroke-miterlimit="10" stroke-width="1.5"/>
      <path d="M704.43,231.823c.536,1.253.819,2.568.819,3.802v6.914c0,1.236-.283,2.549-.819,3.801-.522,1.22-1.386,2.39-2.368,3.208-.756.63-1.929,1.529-3.371,2.071-1.449.543-2.729.796-4.024.796-1.474,0-3.318-.319-4.587-.794-1.408-.529-2.541-1.234-3.465-2.159-.889-.732-1.751-1.902-2.274-3.122-.316-.626-.487-1.307-.636-1.906l-.042-.343v-1.27h2.822v1.096c.114.454.226.855.415,1.234.388.901.965,1.686,1.617,2.229.736.728,1.518,1.208,2.555,1.597.951.355,2.465.615,3.596.615.959,0,1.895-.19,3.032-.617.792-.297,1.604-.804,2.555-1.597.65-.543,1.227-1.329,1.582-2.153.386-.903.591-1.833.591-2.689v-6.914c0-.856-.205-1.786-.591-2.69-.353-.824-.93-1.608-1.582-2.151-.737-.727-1.519-1.208-2.555-1.596l-.432-.167c-.789-.309-1.15-.45-2.601-.45-1.769,0-3.187.378-4.462,1.191-.953.595-1.795,1.438-2.383,2.378l-.415.663h-3.745v-16.366h21.304v2.822h-18.482v9.983c.646-.722,1.394-1.354,2.215-1.868,1.714-1.092,3.671-1.625,5.968-1.625,1.886,0,2.607.244,3.627.643l.395.152c1.408.528,2.541,1.233,3.465,2.158.887.732,1.751,1.9,2.274,3.121h0Z" fill="#ccc" stroke="#ccc" stroke-miterlimit="10" stroke-width="1.5"/>
      <path d="M737.799,231.823c.536,1.253.819,2.568.819,3.802v6.914c0,1.236-.283,2.549-.819,3.801-.522,1.22-1.386,2.39-2.368,3.208-.756.63-1.929,1.529-3.371,2.071-1.449.543-2.729.796-4.024.796-1.474,0-3.318-.319-4.587-.794-1.408-.529-2.541-1.234-3.465-2.159-.889-.732-1.751-1.902-2.274-3.122-.316-.626-.487-1.307-.636-1.906l-.042-.343v-1.27h2.822v1.096c.114.454.226.855.415,1.234.388.901.965,1.686,1.617,2.229.736.728,1.518,1.208,2.555,1.597.951.355,2.465.615,3.596.615.959,0,1.895-.19,3.032-.617.792-.297,1.604-.804,2.555-1.597.651-.543,1.227-1.329,1.582-2.153.387-.903.591-1.833.591-2.689v-6.914c0-.856-.204-1.786-.591-2.69-.353-.824-.93-1.608-1.582-2.151-.737-.727-1.518-1.208-2.555-1.596l-.432-.167c-.789-.309-1.15-.45-2.601-.45-1.769,0-3.187.378-4.462,1.191-.953.595-1.795,1.438-2.383,2.378l-.415.663h-3.745v-16.366h21.305v2.822h-18.483v9.983c.646-.722,1.394-1.354,2.215-1.868,1.714-1.092,3.671-1.625,5.968-1.625,1.886,0,2.607.244,3.627.643l.395.152c1.408.528,2.541,1.233,3.466,2.158.887.732,1.751,1.9,2.274,3.121h0Z" fill="#ccc" stroke="#ccc" stroke-miterlimit="10" stroke-width="1.5"/>
      <path d="M814.225,219.276v11.569h10.158v2.822h-10.158v15.661h18.482v2.822h-21.305v-35.695h21.305v2.822h-18.482Z" fill="#ccc" stroke="#ccc" stroke-miterlimit="10" stroke-width="1.5"/>
      <path d="M854.407,249.449v2.822h-9.029v-2.822h3.104v-28.956l-2.206,1.826-1.799-2.174,4.482-3.709h2.344v33.013h3.104Z" fill="#ccc" stroke="#ccc" stroke-miterlimit="10" stroke-width="1.5"/>
      <path d="M883.679,240.985h3.81v2.822h-3.81v7.055h-2.821v-7.055h-14.673v-3.071l14.578-24.3h2.915v24.548h0ZM880.855,221.763l-11.532,19.22h11.532v-19.22Z" fill="#ccc" stroke="#ccc" stroke-miterlimit="10" stroke-width="1.5"/>
      <path d="M916.753,240.985h3.81v2.822h-3.81v7.055h-2.821v-7.055h-14.673v-3.071l14.578-24.3h2.915v24.548h0ZM913.93,221.763l-11.532,19.22h11.532v-19.22Z" fill="#ccc" stroke="#ccc" stroke-miterlimit="10" stroke-width="1.5"/>
      <path d="M945.03,224.857c0,3.5-2.849,6.349-6.349,6.349s-6.349-2.849-6.349-6.349,2.849-6.349,6.349-6.349,6.349,2.849,6.349,6.349ZM942.209,224.857c0-1.944-1.583-3.527-3.527-3.527s-3.527,1.583-3.527,3.527,1.583,3.527,3.527,3.527,3.527-1.583,3.527-3.527Z" fill="#ccc" stroke="#ccc" stroke-miterlimit="10" stroke-width="1.5"/>
      <path d="M977.8,222.435c.651,1.301.996,2.788.996,4.299v15.378c0,1.511-.345,3-.996,4.3-.609,1.222-1.532,2.366-2.741,3.403-1.08.898-2.239,1.511-3.461,1.83-1.115.406-2.315.612-3.666.625h-.141c-1.509-.011-2.711-.214-3.882-.653-1.272-.479-2.405-1.127-3.37-1.932-1.225-1.048-2.147-2.194-2.759-3.416-.651-1.301-.996-2.788-.996-4.297v-15.378c0-1.51.346-2.997.996-4.299.611-1.222,1.534-2.367,2.743-3.403,1.079-.9,2.239-1.511,3.461-1.83,1.152-.42,2.398-.626,3.807-.626,1.511,0,2.864.219,4.022.653,1.272.477,2.405,1.127,3.372,1.932,1.073.918,1.924,2.033,2.615,3.414h0ZM959.607,226.593v13.917l16.19-15.351c-.117-.514-.292-1.006-.521-1.463-.526-1.054-1.135-1.855-1.913-2.523-.706-.588-1.566-1.078-2.54-1.443-.828-.311-1.877-.474-3.032-.474-1.108,0-2.027.151-2.891.474l-.152.048c-.837.209-1.644.635-2.403,1.267-.906.777-1.598,1.627-2.04,2.51-.457.914-.698,1.964-.698,3.038ZM975.975,242.114v-13.233l-16.033,15.203c.102.32.219.632.365.927.441.883,1.133,1.732,2.056,2.522.705.587,1.564,1.077,2.539,1.443.858.322,1.772.469,2.958.474,1.077-.005,1.977-.156,2.823-.474l.152-.048c.836-.208,1.644-.635,2.402-1.267.905-.777,1.597-1.626,2.039-2.51.457-.913.698-1.962.698-3.038Z" fill="#ccc" stroke="#ccc" stroke-miterlimit="10" stroke-width="1.5"/>
      <path d="M1011.816,237.053c-1.353,5.868-7.733,12.25-11.819,14.607l-1.409-2.443c3.626-2.092,9.365-7.966,10.476-12.781.186-.844.322-1.757.425-2.678-.239.21-.491.412-.755.605-.745.597-2.187,1.421-3.41,1.771-1.23.352-6.466.374-7.936-.176-1.443-.542-2.625-1.191-3.514-1.932-.972-.81-1.793-1.794-2.438-2.923-.786-1.373-.892-2.693-.892-3.804v-1.27c0-1.194.261-2.356.819-3.66l.072-.144c.645-1.13,1.466-2.114,2.438-2.923.888-.739,2.068-1.388,3.512-1.93,1.174-.44,2.535-.655,4.164-.655,1.393,0,2.749.292,4.011.607l.152.048c1.443.542,2.624,1.191,3.512,1.93.972.81,1.793,1.793,2.438,2.923.785,1.373.892,2.693.892,3.804.01.197.277,6.381-.738,11.024ZM1009.731,227.724h.035c-.006-.983-.034-1.61-.034-1.629,0-1.142-.146-1.814-.521-2.468-.479-.838-1.082-1.563-1.795-2.157-.62-.518-1.524-1.01-2.621-1.428-.992-.246-2.135-.502-3.246-.502-1.284,0-2.321.155-3.174.474-1.128.425-2.061.927-2.694,1.456-.694.577-1.284,1.28-1.755,2.086-.386.919-.559,1.684-.559,2.472v1.27c0,1.077.145,1.751.519,2.404.478.835,1.081,1.562,1.795,2.156.637.531,1.567,1.033,2.696,1.456.826.295,5.35.323,6.174.106.812-.233,1.913-.855,2.466-1.297,1.692-1.243,2.715-2.915,2.715-4.4h0Z" fill="#ccc" stroke="#ccc" stroke-miterlimit="10" stroke-width="1.5"/>
      <path d="M1024.354,248.983c0-1.636,1.263-2.963,2.821-2.963s2.822,1.327,2.822,2.963-1.264,2.963-2.822,2.963-2.821-1.326-2.821-2.963Z" fill="#ccc" stroke="#ccc" stroke-miterlimit="10" stroke-width="1.5"/>
      <path d="M1064.323,242.113c0,5.601-5.064,10.158-11.287,10.158s-11.287-4.557-11.287-10.158c0-3.785,2.316-7.088,5.737-8.835-2.772-1.64-4.609-4.464-4.609-7.672,0-5.057,4.558-9.171,10.159-9.171s10.158,4.114,10.158,9.171c0,3.208-1.839,6.033-4.609,7.672,3.421,1.747,5.738,5.05,5.738,8.835ZM1061.501,242.113c0-4.045-3.797-7.336-8.465-7.336s-8.466,3.292-8.466,7.336,3.797,7.336,8.466,7.336,8.465-3.292,8.465-7.336ZM1053.036,231.956c4.045,0,7.336-2.849,7.336-6.349s-3.291-6.349-7.336-6.349-7.337,2.849-7.337,6.349,3.291,6.349,7.337,6.349Z" fill="#ccc" stroke="#ccc" stroke-miterlimit="10" stroke-width="1.5"/>
      <path d="M1097.369,237.053c-1.353,5.868-7.733,12.25-11.819,14.607l-1.409-2.443c3.626-2.092,9.365-7.966,10.476-12.781.186-.844.322-1.757.425-2.678-.239.21-.491.412-.755.605-.745.597-2.187,1.421-3.41,1.771-1.23.352-6.466.374-7.936-.176-1.443-.542-2.625-1.191-3.514-1.932-.972-.81-1.793-1.794-2.438-2.923-.786-1.373-.892-2.693-.892-3.804v-1.27c0-1.194.261-2.356.819-3.66l.072-.144c.645-1.13,1.466-2.114,2.438-2.923.888-.739,2.068-1.388,3.512-1.93,1.174-.44,2.535-.655,4.164-.655,1.393,0,2.749.292,4.011.607l.152.048c1.443.542,2.624,1.191,3.512,1.93.972.81,1.793,1.793,2.438,2.923.785,1.373.892,2.693.892,3.804.01.197.277,6.381-.738,11.024ZM1095.284,227.724h.035c-.006-.983-.034-1.61-.034-1.629,0-1.142-.146-1.814-.521-2.468-.479-.838-1.082-1.563-1.795-2.157-.62-.518-1.524-1.01-2.621-1.428-.992-.246-2.135-.502-3.246-.502-1.284,0-2.321.155-3.174.474-1.128.425-2.061.927-2.694,1.456-.694.577-1.284,1.28-1.755,2.086-.386.919-.559,1.684-.559,2.472v1.27c0,1.077.145,1.751.519,2.404.478.835,1.081,1.562,1.795,2.156.637.531,1.567,1.033,2.696,1.456.826.295,5.35.323,6.174.106.812-.233,1.913-.855,2.466-1.297,1.692-1.243,2.715-2.915,2.715-4.4h0Z" fill="#ccc" stroke="#ccc" stroke-miterlimit="10" stroke-width="1.5"/>
      <path d="M1130.923,222.435c.651,1.301.996,2.788.996,4.299v15.378c0,1.511-.345,3-.996,4.3-.609,1.222-1.532,2.366-2.741,3.403-1.08.898-2.239,1.511-3.461,1.83-1.115.406-2.315.612-3.666.625h-.141c-1.509-.011-2.711-.214-3.882-.653-1.272-.479-2.405-1.127-3.37-1.932-1.225-1.048-2.147-2.194-2.759-3.416-.651-1.301-.996-2.788-.996-4.297v-15.378c0-1.51.346-2.997.996-4.299.611-1.222,1.534-2.367,2.743-3.403,1.079-.9,2.239-1.511,3.461-1.83,1.152-.42,2.398-.626,3.807-.626,1.511,0,2.864.219,4.022.653,1.272.477,2.405,1.127,3.372,1.932,1.073.918,1.924,2.033,2.615,3.414h0ZM1112.73,226.593v13.917l16.19-15.351c-.117-.514-.292-1.006-.521-1.463-.526-1.054-1.135-1.855-1.913-2.523-.706-.588-1.566-1.078-2.54-1.443-.828-.311-1.877-.474-3.032-.474-1.108,0-2.027.151-2.891.474l-.152.048c-.837.209-1.644.635-2.403,1.267-.906.777-1.598,1.627-2.04,2.51-.457.914-.698,1.964-.698,3.038ZM1129.099,242.114v-13.233l-16.033,15.203c.102.32.219.632.365.927.441.883,1.133,1.732,2.056,2.522.705.587,1.564,1.077,2.539,1.443.858.322,1.772.469,2.958.474,1.077-.005,1.977-.156,2.823-.474l.152-.048c.836-.208,1.644-.635,2.402-1.267.905-.777,1.597-1.626,2.039-2.51.457-.913.698-1.962.698-3.038Z" fill="#ccc" stroke="#ccc" stroke-miterlimit="10" stroke-width="1.5"/>
    </g>
    <g>
      <rect x="432.978" y="403.603" width="727.435" height="52.826" fill="none"/>
      <path d="M745.519,415.281v11.569h9.171v2.821h-9.171v17.072h-2.822v-34.284h21.305v2.822h-18.482Z" fill="#ccc" stroke="#ccc" stroke-miterlimit="10" stroke-width="1.5"/>
      <path d="M791.447,417.056c.65,1.305.995,2.792.995,4.3v15.379c0,1.509-.345,2.997-.995,4.299-.612,1.225-1.535,2.37-2.742,3.404-1.08.9-2.239,1.511-3.461,1.83-1.115.406-2.317.612-3.666.625h-.141c-1.509-.011-2.712-.214-3.882-.653-1.275-.479-2.408-1.129-3.372-1.932-1.223-1.048-2.146-2.194-2.757-3.416-.651-1.302-.996-2.79-.996-4.299v-15.379c0-1.51.346-2.997.996-4.299.611-1.225,1.535-2.369,2.743-3.404,1.078-.899,2.237-1.51,3.459-1.829,1.15-.42,2.397-.626,3.807-.626,1.515,0,2.869.22,4.024.655,1.272.477,2.405,1.127,3.37,1.93,1.072.918,1.923,2.033,2.616,3.415h0ZM789.617,436.734v-15.379c0-1.072-.241-2.123-.696-3.038-.528-1.054-1.135-1.855-1.913-2.522-.706-.587-1.566-1.077-2.54-1.442-.828-.311-1.875-.474-3.032-.474-1.11,0-2.03.151-2.891.474l-.153.048c-.836.209-1.643.635-2.4,1.267-.905.776-1.599,1.625-2.04,2.51-.457.915-.698,1.964-.698,3.038v15.377c0,1.074.242,2.125.698,3.038.44.883,1.133,1.732,2.055,2.522.705.587,1.565,1.077,2.541,1.443.857.322,1.771.468,2.957.474,1.079-.006,1.977-.157,2.824-.474l.152-.048c.835-.209,1.644-.635,2.403-1.267.904-.776,1.597-1.625,2.038-2.51.456-.912.697-1.963.697-3.036h-.002Z" fill="#ccc" stroke="#ccc" stroke-miterlimit="10" stroke-width="1.5"/>
      <path d="M820.861,412.472v34.284h-2.822v-28.712l-6.647,11.923h-3.069l-6.649-11.923v28.712h-2.821v-34.284h2.944l8.061,14.452,8.06-14.452h2.945Z" fill="#ccc" stroke="#ccc" stroke-miterlimit="10" stroke-width="1.5"/>
      <path d="M982.898,440.816l2.737,3.787v.88h-1.997l-.559.404-1.866-2.582c-.353.388-.729.769-1.152,1.133-.833.696-1.86,1.441-3.288,1.822-1.057.433-2.279.635-3.837.635-1.61,0-2.861-.214-3.942-.677-1.104-.412-2.068-.99-3.169-1.906-1.075-.922-1.927-2.036-2.615-3.417-.652-1.301-.996-2.788-.996-4.299v-15.379c0-1.51.344-2.997.996-4.299.609-1.222,1.533-2.368,2.742-3.403.834-.695,1.861-1.442,3.287-1.821,1.056-.433,2.279-.635,3.838-.635,1.611,0,2.863.216,3.943.679,1.101.411,2.067.987,3.168,1.905,1.075.921,1.926,2.036,2.615,3.417.652,1.302.996,2.789.996,4.299v15.377c0,1.429-.318,2.832-.902,4.082h0ZM978.237,442.284c.493-.423.917-.869,1.276-1.328l-7.004-9.69v-1.021h2.192l.363-.263,5.789,8.008c.074-.411.122-.83.122-1.255v-15.379c0-1.074-.241-2.125-.698-3.038-.526-1.052-1.133-1.855-1.912-2.522-.841-.699-1.539-1.119-2.398-1.442-.777-.331-1.677-.474-2.892-.474s-2.114.143-2.829.45l-.215.072c-.879.219-1.537.665-2.26,1.267-.907.777-1.6,1.625-2.04,2.508-.457.915-.698,1.964-.698,3.038v15.379c0,1.074.241,2.125.698,3.036.524,1.054,1.131,1.855,1.911,2.524.841.698,1.54,1.12,2.4,1.443.777.33,1.678.474,2.891.474s2.113-.144,2.829-.45l.215-.072c.879-.22,1.539-.666,2.26-1.267h0Z" fill="#ccc" stroke="#ccc" stroke-miterlimit="10" stroke-width="1.5"/>
    </g>
    <g>
      <rect x="424.306" y="276.019" width="178.303" height="52.826" fill="none"/>
      <path d="M460.864,308.765v12.416h-2.822v-12.416h-9.19l10.592-10.592,10.8,10.592h-9.38Z" fill="#ccc" stroke="#ccc" stroke-miterlimit="10" stroke-width="1.5"/>
      <path d="M486.419,286.296v30.193h6.913v2.822h-16.648v-2.822h6.914v-30.193h-6.914v-2.822h16.648v2.822h-6.913Z" fill="#ccc" stroke="#ccc" stroke-miterlimit="10" stroke-width="1.5"/>
      <path d="M521.772,284.696v34.455h-2.799l-16.389-29.029v29.005h-2.822v-34.285h3.082l16.106,28.528v-28.675h2.822Z" fill="#ccc" stroke="#ccc" stroke-miterlimit="10" stroke-width="1.5"/>
      <path d="M549.313,305.183c.612,1.213.907,2.407.907,3.547,0,3.039-1.115,5.535-3.315,7.419-2.056,1.899-4.656,2.88-7.689,2.88h-.282c-2.86,0-5.495-1.017-7.832-3.021-1.826-1.545-2.361-2.91-2.749-3.906-.058-.145-.111-.285-.169-.419l2.593-1.113c.069.161.135.329.205.504.326.834.663,1.696,1.951,2.785,1.844,1.583,3.805,2.348,6.002,2.348h.282c2.333,0,4.237-.708,5.814-2.166,1.63-1.397,2.369-3.073,2.369-5.312,0-.694-.198-1.473-.557-2.191-.309-.506-.758-1.175-1.354-1.573-.686-.542-1.566-1.049-2.454-1.429-.576-.247-1.223-.446-1.974-.676-.416-.128-.851-.262-1.302-.412l-4.149-1.105c-2.236-.687-3.849-1.721-4.981-3.177-1.229-1.579-1.851-3.436-1.851-5.522,0-2.581,1.071-4.794,3.18-6.581,2.005-1.851,4.28-2.733,7.121-2.733h.281c2.853.165,5.234,1.143,7.162,2.909,1.464,1.301,2.351,2.857,2.692,4.739l-2.778.502c-.23-1.271-.786-2.242-1.805-3.148-1.452-1.331-3.25-2.061-5.354-2.186l-.199.003c-2.115,0-3.736.625-5.251,2.025-1.514,1.284-2.228,2.731-2.228,4.467,0,1.444.423,2.719,1.255,3.79.776.998,1.899,1.696,3.535,2.2l4.182,1.114c.512.167.924.293,1.319.415.795.244,1.545.474,2.26.78,1.125.481,2.219,1.117,3.006,1.747.962.636,1.64,1.623,2.162,2.493h-.003Z" fill="#ccc" stroke="#ccc" stroke-miterlimit="10" stroke-width="1.5"/>
      <path d="M568.662,308.765v12.416h-2.822v-12.416h-9.19l10.592-10.592,10.8,10.592h-9.38Z" fill="#ccc" stroke="#ccc" stroke-miterlimit="10" stroke-width="1.5"/>
    </g>
    <g>
      <rect x="821.348" y="588.635" width="326.67" height="52.826" fill="none"/>
      <path d="M892.01,612.583l-.146,19.184-2.822-.021.081-10.713h-16.306v10.723h-2.822v-19.179l9.669-15.108h2.674l9.672,15.114ZM889.143,618.209l.037-4.812-8.181-12.781-8.183,12.785v4.809h16.326Z" fill="#ccc" stroke="#ccc" stroke-miterlimit="10" stroke-width="1.5"/>
      <path d="M919.86,629.104v2.821h-21.445v-34.284h2.822v31.463h18.623Z" fill="#ccc" stroke="#ccc" stroke-miterlimit="10" stroke-width="1.5"/>
      <path d="M946.895,600.375h-8.889v31.463h-2.821v-31.463h-8.889v-2.821h20.599v2.821Z" fill="#ccc" stroke="#ccc" stroke-miterlimit="10" stroke-width="1.5"/>
      <path d="M972.149,629.207h17.444v2.822h-21.305v-2.812l3.709-4.048c1.944-2.166,3.728-4.15,5.421-5.957.841-.841,1.684-1.824,2.497-2.775.851-.992,4.25-4.816,4.25-4.816.385-.389.603-.662.748-.842.086-.109.159-.197.22-.265.413-.526.761-1.192,1.006-1.929.232-.698.352-1.257.352-2.375,0-.961-.199-1.914-.592-2.831-.356-.946-.925-1.63-1.676-2.38-.856-.705-1.668-1.213-2.461-1.51-2.269-.851-3.796-.85-6.062,0-1.038.389-1.819.869-2.462,1.512-.74.74-1.336,1.585-1.676,2.379l-2.594-1.111c.485-1.133,1.273-2.262,2.274-3.264.926-.924,2.059-1.629,3.467-2.156,2.887-1.087,5.151-1.087,8.045,0,1.443.541,2.614,1.441,3.371,2.07.925.919,1.851,1.966,2.393,3.41.521,1.209.796,2.535.796,3.882,0,1.483-.19,2.351-.497,3.269-.354,1.064-.876,2.045-1.507,2.834l-.193.229c-.188.237-.473.591-.898,1.016.003,0-3.322,3.741-4.159,4.718-.85.99-1.728,2.016-2.613,2.9-1.649,1.76-3.418,3.73-5.349,5.88l-1.947,2.151v-.002Z" fill="#ccc" stroke="#ccc" stroke-miterlimit="10" stroke-width="1.5"/>
      <path d="M1013.516,620.602h3.81v2.821h-3.81v7.055h-2.821v-7.055h-14.674v-3.07l14.579-24.301h2.915v24.549h0ZM1010.693,601.381l-11.532,19.221h11.532v-19.221Z" fill="#ccc" stroke="#ccc" stroke-miterlimit="10" stroke-width="1.5"/>
      <path d="M1044.777,596.052v3.992l-14.532,30.051v.382h-2.822v-1.028l14.532-30.051v-.523h-18.2v-2.822h21.022Z" fill="#ccc" stroke="#ccc" stroke-miterlimit="10" stroke-width="1.5"/>
      <path d="M1061.124,629.066v2.822h-9.029v-2.822h3.104v-28.955l-2.205,1.825-1.799-2.174,4.482-3.71h2.344v33.014h3.104Z" fill="#ccc" stroke="#ccc" stroke-miterlimit="10" stroke-width="1.5"/>
      <path d="M1088.586,615.17c.533,1.245.794,3.652.794,4.869,0,1.301,0,2.159-.612,4.455-.54,2.157-1.647,3.609-2.481,4.443-.933.931-2.715,2.119-4.182,2.486-1.385.466-3.645.466-4.858.466-1.434,0-3.918-.808-4.93-1.241-1.184-.508-3.405-2.006-4.756-3.205l1.875-2.109c1.181,1.049,3.183,2.373,3.993,2.721.931.399,2.991,1.015,3.817,1.015.979,0,3.017,0,4.069-.351.903-.23,2.244-1.046,2.976-1.777.581-.58,1.357-1.6,1.745-3.152.522-1.959.522-2.521.522-3.75,0-1.252-.287-3.109-.592-3.818-.347-.92-.769-1.62-1.479-2.474-.62-.743-1.296-1.275-2.011-1.581-.888-.381-1.827-.734-2.689-.734h-3.81v-3.072l8.384-9.484h-12.898v-2.822h15.943v3.637l-7.884,8.92h.265c1.376,0,2.693.484,3.801.961,1.128.483,2.16,1.28,3.067,2.368.919,1.101,1.496,2.067,1.932,3.229v.002Z" fill="#ccc" stroke="#ccc" stroke-miterlimit="10" stroke-width="1.5"/>
      <path d="M1124.307,598.562l1.411.424-.812,2.701-1.411-.424c-.567-.108-1.481-.291-2.582-.031-.08.043-.17.091-.271.144-.571.296-1.527.794-2.233,1.765-.32.482-1.142,1.853-1.142,3.121v3.245h6.208v2.821h-6.208v19.471h-2.821v-19.471h-3.669v-2.821h3.669v-3.245c0-1.966,1.031-3.809,1.647-4.732,1.127-1.553,2.505-2.27,3.243-2.655.107-.056.197-.1.258-.138l.406-.184c1.821-.496,3.306-.197,4.104-.037l.2.047h0Z" fill="#ccc" stroke="#ccc" stroke-miterlimit="10" stroke-width="1.5"/>
      <path d="M1139.196,612.177v13.262c0,1.111.26,2.143.661,2.624.473.552,1.713.903,2.583.903.85,0,1.757-.332,1.767-.335l.236-.089h.678v2.537l.074.195c-.015.005-.04.014-.074.026v.063h-.188c-.464.148-1.454.423-2.493.423-1.546,0-3.612-.589-4.739-1.903-1.197-1.439-1.326-3.588-1.326-4.445v-13.262h-4.232v-2.822h4.232v-6.209h2.822v6.209h6.349v2.822h-6.349Z" fill="#ccc" stroke="#ccc" stroke-miterlimit="10" stroke-width="1.5"/>
    </g>
    <g>
      <rect x="432.323" y="675.965" width="48.49" height="58.293" fill="none"/>
      <path d="M462.381,725.812v-7.091h-11.934v7.18l-11.787-9.349,11.787-8.942v6.85h11.934v-6.764l12.076,8.856-12.076,9.26Z" fill="#ccc" stroke="#ccc" stroke-miterlimit="10"/>
    </g>
    <g>
      <rect x="969.198" y="276.019" width="178.303" height="52.826" fill="none"/>
      <path d="M998.892,311.587l-10.8,10.591-10.592-10.591h9.19v-12.416h2.821v12.416h9.38Z" fill="#ccc" stroke="#ccc" stroke-miterlimit="10" stroke-width="1.5"/>
      <path d="M1015.067,286.296v30.193h6.913v2.822h-16.648v-2.822h6.914v-30.193h-6.914v-2.822h16.648v2.822h-6.913Z" fill="#ccc" stroke="#ccc" stroke-miterlimit="10" stroke-width="1.5"/>
      <path d="M1050.421,284.696v34.455h-2.799l-16.39-29.029v29.005h-2.821v-34.285h3.081l16.106,28.528v-28.675h2.822Z" fill="#ccc" stroke="#ccc" stroke-miterlimit="10" stroke-width="1.5"/>
      <path d="M1078.845,299.967l-.146,19.184-2.821-.021.08-10.713h-16.306v10.723h-2.821v-19.178l9.669-15.108h2.673l9.672,15.114ZM1075.979,305.593l.036-4.812-8.18-12.781-8.184,12.785v4.809h16.327Z" fill="#ccc" stroke="#ccc" stroke-miterlimit="10" stroke-width="1.5"/>
      <path d="M1111.351,284.879v7.705l-22.192,26.721h-3.908v-34.425h2.821v31.315l20.458-24.631v-6.684h2.821Z" fill="#ccc" stroke="#ccc" stroke-miterlimit="10" stroke-width="1.5"/>
      <path d="M1139.179,311.587l-10.801,10.591-10.592-10.591h9.19v-12.416h2.822v12.416h9.38Z" fill="#ccc" stroke="#ccc" stroke-miterlimit="10" stroke-width="1.5"/>
    </g>
    <g>
      <rect x="708.902" y="276.019" width="178.303" height="52.826" fill="none"/>
      <path d="M756.295,304.859l8.149,13.498v.817h-2.112l-.507.306-8.621-14.278c-.062,0-.127.004-.188.004h-7.902v13.968h-2.821v-34.425h10.581c1.629,0,3.239.336,4.666.968,1.531.681,2.777,1.515,3.81,2.549.838.837,1.459,1.923,2.06,2.973l.075.15c.559,1.306.82,2.469.82,3.66,0,1.236-.284,2.55-.82,3.801-.473,1.1-1.252,2.239-2.135,3.122-.815.816-2.135,1.904-3.795,2.458-.417.186-.837.323-1.259.432h0ZM745.113,287.569v14.814h7.902c1.586,0,2.572-.165,3.518-.584,1.016-.346,1.971-.975,2.82-1.824.629-.631,1.205-1.469,1.537-2.24.386-.902.591-1.832.591-2.688,0-.788-.174-1.553-.561-2.476-.52-.908-1.009-1.754-1.565-2.312-.798-.797-1.738-1.422-2.962-1.966-1.066-.473-2.283-.725-3.519-.725h-7.762Z" fill="#ccc" stroke="#ccc" stroke-miterlimit="10" stroke-width="1.5"/>
      <path d="M792.868,284.696v34.455h-2.8l-16.389-29.029v29.005h-2.821v-34.285h3.081l16.106,28.528v-28.675h2.822Z" fill="#ccc" stroke="#ccc" stroke-miterlimit="10" stroke-width="1.5"/>
      <path d="M821.292,299.967l-.146,19.184-2.821-.021.08-10.713h-16.306v10.723h-2.821v-19.178l9.669-15.108h2.673l9.672,15.114ZM818.427,305.593l.036-4.812-8.18-12.781-8.184,12.785v4.809h16.327Z" fill="#ccc" stroke="#ccc" stroke-miterlimit="10" stroke-width="1.5"/>
      <path d="M853.799,284.879v7.705l-22.192,26.721h-3.908v-34.425h2.821v31.315l20.458-24.631v-6.684h2.821Z" fill="#ccc" stroke="#ccc" stroke-miterlimit="10" stroke-width="1.5"/>
    </g>
    <g>
      <rect x="435.913" y="354.133" width="719.803" height="52.826" fill="none"/>
      <path d="M481.197,374.55v9.735c0,1.931-.329,3.771-.948,5.32-.588,1.624-1.506,3.079-2.709,4.283-.91,1.067-2.076,1.905-3.396,2.413-1.301.641-2.63.964-3.952.964h-11.005v-35.836h11.005c1.459,0,2.819.325,4.158.995,1.384.693,2.496,1.543,3.404,2.602.9.896,1.717,2.256,2.496,4.205.642,1.764.947,3.491.947,5.32ZM478.375,374.55c0-1.515-.243-2.887-.762-4.314-.617-1.539-1.234-2.599-1.93-3.294-.741-.858-1.542-1.466-2.596-1.994-.951-.475-1.871-.697-2.895-.697h-8.183v30.193h8.183c.903,0,1.83-.236,2.755-.698l.136-.06c.911-.34,1.691-.901,2.387-1.712.983-.991,1.679-2.098,2.143-3.374.497-1.243.762-2.76.762-4.314v-9.735Z" fill="#ccc" stroke="#ccc" stroke-miterlimit="10" stroke-width="1.5"/>
      <path d="M496.26,364.391v11.569h10.158v2.822h-10.158v15.661h18.482v2.822h-21.304v-35.695h21.304v2.822h-18.482Z" fill="#ccc" stroke="#ccc" stroke-miterlimit="10" stroke-width="1.5"/>
      <path d="M553.103,362.993v7.705l-22.193,26.721h-3.908v-34.425h2.822v31.315l20.458-24.631v-6.684h2.822Z" fill="#ccc" stroke="#ccc" stroke-miterlimit="10" stroke-width="1.5"/>
      <path d="M648.869,380.668c.533,1.246.794,3.653.794,4.869,0,1.301,0,2.16-.612,4.456-.541,2.157-1.648,3.609-2.482,4.443-.933.931-2.714,2.12-4.182,2.487-1.384.465-3.644.465-4.857.465-1.434,0-3.918-.808-4.93-1.242-1.184-.508-3.406-2.006-4.756-3.205l1.875-2.109c1.181,1.05,3.183,2.373,3.993,2.722.931.399,2.991,1.014,3.818,1.014.979,0,3.017,0,4.069-.351.903-.23,2.245-1.045,2.976-1.776.582-.58,1.357-1.6,1.746-3.153.522-1.958.522-2.52.522-3.749,0-1.252-.287-3.109-.591-3.819-.347-.92-.769-1.62-1.48-2.474-.62-.743-1.295-1.275-2.011-1.582-.887-.381-1.827-.733-2.689-.733h-3.81v-3.073l8.384-9.484h-12.898v-2.822h15.943v3.636l-7.884,8.92h.265c1.375,0,2.693.485,3.801.961,1.127.484,2.16,1.281,3.067,2.369.918,1.101,1.496,2.067,1.932,3.229h-.001Z" fill="#ccc" stroke="#ccc" stroke-miterlimit="10" stroke-width="1.5"/>
      <path d="M671.828,394.565v2.822h-9.029v-2.822h3.104v-28.956l-2.206,1.826-1.799-2.174,4.482-3.709h2.344v33.013h3.104Z" fill="#ccc" stroke="#ccc" stroke-miterlimit="10" stroke-width="1.5"/>
      <path d="M694.024,394.565v2.822h-9.029v-2.822h3.104v-28.956l-2.206,1.826-1.799-2.174,4.482-3.709h2.344v33.013h3.104Z" fill="#ccc" stroke="#ccc" stroke-miterlimit="10" stroke-width="1.5"/>
      <path d="M718.989,369.973c0,3.5-2.849,6.349-6.349,6.349s-6.349-2.849-6.349-6.349,2.849-6.349,6.349-6.349,6.349,2.849,6.349,6.349ZM716.167,369.973c0-1.944-1.583-3.527-3.527-3.527s-3.527,1.583-3.527,3.527,1.583,3.527,3.527,3.527,3.527-1.583,3.527-3.527Z" fill="#ccc" stroke="#ccc" stroke-miterlimit="10" stroke-width="1.5"/>
      <path d="M753.243,363.003v34.284h-2.822v-28.712l-6.648,11.923h-3.068l-6.649-11.923v28.712h-2.822v-34.284h2.945l8.06,14.452,8.061-14.452h2.945Z" fill="#ccc" stroke="#ccc" stroke-miterlimit="10" stroke-width="1.5"/>
      <path d="M786.508,372.654v1.857l-18.202,18.061v.399l-.416.014-.015-.014h-2.392v-1.576l18.202-18.059v-.682h2.822Z" fill="#ccc" stroke="#ccc" stroke-miterlimit="10" stroke-width="1.5"/>
      <path d="M819.77,367.551c.651,1.301.996,2.788.996,4.299v15.378c0,1.511-.345,3-.996,4.3-.609,1.222-1.532,2.366-2.741,3.403-1.08.898-2.239,1.511-3.461,1.83-1.115.406-2.315.612-3.666.625h-.141c-1.509-.011-2.711-.214-3.882-.653-1.272-.479-2.405-1.127-3.37-1.932-1.225-1.048-2.147-2.194-2.759-3.416-.651-1.301-.996-2.788-.996-4.297v-15.378c0-1.51.346-2.997.996-4.299.611-1.222,1.534-2.367,2.743-3.403,1.079-.9,2.239-1.511,3.461-1.83,1.152-.42,2.398-.626,3.807-.626,1.511,0,2.864.219,4.022.653,1.272.477,2.405,1.127,3.372,1.932,1.073.918,1.924,2.033,2.615,3.414h0ZM801.578,371.709v13.917l16.19-15.351c-.117-.514-.292-1.006-.521-1.463-.526-1.054-1.135-1.855-1.913-2.523-.706-.588-1.566-1.078-2.54-1.443-.828-.311-1.877-.474-3.032-.474-1.108,0-2.027.151-2.891.474l-.152.048c-.837.209-1.644.635-2.402,1.267-.907.777-1.599,1.627-2.041,2.51-.457.914-.698,1.964-.698,3.038ZM817.946,387.23v-13.233l-16.033,15.203c.102.32.219.632.365.927.441.883,1.133,1.732,2.056,2.522.705.587,1.564,1.077,2.539,1.443.858.322,1.772.469,2.958.474,1.077-.005,1.977-.156,2.822-.474l.153-.048c.836-.208,1.644-.635,2.402-1.267.905-.777,1.597-1.626,2.039-2.51.457-.913.698-1.962.698-3.038Z" fill="#ccc" stroke="#ccc" stroke-miterlimit="10" stroke-width="1.5"/>
      <path d="M833.006,394.099c0-1.636,1.263-2.963,2.821-2.963s2.822,1.327,2.822,2.963-1.264,2.963-2.822,2.963-2.821-1.326-2.821-2.963Z" fill="#ccc" stroke="#ccc" stroke-miterlimit="10" stroke-width="1.5"/>
      <path d="M871.905,367.551c.651,1.301.996,2.788.996,4.299v15.378c0,1.511-.345,3-.996,4.3-.609,1.222-1.532,2.366-2.741,3.403-1.08.898-2.239,1.511-3.461,1.83-1.115.406-2.315.612-3.666.625h-.141c-1.509-.011-2.711-.214-3.882-.653-1.272-.479-2.405-1.127-3.37-1.932-1.225-1.048-2.147-2.194-2.759-3.416-.651-1.301-.996-2.788-.996-4.297v-15.378c0-1.51.346-2.997.996-4.299.611-1.222,1.534-2.367,2.743-3.403,1.079-.9,2.239-1.511,3.461-1.83,1.152-.42,2.398-.626,3.807-.626,1.511,0,2.864.219,4.022.653,1.272.477,2.405,1.127,3.372,1.932,1.073.918,1.924,2.033,2.615,3.414h0ZM853.713,371.709v13.917l16.19-15.351c-.117-.514-.292-1.006-.521-1.463-.526-1.054-1.135-1.855-1.913-2.523-.706-.588-1.566-1.078-2.54-1.443-.828-.311-1.877-.474-3.032-.474-1.108,0-2.027.151-2.891.474l-.152.048c-.837.209-1.644.635-2.402,1.267-.907.777-1.599,1.627-2.041,2.51-.457.914-.698,1.964-.698,3.038ZM870.081,387.23v-13.233l-16.033,15.203c.102.32.219.632.365.927.441.883,1.133,1.732,2.056,2.522.705.587,1.564,1.077,2.539,1.443.858.322,1.772.469,2.958.474,1.077-.005,1.977-.156,2.822-.474l.153-.048c.836-.208,1.644-.635,2.402-1.267.905-.777,1.597-1.626,2.039-2.51.457-.913.698-1.962.698-3.038Z" fill="#ccc" stroke="#ccc" stroke-miterlimit="10" stroke-width="1.5"/>
      <path d="M900.766,367.551c.651,1.301.996,2.788.996,4.299v15.378c0,1.511-.345,3-.996,4.3-.609,1.222-1.532,2.366-2.741,3.403-1.08.898-2.239,1.511-3.461,1.83-1.115.406-2.315.612-3.666.625h-.141c-1.509-.011-2.711-.214-3.882-.653-1.272-.479-2.405-1.127-3.37-1.932-1.225-1.048-2.147-2.194-2.759-3.416-.651-1.301-.996-2.788-.996-4.297v-15.378c0-1.51.346-2.997.996-4.299.611-1.222,1.534-2.367,2.743-3.403,1.079-.9,2.239-1.511,3.461-1.83,1.152-.42,2.398-.626,3.807-.626,1.511,0,2.864.219,4.022.653,1.272.477,2.405,1.127,3.372,1.932,1.073.918,1.924,2.033,2.615,3.414h0ZM882.574,371.709v13.917l16.19-15.351c-.117-.514-.292-1.006-.521-1.463-.526-1.054-1.135-1.855-1.913-2.523-.706-.588-1.566-1.078-2.54-1.443-.828-.311-1.877-.474-3.032-.474-1.108,0-2.027.151-2.891.474l-.152.048c-.837.209-1.644.635-2.402,1.267-.907.777-1.599,1.627-2.041,2.51-.457.914-.698,1.964-.698,3.038ZM898.942,387.23v-13.233l-16.033,15.203c.102.32.219.632.365.927.441.883,1.133,1.732,2.056,2.522.705.587,1.564,1.077,2.539,1.443.858.322,1.772.469,2.958.474,1.077-.005,1.977-.156,2.822-.474l.153-.048c.836-.208,1.644-.635,2.402-1.267.905-.777,1.597-1.626,2.039-2.51.457-.913.698-1.962.698-3.038Z" fill="#ccc" stroke="#ccc" stroke-miterlimit="10" stroke-width="1.5"/>
      <path d="M926.795,381.591c.391,1.946.218,3.624.153,4.097v11.61h-2.821l.021-11.942c0-.01.229-1.488-.133-3.301-.227-1.67-.811-2.861-1.804-3.73-.737-.645-2.146-1.061-3.586-1.061-1.221,0-2.467.446-3.508,1.255-2.151,1.813-3.265,4.298-3.265,7.351v11.428h-2.821v-11.428c0-.086.011-.166.013-.251l-.152.004s-.143-5.811-.143-7.653c0-.929-.138-2.988-.138-3.01l2.814-.188c.006.089.145,2.174.145,3.197v.197c.517-.661,1.104-1.278,1.772-1.841,1.577-1.228,3.437-1.883,5.282-1.883,2.148,0,4.183.658,5.442,1.76,1.509,1.321,2.427,3.134,2.728,5.39h0Z" fill="#ccc" stroke="#ccc" stroke-miterlimit="10" stroke-width="1.5"/>
      <path d="M959.562,381.59c.297,2.243.153,4.039.147,4.114l.005,11.593h-2.822v-11.71c.006-.13.128-1.699-.129-3.623-.235-1.768-.67-2.972-1.365-3.783-.545-.635-1.558-.918-2.315-.918s-1.631.426-2.174,1.06c-1.649,1.886-2.481,4.421-2.481,7.547v11.428h-2.963v-11.71c.007-.13.128-1.699-.129-3.623-.235-1.768-.67-2.972-1.366-3.783-.544-.635-1.558-.918-2.314-.918s-1.631.426-2.175,1.06c-1.649,1.885-2.481,4.42-2.481,7.547v11.428h-2.821v-11.428c0-.096.01-.188.01-.282h-.151v-7.524c-.137-1.081-.141-2.979-.141-3.198h2.821c0,.44.015,1.521.07,2.321.181-.242.363-.482.562-.71,1.071-1.25,2.725-2.033,4.307-2.033,1.365,0,3.253.499,4.456,1.903.516.6.926,1.305,1.253,2.129.402-.714.872-1.383,1.411-2,1.073-1.25,2.726-2.033,4.308-2.033,1.366,0,3.254.499,4.457,1.903,1.066,1.246,1.709,2.913,2.021,5.247l.002-.002Z" fill="#ccc" stroke="#ccc" stroke-miterlimit="10" stroke-width="1.5"/>
    </g>
    <g>
      <rect x="427.696" y="467.951" width="727.435" height="52.826" fill="none"/>
      <path d="M784.118,508.383v2.822h-9.029v-2.822h3.104v-28.956l-2.206,1.826-1.799-2.174,4.482-3.709h2.344v33.013h3.104Z" fill="#ccc" stroke="#ccc" stroke-miterlimit="10" stroke-width="1.5"/>
      <path d="M976.501,481.369c.651,1.301.996,2.788.996,4.299v15.378c0,1.511-.345,3-.996,4.3-.609,1.222-1.532,2.366-2.741,3.403-1.08.898-2.239,1.511-3.461,1.83-1.115.406-2.315.612-3.666.625h-.141c-1.509-.011-2.711-.214-3.882-.653-1.272-.479-2.405-1.127-3.37-1.932-1.225-1.048-2.147-2.194-2.759-3.416-.651-1.301-.996-2.788-.996-4.297v-15.378c0-1.51.346-2.997.996-4.299.611-1.222,1.534-2.367,2.743-3.403,1.079-.9,2.239-1.511,3.461-1.83,1.152-.42,2.398-.626,3.807-.626,1.511,0,2.864.219,4.022.653,1.272.477,2.405,1.127,3.372,1.932,1.073.918,1.924,2.033,2.615,3.414h0ZM958.308,485.527v13.917l16.19-15.351c-.117-.514-.292-1.006-.521-1.463-.526-1.054-1.135-1.855-1.913-2.523-.706-.588-1.566-1.078-2.54-1.443-.828-.311-1.877-.474-3.032-.474-1.108,0-2.027.151-2.891.474l-.152.048c-.837.209-1.644.635-2.402,1.267-.907.777-1.599,1.627-2.041,2.51-.457.914-.698,1.964-.698,3.038ZM974.677,501.048v-13.233l-16.033,15.203c.102.32.219.632.365.927.441.883,1.133,1.732,2.056,2.522.705.587,1.564,1.077,2.539,1.443.858.322,1.772.469,2.958.474,1.077-.005,1.977-.156,2.822-.474l.153-.048c.836-.208,1.644-.635,2.402-1.267.905-.777,1.597-1.626,2.039-2.51.457-.913.698-1.962.698-3.038Z" fill="#ccc" stroke="#ccc" stroke-miterlimit="10" stroke-width="1.5"/>
      <path d="M983.904,507.917c0-1.636,1.263-2.963,2.821-2.963s2.822,1.327,2.822,2.963-1.264,2.963-2.822,2.963-2.821-1.326-2.821-2.963Z" fill="#ccc" stroke="#ccc" stroke-miterlimit="10" stroke-width="1.5"/>
      <path d="M1018.533,501.047c0,5.601-5.064,10.158-11.287,10.158s-11.287-4.557-11.287-10.158c0-3.785,2.316-7.088,5.737-8.835-2.772-1.64-4.609-4.464-4.609-7.672,0-5.057,4.558-9.171,10.159-9.171s10.158,4.114,10.158,9.171c0,3.208-1.839,6.033-4.609,7.672,3.421,1.747,5.738,5.05,5.738,8.835ZM1015.711,501.047c0-4.045-3.797-7.336-8.465-7.336s-8.466,3.292-8.466,7.336,3.797,7.336,8.466,7.336,8.465-3.292,8.465-7.336ZM1007.246,490.89c4.045,0,7.336-2.849,7.336-6.349s-3.291-6.349-7.336-6.349-7.337,2.849-7.337,6.349,3.291,6.349,7.337,6.349Z" fill="#ccc" stroke="#ccc" stroke-miterlimit="10" stroke-width="1.5"/>
    </g>
  </g>
  <g id="RNAV_INS_Page_Arrows_-_Dark">
    <path d="M446.551,229.907l-66.795-36.941-3.526,12.529L110.262,120.746c1.365-4.467,2.176-9.18,2.321-14.069.878-29.571-22.466-54.343-52.037-55.22S6.203,73.922,5.326,103.493c-.878,29.57,22.466,54.342,52.037,55.22,21.535.639,40.512-11.574,49.582-29.676l266.874,85.025-3.526,12.529,76.257,3.316ZM57.6,150.717c-25.202-.748-45.026-21.785-44.278-46.986.748-25.202,21.785-45.026,46.986-44.278,25.202.748,45.026,21.785,44.278,46.986-.748,25.202-21.785,45.026-46.986,44.278Z" fill="#ccc" stroke="#0d121e" stroke-miterlimit="10" stroke-width="2"/>
    <path d="M1226.988,665.916l1.469-12.932,240.472,31.467c-.882,28.689,21.322,53.674,50.93,55.2,27.269,1.406,51.528-18.361,55.7-45.346,4.676-30.248-16.838-58.128-46.96-61.55-27.904-3.17-53.303,15.778-58.666,42.853l-240.472-31.467,1.469-12.932-75.801,8.965,71.858,25.742ZM1477.182,680.91c2.846-25.052,25.462-43.053,50.514-40.207,25.052,2.846,43.053,25.462,40.207,50.514-2.846,25.052-25.462,43.053-50.514,40.207-25.052-2.846-43.053-25.462-40.207-50.514Z" fill="#ccc" stroke="#0d121e" stroke-miterlimit="10" stroke-width="2"/>
    <path d="M1233.391,280.472l-4.536-12.199,247.652-92.658c10.515,17.302,30.426,27.927,51.837,25.535,29.401-3.286,50.647-29.879,47.361-59.279-3.286-29.401-29.879-50.647-59.28-47.361s-50.647,29.879-47.361,59.279c.543,4.861,1.735,9.492,3.46,13.833l-246.772,92.309-4.536-12.199-63.561,42.264,75.733-9.523ZM1477.016,152.9c-2.8-25.057,15.242-47.64,40.299-50.44s47.64,15.242,50.44,40.299c2.8,25.057-15.242,47.64-40.299,50.44s-47.64-15.242-50.44-40.299Z" fill="#ccc" stroke="#0d121e" stroke-miterlimit="10" stroke-width="2"/>
    <path d="M1107.74,474.176l-3.509-12.533,368.094-117.962c9.604,25.877,37.695,40.54,64.739,32.969,28.488-7.976,45.176-37.642,37.2-66.131-7.976-28.488-37.642-45.176-66.131-37.2-27.044,7.572-43.437,34.69-38.208,61.792l-368.094,117.962-3.509-12.533-66.844,36.852,76.262-3.215ZM1478.637,337.293c-6.798-24.279,7.374-49.472,31.653-56.27s49.472,7.374,56.27,31.653c6.798,24.279-7.374,49.472-31.653,56.27s-49.472-7.374-56.27-31.653Z" fill="#ccc" stroke="#0d121e" stroke-miterlimit="10" stroke-width="2"/>
    <path d="M451.565,373.304l-72.302-24.466-1.24,12.956-265.331-44.939c.548-4.639.507-9.421-.22-14.258-4.398-29.255-31.777-49.478-61.032-45.08-29.255,4.398-49.478,31.777-45.08,61.033,4.398,29.255,31.777,49.477,61.032,45.079,21.305-3.203,37.806-18.598,43.51-38.025l266.272,45.049-1.24,12.956,75.63-10.306ZM66.203,355.719c-24.933,3.748-48.183-13.425-51.932-38.358-3.748-24.933,13.425-48.183,38.358-51.932,24.933-3.748,48.183,13.425,51.932,38.358,3.748,24.933-13.425,48.183-38.358,51.932Z" fill="#ccc" stroke="#0d121e" stroke-miterlimit="10" stroke-width="2"/>
    <path d="M722.802,576.963l11.48,6.132-189.053,381.232c-25.333-10.958-55.352-.806-68.584,23.965-13.939,26.094-4.05,58.664,22.044,72.603,26.094,13.939,58.664,4.05,72.603-22.044,13.232-24.771,4.98-55.366-18.213-70.33l189.053-381.232,11.48,6.132,19.605-73.769-50.415,57.31ZM545.478,973.304c22.239,11.88,30.637,39.538,18.757,61.777-11.88,22.239-39.538,30.637-61.777,18.757-22.239-11.88-30.637-39.538-18.757-61.777,11.88-22.239,39.538-30.637,61.777-18.757Z" fill="#ccc" stroke="#0d121e" stroke-miterlimit="10" stroke-width="2"/>
    <path d="M67.699,124.93v4.607h-14.744v-4.607h5.068v-47.279l-3.601,2.981-2.938-3.55,7.319-6.057h3.827v53.905h5.068Z" fill="#ff8500" stroke="#ff8500" stroke-miterlimit="10"/>
    <path d="M1534.078,336.727h6.22v4.607h-6.22v11.519h-4.607v-11.519h-23.959v-5.015l23.805-39.678h4.76v40.083l.002.002ZM1529.469,305.342l-18.831,31.384h18.831v-31.384Z" fill="#ff8500" stroke="#ff8500" stroke-miterlimit="10"/>
    <path d="M1537.241,154.26c.871,2.034,1.297,5.964,1.297,7.95,0,2.124,0,3.527-1,7.275-.882,3.522-2.69,5.893-4.052,7.254-1.522,1.521-4.433,3.462-6.828,4.062-2.26.76-5.951.76-7.932.76-2.341,0-6.397-1.32-8.05-2.027-1.933-.829-5.561-3.276-7.766-5.234l3.062-3.444c1.929,1.714,5.197,3.875,6.52,4.444,1.521.652,4.884,1.657,6.234,1.657,1.599,0,4.925,0,6.644-.574,1.475-.375,3.665-1.707,4.858-2.9.949-.947,2.217-2.612,2.85-5.149.853-3.198.853-4.114.853-6.121,0-2.045-.468-5.077-.965-6.236-.567-1.502-1.256-2.645-2.417-4.038-1.011-1.214-2.114-2.083-3.282-2.583-1.449-.622-2.983-1.198-4.392-1.198h-6.22v-5.017l13.688-15.486h-21.061v-4.607h26.032v5.937l-12.873,14.564h.433c2.246,0,4.398.792,6.206,1.569,1.841.79,3.527,2.092,5.009,3.868,1.5,1.797,2.441,3.375,3.153,5.273l-.002.002Z" fill="#ff8500" stroke="#ff8500" stroke-miterlimit="10"/>
    <path d="M1544.022,683.154c.876,2.046,1.339,4.193,1.339,6.209v11.288c0,2.018-.463,4.163-1.339,6.206-.853,1.993-2.262,3.902-3.865,5.238-1.235,1.03-3.149,2.498-5.504,3.382-2.366.888-4.455,1.3-6.57,1.3-2.407,0-5.418-.521-7.489-1.297-2.299-.864-4.149-2.016-5.658-3.524-1.451-1.196-2.858-3.105-3.713-5.099-.517-1.022-.795-2.133-1.039-3.112l-.069-.56v-2.073h4.607v1.79c.187.741.368,1.396.677,2.016.634,1.472,1.576,2.753,2.641,3.64,1.202,1.188,2.479,1.972,4.172,2.607,1.553.581,4.024,1.005,5.872,1.005,1.566,0,3.094-.312,4.951-1.007,1.292-.486,2.619-1.313,4.172-2.607,1.062-.888,2.004-2.171,2.582-3.516.632-1.475.966-2.993.966-4.392v-11.288c0-1.398-.334-2.916-.966-4.393-.575-1.346-1.518-2.627-2.582-3.514-1.203-1.187-2.479-1.972-4.172-2.605l-.705-.271c-1.288-.505-1.878-.735-4.246-.735-2.889,0-5.204.617-7.286,1.944-1.556.973-2.931,2.348-3.892,3.885l-.677,1.082h-6.114v-26.723h34.786v4.607h-30.179v16.301c1.055-1.18,2.276-2.212,3.617-3.05,2.799-1.783,5.994-2.654,9.744-2.654,3.08,0,4.258.398,5.923,1.051l.646.249c2.299.861,4.148,2.013,5.657,3.522,1.449,1.195,2.859,3.103,3.714,5.096v.002Z" fill="#ff8500" stroke="#ff8500" stroke-miterlimit="10"/>
    <path d="M48.064,335.339h28.483v4.607h-34.786v-4.591l6.056-6.609c3.175-3.536,6.086-6.778,8.851-9.727,1.373-1.373,2.749-2.979,4.078-4.531,1.389-1.62,6.939-7.865,6.939-7.865.629-.634.983-1.081,1.221-1.375.141-.177.26-.32.359-.431.675-.859,1.242-1.947,1.643-3.149.38-1.14.574-2.053.574-3.879,0-1.569-.325-3.124-.965-4.621-.583-1.546-1.511-2.661-2.737-3.887-1.398-1.152-2.723-1.981-4.018-2.465-3.705-1.389-6.199-1.387-9.899,0-1.695.636-2.972,1.419-4.02,2.467-1.209,1.209-2.182,2.589-2.737,3.886l-4.234-1.815c.792-1.85,2.078-3.693,3.713-5.329,1.511-1.509,3.361-2.661,5.66-3.522,4.713-1.774,8.411-1.774,13.136,0,2.356.885,4.269,2.354,5.503,3.382,1.511,1.5,3.022,3.209,3.907,5.568.85,1.975,1.299,4.14,1.299,6.338,0,2.423-.311,3.838-.811,5.337-.578,1.737-1.431,3.338-2.46,4.626l-.315.375c-.309.387-.772.965-1.468,1.659.005,0-5.425,6.109-6.791,7.704-1.387,1.617-2.82,3.29-4.267,4.737-2.693,2.873-5.582,6.091-8.733,9.6l-3.179,3.513-.002-.002Z" fill="#ff8500" stroke="#ff8500" stroke-miterlimit="10"/>
    <path d="M542.141,1016.382c1.283,2.244,1.456,4.4,1.456,6.211v2.073c0,1.949-.426,3.848-1.339,5.977l-.117.234c-1.053,1.846-2.394,3.451-3.981,4.773-1.451,1.21-3.379,2.27-5.734,3.151-1.917.719-4.14,1.069-6.798,1.069-2.276,0-4.492-.478-6.549-.991l-.249-.078c-2.354-.882-4.285-1.944-5.734-3.151-1.587-1.322-2.926-2.931-3.981-4.773-1.283-2.244-1.456-4.397-1.456-6.211-.016-.32-.451-10.42,1.205-17.999,2.214-9.581,12.629-20.001,19.301-23.851l2.301,3.99c-5.918,3.414-15.29,13.007-17.105,20.87-.302,1.377-.525,2.867-.693,4.372.392-.344.804-.673,1.235-.988,1.216-.975,3.571-2.32,5.568-2.892,2.006-.575,10.556-.612,12.958.288,2.352.883,4.282,1.944,5.734,3.154,1.587,1.322,2.928,2.93,3.981,4.773l-.002-.003ZM538.995,1024.671v-2.073c0-1.756-.237-2.856-.848-3.926-.779-1.363-1.765-2.55-2.931-3.52-1.039-.866-2.562-1.689-4.402-2.378-1.35-.479-8.733-.525-10.081-.173-1.325.38-3.124,1.396-4.027,2.117-2.765,2.029-4.435,4.762-4.435,7.186h-.058c.009,1.605.055,2.631.055,2.66.002,1.862.24,2.961.85,4.029.781,1.364,1.767,2.551,2.93,3.521,1.012.846,2.491,1.649,4.281,2.331,1.732.431,3.568.82,5.301.82,2.096,0,3.79-.253,5.181-.774,1.843-.693,3.366-1.513,4.402-2.377,1.133-.942,2.096-2.09,2.866-3.407.629-1.5.912-2.748.912-4.036h.002Z" fill="#ff8500" stroke="#ff8500" stroke-miterlimit="10"/>
  </g>
</svg>