<?xml version="1.0" encoding="UTF-8"?>
<svg xmlns="http://www.w3.org/2000/svg" width="1573.826" height="129.913" viewBox="0 0 1573.826 129.913">
  <g id="BUTTON_-_Dark">
    <rect x="779.587" y="20.5" width="83" height="91" rx="1.738" ry="1.738" fill="none" stroke="#ccc" stroke-miterlimit="10" stroke-width="5"/>
    <rect x="770.587" y="11" width="101" height="110" rx="5.276" ry="5.276" fill="none" stroke="#ccc" stroke-miterlimit="10" stroke-width="5"/>
  </g>
  <g id="IDX_-_Dark">
    <g>
      <path d="M802.521,56.993v20.95h4.359v1.958h-10.499v-1.958h4.36v-20.95h-4.36v-1.958h10.499v1.958h-4.359Z" fill="#ccc" stroke="#ccc" stroke-miterlimit="10" stroke-width="2"/>
      <path d="M824.812,64.029v6.755c0,1.34-.208,2.617-.599,3.691-.371,1.127-.949,2.136-1.708,2.972-.574.74-1.309,1.322-2.142,1.674-.82.444-1.658.668-2.492.668h-6.94v-24.866h6.94c.92,0,1.777.225,2.622.69.873.48,1.574,1.071,2.146,1.805.568.622,1.083,1.565,1.574,2.917.405,1.224.598,2.422.598,3.692ZM823.032,64.029c0-1.051-.152-2.003-.48-2.994-.389-1.068-.778-1.803-1.217-2.286-.467-.595-.973-1.017-1.638-1.383-.6-.33-1.18-.483-1.825-.483h-5.161v20.95h5.161c.569,0,1.154-.164,1.737-.484l.086-.041c.574-.236,1.066-.626,1.505-1.188.62-.688,1.06-1.456,1.352-2.341.313-.863.48-1.915.48-2.994v-6.755Z" fill="#ccc" stroke="#ccc" stroke-miterlimit="10" stroke-width="2"/>
      <path d="M842.819,79.34v.466h-1.189l-.464.306-5.293-9.761-5.373,9.767-.466-.312h-1.185v-.469l6.071-11.037-5.805-10.741v-.562h1.34l.314-.207,5.103,9.44,5.021-9.435.312.201h1.345v.559l-5.718,10.745,5.985,11.04Z" fill="#ccc" stroke="#ccc" stroke-miterlimit="10" stroke-width="2"/>
    </g>
  </g>
</svg>