<?xml version="1.0" encoding="UTF-8"?>
<svg id="b" data-name="FFDL_CUE_-_Dark" xmlns="http://www.w3.org/2000/svg" width="2061.538" height="202.972" viewBox="0 0 2061.538 202.972">
  <path id="c" data-name="DLDonor" d="M1042.684,105.535c0,19.747-15.994,35.741-35.741,35.741s-35.741-15.994-35.741-35.741" fill="none" stroke="#ccc" stroke-miterlimit="15.1" stroke-width="7"/>
  <path d="M956.943,109.268c1.246,1.511,1.942,3.432,1.942,5.395v23.427c0,1.76-1.427,3.187-3.187,3.187s-3.187-1.427-3.187-3.187v-14.668h-17.517v14.668c0,1.76-1.427,3.187-3.187,3.187s-3.187-1.427-3.187-3.187v-23.427c0-1.925.663-3.773,1.913-5.356l5.352-6.539c3.812-4.562,11.962-4.537,15.723-.021l5.34,6.521h-.004ZM935.002,117.043h17.521v-2.386c0-.489-.173-.953-.494-1.342l-5.331-6.514c-1.279-1.532-4.576-1.557-5.893.025l-5.297,6.479c-.452.562-.507,1.047-.507,1.355v2.381Z" fill="#ccc"/>
</svg>