<?xml version="1.0" encoding="UTF-8"?>
<svg id="b" data-name="G_AOA_M_Dark" xmlns="http://www.w3.org/2000/svg" width="2061.538" height="626.087" viewBox="0 0 2061.538 626.087">
  <g>
    <path d="M479.017,240.053c2.078,2.417,2.021,4.715,1.973,6.564l-.015.849c0,3.452-1.091,6.52-2.993,8.425-1.629,1.626-3.871,2.817-6.15,3.273-1.756.352-11.262.818-14.135.949h-.135c-1.498,0-2.746-1.181-2.817-2.69-.071-1.555,1.128-2.873,2.687-2.948,5.769-.272,12.319-.661,13.294-.848,1.181-.239,2.433-.9,3.266-1.734.62-.62,1.341-2.151,1.341-4.435l.015-.99c.037-1.565.022-2.003-.605-2.735-.71-.818-1.296-.975-2.69-1.035h-14.49c-1.55,0-2.81-1.247-2.821-2.798l-.112-14.24c-.003-.754.288-1.476.818-2.01.531-.534,1.252-.833,2.003-.833h19.354c1.558,0,2.821,1.263,2.821,2.82s-1.263,2.821-2.821,2.821h-16.511l.067,8.598h11.811c2.35.101,4.704.527,6.841,2.993l.003.004Z" fill="#ccc"/>
    <path d="M500.087,259.379v.078c0,1.559-1.263,2.821-2.821,2.821s-2.821-1.263-2.821-2.821,1.263-2.861,2.821-2.861,2.821,1.226,2.821,2.783Z" fill="#ccc"/>
    <path d="M536.859,240.06c1.226.311,2.13,1.416,2.13,2.735s-.904,2.425-2.13,2.735v11.799c0,1.559-1.263,2.821-2.821,2.821s-2.821-1.263-2.821-2.821v-11.717h-14.853c-1.102,0-2.104-.636-2.563-1.637-.463-1.001-.299-2.179.415-3.016l14.647-17.149c.534-.628,1.319-.99,2.145-.99h3.027c1.558,0,2.821,1.263,2.821,2.82v14.412l.004.007ZM531.213,229.743l-8.732,10.227h8.732v-10.227Z" fill="#ccc"/>
  </g>
  <g>
    <path d="M362.997,270.278c1.162.377,1.947,1.461,1.947,2.683v31.61c0,1.559-1.263,2.82-2.821,2.82s-2.821-1.262-2.821-2.82v-22.957l-5.474,7.507c-.531.729-1.379,1.158-2.279,1.158s-1.749-.434-2.279-1.162l-5.437-7.48v22.935c0,1.559-1.263,2.82-2.821,2.82s-2.821-1.262-2.821-2.82v-31.61c0-1.222.785-2.302,1.947-2.683,1.162-.377,2.433.037,3.154,1.023l8.257,11.366,8.291-11.366c.717-.99,1.992-1.4,3.154-1.02l.003-.004Z" fill="#ccc"/>
    <path d="M443.676,277.185v23.092c0,3.927-3.46,7.117-7.716,7.117h-11.321c-4.327,0-7.716-3.127-7.716-7.117v-23.092c0-3.926,3.46-7.117,7.716-7.117h11.321c4.256,0,7.716,3.191,7.716,7.117ZM438.034,277.185c0-.814-.93-1.479-2.074-1.479h-11.321c-1.188,0-2.074.78-2.074,1.479v23.092c0,.814.931,1.479,2.074,1.479h11.321c1.188,0,2.074-.78,2.074-1.479v-23.092Z" fill="#ccc"/>
    <path d="M462.773,306.626v.078c0,1.559-1.263,2.822-2.821,2.822s-2.821-1.264-2.821-2.822,1.263-2.861,2.821-2.861,2.821,1.226,2.821,2.783Z" fill="#ccc"/>
    <path d="M498.268,303.919c-3.314,3.311-11.52,3.479-13.13,3.479-1.558,0-2.821-1.263-2.821-2.816s1.259-2.825,2.817-2.825c3.464-.004,8.071-.755,9.143-1.827,1.382-1.383,2.223-4.227,2.702-7.383-2.029,1.035-4.488,1.625-7.357,1.625-8.262,0-13.396-4.618-13.396-12.05,0-5.829,3.52-12.054,13.396-12.054,9.628,0,13.186,5.914,13.357,11.613.015.089.06.168.067.258.108,1.65.893,16.305-4.779,21.98ZM497.371,282.117c0-4.256-2.612-6.411-7.753-6.411-5.216,0-7.753,2.1-7.753,6.411,0,4.252,2.608,6.408,7.753,6.408s7.753-2.152,7.753-6.408Z" fill="#ccc"/>
    <path d="M543.355,277.185v23.092c0,3.927-3.46,7.117-7.716,7.117h-11.321c-4.327,0-7.716-3.127-7.716-7.117v-23.092c0-3.926,3.46-7.117,7.716-7.117h11.321c4.256,0,7.716,3.191,7.716,7.117ZM537.713,277.185c0-.814-.93-1.479-2.074-1.479h-11.321c-1.188,0-2.074.78-2.074,1.479v23.092c0,.814.931,1.479,2.074,1.479h11.321c1.188,0,2.074-.78,2.074-1.479v-23.092Z" fill="#ccc"/>
  </g>
  <g>
    <path d="M364.003,334.586l.112,8.93c0,2.657-1.073,5.205-2.944,7.028-1.771,1.719-4.219,2.705-6.714,2.705h-6.8c-2.13,0-4.222-.713-5.885-2.018l-.609-.463c-2.388-1.805-3.763-4.589-3.763-7.626v-17.001c0-2.989,1.413-5.844,3.774-7.63l.628-.479c1.636-1.281,3.725-1.999,5.855-1.999h7.473c1.887,0,3.733.564,5.335,1.633l2.246,1.499c1.297.866,1.644,2.615.781,3.912-.863,1.3-2.612,1.644-3.912.78l-2.242-1.498c-.673-.448-1.435-.684-2.208-.684h-7.473c-.89,0-1.719.284-2.41.822l-.665.508c-.972.729-1.543,1.901-1.543,3.135v17.001c0,1.255.557,2.395,1.532,3.131l.646.493c.713.561,1.547.845,2.436.845h6.8c1.042,0,2.055-.407,2.78-1.11.796-.773,1.237-1.819,1.237-2.944l-.079-6.108h-6.445c-1.558,0-2.821-1.263-2.821-2.821s1.263-2.821,2.821-2.821h9.229c1.543,0,2.802,1.241,2.821,2.784l.007-.004Z" fill="#ccc"/>
    <path d="M455.245,347.685c1.476.093,2.653,1.289,2.653,2.787,0,1.558-1.263,2.82-2.821,2.82h-5.268c-1.558,0-2.821-1.263-2.821-2.82,0-1.487,1.159-2.668,2.616-2.78v-25.296c-.459-.213-.878-.522-1.177-.979-.855-1.3-.497-3.053.804-3.908l1.644-1.084c.071-.048.157-.052.231-.093.165-.09.333-.153.516-.21.19-.06.37-.101.564-.115.082-.008.153-.049.239-.049.094,0,.172.045.266.053.194.019.381.056.568.115.172.057.329.12.482.202.157.082.299.18.441.295.153.123.28.258.403.407.06.075.142.116.194.198.049.071.052.157.094.231.089.165.153.337.209.52.056.187.097.366.112.557.007.086.048.157.048.243v28.901l.004.004Z" fill="#ccc"/>
    <path d="M476.989,352.518v.078c0,1.558-1.263,2.821-2.821,2.821s-2.821-1.264-2.821-2.821,1.263-2.862,2.821-2.862,2.821,1.226,2.821,2.784Z" fill="#ccc"/>
    <path d="M540.491,323.076v23.091c0,3.927-3.46,7.118-7.716,7.118h-11.321c-4.327,0-7.716-3.128-7.716-7.118v-23.091c0-3.927,3.46-7.118,7.716-7.118h11.321c4.256,0,7.716,3.191,7.716,7.118ZM534.849,323.076c0-.814-.93-1.479-2.074-1.479h-11.321c-1.188,0-2.074.78-2.074,1.479v23.091c0,.814.931,1.479,2.074,1.479h11.321c1.188,0,2.074-.78,2.074-1.479v-23.091Z" fill="#ccc"/>
  </g>
  <g>
    <path d="M456.664,391.845c1.476.094,2.653,1.289,2.653,2.787,0,1.559-1.263,2.821-2.821,2.821h-5.268c-1.558,0-2.821-1.263-2.821-2.821,0-1.487,1.159-2.668,2.616-2.779v-25.296c-.459-.213-.878-.523-1.177-.979-.855-1.301-.497-3.053.804-3.909l1.644-1.083c.071-.049.157-.053.231-.094.165-.09.333-.153.516-.209.19-.06.37-.101.564-.116.082-.007.153-.048.239-.048.094,0,.172.044.266.052.194.019.381.057.568.116.172.056.329.119.482.201.157.083.299.18.441.296.153.123.28.258.403.407.06.074.142.115.194.197.049.071.052.157.094.232.089.164.153.336.209.52.056.187.097.365.112.557.007.086.048.156.048.242v28.901l.004.004Z" fill="#ccc"/>
    <path d="M478.408,396.678v.078c0,1.559-1.263,2.821-2.821,2.821s-2.821-1.263-2.821-2.821,1.263-2.861,2.821-2.861,2.821,1.226,2.821,2.783Z" fill="#ccc"/>
    <path d="M523.415,391.845c1.476.094,2.653,1.289,2.653,2.787,0,1.559-1.263,2.821-2.821,2.821h-5.268c-1.558,0-2.821-1.263-2.821-2.821,0-1.487,1.159-2.668,2.616-2.779v-25.296c-.459-.213-.878-.523-1.177-.979-.855-1.301-.497-3.053.804-3.909l1.644-1.083c.071-.049.157-.053.231-.094.165-.09.333-.153.516-.209.19-.06.37-.101.564-.116.082-.007.153-.048.239-.048.094,0,.172.044.266.052.194.019.381.057.568.116.172.056.329.119.482.201.157.083.299.18.441.296.153.123.28.258.403.407.06.074.142.115.194.197.049.071.052.157.094.232.089.164.153.336.209.52.056.187.097.365.112.557.007.086.048.156.048.242v28.901l.004.004Z" fill="#ccc"/>
  </g>
  <path d="M368.751,228.64l-13.431,16.416c-1.502,1.836-3.749,2.901-6.122,2.901h0c-2.098,0-4.11-.833-5.593-2.317l-.635-.635c-1.483-1.483-2.317-3.495-2.317-5.593v-.472c0-2.098.833-4.11,2.317-5.593l.635-.635c1.483-1.483,3.495-2.317,5.593-2.317h0c2.372,0,4.619,1.065,6.122,2.901l13.431,16.416" fill="none" stroke="#ccc" stroke-linecap="round" stroke-linejoin="round" stroke-width="6"/>
</svg>