<?xml version="1.0" encoding="UTF-8"?>
<svg xmlns="http://www.w3.org/2000/svg" width="2393.185" height="2385.391" viewBox="0 0 2393.185 2385.391">
  <g id="d" data-name="HUD_PPLAR_PPLP_MULT_-_Dark_copy">
    <path id="e" data-name="FPMUncaged" d="M1219.549,1003.739c0,14.545-11.795,26.34-26.34,26.34s-26.34-11.795-26.34-26.34,11.795-26.34,26.34-26.34,26.34,11.795,26.34,26.34ZM1166.868,1003.739h-52.681M1219.549,1003.739h52.681M1193.208,977.398v-26.34" fill="none" stroke="#ccc" stroke-linecap="square" stroke-miterlimit="15.1" stroke-width="6"/>
    <path id="f" data-name="PotentialPath" d="M1312.458,956.022l-29.807,17.21,29.807,17.21" fill="none" stroke="#ccc" stroke-miterlimit="15.1" stroke-width="6"/>
    <g id="g" data-name="baro_alt_rect">
      <path id="h" data-name="rect7" d="M1645.354,1257.227v71.976h195.363v-71.976h-195.363Z" fill="none" stroke="#ccc" stroke-miterlimit="15.1" stroke-width="6"/>
    </g>
    <g id="i" data-name="airspeed_rect">
      <path id="j" data-name="rect8" d="M547.425,1255.814v73.628h195.015v-73.628h-195.015Z" fill="none" stroke="#ccc" stroke-miterlimit="15.1" stroke-width="6"/>
    </g>
    <g id="k" data-name="CompassMarker">
      <path id="l" data-name="path98" d="M1196.915,606.704h24.701l-24.701,49.402-24.701-49.402h24.701Z" fill="none" stroke="#ccc" stroke-miterlimit="10" stroke-width="6"/>
    </g>
    <rect id="m" data-name="CmdCue" x="1212.879" y="656.107" width="13.339" height="42.98" fill="none" stroke="#ccc" stroke-miterlimit="10" stroke-width="6"/>
    <line x1="751.339" y1="652.729" x2="751.339" y2="699.087" fill="none" stroke="#ccc" stroke-miterlimit="10" stroke-width="6"/>
    <line x1="1015.339" y1="652.729" x2="1015.339" y2="699.087" fill="none" stroke="#ccc" stroke-miterlimit="10" stroke-width="6"/>
    <line x1="1276.73" y1="652.729" x2="1276.73" y2="699.087" fill="none" stroke="#ccc" stroke-miterlimit="10" stroke-width="6"/>
    <line x1="1537.6" y1="652.729" x2="1537.6" y2="699.087" fill="none" stroke="#ccc" stroke-miterlimit="10" stroke-width="6"/>
    <line x1="880.73" y1="648.262" x2="880.73" y2="675.908" fill="none" stroke="#ccc" stroke-miterlimit="10" stroke-width="6"/>
    <line x1="1407.686" y1="652.729" x2="1407.686" y2="675.908" fill="none" stroke="#ccc" stroke-miterlimit="10" stroke-width="6"/>
    <path d="M534.94,1518.77l-13.431,16.416c-1.502,1.836-3.749,2.901-6.122,2.901h0c-2.098,0-4.11-.833-5.593-2.317l-.635-.635c-1.483-1.483-2.317-3.495-2.317-5.593v-.472c0-2.098.833-4.11,2.317-5.593l.635-.635c1.483-1.483,3.495-2.317,5.593-2.317h0c2.372,0,4.619,1.065,6.122,2.901l13.431,16.416" fill="none" stroke="#ccc" stroke-linecap="round" stroke-linejoin="round" stroke-width="6"/>
    <polygon points="1072.686 1248.52 1108.811 1185.949 1036.562 1185.949 1072.686 1248.52" fill="none" stroke="#ccc" stroke-linecap="square" stroke-miterlimit="15.1" stroke-width="6"/>
    <path id="n" data-name="LadderNegative" d="M961.991,1471.626l37.997-1.662h0l-37.997,1.662ZM1027.126,1468.785l37.992-1.662M1125.362,1420.28l-.125,44.788-32.977.88M1424.288,1470.219l-37.997-1.662h0l37.997,1.662ZM1321.162,1465.715l37.992,1.662M1260.917,1418.873l.125,44.788,32.977.88M964.925,1455.382s13.061-1.179,14.87-1.63c1.809-.451,3.673-1.527,4.976-2.95,1.304-1.423,2.179-3.977,2.043-7.074-.081-2.309.206-4.058-1.635-6.003-1.679-1.766-3.33-1.956-5.205-1.967l-15.869.69-.81-15.484,21.036-.907M932.48,1437.236l17.287-.761M1128.606,2891.773l.723-43.778-.723,43.778ZM966.756,2920.301l37.449-6.639-37.449,6.639ZM1030.95,2908.924l37.449-6.639-37.449,6.639ZM1095.145,2897.548l33.293-5.775-33.293,5.775ZM1255.832,2890.371l-.723-43.778.723,43.778ZM1380.233,2912.26l37.449,6.639-37.449-6.639ZM1316.039,2900.883l37.449,6.639-37.449-6.639ZM1256.001,2890.371l33.293,5.775-33.293-5.775ZM932.708,2891.528l17.037-3.01M989.633,2901.601l-22.688,4.004,14.424-19.037c4.553-5.987,5.053-13.099-1.679-16.445-1.722-.853-3.982-1.168-6.682-.69-3.276.576-7.747,1.793-10.067,6.753M995.512,2869.71l4.373,24.774c.451,2.543,3.173,4.189,6.085,3.678l12.148-2.146c2.912-.516,4.906-2.993,4.46-5.536l-4.373-24.774c-.451-2.543-3.173-4.189-6.085-3.678l-12.148,2.146c-2.912.516-4.906,2.993-4.46,5.536ZM1124.863,3365.87l.435-45.011-.435,45.011ZM964.604,3401.01l37.144-8.16-37.144,8.16ZM1028.283,3387.02l37.144-8.16-37.144,8.16ZM1091.956,3373.025l32.738-7.655-32.738,7.655ZM1250.421,3364.468l-.435-45.011.435,45.011ZM1373.535,3391.442l37.144,8.16-37.144-8.16ZM1309.856,3377.447l37.144,8.16-37.144-8.16ZM1250.584,3363.963l32.738,7.655-32.738-7.655ZM930.426,3373.72l16.891-3.749M988.02,3381.174l-22.492,4.987,13.582-19.651c4.287-6.177,4.477-13.305-2.396-16.358-1.755-.777-4.031-.994-6.704-.397-3.249.723-7.66,2.13-9.763,7.182M999.19,3378.855s12.702-3.444,14.408-4.205,3.363-2.146,4.401-3.781c1.038-1.635,1.461-4.308.788-7.345-.484-2.265-.505-4.047-2.662-5.645-1.967-1.456-3.635-1.353-5.487-1.038l-15.565,3.45-3.499-15.158,20.629-4.564M1126.411,3795.864l-1.478,43.99,1.478-43.99ZM965.349,3882.344l36.737-9.839-36.737,9.839ZM1028.326,3865.48l36.737-9.839-36.737,9.839ZM1091.304,3848.617l33.629-9.1-33.629,9.1ZM1247.145,3838.452l-1.478-43.99,1.478,43.99ZM1369.993,3871.103l36.737,9.839-36.737-9.839ZM1307.015,3854.239l36.737,9.839-36.737-9.839ZM1247.145,3838.115l33.629,9.1-33.629-9.1ZM930.66,3857.054l16.711-4.482M965.398,3865.219l1.592.288c2.059.418,8.557-.027,10.583-.57l2.477-.663c1.804-.483,3.406-1.543,4.558-3.01h0c1.679-2.14,2.255-4.944,1.548-7.573l-.75-2.798c-.473-1.771-1.635-3.281-3.222-4.2l-.587-.337c-1.423-.82-3.118-1.043-4.705-.619l-5.862,1.57,8.415-18.657-18.081,4.846M991.703,3829.933l6.514,24.301c.668,2.494,3.526,3.895,6.384,3.135l11.914-3.195c2.858-.766,4.629-3.406,3.961-5.905l-6.514-24.301c-.668-2.494-3.526-3.895-6.384-3.135l-11.914,3.195c-2.858.766-4.629,3.406-3.961,5.905ZM1126.4,4269.782l-.766,45.223.766-45.223ZM968.57,4364.677l36.253-11.49-36.253,11.49ZM1030.717,4344.978l36.253-11.49-36.253,11.49ZM1092.863,4325.278l32.434-10.605-32.434,10.605ZM1246.748,4268.38l.766,45.223-.766-45.223ZM1368.319,4351.785l36.253,11.49-36.253-11.49ZM1306.178,4332.08l36.253,11.49-36.253-11.49ZM1247.846,4313.266l32.434,10.605-32.434-10.605ZM932.578,4340.686l16.5-5.205M967.603,4347.314l1.603.223c2.075.331,8.546-.402,10.551-1.032l2.445-.772c1.782-.56,3.336-1.689,4.422-3.206h0c1.586-2.211,2.037-5.036,1.217-7.633l-.869-2.76c-.554-1.749-1.777-3.211-3.406-4.058l-.598-.31c-1.461-.761-3.162-.907-4.727-.413l-5.791,1.825,7.595-19.004-17.852,5.628M1001.618,4339.61s12.354-4.537,13.99-5.444,3.162-2.429,4.058-4.151,1.081-4.417.147-7.383c-.679-2.217-.853-3.988-3.146-5.389-2.086-1.277-3.738-1.032-5.558-.554l-15.201,4.792-4.808-14.799,20.156-6.34M1123.76,4775.504l.641-43.827-.641,43.827ZM968.869,4831.69l35.732-13.017-35.732,13.017ZM1030.125,4809.377l35.732-13.017-35.732,13.017ZM1091.385,4787.065l32.374-11.898-32.374,11.898ZM1244.298,4774.097l-.641-43.827.641,43.827ZM1363.457,4817.271l35.732,13.017-35.732-13.017ZM1302.202,4794.959l35.732,13.017-35.732-13.017ZM1244.298,4773.765l32.374,11.898-32.374-11.898ZM932.822,4807.786l16.26-5.922M987.031,4808.834l-11.822-32.472h0l-3.091,1.124-8.627,23.062,20.297-7.389M989.476,4775.824l8.606,23.638c.886,2.429,3.852,3.575,6.628,2.564l11.588-4.221c2.776-1.01,4.314-3.797,3.428-6.226l-8.606-23.638c-.886-2.429-3.852-3.575-6.628-2.564l-11.588,4.221c-2.776,1.01-4.314,3.797-3.428,6.226ZM1122.956,5202.775l-.473,44.354.473-44.354ZM969.885,5309.689l35.178-14.451-35.178,14.451ZM1030.19,5284.915l35.178-14.451-35.178,14.451ZM1090.494,5260.146l31.989-13.354-31.989,13.354ZM1242.212,5201.374l.473,44.354-.473-44.354ZM1360.105,5293.836l35.178,14.451-35.178-14.451ZM1299.8,5269.062l35.178,14.451-35.178-14.451ZM1242.685,5245.391l31.989,13.354-31.989-13.354ZM932.779,5289.044l15.983-6.623M987.276,5287.631l-13.229-31.923h0l-3.037,1.26-7.617,23.416,19.955-8.269M999.95,5282.481s11.909-5.596,13.457-6.644c1.548-1.049,2.939-2.695,3.678-4.487.739-1.793.69-4.493-.5-7.372-.869-2.146-1.201-3.895-3.602-5.096-2.189-1.092-3.814-.701-5.585-.071l-14.728,6.101-6.079-14.321,19.526-8.073M1123.928,5729.055l.473-46.087-.473,46.087ZM974.34,5798.395l34.499-16.005-34.499,16.005ZM1033.477,5770.959l34.499-16.005-34.499,16.005ZM1123.928,5728.719l-31.31,14.799,31.31-14.799ZM1243.657,5681.561l.473,46.087-.473-46.087ZM1359.225,5780.983l34.499,16.005-34.499-16.005ZM1300.083,5753.547l34.499,16.005-34.499-16.005ZM1275.439,5742.116l-31.31-14.799,31.31,14.799ZM935.859,5778.179l15.983-6.628M972.471,5784.21s11.909-5.596,13.457-6.644,2.939-2.695,3.678-4.487.69-4.493-.5-7.372c-.869-2.146-1.201-3.895-3.602-5.096-2.189-1.092-3.814-.701-5.585-.071l-14.728,6.101-6.079-14.321,19.526-8.073M992.241,5743.528l9.632,23.242c.989,2.385,4.004,3.406,6.737,2.271l11.393-4.721c2.733-1.13,4.145-3.982,3.156-6.373l-9.632-23.242c-.989-2.385-4.004-3.406-6.737-2.271l-11.393,4.721c-2.733,1.13-4.145,3.982-3.156,6.373ZM1125.096,6202.822l.934-45.565-.934,45.565ZM978.735,6278.338l33.749-17.526-33.749,17.526ZM1036.595,6248.289l33.749-17.526-33.749,17.526ZM1094.449,6218.245l30.647-15.755-30.647,15.755ZM1247.308,6201.414l-.934-45.565.934,45.565ZM1359.92,6259.405l33.749,17.526-33.749-17.526ZM1335.809,6246.882l-33.749-17.526,33.749,17.526ZM1277.955,6216.838l-30.647-15.755,30.647,15.755ZM939.765,6259.932l15.679-7.318M976.747,6264.484s11.653-6.112,13.158-7.22c1.505-1.108,2.814-2.825,3.477-4.645s.494-4.52-.82-7.34c-.962-2.108-1.369-3.841-3.825-4.933-2.233-.994-3.841-.533-5.585.174l-14.446,6.737-6.699-14.044,19.151-8.921M1007.497,6250.049s11.653-6.112,13.158-7.22,2.814-2.825,3.477-4.645.494-4.52-.82-7.34c-.962-2.108-1.369-3.841-3.825-4.933-2.233-.994-3.841-.533-5.585.174l-14.446,6.737-6.699-14.044,19.151-8.921M1128.008,6679.163l.723-45.549-.723,45.549ZM985.168,6761.481l32.912-19.059-32.912,19.059ZM1041.582,6728.808l32.912-19.059-32.912,19.059ZM1097.997,6696.141l30.179-17.478-30.179,17.478ZM1250.888,6677.761l-.723-45.549.723,45.549ZM1360.822,6741.021l32.912,19.059-32.912-19.059ZM1304.407,6708.348l32.912,19.059-32.912-19.059ZM1250.725,6677.256l30.179,17.478-30.179-17.478ZM958.677,6737.56l-15.348,7.991M990.367,6743.325c6.813-3.547,8.372-9.448,5.802-14.386-3.325-6.384-9.85-6.237-15.114-3.493-5.264,2.744-8.644,7.747-5.319,14.137,2.57,4.939,7.818,7.291,14.631,3.743h0ZM975.198,6712.26c-.619,1.929-1.239,3.836-1.565,8.214-.538,7.177.277,15.582,1.733,18.39M996.946,6705.909l11.621,22.313c1.195,2.293,4.287,3.043,6.911,1.679l10.936-5.693c2.624-1.364,3.781-4.33,2.586-6.623l-11.621-22.313c-1.195-2.293-4.287-3.043-6.911-1.679l-10.936,5.693c-2.624,1.364-3.781,4.33-2.586,6.623ZM1126.563,7107.901l-1.059,46.532,1.059-46.532ZM985.999,7242.158l32.108-20.378-32.108,20.378ZM1041.039,7207.225l32.108-20.378-32.108,20.378ZM1125.335,7154.102l-29.25,18.189,29.25-18.189ZM1249.052,7153.032l-1.059-46.532,1.059,46.532ZM1388.557,7240.757l-32.108-20.378,32.108,20.378ZM1301.408,7185.445l32.108,20.378-32.108-20.378ZM1249.22,7152.695l29.25,18.189-29.25-18.189ZM943.221,7227.234l14.984-8.655M1010.066,7211.316s11.078-7.101,12.479-8.34c1.402-1.239,2.559-3.059,3.059-4.927.5-1.869.098-4.547-1.456-7.242-1.141-2.015-1.701-3.705-4.238-4.58-2.309-.798-3.874-.196-5.547.657l-13.805,7.97-7.899-13.403,18.303-10.556M990.095,7222.996c6.65-3.841,7.954-9.807,5.172-14.625-3.602-6.237-10.11-5.802-15.25-2.83-5.139,2.972-8.301,8.117-4.699,14.353,2.782,4.819,8.133,6.943,14.783,3.102h-.005ZM973.585,7192.627c-.532,1.956-1.07,3.884-1.206,8.274-.228,7.198.956,15.554,2.537,18.292M1125.504,7635.056l.516-46.348-.516,46.348ZM989.65,7729.262l31.163-21.802-31.163,21.802ZM1043.071,7691.889l31.163-21.802-31.163,21.802h0ZM1096.487,7654.516l29.017-19.96-29.017,19.96ZM1249.052,7633.649l-.516-46.348.516,46.348ZM1353.743,7706.058l31.163,21.802-31.163-21.802ZM1300.327,7668.685l31.163,21.802-31.163-21.802ZM1249.052,7633.149l29.017,19.96-29.017-19.96ZM948.773,7714.213l14.593-9.301M985.782,7713.517l1.032-41.246-16.999,10.833M998.5,7669.962l13.517,21.221c1.391,2.179,4.536,2.657,7.03,1.07l10.404-6.628c2.494-1.586,3.39-4.645,1.999-6.824l-13.517-21.221c-1.391-2.179-4.536-2.657-7.03-1.07l-10.404,6.628c-2.494,1.586-3.39,4.645-1.999,6.824ZM1122.831,8102.303l.473-45.826-.473,45.826ZM991.149,8202.788l30.212-23.1-30.212,23.1ZM1042.935,8163.189l30.212-23.106-30.212,23.106ZM1094.721,8123.583l27.604-21.112-27.604,21.112ZM1247.379,8100.901l-.473-45.826.473,45.826ZM1348.853,8178.286l30.212,23.1-30.212-23.1ZM1327.274,8161.787l-30.212-23.106,30.212,23.106ZM1247.884,8101.064l27.604,21.112-27.604-21.112ZM951.528,8190.456l14.169-9.926M1016.863,8168.757s10.415-8.041,11.702-9.399c1.288-1.358,2.282-3.271,2.619-5.178.337-1.907-.299-4.536-2.086-7.084-1.315-1.907-2.016-3.547-4.623-4.194-2.374-.592-3.874.141-5.465,1.141l-13.061,9.143-9.035-12.664,17.314-12.11M988.514,8188.316l-.766-41.252-16.51,11.567M1128.676,8579.915l.598-44.804-.598,44.804ZM1001.499,8687.556l29.098-24.486-29.098,24.486ZM1051.383,8645.582l29.098-24.486-29.098,24.486ZM1101.268,8603.608l27.577-23.692-27.577,23.692ZM1254.566,8578.508l-.598-44.804.598,44.804ZM1352.651,8661.663l29.098,24.486-29.098-24.486ZM1302.767,8619.694l29.098,24.486-29.098-24.486ZM1281.98,8602.201l-27.577-23.692,27.577,23.692ZM958.27,8678.174l13.723-10.534M977.334,8650.955l3.645,4.754c.799,1.043,2.043,1.679,3.45,1.771l2.162.141-.424,2.124c-.277,1.385.016,2.749.82,3.792l5.4,7.036c.793,1.032,2.026,1.668,3.423,1.755h0c1.396.092,2.847-.369,4.026-1.277l9.361-7.188c1.184-.907,1.999-2.189,2.276-3.559h0c.277-1.375-.016-2.727-.81-3.76l-5.4-7.036c-.799-1.043-2.043-1.679-3.45-1.771l-2.162-.141.424-2.124c.277-1.385-.016-2.749-.82-3.792l-3.645-4.754c-.793-1.032-2.026-1.668-3.423-1.755h0c-1.396-.092-2.847.369-4.026,1.277l-9.361,7.188c-1.184.907-1.999,2.189-2.276,3.559h0c-.277,1.375.016,2.727.81,3.76ZM986.591,8657.616l13.055-10.018M1004.308,8629.533l15.321,19.955c1.575,2.048,4.748,2.249,7.095.451l9.785-7.508c2.347-1.799,2.972-4.922,1.396-6.97l-15.321-19.955c-1.575-2.048-4.748-2.249-7.095-.451l-9.785,7.508c-2.347,1.799-2.972,4.922-1.396,6.97ZM1130.518,9052.345l.391-44.576-.391,44.576ZM1007.779,9165.511l28.05-25.687-28.05,25.687ZM1055.865,9121.489l28.05-25.687-28.05,25.687ZM1103.946,9077.461l26.903-25.116-26.903,25.116ZM1257.076,9050.937l-.391-44.576.391,44.576ZM1351.765,9138.423l28.05,25.687-28.05-25.687ZM1303.685,9094.4l28.05,25.687-28.05-25.687ZM1256.739,9050.937l26.903,25.116-26.903-25.116ZM975.709,9147.463l-13.251,11.126M1025.702,9131.371s9.676-8.921,10.839-10.382c1.163-1.462,1.988-3.455,2.157-5.384s-.695-4.493-2.695-6.878c-1.472-1.787-2.314-3.358-4.971-3.776-2.412-.38-3.846.478-5.346,1.614l-12.213,10.246-10.105-11.833,16.19-13.572M980.169,9130.762l3.852,4.585c.848,1.005,2.113,1.586,3.526,1.619l2.168.044-.331,2.141c-.217,1.396.136,2.744.983,3.754l5.705,6.791c.837.999,2.097,1.576,3.493,1.603h0c1.402.027,2.825-.494,3.971-1.45l9.04-7.59c1.141-.956,1.902-2.271,2.119-3.656h0c.212-1.385-.136-2.722-.972-3.722l-5.705-6.791c-.848-1.005-2.113-1.586-3.526-1.619l-2.168-.044.331-2.141c.217-1.396-.136-2.744-.983-3.754l-3.852-4.585c-.837-.999-2.097-1.576-3.493-1.603h0c-1.402-.027-2.825.494-3.971,1.45l-9.04,7.59c-1.141.956-1.902,2.271-2.119,3.656h0c-.212,1.385.136,2.722.972,3.722ZM989.71,9137.015l12.604-10.578M1119.69,9528.479c0,41.708,33.325,75.517,74.43,75.517s74.43-33.809,74.43-75.517-33.325-75.517-74.43-75.517-74.43,33.809-74.43,75.517ZM1188.144,9452.42h11.409v-16.299h-11.409v16.299ZM1145.768,9472.521h96.161-96.161ZM1128.383,9501.858h131.475-131.475ZM1122.95,9529.023h142.341-142.341ZM1128.383,9555.644h131.475-131.475ZM1141.422,9578.461h106.484-106.484Z" fill="none" stroke="#ccc" stroke-miterlimit="10" stroke-width="6"/>
    <path id="o" data-name="LadderPositive" d="M1136.997-6416.373l51.865,28.502-5.14,23.362-16.821,4.672-30.371-56.537h.467ZM1217.363-6390.674l5.14,29.437,8.41,1.869,28.969-57.004-42.052,25.699s-.467,0-.467,0ZM1257.079-6294.888l-12.616-26.166-22.428,2.803.935,7.943,34.109,15.419ZM1176.713-6317.783l-23.83-5.607-14.017,29.904,38.314-24.297s-.467,0-.467,0ZM1070.647-6340.683l113.074,22.428,17.288,282.685,20.559-283.152,122.886-17.755-121.017-22.428-19.157-102.795-18.223,98.589-115.41,22.895v-.467ZM1428.807-5913.389v-17.288h-144.847M1120.423-5931.612h-144.847v17.288M1428.046-5505.781v-17.288h-144.847M1119.662-5524.003h-144.847v17.288M1428.424-5099.532v-17.288h-144.847M1120.04-5117.754h-144.847v17.288M1427.662-4691.923v-17.288h-144.847M1119.279-4710.145h-144.847v17.288M1428.616-4283.632v-17.288h-144.847M1120.232-4301.854h-144.847v17.288M1427.854-3876.023v-17.288h-144.847M1119.47-3894.246h-144.847v17.288M1428.237-3469.774v-17.288h-144.847M1119.853-3487.997h-144.847v17.288M1427.476-3062.165v-17.288h-144.847M1119.092-3080.388h-144.847v17.288M1427.84-2653.673v-17.288h-144.847M1119.456-2671.896h-144.847v17.288M1427.078-2246.065v-17.288h-144.847M1118.694-2264.287h-144.847v17.288M1427.461-1839.816v-17.288h-144.847M1119.078-1858.039h-144.847v17.288M1426.695-1432.207v-17.288h-144.847M1118.311-1450.429h-144.847v17.288M1427.648-1023.92v-17.288h-144.847M1119.265-1042.143h-144.847v17.288M1426.887-616.307v-17.288h-144.847M1118.503-634.53h-144.847v17.288M1427.27-210.058v-17.288h-144.847M1118.886-228.281h-144.847v17.288M1427.812,610.397v-17.288h-144.847M1119.428,592.175h-144.847v17.288" fill="none" stroke="#ccc" stroke-linecap="square" stroke-miterlimit="15.1" stroke-width="6"/>
    <line x1="1106.348" y1="1016.609" x2="340.956" y2="1016.609" fill="none" stroke="#ccc" stroke-linecap="square" stroke-miterlimit="15.1" stroke-width="6"/>
    <line x1="1285.529" y1="1016.609" x2="2045.478" y2="1016.609" fill="none" stroke="#ccc" stroke-linecap="square" stroke-miterlimit="15.1" stroke-width="6"/>
    <line x1="1162.076" y1="652.729" x2="1162.076" y2="675.908" fill="none" stroke="#ccc" stroke-miterlimit="10" stroke-width="6"/>
    <polygon id="p" data-name="GGWTarget" points="1245.867 1289.577 1211.484 1349.162 1280.25 1349.162 1245.867 1289.577" fill="none" stroke="#ccc" stroke-linecap="square" stroke-miterlimit="15.1" stroke-width="7"/>
    <g id="q" data-name="GGWTargetWhiskers">
      <line id="r" data-name="line125" x1="1245.867" y1="1289.577" x2="1245.867" y2="1267.508" fill="none" stroke="#ccc" stroke-linecap="square" stroke-miterlimit="15.1" stroke-width="7"/>
      <line id="s" data-name="line126" x1="1280.25" y1="1349.162" x2="1299.406" y2="1360.197" fill="none" stroke="#ccc" stroke-linecap="square" stroke-miterlimit="15.1" stroke-width="7"/>
      <line id="t" data-name="line127" x1="1211.484" y1="1349.162" x2="1192.373" y2="1360.197" fill="none" stroke="#ccc" stroke-linecap="square" stroke-miterlimit="15.1" stroke-width="7"/>
    </g>
    <g>
      <path d="M754.071,718.041c1.959,1.958,3.04,4.559,3.04,7.315v2.997c0,3.833-1.824,7.471-4.875,9.738-2.064,1.562-4.584,2.397-7.26,2.397h-2.659c-2.418,0-9.607-1.342-12.148-2.617l-1.452-.684c-1.591-.751-2.271-2.651-1.52-4.242.751-1.596,2.646-2.267,4.242-1.52l1.52.717c1.41.705,7.492,1.976,9.362,1.976h2.659c1.275,0,2.461-.393,3.436-1.127,1.481-1.106,2.321-2.79,2.321-4.639v-2.997c0-1.056-.418-2.052-1.178-2.812l-.511-.511c-.608-.612-1.448-.962-2.3-.962h-6.29c-1.228,0-2.351-.709-2.878-1.823-.528-1.115-.367-2.427.414-3.381l9.168-11.219h-12.655c-1.76,0-3.187-1.427-3.187-3.187s1.427-3.187,3.187-3.187h19.375c1.228,0,2.351.709,2.878,1.824.528,1.11.367,2.427-.414,3.381l-9.177,11.228c2.385.105,4.694,1.123,6.391,2.82l.511.511v.004Z" fill="#ccc"/>
      <path d="M772.782,734.114c1.667.105,2.997,1.457,2.997,3.149,0,1.76-1.427,3.187-3.187,3.187h-5.952c-1.76,0-3.187-1.427-3.187-3.187,0-1.68,1.309-3.014,2.955-3.14v-28.577c-.519-.241-.992-.591-1.33-1.106-.966-1.469-.561-3.449.908-4.415l1.857-1.224c.08-.055.177-.059.262-.105.186-.102.375-.173.583-.236.215-.068.417-.114.637-.131.093-.009.173-.055.27-.055.105,0,.194.051.3.059.219.021.431.063.642.131.194.063.372.135.544.228.177.093.338.203.498.333.173.139.316.291.456.46.067.084.16.131.219.224.055.081.059.177.105.262.102.186.173.38.237.587.063.211.109.414.126.629.008.097.055.177.055.274v32.65l.004.004Z" fill="#ccc"/>
    </g>
    <g>
      <path d="M1009.12,718.056c1.959,1.958,3.04,4.559,3.04,7.315v2.997c0,3.833-1.824,7.471-4.875,9.738-2.064,1.562-4.584,2.397-7.26,2.397h-2.659c-2.418,0-9.607-1.342-12.148-2.617l-1.452-.684c-1.591-.751-2.271-2.651-1.52-4.242.751-1.596,2.646-2.267,4.242-1.52l1.52.717c1.41.705,7.492,1.976,9.362,1.976h2.659c1.275,0,2.461-.393,3.436-1.127,1.481-1.106,2.321-2.79,2.321-4.639v-2.997c0-1.056-.418-2.052-1.178-2.812l-.511-.511c-.608-.612-1.448-.962-2.3-.962h-6.29c-1.228,0-2.351-.709-2.878-1.823-.528-1.115-.367-2.427.414-3.381l9.168-11.219h-12.655c-1.76,0-3.187-1.427-3.187-3.187s1.427-3.187,3.187-3.187h19.375c1.228,0,2.351.709,2.878,1.824.528,1.11.367,2.427-.414,3.381l-9.177,11.228c2.385.105,4.694,1.123,6.391,2.82l.511.511v.004Z" fill="#ccc"/>
      <path d="M1045.538,734.075c1.76,0,3.187,1.427,3.187,3.187s-1.427,3.187-3.187,3.187h-23.849c-.439,0-.861-.093-1.241-.253-.025-.009-.042-.034-.067-.046-.367-.165-.697-.393-.971-.676-.013-.012-.029-.017-.042-.029-.114-.118-.161-.27-.249-.401-.139-.199-.292-.384-.38-.612-.089-.232-.11-.473-.144-.717-.025-.156-.093-.292-.093-.452,0-.017.008-.034.008-.051.004-.262.084-.511.152-.764.042-.147.046-.312.105-.452.055-.131.165-.236.241-.359.139-.232.274-.468.469-.658.013-.013.029-.042.029-.042l18.15-17.011c2.744-2.579,4.242-5.373,4.111-7.665-.088-1.604-.975-3.01-2.697-4.293-1.161-.857-2.815-1.313-4.765-1.313-3.761,0-6.703.642-8.856,3.77-.996,1.457-2.976,1.819-4.432.823-1.448-.996-1.815-2.98-.819-4.432,4.491-6.53,11.477-6.53,14.107-6.53,3.322,0,6.281.886,8.56,2.562,4.103,3.06,5.128,6.61,5.268,9.054.24,4.238-1.929,8.737-6.117,12.676l-12.274,11.506h15.791l.004-.008Z" fill="#ccc"/>
    </g>
    <g>
      <path d="M1264.411,718.056c1.959,1.958,3.039,4.559,3.039,7.315v2.997c0,3.833-1.823,7.471-4.875,9.738-2.064,1.562-4.584,2.397-7.261,2.397h-2.659c-2.418,0-9.606-1.342-12.147-2.617l-1.452-.684c-1.592-.751-2.271-2.651-1.52-4.242.751-1.596,2.646-2.267,4.242-1.52l1.52.717c1.409.705,7.492,1.976,9.362,1.976h2.659c1.274,0,2.461-.393,3.436-1.127,1.481-1.106,2.321-2.79,2.321-4.639v-2.997c0-1.056-.418-2.052-1.178-2.812l-.511-.511c-.607-.612-1.447-.962-2.3-.962h-6.29c-1.228,0-2.351-.709-2.878-1.823-.528-1.115-.367-2.427.413-3.381l9.168-11.219h-12.654c-1.76,0-3.187-1.427-3.187-3.187s1.427-3.187,3.187-3.187h19.375c1.228,0,2.351.709,2.878,1.824.528,1.11.367,2.427-.413,3.381l-9.177,11.228c2.385.105,4.693,1.123,6.391,2.82l.511.511v.004Z" fill="#ccc"/>
      <path d="M1300.976,718.056c1.959,1.958,3.039,4.559,3.039,7.315v2.997c0,3.833-1.823,7.471-4.875,9.738-2.064,1.562-4.584,2.397-7.261,2.397h-2.659c-2.418,0-9.606-1.342-12.147-2.617l-1.452-.684c-1.592-.751-2.271-2.651-1.52-4.242.751-1.596,2.646-2.267,4.242-1.52l1.52.717c1.409.705,7.492,1.976,9.362,1.976h2.659c1.274,0,2.461-.393,3.436-1.127,1.481-1.106,2.321-2.79,2.321-4.639v-2.997c0-1.056-.418-2.052-1.178-2.812l-.511-.511c-.607-.612-1.447-.962-2.3-.962h-6.29c-1.228,0-2.351-.709-2.878-1.823-.528-1.115-.367-2.427.413-3.381l9.168-11.219h-12.654c-1.76,0-3.187-1.427-3.187-3.187s1.427-3.187,3.187-3.187h19.375c1.228,0,2.351.709,2.878,1.824.528,1.11.367,2.427-.413,3.381l-9.177,11.228c2.385.105,4.693,1.123,6.391,2.82l.511.511v.004Z" fill="#ccc"/>
    </g>
    <g>
      <path d="M1532.14,718.056c1.959,1.958,3.039,4.559,3.039,7.315v2.997c0,3.833-1.823,7.471-4.875,9.738-2.064,1.562-4.584,2.397-7.261,2.397h-2.659c-2.418,0-9.606-1.342-12.147-2.617l-1.452-.684c-1.592-.751-2.271-2.651-1.52-4.242.751-1.596,2.646-2.267,4.242-1.52l1.52.717c1.409.705,7.492,1.976,9.362,1.976h2.659c1.274,0,2.461-.393,3.436-1.127,1.481-1.106,2.321-2.79,2.321-4.639v-2.997c0-1.056-.418-2.052-1.178-2.812l-.511-.511c-.607-.612-1.447-.962-2.3-.962h-6.29c-1.228,0-2.351-.709-2.878-1.823-.528-1.115-.367-2.427.413-3.381l9.168-11.219h-12.654c-1.761,0-3.187-1.427-3.187-3.187s1.426-3.187,3.187-3.187h19.374c1.229,0,2.352.709,2.879,1.824.528,1.11.367,2.427-.413,3.381l-9.177,11.228c2.385.105,4.693,1.123,6.391,2.82l.511.511v.004Z" fill="#ccc"/>
      <path d="M1567.864,717.765c1.385.35,2.406,1.6,2.406,3.09s-1.021,2.739-2.406,3.09v13.33c0,1.76-1.427,3.187-3.187,3.187s-3.188-1.427-3.188-3.187v-13.237h-16.778c-1.245,0-2.377-.718-2.896-1.849-.523-1.131-.338-2.46.469-3.406l16.546-19.375c.604-.709,1.49-1.119,2.423-1.119h3.419c1.761,0,3.188,1.427,3.188,3.187v16.28l.004.009ZM1561.486,706.111l-9.864,11.553h9.864v-11.553Z" fill="#ccc"/>
    </g>
    <g>
      <path d="M620.432,1291.449c1.959,1.959,3.04,4.559,3.04,7.315v2.997c0,3.832-1.824,7.471-4.875,9.738-2.064,1.561-4.584,2.396-7.26,2.396h-2.659c-2.418,0-9.607-1.342-12.148-2.617l-1.452-.684c-1.591-.751-2.271-2.65-1.52-4.242.751-1.596,2.646-2.267,4.242-1.52l1.52.718c1.41.705,7.492,1.976,9.362,1.976h2.659c1.275,0,2.461-.393,3.436-1.127,1.481-1.105,2.321-2.79,2.321-4.639v-2.997c0-1.056-.418-2.052-1.178-2.812l-.511-.511c-.608-.612-1.448-.962-2.3-.962h-6.29c-1.228,0-2.351-.709-2.878-1.824-.528-1.114-.367-2.427.414-3.381l9.168-11.219h-12.655c-1.76,0-3.187-1.427-3.187-3.187s1.427-3.187,3.187-3.187h19.375c1.228,0,2.351.709,2.878,1.824.528,1.11.367,2.427-.414,3.381l-9.177,11.229c2.385.105,4.694,1.122,6.391,2.819l.511.511v.004Z" fill="#ccc"/>
      <path d="M659.659,1273.366c.553,1.039.494,2.296-.156,3.271l-23.849,35.799c-.616.92-1.625,1.418-2.655,1.418-.608,0-1.224-.173-1.764-.536-1.465-.975-1.862-2.95-.887-4.42l20.548-30.842h-14.9c-1.76,0-3.187-1.427-3.187-3.187s1.427-3.187,3.187-3.187h20.852c1.178,0,2.258.646,2.811,1.68v.004Z" fill="#ccc"/>
      <path d="M696.224,1273.366c.553,1.039.494,2.296-.156,3.271l-23.849,35.799c-.616.92-1.625,1.418-2.655,1.418-.608,0-1.224-.173-1.764-.536-1.465-.975-1.862-2.95-.887-4.42l20.548-30.842h-14.9c-1.76,0-3.187-1.427-3.187-3.187s1.427-3.187,3.187-3.187h20.852c1.178,0,2.258.646,2.811,1.68v.004Z" fill="#ccc"/>
    </g>
    <g>
      <path d="M603.529,1213.706c2.347,2.731,2.284,5.327,2.229,7.416l-.017.958c0,3.9-1.232,7.366-3.381,9.518-1.841,1.836-4.373,3.183-6.948,3.698-1.984.397-12.722.924-15.968,1.072h-.152c-1.692,0-3.103-1.334-3.183-3.039-.08-1.756,1.275-3.246,3.035-3.331,6.517-.308,13.917-.747,15.019-.958,1.333-.271,2.748-1.018,3.689-1.958.701-.701,1.515-2.432,1.515-5.011l.017-1.119c.042-1.769.025-2.262-.684-3.089-.802-.925-1.465-1.102-3.04-1.169h-16.369c-1.751,0-3.174-1.41-3.187-3.162l-.127-16.086c-.004-.853.325-1.667.924-2.271.6-.604,1.414-.941,2.263-.941h21.865c1.76,0,3.187,1.426,3.187,3.187s-1.427,3.187-3.187,3.187h-18.652l.076,9.712h13.343c2.655.114,5.314.595,7.729,3.381l.004.004Z" fill="#ccc"/>
      <path d="M638.443,1213.714c1.385.35,2.406,1.6,2.406,3.09s-1.021,2.739-2.406,3.09v13.33c0,1.76-1.427,3.187-3.187,3.187s-3.187-1.427-3.187-3.187v-13.237h-16.779c-1.245,0-2.376-.718-2.896-1.849-.523-1.131-.338-2.46.469-3.406l16.546-19.375c.604-.709,1.49-1.119,2.423-1.119h3.419c1.76,0,3.187,1.427,3.187,3.187v16.28l.004.009ZM632.065,1202.06l-9.864,11.553h9.864v-11.553Z" fill="#ccc"/>
      <path d="M661.984,1209.143c9.202,0,15.386,5.47,15.386,13.613,0,8.02-6.327,13.617-15.386,13.617s-14.837-5.344-14.837-13.617c0-.194.046-.363.051-.553-.008-.088-.051-.16-.051-.249,0-4.381,3.913-13.305,7.695-19.408,2.533-4.094,4.217-5.774,5.699-7.256,1.245-1.245,3.322-1.305,4.567-.059,1.245,1.245,1.304,3.208.059,4.449l-.118.118c-1.359,1.355-2.638,2.638-4.787,6.104-.747,1.199-1.422,2.415-2.06,3.622,1.194-.228,2.439-.384,3.782-.384v.004ZM670.996,1222.751c0-6.534-6.302-7.239-9.012-7.239-3.862,0-8.463,1.258-8.463,7.239,0,4.673,3.005,7.243,8.463,7.243,5.559,0,9.012-2.773,9.012-7.243Z" fill="#ccc"/>
      <path d="M713.765,1215.282l.127,10.088c0,3.001-1.211,5.88-3.326,7.939-2.001,1.942-4.766,3.056-7.585,3.056h-7.682c-2.406,0-4.77-.806-6.648-2.279l-.688-.523c-2.697-2.039-4.25-5.183-4.25-8.615v-19.206c0-3.377,1.596-6.602,4.263-8.619l.709-.541c1.849-1.448,4.208-2.258,6.614-2.258h8.442c2.132,0,4.217.637,6.028,1.845l2.537,1.692c1.465.979,1.857,2.955.882,4.419-.975,1.469-2.951,1.857-4.419.882l-2.533-1.692c-.76-.507-1.621-.772-2.495-.772h-8.442c-1.005,0-1.942.321-2.723.928l-.751.574c-1.097.823-1.743,2.148-1.743,3.542v19.206c0,1.418.629,2.706,1.73,3.538l.73.557c.806.633,1.748.954,2.752.954h7.682c1.178,0,2.322-.46,3.141-1.253.899-.874,1.397-2.056,1.397-3.326l-.089-6.901h-7.281c-1.76,0-3.187-1.427-3.187-3.187s1.427-3.187,3.187-3.187h10.426c1.744,0,3.166,1.401,3.187,3.145l.008-.004Z" fill="#ccc"/>
    </g>
    <g>
      <path d="M1690.68,1307.468c1.76,0,3.187,1.427,3.187,3.188s-1.427,3.187-3.187,3.187h-23.85c-.438,0-.86-.093-1.24-.253-.025-.009-.043-.034-.067-.047-.367-.165-.697-.393-.972-.676-.013-.012-.029-.017-.042-.029-.114-.118-.16-.27-.249-.4-.139-.199-.291-.385-.38-.612-.089-.232-.109-.473-.144-.718-.025-.156-.093-.291-.093-.451,0-.018.009-.034.009-.051.004-.262.084-.511.151-.765.043-.147.047-.312.105-.451.056-.131.165-.236.241-.359.139-.231.274-.468.469-.658.013-.013.029-.042.029-.042l18.15-17.011c2.743-2.579,4.242-5.373,4.111-7.665-.089-1.604-.976-3.01-2.697-4.293-1.161-.857-2.815-1.313-4.766-1.313-3.761,0-6.703.642-8.855,3.77-.996,1.457-2.977,1.819-4.433.823-1.447-.996-1.814-2.979-.818-4.432,4.491-6.53,11.477-6.53,14.106-6.53,3.322,0,6.281.887,8.561,2.562,4.103,3.06,5.128,6.609,5.268,9.054.24,4.238-1.929,8.737-6.116,12.676l-12.274,11.507h15.79l.005-.009Z" fill="#ccc"/>
      <path d="M1715.045,1286.587c9.202,0,15.386,5.47,15.386,13.612,0,8.021-6.327,13.617-15.386,13.617s-14.837-5.344-14.837-13.617c0-.194.046-.363.051-.553-.009-.089-.051-.16-.051-.249,0-4.382,3.913-13.305,7.694-19.408,2.533-4.095,4.217-5.774,5.699-7.256,1.245-1.245,3.321-1.305,4.566-.06s1.305,3.208.06,4.449l-.118.118c-1.359,1.354-2.639,2.638-4.787,6.104-.747,1.199-1.422,2.414-2.06,3.622,1.194-.229,2.439-.385,3.782-.385v.005ZM1724.057,1300.195c0-6.534-6.302-7.239-9.012-7.239-3.862,0-8.463,1.258-8.463,7.239,0,4.673,3.005,7.243,8.463,7.243,5.559,0,9.012-2.773,9.012-7.243Z" fill="#ccc"/>
      <path d="M1746.101,1307.522c1.668.105,2.997,1.457,2.997,3.149,0,1.76-1.427,3.187-3.187,3.187h-5.952c-1.76,0-3.187-1.427-3.187-3.187,0-1.68,1.309-3.014,2.954-3.141v-28.576c-.519-.241-.991-.591-1.329-1.106-.967-1.469-.562-3.448.907-4.415l1.857-1.224c.08-.056.178-.06.262-.105.186-.102.376-.174.583-.236.215-.068.417-.114.637-.131.093-.009.173-.056.271-.056.105,0,.194.051.3.06.219.021.431.063.642.131.194.063.371.135.544.228.178.093.338.203.498.334.174.139.316.291.456.46.067.084.16.131.22.224.055.08.059.177.105.262.102.186.173.38.236.587.063.211.109.413.127.629.008.097.055.177.055.274v32.649l.004.004Z" fill="#ccc"/>
      <path d="M1780.334,1309.925c-3.744,3.739-13.013,3.93-14.832,3.93-1.761,0-3.188-1.427-3.188-3.183s1.423-3.191,3.183-3.191c3.913-.004,9.118-.853,10.329-2.063,1.562-1.562,2.512-4.774,3.052-8.341-2.292,1.169-5.069,1.836-8.312,1.836-9.332,0-15.132-5.218-15.132-13.613,0-6.585,3.976-13.617,15.132-13.617,10.878,0,14.896,6.683,15.091,13.119.017.102.067.19.076.291.122,1.866,1.009,18.421-5.399,24.833ZM1779.321,1285.295c0-4.808-2.95-7.243-8.759-7.243-5.893,0-8.759,2.372-8.759,7.243,0,4.804,2.946,7.239,8.759,7.239s8.759-2.432,8.759-7.239Z" fill="#ccc"/>
      <path d="M1822.411,1279.723v26.087c0,4.436-3.908,8.041-8.716,8.041h-12.79c-4.888,0-8.717-3.533-8.717-8.041v-26.087c0-4.436,3.909-8.041,8.717-8.041h12.79c4.808,0,8.716,3.605,8.716,8.041ZM1816.038,1279.723c0-.92-1.052-1.671-2.343-1.671h-12.79c-1.343,0-2.343.882-2.343,1.671v26.087c0,.92,1.051,1.671,2.343,1.671h12.79c1.342,0,2.343-.882,2.343-1.671v-26.087Z" fill="#ccc"/>
    </g>
    <g>
      <path d="M645.206,1530.183c2.078,2.417,2.021,4.716,1.973,6.565l-.015.848c0,3.452-1.091,6.52-2.993,8.426-1.629,1.625-3.871,2.816-6.15,3.273-1.756.351-11.262.818-14.135.948h-.135c-1.498,0-2.746-1.181-2.817-2.69-.071-1.555,1.128-2.873,2.687-2.947,5.769-.273,12.319-.662,13.294-.849,1.181-.239,2.433-.9,3.266-1.733.62-.621,1.341-2.152,1.341-4.436l.015-.99c.037-1.565.022-2.002-.605-2.734-.71-.818-1.296-.976-2.69-1.035h-14.49c-1.55,0-2.81-1.248-2.821-2.799l-.112-14.24c-.003-.754.288-1.475.818-2.01.531-.534,1.252-.833,2.003-.833h19.354c1.558,0,2.821,1.263,2.821,2.821s-1.263,2.82-2.821,2.82h-16.511l.067,8.598h11.811c2.35.102,4.704.527,6.841,2.993l.003.004Z" fill="#ccc"/>
      <path d="M666.276,1549.51v.078c0,1.558-1.263,2.82-2.821,2.82s-2.821-1.263-2.821-2.82,1.263-2.862,2.821-2.862,2.821,1.226,2.821,2.784Z" fill="#ccc"/>
      <path d="M703.048,1530.189c1.226.311,2.13,1.416,2.13,2.735s-.904,2.425-2.13,2.735v11.799c0,1.559-1.263,2.822-2.821,2.822s-2.821-1.264-2.821-2.822v-11.717h-14.853c-1.102,0-2.104-.635-2.563-1.637-.463-1.001-.299-2.178.415-3.016l14.647-17.149c.534-.628,1.319-.99,2.145-.99h3.027c1.558,0,2.821,1.263,2.821,2.821v14.411l.004.007ZM697.402,1519.873l-8.732,10.227h8.732v-10.227Z" fill="#ccc"/>
    </g>
    <g>
      <path d="M529.186,1560.408c1.162.378,1.947,1.461,1.947,2.683v31.61c0,1.559-1.263,2.821-2.821,2.821s-2.821-1.263-2.821-2.821v-22.956l-5.474,7.506c-.531.729-1.379,1.158-2.279,1.158s-1.749-.434-2.279-1.162l-5.437-7.48v22.935c0,1.559-1.263,2.821-2.821,2.821s-2.821-1.263-2.821-2.821v-31.61c0-1.222.785-2.302,1.947-2.683,1.162-.377,2.433.037,3.154,1.023l8.257,11.366,8.291-11.366c.717-.989,1.992-1.4,3.154-1.02l.003-.004Z" fill="#ccc"/>
      <path d="M609.866,1567.315v23.091c0,3.927-3.46,7.118-7.716,7.118h-11.321c-4.327,0-7.716-3.128-7.716-7.118v-23.091c0-3.927,3.46-7.118,7.716-7.118h11.321c4.256,0,7.716,3.191,7.716,7.118ZM604.224,1567.315c0-.814-.93-1.479-2.074-1.479h-11.321c-1.188,0-2.074.78-2.074,1.479v23.091c0,.814.931,1.479,2.074,1.479h11.321c1.188,0,2.074-.78,2.074-1.479v-23.091Z" fill="#ccc"/>
      <path d="M628.962,1596.757v.078c0,1.558-1.263,2.821-2.821,2.821s-2.821-1.264-2.821-2.821,1.263-2.862,2.821-2.862,2.821,1.226,2.821,2.784Z" fill="#ccc"/>
      <path d="M664.457,1594.05c-3.314,3.31-11.52,3.479-13.13,3.479-1.558,0-2.821-1.264-2.821-2.817s1.259-2.825,2.817-2.825c3.464-.004,8.071-.755,9.143-1.827,1.382-1.382,2.223-4.226,2.702-7.383-2.029,1.035-4.488,1.625-7.357,1.625-8.262,0-13.396-4.618-13.396-12.05,0-5.829,3.52-12.054,13.396-12.054,9.628,0,13.186,5.915,13.357,11.613.015.089.06.168.067.258.108,1.651.893,16.306-4.779,21.981ZM663.56,1572.247c0-4.256-2.612-6.411-7.753-6.411-5.216,0-7.753,2.1-7.753,6.411,0,4.252,2.608,6.408,7.753,6.408s7.753-2.152,7.753-6.408Z" fill="#ccc"/>
      <path d="M709.544,1567.315v23.091c0,3.927-3.46,7.118-7.716,7.118h-11.321c-4.327,0-7.716-3.128-7.716-7.118v-23.091c0-3.927,3.46-7.118,7.716-7.118h11.321c4.256,0,7.716,3.191,7.716,7.118ZM703.902,1567.315c0-.814-.93-1.479-2.074-1.479h-11.321c-1.188,0-2.074.78-2.074,1.479v23.091c0,.814.931,1.479,2.074,1.479h11.321c1.188,0,2.074-.78,2.074-1.479v-23.091Z" fill="#ccc"/>
    </g>
    <g>
      <path d="M530.192,1624.716l.112,8.931c0,2.656-1.073,5.205-2.944,7.027-1.771,1.719-4.219,2.705-6.714,2.705h-6.8c-2.13,0-4.222-.713-5.885-2.018l-.609-.463c-2.388-1.805-3.763-4.588-3.763-7.626v-17.001c0-2.988,1.413-5.844,3.774-7.629l.628-.479c1.636-1.281,3.725-2,5.855-2h7.473c1.887,0,3.733.564,5.335,1.633l2.246,1.499c1.297.866,1.644,2.615.781,3.912-.863,1.3-2.612,1.644-3.912.78l-2.242-1.498c-.673-.448-1.435-.684-2.208-.684h-7.473c-.89,0-1.719.284-2.41.822l-.665.508c-.972.729-1.543,1.902-1.543,3.135v17.001c0,1.255.557,2.396,1.532,3.132l.646.492c.713.561,1.547.845,2.436.845h6.8c1.042,0,2.055-.407,2.78-1.11.796-.773,1.237-1.818,1.237-2.943l-.079-6.109h-6.445c-1.558,0-2.821-1.263-2.821-2.82s1.263-2.822,2.821-2.822h9.229c1.543,0,2.802,1.241,2.821,2.784l.007-.004Z" fill="#ccc"/>
      <path d="M621.434,1637.814c1.476.094,2.653,1.289,2.653,2.787,0,1.559-1.263,2.82-2.821,2.82h-5.268c-1.558,0-2.821-1.262-2.821-2.82,0-1.487,1.159-2.668,2.616-2.779v-25.297c-.459-.213-.878-.522-1.177-.979-.855-1.3-.497-3.053.804-3.908l1.644-1.084c.071-.048.157-.052.231-.093.165-.09.333-.153.516-.21.19-.059.37-.1.564-.115.082-.008.153-.049.239-.049.094,0,.172.045.266.053.194.019.381.057.568.115.172.057.329.12.482.202.157.083.299.18.441.296.153.123.28.258.403.406.06.075.142.116.194.198.049.071.052.157.094.231.089.165.153.337.209.52.056.188.097.366.112.557.007.086.048.157.048.243v28.901l.004.004Z" fill="#ccc"/>
      <path d="M643.179,1642.647v.078c0,1.558-1.263,2.821-2.821,2.821s-2.821-1.264-2.821-2.821,1.263-2.862,2.821-2.862,2.821,1.227,2.821,2.784Z" fill="#ccc"/>
      <path d="M706.68,1613.206v23.091c0,3.928-3.46,7.118-7.716,7.118h-11.321c-4.327,0-7.716-3.128-7.716-7.118v-23.091c0-3.927,3.46-7.118,7.716-7.118h11.321c4.256,0,7.716,3.191,7.716,7.118ZM701.038,1613.206c0-.814-.93-1.479-2.074-1.479h-11.321c-1.188,0-2.074.781-2.074,1.479v23.091c0,.814.931,1.48,2.074,1.48h11.321c1.188,0,2.074-.781,2.074-1.48v-23.091Z" fill="#ccc"/>
    </g>
    <g>
      <path d="M622.853,1681.975c1.476.094,2.653,1.289,2.653,2.787,0,1.559-1.263,2.821-2.821,2.821h-5.268c-1.558,0-2.821-1.263-2.821-2.821,0-1.486,1.159-2.668,2.616-2.779v-25.296c-.459-.213-.878-.522-1.177-.979-.855-1.3-.497-3.053.804-3.909l1.644-1.083c.071-.048.157-.052.231-.093.165-.09.333-.154.516-.21.19-.06.37-.101.564-.116.082-.007.153-.048.239-.048.094,0,.172.044.266.052.194.02.381.057.568.116.172.056.329.12.482.202.157.082.299.18.441.295.153.123.28.258.403.407.06.075.142.116.194.198.049.07.052.156.094.231.089.165.153.337.209.52.056.187.097.366.112.557.007.086.048.157.048.243v28.9l.004.004Z" fill="#ccc"/>
      <path d="M644.598,1686.809v.078c0,1.558-1.263,2.82-2.821,2.82s-2.821-1.263-2.821-2.82,1.263-2.862,2.821-2.862,2.821,1.226,2.821,2.784Z" fill="#ccc"/>
      <path d="M689.604,1681.975c1.476.094,2.653,1.289,2.653,2.787,0,1.559-1.263,2.821-2.821,2.821h-5.268c-1.558,0-2.821-1.263-2.821-2.821,0-1.486,1.159-2.668,2.616-2.779v-25.296c-.459-.213-.878-.522-1.177-.979-.855-1.3-.497-3.053.804-3.909l1.644-1.083c.071-.048.157-.052.231-.093.165-.09.333-.154.516-.21.19-.06.37-.101.564-.116.082-.007.153-.048.239-.048.094,0,.172.044.266.052.194.02.381.057.568.116.172.056.329.12.482.202.157.082.299.18.441.295.153.123.28.258.403.407.06.075.142.116.194.198.049.07.052.156.094.231.089.165.153.337.209.52.056.187.097.366.112.557.007.086.048.157.048.243v28.9l.004.004Z" fill="#ccc"/>
    </g>
    <g>
      <path d="M737.643,1731.709c1.392,0,2.519,1.127,2.519,2.519s-1.127,2.519-2.519,2.519h-6.889v25.707c0,1.391-1.128,2.519-2.519,2.519s-2.519-1.128-2.519-2.519v-25.707h-6.89c-1.391,0-2.519-1.127-2.519-2.519s1.127-2.519,2.519-2.519h18.817Z" fill="#ccc"/>
      <path d="M769.007,1734.228v23.521c0,.668-.264,1.309-.737,1.779l-4.701,4.703c-.98.988-2.569.984-3.556.01l-2.93-2.908-2.929,2.908c-.49.488-1.134.731-1.775.731s-1.291-.247-1.781-.737l-4.705-4.704c-.474-.471-.737-1.114-.737-1.782v-23.521c0-1.392,1.128-2.519,2.519-2.519s2.519,1.127,2.519,2.519v22.477l2.192,2.192,2.179-2.166v-6.021c0-1.392,1.127-2.52,2.519-2.52s2.519,1.128,2.519,2.52v6.021l2.179,2.166,2.188-2.192v-22.477c0-1.392,1.128-2.519,2.519-2.519s2.519,1.127,2.519,2.519Z" fill="#ccc"/>
      <path d="M795.388,1748.394c1.615,1.618,2.505,3.763,2.505,6.052v1.535c0,2.655-1.271,5.201-3.403,6.812l-.754.541c-1.451,1.066-3.263,1.671-5.071,1.671h-5.572c-1.675,0-3.306-.49-4.718-1.418l-2.015-1.338c-1.161-.774-1.471-2.335-.704-3.493.774-1.161,2.335-1.468,3.493-.703l2.005,1.33c.567.377,1.261.584,1.942.584h5.571c.741,0,1.488-.25,2.109-.711l.73-.523c.824-.62,1.348-1.668,1.348-2.752v-1.535c0-.94-.37-1.821-1.034-2.488-.664-.668-1.548-1.035-2.485-1.035h-6.773c-2.285,0-4.437-.891-6.052-2.502-1.615-1.621-2.506-3.77-2.506-6.052v-2.069c0-2.285.891-4.434,2.506-6.051,1.615-1.615,3.763-2.506,6.052-2.506h6.272c1.698,0,3.336.49,4.734,1.421l2.001,1.338c1.158.771,1.468,2.339.697,3.493-.771,1.154-2.329,1.479-3.493.693l-2.001-1.334c-.567-.377-1.238-.577-1.938-.577h-6.272c-.94,0-1.828.367-2.489,1.03-.667.668-1.034,1.555-1.034,2.492v2.069c0,.938.37,1.825,1.034,2.492.661.664,1.548,1.027,2.489,1.027h6.773c2.282,0,4.431.892,6.049,2.506h.003Z" fill="#ccc"/>
      <path d="M825.293,1739.672c.984,1.195,1.535,2.713,1.535,4.264v18.518c0,1.391-1.128,2.519-2.519,2.519s-2.519-1.128-2.519-2.519v-11.594h-13.846v11.594c0,1.391-1.127,2.519-2.519,2.519s-2.519-1.128-2.519-2.519v-18.518c0-1.521.523-2.982,1.511-4.233l4.23-5.168c3.013-3.606,9.455-3.587,12.428-.017l4.22,5.154h-.003ZM807.951,1745.818h13.849v-1.886c0-.387-.137-.754-.391-1.061l-4.214-5.147c-1.011-1.212-3.616-1.232-4.657.02l-4.187,5.121c-.357.443-.4.827-.4,1.07v1.883Z" fill="#ccc"/>
    </g>
    <g>
      <path d="M737.642,1778.839c1.392,0,2.519,1.128,2.519,2.52s-1.127,2.519-2.519,2.519h-6.889v25.706c0,1.392-1.128,2.52-2.519,2.52s-2.519-1.128-2.519-2.52v-25.706h-6.89c-1.391,0-2.519-1.128-2.519-2.519s1.127-2.52,2.519-2.52h18.817Z" fill="#ccc"/>
      <path d="M768.91,1795.404l.1,7.974c0,2.372-.958,4.647-2.629,6.275-1.581,1.535-3.767,2.415-5.995,2.415h-6.072c-1.901,0-3.77-.637-5.254-1.801l-.544-.414c-2.132-1.611-3.36-4.097-3.36-6.81v-15.18c0-2.67,1.261-5.219,3.37-6.813l.561-.427c1.461-1.145,3.327-1.785,5.228-1.785h6.673c1.685,0,3.333.504,4.764,1.458l2.005,1.338c1.157.774,1.468,2.336.697,3.493-.771,1.161-2.333,1.468-3.493.697l-2.002-1.338c-.601-.4-1.281-.61-1.972-.61h-6.673c-.794,0-1.535.254-2.152.734l-.594.453c-.868.65-1.378,1.698-1.378,2.8v15.18c0,1.121.497,2.139,1.368,2.796l.577.44c.638.501,1.381.754,2.175.754h6.072c.931,0,1.835-.363,2.482-.991.71-.69,1.104-1.624,1.104-2.629l-.07-5.454h-5.755c-1.391,0-2.519-1.128-2.519-2.52s1.127-2.519,2.519-2.519h8.241c1.378,0,2.502,1.107,2.519,2.485l.007-.003Z" fill="#ccc"/>
      <path d="M795.342,1778.839c1.392,0,2.519,1.128,2.519,2.52s-1.127,2.519-2.519,2.519h-6.889v25.706c0,1.392-1.128,2.52-2.519,2.52s-2.519-1.128-2.519-2.52v-25.706h-6.89c-1.391,0-2.519-1.128-2.519-2.519s1.127-2.52,2.519-2.52h18.817Z" fill="#ccc"/>
    </g>
    <g>
      <path d="M491.757,1740.192c1.392,0,2.519,1.128,2.519,2.519s-1.127,2.52-2.519,2.52h-6.889v25.706c0,1.391-1.128,2.519-2.519,2.519s-2.519-1.128-2.519-2.519v-25.706h-6.89c-1.391,0-2.519-1.128-2.519-2.52s1.127-2.519,2.519-2.519h18.817Z" fill="#ccc"/>
      <path d="M519.248,1766.516c1.174-.744,2.729-.407,3.48.768.75,1.174.407,2.729-.768,3.479l-1.935,1.234c-1.595.984-3.356,1.495-5.125,1.495h-6.172c-2.102,0-4.157-.697-5.785-1.969-2.292-1.752-3.673-4.558-3.673-7.49v-14.35c0-2.933,1.378-5.738,3.69-7.503,1.611-1.255,3.667-1.952,5.769-1.952h6.172c1.842,0,3.62.521,5.142,1.505l1.921,1.225c1.171.751,1.515,2.306.768,3.479-.751,1.168-2.306,1.515-3.48.768l-1.935-1.234c-.717-.467-1.548-.707-2.416-.707h-6.172c-.984,0-1.942.32-2.689.904-1.091.834-1.731,2.145-1.731,3.516v14.35c0,1.371.641,2.683,1.715,3.503.768.595,1.725.918,2.709.918h6.172c.834,0,1.678-.25,2.446-.728l1.905-1.214-.007.003Z" fill="#ccc"/>
      <path d="M551.974,1742.711v28.226c0,1.11-.728,2.088-1.789,2.412-.244.07-.487.106-.73.106-.828,0-1.618-.407-2.095-1.121l-14.203-21.302v19.904c0,1.391-1.128,2.519-2.519,2.519s-2.519-1.128-2.519-2.519v-28.226c0-1.111.728-2.089,1.789-2.412,1.054-.32,2.208.09,2.826,1.015l14.203,21.302v-19.904c0-1.391,1.128-2.519,2.519-2.519s2.519,1.128,2.519,2.519Z" fill="#ccc"/>
      <path d="M633.651,1755.748c1.548,1.548,2.402,3.603,2.402,5.781v2.369c0,3.029-1.441,5.905-3.854,7.697-1.631,1.234-3.623,1.895-5.738,1.895h-2.102c-1.912,0-7.593-1.061-9.602-2.068l-1.147-.54c-1.258-.595-1.795-2.096-1.201-3.354.594-1.261,2.092-1.792,3.353-1.201l1.201.567c1.114.557,5.922,1.562,7.4,1.562h2.102c1.007,0,1.945-.311,2.716-.891,1.171-.874,1.835-2.206,1.835-3.667v-2.369c0-.834-.331-1.621-.931-2.222l-.404-.403c-.48-.484-1.144-.761-1.818-.761h-4.971c-.971,0-1.858-.561-2.275-1.441s-.291-1.919.327-2.673l7.247-8.867h-10.002c-1.392,0-2.519-1.128-2.519-2.52s1.127-2.519,2.519-2.519h15.313c.971,0,1.858.561,2.275,1.441.417.877.29,1.918-.327,2.672l-7.253,8.875c1.885.083,3.71.888,5.051,2.229l.403.403v.004Z" fill="#ccc"/>
      <path d="M662.842,1755.511c1.855,2.159,1.805,4.211,1.762,5.862l-.014.757c0,3.083-.974,5.822-2.672,7.523-1.455,1.451-3.457,2.516-5.492,2.923-1.568.313-10.056.73-12.621.848h-.12c-1.338,0-2.452-1.055-2.516-2.402-.063-1.388,1.008-2.565,2.399-2.633,5.151-.243,11-.59,11.871-.757,1.054-.214,2.172-.804,2.916-1.548.554-.554,1.198-1.922,1.198-3.961l.013-.884c.033-1.397.02-1.788-.541-2.442-.634-.73-1.158-.87-2.402-.924h-12.938c-1.385,0-2.509-1.114-2.519-2.499l-.1-12.715c-.003-.674.257-1.317.731-1.795.474-.477,1.118-.744,1.788-.744h17.282c1.391,0,2.519,1.128,2.519,2.52s-1.128,2.519-2.519,2.519h-14.743l.06,7.677h10.546c2.099.091,4.201.471,6.109,2.673l.003.003Z" fill="#ccc"/>
      <path d="M674.653,1772.768v.07c0,1.392-1.128,2.52-2.519,2.52s-2.519-1.128-2.519-2.52,1.128-2.556,2.519-2.556,2.519,1.095,2.519,2.485Z" fill="#ccc"/>
      <path d="M701.034,1768.409c1.391,0,2.519,1.128,2.519,2.519s-1.127,2.52-2.519,2.52h-18.85c-.347,0-.681-.073-.981-.2-.02-.007-.034-.027-.054-.037-.29-.13-.55-.311-.767-.533-.01-.011-.023-.014-.033-.023-.09-.094-.127-.214-.197-.317-.11-.157-.23-.304-.3-.483-.07-.184-.086-.374-.113-.567-.02-.124-.073-.23-.073-.357,0-.013.006-.026.006-.04.003-.206.067-.403.12-.604.034-.117.037-.247.083-.357.043-.103.13-.187.19-.283.11-.184.217-.37.37-.521.01-.01.023-.033.023-.033l14.346-13.445c2.168-2.039,3.353-4.247,3.25-6.059-.07-1.269-.771-2.379-2.132-3.394-.917-.677-2.226-1.037-3.767-1.037-2.973,0-5.298.507-7,2.979-.788,1.15-2.353,1.438-3.503.65-1.145-.787-1.435-2.355-.647-3.503,3.55-5.162,9.071-5.162,11.15-5.162,2.625,0,4.964.701,6.766,2.025,3.243,2.419,4.053,5.225,4.164,7.156.19,3.35-1.525,6.906-4.834,10.02l-9.702,9.095h12.481l.003-.007Z" fill="#ccc"/>
    </g>
    <g>
      <path d="M429.705,1801.629c1.675,1.558,2.723,3.779,2.723,6.242v3.336c0,4.681-3.81,8.49-8.491,8.49h-12.845c-1.391,0-2.519-1.127-2.519-2.519v-28.226c0-1.391,1.128-2.519,2.519-2.519h12.578c2.562,0,4.924,1.274,6.315,3.413.804,1.182,1.241,2.639,1.241,4.178v3.169c0,1.839-.611,3.31-1.525,4.435h.003ZM413.614,1791.479v7.874h10.519c.581-.111,2.059-.548,2.059-2.156v-3.169c0-.534-.137-.997-.4-1.388-.494-.758-1.258-1.168-2.122-1.168h-10.059l.003.007ZM427.39,1807.874c0-1.788-1.354-3.267-3.089-3.466-.133.013-.267.013-.397.013h-10.292v10.242h10.326c1.905,0,3.453-1.552,3.453-3.452v-3.337Z" fill="#ccc"/>
      <path d="M459.811,1794.365c.984,1.194,1.535,2.713,1.535,4.264v18.517c0,1.392-1.128,2.519-2.519,2.519s-2.519-1.127-2.519-2.519v-11.594h-13.846v11.594c0,1.392-1.127,2.519-2.519,2.519s-2.519-1.127-2.519-2.519v-18.517c0-1.521.523-2.982,1.511-4.234l4.23-5.168c3.013-3.605,9.455-3.586,12.428-.016l4.22,5.154h-.003ZM442.469,1800.511h13.849v-1.886c0-.387-.137-.754-.391-1.061l-4.214-5.147c-1.011-1.212-3.616-1.231-4.657.021l-4.187,5.121c-.357.443-.4.826-.4,1.07v1.882Z" fill="#ccc"/>
      <path d="M556.803,1801.957c1.548,1.548,2.402,3.604,2.402,5.781v2.369c0,3.029-1.441,5.906-3.854,7.697-1.631,1.234-3.623,1.895-5.738,1.895h-2.102c-1.912,0-7.593-1.061-9.602-2.068l-1.147-.54c-1.258-.595-1.795-2.095-1.201-3.353.594-1.262,2.092-1.793,3.353-1.201l1.201.566c1.114.557,5.922,1.562,7.4,1.562h2.102c1.007,0,1.945-.31,2.715-.891,1.171-.874,1.835-2.206,1.835-3.667v-2.369c0-.834-.331-1.621-.931-2.221l-.404-.404c-.48-.484-1.144-.761-1.818-.761h-4.971c-.971,0-1.858-.561-2.275-1.441s-.291-1.919.327-2.673l7.247-8.867h-10.002c-1.392,0-2.519-1.128-2.519-2.52s1.127-2.519,2.519-2.519h15.313c.971,0,1.858.561,2.275,1.441.417.878.29,1.919-.327,2.673l-7.253,8.874c1.885.083,3.71.888,5.051,2.229l.403.403v.004Z" fill="#ccc"/>
      <path d="M585.703,1801.957c1.548,1.548,2.402,3.604,2.402,5.781v2.369c0,3.029-1.441,5.906-3.854,7.697-1.631,1.234-3.623,1.895-5.738,1.895h-2.102c-1.912,0-7.593-1.061-9.602-2.068l-1.147-.54c-1.258-.595-1.795-2.095-1.201-3.353.594-1.262,2.092-1.793,3.353-1.201l1.201.566c1.114.557,5.922,1.562,7.4,1.562h2.102c1.007,0,1.945-.31,2.715-.891,1.171-.874,1.835-2.206,1.835-3.667v-2.369c0-.834-.331-1.621-.931-2.221l-.404-.404c-.48-.484-1.144-.761-1.818-.761h-4.971c-.971,0-1.858-.561-2.275-1.441s-.291-1.919.327-2.673l7.247-8.867h-10.002c-1.392,0-2.519-1.128-2.519-2.52s1.127-2.519,2.519-2.519h15.313c.971,0,1.858.561,2.275,1.441.417.878.29,1.919-.327,2.673l-7.253,8.874c1.885.083,3.71.888,5.051,2.229l.403.403v.004Z" fill="#ccc"/>
      <path d="M616.972,1797.764c0,1.457-.544,2.883-1.518,4.037.974,1.157,1.518,2.578,1.518,4.037v7.275c0,1.779-.797,3.504-2.189,4.729-1.308,1.157-3.049,1.795-4.901,1.795h-9.675c-1.812,0-3.597-.654-4.898-1.795-1.415-1.248-2.192-2.926-2.192-4.729v-7.275c0-1.459.544-2.883,1.518-4.037-.978-1.162-1.518-2.586-1.518-4.037v-4.904c0-1.779.797-3.504,2.189-4.729,1.311-1.16,3.053-1.798,4.901-1.798h9.675c1.818,0,3.603.653,4.901,1.795,1.415,1.251,2.189,2.929,2.189,4.728v4.908ZM611.934,1805.83c0-.333-.19-.688-.517-.977l-.617-.541h-11.517l-.621.544c-.32.286-.51.641-.51.974v7.277c0,.344.164.66.484.943.383.338.971.541,1.568.541h9.675c.611,0,1.185-.193,1.568-.537.307-.268.487-.621.487-.947v-7.277ZM598.159,1792.859v4.904c0,.334.19.69.521.987l.607.53h11.521l.624-.544c.317-.283.507-.64.507-.974v-4.904c0-.348-.164-.668-.487-.951-.38-.334-.967-.537-1.568-.537h-9.675c-.61,0-1.181.197-1.565.537h-.003c-.304.267-.484.621-.484.947l.003.004Z" fill="#ccc"/>
      <path d="M645.397,1794.485l-18.817,28.226c-.487.727-1.284,1.121-2.099,1.121-.48,0-.964-.137-1.395-.424-1.158-.774-1.468-2.336-.697-3.494l18.817-28.225c.774-1.154,2.332-1.465,3.493-.697,1.158.771,1.468,2.336.697,3.493Z" fill="#ccc"/>
      <path d="M672.302,1801.957c1.548,1.548,2.402,3.604,2.402,5.781v2.369c0,3.029-1.441,5.906-3.854,7.697-1.631,1.234-3.623,1.895-5.738,1.895h-2.102c-1.912,0-7.593-1.061-9.602-2.068l-1.147-.54c-1.258-.595-1.795-2.095-1.201-3.353.594-1.262,2.092-1.793,3.353-1.201l1.201.566c1.114.557,5.922,1.562,7.4,1.562h2.102c1.007,0,1.945-.31,2.716-.891,1.171-.874,1.835-2.206,1.835-3.667v-2.369c0-.834-.331-1.621-.931-2.221l-.404-.404c-.48-.484-1.144-.761-1.818-.761h-4.971c-.971,0-1.858-.561-2.275-1.441s-.291-1.919.327-2.673l7.247-8.867h-10.002c-1.392,0-2.519-1.128-2.519-2.52s1.127-2.519,2.519-2.519h15.313c.971,0,1.858.561,2.275,1.441.417.878.29,1.919-.327,2.673l-7.253,8.874c1.885.083,3.71.888,5.051,2.229l.403.403v.004Z" fill="#ccc"/>
      <path d="M700.538,1801.727c1.094.277,1.901,1.265,1.901,2.442s-.807,2.165-1.901,2.442v10.536c0,1.392-1.128,2.519-2.519,2.519s-2.519-1.127-2.519-2.519v-10.463h-13.262c-.984,0-1.878-.567-2.289-1.462-.414-.894-.267-1.944.37-2.691l13.079-15.314c.477-.561,1.178-.884,1.915-.884h2.702c1.392,0,2.519,1.128,2.519,2.519v12.869l.003.006ZM695.496,1792.516l-7.797,9.131h7.797v-9.131Z" fill="#ccc"/>
    </g>
    <g>
      <path d="M1710.477,1785.307c1.392,0,2.519,1.128,2.519,2.52s-1.127,2.519-2.519,2.519h-6.89v25.706c0,1.392-1.128,2.52-2.519,2.52s-2.52-1.128-2.52-2.52v-25.706h-6.89c-1.391,0-2.519-1.128-2.519-2.519s1.128-2.52,2.519-2.52h18.817Z" fill="#ccc"/>
      <path d="M1741.744,1801.872l.101,7.974c0,2.372-.958,4.647-2.63,6.275-1.581,1.535-3.767,2.415-5.995,2.415h-6.072c-1.901,0-3.77-.637-5.254-1.801l-.544-.414c-2.132-1.611-3.36-4.097-3.36-6.81v-15.18c0-2.67,1.262-5.219,3.37-6.813l.561-.427c1.461-1.145,3.326-1.785,5.228-1.785h6.673c1.685,0,3.333.504,4.765,1.458l2.005,1.338c1.157.774,1.468,2.336.697,3.493-.771,1.161-2.332,1.468-3.493.697l-2.002-1.338c-.601-.4-1.281-.61-1.972-.61h-6.673c-.794,0-1.534.254-2.151.734l-.594.453c-.868.65-1.378,1.698-1.378,2.8v15.18c0,1.121.497,2.139,1.367,2.796l.577.44c.638.501,1.382.754,2.176.754h6.072c.931,0,1.835-.363,2.482-.991.71-.69,1.104-1.624,1.104-2.629l-.069-5.454h-5.756c-1.391,0-2.519-1.128-2.519-2.52s1.128-2.519,2.519-2.519h8.241c1.378,0,2.502,1.107,2.519,2.485l.007-.003Z" fill="#ccc"/>
      <path d="M1768.177,1785.307c1.392,0,2.52,1.128,2.52,2.52s-1.128,2.519-2.52,2.519h-6.889v25.706c0,1.392-1.128,2.52-2.52,2.52s-2.519-1.128-2.519-2.52v-25.706h-6.89c-1.392,0-2.519-1.128-2.519-2.519s1.127-2.52,2.519-2.52h18.816Z" fill="#ccc"/>
    </g>
    <path d="M1726.586,1857.535c1.392,0,2.519,1.128,2.519,2.52s-1.127,2.519-2.519,2.519h-18.82c-.927,0-1.781-.511-2.222-1.328-.438-.821-.387-1.815.127-2.585l6.796-10.196h-1.164c-1.392,0-2.52-1.128-2.52-2.519s1.128-2.52,2.52-2.52h4.521l6.052-9.078h-14.109c-1.391,0-2.519-1.127-2.519-2.519s1.128-2.519,2.519-2.519h18.82c.928,0,1.781.51,2.222,1.327.438.817.388,1.812-.126,2.586l-6.8,10.199h1.164c1.392,0,2.52,1.128,2.52,2.519s-1.128,2.52-2.52,2.52h-4.523l-6.049,9.074h14.112Z" fill="#ccc"/>
    <g>
      <path d="M1649.14,1873.312c1.392,0,2.519,1.128,2.519,2.52s-1.127,2.519-2.519,2.519h-6.89v25.706c0,1.392-1.128,2.52-2.519,2.52s-2.52-1.128-2.52-2.52v-25.706h-6.89c-1.391,0-2.519-1.128-2.519-2.519s1.128-2.52,2.519-2.52h18.817Z" fill="#ccc"/>
      <path d="M1677.989,1873.312c1.392,0,2.519,1.128,2.519,2.52s-1.127,2.519-2.519,2.519h-6.89v25.706c0,1.392-1.128,2.52-2.519,2.52s-2.52-1.128-2.52-2.52v-25.706h-6.89c-1.391,0-2.519-1.128-2.519-2.519s1.128-2.52,2.519-2.52h18.817Z" fill="#ccc"/>
      <path d="M1709.257,1889.878l.1,7.974c0,2.372-.957,4.647-2.629,6.275-1.581,1.535-3.767,2.415-5.995,2.415h-6.072c-1.901,0-3.771-.637-5.255-1.801l-.544-.414c-2.132-1.611-3.359-4.097-3.359-6.81v-15.18c0-2.67,1.261-5.219,3.369-6.813l.561-.427c1.462-1.145,3.327-1.785,5.229-1.785h6.673c1.685,0,3.333.504,4.764,1.458l2.005,1.338c1.158.774,1.469,2.336.698,3.493-.771,1.161-2.333,1.468-3.493.697l-2.002-1.338c-.601-.4-1.281-.61-1.972-.61h-6.673c-.794,0-1.535.254-2.152.734l-.594.453c-.867.65-1.378,1.698-1.378,2.8v15.18c0,1.121.497,2.139,1.368,2.796l.577.44c.638.501,1.381.754,2.175.754h6.072c.931,0,1.835-.363,2.482-.991.711-.69,1.104-1.624,1.104-2.629l-.07-5.454h-5.755c-1.392,0-2.519-1.128-2.519-2.52s1.127-2.519,2.519-2.519h8.24c1.378,0,2.503,1.107,2.52,2.485l.007-.003Z" fill="#ccc"/>
    </g>
    <g>
      <path d="M1649.071,1945.537c1.392,0,2.52,1.129,2.52,2.52s-1.128,2.52-2.52,2.52h-18.85c-1.392,0-2.52-1.129-2.52-2.52v-28.225c0-1.392,1.128-2.52,2.52-2.52h18.85c1.392,0,2.52,1.128,2.52,2.52s-1.128,2.519-2.52,2.519h-16.331v9.078h12.795c1.392,0,2.519,1.128,2.519,2.519s-1.127,2.52-2.519,2.52h-12.795v9.074h16.331v-.004Z" fill="#ccc"/>
      <path d="M1677.939,1917.316c1.392,0,2.519,1.127,2.519,2.519s-1.127,2.519-2.519,2.519h-6.89v25.707c0,1.391-1.128,2.519-2.519,2.519s-2.52-1.128-2.52-2.519v-25.707h-6.89c-1.391,0-2.519-1.127-2.519-2.519s1.128-2.519,2.519-2.519h18.817Z" fill="#ccc"/>
      <path d="M1707.84,1925.279c.984,1.195,1.535,2.713,1.535,4.264v18.518c0,1.391-1.128,2.519-2.52,2.519s-2.519-1.128-2.519-2.519v-11.594h-13.846v11.594c0,1.391-1.128,2.519-2.52,2.519s-2.519-1.128-2.519-2.519v-18.518c0-1.521.523-2.982,1.512-4.233l4.23-5.168c3.013-3.606,9.455-3.587,12.428-.017l4.22,5.154h-.003ZM1690.498,1931.426h13.849v-1.886c0-.387-.137-.754-.391-1.061l-4.214-5.147c-1.011-1.212-3.616-1.232-4.657.02l-4.187,5.121c-.357.443-.4.827-.4,1.07v1.883Z" fill="#ccc"/>
    </g>
    <g>
      <path d="M1754.81,1879.971v20.618c0,3.507-3.089,6.355-6.889,6.355h-10.109c-3.863,0-6.89-2.792-6.89-6.355v-20.618c0-3.507,3.09-6.355,6.89-6.355h10.109c3.8,0,6.889,2.849,6.889,6.355ZM1749.773,1879.971c0-.728-.831-1.321-1.852-1.321h-10.109c-1.061,0-1.852.697-1.852,1.321v20.618c0,.728.831,1.321,1.852,1.321h10.109c1.061,0,1.852-.697,1.852-1.321v-20.618Z" fill="#ccc"/>
      <path d="M1783.71,1879.971v20.618c0,3.507-3.089,6.355-6.889,6.355h-10.109c-3.863,0-6.89-2.792-6.89-6.355v-20.618c0-3.507,3.09-6.355,6.89-6.355h10.109c3.8,0,6.889,2.849,6.889,6.355ZM1778.673,1879.971c0-.728-.831-1.321-1.852-1.321h-10.109c-1.061,0-1.852.697-1.852,1.321v20.618c0,.728.831,1.321,1.852,1.321h10.109c1.061,0,1.852-.697,1.852-1.321v-20.618Z" fill="#ccc"/>
      <path d="M1807.559,1887.445v.033c0,1.392-1.128,2.52-2.519,2.52s-2.52-1.128-2.52-2.52,1.128-2.535,2.52-2.535,2.519,1.111,2.519,2.502ZM1807.559,1900.357v.033c0,1.391-1.128,2.519-2.519,2.519s-2.52-1.128-2.52-2.519,1.128-2.536,2.52-2.536,2.519,1.111,2.519,2.503Z" fill="#ccc"/>
      <path d="M1850.257,1879.971v20.618c0,3.507-3.089,6.355-6.889,6.355h-10.109c-3.863,0-6.89-2.792-6.89-6.355v-20.618c0-3.507,3.09-6.355,6.89-6.355h10.109c3.8,0,6.889,2.849,6.889,6.355ZM1845.22,1879.971c0-.728-.831-1.321-1.852-1.321h-10.109c-1.061,0-1.852.697-1.852,1.321v20.618c0,.728.831,1.321,1.852,1.321h10.109c1.061,0,1.852-.697,1.852-1.321v-20.618Z" fill="#ccc"/>
      <path d="M1876.754,1889.239c1.548,1.548,2.402,3.603,2.402,5.781v2.369c0,3.029-1.441,5.905-3.854,7.696-1.632,1.234-3.624,1.896-5.739,1.896h-2.102c-1.912,0-7.594-1.062-9.602-2.068l-1.148-.541c-1.257-.594-1.795-2.095-1.2-3.353.594-1.262,2.092-1.792,3.353-1.201l1.201.567c1.114.557,5.922,1.562,7.399,1.562h2.103c1.008,0,1.945-.311,2.716-.892,1.171-.874,1.835-2.205,1.835-3.666v-2.369c0-.834-.33-1.621-.931-2.222l-.404-.404c-.48-.483-1.145-.761-1.818-.761h-4.971c-.971,0-1.858-.56-2.275-1.44s-.29-1.919.327-2.673l7.246-8.868h-10.002c-1.392,0-2.52-1.127-2.52-2.519s1.128-2.519,2.52-2.519h15.313c.971,0,1.858.561,2.275,1.44.417.878.29,1.919-.327,2.673l-7.253,8.875c1.885.083,3.71.887,5.051,2.229l.404.403v.004Z" fill="#ccc"/>
      <path d="M1903.006,1887.445v.033c0,1.392-1.128,2.52-2.519,2.52s-2.52-1.128-2.52-2.52,1.128-2.535,2.52-2.535,2.519,1.111,2.519,2.502ZM1903.006,1900.357v.033c0,1.391-1.128,2.519-2.519,2.519s-2.52-1.128-2.52-2.519,1.128-2.536,2.52-2.536,2.519,1.111,2.519,2.503Z" fill="#ccc"/>
      <path d="M1942.638,1889.009c1.094.276,1.901,1.265,1.901,2.442s-.808,2.165-1.901,2.441v10.536c0,1.392-1.128,2.52-2.519,2.52s-2.52-1.128-2.52-2.52v-10.462h-13.262c-.984,0-1.878-.567-2.289-1.462-.413-.894-.267-1.945.371-2.692l13.078-15.313c.477-.561,1.178-.884,1.915-.884h2.702c1.392,0,2.52,1.127,2.52,2.519v12.868l.003.007ZM1937.597,1879.797l-7.797,9.132h7.797v-9.132Z" fill="#ccc"/>
      <path d="M1970.885,1901.9c1.392,0,2.52,1.127,2.52,2.519s-1.128,2.519-2.52,2.519h-18.85c-.348,0-.681-.073-.981-.2-.02-.006-.033-.026-.053-.036-.291-.13-.551-.311-.768-.534-.01-.01-.023-.013-.033-.023-.09-.093-.127-.213-.197-.316-.11-.157-.23-.304-.3-.484-.07-.183-.087-.373-.113-.566-.021-.124-.074-.23-.074-.357,0-.014.007-.026.007-.04.004-.207.067-.403.12-.604.033-.117.037-.247.084-.357.043-.104.13-.187.189-.283.11-.184.217-.37.371-.521.01-.01.023-.033.023-.033l14.346-13.445c2.169-2.039,3.353-4.247,3.25-6.06-.07-1.268-.771-2.378-2.133-3.393-.917-.678-2.225-1.037-3.767-1.037-2.973,0-5.298.507-6.999,2.979-.787,1.151-2.353,1.438-3.503.651-1.145-.788-1.435-2.355-.647-3.504,3.55-5.161,9.071-5.161,11.149-5.161,2.626,0,4.965.701,6.767,2.025,3.242,2.419,4.054,5.225,4.163,7.156.19,3.35-1.524,6.906-4.834,10.019l-9.702,9.096h12.481l.003-.007Z" fill="#ccc"/>
    </g>
    <g>
      <path d="M1754.398,1923.604v20.618c0,3.507-3.089,6.355-6.889,6.355h-10.109c-3.863,0-6.89-2.792-6.89-6.355v-20.618c0-3.507,3.09-6.355,6.89-6.355h10.109c3.8,0,6.889,2.849,6.889,6.355ZM1749.361,1923.604c0-.728-.831-1.321-1.852-1.321h-10.109c-1.061,0-1.852.697-1.852,1.321v20.618c0,.728.831,1.321,1.852,1.321h10.109c1.061,0,1.852-.697,1.852-1.321v-20.618Z" fill="#ccc"/>
      <path d="M1780.779,1945.533c1.392,0,2.52,1.127,2.52,2.519s-1.128,2.519-2.52,2.519h-18.85c-.348,0-.681-.073-.981-.2-.02-.006-.033-.026-.053-.036-.291-.13-.551-.311-.768-.534-.01-.01-.023-.013-.033-.023-.09-.093-.127-.213-.197-.316-.11-.157-.23-.304-.3-.484-.07-.183-.087-.373-.113-.566-.021-.124-.074-.23-.074-.357,0-.014.007-.026.007-.04.004-.207.067-.403.12-.604.033-.117.037-.247.084-.357.043-.104.13-.187.189-.283.11-.184.217-.37.371-.521.01-.01.022-.033.022-.033l14.347-13.445c2.169-2.039,3.353-4.247,3.25-6.06-.07-1.268-.771-2.378-2.133-3.393-.917-.678-2.225-1.037-3.767-1.037-2.973,0-5.298.507-6.999,2.979-.787,1.151-2.353,1.438-3.503.651-1.145-.788-1.435-2.355-.647-3.504,3.55-5.161,9.071-5.161,11.149-5.161,2.626,0,4.965.701,6.767,2.025,3.243,2.419,4.054,5.225,4.163,7.156.19,3.35-1.524,6.906-4.834,10.019l-9.702,9.096h12.481l.003-.007Z" fill="#ccc"/>
      <path d="M1807.146,1931.078v.033c0,1.392-1.128,2.52-2.519,2.52s-2.52-1.128-2.52-2.52,1.128-2.535,2.52-2.535,2.519,1.111,2.519,2.502ZM1807.146,1943.99v.033c0,1.391-1.128,2.519-2.519,2.519s-2.52-1.128-2.52-2.519,1.128-2.536,2.52-2.536,2.519,1.111,2.519,2.503Z" fill="#ccc"/>
      <path d="M1849.846,1923.604v20.618c0,3.507-3.089,6.355-6.889,6.355h-10.109c-3.863,0-6.89-2.792-6.89-6.355v-20.618c0-3.507,3.09-6.355,6.89-6.355h10.109c3.8,0,6.889,2.849,6.889,6.355ZM1844.809,1923.604c0-.728-.831-1.321-1.852-1.321h-10.109c-1.061,0-1.852.697-1.852,1.321v20.618c0,.728.831,1.321,1.852,1.321h10.109c1.061,0,1.852-.697,1.852-1.321v-20.618Z" fill="#ccc"/>
      <path d="M1866.584,1929.028c7.272,0,12.16,4.323,12.16,10.76,0,6.339-5.001,10.763-12.16,10.763s-11.728-4.224-11.728-10.763c0-.153.037-.287.04-.438-.007-.07-.04-.127-.04-.196,0-3.464,3.093-10.517,6.082-15.341,2.002-3.236,3.333-4.564,4.504-5.735.984-.984,2.626-1.03,3.61-.047.984.984,1.031,2.536.047,3.517l-.094.094c-1.074,1.071-2.085,2.085-3.783,4.824-.591.947-1.124,1.908-1.628,2.862.943-.18,1.928-.304,2.989-.304v.004ZM1873.707,1939.784c0-5.164-4.981-5.722-7.123-5.722-3.053,0-6.689.994-6.689,5.722,0,3.693,2.375,5.726,6.689,5.726,4.394,0,7.123-2.192,7.123-5.726Z" fill="#ccc"/>
      <path d="M1902.594,1931.078v.033c0,1.392-1.128,2.52-2.519,2.52s-2.52-1.128-2.52-2.52,1.128-2.535,2.52-2.535,2.519,1.111,2.519,2.502ZM1902.594,1943.99v.033c0,1.391-1.128,2.519-2.519,2.519s-2.52-1.128-2.52-2.519,1.128-2.536,2.52-2.536,2.519,1.111,2.519,2.503Z" fill="#ccc"/>
      <path d="M1945.292,1923.604v20.618c0,3.507-3.089,6.355-6.889,6.355h-10.109c-3.863,0-6.89-2.792-6.89-6.355v-20.618c0-3.507,3.09-6.355,6.89-6.355h10.109c3.8,0,6.889,2.849,6.889,6.355ZM1940.255,1923.604c0-.728-.831-1.321-1.852-1.321h-10.109c-1.061,0-1.852.697-1.852,1.321v20.618c0,.728.831,1.321,1.852,1.321h10.109c1.061,0,1.852-.697,1.852-1.321v-20.618Z" fill="#ccc"/>
      <path d="M1971.673,1945.533c1.392,0,2.52,1.127,2.52,2.519s-1.128,2.519-2.52,2.519h-18.85c-.348,0-.681-.073-.981-.2-.02-.006-.033-.026-.053-.036-.291-.13-.551-.311-.768-.534-.01-.01-.023-.013-.033-.023-.09-.093-.127-.213-.197-.316-.11-.157-.23-.304-.3-.484-.07-.183-.087-.373-.113-.566-.021-.124-.074-.23-.074-.357,0-.014.007-.026.007-.04.004-.207.067-.403.12-.604.033-.117.037-.247.084-.357.043-.104.13-.187.189-.283.11-.184.217-.37.371-.521.01-.01.023-.033.023-.033l14.346-13.445c2.169-2.039,3.353-4.247,3.25-6.06-.07-1.268-.771-2.378-2.133-3.393-.917-.678-2.225-1.037-3.767-1.037-2.973,0-5.298.507-6.999,2.979-.787,1.151-2.353,1.438-3.503.651-1.145-.788-1.435-2.355-.647-3.504,3.55-5.161,9.071-5.161,11.149-5.161,2.626,0,4.965.701,6.767,2.025,3.242,2.419,4.054,5.225,4.163,7.156.19,3.35-1.524,6.906-4.834,10.019l-9.702,9.096h12.481l.003-.007Z" fill="#ccc"/>
    </g>
    <g>
      <path d="M1755.484,1836.338v20.618c0,3.507-3.089,6.355-6.889,6.355h-10.109c-3.863,0-6.89-2.792-6.89-6.355v-20.618c0-3.507,3.09-6.355,6.89-6.355h10.109c3.8,0,6.889,2.849,6.889,6.355ZM1750.447,1836.338c0-.728-.831-1.321-1.852-1.321h-10.109c-1.061,0-1.852.697-1.852,1.321v20.618c0,.728.831,1.321,1.852,1.321h10.109c1.061,0,1.852-.697,1.852-1.321v-20.618Z" fill="#ccc"/>
      <path d="M1781.865,1858.268c1.392,0,2.52,1.127,2.52,2.519s-1.128,2.519-2.52,2.519h-18.85c-.348,0-.681-.073-.981-.2-.02-.006-.033-.026-.053-.036-.291-.13-.551-.311-.768-.534-.01-.01-.023-.013-.033-.023-.09-.093-.127-.213-.197-.316-.11-.157-.23-.304-.3-.484-.07-.183-.087-.373-.113-.566-.021-.124-.074-.23-.074-.357,0-.014.007-.026.007-.04.004-.207.067-.403.12-.604.033-.117.037-.247.084-.357.043-.104.13-.187.189-.283.11-.184.217-.37.371-.521.01-.01.022-.033.022-.033l14.347-13.445c2.169-2.039,3.353-4.247,3.25-6.06-.07-1.268-.771-2.378-2.133-3.393-.917-.678-2.225-1.037-3.767-1.037-2.973,0-5.298.507-6.999,2.979-.787,1.151-2.353,1.438-3.503.651-1.145-.788-1.435-2.355-.647-3.504,3.55-5.161,9.071-5.161,11.149-5.161,2.626,0,4.965.701,6.767,2.025,3.243,2.419,4.054,5.225,4.163,7.156.19,3.35-1.524,6.906-4.834,10.019l-9.702,9.096h12.481l.003-.007Z" fill="#ccc"/>
      <path d="M1808.232,1843.812v.033c0,1.392-1.128,2.52-2.519,2.52s-2.52-1.128-2.52-2.52,1.128-2.535,2.52-2.535,2.519,1.111,2.519,2.502ZM1808.232,1856.725v.033c0,1.391-1.128,2.519-2.519,2.519s-2.52-1.128-2.52-2.519,1.128-2.536,2.52-2.536,2.519,1.111,2.519,2.503Z" fill="#ccc"/>
      <path d="M1850.932,1836.338v20.618c0,3.507-3.089,6.355-6.889,6.355h-10.109c-3.863,0-6.89-2.792-6.89-6.355v-20.618c0-3.507,3.09-6.355,6.89-6.355h10.109c3.8,0,6.889,2.849,6.889,6.355ZM1845.894,1836.338c0-.728-.831-1.321-1.852-1.321h-10.109c-1.061,0-1.852.697-1.852,1.321v20.618c0,.728.831,1.321,1.852,1.321h10.109c1.061,0,1.852-.697,1.852-1.321v-20.618Z" fill="#ccc"/>
      <path d="M1877.311,1858.268c1.392,0,2.52,1.127,2.52,2.519s-1.128,2.519-2.52,2.519h-18.85c-.348,0-.681-.073-.981-.2-.02-.006-.033-.026-.053-.036-.291-.13-.551-.311-.768-.534-.01-.01-.023-.013-.033-.023-.09-.093-.127-.213-.197-.316-.11-.157-.23-.304-.3-.484-.07-.183-.087-.373-.113-.566-.021-.124-.074-.23-.074-.357,0-.014.007-.026.007-.04.004-.207.067-.403.12-.604.033-.117.037-.247.084-.357.043-.104.13-.187.189-.283.11-.184.217-.37.371-.521.01-.01.023-.033.023-.033l14.346-13.445c2.169-2.039,3.353-4.247,3.25-6.06-.07-1.268-.771-2.378-2.133-3.393-.917-.678-2.225-1.037-3.767-1.037-2.973,0-5.298.507-6.999,2.979-.787,1.151-2.353,1.438-3.503.651-1.145-.788-1.435-2.355-.647-3.504,3.55-5.161,9.071-5.161,11.149-5.161,2.626,0,4.965.701,6.767,2.025,3.242,2.419,4.054,5.225,4.163,7.156.19,3.35-1.524,6.906-4.834,10.019l-9.702,9.096h12.481l.003-.007Z" fill="#ccc"/>
      <path d="M1903.68,1843.812v.033c0,1.392-1.128,2.52-2.519,2.52s-2.52-1.128-2.52-2.52,1.128-2.535,2.52-2.535,2.519,1.111,2.519,2.502ZM1903.68,1856.725v.033c0,1.391-1.128,2.519-2.519,2.519s-2.52-1.128-2.52-2.519,1.128-2.536,2.52-2.536,2.519,1.111,2.519,2.503Z" fill="#ccc"/>
      <path d="M1929.863,1858.311c1.318.084,2.369,1.151,2.369,2.489,0,1.391-1.128,2.519-2.519,2.519h-4.704c-1.392,0-2.52-1.128-2.52-2.519,0-1.328,1.034-2.383,2.336-2.482v-22.587c-.411-.19-.784-.467-1.052-.874-.764-1.161-.443-2.726.718-3.49l1.468-.967c.063-.044.141-.047.207-.084.146-.08.297-.137.46-.187.171-.054.331-.09.504-.104.074-.007.137-.043.214-.043.083,0,.153.04.237.046.173.018.34.051.507.104.153.051.293.107.431.181.14.073.267.16.394.264.137.109.25.229.36.363.053.066.126.104.173.177.044.063.047.141.084.207.08.146.137.3.187.464.05.167.087.327.101.497.006.076.043.14.043.217v25.807l.003.003Z" fill="#ccc"/>
      <path d="M1956.921,1860.209c-2.959,2.956-10.285,3.106-11.724,3.106-1.391,0-2.519-1.128-2.519-2.516s1.124-2.522,2.516-2.522c3.093-.003,7.206-.674,8.164-1.632,1.234-1.234,1.984-3.773,2.412-6.592-1.812.924-4.007,1.451-6.569,1.451-7.377,0-11.961-4.124-11.961-10.76,0-5.205,3.143-10.763,11.961-10.763,8.598,0,11.773,5.281,11.927,10.369.014.08.054.149.061.229.097,1.476.797,14.561-4.268,19.628ZM1956.12,1840.741c0-3.8-2.332-5.725-6.923-5.725-4.657,0-6.923,1.875-6.923,5.725,0,3.797,2.329,5.723,6.923,5.723s6.923-1.922,6.923-5.723Z" fill="#ccc"/>
    </g>
    <g>
      <path d="M1804.014,1800.633c1.094.276,1.901,1.265,1.901,2.442s-.808,2.165-1.901,2.441v10.536c0,1.392-1.128,2.52-2.519,2.52s-2.52-1.128-2.52-2.52v-10.462h-13.262c-.984,0-1.878-.567-2.289-1.462-.413-.894-.267-1.945.371-2.692l13.078-15.313c.477-.561,1.178-.884,1.915-.884h2.702c1.392,0,2.519,1.127,2.519,2.519v12.868l.004.007ZM1798.973,1791.421l-7.797,9.132h7.797v-9.132Z" fill="#ccc"/>
      <path d="M1859.663,1813.567c1.318.084,2.369,1.151,2.369,2.489,0,1.391-1.128,2.519-2.519,2.519h-4.704c-1.392,0-2.52-1.128-2.52-2.519,0-1.328,1.034-2.383,2.336-2.482v-22.587c-.411-.19-.784-.467-1.052-.874-.764-1.161-.443-2.726.718-3.49l1.468-.967c.063-.044.141-.047.207-.084.146-.08.297-.137.46-.187.171-.054.331-.09.504-.104.074-.007.137-.043.214-.043.083,0,.153.04.237.046.173.018.34.051.507.104.153.051.293.107.431.181.14.073.267.16.394.264.137.109.25.229.36.363.053.066.126.104.173.177.044.063.047.141.084.207.08.146.137.3.187.464.05.167.087.327.101.497.006.076.043.14.043.217v25.807l.003.003Z" fill="#ccc"/>
      <path d="M1895.409,1813.524c1.392,0,2.52,1.127,2.52,2.519s-1.128,2.519-2.52,2.519h-18.85c-.348,0-.681-.073-.981-.2-.02-.006-.033-.026-.053-.036-.291-.13-.551-.311-.768-.534-.01-.01-.023-.013-.033-.023-.09-.093-.127-.213-.197-.316-.11-.157-.23-.304-.3-.484-.07-.183-.087-.373-.113-.566-.021-.124-.074-.23-.074-.357,0-.014.007-.026.007-.04.004-.207.067-.403.12-.604.033-.117.037-.247.084-.357.043-.104.13-.187.189-.283.11-.184.217-.37.371-.521.01-.01.022-.033.022-.033l14.347-13.445c2.169-2.039,3.353-4.247,3.25-6.06-.07-1.268-.771-2.378-2.133-3.393-.917-.678-2.225-1.037-3.767-1.037-2.973,0-5.298.507-6.999,2.979-.787,1.151-2.353,1.438-3.503.651-1.145-.788-1.435-2.355-.647-3.504,3.55-5.161,9.071-5.161,11.149-5.161,2.626,0,4.965.701,6.767,2.025,3.243,2.419,4.054,5.225,4.163,7.156.19,3.35-1.524,6.906-4.834,10.019l-9.702,9.096h12.481l.003-.007Z" fill="#ccc"/>
      <path d="M1914.977,1817.883v.07c0,1.392-1.128,2.519-2.519,2.519s-2.52-1.127-2.52-2.519,1.128-2.556,2.52-2.556,2.519,1.095,2.519,2.485Z" fill="#ccc"/>
      <path d="M1938.716,1797.02c7.272,0,12.16,4.323,12.16,10.76,0,6.339-5.001,10.763-12.16,10.763s-11.728-4.224-11.728-10.763c0-.153.037-.287.04-.438-.007-.07-.04-.127-.04-.196,0-3.464,3.093-10.517,6.082-15.341,2.002-3.236,3.333-4.564,4.504-5.735.984-.984,2.626-1.03,3.61-.047.984.984,1.031,2.536.047,3.517l-.094.094c-1.074,1.071-2.085,2.085-3.783,4.824-.591.947-1.124,1.908-1.628,2.862.943-.18,1.928-.304,2.989-.304v.004ZM1945.839,1807.775c0-5.164-4.981-5.722-7.123-5.722-3.053,0-6.689.994-6.689,5.722,0,3.693,2.375,5.726,6.689,5.726,4.394,0,7.123-2.192,7.123-5.726Z" fill="#ccc"/>
    </g>
    <g>
      <path d="M603.529,1360.264c2.347,2.731,2.284,5.327,2.229,7.416l-.017.959c0,3.899-1.232,7.365-3.381,9.518-1.841,1.837-4.373,3.183-6.948,3.698-1.984.396-12.722.924-15.968,1.072h-.152c-1.692,0-3.103-1.334-3.183-3.039-.08-1.756,1.275-3.246,3.035-3.331,6.517-.308,13.917-.747,15.019-.958,1.333-.271,2.748-1.018,3.689-1.958.701-.701,1.515-2.432,1.515-5.011l.017-1.119c.042-1.769.025-2.262-.684-3.089-.802-.925-1.465-1.103-3.04-1.17h-16.369c-1.751,0-3.174-1.409-3.187-3.161l-.127-16.087c-.004-.853.325-1.667.924-2.271.6-.604,1.414-.941,2.263-.941h21.865c1.76,0,3.187,1.427,3.187,3.187s-1.427,3.188-3.187,3.188h-18.652l.076,9.712h13.343c2.655.114,5.314.596,7.729,3.382l.004.004Z" fill="#ccc"/>
      <path d="M638.443,1360.272c1.385.35,2.406,1.6,2.406,3.09s-1.021,2.739-2.406,3.09v13.33c0,1.76-1.427,3.187-3.187,3.187s-3.187-1.427-3.187-3.187v-13.237h-16.779c-1.245,0-2.376-.718-2.896-1.85-.523-1.131-.338-2.46.469-3.406l16.546-19.374c.604-.709,1.49-1.119,2.423-1.119h3.419c1.76,0,3.187,1.427,3.187,3.188v16.28l.004.009ZM632.065,1348.618l-9.864,11.553h9.864v-11.553Z" fill="#ccc"/>
      <path d="M661.984,1355.701c9.202,0,15.386,5.47,15.386,13.612,0,8.021-6.327,13.617-15.386,13.617s-14.837-5.344-14.837-13.617c0-.194.046-.363.051-.553-.008-.089-.051-.16-.051-.249,0-4.382,3.913-13.305,7.695-19.408,2.533-4.095,4.217-5.774,5.699-7.256,1.245-1.245,3.322-1.305,4.567-.06s1.304,3.208.059,4.449l-.118.118c-1.359,1.354-2.638,2.638-4.787,6.104-.747,1.199-1.422,2.414-2.06,3.622,1.194-.229,2.439-.385,3.782-.385v.005ZM670.996,1369.31c0-6.534-6.302-7.239-9.012-7.239-3.862,0-8.463,1.258-8.463,7.239,0,4.673,3.005,7.243,8.463,7.243,5.559,0,9.012-2.773,9.012-7.243Z" fill="#ccc"/>
      <path d="M710.707,1340.883c1.76,0,3.187,1.427,3.187,3.187s-1.427,3.188-3.187,3.188h-8.716v32.522c0,1.761-1.427,3.188-3.187,3.188s-3.187-1.427-3.187-3.188v-32.522h-8.716c-1.76,0-3.187-1.427-3.187-3.188s1.427-3.187,3.187-3.187h23.807Z" fill="#ccc"/>
    </g>
    <g>
      <path d="M643.503,1841.618c1.038.337,1.738,1.305,1.738,2.396v28.225c0,1.392-1.128,2.52-2.519,2.52s-2.519-1.128-2.519-2.52v-20.498l-4.888,6.703c-.474.65-1.231,1.034-2.035,1.034s-1.561-.388-2.035-1.038l-4.854-6.679v20.478c0,1.392-1.128,2.52-2.519,2.52s-2.519-1.128-2.519-2.52v-28.225c0-1.091.701-2.056,1.738-2.396,1.038-.337,2.172.033,2.816.914l7.373,10.148,7.403-10.148c.641-.884,1.778-1.251,2.816-.911l.003-.003Z" fill="#ccc"/>
      <path d="M672.642,1849.462c.984,1.194,1.535,2.712,1.535,4.264v18.517c0,1.391-1.128,2.519-2.519,2.519s-2.519-1.128-2.519-2.519v-11.594h-13.846v11.594c0,1.391-1.127,2.519-2.519,2.519s-2.519-1.128-2.519-2.519v-18.517c0-1.521.523-2.982,1.511-4.234l4.23-5.168c3.013-3.606,9.455-3.586,12.428-.017l4.22,5.155h-.003ZM655.299,1855.607h13.849v-1.886c0-.387-.137-.754-.391-1.061l-4.214-5.147c-1.011-1.212-3.616-1.231-4.657.02l-4.187,5.121c-.357.444-.4.827-.4,1.071v1.882Z" fill="#ccc"/>
      <path d="M703.007,1844.017v28.226c0,1.11-.728,2.088-1.789,2.412-.244.07-.487.106-.73.106-.828,0-1.618-.407-2.095-1.121l-14.203-21.302v19.904c0,1.391-1.128,2.519-2.519,2.519s-2.519-1.128-2.519-2.519v-28.226c0-1.111.728-2.089,1.789-2.412,1.054-.32,2.208.09,2.826,1.015l14.203,21.302v-19.904c0-1.391,1.128-2.519,2.519-2.519s2.519,1.128,2.519,2.519Z" fill="#ccc"/>
    </g>
    <g>
      <path d="M754.913,1854.873l.14,11.164c0,3.32-1.341,6.506-3.681,8.785-2.214,2.148-5.274,3.383-8.394,3.383h-8.501c-2.663,0-5.278-.893-7.357-2.523l-.761-.578c-2.985-2.257-4.704-5.736-4.704-9.534v-21.253c0-3.736,1.766-7.306,4.718-9.539l.785-.598c2.046-1.602,4.657-2.498,7.319-2.498h9.342c2.359,0,4.667.705,6.67,2.041l2.808,1.873c1.621,1.084,2.055,3.27.976,4.891-1.079,1.625-3.265,2.055-4.891.977l-2.803-1.874c-.84-.56-1.793-.854-2.76-.854h-9.342c-1.112,0-2.148.355-3.013,1.027l-.832.635c-1.214.912-1.929,2.379-1.929,3.92v21.253c0,1.569.696,2.994,1.915,3.915l.808.615c.893.701,1.934,1.057,3.046,1.057h8.501c1.303,0,2.569-.51,3.476-1.388.995-.967,1.546-2.274,1.546-3.681l-.098-7.637h-8.058c-1.948,0-3.526-1.579-3.526-3.527s1.579-3.526,3.526-3.526h11.538c1.929,0,3.503,1.551,3.527,3.479l.009-.004Z" fill="#ccc"/>
      <path d="M791.632,1853c2.345,2.182,3.812,5.292,3.812,8.739v4.671c0,6.554-5.334,11.888-11.888,11.888h-17.984c-1.948,0-3.526-1.579-3.526-3.526v-39.518c0-1.947,1.579-3.526,3.526-3.526h17.61c3.587,0,6.895,1.784,8.842,4.778,1.126,1.654,1.738,3.695,1.738,5.849v4.438c0,2.573-.855,4.634-2.135,6.208h.005ZM769.103,1838.791v11.023h14.728c.812-.154,2.882-.767,2.882-3.018v-4.438c0-.748-.191-1.396-.561-1.943-.691-1.061-1.761-1.635-2.971-1.635h-14.083l.004.01ZM788.39,1861.744c0-2.504-1.896-4.573-4.326-4.854-.187.019-.374.019-.556.019h-14.41v14.341h14.457c2.667,0,4.834-2.173,4.834-4.835v-4.671Z" fill="#ccc"/>
      <path d="M832.311,1831.682c1.948,0,3.526,1.578,3.526,3.525v34.193c0,4.908-4.325,8.897-9.646,8.897h-14.106c-5.316,0-9.646-3.989-9.646-8.897v-34.193c0-1.947,1.579-3.525,3.527-3.525s3.526,1.578,3.526,3.525v34.193c0,.984,1.215,1.85,2.597,1.85h14.106c1.49,0,2.597-.977,2.597-1.85v-34.193c0-1.947,1.579-3.525,3.527-3.525h-.009Z" fill="#ccc"/>
      <path d="M869.632,1860.805c0,1.948-1.579,3.527-3.527,3.527h-19.754c-1.948,0-3.526-1.579-3.526-3.527s1.579-3.526,3.526-3.526h19.754c1.948,0,3.527,1.579,3.527,3.526Z" fill="#ccc"/>
      <path d="M906.714,1853.46c2.167,2.167,3.363,5.044,3.363,8.095v3.316c0,4.242-2.018,8.268-5.395,10.776-2.284,1.728-5.073,2.653-8.034,2.653h-2.943c-2.677,0-10.631-1.486-13.443-2.896l-1.607-.756c-1.761-.832-2.513-2.934-1.682-4.695.832-1.766,2.929-2.508,4.695-1.682l1.681.795c1.56.779,8.292,2.186,10.36,2.186h2.943c1.411,0,2.723-.435,3.802-1.247,1.64-1.224,2.569-3.088,2.569-5.134v-3.316c0-1.168-.462-2.27-1.303-3.111l-.565-.564c-.672-.678-1.602-1.064-2.546-1.064h-6.959c-1.359,0-2.602-.785-3.186-2.019-.583-1.233-.406-2.687.458-3.741l10.146-12.416h-14.004c-1.948,0-3.526-1.578-3.526-3.527s1.579-3.525,3.526-3.525h21.44c1.359,0,2.602.784,3.186,2.018.584,1.229.406,2.686-.458,3.741l-10.155,12.425c2.639.117,5.194,1.242,7.072,3.121l.565.564v.005Z" fill="#ccc"/>
      <path d="M927.416,1871.247c1.845.116,3.316,1.612,3.316,3.485,0,1.947-1.579,3.525-3.526,3.525h-6.586c-1.948,0-3.526-1.578-3.526-3.525,0-1.859,1.448-3.336,3.27-3.477v-31.622c-.575-.267-1.098-.654-1.471-1.224-1.07-1.626-.622-3.816,1.004-4.887l2.055-1.354c.088-.062.196-.066.29-.117.206-.112.416-.191.645-.262.238-.074.462-.126.705-.145.103-.01.192-.061.299-.061.117,0,.215.056.332.064.243.023.477.07.71.145.215.07.411.15.603.253.196.103.374.224.551.369.191.153.35.322.504.509.075.094.178.145.243.248.061.088.065.195.117.289.112.205.191.421.261.649.07.233.122.458.14.696.009.107.061.195.061.303v36.131l.004.005Z" fill="#ccc"/>
    </g>
    <path d="M1212.678,1749.273c0,1.391-1.128,2.52-2.52,2.52h-18.85c-1.391,0-2.519-1.129-2.519-2.52v-28.225c0-1.392,1.128-2.52,2.519-2.52s2.519,1.128,2.519,2.52v25.705h16.331c1.392,0,2.52,1.129,2.52,2.52Z" fill="#ccc"/>
    <path d="M1010.432,620.76c2.078,2.417,2.021,4.715,1.973,6.565l-.015.848c0,3.452-1.091,6.52-2.993,8.425-1.629,1.625-3.871,2.817-6.15,3.273-1.756.351-11.262.818-14.135.949h-.135c-1.498,0-2.746-1.181-2.817-2.69-.071-1.555,1.128-2.874,2.687-2.948,5.769-.272,12.319-.661,13.294-.848,1.181-.239,2.433-.9,3.266-1.734.62-.62,1.341-2.152,1.341-4.435l.015-.99c.037-1.565.022-2.002-.605-2.735-.71-.818-1.296-.975-2.69-1.035h-14.49c-1.55,0-2.81-1.248-2.821-2.798l-.112-14.24c-.003-.754.288-1.476.818-2.01.531-.534,1.252-.833,2.003-.833h19.354c1.558,0,2.821,1.263,2.821,2.821s-1.263,2.821-2.821,2.821h-16.511l.067,8.598h11.811c2.35.101,4.704.527,6.841,2.993l.003.004Z" fill="#ccc"/>
    <g>
      <path d="M1716.564,961.655c1.76,0,3.187,1.427,3.187,3.187s-1.427,3.187-3.187,3.187h-8.717v32.523c0,1.76-1.427,3.187-3.187,3.187s-3.188-1.427-3.188-3.187v-32.523h-8.716c-1.761,0-3.188-1.427-3.188-3.187s1.427-3.187,3.188-3.187h23.807Z" fill="#ccc"/>
      <path d="M1756.246,969.696v26.044c0,4.437-3.904,8.041-8.712,8.041h-12.752c-4.804,0-8.712-3.604-8.712-8.041v-26.044c0-4.436,3.904-8.041,8.712-8.041h12.752c4.804,0,8.712,3.605,8.712,8.041ZM1749.877,969.696c0-.907-1.072-1.671-2.343-1.671h-12.752c-1.342,0-2.343.882-2.343,1.671v26.044c0,.891,1.094,1.671,2.343,1.671h12.752c1.342,0,2.343-.882,2.343-1.671v-26.044Z" fill="#ccc"/>
      <path d="M1790.347,964.069c1.549,1.549,2.406,3.626,2.406,5.842v7.682c0,2.183-.878,4.31-2.406,5.842-1.558,1.553-3.635,2.41-5.842,2.41h-15.559v14.706c0,1.76-1.427,3.187-3.188,3.187s-3.187-1.427-3.187-3.187v-35.71c0-1.76,1.427-3.187,3.187-3.187h18.741c2.183,0,4.311.878,5.843,2.41l.004.004ZM1786.379,969.903c0-.528-.182-.975-.54-1.33-.343-.346-.841-.549-1.334-.549h-15.559v11.443h15.559c.523,0,.967-.186,1.329-.549.342-.338.545-.836.545-1.33v-7.687Z" fill="#ccc"/>
      <path d="M1826.069,961.655c1.76,0,3.187,1.427,3.187,3.187s-1.427,3.187-3.187,3.187h-8.717v32.523c0,1.76-1.427,3.187-3.187,3.187s-3.188-1.427-3.188-3.187v-32.523h-8.716c-1.761,0-3.188-1.427-3.188-3.187s1.427-3.187,3.188-3.187h23.807Z" fill="#ccc"/>
      <path d="M1883.257,969.609v26.086c0,4.436-3.908,8.041-8.716,8.041h-12.79c-4.888,0-8.717-3.533-8.717-8.041v-26.086c0-4.436,3.909-8.041,8.717-8.041h12.79c4.808,0,8.716,3.605,8.716,8.041ZM1876.884,969.609c0-.92-1.052-1.671-2.343-1.671h-12.79c-1.343,0-2.343.882-2.343,1.671v26.086c0,.92,1.051,1.671,2.343,1.671h12.79c1.342,0,2.343-.882,2.343-1.671v-26.086Z" fill="#ccc"/>
      <path d="M1916.635,997.354c1.761,0,3.188,1.427,3.188,3.187s-1.427,3.187-3.188,3.187h-23.849c-.439,0-.861-.093-1.241-.253-.025-.009-.042-.034-.067-.046-.367-.165-.696-.393-.971-.676-.013-.012-.029-.017-.042-.029-.114-.118-.161-.27-.249-.401-.14-.199-.292-.384-.38-.612-.089-.232-.11-.473-.144-.717-.025-.156-.093-.292-.093-.452,0-.017.008-.034.008-.051.005-.262.085-.511.152-.764.042-.147.046-.312.105-.452.055-.131.165-.236.24-.359.14-.232.274-.468.469-.658.013-.013.029-.042.029-.042l18.15-17.011c2.744-2.579,4.242-5.373,4.111-7.665-.088-1.604-.975-3.01-2.697-4.293-1.16-.857-2.815-1.313-4.765-1.313-3.762,0-6.703.642-8.856,3.77-.996,1.457-2.976,1.819-4.432.823-1.448-.996-1.815-2.98-.819-4.432,4.491-6.53,11.478-6.53,14.107-6.53,3.321,0,6.28.886,8.56,2.562,4.104,3.06,5.129,6.61,5.269,9.054.24,4.238-1.93,8.737-6.117,12.676l-12.274,11.506h15.791l.004-.008Z" fill="#ccc"/>
      <path d="M1932.537,979.067v.042c0,1.76-1.427,3.187-3.187,3.187s-3.188-1.427-3.188-3.187,1.427-3.208,3.188-3.208,3.187,1.406,3.187,3.166ZM1932.537,995.402v.042c0,1.76-1.427,3.187-3.187,3.187s-3.188-1.427-3.188-3.187,1.427-3.208,3.188-3.208,3.187,1.406,3.187,3.166Z" fill="#ccc"/>
      <path d="M1966.06,981.335c1.959,1.958,3.039,4.559,3.039,7.315v2.997c0,3.833-1.823,7.471-4.875,9.738-2.064,1.562-4.584,2.397-7.261,2.397h-2.659c-2.418,0-9.606-1.342-12.147-2.617l-1.452-.684c-1.592-.751-2.271-2.651-1.52-4.242.751-1.596,2.646-2.267,4.242-1.52l1.52.717c1.409.705,7.492,1.976,9.362,1.976h2.659c1.274,0,2.461-.393,3.436-1.127,1.481-1.106,2.321-2.79,2.321-4.639v-2.997c0-1.056-.418-2.052-1.178-2.812l-.511-.511c-.607-.612-1.447-.962-2.3-.962h-6.29c-1.228,0-2.351-.709-2.878-1.823-.528-1.115-.367-2.427.413-3.381l9.168-11.219h-12.654c-1.76,0-3.187-1.427-3.187-3.187s1.427-3.187,3.187-3.187h19.375c1.228,0,2.351.709,2.878,1.824.528,1.11.367,2.427-.413,3.381l-9.177,11.228c2.385.105,4.693,1.123,6.391,2.82l.511.511v.004Z" fill="#ccc"/>
      <path d="M2001.785,981.044c1.385.35,2.406,1.6,2.406,3.09s-1.021,2.739-2.406,3.09v13.33c0,1.76-1.427,3.187-3.187,3.187s-3.188-1.427-3.188-3.187v-13.237h-16.778c-1.245,0-2.377-.718-2.896-1.849-.523-1.131-.338-2.46.469-3.406l16.546-19.375c.604-.709,1.49-1.119,2.423-1.119h3.419c1.761,0,3.188,1.427,3.188,3.187v16.28l.004.009ZM1995.407,969.39l-9.864,11.553h9.864v-11.553Z" fill="#ccc"/>
    </g>
    <path id="u" data-name="ManualReticle" d="M1035.888,606.439h105.87M1247.627,606.439h105.87M1194.692,553.505v-105.87M1194.692,659.374v105.87M1194.269,604.057c-1.482,0-2.647,1.165-2.647,2.647s1.165,2.647,2.647,2.647,2.647-1.165,2.647-2.647-1.165-2.647-2.647-2.647Z" fill="none" stroke="#ccc" stroke-linecap="round" stroke-miterlimit="10" stroke-width="7"/>
  </g>
  <g id="v" data-name="HUD_PPLAR_PPLP_MULT_Arrows_-_Dark_copy">
    <path d="M1249.856,1874.853l16.871-10.315,204.642,345.177c-33.856,24.745-43.672,71.878-21.415,108.28,23.446,38.347,73.718,50.471,112.066,27.025,38.347-23.445,50.47-73.718,27.024-112.066-22.257-36.403-68.683-49.149-106.139-30.293l-204.642-345.177,16.871-10.315-81.526-82.474,36.249,110.157ZM1483.319,2216.3c32.682-19.982,75.374-9.686,95.356,22.995,19.982,32.682,9.686,75.374-22.995,95.356-32.682,19.982-75.374,9.686-95.356-22.995-19.982-32.682-9.686-75.374,22.995-95.356Z" fill="#ccc" stroke="#0d121e" stroke-miterlimit="10" stroke-width="4"/>
    <path d="M1064.833,759.473l-3.162,19.52-893.576-143.479c3.277-41.807-26.093-79.955-68.211-86.778-44.369-7.188-86.313,23.06-93.501,67.429-7.188,44.368,23.061,86.312,67.429,93.5,42.119,6.824,82.03-20.1,92.12-60.803l893.576,143.479-3.162,19.52,115.681-8.14-107.194-44.247ZM155.314,640.292c-6.126,37.813-41.746,63.501-79.559,57.375s-63.501-41.746-57.375-79.559c6.126-37.813,41.746-63.501,79.559-57.375s63.501,41.746,57.375,79.559Z" fill="#ccc" stroke="#0d121e" stroke-miterlimit="10" stroke-width="4"/>
    <path d="M1260.917,1257.227l107.845-42.637-11.285-16.238,887.739-623.557c26.685,32.349,74.311,39.388,109.348,15.038,36.909-25.651,46.068-76.547,20.417-113.456-25.651-36.909-76.547-46.068-113.456-20.417-35.037,24.35-45.043,71.443-24.026,107.731l-887.739,623.557-11.285-16.238-77.558,86.216ZM2268.463,465.941c31.456-21.861,74.677-14.083,96.538,17.372,21.861,31.456,14.083,74.677-17.372,96.538-31.456,21.861-74.677,14.083-96.538-17.372-21.861-31.456-14.083-74.677,17.372-96.538Z" fill="#ccc" stroke="#0d121e" stroke-miterlimit="10" stroke-width="4"/>
    <path d="M1297.759,574.048l-17.822-8.566,183.248-375.124c29.744,7.845,62.729-1.518,83.632-26.707,28.704-34.588,23.916-86.08-10.671-114.783-34.588-28.704-86.08-23.916-114.783,10.672-28.703,34.588-23.916,86.079,10.673,114.783,5.718,4.745,11.905,8.556,18.368,11.487l-182.653,373.814-17.822-8.566-24.989,113.243,72.82-90.253ZM1439.796,164.97c-29.478-24.463-33.543-68.19-9.081-97.668,24.463-29.478,68.19-33.543,97.668-9.081,29.478,24.463,33.543,68.19,9.081,97.668-24.463,29.478-68.19,33.543-97.668,9.081Z" fill="#ccc" stroke="#0d121e" stroke-miterlimit="10" stroke-width="4"/>
    <path d="M431.3,1820.833l-111.628,31.427,9.572,17.303-169.785,93.485c-3.296-6.285-7.454-12.243-12.519-17.681-30.636-32.889-82.317-34.723-115.205-4.088-32.889,30.636-34.723,82.317-4.087,115.206,30.635,32.889,82.316,34.722,115.205,4.087,23.951-22.31,31.412-55.776,21.878-85.023l171.059-94.155,9.572,17.303,85.939-77.865ZM134.568,2051.679c-28.03,26.109-71.918,24.552-98.027-3.478-26.109-28.03-24.552-71.918,3.478-98.027,28.03-26.109,71.918-24.552,98.027,3.478,26.109,28.03,24.552,71.918-3.478,98.027Z" fill="#ccc" stroke="#0d121e" stroke-miterlimit="10" stroke-width="4"/>
    <path d="M1908.814,954.391l108.329-32.718-9.829-16.667,232.371-148.368c3.861,5.955,8.55,11.505,14.094,16.453,33.533,29.929,85.164,26.997,115.092-6.536,29.929-33.533,26.996-85.164-6.537-115.093-33.533-29.928-85.163-26.996-115.092,6.538-21.795,24.42-26.144,58.431-13.957,86.676l-232.687,148.632-9.04-18.62-82.744,79.704ZM2256.309,666.092c25.507-28.579,69.352-31.069,97.931-5.562,28.579,25.507,31.069,69.352,5.562,97.931-25.507,28.579-69.352,31.069-97.931,5.562-28.579-25.507-31.069-69.352-5.562-97.931Z" fill="#ccc" stroke="#0d121e" stroke-miterlimit="10" stroke-width="4"/>
    <path d="M2073.693,1866.163l8.003-18.082,147.063,63.471c-6.908,29.976,3.486,62.65,29.318,82.752,35.472,27.604,86.788,21.203,114.392-14.268,27.604-35.472,21.203-86.788-14.269-114.392-35.471-27.604-86.787-21.202-114.391,14.269-4.564,5.864-8.178,12.168-10.905,18.719l-145.735-62.917,8.003-18.082-113.972-21.423,92.494,69.952ZM2253.4,1887.377c23.526-30.231,67.104-35.667,97.335-12.141,30.231,23.526,35.667,67.104,12.141,97.335-23.526,30.231-67.104,35.667-97.335,12.141-30.231-23.526-35.667-67.104-12.141-97.335Z" fill="#ccc" stroke="#0d121e" stroke-miterlimit="10" stroke-width="4"/>
    <path d="M836.363,1898.738l-40.243,108.761,19.623,2.437-34.104,185.114c-41.899-1.725-78.933,29.038-84.19,71.381-5.538,44.605,26.244,85.399,70.848,90.937,44.605,5.538,85.399-26.244,90.937-70.849,5.258-42.342-23.127-81.229-64.177-89.803l34.104-185.114,19.623,2.437-12.422-115.3ZM847.172,2285.021c-4.72,38.014-39.363,65.005-77.377,60.284-38.014-4.72-65.005-39.363-60.284-77.377,4.72-38.014,39.363-65.005,77.377-60.284,38.014,4.72,65.005,39.363,60.284,77.377Z" fill="#ccc" stroke="#0d121e" stroke-miterlimit="10" stroke-width="4"/>
    <path d="M608.399,1687.162l-4.576,19.237-437.43-91.026c6.314-41.457-20.198-81.643-61.708-91.517-43.727-10.401-87.764,16.711-98.165,60.438s16.712,87.763,60.439,98.164c41.51,9.874,83.277-14.071,96.305-53.931l437.43,91.027-4.576,19.237,115.967.309-103.686-51.939ZM153.299,1619.208c-8.864,37.266-46.261,60.291-83.527,51.426-37.266-8.864-60.291-46.261-51.426-83.527,8.864-37.266,46.261-60.291,83.527-51.426,37.266,8.864,60.291,46.261,51.426,83.527Z" fill="#ccc" stroke="#0d121e" stroke-miterlimit="10" stroke-width="4"/>
    <path d="M654.102,1894.814l-70.092,92.388,18.07,8.03-106.088,204.29c-39.593-13.818-83.964,4.866-101.29,43.858-18.252,41.074.315,89.34,41.389,107.592,41.074,18.252,89.34-.315,107.592-41.389,17.327-38.991,1.457-84.444-35.334-104.569l106.088-204.29,18.07,8.03,21.594-113.939ZM532.576,2304.648c-15.555,35.006-56.543,50.773-91.549,35.218-35.006-15.555-50.773-56.543-35.218-91.549,15.555-35.006,56.543-50.773,91.549-35.218,35.006,15.555,50.773,56.543,35.218,91.549Z" fill="#ccc" stroke="#0d121e" stroke-miterlimit="10" stroke-width="4"/>
    <path d="M1031.855,1182.464l-97.862-60.459-6.217,18.603L163.768,872.566c2.379-6.625,3.942-13.661,4.516-21.009,3.47-44.449-29.87-83.434-74.318-86.903-44.449-3.47-83.434,29.87-86.903,74.319-3.47,44.448,29.87,83.433,74.319,86.903,32.369,2.527,61.824-14.479,76.791-41.069l765.351,268.523-6.217,18.603,114.548,10.532ZM82.319,913.855c-37.882-2.957-66.194-36.063-63.237-73.945,2.957-37.882,36.063-66.194,73.945-63.237s66.194,36.063,63.237,73.945c-2.957,37.882-36.063,66.194-73.945,63.237Z" fill="#ccc" stroke="#0d121e" stroke-miterlimit="10" stroke-width="4"/>
  </g>
  <g id="w" data-name="HUD_PPLAR_PPLP_MULT_Numbers_copy">
    <path d="M99.972,653.748v7h-22.401v-7h7.701v-71.834l-5.471,4.529-4.463-5.394,11.12-9.202h5.814v81.901h7.7Z" fill="#ff8500" stroke="#ff8500" stroke-miterlimit="10"/>
    <path d="M70.817,876.891h43.276v7h-52.853v-6.976l9.202-10.042c4.823-5.373,9.248-10.298,13.448-14.778,2.086-2.086,4.176-4.526,6.195-6.885,2.111-2.461,10.542-11.95,10.542-11.95.956-.963,1.495-1.642,1.855-2.09.213-.27.396-.486.546-.654,1.025-1.306,1.887-2.958,2.496-4.785.578-1.733.872-3.119.872-5.895,0-2.384-.494-4.746-1.467-7.021-.885-2.349-2.296-4.042-4.158-5.905-2.125-1.75-4.137-3.01-6.104-3.745-5.628-2.111-9.419-2.107-15.041,0-2.576.966-4.515,2.156-6.108,3.749-1.837,1.838-3.314,3.935-4.158,5.905l-6.433-2.758c1.204-2.811,3.157-5.611,5.642-8.096,2.296-2.292,5.107-4.042,8.6-5.352,7.161-2.695,12.779-2.695,19.958,0,3.581,1.344,6.486,3.577,8.362,5.138,2.296,2.279,4.592,4.876,5.937,8.46,1.292,3,1.974,6.29,1.974,9.629,0,3.682-.473,5.832-1.232,8.11-.878,2.639-2.173,5.072-3.738,7.028l-.479.571c-.469.588-1.173,1.466-2.23,2.52.007,0-8.243,9.283-10.318,11.705-2.107,2.457-4.284,4.999-6.482,7.196-4.092,4.365-8.481,9.255-13.269,14.585l-4.831,5.338-.003-.003Z" fill="#ff8500" stroke="#ff8500" stroke-miterlimit="10"/>
    <path d="M490.796,2267.314c1.33,3.108,2.034,6.37,2.034,9.433v17.151c0,3.066-.704,6.324-2.034,9.43-1.295,3.027-3.437,5.929-5.873,7.959-1.876,1.564-4.785,3.794-8.362,5.139-3.594,1.348-6.769,1.974-9.982,1.974-3.658,0-8.232-.791-11.379-1.971-3.493-1.312-6.304-3.062-8.597-5.355-2.205-1.816-4.344-4.718-5.642-7.745-.784-1.555-1.208-3.241-1.579-4.729l-.105-.851v-3.149h7v2.72c.283,1.127.56,2.121,1.029,3.062.962,2.236,2.394,4.183,4.011,5.53,1.827,1.806,3.766,2.996,6.339,3.962,2.359.882,6.115,1.526,8.922,1.526,2.38,0,4.701-.473,7.522-1.53,1.964-.738,3.98-1.995,6.339-3.962,1.614-1.348,3.045-3.297,3.924-5.341.959-2.24,1.466-4.547,1.466-6.672v-17.15c0-2.125-.507-4.432-1.466-6.675-.875-2.045-2.307-3.99-3.924-5.338-1.827-1.803-3.766-2.996-6.339-3.959l-1.071-.413c-1.957-.767-2.853-1.116-6.451-1.116-4.389,0-7.907.938-11.071,2.954-2.363,1.477-4.453,3.566-5.912,5.901l-1.029,1.645h-9.29v-40.602h52.853v7h-45.852v24.768c1.603-1.792,3.458-3.36,5.495-4.635,4.253-2.709,9.107-4.032,14.806-4.032,4.68,0,6.468.605,8.999,1.597l.98.378c3.493,1.309,6.304,3.059,8.597,5.352,2.202,1.816,4.344,4.715,5.642,7.742v.004Z" fill="#ff8500" stroke="#ff8500" stroke-miterlimit="10"/>
    <path d="M801.559,2286.173c1.95,3.409,2.212,6.686,2.212,9.437v3.149c0,2.962-.647,5.846-2.033,9.08l-.179.356c-1.6,2.804-3.637,5.244-6.048,7.253-2.205,1.838-5.135,3.447-8.712,4.788-2.912,1.092-6.29,1.624-10.329,1.624-3.458,0-6.825-.725-9.951-1.505l-.378-.119c-3.577-1.341-6.51-2.954-8.712-4.788-2.412-2.009-4.445-4.452-6.048-7.253-1.95-3.409-2.212-6.682-2.212-9.437-.025-.486-.686-15.831,1.831-27.347,3.364-14.557,19.188-30.389,29.324-36.237l3.497,6.062c-8.992,5.188-23.231,19.762-25.989,31.708-.458,2.093-.798,4.357-1.053,6.644.595-.521,1.221-1.022,1.876-1.502,1.848-1.48,5.425-3.524,8.46-4.393,3.049-.875,16.038-.931,19.688.438,3.574,1.341,6.507,2.954,8.712,4.792,2.412,2.009,4.449,4.452,6.048,7.252l-.003-.003ZM796.777,2298.767v-3.15c0-2.667-.36-4.341-1.288-5.965-1.183-2.071-2.681-3.874-4.452-5.348-1.579-1.316-3.892-2.565-6.689-3.612-2.051-.729-13.269-.798-15.317-.263-2.013.577-4.746,2.121-6.118,3.217-4.2,3.084-6.738,7.234-6.738,10.917h-.087c.014,2.439.084,3.997.084,4.043.003,2.828.364,4.497,1.292,6.122,1.187,2.071,2.685,3.874,4.452,5.348,1.537,1.285,3.784,2.506,6.503,3.542,2.632.655,5.422,1.246,8.054,1.246,3.185,0,5.758-.385,7.872-1.176,2.8-1.054,5.114-2.3,6.689-3.612,1.722-1.432,3.185-3.175,4.354-5.177.956-2.278,1.386-4.176,1.386-6.132h.003Z" fill="#ff8500" stroke="#ff8500" stroke-miterlimit="10"/>
    <path d="M1545.582,2229.142v9.901l-36.053,74.551v.948h-7v-2.552l36.052-74.55v-1.299h-45.152v-7h52.153Z" fill="#ff8500" stroke="#ff8500" stroke-miterlimit="10"/>
    <path d="M2336.67,1952.492c0,13.896-12.562,25.201-28.002,25.201s-28.001-11.306-28.001-25.201c0-9.391,5.747-17.585,14.235-21.918-6.878-4.067-11.436-11.075-11.436-19.034,0-12.545,11.306-22.751,25.201-22.751s25.201,10.206,25.201,22.751c0,7.959-4.561,14.967-11.435,19.034,8.488,4.333,14.235,12.527,14.235,21.918ZM2329.669,1952.492c0-10.035-9.419-18.201-21.001-18.201s-21.001,8.166-21.001,18.201,9.419,18.201,21.001,18.201,21.001-8.166,21.001-18.201ZM2308.668,1927.294c10.035,0,18.201-7.066,18.201-15.751s-8.166-15.75-18.201-15.75-18.201,7.066-18.201,15.75,8.166,15.751,18.201,15.751Z" fill="#ff8500" stroke="#ff8500" stroke-miterlimit="10"/>
    <path d="M112.792,1609.074c1.323,3.091,1.971,9.062,1.971,12.079,0,3.228,0,5.358-1.52,11.054-1.34,5.352-4.088,8.953-6.157,11.021-2.313,2.311-6.734,5.261-10.375,6.171-3.434,1.155-9.041,1.155-12.051,1.155-3.556,0-9.72-2.006-12.229-3.08-2.937-1.26-8.449-4.978-11.799-7.952l4.652-5.233c2.93,2.604,7.896,5.888,9.906,6.752,2.31.991,7.42,2.517,9.471,2.517,2.429,0,7.483,0,10.095-.871,2.24-.57,5.569-2.594,7.382-4.407,1.442-1.438,3.367-3.969,4.33-7.822,1.295-4.858,1.295-6.252,1.295-9.3,0-3.108-.71-7.715-1.467-9.476-.861-2.282-1.908-4.019-3.671-6.136-1.537-1.845-3.213-3.164-4.988-3.924-2.202-.945-4.533-1.82-6.671-1.82h-9.451v-7.623l20.798-23.528h-31.999v-7h39.552v9.02l-19.559,22.128h.658c3.413,0,6.682,1.204,9.429,2.384,2.797,1.201,5.359,3.179,7.609,5.877,2.279,2.73,3.71,5.128,4.792,8.012l-.003.004Z" fill="#ff8500" stroke="#ff8500" stroke-miterlimit="10"/>
    <path d="M104.641,2021.816h9.45v7.001h-9.45v17.5h-7v-17.5h-36.402v-7.62l36.167-60.284h7.231v60.9l.003.003ZM97.637,1974.13l-28.61,47.684h28.61v-47.684Z" fill="#ff8500" stroke="#ff8500" stroke-miterlimit="10"/>
    <g>
      <path d="M2287.616,563.914v7h-22.401v-7h7.7v-71.834l-5.471,4.529-4.463-5.394,11.12-9.202h5.814v81.901h7.7Z" fill="#ff8500" stroke="#ff8500" stroke-miterlimit="10"/>
      <path d="M2351.946,496.896c1.616,3.227,2.471,6.917,2.471,10.665v38.152c0,3.749-.854,7.441-2.471,10.669-1.513,3.031-3.802,5.87-6.802,8.442-2.677,2.229-5.555,3.749-8.586,4.54-2.765,1.008-5.743,1.519-9.093,1.551h-.351c-3.741-.028-6.724-.532-9.629-1.621-3.157-1.187-5.968-2.797-8.361-4.792-3.039-2.601-5.328-5.443-6.844-8.474-1.616-3.228-2.471-6.917-2.471-10.662v-38.152c0-3.745.857-7.434,2.471-10.665,1.516-3.031,3.805-5.873,6.805-8.442,2.678-2.233,5.555-3.749,8.586-4.54,2.859-1.043,5.95-1.554,9.443-1.554,3.749,0,7.105.542,9.979,1.621,3.157,1.183,5.968,2.796,8.365,4.792,2.664,2.279,4.774,5.044,6.489,8.471h-.003ZM2306.814,507.21v34.526l40.165-38.082c-.291-1.274-.725-2.496-1.292-3.63-1.306-2.614-2.814-4.603-4.746-6.258-1.75-1.459-3.886-2.674-6.301-3.581-2.055-.77-4.655-1.176-7.521-1.176-2.751,0-5.03.375-7.172,1.176l-.378.119c-2.076.518-4.078,1.575-5.961,3.143-2.251,1.929-3.966,4.036-5.062,6.227-1.134,2.268-1.732,4.872-1.732,7.536ZM2347.42,545.716v-32.828l-39.776,37.714c.252.795.543,1.568.907,2.3,1.096,2.191,2.811,4.298,5.1,6.258,1.75,1.456,3.882,2.671,6.3,3.581,2.129.798,4.396,1.162,7.337,1.176,2.674-.014,4.903-.389,7.004-1.176l.378-.119c2.075-.518,4.078-1.575,5.961-3.143,2.247-1.929,3.962-4.036,5.058-6.227,1.134-2.265,1.732-4.869,1.732-7.536Z" fill="#ff8500" stroke="#ff8500" stroke-miterlimit="10"/>
    </g>
    <path d="M2334.107,713.797c-3.356,14.558-19.185,30.389-29.321,36.238l-3.496-6.062c8.995-5.191,23.234-19.762,25.988-31.708.459-2.093.799-4.358,1.054-6.644-.595.521-1.218,1.022-1.872,1.501-1.849,1.481-5.426,3.525-8.46,4.393-3.053.872-16.042.927-19.688-.438-3.581-1.344-6.511-2.955-8.716-4.792-2.412-2.009-4.449-4.452-6.049-7.252-1.949-3.406-2.212-6.682-2.212-9.437v-3.15c0-2.961.647-5.845,2.034-9.08l.178-.357c1.6-2.804,3.637-5.244,6.049-7.252,2.201-1.834,5.131-3.444,8.712-4.789,2.912-1.092,6.29-1.624,10.329-1.624,3.454,0,6.821.725,9.951,1.505l.378.119c3.58,1.344,6.51,2.955,8.712,4.789,2.411,2.009,4.448,4.449,6.048,7.252,1.95,3.406,2.213,6.682,2.213,9.437.024.49.689,15.831-1.831,27.35ZM2328.934,690.654h.087c-.014-2.439-.084-3.994-.084-4.042-.003-2.832-.364-4.501-1.291-6.122-1.187-2.079-2.685-3.878-4.452-5.352-1.54-1.285-3.784-2.506-6.504-3.542-2.461-.609-5.296-1.246-8.054-1.246-3.186,0-5.758.385-7.872,1.176-2.8,1.054-5.113,2.3-6.686,3.612-1.722,1.432-3.185,3.174-4.354,5.177-.956,2.278-1.387,4.176-1.387,6.132v3.15c0,2.671.36,4.344,1.288,5.964,1.184,2.072,2.682,3.875,4.452,5.348,1.579,1.316,3.889,2.562,6.689,3.612,2.051.731,13.272.802,15.316.263,2.013-.578,4.746-2.121,6.118-3.217,4.197-3.083,6.734-7.231,6.734-10.917l-.003.003Z" fill="#ff8500" stroke="#ff8500" stroke-miterlimit="10"/>
    <g>
      <path d="M1478.742,144.951v7h-22.402v-7h7.701v-71.834l-5.471,4.529-4.463-5.394,11.12-9.202h5.813v81.901h7.701Z" fill="#ff8500" stroke="#ff8500" stroke-miterlimit="10"/>
      <path d="M1515.568,144.951v7h-22.4v-7h7.7v-71.834l-5.471,4.529-4.463-5.394,11.12-9.202h5.814v81.901h7.699Z" fill="#ff8500" stroke="#ff8500" stroke-miterlimit="10"/>
    </g>
  </g>
</svg>