<?xml version="1.0" encoding="UTF-8"?>
<svg xmlns="http://www.w3.org/2000/svg" width="1219.276" height="796.03" viewBox="0 0 1219.276 796.03">
  <g id="b" data-name="PDCP_CRUISE_TACAN_-_Dark">
    <polygon points="123.295 -1032.213 1423.172 -1032.213 1792.727 600.447 93.878 600.447 123.295 -1032.213" fill="none" stroke="#ccc" stroke-miterlimit="10" stroke-width="10"/>
    <path d="M1666.788,431.297h0c-17.132,0-29.575,16.29-25.067,32.819l24.144,88.527H213.386v-72.337c0-26.052-21.119-47.171-47.171-47.171h-44.758l9.193-593.862h39.178c31.164,0,56.428-25.264,56.428-56.428v-3.345c0-28.929-23.452-52.38-52.38-52.38h-43.226l14.709-588.346h49.301c22.531,0,40.798-18.259,40.809-40.789l.057-117.329c20.399,0,1053.431,0,1053.431,0l26.531,131.181c3.818,18.879,20.412,32.453,39.673,32.453h91.914l33.094,158.118h-136.112c-58.2,0-105.38,47.18-105.38,105.38v14.709c0,64.666,52.422,117.088,117.088,117.088h177.723l42.287,194.89h-40.187c-30.607,0-55.419,24.812-55.419,55.419v.638c0,31.996,25.938,57.934,57.934,57.934h65.25l128.701,582.83h-65.266Z" fill="none" stroke="#ccc" stroke-miterlimit="10" stroke-width="10"/>
    <g>
      <circle cx="692.703" cy="161.445" r="51.764" fill="none" stroke="#ccc" stroke-miterlimit="10" stroke-width="3"/>
      <circle cx="693.453" cy="162.195" r="40.511" fill="none" stroke="#ccc" stroke-miterlimit="10" stroke-width="3"/>
      <path d="M722.165,204.619l-58.516-1.5,8.846-44.114c.496-11.576,10.01-20.816,21.708-20.816,12.015,0,21.756,9.74,21.756,21.756,0,.068-.01.134-.01.202l6.216,44.472Z" fill="none" stroke="#ccc" stroke-miterlimit="10" stroke-width="3"/>
      <circle cx="692.907" cy="208.37" r="29.258" fill="#ccc" stroke="#ccc" stroke-miterlimit="10" stroke-width="3"/>
    </g>
    <g>
      <circle cx="993.225" cy="161.445" r="51.764" fill="none" stroke="#ccc" stroke-miterlimit="10" stroke-width="3"/>
      <circle cx="993.975" cy="162.195" r="40.511" fill="none" stroke="#ccc" stroke-miterlimit="10" stroke-width="3"/>
      <path d="M1022.686,204.619l-58.516-1.5,8.846-44.114c.496-11.576,10.01-20.816,21.708-20.816,12.015,0,21.756,9.74,21.756,21.756,0,.068-.01.134-.01.202l6.216,44.472Z" fill="none" stroke="#ccc" stroke-miterlimit="10" stroke-width="3"/>
      <circle cx="993.428" cy="208.37" r="29.258" fill="#ccc" stroke="#ccc" stroke-miterlimit="10" stroke-width="3"/>
    </g>
    <g>
      <circle cx="393.746" cy="158.315" r="51.764" fill="none" stroke="#ccc" stroke-miterlimit="10" stroke-width="3"/>
      <circle cx="394.496" cy="159.065" r="40.511" fill="none" stroke="#ccc" stroke-miterlimit="10" stroke-width="3"/>
      <path d="M423.208,201.488l-58.516-1.5,8.846-44.114c.496-11.576,10.01-20.816,21.708-20.816,12.015,0,21.756,9.74,21.756,21.756,0,.068-.01.134-.01.202l6.216,44.472Z" fill="none" stroke="#ccc" stroke-miterlimit="10" stroke-width="3"/>
      <circle cx="393.95" cy="205.239" r="29.258" fill="#ccc" stroke="#ccc" stroke-miterlimit="10" stroke-width="3"/>
    </g>
    <g>
      <circle cx="155.833" cy="483.046" r="26.96" fill="none" stroke="#ccc" stroke-miterlimit="10" stroke-width="2"/>
      <polygon points="153.489 465.463 159.35 465.463 159.35 480.701 173.416 480.701 173.416 487.734 159.35 487.734 159.35 501.8 152.136 501.8 152.136 487.734 138.251 487.734 138.251 480.701 152.317 480.701 152.317 465.463 153.489 465.463" fill="none" stroke="#ccc" stroke-miterlimit="10" stroke-width="2"/>
    </g>
    <g>
      <circle cx="268.594" cy="495.959" r="43.37" fill="none" stroke="#ccc" stroke-miterlimit="10" stroke-width="2"/>
      <circle cx="268.594" cy="495.959" r="34.57" fill="none" stroke="#ccc" stroke-miterlimit="10" stroke-width="2"/>
      <rect x="262.951" y="461.061" width="11.287" height="72.237" transform="translate(-272.889 335.545) rotate(-45)" fill="none" stroke="#ccc" stroke-miterlimit="10" stroke-width="2"/>
    </g>
    <rect x="352.184" y="403.991" width="122.087" height="123.652" rx="18.391" ry="18.391" transform="translate(-208.351 428.63) rotate(-45)" fill="none" stroke="#ccc" stroke-miterlimit="10" stroke-width="7"/>
    <path d="M414.925,385.127c5.804-1.118,12.052.559,16.522,5.029l61.426,61.426c7.153,7.153,7.153,18.857,0,26.009l-60.319,60.319c-4.235,4.235-10.066,5.963-15.603,5.182" fill="none" stroke="#ccc" stroke-miterlimit="10" stroke-width="7"/>
    <rect x="680.829" y="396.472" width="122.087" height="123.652" rx="18.391" ry="18.391" fill="none" stroke="#ccc" stroke-miterlimit="10" stroke-width="7"/>
    <path d="M800.448,403.632c4.894,3.314,8.127,8.917,8.127,15.239v86.87c0,10.115-8.276,18.391-18.391,18.391h-85.304c-5.989,0-11.334-2.902-14.698-7.369" fill="none" stroke="#ccc" stroke-miterlimit="10" stroke-width="7"/>
    <rect x="517.206" y="401.69" width="122.087" height="123.652" rx="18.391" ry="18.391" fill="none" stroke="#ccc" stroke-miterlimit="10" stroke-width="7"/>
    <path d="M636.507,407.66c4.894,3.314,8.127,8.917,8.127,15.239v86.87c0,10.115-8.276,18.391-18.391,18.391h-85.304c-5.989,0-11.334-2.902-14.698-7.369" fill="none" stroke="#ccc" stroke-miterlimit="10" stroke-width="7"/>
    <rect x="848.25" y="401.69" width="122.087" height="123.652" rx="18.391" ry="18.391" fill="none" stroke="#ccc" stroke-miterlimit="10" stroke-width="7"/>
    <path d="M967.55,407.66c4.894,3.314,8.127,8.917,8.127,15.239v86.87c0,10.115-8.276,18.391-18.391,18.391h-85.304c-5.989,0-11.334-2.902-14.698-7.369" fill="none" stroke="#ccc" stroke-miterlimit="10" stroke-width="7"/>
    <rect x="1011.424" y="401.69" width="122.087" height="123.652" rx="18.391" ry="18.391" fill="none" stroke="#ccc" stroke-miterlimit="10" stroke-width="7"/>
    <path d="M1130.724,407.66c4.894,3.314,8.127,8.917,8.127,15.239v86.87c0,10.115-8.276,18.391-18.391,18.391h-85.304c-5.989,0-11.334-2.902-14.698-7.369" fill="none" stroke="#ccc" stroke-miterlimit="10" stroke-width="7"/>
    <g>
      <circle cx="413.833" cy="462.059" r="44.609" fill="none" stroke="#ccc" stroke-miterlimit="10" stroke-width="3"/>
      <circle cx="413.833" cy="462.059" r="34.867" fill="#ccc" stroke="#ccc" stroke-miterlimit="10" stroke-width="3"/>
    </g>
    <g>
      <circle cx="581.311" cy="462.059" r="44.609" fill="none" stroke="#ccc" stroke-miterlimit="10" stroke-width="3"/>
      <circle cx="581.311" cy="462.059" r="34.867" fill="#ccc" stroke="#ccc" stroke-miterlimit="10" stroke-width="3"/>
    </g>
    <g>
      <circle cx="910.007" cy="462.059" r="44.609" fill="none" stroke="#ccc" stroke-miterlimit="10" stroke-width="3"/>
      <circle cx="910.007" cy="462.059" r="34.867" fill="#ccc" stroke="#ccc" stroke-miterlimit="10" stroke-width="3"/>
    </g>
    <g>
      <circle cx="740.964" cy="463.233" r="44.609" fill="none" stroke="#ccc" stroke-miterlimit="10" stroke-width="3"/>
      <circle cx="740.964" cy="463.233" r="34.867" fill="#ccc" stroke="#ccc" stroke-miterlimit="10" stroke-width="3"/>
    </g>
    <g>
      <circle cx="1072.79" cy="462.059" r="44.609" fill="none" stroke="#ccc" stroke-miterlimit="10" stroke-width="3"/>
      <circle cx="1072.79" cy="462.059" r="34.867" fill="#ccc" stroke="#ccc" stroke-miterlimit="10" stroke-width="3"/>
    </g>
    <polyline points="350.442 332.202 366.877 310.289 609.485 310.289" fill="none" stroke="#ccc" stroke-miterlimit="10" stroke-width="17"/>
    <polyline points="1140.485 332.202 1124.051 310.289 877.137 310.289" fill="none" stroke="#ccc" stroke-miterlimit="10" stroke-width="17"/>
    <polyline points="375.094 46.806 391.529 24.893 600.094 24.893" fill="none" stroke="#ccc" stroke-miterlimit="10" stroke-width="17"/>
    <polyline points="1005.485 46.806 989.051 24.893 783.616 24.893" fill="none" stroke="#ccc" stroke-miterlimit="10" stroke-width="17"/>
    <g>
      <g>
        <rect x="175.743" y="207.759" width="140.806" height="35.633" fill="none"/>
        <path d="M269.021,235.14c-1.138-.628-2.018-1.515-2.641-2.662-.623-1.146-.935-2.476-.935-3.985v-5.834c0-1.511.312-2.84.935-3.986.623-1.147,1.503-2.034,2.641-2.662s2.452-.941,3.943-.941,2.807.313,3.944.941c1.137.628,2.018,1.515,2.641,2.662.623,1.146.935,2.476.935,3.986v5.834c0,1.51-.312,2.839-.935,3.985-.623,1.147-1.504,2.034-2.641,2.662-1.138.628-2.452.942-3.944.942s-2.806-.314-3.943-.942ZM274.805,231.757c.529-.298.938-.72,1.226-1.268.287-.548.432-1.18.432-1.897v-6.032c0-.718-.145-1.35-.432-1.897-.288-.548-.696-.97-1.226-1.268-.528-.297-1.142-.446-1.841-.446s-1.312.149-1.841.446c-.528.298-.937.72-1.225,1.268s-.432,1.18-.432,1.897v6.032c0,.718.144,1.35.432,1.897s.696.97,1.225,1.268c.529.297,1.143.445,1.841.445s1.312-.148,1.841-.445Z" fill="#ccc"/>
        <path d="M285.205,215.281h3.88v20.589h-3.88v-20.589ZM286.621,215.281h12.107v3.738h-12.107v-3.738ZM286.621,223.962h10.55v3.738h-10.55v-3.738Z" fill="#ccc"/>
        <path d="M302.601,215.281h3.88v20.589h-3.88v-20.589ZM304.017,215.281h12.107v3.738h-12.107v-3.738ZM304.017,223.962h10.55v3.738h-10.55v-3.738Z" fill="#ccc"/>
      </g>
      <g>
        <rect x="175.743" y="136.231" width="140.806" height="35.633" fill="none"/>
        <path d="M282.323,163.612c-1.137-.628-2.018-1.515-2.641-2.662-.623-1.146-.935-2.476-.935-3.985v-5.834c0-1.511.312-2.84.935-3.986.623-1.147,1.504-2.034,2.641-2.662,1.138-.628,2.452-.941,3.944-.941s2.806.313,3.943.941,2.018,1.515,2.641,2.662c.623,1.146.935,2.476.935,3.986v5.834c0,1.51-.312,2.839-.935,3.985-.623,1.147-1.503,2.034-2.641,2.662s-2.452.942-3.943.942-2.807-.314-3.944-.942ZM288.109,160.228c.528-.298.937-.72,1.225-1.268s.432-1.18.432-1.897v-6.032c0-.718-.144-1.35-.432-1.897s-.696-.97-1.225-1.268c-.529-.297-1.143-.446-1.841-.446s-1.312.149-1.841.446c-.529.298-.938.72-1.226,1.268-.287.548-.432,1.18-.432,1.897v6.032c0,.718.145,1.35.432,1.897.288.548.696.97,1.226,1.268.528.297,1.142.445,1.841.445s1.312-.148,1.841-.445Z" fill="#ccc"/>
        <path d="M298.509,143.753h4.743l7.661,15.774-.34.368v-16.143h3.71v20.575h-4.772l-7.632-15.534.34-.368v15.902h-3.71v-20.575Z" fill="#ccc"/>
      </g>
    </g>
    <g>
      <g>
        <rect x="458.043" y="207.759" width="140.806" height="35.633" fill="none"/>
        <path d="M551.32,235.14c-1.138-.628-2.018-1.515-2.641-2.662-.623-1.146-.935-2.476-.935-3.985v-5.834c0-1.511.312-2.84.935-3.986.623-1.147,1.503-2.034,2.641-2.662s2.452-.941,3.943-.941,2.807.313,3.944.941c1.137.628,2.018,1.515,2.641,2.662.623,1.146.935,2.476.935,3.986v5.834c0,1.51-.312,2.839-.935,3.985-.623,1.147-1.504,2.034-2.641,2.662-1.138.628-2.452.942-3.944.942s-2.806-.314-3.943-.942ZM557.105,231.757c.529-.298.938-.72,1.226-1.268.287-.548.432-1.18.432-1.897v-6.032c0-.718-.145-1.35-.432-1.897-.288-.548-.696-.97-1.226-1.268-.528-.297-1.142-.446-1.841-.446s-1.312.149-1.841.446c-.528.298-.937.72-1.225,1.268s-.432,1.18-.432,1.897v6.032c0,.718.144,1.35.432,1.897s.696.97,1.225,1.268c.529.297,1.143.445,1.841.445s1.312-.148,1.841-.445Z" fill="#ccc"/>
        <path d="M567.505,215.281h3.88v20.589h-3.88v-20.589ZM568.921,215.281h12.107v3.738h-12.107v-3.738ZM568.921,223.962h10.55v3.738h-10.55v-3.738Z" fill="#ccc"/>
        <path d="M584.901,215.281h3.88v20.589h-3.88v-20.589ZM586.317,215.281h12.107v3.738h-12.107v-3.738ZM586.317,223.962h10.55v3.738h-10.55v-3.738Z" fill="#ccc"/>
      </g>
      <g>
        <rect x="458.043" y="136.231" width="140.806" height="35.633" fill="none"/>
        <path d="M564.623,163.612c-1.137-.628-2.018-1.515-2.641-2.662-.623-1.146-.935-2.476-.935-3.985v-5.834c0-1.511.312-2.84.935-3.986.623-1.147,1.504-2.034,2.641-2.662,1.138-.628,2.452-.941,3.944-.941s2.806.313,3.943.941,2.018,1.515,2.641,2.662c.623,1.146.935,2.476.935,3.986v5.834c0,1.51-.312,2.839-.935,3.985-.623,1.147-1.503,2.034-2.641,2.662s-2.452.942-3.943.942-2.807-.314-3.944-.942ZM570.408,160.228c.528-.298.937-.72,1.225-1.268s.432-1.18.432-1.897v-6.032c0-.718-.144-1.35-.432-1.897s-.696-.97-1.225-1.268c-.529-.297-1.143-.446-1.841-.446s-1.312.149-1.841.446c-.529.298-.938.72-1.226,1.268-.287.548-.432,1.18-.432,1.897v6.032c0,.718.145,1.35.432,1.897.288.548.696.97,1.226,1.268.528.297,1.142.445,1.841.445s1.312-.148,1.841-.445Z" fill="#ccc"/>
        <path d="M580.809,143.753h4.743l7.661,15.774-.34.368v-16.143h3.71v20.575h-4.772l-7.632-15.534.34-.368v15.902h-3.71v-20.575Z" fill="#ccc"/>
      </g>
    </g>
    <g>
      <g>
        <rect x="768.738" y="207.759" width="140.806" height="35.633" fill="none"/>
        <path d="M862.016,235.14c-1.137-.628-2.018-1.515-2.641-2.662-.623-1.146-.935-2.476-.935-3.985v-5.834c0-1.511.312-2.84.935-3.986.623-1.147,1.504-2.034,2.641-2.662,1.138-.628,2.452-.941,3.944-.941s2.806.313,3.943.941,2.018,1.515,2.641,2.662c.623,1.146.935,2.476.935,3.986v5.834c0,1.51-.312,2.839-.935,3.985-.623,1.147-1.503,2.034-2.641,2.662s-2.452.942-3.943.942-2.807-.314-3.944-.942ZM867.801,231.757c.528-.298.937-.72,1.225-1.268s.432-1.18.432-1.897v-6.032c0-.718-.144-1.35-.432-1.897s-.696-.97-1.225-1.268c-.529-.297-1.143-.446-1.841-.446s-1.312.149-1.841.446c-.529.298-.938.72-1.226,1.268-.287.548-.432,1.18-.432,1.897v6.032c0,.718.145,1.35.432,1.897.288.548.696.97,1.226,1.268.528.297,1.142.445,1.841.445s1.312-.148,1.841-.445Z" fill="#ccc"/>
        <path d="M878.201,215.281h3.88v20.589h-3.88v-20.589ZM879.617,215.281h12.106v3.738h-12.106v-3.738ZM879.617,223.962h10.549v3.738h-10.549v-3.738Z" fill="#ccc"/>
        <path d="M895.597,215.281h3.88v20.589h-3.88v-20.589ZM897.013,215.281h12.106v3.738h-12.106v-3.738ZM897.013,223.962h10.549v3.738h-10.549v-3.738Z" fill="#ccc"/>
      </g>
      <g>
        <rect x="768.738" y="136.231" width="140.806" height="35.633" fill="none"/>
        <path d="M875.32,163.612c-1.138-.628-2.018-1.515-2.641-2.662-.623-1.146-.935-2.476-.935-3.985v-5.834c0-1.511.312-2.84.935-3.986.623-1.147,1.503-2.034,2.641-2.662s2.452-.941,3.943-.941,2.807.313,3.944.941c1.137.628,2.018,1.515,2.641,2.662.623,1.146.935,2.476.935,3.986v5.834c0,1.51-.312,2.839-.935,3.985-.623,1.147-1.504,2.034-2.641,2.662-1.138.628-2.452.942-3.944.942s-2.806-.314-3.943-.942ZM881.104,160.228c.529-.298.938-.72,1.226-1.268.287-.548.432-1.18.432-1.897v-6.032c0-.718-.145-1.35-.432-1.897-.288-.548-.696-.97-1.226-1.268-.528-.297-1.142-.446-1.841-.446s-1.312.149-1.841.446c-.528.298-.937.72-1.225,1.268s-.432,1.18-.432,1.897v6.032c0,.718.144,1.35.432,1.897s.696.97,1.225,1.268c.529.297,1.143.445,1.841.445s1.312-.148,1.841-.445Z" fill="#ccc"/>
        <path d="M891.504,143.753h4.744l7.66,15.774-.34.368v-16.143h3.71v20.575h-4.771l-7.633-15.534.34-.368v15.902h-3.71v-20.575Z" fill="#ccc"/>
      </g>
    </g>
    <g>
      <rect x="338.184" y="346.058" width="140.806" height="35.633" fill="none"/>
      <path d="M362.688,353.579h15.095v3.738h-15.095v-3.738ZM368.295,355.263h3.88v18.904h-3.88v-18.904Z" fill="#ccc"/>
      <path d="M385.563,353.579h2.464l7.873,20.589h-4.177l-4.928-14.061-4.928,14.061h-4.178l7.873-20.589ZM381.471,367.131h10.832v3.738h-10.832v-3.738Z" fill="#ccc"/>
      <path d="M401.217,373.481c-1.114-.6-1.964-1.473-2.549-2.62-.586-1.146-.878-2.532-.878-4.156v-5.649c0-1.624.292-3.009.878-4.156.585-1.146,1.435-2.022,2.549-2.626,1.113-.604,2.454-.906,4.021-.906,1.293,0,2.449.278,3.469.835s1.862,1.366,2.528,2.429c.665,1.062,1.125,2.344,1.38,3.844h-4.021c-.15-.68-.385-1.26-.7-1.741-.316-.481-.699-.85-1.147-1.104s-.951-.383-1.508-.383c-.728,0-1.346.149-1.855.446-.51.298-.898.731-1.168,1.303-.269.571-.403,1.258-.403,2.061v5.649c0,.803.135,1.487.403,2.054.27.566.658.998,1.168,1.296.51.297,1.128.445,1.855.445.566,0,1.076-.125,1.529-.375s.835-.615,1.146-1.098c.312-.48.538-1.066.68-1.756h4.021c-.264,1.502-.729,2.783-1.395,3.845-.665,1.062-1.506,1.872-2.521,2.429s-2.169.836-3.462.836c-1.567,0-2.908-.3-4.021-.899Z" fill="#ccc"/>
      <path d="M422.096,353.579h2.464l7.873,20.589h-4.178l-4.928-14.061-4.928,14.061h-4.177l7.873-20.589ZM418.003,367.131h10.833v3.738h-10.833v-3.738Z" fill="#ccc"/>
      <path d="M435.881,353.579h4.743l7.661,15.774-.34.368v-16.143h3.71v20.575h-4.772l-7.632-15.534.34-.368v15.902h-3.71v-20.575Z" fill="#ccc"/>
    </g>
    <g>
      <rect x="506.995" y="346.058" width="140.806" height="35.633" fill="none"/>
      <path d="M544.366,353.579h3.88v20.589h-3.88v-20.589ZM546.32,370.429h4.942c1.274,0,2.261-.307,2.959-.92.699-.614,1.048-1.482,1.048-2.605v-6.061c0-1.124-.349-1.992-1.048-2.605-.698-.614-1.685-.921-2.959-.921h-4.942v-3.738h4.857c1.718,0,3.184.288,4.396.864,1.213.575,2.136,1.416,2.769,2.52.632,1.105.948,2.436.948,3.994v5.834c0,1.481-.305,2.775-.913,3.879-.609,1.105-1.522,1.964-2.74,2.578-1.218.613-2.709.92-4.475.92h-4.843v-3.738Z" fill="#ccc"/>
      <path d="M564.014,353.579h3.88v20.589h-3.88v-20.589ZM565.415,353.579h12.391v3.738h-12.391v-3.738ZM565.415,362.075h10.833v3.738h-10.833v-3.738ZM565.415,370.429h12.391v3.738h-12.391v-3.738Z" fill="#ccc"/>
      <path d="M585.834,374.083c-.939-.198-1.822-.488-2.648-.871-.825-.382-1.564-.843-2.216-1.38l1.799-3.201c.793.652,1.708,1.154,2.747,1.509,1.038.354,2.104.53,3.2.53,1.265,0,2.246-.214,2.945-.644.698-.43,1.048-1.036,1.048-1.819v-.015c0-.548-.156-.981-.468-1.303s-.717-.557-1.218-.708c-.5-.151-1.142-.288-1.926-.41-.028-.01-.054-.015-.078-.015-.023,0-.049-.005-.077-.015l-.312-.042c-1.379-.217-2.521-.488-3.427-.814-.906-.325-1.676-.896-2.309-1.713-.632-.816-.948-1.976-.948-3.477v-.015c0-1.33.297-2.468.892-3.412s1.459-1.664,2.592-2.159c1.133-.496,2.501-.743,4.106-.743.736,0,1.489.084,2.258.254.77.17,1.522.416,2.259.736.736.321,1.436.709,2.096,1.162l-1.643,3.285c-.793-.548-1.621-.973-2.485-1.275-.863-.302-1.691-.453-2.484-.453-1.189,0-2.11.196-2.762.588s-.977.941-.977,1.65v.014c0,.595.17,1.064.51,1.409s.76.597,1.26.757c.501.161,1.204.331,2.11.51.037.01.075.017.113.021.037.005.075.012.113.021.057.01.11.021.162.035.053.015.106.026.163.035,1.303.256,2.391.564,3.264.928.874.363,1.603.949,2.188,1.756.585.808.878,1.909.878,3.307v.028c0,1.312-.307,2.436-.921,3.37-.613.935-1.508,1.647-2.684,2.139-1.175.49-2.589.736-4.24.736-.982,0-1.942-.1-2.882-.298Z" fill="#ccc"/>
      <path d="M598.167,353.579h15.095v3.738h-15.095v-3.738ZM603.775,355.263h3.88v18.904h-3.88v-18.904Z" fill="#ccc"/>
    </g>
    <g>
      <rect x="663.37" y="346.058" width="140.806" height="35.633" fill="none"/>
      <path d="M677.106,353.579h2.464l7.873,20.589h-4.178l-4.928-14.061-4.928,14.061h-4.177l7.873-20.589ZM673.013,367.131h10.833v3.738h-10.833v-3.738Z" fill="#ccc"/>
      <path d="M698.07,353.579h3.115l3.937,13.735,2.647-13.735h3.993l-4.743,20.589h-3.653l-3.653-14.387-3.823,14.387h-3.653l-4.744-20.589h3.993l2.648,13.735,3.937-13.735Z" fill="#ccc"/>
      <path d="M715.21,353.579h3.88v20.589h-3.88v-20.589ZM716.938,370.429h12.064v3.738h-12.064v-3.738Z" fill="#ccc"/>
      <path d="M733.724,378.076h-3.682l9.204-26.933h3.682l-9.204,26.933Z" fill="#ccc"/>
      <path d="M744.607,353.579h3.88v20.589h-3.88v-20.589ZM746.376,362.443h6.585c.462,0,.871-.106,1.225-.318.354-.213.63-.513.828-.899s.298-.831.298-1.331c0-.51-.097-.961-.29-1.353-.194-.392-.468-.693-.821-.906-.354-.212-.768-.318-1.239-.318h-6.585v-3.738h6.485c1.284,0,2.415.262,3.392.786.978.523,1.734,1.263,2.272,2.216s.808,2.058.808,3.313-.27,2.357-.808,3.307c-.538.948-1.295,1.683-2.272,2.201-.977.52-2.107.779-3.392.779h-6.485v-3.738Z" fill="#ccc"/>
      <path d="M766.278,373.481c-1.114-.6-1.964-1.473-2.549-2.62-.586-1.146-.878-2.532-.878-4.156v-5.649c0-1.624.292-3.009.878-4.156.585-1.146,1.435-2.022,2.549-2.626,1.113-.604,2.454-.906,4.021-.906,1.293,0,2.449.278,3.469.835s1.862,1.366,2.528,2.429c.665,1.062,1.125,2.344,1.38,3.844h-4.021c-.15-.68-.385-1.26-.7-1.741-.316-.481-.699-.85-1.147-1.104s-.951-.383-1.508-.383c-.728,0-1.346.149-1.855.446-.51.298-.898.731-1.168,1.303-.269.571-.403,1.258-.403,2.061v5.649c0,.803.135,1.487.403,2.054.27.566.658.998,1.168,1.296.51.297,1.128.445,1.855.445.566,0,1.076-.125,1.529-.375s.835-.615,1.146-1.098c.312-.48.538-1.066.68-1.756h4.021c-.264,1.502-.729,2.783-1.395,3.845-.665,1.062-1.506,1.872-2.521,2.429s-2.169.836-3.462.836c-1.567,0-2.908-.3-4.021-.899Z" fill="#ccc"/>
      <path d="M781.833,353.579h3.88v20.589h-3.88v-20.589ZM783.787,370.429h4.941c1.274,0,2.261-.307,2.96-.92.698-.614,1.048-1.482,1.048-2.605v-6.061c0-1.124-.35-1.992-1.048-2.605-.699-.614-1.686-.921-2.96-.921h-4.941v-3.738h4.856c1.719,0,3.184.288,4.397.864,1.213.575,2.136,1.416,2.768,2.52.633,1.105.949,2.436.949,3.994v5.834c0,1.481-.305,2.775-.913,3.879-.609,1.105-1.522,1.964-2.74,2.578-1.218.613-2.71.92-4.475.92h-4.843v-3.738Z" fill="#ccc"/>
    </g>
    <g>
      <rect x="828.243" y="346.058" width="140.806" height="35.633" fill="none"/>
      <path d="M871.672,353.579h3.993l4.375,13.735,4.376-13.735h3.993l-6.854,20.589h-3.03l-6.854-20.589Z" fill="#ccc"/>
      <path d="M891.857,353.579h3.88v20.589h-3.88v-20.589ZM893.259,353.579h12.39v3.738h-12.39v-3.738ZM893.259,362.075h10.832v3.738h-10.832v-3.738ZM893.259,370.429h12.39v3.738h-12.39v-3.738Z" fill="#ccc"/>
      <path d="M913.09,373.481c-1.114-.6-1.964-1.473-2.549-2.62-.586-1.146-.878-2.532-.878-4.156v-5.649c0-1.624.292-3.009.878-4.156.585-1.146,1.435-2.022,2.549-2.626,1.113-.604,2.454-.906,4.021-.906,1.293,0,2.449.278,3.469.835s1.862,1.366,2.528,2.429c.665,1.062,1.125,2.344,1.38,3.844h-4.021c-.15-.68-.385-1.26-.7-1.741-.316-.481-.699-.85-1.147-1.104s-.951-.383-1.508-.383c-.728,0-1.346.149-1.855.446-.51.298-.898.731-1.168,1.303-.269.571-.403,1.258-.403,2.061v5.649c0,.803.135,1.487.403,2.054.27.566.658.998,1.168,1.296.51.297,1.128.445,1.855.445.566,0,1.076-.125,1.529-.375s.835-.615,1.146-1.098c.312-.48.538-1.066.68-1.756h4.021c-.264,1.502-.729,2.783-1.395,3.845-.665,1.062-1.506,1.872-2.521,2.429s-2.169.836-3.462.836c-1.567,0-2.908-.3-4.021-.899Z" fill="#ccc"/>
    </g>
    <g>
      <rect x="1000.039" y="346.058" width="140.806" height="35.633" fill="none"/>
      <path d="M1054.067,353.579h5.111v20.589h-3.525v-15.986l.142.906-3.937,12.786h-3.427l-3.937-12.503.142-1.189v15.986h-3.526v-20.589h5.112l3.923,13.877,3.922-13.877Z" fill="#ccc"/>
      <path d="M1070.216,353.579h2.464l7.873,20.589h-4.178l-4.928-14.061-4.928,14.061h-4.177l7.873-20.589ZM1066.123,367.131h10.833v3.738h-10.833v-3.738Z" fill="#ccc"/>
      <path d="M1084,353.579h4.744l7.66,15.774-.34.368v-16.143h3.711v20.575h-4.772l-7.632-15.534.34-.368v15.902h-3.711v-20.575Z" fill="#ccc"/>
    </g>
    <g>
      <rect x="567.276" y="-18.426" width="254.168" height="86.676" fill="none"/>
      <path d="M619.501,8.938h6.021v31.948h-6.021V8.938ZM622.247,22.693h10.218c.718,0,1.352-.165,1.9-.494.55-.33.978-.795,1.285-1.396s.462-1.289.462-2.065c0-.791-.15-1.49-.45-2.099-.301-.607-.726-1.076-1.274-1.406-.55-.329-1.19-.494-1.923-.494h-10.218v-5.801h10.063c1.992,0,3.747.406,5.263,1.22,1.517.812,2.691,1.959,3.526,3.438s1.253,3.193,1.253,5.142-.418,3.658-1.253,5.131c-.835,1.472-2.01,2.611-3.526,3.416-1.516.807-3.271,1.209-5.263,1.209h-10.063v-5.801Z" fill="#ccc"/>
      <path d="M653.361,39.755c-1.766-.974-3.131-2.351-4.098-4.131-.967-1.779-1.45-3.841-1.45-6.185v-9.053c0-2.344.483-4.406,1.45-6.186.967-1.78,2.332-3.157,4.098-4.131,1.765-.975,3.805-1.461,6.119-1.461s4.354.486,6.12,1.461c1.765.974,3.131,2.351,4.098,4.131.967,1.779,1.45,3.842,1.45,6.186v9.053c0,2.344-.483,4.405-1.45,6.185-.967,1.78-2.333,3.157-4.098,4.131-1.766.975-3.806,1.462-6.12,1.462s-4.354-.487-6.119-1.462ZM662.336,34.504c.82-.462,1.454-1.117,1.901-1.967.446-.85.67-1.831.67-2.944v-9.36c0-1.113-.224-2.095-.67-2.944-.447-.85-1.081-1.505-1.901-1.967-.82-.461-1.772-.692-2.856-.692s-2.036.231-2.856.692c-.82.462-1.454,1.117-1.9,1.967-.447.85-.67,1.831-.67,2.944v9.36c0,1.113.223,2.095.67,2.944.446.85,1.08,1.505,1.9,1.967.82.461,1.772.691,2.856.691s2.036-.23,2.856-.691Z" fill="#ccc"/>
      <path d="M692.032,8.938h4.834l6.108,21.313,4.108-21.313h6.196l-7.36,31.948h-5.669l-5.669-22.324-5.933,22.324h-5.669l-7.361-31.948h6.196l4.109,21.313,6.108-21.313Z" fill="#ccc"/>
      <path d="M718.63,8.938h6.021v31.948h-6.021V8.938ZM720.805,8.938h19.227v5.801h-19.227v-5.801ZM720.805,22.122h16.81v5.801h-16.81v-5.801ZM720.805,35.086h19.227v5.801h-19.227v-5.801Z" fill="#ccc"/>
      <path d="M746.919,8.916h6.021v31.971h-6.021V8.916ZM749.315,22.232h11.118c.615,0,1.157-.154,1.626-.462s.831-.747,1.087-1.318c.257-.571.393-1.23.407-1.978,0-.747-.129-1.406-.385-1.978-.257-.571-.619-1.011-1.088-1.318s-1.018-.462-1.647-.462h-11.118v-5.801h11.602c1.758,0,3.303.396,4.636,1.188s2.366,1.907,3.099,3.351c.732,1.442,1.099,3.116,1.099,5.021s-.366,3.578-1.099,5.021c-.732,1.443-1.77,2.56-3.109,3.351-1.341.791-2.882,1.188-4.625,1.188h-11.602v-5.801ZM756.038,27.044l6.438-1.011,8.613,14.854h-7.295l-7.756-13.843Z" fill="#ccc"/>
    </g>
    <g>
      <rect x="566.029" y="32.467" width="254.168" height="86.676" fill="none"/>
      <path d="M650.673,59.831h6.021v31.948h-6.021v-31.948ZM653.464,73.037h18.61v5.801h-18.61v-5.801ZM668.163,59.831h6.021v31.948h-6.021v-31.948Z" fill="#ccc"/>
      <path d="M687.51,90.714c-1.743-.931-3.068-2.285-3.977-4.065-.908-1.779-1.362-3.922-1.362-6.427v-20.391h6.021v20.544c0,1.832.49,3.252,1.472,4.264.981,1.01,2.366,1.516,4.153,1.516,1.802,0,3.197-.506,4.186-1.516.989-1.012,1.483-2.432,1.483-4.264v-20.544h6.021v20.391c0,2.505-.458,4.647-1.373,6.427-.916,1.78-2.249,3.135-3.999,4.065-1.751.93-3.856,1.396-6.317,1.396s-4.563-.466-6.307-1.396Z" fill="#ccc"/>
      <path d="M713.053,59.831h6.021v31.948h-6.021v-31.948ZM716.085,85.978h7.669c1.978,0,3.508-.476,4.592-1.428s1.626-2.3,1.626-4.043v-9.404c0-1.743-.542-3.091-1.626-4.043s-2.614-1.429-4.592-1.429h-7.669v-5.801h7.537c2.666,0,4.939.447,6.822,1.341,1.882.894,3.314,2.197,4.296,3.91.981,1.715,1.472,3.779,1.472,6.197v9.053c0,2.3-.473,4.307-1.417,6.02-.945,1.715-2.362,3.048-4.252,4s-4.204,1.428-6.943,1.428h-7.515v-5.801Z" fill="#ccc"/>
    </g>
    <g>
      <rect x="869.996" y="32.467" width="254.168" height="86.676" fill="none"/>
      <path d="M899.545,59.831h6.021v31.948h-6.021v-31.948ZM902.335,73.037h18.611v5.801h-18.611v-5.801ZM917.035,59.831h6.021v31.948h-6.021v-31.948Z" fill="#ccc"/>
      <path d="M937.052,91.647c-1.458-.308-2.827-.758-4.109-1.352-1.281-.593-2.428-1.308-3.438-2.142l2.791-4.967c1.23,1.012,2.651,1.791,4.263,2.341,1.611.549,3.267.823,4.966.823,1.963,0,3.486-.333,4.57-.999,1.084-.667,1.626-1.607,1.626-2.823v-.022c0-.85-.242-1.523-.726-2.021s-1.113-.864-1.89-1.099-1.772-.446-2.988-.637c-.044-.015-.084-.022-.121-.022-.036,0-.076-.007-.12-.022l-.483-.065c-2.139-.337-3.911-.758-5.317-1.264-1.406-.505-2.601-1.392-3.582-2.658-.981-1.268-1.472-3.065-1.472-5.395v-.022c0-2.064.461-3.83,1.384-5.295s2.264-2.582,4.021-3.351c1.758-.77,3.882-1.153,6.372-1.153,1.143,0,2.311.131,3.504.395,1.194.264,2.362.646,3.505,1.143,1.143.499,2.227,1.1,3.252,1.803l-2.549,5.098c-1.23-.85-2.516-1.509-3.856-1.979-1.34-.468-2.625-.703-3.855-.703-1.846,0-3.274.305-4.285.912-1.011.608-1.516,1.461-1.516,2.561v.021c0,.923.264,1.651.791,2.187.527.534,1.179.927,1.955,1.175.776.25,1.868.514,3.274.791.059.016.117.026.176.033.059.008.117.019.176.033.088.015.172.033.252.055.081.022.165.041.253.055,2.021.396,3.71.876,5.064,1.439,1.355.564,2.487,1.473,3.396,2.725.908,1.253,1.362,2.963,1.362,5.131v.044c0,2.036-.477,3.779-1.429,5.229s-2.34,2.557-4.164,3.318c-1.823.762-4.017,1.143-6.58,1.143-1.523,0-3.015-.154-4.472-.462Z" fill="#ccc"/>
      <path d="M960.145,59.831h6.021v31.948h-6.021v-31.948ZM963.177,85.978h7.669c1.978,0,3.508-.476,4.592-1.428s1.626-2.3,1.626-4.043v-9.404c0-1.743-.542-3.091-1.626-4.043s-2.614-1.429-4.592-1.429h-7.669v-5.801h7.537c2.666,0,4.939.447,6.822,1.341,1.882.894,3.314,2.197,4.296,3.91.981,1.715,1.472,3.779,1.472,6.197v9.053c0,2.3-.473,4.307-1.417,6.02-.945,1.715-2.362,3.048-4.252,4s-4.204,1.428-6.943,1.428h-7.515v-5.801Z" fill="#ccc"/>
      <path d="M992.61,97.844h-5.713l14.282-41.792h5.713l-14.282,41.792Z" fill="#ccc"/>
      <path d="M1009.495,59.831h6.021v31.948h-6.021v-31.948ZM1011.67,59.831h19.227v5.801h-19.227v-5.801ZM1011.67,73.014h16.81v5.801h-16.81v-5.801ZM1011.67,85.978h19.227v5.801h-19.227v-5.801Z" fill="#ccc"/>
      <path d="M1042.443,90.714c-1.729-.931-3.047-2.285-3.955-4.065-.908-1.779-1.362-3.929-1.362-6.449v-8.767c0-2.52.454-4.669,1.362-6.449.908-1.779,2.227-3.138,3.955-4.075s3.809-1.406,6.24-1.406c2.007,0,3.802.432,5.384,1.296s2.889,2.12,3.922,3.769c1.032,1.647,1.747,3.637,2.143,5.965h-6.24c-.234-1.055-.598-1.955-1.088-2.702-.491-.747-1.084-1.318-1.78-1.714-.695-.396-1.476-.594-2.34-.594-1.128,0-2.087.231-2.878.692-.791.462-1.396,1.136-1.813,2.021-.417.887-.626,1.952-.626,3.197v8.767c0,1.246.209,2.308.626,3.187.418.879,1.022,1.549,1.813,2.011.791.461,1.75.691,2.878.691.879,0,1.67-.193,2.373-.582.703-.388,1.297-.955,1.78-1.703.483-.746.835-1.654,1.055-2.725h6.24c-.41,2.33-1.132,4.318-2.165,5.966-1.032,1.648-2.336,2.904-3.911,3.769-1.574.864-3.365,1.297-5.372,1.297-2.432,0-4.512-.466-6.24-1.396Z" fill="#ccc"/>
      <path d="M1086.685,59.831h7.932v31.948h-5.471v-24.807l.22,1.406-6.108,19.841h-5.317l-6.108-19.401.22-1.846v24.807h-5.472v-31.948h7.933l6.086,21.533,6.087-21.533Z" fill="#ccc"/>
    </g>
    <g>
      <rect x="267.184" y="32.467" width="254.168" height="86.676" fill="none"/>
      <path d="M368.533,59.831h6.021v31.948h-6.021v-31.948ZM371.566,85.978h7.669c1.978,0,3.508-.476,4.592-1.428s1.626-2.3,1.626-4.043v-9.404c0-1.743-.542-3.091-1.626-4.043s-2.614-1.429-4.592-1.429h-7.669v-5.801h7.537c2.666,0,4.939.447,6.822,1.341,1.882.894,3.314,2.197,4.296,3.91.981,1.715,1.472,3.779,1.472,6.197v9.053c0,2.3-.473,4.307-1.417,6.02-.945,1.715-2.362,3.048-4.252,4s-4.204,1.428-6.943,1.428h-7.515v-5.801Z" fill="#ccc"/>
      <path d="M399.021,59.831h6.021v31.948h-6.021v-31.948ZM401.767,73.586h10.218c.718,0,1.352-.165,1.9-.494.55-.33.978-.795,1.285-1.396s.462-1.289.462-2.065c0-.791-.15-1.49-.45-2.099-.301-.607-.726-1.076-1.274-1.406-.55-.329-1.19-.494-1.923-.494h-10.218v-5.801h10.063c1.992,0,3.747.406,5.263,1.22,1.517.812,2.691,1.959,3.526,3.438s1.253,3.193,1.253,5.142-.418,3.658-1.253,5.131c-.835,1.472-2.01,2.611-3.526,3.416-1.516.807-3.271,1.209-5.263,1.209h-10.063v-5.801Z" fill="#ccc"/>
    </g>
    <g>
      <rect x="611.923" y="264.273" width="254.168" height="86.676" fill="none"/>
      <path d="M623.784,323.453c-1.458-.308-2.827-.758-4.109-1.352-1.281-.593-2.428-1.308-3.438-2.142l2.791-4.967c1.23,1.012,2.651,1.791,4.263,2.341,1.611.549,3.267.823,4.966.823,1.963,0,3.486-.333,4.57-.999,1.084-.667,1.626-1.607,1.626-2.823v-.022c0-.85-.242-1.523-.726-2.021s-1.113-.864-1.89-1.099-1.772-.446-2.988-.637c-.044-.015-.084-.022-.121-.022-.036,0-.076-.007-.12-.022l-.483-.065c-2.139-.337-3.911-.758-5.317-1.264-1.406-.505-2.601-1.392-3.582-2.658-.981-1.268-1.472-3.065-1.472-5.395v-.022c0-2.064.461-3.83,1.384-5.295s2.264-2.582,4.021-3.351c1.758-.77,3.882-1.153,6.372-1.153,1.143,0,2.311.131,3.504.395,1.194.264,2.362.646,3.505,1.143,1.143.499,2.227,1.1,3.252,1.803l-2.549,5.098c-1.23-.85-2.516-1.509-3.856-1.979-1.34-.468-2.625-.703-3.855-.703-1.846,0-3.274.305-4.285.912-1.011.608-1.516,1.461-1.516,2.561v.021c0,.923.264,1.651.791,2.187.527.534,1.179.927,1.955,1.175.776.25,1.868.514,3.274.791.059.016.117.026.176.033.059.008.117.019.176.033.088.015.172.033.252.055.081.022.165.041.253.055,2.021.396,3.71.876,5.064,1.439,1.355.564,2.487,1.473,3.396,2.725.908,1.253,1.362,2.963,1.362,5.131v.044c0,2.036-.477,3.779-1.429,5.229s-2.34,2.557-4.164,3.318c-1.823.762-4.017,1.143-6.58,1.143-1.523,0-3.015-.154-4.472-.462Z" fill="#ccc"/>
      <path d="M642.922,291.637h23.423v5.801h-23.423v-5.801ZM651.623,294.251h6.021v29.334h-6.021v-29.334Z" fill="#ccc"/>
      <path d="M671.256,291.637h6.021v31.948h-6.021v-31.948ZM673.431,291.637h19.227v5.801h-19.227v-5.801ZM673.431,304.82h16.81v5.801h-16.81v-5.801ZM673.431,317.784h19.227v5.801h-19.227v-5.801Z" fill="#ccc"/>
      <path d="M699.545,291.637h6.021v31.948h-6.021v-31.948ZM701.721,291.637h19.226v5.801h-19.226v-5.801ZM701.721,304.82h16.809v5.801h-16.809v-5.801ZM701.721,317.784h19.226v5.801h-19.226v-5.801Z" fill="#ccc"/>
      <path d="M727.835,291.614h6.021v31.971h-6.021v-31.971ZM730.23,304.93h11.118c.615,0,1.157-.154,1.626-.462s.831-.747,1.088-1.318c.256-.571.392-1.23.406-1.978,0-.747-.128-1.406-.384-1.978-.257-.571-.619-1.011-1.088-1.318s-1.019-.462-1.648-.462h-11.118v-5.801h11.602c1.758,0,3.304.396,4.637,1.188s2.365,1.907,3.098,3.351c.732,1.442,1.099,3.116,1.099,5.021s-.366,3.578-1.099,5.021c-.732,1.443-1.769,2.56-3.108,3.351-1.341.791-2.883,1.188-4.626,1.188h-11.602v-5.801ZM736.953,309.742l6.438-1.011,8.613,14.854h-7.295l-7.757-13.843Z" fill="#ccc"/>
      <path d="M776.701,322.519c-1.729-.931-3.047-2.285-3.955-4.065-.908-1.779-1.362-3.929-1.362-6.449v-8.767c0-2.52.454-4.669,1.362-6.449.908-1.779,2.227-3.138,3.955-4.075s3.809-1.406,6.24-1.406c2.007,0,3.802.432,5.384,1.296s2.889,2.12,3.922,3.769c1.032,1.647,1.747,3.637,2.143,5.965h-6.24c-.234-1.055-.598-1.955-1.088-2.702-.491-.747-1.084-1.318-1.78-1.714-.695-.396-1.476-.594-2.34-.594-1.128,0-2.087.231-2.878.692-.791.462-1.396,1.136-1.813,2.021-.417.887-.626,1.952-.626,3.197v8.767c0,1.246.209,2.308.626,3.187.418.879,1.022,1.549,1.813,2.011.791.461,1.75.691,2.878.691.879,0,1.67-.193,2.373-.582.703-.388,1.297-.955,1.78-1.703.483-.746.835-1.654,1.055-2.725h6.24c-.41,2.33-1.132,4.318-2.165,5.966-1.032,1.648-2.336,2.904-3.911,3.769-1.574.864-3.365,1.297-5.372,1.297-2.432,0-4.512-.466-6.24-1.396Z" fill="#ccc"/>
      <path d="M820.944,291.637h7.932v31.948h-5.471v-24.807l.22,1.406-6.108,19.841h-5.317l-6.108-19.401.22-1.846v24.807h-5.472v-31.948h7.933l6.086,21.533,6.087-21.533Z" fill="#ccc"/>
      <path d="M837.302,291.637h6.021v31.948h-6.021v-31.948ZM840.334,317.784h7.668c1.978,0,3.509-.476,4.593-1.428s1.626-2.3,1.626-4.043v-9.404c0-1.743-.542-3.091-1.626-4.043s-2.615-1.429-4.593-1.429h-7.668v-5.801h7.536c2.666,0,4.94.447,6.823,1.341,1.882.894,3.313,2.197,4.295,3.91.981,1.715,1.473,3.779,1.473,6.197v9.053c0,2.3-.473,4.307-1.417,6.02-.945,1.715-2.362,3.048-4.252,4s-4.204,1.428-6.943,1.428h-7.515v-5.801Z" fill="#ccc"/>
    </g>
  </g>
  <g id="c" data-name="PDCP_CRUISE_TACAN_Arrows_-_Dark">
    <path d="M315.685,584.907l17.625,8.966-24.656,42.195c-38.815-15.874-84.103.46-103.449,38.49-20.379,40.061-4.367,89.234,35.694,109.613,40.061,20.379,89.233,4.367,109.613-35.695,19.346-38.03,5.88-84.252-29.805-106.277l24.656-42.195,17.625,8.966,27.535-112.651-74.837,88.589ZM309.306,649.697c34.142,17.368,47.74,59.126,30.372,93.269-17.368,34.142-59.126,47.74-93.269,30.372-34.142-17.368-47.74-59.126-30.372-93.269,17.368-34.142,59.126-47.74,93.269-30.372Z" fill="#ccc" stroke="#161923" stroke-miterlimit="10" stroke-width="4"/>
  </g>
  <g id="d" data-name="TACAN">
    <path d="M287.166,757.171v7.774h-24.878v-7.774h8.552v-79.779l-6.076,5.03-4.957-5.99,12.35-10.22h6.457v90.959h8.552Z" fill="#e3831f" stroke="#e3831f" stroke-miterlimit="10" stroke-width="3"/>
  </g>
</svg>