<?xml version="1.0" encoding="UTF-8"?>
<svg id="d" data-name="PTID_BUFFER_Readouts_-_Dark" xmlns="http://www.w3.org/2000/svg" width="2393.185" height="564.913" viewBox="0 0 2393.185 564.913">
  <g>
    <rect x="792.352" y="124.927" width="340.246" height="51.224" fill="none"/>
    <path d="M803.968,155.795h-5.757v10.468h-4.009v-25.955h14.236c3.41,0,6.175,2.764,6.175,6.175v3.138c0,3.357-2.681,6.087-6.019,6.17l6.047,10.473h-4.63s-6.043-10.469-6.043-10.469ZM798.211,144.676v6.75h10.291c1.161,0,2.103-.941,2.103-2.103v-2.544c0-1.162-.942-2.103-2.103-2.103h-10.291Z" fill="#ccc"/>
    <path d="M838.981,166.264l-2.378-7.893h-6.506l-2.383,7.893h-4.615l8.057-25.902h4.375l7.979,25.902h-4.528ZM835.287,154.002l-1.933-6.417-1.938,6.417h3.871Z" fill="#ccc"/>
    <path d="M889.168,166.261h-1.746s-14.583,0-14.583,0v.002h-4.009v-25.923h4.009v.004h12.321v-.006h4.009v25.922ZM872.838,144.578v6.555h12.321v-6.555h-12.321ZM872.838,161.969h12.321v-6.603h-12.321v6.603Z" fill="#ccc"/>
    <path d="M917.991,166.261h-1.746s-14.583,0-14.583,0v.002h-4.009v-25.925h4.009v.006h14.968v4.255h-14.968v6.534h13.16v.017h3.169v15.11ZM901.661,161.969h12.321v-6.603h-12.321v6.603Z" fill="#ccc"/>
    <path d="M926.476,166.264v-4.261h3.975v4.261h-3.975Z" fill="#ccc"/>
    <path d="M959.246,166.261h-1.746s-14.583,0-14.583,0v.002h-4.009v-25.925h4.009v.006h14.968v4.255h-14.968v6.534h13.16v.017h3.169v15.11ZM942.916,161.969h12.321v-6.603h-12.321v6.603Z" fill="#ccc"/>
  </g>
  <g>
    <rect x="1260.554" y="134.365" width="295.259" height="32.348" fill="none"/>
    <path d="M1404.916,166.264h-4.01v-19.735l-6.127,6.186-6.263-6.186v19.735h-4.011v-25.943h4.011l6.263,6.208,6.127-6.208h4.01v25.943Z" fill="#ccc"/>
    <path d="M1433.821,149.237c0,1.513-.546,2.899-1.449,3.973.903,1.074,1.449,2.459,1.449,3.973v3.552c0,3.41-2.765,5.527-6.175,5.527h-10.235s-4.009.001-4.009.001v-25.927h4.009v.003h10.235c3.41,0,6.175,2.765,6.175,6.175v2.723ZM1417.411,144.709v6.299h10.235c.126,0,.252.005.377.013,1.013-.151,1.789-1.025,1.789-2.08v-2.129c0-1.161-.941-2.103-2.103-2.103h-10.299ZM1429.812,160.438v-2.958c0-1.056-.777-1.929-1.791-2.08-.124.007-.249.012-.375.012h-10.235v6.481h10.299c1.161,0,2.103-.294,2.103-1.455h0Z" fill="#ccc"/>
    <path d="M1492.297,155.419v-.049h-12.32v6.603h15.305v4.292h-17.567s-1.746,0-1.746,0v-15.11h3.169v-.017h13.16v-6.555h-14.968v-4.233h14.968v-.004h4.009v15.075h-4.009Z" fill="#ccc"/>
    <path d="M1525.129,166.261h-1.746s-14.583,0-14.583,0v.002h-4.009v-25.925h4.009v.006h14.968v4.255h-14.968v6.534h13.16v.017h3.169v15.11ZM1508.8,161.969h12.32v-6.603h-12.32v6.603Z" fill="#ccc"/>
    <path d="M1553.952,166.263h-1.746s-17.567,0-17.567,0v-4.292h15.305v-6.603h-14.236v-.007h-2.094v-15.019l20.339-.002v25.922ZM1549.943,151.136v-6.555h-12.321v6.555h12.321Z" fill="#ccc"/>
  </g>
  <g>
    <rect x="792.352" y="173.145" width="340.246" height="51.224" fill="none"/>
    <path d="M809.163,214.482h-14.961v-25.913h4.502v21.41h10.459v4.503Z" fill="#ccc"/>
    <path d="M838.035,192.548h-8.202v21.934h-4.009v-21.934h-8.202v-4.009h20.412v4.009Z" fill="#ccc"/>
    <path d="M883.692,214.48l-20.338.002v-25.922l20.338-.002v25.922ZM867.363,210.188h12.321v-17.391h-12.321v17.391Z" fill="#ccc"/>
  </g>
  <g>
    <rect x="1260.554" y="182.583" width="295.259" height="32.348" fill="none"/>
    <path d="M1322.763,214.482l-2.378-7.894h-6.507l-2.383,7.894h-4.615l8.057-25.902h4.375l7.979,25.902h-4.528ZM1319.068,202.22l-1.934-6.418-1.938,6.418h3.871Z" fill="#ccc"/>
    <path d="M1350.738,214.482h-14.962v-25.913h4.503v21.41h10.459v4.503Z" fill="#ccc"/>
    <path d="M1403.227,194.796v8.695h8.362v2.221h-8.362v8.77h-2.368v-8.77h-8.363v-2.221h8.363v-8.695h2.368Z" fill="none" stroke="#ccc" stroke-miterlimit="10" stroke-width="3"/>
    <path d="M1438.668,203.636h0v10.845h-3.993s-14.97,0-14.97,0v-4.295h14.954v-6.601h-13.158v-4.233h13.159v-6.555h-14.968v-4.233h14.968v-.004h4.009v15.075Z" fill="#ccc"/>
    <path d="M1467.485,203.637h0v10.845h-4.009v-10.865h-16.331v-15.066h4.012v10.804h12.32v-10.792h4.009v15.075Z" fill="#ccc"/>
    <path d="M1496.306,214.481h-1.746s-17.567,0-17.567,0v-4.292h15.305v-6.603h-14.236v-.007h-2.093v-15.02l20.338-.002v25.922ZM1492.297,199.354v-6.556h-12.32v6.556h12.32Z" fill="#ccc"/>
    <path d="M1525.129,214.479h-16.33v.003h-4.009v-25.923h4.009v.004h12.321v-.007h4.009v25.923ZM1508.799,192.796v6.555h12.321v-6.555h-12.321ZM1508.799,210.187h12.321v-6.603h-12.321v6.603Z" fill="#ccc"/>
    <path d="M1553.951,214.481h-1.746s-17.567,0-17.567,0v-4.292h15.305v-6.603h-12.32v.049h-4.009v-15.075h4.009v.004h14.968v4.233h-14.968v6.556h13.16v.017h3.169v15.11Z" fill="#ccc"/>
  </g>
  <polyline points="1133.519 269.801 1133.519 248.409 1175.519 248.409 1175.519 269.801" fill="none" stroke="#ccc" stroke-miterlimit="10" stroke-width="4"/>
  <line x1="1154.519" y1="266.76" x2="1161.648" y2="429.487" fill="none" stroke="#ccc" stroke-miterlimit="10" stroke-width="4"/>
  <rect x="1151.926" y="264.167" width="5.185" height="5.185" rx="2.592" ry="2.592" fill="#ccc" stroke="#ccc" stroke-miterlimit="10" stroke-width="4"/>
  <g>
    <rect x="1063.084" y="252.061" width="66.261" height="40.696" fill="none"/>
    <path d="M1100.871,273.779h0v11.431h-4.209s-15.778,0-15.778,0v-4.527h15.762v-6.956h-13.87v-4.463h13.871v-6.908h-15.777v-4.463h15.777v-.004h4.225v15.89Z" fill="#ccc"/>
    <path d="M1127.382,285.211h-20.356v-4.523h16.131v-6.96h-12.986v.053h-4.225v-15.89h4.225v.004h15.777v4.462h-15.777v6.909h13.871v.019h3.341v15.927Z" fill="#ccc"/>
  </g>
  <polyline points="1133.519 272.409 1154.519 293.083 1175.519 272.562" fill="none" stroke="#ccc" stroke-miterlimit="10" stroke-width="4"/>
</svg>