<?xml version="1.0" encoding="UTF-8"?>
<svg xmlns="http://www.w3.org/2000/svg" width="1320.196" height="1198.109" viewBox="0 0 1320.196 1198.109">
  <g id="f" data-name="PTID_-_Dark">
    <g>
      <rect x="-1010.99" y="-1055.367" width="1580" height="1589" fill="none" stroke="#ccc" stroke-miterlimit="10" stroke-width="3"/>
      <rect x="-1028.045" y="-1080.867" width="1610.609" height="1643" rx="37.742" ry="37.742" fill="none" stroke="#ccc" stroke-miterlimit="10" stroke-width="8"/>
      <rect x="638.944" y="23.597" width="116" height="12" rx="6" ry="6" transform="translate(1393.889 59.194) rotate(-180)" fill="none" stroke="#ccc" stroke-miterlimit="10" stroke-width="5"/>
      <g>
        <rect x="649.444" y="79.097" width="94" height="96" transform="translate(1392.889 254.194) rotate(-180)" fill="none" stroke="#ccc" stroke-miterlimit="10" stroke-width="8"/>
        <polyline points="650.944 179.097 747.944 179.097 747.944 81.097" fill="none" stroke="#ccc" stroke-miterlimit="10" stroke-width="12"/>
        <polygon points="660.445 126.597 708.444 112.097 708.444 123.097 734.444 123.097 734.444 131.097 708.444 131.097 708.444 141.097 660.445 126.597" fill="#ccc"/>
        <rect x="638.944" y="215.597" width="116" height="12" rx="6" ry="6" transform="translate(1393.889 443.194) rotate(180)" fill="none" stroke="#ccc" stroke-miterlimit="10" stroke-width="5"/>
      </g>
      <g>
        <rect x="652.944" y="270.097" width="94" height="96" transform="translate(1399.889 636.194) rotate(-180)" fill="none" stroke="#ccc" stroke-miterlimit="10" stroke-width="8"/>
        <polyline points="653.444 372.097 750.444 372.097 750.444 274.097" fill="none" stroke="#ccc" stroke-miterlimit="10" stroke-width="12"/>
        <polygon points="663.945 317.597 711.944 303.097 711.944 314.097 737.944 314.097 737.944 322.097 711.944 322.097 711.944 332.097 663.945 317.597" fill="#ccc"/>
      </g>
      <rect x="-29.556" y="651.187" width="116" height="12" rx="6" ry="6" transform="translate(-628.743 685.632) rotate(-90)" fill="none" stroke="#ccc" stroke-miterlimit="10" stroke-width="5"/>
      <g>
        <rect x="78.944" y="608.687" width="94" height="96" transform="translate(-530.743 782.632) rotate(-90)" fill="none" stroke="#ccc" stroke-miterlimit="10" stroke-width="8"/>
        <polygon points="125.444 620.688 110.944 668.688 121.944 668.688 121.944 694.687 129.944 694.687 129.944 668.688 139.944 668.688 125.444 620.688" fill="#ccc"/>
        <rect x="162.444" y="651.187" width="116" height="12" rx="6" ry="6" transform="translate(-436.743 877.632) rotate(-90)" fill="none" stroke="#ccc" stroke-miterlimit="10" stroke-width="5"/>
      </g>
      <g>
        <rect x="269.944" y="609.187" width="94" height="96" transform="translate(-340.243 974.132) rotate(-90)" fill="none" stroke="#ccc" stroke-miterlimit="10" stroke-width="8"/>
        <polygon points="316.444 621.188 301.944 669.188 312.944 669.188 312.944 695.187 320.944 695.187 320.944 669.188 330.944 669.188 316.444 621.188" fill="#ccc"/>
      </g>
      <polyline points="82.01 711.8 179.01 711.8 179.01 613.8" fill="none" stroke="#ccc" stroke-miterlimit="10" stroke-width="12"/>
      <polyline points="275.01 711.8 372.01 711.8 372.01 613.8" fill="none" stroke="#ccc" stroke-miterlimit="10" stroke-width="12"/>
    </g>
    <path d="M-1324.351-1330.976H888.761V379.644c0,282.905-229.34,512.245-512.245,512.245H-811.955c-279.895,0-507.006-226.499-507.762-506.392l-4.634-1716.472Z" fill="none" stroke="#ccc" stroke-miterlimit="10" stroke-width="14"/>
    <circle cx="826.494" cy="285.721" r="34.51" fill="none" stroke="#ccc" stroke-miterlimit="10" stroke-width="2"/>
    <polygon points="823.493 263.215 830.995 263.215 830.995 282.72 849 282.72 849 291.723 830.995 291.723 830.995 309.728 823.493 309.728 823.493 291.723 803.988 291.723 803.988 282.72 821.993 282.72 821.993 263.215 823.493 263.215" fill="none" stroke="#ccc" stroke-miterlimit="10" stroke-width="2"/>
    <circle cx="436.386" cy="834.873" r="34.51" fill="none" stroke="#ccc" stroke-miterlimit="10" stroke-width="2"/>
    <polygon points="433.385 812.367 440.887 812.367 440.887 831.872 458.892 831.872 458.892 840.875 440.887 840.875 440.887 858.88 433.385 858.88 433.385 840.875 413.88 840.875 413.88 831.872 431.885 831.872 431.885 812.367 433.385 812.367" fill="none" stroke="#ccc" stroke-miterlimit="10" stroke-width="2"/>
    <path d="M782.97,272.857l.161-.569c3.531-9.414,10.63-17.057,19.757-21.271l2.243-1.035c4.83-2.229,10.087-3.384,15.406-3.384h67.27s-.138,37.264-.138,37.264v38.25h-67.271c-5.321,0-10.578-1.155-15.409-3.385l-2.238-1.033c-9.129-4.214-16.228-11.857-19.757-21.271l-.352-1.398c-1.836-7.29-1.722-14.935.329-22.168Z" fill="none" stroke="#ccc" stroke-miterlimit="10" stroke-width="4"/>
    <path d="M665.95,797.363h-238.609c-17.378,0-31.466,14.088-31.466,31.466v66.061" fill="none" stroke="#ccc" stroke-miterlimit="10" stroke-width="4"/>
  </g>
  <g id="g" data-name="Cutout_Box_-_Dark">
    <rect x="8.543" y="8.543" width="917.217" height="932.87" fill="none" stroke="#ccc" stroke-miterlimit="10" stroke-width="17"/>
  </g>
  <g id="h" data-name="PTID_TAC_PAGE_NAV_DEST_-_Dark">
    <g>
      <rect x="498.513" y="239.282" width="37.043" height="165.392" fill="none"/>
      <path d="M524.043,262.84v20.254c0,2.353-1.907,4.26-4.26,4.26l-3.854-.009c-1.221-.002-3.034-.625-3.857-1.356-.914-.813-1.933-2.536-2.049-3.328-.034-.229.143-.433.373-.433h3.355c.205,0,.393.128.458.322.02.061.052.126.103.193.168.228.442.351.725.351h3.013c.958,0,1.734-.776,1.734-1.734v-18.52h4.26Z" fill="#ccc"/>
      <path d="M526.683,320.353h-3.794v-18.669l-5.795,5.852-5.926-5.852v18.669h-3.794v-24.542h3.794l5.926,5.873,5.795-5.873h3.794v24.542Z" fill="#ccc"/>
      <path d="M511.22,332.859v6.199h15.446v14.295h-19.274l.002-4.065h15.445v-6.198h-15.447v-14.262h19.274v4.031h-15.446Z" fill="#ccc"/>
      <path d="M526.682,386.351h-3.79v.002-.002h-.002v-.002l-11.723-17.628v17.63h-3.793v-24.534h3.793l11.723,17.588v-17.589h3.792v24.535Z" fill="#ccc"/>
    </g>
    <g>
      <rect x="497.542" y="50.412" width="37.043" height="165.392" fill="none"/>
      <path d="M525.74,86.179c0,6.772-5.466,12.301-12.239,12.301l-7.11.004-.004-24.547h7.09c6.773,0,12.264,5.469,12.264,12.242ZM521.619,86.19c0-4.336-2.615-8.133-6.95-8.133h-4.44l.065,16.34h4.456c4.335,0,6.869-3.873,6.869-8.207Z" fill="#ccc"/>
      <path d="M510.097,110.994v6.202l15.644.035v4.025l-15.637-.036v6.202l15.637.035v4.025l-19.334-.036v-4.024h.004v-6.202h-.004v-1.272h-.003v-12.943h.003v-.035h19.334v4.024h-15.644Z" fill="#ccc"/>
      <path d="M510.25,143.989v6.199h15.446v14.295h-19.274l.002-4.065h15.444v-6.198h-15.446v-14.262h19.274v4.031h-15.446Z" fill="#ccc"/>
      <path d="M525.714,176.733h-7.759v20.75h-3.792v-20.75h-7.759v-3.791h19.31v3.791Z" fill="#ccc"/>
    </g>
    <g>
      <rect x="145.645" y="49.688" width="60.308" height="32.348" fill="none"/>
      <path d="M167.914,64.56c0,1.513-.545,2.898-1.449,3.973.904,1.073,1.449,2.459,1.449,3.973v3.552c0,3.41-2.765,5.527-6.175,5.527h-10.235v.002h-4.009v-25.927h4.009v.003h10.235c3.41,0,6.175,2.765,6.175,6.175v2.723ZM151.504,60.031v6.3h10.235c.127,0,.253.005.377.013,1.013-.151,1.79-1.025,1.79-2.08v-2.129c0-1.161-.941-2.104-2.104-2.104h-10.299ZM163.906,75.761v-2.958c0-1.056-.778-1.93-1.792-2.08-.124.008-.249.013-.375.013h-10.235v6.481h10.299c1.162,0,2.104-.294,2.104-1.455h0Z" fill="#ccc"/>
      <path d="M188.631,72.108v9.479h-4.026v-9.587l-8.214-14.11,3.801-2.177,6.458,11.095,6.457-11.095,3.801,2.177-8.276,14.219Z" fill="#ccc"/>
    </g>
  </g>
  <g id="i" data-name="PTID_TAC_PAGE_OFLY_Steer_-_Dark">
    <g>
      <rect x="48.029" y="464.609" width="181.21" height="34.435" fill="none"/>
      <path d="M68.76,472.172h7.269c3.326,0,6.022,2.696,6.022,6.022v12.483c0,3.326-2.696,6.023-6.022,6.023h-7.269c-3.326,0-6.022-2.696-6.022-6.022v-12.484c0-3.326,2.696-6.022,6.022-6.022ZM70.5,492.908h3.752c2.213,0,4.007-1.794,4.007-4.007v-8.984c0-2.183-1.77-3.953-3.952-3.953h-3.838c-2.175,0-3.938,1.764-3.938,3.938v9.036c0,2.192,1.777,3.97,3.97,3.97Z" fill="#ccc"/>
      <path d="M91.59,476.286v6.368h15.519v4.133h-15.512v9.914h-3.792v-9.914h-.005v-1.307h-.003v-13.29h.003v-.037h19.309v4.133h-15.519Z" fill="#ccc"/>
      <path d="M127.01,496.701h-14.153v-24.513h4.26v20.253h9.894v4.26Z" fill="#ccc"/>
      <path d="M144.317,487.734v8.967h-3.81v-9.069l-7.77-13.348,3.596-2.06,6.108,10.495,6.108-10.495,3.596,2.06-7.829,13.45Z" fill="#ccc"/>
      <path d="M190.756,496.699l-19.239.002v-24.521l19.239-.002v24.521ZM175.309,492.64h11.655v-16.451h-11.655v16.451Z" fill="#ccc"/>
      <path d="M214.534,486.442h0v10.259h-3.792v-14.294h0v-6.214h-14.235v-4.02h16.048v.007h1.979v14.262Z" fill="#ccc"/>
    </g>
    <path d="M399.826,1146.85h43.277v7h-52.854v-6.976l9.202-10.042c4.823-5.373,9.247-10.298,13.448-14.777,2.086-2.086,4.176-4.526,6.195-6.885,2.11-2.461,10.542-11.95,10.542-11.95.956-.963,1.495-1.642,1.855-2.09.214-.27.396-.486.546-.654,1.025-1.306,1.887-2.957,2.496-4.784.577-1.733.871-3.119.871-5.895,0-2.384-.494-4.746-1.467-7.021-.885-2.349-2.296-4.043-4.158-5.905-2.125-1.75-4.137-3.01-6.104-3.745-5.629-2.11-9.42-2.106-15.041,0-2.576.967-4.516,2.156-6.107,3.749-1.838,1.838-3.314,3.935-4.158,5.904l-6.434-2.758c1.204-2.811,3.156-5.61,5.643-8.096,2.295-2.293,5.106-4.043,8.6-5.352,7.161-2.695,12.779-2.695,19.958,0,3.581,1.344,6.485,3.577,8.362,5.138,2.296,2.279,4.592,4.876,5.936,8.46,1.292,3,1.975,6.29,1.975,9.629,0,3.683-.473,5.832-1.232,8.11-.879,2.639-2.174,5.071-3.738,7.028l-.479.57c-.47.588-1.174,1.467-2.23,2.521.008,0-8.242,9.282-10.318,11.704-2.107,2.457-4.284,4.999-6.482,7.196-4.092,4.365-8.48,9.255-13.27,14.586l-4.83,5.338-.004-.004Z" fill="#ff8500" stroke="#ff8500" stroke-miterlimit="10"/>
  </g>
  <g id="j" data-name="PTID_TAC_PAGE_NAV_LP_x2F_TGT_x2F_AUTO_x2F_OFLY_x2F_MAN_Arrows_-_Dark">
    <path d="M173.3,628.629l18.093-7.98,188.064,418.222c-36.846,20.023-52.842,65.432-35.624,104.471,18.138,41.125,66.352,59.826,107.477,41.687,41.124-18.138,59.825-66.352,41.687-107.477-17.218-39.039-61.537-57.846-101.168-44.138l-188.064-418.222,18.093-7.98-69.835-92.582,21.278,113.999ZM390.425,1046.987c35.049-15.458,75.993.423,91.451,35.471,15.458,35.049-.423,75.993-35.471,91.451-35.049,15.458-75.993-.423-91.451-35.471-15.458-35.049.423-75.993,35.471-91.451Z" fill="#ccc" stroke="#0d121e" stroke-miterlimit="10" stroke-width="4"/>
  </g>
</svg>