<?xml version="1.0" encoding="UTF-8"?>
<svg xmlns="http://www.w3.org/2000/svg" width="3071.565" height="3717.74" viewBox="0 0 3071.565 3717.74">
  <g id="Layer_11">
    <rect x="921.761" y="2663.486" width="1233.618" height="623.901" rx="18.783" ry="18.783" fill="#ccc" stroke="#ccc" stroke-miterlimit="10" stroke-width="70"/>
    <path d="M432.014,442.786h2213.112v1710.62c0,282.905-229.34,512.245-512.245,512.245H944.41c-279.895,0-507.006-226.499-507.762-506.392l-4.634-1716.472Z" fill="#ccc" stroke="#ccc" stroke-miterlimit="10" stroke-width="70"/>
  </g>
  <g id="Layer_2">
    <path d="M427.813,438.571h2213.112v1710.62c0,282.905-229.34,512.245-512.245,512.245H940.209c-279.895,0-507.006-226.499-507.762-506.392l-4.634-1716.472Z" fill="#686868" stroke="#000" stroke-miterlimit="10" stroke-width="14"/>
    <path d="M435.315,800.171h289.58v-71.661c0-21.743,17.626-39.37,39.37-39.37" fill="none" stroke="#000" stroke-miterlimit="10" stroke-width="2"/>
    <path d="M433.065,812.924h303.084v-87.937c0-14.411,11.683-26.094,26.094-26.094h773.627" fill="none" stroke="#000" stroke-miterlimit="10" stroke-width="8"/>
    <path d="M1532.869,689.89h761.852c21.743,0,39.37,17.626,39.37,39.37v71.661s289.58,0,289.58,0v-244.568h-39.728c-33.579,0-60.799-27.221-60.799-60.799v-41.229h-441.122v54.015c0,26.517-21.496,48.013-48.013,48.013h0,4.501c-20.859,0-47.263-13.901-47.263-42.762l-.75-59.266-293.117-1.396c-12.117-.058-21.97,9.749-21.97,21.866v61.662c0,14.303-11.595,25.898-25.898,25.898h-128.644" fill="none" stroke="#000" stroke-miterlimit="10" stroke-width="2"/>
    <path d="M2638.675,812.924h-315.087v-87.937c0-14.411-11.683-26.094-26.094-26.094h-764.625" fill="none" stroke="#000" stroke-miterlimit="10" stroke-width="8"/>
    <path d="M1525.367,551.852h125.709c7.638,0,13.83-6.192,13.83-13.83v-94.2h336.093v69.117c0,14.862,12.048,26.91,26.91,26.91h16.929c14.736,0,26.681-11.946,26.681-26.681v-70.846h463.628v59.739c0,23.355,18.933,42.289,42.289,42.289h59.739" fill="none" stroke="#000" stroke-miterlimit="10" stroke-width="2"/>
    <path d="M1534.369,689.89h-772.355c-21.743,0-39.37,17.626-39.37,39.37v71.661h-289.58v-244.568h39.728c33.579,0,60.799-27.221,60.799-60.799v-41.229h441.122v54.015c0,26.517,21.496,48.013,48.013,48.013h0-4.501c20.859,0,47.263-13.901,47.263-42.762l.75-59.266,293.117-1.396c12.117-.058,21.97,9.749,21.97,21.866v61.662c0,14.303,11.595,25.898,25.898,25.898h128.644" fill="none" stroke="#000" stroke-miterlimit="10" stroke-width="2"/>
    <path d="M1531.368,551.852h-125.709c-7.638,0-13.83-6.192-13.83-13.83v-94.2s-336.093,0-336.093,0v69.117c0,14.862-12.048,26.91-26.91,26.91h-16.929c-14.736,0-26.681-11.946-26.681-26.681v-70.846s-463.628,0-463.628,0v59.739c0,23.355-18.933,42.289-42.289,42.289h-52.237" fill="none" stroke="#000" stroke-miterlimit="10" stroke-width="2"/>
    <circle cx="2578.658" cy="499.337" r="34.51" fill="#494949" stroke="#000" stroke-miterlimit="10" stroke-width="2"/>
    <polygon points="2575.657 476.831 2583.159 476.831 2583.159 496.337 2601.164 496.337 2601.164 505.339 2583.159 505.339 2583.159 523.344 2575.657 523.344 2575.657 505.339 2556.152 505.339 2556.152 496.337 2574.157 496.337 2574.157 476.831 2575.657 476.831" fill="none" stroke="#000" stroke-miterlimit="10" stroke-width="2"/>
    <circle cx="2578.658" cy="1302.059" r="34.51" fill="#494949" stroke="#000" stroke-miterlimit="10" stroke-width="2"/>
    <polygon points="2575.657 1279.553 2583.159 1279.553 2583.159 1299.059 2601.164 1299.059 2601.164 1308.061 2583.159 1308.061 2583.159 1326.066 2575.657 1326.066 2575.657 1308.061 2556.152 1308.061 2556.152 1299.059 2574.157 1299.059 2574.157 1279.553 2575.657 1279.553" fill="none" stroke="#000" stroke-miterlimit="10" stroke-width="2"/>
    <circle cx="2578.658" cy="2055.268" r="34.51" fill="#494949" stroke="#000" stroke-miterlimit="10" stroke-width="2"/>
    <polygon points="2575.657 2032.762 2583.159 2032.762 2583.159 2052.267 2601.164 2052.267 2601.164 2061.269 2583.159 2061.269 2583.159 2079.274 2575.657 2079.274 2575.657 2061.269 2556.152 2061.269 2556.152 2052.267 2574.157 2052.267 2574.157 2032.762 2575.657 2032.762" fill="none" stroke="#000" stroke-miterlimit="10" stroke-width="2"/>
    <circle cx="2188.55" cy="2604.42" r="34.51" fill="#494949" stroke="#000" stroke-miterlimit="10" stroke-width="2"/>
    <polygon points="2185.549 2581.913 2193.051 2581.913 2193.051 2601.419 2211.056 2601.419 2211.056 2610.421 2193.051 2610.421 2193.051 2628.426 2185.549 2628.426 2185.549 2610.421 2166.044 2610.421 2166.044 2601.419 2184.049 2601.419 2184.049 2581.913 2185.549 2581.913" fill="none" stroke="#000" stroke-miterlimit="10" stroke-width="2"/>
    <circle cx="1529.868" cy="2604.42" r="34.51" fill="#494949" stroke="#000" stroke-miterlimit="10" stroke-width="2"/>
    <polygon points="1526.867 2581.913 1534.369 2581.913 1534.369 2601.419 1552.374 2601.419 1552.374 2610.421 1534.369 2610.421 1534.369 2628.426 1526.867 2628.426 1526.867 2610.421 1507.362 2610.421 1507.362 2601.419 1525.367 2601.419 1525.367 2581.913 1526.867 2581.913" fill="none" stroke="#000" stroke-miterlimit="10" stroke-width="2"/>
    <circle cx="871.186" cy="2604.42" r="34.51" fill="#494949" stroke="#000" stroke-miterlimit="10" stroke-width="2"/>
    <polygon points="868.185 2581.913 875.687 2581.913 875.687 2601.419 893.692 2601.419 893.692 2610.421 875.687 2610.421 875.687 2628.426 868.185 2628.426 868.185 2610.421 848.68 2610.421 848.68 2601.419 866.684 2601.419 866.684 2581.913 868.185 2581.913" fill="none" stroke="#000" stroke-miterlimit="10" stroke-width="2"/>
    <circle cx="481.078" cy="2053.767" r="34.51" fill="#494949" stroke="#000" stroke-miterlimit="10" stroke-width="2"/>
    <polygon points="478.077 2031.261 485.579 2031.261 485.579 2050.767 503.584 2050.767 503.584 2059.769 485.579 2059.769 485.579 2077.774 478.077 2077.774 478.077 2059.769 458.572 2059.769 458.572 2050.767 476.577 2050.767 476.577 2031.261 478.077 2031.261" fill="none" stroke="#000" stroke-miterlimit="10" stroke-width="2"/>
    <circle cx="481.078" cy="1302.059" r="34.51" fill="#494949" stroke="#000" stroke-miterlimit="10" stroke-width="2"/>
    <polygon points="478.077 1279.553 485.579 1279.553 485.579 1299.059 503.584 1299.059 503.584 1308.061 485.579 1308.061 485.579 1326.066 478.077 1326.066 478.077 1308.061 458.572 1308.061 458.572 1299.059 476.577 1299.059 476.577 1279.553 478.077 1279.553" fill="none" stroke="#000" stroke-miterlimit="10" stroke-width="2"/>
    <circle cx="478.077" cy="499.337" r="34.51" fill="#494949" stroke="#000" stroke-miterlimit="10" stroke-width="2"/>
    <polygon points="475.076 476.831 482.578 476.831 482.578 496.337 500.583 496.337 500.583 505.339 482.578 505.339 482.578 523.344 475.076 523.344 475.076 505.339 455.571 505.339 455.571 496.337 473.576 496.337 473.576 476.831 475.076 476.831" fill="none" stroke="#000" stroke-miterlimit="10" stroke-width="2"/>
    <circle cx="1019.727" cy="497.837" r="34.51" fill="#494949" stroke="#000" stroke-miterlimit="10" stroke-width="2"/>
    <polygon points="1016.726 475.331 1024.228 475.331 1024.228 494.836 1042.233 494.836 1042.233 503.839 1024.228 503.839 1024.228 521.844 1016.726 521.844 1016.726 503.839 997.221 503.839 997.221 494.836 1015.226 494.836 1015.226 475.331 1016.726 475.331" fill="none" stroke="#000" stroke-miterlimit="10" stroke-width="2"/>
    <circle cx="1528.367" cy="497.837" r="34.51" fill="#494949" stroke="#000" stroke-miterlimit="10" stroke-width="2"/>
    <polygon points="1525.367 475.331 1532.869 475.331 1532.869 494.836 1550.874 494.836 1550.874 503.839 1532.869 503.839 1532.869 521.844 1523.635 521.844 1523.635 503.839 1505.861 503.839 1505.861 494.836 1523.866 494.836 1523.866 475.331 1525.367 475.331" fill="none" stroke="#000" stroke-miterlimit="10" stroke-width="2"/>
    <circle cx="2035.508" cy="499.337" r="34.51" fill="#494949" stroke="#000" stroke-miterlimit="10" stroke-width="2"/>
    <polygon points="2032.507 476.831 2040.009 476.831 2040.009 496.337 2058.014 496.337 2058.014 505.339 2040.009 505.339 2040.009 523.344 2032.507 523.344 2032.507 505.339 2013.002 505.339 2013.002 496.337 2031.006 496.337 2031.006 476.831 2032.507 476.831" fill="none" stroke="#000" stroke-miterlimit="10" stroke-width="2"/>
    <path d="M522.759,1291.814l-.161-.569c-3.531-9.414-10.63-17.057-19.757-21.271l-2.243-1.035c-4.83-2.229-10.087-3.384-15.406-3.384h-53.766l.138,37.264v38.25h53.768c5.321,0,10.578-1.155,15.409-3.385l2.238-1.033c9.129-4.214,16.228-11.857,19.757-21.271l.352-1.398c1.836-7.29,1.722-14.935-.329-22.168Z" fill="none" stroke="#000" stroke-miterlimit="10" stroke-width="2"/>
    <path d="M522.713,2042.403l-.161-.569c-3.531-9.414-10.63-17.057-19.757-21.271l-2.243-1.035c-4.83-2.229-10.087-3.384-15.406-3.384h-53.766l.138,37.264v38.25h53.768c5.321,0,10.578-1.155,15.409-3.385l2.238-1.033c9.129-4.214,16.228-11.857,19.757-21.271l.352-1.398c1.836-7.29,1.722-14.935-.329-22.168Z" fill="none" stroke="#000" stroke-miterlimit="10" stroke-width="2"/>
    <path d="M2535.088,1291.814l.161-.569c3.531-9.414,10.63-17.057,19.757-21.271l2.243-1.035c4.83-2.229,10.087-3.384,15.406-3.384l65.769-1.5-.138,37.264v38.25s-65.771,1.5-65.771,1.5c-5.321,0-10.578-1.155-15.409-3.385l-2.238-1.033c-9.129-4.214-16.228-11.857-19.757-21.271l-.352-1.398c-1.836-7.29-1.722-14.935.329-22.168Z" fill="none" stroke="#000" stroke-miterlimit="10" stroke-width="2"/>
    <path d="M2535.134,2042.403l.161-.569c3.531-9.414,10.63-17.057,19.757-21.271l2.243-1.035c4.83-2.229,10.087-3.384,15.406-3.384h67.27s-.138,37.264-.138,37.264v38.25h-67.271c-5.321,0-10.578-1.155-15.409-3.385l-2.238-1.033c-9.129-4.214-16.228-11.857-19.757-21.271l-.352-1.398c-1.836-7.29-1.722-14.935.329-22.168Z" fill="none" stroke="#000" stroke-miterlimit="10" stroke-width="2"/>
    <path d="M1518.951,2562.571l-.569.161c-9.414,3.531-17.057,10.63-21.271,19.757l-1.035,2.243c-2.229,4.83-3.384,10.087-3.384,15.406v53.766l37.264-.138h38.25v-53.768c0-5.321-1.155-10.578-3.385-15.409l-1.033-2.238c-4.214-9.129-11.857-16.228-21.271-19.757l-1.398-.352c-7.29-1.836-14.935-1.722-22.168.329Z" fill="none" stroke="#000" stroke-miterlimit="10" stroke-width="2"/>
    <path d="M638.621,2566.909h238.609c17.378,0,31.466,14.088,31.466,31.466v66.061" fill="none" stroke="#000" stroke-miterlimit="10" stroke-width="2"/>
    <path d="M2418.114,2566.909h-238.609c-17.378,0-31.466,14.088-31.466,31.466v66.061" fill="none" stroke="#000" stroke-miterlimit="10" stroke-width="2"/>
    <circle cx="617.616" cy="674.886" r="90.025" fill="#b2b2b2" stroke="#000" stroke-miterlimit="10" stroke-width="6"/>
    <polygon points="602.611 583.361 557.599 674.886 589.263 759.24 648.562 759.24 677.632 676.386 635.621 583.361 602.611 583.361" fill="#b2b2b2" stroke="#000" stroke-miterlimit="10" stroke-width="6"/>
    <line x1="617.616" y1="560.855" x2="617.616" y2="655.381" fill="none" stroke="#000" stroke-miterlimit="10" stroke-width="6"/>
    <line x1="536.593" y1="593.864" x2="554.612" y2="611.883" fill="none" stroke="#000" stroke-miterlimit="10" stroke-width="6"/>
    <line x1="506.585" y1="673.386" x2="527.591" y2="673.386" fill="none" stroke="#000" stroke-miterlimit="10" stroke-width="6"/>
    <line x1="541.094" y1="752.908" x2="555.848" y2="738.154" fill="none" stroke="#000" stroke-miterlimit="10" stroke-width="6"/>
    <path d="M728.646,673.386h-20.199" fill="none" stroke="#000" stroke-miterlimit="10" stroke-width="6"/>
    <line x1="695.637" y1="595.364" x2="679.697" y2="611.304" fill="none" stroke="#000" stroke-miterlimit="10" stroke-width="6"/>
    <path d="M2442.174,583.528c49.719,0,90.025,40.306,90.025,90.025s-40.306,90.025-90.025,90.025-90.025-40.306-90.025-90.025" fill="#b2b2b2" stroke="#000" stroke-miterlimit="10" stroke-width="6"/>
    <path d="M2352.149,673.553c0-49.719,40.306-90.025,90.025-90.025" fill="#b2b2b2" stroke="#000" stroke-miterlimit="10" stroke-width="6"/>
    <polygon points="2518.322 624.622 2476.19 717.593 2394.768 750.46 2355.618 705.922 2398.068 626.449 2496.528 599.829 2518.322 624.622" fill="#b2b2b2" stroke="#000" stroke-miterlimit="10" stroke-width="6"/>
    <line x1="2440.674" y1="559.521" x2="2440.674" y2="583.528" fill="none" stroke="#000" stroke-miterlimit="10" stroke-width="6"/>
    <line x1="2361.152" y1="592.53" x2="2379.171" y2="610.55" fill="none" stroke="#000" stroke-miterlimit="10" stroke-width="6"/>
    <line x1="2520.196" y1="594.031" x2="2504.256" y2="609.971" fill="none" stroke="#000" stroke-miterlimit="10" stroke-width="6"/>
    <g>
      <path d="M2529.93,744.752h5.019v26.631h-5.019v-26.631ZM2532.457,766.547h6.392c1.648,0,2.925-.396,3.828-1.19.903-.793,1.355-1.917,1.355-3.37v-7.839c0-1.453-.452-2.576-1.355-3.37-.903-.793-2.18-1.19-3.828-1.19h-6.392v-4.835h6.282c2.222,0,4.118.373,5.687,1.117,1.569.745,2.763,1.832,3.581,3.26.817,1.429,1.228,3.15,1.228,5.165v7.546c0,1.917-.395,3.59-1.182,5.019-.788,1.429-1.969,2.54-3.544,3.333-1.575.794-3.505,1.19-5.788,1.19h-6.264v-4.835Z" fill="#fff"/>
      <path d="M2560.578,744.752h3.188l10.184,26.631h-5.403l-6.374-18.188-6.374,18.188h-5.403l10.184-26.631ZM2555.285,762.28h14.012v4.835h-14.012v-4.835Z" fill="#fff"/>
      <path d="M2584.121,761.108v10.275h-5.019v-10.275l-7.84-16.356h5.257l5.092,11.465,5.092-11.465h5.257l-7.839,16.356Z" fill="#fff"/>
    </g>
    <line x1="2506.01" y1="737.32" x2="2520.87" y2="752.18" fill="none" stroke="#000" stroke-miterlimit="10" stroke-width="6"/>
    <g>
      <path d="M2533.48,567.989h3.188l10.184,26.631h-5.403l-6.374-18.188-6.374,18.188h-5.403l10.184-26.631ZM2528.187,585.517h14.012v4.835h-14.012v-4.835Z" fill="#fff"/>
      <path d="M2552.278,593.732c-1.453-.775-2.559-1.905-3.315-3.389-.757-1.483-1.136-3.269-1.136-5.357v-16.997h5.019v17.125c0,1.526.409,2.711,1.228,3.553.818.843,1.972,1.264,3.462,1.264,1.502,0,2.665-.421,3.489-1.264.824-.842,1.236-2.027,1.236-3.553v-17.125h5.018v16.997c0,2.088-.381,3.874-1.145,5.357-.763,1.484-1.874,2.613-3.333,3.389s-3.215,1.163-5.266,1.163-3.804-.388-5.257-1.163Z" fill="#fff"/>
      <path d="M2568.623,567.989h19.524v4.835h-19.524v-4.835ZM2575.876,570.169h5.019v24.451h-5.019v-24.451Z" fill="#fff"/>
      <path d="M2593.933,593.677c-1.472-.812-2.61-1.959-3.416-3.443-.806-1.483-1.209-3.202-1.209-5.156v-7.546c0-1.954.403-3.672,1.209-5.156.806-1.484,1.944-2.631,3.416-3.443s3.172-1.218,5.101-1.218,3.63.406,5.102,1.218c1.471.812,2.609,1.959,3.416,3.443.806,1.483,1.208,3.202,1.208,5.156v7.546c0,1.954-.402,3.672-1.208,5.156-.807,1.484-1.945,2.631-3.416,3.443-1.472.812-3.172,1.218-5.102,1.218s-3.629-.406-5.101-1.218ZM2601.415,589.299c.684-.384,1.211-.931,1.584-1.639.372-.708.559-1.526.559-2.454v-7.803c0-.928-.187-1.746-.559-2.454-.373-.708-.9-1.255-1.584-1.639-.685-.385-1.478-.577-2.382-.577s-1.697.192-2.381.577c-.684.384-1.212.931-1.584,1.639-.373.708-.559,1.526-.559,2.454v7.803c0,.928.186,1.746.559,2.454.372.708.9,1.255,1.584,1.639.684.385,1.478.577,2.381.577s1.697-.192,2.382-.577Z" fill="#fff"/>
    </g>
    <g>
      <path d="M2393.677,522.977h6.136l9.909,20.403-.44.477v-20.88h4.799v26.612h-6.172l-9.872-20.092.439-.477v20.568h-4.799v-26.612Z" fill="#fff"/>
      <path d="M2424.289,549.607h-5.202v-26.631h5.202v26.631Z" fill="#fff"/>
      <path d="M2448.234,534.717v5.202c0,1.978-.4,3.721-1.2,5.229-.8,1.508-1.932,2.674-3.397,3.499-1.465.824-3.162,1.236-5.092,1.236-1.941,0-3.653-.388-5.137-1.163-1.484-.775-2.632-1.871-3.443-3.288-.812-1.417-1.219-3.059-1.219-4.927v-7.857c0-1.978.4-3.718,1.2-5.22s1.933-2.665,3.397-3.489,3.162-1.236,5.092-1.236c1.587,0,3.053.327,4.396.98,1.343.653,2.464,1.578,3.361,2.775s1.505,2.583,1.822,4.158h-5.422c-.183-.562-.485-1.047-.906-1.456s-.916-.721-1.483-.934c-.568-.214-1.157-.321-1.768-.321-.892,0-1.676.196-2.354.586s-1.203.946-1.575,1.667c-.373.721-.559,1.551-.559,2.491v7.857c0,.831.189,1.563.567,2.198.379.635.916,1.124,1.612,1.465.695.342,1.502.513,2.417.513.904,0,1.694-.186,2.372-.559s1.2-.913,1.566-1.621c.366-.708.549-1.544.549-2.509v-.439h-4.029v-4.835h9.231Z" fill="#fff"/>
      <path d="M2452.692,522.977h5.019v26.631h-5.019v-26.631ZM2455.018,533.984h15.514v4.835h-15.514v-4.835ZM2467.272,522.977h5.019v26.631h-5.019v-26.631Z" fill="#fff"/>
      <path d="M2475.466,522.977h19.524v4.835h-19.524v-4.835ZM2482.719,525.156h5.019v24.451h-5.019v-24.451Z" fill="#fff"/>
    </g>
    <g>
      <path d="M2296.885,593.677c-1.472-.812-2.61-1.959-3.416-3.443-.806-1.483-1.209-3.202-1.209-5.156v-7.546c0-1.954.403-3.672,1.209-5.156.806-1.484,1.944-2.631,3.416-3.443s3.172-1.218,5.101-1.218,3.63.406,5.102,1.218c1.471.812,2.609,1.959,3.416,3.443.806,1.483,1.208,3.202,1.208,5.156v7.546c0,1.954-.402,3.672-1.208,5.156-.807,1.484-1.945,2.631-3.416,3.443-1.472.812-3.172,1.218-5.102,1.218s-3.629-.406-5.101-1.218ZM2304.367,589.299c.684-.384,1.211-.931,1.584-1.639.372-.708.559-1.526.559-2.454v-7.803c0-.928-.187-1.746-.559-2.454-.373-.708-.9-1.255-1.584-1.639-.685-.385-1.478-.577-2.382-.577s-1.697.192-2.381.577c-.684.384-1.212.931-1.584,1.639-.373.708-.559,1.526-.559,2.454v7.803c0,.928.186,1.746.559,2.454.372.708.9,1.255,1.584,1.639.684.385,1.478.577,2.381.577s1.697-.192,2.382-.577Z" fill="#fff"/>
      <path d="M2316.169,567.989h5.019v26.631h-5.019v-26.631ZM2318.001,567.989h15.659v4.835h-15.659v-4.835ZM2318.001,579.217h13.645v4.835h-13.645v-4.835Z" fill="#fff"/>
      <path d="M2337.02,567.989h5.019v26.631h-5.019v-26.631ZM2338.851,567.989h15.66v4.835h-15.66v-4.835ZM2338.851,579.217h13.646v4.835h-13.646v-4.835Z" fill="#fff"/>
    </g>
    <g>
      <path d="M549.587,466.902h8.591l13.872,28.565-.615.667v-29.231h6.718v37.257h-8.642l-13.82-28.129.615-.667v28.795h-6.719v-37.257Z" fill="#fff"/>
      <path d="M593.256,466.902h4.462l14.257,37.283h-7.564l-8.924-25.462-8.923,25.462h-7.564l14.257-37.283ZM585.846,491.441h19.615v6.77h-19.615v-6.77Z" fill="#fff"/>
      <path d="M607.18,466.902h7.231l7.923,24.873,7.924-24.873h7.23l-12.41,37.283h-5.487l-12.411-37.283Z" fill="#fff"/>
      <path d="M672.901,466.902h9.257v37.283h-6.385v-28.95l.257,1.641-7.129,23.155h-6.205l-7.129-22.642.257-2.154v28.95h-6.385v-37.283h9.257l7.103,25.129,7.103-25.129Z" fill="#fff"/>
      <path d="M692.814,502.865c-2.061-1.137-3.654-2.744-4.782-4.821-1.129-2.077-1.692-4.483-1.692-7.218v-10.564c0-2.735.563-5.141,1.692-7.218,1.128-2.077,2.722-3.684,4.782-4.821,2.06-1.136,4.439-1.705,7.141-1.705s5.081.569,7.142,1.705c2.06,1.137,3.654,2.744,4.782,4.821s1.692,4.483,1.692,7.218v10.564c0,2.735-.564,5.141-1.692,7.218-1.128,2.077-2.723,3.684-4.782,4.821-2.061,1.137-4.44,1.705-7.142,1.705s-5.081-.568-7.141-1.705ZM703.288,496.736c.957-.539,1.696-1.304,2.218-2.295.521-.991.782-2.136.782-3.436v-10.924c0-1.299-.261-2.444-.782-3.436-.521-.991-1.261-1.756-2.218-2.295-.958-.538-2.068-.808-3.334-.808s-2.376.27-3.333.808c-.958.539-1.697,1.304-2.218,2.295-.522.992-.782,2.137-.782,3.436v10.924c0,1.299.26,2.444.782,3.436.521.992,1.26,1.757,2.218,2.295.957.538,2.068.808,3.333.808s2.376-.27,3.334-.808Z" fill="#fff"/>
      <path d="M717.237,466.902h7.026v37.283h-7.026v-37.283ZM720.776,497.416h8.949c2.308,0,4.094-.555,5.358-1.667,1.266-1.111,1.898-2.684,1.898-4.718v-10.975c0-2.034-.633-3.607-1.898-4.718-1.265-1.111-3.051-1.667-5.358-1.667h-8.949v-6.77h8.795c3.111,0,5.766.521,7.962,1.564,2.196,1.043,3.867,2.564,5.013,4.564s1.719,4.41,1.719,7.231v10.564c0,2.684-.552,5.026-1.654,7.026s-2.757,3.556-4.962,4.667-4.906,1.667-8.103,1.667h-8.77v-6.77Z" fill="#fff"/>
      <path d="M747.932,466.902h7.025v37.283h-7.025v-37.283ZM750.47,466.902h22.437v6.77h-22.437v-6.77ZM750.47,482.287h19.616v6.769h-19.616v-6.769ZM750.47,497.416h22.437v6.77h-22.437v-6.77Z" fill="#fff"/>
      <path d="M793.408,504.031c-1.701-.359-3.299-.885-4.795-1.577s-2.833-1.525-4.013-2.5l3.256-5.795c1.437,1.179,3.095,2.09,4.975,2.731,1.881.641,3.812.961,5.795.961,2.291,0,4.068-.389,5.334-1.167,1.265-.778,1.897-1.876,1.897-3.295v-.025c0-.991-.282-1.778-.846-2.359-.564-.581-1.3-1.009-2.206-1.282s-2.068-.521-3.487-.744c-.051-.017-.099-.026-.141-.026-.043,0-.09-.008-.141-.025l-.564-.077c-2.496-.393-4.564-.884-6.205-1.474-1.642-.59-3.035-1.624-4.18-3.103-1.146-1.478-1.718-3.577-1.718-6.295v-.025c0-2.411.538-4.47,1.615-6.18s2.641-3.013,4.692-3.911c2.051-.897,4.529-1.346,7.436-1.346,1.334,0,2.697.154,4.09.461,1.394.308,2.757.752,4.09,1.333,1.334.582,2.599,1.282,3.796,2.103l-2.975,5.949c-1.437-.991-2.937-1.761-4.5-2.308-1.564-.547-3.064-.82-4.501-.82-2.153,0-3.82.355-5,1.064-1.18.71-1.77,1.706-1.77,2.987v.026c0,1.077.309,1.927.924,2.551s1.376,1.082,2.282,1.372c.905.291,2.18.598,3.82.923.068.017.137.03.205.039.068.009.137.021.205.039.103.017.201.038.295.064.094.025.192.047.295.064,2.359.461,4.329,1.022,5.91,1.68,1.581.658,2.901,1.718,3.962,3.18,1.06,1.461,1.59,3.458,1.59,5.987v.051c0,2.376-.556,4.41-1.667,6.103s-2.73,2.983-4.858,3.872c-2.129.889-4.688,1.333-7.681,1.333-1.777,0-3.517-.18-5.218-.539Z" fill="#fff"/>
      <path d="M815.474,466.902h7.026v37.283h-7.026v-37.283ZM818.013,466.902h22.437v6.77h-22.437v-6.77ZM818.013,482.287h19.616v6.769h-19.616v-6.769ZM818.013,497.416h22.437v6.77h-22.437v-6.77Z" fill="#fff"/>
      <path d="M843.604,466.902h7.026v37.283h-7.026v-37.283ZM846.732,497.416h21.847v6.77h-21.847v-6.77Z" fill="#fff"/>
    </g>
    <g>
      <path d="M710.184,568.987h3.188l10.184,26.631h-5.403l-6.374-18.188-6.374,18.188h-5.403l10.184-26.631ZM704.891,586.515h14.012v4.835h-14.012v-4.835Z" fill="#fff"/>
      <path d="M726.363,568.987h5.019v26.631h-5.019v-26.631ZM728.689,579.995h15.514v4.835h-15.514v-4.835ZM740.942,568.987h5.019v26.631h-5.019v-26.631Z" fill="#fff"/>
      <path d="M751.335,568.968h5.019v26.649h-5.019v-26.649ZM753.331,580.068h9.268c.513,0,.965-.128,1.355-.385s.692-.623.906-1.099c.214-.476.327-1.025.339-1.648,0-.623-.106-1.172-.32-1.648-.214-.476-.516-.842-.906-1.099-.392-.256-.85-.385-1.374-.385h-9.268v-4.835h9.671c1.465,0,2.753.33,3.864.989s1.972,1.591,2.582,2.793c.611,1.203.916,2.598.916,4.185s-.305,2.983-.916,4.186c-.61,1.203-1.474,2.134-2.591,2.793s-2.403.989-3.855.989h-9.671v-4.835ZM758.936,584.079l5.366-.842,7.18,12.381h-6.08l-6.466-11.539Z" fill="#fff"/>
      <path d="M779.209,595.508c-1.216-.256-2.357-.632-3.426-1.126s-2.023-1.09-2.866-1.786l2.326-4.14c1.025.843,2.21,1.493,3.554,1.951,1.343.458,2.723.687,4.139.687,1.637,0,2.906-.278,3.81-.833.903-.555,1.355-1.34,1.355-2.354v-.018c0-.708-.201-1.27-.604-1.685-.402-.415-.928-.721-1.575-.916s-1.478-.372-2.49-.531c-.037-.012-.071-.018-.102-.018s-.063-.006-.101-.019l-.402-.055c-1.783-.281-3.261-.632-4.433-1.053s-2.168-1.16-2.985-2.216c-.818-1.056-1.228-2.555-1.228-4.497v-.018c0-1.722.385-3.193,1.154-4.414.77-1.221,1.887-2.152,3.352-2.793,1.465-.641,3.235-.962,5.312-.962.952,0,1.926.11,2.921.33.995.22,1.97.538,2.922.953s1.855.916,2.711,1.502l-2.125,4.249c-1.025-.708-2.097-1.257-3.214-1.648-1.118-.391-2.189-.586-3.215-.586-1.538,0-2.729.253-3.571.76-.843.507-1.264,1.218-1.264,2.134v.018c0,.77.22,1.377.659,1.822.439.446.982.772,1.63.98.647.208,1.557.428,2.729.66.048.012.097.021.146.027.048.006.098.016.146.027.073.012.143.027.21.046.067.018.138.034.211.046,1.685.33,3.092.729,4.222,1.2,1.129.47,2.072,1.227,2.83,2.271.757,1.044,1.136,2.47,1.136,4.277v.037c0,1.697-.397,3.15-1.191,4.359-.793,1.209-1.95,2.131-3.471,2.766-1.52.635-3.349.953-5.485.953-1.27,0-2.512-.128-3.727-.385Z" fill="#fff"/>
    </g>
    <g>
      <path d="M744.512,681.597h-5.202v-26.631h5.202v26.631Z" fill="#fff"/>
      <path d="M766.278,654.966h6.612v26.631h-4.561v-20.678l.183,1.172-5.092,16.539h-4.432l-5.092-16.172.183-1.539v20.678h-4.561v-26.631h6.612l5.073,17.949,5.074-17.949Z" fill="#fff"/>
      <path d="M782.348,680.709c-1.453-.775-2.558-1.905-3.315-3.389-.757-1.483-1.136-3.269-1.136-5.357v-16.997h5.019v17.125c0,1.526.409,2.711,1.227,3.553.818.843,1.972,1.264,3.462,1.264,1.502,0,2.665-.421,3.489-1.264.824-.842,1.236-2.027,1.236-3.553v-17.125h5.018v16.997c0,2.088-.381,3.874-1.145,5.357-.763,1.484-1.875,2.613-3.333,3.389s-3.214,1.163-5.266,1.163-3.804-.388-5.257-1.163Z" fill="#fff"/>
    </g>
    <g>
      <path d="M593.859,549.526h-5.202v-26.631h5.202v26.631Z" fill="#fff"/>
      <path d="M598.866,522.895h6.136l9.909,20.403-.44.477v-20.88h4.799v26.612h-6.172l-9.872-20.092.439-.477v20.568h-4.799v-26.612Z" fill="#fff"/>
      <path d="M629.286,549.416c-1.215-.256-2.356-.632-3.425-1.126s-2.024-1.09-2.866-1.786l2.326-4.14c1.025.843,2.209,1.493,3.553,1.951,1.343.458,2.723.687,4.14.687,1.636,0,2.905-.278,3.81-.833.903-.555,1.355-1.34,1.355-2.354v-.018c0-.708-.202-1.27-.604-1.685-.403-.415-.929-.721-1.575-.916-.647-.195-1.478-.372-2.491-.531-.036-.012-.07-.018-.101-.018s-.064-.006-.101-.019l-.403-.055c-1.783-.281-3.26-.632-4.433-1.053-1.172-.421-2.167-1.16-2.985-2.216s-1.227-2.555-1.227-4.497v-.018c0-1.722.385-3.193,1.153-4.414.77-1.221,1.887-2.152,3.352-2.793,1.466-.641,3.236-.962,5.312-.962.953,0,1.927.11,2.922.33.995.22,1.969.538,2.921.953.953.415,1.856.916,2.711,1.502l-2.124,4.249c-1.026-.708-2.098-1.257-3.215-1.648-1.117-.391-2.188-.586-3.215-.586-1.538,0-2.729.253-3.571.76-.842.507-1.264,1.218-1.264,2.134v.018c0,.77.22,1.377.659,1.822.439.446.983.772,1.631.98.646.208,1.557.428,2.729.66.049.012.098.021.146.027.049.006.098.016.146.027.073.012.144.027.211.046.066.018.137.034.211.046,1.685.33,3.092.729,4.222,1.2,1.129.47,2.072,1.227,2.829,2.271s1.136,2.47,1.136,4.277v.037c0,1.697-.396,3.15-1.19,4.359s-1.95,2.131-3.471,2.766c-1.521.635-3.349.953-5.485.953-1.271,0-2.513-.128-3.728-.385Z" fill="#fff"/>
    </g>
    <g>
      <path d="M473.291,592.149c-1.44-.775-2.54-1.905-3.297-3.389-.757-1.483-1.136-3.275-1.136-5.375v-7.308c0-2.1.379-3.892,1.136-5.375s1.856-2.616,3.297-3.397c1.44-.781,3.175-1.172,5.202-1.172,1.673,0,3.168.36,4.487,1.081,1.318.721,2.408,1.768,3.269,3.141.861,1.374,1.457,3.031,1.786,4.973h-5.201c-.196-.879-.498-1.63-.907-2.252-.409-.623-.903-1.099-1.483-1.429s-1.23-.495-1.95-.495c-.94,0-1.74.192-2.399.577-.659.384-1.163.946-1.512,1.685-.348.739-.521,1.627-.521,2.665v7.308c0,1.038.174,1.923.521,2.656.349.732.853,1.292,1.512,1.676.659.385,1.459.577,2.399.577.732,0,1.392-.162,1.978-.485s1.081-.797,1.483-1.419c.403-.623.696-1.38.88-2.271h5.201c-.342,1.942-.943,3.599-1.804,4.973-.861,1.374-1.948,2.42-3.261,3.141-1.312.72-2.805,1.081-4.478,1.081-2.027,0-3.762-.388-5.202-1.163Z" fill="#fff"/>
      <path d="M489.379,566.407h5.165l5.66,17.766,5.659-17.766h5.165l-8.865,26.631h-3.919l-8.865-26.631Z" fill="#fff"/>
      <path d="M519.625,566.407h3.188l10.184,26.631h-5.403l-6.374-18.188-6.374,18.188h-5.403l10.184-26.631ZM514.332,583.935h14.012v4.835h-14.012v-4.835Z" fill="#fff"/>
    </g>
    <g>
      <path d="M456.513,671.272v5.201c0,1.979-.4,3.722-1.2,5.229s-1.932,2.674-3.397,3.498-3.163,1.236-5.092,1.236c-1.941,0-3.654-.388-5.137-1.163-1.484-.775-2.631-1.871-3.443-3.287-.812-1.417-1.218-3.06-1.218-4.928v-7.857c0-1.978.4-3.718,1.2-5.22s1.933-2.665,3.397-3.489c1.465-.824,3.163-1.236,5.092-1.236,1.587,0,3.053.327,4.396.98,1.343.653,2.463,1.578,3.361,2.774.897,1.197,1.505,2.583,1.822,4.158h-5.421c-.183-.562-.485-1.047-.907-1.456-.421-.409-.916-.721-1.483-.935s-1.157-.32-1.768-.32c-.891,0-1.676.195-2.354.586s-1.203.946-1.575,1.667-.559,1.551-.559,2.49v7.857c0,.831.189,1.563.568,2.198s.916,1.124,1.612,1.465c.696.343,1.502.514,2.417.514.904,0,1.694-.187,2.372-.559.678-.373,1.2-.913,1.566-1.621s.549-1.545.549-2.51v-.439h-4.029v-4.835h9.231Z" fill="#fff"/>
      <path d="M460.971,659.531h6.136l9.909,20.403-.44.477v-20.88h4.799v26.612h-6.172l-9.872-20.092.439-.477v20.568h-4.798v-26.612Z" fill="#fff"/>
      <path d="M486.748,659.531h5.019v26.631h-5.019v-26.631ZM489.275,681.326h6.392c1.648,0,2.924-.396,3.828-1.19.903-.793,1.355-1.917,1.355-3.37v-7.839c0-1.453-.452-2.576-1.355-3.37-.904-.793-2.18-1.19-3.828-1.19h-6.392v-4.835h6.282c2.222,0,4.118.372,5.687,1.117s2.763,1.831,3.581,3.26,1.228,3.15,1.228,5.165v7.546c0,1.917-.394,3.59-1.182,5.019s-1.969,2.54-3.544,3.334-3.504,1.19-5.788,1.19h-6.264v-4.836Z" fill="#fff"/>
    </g>
    <g>
      <path d="M466.767,767.22c-1.472-.812-2.61-1.959-3.416-3.443-.806-1.483-1.209-3.202-1.209-5.156v-7.546c0-1.954.403-3.672,1.209-5.156.806-1.484,1.944-2.631,3.416-3.443s3.172-1.218,5.101-1.218,3.63.406,5.102,1.218c1.471.812,2.609,1.959,3.416,3.443.806,1.483,1.208,3.202,1.208,5.156v7.546c0,1.954-.402,3.672-1.208,5.156-.807,1.484-1.945,2.631-3.416,3.443-1.472.812-3.172,1.218-5.102,1.218s-3.629-.406-5.101-1.218ZM474.249,762.842c.684-.384,1.211-.931,1.584-1.639.372-.708.559-1.526.559-2.454v-7.803c0-.928-.187-1.746-.559-2.454-.373-.708-.9-1.255-1.584-1.639-.685-.385-1.478-.577-2.382-.577s-1.697.192-2.381.577c-.684.384-1.212.931-1.584,1.639-.373.708-.559,1.526-.559,2.454v7.803c0,.928.186,1.746.559,2.454.372.708.9,1.255,1.584,1.639.684.385,1.478.577,2.381.577s1.697-.192,2.382-.577Z" fill="#fff"/>
      <path d="M486.051,741.532h5.019v26.631h-5.019v-26.631ZM487.883,741.532h15.659v4.835h-15.659v-4.835ZM487.883,752.76h13.645v4.835h-13.645v-4.835Z" fill="#fff"/>
      <path d="M506.901,741.532h5.019v26.631h-5.019v-26.631ZM508.732,741.532h15.66v4.835h-15.66v-4.835ZM508.732,752.76h13.646v4.835h-13.646v-4.835Z" fill="#fff"/>
    </g>
    <polygon points="618.14 577.359 603.66 620.871 632.62 620.871 618.14 577.359" fill="#fff"/>
    <line x1="617.934" y1="609.133" x2="617.934" y2="655.381" fill="none" stroke="#fff" stroke-miterlimit="10" stroke-width="7"/>
    <polygon points="2508.786 606.56 2466.545 624.412 2485.665 646.163 2508.786 606.56" fill="#fff"/>
    <line x1="2484.785" y1="627.383" x2="2450.05" y2="657.917" fill="none" stroke="#fff" stroke-miterlimit="10" stroke-width="7"/>
    <circle cx="1136.224" cy="620.64" r="22.554" fill="#fff"/>
    <circle cx="1337.652" cy="620.64" r="25.132" fill="none" stroke="#fff" stroke-miterlimit="10" stroke-width="5"/>
    <circle cx="1229.45" cy="586.478" r="66.768" fill="#aaa" stroke="#000" stroke-miterlimit="10" stroke-width="5"/>
    <circle cx="1852.008" cy="589.184" r="67.747" fill="#aaa" stroke="#000" stroke-miterlimit="10" stroke-width="5"/>
    <line x1="1213.007" y1="603.356" x2="1179.035" y2="634.738" fill="none" stroke="#fff" stroke-miterlimit="10" stroke-width="7"/>
    <line x1="1849.323" y1="610.057" x2="1831.894" y2="652.895" fill="none" stroke="#fff" stroke-miterlimit="10" stroke-width="7"/>
    <g>
      <path d="M1816.975,506.988c-1.44-.775-2.54-1.905-3.297-3.389-.757-1.483-1.136-3.275-1.136-5.375v-7.308c0-2.1.379-3.892,1.136-5.375s1.856-2.616,3.297-3.397c1.44-.781,3.175-1.172,5.202-1.172,1.673,0,3.168.36,4.487,1.081,1.318.721,2.408,1.768,3.269,3.141.861,1.374,1.457,3.031,1.786,4.973h-5.201c-.196-.879-.498-1.63-.907-2.252-.409-.623-.903-1.099-1.483-1.429s-1.23-.495-1.95-.495c-.94,0-1.74.192-2.399.577-.659.384-1.163.946-1.512,1.685-.348.739-.521,1.627-.521,2.665v7.308c0,1.038.174,1.923.521,2.656.349.732.853,1.292,1.512,1.676.659.385,1.459.577,2.399.577.732,0,1.392-.162,1.978-.485s1.081-.797,1.483-1.419c.403-.623.696-1.38.88-2.271h5.201c-.342,1.942-.943,3.599-1.804,4.973-.861,1.374-1.948,2.42-3.261,3.141-1.312.72-2.805,1.081-4.478,1.081-2.027,0-3.762-.388-5.202-1.163Z" fill="#fff"/>
      <path d="M1839.153,506.933c-1.472-.812-2.61-1.959-3.416-3.443-.806-1.483-1.209-3.202-1.209-5.156v-7.546c0-1.954.403-3.672,1.209-5.156.806-1.484,1.944-2.631,3.416-3.443,1.471-.812,3.171-1.218,5.101-1.218s3.629.406,5.101,1.218,2.61,1.959,3.416,3.443c.806,1.483,1.209,3.202,1.209,5.156v7.546c0,1.954-.403,3.672-1.209,5.156-.806,1.484-1.944,2.631-3.416,3.443-1.472.812-3.172,1.218-5.101,1.218s-3.63-.406-5.101-1.218ZM1846.635,502.555c.684-.384,1.212-.931,1.584-1.639.373-.708.559-1.526.559-2.454v-7.803c0-.928-.186-1.746-.559-2.454-.372-.708-.9-1.255-1.584-1.639-.684-.385-1.478-.577-2.381-.577s-1.697.192-2.381.577c-.685.384-1.212.931-1.585,1.639-.372.708-.559,1.526-.559,2.454v7.803c0,.928.187,1.746.559,2.454.373.708.9,1.255,1.585,1.639.684.385,1.477.577,2.381.577s1.697-.192,2.381-.577Z" fill="#fff"/>
      <path d="M1858.437,481.245h6.136l9.909,20.403-.44.477v-20.88h4.799v26.612h-6.172l-9.872-20.092.439-.477v20.568h-4.799v-26.612Z" fill="#fff"/>
      <path d="M1882.016,481.245h19.524v4.835h-19.524v-4.835ZM1889.269,483.425h5.019v24.451h-5.019v-24.451Z" fill="#fff"/>
    </g>
    <g>
      <path d="M1197.538,482.153h5.019v26.631h-5.019v-26.631ZM1199.735,503.949h8.499c1.147,0,2.036-.277,2.665-.833s.943-1.334.943-2.335v-.055c0-.671-.141-1.245-.421-1.722-.281-.476-.693-.839-1.236-1.089-.543-.25-1.194-.375-1.951-.375h-8.499v-4.835h8.499c1.038,0,1.841-.263,2.408-.788.568-.525.852-1.264.852-2.216,0-.854-.284-1.52-.852-1.996-.567-.477-1.371-.714-2.408-.714h-8.499v-4.835h8.663c1.722,0,3.193.284,4.414.852s2.149,1.392,2.784,2.473c.635,1.081.952,2.378.952,3.892,0,1.038-.205,1.957-.613,2.756-.409.8-1.004,1.456-1.786,1.969-.782.513-1.722.861-2.821,1.044,1.172.159,2.176.516,3.013,1.071.836.556,1.472,1.279,1.905,2.17.434.892.65,1.923.65,3.095v.055c0,1.526-.32,2.833-.961,3.919-.641,1.087-1.575,1.914-2.802,2.482s-2.702.852-4.423.852h-8.975v-4.835Z" fill="#fff"/>
      <path d="M1221.263,482.135h5.019v26.649h-5.019v-26.649ZM1223.259,493.234h9.268c.513,0,.964-.128,1.355-.385s.693-.623.907-1.099c.213-.476.327-1.025.339-1.648,0-.623-.107-1.172-.32-1.648-.214-.476-.516-.842-.907-1.099-.391-.256-.849-.385-1.374-.385h-9.268v-4.835h9.671c1.465,0,2.753.33,3.864.989,1.111.659,1.972,1.591,2.583,2.793.611,1.203.916,2.598.916,4.185s-.305,2.983-.916,4.186c-.61,1.203-1.474,2.134-2.591,2.793s-2.403.989-3.855.989h-9.671v-4.835ZM1228.864,497.245l5.367-.842,7.18,12.381h-6.081l-6.466-11.539Z" fill="#fff"/>
      <path d="M1241.564,482.153h19.524v4.835h-19.524v-4.835ZM1248.817,484.333h5.019v24.451h-5.019v-24.451Z" fill="#fff"/>
    </g>
    <circle cx="1229.45" cy="586.478" r="37.884" fill="#aaa" stroke="#000" stroke-miterlimit="10" stroke-width="5"/>
    <line x1="1234.01" y1="585.295" x2="1264.497" y2="603.683" fill="none" stroke="#fff" stroke-miterlimit="10" stroke-width="7"/>
    <g>
      <path d="M1019.855,607.419h5.019v26.649h-5.019v-26.649ZM1021.851,618.519h9.268c.513,0,.964-.128,1.355-.385s.693-.623.907-1.099c.213-.476.327-1.025.339-1.648,0-.623-.107-1.172-.32-1.648-.214-.476-.516-.842-.907-1.099-.391-.256-.849-.385-1.374-.385h-9.268v-4.835h9.671c1.465,0,2.753.33,3.864.989,1.111.659,1.972,1.591,2.583,2.793.611,1.203.916,2.598.916,4.185s-.305,2.983-.916,4.186c-.61,1.203-1.474,2.134-2.591,2.793s-2.403.989-3.855.989h-9.671v-4.835ZM1027.456,622.529l5.367-.842,7.18,12.381h-6.081l-6.466-11.539Z" fill="#fff"/>
      <path d="M1047.729,633.959c-1.215-.256-2.357-.632-3.425-1.126s-2.024-1.09-2.866-1.786l2.326-4.14c1.025.843,2.209,1.493,3.553,1.951,1.343.458,2.723.687,4.139.687,1.636,0,2.906-.278,3.81-.833.903-.555,1.355-1.34,1.355-2.354v-.018c0-.708-.202-1.27-.604-1.685s-.928-.721-1.575-.916c-.647-.195-1.478-.372-2.491-.531-.037-.012-.071-.018-.101-.018s-.064-.006-.101-.019l-.403-.055c-1.783-.281-3.26-.632-4.433-1.053-1.172-.421-2.167-1.16-2.985-2.216-.818-1.056-1.227-2.555-1.227-4.497v-.018c0-1.722.385-3.193,1.154-4.414.77-1.221,1.887-2.152,3.352-2.793,1.465-.641,3.236-.962,5.312-.962.953,0,1.926.11,2.921.33.995.22,1.969.538,2.921.953.953.415,1.856.916,2.711,1.502l-2.125,4.249c-1.026-.708-2.097-1.257-3.214-1.648-1.118-.391-2.189-.586-3.215-.586-1.538,0-2.729.253-3.571.76s-1.264,1.218-1.264,2.134v.018c0,.77.22,1.377.659,1.822.439.446.983.772,1.63.98.647.208,1.557.428,2.729.66.048.012.097.021.146.027.048.006.098.016.146.027.073.012.143.027.21.046.067.018.137.034.211.046,1.685.33,3.092.729,4.222,1.2,1.129.47,2.072,1.227,2.83,2.271.757,1.044,1.136,2.47,1.136,4.277v.037c0,1.697-.397,3.15-1.191,4.359-.793,1.209-1.95,2.131-3.471,2.766-1.52.635-3.349.953-5.485.953-1.27,0-2.512-.128-3.727-.385Z" fill="#fff"/>
      <path d="M1062.031,607.438h19.524v4.835h-19.524v-4.835ZM1069.284,609.617h5.019v24.451h-5.019v-24.451Z" fill="#fff"/>
      <path d="M1083.999,607.419h5.019v26.649h-5.019v-26.649ZM1085.995,618.519h9.268c.513,0,.964-.128,1.355-.385s.693-.623.907-1.099c.213-.476.327-1.025.339-1.648,0-.623-.107-1.172-.32-1.648-.214-.476-.516-.842-.907-1.099-.391-.256-.849-.385-1.374-.385h-9.268v-4.835h9.671c1.465,0,2.753.33,3.864.989,1.111.659,1.972,1.591,2.583,2.793.611,1.203.916,2.598.916,4.185s-.305,2.983-.916,4.186c-.61,1.203-1.474,2.134-2.591,2.793s-2.403.989-3.855.989h-9.671v-4.835ZM1091.599,622.529l5.367-.842,7.18,12.381h-6.081l-6.466-11.539Z" fill="#fff"/>
    </g>
    <g>
      <path d="M1380.335,633.959c-1.215-.256-2.357-.632-3.425-1.126s-2.024-1.09-2.866-1.786l2.326-4.14c1.025.843,2.209,1.493,3.553,1.951,1.343.458,2.723.687,4.139.687,1.636,0,2.906-.278,3.81-.833.903-.555,1.355-1.34,1.355-2.354v-.018c0-.708-.202-1.27-.604-1.685s-.928-.721-1.575-.916c-.647-.195-1.478-.372-2.491-.531-.037-.012-.071-.018-.101-.018s-.064-.006-.101-.019l-.403-.055c-1.783-.281-3.26-.632-4.433-1.053-1.172-.421-2.167-1.16-2.985-2.216-.818-1.056-1.227-2.555-1.227-4.497v-.018c0-1.722.385-3.193,1.154-4.414.77-1.221,1.887-2.152,3.352-2.793,1.465-.641,3.236-.962,5.312-.962.953,0,1.926.11,2.921.33.995.22,1.969.538,2.921.953.953.415,1.856.916,2.711,1.502l-2.125,4.249c-1.026-.708-2.097-1.257-3.214-1.648-1.118-.391-2.189-.586-3.215-.586-1.538,0-2.729.253-3.571.76s-1.264,1.218-1.264,2.134v.018c0,.77.22,1.377.659,1.822.439.446.983.772,1.63.98.647.208,1.557.428,2.729.66.048.012.097.021.146.027.048.006.098.016.146.027.073.012.143.027.21.046.067.018.137.034.211.046,1.685.33,3.092.729,4.222,1.2,1.129.47,2.072,1.227,2.83,2.271.757,1.044,1.136,2.47,1.136,4.277v.037c0,1.697-.397,3.15-1.191,4.359-.793,1.209-1.95,2.131-3.471,2.766-1.52.635-3.349.953-5.485.953-1.27,0-2.512-.128-3.727-.385Z" fill="#fff"/>
      <path d="M1394.637,607.438h19.524v4.835h-19.524v-4.835ZM1401.89,609.618h5.019v24.451h-5.019v-24.451Z" fill="#fff"/>
      <path d="M1416.605,607.42h5.019v26.649h-5.019v-26.649ZM1418.601,618.519h9.268c.513,0,.964-.128,1.355-.385s.693-.623.907-1.099c.213-.476.327-1.025.339-1.648,0-.623-.107-1.172-.32-1.648-.214-.476-.516-.842-.907-1.099-.391-.256-.849-.385-1.374-.385h-9.268v-4.835h9.671c1.465,0,2.753.33,3.864.989,1.111.659,1.972,1.591,2.583,2.793.611,1.203.916,2.598.916,4.185s-.305,2.983-.916,4.186c-.61,1.203-1.474,2.134-2.591,2.793s-2.403.989-3.855.989h-9.671v-4.835ZM1424.205,622.53l5.367-.842,7.18,12.381h-6.081l-6.466-11.539Z" fill="#fff"/>
      <path d="M1440.568,607.438h5.019v26.631h-5.019v-26.631ZM1443.59,623.666l10.678-16.228h6.319l-16.355,22.748-.641-6.521ZM1448.023,620.588l4.323-2.729,9.359,16.209h-5.953l-7.729-13.48Z" fill="#fff"/>
    </g>
  </g>
  <g id="Layer_1">
    <g>
      <path d="M772.193,714.18h1521.309c15.272,0,27.671,12.399,27.671,27.671v1561.329H741.174V745.199c0-17.12,13.899-31.02,31.02-31.02Z" fill="none" stroke="#000" stroke-miterlimit="10" stroke-width="3"/>
      <path d="M764.356,688.68h1532.374c21.913,0,39.704,17.791,39.704,39.704v1583.564c0,10.89-8.842,19.732-19.732,19.732H742.036c-10.89,0-19.732-8.842-19.732-19.732V730.732c0-23.209,18.843-42.052,42.052-42.052Z" fill="none" stroke="#000" stroke-miterlimit="10" stroke-width="8"/>
      <g>
        <rect x="573.111" y="886.18" width="94" height="96" fill="none" stroke="#000" stroke-miterlimit="10" stroke-width="8"/>
        <polyline points="576.111 988.18 673.111 988.18 673.111 890.18" fill="none" stroke="#000" stroke-miterlimit="10" stroke-width="12"/>
        <polygon points="656.111 933.68 608.111 919.179 608.111 930.18 582.111 930.18 582.111 938.18 608.111 938.18 608.111 948.18 656.111 933.68" fill="#fff"/>
        <rect x="561.611" y="1022.68" width="116" height="12" rx="6" ry="6" fill="none" stroke="#000" stroke-miterlimit="10" stroke-width="5"/>
      </g>
      <g>
        <rect x="573.111" y="1077.18" width="94" height="96" fill="none" stroke="#000" stroke-miterlimit="10" stroke-width="8"/>
        <polyline points="576.111 1179.18 673.111 1179.18 673.111 1081.18" fill="none" stroke="#000" stroke-miterlimit="10" stroke-width="12"/>
        <polygon points="656.111 1124.68 608.111 1110.179 608.111 1121.18 582.111 1121.18 582.111 1129.18 608.111 1129.18 608.111 1139.18 656.111 1124.68" fill="#fff"/>
        <rect x="561.611" y="1213.68" width="116" height="12" rx="6" ry="6" fill="none" stroke="#000" stroke-miterlimit="10" stroke-width="5"/>
      </g>
      <g>
        <rect x="573.111" y="1269.18" width="94" height="96" fill="none" stroke="#000" stroke-miterlimit="10" stroke-width="8"/>
        <polyline points="576.111 1371.18 673.111 1371.18 673.111 1273.18" fill="none" stroke="#000" stroke-miterlimit="10" stroke-width="12"/>
        <polygon points="656.111 1316.68 608.111 1302.179 608.111 1313.18 582.111 1313.18 582.111 1321.18 608.111 1321.18 608.111 1331.18 656.111 1316.68" fill="#fff"/>
        <rect x="561.611" y="1405.68" width="116" height="12" rx="6" ry="6" fill="none" stroke="#000" stroke-miterlimit="10" stroke-width="5"/>
      </g>
      <g>
        <rect x="573.111" y="1462.18" width="94" height="96" fill="none" stroke="#000" stroke-miterlimit="10" stroke-width="8"/>
        <polyline points="576.111 1564.18 673.111 1564.18 673.111 1466.18" fill="none" stroke="#000" stroke-miterlimit="10" stroke-width="12"/>
        <polygon points="656.111 1509.68 608.111 1495.179 608.111 1506.18 582.111 1506.18 582.111 1514.18 608.111 1514.18 608.111 1524.18 656.111 1509.68" fill="#fff"/>
        <rect x="561.611" y="1598.68" width="116" height="12" rx="6" ry="6" fill="none" stroke="#000" stroke-miterlimit="10" stroke-width="5"/>
      </g>
      <g>
        <rect x="573.111" y="1653.18" width="94" height="96" fill="none" stroke="#000" stroke-miterlimit="10" stroke-width="8"/>
        <polyline points="576.111 1755.18 673.111 1755.18 673.111 1657.18" fill="none" stroke="#000" stroke-miterlimit="10" stroke-width="12"/>
        <polygon points="656.111 1700.68 608.111 1686.179 608.111 1697.18 582.111 1697.18 582.111 1705.18 608.111 1705.18 608.111 1715.18 656.111 1700.68" fill="#fff"/>
        <rect x="561.611" y="1789.68" width="116" height="12" rx="6" ry="6" fill="none" stroke="#000" stroke-miterlimit="10" stroke-width="5"/>
      </g>
      <g>
        <rect x="573.111" y="1845.18" width="94" height="96" fill="none" stroke="#000" stroke-miterlimit="10" stroke-width="8"/>
        <polyline points="576.111 1947.18 673.111 1947.18 673.111 1849.18" fill="none" stroke="#000" stroke-miterlimit="10" stroke-width="12"/>
        <polygon points="656.111 1892.68 608.111 1878.179 608.111 1889.18 582.111 1889.18 582.111 1897.18 608.111 1897.18 608.111 1907.18 656.111 1892.68" fill="#fff"/>
        <rect x="561.611" y="1981.68" width="116" height="12" rx="6" ry="6" fill="none" stroke="#000" stroke-miterlimit="10" stroke-width="5"/>
      </g>
      <g>
        <rect x="569.611" y="2036.18" width="94" height="96" fill="none" stroke="#000" stroke-miterlimit="10" stroke-width="8"/>
        <polyline points="572.611 2138.18 669.611 2138.18 669.611 2040.18" fill="none" stroke="#000" stroke-miterlimit="10" stroke-width="12"/>
        <polygon points="652.611 2083.68 604.611 2069.179 604.611 2080.18 578.611 2080.18 578.611 2088.18 604.611 2088.18 604.611 2098.18 652.611 2083.68" fill="#fff"/>
      </g>
      <g>
        <rect x="2401.608" y="889.643" width="94" height="96" transform="translate(4897.217 1875.287) rotate(-180)" fill="none" stroke="#000" stroke-miterlimit="10" stroke-width="8"/>
        <polyline points="2406.108 991.18 2499.174 991.18 2499.174 893.18" fill="none" stroke="#000" stroke-miterlimit="10" stroke-width="12"/>
        <polygon points="2412.609 937.143 2460.608 922.643 2460.608 933.644 2486.608 933.644 2486.608 941.643 2460.608 941.643 2460.608 951.643 2412.609 937.143" fill="#fff"/>
        <rect x="2391.108" y="1026.143" width="116" height="12" rx="6" ry="6" transform="translate(4898.217 2064.287) rotate(180)" fill="none" stroke="#000" stroke-miterlimit="10" stroke-width="5"/>
      </g>
      <g>
        <rect x="2401.608" y="1080.643" width="94" height="96" transform="translate(4897.217 2257.287) rotate(-180)" fill="none" stroke="#000" stroke-miterlimit="10" stroke-width="8"/>
        <polyline points="2404.174 1183.18 2501.174 1183.18 2501.174 1085.18" fill="none" stroke="#000" stroke-miterlimit="10" stroke-width="12"/>
        <polygon points="2412.609 1128.143 2460.608 1113.643 2460.608 1124.644 2486.608 1124.644 2486.608 1132.643 2460.608 1132.643 2460.608 1142.643 2412.609 1128.143" fill="#fff"/>
        <rect x="2391.108" y="1217.143" width="116" height="12" rx="6" ry="6" transform="translate(4898.217 2446.287) rotate(-180)" fill="none" stroke="#000" stroke-miterlimit="10" stroke-width="5"/>
      </g>
      <g>
        <rect x="2401.608" y="1272.643" width="94" height="96" transform="translate(4897.217 2641.287) rotate(-180)" fill="none" stroke="#000" stroke-miterlimit="10" stroke-width="8"/>
        <polyline points="2401.108 1374.643 2498.108 1374.643 2498.108 1276.643" fill="none" stroke="#000" stroke-miterlimit="10" stroke-width="12"/>
        <polygon points="2412.609 1320.143 2460.608 1305.643 2460.608 1316.644 2486.608 1316.644 2486.608 1324.643 2460.608 1324.643 2460.608 1334.643 2412.609 1320.143" fill="#fff"/>
        <rect x="2391.108" y="1409.143" width="116" height="12" rx="6" ry="6" transform="translate(4898.217 2830.287) rotate(-180)" fill="none" stroke="#000" stroke-miterlimit="10" stroke-width="5"/>
      </g>
      <g>
        <rect x="2401.608" y="1465.643" width="94" height="96" transform="translate(4897.217 3027.287) rotate(-180)" fill="none" stroke="#000" stroke-miterlimit="10" stroke-width="8"/>
        <polyline points="2402.108 1566.643 2499.108 1566.643 2499.108 1468.643" fill="none" stroke="#000" stroke-miterlimit="10" stroke-width="12"/>
        <polygon points="2412.609 1513.143 2460.608 1498.643 2460.608 1509.644 2486.608 1509.644 2486.608 1517.643 2460.608 1517.643 2460.608 1527.643 2412.609 1513.143" fill="#fff"/>
        <rect x="2391.108" y="1602.143" width="116" height="12" rx="6" ry="6" transform="translate(4898.217 3216.287) rotate(-180)" fill="none" stroke="#000" stroke-miterlimit="10" stroke-width="5"/>
      </g>
      <g>
        <rect x="2401.608" y="1656.643" width="94" height="96" transform="translate(4897.217 3409.287) rotate(-180)" fill="none" stroke="#000" stroke-miterlimit="10" stroke-width="8"/>
        <polyline points="2403.108 1757.643 2500.108 1757.643 2500.108 1659.643" fill="none" stroke="#000" stroke-miterlimit="10" stroke-width="12"/>
        <polygon points="2412.609 1704.143 2460.608 1689.643 2460.608 1700.644 2486.608 1700.644 2486.608 1708.643 2460.608 1708.643 2460.608 1718.643 2412.609 1704.143" fill="#fff"/>
        <rect x="2391.108" y="1793.143" width="116" height="12" rx="6" ry="6" transform="translate(4898.217 3598.287) rotate(-180)" fill="none" stroke="#000" stroke-miterlimit="10" stroke-width="5"/>
      </g>
      <g>
        <rect x="2401.608" y="1848.643" width="94" height="96" transform="translate(4897.217 3793.287) rotate(-180)" fill="none" stroke="#000" stroke-miterlimit="10" stroke-width="8"/>
        <polyline points="2403.108 1948.643 2500.108 1948.643 2500.108 1850.643" fill="none" stroke="#000" stroke-miterlimit="10" stroke-width="12"/>
        <polygon points="2412.609 1896.143 2460.608 1881.643 2460.608 1892.644 2486.608 1892.644 2486.608 1900.643 2460.608 1900.643 2460.608 1910.643 2412.609 1896.143" fill="#fff"/>
        <rect x="2391.108" y="1985.143" width="116" height="12" rx="6" ry="6" transform="translate(4898.217 3982.287) rotate(180)" fill="none" stroke="#000" stroke-miterlimit="10" stroke-width="5"/>
      </g>
      <g>
        <rect x="2405.108" y="2039.643" width="94" height="96" transform="translate(4904.217 4175.287) rotate(-180)" fill="none" stroke="#000" stroke-miterlimit="10" stroke-width="8"/>
        <polyline points="2405.608 2141.643 2502.608 2141.643 2502.608 2043.643" fill="none" stroke="#000" stroke-miterlimit="10" stroke-width="12"/>
        <polygon points="2416.109 2087.143 2464.108 2072.643 2464.108 2083.644 2490.108 2083.644 2490.108 2091.643 2464.108 2091.643 2464.108 2101.643 2416.109 2087.143" fill="#fff"/>
      </g>
      <g>
        <rect x="952.108" y="2378.234" width="94" height="96" transform="translate(-1427.126 3425.342) rotate(-90)" fill="none" stroke="#000" stroke-miterlimit="10" stroke-width="8"/>
        <polygon points="998.608 2390.234 984.108 2438.234 995.108 2438.234 995.108 2464.234 1003.108 2464.234 1003.108 2438.234 1013.108 2438.234 998.608 2390.234" fill="#fff"/>
        <rect x="1035.608" y="2420.734" width="116" height="12" rx="6" ry="6" transform="translate(-1333.126 3520.342) rotate(-90)" fill="none" stroke="#000" stroke-miterlimit="10" stroke-width="5"/>
      </g>
      <g>
        <rect x="1143.108" y="2378.234" width="94" height="96" transform="translate(-1236.126 3616.342) rotate(-90)" fill="none" stroke="#000" stroke-miterlimit="10" stroke-width="8"/>
        <polygon points="1189.608 2390.234 1175.108 2438.234 1186.108 2438.234 1186.108 2464.234 1194.108 2464.234 1194.108 2438.234 1204.108 2438.234 1189.608 2390.234" fill="#fff"/>
        <rect x="1226.608" y="2420.734" width="116" height="12" rx="6" ry="6" transform="translate(-1142.126 3711.342) rotate(-90)" fill="none" stroke="#000" stroke-miterlimit="10" stroke-width="5"/>
      </g>
      <g>
        <rect x="1335.108" y="2378.734" width="94" height="96" transform="translate(-1044.626 3808.842) rotate(-90)" fill="none" stroke="#000" stroke-miterlimit="10" stroke-width="8"/>
        <polygon points="1381.608 2390.734 1367.108 2438.734 1378.108 2438.734 1378.108 2464.734 1386.108 2464.734 1386.108 2438.734 1396.108 2438.734 1381.608 2390.734" fill="#fff"/>
      </g>
      <g>
        <rect x="1639.108" y="2378.234" width="94" height="96" transform="translate(-740.126 4112.342) rotate(-90)" fill="none" stroke="#000" stroke-miterlimit="10" stroke-width="8"/>
        <polygon points="1685.608 2390.234 1671.108 2438.234 1682.108 2438.234 1682.108 2464.234 1690.108 2464.234 1690.108 2438.234 1700.108 2438.234 1685.608 2390.234" fill="#fff"/>
        <rect x="1722.608" y="2420.734" width="116" height="12" rx="6" ry="6" transform="translate(-646.126 4207.342) rotate(-90)" fill="none" stroke="#000" stroke-miterlimit="10" stroke-width="5"/>
      </g>
      <g>
        <rect x="1831.108" y="2378.234" width="94" height="96" transform="translate(-548.126 4304.342) rotate(-90)" fill="none" stroke="#000" stroke-miterlimit="10" stroke-width="8"/>
        <polygon points="1877.608 2390.234 1863.108 2438.234 1874.108 2438.234 1874.108 2464.234 1882.108 2464.234 1882.108 2438.234 1892.108 2438.234 1877.608 2390.234" fill="#fff"/>
        <rect x="1914.608" y="2420.734" width="116" height="12" rx="6" ry="6" transform="translate(-454.126 4399.342) rotate(-90)" fill="none" stroke="#000" stroke-miterlimit="10" stroke-width="5"/>
      </g>
      <g>
        <rect x="2022.108" y="2378.734" width="94" height="96" transform="translate(-357.626 4495.842) rotate(-90)" fill="none" stroke="#000" stroke-miterlimit="10" stroke-width="8"/>
        <polygon points="2068.608 2390.734 2054.108 2438.734 2065.108 2438.734 2065.108 2464.734 2073.108 2464.734 2073.108 2438.734 2083.108 2438.734 2068.608 2390.734" fill="#fff"/>
      </g>
      <polyline points="955.174 2481.346 1052.174 2481.346 1052.174 2383.346" fill="none" stroke="#000" stroke-miterlimit="10" stroke-width="12"/>
      <polyline points="1146.174 2481.346 1243.174 2481.346 1243.174 2383.346" fill="none" stroke="#000" stroke-miterlimit="10" stroke-width="12"/>
      <polyline points="1337.174 2481.346 1434.174 2481.346 1434.174 2383.346" fill="none" stroke="#000" stroke-miterlimit="10" stroke-width="12"/>
      <polyline points="1645.174 2481.346 1742.174 2481.346 1742.174 2383.346" fill="none" stroke="#000" stroke-miterlimit="10" stroke-width="12"/>
      <polyline points="1834.174 2481.346 1931.174 2481.346 1931.174 2383.346" fill="none" stroke="#000" stroke-miterlimit="10" stroke-width="12"/>
      <polyline points="2027.174 2481.346 2124.174 2481.346 2124.174 2383.346" fill="none" stroke="#000" stroke-miterlimit="10" stroke-width="12"/>
    </g>
    <rect x="743.424" y="715.68" width="1580" height="1589" rx="27.046" ry="27.046"/>
  </g>
  <g id="Layer_4">
    <polygon points="1254.279 2303.981 2193.206 714.981 2062.575 714.18 824.876 2305.481 824.876 2305.481 1254.279 2303.981" fill="#3a3a3a"/>
    <polygon points="743.424 2211.076 1894.771 713.378 1636.901 714.18 743.424 1598.68 743.424 2211.076" fill="#3a3a3a"/>
  </g>
  <g id="Layer_5">
    <rect x="920.423" y="2664.436" width="1233.618" height="623.901" rx="18.783" ry="18.783" fill="#686868" stroke="#000" stroke-miterlimit="10" stroke-width="20"/>
    <path d="M2093.637,2773.548c-30.807.568-56.085-24.249-56.085-55.061v-27.168h-463.748v40.021c0,22.36-17.61,40.604-39.717,41.627-22.107-1.023-39.717-19.267-39.717-41.627v-40.021h-463.748v27.168c0,30.812-25.279,55.628-56.085,55.061l-28.77-.531v394.435h33.203c27.662,0,50.087,22.425,50.087,50.087v36h465.313v-41.28c0-22.36,17.61-40.603,39.717-41.627,22.107,1.024,39.717,19.267,39.717,41.627v41.28h465.313v-36c0-27.662,22.425-50.087,50.087-50.087h33.203v-394.435l-28.77.531Z" fill="#686868" stroke="#000" stroke-miterlimit="10" stroke-width="2"/>
    <rect x="1118.814" y="2968.25" width="184.696" height="178.435" fill="#303030" stroke="#000" stroke-miterlimit="10" stroke-width="8"/>
    <rect x="1136.619" y="2982.924" width="149.087" height="149.087" rx="15.065" ry="15.065" fill="#686868" stroke="#000" stroke-miterlimit="10" stroke-width="8"/>
    <g>
      <rect x="1153.249" y="3004.25" width="118.957" height="108.783" fill="none"/>
      <path d="M1160.667,3037.343h31.23v7.734h-31.23v-7.734ZM1172.269,3040.829h8.027v39.111h-8.027v-39.111Z" fill="#fff"/>
      <path d="M1201.624,3078.52c-2.305-1.24-4.062-3.047-5.273-5.42-1.211-2.373-1.816-5.239-1.816-8.599v-11.689c0-3.359.605-6.226,1.816-8.599,1.211-2.373,2.969-4.185,5.273-5.435,2.304-1.25,5.078-1.875,8.32-1.875,2.676,0,5.068.576,7.178,1.729s3.853,2.827,5.229,5.024,2.329,4.849,2.856,7.954h-8.32c-.312-1.406-.796-2.607-1.45-3.604-.655-.996-1.446-1.758-2.373-2.285-.928-.527-1.968-.791-3.12-.791-1.504,0-2.783.308-3.838.923s-1.86,1.514-2.417,2.695-.835,2.603-.835,4.263v11.689c0,1.66.278,3.076.835,4.248s1.362,2.065,2.417,2.681,2.333.923,3.838.923c1.172,0,2.227-.259,3.164-.776s1.729-1.274,2.373-2.271,1.113-2.207,1.406-3.633h8.32c-.547,3.105-1.509,5.757-2.886,7.954s-3.116,3.872-5.215,5.024c-2.1,1.152-4.487,1.729-7.163,1.729-3.242,0-6.016-.62-8.32-1.86Z" fill="#fff"/>
      <path d="M1238.787,3079.765c-1.944-.41-3.77-1.011-5.479-1.802-1.709-.791-3.237-1.743-4.585-2.856l3.721-6.621c1.641,1.348,3.535,2.388,5.684,3.12,2.148.732,4.355,1.099,6.621,1.099,2.617,0,4.648-.444,6.094-1.333,1.445-.889,2.168-2.144,2.168-3.765v-.029c0-1.133-.322-2.031-.967-2.695s-1.484-1.152-2.52-1.465c-1.036-.312-2.363-.596-3.984-.85-.059-.02-.113-.029-.161-.029-.049,0-.103-.01-.161-.029l-.645-.088c-2.852-.449-5.215-1.011-7.09-1.685s-3.467-1.855-4.775-3.545c-1.309-1.689-1.963-4.087-1.963-7.192v-.029c0-2.754.615-5.107,1.846-7.061s3.018-3.442,5.361-4.468,5.175-1.538,8.496-1.538c1.523,0,3.081.176,4.673.527,1.592.352,3.149.859,4.673,1.523s2.969,1.465,4.336,2.402l-3.398,6.797c-1.641-1.133-3.354-2.012-5.142-2.637s-3.501-.938-5.142-.938c-2.461,0-4.365.405-5.713,1.216s-2.021,1.948-2.021,3.413v.029c0,1.23.352,2.202,1.055,2.915s1.572,1.235,2.607,1.567c1.035.332,2.49.684,4.365,1.055.078.02.156.034.234.044.078.01.156.024.234.044.117.02.229.044.337.073.107.029.22.054.337.073,2.695.527,4.946,1.167,6.753,1.919,1.806.752,3.315,1.963,4.526,3.633,1.211,1.67,1.816,3.95,1.816,6.841v.059c0,2.715-.635,5.039-1.904,6.973-1.27,1.934-3.12,3.408-5.552,4.424s-5.357,1.523-8.774,1.523c-2.032,0-4.019-.205-5.962-.615Z" fill="#fff"/>
    </g>
    <rect x="1442.021" y="2969.424" width="184.696" height="178.435" fill="#303030" stroke="#000" stroke-miterlimit="10" stroke-width="8"/>
    <rect x="1459.826" y="2984.098" width="149.087" height="149.087" rx="15.065" ry="15.065" fill="#686868" stroke="#000" stroke-miterlimit="10" stroke-width="8"/>
    <g>
      <rect x="1476.456" y="3005.424" width="118.957" height="108.783" fill="none"/>
      <path d="M1511.585,3052.449c-.953-.474-1.693-1.144-2.222-2.01l3.062-2.229c.328.419.722.743,1.183.971.46.228.941.342,1.442.342.72,0,1.276-.253,1.668-.759.392-.506.588-1.219.588-2.14v-13.549h3.883v13.562c0,1.376-.249,2.552-.745,3.527-.497.976-1.219,1.718-2.167,2.229-.948.511-2.092.766-3.432.766-1.222,0-2.309-.237-3.261-.711Z" fill="#fff"/>
      <path d="M1530.568,3033.076h2.379l7.602,19.879h-4.033l-4.758-13.576-4.758,13.576h-4.033l7.602-19.879ZM1526.617,3046.16h10.459v3.609h-10.459v-3.609Z" fill="#fff"/>
      <path d="M1555.52,3033.076h4.936v19.879h-3.404v-15.436l.137.875-3.801,12.346h-3.309l-3.801-12.072.137-1.148v15.436h-3.404v-19.879h4.936l3.787,13.398,3.787-13.398Z" fill="#fff"/>
      <path d="M1490.797,3086.473c-.907-.191-1.759-.472-2.557-.841-.798-.369-1.511-.813-2.14-1.333l1.736-3.09c.766.629,1.649,1.114,2.652,1.456,1.002.342,2.032.513,3.09.513,1.221,0,2.169-.207,2.844-.622.674-.415,1.012-1,1.012-1.757v-.014c0-.528-.15-.948-.451-1.258s-.693-.538-1.176-.684c-.483-.146-1.103-.278-1.859-.396-.027-.009-.053-.014-.075-.014-.023,0-.048-.005-.075-.014l-.301-.041c-1.331-.21-2.434-.472-3.309-.786s-1.618-.866-2.229-1.654c-.611-.788-.916-1.907-.916-3.356v-.014c0-1.285.287-2.384.861-3.295s1.408-1.606,2.502-2.085,2.415-.718,3.965-.718c.711,0,1.438.082,2.181.246.743.164,1.47.401,2.181.711s1.385.684,2.023,1.121l-1.586,3.172c-.766-.528-1.565-.938-2.399-1.23s-1.634-.438-2.399-.438c-1.148,0-2.037.189-2.666.567s-.943.909-.943,1.593v.014c0,.574.164,1.027.492,1.36s.733.576,1.217.731c.483.155,1.162.319,2.037.492.036.009.073.016.109.021.036.005.073.012.109.021.055.009.107.021.157.034.05.014.103.025.157.034,1.258.246,2.308.545,3.151.896.843.351,1.547.916,2.112,1.695.565.779.848,1.844.848,3.192v.027c0,1.267-.296,2.352-.889,3.254-.593.902-1.456,1.591-2.591,2.064s-2.5.711-4.095.711c-.948,0-1.875-.096-2.782-.287Z" fill="#fff"/>
      <path d="M1501.837,3066.676h14.574v3.609h-14.574v-3.609ZM1507.251,3068.303h3.746v18.252h-3.746v-18.252Z" fill="#fff"/>
      <path d="M1518.599,3066.662h3.746v19.893h-3.746v-19.893ZM1520.089,3074.947h6.918c.383,0,.72-.096,1.012-.287.292-.191.517-.465.677-.82.159-.355.244-.766.253-1.23,0-.465-.08-.875-.239-1.23-.16-.355-.385-.629-.677-.82-.292-.191-.634-.287-1.025-.287h-6.918v-3.609h7.219c1.094,0,2.055.246,2.885.738.829.492,1.472,1.188,1.928,2.085.456.897.684,1.939.684,3.124s-.228,2.227-.684,3.124c-.456.897-1.101,1.593-1.935,2.085s-1.793.738-2.878.738h-7.219v-3.609ZM1524.273,3077.941l4.006-.629,5.359,9.242h-4.539l-4.826-8.613Z" fill="#fff"/>
      <path d="M1539.346,3085.851c-1.099-.606-1.948-1.463-2.55-2.57s-.902-2.391-.902-3.849v-5.633c0-1.458.301-2.741.902-3.849s1.451-1.964,2.55-2.57,2.367-.909,3.808-.909,2.709.303,3.808.909,1.948,1.463,2.55,2.57.902,2.391.902,3.849v5.633c0,1.458-.301,2.741-.902,3.849s-1.451,1.964-2.55,2.57-2.367.909-3.808.909-2.709-.303-3.808-.909ZM1544.931,3082.583c.511-.287.904-.695,1.183-1.224s.417-1.14.417-1.832v-5.824c0-.692-.139-1.304-.417-1.832s-.672-.937-1.183-1.224-1.103-.431-1.777-.431-1.267.144-1.777.431-.904.695-1.183,1.224-.417,1.14-.417,1.832v5.824c0,.692.139,1.304.417,1.832s.672.937,1.183,1.224,1.103.431,1.777.431,1.267-.144,1.777-.431Z" fill="#fff"/>
      <path d="M1554.105,3066.676h3.746v19.879h-3.746v-19.879ZM1555.745,3082.945h6.344c.856,0,1.52-.207,1.989-.622s.704-.996.704-1.743v-.041c0-.501-.104-.93-.314-1.285s-.518-.627-.923-.813-.891-.28-1.456-.28h-6.344v-3.609h6.344c.774,0,1.374-.196,1.798-.588s.636-.943.636-1.654c0-.638-.212-1.135-.636-1.49s-1.023-.533-1.798-.533h-6.344v-3.609h6.467c1.285,0,2.384.212,3.295.636s1.604,1.039,2.078,1.846.711,1.775.711,2.905c0,.774-.152,1.461-.458,2.058s-.75,1.087-1.333,1.47-1.285.643-2.105.779c.875.118,1.625.385,2.249.8s1.099.955,1.422,1.62.485,1.436.485,2.311v.041c0,1.14-.239,2.114-.718,2.926s-1.176,1.429-2.092,1.853-2.017.636-3.302.636h-6.699v-3.609Z" fill="#fff"/>
      <path d="M1572.179,3066.676h3.746v19.879h-3.746v-19.879ZM1573.532,3066.676h11.963v3.609h-11.963v-3.609ZM1573.532,3074.879h10.459v3.609h-10.459v-3.609ZM1573.532,3082.945h11.963v3.609h-11.963v-3.609Z" fill="#fff"/>
    </g>
    <rect x="1766.619" y="2968.25" width="184.696" height="178.435" fill="#303030" stroke="#000" stroke-miterlimit="10" stroke-width="8"/>
    <rect x="1784.423" y="2982.924" width="149.087" height="149.087" rx="15.065" ry="15.065" fill="#686868" stroke="#000" stroke-miterlimit="10" stroke-width="8"/>
    <g>
      <rect x="1801.053" y="3004.25" width="118.957" height="108.783" fill="none"/>
      <path d="M1809.174,3031.902h3.746v19.879h-3.746v-19.879ZM1810.842,3048.172h11.648v3.609h-11.648v-3.609Z" fill="#fff"/>
      <path d="M1831.186,3031.902h2.379l7.602,19.879h-4.033l-4.758-13.576-4.758,13.576h-4.033l7.602-19.879ZM1827.234,3044.986h10.459v3.609h-10.459v-3.609Z" fill="#fff"/>
      <path d="M1845.582,3051.118c-1.085-.579-1.91-1.422-2.475-2.529-.565-1.107-.848-2.44-.848-3.999v-12.688h3.746v12.783c0,1.14.305,2.023.916,2.652.61.629,1.472.943,2.584.943,1.121,0,1.989-.314,2.604-.943s.923-1.513.923-2.652v-12.783h3.746v12.688c0,1.559-.285,2.892-.854,3.999-.57,1.107-1.399,1.95-2.488,2.529-1.09.579-2.399.868-3.931.868s-2.84-.289-3.924-.868Z" fill="#fff"/>
      <path d="M1860.607,3031.902h4.58l7.396,15.23-.328.355v-15.586h3.582v19.865h-4.607l-7.369-14.998.328-.355v15.354h-3.582v-19.865Z" fill="#fff"/>
      <path d="M1883.111,3051.118c-1.076-.579-1.896-1.422-2.461-2.529-.565-1.107-.848-2.445-.848-4.013v-5.455c0-1.567.282-2.905.848-4.013.564-1.107,1.385-1.953,2.461-2.536,1.075-.583,2.369-.875,3.883-.875,1.248,0,2.365.269,3.35.807s1.798,1.319,2.44,2.345,1.087,2.263,1.333,3.712h-3.883c-.146-.656-.372-1.217-.677-1.682-.306-.465-.675-.82-1.107-1.066-.434-.246-.919-.369-1.456-.369-.702,0-1.299.144-1.791.431s-.868.706-1.128,1.258-.39,1.215-.39,1.989v5.455c0,.774.13,1.436.39,1.982s.636.964,1.128,1.251,1.089.431,1.791.431c.547,0,1.039-.121,1.477-.362s.807-.595,1.107-1.06.52-1.03.656-1.695h3.883c-.256,1.449-.704,2.687-1.347,3.712s-1.454,1.807-2.434,2.345c-.98.538-2.095.807-3.343.807-1.514,0-2.808-.289-3.883-.868Z" fill="#fff"/>
      <path d="M1897.262,3031.902h3.746v19.879h-3.746v-19.879ZM1898.998,3040.119h11.58v3.609h-11.58v-3.609ZM1908.145,3031.902h3.746v19.879h-3.746v-19.879Z" fill="#fff"/>
      <path d="M1839.983,3068.865l-8.176,12.906h8.449v3.609h-12.906v-3.363l8.176-12.906h-7.93v-3.609h12.387v3.363Z" fill="#fff"/>
      <path d="M1846.17,3084.677c-1.099-.606-1.948-1.463-2.55-2.57s-.902-2.391-.902-3.849v-5.633c0-1.458.301-2.741.902-3.849s1.451-1.964,2.55-2.57c1.098-.606,2.367-.909,3.808-.909s2.709.303,3.808.909c1.098.606,1.948,1.463,2.55,2.57s.902,2.391.902,3.849v5.633c0,1.458-.301,2.741-.902,3.849s-1.452,1.964-2.55,2.57c-1.099.606-2.368.909-3.808.909s-2.71-.303-3.808-.909ZM1851.755,3081.409c.51-.287.904-.695,1.183-1.224.277-.528.417-1.14.417-1.832v-5.824c0-.692-.14-1.304-.417-1.832-.278-.528-.673-.937-1.183-1.224-.511-.287-1.104-.431-1.777-.431s-1.268.144-1.777.431c-.511.287-.905.695-1.183,1.224-.278.528-.417,1.14-.417,1.832v5.824c0,.692.139,1.304.417,1.832.277.528.672.937,1.183,1.224.51.287,1.103.431,1.777.431s1.267-.144,1.777-.431Z" fill="#fff"/>
      <path d="M1860.929,3065.502h4.58l7.396,15.23-.328.355v-15.586h3.582v19.865h-4.607l-7.369-14.998.328-.355v15.354h-3.582v-19.865Z" fill="#fff"/>
      <path d="M1880.534,3065.502h3.746v19.879h-3.746v-19.879ZM1881.888,3065.502h11.963v3.609h-11.963v-3.609ZM1881.888,3073.705h10.459v3.609h-10.459v-3.609ZM1881.888,3081.772h11.963v3.609h-11.963v-3.609Z" fill="#fff"/>
    </g>
    <polygon points="1565.272 2809.058 1502.902 2809.058 1471.717 2863.072 1502.902 2917.086 1565.272 2917.086 1596.457 2863.072 1565.272 2809.058" fill="#303030" stroke="#000" stroke-miterlimit="10" stroke-width="8"/>
    <circle cx="1534.369" cy="2863.072" r="47.015" fill="#707070" stroke="#000" stroke-miterlimit="10" stroke-width="3"/>
    <path d="M1514.227,2831.228c.685.685,20.327,32.775,20.142,31.844s21.532-31.844,21.532-31.844l-10.763-4.548c-7.037-2.973-15.003-2.835-21.933.381l-8.978,4.167Z" fill="#fff"/>
    <path d="M1572.034,2863.072c-.935.251-38.547,1.216-37.649,1.521.899.305,16.812,34.569,16.812,34.569l9.32-7.047c6.094-4.608,9.957-11.576,10.636-19.185l.88-9.858Z" fill="#fff"/>
    <path d="M1497.4,2863.072c.935.251,38.547,1.216,37.649,1.521s-16.812,34.569-16.812,34.569l-9.32-7.047c-6.094-4.608-9.957-11.576-10.636-19.185l-.88-9.858Z" fill="#fff"/>
    <circle cx="1535.064" cy="2863.072" r="38.082" fill="none" stroke="#000" stroke-miterlimit="10" stroke-width="4"/>
    <g>
      <path d="M1610.833,2849.615h5.018v26.631h-5.018v-26.631ZM1612.664,2849.615h15.659v4.835h-15.659v-4.835ZM1612.664,2860.843h13.646v4.835h-13.646v-4.835Z" fill="#fff"/>
      <path d="M1637.105,2849.615h3.187l10.184,26.631h-5.403l-6.374-18.188-6.374,18.188h-5.402l10.184-26.631ZM1631.811,2867.143h14.012v4.836h-14.012v-4.836Z" fill="#fff"/>
      <path d="M1655.902,2875.357c-1.453-.775-2.558-1.904-3.315-3.389-.757-1.483-1.135-3.269-1.135-5.356v-16.997h5.018v17.125c0,1.526.41,2.711,1.228,3.553.818.843,1.972,1.264,3.462,1.264,1.502,0,2.665-.421,3.489-1.264.824-.842,1.236-2.026,1.236-3.553v-17.125h5.019v16.997c0,2.088-.382,3.873-1.145,5.356-.764,1.484-1.875,2.613-3.334,3.389s-3.215,1.163-5.266,1.163-3.804-.388-5.257-1.163Z" fill="#fff"/>
      <path d="M1675.544,2849.615h5.019v26.631h-5.019v-26.631ZM1677.778,2871.41h15.605v4.836h-15.605v-4.836Z" fill="#fff"/>
      <path d="M1691.797,2849.615h19.524v4.835h-19.524v-4.835ZM1699.05,2851.795h5.019v24.451h-5.019v-24.451Z" fill="#fff"/>
    </g>
  </g>
  <g id="Layer_6">
    <circle cx="978.599" cy="2733.636" r="34.51" fill="#494949" stroke="#000" stroke-miterlimit="10" stroke-width="2"/>
    <polygon points="975.598 2711.129 983.1 2711.129 983.1 2730.635 1001.105 2730.635 1001.105 2739.637 983.1 2739.637 983.1 2757.642 975.598 2757.642 975.598 2739.637 956.093 2739.637 956.093 2730.635 974.098 2730.635 974.098 2711.129 975.598 2711.129" fill="none" stroke="#000" stroke-miterlimit="10" stroke-width="2"/>
    <circle cx="978.599" cy="3218.279" r="34.51" fill="#494949" stroke="#000" stroke-miterlimit="10" stroke-width="2"/>
    <polygon points="975.598 3195.773 983.1 3195.773 983.1 3215.278 1001.105 3215.278 1001.105 3224.281 983.1 3224.281 983.1 3242.286 975.598 3242.286 975.598 3224.281 956.093 3224.281 956.093 3215.278 974.098 3215.278 974.098 3195.773 975.598 3195.773" fill="none" stroke="#000" stroke-miterlimit="10" stroke-width="2"/>
    <circle cx="1534.369" cy="3218.279" r="34.51" fill="#494949" stroke="#000" stroke-miterlimit="10" stroke-width="2"/>
    <polygon points="1531.368 3195.773 1538.87 3195.773 1538.87 3215.278 1556.875 3215.278 1556.875 3224.281 1538.87 3224.281 1538.87 3242.286 1531.368 3242.286 1531.368 3224.281 1511.863 3224.281 1511.863 3215.278 1529.868 3215.278 1529.868 3195.773 1531.368 3195.773" fill="none" stroke="#000" stroke-miterlimit="10" stroke-width="2"/>
    <circle cx="1534.369" cy="2732.714" r="34.51" fill="#494949" stroke="#000" stroke-miterlimit="10" stroke-width="2"/>
    <polygon points="1531.368 2710.208 1538.87 2710.208 1538.87 2729.713 1556.875 2729.713 1556.875 2738.716 1538.87 2738.716 1538.87 2756.721 1531.368 2756.721 1531.368 2738.716 1511.863 2738.716 1511.863 2729.713 1529.868 2729.713 1529.868 2710.208 1531.368 2710.208" fill="none" stroke="#000" stroke-miterlimit="10" stroke-width="2"/>
    <circle cx="2088.618" cy="2733.464" r="34.51" fill="#494949" stroke="#000" stroke-miterlimit="10" stroke-width="2"/>
    <polygon points="2085.617 2710.958 2093.119 2710.958 2093.119 2730.463 2111.124 2730.463 2111.124 2739.466 2093.119 2739.466 2093.119 2757.471 2085.617 2757.471 2085.617 2739.466 2066.111 2739.466 2066.111 2730.463 2084.116 2730.463 2084.116 2710.958 2085.617 2710.958" fill="none" stroke="#000" stroke-miterlimit="10" stroke-width="2"/>
    <circle cx="2089.664" cy="3219.029" r="34.51" fill="#494949" stroke="#000" stroke-miterlimit="10" stroke-width="2"/>
    <polygon points="2086.663 3196.523 2094.165 3196.523 2094.165 3216.028 2112.17 3216.028 2112.17 3225.031 2094.165 3225.031 2094.165 3243.036 2086.663 3243.036 2086.663 3225.031 2067.158 3225.031 2067.158 3216.028 2085.163 3216.028 2085.163 3196.523 2086.663 3196.523" fill="none" stroke="#000" stroke-miterlimit="10" stroke-width="2"/>
  </g>
  <g id="Arrows_Dark">
    <path d="M545.043,640.132l-101.482-56.124-5.357,19.035-275.206-89.018c2.074-6.787,3.306-13.948,3.526-21.375,1.333-44.927-34.133-82.563-79.059-83.897-44.927-1.333-82.563,34.133-83.897,79.06-1.333,44.927,34.133,82.562,79.06,83.896,32.717.971,61.551-17.585,75.33-45.087l276.583,89.437-5.357,19.035,115.858,5.038ZM82.989,559.559c-38.289-1.136-68.408-33.097-67.271-71.387,1.136-38.289,33.097-68.408,71.387-67.271,38.289,1.136,68.408,33.097,67.271,71.387-1.136,38.289-33.097,68.408-71.387,67.271Z" fill="#ccc" stroke="#fff" stroke-miterlimit="10" stroke-width="4"/>
    <path d="M2640.956,635.093l-5.357-19.035,276.583-89.437c13.78,27.503,42.613,46.058,75.33,45.087,44.927-1.333,80.394-38.969,79.06-83.896-1.333-44.927-38.969-80.394-83.897-79.06-44.927,1.333-80.393,38.969-79.059,83.897.22,7.428,1.452,14.588,3.526,21.375l-275.206,89.018-5.357-19.035-101.482,56.124,115.858-5.038ZM2915.765,492.288c-1.136-38.289,28.982-70.25,67.271-71.387,38.289-1.136,70.25,28.982,71.387,67.271,1.136,38.289-28.982,70.25-67.271,71.387s-70.25-28.982-71.387-67.271Z" fill="#ccc" stroke="#fff" stroke-miterlimit="10" stroke-width="4"/>
    <path d="M1979.412,3241.551l13.267-14.663,285.725,258.524c-25.481,33.306-21.573,81.291,10.065,109.918,33.329,30.156,84.978,27.575,115.135-5.754,30.156-33.329,27.575-84.978-5.755-115.134-31.639-28.627-79.775-27.731-110.374.944l-285.724-258.524,13.267-14.663-101.514-56.066,65.908,95.418ZM2291.728,3488.351c25.701-28.405,69.562-30.597,97.967-4.896,28.405,25.701,30.597,69.562,4.896,97.967-25.701,28.405-69.562,30.597-97.967,4.896s-30.597-69.562-4.896-97.967Z" fill="#ccc" stroke="#fff" stroke-miterlimit="10" stroke-width="4"/>
    <path d="M1198.226,3146.133l-101.514,56.066,13.267,14.663-285.724,258.524c-30.599-28.675-78.735-29.571-110.374-.944-33.329,30.156-35.91,81.806-5.755,115.134,30.156,33.329,81.806,35.91,115.135,5.754,31.639-28.627,35.547-76.612,10.065-109.918l285.725-258.524,13.267,14.663,65.908-95.418ZM815.106,3586.318c-28.405,25.701-72.266,23.509-97.967-4.896-25.701-28.405-23.509-72.266,4.896-97.967s72.266-23.509,97.967,4.896c25.701,28.405,23.509,72.266-4.896,97.967Z" fill="#ccc" stroke="#fff" stroke-miterlimit="10" stroke-width="4"/>
    <path d="M559.717,937.132l-112.891-26.535v19.774s-280.598-2.623-280.598-2.623c-3.451-41.793-38.543-74.753-81.211-74.753-44.947,0-81.514,36.567-81.514,81.514,0,44.947,36.567,81.514,81.514,81.514,42.668,0,77.76-32.96,81.211-74.753l280.598,2.623v19.774s112.891-26.535,112.891-26.535ZM85.017,1003.868c-38.306,0-69.359-31.053-69.359-69.359,0-38.306,31.053-69.359,69.359-69.359s69.359,31.053,69.359,69.359-31.053,69.359-69.359,69.359Z" fill="#ccc" stroke="#fff" stroke-miterlimit="10" stroke-width="4"/>
    <path d="M1164.013,544.554l-62.573-97.637-13.766,14.196-199.743-209.202c5.052-4.984,9.542-10.697,13.269-17.125,22.542-38.886,9.246-88.861-29.639-111.402-38.886-22.542-88.861-9.245-111.403,29.64-22.542,38.885-9.245,88.86,29.641,111.402,28.318,16.416,62.506,13.808,87.709-3.831l200.754,210.226-13.766,14.196,99.517,59.538ZM795.894,253.909c-33.14-19.211-44.432-61.651-25.22-94.791,19.211-33.14,61.651-44.432,94.791-25.22,33.14,19.211,44.432,61.651,25.22,94.791s-61.651,44.432-94.791,25.22Z" fill="#ccc" stroke="#fff" stroke-miterlimit="10" stroke-width="4"/>
    <path d="M1505.192,3270.642l19.774.024-.471,182.965c-41.797,3.4-74.8,38.452-74.852,81.119-.055,44.947,36.467,81.559,81.414,81.614,44.946.055,81.558-36.467,81.613-81.414.052-42.668-32.865-77.8-74.653-81.302l.471-182.965,19.774.024-26.397-112.923-26.673,112.858ZM1531.242,3465.492c38.306.047,69.321,31.138,69.275,69.444s-31.138,69.321-69.444,69.275-69.321-31.138-69.275-69.444c.047-38.306,31.138-69.321,69.444-69.275Z" fill="#ccc" stroke="#fff" stroke-miterlimit="10" stroke-width="4"/>
    <path d="M2020.264,485.016l-13.766-14.196,200.754-210.226c25.202,17.638,59.391,20.246,87.709,3.831,38.886-22.542,52.182-72.517,29.641-111.402s-72.517-52.182-111.403-29.64c-38.885,22.542-52.182,72.517-29.639,111.402,3.727,6.429,8.216,12.142,13.269,17.125l-199.743,209.202-13.766-14.196-62.573,97.637,99.517-59.538ZM2194.075,228.689c-19.211-33.14-7.92-75.58,25.22-94.791,33.14-19.211,75.58-7.92,94.791,25.22,19.211,33.14,7.92,75.58-25.22,94.791-33.14,19.211-75.58,7.92-94.791-25.22Z" fill="#ccc" stroke="#fff" stroke-miterlimit="10" stroke-width="4"/>
    <path d="M69.179,520.732h43.276v7h-52.854v-6.976l9.202-10.042c4.823-5.373,9.248-10.298,13.448-14.778,2.086-2.086,4.176-4.526,6.195-6.885,2.11-2.461,10.542-11.95,10.542-11.95.956-.963,1.495-1.642,1.855-2.09.214-.27.396-.486.546-.654,1.025-1.306,1.887-2.958,2.496-4.785.577-1.733.871-3.119.871-5.895,0-2.384-.493-4.746-1.467-7.021-.885-2.349-2.296-4.042-4.158-5.905-2.124-1.75-4.137-3.01-6.104-3.745-5.629-2.111-9.42-2.107-15.041,0-2.576.966-4.515,2.156-6.107,3.749-1.838,1.838-3.314,3.935-4.158,5.905l-6.434-2.758c1.204-2.811,3.157-5.611,5.643-8.096,2.296-2.292,5.106-4.042,8.6-5.352,7.161-2.695,12.779-2.695,19.958,0,3.581,1.344,6.486,3.577,8.362,5.138,2.296,2.279,4.592,4.876,5.937,8.46,1.291,3,1.974,6.29,1.974,9.629,0,3.682-.473,5.832-1.232,8.11-.878,2.639-2.173,5.072-3.737,7.028l-.479.571c-.47.588-1.173,1.466-2.23,2.52.008,0-8.242,9.283-10.318,11.705-2.106,2.457-4.284,4.999-6.482,7.196-4.092,4.365-8.48,9.255-13.269,14.585l-4.831,5.338-.003-.003Z" fill="#ff8500" stroke="#ff8500" stroke-miterlimit="10"/>
    <path d="M3008.826,476.653c1.33,3.108,2.034,6.371,2.034,9.433v17.151c0,3.066-.704,6.325-2.034,9.43-1.295,3.027-3.437,5.929-5.873,7.959-1.876,1.564-4.784,3.794-8.362,5.138-3.594,1.348-6.77,1.974-9.982,1.974-3.658,0-8.232-.791-11.379-1.971-3.493-1.312-6.304-3.062-8.597-5.355-2.205-1.816-4.344-4.718-5.642-7.746-.785-1.554-1.208-3.241-1.579-4.729l-.104-.851v-3.15h7v2.72c.283,1.127.561,2.121,1.029,3.062.962,2.237,2.394,4.183,4.011,5.53,1.827,1.806,3.767,2.996,6.339,3.962,2.359.882,6.115,1.526,8.922,1.526,2.381,0,4.701-.473,7.521-1.53,1.965-.738,3.98-1.995,6.34-3.962,1.613-1.348,3.045-3.297,3.924-5.341.959-2.24,1.466-4.547,1.466-6.671v-17.151c0-2.125-.507-4.431-1.466-6.675-.875-2.044-2.307-3.99-3.924-5.338-1.828-1.803-3.767-2.996-6.34-3.958l-1.07-.413c-1.957-.767-2.854-1.117-6.451-1.117-4.389,0-7.906.938-11.07,2.954-2.363,1.477-4.453,3.567-5.912,5.901l-1.029,1.645h-9.289v-40.602h52.852v7h-45.852v24.767c1.604-1.792,3.458-3.36,5.495-4.634,4.253-2.709,9.107-4.032,14.806-4.032,4.68,0,6.469.605,8.999,1.596l.979.378c3.494,1.309,6.305,3.059,8.598,5.352,2.201,1.816,4.344,4.714,5.642,7.742v.003Z" fill="#ff8500" stroke="#ff8500" stroke-miterlimit="10"/>
    <path d="M2371.115,3541.011c1.949,3.409,2.212,6.686,2.212,9.437v3.15c0,2.961-.647,5.846-2.033,9.079l-.179.356c-1.6,2.805-3.637,5.244-6.049,7.253-2.205,1.838-5.135,3.448-8.712,4.788-2.912,1.092-6.289,1.625-10.329,1.625-3.458,0-6.825-.725-9.95-1.506l-.378-.119c-3.577-1.34-6.511-2.954-8.713-4.788-2.411-2.009-4.444-4.452-6.048-7.253-1.949-3.408-2.212-6.682-2.212-9.436-.024-.486-.687-15.832,1.83-27.348,3.364-14.557,19.188-30.389,29.325-36.236l3.496,6.062c-8.991,5.188-23.23,19.763-25.988,31.708-.459,2.094-.799,4.357-1.054,6.644.595-.521,1.222-1.022,1.876-1.501,1.848-1.48,5.425-3.525,8.46-4.393,3.049-.875,16.038-.932,19.688.438,3.573,1.34,6.507,2.953,8.712,4.791,2.412,2.01,4.449,4.452,6.049,7.252l-.004-.003ZM2366.334,3553.605v-3.15c0-2.667-.36-4.341-1.288-5.964-1.183-2.072-2.681-3.875-4.452-5.349-1.579-1.315-3.893-2.565-6.688-3.612-2.052-.729-13.27-.798-15.317-.262-2.013.576-4.746,2.121-6.118,3.216-4.2,3.084-6.738,7.235-6.738,10.917h-.087c.014,2.439.084,3.998.084,4.043.003,2.828.364,4.498,1.291,6.122,1.187,2.071,2.685,3.874,4.452,5.349,1.537,1.284,3.784,2.506,6.504,3.541,2.632.655,5.422,1.246,8.054,1.246,3.186,0,5.758-.385,7.872-1.176,2.8-1.053,5.113-2.299,6.688-3.611,1.723-1.432,3.186-3.176,4.354-5.178.956-2.278,1.386-4.176,1.386-6.132h.004Z" fill="#ff8500" stroke="#ff8500" stroke-miterlimit="10"/>
    <path d="M99.909,971.978v7h-22.401v-7h7.701v-71.834l-5.471,4.529-4.463-5.394,11.12-9.202h5.814v81.901h7.7Z" fill="#ff8500" stroke="#ff8500" stroke-miterlimit="10"/>
    <path d="M857.424,190.237c1.323,3.091,1.971,9.062,1.971,12.079,0,3.228,0,5.359-1.52,11.054-1.34,5.352-4.088,8.954-6.157,11.022-2.313,2.311-6.734,5.261-10.375,6.171-3.434,1.155-9.041,1.155-12.051,1.155-3.556,0-9.72-2.006-12.229-3.08-2.937-1.26-8.449-4.978-11.799-7.953l4.652-5.233c2.93,2.604,7.896,5.888,9.906,6.752,2.31.991,7.42,2.517,9.471,2.517,2.429,0,7.483,0,10.095-.872,2.24-.57,5.569-2.593,7.382-4.407,1.442-1.438,3.367-3.969,4.33-7.823,1.295-4.858,1.295-6.251,1.295-9.3,0-3.108-.71-7.715-1.467-9.475-.861-2.282-1.908-4.019-3.671-6.136-1.537-1.845-3.213-3.165-4.988-3.924-2.202-.945-4.533-1.82-6.671-1.82h-9.451v-7.623l20.798-23.528h-31.999v-7h39.552v9.02l-19.559,22.128h.658c3.413,0,6.682,1.204,9.429,2.384,2.797,1.201,5.359,3.178,7.609,5.877,2.279,2.73,3.71,5.127,4.792,8.012l-.003.003Z" fill="#ff8500" stroke="#ff8500" stroke-miterlimit="10"/>
    <path d="M2269.423,203.717h9.45v7h-9.45v17.5h-7v-17.5h-36.402v-7.62l36.168-60.284h7.23v60.9l.004.003ZM2262.419,156.03l-28.61,47.683h28.61v-47.683Z" fill="#ff8500" stroke="#ff8500" stroke-miterlimit="10"/>
    <path d="M1555.656,3491.102v9.901l-36.052,74.551v.948h-7.001v-2.552l36.053-74.55v-1.299h-45.153v-7h52.153Z" fill="#ff8500" stroke="#ff8500" stroke-miterlimit="10"/>
    <path d="M798.042,3556.757c0,13.896-12.562,25.202-28.002,25.202s-28.002-11.306-28.002-25.202c0-9.391,5.748-17.585,14.235-21.918-6.878-4.067-11.435-11.074-11.435-19.034,0-12.544,11.306-22.751,25.201-22.751s25.201,10.207,25.201,22.751c0,7.96-4.561,14.967-11.435,19.034,8.487,4.333,14.235,12.527,14.235,21.918ZM791.041,3556.757c0-10.035-9.419-18.2-21.001-18.2s-21.001,8.165-21.001,18.2,9.419,18.201,21.001,18.201,21.001-8.166,21.001-18.201ZM770.04,3531.56c10.035,0,18.201-7.067,18.201-15.751s-8.166-15.751-18.201-15.751-18.201,7.067-18.201,15.751,8.166,15.751,18.201,15.751Z" fill="#ff8500" stroke="#ff8500" stroke-miterlimit="10"/>
  </g>
</svg>