<?xml version="1.0" encoding="UTF-8"?>
<svg xmlns="http://www.w3.org/2000/svg" width="2398.735" height="316.957" viewBox="0 0 2398.735 316.957">
  <g id="a" data-name="FTI_smoler_-_Dark">
    <path d="M2036.585,182.24c-.134.321-.277.636-.418.953.142-.316.282-.634.418-.953Z" fill="#ccc"/>
    <path d="M541.469,258.71c2.894,16.247,17.67,29.167,33.673,28.864,14.143-.267,28.294-.047,42.442-.047,339.339.017,1128.665.08,1183.99-.012,20.9-.035,34.071-11.428,37.149-32.139.77-5.184.674-10.523.678-15.791.038-49.201.016-98.402-.006-147.603-.002-5.701.013-11.406-.201-17.101-.346-9.169-3.465-17.178-9.751-24.076-7.771-8.529-17.289-12.286-28.7-12.268-48.143.076-1128.831.206-1221.319-.115-20.364-.071-36.155,14.355-38.47,32.283-.511,3.959-.531,8-.534,12.003-.047,54.902-.073,109.805-.021,164.707.004,3.768.409,7.581,1.07,11.295ZM549.034,83.526c.004-4.207-.028-8.529.867-12.598,3.316-15.075,16.364-23.724,30.226-23.677,76.86.263,869.546.06,1189.027.082,10.558,0,21.117-.011,31.673.127,16.929.221,29.407,12.656,29.709,29.707.179,10.132.038,20.271.036,30.406-.006,46.244.06,92.487-.126,138.73-.02,4.958-.87,10.128-2.456,14.821-3.619,10.71-15.139,17.861-26.585,17.829-76.65-.216-153.3-.104-229.95-.103-127.328.002-254.656,0-381.984,0v.021c-200.177,0-400.354,0-600.531,0-3.378,0-6.783-.289-10.131.029-13.313,1.267-28.829-9.511-29.658-28.138-.103-2.319-.128-4.644-.129-6.966-.013-53.423-.036-106.846.011-160.269Z" fill="#ccc"/>
    <path d="M566.163,246.323c.001,1.897-.034,3.824.264,5.685.953,5.938,4.18,8.794,10.288,9.052,4.006.17,8.023.106,12.035.106,200.183.004,400.367.003,600.55.003v-.03c198.494,0,396.988,0,595.483-.001,5.701,0,11.405.078,17.104-.06,7.579-.184,10.626-3.083,11.442-10.648.158-1.465.179-2.95.18-4.426.011-54.48.016-108.96.003-163.441,0-2.532.018-5.087-.298-7.59-.714-5.653-4.931-9.545-10.567-9.894-2.104-.13-4.222-.046-6.334-.046-396.144.011-792.288.023-1188.432.034-9.714,0-19.428-.076-29.14.002-7.268.058-11.361,3.649-12.31,10.859-.384,2.916-.335,5.901-.335,8.854.005,53.847.031,107.693.067,161.54Z" fill="none" stroke="#ccc" stroke-miterlimit="10" stroke-width="10"/>
  </g>
  <g id="b" data-name="VTR_Control_Rec_-_Dark">
    <g>
      <rect x="540.37" y="83.278" width="1272.57" height="65.016" fill="none"/>
      <path d="M634.832,119.843l13.639,22.591v1.367h-3.534l-.848.512-14.43-23.896c-.104,0-.212.007-.314.007h-13.226v23.377h-4.722v-57.615h17.709c2.725,0,5.421.562,7.809,1.62,2.562,1.14,4.647,2.535,6.375,4.267,1.402,1.4,2.441,3.218,3.447,4.975l.125.251c.936,2.187,1.373,4.132,1.373,6.125,0,2.068-.475,4.267-1.373,6.361-.791,1.842-2.095,3.747-3.572,5.225-1.365,1.365-3.573,3.187-6.352,4.114-.697.312-1.401.54-2.107.723v-.003ZM616.119,90.907v24.794h13.226c2.654,0,4.304-.276,5.887-.978,1.7-.579,3.298-1.632,4.72-3.053,1.053-1.057,2.016-2.458,2.571-3.75.647-1.509.989-3.065.989-4.498,0-1.318-.291-2.6-.938-4.144-.869-1.519-1.688-2.936-2.621-3.868-1.334-1.334-2.91-2.381-4.956-3.292-1.785-.791-3.821-1.212-5.89-1.212h-12.99Z" fill="#ccc" stroke="#ccc" stroke-miterlimit="10" stroke-width="2"/>
      <path d="M663.842,88.745v19.362h17.001v4.723h-17.001v26.21h30.933v4.723h-35.655v-59.74h35.655v4.723h-30.933Z" fill="#ccc" stroke="#ccc" stroke-miterlimit="10" stroke-width="2"/>
      <path d="M735.545,135.655c1.434-1.082,2.673-2.454,3.792-4.246l4.005,2.503c-1.419,2.271-3.079,4.102-5.072,5.599-1.665,1.115-3.733,2.149-5.78,2.919-2.328.776-4.456,1.096-7.207,1.096-2.923,0-5.211-.348-7.205-1.094-2.049-.683-3.917-1.655-5.974-3.124-2.045-1.272-3.813-3.234-4.989-5.589-1.091-2.177-1.667-4.666-1.667-7.194v-25.738c0-2.987.961-5.315,1.901-7.195,1.53-2.468,3.188-4.297,5.183-5.792,1.66-1.112,3.729-2.148,5.78-2.919,2.319-.774,4.449-1.093,7.204-1.093,2.926,0,5.214.35,7.205,1.096,2.047.68,3.915,1.65,5.974,3.121,2.219,1.667,3.884,3.615,4.989,5.825l-4.225,2.114c-.774-1.552-1.969-2.94-3.554-4.128-1.636-1.169-3.074-1.92-4.76-2.481-1.528-.571-3.289-.824-5.629-.824-2.246,0-3.877.238-5.629.824-1.646.618-3.362,1.476-4.63,2.321-1.433,1.079-2.673,2.453-3.794,4.245-.732,1.49-1.294,2.999-1.294,4.888v25.736c0,1.799.404,3.556,1.167,5.081.8,1.601,1.941,2.871,3.391,3.778,1.802,1.282,3.237,2.035,4.926,2.597,1.528.572,3.292.824,5.629.824,2.241,0,3.873-.238,5.629-.824,1.641-.616,3.36-1.476,4.63-2.32l.004-.005Z" fill="#ccc" stroke="#ccc" stroke-miterlimit="10" stroke-width="2"/>
      <path d="M789.494,94.094c1.088,2.184,1.665,4.673,1.665,7.197v25.737c0,2.526-.576,5.016-1.665,7.195-1.025,2.05-2.569,3.967-4.59,5.697-1.807,1.507-3.748,2.529-5.792,3.062-1.865.681-3.877,1.025-6.135,1.047h-.236c-2.524-.02-4.539-.359-6.496-1.094-2.134-.803-4.031-1.889-5.644-3.232-2.047-1.755-3.591-3.672-4.614-5.717-1.091-2.18-1.667-4.668-1.667-7.195v-25.737c0-2.526.579-5.016,1.667-7.195,1.022-2.05,2.569-3.965,4.59-5.697,1.804-1.505,3.745-2.527,5.79-3.061,1.924-.704,4.012-1.049,6.371-1.049,2.534,0,4.8.369,6.734,1.096,2.13.799,4.026,1.887,5.641,3.23,1.794,1.537,3.218,3.402,4.378,5.715h.002ZM786.432,127.027v-25.738c0-1.795-.404-3.554-1.167-5.084-.883-1.764-1.899-3.104-3.202-4.222-1.181-.982-2.621-1.802-4.25-2.413-1.386-.52-3.138-.794-5.074-.794-1.858,0-3.398.253-4.838.794l-.257.08c-1.398.35-2.749,1.062-4.017,2.12-1.516,1.299-2.675,2.721-3.414,4.201-.765,1.53-1.169,3.287-1.169,5.084v25.735c0,1.797.406,3.557,1.169,5.084.736,1.479,1.896,2.899,3.438,4.222,1.181.982,2.621,1.802,4.252,2.416,1.436.538,2.966.784,4.949.793,1.807-.009,3.308-.262,4.728-.793l.255-.08c1.398-.35,2.751-1.062,4.021-2.121,1.514-1.299,2.673-2.72,3.412-4.2.763-1.525,1.167-3.285,1.167-5.082l-.002-.002Z" fill="#ccc" stroke="#ccc" stroke-miterlimit="10" stroke-width="2"/>
      <path d="M825.233,119.843l13.639,22.591v1.367h-3.534l-.848.512-14.43-23.896c-.104,0-.212.007-.314.007h-13.226v23.377h-4.722v-57.615h17.709c2.725,0,5.421.562,7.809,1.62,2.562,1.14,4.647,2.535,6.375,4.267,1.402,1.4,2.441,3.218,3.447,4.975l.125.251c.936,2.187,1.373,4.132,1.373,6.125,0,2.068-.475,4.267-1.373,6.361-.791,1.842-2.095,3.747-3.572,5.225-1.365,1.365-3.573,3.187-6.352,4.114-.697.312-1.401.54-2.107.723v-.003ZM806.52,90.907v24.794h13.226c2.653,0,4.304-.276,5.887-.978,1.7-.579,3.298-1.632,4.72-3.053,1.053-1.057,2.016-2.458,2.571-3.75.647-1.509.989-3.065.989-4.498,0-1.318-.291-2.6-.938-4.144-.869-1.519-1.688-2.936-2.621-3.868-1.334-1.334-2.91-2.381-4.956-3.292-1.785-.791-3.821-1.212-5.89-1.212h-12.99Z" fill="#ccc" stroke="#ccc" stroke-miterlimit="10" stroke-width="2"/>
      <path d="M886.356,105.746v16.293c0,3.232-.55,6.312-1.587,8.904-.984,2.718-2.52,5.152-4.534,7.169-1.523,1.785-3.473,3.188-5.684,4.038-2.177,1.071-4.401,1.612-6.614,1.612h-18.418v-59.977h18.418c2.441,0,4.718.543,6.958,1.665,2.316,1.159,4.177,2.583,5.698,4.354,1.507,1.5,2.874,3.776,4.177,7.037,1.075,2.951,1.584,5.842,1.584,8.904ZM881.634,105.746c0-2.536-.406-4.831-1.275-7.221-1.032-2.576-2.066-4.35-3.23-5.514-1.239-1.436-2.581-2.453-4.345-3.337-1.591-.796-3.131-1.166-4.845-1.166h-13.695v50.531h13.695c1.511,0,3.062-.395,4.612-1.169l.227-.099c1.525-.569,2.831-1.509,3.995-2.867,1.646-1.657,2.81-3.511,3.587-5.646.831-2.08,1.275-4.619,1.275-7.221v-16.293Z" fill="#ccc" stroke="#ccc" stroke-miterlimit="10" stroke-width="2"/>
      <path d="M1437.329,124.061h-17.71v18.418h-4.723v-18.418h-17.71v-4.723h17.71v-18.418h4.723v18.418h17.71v4.723Z" fill="#ccc" stroke="#ccc" stroke-miterlimit="10" stroke-width="2"/>
      <path d="M1483.199,94.032c1.091,2.177,1.667,4.666,1.667,7.195v25.737c0,2.529-.576,5.021-1.667,7.197-1.02,2.045-2.564,3.96-4.588,5.695-1.807,1.505-3.747,2.529-5.792,3.063-1.865.68-3.875,1.024-6.135,1.046h-.236c-2.524-.02-4.536-.359-6.496-1.094-2.13-.801-4.025-1.887-5.641-3.232-2.05-1.755-3.594-3.672-4.616-5.717-1.091-2.177-1.667-4.666-1.667-7.192v-25.738c0-2.526.578-5.015,1.667-7.194,1.022-2.045,2.566-3.963,4.59-5.695,1.807-1.507,3.748-2.529,5.792-3.062,1.93-.704,4.015-1.049,6.371-1.049,2.529,0,4.794.366,6.732,1.093,2.13.799,4.025,1.887,5.644,3.233,1.797,1.537,3.221,3.402,4.378,5.714h-.003ZM1452.753,100.991v23.292l27.096-25.691c-.196-.859-.488-1.684-.871-2.448-.881-1.764-1.898-3.105-3.202-4.223-1.181-.984-2.621-1.804-4.25-2.415-1.387-.52-3.141-.794-5.074-.794-1.856,0-3.394.253-4.839.794l-.255.08c-1.4.35-2.751,1.062-4.021,2.12-1.519,1.302-2.675,2.723-3.414,4.201-.766,1.53-1.169,3.287-1.169,5.084ZM1480.146,126.968v-22.146l-26.834,25.442c.17.536.366,1.059.611,1.552.739,1.479,1.896,2.899,3.44,4.222,1.181.982,2.619,1.802,4.251,2.416,1.436.538,2.966.784,4.949.793,1.804-.009,3.308-.262,4.725-.793l.255-.08c1.4-.35,2.751-1.063,4.021-2.121,1.516-1.301,2.673-2.723,3.412-4.2.765-1.528,1.169-3.285,1.169-5.084Z" fill="#ccc" stroke="#ccc" stroke-miterlimit="10" stroke-width="2"/>
      <path d="M1530.677,94.032c1.091,2.177,1.667,4.666,1.667,7.195v25.737c0,2.529-.576,5.021-1.667,7.197-1.02,2.045-2.564,3.96-4.588,5.695-1.807,1.505-3.747,2.529-5.792,3.063-1.865.68-3.875,1.024-6.135,1.046h-.236c-2.524-.02-4.536-.359-6.496-1.094-2.13-.801-4.025-1.887-5.641-3.232-2.05-1.755-3.594-3.672-4.616-5.717-1.091-2.177-1.667-4.666-1.667-7.192v-25.738c0-2.526.578-5.015,1.667-7.194,1.022-2.045,2.566-3.963,4.59-5.695,1.807-1.507,3.748-2.529,5.792-3.062,1.93-.704,4.015-1.049,6.371-1.049,2.529,0,4.794.366,6.732,1.093,2.13.799,4.025,1.887,5.644,3.233,1.797,1.537,3.221,3.402,4.378,5.714h-.003ZM1500.23,100.991v23.292l27.096-25.691c-.196-.859-.488-1.684-.871-2.448-.881-1.764-1.898-3.105-3.202-4.223-1.181-.984-2.621-1.804-4.25-2.415-1.387-.52-3.141-.794-5.074-.794-1.856,0-3.394.253-4.839.794l-.255.08c-1.4.35-2.751,1.062-4.021,2.12-1.519,1.302-2.675,2.723-3.414,4.201-.766,1.53-1.169,3.287-1.169,5.084ZM1527.624,126.968v-22.146l-26.834,25.442c.17.536.366,1.059.611,1.552.739,1.479,1.896,2.899,3.44,4.222,1.181.982,2.619,1.802,4.251,2.416,1.436.538,2.966.784,4.949.793,1.804-.009,3.308-.262,4.725-.793l.255-.08c1.4-.35,2.751-1.063,4.021-2.121,1.516-1.301,2.673-2.723,3.412-4.2.765-1.528,1.169-3.285,1.169-5.084Z" fill="#ccc" stroke="#ccc" stroke-miterlimit="10" stroke-width="2"/>
      <path d="M1542.981,110.837c0-2.738,2.115-4.958,4.723-4.958s4.723,2.22,4.723,4.958-2.114,4.959-4.723,4.959-4.723-2.22-4.723-4.959ZM1542.981,138.464c0-2.738,2.115-4.958,4.723-4.958s4.723,2.22,4.723,4.958-2.114,4.959-4.723,4.959-4.723-2.22-4.723-4.959Z" fill="#ccc" stroke="#ccc" stroke-miterlimit="10" stroke-width="2"/>
      <path d="M1598.244,94.032c1.091,2.177,1.667,4.666,1.667,7.195v25.737c0,2.529-.576,5.021-1.667,7.197-1.02,2.045-2.564,3.96-4.588,5.695-1.807,1.505-3.747,2.529-5.792,3.063-1.865.68-3.875,1.024-6.135,1.046h-.236c-2.524-.02-4.536-.359-6.496-1.094-2.13-.801-4.025-1.887-5.641-3.232-2.05-1.755-3.594-3.672-4.616-5.717-1.091-2.177-1.667-4.666-1.667-7.192v-25.738c0-2.526.578-5.015,1.667-7.194,1.022-2.045,2.566-3.963,4.59-5.695,1.807-1.507,3.748-2.529,5.792-3.062,1.93-.704,4.015-1.049,6.371-1.049,2.529,0,4.794.366,6.732,1.093,2.13.799,4.025,1.887,5.644,3.233,1.797,1.537,3.221,3.402,4.378,5.714h-.003ZM1567.798,100.991v23.292l27.096-25.691c-.196-.859-.488-1.684-.871-2.448-.881-1.764-1.898-3.105-3.202-4.223-1.181-.984-2.621-1.804-4.25-2.415-1.387-.52-3.141-.794-5.074-.794-1.856,0-3.394.253-4.839.794l-.255.08c-1.4.35-2.751,1.062-4.021,2.12-1.519,1.302-2.675,2.723-3.414,4.201-.766,1.53-1.169,3.287-1.169,5.084ZM1595.191,126.968v-22.146l-26.834,25.442c.17.536.366,1.059.611,1.552.739,1.479,1.896,2.899,3.44,4.222,1.181.982,2.619,1.802,4.251,2.416,1.436.538,2.966.784,4.949.793,1.804-.009,3.308-.262,4.725-.793l.255-.08c1.4-.35,2.751-1.063,4.021-2.121,1.516-1.301,2.673-2.723,3.412-4.2.765-1.528,1.169-3.285,1.169-5.084Z" fill="#ccc" stroke="#ccc" stroke-miterlimit="10" stroke-width="2"/>
      <path d="M1627.168,139.244v4.723h-15.112v-4.723h5.195v-48.461l-3.691,3.056-3.011-3.639,7.502-6.208h3.923v55.252h5.194Z" fill="#ccc" stroke="#ccc" stroke-miterlimit="10" stroke-width="2"/>
      <path d="M1637.854,110.837c0-2.738,2.115-4.958,4.723-4.958s4.723,2.22,4.723,4.958-2.114,4.959-4.723,4.959-4.723-2.22-4.723-4.959ZM1637.854,138.464c0-2.738,2.115-4.958,4.723-4.958s4.723,2.22,4.723,4.958-2.114,4.959-4.723,4.959-4.723-2.22-4.723-4.959Z" fill="#ccc" stroke="#ccc" stroke-miterlimit="10" stroke-width="2"/>
      <path d="M1693.117,94.032c1.091,2.177,1.667,4.666,1.667,7.195v25.737c0,2.529-.576,5.021-1.667,7.197-1.02,2.045-2.564,3.96-4.588,5.695-1.807,1.505-3.747,2.529-5.792,3.063-1.865.68-3.875,1.024-6.135,1.046h-.236c-2.524-.02-4.536-.359-6.496-1.094-2.13-.801-4.025-1.887-5.641-3.232-2.05-1.755-3.594-3.672-4.616-5.717-1.091-2.177-1.667-4.666-1.667-7.192v-25.738c0-2.526.578-5.015,1.667-7.194,1.022-2.045,2.566-3.963,4.59-5.695,1.807-1.507,3.748-2.529,5.792-3.062,1.93-.704,4.015-1.049,6.371-1.049,2.529,0,4.794.366,6.732,1.093,2.13.799,4.025,1.887,5.644,3.233,1.797,1.537,3.221,3.402,4.378,5.714h-.003ZM1662.671,100.991v23.292l27.096-25.691c-.196-.859-.488-1.684-.871-2.448-.881-1.764-1.898-3.105-3.202-4.223-1.181-.984-2.621-1.804-4.25-2.415-1.387-.52-3.141-.794-5.074-.794-1.856,0-3.394.253-4.839.794l-.255.08c-1.4.35-2.751,1.062-4.021,2.12-1.519,1.302-2.675,2.723-3.414,4.201-.766,1.53-1.169,3.287-1.169,5.084ZM1690.064,126.968v-22.146l-26.834,25.442c.17.536.366,1.059.611,1.552.739,1.479,1.896,2.899,3.44,4.222,1.181.982,2.619,1.802,4.251,2.416,1.436.538,2.966.784,4.949.793,1.804-.009,3.308-.262,4.725-.793l.255-.08c1.4-.35,2.751-1.063,4.021-2.121,1.516-1.301,2.673-2.723,3.412-4.2.765-1.528,1.169-3.285,1.169-5.084Z" fill="#ccc" stroke="#ccc" stroke-miterlimit="10" stroke-width="2"/>
      <path d="M1740.611,115.986c.893,2.085,1.329,6.113,1.329,8.148,0,2.178,0,3.615-1.024,7.457-.904,3.61-2.758,6.04-4.153,7.436-1.561,1.559-4.543,3.549-6.999,4.163-2.316.779-6.1.779-8.13.779-2.399,0-6.558-1.353-8.25-2.078-1.981-.85-5.7-3.357-7.96-5.364l3.138-3.53c1.977,1.757,5.327,3.972,6.683,4.555,1.559.668,5.006,1.698,6.39,1.698,1.639,0,5.049,0,6.81-.588,1.512-.386,3.757-1.75,4.98-2.974.973-.97,2.271-2.678,2.921-5.277.873-3.277.873-4.217.873-6.273,0-2.097-.479-5.205-.989-6.393-.581-1.539-1.286-2.711-2.477-4.139-1.037-1.245-2.168-2.135-3.365-2.647-1.485-.638-3.058-1.228-4.5-1.228h-6.376v-5.144l14.031-15.872h-21.587v-4.723h26.683v6.085l-13.195,14.928h.444c2.302,0,4.508.812,6.361,1.608,1.887.81,3.615,2.145,5.133,3.965,1.537,1.842,2.503,3.459,3.232,5.404l-.002.003Z" fill="#ccc" stroke="#ccc" stroke-miterlimit="10" stroke-width="2"/>
    </g>
    <g>
      <path d="M614.582,181.488v19.362h16.271v4.723h-16.271v26.21h29.603v4.723h-34.123v-59.74h34.123v4.723h-29.603Z" fill="#ccc" stroke="#ccc" stroke-miterlimit="10" stroke-width="2"/>
      <path d="M683.525,210.274c.625,3.257.348,6.066.246,6.857v19.431h-4.52l.032-19.986c.002-.016.368-2.491-.212-5.524-.362-2.796-1.297-4.789-2.888-6.244-1.182-1.079-3.437-1.775-5.744-1.775-1.955,0-3.951.746-5.618,2.102-3.446,3.034-5.229,7.192-5.229,12.302v19.127h-4.52v-19.127c0-.144.018-.277.021-.42l-.244.007s-.228-9.726-.228-12.81c0-1.554-.22-5.001-.22-5.036l4.508-.314c.009.148.23,3.639.23,5.351v.331c.827-1.105,1.77-2.14,2.839-3.082,2.526-2.054,5.504-3.151,8.46-3.151,3.442,0,6.7,1.102,8.718,2.946,2.416,2.21,3.887,5.244,4.369,9.02v-.002Z" fill="#ccc" stroke="#ccc" stroke-miterlimit="10" stroke-width="2"/>
      <path d="M727.324,235.826h-4.519v-1.181l-.036-4.444c-3.017,3.878-7.347,6.331-12.165,6.331-9.096,0-16.497-8.688-16.497-19.363s7.401-19.361,16.497-19.361c4.701,0,8.938,2.33,11.945,6.046l-.194-23.263,4.519-.042.452,55.274-.002.003ZM722.581,217.169c0-8.072-5.372-14.64-11.977-14.64s-11.977,6.567-11.977,14.64,5.374,14.641,11.977,14.641,11.977-6.566,11.977-14.641Z" fill="#ccc" stroke="#ccc" stroke-miterlimit="10" stroke-width="2"/>
      <path d="M1058.559,213.13c.981,2.03,1.453,4.028,1.453,5.936,0,5.087-1.785,9.264-5.311,12.418-3.292,3.179-7.457,4.819-12.316,4.819h-.452c-4.581,0-8.802-1.702-12.544-5.055-2.924-2.586-3.78-4.869-4.402-6.536-.093-.243-.179-.478-.271-.701l4.153-1.863c.111.269.217.55.328.843.522,1.396,1.062,2.838,3.125,4.661,2.953,2.649,6.094,3.93,9.613,3.93h.452c3.738,0,6.786-1.186,9.312-3.625,2.61-2.338,3.794-5.143,3.794-8.891,0-1.161-.316-2.465-.893-3.667-.495-.848-1.213-1.967-2.169-2.633-1.099-.906-2.509-1.757-3.93-2.392-.922-.413-1.959-.746-3.161-1.131-.667-.215-1.363-.439-2.086-.689l-6.646-1.85c-3.582-1.149-6.165-2.881-7.979-5.317-1.968-2.643-2.965-5.75-2.965-9.242,0-4.318,1.715-8.023,5.094-11.013,3.211-3.099,6.856-4.574,11.405-4.574h.45c4.569.276,8.384,1.913,11.471,4.869,2.346,2.177,3.765,4.781,4.312,7.932l-4.45.841c-.368-2.128-1.259-3.752-2.89-5.269-2.325-2.227-5.204-3.449-8.576-3.657l-.319.005c-3.387,0-5.984,1.046-8.411,3.389-2.425,2.148-3.568,4.571-3.568,7.476,0,2.418.678,4.55,2.011,6.342,1.243,1.67,3.042,2.839,5.661,3.682l6.698,1.865c.82.278,1.48.491,2.113.694,1.274.408,2.474.793,3.62,1.306,1.801.806,3.555,1.87,4.815,2.924,1.542,1.064,2.626,2.715,3.462,4.172l-.004.003Z" fill="#ccc" stroke="#ccc" stroke-miterlimit="10" stroke-width="2"/>
      <path d="M1081.527,203.721v22.195c0,1.861.416,3.587,1.06,4.393.757.923,2.744,1.511,4.138,1.511,1.36,0,2.813-.555,2.829-.56l.377-.148h1.087v4.245l.118.326c-.023.009-.064.023-.118.045v.105h-.303c-.743.251-2.329.709-3.993.709-2.477,0-5.785-.985-7.59-3.186-1.919-2.408-2.125-6.004-2.125-7.44v-22.195h-6.779v-4.724h6.779v-10.39h4.52v10.39h10.169v4.724h-10.169Z" fill="#ccc" stroke="#ccc" stroke-miterlimit="10" stroke-width="2"/>
      <path d="M1135.148,235.826h-4.519v-1.181l-.036-4.444c-3.017,3.878-7.347,6.331-12.165,6.331-9.096,0-16.497-8.688-16.497-19.363s7.401-19.361,16.497-19.361c4.701,0,8.938,2.33,11.945,6.046l-.194-23.263,4.519-.042.452,55.274-.002.003ZM1130.405,217.169c0-8.072-5.372-14.64-11.977-14.64s-11.977,6.567-11.977,14.64,5.374,14.641,11.977,14.641,11.977-6.566,11.977-14.641Z" fill="#ccc" stroke="#ccc" stroke-miterlimit="10" stroke-width="2"/>
      <path d="M1162.049,197.805c9.095,0,16.497,8.685,16.497,19.362s-7.401,19.362-16.497,19.362c-4.812,0-9.137-2.445-12.156-6.318l-.045,5.612h-4.52v-1.181l.452-53.857,4.521.042-.19,23.021c3.007-3.712,7.242-6.04,11.94-6.04v-.003ZM1174.028,217.169c0-8.072-5.372-14.64-11.977-14.64s-11.976,6.567-11.976,14.64,5.373,14.641,11.976,14.641,11.977-6.566,11.977-14.641Z" fill="#ccc" stroke="#ccc" stroke-miterlimit="10" stroke-width="2"/>
      <path d="M1671.927,181.488v19.362h16.271v4.723h-16.271v26.21h29.604v4.723h-34.123v-59.74h34.123v4.723h-29.604Z" fill="#ccc" stroke="#ccc" stroke-miterlimit="10" stroke-width="2"/>
      <path d="M1746.997,179.164v57.38h-4.52v-48.055l-10.648,19.955h-4.914l-10.65-19.955v48.055h-4.52v-57.38h4.717l12.908,24.188,12.91-24.188h4.717Z" fill="#ccc" stroke="#ccc" stroke-miterlimit="10" stroke-width="2"/>
      <path d="M1792.434,235.171v1.353h-3.41l-.799.489-18.846-33.479-7.68,8.652v23.865h-4.52v-55.018h4.52v24.205l22.072-24.867.682.662h3.234v1.872l-15.1,17.014,19.846,35.251Z" fill="#ccc" stroke="#ccc" stroke-miterlimit="10" stroke-width="2"/>
    </g>
  </g>
</svg>